G75*
G70*
%OFA0B0*%
%FSLAX24Y24*%
%IPPOS*%
%LPD*%
%AMOC8*
5,1,8,0,0,1.08239X$1,22.5*
%
%ADD10C,0.0050*%
%ADD11OC8,0.0594*%
%ADD12C,0.0885*%
%ADD13R,0.0098X0.0197*%
%ADD14C,0.0100*%
%ADD15C,0.0010*%
%ADD16R,0.0594X0.0594*%
%ADD17R,0.0197X0.0098*%
%ADD18C,0.1236*%
%ADD19OC8,0.1236*%
%ADD20OC8,0.0650*%
%ADD21C,0.1000*%
%ADD22OC8,0.0560*%
%ADD23C,0.0700*%
%ADD24OC8,0.0700*%
%ADD25R,0.0512X0.0591*%
%ADD26OC8,0.0396*%
%ADD27R,0.0396X0.0396*%
%ADD28C,0.0400*%
%ADD29C,0.0160*%
%ADD30C,0.0240*%
%ADD31C,0.1500*%
%ADD32C,0.1000*%
%ADD33C,0.0200*%
%ADD34R,0.0436X0.0436*%
%ADD35C,0.0120*%
%ADD36C,0.0660*%
%ADD37C,0.2165*%
%ADD38C,0.0320*%
%ADD39C,0.1200*%
D10*
X014796Y006541D02*
X014796Y006691D01*
X014946Y006841D01*
X015106Y006691D02*
X015331Y006691D01*
X015407Y006616D01*
X015407Y006466D01*
X015331Y006391D01*
X015106Y006391D01*
X014946Y006391D02*
X014796Y006541D01*
X015567Y006541D02*
X015642Y006616D01*
X015867Y006616D01*
X015867Y006466D01*
X015792Y006391D01*
X015642Y006391D01*
X015567Y006466D01*
X015567Y006541D01*
X015717Y006766D02*
X015567Y006841D01*
X015717Y006766D02*
X015867Y006616D01*
X016027Y006541D02*
X016027Y006466D01*
X016102Y006391D01*
X016327Y006391D01*
X016327Y006841D01*
X016102Y006841D01*
X016027Y006766D01*
X016027Y006691D01*
X016102Y006616D01*
X016327Y006616D01*
X016487Y006616D02*
X016487Y006466D01*
X016563Y006391D01*
X016713Y006391D01*
X016788Y006466D01*
X016788Y006616D02*
X016638Y006691D01*
X016563Y006691D01*
X016487Y006616D01*
X016487Y006841D02*
X016788Y006841D01*
X016788Y006616D01*
X016946Y006691D02*
X017021Y006691D01*
X017171Y006541D01*
X017171Y006391D02*
X017171Y006691D01*
X017792Y006541D02*
X017867Y006616D01*
X018092Y006616D01*
X018092Y006466D01*
X018017Y006391D01*
X017867Y006391D01*
X017792Y006466D01*
X017792Y006541D01*
X017942Y006766D02*
X018092Y006616D01*
X017942Y006766D02*
X017792Y006841D01*
X018402Y006841D02*
X018402Y006391D01*
X018252Y006391D02*
X018553Y006391D01*
X018713Y006466D02*
X018788Y006391D01*
X018938Y006391D01*
X019013Y006466D01*
X018713Y006766D01*
X018713Y006466D01*
X018553Y006691D02*
X018402Y006841D01*
X018713Y006766D02*
X018788Y006841D01*
X018938Y006841D01*
X019013Y006766D01*
X019013Y006466D01*
X019173Y006391D02*
X019473Y006391D01*
X019173Y006691D01*
X019173Y006766D01*
X019248Y006841D01*
X019398Y006841D01*
X019473Y006766D01*
X019633Y006841D02*
X019934Y006391D01*
X020169Y006391D02*
X020169Y006841D01*
X020394Y006616D01*
X020094Y006616D01*
X020554Y006766D02*
X020554Y006466D01*
X020629Y006391D01*
X020779Y006391D01*
X020855Y006466D01*
X020554Y006766D01*
X020629Y006841D01*
X020779Y006841D01*
X020855Y006766D01*
X020855Y006466D01*
X021011Y006391D02*
X021161Y006541D01*
X021161Y006691D01*
X021011Y006841D01*
X021782Y006841D02*
X021782Y006391D01*
X022007Y006391D01*
X022082Y006466D01*
X022082Y006616D01*
X022007Y006691D01*
X021782Y006691D01*
X022241Y006691D02*
X022316Y006691D01*
X022466Y006541D01*
X022466Y006391D02*
X022466Y006691D01*
X022626Y006616D02*
X022701Y006691D01*
X022851Y006691D01*
X022851Y006541D02*
X022626Y006541D01*
X022626Y006616D02*
X022626Y006391D01*
X022851Y006391D01*
X022926Y006466D01*
X022851Y006541D01*
X023086Y006466D02*
X023086Y006616D01*
X023161Y006691D01*
X023312Y006691D01*
X023387Y006616D01*
X023387Y006466D01*
X023312Y006391D01*
X023161Y006391D01*
X023086Y006466D01*
X023547Y006466D02*
X023547Y006616D01*
X023622Y006691D01*
X023847Y006691D01*
X023847Y006841D02*
X023847Y006391D01*
X023622Y006391D01*
X023547Y006466D01*
X024466Y006691D02*
X024541Y006691D01*
X024691Y006541D01*
X024691Y006391D02*
X024691Y006691D01*
X024851Y006616D02*
X024851Y006541D01*
X025151Y006541D01*
X025151Y006466D02*
X025151Y006616D01*
X025076Y006691D01*
X024926Y006691D01*
X024851Y006616D01*
X024926Y006391D02*
X025076Y006391D01*
X025151Y006466D01*
X025312Y006466D02*
X025312Y006691D01*
X025312Y006466D02*
X025387Y006391D01*
X025462Y006466D01*
X025537Y006391D01*
X025612Y006466D01*
X025612Y006691D01*
X025772Y006616D02*
X025847Y006691D01*
X025997Y006691D01*
X026072Y006616D01*
X026072Y006466D01*
X025997Y006391D01*
X025847Y006391D01*
X025772Y006466D01*
X025772Y006616D01*
X026232Y006616D02*
X026232Y006466D01*
X026307Y006391D01*
X026533Y006391D01*
X026533Y006241D02*
X026533Y006691D01*
X026307Y006691D01*
X026232Y006616D01*
X027153Y006466D02*
X027153Y006841D01*
X027453Y006841D02*
X027453Y006466D01*
X027378Y006391D01*
X027228Y006391D01*
X027153Y006466D01*
X027614Y006466D02*
X027689Y006391D01*
X027839Y006391D01*
X027914Y006466D01*
X027839Y006616D02*
X027914Y006691D01*
X027914Y006766D01*
X027839Y006841D01*
X027689Y006841D01*
X027614Y006766D01*
X027689Y006616D02*
X027614Y006541D01*
X027614Y006466D01*
X027689Y006616D02*
X027839Y006616D01*
X028074Y006616D02*
X028074Y006766D01*
X028149Y006841D01*
X028374Y006841D01*
X028374Y006391D01*
X028374Y006541D02*
X028149Y006541D01*
X028074Y006616D01*
X028995Y006766D02*
X029295Y006466D01*
X029295Y006391D01*
X028995Y006391D01*
X028995Y006766D02*
X028995Y006841D01*
X029295Y006841D01*
X029455Y006841D02*
X029755Y006841D01*
X029755Y006391D01*
X029455Y006391D01*
X029605Y006616D02*
X029755Y006616D01*
X029916Y006391D02*
X030216Y006391D01*
X030216Y006841D01*
X029916Y006841D01*
X030066Y006616D02*
X030216Y006616D01*
X016102Y006616D02*
X016027Y006541D01*
D11*
X017660Y009323D03*
X017660Y010323D03*
X016660Y010323D03*
X018660Y010323D03*
X018660Y009323D03*
X019660Y009323D03*
X019660Y010323D03*
X020660Y010323D03*
X020660Y009323D03*
X021660Y009323D03*
X021660Y010323D03*
X022660Y010323D03*
X022660Y009323D03*
X023660Y009323D03*
X023660Y010323D03*
X024660Y010323D03*
X024660Y009323D03*
X025660Y009323D03*
X025660Y010323D03*
X026660Y010323D03*
X026660Y009323D03*
X027660Y009323D03*
X027660Y010323D03*
X028660Y010323D03*
X028660Y009323D03*
X036741Y009091D03*
X036741Y010091D03*
X016141Y015816D03*
X016141Y016816D03*
X016141Y017816D03*
X016141Y018816D03*
X015141Y018816D03*
X015141Y017816D03*
X015141Y016816D03*
X015141Y015816D03*
X035716Y052691D03*
X035716Y053691D03*
X035716Y054691D03*
X036716Y054691D03*
X036716Y053691D03*
X036716Y052691D03*
D12*
X033450Y028205D02*
X033450Y027320D01*
X031250Y027320D02*
X031250Y028205D01*
X029050Y028205D02*
X029050Y027320D01*
D13*
X034995Y042291D03*
X035087Y042291D03*
D14*
X008785Y013785D02*
X008785Y007358D01*
X008823Y007499D01*
X008988Y007785D01*
X009221Y008018D01*
X009507Y008183D01*
X009826Y008268D01*
X010156Y008268D01*
X010474Y008183D01*
X010760Y008018D01*
X010993Y007785D01*
X011158Y007499D01*
X011207Y007316D01*
X025415Y007316D01*
X025261Y007470D01*
X024386Y008345D01*
X024246Y008683D01*
X024246Y008925D01*
X024196Y008975D01*
X024196Y009127D01*
X024193Y009129D01*
X024193Y009516D01*
X024196Y009519D01*
X024196Y010127D01*
X024193Y010129D01*
X024193Y010516D01*
X024196Y010519D01*
X024196Y010657D01*
X024325Y010786D01*
X024463Y010786D01*
X024467Y010790D01*
X024853Y010790D01*
X024857Y010786D01*
X025463Y010786D01*
X025467Y010790D01*
X025853Y010790D01*
X025857Y010786D01*
X026007Y010786D01*
X026136Y010657D01*
X026136Y009197D01*
X026193Y009140D01*
X026193Y009516D01*
X026467Y009790D01*
X026853Y009790D01*
X027127Y009516D01*
X027127Y009129D01*
X026908Y008911D01*
X027260Y008911D01*
X027196Y008975D01*
X027196Y009127D01*
X027193Y009129D01*
X027193Y009516D01*
X027196Y009519D01*
X027196Y010127D01*
X027193Y010129D01*
X027193Y010516D01*
X027196Y010519D01*
X027196Y010657D01*
X027325Y010786D01*
X027463Y010786D01*
X027467Y010790D01*
X027853Y010790D01*
X027857Y010786D01*
X028463Y010786D01*
X028467Y010790D01*
X028853Y010790D01*
X028857Y010786D01*
X029007Y010786D01*
X029057Y010736D01*
X031660Y010736D01*
X033766Y012842D01*
X033766Y018691D01*
X033266Y018691D01*
X033266Y018112D01*
X033384Y017993D01*
X033384Y017688D01*
X033168Y017473D01*
X032863Y017473D01*
X032648Y017688D01*
X032648Y017993D01*
X032766Y018112D01*
X032766Y018691D01*
X029017Y018691D01*
X028993Y018681D01*
X025289Y018681D01*
X025194Y018721D01*
X025120Y018794D01*
X025081Y018889D01*
X025081Y023318D01*
X025120Y023413D01*
X025194Y023486D01*
X025289Y023526D01*
X028766Y023526D01*
X028766Y026641D01*
X029416Y026641D01*
X029416Y026819D01*
X029397Y026800D01*
X029172Y026707D01*
X028929Y026707D01*
X028704Y026800D01*
X028531Y026973D01*
X028438Y027198D01*
X028438Y028327D01*
X028531Y028552D01*
X028704Y028724D01*
X028929Y028817D01*
X029172Y028817D01*
X029397Y028724D01*
X029416Y028706D01*
X029416Y029441D01*
X032941Y032941D01*
X032941Y034440D01*
X032791Y034180D01*
X032432Y033822D01*
X031993Y033569D01*
X031504Y033437D01*
X030997Y033437D01*
X030508Y033569D01*
X030069Y033822D01*
X029710Y034180D01*
X029457Y034619D01*
X029326Y035109D01*
X029326Y035616D01*
X029457Y036105D01*
X029710Y036544D01*
X030069Y036902D01*
X030508Y037156D01*
X030997Y037287D01*
X031504Y037287D01*
X031993Y037156D01*
X032432Y036902D01*
X032791Y036544D01*
X032941Y036284D01*
X032941Y038291D01*
X032766Y038461D01*
X031891Y038461D01*
X031891Y038466D01*
X031316Y039041D01*
X031316Y040891D01*
X031009Y040892D01*
X031009Y040863D01*
X030793Y040648D01*
X030584Y040648D01*
X030557Y040621D01*
X021575Y040621D01*
X021446Y040750D01*
X021123Y041073D01*
X020963Y041073D01*
X020748Y041288D01*
X020748Y041593D01*
X020963Y041809D01*
X021268Y041809D01*
X021484Y041593D01*
X021484Y041334D01*
X021757Y041061D01*
X022261Y041061D01*
X020620Y042702D01*
X020576Y042808D01*
X020576Y044646D01*
X020174Y045048D01*
X020063Y045048D01*
X019848Y045263D01*
X019848Y045568D01*
X020063Y045784D01*
X020368Y045784D01*
X020584Y045568D01*
X020584Y045458D01*
X020971Y045071D01*
X020971Y047686D01*
X017056Y047686D01*
X017018Y047648D01*
X016713Y047648D01*
X016498Y047863D01*
X016498Y048166D01*
X009712Y048166D01*
X009116Y047630D01*
X009116Y038709D01*
X009268Y038709D01*
X009484Y038493D01*
X009484Y038188D01*
X009268Y037973D01*
X008963Y037973D01*
X008785Y038151D01*
X008785Y037941D01*
X023166Y037941D01*
X023166Y037691D01*
X008785Y037691D01*
X008785Y029722D01*
X012150Y033086D01*
X018990Y033086D01*
X019138Y033234D01*
X019443Y033234D01*
X019659Y033018D01*
X019659Y032713D01*
X019443Y032498D01*
X019138Y032498D01*
X018990Y032646D01*
X012332Y032646D01*
X011797Y032111D01*
X011940Y032111D01*
X012088Y032259D01*
X012393Y032259D01*
X012609Y032043D01*
X012609Y031738D01*
X012393Y031523D01*
X012088Y031523D01*
X011940Y031671D01*
X011682Y031671D01*
X011532Y031521D01*
X011507Y031496D01*
X009261Y029250D01*
X009261Y025922D01*
X011160Y027821D01*
X009987Y027821D01*
X009888Y027862D01*
X009702Y028048D01*
X009563Y028048D01*
X009348Y028263D01*
X009348Y028568D01*
X009563Y028784D01*
X009868Y028784D01*
X010084Y028568D01*
X010084Y028430D01*
X010153Y028361D01*
X022015Y028361D01*
X022213Y028559D01*
X022518Y028559D01*
X022734Y028343D01*
X022734Y028038D01*
X022731Y028036D01*
X025615Y028036D01*
X025763Y028184D01*
X026068Y028184D01*
X026284Y027968D01*
X026284Y027663D01*
X026068Y027448D01*
X025763Y027448D01*
X025615Y027596D01*
X011557Y027596D01*
X009486Y025525D01*
X009486Y014357D01*
X011409Y012434D01*
X011693Y012434D01*
X011696Y012432D01*
X011696Y013725D01*
X010746Y014675D01*
X010746Y016140D01*
X010598Y016288D01*
X010598Y016593D01*
X010813Y016809D01*
X011118Y016809D01*
X011334Y016593D01*
X011334Y016534D01*
X011473Y016534D01*
X012146Y017207D01*
X012146Y018190D01*
X011998Y018338D01*
X011998Y018643D01*
X012213Y018859D01*
X012518Y018859D01*
X012734Y018643D01*
X012734Y018338D01*
X012586Y018190D01*
X012586Y017025D01*
X011784Y016223D01*
X011784Y016013D01*
X011568Y015798D01*
X011411Y015798D01*
X011411Y014957D01*
X012146Y014222D01*
X012146Y014640D01*
X012041Y014745D01*
X011993Y014698D01*
X011688Y014698D01*
X011473Y014913D01*
X011473Y015218D01*
X011645Y015391D01*
X011598Y015438D01*
X011598Y015743D01*
X011813Y015959D01*
X011998Y015959D01*
X011998Y016093D01*
X012213Y016309D01*
X012518Y016309D01*
X012666Y016161D01*
X013540Y016161D01*
X013671Y016292D01*
X013671Y018365D01*
X013598Y018438D01*
X013598Y018743D01*
X013813Y018959D01*
X014118Y018959D01*
X014334Y018743D01*
X014334Y018438D01*
X014118Y018223D01*
X014111Y018223D01*
X014111Y016292D01*
X014259Y016143D01*
X014259Y015838D01*
X014231Y015811D01*
X014674Y015811D01*
X014674Y016009D01*
X014947Y016283D01*
X015334Y016283D01*
X015581Y016036D01*
X015701Y016036D01*
X015947Y016283D01*
X016334Y016283D01*
X016608Y016009D01*
X016608Y015623D01*
X016334Y015349D01*
X015947Y015349D01*
X015701Y015596D01*
X015581Y015596D01*
X015334Y015349D01*
X014947Y015349D01*
X014926Y015371D01*
X014306Y015371D01*
X014384Y015293D01*
X014384Y014988D01*
X014356Y014961D01*
X023757Y014961D01*
X023886Y014832D01*
X024407Y014311D01*
X028257Y014311D01*
X028386Y014182D01*
X028409Y014159D01*
X028618Y014159D01*
X028834Y013943D01*
X028834Y013638D01*
X028618Y013423D01*
X028313Y013423D01*
X028098Y013638D01*
X028098Y013848D01*
X028075Y013871D01*
X024225Y013871D01*
X023575Y014521D01*
X013791Y014521D01*
X013718Y014448D01*
X013413Y014448D01*
X013198Y014663D01*
X013198Y014968D01*
X013375Y015146D01*
X012681Y015146D01*
X012734Y015093D01*
X012734Y014788D01*
X012586Y014640D01*
X012586Y014332D01*
X012588Y014334D01*
X012893Y014334D01*
X013109Y014118D01*
X013109Y013909D01*
X014457Y012561D01*
X020350Y012561D01*
X020348Y012563D01*
X020348Y012721D01*
X016650Y012721D01*
X015845Y013526D01*
X015515Y013526D01*
X015416Y013625D01*
X015416Y013745D01*
X015273Y013888D01*
X015273Y014193D01*
X015416Y014337D01*
X015416Y014357D01*
X015515Y014456D01*
X016168Y014456D01*
X016216Y014409D01*
X016264Y014456D01*
X016916Y014456D01*
X017016Y014357D01*
X017016Y014337D01*
X017116Y014236D01*
X017790Y014236D01*
X017938Y014384D01*
X018243Y014384D01*
X018459Y014168D01*
X018459Y013863D01*
X018243Y013648D01*
X017938Y013648D01*
X017790Y013796D01*
X017116Y013796D01*
X017016Y013695D01*
X017016Y013625D01*
X016916Y013526D01*
X016467Y013526D01*
X016832Y013161D01*
X020582Y013161D01*
X020659Y013084D01*
X020868Y013084D01*
X021084Y012868D01*
X021084Y012563D01*
X021081Y012561D01*
X021300Y012561D01*
X021523Y012784D01*
X021523Y012993D01*
X021738Y013209D01*
X022043Y013209D01*
X022259Y012993D01*
X022259Y012688D01*
X022043Y012473D01*
X021834Y012473D01*
X021652Y012291D01*
X022523Y012291D01*
X022523Y012368D01*
X022738Y012584D01*
X023043Y012584D01*
X023178Y012449D01*
X023238Y012509D01*
X023543Y012509D01*
X023661Y012391D01*
X025395Y012391D01*
X025513Y012509D01*
X025818Y012509D01*
X026034Y012293D01*
X026034Y011988D01*
X025818Y011773D01*
X025513Y011773D01*
X025395Y011891D01*
X023661Y011891D01*
X023543Y011773D01*
X023238Y011773D01*
X023103Y011908D01*
X023043Y011848D01*
X022876Y011848D01*
X022857Y011829D01*
X022766Y011791D01*
X021411Y011791D01*
X021434Y011768D01*
X021434Y011463D01*
X021386Y011415D01*
X021386Y010681D01*
X021475Y010770D01*
X021611Y010770D01*
X021611Y010371D01*
X021708Y010371D01*
X021708Y010770D01*
X021845Y010770D01*
X022107Y010508D01*
X022107Y010371D01*
X021708Y010371D01*
X021708Y010274D01*
X021708Y009876D01*
X021845Y009876D01*
X022107Y010138D01*
X022107Y010274D01*
X021708Y010274D01*
X021611Y010274D01*
X021611Y009876D01*
X021475Y009876D01*
X021386Y009965D01*
X021386Y009957D01*
X021553Y009790D01*
X021853Y009790D01*
X022127Y009516D01*
X022127Y009129D01*
X021853Y008856D01*
X021467Y008856D01*
X021193Y009129D01*
X021193Y009516D01*
X021199Y009522D01*
X020946Y009775D01*
X020868Y009775D01*
X020853Y009790D02*
X020467Y009790D01*
X020193Y009516D01*
X020193Y009129D01*
X020467Y008856D01*
X020853Y008856D01*
X021127Y009129D01*
X021127Y009516D01*
X020853Y009790D01*
X020845Y009876D02*
X020946Y009977D01*
X020946Y009775D01*
X020946Y009873D02*
X019871Y009873D01*
X019853Y009856D02*
X020127Y010129D01*
X020127Y010516D01*
X019853Y010790D01*
X019743Y010790D01*
X019162Y011371D01*
X016256Y011371D01*
X016118Y011509D01*
X015813Y011509D01*
X015598Y011293D01*
X015598Y010988D01*
X015813Y010773D01*
X016118Y010773D01*
X016256Y010911D01*
X018972Y010911D01*
X019280Y010603D01*
X019193Y010516D01*
X019193Y010129D01*
X019467Y009856D01*
X019853Y009856D01*
X019853Y009790D02*
X019467Y009790D01*
X019193Y009516D01*
X019193Y009179D01*
X018475Y008461D01*
X011666Y008461D01*
X011518Y008609D01*
X011213Y008609D01*
X010998Y008393D01*
X010998Y008088D01*
X011213Y007873D01*
X011518Y007873D01*
X011666Y008021D01*
X018657Y008021D01*
X018786Y008150D01*
X019492Y008856D01*
X019853Y008856D01*
X020127Y009129D01*
X020127Y009516D01*
X019853Y009790D01*
X019868Y009775D02*
X020452Y009775D01*
X020475Y009876D02*
X020611Y009876D01*
X020611Y010274D01*
X020213Y010274D01*
X020213Y010138D01*
X020475Y009876D01*
X020379Y009972D02*
X019969Y009972D01*
X020068Y010070D02*
X020280Y010070D01*
X020213Y010169D02*
X020127Y010169D01*
X020127Y010267D02*
X020213Y010267D01*
X020213Y010371D02*
X020611Y010371D01*
X020611Y010274D01*
X020708Y010274D01*
X020708Y009876D01*
X020845Y009876D01*
X020941Y009972D02*
X020946Y009972D01*
X020708Y009972D02*
X020611Y009972D01*
X020611Y010070D02*
X020708Y010070D01*
X020708Y010169D02*
X020611Y010169D01*
X020611Y010267D02*
X020708Y010267D01*
X020708Y010371D02*
X020611Y010371D01*
X020611Y010770D01*
X020475Y010770D01*
X020213Y010508D01*
X020213Y010371D01*
X020127Y010366D02*
X020611Y010366D01*
X020708Y010371D02*
X020708Y010770D01*
X020845Y010770D01*
X020946Y010669D01*
X020946Y011248D01*
X020913Y011248D01*
X020698Y011463D01*
X020698Y011768D01*
X020720Y011791D01*
X019136Y011791D01*
X018943Y011598D01*
X018638Y011598D01*
X018423Y011813D01*
X018423Y012118D01*
X018425Y012121D01*
X014275Y012121D01*
X014146Y012250D01*
X012798Y013598D01*
X012588Y013598D01*
X012586Y013600D01*
X012586Y011500D01*
X011232Y010146D01*
X010566Y010146D01*
X010418Y009998D01*
X010113Y009998D01*
X009898Y010213D01*
X009898Y010518D01*
X010113Y010734D01*
X010323Y010734D01*
X010323Y010893D01*
X010538Y011109D01*
X010723Y011109D01*
X010723Y011318D01*
X010938Y011534D01*
X011243Y011534D01*
X011296Y011482D01*
X011512Y011698D01*
X011388Y011698D01*
X011173Y011913D01*
X011173Y012048D01*
X011083Y012138D01*
X010868Y011923D01*
X010563Y011923D01*
X010453Y012033D01*
X010343Y011923D01*
X010038Y011923D01*
X009823Y012138D01*
X009823Y012443D01*
X009971Y012592D01*
X009971Y012600D01*
X008785Y013785D01*
X008785Y013715D02*
X008856Y013715D01*
X008785Y013616D02*
X008954Y013616D01*
X009053Y013518D02*
X008785Y013518D01*
X008785Y013419D02*
X009151Y013419D01*
X009250Y013321D02*
X008785Y013321D01*
X008785Y013222D02*
X009348Y013222D01*
X009447Y013124D02*
X008785Y013124D01*
X008785Y013025D02*
X009545Y013025D01*
X009644Y012927D02*
X008785Y012927D01*
X008785Y012828D02*
X009742Y012828D01*
X009841Y012730D02*
X008785Y012730D01*
X008785Y012631D02*
X009939Y012631D01*
X009912Y012533D02*
X008785Y012533D01*
X008785Y012434D02*
X009823Y012434D01*
X009823Y012336D02*
X008785Y012336D01*
X008785Y012237D02*
X009823Y012237D01*
X009823Y012139D02*
X008785Y012139D01*
X008785Y012040D02*
X009921Y012040D01*
X010019Y011942D02*
X008785Y011942D01*
X008785Y011843D02*
X011243Y011843D01*
X011173Y011942D02*
X010887Y011942D01*
X010986Y012040D02*
X011173Y012040D01*
X011466Y012066D02*
X009266Y014266D01*
X009266Y025616D01*
X011466Y027816D01*
X025916Y027816D01*
X026284Y027801D02*
X028438Y027801D01*
X028438Y027899D02*
X026284Y027899D01*
X026255Y027998D02*
X028438Y027998D01*
X028438Y028096D02*
X026156Y028096D01*
X026284Y027702D02*
X028438Y027702D01*
X028438Y027604D02*
X026224Y027604D01*
X026125Y027505D02*
X028438Y027505D01*
X028438Y027406D02*
X011367Y027406D01*
X011269Y027308D02*
X028438Y027308D01*
X028438Y027209D02*
X019197Y027209D01*
X019146Y027261D02*
X018736Y027261D01*
X018446Y026971D01*
X018446Y026561D01*
X018736Y026271D01*
X019146Y026271D01*
X019436Y026561D01*
X019436Y026971D01*
X019146Y027261D01*
X019296Y027111D02*
X028474Y027111D01*
X028515Y027012D02*
X022590Y027012D01*
X022636Y026966D02*
X022518Y027084D01*
X022213Y027084D01*
X021998Y026868D01*
X021998Y026563D01*
X022213Y026348D01*
X022518Y026348D01*
X022636Y026466D01*
X025098Y026466D01*
X025098Y026438D01*
X025313Y026223D01*
X025618Y026223D01*
X025834Y026438D01*
X025834Y026743D01*
X025618Y026959D01*
X025407Y026959D01*
X025391Y026966D01*
X022636Y026966D01*
X022142Y027012D02*
X019394Y027012D01*
X019436Y026914D02*
X022043Y026914D01*
X021998Y026815D02*
X019436Y026815D01*
X019436Y026717D02*
X021998Y026717D01*
X021998Y026618D02*
X019436Y026618D01*
X019395Y026520D02*
X022041Y026520D01*
X022140Y026421D02*
X019296Y026421D01*
X019198Y026323D02*
X023177Y026323D01*
X023120Y026266D02*
X023238Y026384D01*
X023543Y026384D01*
X023759Y026168D01*
X023759Y025863D01*
X023543Y025648D01*
X023238Y025648D01*
X023120Y025766D01*
X015761Y025766D01*
X015643Y025648D01*
X015338Y025648D01*
X015190Y025796D01*
X010857Y025796D01*
X010332Y025271D01*
X010409Y025193D01*
X010409Y024888D01*
X010193Y024673D01*
X009888Y024673D01*
X009673Y024888D01*
X009673Y025193D01*
X009821Y025342D01*
X009821Y025382D01*
X009950Y025511D01*
X010675Y026236D01*
X013175Y026236D01*
X013098Y026313D01*
X013098Y026523D01*
X012946Y026675D01*
X012818Y026548D01*
X012513Y026548D01*
X012298Y026763D01*
X012298Y027068D01*
X012513Y027284D01*
X012818Y027284D01*
X012966Y027136D01*
X013107Y027136D01*
X013409Y026834D01*
X013618Y026834D01*
X013834Y026618D01*
X013834Y026313D01*
X013756Y026236D01*
X015190Y026236D01*
X015338Y026384D01*
X015643Y026384D01*
X015761Y026266D01*
X023120Y026266D01*
X023154Y025732D02*
X015727Y025732D01*
X015491Y026016D02*
X010766Y026016D01*
X010041Y025291D01*
X010041Y025041D01*
X010409Y025042D02*
X010648Y025042D01*
X010648Y024963D02*
X010863Y024748D01*
X011168Y024748D01*
X011384Y024963D01*
X011384Y025041D01*
X012698Y025041D01*
X012698Y024738D01*
X012913Y024523D01*
X013123Y024523D01*
X013775Y023871D01*
X017425Y023871D01*
X017423Y023868D01*
X017423Y023563D01*
X017638Y023348D01*
X017805Y023348D01*
X018029Y023124D01*
X018099Y023054D01*
X018191Y023016D01*
X022620Y023016D01*
X022738Y022898D01*
X023043Y022898D01*
X023259Y023113D01*
X023259Y023418D01*
X023043Y023634D01*
X022738Y023634D01*
X022620Y023516D01*
X018344Y023516D01*
X018239Y023621D01*
X021407Y023621D01*
X021657Y023871D01*
X024048Y023871D01*
X024048Y023788D01*
X024263Y023573D01*
X024568Y023573D01*
X024784Y023788D01*
X024784Y024093D01*
X024781Y024096D01*
X024865Y024096D01*
X025013Y023948D01*
X025318Y023948D01*
X025534Y024163D01*
X025534Y024452D01*
X025638Y024348D01*
X025943Y024348D01*
X026159Y024563D01*
X026159Y024868D01*
X025943Y025084D01*
X025638Y025084D01*
X025520Y024966D01*
X024711Y024966D01*
X024593Y025084D01*
X024288Y025084D01*
X024073Y024868D01*
X024073Y024563D01*
X024100Y024536D01*
X021366Y024536D01*
X021318Y024584D01*
X021013Y024584D01*
X020798Y024368D01*
X020798Y024063D01*
X020800Y024061D01*
X018332Y024061D01*
X018211Y024182D01*
X018082Y024311D01*
X013957Y024311D01*
X013434Y024834D01*
X013434Y025041D01*
X016295Y025041D01*
X016413Y024923D01*
X016718Y024923D01*
X016836Y025041D01*
X022620Y025041D01*
X022738Y024923D01*
X023043Y024923D01*
X023259Y025138D01*
X023259Y025443D01*
X023043Y025659D01*
X022738Y025659D01*
X022620Y025541D01*
X016836Y025541D01*
X016718Y025659D01*
X016413Y025659D01*
X016295Y025541D01*
X011141Y025541D01*
X011049Y025503D01*
X011030Y025484D01*
X010863Y025484D01*
X010648Y025268D01*
X010648Y024963D01*
X010667Y024944D02*
X010409Y024944D01*
X010366Y024845D02*
X010766Y024845D01*
X010648Y025141D02*
X010409Y025141D01*
X010363Y025239D02*
X010648Y025239D01*
X010717Y025338D02*
X010399Y025338D01*
X010497Y025436D02*
X010816Y025436D01*
X010694Y025633D02*
X016388Y025633D01*
X016744Y025633D02*
X022713Y025633D01*
X023069Y025633D02*
X028766Y025633D01*
X028766Y025535D02*
X023167Y025535D01*
X023259Y025436D02*
X028766Y025436D01*
X028766Y025338D02*
X023259Y025338D01*
X023259Y025239D02*
X028766Y025239D01*
X028766Y025141D02*
X023259Y025141D01*
X023163Y025042D02*
X024247Y025042D01*
X024148Y024944D02*
X023064Y024944D01*
X022717Y024944D02*
X016739Y024944D01*
X016392Y024944D02*
X013434Y024944D01*
X013434Y024845D02*
X024073Y024845D01*
X024073Y024747D02*
X013521Y024747D01*
X013619Y024648D02*
X024073Y024648D01*
X024086Y024550D02*
X021352Y024550D01*
X021266Y024316D02*
X021166Y024216D01*
X021266Y024316D02*
X025166Y024316D01*
X025428Y024057D02*
X028766Y024057D01*
X028766Y023959D02*
X025329Y023959D01*
X025526Y024156D02*
X028766Y024156D01*
X028766Y024254D02*
X025534Y024254D01*
X025534Y024353D02*
X025633Y024353D01*
X025535Y024451D02*
X025534Y024451D01*
X025948Y024353D02*
X028766Y024353D01*
X028766Y024451D02*
X026047Y024451D01*
X026145Y024550D02*
X028766Y024550D01*
X028766Y024648D02*
X026159Y024648D01*
X026159Y024747D02*
X028766Y024747D01*
X028766Y024845D02*
X026159Y024845D01*
X026083Y024944D02*
X028766Y024944D01*
X028766Y025042D02*
X025985Y025042D01*
X025597Y025042D02*
X024635Y025042D01*
X024266Y024091D02*
X024416Y023941D01*
X024316Y023841D01*
X024173Y023663D02*
X021449Y023663D01*
X021548Y023762D02*
X024074Y023762D01*
X024048Y023860D02*
X021646Y023860D01*
X021566Y024091D02*
X024266Y024091D01*
X024659Y023663D02*
X028766Y023663D01*
X028766Y023565D02*
X023112Y023565D01*
X023211Y023466D02*
X025174Y023466D01*
X025102Y023368D02*
X023259Y023368D01*
X023259Y023269D02*
X025081Y023269D01*
X025081Y023171D02*
X023259Y023171D01*
X023218Y023072D02*
X025081Y023072D01*
X025081Y022974D02*
X023119Y022974D01*
X022662Y022974D02*
X012394Y022974D01*
X012484Y023063D02*
X012484Y023368D01*
X017618Y023368D01*
X017520Y023466D02*
X012386Y023466D01*
X012484Y023368D02*
X012268Y023584D01*
X011963Y023584D01*
X011845Y023466D01*
X010566Y023466D01*
X010489Y023434D01*
X010313Y023434D01*
X010098Y023218D01*
X010098Y022913D01*
X010313Y022698D01*
X010618Y022698D01*
X010834Y022913D01*
X010834Y022966D01*
X011845Y022966D01*
X011963Y022848D01*
X012268Y022848D01*
X012484Y023063D01*
X012484Y023072D02*
X018081Y023072D01*
X018029Y023124D02*
X018029Y023124D01*
X017982Y023171D02*
X012484Y023171D01*
X012484Y023269D02*
X017884Y023269D01*
X018295Y023565D02*
X022669Y023565D01*
X021566Y024091D02*
X021316Y023841D01*
X018241Y023841D01*
X017991Y024091D01*
X013866Y024091D01*
X013066Y024891D01*
X012788Y024648D02*
X009486Y024648D01*
X009486Y024550D02*
X012886Y024550D01*
X012698Y024747D02*
X010267Y024747D01*
X009817Y025338D02*
X009486Y025338D01*
X009486Y025436D02*
X009875Y025436D01*
X009974Y025535D02*
X009496Y025535D01*
X009594Y025633D02*
X010072Y025633D01*
X010171Y025732D02*
X009693Y025732D01*
X009791Y025830D02*
X010269Y025830D01*
X010368Y025929D02*
X009890Y025929D01*
X009988Y026027D02*
X010466Y026027D01*
X010565Y026126D02*
X010087Y026126D01*
X010185Y026224D02*
X010663Y026224D01*
X010382Y026421D02*
X013098Y026421D01*
X013098Y026323D02*
X010284Y026323D01*
X010481Y026520D02*
X013098Y026520D01*
X013002Y026618D02*
X012889Y026618D01*
X013016Y026916D02*
X012666Y026916D01*
X013016Y026916D02*
X013466Y026466D01*
X013735Y026717D02*
X018446Y026717D01*
X018446Y026815D02*
X013637Y026815D01*
X013834Y026618D02*
X018446Y026618D01*
X018487Y026520D02*
X013834Y026520D01*
X013834Y026421D02*
X018586Y026421D01*
X018684Y026323D02*
X015704Y026323D01*
X015277Y026323D02*
X013834Y026323D01*
X013329Y026914D02*
X018446Y026914D01*
X018488Y027012D02*
X013230Y027012D01*
X013132Y027111D02*
X018586Y027111D01*
X018685Y027209D02*
X012893Y027209D01*
X012439Y027209D02*
X011170Y027209D01*
X011072Y027111D02*
X012340Y027111D01*
X012298Y027012D02*
X010973Y027012D01*
X010875Y026914D02*
X012298Y026914D01*
X012298Y026815D02*
X010776Y026815D01*
X010678Y026717D02*
X012344Y026717D01*
X012443Y026618D02*
X010579Y026618D01*
X010253Y026914D02*
X009261Y026914D01*
X009261Y027012D02*
X010351Y027012D01*
X010450Y027111D02*
X009261Y027111D01*
X009261Y027209D02*
X010548Y027209D01*
X010647Y027308D02*
X009261Y027308D01*
X009261Y027406D02*
X010745Y027406D01*
X010844Y027505D02*
X009261Y027505D01*
X009261Y027604D02*
X010942Y027604D01*
X011041Y027702D02*
X009261Y027702D01*
X009261Y027801D02*
X011139Y027801D01*
X011466Y027505D02*
X025706Y027505D01*
X025675Y028096D02*
X022734Y028096D01*
X022734Y028195D02*
X028438Y028195D01*
X028438Y028293D02*
X022734Y028293D01*
X022686Y028392D02*
X028465Y028392D01*
X028506Y028490D02*
X022587Y028490D01*
X022964Y028571D02*
X022969Y028573D01*
X023043Y028573D01*
X023096Y028625D01*
X023100Y028627D01*
X023204Y028731D01*
X023206Y028736D01*
X023259Y028788D01*
X023259Y028863D01*
X023261Y028867D01*
X023261Y029015D01*
X023259Y029019D01*
X023259Y029093D01*
X023206Y029146D01*
X023204Y029151D01*
X023100Y029255D01*
X023096Y029257D01*
X023043Y029309D01*
X022969Y029309D01*
X022964Y029311D01*
X017817Y029311D01*
X017813Y029309D01*
X017738Y029309D01*
X017686Y029257D01*
X017681Y029255D01*
X017577Y029151D01*
X017575Y029146D01*
X017523Y029093D01*
X017523Y029019D01*
X017521Y029015D01*
X017521Y028867D01*
X017523Y028863D01*
X017523Y028788D01*
X017575Y028736D01*
X017577Y028731D01*
X017681Y028627D01*
X017686Y028625D01*
X017738Y028573D01*
X017813Y028573D01*
X017817Y028571D01*
X022964Y028571D01*
X023059Y028589D02*
X028568Y028589D01*
X028667Y028687D02*
X023160Y028687D01*
X023256Y028786D02*
X028852Y028786D01*
X029249Y028786D02*
X029416Y028786D01*
X029416Y028884D02*
X023261Y028884D01*
X023261Y028983D02*
X029416Y028983D01*
X029416Y029081D02*
X023259Y029081D01*
X023176Y029180D02*
X029416Y029180D01*
X029416Y029278D02*
X023074Y029278D01*
X023464Y029621D02*
X023469Y029623D01*
X023543Y029623D01*
X023596Y029675D01*
X023600Y029677D01*
X023704Y029781D01*
X023706Y029786D01*
X023759Y029838D01*
X023759Y029913D01*
X023761Y029917D01*
X023761Y030065D01*
X023759Y030069D01*
X023759Y030143D01*
X023706Y030196D01*
X023704Y030201D01*
X023600Y030305D01*
X023596Y030307D01*
X023543Y030359D01*
X023469Y030359D01*
X023464Y030361D01*
X021067Y030361D01*
X021063Y030359D01*
X020988Y030359D01*
X020936Y030307D01*
X020931Y030305D01*
X020827Y030201D01*
X020825Y030196D01*
X020773Y030143D01*
X020773Y030069D01*
X020771Y030065D01*
X020771Y029917D01*
X020773Y029913D01*
X020773Y029838D01*
X020825Y029786D01*
X020827Y029781D01*
X020931Y029677D01*
X020936Y029675D01*
X020988Y029623D01*
X021063Y029623D01*
X021067Y029621D01*
X023464Y029621D01*
X023592Y029672D02*
X029649Y029672D01*
X029748Y029771D02*
X023694Y029771D01*
X023759Y029869D02*
X029847Y029869D01*
X029946Y029968D02*
X023761Y029968D01*
X023760Y030066D02*
X030045Y030066D01*
X030145Y030165D02*
X023738Y030165D01*
X023642Y030263D02*
X030244Y030263D01*
X030343Y030362D02*
X010373Y030362D01*
X010471Y030460D02*
X030442Y030460D01*
X030541Y030559D02*
X010570Y030559D01*
X010668Y030657D02*
X030641Y030657D01*
X030740Y030756D02*
X010767Y030756D01*
X010865Y030854D02*
X030839Y030854D01*
X030938Y030953D02*
X025223Y030953D01*
X025261Y030991D02*
X027141Y030991D01*
X027232Y031029D01*
X028500Y032296D01*
X028846Y032296D01*
X029136Y032586D01*
X029136Y032996D01*
X028846Y033286D01*
X028436Y033286D01*
X028146Y032996D01*
X028146Y032650D01*
X026987Y031491D01*
X025261Y031491D01*
X025143Y031609D01*
X024838Y031609D01*
X024623Y031393D01*
X024623Y031088D01*
X024838Y030873D01*
X025143Y030873D01*
X025261Y030991D01*
X024759Y030953D02*
X010964Y030953D01*
X011062Y031051D02*
X024660Y031051D01*
X024623Y031150D02*
X011161Y031150D01*
X011259Y031248D02*
X024623Y031248D01*
X024623Y031347D02*
X011358Y031347D01*
X011456Y031445D02*
X024674Y031445D01*
X024773Y031544D02*
X012414Y031544D01*
X012512Y031642D02*
X027138Y031642D01*
X027040Y031544D02*
X025209Y031544D01*
X024543Y033273D02*
X024238Y033273D01*
X024120Y033391D01*
X016584Y033391D01*
X016584Y033363D01*
X016368Y033148D01*
X016063Y033148D01*
X015848Y033363D01*
X015848Y033668D01*
X016063Y033884D01*
X016274Y033884D01*
X016291Y033891D01*
X024120Y033891D01*
X024238Y034009D01*
X024543Y034009D01*
X024759Y033793D01*
X024759Y033488D01*
X024543Y033273D01*
X024587Y033317D02*
X026696Y033317D01*
X026713Y033334D02*
X026498Y033118D01*
X026498Y033066D01*
X022636Y033066D01*
X022518Y033184D01*
X022213Y033184D01*
X021998Y032968D01*
X021998Y032663D01*
X022213Y032448D01*
X022518Y032448D01*
X022636Y032566D01*
X026766Y032566D01*
X026843Y032598D01*
X027018Y032598D01*
X027234Y032813D01*
X027234Y033118D01*
X027018Y033334D01*
X026713Y033334D01*
X026597Y033218D02*
X019459Y033218D01*
X019558Y033120D02*
X022149Y033120D01*
X022050Y033021D02*
X019656Y033021D01*
X019659Y032923D02*
X021998Y032923D01*
X021998Y032824D02*
X019659Y032824D01*
X019659Y032726D02*
X021998Y032726D01*
X022034Y032627D02*
X019572Y032627D01*
X019474Y032529D02*
X022133Y032529D01*
X022599Y032529D02*
X028025Y032529D01*
X028123Y032627D02*
X027047Y032627D01*
X027146Y032726D02*
X028146Y032726D01*
X028146Y032824D02*
X027234Y032824D01*
X027234Y032923D02*
X028146Y032923D01*
X028171Y033021D02*
X027234Y033021D01*
X027233Y033120D02*
X028270Y033120D01*
X028368Y033218D02*
X027134Y033218D01*
X027036Y033317D02*
X032941Y033317D01*
X032941Y033415D02*
X024685Y033415D01*
X024759Y033514D02*
X030713Y033514D01*
X030432Y033612D02*
X024759Y033612D01*
X024759Y033711D02*
X030262Y033711D01*
X030091Y033809D02*
X024743Y033809D01*
X024645Y033908D02*
X029983Y033908D01*
X029885Y034006D02*
X024546Y034006D01*
X024235Y034006D02*
X011341Y034006D01*
X011243Y033908D02*
X024137Y033908D01*
X024195Y033317D02*
X016537Y033317D01*
X016438Y033218D02*
X019122Y033218D01*
X019024Y033120D02*
X008785Y033120D01*
X008785Y033218D02*
X015993Y033218D01*
X015895Y033317D02*
X008785Y033317D01*
X008785Y033415D02*
X015848Y033415D01*
X015848Y033514D02*
X008785Y033514D01*
X008785Y033612D02*
X010674Y033612D01*
X010713Y033573D02*
X011018Y033573D01*
X011234Y033788D01*
X011234Y033899D01*
X012461Y035126D01*
X012538Y035048D01*
X012843Y035048D01*
X013059Y035263D01*
X013059Y035568D01*
X012843Y035784D01*
X012538Y035784D01*
X012460Y035706D01*
X012283Y035706D01*
X012177Y035662D01*
X010824Y034309D01*
X010713Y034309D01*
X010498Y034093D01*
X010498Y033788D01*
X010713Y033573D01*
X010576Y033711D02*
X008785Y033711D01*
X008785Y033809D02*
X010498Y033809D01*
X010498Y033908D02*
X008785Y033908D01*
X008785Y034006D02*
X010498Y034006D01*
X010509Y034105D02*
X008785Y034105D01*
X008785Y034203D02*
X010607Y034203D01*
X010706Y034302D02*
X008785Y034302D01*
X008785Y034400D02*
X010915Y034400D01*
X011013Y034499D02*
X008785Y034499D01*
X008785Y034597D02*
X011112Y034597D01*
X011210Y034696D02*
X008785Y034696D01*
X008785Y034794D02*
X011309Y034794D01*
X011407Y034893D02*
X008785Y034893D01*
X008785Y034991D02*
X011506Y034991D01*
X011604Y035090D02*
X008785Y035090D01*
X008785Y035188D02*
X011703Y035188D01*
X011801Y035287D02*
X008785Y035287D01*
X008785Y035385D02*
X011900Y035385D01*
X011998Y035484D02*
X008785Y035484D01*
X008785Y035582D02*
X012097Y035582D01*
X012222Y035681D02*
X008785Y035681D01*
X008785Y035779D02*
X012533Y035779D01*
X012848Y035779D02*
X020491Y035779D01*
X020491Y035741D02*
X020941Y035741D01*
X020941Y036191D01*
X020784Y036191D01*
X020491Y035898D01*
X020491Y035741D01*
X020491Y035641D02*
X020491Y035484D01*
X020784Y035191D01*
X020941Y035191D01*
X020941Y035641D01*
X021041Y035641D01*
X021041Y035741D01*
X021491Y035741D01*
X021491Y035898D01*
X021198Y036191D01*
X021041Y036191D01*
X021041Y035741D01*
X020941Y035741D01*
X020941Y035641D01*
X020491Y035641D01*
X020491Y035582D02*
X013045Y035582D01*
X013059Y035484D02*
X020491Y035484D01*
X020590Y035385D02*
X013059Y035385D01*
X013059Y035287D02*
X020688Y035287D01*
X020941Y035287D02*
X021041Y035287D01*
X021041Y035191D02*
X021198Y035191D01*
X021491Y035484D01*
X021491Y035641D01*
X021041Y035641D01*
X021041Y035191D01*
X021041Y035385D02*
X020941Y035385D01*
X020941Y035484D02*
X021041Y035484D01*
X021041Y035582D02*
X020941Y035582D01*
X020941Y035681D02*
X012947Y035681D01*
X012983Y035188D02*
X022846Y035188D01*
X022887Y035171D02*
X023094Y035171D01*
X023285Y035250D01*
X023432Y035396D01*
X023511Y035588D01*
X023511Y035794D01*
X023432Y035986D01*
X023285Y036132D01*
X023094Y036211D01*
X022887Y036211D01*
X022696Y036132D01*
X022550Y035986D01*
X022471Y035794D01*
X022471Y035588D01*
X022550Y035396D01*
X022696Y035250D01*
X022887Y035171D01*
X023135Y035188D02*
X025646Y035188D01*
X025646Y035136D02*
X025936Y034846D01*
X026346Y034846D01*
X026636Y035136D01*
X026636Y035546D01*
X026346Y035836D01*
X025936Y035836D01*
X025646Y035546D01*
X025646Y035136D01*
X025692Y035090D02*
X012885Y035090D01*
X012497Y035090D02*
X012425Y035090D01*
X012326Y034991D02*
X025791Y034991D01*
X025889Y034893D02*
X012228Y034893D01*
X012129Y034794D02*
X029410Y034794D01*
X029436Y034696D02*
X012031Y034696D01*
X011932Y034597D02*
X029470Y034597D01*
X029527Y034499D02*
X011834Y034499D01*
X011735Y034400D02*
X029583Y034400D01*
X029640Y034302D02*
X011637Y034302D01*
X011538Y034203D02*
X029697Y034203D01*
X029786Y034105D02*
X011440Y034105D01*
X011234Y033809D02*
X015988Y033809D01*
X015890Y033711D02*
X011156Y033711D01*
X011057Y033612D02*
X015848Y033612D01*
X017707Y029278D02*
X011004Y029278D01*
X011102Y029180D02*
X017606Y029180D01*
X017523Y029081D02*
X011161Y029081D01*
X011161Y029121D02*
X010871Y029411D01*
X010461Y029411D01*
X010171Y029121D01*
X010171Y028711D01*
X010461Y028421D01*
X010871Y028421D01*
X011161Y028711D01*
X011161Y029121D01*
X011161Y028983D02*
X017521Y028983D01*
X017521Y028884D02*
X011161Y028884D01*
X011161Y028786D02*
X017526Y028786D01*
X017621Y028687D02*
X011137Y028687D01*
X011038Y028589D02*
X017723Y028589D01*
X020773Y029869D02*
X009880Y029869D01*
X009782Y029771D02*
X020838Y029771D01*
X020939Y029672D02*
X009683Y029672D01*
X009585Y029574D02*
X029549Y029574D01*
X029450Y029475D02*
X009486Y029475D01*
X009388Y029377D02*
X010427Y029377D01*
X010328Y029278D02*
X009289Y029278D01*
X009261Y029180D02*
X010230Y029180D01*
X010171Y029081D02*
X009261Y029081D01*
X009261Y028983D02*
X010171Y028983D01*
X010171Y028884D02*
X009261Y028884D01*
X009261Y028786D02*
X010171Y028786D01*
X010195Y028687D02*
X009965Y028687D01*
X010064Y028589D02*
X010293Y028589D01*
X010392Y028490D02*
X010084Y028490D01*
X010122Y028392D02*
X022046Y028392D01*
X022144Y028490D02*
X010940Y028490D01*
X010905Y029377D02*
X029416Y029377D01*
X029412Y026815D02*
X029416Y026815D01*
X029416Y026717D02*
X029196Y026717D01*
X028905Y026717D02*
X025834Y026717D01*
X025834Y026618D02*
X028766Y026618D01*
X028766Y026520D02*
X025834Y026520D01*
X025817Y026421D02*
X028766Y026421D01*
X028766Y026323D02*
X025718Y026323D01*
X025620Y026224D02*
X028766Y026224D01*
X028766Y026126D02*
X023759Y026126D01*
X023759Y026027D02*
X028766Y026027D01*
X028766Y025929D02*
X023759Y025929D01*
X023726Y025830D02*
X028766Y025830D01*
X028766Y025732D02*
X023627Y025732D01*
X023703Y026224D02*
X025312Y026224D01*
X025213Y026323D02*
X023604Y026323D01*
X022592Y026421D02*
X025115Y026421D01*
X025663Y026914D02*
X028590Y026914D01*
X028688Y026815D02*
X025762Y026815D01*
X024904Y024057D02*
X024784Y024057D01*
X024784Y023959D02*
X025002Y023959D01*
X024784Y023860D02*
X028766Y023860D01*
X028766Y023762D02*
X024757Y023762D01*
X025341Y023266D02*
X028906Y023266D01*
X028906Y018941D01*
X025341Y018941D01*
X025341Y023266D01*
X025341Y023171D02*
X028906Y023171D01*
X028906Y023072D02*
X025341Y023072D01*
X025341Y022974D02*
X028906Y022974D01*
X028906Y022875D02*
X025341Y022875D01*
X025341Y022777D02*
X028906Y022777D01*
X028906Y022678D02*
X025341Y022678D01*
X025341Y022580D02*
X028906Y022580D01*
X028906Y022481D02*
X025341Y022481D01*
X025341Y022383D02*
X028906Y022383D01*
X028906Y022284D02*
X025341Y022284D01*
X025341Y022186D02*
X028906Y022186D01*
X028906Y022087D02*
X025341Y022087D01*
X025341Y021989D02*
X028906Y021989D01*
X028906Y021890D02*
X025341Y021890D01*
X025341Y021792D02*
X028906Y021792D01*
X028906Y021693D02*
X025341Y021693D01*
X025341Y021595D02*
X028906Y021595D01*
X028906Y021496D02*
X025341Y021496D01*
X025341Y021398D02*
X028906Y021398D01*
X028906Y021299D02*
X025341Y021299D01*
X025341Y021201D02*
X028906Y021201D01*
X028906Y021102D02*
X025341Y021102D01*
X025341Y021004D02*
X028906Y021004D01*
X028906Y020905D02*
X025341Y020905D01*
X025341Y020807D02*
X028906Y020807D01*
X028906Y020708D02*
X025341Y020708D01*
X025341Y020610D02*
X028906Y020610D01*
X028906Y020511D02*
X025341Y020511D01*
X025341Y020413D02*
X028906Y020413D01*
X028906Y020314D02*
X025341Y020314D01*
X025341Y020216D02*
X028906Y020216D01*
X028906Y020117D02*
X025341Y020117D01*
X025341Y020019D02*
X028906Y020019D01*
X028906Y019920D02*
X025341Y019920D01*
X025341Y019822D02*
X028906Y019822D01*
X028906Y019723D02*
X025341Y019723D01*
X025341Y019625D02*
X028906Y019625D01*
X028906Y019526D02*
X025341Y019526D01*
X025341Y019428D02*
X028906Y019428D01*
X028906Y019329D02*
X025341Y019329D01*
X025341Y019231D02*
X028906Y019231D01*
X028906Y019132D02*
X025341Y019132D01*
X025341Y019034D02*
X028906Y019034D01*
X029166Y019034D02*
X032416Y019034D01*
X032416Y018941D02*
X029166Y018941D01*
X029166Y026241D01*
X032416Y026241D01*
X032416Y018941D01*
X032416Y019132D02*
X029166Y019132D01*
X029166Y019231D02*
X032416Y019231D01*
X032416Y019329D02*
X029166Y019329D01*
X029166Y019428D02*
X032416Y019428D01*
X032416Y019526D02*
X029166Y019526D01*
X029166Y019625D02*
X032416Y019625D01*
X032416Y019723D02*
X029166Y019723D01*
X029166Y019822D02*
X032416Y019822D01*
X032416Y019920D02*
X029166Y019920D01*
X029166Y020019D02*
X032416Y020019D01*
X032416Y020117D02*
X029166Y020117D01*
X029166Y020216D02*
X032416Y020216D01*
X032416Y020314D02*
X029166Y020314D01*
X029166Y020413D02*
X032416Y020413D01*
X032416Y020511D02*
X029166Y020511D01*
X029166Y020610D02*
X032416Y020610D01*
X032416Y020708D02*
X029166Y020708D01*
X029166Y020807D02*
X032416Y020807D01*
X032416Y020905D02*
X029166Y020905D01*
X029166Y021004D02*
X032416Y021004D01*
X032416Y021102D02*
X029166Y021102D01*
X029166Y021201D02*
X032416Y021201D01*
X032416Y021299D02*
X029166Y021299D01*
X029166Y021398D02*
X032416Y021398D01*
X032416Y021496D02*
X029166Y021496D01*
X029166Y021595D02*
X032416Y021595D01*
X032416Y021693D02*
X029166Y021693D01*
X029166Y021792D02*
X032416Y021792D01*
X032416Y021890D02*
X029166Y021890D01*
X029166Y021989D02*
X032416Y021989D01*
X032416Y022087D02*
X029166Y022087D01*
X029166Y022186D02*
X032416Y022186D01*
X032416Y022284D02*
X029166Y022284D01*
X029166Y022383D02*
X032416Y022383D01*
X032416Y022481D02*
X029166Y022481D01*
X029166Y022580D02*
X032416Y022580D01*
X032416Y022678D02*
X029166Y022678D01*
X029166Y022777D02*
X032416Y022777D01*
X032416Y022875D02*
X029166Y022875D01*
X029166Y022974D02*
X032416Y022974D01*
X032416Y023072D02*
X029166Y023072D01*
X029166Y023171D02*
X032416Y023171D01*
X032416Y023269D02*
X029166Y023269D01*
X029166Y023368D02*
X032416Y023368D01*
X032416Y023466D02*
X029166Y023466D01*
X029166Y023565D02*
X032416Y023565D01*
X032416Y023663D02*
X029166Y023663D01*
X029166Y023762D02*
X032416Y023762D01*
X032416Y023860D02*
X029166Y023860D01*
X029166Y023959D02*
X032416Y023959D01*
X032416Y024057D02*
X029166Y024057D01*
X029166Y024156D02*
X032416Y024156D01*
X032416Y024254D02*
X029166Y024254D01*
X029166Y024353D02*
X032416Y024353D01*
X032416Y024451D02*
X029166Y024451D01*
X029166Y024550D02*
X032416Y024550D01*
X032416Y024648D02*
X029166Y024648D01*
X029166Y024747D02*
X032416Y024747D01*
X032416Y024845D02*
X029166Y024845D01*
X029166Y024944D02*
X032416Y024944D01*
X032416Y025042D02*
X029166Y025042D01*
X029166Y025141D02*
X032416Y025141D01*
X032416Y025239D02*
X029166Y025239D01*
X029166Y025338D02*
X032416Y025338D01*
X032416Y025436D02*
X029166Y025436D01*
X029166Y025535D02*
X032416Y025535D01*
X032416Y025633D02*
X029166Y025633D01*
X029166Y025732D02*
X032416Y025732D01*
X032416Y025830D02*
X029166Y025830D01*
X029166Y025929D02*
X032416Y025929D01*
X032416Y026027D02*
X029166Y026027D01*
X029166Y026126D02*
X032416Y026126D01*
X032416Y026224D02*
X029166Y026224D01*
X031037Y031051D02*
X027254Y031051D01*
X027353Y031150D02*
X031137Y031150D01*
X031236Y031248D02*
X027451Y031248D01*
X027550Y031347D02*
X031335Y031347D01*
X031434Y031445D02*
X027648Y031445D01*
X027747Y031544D02*
X031533Y031544D01*
X031633Y031642D02*
X027845Y031642D01*
X027944Y031741D02*
X031732Y031741D01*
X031831Y031839D02*
X028042Y031839D01*
X028141Y031938D02*
X031930Y031938D01*
X032029Y032036D02*
X028239Y032036D01*
X028338Y032135D02*
X032129Y032135D01*
X032228Y032233D02*
X028436Y032233D01*
X028881Y032332D02*
X032327Y032332D01*
X032426Y032430D02*
X028980Y032430D01*
X029078Y032529D02*
X032525Y032529D01*
X032625Y032627D02*
X029136Y032627D01*
X029136Y032726D02*
X032724Y032726D01*
X032823Y032824D02*
X029136Y032824D01*
X029136Y032923D02*
X032922Y032923D01*
X032941Y033021D02*
X029110Y033021D01*
X029012Y033120D02*
X032941Y033120D01*
X032941Y033218D02*
X028913Y033218D01*
X027926Y032430D02*
X012116Y032430D01*
X012018Y032332D02*
X027828Y032332D01*
X027729Y032233D02*
X012419Y032233D01*
X012518Y032135D02*
X027631Y032135D01*
X027532Y032036D02*
X012609Y032036D01*
X012609Y031938D02*
X027434Y031938D01*
X027335Y031839D02*
X012609Y031839D01*
X012609Y031741D02*
X027237Y031741D01*
X026499Y033120D02*
X022583Y033120D01*
X022660Y035287D02*
X021293Y035287D01*
X021392Y035385D02*
X022561Y035385D01*
X022514Y035484D02*
X021490Y035484D01*
X021491Y035582D02*
X022473Y035582D01*
X022471Y035681D02*
X021041Y035681D01*
X021041Y035779D02*
X020941Y035779D01*
X020941Y035878D02*
X021041Y035878D01*
X021041Y035976D02*
X020941Y035976D01*
X020941Y036075D02*
X021041Y036075D01*
X021041Y036173D02*
X020941Y036173D01*
X020766Y036173D02*
X008785Y036173D01*
X008785Y036075D02*
X020667Y036075D01*
X020569Y035976D02*
X008785Y035976D01*
X008785Y035878D02*
X020491Y035878D01*
X021216Y036173D02*
X022796Y036173D01*
X022639Y036075D02*
X021314Y036075D01*
X021413Y035976D02*
X022546Y035976D01*
X022505Y035878D02*
X021491Y035878D01*
X021491Y035779D02*
X022471Y035779D01*
X023186Y036173D02*
X029496Y036173D01*
X029449Y036075D02*
X023343Y036075D01*
X023436Y035976D02*
X029422Y035976D01*
X029396Y035878D02*
X023476Y035878D01*
X023511Y035779D02*
X025879Y035779D01*
X025781Y035681D02*
X023511Y035681D01*
X023509Y035582D02*
X025682Y035582D01*
X025646Y035484D02*
X023468Y035484D01*
X023420Y035385D02*
X025646Y035385D01*
X025646Y035287D02*
X023322Y035287D01*
X023166Y037749D02*
X032941Y037749D01*
X032941Y037651D02*
X008785Y037651D01*
X008785Y037552D02*
X032941Y037552D01*
X032941Y037454D02*
X008785Y037454D01*
X008785Y037355D02*
X032941Y037355D01*
X032941Y037257D02*
X031618Y037257D01*
X031985Y037158D02*
X032941Y037158D01*
X032941Y037060D02*
X032160Y037060D01*
X032331Y036961D02*
X032941Y036961D01*
X032941Y036863D02*
X032472Y036863D01*
X032571Y036764D02*
X032941Y036764D01*
X032941Y036666D02*
X032669Y036666D01*
X032768Y036567D02*
X032941Y036567D01*
X032941Y036469D02*
X032834Y036469D01*
X032891Y036370D02*
X032941Y036370D01*
X032941Y037848D02*
X023166Y037848D01*
X021492Y040704D02*
X012761Y040704D01*
X012761Y040606D02*
X031316Y040606D01*
X031316Y040704D02*
X030849Y040704D01*
X030948Y040803D02*
X031316Y040803D01*
X031316Y040507D02*
X012761Y040507D01*
X012761Y040409D02*
X031316Y040409D01*
X031316Y040310D02*
X012761Y040310D01*
X012761Y040232D02*
X012761Y045500D01*
X013359Y046098D01*
X013568Y046098D01*
X013784Y046313D01*
X013784Y046618D01*
X013568Y046834D01*
X013263Y046834D01*
X013048Y046618D01*
X013048Y046409D01*
X012450Y045811D01*
X012321Y045682D01*
X012321Y045411D01*
X012266Y045411D01*
X012118Y045559D01*
X011813Y045559D01*
X011598Y045343D01*
X011598Y045038D01*
X009116Y045038D01*
X009116Y044940D02*
X011697Y044940D01*
X011795Y044841D02*
X009116Y044841D01*
X009116Y044743D02*
X012321Y044743D01*
X012321Y044841D02*
X012136Y044841D01*
X012118Y044823D02*
X012266Y044971D01*
X012321Y044971D01*
X012321Y040050D01*
X012450Y039921D01*
X012473Y039898D01*
X012473Y039688D01*
X012688Y039473D01*
X012993Y039473D01*
X013209Y039688D01*
X013209Y039993D01*
X012993Y040209D01*
X012784Y040209D01*
X012761Y040232D01*
X012781Y040212D02*
X031316Y040212D01*
X031316Y040113D02*
X013089Y040113D01*
X013188Y040015D02*
X031316Y040015D01*
X031316Y039916D02*
X013209Y039916D01*
X013209Y039818D02*
X031316Y039818D01*
X031316Y039719D02*
X013209Y039719D01*
X013141Y039621D02*
X031316Y039621D01*
X031316Y039522D02*
X013042Y039522D01*
X012841Y039841D02*
X012541Y040141D01*
X012541Y045191D01*
X012541Y045591D01*
X013416Y046466D01*
X013690Y046713D02*
X020971Y046713D01*
X020971Y046811D02*
X013591Y046811D01*
X013784Y046614D02*
X020971Y046614D01*
X020971Y046516D02*
X013784Y046516D01*
X013784Y046417D02*
X020971Y046417D01*
X020971Y046319D02*
X013784Y046319D01*
X013691Y046220D02*
X020971Y046220D01*
X020971Y046122D02*
X013592Y046122D01*
X013284Y046023D02*
X020971Y046023D01*
X020971Y045925D02*
X013186Y045925D01*
X013087Y045826D02*
X020971Y045826D01*
X020971Y045728D02*
X020425Y045728D01*
X020523Y045629D02*
X020971Y045629D01*
X020971Y045531D02*
X020584Y045531D01*
X020610Y045432D02*
X020971Y045432D01*
X020971Y045334D02*
X020708Y045334D01*
X020807Y045235D02*
X020971Y045235D01*
X020971Y045137D02*
X020905Y045137D01*
X021166Y045137D02*
X022281Y045137D01*
X022281Y045235D02*
X021166Y045235D01*
X021166Y045334D02*
X022281Y045334D01*
X022281Y045432D02*
X021166Y045432D01*
X021166Y045531D02*
X022281Y045531D01*
X022281Y045629D02*
X021166Y045629D01*
X021166Y045728D02*
X022281Y045728D01*
X022281Y045826D02*
X021166Y045826D01*
X021166Y045925D02*
X022281Y045925D01*
X022281Y046023D02*
X021166Y046023D01*
X021166Y046122D02*
X022281Y046122D01*
X022281Y046220D02*
X021166Y046220D01*
X021166Y046319D02*
X022281Y046319D01*
X022281Y046417D02*
X021166Y046417D01*
X021166Y046516D02*
X022281Y046516D01*
X022281Y046614D02*
X021166Y046614D01*
X021166Y046713D02*
X022281Y046713D01*
X022281Y046811D02*
X021166Y046811D01*
X021166Y046910D02*
X022281Y046910D01*
X022281Y047008D02*
X021166Y047008D01*
X021166Y047107D02*
X022281Y047107D01*
X022281Y047205D02*
X021166Y047205D01*
X021166Y047304D02*
X022281Y047304D01*
X022281Y047402D02*
X021166Y047402D01*
X021166Y047501D02*
X022281Y047501D01*
X022281Y047599D02*
X021166Y047599D01*
X021166Y047646D02*
X022281Y047646D01*
X022281Y042889D01*
X022320Y042794D01*
X022394Y042721D01*
X023394Y041721D01*
X023453Y041696D01*
X023461Y041688D01*
X023472Y041688D01*
X023489Y041681D01*
X024843Y041681D01*
X024860Y041688D01*
X024921Y041688D01*
X025044Y041811D01*
X025044Y041872D01*
X025051Y041889D01*
X025051Y043118D01*
X025044Y043135D01*
X025044Y043221D01*
X024921Y043344D01*
X024176Y043344D01*
X024176Y051618D01*
X024166Y051642D01*
X024166Y051691D01*
X023041Y052816D01*
X021791Y052816D01*
X021416Y053191D01*
X021416Y053566D01*
X022041Y054191D01*
X029416Y054191D01*
X029916Y053691D01*
X029916Y052326D01*
X026939Y052326D01*
X026844Y052286D01*
X026770Y052213D01*
X026731Y052118D01*
X026731Y047639D01*
X026770Y047544D01*
X026844Y047471D01*
X026939Y047431D01*
X033891Y047431D01*
X033891Y042771D01*
X033850Y042771D01*
X033729Y042721D01*
X033636Y042628D01*
X033579Y042571D01*
X031150Y042571D01*
X031029Y042521D01*
X029954Y041446D01*
X022753Y041446D01*
X021196Y043003D01*
X021196Y044832D01*
X021166Y044904D01*
X021166Y047646D01*
X020971Y047599D02*
X009116Y047599D01*
X009116Y047501D02*
X020971Y047501D01*
X020971Y047402D02*
X009116Y047402D01*
X009116Y047304D02*
X020971Y047304D01*
X020971Y047205D02*
X009116Y047205D01*
X009116Y047107D02*
X020971Y047107D01*
X020971Y047008D02*
X009116Y047008D01*
X009116Y046910D02*
X020971Y046910D01*
X020007Y045728D02*
X012989Y045728D01*
X012890Y045629D02*
X019908Y045629D01*
X019848Y045531D02*
X012792Y045531D01*
X012761Y045432D02*
X019848Y045432D01*
X019848Y045334D02*
X012761Y045334D01*
X012761Y045235D02*
X019876Y045235D01*
X019975Y045137D02*
X012761Y045137D01*
X012761Y045038D02*
X019592Y045038D01*
X019638Y045084D02*
X019423Y044868D01*
X019423Y044563D01*
X019571Y044415D01*
X019571Y042559D01*
X019413Y042559D01*
X019198Y042343D01*
X019198Y042038D01*
X019413Y041823D01*
X019718Y041823D01*
X019934Y042038D01*
X019934Y042248D01*
X020011Y042325D01*
X020011Y044415D01*
X020159Y044563D01*
X020159Y044868D01*
X019943Y045084D01*
X019638Y045084D01*
X019494Y044940D02*
X012761Y044940D01*
X012761Y044841D02*
X019423Y044841D01*
X019423Y044743D02*
X012761Y044743D01*
X012761Y044644D02*
X019423Y044644D01*
X019441Y044546D02*
X012761Y044546D01*
X012761Y044447D02*
X019539Y044447D01*
X019571Y044349D02*
X012761Y044349D01*
X012761Y044250D02*
X019571Y044250D01*
X019571Y044152D02*
X012761Y044152D01*
X012761Y044053D02*
X019571Y044053D01*
X019571Y043955D02*
X012761Y043955D01*
X012761Y043856D02*
X019571Y043856D01*
X019571Y043758D02*
X012761Y043758D01*
X012761Y043659D02*
X019571Y043659D01*
X019571Y043561D02*
X012761Y043561D01*
X012761Y043462D02*
X019571Y043462D01*
X019571Y043364D02*
X012761Y043364D01*
X012761Y043265D02*
X019571Y043265D01*
X019571Y043167D02*
X012761Y043167D01*
X012761Y043068D02*
X019571Y043068D01*
X019571Y042970D02*
X012761Y042970D01*
X012761Y042871D02*
X019571Y042871D01*
X019571Y042773D02*
X012761Y042773D01*
X012761Y042674D02*
X019571Y042674D01*
X019571Y042576D02*
X012761Y042576D01*
X012761Y042477D02*
X019331Y042477D01*
X019233Y042379D02*
X012761Y042379D01*
X012761Y042280D02*
X019198Y042280D01*
X019198Y042182D02*
X012761Y042182D01*
X012761Y042083D02*
X019198Y042083D01*
X019252Y041985D02*
X012761Y041985D01*
X012761Y041886D02*
X019350Y041886D01*
X019566Y042191D02*
X019791Y042416D01*
X019791Y044716D01*
X020042Y044447D02*
X020576Y044447D01*
X020576Y044349D02*
X020011Y044349D01*
X020011Y044250D02*
X020576Y044250D01*
X020576Y044152D02*
X020011Y044152D01*
X020011Y044053D02*
X020576Y044053D01*
X020576Y043955D02*
X020011Y043955D01*
X020011Y043856D02*
X020576Y043856D01*
X020576Y043758D02*
X020011Y043758D01*
X020011Y043659D02*
X020576Y043659D01*
X020576Y043561D02*
X020011Y043561D01*
X020011Y043462D02*
X020576Y043462D01*
X020576Y043364D02*
X020011Y043364D01*
X020011Y043265D02*
X020576Y043265D01*
X020576Y043167D02*
X020011Y043167D01*
X020011Y043068D02*
X020576Y043068D01*
X020576Y042970D02*
X020011Y042970D01*
X020011Y042871D02*
X020576Y042871D01*
X020591Y042773D02*
X020011Y042773D01*
X020011Y042674D02*
X020648Y042674D01*
X020746Y042576D02*
X020011Y042576D01*
X020011Y042477D02*
X020845Y042477D01*
X020943Y042379D02*
X020011Y042379D01*
X019966Y042280D02*
X021042Y042280D01*
X021140Y042182D02*
X019934Y042182D01*
X019934Y042083D02*
X021239Y042083D01*
X021337Y041985D02*
X019880Y041985D01*
X019781Y041886D02*
X021436Y041886D01*
X021534Y041788D02*
X021290Y041788D01*
X021388Y041689D02*
X021633Y041689D01*
X021731Y041591D02*
X021484Y041591D01*
X021484Y041492D02*
X021830Y041492D01*
X021928Y041394D02*
X021484Y041394D01*
X021523Y041295D02*
X022027Y041295D01*
X022125Y041197D02*
X021621Y041197D01*
X021720Y041098D02*
X022224Y041098D01*
X021666Y040841D02*
X030466Y040841D01*
X030641Y041016D01*
X030296Y041788D02*
X025020Y041788D01*
X025049Y041886D02*
X030394Y041886D01*
X030493Y041985D02*
X025051Y041985D01*
X025051Y042083D02*
X030591Y042083D01*
X030690Y042182D02*
X025051Y042182D01*
X025051Y042280D02*
X030788Y042280D01*
X030887Y042379D02*
X025051Y042379D01*
X025051Y042477D02*
X030985Y042477D01*
X030197Y041689D02*
X024921Y041689D01*
X024791Y041941D02*
X023541Y041941D01*
X022541Y042941D01*
X022541Y049941D01*
X021666Y050816D01*
X021230Y050816D01*
X021184Y050828D01*
X020844Y050828D01*
X020799Y050816D01*
X019791Y050816D01*
X019541Y051066D01*
X019541Y054816D01*
X021791Y057066D01*
X029791Y057066D01*
X030041Y056816D01*
X030041Y055316D01*
X029666Y054941D01*
X022166Y054941D01*
X021041Y053816D01*
X021041Y053066D01*
X021666Y052441D01*
X023041Y052441D01*
X023916Y051566D01*
X023916Y043191D01*
X024041Y043066D01*
X024791Y043066D01*
X024791Y041941D01*
X024791Y041985D02*
X023497Y041985D01*
X023399Y042083D02*
X024791Y042083D01*
X024791Y042182D02*
X023300Y042182D01*
X023202Y042280D02*
X024791Y042280D01*
X024791Y042379D02*
X023103Y042379D01*
X023005Y042477D02*
X024791Y042477D01*
X024791Y042576D02*
X022906Y042576D01*
X022808Y042674D02*
X024791Y042674D01*
X024791Y042773D02*
X022709Y042773D01*
X022611Y042871D02*
X024791Y042871D01*
X024791Y042970D02*
X022541Y042970D01*
X022541Y043068D02*
X024039Y043068D01*
X023940Y043167D02*
X022541Y043167D01*
X022541Y043265D02*
X023916Y043265D01*
X023916Y043364D02*
X022541Y043364D01*
X022541Y043462D02*
X023916Y043462D01*
X023916Y043561D02*
X022541Y043561D01*
X022541Y043659D02*
X023916Y043659D01*
X023916Y043758D02*
X022541Y043758D01*
X022541Y043856D02*
X023916Y043856D01*
X023916Y043955D02*
X022541Y043955D01*
X022541Y044053D02*
X023916Y044053D01*
X023916Y044152D02*
X022541Y044152D01*
X022541Y044250D02*
X023916Y044250D01*
X023916Y044349D02*
X022541Y044349D01*
X022541Y044447D02*
X023916Y044447D01*
X023916Y044546D02*
X022541Y044546D01*
X022541Y044644D02*
X023916Y044644D01*
X023916Y044743D02*
X022541Y044743D01*
X022541Y044841D02*
X023916Y044841D01*
X023916Y044940D02*
X022541Y044940D01*
X022541Y045038D02*
X023916Y045038D01*
X023916Y045137D02*
X022541Y045137D01*
X022541Y045235D02*
X023916Y045235D01*
X023916Y045334D02*
X022541Y045334D01*
X022541Y045432D02*
X023916Y045432D01*
X023916Y045531D02*
X022541Y045531D01*
X022541Y045629D02*
X023916Y045629D01*
X023916Y045728D02*
X022541Y045728D01*
X022541Y045826D02*
X023916Y045826D01*
X023916Y045925D02*
X022541Y045925D01*
X022541Y046023D02*
X023916Y046023D01*
X023916Y046122D02*
X022541Y046122D01*
X022541Y046220D02*
X023916Y046220D01*
X023916Y046319D02*
X022541Y046319D01*
X022541Y046417D02*
X023916Y046417D01*
X023916Y046516D02*
X022541Y046516D01*
X022541Y046614D02*
X023916Y046614D01*
X023916Y046713D02*
X022541Y046713D01*
X022541Y046811D02*
X023916Y046811D01*
X023916Y046910D02*
X022541Y046910D01*
X022541Y047008D02*
X023916Y047008D01*
X023916Y047107D02*
X022541Y047107D01*
X022541Y047205D02*
X023916Y047205D01*
X023916Y047304D02*
X022541Y047304D01*
X022541Y047402D02*
X023916Y047402D01*
X023916Y047501D02*
X022541Y047501D01*
X022541Y047599D02*
X023916Y047599D01*
X023916Y047698D02*
X022541Y047698D01*
X022541Y047796D02*
X023916Y047796D01*
X023916Y047895D02*
X022541Y047895D01*
X022541Y047993D02*
X023916Y047993D01*
X023916Y048092D02*
X022541Y048092D01*
X022541Y048190D02*
X023916Y048190D01*
X023916Y048289D02*
X022541Y048289D01*
X022541Y048387D02*
X023916Y048387D01*
X023916Y048486D02*
X022541Y048486D01*
X022541Y048584D02*
X023916Y048584D01*
X023916Y048683D02*
X022541Y048683D01*
X022541Y048781D02*
X023916Y048781D01*
X023916Y048880D02*
X022541Y048880D01*
X022541Y048978D02*
X023916Y048978D01*
X023916Y049077D02*
X022541Y049077D01*
X022541Y049175D02*
X023916Y049175D01*
X023916Y049274D02*
X022541Y049274D01*
X022541Y049372D02*
X023916Y049372D01*
X023916Y049471D02*
X022541Y049471D01*
X022541Y049569D02*
X023916Y049569D01*
X023916Y049668D02*
X022541Y049668D01*
X022541Y049766D02*
X023916Y049766D01*
X023916Y049865D02*
X022541Y049865D01*
X022519Y049963D02*
X023916Y049963D01*
X023916Y050062D02*
X022420Y050062D01*
X022322Y050160D02*
X023916Y050160D01*
X023916Y050259D02*
X022223Y050259D01*
X022125Y050357D02*
X023916Y050357D01*
X023916Y050456D02*
X022026Y050456D01*
X021928Y050554D02*
X023916Y050554D01*
X023916Y050653D02*
X021829Y050653D01*
X021731Y050751D02*
X023916Y050751D01*
X023916Y050850D02*
X019757Y050850D01*
X019659Y050948D02*
X023916Y050948D01*
X023916Y051047D02*
X019560Y051047D01*
X019541Y051145D02*
X023916Y051145D01*
X023916Y051244D02*
X019541Y051244D01*
X019541Y051342D02*
X023916Y051342D01*
X023916Y051441D02*
X019541Y051441D01*
X019541Y051539D02*
X023916Y051539D01*
X023844Y051638D02*
X019541Y051638D01*
X019541Y051736D02*
X023746Y051736D01*
X023647Y051835D02*
X019541Y051835D01*
X019541Y051933D02*
X023549Y051933D01*
X023450Y052032D02*
X019541Y052032D01*
X019541Y052130D02*
X023352Y052130D01*
X023253Y052229D02*
X019541Y052229D01*
X019541Y052327D02*
X023155Y052327D01*
X023056Y052426D02*
X019541Y052426D01*
X019541Y052524D02*
X021583Y052524D01*
X021484Y052623D02*
X019541Y052623D01*
X019541Y052721D02*
X021386Y052721D01*
X021287Y052820D02*
X019541Y052820D01*
X019541Y052918D02*
X021189Y052918D01*
X021090Y053017D02*
X019541Y053017D01*
X019541Y053115D02*
X021041Y053115D01*
X021041Y053214D02*
X019541Y053214D01*
X019541Y053312D02*
X021041Y053312D01*
X021041Y053411D02*
X019541Y053411D01*
X019541Y053509D02*
X021041Y053509D01*
X021041Y053608D02*
X019541Y053608D01*
X019541Y053706D02*
X021041Y053706D01*
X021041Y053805D02*
X019541Y053805D01*
X019541Y053903D02*
X021128Y053903D01*
X021226Y054002D02*
X019541Y054002D01*
X019541Y054100D02*
X021325Y054100D01*
X021423Y054199D02*
X019541Y054199D01*
X019541Y054297D02*
X021522Y054297D01*
X021620Y054396D02*
X019541Y054396D01*
X019541Y054494D02*
X021719Y054494D01*
X021817Y054593D02*
X019541Y054593D01*
X019541Y054691D02*
X021916Y054691D01*
X022014Y054790D02*
X019541Y054790D01*
X019613Y054888D02*
X022113Y054888D01*
X021950Y054100D02*
X029507Y054100D01*
X029605Y054002D02*
X021851Y054002D01*
X021753Y053903D02*
X029704Y053903D01*
X029802Y053805D02*
X021654Y053805D01*
X021556Y053706D02*
X029901Y053706D01*
X029916Y053608D02*
X021457Y053608D01*
X021416Y053509D02*
X029916Y053509D01*
X029916Y053411D02*
X021416Y053411D01*
X021416Y053312D02*
X029916Y053312D01*
X029916Y053214D02*
X021416Y053214D01*
X021492Y053115D02*
X029916Y053115D01*
X029916Y053017D02*
X021590Y053017D01*
X021689Y052918D02*
X029916Y052918D01*
X029916Y052820D02*
X021787Y052820D01*
X023136Y052721D02*
X029916Y052721D01*
X029916Y052623D02*
X023234Y052623D01*
X023333Y052524D02*
X029916Y052524D01*
X029916Y052426D02*
X023431Y052426D01*
X023530Y052327D02*
X029916Y052327D01*
X031458Y053951D02*
X031458Y054778D01*
X031615Y054778D02*
X031615Y053951D01*
X030437Y054365D02*
X030439Y054431D01*
X030445Y054496D01*
X030455Y054561D01*
X030468Y054626D01*
X030486Y054689D01*
X030507Y054752D01*
X030532Y054812D01*
X030561Y054872D01*
X030593Y054929D01*
X030628Y054985D01*
X030667Y055038D01*
X030709Y055089D01*
X030753Y055137D01*
X030801Y055182D01*
X030851Y055225D01*
X030904Y055264D01*
X030959Y055301D01*
X031016Y055334D01*
X031075Y055363D01*
X031135Y055389D01*
X031197Y055411D01*
X031260Y055430D01*
X031324Y055444D01*
X031389Y055455D01*
X031455Y055462D01*
X031521Y055465D01*
X031586Y055464D01*
X031652Y055459D01*
X031717Y055450D01*
X031782Y055437D01*
X031845Y055421D01*
X031908Y055401D01*
X031969Y055376D01*
X032029Y055349D01*
X032087Y055318D01*
X032143Y055283D01*
X032197Y055245D01*
X032248Y055204D01*
X032297Y055160D01*
X032343Y055113D01*
X032387Y055064D01*
X032427Y055012D01*
X032464Y054957D01*
X032498Y054901D01*
X032528Y054842D01*
X032555Y054782D01*
X032578Y054721D01*
X032597Y054658D01*
X032613Y054594D01*
X032625Y054529D01*
X032633Y054464D01*
X032637Y054398D01*
X032637Y054332D01*
X032633Y054266D01*
X032625Y054201D01*
X032613Y054136D01*
X032597Y054072D01*
X032578Y054009D01*
X032555Y053948D01*
X032528Y053888D01*
X032498Y053829D01*
X032464Y053773D01*
X032427Y053718D01*
X032387Y053666D01*
X032343Y053617D01*
X032297Y053570D01*
X032248Y053526D01*
X032197Y053485D01*
X032143Y053447D01*
X032087Y053412D01*
X032029Y053381D01*
X031969Y053354D01*
X031908Y053329D01*
X031845Y053309D01*
X031782Y053293D01*
X031717Y053280D01*
X031652Y053271D01*
X031586Y053266D01*
X031521Y053265D01*
X031455Y053268D01*
X031389Y053275D01*
X031324Y053286D01*
X031260Y053300D01*
X031197Y053319D01*
X031135Y053341D01*
X031075Y053367D01*
X031016Y053396D01*
X030959Y053429D01*
X030904Y053466D01*
X030851Y053505D01*
X030801Y053548D01*
X030753Y053593D01*
X030709Y053641D01*
X030667Y053692D01*
X030628Y053745D01*
X030593Y053801D01*
X030561Y053858D01*
X030532Y053918D01*
X030507Y053978D01*
X030486Y054041D01*
X030468Y054104D01*
X030455Y054169D01*
X030445Y054234D01*
X030439Y054299D01*
X030437Y054365D01*
X029908Y055184D02*
X019908Y055184D01*
X019810Y055085D02*
X029810Y055085D01*
X029711Y054987D02*
X019711Y054987D01*
X020007Y055282D02*
X030007Y055282D01*
X030041Y055381D02*
X020105Y055381D01*
X020204Y055479D02*
X030041Y055479D01*
X030041Y055578D02*
X020302Y055578D01*
X020401Y055676D02*
X030041Y055676D01*
X030041Y055775D02*
X020499Y055775D01*
X020598Y055873D02*
X030041Y055873D01*
X030041Y055972D02*
X020696Y055972D01*
X020795Y056070D02*
X030041Y056070D01*
X030041Y056169D02*
X020893Y056169D01*
X020992Y056267D02*
X030041Y056267D01*
X030041Y056366D02*
X021090Y056366D01*
X021189Y056464D02*
X030041Y056464D01*
X030041Y056563D02*
X021287Y056563D01*
X021386Y056661D02*
X030041Y056661D01*
X030041Y056760D02*
X021484Y056760D01*
X021583Y056858D02*
X029999Y056858D01*
X029900Y056957D02*
X021681Y056957D01*
X021780Y057055D02*
X029802Y057055D01*
X031143Y054463D02*
X031930Y054463D01*
X031930Y054266D02*
X031143Y054266D01*
X032858Y052066D02*
X032858Y051997D01*
X033097Y051758D01*
X033435Y051758D01*
X033553Y051876D01*
X036048Y051876D01*
X036155Y051920D01*
X036301Y052066D01*
X037180Y052066D01*
X037180Y046366D01*
X034241Y046366D01*
X034166Y046441D01*
X034166Y047691D01*
X026991Y047691D01*
X026991Y052066D01*
X032858Y052066D01*
X032858Y052032D02*
X026991Y052032D01*
X026991Y051933D02*
X032922Y051933D01*
X033020Y051835D02*
X026991Y051835D01*
X026991Y051736D02*
X037180Y051736D01*
X037180Y051638D02*
X026991Y051638D01*
X026991Y051539D02*
X037180Y051539D01*
X037180Y051441D02*
X026991Y051441D01*
X026991Y051342D02*
X037180Y051342D01*
X037180Y051244D02*
X026991Y051244D01*
X026991Y051145D02*
X037180Y051145D01*
X037180Y051047D02*
X026991Y051047D01*
X026991Y050948D02*
X037180Y050948D01*
X037180Y050850D02*
X026991Y050850D01*
X026991Y050751D02*
X037180Y050751D01*
X037180Y050653D02*
X026991Y050653D01*
X026991Y050554D02*
X037180Y050554D01*
X037180Y050456D02*
X026991Y050456D01*
X026991Y050357D02*
X037180Y050357D01*
X037180Y050259D02*
X026991Y050259D01*
X026991Y050160D02*
X037180Y050160D01*
X037180Y050062D02*
X026991Y050062D01*
X026991Y049963D02*
X037180Y049963D01*
X037180Y049865D02*
X026991Y049865D01*
X026991Y049766D02*
X037180Y049766D01*
X037180Y049668D02*
X026991Y049668D01*
X026991Y049569D02*
X037180Y049569D01*
X037180Y049471D02*
X026991Y049471D01*
X026991Y049372D02*
X037180Y049372D01*
X037180Y049274D02*
X026991Y049274D01*
X026991Y049175D02*
X037180Y049175D01*
X037180Y049077D02*
X026991Y049077D01*
X026991Y048978D02*
X037180Y048978D01*
X037180Y048880D02*
X026991Y048880D01*
X026991Y048781D02*
X037180Y048781D01*
X037180Y048683D02*
X026991Y048683D01*
X026991Y048584D02*
X037180Y048584D01*
X037180Y048486D02*
X026991Y048486D01*
X026991Y048387D02*
X037180Y048387D01*
X037180Y048289D02*
X026991Y048289D01*
X026991Y048190D02*
X037180Y048190D01*
X037180Y048092D02*
X026991Y048092D01*
X026991Y047993D02*
X037180Y047993D01*
X037180Y047895D02*
X026991Y047895D01*
X026991Y047796D02*
X037180Y047796D01*
X037180Y047698D02*
X026991Y047698D01*
X026731Y047698D02*
X024176Y047698D01*
X024176Y047796D02*
X026731Y047796D01*
X026731Y047895D02*
X024176Y047895D01*
X024176Y047993D02*
X026731Y047993D01*
X026731Y048092D02*
X024176Y048092D01*
X024176Y048190D02*
X026731Y048190D01*
X026731Y048289D02*
X024176Y048289D01*
X024176Y048387D02*
X026731Y048387D01*
X026731Y048486D02*
X024176Y048486D01*
X024176Y048584D02*
X026731Y048584D01*
X026731Y048683D02*
X024176Y048683D01*
X024176Y048781D02*
X026731Y048781D01*
X026731Y048880D02*
X024176Y048880D01*
X024176Y048978D02*
X026731Y048978D01*
X026731Y049077D02*
X024176Y049077D01*
X024176Y049175D02*
X026731Y049175D01*
X026731Y049274D02*
X024176Y049274D01*
X024176Y049372D02*
X026731Y049372D01*
X026731Y049471D02*
X024176Y049471D01*
X024176Y049569D02*
X026731Y049569D01*
X026731Y049668D02*
X024176Y049668D01*
X024176Y049766D02*
X026731Y049766D01*
X026731Y049865D02*
X024176Y049865D01*
X024176Y049963D02*
X026731Y049963D01*
X026731Y050062D02*
X024176Y050062D01*
X024176Y050160D02*
X026731Y050160D01*
X026731Y050259D02*
X024176Y050259D01*
X024176Y050357D02*
X026731Y050357D01*
X026731Y050456D02*
X024176Y050456D01*
X024176Y050554D02*
X026731Y050554D01*
X026731Y050653D02*
X024176Y050653D01*
X024176Y050751D02*
X026731Y050751D01*
X026731Y050850D02*
X024176Y050850D01*
X024176Y050948D02*
X026731Y050948D01*
X026731Y051047D02*
X024176Y051047D01*
X024176Y051145D02*
X026731Y051145D01*
X026731Y051244D02*
X024176Y051244D01*
X024176Y051342D02*
X026731Y051342D01*
X026731Y051441D02*
X024176Y051441D01*
X024176Y051539D02*
X026731Y051539D01*
X026731Y051638D02*
X024168Y051638D01*
X024121Y051736D02*
X026731Y051736D01*
X026731Y051835D02*
X024022Y051835D01*
X023924Y051933D02*
X026731Y051933D01*
X026731Y052032D02*
X023825Y052032D01*
X023727Y052130D02*
X026736Y052130D01*
X026786Y052229D02*
X023628Y052229D01*
X024176Y047599D02*
X026747Y047599D01*
X026814Y047501D02*
X024176Y047501D01*
X024176Y047402D02*
X033891Y047402D01*
X033891Y047304D02*
X024176Y047304D01*
X024176Y047205D02*
X033891Y047205D01*
X033891Y047107D02*
X024176Y047107D01*
X024176Y047008D02*
X033891Y047008D01*
X033891Y046910D02*
X024176Y046910D01*
X024176Y046811D02*
X033891Y046811D01*
X033891Y046713D02*
X024176Y046713D01*
X024176Y046614D02*
X033891Y046614D01*
X033891Y046516D02*
X024176Y046516D01*
X024176Y046417D02*
X033891Y046417D01*
X033891Y046319D02*
X024176Y046319D01*
X024176Y046220D02*
X033891Y046220D01*
X033891Y046122D02*
X024176Y046122D01*
X024176Y046023D02*
X033891Y046023D01*
X033891Y045925D02*
X024176Y045925D01*
X024176Y045826D02*
X033891Y045826D01*
X033891Y045728D02*
X024176Y045728D01*
X024176Y045629D02*
X025677Y045629D01*
X025697Y045649D02*
X025458Y045410D01*
X025458Y045072D01*
X025468Y045061D01*
X025306Y044899D01*
X025097Y044899D01*
X024858Y044660D01*
X024858Y044322D01*
X025097Y044083D01*
X025435Y044083D01*
X025674Y044322D01*
X025674Y044531D01*
X025975Y044833D01*
X026035Y044833D01*
X026274Y045072D01*
X026274Y045410D01*
X026035Y045649D01*
X025697Y045649D01*
X025578Y045531D02*
X024176Y045531D01*
X024176Y045432D02*
X025480Y045432D01*
X025458Y045334D02*
X024176Y045334D01*
X024176Y045235D02*
X025458Y045235D01*
X025458Y045137D02*
X024176Y045137D01*
X024176Y045038D02*
X025445Y045038D01*
X025347Y044940D02*
X024176Y044940D01*
X024176Y044841D02*
X025039Y044841D01*
X024940Y044743D02*
X024176Y044743D01*
X024176Y044644D02*
X024858Y044644D01*
X024858Y044546D02*
X024176Y044546D01*
X024176Y044447D02*
X024858Y044447D01*
X024858Y044349D02*
X024176Y044349D01*
X024176Y044250D02*
X024930Y044250D01*
X025028Y044152D02*
X024176Y044152D01*
X024176Y044053D02*
X033891Y044053D01*
X033891Y043955D02*
X024176Y043955D01*
X024176Y043856D02*
X033891Y043856D01*
X033891Y043758D02*
X024176Y043758D01*
X024176Y043659D02*
X033891Y043659D01*
X033891Y043561D02*
X024176Y043561D01*
X024176Y043462D02*
X033891Y043462D01*
X033891Y043364D02*
X024176Y043364D01*
X024999Y043265D02*
X033891Y043265D01*
X033891Y043167D02*
X025044Y043167D01*
X025051Y043068D02*
X033891Y043068D01*
X033891Y042970D02*
X025051Y042970D01*
X025051Y042871D02*
X033891Y042871D01*
X033891Y042773D02*
X025051Y042773D01*
X025051Y042674D02*
X033682Y042674D01*
X033584Y042576D02*
X025051Y042576D01*
X025504Y044152D02*
X033891Y044152D01*
X033891Y044250D02*
X025602Y044250D01*
X025674Y044349D02*
X033891Y044349D01*
X033891Y044447D02*
X025674Y044447D01*
X025688Y044546D02*
X033891Y044546D01*
X033891Y044644D02*
X025787Y044644D01*
X025885Y044743D02*
X033891Y044743D01*
X033891Y044841D02*
X026043Y044841D01*
X026142Y044940D02*
X033891Y044940D01*
X033891Y045038D02*
X026240Y045038D01*
X026274Y045137D02*
X033891Y045137D01*
X033891Y045235D02*
X026274Y045235D01*
X026274Y045334D02*
X033891Y045334D01*
X033891Y045432D02*
X026252Y045432D01*
X026153Y045531D02*
X033891Y045531D01*
X033891Y045629D02*
X026055Y045629D01*
X025866Y045241D02*
X025866Y045091D01*
X025266Y044491D01*
X023228Y041886D02*
X022312Y041886D01*
X022214Y041985D02*
X023130Y041985D01*
X023031Y042083D02*
X022115Y042083D01*
X022017Y042182D02*
X022933Y042182D01*
X022834Y042280D02*
X021918Y042280D01*
X021820Y042379D02*
X022736Y042379D01*
X022637Y042477D02*
X021721Y042477D01*
X021623Y042576D02*
X022539Y042576D01*
X022440Y042674D02*
X021524Y042674D01*
X021426Y042773D02*
X022342Y042773D01*
X022288Y042871D02*
X021327Y042871D01*
X021229Y042970D02*
X022281Y042970D01*
X022281Y043068D02*
X021196Y043068D01*
X021196Y043167D02*
X022281Y043167D01*
X022281Y043265D02*
X021196Y043265D01*
X021196Y043364D02*
X022281Y043364D01*
X022281Y043462D02*
X021196Y043462D01*
X021196Y043561D02*
X022281Y043561D01*
X022281Y043659D02*
X021196Y043659D01*
X021196Y043758D02*
X022281Y043758D01*
X022281Y043856D02*
X021196Y043856D01*
X021196Y043955D02*
X022281Y043955D01*
X022281Y044053D02*
X021196Y044053D01*
X021196Y044152D02*
X022281Y044152D01*
X022281Y044250D02*
X021196Y044250D01*
X021196Y044349D02*
X022281Y044349D01*
X022281Y044447D02*
X021196Y044447D01*
X021196Y044546D02*
X022281Y044546D01*
X022281Y044644D02*
X021196Y044644D01*
X021196Y044743D02*
X022281Y044743D01*
X022281Y044841D02*
X021192Y044841D01*
X021166Y044940D02*
X022281Y044940D01*
X022281Y045038D02*
X021166Y045038D01*
X020576Y044644D02*
X020159Y044644D01*
X020159Y044743D02*
X020479Y044743D01*
X020381Y044841D02*
X020159Y044841D01*
X020088Y044940D02*
X020282Y044940D01*
X020184Y045038D02*
X019989Y045038D01*
X020141Y044546D02*
X020576Y044546D01*
X020942Y041788D02*
X012761Y041788D01*
X012761Y041689D02*
X020843Y041689D01*
X020748Y041591D02*
X012761Y041591D01*
X012761Y041492D02*
X020748Y041492D01*
X020748Y041394D02*
X012761Y041394D01*
X012761Y041295D02*
X020748Y041295D01*
X020840Y041197D02*
X012761Y041197D01*
X012761Y041098D02*
X020938Y041098D01*
X021196Y041000D02*
X012761Y041000D01*
X012761Y040901D02*
X021295Y040901D01*
X021393Y040803D02*
X012761Y040803D01*
X012321Y040803D02*
X009116Y040803D01*
X009116Y040901D02*
X012321Y040901D01*
X012321Y041000D02*
X009116Y041000D01*
X009116Y041098D02*
X012321Y041098D01*
X012321Y041197D02*
X009116Y041197D01*
X009116Y041295D02*
X012321Y041295D01*
X012321Y041394D02*
X009116Y041394D01*
X009116Y041492D02*
X012321Y041492D01*
X012321Y041591D02*
X009116Y041591D01*
X009116Y041689D02*
X012321Y041689D01*
X012321Y041788D02*
X009116Y041788D01*
X009116Y041886D02*
X012321Y041886D01*
X012321Y041985D02*
X009116Y041985D01*
X009116Y042083D02*
X012321Y042083D01*
X012321Y042182D02*
X009116Y042182D01*
X009116Y042280D02*
X012321Y042280D01*
X012321Y042379D02*
X009116Y042379D01*
X009116Y042477D02*
X012321Y042477D01*
X012321Y042576D02*
X009116Y042576D01*
X009116Y042674D02*
X012321Y042674D01*
X012321Y042773D02*
X009116Y042773D01*
X009116Y042871D02*
X012321Y042871D01*
X012321Y042970D02*
X009116Y042970D01*
X009116Y043068D02*
X012321Y043068D01*
X012321Y043167D02*
X009116Y043167D01*
X009116Y043265D02*
X012321Y043265D01*
X012321Y043364D02*
X009116Y043364D01*
X009116Y043462D02*
X012321Y043462D01*
X012321Y043561D02*
X009116Y043561D01*
X009116Y043659D02*
X012321Y043659D01*
X012321Y043758D02*
X009116Y043758D01*
X009116Y043856D02*
X012321Y043856D01*
X012321Y043955D02*
X009116Y043955D01*
X009116Y044053D02*
X012321Y044053D01*
X012321Y044152D02*
X009116Y044152D01*
X009116Y044250D02*
X012321Y044250D01*
X012321Y044349D02*
X009116Y044349D01*
X009116Y044447D02*
X012321Y044447D01*
X012321Y044546D02*
X009116Y044546D01*
X009116Y044644D02*
X012321Y044644D01*
X012118Y044823D02*
X011813Y044823D01*
X011598Y045038D01*
X011598Y045137D02*
X009116Y045137D01*
X009116Y045235D02*
X011598Y045235D01*
X011598Y045334D02*
X009116Y045334D01*
X009116Y045432D02*
X011686Y045432D01*
X011785Y045531D02*
X009116Y045531D01*
X009116Y045629D02*
X012321Y045629D01*
X012321Y045531D02*
X012147Y045531D01*
X012245Y045432D02*
X012321Y045432D01*
X012366Y045728D02*
X009116Y045728D01*
X009116Y045826D02*
X012465Y045826D01*
X012563Y045925D02*
X009116Y045925D01*
X009116Y046023D02*
X012662Y046023D01*
X012760Y046122D02*
X009116Y046122D01*
X009116Y046220D02*
X012859Y046220D01*
X012957Y046319D02*
X009116Y046319D01*
X009116Y046417D02*
X013048Y046417D01*
X013048Y046516D02*
X009116Y046516D01*
X009116Y046614D02*
X013048Y046614D01*
X013142Y046713D02*
X009116Y046713D01*
X009116Y046811D02*
X013240Y046811D01*
X012541Y045191D02*
X011966Y045191D01*
X012235Y044940D02*
X012321Y044940D01*
X012566Y048716D02*
X008785Y048716D01*
X008785Y054941D01*
X012566Y054941D01*
X012566Y048716D01*
X012566Y048781D02*
X008785Y048781D01*
X008785Y048880D02*
X012566Y048880D01*
X012566Y048978D02*
X008785Y048978D01*
X008785Y049077D02*
X012566Y049077D01*
X012566Y049175D02*
X008785Y049175D01*
X008785Y049274D02*
X012566Y049274D01*
X012566Y049372D02*
X008785Y049372D01*
X008785Y049471D02*
X012566Y049471D01*
X012566Y049569D02*
X008785Y049569D01*
X008785Y049668D02*
X012566Y049668D01*
X012566Y049766D02*
X008785Y049766D01*
X008785Y049865D02*
X012566Y049865D01*
X012566Y049963D02*
X008785Y049963D01*
X008785Y050062D02*
X012566Y050062D01*
X012566Y050160D02*
X008785Y050160D01*
X008785Y050259D02*
X012566Y050259D01*
X012566Y050357D02*
X008785Y050357D01*
X008785Y050456D02*
X012566Y050456D01*
X012566Y050554D02*
X008785Y050554D01*
X008785Y050653D02*
X012566Y050653D01*
X012566Y050751D02*
X008785Y050751D01*
X008785Y050850D02*
X012566Y050850D01*
X012566Y050948D02*
X008785Y050948D01*
X008785Y051047D02*
X012566Y051047D01*
X012566Y051145D02*
X008785Y051145D01*
X008785Y051244D02*
X012566Y051244D01*
X012566Y051342D02*
X008785Y051342D01*
X008785Y051441D02*
X012566Y051441D01*
X012566Y051539D02*
X008785Y051539D01*
X008785Y051638D02*
X012566Y051638D01*
X012566Y051736D02*
X008785Y051736D01*
X008785Y051835D02*
X012566Y051835D01*
X012566Y051933D02*
X008785Y051933D01*
X008785Y052032D02*
X012566Y052032D01*
X012566Y052130D02*
X008785Y052130D01*
X008785Y052229D02*
X012566Y052229D01*
X012566Y052327D02*
X008785Y052327D01*
X008785Y052426D02*
X012566Y052426D01*
X012566Y052524D02*
X008785Y052524D01*
X008785Y052623D02*
X012566Y052623D01*
X012566Y052721D02*
X008785Y052721D01*
X008785Y052820D02*
X012566Y052820D01*
X012566Y052918D02*
X008785Y052918D01*
X008785Y053017D02*
X012566Y053017D01*
X012566Y053115D02*
X008785Y053115D01*
X008785Y053214D02*
X012566Y053214D01*
X012566Y053312D02*
X008785Y053312D01*
X008785Y053411D02*
X012566Y053411D01*
X012566Y053509D02*
X008785Y053509D01*
X008785Y053608D02*
X012566Y053608D01*
X012566Y053706D02*
X008785Y053706D01*
X008785Y053805D02*
X012566Y053805D01*
X012566Y053903D02*
X008785Y053903D01*
X008785Y054002D02*
X012566Y054002D01*
X012566Y054100D02*
X008785Y054100D01*
X008785Y054199D02*
X012566Y054199D01*
X012566Y054297D02*
X008785Y054297D01*
X008785Y054396D02*
X012566Y054396D01*
X012566Y054494D02*
X008785Y054494D01*
X008785Y054593D02*
X012566Y054593D01*
X012566Y054691D02*
X008785Y054691D01*
X008785Y054790D02*
X012566Y054790D01*
X012566Y054888D02*
X008785Y054888D01*
X012916Y054888D02*
X015844Y054888D01*
X015942Y054790D02*
X012916Y054790D01*
X012916Y054691D02*
X016041Y054691D01*
X016139Y054593D02*
X012916Y054593D01*
X012916Y054494D02*
X016238Y054494D01*
X016336Y054396D02*
X012916Y054396D01*
X012916Y054297D02*
X016435Y054297D01*
X016533Y054199D02*
X012916Y054199D01*
X012916Y054100D02*
X016541Y054100D01*
X016541Y054191D02*
X016541Y051616D01*
X012916Y051616D01*
X012916Y054941D01*
X013291Y055316D01*
X013291Y057941D01*
X013541Y058191D01*
X014791Y058191D01*
X015041Y057941D01*
X015041Y055691D01*
X016541Y054191D01*
X016541Y054002D02*
X012916Y054002D01*
X012916Y053903D02*
X016541Y053903D01*
X016541Y053805D02*
X012916Y053805D01*
X012916Y053706D02*
X016541Y053706D01*
X016541Y053608D02*
X012916Y053608D01*
X012916Y053509D02*
X016541Y053509D01*
X016541Y053411D02*
X012916Y053411D01*
X012916Y053312D02*
X016541Y053312D01*
X016541Y053214D02*
X012916Y053214D01*
X012916Y053115D02*
X016541Y053115D01*
X016541Y053017D02*
X012916Y053017D01*
X012916Y052918D02*
X016541Y052918D01*
X016541Y052820D02*
X012916Y052820D01*
X012916Y052721D02*
X016541Y052721D01*
X016541Y052623D02*
X012916Y052623D01*
X012916Y052524D02*
X016541Y052524D01*
X016541Y052426D02*
X012916Y052426D01*
X012916Y052327D02*
X016541Y052327D01*
X016541Y052229D02*
X012916Y052229D01*
X012916Y052130D02*
X016541Y052130D01*
X016541Y052032D02*
X012916Y052032D01*
X012916Y051933D02*
X016541Y051933D01*
X016541Y051835D02*
X012916Y051835D01*
X012916Y051736D02*
X016541Y051736D01*
X016541Y051638D02*
X012916Y051638D01*
X012916Y051316D02*
X016791Y051316D01*
X016916Y051441D01*
X016916Y054391D01*
X015416Y055891D01*
X015416Y057941D01*
X015666Y058191D01*
X016541Y058191D01*
X018541Y056066D01*
X018541Y049941D01*
X017291Y048716D01*
X012916Y048716D01*
X012916Y051316D01*
X012916Y051244D02*
X018541Y051244D01*
X018541Y051342D02*
X016817Y051342D01*
X016915Y051441D02*
X018541Y051441D01*
X018541Y051539D02*
X016916Y051539D01*
X016916Y051638D02*
X018541Y051638D01*
X018541Y051736D02*
X016916Y051736D01*
X016916Y051835D02*
X018541Y051835D01*
X018541Y051933D02*
X016916Y051933D01*
X016916Y052032D02*
X018541Y052032D01*
X018541Y052130D02*
X016916Y052130D01*
X016916Y052229D02*
X018541Y052229D01*
X018541Y052327D02*
X016916Y052327D01*
X016916Y052426D02*
X018541Y052426D01*
X018541Y052524D02*
X016916Y052524D01*
X016916Y052623D02*
X018541Y052623D01*
X018541Y052721D02*
X016916Y052721D01*
X016916Y052820D02*
X018541Y052820D01*
X018541Y052918D02*
X016916Y052918D01*
X016916Y053017D02*
X018541Y053017D01*
X018541Y053115D02*
X016916Y053115D01*
X016916Y053214D02*
X018541Y053214D01*
X018541Y053312D02*
X016916Y053312D01*
X016916Y053411D02*
X018541Y053411D01*
X018541Y053509D02*
X016916Y053509D01*
X016916Y053608D02*
X018541Y053608D01*
X018541Y053706D02*
X016916Y053706D01*
X016916Y053805D02*
X018541Y053805D01*
X018541Y053903D02*
X016916Y053903D01*
X016916Y054002D02*
X018541Y054002D01*
X018541Y054100D02*
X016916Y054100D01*
X016916Y054199D02*
X018541Y054199D01*
X018541Y054297D02*
X016916Y054297D01*
X016911Y054396D02*
X018541Y054396D01*
X018541Y054494D02*
X016813Y054494D01*
X016714Y054593D02*
X018541Y054593D01*
X018541Y054691D02*
X016616Y054691D01*
X016517Y054790D02*
X018541Y054790D01*
X018541Y054888D02*
X016419Y054888D01*
X016320Y054987D02*
X018541Y054987D01*
X018541Y055085D02*
X016222Y055085D01*
X016123Y055184D02*
X018541Y055184D01*
X018541Y055282D02*
X016025Y055282D01*
X015926Y055381D02*
X018541Y055381D01*
X018541Y055479D02*
X015828Y055479D01*
X015729Y055578D02*
X018541Y055578D01*
X018541Y055676D02*
X015631Y055676D01*
X015532Y055775D02*
X018541Y055775D01*
X018541Y055873D02*
X015434Y055873D01*
X015416Y055972D02*
X018541Y055972D01*
X018537Y056070D02*
X015416Y056070D01*
X015416Y056169D02*
X018444Y056169D01*
X018352Y056267D02*
X015416Y056267D01*
X015416Y056366D02*
X018259Y056366D01*
X018166Y056464D02*
X015416Y056464D01*
X015416Y056563D02*
X018073Y056563D01*
X017981Y056661D02*
X015416Y056661D01*
X015416Y056760D02*
X017888Y056760D01*
X017795Y056858D02*
X015416Y056858D01*
X015416Y056957D02*
X017703Y056957D01*
X017610Y057055D02*
X015416Y057055D01*
X015416Y057154D02*
X017517Y057154D01*
X017424Y057252D02*
X015416Y057252D01*
X015416Y057351D02*
X017332Y057351D01*
X017239Y057449D02*
X015416Y057449D01*
X015416Y057548D02*
X017146Y057548D01*
X017054Y057646D02*
X015416Y057646D01*
X015416Y057745D02*
X016961Y057745D01*
X016868Y057843D02*
X015416Y057843D01*
X015416Y057942D02*
X016776Y057942D01*
X016683Y058040D02*
X015515Y058040D01*
X015613Y058139D02*
X016590Y058139D01*
X015040Y057942D02*
X013291Y057942D01*
X013291Y057843D02*
X015041Y057843D01*
X015041Y057745D02*
X013291Y057745D01*
X013291Y057646D02*
X015041Y057646D01*
X015041Y057548D02*
X013291Y057548D01*
X013291Y057449D02*
X015041Y057449D01*
X015041Y057351D02*
X013291Y057351D01*
X013291Y057252D02*
X015041Y057252D01*
X015041Y057154D02*
X013291Y057154D01*
X013291Y057055D02*
X015041Y057055D01*
X015041Y056957D02*
X013291Y056957D01*
X013291Y056858D02*
X015041Y056858D01*
X015041Y056760D02*
X013291Y056760D01*
X013291Y056661D02*
X015041Y056661D01*
X015041Y056563D02*
X013291Y056563D01*
X013291Y056464D02*
X015041Y056464D01*
X015041Y056366D02*
X013291Y056366D01*
X013291Y056267D02*
X015041Y056267D01*
X015041Y056169D02*
X013291Y056169D01*
X013291Y056070D02*
X015041Y056070D01*
X015041Y055972D02*
X013291Y055972D01*
X013291Y055873D02*
X015041Y055873D01*
X015041Y055775D02*
X013291Y055775D01*
X013291Y055676D02*
X015056Y055676D01*
X015154Y055578D02*
X013291Y055578D01*
X013291Y055479D02*
X015253Y055479D01*
X015351Y055381D02*
X013291Y055381D01*
X013257Y055282D02*
X015450Y055282D01*
X015548Y055184D02*
X013158Y055184D01*
X013060Y055085D02*
X015647Y055085D01*
X015745Y054987D02*
X012961Y054987D01*
X013390Y058040D02*
X014942Y058040D01*
X014843Y058139D02*
X013488Y058139D01*
X012916Y051145D02*
X018541Y051145D01*
X018541Y051047D02*
X012916Y051047D01*
X012916Y050948D02*
X018541Y050948D01*
X018541Y050850D02*
X012916Y050850D01*
X012916Y050751D02*
X018541Y050751D01*
X018541Y050653D02*
X012916Y050653D01*
X012916Y050554D02*
X018541Y050554D01*
X018541Y050456D02*
X012916Y050456D01*
X012916Y050357D02*
X018541Y050357D01*
X018541Y050259D02*
X012916Y050259D01*
X012916Y050160D02*
X018541Y050160D01*
X018541Y050062D02*
X012916Y050062D01*
X012916Y049963D02*
X018541Y049963D01*
X018463Y049865D02*
X012916Y049865D01*
X012916Y049766D02*
X018362Y049766D01*
X018262Y049668D02*
X012916Y049668D01*
X012916Y049569D02*
X018161Y049569D01*
X018061Y049471D02*
X012916Y049471D01*
X012916Y049372D02*
X017960Y049372D01*
X017860Y049274D02*
X012916Y049274D01*
X012916Y049175D02*
X017759Y049175D01*
X017659Y049077D02*
X012916Y049077D01*
X012916Y048978D02*
X017558Y048978D01*
X017458Y048880D02*
X012916Y048880D01*
X012916Y048781D02*
X017357Y048781D01*
X016498Y048092D02*
X009629Y048092D01*
X009520Y047993D02*
X016498Y047993D01*
X016498Y047895D02*
X009410Y047895D01*
X009301Y047796D02*
X016565Y047796D01*
X016664Y047698D02*
X009191Y047698D01*
X009116Y040704D02*
X012321Y040704D01*
X012321Y040606D02*
X009116Y040606D01*
X009116Y040507D02*
X012321Y040507D01*
X012321Y040409D02*
X009116Y040409D01*
X009116Y040310D02*
X012321Y040310D01*
X012321Y040212D02*
X009116Y040212D01*
X009116Y040113D02*
X012321Y040113D01*
X012356Y040015D02*
X009116Y040015D01*
X009116Y039916D02*
X012455Y039916D01*
X012473Y039818D02*
X009116Y039818D01*
X009116Y039719D02*
X012473Y039719D01*
X012541Y039621D02*
X009116Y039621D01*
X009116Y039522D02*
X012639Y039522D01*
X009484Y038439D02*
X032789Y038439D01*
X032890Y038340D02*
X009484Y038340D01*
X009484Y038242D02*
X032941Y038242D01*
X032941Y038143D02*
X009438Y038143D01*
X009340Y038045D02*
X032941Y038045D01*
X032941Y037946D02*
X008785Y037946D01*
X008785Y038045D02*
X008892Y038045D01*
X008793Y038143D02*
X008785Y038143D01*
X009116Y038734D02*
X031623Y038734D01*
X031721Y038636D02*
X009342Y038636D01*
X009440Y038537D02*
X031820Y038537D01*
X031524Y038833D02*
X009116Y038833D01*
X009116Y038931D02*
X031426Y038931D01*
X031327Y039030D02*
X009116Y039030D01*
X009116Y039128D02*
X031316Y039128D01*
X031316Y039227D02*
X009116Y039227D01*
X009116Y039325D02*
X031316Y039325D01*
X031316Y039424D02*
X009116Y039424D01*
X008785Y037257D02*
X030883Y037257D01*
X030516Y037158D02*
X008785Y037158D01*
X008785Y037060D02*
X030341Y037060D01*
X030170Y036961D02*
X008785Y036961D01*
X008785Y036863D02*
X030029Y036863D01*
X029930Y036764D02*
X008785Y036764D01*
X008785Y036666D02*
X029832Y036666D01*
X029733Y036567D02*
X008785Y036567D01*
X008785Y036469D02*
X029667Y036469D01*
X029610Y036370D02*
X008785Y036370D01*
X008785Y036272D02*
X029553Y036272D01*
X029369Y035779D02*
X026402Y035779D01*
X026501Y035681D02*
X029343Y035681D01*
X029326Y035582D02*
X026599Y035582D01*
X026636Y035484D02*
X029326Y035484D01*
X029326Y035385D02*
X026636Y035385D01*
X026636Y035287D02*
X029326Y035287D01*
X029326Y035188D02*
X026636Y035188D01*
X026589Y035090D02*
X029331Y035090D01*
X029357Y034991D02*
X026491Y034991D01*
X026392Y034893D02*
X029384Y034893D01*
X031788Y033514D02*
X032941Y033514D01*
X032941Y033612D02*
X032069Y033612D01*
X032239Y033711D02*
X032941Y033711D01*
X032941Y033809D02*
X032410Y033809D01*
X032518Y033908D02*
X032941Y033908D01*
X032941Y034006D02*
X032616Y034006D01*
X032715Y034105D02*
X032941Y034105D01*
X032941Y034203D02*
X032804Y034203D01*
X032861Y034302D02*
X032941Y034302D01*
X032941Y034400D02*
X032918Y034400D01*
X030000Y041492D02*
X022706Y041492D01*
X022608Y041591D02*
X030099Y041591D01*
X034190Y046417D02*
X037180Y046417D01*
X037180Y046516D02*
X034166Y046516D01*
X034166Y046614D02*
X037180Y046614D01*
X037180Y046713D02*
X034166Y046713D01*
X034166Y046811D02*
X037180Y046811D01*
X037180Y046910D02*
X034166Y046910D01*
X034166Y047008D02*
X037180Y047008D01*
X037180Y047107D02*
X034166Y047107D01*
X034166Y047205D02*
X037180Y047205D01*
X037180Y047304D02*
X034166Y047304D01*
X034166Y047402D02*
X037180Y047402D01*
X037180Y047501D02*
X034166Y047501D01*
X034166Y047599D02*
X037180Y047599D01*
X037180Y051835D02*
X033512Y051835D01*
X036168Y051933D02*
X037180Y051933D01*
X037180Y052032D02*
X036267Y052032D01*
X023460Y041689D02*
X022509Y041689D01*
X022411Y041788D02*
X023327Y041788D01*
X021666Y040841D02*
X021091Y041416D01*
X019291Y032866D02*
X012241Y032866D01*
X008816Y029441D01*
X008816Y014066D01*
X010191Y012691D01*
X010191Y012291D01*
X010362Y011942D02*
X010544Y011942D01*
X010716Y012291D02*
X010716Y012491D01*
X009041Y014166D01*
X009041Y029341D01*
X011416Y031716D01*
X011441Y031741D01*
X011591Y031891D01*
X012241Y031891D01*
X011969Y031642D02*
X011653Y031642D01*
X011555Y031544D02*
X012068Y031544D01*
X011964Y032135D02*
X011821Y032135D01*
X011919Y032233D02*
X012062Y032233D01*
X012215Y032529D02*
X019108Y032529D01*
X019009Y032627D02*
X012313Y032627D01*
X011986Y032923D02*
X008785Y032923D01*
X008785Y033021D02*
X012085Y033021D01*
X011888Y032824D02*
X008785Y032824D01*
X008785Y032726D02*
X011789Y032726D01*
X011691Y032627D02*
X008785Y032627D01*
X008785Y032529D02*
X011592Y032529D01*
X011494Y032430D02*
X008785Y032430D01*
X008785Y032332D02*
X011395Y032332D01*
X011297Y032233D02*
X008785Y032233D01*
X008785Y032135D02*
X011198Y032135D01*
X011100Y032036D02*
X008785Y032036D01*
X008785Y031938D02*
X011001Y031938D01*
X010903Y031839D02*
X008785Y031839D01*
X008785Y031741D02*
X010804Y031741D01*
X010706Y031642D02*
X008785Y031642D01*
X008785Y031544D02*
X010607Y031544D01*
X010509Y031445D02*
X008785Y031445D01*
X008785Y031347D02*
X010410Y031347D01*
X010312Y031248D02*
X008785Y031248D01*
X008785Y031150D02*
X010213Y031150D01*
X010115Y031051D02*
X008785Y031051D01*
X008785Y030953D02*
X010016Y030953D01*
X009918Y030854D02*
X008785Y030854D01*
X008785Y030756D02*
X009819Y030756D01*
X009721Y030657D02*
X008785Y030657D01*
X008785Y030559D02*
X009622Y030559D01*
X009524Y030460D02*
X008785Y030460D01*
X008785Y030362D02*
X009425Y030362D01*
X009327Y030263D02*
X008785Y030263D01*
X008785Y030165D02*
X009228Y030165D01*
X009130Y030066D02*
X008785Y030066D01*
X008785Y029968D02*
X009031Y029968D01*
X008933Y029869D02*
X008785Y029869D01*
X008785Y029771D02*
X008834Y029771D01*
X009261Y028687D02*
X009466Y028687D01*
X009368Y028589D02*
X009261Y028589D01*
X009261Y028490D02*
X009348Y028490D01*
X009348Y028392D02*
X009261Y028392D01*
X009261Y028293D02*
X009348Y028293D01*
X009417Y028195D02*
X009261Y028195D01*
X009261Y028096D02*
X009515Y028096D01*
X009752Y027998D02*
X009261Y027998D01*
X009261Y027899D02*
X009851Y027899D01*
X010154Y026815D02*
X009261Y026815D01*
X009261Y026717D02*
X010056Y026717D01*
X009957Y026618D02*
X009261Y026618D01*
X009261Y026520D02*
X009859Y026520D01*
X009760Y026421D02*
X009261Y026421D01*
X009261Y026323D02*
X009662Y026323D01*
X009563Y026224D02*
X009261Y026224D01*
X009261Y026126D02*
X009465Y026126D01*
X009366Y026027D02*
X009261Y026027D01*
X009261Y025929D02*
X009268Y025929D01*
X009486Y025239D02*
X009719Y025239D01*
X009673Y025141D02*
X009486Y025141D01*
X009486Y025042D02*
X009673Y025042D01*
X009673Y024944D02*
X009486Y024944D01*
X009486Y024845D02*
X009716Y024845D01*
X009814Y024747D02*
X009486Y024747D01*
X009486Y024451D02*
X013194Y024451D01*
X013293Y024353D02*
X009486Y024353D01*
X009486Y024254D02*
X013391Y024254D01*
X013490Y024156D02*
X009486Y024156D01*
X009486Y024057D02*
X013588Y024057D01*
X013687Y023959D02*
X009486Y023959D01*
X009486Y023860D02*
X017423Y023860D01*
X017423Y023762D02*
X009486Y023762D01*
X009486Y023663D02*
X017423Y023663D01*
X017423Y023565D02*
X012287Y023565D01*
X011944Y023565D02*
X009486Y023565D01*
X009486Y023466D02*
X011846Y023466D01*
X011936Y022875D02*
X010796Y022875D01*
X010697Y022777D02*
X025081Y022777D01*
X025081Y022875D02*
X012296Y022875D01*
X013375Y021686D02*
X013246Y021557D01*
X012146Y020457D01*
X012146Y020342D01*
X011998Y020193D01*
X011998Y020170D01*
X011209Y020959D01*
X011209Y021168D01*
X010993Y021384D01*
X010688Y021384D01*
X010473Y021168D01*
X010473Y020863D01*
X010688Y020648D01*
X010898Y020648D01*
X011512Y020034D01*
X011413Y020034D01*
X011198Y019818D01*
X011198Y019513D01*
X011227Y019484D01*
X010938Y019484D01*
X010723Y019268D01*
X010723Y018963D01*
X010938Y018748D01*
X011243Y018748D01*
X011459Y018963D01*
X011459Y018971D01*
X014674Y018971D01*
X014674Y018623D01*
X014947Y018349D01*
X015334Y018349D01*
X015608Y018623D01*
X015608Y019009D01*
X015421Y019196D01*
X015832Y019196D01*
X016132Y019496D01*
X019265Y019496D01*
X019413Y019348D01*
X019718Y019348D01*
X019934Y019563D01*
X019934Y019868D01*
X019718Y020084D01*
X019413Y020084D01*
X019265Y019936D01*
X015950Y019936D01*
X015934Y019920D01*
X015934Y019943D01*
X015718Y020159D01*
X015413Y020159D01*
X015265Y020011D01*
X014866Y020011D01*
X014718Y020159D01*
X014413Y020159D01*
X014198Y019943D01*
X014198Y019638D01*
X014200Y019636D01*
X014056Y019636D01*
X014059Y019638D01*
X014059Y019943D01*
X013894Y020108D01*
X013957Y020171D01*
X024390Y020171D01*
X024538Y020023D01*
X024843Y020023D01*
X025059Y020238D01*
X025059Y020543D01*
X024843Y020759D01*
X024538Y020759D01*
X024390Y020611D01*
X013847Y020611D01*
X013882Y020646D01*
X016657Y020646D01*
X016759Y020748D01*
X016968Y020748D01*
X017184Y020963D01*
X017184Y021268D01*
X016968Y021484D01*
X016663Y021484D01*
X016448Y021268D01*
X016448Y021086D01*
X013700Y021086D01*
X013571Y020957D01*
X013498Y020884D01*
X013288Y020884D01*
X013073Y020668D01*
X013073Y020509D01*
X012838Y020509D01*
X012628Y020299D01*
X012619Y020308D01*
X013557Y021246D01*
X015065Y021246D01*
X015213Y021098D01*
X015518Y021098D01*
X015734Y021313D01*
X015734Y021618D01*
X015518Y021834D01*
X015213Y021834D01*
X015065Y021686D01*
X013375Y021686D01*
X013284Y021595D02*
X009486Y021595D01*
X009486Y021693D02*
X015073Y021693D01*
X015171Y021792D02*
X009486Y021792D01*
X009486Y021890D02*
X025081Y021890D01*
X025081Y021792D02*
X015560Y021792D01*
X015659Y021693D02*
X025081Y021693D01*
X025081Y021595D02*
X015734Y021595D01*
X015734Y021496D02*
X025081Y021496D01*
X025081Y021398D02*
X023579Y021398D01*
X023543Y021434D02*
X023759Y021218D01*
X023759Y020913D01*
X023543Y020698D01*
X023238Y020698D01*
X023120Y020816D01*
X021736Y020816D01*
X021618Y020698D01*
X021313Y020698D01*
X021098Y020913D01*
X021098Y021218D01*
X021313Y021434D01*
X021618Y021434D01*
X021736Y021316D01*
X023120Y021316D01*
X023238Y021434D01*
X023543Y021434D01*
X023678Y021299D02*
X025081Y021299D01*
X025081Y021201D02*
X023759Y021201D01*
X023759Y021102D02*
X025081Y021102D01*
X025081Y021004D02*
X023759Y021004D01*
X023751Y020905D02*
X025081Y020905D01*
X025081Y020807D02*
X023652Y020807D01*
X023554Y020708D02*
X024488Y020708D01*
X024691Y020391D02*
X013866Y020391D01*
X013641Y020166D01*
X013016Y020166D01*
X012991Y020141D01*
X012742Y020413D02*
X012724Y020413D01*
X012644Y020314D02*
X012625Y020314D01*
X012366Y020366D02*
X013466Y021466D01*
X015366Y021466D01*
X015621Y021201D02*
X016448Y021201D01*
X016448Y021102D02*
X015523Y021102D01*
X015720Y021299D02*
X016479Y021299D01*
X016577Y021398D02*
X015734Y021398D01*
X015209Y021102D02*
X013413Y021102D01*
X013315Y021004D02*
X013618Y021004D01*
X013519Y020905D02*
X013216Y020905D01*
X013211Y020807D02*
X013118Y020807D01*
X013113Y020708D02*
X013019Y020708D01*
X013073Y020610D02*
X012921Y020610D01*
X012822Y020511D02*
X013073Y020511D01*
X013441Y020516D02*
X013791Y020866D01*
X016566Y020866D01*
X016816Y021116D01*
X017184Y021102D02*
X021098Y021102D01*
X021098Y021004D02*
X017184Y021004D01*
X017126Y020905D02*
X021106Y020905D01*
X021204Y020807D02*
X017027Y020807D01*
X016719Y020708D02*
X021303Y020708D01*
X021629Y020708D02*
X023228Y020708D01*
X023129Y020807D02*
X021727Y020807D01*
X021654Y021398D02*
X023202Y021398D01*
X024444Y020117D02*
X015760Y020117D01*
X015858Y020019D02*
X019348Y020019D01*
X019566Y019716D02*
X016041Y019716D01*
X015741Y019416D01*
X011816Y019416D01*
X011566Y019666D01*
X011300Y019920D02*
X009486Y019920D01*
X009486Y019822D02*
X011201Y019822D01*
X011198Y019723D02*
X009486Y019723D01*
X009486Y019625D02*
X011198Y019625D01*
X011198Y019526D02*
X009486Y019526D01*
X009486Y019428D02*
X010882Y019428D01*
X010784Y019329D02*
X009486Y019329D01*
X009486Y019231D02*
X010723Y019231D01*
X010723Y019132D02*
X009486Y019132D01*
X009486Y019034D02*
X010723Y019034D01*
X010751Y018935D02*
X009486Y018935D01*
X009486Y018837D02*
X010849Y018837D01*
X011091Y019116D02*
X011166Y019191D01*
X014766Y019191D01*
X015141Y018816D01*
X015485Y019132D02*
X015797Y019132D01*
X015867Y019231D02*
X015896Y019231D01*
X015947Y019283D02*
X015674Y019009D01*
X015674Y018623D01*
X015947Y018349D01*
X016334Y018349D01*
X016608Y018623D01*
X016608Y019009D01*
X016334Y019283D01*
X015947Y019283D01*
X015965Y019329D02*
X025081Y019329D01*
X025081Y019231D02*
X016386Y019231D01*
X016485Y019132D02*
X025081Y019132D01*
X025081Y019034D02*
X016583Y019034D01*
X016608Y018935D02*
X025081Y018935D01*
X025102Y018837D02*
X016608Y018837D01*
X016608Y018738D02*
X025176Y018738D01*
X025150Y018461D02*
X017600Y018461D01*
X017471Y018332D01*
X017175Y018036D01*
X016581Y018036D01*
X016334Y018283D01*
X015947Y018283D01*
X015674Y018009D01*
X015674Y017623D01*
X015947Y017349D01*
X016334Y017349D01*
X016581Y017596D01*
X017357Y017596D01*
X017782Y018021D01*
X025150Y018021D01*
X025298Y017873D01*
X025298Y017738D01*
X025513Y017523D01*
X025818Y017523D01*
X026034Y017738D01*
X026034Y018043D01*
X025818Y018259D01*
X025534Y018259D01*
X025332Y018461D01*
X025150Y018461D01*
X025350Y018443D02*
X032766Y018443D01*
X032766Y018541D02*
X016527Y018541D01*
X016608Y018640D02*
X032766Y018640D01*
X032766Y018344D02*
X025448Y018344D01*
X025241Y018241D02*
X025591Y017891D01*
X025666Y017891D01*
X025930Y018147D02*
X032766Y018147D01*
X032766Y018246D02*
X025831Y018246D01*
X026028Y018049D02*
X032703Y018049D01*
X032648Y017950D02*
X026034Y017950D01*
X026034Y017852D02*
X032648Y017852D01*
X032648Y017753D02*
X026034Y017753D01*
X025950Y017655D02*
X032681Y017655D01*
X032780Y017556D02*
X025852Y017556D01*
X025480Y017556D02*
X022409Y017556D01*
X022409Y017458D02*
X033766Y017458D01*
X033766Y017556D02*
X033252Y017556D01*
X033350Y017655D02*
X033766Y017655D01*
X033766Y017753D02*
X033384Y017753D01*
X033384Y017852D02*
X033766Y017852D01*
X033766Y017950D02*
X033384Y017950D01*
X033328Y018049D02*
X033766Y018049D01*
X033766Y018147D02*
X033266Y018147D01*
X033266Y018246D02*
X033766Y018246D01*
X033766Y018344D02*
X033266Y018344D01*
X033266Y018443D02*
X033766Y018443D01*
X033766Y018541D02*
X033266Y018541D01*
X033266Y018640D02*
X033766Y018640D01*
X033766Y017359D02*
X022330Y017359D01*
X022409Y017438D02*
X022193Y017223D01*
X021888Y017223D01*
X021740Y017371D01*
X020441Y017371D01*
X020293Y017223D01*
X019988Y017223D01*
X019773Y017438D01*
X019773Y017743D01*
X019988Y017959D01*
X020293Y017959D01*
X020441Y017811D01*
X021740Y017811D01*
X021888Y017959D01*
X022193Y017959D01*
X022409Y017743D01*
X022409Y017438D01*
X022409Y017655D02*
X025381Y017655D01*
X025298Y017753D02*
X022399Y017753D01*
X022300Y017852D02*
X025298Y017852D01*
X025220Y017950D02*
X022202Y017950D01*
X021880Y017950D02*
X020302Y017950D01*
X020400Y017852D02*
X021781Y017852D01*
X022041Y017591D02*
X020141Y017591D01*
X019881Y017852D02*
X017613Y017852D01*
X017711Y017950D02*
X019980Y017950D01*
X019783Y017753D02*
X017514Y017753D01*
X017416Y017655D02*
X019773Y017655D01*
X019773Y017556D02*
X016542Y017556D01*
X016443Y017458D02*
X019773Y017458D01*
X019852Y017359D02*
X016345Y017359D01*
X016326Y017263D02*
X016189Y017263D01*
X016189Y016864D01*
X016588Y016864D01*
X016588Y017001D01*
X016326Y017263D01*
X016328Y017261D02*
X019950Y017261D01*
X020331Y017261D02*
X021850Y017261D01*
X021752Y017359D02*
X020430Y017359D01*
X021313Y015934D02*
X021098Y015718D01*
X021098Y015413D01*
X021313Y015198D01*
X021557Y015198D01*
X021666Y015104D01*
X021725Y015046D01*
X021734Y015046D01*
X021742Y015040D01*
X021824Y015046D01*
X024100Y015046D01*
X024373Y014773D01*
X024373Y014563D01*
X024588Y014348D01*
X024893Y014348D01*
X025109Y014563D01*
X025109Y014868D01*
X024893Y015084D01*
X024684Y015084D01*
X024282Y015486D01*
X021897Y015486D01*
X021834Y015540D01*
X021834Y015718D01*
X021618Y015934D01*
X021313Y015934D01*
X021261Y015882D02*
X016608Y015882D01*
X016608Y015980D02*
X022523Y015980D01*
X022523Y015882D02*
X021670Y015882D01*
X021769Y015783D02*
X022603Y015783D01*
X022523Y015863D02*
X022738Y015648D01*
X023043Y015648D01*
X023236Y015841D01*
X024570Y015841D01*
X024613Y015798D01*
X024918Y015798D01*
X025134Y016013D01*
X025134Y016318D01*
X024918Y016534D01*
X024613Y016534D01*
X024420Y016341D01*
X023086Y016341D01*
X023043Y016384D01*
X022738Y016384D01*
X022523Y016168D01*
X022523Y015863D01*
X022523Y016079D02*
X016538Y016079D01*
X016440Y016177D02*
X022532Y016177D01*
X022630Y016276D02*
X016341Y016276D01*
X016326Y016369D02*
X016588Y016631D01*
X016588Y016768D01*
X016189Y016768D01*
X022523Y016768D01*
X022523Y016688D02*
X022738Y016473D01*
X016430Y016473D01*
X016528Y016571D02*
X022640Y016571D01*
X022738Y016473D02*
X023043Y016473D01*
X023161Y016591D01*
X028141Y016591D01*
X027946Y016396D01*
X027946Y015986D01*
X028236Y015696D01*
X028646Y015696D01*
X028936Y015986D01*
X028936Y016396D01*
X028741Y016591D01*
X031737Y016591D01*
X032048Y016281D01*
X032048Y016113D01*
X032263Y015898D01*
X032568Y015898D01*
X032784Y016113D01*
X032784Y016418D01*
X032568Y016634D01*
X032401Y016634D01*
X031982Y017053D01*
X031891Y017091D01*
X023161Y017091D01*
X023043Y017209D01*
X022738Y017209D01*
X022523Y016993D01*
X022523Y016688D01*
X022541Y016670D02*
X016588Y016670D01*
X016588Y016867D02*
X022523Y016867D01*
X022523Y016965D02*
X016588Y016965D01*
X016525Y017064D02*
X022593Y017064D01*
X022692Y017162D02*
X016426Y017162D01*
X016189Y017162D02*
X016092Y017162D01*
X016092Y017064D02*
X016189Y017064D01*
X016189Y016965D02*
X016092Y016965D01*
X016092Y016867D02*
X016189Y016867D01*
X016189Y016864D02*
X016092Y016864D01*
X016092Y016768D01*
X015189Y016768D01*
X015189Y016864D01*
X015588Y016864D01*
X015588Y017001D01*
X015326Y017263D01*
X015189Y017263D01*
X015189Y016864D01*
X015092Y016864D01*
X015092Y016768D01*
X014111Y016768D01*
X014111Y016670D02*
X014694Y016670D01*
X014694Y016631D02*
X014956Y016369D01*
X015092Y016369D01*
X015092Y016768D01*
X014694Y016768D01*
X014694Y016631D01*
X014753Y016571D02*
X014111Y016571D01*
X014111Y016473D02*
X014852Y016473D01*
X014950Y016374D02*
X014111Y016374D01*
X014126Y016276D02*
X014941Y016276D01*
X014842Y016177D02*
X014225Y016177D01*
X014259Y016079D02*
X014744Y016079D01*
X014674Y015980D02*
X014259Y015980D01*
X014259Y015882D02*
X014674Y015882D01*
X014916Y015591D02*
X015141Y015816D01*
X016141Y015816D01*
X016473Y015488D02*
X021098Y015488D01*
X021098Y015586D02*
X016572Y015586D01*
X016608Y015685D02*
X021098Y015685D01*
X021163Y015783D02*
X016608Y015783D01*
X016375Y015389D02*
X021122Y015389D01*
X021220Y015291D02*
X014384Y015291D01*
X014384Y015192D02*
X021563Y015192D01*
X021677Y015094D02*
X014384Y015094D01*
X014384Y014995D02*
X024150Y014995D01*
X024249Y014897D02*
X023821Y014897D01*
X023919Y014798D02*
X024347Y014798D01*
X024373Y014700D02*
X024018Y014700D01*
X024116Y014601D02*
X024373Y014601D01*
X024433Y014503D02*
X024215Y014503D01*
X024313Y014404D02*
X024532Y014404D01*
X024741Y014716D02*
X024191Y015266D01*
X021816Y015266D01*
X021466Y015566D01*
X021834Y015586D02*
X033766Y015586D01*
X033766Y015488D02*
X021895Y015488D01*
X021834Y015685D02*
X022701Y015685D01*
X023080Y015685D02*
X033766Y015685D01*
X033766Y015783D02*
X028733Y015783D01*
X028832Y015882D02*
X033766Y015882D01*
X033766Y015980D02*
X032651Y015980D01*
X032749Y016079D02*
X033766Y016079D01*
X033766Y016177D02*
X032784Y016177D01*
X032784Y016276D02*
X033766Y016276D01*
X033766Y016374D02*
X032784Y016374D01*
X032729Y016473D02*
X033766Y016473D01*
X033766Y016571D02*
X032631Y016571D01*
X032365Y016670D02*
X033766Y016670D01*
X033766Y016768D02*
X032267Y016768D01*
X032168Y016867D02*
X033766Y016867D01*
X033766Y016965D02*
X032070Y016965D01*
X031956Y017064D02*
X033766Y017064D01*
X033766Y017162D02*
X023090Y017162D01*
X023142Y016571D02*
X028122Y016571D01*
X028023Y016473D02*
X024979Y016473D01*
X025078Y016374D02*
X027946Y016374D01*
X027946Y016276D02*
X025134Y016276D01*
X025134Y016177D02*
X027946Y016177D01*
X027946Y016079D02*
X025134Y016079D01*
X025101Y015980D02*
X027952Y015980D01*
X028050Y015882D02*
X025002Y015882D01*
X024454Y016374D02*
X023053Y016374D01*
X023043Y016473D02*
X024552Y016473D01*
X024378Y015389D02*
X033766Y015389D01*
X033766Y015291D02*
X024477Y015291D01*
X024575Y015192D02*
X033766Y015192D01*
X033766Y015094D02*
X030833Y015094D01*
X030743Y015184D02*
X030438Y015184D01*
X030223Y014968D01*
X030223Y014663D01*
X030438Y014448D01*
X030473Y014448D01*
X030848Y014073D01*
X030848Y013863D01*
X031063Y013648D01*
X031368Y013648D01*
X031584Y013863D01*
X031584Y014168D01*
X031368Y014384D01*
X031159Y014384D01*
X030919Y014624D01*
X030959Y014663D01*
X030959Y014968D01*
X030743Y015184D01*
X030932Y014995D02*
X033766Y014995D01*
X033766Y014897D02*
X030959Y014897D01*
X030959Y014798D02*
X033766Y014798D01*
X033766Y014700D02*
X030959Y014700D01*
X030941Y014601D02*
X033766Y014601D01*
X033766Y014503D02*
X031040Y014503D01*
X031138Y014404D02*
X033766Y014404D01*
X033766Y014306D02*
X031446Y014306D01*
X031545Y014207D02*
X033766Y014207D01*
X033766Y014109D02*
X031584Y014109D01*
X031584Y014010D02*
X033766Y014010D01*
X033766Y013912D02*
X031584Y013912D01*
X031534Y013813D02*
X033766Y013813D01*
X033766Y013715D02*
X031435Y013715D01*
X031216Y014016D02*
X030591Y014641D01*
X030591Y014816D01*
X030223Y014798D02*
X025109Y014798D01*
X025109Y014700D02*
X030223Y014700D01*
X030285Y014601D02*
X025109Y014601D01*
X025048Y014503D02*
X030383Y014503D01*
X030516Y014404D02*
X024950Y014404D01*
X025080Y014897D02*
X030223Y014897D01*
X030250Y014995D02*
X024982Y014995D01*
X024674Y015094D02*
X030348Y015094D01*
X030615Y014306D02*
X028262Y014306D01*
X028360Y014207D02*
X030713Y014207D01*
X030812Y014109D02*
X028668Y014109D01*
X028767Y014010D02*
X030848Y014010D01*
X030848Y013912D02*
X028834Y013912D01*
X028834Y013813D02*
X030898Y013813D01*
X030996Y013715D02*
X028834Y013715D01*
X028812Y013616D02*
X033766Y013616D01*
X033766Y013518D02*
X028713Y013518D01*
X028466Y013791D02*
X028166Y014091D01*
X024316Y014091D01*
X023666Y014741D01*
X013641Y014741D01*
X013566Y014816D01*
X013198Y014798D02*
X012734Y014798D01*
X012734Y014897D02*
X013198Y014897D01*
X013225Y014995D02*
X012734Y014995D01*
X012733Y015094D02*
X013323Y015094D01*
X013198Y014700D02*
X012645Y014700D01*
X012586Y014601D02*
X013260Y014601D01*
X013358Y014503D02*
X012586Y014503D01*
X012586Y014404D02*
X015464Y014404D01*
X015385Y014306D02*
X012921Y014306D01*
X013020Y014207D02*
X015287Y014207D01*
X015273Y014109D02*
X013109Y014109D01*
X013109Y014010D02*
X015273Y014010D01*
X015273Y013912D02*
X013109Y013912D01*
X013204Y013813D02*
X015348Y013813D01*
X015416Y013715D02*
X013303Y013715D01*
X013401Y013616D02*
X015425Y013616D01*
X015853Y013518D02*
X013500Y013518D01*
X013598Y013419D02*
X015951Y013419D01*
X016050Y013321D02*
X013697Y013321D01*
X013795Y013222D02*
X016148Y013222D01*
X016247Y013124D02*
X013894Y013124D01*
X013992Y013025D02*
X016345Y013025D01*
X016444Y012927D02*
X014091Y012927D01*
X014189Y012828D02*
X016542Y012828D01*
X016641Y012730D02*
X014288Y012730D01*
X014386Y012631D02*
X020348Y012631D01*
X020491Y012941D02*
X016741Y012941D01*
X015641Y014041D01*
X015691Y013991D01*
X015842Y013991D01*
X016475Y013518D02*
X019393Y013518D01*
X019298Y013613D02*
X019513Y013398D01*
X019818Y013398D01*
X020034Y013613D01*
X020034Y013766D01*
X020970Y013766D01*
X021088Y013648D01*
X021393Y013648D01*
X021511Y013766D01*
X023120Y013766D01*
X023145Y013741D01*
X023023Y013618D01*
X023023Y013313D01*
X023238Y013098D01*
X023543Y013098D01*
X023661Y013216D01*
X027662Y013216D01*
X028954Y011924D01*
X029024Y011854D01*
X029038Y011848D01*
X029188Y011698D01*
X029493Y011698D01*
X029709Y011913D01*
X029709Y012218D01*
X029493Y012434D01*
X029188Y012434D01*
X029170Y012416D01*
X027907Y013678D01*
X027816Y013716D01*
X023661Y013716D01*
X023636Y013741D01*
X023759Y013863D01*
X023759Y014168D01*
X023543Y014384D01*
X023238Y014384D01*
X023120Y014266D01*
X021511Y014266D01*
X021393Y014384D01*
X021088Y014384D01*
X020970Y014266D01*
X019866Y014266D01*
X019774Y014228D01*
X019680Y014134D01*
X019513Y014134D01*
X019298Y013918D01*
X019298Y013613D01*
X019298Y013616D02*
X017007Y013616D01*
X017035Y013715D02*
X017871Y013715D01*
X018091Y014016D02*
X016816Y014016D01*
X016791Y013991D01*
X016590Y013991D01*
X017046Y014306D02*
X017860Y014306D01*
X018321Y014306D02*
X021010Y014306D01*
X021471Y014306D02*
X023160Y014306D01*
X023119Y013715D02*
X021460Y013715D01*
X021021Y013715D02*
X020034Y013715D01*
X020034Y013616D02*
X023023Y013616D01*
X023023Y013518D02*
X019938Y013518D01*
X019840Y013419D02*
X023023Y013419D01*
X023023Y013321D02*
X016672Y013321D01*
X016770Y013222D02*
X023114Y013222D01*
X023212Y013124D02*
X022128Y013124D01*
X022227Y013025D02*
X027853Y013025D01*
X027951Y012927D02*
X022259Y012927D01*
X022259Y012828D02*
X028050Y012828D01*
X028148Y012730D02*
X022259Y012730D01*
X022202Y012631D02*
X028247Y012631D01*
X028345Y012533D02*
X023094Y012533D01*
X022687Y012533D02*
X022103Y012533D01*
X021795Y012434D02*
X022589Y012434D01*
X022523Y012336D02*
X021697Y012336D01*
X021391Y012341D02*
X021891Y012841D01*
X021523Y012828D02*
X021084Y012828D01*
X021084Y012730D02*
X021469Y012730D01*
X021370Y012631D02*
X021084Y012631D01*
X021025Y012927D02*
X021523Y012927D01*
X021555Y013025D02*
X020927Y013025D01*
X020619Y013124D02*
X021653Y013124D01*
X021391Y012341D02*
X014366Y012341D01*
X012741Y013966D01*
X012878Y013518D02*
X012586Y013518D01*
X012586Y013419D02*
X012976Y013419D01*
X013075Y013321D02*
X012586Y013321D01*
X012586Y013222D02*
X013173Y013222D01*
X013272Y013124D02*
X012586Y013124D01*
X012586Y013025D02*
X013370Y013025D01*
X013469Y012927D02*
X012586Y012927D01*
X012586Y012828D02*
X013567Y012828D01*
X013666Y012730D02*
X012586Y012730D01*
X012586Y012631D02*
X013764Y012631D01*
X013863Y012533D02*
X012586Y012533D01*
X012586Y012434D02*
X013961Y012434D01*
X014060Y012336D02*
X012586Y012336D01*
X012586Y012237D02*
X014158Y012237D01*
X014257Y012139D02*
X012586Y012139D01*
X012586Y012040D02*
X018423Y012040D01*
X018423Y011942D02*
X012586Y011942D01*
X012586Y011843D02*
X018423Y011843D01*
X018491Y011745D02*
X012586Y011745D01*
X012586Y011646D02*
X018590Y011646D01*
X018992Y011646D02*
X020698Y011646D01*
X020698Y011548D02*
X012586Y011548D01*
X012535Y011449D02*
X015754Y011449D01*
X015655Y011351D02*
X012437Y011351D01*
X012338Y011252D02*
X015598Y011252D01*
X015598Y011154D02*
X012240Y011154D01*
X012141Y011055D02*
X015598Y011055D01*
X015629Y010957D02*
X012043Y010957D01*
X011944Y010858D02*
X015728Y010858D01*
X016204Y010858D02*
X019024Y010858D01*
X019123Y010760D02*
X018883Y010760D01*
X018853Y010790D02*
X018467Y010790D01*
X018193Y010516D01*
X018193Y010129D01*
X018467Y009856D01*
X018853Y009856D01*
X019127Y010129D01*
X019127Y010516D01*
X018853Y010790D01*
X018982Y010661D02*
X019221Y010661D01*
X019240Y010563D02*
X019080Y010563D01*
X019127Y010464D02*
X019193Y010464D01*
X019193Y010366D02*
X019127Y010366D01*
X019127Y010267D02*
X019193Y010267D01*
X019193Y010169D02*
X019127Y010169D01*
X019068Y010070D02*
X019252Y010070D01*
X019351Y009972D02*
X018969Y009972D01*
X018871Y009873D02*
X019449Y009873D01*
X019452Y009775D02*
X018868Y009775D01*
X018853Y009790D02*
X018467Y009790D01*
X018193Y009516D01*
X018193Y009129D01*
X018467Y008856D01*
X018853Y008856D01*
X019127Y009129D01*
X019127Y009516D01*
X018853Y009790D01*
X018967Y009676D02*
X019353Y009676D01*
X019255Y009578D02*
X019065Y009578D01*
X019127Y009479D02*
X019193Y009479D01*
X019193Y009381D02*
X019127Y009381D01*
X019127Y009282D02*
X019193Y009282D01*
X019193Y009184D02*
X019127Y009184D01*
X019099Y009085D02*
X019083Y009085D01*
X019001Y008987D02*
X018984Y008987D01*
X018902Y008888D02*
X018886Y008888D01*
X018804Y008790D02*
X016438Y008790D01*
X016504Y008856D02*
X016269Y008621D01*
X011084Y008621D01*
X011084Y008513D01*
X010868Y008298D01*
X010563Y008298D01*
X010348Y008513D01*
X010348Y008818D01*
X010563Y009034D01*
X010773Y009034D01*
X010800Y009061D01*
X016087Y009061D01*
X016193Y009167D01*
X016193Y009690D01*
X016293Y009790D01*
X017027Y009790D01*
X017127Y009690D01*
X017127Y008956D01*
X017027Y008856D01*
X016504Y008856D01*
X016340Y008691D02*
X018705Y008691D01*
X018607Y008593D02*
X011534Y008593D01*
X011633Y008494D02*
X018508Y008494D01*
X018566Y008241D02*
X011366Y008241D01*
X011099Y008494D02*
X011065Y008494D01*
X011084Y008593D02*
X011197Y008593D01*
X011000Y008396D02*
X010966Y008396D01*
X010998Y008297D02*
X008785Y008297D01*
X008785Y008199D02*
X009566Y008199D01*
X009364Y008100D02*
X008785Y008100D01*
X008785Y008002D02*
X009205Y008002D01*
X009107Y007903D02*
X008785Y007903D01*
X008785Y007805D02*
X009008Y007805D01*
X008943Y007706D02*
X008785Y007706D01*
X008785Y007608D02*
X008886Y007608D01*
X008829Y007509D02*
X008785Y007509D01*
X008785Y007411D02*
X008800Y007411D01*
X008785Y008396D02*
X010465Y008396D01*
X010367Y008494D02*
X008785Y008494D01*
X008785Y008593D02*
X010348Y008593D01*
X010348Y008691D02*
X008785Y008691D01*
X008785Y008790D02*
X010348Y008790D01*
X010418Y008888D02*
X008785Y008888D01*
X008785Y008987D02*
X010516Y008987D01*
X010716Y008666D02*
X010891Y008841D01*
X016178Y008841D01*
X016660Y009323D01*
X017127Y009282D02*
X017193Y009282D01*
X017193Y009184D02*
X017127Y009184D01*
X017193Y009129D02*
X017467Y008856D01*
X017853Y008856D01*
X018127Y009129D01*
X018127Y009516D01*
X017853Y009790D01*
X017467Y009790D01*
X017193Y009516D01*
X017193Y009129D01*
X017237Y009085D02*
X017127Y009085D01*
X017127Y008987D02*
X017336Y008987D01*
X017434Y008888D02*
X017060Y008888D01*
X017127Y009381D02*
X017193Y009381D01*
X017193Y009479D02*
X017127Y009479D01*
X017127Y009578D02*
X017255Y009578D01*
X017353Y009676D02*
X017127Y009676D01*
X017042Y009775D02*
X017452Y009775D01*
X017467Y009856D02*
X017853Y009856D01*
X018127Y010129D01*
X018127Y010516D01*
X017853Y010790D01*
X017467Y010790D01*
X017193Y010516D01*
X017193Y010129D01*
X017467Y009856D01*
X017449Y009873D02*
X016871Y009873D01*
X016853Y009856D02*
X017127Y010129D01*
X017127Y010516D01*
X016853Y010790D01*
X016467Y010790D01*
X016193Y010516D01*
X016193Y010497D01*
X015687Y009991D01*
X009911Y009991D01*
X009793Y010109D01*
X009488Y010109D01*
X009273Y009893D01*
X009273Y009588D01*
X009488Y009373D01*
X009793Y009373D01*
X009911Y009491D01*
X015841Y009491D01*
X015932Y009529D01*
X016003Y009599D01*
X016003Y009599D01*
X016363Y009960D01*
X016467Y009856D01*
X016853Y009856D01*
X016969Y009972D02*
X017351Y009972D01*
X017252Y010070D02*
X017068Y010070D01*
X017127Y010169D02*
X017193Y010169D01*
X017193Y010267D02*
X017127Y010267D01*
X017127Y010366D02*
X017193Y010366D01*
X017193Y010464D02*
X017127Y010464D01*
X017080Y010563D02*
X017240Y010563D01*
X017338Y010661D02*
X016982Y010661D01*
X016883Y010760D02*
X017437Y010760D01*
X017883Y010760D02*
X018437Y010760D01*
X018338Y010661D02*
X017982Y010661D01*
X018080Y010563D02*
X018240Y010563D01*
X018193Y010464D02*
X018127Y010464D01*
X018127Y010366D02*
X018193Y010366D01*
X018193Y010267D02*
X018127Y010267D01*
X018127Y010169D02*
X018193Y010169D01*
X018252Y010070D02*
X018068Y010070D01*
X017969Y009972D02*
X018351Y009972D01*
X018449Y009873D02*
X017871Y009873D01*
X017868Y009775D02*
X018452Y009775D01*
X018353Y009676D02*
X017967Y009676D01*
X018065Y009578D02*
X018255Y009578D01*
X018193Y009479D02*
X018127Y009479D01*
X018127Y009381D02*
X018193Y009381D01*
X018193Y009282D02*
X018127Y009282D01*
X018127Y009184D02*
X018193Y009184D01*
X018237Y009085D02*
X018083Y009085D01*
X017984Y008987D02*
X018336Y008987D01*
X018434Y008888D02*
X017886Y008888D01*
X018566Y008241D02*
X019641Y009316D01*
X019984Y008987D02*
X020336Y008987D01*
X020434Y008888D02*
X019886Y008888D01*
X020083Y009085D02*
X020237Y009085D01*
X020193Y009184D02*
X020127Y009184D01*
X020127Y009282D02*
X020193Y009282D01*
X020193Y009381D02*
X020127Y009381D01*
X020127Y009479D02*
X020193Y009479D01*
X020255Y009578D02*
X020065Y009578D01*
X019967Y009676D02*
X020353Y009676D01*
X020213Y010464D02*
X020127Y010464D01*
X020080Y010563D02*
X020268Y010563D01*
X020367Y010661D02*
X019982Y010661D01*
X019883Y010760D02*
X020465Y010760D01*
X020611Y010760D02*
X020708Y010760D01*
X020708Y010661D02*
X020611Y010661D01*
X020611Y010563D02*
X020708Y010563D01*
X020708Y010464D02*
X020611Y010464D01*
X020855Y010760D02*
X020946Y010760D01*
X020946Y010858D02*
X019675Y010858D01*
X019576Y010957D02*
X020946Y010957D01*
X020946Y011055D02*
X019478Y011055D01*
X019379Y011154D02*
X020946Y011154D01*
X020909Y011252D02*
X019281Y011252D01*
X019182Y011351D02*
X020810Y011351D01*
X020712Y011449D02*
X016178Y011449D01*
X016437Y010760D02*
X011846Y010760D01*
X011747Y010661D02*
X016338Y010661D01*
X016240Y010563D02*
X011649Y010563D01*
X011550Y010464D02*
X016161Y010464D01*
X016062Y010366D02*
X011452Y010366D01*
X011353Y010267D02*
X015964Y010267D01*
X015865Y010169D02*
X011255Y010169D01*
X011141Y010366D02*
X012366Y011591D01*
X012366Y014941D01*
X012086Y014700D02*
X011995Y014700D01*
X012146Y014601D02*
X011766Y014601D01*
X011686Y014700D02*
X011668Y014700D01*
X011588Y014798D02*
X011569Y014798D01*
X011489Y014897D02*
X011471Y014897D01*
X011473Y014995D02*
X011411Y014995D01*
X011411Y015094D02*
X011473Y015094D01*
X011473Y015192D02*
X011411Y015192D01*
X011411Y015291D02*
X011545Y015291D01*
X011644Y015389D02*
X011411Y015389D01*
X011411Y015488D02*
X011598Y015488D01*
X011598Y015586D02*
X011411Y015586D01*
X011411Y015685D02*
X011598Y015685D01*
X011638Y015783D02*
X011411Y015783D01*
X011652Y015882D02*
X011736Y015882D01*
X011751Y015980D02*
X011998Y015980D01*
X011998Y016079D02*
X011784Y016079D01*
X011784Y016177D02*
X012082Y016177D01*
X012180Y016276D02*
X011837Y016276D01*
X011935Y016374D02*
X013671Y016374D01*
X013671Y016473D02*
X012034Y016473D01*
X012132Y016571D02*
X013671Y016571D01*
X013671Y016670D02*
X012231Y016670D01*
X012329Y016768D02*
X013671Y016768D01*
X013671Y016867D02*
X012428Y016867D01*
X012526Y016965D02*
X013671Y016965D01*
X013671Y017064D02*
X012586Y017064D01*
X012586Y017162D02*
X013671Y017162D01*
X013671Y017261D02*
X012586Y017261D01*
X012586Y017359D02*
X013671Y017359D01*
X013671Y017458D02*
X012586Y017458D01*
X012586Y017556D02*
X013671Y017556D01*
X013671Y017655D02*
X012586Y017655D01*
X012586Y017753D02*
X013671Y017753D01*
X013671Y017852D02*
X012586Y017852D01*
X012586Y017950D02*
X013671Y017950D01*
X013671Y018049D02*
X012586Y018049D01*
X012586Y018147D02*
X013671Y018147D01*
X013671Y018246D02*
X012641Y018246D01*
X012734Y018344D02*
X013671Y018344D01*
X013598Y018443D02*
X012734Y018443D01*
X012734Y018541D02*
X013598Y018541D01*
X013598Y018640D02*
X012734Y018640D01*
X012639Y018738D02*
X013598Y018738D01*
X013691Y018837D02*
X012540Y018837D01*
X012191Y018837D02*
X011332Y018837D01*
X011431Y018935D02*
X013790Y018935D01*
X014142Y018935D02*
X014674Y018935D01*
X014674Y018837D02*
X014240Y018837D01*
X014334Y018738D02*
X014674Y018738D01*
X014674Y018640D02*
X014334Y018640D01*
X014334Y018541D02*
X014755Y018541D01*
X014854Y018443D02*
X014334Y018443D01*
X014240Y018344D02*
X017483Y018344D01*
X017471Y018332D02*
X017471Y018332D01*
X017385Y018246D02*
X016371Y018246D01*
X016470Y018147D02*
X017286Y018147D01*
X017188Y018049D02*
X016568Y018049D01*
X016428Y018443D02*
X017582Y018443D01*
X017691Y018241D02*
X017266Y017816D01*
X016141Y017816D01*
X015812Y018147D02*
X015470Y018147D01*
X015568Y018049D02*
X015714Y018049D01*
X015674Y017950D02*
X015608Y017950D01*
X015608Y018009D02*
X015334Y018283D01*
X014947Y018283D01*
X014674Y018009D01*
X014674Y017623D01*
X014947Y017349D01*
X015334Y017349D01*
X015608Y017623D01*
X015608Y018009D01*
X015608Y017852D02*
X015674Y017852D01*
X015674Y017753D02*
X015608Y017753D01*
X015608Y017655D02*
X015674Y017655D01*
X015740Y017556D02*
X015542Y017556D01*
X015443Y017458D02*
X015839Y017458D01*
X015937Y017359D02*
X015345Y017359D01*
X015328Y017261D02*
X015954Y017261D01*
X015956Y017263D02*
X015694Y017001D01*
X015694Y016864D01*
X016092Y016864D01*
X016092Y017263D01*
X015956Y017263D01*
X016092Y017261D02*
X016189Y017261D01*
X015855Y017162D02*
X015426Y017162D01*
X015525Y017064D02*
X015757Y017064D01*
X015694Y016965D02*
X015588Y016965D01*
X015588Y016867D02*
X015694Y016867D01*
X015694Y016768D02*
X015694Y016631D01*
X015956Y016369D01*
X016092Y016369D01*
X016092Y016768D01*
X015694Y016768D01*
X015694Y016670D02*
X015588Y016670D01*
X015588Y016631D02*
X015588Y016768D01*
X015189Y016768D01*
X015189Y016369D01*
X015326Y016369D01*
X015588Y016631D01*
X015528Y016571D02*
X015753Y016571D01*
X015852Y016473D02*
X015430Y016473D01*
X015331Y016374D02*
X015950Y016374D01*
X015941Y016276D02*
X015341Y016276D01*
X015440Y016177D02*
X015842Y016177D01*
X015744Y016079D02*
X015538Y016079D01*
X015189Y016374D02*
X015092Y016374D01*
X015092Y016473D02*
X015189Y016473D01*
X015189Y016571D02*
X015092Y016571D01*
X015092Y016670D02*
X015189Y016670D01*
X015189Y016768D02*
X015092Y016768D01*
X015092Y016864D02*
X014694Y016864D01*
X014694Y017001D01*
X014956Y017263D01*
X015092Y017263D01*
X015092Y016864D01*
X015092Y016867D02*
X015189Y016867D01*
X015189Y016965D02*
X015092Y016965D01*
X015092Y017064D02*
X015189Y017064D01*
X015189Y017162D02*
X015092Y017162D01*
X015092Y017261D02*
X015189Y017261D01*
X014954Y017261D02*
X014111Y017261D01*
X014111Y017359D02*
X014937Y017359D01*
X014839Y017458D02*
X014111Y017458D01*
X014111Y017556D02*
X014740Y017556D01*
X014674Y017655D02*
X014111Y017655D01*
X014111Y017753D02*
X014674Y017753D01*
X014674Y017852D02*
X014111Y017852D01*
X014111Y017950D02*
X014674Y017950D01*
X014714Y018049D02*
X014111Y018049D01*
X014111Y018147D02*
X014812Y018147D01*
X014911Y018246D02*
X014141Y018246D01*
X014416Y018316D02*
X014416Y017541D01*
X014111Y017162D02*
X014855Y017162D01*
X014757Y017064D02*
X014111Y017064D01*
X014111Y016965D02*
X014694Y016965D01*
X014694Y016867D02*
X014111Y016867D01*
X013655Y016276D02*
X012551Y016276D01*
X012650Y016177D02*
X013557Y016177D01*
X013841Y015941D02*
X013891Y015991D01*
X013891Y018516D01*
X013966Y018591D01*
X014059Y019723D02*
X014198Y019723D01*
X014198Y019822D02*
X014059Y019822D01*
X014059Y019920D02*
X014198Y019920D01*
X014273Y020019D02*
X013983Y020019D01*
X013903Y020117D02*
X014372Y020117D01*
X014566Y019791D02*
X015566Y019791D01*
X015273Y020019D02*
X014858Y020019D01*
X014760Y020117D02*
X015372Y020117D01*
X015934Y019920D02*
X015934Y019920D01*
X016064Y019428D02*
X019333Y019428D01*
X019798Y019428D02*
X025081Y019428D01*
X025081Y019526D02*
X019897Y019526D01*
X019934Y019625D02*
X025081Y019625D01*
X025081Y019723D02*
X019934Y019723D01*
X019934Y019822D02*
X025081Y019822D01*
X025081Y019920D02*
X019882Y019920D01*
X019783Y020019D02*
X025081Y020019D01*
X025081Y020117D02*
X024938Y020117D01*
X025036Y020216D02*
X025081Y020216D01*
X025081Y020314D02*
X025059Y020314D01*
X025059Y020413D02*
X025081Y020413D01*
X025081Y020511D02*
X025059Y020511D01*
X025081Y020610D02*
X024992Y020610D01*
X025081Y020708D02*
X024894Y020708D01*
X025081Y021989D02*
X009486Y021989D01*
X009486Y022087D02*
X025081Y022087D01*
X025081Y022186D02*
X009486Y022186D01*
X009486Y022284D02*
X025081Y022284D01*
X025081Y022383D02*
X009486Y022383D01*
X009486Y022481D02*
X025081Y022481D01*
X025081Y022580D02*
X009486Y022580D01*
X009486Y022678D02*
X025081Y022678D01*
X025241Y018241D02*
X017691Y018241D01*
X016189Y016864D02*
X016189Y016768D01*
X016189Y016369D01*
X016326Y016369D01*
X016331Y016374D02*
X022729Y016374D01*
X022231Y017261D02*
X033766Y017261D01*
X032048Y016276D02*
X028936Y016276D01*
X028936Y016374D02*
X031954Y016374D01*
X031855Y016473D02*
X028859Y016473D01*
X028760Y016571D02*
X031757Y016571D01*
X032048Y016177D02*
X028936Y016177D01*
X028936Y016079D02*
X032082Y016079D01*
X032181Y015980D02*
X028930Y015980D01*
X028149Y015783D02*
X023179Y015783D01*
X023593Y014503D02*
X013773Y014503D01*
X014016Y015141D02*
X014016Y015166D01*
X013816Y015366D01*
X012266Y015366D01*
X011966Y015066D01*
X011841Y015066D01*
X011966Y015591D02*
X014916Y015591D01*
X015375Y015389D02*
X015907Y015389D01*
X015809Y015488D02*
X015473Y015488D01*
X015572Y015586D02*
X015710Y015586D01*
X016092Y016374D02*
X016189Y016374D01*
X016189Y016473D02*
X016092Y016473D01*
X016092Y016571D02*
X016189Y016571D01*
X016189Y016670D02*
X016092Y016670D01*
X016092Y016768D02*
X016189Y016768D01*
X015911Y018246D02*
X015371Y018246D01*
X015428Y018443D02*
X015854Y018443D01*
X015755Y018541D02*
X015527Y018541D01*
X015608Y018640D02*
X015674Y018640D01*
X015674Y018738D02*
X015608Y018738D01*
X015608Y018837D02*
X015674Y018837D01*
X015674Y018935D02*
X015608Y018935D01*
X015583Y019034D02*
X015699Y019034D01*
X015110Y021201D02*
X013512Y021201D01*
X013185Y021496D02*
X009486Y021496D01*
X009486Y021398D02*
X013087Y021398D01*
X012988Y021299D02*
X011078Y021299D01*
X011176Y021201D02*
X012890Y021201D01*
X012791Y021102D02*
X011209Y021102D01*
X011209Y021004D02*
X012693Y021004D01*
X012594Y020905D02*
X011262Y020905D01*
X011361Y020807D02*
X012496Y020807D01*
X012397Y020708D02*
X011459Y020708D01*
X011558Y020610D02*
X012299Y020610D01*
X012200Y020511D02*
X011656Y020511D01*
X011755Y020413D02*
X012146Y020413D01*
X012119Y020314D02*
X011853Y020314D01*
X011952Y020216D02*
X012020Y020216D01*
X012366Y020366D02*
X012366Y020041D01*
X012616Y019766D02*
X012516Y019666D01*
X012191Y019666D01*
X010841Y021016D01*
X010473Y021004D02*
X009486Y021004D01*
X009486Y021102D02*
X010473Y021102D01*
X010505Y021201D02*
X009486Y021201D01*
X009486Y021299D02*
X010604Y021299D01*
X010473Y020905D02*
X009486Y020905D01*
X009486Y020807D02*
X010529Y020807D01*
X010628Y020708D02*
X009486Y020708D01*
X009486Y020610D02*
X010936Y020610D01*
X011034Y020511D02*
X009486Y020511D01*
X009486Y020413D02*
X011133Y020413D01*
X011231Y020314D02*
X009486Y020314D01*
X009486Y020216D02*
X011330Y020216D01*
X011428Y020117D02*
X009486Y020117D01*
X009486Y020019D02*
X011398Y020019D01*
X012093Y018738D02*
X009486Y018738D01*
X009486Y018640D02*
X011998Y018640D01*
X011998Y018541D02*
X009486Y018541D01*
X009486Y018443D02*
X011998Y018443D01*
X011998Y018344D02*
X009486Y018344D01*
X009486Y018246D02*
X012090Y018246D01*
X012146Y018147D02*
X009486Y018147D01*
X009486Y018049D02*
X012146Y018049D01*
X012146Y017950D02*
X009486Y017950D01*
X009486Y017852D02*
X012146Y017852D01*
X012146Y017753D02*
X009486Y017753D01*
X009486Y017655D02*
X012146Y017655D01*
X012146Y017556D02*
X009486Y017556D01*
X009486Y017458D02*
X012146Y017458D01*
X012146Y017359D02*
X009486Y017359D01*
X009486Y017261D02*
X012146Y017261D01*
X012101Y017162D02*
X009486Y017162D01*
X009486Y017064D02*
X012003Y017064D01*
X011904Y016965D02*
X009486Y016965D01*
X009486Y016867D02*
X011806Y016867D01*
X011707Y016768D02*
X011159Y016768D01*
X011257Y016670D02*
X011609Y016670D01*
X011510Y016571D02*
X011334Y016571D01*
X010966Y016441D02*
X010966Y014766D01*
X011916Y013816D01*
X011916Y011791D01*
X011291Y011166D01*
X011091Y011166D01*
X010723Y011154D02*
X008785Y011154D01*
X008785Y011252D02*
X010723Y011252D01*
X010755Y011351D02*
X008785Y011351D01*
X008785Y011449D02*
X010854Y011449D01*
X011362Y011548D02*
X008785Y011548D01*
X008785Y011646D02*
X011460Y011646D01*
X011341Y011745D02*
X008785Y011745D01*
X008785Y011055D02*
X010485Y011055D01*
X010386Y010957D02*
X008785Y010957D01*
X008785Y010858D02*
X010323Y010858D01*
X010323Y010760D02*
X008785Y010760D01*
X008785Y010661D02*
X010041Y010661D01*
X009942Y010563D02*
X008785Y010563D01*
X008785Y010464D02*
X009898Y010464D01*
X009898Y010366D02*
X008785Y010366D01*
X008785Y010267D02*
X009898Y010267D01*
X009942Y010169D02*
X008785Y010169D01*
X008785Y010070D02*
X009450Y010070D01*
X009351Y009972D02*
X008785Y009972D01*
X008785Y009873D02*
X009273Y009873D01*
X009273Y009775D02*
X008785Y009775D01*
X008785Y009676D02*
X009273Y009676D01*
X009283Y009578D02*
X008785Y009578D01*
X008785Y009479D02*
X009382Y009479D01*
X009480Y009381D02*
X008785Y009381D01*
X008785Y009282D02*
X016193Y009282D01*
X016193Y009184D02*
X008785Y009184D01*
X008785Y009085D02*
X016111Y009085D01*
X016193Y009381D02*
X009801Y009381D01*
X009900Y009479D02*
X016193Y009479D01*
X016193Y009578D02*
X015981Y009578D01*
X016080Y009676D02*
X016193Y009676D01*
X016178Y009775D02*
X016278Y009775D01*
X016277Y009873D02*
X016449Y009873D01*
X015767Y010070D02*
X010491Y010070D01*
X010266Y010366D02*
X011141Y010366D01*
X011191Y010741D02*
X012141Y011691D01*
X012141Y013916D01*
X011191Y014866D01*
X011191Y015941D01*
X011416Y016166D01*
X012366Y017116D01*
X012366Y018491D01*
X012616Y019766D02*
X013666Y019766D01*
X013691Y019791D01*
X013246Y021557D02*
X013246Y021557D01*
X013915Y024353D02*
X020798Y024353D01*
X020798Y024254D02*
X018138Y024254D01*
X018237Y024156D02*
X020798Y024156D01*
X020881Y024451D02*
X013816Y024451D01*
X013718Y024550D02*
X020979Y024550D01*
X021277Y021398D02*
X017054Y021398D01*
X017153Y021299D02*
X021179Y021299D01*
X021098Y021201D02*
X017184Y021201D01*
X015254Y025732D02*
X010793Y025732D01*
X010596Y025535D02*
X011127Y025535D01*
X011364Y024944D02*
X012698Y024944D01*
X012698Y024845D02*
X011266Y024845D01*
X010247Y023368D02*
X009486Y023368D01*
X009486Y023269D02*
X010149Y023269D01*
X010098Y023171D02*
X009486Y023171D01*
X009486Y023072D02*
X010098Y023072D01*
X010098Y022974D02*
X009486Y022974D01*
X009486Y022875D02*
X010136Y022875D01*
X010234Y022777D02*
X009486Y022777D01*
X009486Y016768D02*
X010773Y016768D01*
X010674Y016670D02*
X009486Y016670D01*
X009486Y016571D02*
X010598Y016571D01*
X010598Y016473D02*
X009486Y016473D01*
X009486Y016374D02*
X010598Y016374D01*
X010610Y016276D02*
X009486Y016276D01*
X009486Y016177D02*
X010709Y016177D01*
X010746Y016079D02*
X009486Y016079D01*
X009486Y015980D02*
X010746Y015980D01*
X010746Y015882D02*
X009486Y015882D01*
X009486Y015783D02*
X010746Y015783D01*
X010746Y015685D02*
X009486Y015685D01*
X009486Y015586D02*
X010746Y015586D01*
X010746Y015488D02*
X009486Y015488D01*
X009486Y015389D02*
X010746Y015389D01*
X010746Y015291D02*
X009486Y015291D01*
X009486Y015192D02*
X010746Y015192D01*
X010746Y015094D02*
X009486Y015094D01*
X009486Y014995D02*
X010746Y014995D01*
X010746Y014897D02*
X009486Y014897D01*
X009486Y014798D02*
X010746Y014798D01*
X010746Y014700D02*
X009486Y014700D01*
X009486Y014601D02*
X010819Y014601D01*
X010918Y014503D02*
X009486Y014503D01*
X009486Y014404D02*
X011016Y014404D01*
X011115Y014306D02*
X009537Y014306D01*
X009635Y014207D02*
X011213Y014207D01*
X011312Y014109D02*
X009734Y014109D01*
X009832Y014010D02*
X011410Y014010D01*
X011509Y013912D02*
X009931Y013912D01*
X010029Y013813D02*
X011607Y013813D01*
X011696Y013715D02*
X010128Y013715D01*
X010226Y013616D02*
X011696Y013616D01*
X011696Y013518D02*
X010325Y013518D01*
X010423Y013419D02*
X011696Y013419D01*
X011696Y013321D02*
X010522Y013321D01*
X010620Y013222D02*
X011696Y013222D01*
X011696Y013124D02*
X010719Y013124D01*
X010817Y013025D02*
X011696Y013025D01*
X011696Y012927D02*
X010916Y012927D01*
X011014Y012828D02*
X011696Y012828D01*
X011696Y012730D02*
X011113Y012730D01*
X011211Y012631D02*
X011696Y012631D01*
X011696Y012533D02*
X011310Y012533D01*
X011408Y012434D02*
X011696Y012434D01*
X011541Y012066D02*
X011466Y012066D01*
X011191Y010741D02*
X010691Y010741D01*
X010041Y010070D02*
X009832Y010070D01*
X010415Y008199D02*
X010998Y008199D01*
X010998Y008100D02*
X010617Y008100D01*
X010776Y008002D02*
X011084Y008002D01*
X011183Y007903D02*
X010874Y007903D01*
X010973Y007805D02*
X024926Y007805D01*
X025024Y007706D02*
X011038Y007706D01*
X011095Y007608D02*
X025123Y007608D01*
X025221Y007509D02*
X011152Y007509D01*
X011182Y007411D02*
X025320Y007411D01*
X024827Y007903D02*
X011549Y007903D01*
X011647Y008002D02*
X024729Y008002D01*
X024630Y008100D02*
X018736Y008100D01*
X018786Y008150D02*
X018786Y008150D01*
X018835Y008199D02*
X024532Y008199D01*
X024433Y008297D02*
X018933Y008297D01*
X019032Y008396D02*
X024365Y008396D01*
X024324Y008494D02*
X019130Y008494D01*
X019229Y008593D02*
X024283Y008593D01*
X024246Y008691D02*
X019327Y008691D01*
X019426Y008790D02*
X024246Y008790D01*
X024246Y008888D02*
X023886Y008888D01*
X023853Y008856D02*
X024127Y009129D01*
X024127Y009516D01*
X023853Y009790D01*
X023467Y009790D01*
X023193Y009516D01*
X023193Y009129D01*
X023467Y008856D01*
X023853Y008856D01*
X023984Y008987D02*
X024196Y008987D01*
X024196Y009085D02*
X024083Y009085D01*
X024127Y009184D02*
X024193Y009184D01*
X024193Y009282D02*
X024127Y009282D01*
X024127Y009381D02*
X024193Y009381D01*
X024193Y009479D02*
X024127Y009479D01*
X024065Y009578D02*
X024196Y009578D01*
X024196Y009676D02*
X023967Y009676D01*
X023868Y009775D02*
X024196Y009775D01*
X024196Y009873D02*
X021469Y009873D01*
X021611Y009972D02*
X021708Y009972D01*
X021708Y010070D02*
X021611Y010070D01*
X021611Y010169D02*
X021708Y010169D01*
X021708Y010267D02*
X021611Y010267D01*
X021708Y010366D02*
X022611Y010366D01*
X022611Y010371D02*
X022611Y010274D01*
X022213Y010274D01*
X022213Y010138D01*
X022475Y009876D01*
X022611Y009876D01*
X022611Y010274D01*
X022708Y010274D01*
X022708Y009876D01*
X022845Y009876D01*
X023107Y010138D01*
X023107Y010274D01*
X022708Y010274D01*
X022708Y010371D01*
X022611Y010371D01*
X022213Y010371D01*
X022213Y010508D01*
X022475Y010770D01*
X022611Y010770D01*
X022611Y010371D01*
X022611Y010464D02*
X022708Y010464D01*
X022708Y010371D02*
X022708Y010770D01*
X022845Y010770D01*
X023107Y010508D01*
X023107Y010371D01*
X022708Y010371D01*
X022708Y010366D02*
X023611Y010366D01*
X023611Y010371D02*
X023611Y010274D01*
X023213Y010274D01*
X023213Y010138D01*
X023475Y009876D01*
X023611Y009876D01*
X023611Y010274D01*
X023708Y010274D01*
X023708Y009876D01*
X023845Y009876D01*
X024107Y010138D01*
X024107Y010274D01*
X023708Y010274D01*
X023708Y010371D01*
X023611Y010371D01*
X023213Y010371D01*
X023213Y010508D01*
X023475Y010770D01*
X023611Y010770D01*
X023611Y010371D01*
X023611Y010464D02*
X023708Y010464D01*
X023708Y010371D02*
X023708Y010770D01*
X023845Y010770D01*
X024107Y010508D01*
X024107Y010371D01*
X023708Y010371D01*
X023708Y010366D02*
X024193Y010366D01*
X024193Y010464D02*
X024107Y010464D01*
X024052Y010563D02*
X024196Y010563D01*
X024200Y010661D02*
X023953Y010661D01*
X023855Y010760D02*
X024299Y010760D01*
X024416Y010566D02*
X025916Y010566D01*
X025916Y009066D01*
X024416Y009066D01*
X024416Y010566D01*
X024416Y010563D02*
X025916Y010563D01*
X025916Y010464D02*
X024416Y010464D01*
X024416Y010366D02*
X025916Y010366D01*
X025916Y010267D02*
X024416Y010267D01*
X024416Y010169D02*
X025916Y010169D01*
X025916Y010070D02*
X024416Y010070D01*
X024416Y009972D02*
X025916Y009972D01*
X025916Y009873D02*
X024416Y009873D01*
X024416Y009775D02*
X025916Y009775D01*
X025916Y009676D02*
X024416Y009676D01*
X024416Y009578D02*
X025916Y009578D01*
X025916Y009479D02*
X024416Y009479D01*
X024416Y009381D02*
X025916Y009381D01*
X025916Y009282D02*
X024416Y009282D01*
X024416Y009184D02*
X025916Y009184D01*
X025916Y009085D02*
X024416Y009085D01*
X024196Y009972D02*
X023941Y009972D01*
X024039Y010070D02*
X024196Y010070D01*
X024193Y010169D02*
X024107Y010169D01*
X024107Y010267D02*
X024193Y010267D01*
X023708Y010267D02*
X023611Y010267D01*
X023611Y010169D02*
X023708Y010169D01*
X023708Y010070D02*
X023611Y010070D01*
X023611Y009972D02*
X023708Y009972D01*
X023452Y009775D02*
X022868Y009775D01*
X022853Y009790D02*
X022467Y009790D01*
X022193Y009516D01*
X022193Y009129D01*
X022467Y008856D01*
X022853Y008856D01*
X023127Y009129D01*
X023127Y009516D01*
X022853Y009790D01*
X022967Y009676D02*
X023353Y009676D01*
X023255Y009578D02*
X023065Y009578D01*
X023127Y009479D02*
X023193Y009479D01*
X023193Y009381D02*
X023127Y009381D01*
X023127Y009282D02*
X023193Y009282D01*
X023193Y009184D02*
X023127Y009184D01*
X023083Y009085D02*
X023237Y009085D01*
X023336Y008987D02*
X022984Y008987D01*
X022886Y008888D02*
X023434Y008888D01*
X022434Y008888D02*
X021886Y008888D01*
X021984Y008987D02*
X022336Y008987D01*
X022237Y009085D02*
X022083Y009085D01*
X022127Y009184D02*
X022193Y009184D01*
X022193Y009282D02*
X022127Y009282D01*
X022127Y009381D02*
X022193Y009381D01*
X022193Y009479D02*
X022127Y009479D01*
X022065Y009578D02*
X022255Y009578D01*
X022353Y009676D02*
X021967Y009676D01*
X021868Y009775D02*
X022452Y009775D01*
X022379Y009972D02*
X021941Y009972D01*
X022039Y010070D02*
X022280Y010070D01*
X022213Y010169D02*
X022107Y010169D01*
X022107Y010267D02*
X022213Y010267D01*
X022213Y010464D02*
X022107Y010464D01*
X022052Y010563D02*
X022268Y010563D01*
X022367Y010661D02*
X021953Y010661D01*
X021855Y010760D02*
X022465Y010760D01*
X022611Y010760D02*
X022708Y010760D01*
X022708Y010661D02*
X022611Y010661D01*
X022611Y010563D02*
X022708Y010563D01*
X022855Y010760D02*
X023465Y010760D01*
X023367Y010661D02*
X022953Y010661D01*
X023052Y010563D02*
X023268Y010563D01*
X023213Y010464D02*
X023107Y010464D01*
X023107Y010267D02*
X023213Y010267D01*
X023213Y010169D02*
X023107Y010169D01*
X023039Y010070D02*
X023280Y010070D01*
X023379Y009972D02*
X022941Y009972D01*
X022708Y009972D02*
X022611Y009972D01*
X022611Y010070D02*
X022708Y010070D01*
X022708Y010169D02*
X022611Y010169D01*
X022611Y010267D02*
X022708Y010267D01*
X021708Y010464D02*
X021611Y010464D01*
X021611Y010563D02*
X021708Y010563D01*
X021708Y010661D02*
X021611Y010661D01*
X021611Y010760D02*
X021708Y010760D01*
X021465Y010760D02*
X021386Y010760D01*
X021386Y010858D02*
X031782Y010858D01*
X031684Y010760D02*
X029033Y010760D01*
X028916Y010566D02*
X027416Y010566D01*
X027416Y009066D01*
X028916Y009066D01*
X028916Y010566D01*
X028916Y010563D02*
X027416Y010563D01*
X027416Y010464D02*
X028916Y010464D01*
X028916Y010366D02*
X027416Y010366D01*
X027416Y010267D02*
X028916Y010267D01*
X028916Y010169D02*
X027416Y010169D01*
X027416Y010070D02*
X028916Y010070D01*
X028916Y009972D02*
X027416Y009972D01*
X027416Y009873D02*
X028916Y009873D01*
X028916Y009775D02*
X027416Y009775D01*
X027416Y009676D02*
X028916Y009676D01*
X028916Y009578D02*
X027416Y009578D01*
X027416Y009479D02*
X028916Y009479D01*
X028916Y009381D02*
X027416Y009381D01*
X027416Y009282D02*
X028916Y009282D01*
X028916Y009184D02*
X027416Y009184D01*
X027416Y009085D02*
X028916Y009085D01*
X027196Y009085D02*
X027083Y009085D01*
X027127Y009184D02*
X027193Y009184D01*
X027193Y009282D02*
X027127Y009282D01*
X027127Y009381D02*
X027193Y009381D01*
X027193Y009479D02*
X027127Y009479D01*
X027065Y009578D02*
X027196Y009578D01*
X027196Y009676D02*
X026967Y009676D01*
X026868Y009775D02*
X027196Y009775D01*
X027196Y009873D02*
X026871Y009873D01*
X026853Y009856D02*
X027127Y010129D01*
X027127Y010516D01*
X026853Y010790D01*
X026467Y010790D01*
X026193Y010516D01*
X026193Y010129D01*
X026467Y009856D01*
X026853Y009856D01*
X026969Y009972D02*
X027196Y009972D01*
X027196Y010070D02*
X027068Y010070D01*
X027127Y010169D02*
X027193Y010169D01*
X027193Y010267D02*
X027127Y010267D01*
X027127Y010366D02*
X027193Y010366D01*
X027193Y010464D02*
X027127Y010464D01*
X027080Y010563D02*
X027196Y010563D01*
X027200Y010661D02*
X026982Y010661D01*
X026883Y010760D02*
X027299Y010760D01*
X026437Y010760D02*
X026033Y010760D01*
X026131Y010661D02*
X026338Y010661D01*
X026240Y010563D02*
X026136Y010563D01*
X026136Y010464D02*
X026193Y010464D01*
X026193Y010366D02*
X026136Y010366D01*
X026136Y010267D02*
X026193Y010267D01*
X026193Y010169D02*
X026136Y010169D01*
X026136Y010070D02*
X026252Y010070D01*
X026351Y009972D02*
X026136Y009972D01*
X026136Y009873D02*
X026449Y009873D01*
X026452Y009775D02*
X026136Y009775D01*
X026136Y009676D02*
X026353Y009676D01*
X026255Y009578D02*
X026136Y009578D01*
X026136Y009479D02*
X026193Y009479D01*
X026193Y009381D02*
X026136Y009381D01*
X026136Y009282D02*
X026193Y009282D01*
X026193Y009184D02*
X026149Y009184D01*
X026984Y008987D02*
X027196Y008987D01*
X025889Y011843D02*
X029043Y011843D01*
X029141Y011745D02*
X021434Y011745D01*
X021434Y011646D02*
X032570Y011646D01*
X032472Y011548D02*
X021434Y011548D01*
X021420Y011449D02*
X032373Y011449D01*
X032275Y011351D02*
X021386Y011351D01*
X021386Y011252D02*
X032176Y011252D01*
X032078Y011154D02*
X021386Y011154D01*
X021386Y011055D02*
X031979Y011055D01*
X031881Y010957D02*
X021386Y010957D01*
X021166Y011516D02*
X021166Y009866D01*
X021659Y009373D01*
X021660Y009373D01*
X021336Y008987D02*
X020984Y008987D01*
X020886Y008888D02*
X021434Y008888D01*
X021237Y009085D02*
X021083Y009085D01*
X021127Y009184D02*
X021193Y009184D01*
X021193Y009282D02*
X021127Y009282D01*
X021127Y009381D02*
X021193Y009381D01*
X021193Y009479D02*
X021127Y009479D01*
X021143Y009578D02*
X021065Y009578D01*
X021044Y009676D02*
X020967Y009676D01*
X021166Y011516D02*
X021066Y011616D01*
X020698Y011745D02*
X019090Y011745D01*
X019492Y013419D02*
X016573Y013419D01*
X016968Y014404D02*
X023691Y014404D01*
X023621Y014306D02*
X023790Y014306D01*
X023720Y014207D02*
X023888Y014207D01*
X023987Y014109D02*
X023759Y014109D01*
X023759Y014010D02*
X024085Y014010D01*
X024184Y013912D02*
X023759Y013912D01*
X023709Y013813D02*
X028098Y013813D01*
X028098Y013715D02*
X027818Y013715D01*
X027969Y013616D02*
X028120Y013616D01*
X028067Y013518D02*
X028218Y013518D01*
X028166Y013419D02*
X033766Y013419D01*
X033766Y013321D02*
X028264Y013321D01*
X028363Y013222D02*
X033766Y013222D01*
X033766Y013124D02*
X028461Y013124D01*
X028560Y013025D02*
X033766Y013025D01*
X033766Y012927D02*
X028658Y012927D01*
X028757Y012828D02*
X033752Y012828D01*
X033654Y012730D02*
X028855Y012730D01*
X028954Y012631D02*
X033555Y012631D01*
X033457Y012533D02*
X029052Y012533D01*
X029151Y012434D02*
X033358Y012434D01*
X033260Y012336D02*
X029591Y012336D01*
X029690Y012237D02*
X033161Y012237D01*
X033063Y012139D02*
X029709Y012139D01*
X029709Y012040D02*
X032964Y012040D01*
X032866Y011942D02*
X029709Y011942D01*
X029639Y011843D02*
X032767Y011843D01*
X032669Y011745D02*
X029540Y011745D01*
X028936Y011942D02*
X025987Y011942D01*
X026034Y012040D02*
X028838Y012040D01*
X028739Y012139D02*
X026034Y012139D01*
X026034Y012237D02*
X028641Y012237D01*
X028542Y012336D02*
X025991Y012336D01*
X025893Y012434D02*
X028444Y012434D01*
X027754Y013124D02*
X023569Y013124D01*
X023618Y012434D02*
X025439Y012434D01*
X025443Y011843D02*
X023614Y011843D01*
X023168Y011843D02*
X022872Y011843D01*
X023611Y010760D02*
X023708Y010760D01*
X023708Y010661D02*
X023611Y010661D01*
X023611Y010563D02*
X023708Y010563D01*
X020716Y012716D02*
X020491Y012941D01*
X019754Y014207D02*
X018420Y014207D01*
X018459Y014109D02*
X019488Y014109D01*
X019390Y014010D02*
X018459Y014010D01*
X018459Y013912D02*
X019298Y013912D01*
X019298Y013813D02*
X018409Y013813D01*
X018310Y013715D02*
X019298Y013715D01*
X013841Y015941D02*
X012366Y015941D01*
X012146Y014503D02*
X011865Y014503D01*
X011963Y014404D02*
X012146Y014404D01*
X012146Y014306D02*
X012062Y014306D01*
X009979Y029968D02*
X020771Y029968D01*
X020771Y030066D02*
X010077Y030066D01*
X010176Y030165D02*
X020794Y030165D01*
X020890Y030263D02*
X010274Y030263D01*
X034716Y025641D02*
X034716Y025616D01*
X034791Y025541D01*
X035741Y016316D02*
X037141Y016316D01*
X037141Y015541D01*
X035741Y015541D01*
X035741Y016316D01*
X035741Y016276D02*
X037141Y016276D01*
X037141Y016177D02*
X035741Y016177D01*
X035741Y016079D02*
X037141Y016079D01*
X037141Y015980D02*
X035741Y015980D01*
X035741Y015882D02*
X037141Y015882D01*
X037141Y015783D02*
X035741Y015783D01*
X035741Y015685D02*
X037141Y015685D01*
X037141Y015586D02*
X035741Y015586D01*
X035716Y012591D02*
X037141Y012591D01*
X037141Y011816D01*
X035716Y011816D01*
X035716Y012591D01*
X035716Y012533D02*
X037141Y012533D01*
X037141Y012434D02*
X035716Y012434D01*
X035716Y012336D02*
X037141Y012336D01*
X037141Y012237D02*
X035716Y012237D01*
X035716Y012139D02*
X037141Y012139D01*
X037141Y012040D02*
X035716Y012040D01*
X035716Y011942D02*
X037141Y011942D01*
X037141Y011843D02*
X035716Y011843D01*
D15*
X031571Y053948D02*
X031661Y053945D01*
X031660Y053945D02*
X031662Y053912D01*
X031667Y053880D01*
X031676Y053848D01*
X031689Y053817D01*
X031706Y053789D01*
X031726Y053762D01*
X031748Y053738D01*
X031774Y053717D01*
X031802Y053699D01*
X031831Y053684D01*
X031862Y053673D01*
X031895Y053666D01*
X031928Y053662D01*
X031961Y053663D01*
X031994Y053667D01*
X032026Y053675D01*
X032057Y053688D01*
X032086Y053703D01*
X032113Y053722D01*
X032138Y053744D01*
X032160Y053769D01*
X032179Y053796D01*
X032194Y053825D01*
X032207Y053856D01*
X032215Y053888D01*
X032219Y053921D01*
X032220Y053954D01*
X032216Y053987D01*
X032209Y054020D01*
X032198Y054051D01*
X032183Y054080D01*
X032165Y054108D01*
X032144Y054134D01*
X032120Y054156D01*
X032093Y054176D01*
X032065Y054193D01*
X032034Y054206D01*
X032002Y054215D01*
X031970Y054220D01*
X031937Y054222D01*
X031934Y054311D01*
X031934Y054312D01*
X031971Y054311D01*
X032008Y054306D01*
X032044Y054297D01*
X032080Y054285D01*
X032114Y054269D01*
X032146Y054250D01*
X032176Y054227D01*
X032203Y054202D01*
X032228Y054174D01*
X032250Y054144D01*
X032269Y054112D01*
X032284Y054078D01*
X032296Y054042D01*
X032304Y054006D01*
X032309Y053969D01*
X032310Y053932D01*
X032307Y053894D01*
X032300Y053858D01*
X032290Y053822D01*
X032276Y053787D01*
X032259Y053754D01*
X032238Y053723D01*
X032214Y053694D01*
X032188Y053668D01*
X032159Y053644D01*
X032128Y053623D01*
X032095Y053606D01*
X032060Y053592D01*
X032024Y053582D01*
X031988Y053575D01*
X031950Y053572D01*
X031913Y053573D01*
X031876Y053578D01*
X031840Y053586D01*
X031804Y053598D01*
X031770Y053613D01*
X031738Y053632D01*
X031708Y053654D01*
X031680Y053679D01*
X031655Y053706D01*
X031632Y053736D01*
X031613Y053768D01*
X031597Y053802D01*
X031585Y053838D01*
X031576Y053874D01*
X031571Y053911D01*
X031570Y053948D01*
X031579Y053948D01*
X031580Y053911D01*
X031585Y053874D01*
X031594Y053838D01*
X031607Y053803D01*
X031623Y053769D01*
X031643Y053737D01*
X031665Y053708D01*
X031691Y053681D01*
X031719Y053657D01*
X031750Y053635D01*
X031782Y053617D01*
X031816Y053603D01*
X031852Y053592D01*
X031889Y053585D01*
X031926Y053581D01*
X031963Y053582D01*
X032000Y053586D01*
X032036Y053594D01*
X032071Y053606D01*
X032105Y053621D01*
X032138Y053640D01*
X032168Y053662D01*
X032195Y053687D01*
X032220Y053714D01*
X032242Y053744D01*
X032261Y053777D01*
X032276Y053811D01*
X032288Y053846D01*
X032296Y053882D01*
X032300Y053919D01*
X032301Y053956D01*
X032297Y053993D01*
X032290Y054030D01*
X032279Y054066D01*
X032265Y054100D01*
X032247Y054132D01*
X032225Y054163D01*
X032201Y054191D01*
X032174Y054217D01*
X032145Y054239D01*
X032113Y054259D01*
X032079Y054275D01*
X032044Y054288D01*
X032008Y054297D01*
X031971Y054302D01*
X031934Y054303D01*
X031934Y054294D01*
X031971Y054293D01*
X032008Y054287D01*
X032044Y054278D01*
X032079Y054265D01*
X032112Y054249D01*
X032144Y054229D01*
X032173Y054206D01*
X032199Y054180D01*
X032223Y054152D01*
X032243Y054121D01*
X032260Y054088D01*
X032274Y054053D01*
X032284Y054018D01*
X032290Y053981D01*
X032292Y053944D01*
X032290Y053907D01*
X032285Y053870D01*
X032275Y053834D01*
X032262Y053800D01*
X032245Y053767D01*
X032225Y053735D01*
X032202Y053707D01*
X032175Y053680D01*
X032147Y053657D01*
X032115Y053637D01*
X032082Y053620D01*
X032048Y053607D01*
X032012Y053597D01*
X031975Y053592D01*
X031938Y053590D01*
X031901Y053592D01*
X031864Y053598D01*
X031829Y053608D01*
X031794Y053622D01*
X031761Y053639D01*
X031730Y053659D01*
X031702Y053683D01*
X031676Y053709D01*
X031653Y053738D01*
X031633Y053770D01*
X031617Y053803D01*
X031604Y053838D01*
X031595Y053874D01*
X031589Y053911D01*
X031588Y053948D01*
X031597Y053947D01*
X031598Y053911D01*
X031604Y053875D01*
X031612Y053840D01*
X031625Y053807D01*
X031641Y053774D01*
X031660Y053744D01*
X031683Y053715D01*
X031708Y053689D01*
X031736Y053666D01*
X031766Y053646D01*
X031798Y053630D01*
X031832Y053617D01*
X031866Y053607D01*
X031902Y053601D01*
X031938Y053599D01*
X031974Y053601D01*
X032010Y053606D01*
X032045Y053615D01*
X032079Y053628D01*
X032111Y053645D01*
X032141Y053664D01*
X032169Y053687D01*
X032195Y053713D01*
X032218Y053741D01*
X032237Y053771D01*
X032254Y053803D01*
X032267Y053837D01*
X032276Y053872D01*
X032281Y053908D01*
X032283Y053944D01*
X032281Y053980D01*
X032275Y054016D01*
X032265Y054050D01*
X032252Y054084D01*
X032236Y054116D01*
X032216Y054146D01*
X032193Y054174D01*
X032167Y054199D01*
X032138Y054222D01*
X032108Y054241D01*
X032075Y054257D01*
X032042Y054270D01*
X032007Y054278D01*
X031971Y054284D01*
X031935Y054285D01*
X031935Y054276D01*
X031971Y054275D01*
X032006Y054269D01*
X032041Y054260D01*
X032075Y054248D01*
X032107Y054231D01*
X032137Y054212D01*
X032165Y054189D01*
X032190Y054163D01*
X032213Y054135D01*
X032232Y054105D01*
X032248Y054072D01*
X032260Y054038D01*
X032268Y054003D01*
X032273Y053968D01*
X032274Y053932D01*
X032271Y053896D01*
X032264Y053861D01*
X032253Y053826D01*
X032239Y053793D01*
X032221Y053762D01*
X032200Y053733D01*
X032176Y053706D01*
X032149Y053682D01*
X032120Y053661D01*
X032089Y053643D01*
X032056Y053629D01*
X032021Y053618D01*
X031986Y053611D01*
X031950Y053608D01*
X031914Y053609D01*
X031879Y053614D01*
X031844Y053622D01*
X031810Y053634D01*
X031777Y053650D01*
X031747Y053669D01*
X031719Y053692D01*
X031693Y053717D01*
X031670Y053745D01*
X031651Y053775D01*
X031634Y053807D01*
X031622Y053841D01*
X031613Y053876D01*
X031607Y053911D01*
X031606Y053947D01*
X031615Y053947D01*
X031616Y053912D01*
X031622Y053877D01*
X031630Y053843D01*
X031643Y053811D01*
X031659Y053779D01*
X031678Y053750D01*
X031700Y053723D01*
X031725Y053698D01*
X031752Y053677D01*
X031782Y053658D01*
X031813Y053643D01*
X031846Y053631D01*
X031880Y053623D01*
X031915Y053618D01*
X031950Y053617D01*
X031985Y053620D01*
X032019Y053627D01*
X032053Y053637D01*
X032085Y053651D01*
X032115Y053668D01*
X032144Y053689D01*
X032170Y053712D01*
X032193Y053738D01*
X032214Y053767D01*
X032231Y053797D01*
X032245Y053829D01*
X032255Y053863D01*
X032262Y053897D01*
X032265Y053932D01*
X032264Y053967D01*
X032259Y054002D01*
X032251Y054036D01*
X032239Y054069D01*
X032224Y054100D01*
X032205Y054130D01*
X032184Y054157D01*
X032159Y054182D01*
X032132Y054204D01*
X032103Y054223D01*
X032071Y054239D01*
X032039Y054252D01*
X032005Y054260D01*
X031970Y054266D01*
X031935Y054267D01*
X031935Y054258D01*
X031970Y054257D01*
X032005Y054251D01*
X032038Y054242D01*
X032071Y054230D01*
X032102Y054214D01*
X032131Y054194D01*
X032157Y054172D01*
X032181Y054146D01*
X032202Y054119D01*
X032220Y054089D01*
X032234Y054057D01*
X032245Y054024D01*
X032252Y053990D01*
X032256Y053955D01*
X032255Y053920D01*
X032251Y053886D01*
X032243Y053852D01*
X032231Y053819D01*
X032216Y053788D01*
X032197Y053758D01*
X032175Y053731D01*
X032151Y053707D01*
X032124Y053685D01*
X032094Y053666D01*
X032063Y053651D01*
X032030Y053639D01*
X031996Y053631D01*
X031962Y053627D01*
X031927Y053626D01*
X031892Y053630D01*
X031858Y053637D01*
X031825Y053648D01*
X031793Y053662D01*
X031763Y053680D01*
X031736Y053701D01*
X031710Y053725D01*
X031688Y053751D01*
X031668Y053780D01*
X031652Y053811D01*
X031640Y053844D01*
X031631Y053877D01*
X031625Y053912D01*
X031624Y053947D01*
X031633Y053946D01*
X031634Y053913D01*
X031640Y053879D01*
X031648Y053846D01*
X031661Y053815D01*
X031676Y053785D01*
X031695Y053757D01*
X031717Y053731D01*
X031742Y053708D01*
X031769Y053687D01*
X031798Y053670D01*
X031828Y053656D01*
X031861Y053645D01*
X031894Y053639D01*
X031927Y053635D01*
X031961Y053636D01*
X031995Y053640D01*
X032028Y053648D01*
X032059Y053659D01*
X032090Y053674D01*
X032118Y053692D01*
X032145Y053713D01*
X032169Y053737D01*
X032190Y053764D01*
X032208Y053792D01*
X032223Y053823D01*
X032234Y053854D01*
X032242Y053887D01*
X032246Y053921D01*
X032247Y053955D01*
X032243Y053988D01*
X032237Y054021D01*
X032226Y054054D01*
X032212Y054084D01*
X032195Y054113D01*
X032174Y054140D01*
X032151Y054165D01*
X032125Y054187D01*
X032097Y054206D01*
X032067Y054221D01*
X032036Y054234D01*
X032003Y054242D01*
X031969Y054248D01*
X031936Y054249D01*
X031936Y054240D01*
X031970Y054239D01*
X032003Y054233D01*
X032035Y054224D01*
X032066Y054212D01*
X032096Y054196D01*
X032124Y054177D01*
X032149Y054155D01*
X032171Y054130D01*
X032191Y054102D01*
X032208Y054073D01*
X032221Y054042D01*
X032230Y054010D01*
X032236Y053977D01*
X032238Y053943D01*
X032236Y053910D01*
X032231Y053877D01*
X032222Y053844D01*
X032209Y053813D01*
X032193Y053784D01*
X032173Y053756D01*
X032151Y053731D01*
X032126Y053709D01*
X032098Y053689D01*
X032069Y053673D01*
X032038Y053660D01*
X032005Y053651D01*
X031972Y053646D01*
X031939Y053644D01*
X031905Y053646D01*
X031872Y053652D01*
X031840Y053661D01*
X031809Y053674D01*
X031780Y053691D01*
X031752Y053711D01*
X031727Y053733D01*
X031705Y053758D01*
X031686Y053786D01*
X031670Y053816D01*
X031658Y053847D01*
X031649Y053879D01*
X031643Y053912D01*
X031642Y053946D01*
X031651Y053946D01*
X031653Y053912D01*
X031658Y053879D01*
X031667Y053847D01*
X031680Y053816D01*
X031696Y053787D01*
X031715Y053760D01*
X031738Y053735D01*
X031763Y053714D01*
X031791Y053695D01*
X031820Y053679D01*
X031851Y053667D01*
X031883Y053659D01*
X031917Y053654D01*
X031950Y053653D01*
X031983Y053656D01*
X032016Y053663D01*
X032047Y053674D01*
X032078Y053688D01*
X032106Y053705D01*
X032132Y053726D01*
X032156Y053750D01*
X032177Y053776D01*
X032194Y053804D01*
X032208Y053835D01*
X032219Y053866D01*
X032226Y053899D01*
X032229Y053932D01*
X032228Y053965D01*
X032223Y053999D01*
X032215Y054031D01*
X032203Y054062D01*
X032187Y054091D01*
X032168Y054119D01*
X032147Y054144D01*
X032122Y054167D01*
X032095Y054186D01*
X032066Y054202D01*
X032035Y054215D01*
X032003Y054224D01*
X031970Y054229D01*
X031936Y054231D01*
X031934Y054419D02*
X031937Y054509D01*
X031937Y054508D02*
X031970Y054510D01*
X032002Y054515D01*
X032034Y054524D01*
X032065Y054537D01*
X032093Y054554D01*
X032120Y054574D01*
X032144Y054596D01*
X032165Y054622D01*
X032183Y054650D01*
X032198Y054679D01*
X032209Y054710D01*
X032216Y054743D01*
X032220Y054776D01*
X032219Y054809D01*
X032215Y054842D01*
X032207Y054874D01*
X032194Y054905D01*
X032179Y054934D01*
X032160Y054961D01*
X032138Y054986D01*
X032113Y055008D01*
X032086Y055027D01*
X032057Y055042D01*
X032026Y055055D01*
X031994Y055063D01*
X031961Y055067D01*
X031928Y055068D01*
X031895Y055064D01*
X031862Y055057D01*
X031831Y055046D01*
X031802Y055031D01*
X031774Y055013D01*
X031748Y054992D01*
X031726Y054968D01*
X031706Y054941D01*
X031689Y054913D01*
X031676Y054882D01*
X031667Y054850D01*
X031662Y054818D01*
X031660Y054785D01*
X031571Y054782D01*
X031570Y054782D01*
X031571Y054819D01*
X031576Y054856D01*
X031585Y054892D01*
X031597Y054928D01*
X031613Y054962D01*
X031632Y054994D01*
X031655Y055024D01*
X031680Y055051D01*
X031708Y055076D01*
X031738Y055098D01*
X031770Y055117D01*
X031804Y055132D01*
X031840Y055144D01*
X031876Y055152D01*
X031913Y055157D01*
X031950Y055158D01*
X031988Y055155D01*
X032024Y055148D01*
X032060Y055138D01*
X032095Y055124D01*
X032128Y055107D01*
X032159Y055086D01*
X032188Y055062D01*
X032214Y055036D01*
X032238Y055007D01*
X032259Y054976D01*
X032276Y054943D01*
X032290Y054908D01*
X032300Y054872D01*
X032307Y054836D01*
X032310Y054798D01*
X032309Y054761D01*
X032304Y054724D01*
X032296Y054688D01*
X032284Y054652D01*
X032269Y054618D01*
X032250Y054586D01*
X032228Y054556D01*
X032203Y054528D01*
X032176Y054503D01*
X032146Y054480D01*
X032114Y054461D01*
X032080Y054445D01*
X032044Y054433D01*
X032008Y054424D01*
X031971Y054419D01*
X031934Y054418D01*
X031934Y054427D01*
X031971Y054428D01*
X032008Y054433D01*
X032044Y054442D01*
X032079Y054455D01*
X032113Y054471D01*
X032145Y054491D01*
X032174Y054513D01*
X032201Y054539D01*
X032225Y054567D01*
X032247Y054598D01*
X032265Y054630D01*
X032279Y054664D01*
X032290Y054700D01*
X032297Y054737D01*
X032301Y054774D01*
X032300Y054811D01*
X032296Y054848D01*
X032288Y054884D01*
X032276Y054919D01*
X032261Y054953D01*
X032242Y054986D01*
X032220Y055016D01*
X032195Y055043D01*
X032168Y055068D01*
X032138Y055090D01*
X032105Y055109D01*
X032071Y055124D01*
X032036Y055136D01*
X032000Y055144D01*
X031963Y055148D01*
X031926Y055149D01*
X031889Y055145D01*
X031852Y055138D01*
X031816Y055127D01*
X031782Y055113D01*
X031750Y055095D01*
X031719Y055073D01*
X031691Y055049D01*
X031665Y055022D01*
X031643Y054993D01*
X031623Y054961D01*
X031607Y054927D01*
X031594Y054892D01*
X031585Y054856D01*
X031580Y054819D01*
X031579Y054782D01*
X031588Y054782D01*
X031589Y054819D01*
X031595Y054856D01*
X031604Y054892D01*
X031617Y054927D01*
X031633Y054960D01*
X031653Y054992D01*
X031676Y055021D01*
X031702Y055047D01*
X031730Y055071D01*
X031761Y055091D01*
X031794Y055108D01*
X031829Y055122D01*
X031864Y055132D01*
X031901Y055138D01*
X031938Y055140D01*
X031975Y055138D01*
X032012Y055133D01*
X032048Y055123D01*
X032082Y055110D01*
X032115Y055093D01*
X032147Y055073D01*
X032175Y055050D01*
X032202Y055023D01*
X032225Y054995D01*
X032245Y054963D01*
X032262Y054930D01*
X032275Y054896D01*
X032285Y054860D01*
X032290Y054823D01*
X032292Y054786D01*
X032290Y054749D01*
X032284Y054712D01*
X032274Y054677D01*
X032260Y054642D01*
X032243Y054609D01*
X032223Y054578D01*
X032199Y054550D01*
X032173Y054524D01*
X032144Y054501D01*
X032112Y054481D01*
X032079Y054465D01*
X032044Y054452D01*
X032008Y054443D01*
X031971Y054437D01*
X031934Y054436D01*
X031935Y054445D01*
X031971Y054446D01*
X032007Y054452D01*
X032042Y054460D01*
X032075Y054473D01*
X032108Y054489D01*
X032138Y054508D01*
X032167Y054531D01*
X032193Y054556D01*
X032216Y054584D01*
X032236Y054614D01*
X032252Y054646D01*
X032265Y054680D01*
X032275Y054714D01*
X032281Y054750D01*
X032283Y054786D01*
X032281Y054822D01*
X032276Y054858D01*
X032267Y054893D01*
X032254Y054927D01*
X032237Y054959D01*
X032218Y054989D01*
X032195Y055017D01*
X032169Y055043D01*
X032141Y055066D01*
X032111Y055085D01*
X032079Y055102D01*
X032045Y055115D01*
X032010Y055124D01*
X031974Y055129D01*
X031938Y055131D01*
X031902Y055129D01*
X031866Y055123D01*
X031832Y055113D01*
X031798Y055100D01*
X031766Y055084D01*
X031736Y055064D01*
X031708Y055041D01*
X031683Y055015D01*
X031660Y054986D01*
X031641Y054956D01*
X031625Y054923D01*
X031612Y054890D01*
X031604Y054855D01*
X031598Y054819D01*
X031597Y054783D01*
X031606Y054783D01*
X031607Y054819D01*
X031613Y054854D01*
X031622Y054889D01*
X031634Y054923D01*
X031651Y054955D01*
X031670Y054985D01*
X031693Y055013D01*
X031719Y055038D01*
X031747Y055061D01*
X031777Y055080D01*
X031810Y055096D01*
X031844Y055108D01*
X031879Y055116D01*
X031914Y055121D01*
X031950Y055122D01*
X031986Y055119D01*
X032021Y055112D01*
X032056Y055101D01*
X032089Y055087D01*
X032120Y055069D01*
X032149Y055048D01*
X032176Y055024D01*
X032200Y054997D01*
X032221Y054968D01*
X032239Y054937D01*
X032253Y054904D01*
X032264Y054869D01*
X032271Y054834D01*
X032274Y054798D01*
X032273Y054762D01*
X032268Y054727D01*
X032260Y054692D01*
X032248Y054658D01*
X032232Y054625D01*
X032213Y054595D01*
X032190Y054567D01*
X032165Y054541D01*
X032137Y054518D01*
X032107Y054499D01*
X032075Y054482D01*
X032041Y054470D01*
X032006Y054461D01*
X031971Y054455D01*
X031935Y054454D01*
X031935Y054463D01*
X031970Y054464D01*
X032005Y054470D01*
X032039Y054478D01*
X032071Y054491D01*
X032103Y054507D01*
X032132Y054526D01*
X032159Y054548D01*
X032184Y054573D01*
X032205Y054600D01*
X032224Y054630D01*
X032239Y054661D01*
X032251Y054694D01*
X032259Y054728D01*
X032264Y054763D01*
X032265Y054798D01*
X032262Y054833D01*
X032255Y054867D01*
X032245Y054901D01*
X032231Y054933D01*
X032214Y054963D01*
X032193Y054992D01*
X032170Y055018D01*
X032144Y055041D01*
X032115Y055062D01*
X032085Y055079D01*
X032053Y055093D01*
X032019Y055103D01*
X031985Y055110D01*
X031950Y055113D01*
X031915Y055112D01*
X031880Y055107D01*
X031846Y055099D01*
X031813Y055087D01*
X031782Y055072D01*
X031752Y055053D01*
X031725Y055032D01*
X031700Y055007D01*
X031678Y054980D01*
X031659Y054951D01*
X031643Y054919D01*
X031630Y054887D01*
X031622Y054853D01*
X031616Y054818D01*
X031615Y054783D01*
X031624Y054783D01*
X031625Y054818D01*
X031631Y054853D01*
X031640Y054886D01*
X031652Y054919D01*
X031668Y054950D01*
X031688Y054979D01*
X031710Y055005D01*
X031736Y055029D01*
X031763Y055050D01*
X031793Y055068D01*
X031825Y055082D01*
X031858Y055093D01*
X031892Y055100D01*
X031927Y055104D01*
X031962Y055103D01*
X031996Y055099D01*
X032030Y055091D01*
X032063Y055079D01*
X032094Y055064D01*
X032124Y055045D01*
X032151Y055023D01*
X032175Y054999D01*
X032197Y054972D01*
X032216Y054942D01*
X032231Y054911D01*
X032243Y054878D01*
X032251Y054844D01*
X032255Y054810D01*
X032256Y054775D01*
X032252Y054740D01*
X032245Y054706D01*
X032234Y054673D01*
X032220Y054641D01*
X032202Y054611D01*
X032181Y054584D01*
X032157Y054558D01*
X032131Y054536D01*
X032102Y054516D01*
X032071Y054500D01*
X032038Y054488D01*
X032005Y054479D01*
X031970Y054473D01*
X031935Y054472D01*
X031936Y054481D01*
X031969Y054482D01*
X032003Y054488D01*
X032036Y054496D01*
X032067Y054509D01*
X032097Y054524D01*
X032125Y054543D01*
X032151Y054565D01*
X032174Y054590D01*
X032195Y054617D01*
X032212Y054646D01*
X032226Y054676D01*
X032237Y054709D01*
X032243Y054742D01*
X032247Y054775D01*
X032246Y054809D01*
X032242Y054843D01*
X032234Y054876D01*
X032223Y054907D01*
X032208Y054938D01*
X032190Y054966D01*
X032169Y054993D01*
X032145Y055017D01*
X032118Y055038D01*
X032090Y055056D01*
X032059Y055071D01*
X032028Y055082D01*
X031995Y055090D01*
X031961Y055094D01*
X031927Y055095D01*
X031894Y055091D01*
X031861Y055085D01*
X031828Y055074D01*
X031798Y055060D01*
X031769Y055043D01*
X031742Y055022D01*
X031717Y054999D01*
X031695Y054973D01*
X031676Y054945D01*
X031661Y054915D01*
X031648Y054884D01*
X031640Y054851D01*
X031634Y054817D01*
X031633Y054784D01*
X031642Y054784D01*
X031643Y054818D01*
X031649Y054851D01*
X031658Y054883D01*
X031670Y054914D01*
X031686Y054944D01*
X031705Y054972D01*
X031727Y054997D01*
X031752Y055019D01*
X031780Y055039D01*
X031809Y055056D01*
X031840Y055069D01*
X031872Y055078D01*
X031905Y055084D01*
X031939Y055086D01*
X031972Y055084D01*
X032005Y055079D01*
X032038Y055070D01*
X032069Y055057D01*
X032098Y055041D01*
X032126Y055021D01*
X032151Y054999D01*
X032173Y054974D01*
X032193Y054946D01*
X032209Y054917D01*
X032222Y054886D01*
X032231Y054853D01*
X032236Y054820D01*
X032238Y054787D01*
X032236Y054753D01*
X032230Y054720D01*
X032221Y054688D01*
X032208Y054657D01*
X032191Y054628D01*
X032171Y054600D01*
X032149Y054575D01*
X032124Y054553D01*
X032096Y054534D01*
X032066Y054518D01*
X032035Y054506D01*
X032003Y054497D01*
X031970Y054491D01*
X031936Y054490D01*
X031936Y054499D01*
X031970Y054501D01*
X032003Y054506D01*
X032035Y054515D01*
X032066Y054528D01*
X032095Y054544D01*
X032122Y054563D01*
X032147Y054586D01*
X032168Y054611D01*
X032187Y054639D01*
X032203Y054668D01*
X032215Y054699D01*
X032223Y054731D01*
X032228Y054765D01*
X032229Y054798D01*
X032226Y054831D01*
X032219Y054864D01*
X032208Y054895D01*
X032194Y054926D01*
X032177Y054954D01*
X032156Y054980D01*
X032132Y055004D01*
X032106Y055025D01*
X032078Y055042D01*
X032047Y055056D01*
X032016Y055067D01*
X031983Y055074D01*
X031950Y055077D01*
X031917Y055076D01*
X031883Y055071D01*
X031851Y055063D01*
X031820Y055051D01*
X031791Y055035D01*
X031763Y055016D01*
X031738Y054995D01*
X031715Y054970D01*
X031696Y054943D01*
X031680Y054914D01*
X031667Y054883D01*
X031658Y054851D01*
X031653Y054818D01*
X031651Y054784D01*
X031502Y054782D02*
X031412Y054785D01*
X031413Y054785D02*
X031411Y054818D01*
X031406Y054850D01*
X031397Y054882D01*
X031384Y054913D01*
X031367Y054941D01*
X031347Y054968D01*
X031325Y054992D01*
X031299Y055013D01*
X031271Y055031D01*
X031242Y055046D01*
X031211Y055057D01*
X031178Y055064D01*
X031145Y055068D01*
X031112Y055067D01*
X031079Y055063D01*
X031047Y055055D01*
X031016Y055042D01*
X030987Y055027D01*
X030960Y055008D01*
X030935Y054986D01*
X030913Y054961D01*
X030894Y054934D01*
X030879Y054905D01*
X030866Y054874D01*
X030858Y054842D01*
X030854Y054809D01*
X030853Y054776D01*
X030857Y054743D01*
X030864Y054710D01*
X030875Y054679D01*
X030890Y054650D01*
X030908Y054622D01*
X030929Y054596D01*
X030953Y054574D01*
X030980Y054554D01*
X031008Y054537D01*
X031039Y054524D01*
X031071Y054515D01*
X031103Y054510D01*
X031136Y054508D01*
X031139Y054419D01*
X031139Y054418D01*
X031102Y054419D01*
X031065Y054424D01*
X031029Y054433D01*
X030993Y054445D01*
X030959Y054461D01*
X030927Y054480D01*
X030897Y054503D01*
X030870Y054528D01*
X030845Y054556D01*
X030823Y054586D01*
X030804Y054618D01*
X030789Y054652D01*
X030777Y054688D01*
X030769Y054724D01*
X030764Y054761D01*
X030763Y054798D01*
X030766Y054836D01*
X030773Y054872D01*
X030783Y054908D01*
X030797Y054943D01*
X030814Y054976D01*
X030835Y055007D01*
X030859Y055036D01*
X030885Y055062D01*
X030914Y055086D01*
X030945Y055107D01*
X030978Y055124D01*
X031013Y055138D01*
X031049Y055148D01*
X031085Y055155D01*
X031123Y055158D01*
X031160Y055157D01*
X031197Y055152D01*
X031233Y055144D01*
X031269Y055132D01*
X031303Y055117D01*
X031335Y055098D01*
X031365Y055076D01*
X031393Y055051D01*
X031418Y055024D01*
X031441Y054994D01*
X031460Y054962D01*
X031476Y054928D01*
X031488Y054892D01*
X031497Y054856D01*
X031502Y054819D01*
X031503Y054782D01*
X031494Y054782D01*
X031493Y054819D01*
X031488Y054856D01*
X031479Y054892D01*
X031466Y054927D01*
X031450Y054961D01*
X031430Y054993D01*
X031408Y055022D01*
X031382Y055049D01*
X031354Y055073D01*
X031323Y055095D01*
X031291Y055113D01*
X031257Y055127D01*
X031221Y055138D01*
X031184Y055145D01*
X031147Y055149D01*
X031110Y055148D01*
X031073Y055144D01*
X031037Y055136D01*
X031002Y055124D01*
X030968Y055109D01*
X030935Y055090D01*
X030905Y055068D01*
X030878Y055043D01*
X030853Y055016D01*
X030831Y054986D01*
X030812Y054953D01*
X030797Y054919D01*
X030785Y054884D01*
X030777Y054848D01*
X030773Y054811D01*
X030772Y054774D01*
X030776Y054737D01*
X030783Y054700D01*
X030794Y054664D01*
X030808Y054630D01*
X030826Y054598D01*
X030848Y054567D01*
X030872Y054539D01*
X030899Y054513D01*
X030928Y054491D01*
X030960Y054471D01*
X030994Y054455D01*
X031029Y054442D01*
X031065Y054433D01*
X031102Y054428D01*
X031139Y054427D01*
X031139Y054436D01*
X031102Y054437D01*
X031065Y054443D01*
X031029Y054452D01*
X030994Y054465D01*
X030961Y054481D01*
X030929Y054501D01*
X030900Y054524D01*
X030874Y054550D01*
X030850Y054578D01*
X030830Y054609D01*
X030813Y054642D01*
X030799Y054677D01*
X030789Y054712D01*
X030783Y054749D01*
X030781Y054786D01*
X030783Y054823D01*
X030788Y054860D01*
X030798Y054896D01*
X030811Y054930D01*
X030828Y054963D01*
X030848Y054995D01*
X030871Y055023D01*
X030898Y055050D01*
X030926Y055073D01*
X030958Y055093D01*
X030991Y055110D01*
X031025Y055123D01*
X031061Y055133D01*
X031098Y055138D01*
X031135Y055140D01*
X031172Y055138D01*
X031209Y055132D01*
X031244Y055122D01*
X031279Y055108D01*
X031312Y055091D01*
X031343Y055071D01*
X031371Y055047D01*
X031397Y055021D01*
X031420Y054992D01*
X031440Y054960D01*
X031456Y054927D01*
X031469Y054892D01*
X031478Y054856D01*
X031484Y054819D01*
X031485Y054782D01*
X031476Y054783D01*
X031475Y054819D01*
X031469Y054855D01*
X031461Y054890D01*
X031448Y054923D01*
X031432Y054956D01*
X031413Y054986D01*
X031390Y055015D01*
X031365Y055041D01*
X031337Y055064D01*
X031307Y055084D01*
X031275Y055100D01*
X031241Y055113D01*
X031207Y055123D01*
X031171Y055129D01*
X031135Y055131D01*
X031099Y055129D01*
X031063Y055124D01*
X031028Y055115D01*
X030994Y055102D01*
X030962Y055085D01*
X030932Y055066D01*
X030904Y055043D01*
X030878Y055017D01*
X030855Y054989D01*
X030836Y054959D01*
X030819Y054927D01*
X030806Y054893D01*
X030797Y054858D01*
X030792Y054822D01*
X030790Y054786D01*
X030792Y054750D01*
X030798Y054714D01*
X030808Y054680D01*
X030821Y054646D01*
X030837Y054614D01*
X030857Y054584D01*
X030880Y054556D01*
X030906Y054531D01*
X030935Y054508D01*
X030965Y054489D01*
X030998Y054473D01*
X031031Y054460D01*
X031066Y054452D01*
X031102Y054446D01*
X031138Y054445D01*
X031138Y054454D01*
X031102Y054455D01*
X031067Y054461D01*
X031032Y054470D01*
X030998Y054482D01*
X030966Y054499D01*
X030936Y054518D01*
X030908Y054541D01*
X030883Y054567D01*
X030860Y054595D01*
X030841Y054625D01*
X030825Y054658D01*
X030813Y054692D01*
X030805Y054727D01*
X030800Y054762D01*
X030799Y054798D01*
X030802Y054834D01*
X030809Y054869D01*
X030820Y054904D01*
X030834Y054937D01*
X030852Y054968D01*
X030873Y054997D01*
X030897Y055024D01*
X030924Y055048D01*
X030953Y055069D01*
X030984Y055087D01*
X031017Y055101D01*
X031052Y055112D01*
X031087Y055119D01*
X031123Y055122D01*
X031159Y055121D01*
X031194Y055116D01*
X031229Y055108D01*
X031263Y055096D01*
X031296Y055080D01*
X031326Y055061D01*
X031354Y055038D01*
X031380Y055013D01*
X031403Y054985D01*
X031422Y054955D01*
X031439Y054923D01*
X031451Y054889D01*
X031460Y054854D01*
X031466Y054819D01*
X031467Y054783D01*
X031458Y054783D01*
X031457Y054818D01*
X031451Y054853D01*
X031443Y054887D01*
X031430Y054919D01*
X031414Y054951D01*
X031395Y054980D01*
X031373Y055007D01*
X031348Y055032D01*
X031321Y055053D01*
X031291Y055072D01*
X031260Y055087D01*
X031227Y055099D01*
X031193Y055107D01*
X031158Y055112D01*
X031123Y055113D01*
X031088Y055110D01*
X031054Y055103D01*
X031020Y055093D01*
X030988Y055079D01*
X030958Y055062D01*
X030929Y055041D01*
X030903Y055018D01*
X030880Y054992D01*
X030859Y054963D01*
X030842Y054933D01*
X030828Y054901D01*
X030818Y054867D01*
X030811Y054833D01*
X030808Y054798D01*
X030809Y054763D01*
X030814Y054728D01*
X030822Y054694D01*
X030834Y054661D01*
X030849Y054630D01*
X030868Y054600D01*
X030889Y054573D01*
X030914Y054548D01*
X030941Y054526D01*
X030970Y054507D01*
X031002Y054491D01*
X031034Y054478D01*
X031068Y054470D01*
X031103Y054464D01*
X031138Y054463D01*
X031138Y054472D01*
X031103Y054473D01*
X031068Y054479D01*
X031035Y054488D01*
X031002Y054500D01*
X030971Y054516D01*
X030942Y054536D01*
X030916Y054558D01*
X030892Y054584D01*
X030871Y054611D01*
X030853Y054641D01*
X030839Y054673D01*
X030828Y054706D01*
X030821Y054740D01*
X030817Y054775D01*
X030818Y054810D01*
X030822Y054844D01*
X030830Y054878D01*
X030842Y054911D01*
X030857Y054942D01*
X030876Y054972D01*
X030898Y054999D01*
X030922Y055023D01*
X030949Y055045D01*
X030979Y055064D01*
X031010Y055079D01*
X031043Y055091D01*
X031077Y055099D01*
X031111Y055103D01*
X031146Y055104D01*
X031181Y055100D01*
X031215Y055093D01*
X031248Y055082D01*
X031280Y055068D01*
X031310Y055050D01*
X031337Y055029D01*
X031363Y055005D01*
X031385Y054979D01*
X031405Y054950D01*
X031421Y054919D01*
X031433Y054886D01*
X031442Y054853D01*
X031448Y054818D01*
X031449Y054783D01*
X031440Y054784D01*
X031439Y054817D01*
X031433Y054851D01*
X031425Y054884D01*
X031412Y054915D01*
X031397Y054945D01*
X031378Y054973D01*
X031356Y054999D01*
X031331Y055022D01*
X031304Y055043D01*
X031275Y055060D01*
X031245Y055074D01*
X031212Y055085D01*
X031179Y055091D01*
X031146Y055095D01*
X031112Y055094D01*
X031078Y055090D01*
X031045Y055082D01*
X031014Y055071D01*
X030983Y055056D01*
X030955Y055038D01*
X030928Y055017D01*
X030904Y054993D01*
X030883Y054966D01*
X030865Y054938D01*
X030850Y054907D01*
X030839Y054876D01*
X030831Y054843D01*
X030827Y054809D01*
X030826Y054775D01*
X030830Y054742D01*
X030836Y054709D01*
X030847Y054676D01*
X030861Y054646D01*
X030878Y054617D01*
X030899Y054590D01*
X030922Y054565D01*
X030948Y054543D01*
X030976Y054524D01*
X031006Y054509D01*
X031037Y054496D01*
X031070Y054488D01*
X031104Y054482D01*
X031137Y054481D01*
X031137Y054490D01*
X031103Y054491D01*
X031070Y054497D01*
X031038Y054506D01*
X031007Y054518D01*
X030977Y054534D01*
X030949Y054553D01*
X030924Y054575D01*
X030902Y054600D01*
X030882Y054628D01*
X030865Y054657D01*
X030852Y054688D01*
X030843Y054720D01*
X030837Y054753D01*
X030835Y054787D01*
X030837Y054820D01*
X030842Y054853D01*
X030851Y054886D01*
X030864Y054917D01*
X030880Y054946D01*
X030900Y054974D01*
X030922Y054999D01*
X030947Y055021D01*
X030975Y055041D01*
X031004Y055057D01*
X031035Y055070D01*
X031068Y055079D01*
X031101Y055084D01*
X031134Y055086D01*
X031168Y055084D01*
X031201Y055078D01*
X031233Y055069D01*
X031264Y055056D01*
X031293Y055039D01*
X031321Y055019D01*
X031346Y054997D01*
X031368Y054972D01*
X031387Y054944D01*
X031403Y054914D01*
X031415Y054883D01*
X031424Y054851D01*
X031430Y054818D01*
X031431Y054784D01*
X031422Y054784D01*
X031420Y054818D01*
X031415Y054851D01*
X031406Y054883D01*
X031393Y054914D01*
X031377Y054943D01*
X031358Y054970D01*
X031335Y054995D01*
X031310Y055016D01*
X031282Y055035D01*
X031253Y055051D01*
X031222Y055063D01*
X031190Y055071D01*
X031156Y055076D01*
X031123Y055077D01*
X031090Y055074D01*
X031057Y055067D01*
X031026Y055056D01*
X030995Y055042D01*
X030967Y055025D01*
X030941Y055004D01*
X030917Y054980D01*
X030896Y054954D01*
X030879Y054926D01*
X030865Y054895D01*
X030854Y054864D01*
X030847Y054831D01*
X030844Y054798D01*
X030845Y054765D01*
X030850Y054731D01*
X030858Y054699D01*
X030870Y054668D01*
X030886Y054639D01*
X030905Y054611D01*
X030926Y054586D01*
X030951Y054563D01*
X030978Y054544D01*
X031007Y054528D01*
X031038Y054515D01*
X031070Y054506D01*
X031103Y054501D01*
X031137Y054499D01*
X031139Y054311D02*
X031136Y054221D01*
X031136Y054222D02*
X031103Y054220D01*
X031071Y054215D01*
X031039Y054206D01*
X031008Y054193D01*
X030980Y054176D01*
X030953Y054156D01*
X030929Y054134D01*
X030908Y054108D01*
X030890Y054080D01*
X030875Y054051D01*
X030864Y054020D01*
X030857Y053987D01*
X030853Y053954D01*
X030854Y053921D01*
X030858Y053888D01*
X030866Y053856D01*
X030879Y053825D01*
X030894Y053796D01*
X030913Y053769D01*
X030935Y053744D01*
X030960Y053722D01*
X030987Y053703D01*
X031016Y053688D01*
X031047Y053675D01*
X031079Y053667D01*
X031112Y053663D01*
X031145Y053662D01*
X031178Y053666D01*
X031211Y053673D01*
X031242Y053684D01*
X031271Y053699D01*
X031299Y053717D01*
X031325Y053738D01*
X031347Y053762D01*
X031367Y053789D01*
X031384Y053817D01*
X031397Y053848D01*
X031406Y053880D01*
X031411Y053912D01*
X031413Y053945D01*
X031502Y053948D01*
X031503Y053948D01*
X031502Y053911D01*
X031497Y053874D01*
X031488Y053838D01*
X031476Y053802D01*
X031460Y053768D01*
X031441Y053736D01*
X031418Y053706D01*
X031393Y053679D01*
X031365Y053654D01*
X031335Y053632D01*
X031303Y053613D01*
X031269Y053598D01*
X031233Y053586D01*
X031197Y053578D01*
X031160Y053573D01*
X031123Y053572D01*
X031085Y053575D01*
X031049Y053582D01*
X031013Y053592D01*
X030978Y053606D01*
X030945Y053623D01*
X030914Y053644D01*
X030885Y053668D01*
X030859Y053694D01*
X030835Y053723D01*
X030814Y053754D01*
X030797Y053787D01*
X030783Y053822D01*
X030773Y053858D01*
X030766Y053894D01*
X030763Y053932D01*
X030764Y053969D01*
X030769Y054006D01*
X030777Y054042D01*
X030789Y054078D01*
X030804Y054112D01*
X030823Y054144D01*
X030845Y054174D01*
X030870Y054202D01*
X030897Y054227D01*
X030927Y054250D01*
X030959Y054269D01*
X030993Y054285D01*
X031029Y054297D01*
X031065Y054306D01*
X031102Y054311D01*
X031139Y054312D01*
X031139Y054303D01*
X031102Y054302D01*
X031065Y054297D01*
X031029Y054288D01*
X030994Y054275D01*
X030960Y054259D01*
X030928Y054239D01*
X030899Y054217D01*
X030872Y054191D01*
X030848Y054163D01*
X030826Y054132D01*
X030808Y054100D01*
X030794Y054066D01*
X030783Y054030D01*
X030776Y053993D01*
X030772Y053956D01*
X030773Y053919D01*
X030777Y053882D01*
X030785Y053846D01*
X030797Y053811D01*
X030812Y053777D01*
X030831Y053744D01*
X030853Y053714D01*
X030878Y053687D01*
X030905Y053662D01*
X030935Y053640D01*
X030968Y053621D01*
X031002Y053606D01*
X031037Y053594D01*
X031073Y053586D01*
X031110Y053582D01*
X031147Y053581D01*
X031184Y053585D01*
X031221Y053592D01*
X031257Y053603D01*
X031291Y053617D01*
X031323Y053635D01*
X031354Y053657D01*
X031382Y053681D01*
X031408Y053708D01*
X031430Y053737D01*
X031450Y053769D01*
X031466Y053803D01*
X031479Y053838D01*
X031488Y053874D01*
X031493Y053911D01*
X031494Y053948D01*
X031485Y053948D01*
X031484Y053911D01*
X031478Y053874D01*
X031469Y053838D01*
X031456Y053803D01*
X031440Y053770D01*
X031420Y053738D01*
X031397Y053709D01*
X031371Y053683D01*
X031343Y053659D01*
X031312Y053639D01*
X031279Y053622D01*
X031244Y053608D01*
X031209Y053598D01*
X031172Y053592D01*
X031135Y053590D01*
X031098Y053592D01*
X031061Y053597D01*
X031025Y053607D01*
X030991Y053620D01*
X030958Y053637D01*
X030926Y053657D01*
X030898Y053680D01*
X030871Y053707D01*
X030848Y053735D01*
X030828Y053767D01*
X030811Y053800D01*
X030798Y053834D01*
X030788Y053870D01*
X030783Y053907D01*
X030781Y053944D01*
X030783Y053981D01*
X030789Y054018D01*
X030799Y054053D01*
X030813Y054088D01*
X030830Y054121D01*
X030850Y054152D01*
X030874Y054180D01*
X030900Y054206D01*
X030929Y054229D01*
X030961Y054249D01*
X030994Y054265D01*
X031029Y054278D01*
X031065Y054287D01*
X031102Y054293D01*
X031139Y054294D01*
X031138Y054285D01*
X031102Y054284D01*
X031066Y054278D01*
X031031Y054270D01*
X030998Y054257D01*
X030965Y054241D01*
X030935Y054222D01*
X030906Y054199D01*
X030880Y054174D01*
X030857Y054146D01*
X030837Y054116D01*
X030821Y054084D01*
X030808Y054050D01*
X030798Y054016D01*
X030792Y053980D01*
X030790Y053944D01*
X030792Y053908D01*
X030797Y053872D01*
X030806Y053837D01*
X030819Y053803D01*
X030836Y053771D01*
X030855Y053741D01*
X030878Y053713D01*
X030904Y053687D01*
X030932Y053664D01*
X030962Y053645D01*
X030994Y053628D01*
X031028Y053615D01*
X031063Y053606D01*
X031099Y053601D01*
X031135Y053599D01*
X031171Y053601D01*
X031207Y053607D01*
X031241Y053617D01*
X031275Y053630D01*
X031307Y053646D01*
X031337Y053666D01*
X031365Y053689D01*
X031390Y053715D01*
X031413Y053744D01*
X031432Y053774D01*
X031448Y053807D01*
X031461Y053840D01*
X031469Y053875D01*
X031475Y053911D01*
X031476Y053947D01*
X031467Y053947D01*
X031466Y053911D01*
X031460Y053876D01*
X031451Y053841D01*
X031439Y053807D01*
X031422Y053775D01*
X031403Y053745D01*
X031380Y053717D01*
X031354Y053692D01*
X031326Y053669D01*
X031296Y053650D01*
X031263Y053634D01*
X031229Y053622D01*
X031194Y053614D01*
X031159Y053609D01*
X031123Y053608D01*
X031087Y053611D01*
X031052Y053618D01*
X031017Y053629D01*
X030984Y053643D01*
X030953Y053661D01*
X030924Y053682D01*
X030897Y053706D01*
X030873Y053733D01*
X030852Y053762D01*
X030834Y053793D01*
X030820Y053826D01*
X030809Y053861D01*
X030802Y053896D01*
X030799Y053932D01*
X030800Y053968D01*
X030805Y054003D01*
X030813Y054038D01*
X030825Y054072D01*
X030841Y054105D01*
X030860Y054135D01*
X030883Y054163D01*
X030908Y054189D01*
X030936Y054212D01*
X030966Y054231D01*
X030998Y054248D01*
X031032Y054260D01*
X031067Y054269D01*
X031102Y054275D01*
X031138Y054276D01*
X031138Y054267D01*
X031103Y054266D01*
X031068Y054260D01*
X031034Y054252D01*
X031002Y054239D01*
X030970Y054223D01*
X030941Y054204D01*
X030914Y054182D01*
X030889Y054157D01*
X030868Y054130D01*
X030849Y054100D01*
X030834Y054069D01*
X030822Y054036D01*
X030814Y054002D01*
X030809Y053967D01*
X030808Y053932D01*
X030811Y053897D01*
X030818Y053863D01*
X030828Y053829D01*
X030842Y053797D01*
X030859Y053767D01*
X030880Y053738D01*
X030903Y053712D01*
X030929Y053689D01*
X030958Y053668D01*
X030988Y053651D01*
X031020Y053637D01*
X031054Y053627D01*
X031088Y053620D01*
X031123Y053617D01*
X031158Y053618D01*
X031193Y053623D01*
X031227Y053631D01*
X031260Y053643D01*
X031291Y053658D01*
X031321Y053677D01*
X031348Y053698D01*
X031373Y053723D01*
X031395Y053750D01*
X031414Y053779D01*
X031430Y053811D01*
X031443Y053843D01*
X031451Y053877D01*
X031457Y053912D01*
X031458Y053947D01*
X031449Y053947D01*
X031448Y053912D01*
X031442Y053877D01*
X031433Y053844D01*
X031421Y053811D01*
X031405Y053780D01*
X031385Y053751D01*
X031363Y053725D01*
X031337Y053701D01*
X031310Y053680D01*
X031280Y053662D01*
X031248Y053648D01*
X031215Y053637D01*
X031181Y053630D01*
X031146Y053626D01*
X031111Y053627D01*
X031077Y053631D01*
X031043Y053639D01*
X031010Y053651D01*
X030979Y053666D01*
X030949Y053685D01*
X030922Y053707D01*
X030898Y053731D01*
X030876Y053758D01*
X030857Y053788D01*
X030842Y053819D01*
X030830Y053852D01*
X030822Y053886D01*
X030818Y053920D01*
X030817Y053955D01*
X030821Y053990D01*
X030828Y054024D01*
X030839Y054057D01*
X030853Y054089D01*
X030871Y054119D01*
X030892Y054146D01*
X030916Y054172D01*
X030942Y054194D01*
X030971Y054214D01*
X031002Y054230D01*
X031035Y054242D01*
X031068Y054251D01*
X031103Y054257D01*
X031138Y054258D01*
X031137Y054249D01*
X031104Y054248D01*
X031070Y054242D01*
X031037Y054234D01*
X031006Y054221D01*
X030976Y054206D01*
X030948Y054187D01*
X030922Y054165D01*
X030899Y054140D01*
X030878Y054113D01*
X030861Y054084D01*
X030847Y054054D01*
X030836Y054021D01*
X030830Y053988D01*
X030826Y053955D01*
X030827Y053921D01*
X030831Y053887D01*
X030839Y053854D01*
X030850Y053823D01*
X030865Y053792D01*
X030883Y053764D01*
X030904Y053737D01*
X030928Y053713D01*
X030955Y053692D01*
X030983Y053674D01*
X031014Y053659D01*
X031045Y053648D01*
X031078Y053640D01*
X031112Y053636D01*
X031146Y053635D01*
X031179Y053639D01*
X031212Y053645D01*
X031245Y053656D01*
X031275Y053670D01*
X031304Y053687D01*
X031331Y053708D01*
X031356Y053731D01*
X031378Y053757D01*
X031397Y053785D01*
X031412Y053815D01*
X031425Y053846D01*
X031433Y053879D01*
X031439Y053913D01*
X031440Y053946D01*
X031431Y053946D01*
X031430Y053912D01*
X031424Y053879D01*
X031415Y053847D01*
X031403Y053816D01*
X031387Y053786D01*
X031368Y053758D01*
X031346Y053733D01*
X031321Y053711D01*
X031293Y053691D01*
X031264Y053674D01*
X031233Y053661D01*
X031201Y053652D01*
X031168Y053646D01*
X031134Y053644D01*
X031101Y053646D01*
X031068Y053651D01*
X031035Y053660D01*
X031004Y053673D01*
X030975Y053689D01*
X030947Y053709D01*
X030922Y053731D01*
X030900Y053756D01*
X030880Y053784D01*
X030864Y053813D01*
X030851Y053844D01*
X030842Y053877D01*
X030837Y053910D01*
X030835Y053943D01*
X030837Y053977D01*
X030843Y054010D01*
X030852Y054042D01*
X030865Y054073D01*
X030882Y054102D01*
X030902Y054130D01*
X030924Y054155D01*
X030949Y054177D01*
X030977Y054196D01*
X031007Y054212D01*
X031038Y054224D01*
X031070Y054233D01*
X031103Y054239D01*
X031137Y054240D01*
X031137Y054231D01*
X031103Y054229D01*
X031070Y054224D01*
X031038Y054215D01*
X031007Y054202D01*
X030978Y054186D01*
X030951Y054167D01*
X030926Y054144D01*
X030905Y054119D01*
X030886Y054091D01*
X030870Y054062D01*
X030858Y054031D01*
X030850Y053999D01*
X030845Y053965D01*
X030844Y053932D01*
X030847Y053899D01*
X030854Y053866D01*
X030865Y053835D01*
X030879Y053804D01*
X030896Y053776D01*
X030917Y053750D01*
X030941Y053726D01*
X030967Y053705D01*
X030995Y053688D01*
X031026Y053674D01*
X031057Y053663D01*
X031090Y053656D01*
X031123Y053653D01*
X031156Y053654D01*
X031190Y053659D01*
X031222Y053667D01*
X031253Y053679D01*
X031282Y053695D01*
X031310Y053714D01*
X031335Y053735D01*
X031358Y053760D01*
X031377Y053787D01*
X031393Y053816D01*
X031406Y053847D01*
X031415Y053879D01*
X031420Y053912D01*
X031422Y053946D01*
D16*
X016660Y009323D03*
D17*
X035041Y042245D03*
X035041Y042337D03*
D18*
X029266Y056342D03*
X022116Y056342D03*
D19*
X022116Y053390D03*
X029266Y053390D03*
D20*
X026141Y035341D03*
X028641Y032791D03*
X018941Y026766D03*
X010666Y028916D03*
X028441Y016191D03*
D21*
X029466Y045091D02*
X027241Y045091D01*
X025066Y047266D01*
X016209Y056491D02*
X016209Y057491D01*
X014241Y057491D02*
X014241Y056491D01*
D22*
X033016Y025516D03*
X034791Y025516D03*
X034791Y019516D03*
X033016Y019516D03*
D23*
X022991Y035691D03*
X035041Y044291D03*
D24*
X035041Y042291D03*
X020991Y035691D03*
D25*
X016590Y013991D03*
X015842Y013991D03*
D26*
X015641Y014041D03*
X016816Y014016D03*
X018091Y014016D03*
X019666Y013766D03*
X020741Y013591D03*
X020716Y012716D03*
X021066Y011616D03*
X021891Y012841D03*
X021241Y014016D03*
X021466Y015566D03*
X022891Y016016D03*
X022891Y016841D03*
X022041Y017591D03*
X023891Y017566D03*
X024766Y016166D03*
X024741Y014716D03*
X023891Y013916D03*
X023391Y014016D03*
X023391Y013466D03*
X023891Y012791D03*
X023391Y012141D03*
X022891Y012216D03*
X023891Y011741D03*
X024591Y012541D03*
X025666Y012141D03*
X023891Y015666D03*
X025666Y017891D03*
X024691Y020391D03*
X023891Y019341D03*
X023391Y021066D03*
X023891Y021991D03*
X022891Y023266D03*
X023891Y024741D03*
X024441Y024716D03*
X024416Y023941D03*
X025166Y024316D03*
X025791Y024716D03*
X025466Y026591D03*
X025916Y027816D03*
X024991Y031241D03*
X023891Y029891D03*
X023391Y029991D03*
X022891Y028941D03*
X022366Y028191D03*
X022366Y026716D03*
X023391Y026016D03*
X022891Y025291D03*
X023891Y027241D03*
X021141Y029991D03*
X019291Y031116D03*
X019291Y032866D03*
X017916Y029766D03*
X017891Y028941D03*
X015491Y026016D03*
X015191Y026691D03*
X015091Y024891D03*
X016566Y025291D03*
X017791Y023716D03*
X017791Y023016D03*
X016816Y021116D03*
X016096Y021986D03*
X015391Y022416D03*
X015366Y021466D03*
X015566Y019791D03*
X014566Y019791D03*
X013966Y018591D03*
X014416Y018316D03*
X013691Y019791D03*
X012991Y020141D03*
X013441Y020516D03*
X012366Y020041D03*
X011566Y019666D03*
X011091Y019116D03*
X012366Y018491D03*
X010966Y016441D03*
X010316Y015816D03*
X011416Y016166D03*
X011966Y015591D03*
X012366Y015941D03*
X011841Y015066D03*
X012366Y014941D03*
X012741Y013966D03*
X013566Y014816D03*
X014016Y015141D03*
X013891Y015991D03*
X014266Y014066D03*
X015966Y011141D03*
X014216Y010366D03*
X012216Y010366D03*
X011091Y011166D03*
X010691Y010741D03*
X010266Y010366D03*
X009641Y009741D03*
X010716Y008666D03*
X011366Y008241D03*
X009491Y012041D03*
X010191Y012291D03*
X010716Y012291D03*
X011541Y012066D03*
X011041Y014066D03*
X010091Y014191D03*
X009766Y019041D03*
X009716Y020316D03*
X010841Y021016D03*
X010466Y023066D03*
X010616Y024016D03*
X011016Y025116D03*
X010041Y025041D03*
X011016Y026591D03*
X012666Y026916D03*
X013466Y026466D03*
X013066Y024891D03*
X012116Y023216D03*
X012666Y022816D03*
X013491Y022516D03*
X009716Y028416D03*
X012241Y031891D03*
X012091Y033366D03*
X010866Y033941D03*
X009691Y032916D03*
X012691Y035416D03*
X014766Y032216D03*
X016216Y033516D03*
X012841Y039841D03*
X009116Y038341D03*
X011966Y045191D03*
X013416Y046466D03*
X016866Y048016D03*
X019791Y044716D03*
X020216Y045416D03*
X019566Y042191D03*
X021116Y041441D03*
X025266Y044491D03*
X025866Y045241D03*
X030641Y041016D03*
X028466Y037016D03*
X026191Y034091D03*
X026866Y032966D03*
X028891Y029891D03*
X030691Y031891D03*
X024391Y033641D03*
X023891Y033216D03*
X023891Y034191D03*
X022366Y032816D03*
X021166Y024216D03*
X021016Y022591D03*
X021466Y021066D03*
X020141Y019591D03*
X019566Y019716D03*
X020141Y017591D03*
X018791Y011966D03*
X028466Y013791D03*
X029341Y012066D03*
X029816Y010941D03*
X030616Y010941D03*
X031441Y010966D03*
X032191Y011716D03*
X031216Y014016D03*
X030591Y014816D03*
X030391Y017391D03*
X031166Y017391D03*
X031915Y017391D03*
X032416Y016266D03*
X033016Y017841D03*
X033266Y052166D03*
X033941Y055516D03*
D27*
X029566Y050866D03*
X029166Y050491D03*
X028766Y050866D03*
X028366Y050491D03*
X027966Y050866D03*
X027566Y050491D03*
X027166Y050866D03*
X027166Y050091D03*
X027566Y049691D03*
X027966Y050091D03*
X028366Y049691D03*
X028766Y050091D03*
X029166Y049691D03*
X029566Y050091D03*
X029566Y049291D03*
X029166Y048891D03*
X028766Y049291D03*
X028366Y048891D03*
X027966Y049291D03*
X027566Y048891D03*
X027166Y049291D03*
X029351Y045641D03*
X029751Y045641D03*
X030151Y045641D03*
X030151Y045241D03*
X030151Y044841D03*
X030151Y044441D03*
X029751Y044441D03*
X029751Y044841D03*
X029751Y045241D03*
X029351Y045241D03*
X029351Y044841D03*
X029351Y044441D03*
X026651Y053366D03*
X026176Y053366D03*
X025701Y053366D03*
X025226Y053366D03*
X024751Y053366D03*
X022766Y048991D03*
X021966Y045656D03*
X021966Y045256D03*
X021966Y044856D03*
X021966Y044456D03*
X021966Y044056D03*
X021566Y044056D03*
X021566Y044456D03*
X021566Y044856D03*
X021566Y045256D03*
X021566Y045656D03*
X017041Y043081D03*
X017041Y042731D03*
X017141Y041116D03*
X017116Y040326D03*
X017116Y039951D03*
X017116Y039576D03*
X018791Y038901D03*
X017316Y034816D03*
X016666Y034816D03*
X015466Y033231D03*
X014216Y035916D03*
X013566Y035916D03*
X012266Y036116D03*
X009716Y036341D03*
X013141Y040676D03*
X013141Y041051D03*
X013566Y043191D03*
X013666Y044466D03*
X013666Y044941D03*
X013666Y045416D03*
X013166Y045416D03*
X013166Y044941D03*
X013166Y044466D03*
X014166Y044466D03*
X014166Y044941D03*
X014166Y045416D03*
X014466Y048916D03*
X014891Y048916D03*
X014891Y049341D03*
X014891Y049766D03*
X014891Y050191D03*
X014891Y050616D03*
X014466Y050616D03*
X014466Y050191D03*
X014466Y049766D03*
X014466Y049341D03*
X015316Y049341D03*
X015741Y049341D03*
X015741Y049766D03*
X015741Y050191D03*
X015741Y050616D03*
X015316Y050616D03*
X015316Y050191D03*
X015316Y049766D03*
X015316Y048916D03*
X015741Y048916D03*
X015741Y052166D03*
X015741Y052591D03*
X015741Y053016D03*
X015741Y053441D03*
X015741Y053866D03*
X015316Y053866D03*
X015316Y053441D03*
X015316Y053016D03*
X015316Y052591D03*
X015316Y052166D03*
X014891Y052166D03*
X014891Y052591D03*
X014891Y053016D03*
X014891Y053441D03*
X014891Y053866D03*
X014466Y053866D03*
X014466Y053441D03*
X014466Y053016D03*
X014466Y052591D03*
X014466Y052166D03*
X011316Y052166D03*
X011316Y052591D03*
X011316Y053016D03*
X011316Y053441D03*
X011316Y053866D03*
X010891Y053866D03*
X010891Y053441D03*
X010891Y053016D03*
X010891Y052591D03*
X010891Y052166D03*
X010466Y052166D03*
X010466Y052591D03*
X010466Y053016D03*
X010466Y053441D03*
X010466Y053866D03*
X010041Y053866D03*
X010041Y053441D03*
X010041Y053016D03*
X010041Y052591D03*
X010041Y052166D03*
X010041Y050616D03*
X010466Y050616D03*
X010891Y050616D03*
X011316Y050616D03*
X011316Y050191D03*
X011316Y049766D03*
X011316Y049341D03*
X011316Y048916D03*
X010891Y048916D03*
X010891Y049341D03*
X010891Y049766D03*
X010891Y050191D03*
X010466Y050191D03*
X010466Y049766D03*
X010466Y049341D03*
X010466Y048916D03*
X010041Y048916D03*
X010041Y049341D03*
X010041Y049766D03*
X010041Y050191D03*
X021391Y032616D03*
X019516Y032116D03*
X015666Y029616D03*
X014516Y029216D03*
X012841Y030016D03*
X012516Y030516D03*
X025791Y019941D03*
X026266Y019941D03*
X026266Y019466D03*
X025791Y019466D03*
X026741Y019466D03*
X027216Y019466D03*
X027691Y019466D03*
X027691Y019941D03*
X027216Y019941D03*
X026741Y019941D03*
X029391Y023866D03*
X029391Y024366D03*
X029891Y024366D03*
X030391Y024366D03*
X030891Y024366D03*
X031391Y024366D03*
X031391Y023866D03*
X030891Y023866D03*
X030391Y023866D03*
X029891Y023866D03*
X031891Y023866D03*
X031891Y024366D03*
X036991Y016141D03*
X036991Y015716D03*
X036991Y012416D03*
X036991Y011991D03*
X035891Y039116D03*
X035891Y039491D03*
X035891Y039841D03*
D28*
X034066Y041316D02*
X035041Y042245D01*
X034366Y042291D01*
X033891Y041816D01*
X031541Y041816D01*
X031166Y041441D01*
X031166Y040566D01*
X031041Y040441D01*
X031016Y040441D01*
X031016Y038866D01*
X030941Y038791D01*
X030831Y038901D01*
X018981Y038901D01*
X018791Y038901D02*
X017791Y038901D01*
X017116Y039576D01*
X017116Y039951D01*
X017116Y040326D01*
X017116Y041091D01*
X017141Y041116D01*
X017141Y042631D01*
X017041Y042731D01*
X017041Y043081D01*
X013566Y043191D02*
X013566Y044366D01*
X013666Y044466D01*
X013566Y043191D02*
X013141Y042766D01*
X013141Y041051D01*
X013141Y040676D01*
X012266Y036466D02*
X012266Y036116D01*
X012266Y036466D02*
X014216Y036466D01*
X014216Y035916D01*
X014216Y036466D02*
X015766Y036466D01*
X015741Y036441D01*
X015741Y034091D01*
X015016Y033366D01*
X012091Y033366D01*
X011641Y032916D01*
X009691Y032916D01*
X009716Y036341D02*
X009841Y036466D01*
X012266Y036466D01*
X014741Y032216D02*
X013041Y030516D01*
X012841Y030516D01*
X012841Y030016D01*
X012841Y030516D02*
X012516Y030516D01*
X014516Y029216D02*
X015266Y029216D01*
X015666Y029616D01*
X017766Y029616D01*
X017916Y029766D01*
X019291Y031116D01*
X023666Y031116D01*
X024641Y032091D01*
X023891Y034191D02*
X026066Y034191D01*
X026191Y034066D01*
X027741Y032766D02*
X027091Y032116D01*
X019516Y032116D01*
X019428Y032204D01*
X014778Y032204D01*
X014766Y032216D01*
X014741Y032216D01*
X017316Y034816D02*
X017316Y036441D01*
X015766Y036466D02*
X023866Y036466D01*
X023891Y036441D01*
X023891Y036791D01*
X024816Y037716D01*
X028441Y037716D01*
X028466Y037691D01*
X028466Y037016D01*
X028441Y037716D02*
X029866Y037716D01*
X030941Y038791D01*
X031666Y039316D02*
X031666Y041191D01*
X031791Y041316D01*
X034066Y041316D01*
X033166Y038941D02*
X032041Y038941D01*
X031666Y039316D01*
X033166Y038941D02*
X033491Y038616D01*
X033491Y032841D01*
X030016Y029366D01*
X030016Y024766D01*
X028891Y029891D02*
X028891Y030116D01*
X030666Y031891D01*
X030691Y031891D02*
X030691Y032341D01*
X029266Y033766D01*
X027841Y033766D01*
X027741Y033666D01*
X027741Y037616D01*
X027691Y037666D01*
X027741Y033666D02*
X027741Y032766D01*
X028891Y029891D02*
X023891Y029891D01*
X023391Y029991D02*
X021141Y029991D01*
X022891Y028941D02*
X017891Y028941D01*
X015166Y027441D02*
X015166Y026691D01*
X015191Y026691D01*
X015166Y027441D02*
X023691Y027441D01*
X023891Y027241D01*
X023891Y024741D02*
X015241Y024741D01*
X015091Y024891D01*
X016616Y023616D02*
X017216Y023016D01*
X017791Y023016D01*
X017791Y022041D01*
X017741Y021991D02*
X016066Y021991D01*
X016096Y021986D02*
X015366Y021986D01*
X014021Y021986D01*
X013491Y022516D01*
X012666Y022516D01*
X010991Y022516D01*
X009716Y021241D01*
X009716Y020316D01*
X009716Y019091D01*
X009766Y019041D01*
X009766Y016366D01*
X010316Y015816D01*
X010316Y014066D01*
X010216Y014066D01*
X010091Y014191D01*
X010316Y014066D02*
X011041Y014066D01*
X012216Y010366D02*
X014216Y010366D01*
X016141Y016816D02*
X022116Y016816D01*
X022691Y017391D01*
X030391Y017391D01*
X031166Y017391D01*
X031166Y017391D01*
X031915Y017391D01*
X031916Y017391D01*
X032191Y011716D02*
X031441Y010966D01*
X031416Y010941D01*
X030616Y010941D01*
X029816Y010941D01*
X029291Y010941D01*
X027491Y012741D01*
X023941Y012741D01*
X023891Y012791D01*
X023891Y011741D02*
X023660Y011510D01*
X023660Y010323D01*
X023891Y019316D02*
X023616Y019591D01*
X020141Y019591D01*
X021016Y021991D02*
X023891Y021991D01*
X021016Y021991D02*
X017741Y021991D01*
X016616Y023616D02*
X013191Y023616D01*
X012791Y024016D01*
X010616Y024016D01*
X011016Y026591D02*
X011866Y027441D01*
X015166Y027441D01*
X020991Y035691D02*
X020991Y036441D01*
X023891Y036441D02*
X023891Y034191D01*
D29*
X024391Y033641D02*
X016341Y033641D01*
X016316Y033616D01*
X016291Y033591D01*
X016216Y033516D01*
X015466Y033316D02*
X015241Y033541D01*
X015466Y033316D02*
X015466Y033231D01*
X015491Y026016D02*
X023391Y026016D01*
X022891Y025291D02*
X016566Y025291D01*
X011191Y025291D01*
X011016Y025116D01*
X010616Y023216D02*
X010466Y023066D01*
X010616Y023216D02*
X012116Y023216D01*
X012666Y022816D02*
X012666Y022516D01*
X015391Y022416D02*
X015391Y022011D01*
X015366Y021986D01*
X017741Y021991D02*
X017791Y022041D01*
X018241Y023266D02*
X017791Y023716D01*
X018241Y023266D02*
X022891Y023266D01*
X024441Y024716D02*
X025791Y024716D01*
X025466Y026591D02*
X025341Y026716D01*
X022366Y026716D01*
X021016Y022591D02*
X021016Y021991D01*
X021466Y021066D02*
X023391Y021066D01*
X022891Y016841D02*
X031841Y016841D01*
X032416Y016266D01*
X033016Y017841D02*
X033016Y019516D01*
X034691Y019616D02*
X034791Y019516D01*
X034691Y019616D02*
X034691Y019366D01*
X036441Y016291D02*
X036341Y016141D01*
X036266Y016141D01*
X036441Y016291D02*
X036541Y016041D01*
X036641Y016141D01*
X036566Y012041D02*
X036416Y011891D01*
X036266Y011991D01*
X036566Y012041D02*
X036641Y011991D01*
X029341Y012066D02*
X029166Y012066D01*
X027766Y013466D01*
X023391Y013466D01*
X023391Y014016D02*
X021241Y014016D01*
X019916Y014016D01*
X019666Y013766D01*
X018866Y012041D02*
X018791Y011966D01*
X018866Y012041D02*
X022716Y012041D01*
X022891Y012216D01*
X023391Y012141D02*
X025666Y012141D01*
X023660Y010323D02*
X022660Y010323D01*
X021660Y010323D01*
X020666Y010341D02*
X020666Y010866D01*
X022891Y016016D02*
X022966Y016091D01*
X024691Y016091D01*
X024766Y016166D01*
X016653Y010316D02*
X016366Y010316D01*
X015791Y009741D01*
X009641Y009741D01*
X015141Y016816D02*
X016141Y016816D01*
X024991Y031241D02*
X027091Y031241D01*
X028641Y032791D01*
X026866Y032966D02*
X026716Y032816D01*
X022366Y032816D01*
X017591Y048416D02*
X018991Y049816D01*
X018991Y055091D01*
X021716Y057816D01*
X032316Y057816D01*
X033941Y056191D01*
X033941Y055516D01*
X034991Y054466D01*
X034991Y053391D01*
X035691Y052691D01*
X035716Y052691D01*
X036216Y052391D02*
X035991Y052166D01*
X033266Y052166D01*
X036216Y052391D02*
X036216Y054216D01*
X036691Y054691D01*
X036716Y054691D01*
X035041Y042291D02*
X035041Y042245D01*
X036441Y039766D02*
X035891Y039491D01*
X032816Y040466D02*
X032716Y040216D01*
X017591Y048416D02*
X009616Y048416D01*
X008866Y047741D01*
X008866Y038591D01*
X009116Y038341D01*
D30*
X012341Y035416D02*
X010866Y033941D01*
X012341Y035416D02*
X012691Y035416D01*
X020866Y044766D02*
X020216Y045416D01*
X020216Y045391D01*
X020866Y044766D02*
X020866Y042866D01*
X022616Y041116D01*
X030091Y041116D01*
X031216Y042241D01*
X033716Y042241D01*
X033916Y042441D01*
X034891Y042441D01*
X035041Y042337D01*
X029351Y044841D02*
X029001Y044491D01*
X028041Y044491D01*
X028066Y044516D02*
X025141Y041591D01*
X023366Y041591D01*
X021566Y043391D01*
X021566Y044056D01*
X022091Y013591D02*
X020741Y013591D01*
X020016Y011516D02*
X020666Y010866D01*
X020660Y010347D02*
X020660Y010323D01*
X020016Y011516D02*
X016316Y011516D01*
X016241Y011591D01*
X015441Y011591D01*
X014216Y010366D01*
X022091Y013591D02*
X022891Y012791D01*
X023891Y012791D01*
D31*
X025166Y009791D02*
X025166Y008866D01*
X026041Y007991D01*
X032666Y007991D01*
X036416Y011741D01*
X036416Y011891D01*
X034691Y012466D02*
X032041Y009816D01*
X028141Y009816D01*
X034691Y012466D02*
X034691Y019366D01*
X036441Y016291D02*
X036441Y039766D01*
X036441Y040891D01*
X035087Y042291D01*
X035016Y042316D02*
X033991Y043341D01*
X033341Y043341D01*
X032916Y040166D02*
X033941Y040166D01*
X034741Y039366D01*
X034741Y032291D01*
X031250Y028801D01*
X031250Y027762D01*
X033450Y027762D02*
X033844Y027363D01*
X034716Y026491D01*
X034716Y025641D01*
D32*
X031234Y056991D03*
X029266Y056991D03*
D33*
X022366Y028191D02*
X022266Y028091D01*
X010041Y028091D01*
X009716Y028416D01*
D34*
X023766Y042116D03*
X023766Y042516D03*
X023766Y042916D03*
X024191Y042916D03*
X024191Y042516D03*
X024191Y042116D03*
X024616Y042116D03*
X024616Y042516D03*
X024616Y042916D03*
X032291Y040641D03*
X032716Y040641D03*
X033141Y040641D03*
X033141Y040216D03*
X033141Y039791D03*
X032716Y039791D03*
X032716Y040216D03*
X032291Y040216D03*
X032291Y039791D03*
X034366Y025541D03*
X034366Y025116D03*
X034791Y025116D03*
X035216Y025116D03*
X035216Y025541D03*
X035216Y019916D03*
X035216Y019491D03*
X034791Y019916D03*
X034366Y019916D03*
X034366Y019491D03*
X035891Y016141D03*
X036266Y016141D03*
X036641Y016141D03*
X036641Y015716D03*
X036266Y015716D03*
X035891Y015716D03*
X035891Y012416D03*
X036266Y012416D03*
X036641Y012416D03*
X036641Y011991D03*
X036266Y011991D03*
X035891Y011991D03*
D35*
X019660Y010548D02*
X019067Y011141D01*
X015966Y011141D01*
X019660Y010548D02*
X019660Y010323D01*
X015891Y048766D02*
X014316Y048766D01*
X014316Y050766D01*
X015891Y050766D01*
X015891Y048766D01*
X015891Y048812D02*
X014316Y048812D01*
X014316Y048931D02*
X015891Y048931D01*
X015891Y049049D02*
X014316Y049049D01*
X014316Y049168D02*
X015891Y049168D01*
X015891Y049286D02*
X014316Y049286D01*
X014316Y049405D02*
X015891Y049405D01*
X015891Y049523D02*
X014316Y049523D01*
X014316Y049642D02*
X015891Y049642D01*
X015891Y049760D02*
X014316Y049760D01*
X014316Y049879D02*
X015891Y049879D01*
X015891Y049997D02*
X014316Y049997D01*
X014316Y050116D02*
X015891Y050116D01*
X015891Y050234D02*
X014316Y050234D01*
X014316Y050353D02*
X015891Y050353D01*
X015891Y050471D02*
X014316Y050471D01*
X014316Y050590D02*
X015891Y050590D01*
X015891Y050708D02*
X014316Y050708D01*
X014316Y052016D02*
X015891Y052016D01*
X015891Y054016D01*
X014316Y054016D01*
X014316Y052016D01*
X014316Y052130D02*
X015891Y052130D01*
X015891Y052249D02*
X014316Y052249D01*
X014316Y052367D02*
X015891Y052367D01*
X015891Y052486D02*
X014316Y052486D01*
X014316Y052604D02*
X015891Y052604D01*
X015891Y052723D02*
X014316Y052723D01*
X014316Y052841D02*
X015891Y052841D01*
X015891Y052960D02*
X014316Y052960D01*
X014316Y053078D02*
X015891Y053078D01*
X015891Y053197D02*
X014316Y053197D01*
X014316Y053315D02*
X015891Y053315D01*
X015891Y053434D02*
X014316Y053434D01*
X014316Y053552D02*
X015891Y053552D01*
X015891Y053671D02*
X014316Y053671D01*
X014316Y053789D02*
X015891Y053789D01*
X015891Y053908D02*
X014316Y053908D01*
D36*
X033016Y025516D02*
X033016Y023466D01*
X034716Y021766D01*
X034716Y019516D01*
X034791Y019441D01*
D37*
X035975Y007016D03*
X009991Y007016D03*
X021014Y049535D03*
X009991Y057016D03*
X035975Y057016D03*
D38*
X022941Y048016D02*
X016866Y048016D01*
D39*
X016966Y049741D02*
X016316Y049741D01*
X016966Y049741D02*
X017741Y050516D01*
X017741Y055816D01*
X016566Y056991D01*
X016209Y056991D01*
X014241Y056991D02*
X014241Y053866D01*
M02*
