%
M48
M72
T01C0.0236
T02C0.0276
T03C0.0360
T04C0.0394
T05C0.0400
T06C0.0433
T07C0.0512
T08C0.0531
T09C0.0590
T10C0.1260
T11C0.3150
%
T01
X9641Y9741
X10266Y10366
X10691Y10741
X11091Y11166
X11541Y12066
X10716Y12291
X10191Y12291
X9491Y12041
X10091Y14191
X11041Y14066
X11841Y15066
X12366Y14941
X11966Y15591
X12366Y15941
X11416Y16166
X10966Y16441
X10316Y15816
X9766Y19041
X9716Y20316
X10841Y21016
X11566Y19666
X11091Y19116
X12366Y18491
X12366Y20041
X12991Y20141
X13441Y20516
X13691Y19791
X13966Y18591
X14416Y18316
X14566Y19791
X15566Y19791
X15366Y21466
X16096Y21986
X15391Y22416
X16816Y21116
X17791Y23016
X17791Y23716
X16566Y25291
X15491Y26016
X15191Y26691
X15091Y24891
X13466Y26466
X12666Y26916
X13066Y24891
X12116Y23216
X12666Y22816
X13491Y22516
X11016Y25116
X10616Y24016
X10466Y23066
X10041Y25041
X11016Y26591
X9716Y28416
X12516Y30516
X12841Y30016
X12241Y31891
X12091Y33366
X10866Y33941
X9691Y32916
X9716Y36341
X9116Y38341
X12266Y36116
X12691Y35416
X13566Y35916
X14216Y35916
X15466Y33231
X16216Y33516
X16666Y34816
X17316Y34816
X19291Y32866
X19516Y32116
X19291Y31116
X17916Y29766
X17891Y28941
X15666Y29616
X14516Y29216
X14766Y32216
X18791Y38901
X17116Y39576
X17116Y39951
X17116Y40326
X17141Y41116
X17041Y42731
X17041Y43081
X19566Y42191
X21116Y41441
X21566Y44056
X21966Y44056
X21966Y44456
X21966Y44856
X21966Y45256
X21966Y45656
X21566Y45656
X21566Y45256
X21566Y44856
X21566Y44456
X20216Y45416
X19791Y44716
X22766Y48991
X24751Y53366
X25226Y53366
X25701Y53366
X26176Y53366
X26651Y53366
X27166Y50866
X27566Y50491
X27966Y50866
X28366Y50491
X28766Y50866
X29166Y50491
X29566Y50866
X29566Y50091
X29166Y49691
X29566Y49291
X29166Y48891
X28766Y49291
X28366Y49691
X28766Y50091
X27966Y50091
X27566Y49691
X27966Y49291
X28366Y48891
X27566Y48891
X27166Y49291
X27166Y50091
X29351Y45641
X29751Y45641
X30151Y45641
X30151Y45241
X30151Y44841
X30151Y44441
X29751Y44441
X29751Y44841
X29751Y45241
X29351Y45241
X29351Y44841
X29351Y44441
X30641Y41016
X28466Y37016
X26191Y34091
X26866Y32966
X24991Y31241
X23891Y29891
X23391Y29991
X22891Y28941
X22366Y28191
X22366Y26716
X23391Y26016
X22891Y25291
X23891Y24741
X24441Y24716
X24416Y23941
X25166Y24316
X25791Y24716
X25466Y26591
X25916Y27816
X23891Y27241
X21141Y29991
X21391Y32616
X22366Y32816
X23891Y33216
X23891Y34191
X24391Y33641
X28891Y29891
X30691Y31891
X30891Y24366
X31391Y24366
X31391Y23866
X30891Y23866
X30391Y23866
X30391Y24366
X29891Y24366
X29891Y23866
X29391Y23866
X29391Y24366
X31891Y24366
X31891Y23866
X33016Y17841
X32416Y16266
X31915Y17391
X31166Y17391
X30391Y17391
X30591Y14816
X31216Y14016
X32191Y11716
X31441Y10966
X30616Y10941
X29816Y10941
X29341Y12066
X28466Y13791
X25666Y12141
X24591Y12541
X23891Y12791
X23391Y12141
X22891Y12216
X23891Y11741
X23391Y13466
X23391Y14016
X23891Y13916
X24741Y14716
X24766Y16166
X23891Y15666
X22891Y16016
X22891Y16841
X22041Y17591
X23891Y17566
X23891Y19341
X24691Y20391
X25791Y19941
X26266Y19941
X26266Y19466
X25791Y19466
X26741Y19466
X27216Y19466
X27691Y19466
X27691Y19941
X27216Y19941
X26741Y19941
X25666Y17891
X23391Y21066
X23891Y21991
X22891Y23266
X21466Y21066
X21016Y22591
X21166Y24216
X20141Y19591
X19566Y19716
X20141Y17591
X21466Y15566
X21241Y14016
X20741Y13591
X20716Y12716
X21066Y11616
X21891Y12841
X19666Y13766
X18791Y11966
X18091Y14016
X16816Y14016
X15641Y14041
X14266Y14066
X13566Y14816
X14016Y15141
X13891Y15991
X12741Y13966
X12216Y10366
X10716Y8666
X11366Y8241
X14216Y10366
X15966Y11141
X12841Y39841
X13141Y40676
X13141Y41051
X13566Y43191
X13666Y44466
X13666Y44941
X13666Y45416
X13166Y45416
X13166Y44941
X13166Y44466
X14166Y44466
X14166Y44941
X14166Y45416
X13416Y46466
X11966Y45191
X11316Y48916
X11316Y49341
X11316Y49766
X11316Y50191
X11316Y50616
X10891Y50616
X10891Y50191
X10891Y49766
X10891Y49341
X10891Y48916
X10466Y48916
X10466Y49341
X10466Y49766
X10466Y50191
X10466Y50616
X10041Y50616
X10041Y50191
X10041Y49766
X10041Y49341
X10041Y48916
X10041Y52166
X10466Y52166
X10891Y52166
X11316Y52166
X11316Y52591
X11316Y53016
X11316Y53441
X11316Y53866
X10891Y53866
X10891Y53441
X10891Y53016
X10891Y52591
X10466Y52591
X10466Y53016
X10466Y53441
X10466Y53866
X10041Y53866
X10041Y53441
X10041Y53016
X10041Y52591
X14466Y52591
X14891Y52591
X14891Y53016
X14891Y53441
X14891Y53866
X14466Y53866
X14466Y53441
X14466Y53016
X14466Y52166
X14891Y52166
X15316Y52166
X15741Y52166
X15741Y52591
X15741Y53016
X15741Y53441
X15741Y53866
X15316Y53866
X15316Y53441
X15316Y53016
X15316Y52591
X15316Y50616
X15741Y50616
X15741Y50191
X15741Y49766
X15741Y49341
X15741Y48916
X15316Y48916
X15316Y49341
X15316Y49766
X15316Y50191
X14891Y50191
X14891Y50616
X14466Y50616
X14466Y50191
X14466Y49766
X14891Y49766
X14891Y49341
X14891Y48916
X14466Y48916
X14466Y49341
X16866Y48016
X25266Y44491
X25866Y45241
X33266Y52166
X33941Y55516
X35891Y39841
X35891Y39491
X35891Y39116
X36991Y16141
X36991Y15716
X36991Y12416
X36991Y11991
T02
X36641Y11991
X36266Y11991
X35891Y11991
X35891Y12416
X36266Y12416
X36641Y12416
X36641Y15716
X36266Y15716
X35891Y15716
X35891Y16141
X36266Y16141
X36641Y16141
X35216Y19491
X35216Y19916
X34791Y19916
X34366Y19916
X34366Y19491
X34366Y25116
X34791Y25116
X35216Y25116
X35216Y25541
X34366Y25541
X33141Y39791
X33141Y40216
X33141Y40641
X32716Y40641
X32716Y40216
X32716Y39791
X32291Y39791
X32291Y40216
X32291Y40641
X24616Y42116
X24616Y42516
X24616Y42916
X24191Y42916
X24191Y42516
X24191Y42116
X23766Y42116
X23766Y42516
X23766Y42916
T03
X33016Y25516
X34791Y25516
X34791Y19516
X33016Y19516
T04
X28660Y10323
X27660Y10323
X27660Y9323
X28660Y9323
X26660Y9323
X26660Y10323
X25660Y10323
X25660Y9323
X24660Y9323
X24660Y10323
X23660Y10323
X23660Y9323
X22660Y9323
X22660Y10323
X21660Y10323
X21660Y9323
X20660Y9323
X20660Y10323
X19660Y10323
X19660Y9323
X18660Y9323
X18660Y10323
X17660Y10323
X16660Y10323
X16660Y9323
X17660Y9323
X16141Y15816
X16141Y16816
X16141Y17816
X16141Y18816
X15141Y18816
X15141Y17816
X15141Y16816
X15141Y15816
X36741Y10091
X36741Y9091
X36716Y52691
X36716Y53691
X36716Y54691
X35716Y54691
X35716Y53691
X35716Y52691
T05
X35041Y44291
X35041Y42291
X22991Y35691
X20991Y35691
T06
X26141Y35341
X28641Y32791
X18941Y26766
X10666Y28916
X22116Y53390
X22116Y56342
X29266Y56342
X29266Y53390
X28441Y16191
T07
X29266Y56991
X31234Y56991
T08
X16209Y56991
X14241Y56991
T09
X29050Y27762
X31250Y27762
X33450Y27762
T10
X35975Y7016
X9991Y7016
X21014Y49535
X9991Y57016
X35975Y57016
T11
X31250Y35362
M30
