G75*
G70*
%OFA0B0*%
%FSLAX24Y24*%
%IPPOS*%
%LPD*%
%AMOC8*
5,1,8,0,0,1.08239X$1,22.5*
%
%ADD10R,0.1700X0.1275*%
%ADD11C,0.0120*%
%ADD12C,0.0140*%
%ADD13C,0.0760*%
%ADD14R,0.0789X0.0631*%
%ADD15R,0.0474X0.0513*%
%ADD16R,0.0592X0.0671*%
%ADD17R,0.0671X0.0592*%
%ADD18R,0.0789X0.0710*%
%ADD19R,0.0760X0.0270*%
%ADD20R,0.0513X0.0474*%
%ADD21R,0.0710X0.0218*%
%ADD22R,0.0300X0.1080*%
%ADD23OC8,0.0674*%
%ADD24C,0.0973*%
%ADD25C,0.3350*%
%ADD26R,0.0552X0.0671*%
%ADD27R,0.0671X0.0552*%
%ADD28R,0.0530X0.0830*%
%ADD29R,0.2125X0.1375*%
%ADD30OC8,0.0516*%
%ADD31R,0.0316X0.0690*%
%ADD32R,0.0631X0.0474*%
%ADD33R,0.0474X0.0631*%
%ADD34R,0.1340X0.0789*%
%ADD35R,0.0680X0.0300*%
%ADD36R,0.0600X0.0300*%
%ADD37R,0.0450X0.1060*%
%ADD38R,0.2850X0.2770*%
%ADD39R,0.1419X0.0828*%
%ADD40R,0.0860X0.0300*%
%ADD41R,0.0674X0.0674*%
%ADD42R,0.0710X0.1143*%
%ADD43R,0.0790X0.0710*%
%ADD44R,0.1646X0.2315*%
%ADD45R,0.0631X0.0789*%
%ADD46R,0.2365X0.2444*%
%ADD47R,0.0592X0.0749*%
%ADD48R,0.0680X0.1280*%
%ADD49R,0.0580X0.0260*%
%ADD50R,0.0770X0.1240*%
%ADD51R,0.2049X0.0867*%
%ADD52R,0.0380X0.1360*%
%ADD53R,0.0552X0.0552*%
%ADD54R,0.0631X0.0631*%
%ADD55R,0.1143X0.0710*%
%ADD56R,0.0640X0.0220*%
%ADD57C,0.1360*%
%ADD58OC8,0.1360*%
%ADD59R,0.0690X0.0316*%
%ADD60R,0.2444X0.2365*%
%ADD61R,0.0749X0.0592*%
%ADD62R,0.0789X0.0946*%
%ADD63R,0.0220X0.0540*%
%ADD64R,0.0580X0.0300*%
%ADD65R,0.0946X0.0316*%
%ADD66OC8,0.0730*%
%ADD67R,0.0710X0.0789*%
%ADD68R,0.0300X0.0860*%
%ADD69C,0.1100*%
%ADD70OC8,0.0640*%
%ADD71R,0.1720X0.0550*%
%ADD72C,0.0780*%
%ADD73OC8,0.0780*%
%ADD74R,0.0550X0.1720*%
%ADD75R,0.0510X0.1680*%
%ADD76R,0.0516X0.0516*%
%ADD77C,0.2365*%
D10*
X028491Y046953D03*
D11*
X015616Y044441D02*
X014816Y044441D01*
D12*
X012641Y044416D02*
X011691Y044416D01*
X011691Y044191D02*
X012616Y044191D01*
D13*
X027241Y041616D02*
X027241Y038591D01*
X027616Y038216D01*
X031966Y038216D01*
D14*
X036166Y027485D03*
X036166Y026147D03*
X028491Y025060D03*
X028491Y023722D03*
D15*
X009491Y012431D03*
X009491Y013101D03*
X013491Y021456D03*
X013491Y022126D03*
X015091Y025181D03*
X015091Y025851D03*
X016831Y028741D03*
X017500Y028741D03*
X018166Y023676D03*
X018166Y023006D03*
X021016Y022176D03*
X021016Y021506D03*
X024416Y016776D03*
X024416Y016106D03*
X030391Y016206D03*
X030391Y016876D03*
X031441Y012051D03*
X031441Y011381D03*
X011016Y025506D03*
X011016Y026176D03*
X034316Y055531D03*
X034316Y056201D03*
D16*
X025840Y047016D03*
X025092Y047016D03*
X022640Y046466D03*
X021892Y046466D03*
X021685Y047641D03*
X021016Y047641D03*
X020347Y047641D03*
X020615Y046566D03*
X019867Y046566D03*
X019340Y045766D03*
X019340Y044916D03*
X019340Y044141D03*
X019340Y043366D03*
X018592Y043366D03*
X018592Y044141D03*
X018592Y044916D03*
X018592Y045766D03*
X019567Y042591D03*
X019567Y041816D03*
X020315Y041816D03*
X020315Y042591D03*
X021117Y042591D03*
X021117Y041816D03*
X021090Y041041D03*
X020342Y041041D03*
X021865Y041816D03*
X021865Y042591D03*
X018790Y038441D03*
X018042Y038441D03*
X016690Y039566D03*
X016690Y040341D03*
X015942Y040341D03*
X015942Y039566D03*
X015942Y041141D03*
X015942Y041966D03*
X016690Y041966D03*
X016690Y041141D03*
X014765Y043191D03*
X014017Y043191D03*
X012340Y043291D03*
X011592Y043291D03*
X011515Y046591D03*
X011515Y047416D03*
X010767Y047416D03*
X010767Y046591D03*
X015217Y046841D03*
X015965Y046841D03*
X011840Y036116D03*
X011092Y036116D03*
X010867Y033366D03*
X011615Y033366D03*
X015467Y032741D03*
X016215Y032741D03*
X018392Y030641D03*
X019140Y030641D03*
X016840Y029641D03*
X016092Y029641D03*
X016017Y024016D03*
X016765Y024016D03*
X015215Y024016D03*
X014467Y024016D03*
X013665Y024016D03*
X012917Y024016D03*
X012115Y024016D03*
X011367Y024016D03*
X010465Y019816D03*
X009717Y019816D03*
X009767Y018566D03*
X010515Y018566D03*
X010115Y014666D03*
X009367Y014666D03*
X017067Y020391D03*
X017815Y020391D03*
X019117Y020391D03*
X019865Y020391D03*
X020662Y020391D03*
X021410Y020391D03*
X026242Y023891D03*
X026990Y023891D03*
X026990Y024716D03*
X026990Y025566D03*
X026242Y025566D03*
X026242Y024716D03*
X026892Y028191D03*
X027640Y028191D03*
X029342Y029891D03*
X030090Y029891D03*
X031117Y031116D03*
X031117Y031891D03*
X031865Y031891D03*
X031865Y031116D03*
X032667Y031116D03*
X032667Y031891D03*
X033415Y031891D03*
X033415Y031116D03*
X033765Y029866D03*
X033017Y029866D03*
X031790Y025891D03*
X031042Y025891D03*
X031140Y019166D03*
X030392Y019166D03*
X027515Y015491D03*
X026767Y015491D03*
X032567Y014391D03*
X032567Y013566D03*
X032567Y012766D03*
X033315Y012766D03*
X033315Y013566D03*
X033315Y014391D03*
X034117Y014391D03*
X034117Y013566D03*
X034865Y013566D03*
X034865Y014391D03*
X033315Y011966D03*
X032567Y011966D03*
X033942Y017316D03*
X034690Y017316D03*
X020640Y011791D03*
X019892Y011791D03*
X027542Y039466D03*
X028290Y039466D03*
X028042Y040416D03*
X028790Y040416D03*
D17*
X031041Y040065D03*
X031041Y039317D03*
X025541Y032815D03*
X025541Y032067D03*
X025541Y031265D03*
X025541Y030517D03*
X025541Y029715D03*
X025541Y028967D03*
X025941Y027340D03*
X025941Y026592D03*
X021416Y031442D03*
X021416Y032190D03*
X017991Y027465D03*
X017991Y026717D03*
X016566Y026692D03*
X016566Y027440D03*
X015666Y027440D03*
X015666Y026692D03*
X013041Y031317D03*
X013041Y032065D03*
X010041Y027765D03*
X010041Y027017D03*
X010041Y026215D03*
X010041Y025467D03*
X009691Y030217D03*
X009691Y030965D03*
X009691Y031767D03*
X009691Y032515D03*
X009716Y035167D03*
X009716Y035915D03*
X009416Y042317D03*
X009416Y043065D03*
X009891Y046167D03*
X009891Y046915D03*
X012541Y046867D03*
X012541Y047615D03*
X013391Y047615D03*
X013391Y046867D03*
X014366Y046867D03*
X014366Y047615D03*
X020141Y044115D03*
X020141Y043367D03*
X023666Y044717D03*
X023666Y045465D03*
X023666Y046267D03*
X023666Y047015D03*
X024441Y045915D03*
X024441Y045167D03*
X024441Y044365D03*
X024441Y043617D03*
X024766Y039215D03*
X024766Y038467D03*
X023991Y038467D03*
X023991Y039215D03*
X025341Y034590D03*
X025341Y033842D03*
X020341Y025565D03*
X020341Y024817D03*
X019566Y024817D03*
X019566Y025565D03*
X020141Y019165D03*
X020141Y018417D03*
X020991Y018417D03*
X020991Y019165D03*
X021916Y019165D03*
X021916Y018417D03*
X022141Y017190D03*
X022141Y016442D03*
X022141Y015565D03*
X022141Y014817D03*
X020991Y014817D03*
X020991Y015565D03*
X020141Y015565D03*
X020141Y014817D03*
X019296Y014817D03*
X019296Y015565D03*
X019296Y016442D03*
X019296Y017190D03*
X020141Y017190D03*
X020141Y016442D03*
X020992Y016442D03*
X020992Y017190D03*
X018316Y017190D03*
X018316Y016442D03*
X017466Y016442D03*
X017466Y017190D03*
X017466Y018417D03*
X017466Y019165D03*
X018316Y019165D03*
X018316Y018417D03*
X018316Y015565D03*
X018316Y014817D03*
X017466Y014817D03*
X017466Y015565D03*
X015016Y012235D03*
X015016Y011566D03*
X015016Y010897D03*
X015016Y010227D03*
X009741Y016242D03*
X009741Y016990D03*
X024566Y018492D03*
X024566Y019240D03*
X025672Y017269D03*
X025672Y016521D03*
X026766Y014190D03*
X026766Y013442D03*
X027566Y013442D03*
X027566Y014190D03*
X028492Y014146D03*
X028492Y014894D03*
X029366Y015265D03*
X029366Y014517D03*
X029366Y013715D03*
X029366Y012967D03*
X029822Y012121D03*
X029822Y011373D03*
X030628Y011367D03*
X030628Y012115D03*
X031165Y016192D03*
X031165Y016940D03*
X031934Y016940D03*
X031934Y016192D03*
X026766Y012640D03*
X026766Y011892D03*
X036191Y024492D03*
X036191Y025240D03*
X030341Y048642D03*
X030341Y049390D03*
D18*
X030091Y040442D03*
X030091Y039340D03*
X029166Y039442D03*
X029166Y038340D03*
X012666Y022317D03*
X012666Y021215D03*
X010066Y022940D03*
X010066Y024042D03*
D19*
X014336Y021721D03*
X014336Y021471D03*
X014336Y021211D03*
X014336Y020961D03*
X016096Y020961D03*
X016096Y021211D03*
X016096Y021471D03*
X016096Y021721D03*
D20*
X015000Y022416D03*
X014331Y022416D03*
X010275Y017791D03*
X009606Y017791D03*
X009606Y015441D03*
X010275Y015441D03*
X011331Y014066D03*
X012000Y014066D03*
X013306Y014066D03*
X013975Y014066D03*
X009716Y028781D03*
X009716Y029451D03*
X020741Y030006D03*
X020741Y030676D03*
X025006Y012466D03*
X025675Y012466D03*
X033981Y051816D03*
X034650Y051816D03*
D21*
X013893Y018202D03*
X013893Y017946D03*
X013893Y017690D03*
X013893Y017434D03*
X013893Y017178D03*
X013893Y016922D03*
X013893Y016666D03*
X013893Y016410D03*
X011688Y016410D03*
X011688Y016666D03*
X011688Y016922D03*
X011688Y017178D03*
X011688Y017434D03*
X011688Y017690D03*
X011688Y017946D03*
X011688Y018202D03*
D22*
X011716Y013121D03*
X011216Y013121D03*
X010716Y013121D03*
X010216Y013121D03*
X012216Y013121D03*
X012716Y013121D03*
X013216Y013121D03*
X013716Y013121D03*
X014216Y013121D03*
X014216Y009361D03*
X013716Y009361D03*
X013216Y009361D03*
X012716Y009361D03*
X012216Y009361D03*
X011716Y009361D03*
X011216Y009361D03*
X010716Y009361D03*
X010216Y009361D03*
D23*
X015141Y015816D03*
X015141Y016816D03*
X015141Y017816D03*
X015141Y018816D03*
X016141Y018816D03*
X016141Y017816D03*
X016141Y016816D03*
X016141Y015816D03*
X016660Y010323D03*
X017660Y010323D03*
X017660Y009323D03*
X018660Y009323D03*
X018660Y010323D03*
X019660Y010323D03*
X020660Y010323D03*
X020660Y009323D03*
X019660Y009323D03*
X021660Y009323D03*
X021660Y010323D03*
X022660Y010323D03*
X022660Y009323D03*
X023660Y009323D03*
X023660Y010323D03*
X024660Y010323D03*
X024660Y009323D03*
X025660Y009323D03*
X025660Y010323D03*
X026660Y010323D03*
X026660Y009323D03*
X027660Y009323D03*
X027660Y010323D03*
X028660Y010323D03*
X028660Y009323D03*
X036741Y009091D03*
X036741Y010091D03*
X036716Y052691D03*
X036716Y053691D03*
X036716Y054691D03*
X035716Y054691D03*
X035716Y053691D03*
X035716Y052691D03*
D24*
X033450Y028205D02*
X033450Y027320D01*
X031250Y027320D02*
X031250Y028205D01*
X029050Y028205D02*
X029050Y027320D01*
D25*
X031250Y035362D03*
D26*
X035116Y029887D03*
X035966Y029887D03*
X035966Y028745D03*
X035116Y028745D03*
X027591Y017487D03*
X027591Y016345D03*
X026491Y016370D03*
X026491Y017512D03*
X021166Y024670D03*
X021166Y025812D03*
X018791Y025837D03*
X018791Y024695D03*
X022866Y039445D03*
X022866Y040587D03*
D27*
X028970Y025891D03*
X030112Y025891D03*
X029512Y019166D03*
X028370Y019166D03*
D28*
X027651Y022676D03*
X026741Y022676D03*
X025831Y022676D03*
X034456Y031006D03*
X035366Y031006D03*
X036276Y031006D03*
D29*
X035366Y033276D03*
X026741Y020406D03*
D30*
X035041Y042291D03*
X035041Y042291D03*
X035041Y042291D03*
X035041Y042291D03*
D31*
X034764Y052653D03*
X034264Y052653D03*
X033764Y052653D03*
X033264Y052653D03*
X033264Y054779D03*
X033764Y054779D03*
X034264Y054779D03*
X034764Y054779D03*
X020339Y023729D03*
X019839Y023729D03*
X019339Y023729D03*
X018839Y023729D03*
X018839Y021603D03*
X019339Y021603D03*
X019839Y021603D03*
X020339Y021603D03*
X024464Y015429D03*
X024964Y015429D03*
X025464Y015429D03*
X025964Y015429D03*
X025964Y013303D03*
X025464Y013303D03*
X024964Y013303D03*
X024464Y013303D03*
X030089Y013228D03*
X030589Y013228D03*
X031089Y013228D03*
X031589Y013228D03*
X031589Y015354D03*
X031089Y015354D03*
X030589Y015354D03*
X030089Y015354D03*
D32*
X033858Y018391D03*
X034724Y018765D03*
X034724Y018017D03*
X030983Y029142D03*
X030983Y029890D03*
X031849Y029516D03*
X027274Y029341D03*
X026408Y029715D03*
X026408Y028967D03*
X026408Y030517D03*
X026408Y031265D03*
X026408Y032067D03*
X026408Y032815D03*
X027274Y032441D03*
X027274Y030891D03*
X022049Y039492D03*
X022049Y040240D03*
X021183Y039866D03*
D33*
X035942Y022783D03*
X036690Y022783D03*
X036316Y023649D03*
D34*
X034791Y023618D03*
X033016Y023618D03*
X033016Y021414D03*
X034791Y021414D03*
X036441Y015168D03*
X036441Y012964D03*
X025866Y043689D03*
X025866Y045893D03*
D35*
X020441Y040266D03*
X020441Y039466D03*
X019591Y039866D03*
X026191Y034591D03*
X026191Y033791D03*
X027041Y034191D03*
D36*
X026711Y027336D03*
X026711Y026596D03*
X027571Y026966D03*
D37*
X029708Y020597D03*
X031508Y020597D03*
X026366Y046996D03*
X024566Y046996D03*
D38*
X025466Y049576D03*
X030608Y023177D03*
D39*
X028466Y034898D03*
X028466Y036434D03*
X032266Y038473D03*
X032266Y040009D03*
D40*
X011661Y022116D03*
X011661Y021616D03*
X011661Y021116D03*
X011661Y020616D03*
X009721Y020616D03*
X009721Y021116D03*
X009721Y021616D03*
X009721Y022116D03*
D41*
X016660Y009323D03*
D42*
X011867Y034991D03*
X010765Y034991D03*
X015940Y038466D03*
X017042Y038466D03*
X027290Y044391D03*
X027290Y045666D03*
X028392Y045666D03*
X028392Y044391D03*
X031240Y044241D03*
X031240Y045516D03*
X032342Y045516D03*
X032342Y044241D03*
D43*
X030341Y046706D03*
X030341Y047826D03*
X022916Y049456D03*
X022916Y050576D03*
X009416Y045076D03*
X009416Y043956D03*
D44*
X031706Y048791D03*
X035525Y048791D03*
D45*
X023085Y038441D03*
X021747Y038441D03*
D46*
X028416Y049765D03*
D47*
X029315Y047230D03*
X027516Y047230D03*
D48*
X027426Y041966D03*
X029406Y041966D03*
X030401Y041966D03*
X032381Y041966D03*
D49*
X022746Y044449D03*
X022746Y044705D03*
X022746Y044961D03*
X022746Y045221D03*
X022746Y045477D03*
X022746Y045733D03*
X020986Y045733D03*
X020986Y045477D03*
X020986Y045221D03*
X020986Y044961D03*
X020986Y044705D03*
X020986Y044449D03*
D50*
X021866Y045091D03*
D51*
X014264Y040855D03*
X014264Y039477D03*
X010918Y039477D03*
X010918Y040855D03*
D52*
X013891Y036366D03*
X013891Y034466D03*
X016991Y034891D03*
X016991Y036791D03*
D53*
X009716Y034354D03*
X009716Y033528D03*
D54*
X010468Y037066D03*
X011964Y037066D03*
X010716Y043468D03*
X010716Y044964D03*
X018368Y029766D03*
X019864Y029766D03*
X015989Y028766D03*
X014493Y028766D03*
D55*
X016366Y042915D03*
X016366Y044017D03*
X016866Y044915D03*
X016866Y046017D03*
D56*
X014786Y045716D03*
X014786Y045456D03*
X014786Y045196D03*
X014786Y044946D03*
X014786Y044686D03*
X014786Y044436D03*
X014786Y044176D03*
X014786Y043916D03*
X012546Y043916D03*
X012546Y044176D03*
X012546Y044436D03*
X012546Y044686D03*
X012546Y044946D03*
X012546Y045196D03*
X012546Y045456D03*
X012546Y045716D03*
D57*
X022116Y056342D03*
X029266Y056342D03*
D58*
X029266Y053390D03*
X022116Y053390D03*
D59*
X020579Y032868D03*
X020579Y032368D03*
X020579Y031868D03*
X020579Y031368D03*
X018453Y031368D03*
X018453Y031868D03*
X018453Y032368D03*
X018453Y032868D03*
X016879Y031918D03*
X016879Y031418D03*
X016879Y030918D03*
X016879Y030418D03*
X014753Y030418D03*
X014753Y030918D03*
X014753Y031418D03*
X014753Y031918D03*
D60*
X015342Y049766D03*
X015342Y053016D03*
X010917Y053016D03*
X010917Y049766D03*
D61*
X013452Y050666D03*
X013452Y052116D03*
X013452Y053916D03*
X013452Y048866D03*
X017877Y048866D03*
X017877Y050666D03*
X017877Y052116D03*
X017877Y053916D03*
D62*
X025062Y036916D03*
X027070Y036916D03*
D63*
X021501Y013486D03*
X021241Y013486D03*
X020981Y013486D03*
X020981Y012746D03*
X021241Y012746D03*
X021501Y012746D03*
D64*
X019651Y012721D03*
X019651Y013091D03*
X019651Y013461D03*
X018631Y013461D03*
X018631Y013091D03*
X018631Y012721D03*
D65*
X014086Y024966D03*
X014086Y025466D03*
X014086Y025966D03*
X014086Y026466D03*
X014086Y026966D03*
X014086Y027466D03*
X014086Y027966D03*
X012046Y027966D03*
X012046Y027466D03*
X012046Y026966D03*
X012046Y026466D03*
X012046Y025966D03*
X012046Y025466D03*
X012046Y024966D03*
D66*
X010666Y028916D03*
X018941Y026841D03*
X026141Y035341D03*
X028641Y032791D03*
X028441Y016191D03*
D67*
X012742Y029541D03*
X011640Y029541D03*
D68*
X011716Y030521D03*
X011216Y030521D03*
X010716Y030521D03*
X010716Y032461D03*
X011216Y032461D03*
X011716Y032461D03*
X012216Y032461D03*
X012216Y030521D03*
D69*
X014241Y056491D02*
X014241Y057491D01*
X016209Y057491D02*
X016209Y056491D01*
D70*
X033016Y025516D03*
X034791Y025516D03*
X034791Y019516D03*
X033016Y019516D03*
D71*
X023591Y035691D03*
X020391Y035691D03*
D72*
X022991Y035691D03*
X035041Y044291D03*
D73*
X035041Y042291D03*
X020991Y035691D03*
D74*
X035041Y041691D03*
X035041Y044891D03*
D75*
X035391Y039671D03*
X035391Y037211D03*
D76*
X033141Y039791D03*
X033141Y040216D03*
X033141Y040641D03*
X032716Y040641D03*
X032716Y040216D03*
X032716Y039791D03*
X032291Y039791D03*
X032291Y040216D03*
X032291Y040641D03*
X024616Y042116D03*
X024616Y042516D03*
X024616Y042916D03*
X024191Y042916D03*
X024191Y042516D03*
X024191Y042116D03*
X023766Y042116D03*
X023766Y042516D03*
X023766Y042916D03*
X034366Y025541D03*
X034366Y025116D03*
X034791Y025116D03*
X035216Y025116D03*
X035216Y025541D03*
X035216Y019916D03*
X035216Y019491D03*
X034791Y019916D03*
X034366Y019916D03*
X034366Y019491D03*
X035891Y016141D03*
X036266Y016141D03*
X036641Y016141D03*
X036641Y015716D03*
X036266Y015716D03*
X035891Y015716D03*
X035891Y012416D03*
X036266Y012416D03*
X036641Y012416D03*
X036641Y011991D03*
X036266Y011991D03*
X035891Y011991D03*
D77*
X035975Y007016D03*
X009991Y007016D03*
X021014Y049535D03*
X009991Y057016D03*
X035975Y057016D03*
M02*
