%
M48
M72
T01C0.0197
T02C0.0236
T03C0.0276
T04C0.0315
T05C0.0320
T06C0.0354
T07C0.0360
T08C0.0394
T09C0.0400
T10C0.0433
T11C0.0472
T12C0.0512
T13C0.0531
T14C0.0550
T15C0.0551
T16C0.0590
T17C0.0591
T18C0.0630
T19C0.0710
T20C0.0787
T21C0.0866
T22C0.0906
T23C0.1102
T24C0.1181
T25C0.1260
T26C0.2165
T27C0.2559
%
T01
X115891Y23050
X116442Y23050
T02
X117967Y22850
X117037Y21750
X117392Y21375
X117017Y21000
X117967Y20600
X118742Y20850
X119467Y21200
X120492Y21725
X121417Y21550
X121792Y21900
X122317Y22425
X121792Y22650
X123092Y22225
X123867Y21275
X122442Y20925
X120617Y20100
X122442Y19875
X119942Y19400
X119342Y18950
X118967Y18575
X118592Y19075
X118342Y19800
X116767Y18925
X115492Y19225
X113617Y18925
X112562Y19225
X111812Y20050
X110192Y20500
X110412Y21000
X108942Y21500
X108817Y22200
X109637Y23025
X110012Y23375
X110142Y22725
X111812Y22700
X112462Y23600
X107217Y23150
X106662Y23150
X106467Y22050
X107217Y22125
X107217Y21600
X107617Y21250
X107642Y20350
X108817Y20050
X109542Y19075
X107642Y18975
X106717Y18625
X106042Y19100
X105617Y18400
X104992Y18400
X104692Y17650
X104042Y18400
X103517Y20025
X104042Y20500
X103467Y21225
X104042Y21700
X104767Y22300
X104467Y22750
X103592Y22900
X103742Y23450
X102192Y23875
X101487Y24900
X101487Y25875
X101487Y26900
X103487Y25875
X104237Y25500
X106662Y25500
X107217Y25475
X107667Y25750
X106662Y26875
X107687Y27425
X106187Y27625
X104237Y27225
X103462Y27625
X103492Y28525
X104237Y29200
X103437Y29575
X104237Y30675
X104737Y30675
X105437Y30925
X104237Y31450
X101487Y29900
X100762Y29475
X100362Y29825
X99987Y30175
X99487Y30375
X99292Y30875
X98912Y31450
X98287Y31850
X97062Y30875
X95337Y31075
X93362Y30675
X94637Y29750
X94162Y29200
X93787Y28825
X93012Y28600
X92937Y27900
X93462Y27850
X93462Y27350
X91262Y27900
X91962Y28475
X89812Y29100
X88937Y30050
X87912Y29875
X86787Y30050
X86262Y29850
X84637Y30075
X83637Y30075
X82637Y30075
X81637Y30075
X80637Y30075
X79637Y30075
X79087Y30025
X78587Y29875
X77587Y29875
X76587Y29875
X75612Y29875
X75137Y29025
X74612Y29025
X73862Y29100
X73512Y29475
X72862Y30075
X71862Y30075
X70862Y30075
X69862Y30075
X69387Y29775
X68862Y30075
X67862Y30075
X67187Y29500
X66462Y29675
X66237Y29200
X65237Y29200
X64237Y29200
X63237Y29200
X62237Y29200
X61237Y29200
X60237Y29200
X59937Y29625
X58987Y29200
X57987Y29200
X56987Y29200
X56362Y29475
X55862Y29200
X55037Y28775
X55412Y28175
X53712Y28175
X53087Y28850
X52087Y28850
X51087Y28850
X54537Y30650
X55137Y31125
X56837Y31200
X57837Y31825
X58837Y30750
X59237Y31125
X60637Y30400
X62287Y30550
X63837Y30450
X61862Y28175
X59987Y28175
X62787Y26700
X64112Y26000
X66312Y26475
X67362Y26125
X67912Y26475
X68637Y28075
X70737Y28675
X70037Y29425
X72962Y27250
X71887Y26550
X72462Y26275
X71887Y24950
X70487Y24425
X70087Y24850
X68037Y24425
X66312Y24500
X65412Y24500
X64512Y24500
X63712Y24500
X62712Y24500
X61712Y24500
X60712Y24500
X59612Y25500
X58837Y25825
X56937Y25500
X57512Y23825
X55362Y23825
X54612Y23750
X54087Y23150
X52062Y23375
X52162Y24275
X53187Y25375
X52837Y25750
X52462Y26100
X52087Y26450
X51737Y26825
X50437Y25750
X50437Y25250
X53712Y25500
X45762Y23975
X43887Y24725
X42537Y24725
X40187Y21975
X39812Y21975
X41237Y21650
X41912Y20800
X41412Y19825
X37087Y20500
X33162Y21325
X33162Y23200
X36512Y23275
X27562Y24775
X21362Y25975
X18837Y26475
X14137Y26125
X15837Y29750
X18837Y29450
X19587Y30300
X24692Y28320
X26512Y30200
X24031Y34075
X23606Y34075
X23606Y35175
X24031Y35175
X19056Y36800
X19056Y37800
X19056Y38800
X21356Y38850
X19781Y39800
X19056Y39800
X16631Y38401
X15281Y37300
X14931Y36600
X6606Y40625
X6606Y41050
X5456Y41050
X5456Y40625
X9281Y43125
X9656Y43500
X12006Y45775
X13756Y45775
X14581Y46200
X13906Y46900
X14831Y47200
X15681Y46875
X16181Y47375
X16956Y46875
X17531Y46350
X18206Y46875
X19831Y46875
X21131Y46875
X21406Y45975
X21906Y45975
X22506Y45525
X23981Y44550
X23981Y44075
X23981Y43600
X23981Y43125
X23981Y42650
X24456Y42650
X24456Y43125
X24456Y43600
X24456Y44075
X24456Y44550
X25481Y46175
X26356Y46875
X27831Y47375
X28481Y46875
X29631Y47875
X29231Y48400
X28356Y49125
X27831Y49100
X27106Y48400
X30381Y48700
X31031Y49175
X32431Y48950
X33981Y49600
X37956Y51325
X39856Y51500
X39856Y52500
X38631Y52925
X38656Y52000
X37781Y53300
X39856Y53500
X39856Y54500
X39856Y55500
X38381Y54800
X38181Y55600
X36631Y55600
X35456Y55100
X35656Y53300
X34781Y52025
X32956Y53725
X31881Y53725
X29631Y52725
X29031Y52725
X28706Y53325
X28606Y54150
X29281Y54075
X28131Y54875
X27331Y54700
X26606Y54725
X25906Y54700
X25131Y54700
X24356Y54700
X23581Y54725
X22806Y54700
X22056Y54550
X20931Y54400
X19756Y54700
X18931Y53875
X18881Y53075
X17781Y52725
X17031Y51550
X15656Y52550
X13281Y52500
X11456Y52075
X10281Y52075
X9131Y53300
X8431Y55375
X6931Y55350
X10506Y55275
X13656Y55825
X15181Y55275
X15981Y55250
X16781Y54525
X15981Y54350
X18556Y55550
X18931Y55900
X18781Y56425
X19856Y57425
X17931Y57825
X17156Y57450
X16356Y57925
X15706Y58800
X15356Y59450
X16256Y60450
X16256Y60950
X19181Y59050
X21006Y60425
X20706Y60950
X21456Y61175
X22131Y60800
X23256Y59675
X22331Y59250
X22131Y58750
X22706Y57950
X24506Y58550
X25031Y58000
X25556Y58000
X26106Y57375
X25856Y56825
X25306Y56200
X26806Y56575
X27406Y57225
X27381Y58525
X28156Y59200
X28456Y60050
X27131Y59775
X26781Y60175
X25906Y59975
X26256Y59200
X31206Y57775
X31856Y58600
X34156Y58725
X35331Y58750
X38281Y60025
X39856Y60500
X39381Y61175
X39856Y59500
X39856Y58500
X39856Y57500
X39856Y56500
X41556Y55350
X42156Y55875
X42556Y55875
X42956Y55875
X42956Y56275
X42556Y56275
X42156Y56275
X42081Y57850
X42281Y58375
X42556Y60025
X44181Y58375
X46281Y59050
X45281Y60075
X48056Y59050
X48506Y59600
X51556Y60225
X51356Y61775
X53356Y59200
X55006Y58025
X55006Y57600
X55006Y57175
X55006Y56750
X55431Y56750
X55856Y56750
X56281Y56750
X56706Y56750
X56706Y57175
X56281Y57175
X55856Y57175
X55431Y57175
X55431Y57600
X55856Y57600
X56281Y57600
X56706Y57600
X56706Y58025
X56281Y58025
X55856Y58025
X55431Y58025
X51431Y57575
X49906Y57225
X49906Y56775
X49906Y56325
X49906Y55875
X49906Y55425
X49906Y54975
X49906Y54525
X49906Y54075
X50331Y53100
X49331Y53100
X48331Y53100
X47331Y53100
X46331Y53100
X45331Y53100
X44331Y53100
X44331Y52100
X44331Y51100
X44331Y50100
X42856Y49500
X41856Y49500
X40856Y49500
X39856Y49500
X39856Y50500
X42506Y52000
X43056Y53350
X46556Y54075
X46556Y54525
X46556Y54975
X46556Y55425
X46556Y55875
X46556Y56325
X46556Y56775
X46556Y57225
X55031Y53550
X55031Y53125
X55031Y52700
X55031Y52275
X55456Y52275
X55881Y52275
X56306Y52275
X56731Y52275
X56731Y52700
X56306Y52700
X55881Y52700
X55456Y52700
X55456Y53125
X55881Y53125
X56306Y53125
X56731Y53125
X56731Y53550
X56306Y53550
X55881Y53550
X55456Y53550
X53331Y53100
X53581Y52200
X52331Y53100
X51331Y53100
X49531Y50975
X50231Y50550
X50071Y49200
X50071Y48800
X49671Y48800
X49271Y48800
X48871Y48800
X48871Y49200
X49271Y49200
X49671Y49200
X50471Y49200
X50471Y48800
X51196Y49175
X51596Y49175
X47531Y51625
X46181Y49650
X43206Y48200
X43206Y47200
X42831Y46150
X42831Y45275
X41156Y46325
X40631Y46950
X34481Y46875
X33606Y46875
X32431Y47375
X32131Y46875
X32431Y46150
X31631Y46125
X31031Y45175
X30281Y44600
X29406Y44950
X32006Y44375
X33956Y43625
X35556Y43625
X32631Y42450
X28731Y41325
X28731Y40825
X28731Y40325
X28731Y39825
X28731Y39325
X28731Y38825
X28231Y38825
X28231Y39325
X28231Y39825
X28231Y40325
X28231Y40825
X28231Y41325
X21881Y42176
X21881Y42925
X21631Y43700
X20031Y44400
X18881Y44850
X16481Y44650
X15256Y44250
X15281Y43500
X15481Y42675
X16581Y42050
X19781Y41650
X20681Y41700
X20031Y42650
X22131Y46875
X20681Y47875
X19681Y48800
X17156Y47875
X16181Y49650
X16756Y50450
X18131Y50450
X19256Y50450
X19681Y49825
X23606Y50625
X25631Y50625
X26581Y50225
X23606Y48700
X24356Y46875
X30656Y46875
X33981Y45525
X39256Y43625
X45456Y38925
X49256Y40615
X49656Y40615
X50056Y40615
X50456Y40615
X50456Y41015
X50056Y41015
X49656Y41015
X49256Y41015
X49256Y41415
X49656Y41415
X50056Y41415
X50456Y41415
X53706Y41600
X54106Y41200
X54506Y41600
X54906Y41200
X55306Y41600
X55681Y41200
X56081Y41600
X55681Y42000
X55306Y42400
X55681Y42800
X55306Y43200
X55681Y43600
X55731Y44025
X55731Y44400
X55331Y44400
X55331Y44025
X54931Y44025
X54931Y44400
X54531Y44400
X54531Y44025
X54131Y44025
X54131Y44400
X53731Y44400
X53731Y44025
X53331Y44025
X53331Y44400
X54106Y43600
X53706Y43200
X54106Y42800
X53706Y42400
X54106Y42000
X54506Y42400
X54906Y42000
X54906Y42800
X54506Y43200
X54906Y43600
X56081Y43200
X56081Y42400
X56131Y44025
X56131Y44400
X56531Y44400
X56531Y44025
X56931Y44025
X56931Y44400
X61096Y44450
X62321Y44475
X63181Y44050
X64406Y43825
X64771Y44950
X64771Y45325
X64771Y45700
X64771Y46075
X67706Y43950
X71204Y41050
X71204Y40625
X72354Y40625
X72354Y41050
X75029Y43125
X75404Y43500
X77754Y45775
X79504Y45775
X80329Y46200
X79654Y46900
X80579Y47200
X81429Y46875
X81929Y47375
X82704Y46875
X83279Y46350
X83954Y46875
X82904Y47875
X85429Y48800
X86429Y47875
X86879Y46875
X87154Y45975
X87654Y45975
X88254Y45525
X89729Y44550
X89729Y44075
X89729Y43600
X89729Y43125
X89729Y42650
X90204Y42650
X90204Y43125
X90204Y43600
X90204Y44075
X90204Y44550
X91229Y46175
X92104Y46875
X93579Y47375
X94229Y46875
X96404Y46875
X97379Y46125
X98179Y46150
X97879Y46875
X98179Y47375
X99354Y46875
X100229Y46875
X99729Y45525
X97754Y44375
X96029Y44600
X95154Y44950
X96779Y45175
X99704Y43625
X101304Y43625
X98379Y42450
X94479Y41325
X93979Y41325
X93979Y40825
X93979Y40325
X93979Y39825
X93979Y39325
X93979Y38825
X94479Y38825
X94479Y39325
X94479Y39825
X94479Y40325
X94479Y40825
X97854Y37725
X100854Y37575
X99450Y35921
X97854Y36150
X89779Y35175
X89354Y35175
X89354Y34075
X89779Y34075
X84804Y36800
X84804Y37800
X84804Y38800
X84804Y39800
X85529Y39800
X87104Y38850
X86429Y41700
X85529Y41650
X87629Y42176
X87629Y42925
X87379Y43700
X85779Y44400
X84629Y44850
X82229Y44650
X81004Y44250
X81029Y43500
X81229Y42675
X82329Y42050
X78479Y40975
X82379Y38401
X81029Y37300
X80679Y36600
X74487Y31250
X73962Y31250
X75987Y28375
X75537Y27700
X74612Y27700
X77537Y28550
X81212Y28100
X83937Y26600
X83337Y26200
X85137Y26175
X85737Y25450
X86337Y25975
X86137Y26550
X86662Y26800
X87787Y26800
X87687Y26025
X86687Y24925
X84162Y24925
X85587Y23700
X85587Y22200
X88537Y22150
X89312Y23100
X88737Y23525
X89187Y24300
X89787Y24025
X91237Y23375
X93362Y24225
X92787Y24775
X92787Y26225
X94742Y25775
X96662Y25650
X97162Y26150
X98237Y26350
X98912Y26300
X98912Y25300
X98912Y24300
X98912Y23300
X98387Y22550
X98912Y22300
X98912Y21500
X97812Y21125
X97412Y20725
X98162Y20100
X98912Y20300
X98912Y19300
X98912Y18525
X97412Y18525
X97412Y19300
X95112Y18750
X93662Y17775
X91862Y18100
X91137Y18275
X90312Y18925
X91237Y19475
X91237Y20375
X92787Y19425
X94337Y19425
X94337Y20575
X94537Y21325
X94537Y23050
X94917Y23775
X95512Y23950
X97687Y23625
X102192Y22900
X102167Y21875
X104992Y20500
X105467Y20275
X105367Y22175
X105342Y23150
X101487Y19900
X101017Y18450
X98912Y17300
X99487Y16450
X98937Y16125
X98587Y15425
X99287Y15225
X99487Y14525
X99062Y13900
X98412Y13300
X98937Y12000
X99937Y12000
X100937Y12000
X101937Y12000
X100837Y10900
X103042Y9400
X103342Y9850
X103542Y10450
X104042Y10800
X104767Y9850
X105767Y9175
X104042Y8700
X104042Y7700
X105292Y8100
X106692Y7100
X107692Y7675
X108984Y8617
X109492Y8425
X109867Y8775
X109067Y9325
X108642Y9625
X107992Y9975
X108317Y10950
X109392Y10700
X111192Y11050
X113767Y11525
X114492Y11550
X115587Y11525
X114492Y10125
X114862Y8375
X116237Y8600
X119142Y8675
X119142Y8275
X119142Y7875
X119142Y9075
X119142Y9475
X119142Y9875
X119837Y11525
X120942Y11550
X120937Y12100
X121142Y13700
X120167Y13700
X122192Y13875
X121667Y15000
X119917Y15200
X117642Y14900
X116987Y14400
X116467Y14450
X116587Y15400
X116062Y15400
X115167Y15825
X117092Y16700
X116742Y17425
X117717Y16000
X113267Y14875
X112337Y14050
X111812Y14450
X110687Y14100
X111812Y13300
X109292Y14175
X109292Y14925
X110687Y15425
X111287Y16725
X112337Y17450
X110062Y17150
X109242Y17325
X107192Y16075
X106017Y16550
X106017Y17325
X104437Y15575
X106612Y14925
X106737Y14175
X106737Y13300
X104267Y14100
X102987Y13300
X100787Y15425
X97412Y16450
X97437Y17275
X95512Y16350
X95112Y16750
X96262Y15850
X95087Y15050
X94712Y15400
X95512Y14600
X96587Y13300
X94437Y13300
X93362Y13150
X92612Y12925
X91612Y12925
X90612Y12925
X89612Y12925
X88612Y13100
X88612Y12100
X88612Y11100
X92187Y10250
X94437Y12000
X95012Y12500
X95437Y12000
X97612Y12000
X97587Y10350
X97587Y9350
X97587Y8350
X97587Y8350
X97587Y7350
X97587Y6350
X97587Y5350
X97587Y4350
X99967Y4575
X102292Y4475
X102967Y4350
X104342Y4350
X105717Y4350
X107342Y4350
X108667Y4350
X109217Y4150
X108742Y5125
X109017Y5650
X109792Y5275
X109517Y6550
X109417Y7100
X110092Y7925
X115217Y6850
X115942Y6850
X119962Y5725
X123267Y8175
X124867Y8775
X124807Y9800
X126492Y8775
X127392Y9200
X128817Y9875
X127912Y10700
X128142Y11425
X125892Y11425
X127142Y12900
X126842Y13575
X127492Y14075
X128517Y14350
X128217Y12850
X125842Y13325
X125992Y14050
X125567Y15025
X126542Y15925
X126417Y16800
X127142Y16675
X127492Y16300
X128892Y15700
X132042Y16900
X132312Y15925
X132637Y15500
X134142Y15850
X134642Y15845
X135617Y15825
X135617Y16825
X134617Y17475
X133287Y17450
X133067Y16375
X132812Y18475
X132042Y18900
X132042Y19900
X133412Y19650
X134442Y21450
X132042Y22900
X133312Y23375
X133362Y23975
X133667Y24500
X134042Y24500
X134417Y24500
X134417Y24900
X134042Y24900
X133667Y24900
X133362Y25575
X134687Y25550
X135187Y26400
X135617Y27825
X135617Y28825
X135617Y29825
X134192Y31475
X133192Y31475
X132192Y31475
X131192Y31475
X127067Y29450
X124842Y28425
X125367Y27925
X126167Y27400
X127142Y27600
X128417Y27375
X128642Y27925
X129592Y27175
X128617Y26525
X128242Y26075
X127892Y25675
X127867Y25150
X126592Y24900
X125567Y24475
X123667Y24500
X123317Y24075
X122742Y24075
X122017Y25025
X121567Y25400
X122092Y25925
X119967Y26875
X118867Y26500
X117062Y27175
X116792Y28575
X115342Y28825
X115342Y29925
X112987Y30200
X113842Y31650
X110842Y29975
X109167Y29200
X108612Y29575
X106342Y29200
X101487Y28875
X101487Y27875
X100187Y27650
X98912Y27400
X97662Y27400
X98237Y28550
X98912Y28350
X98687Y29250
X99462Y29475
X99912Y31450
X100912Y31450
X107579Y35975
X107954Y35975
X109804Y33800
X117412Y29850
X118817Y28775
X120292Y29025
X121267Y29075
X122542Y29850
X123042Y29275
X123417Y29625
X124442Y30075
X123992Y31000
X122442Y31650
X121842Y30225
X124142Y27850
X126342Y26300
X128992Y25975
X129517Y24775
X130042Y25000
X132042Y24900
X132042Y23900
X134337Y23250
X132042Y25900
X131142Y25825
X131192Y28775
X132437Y28900
X121142Y24750
X115342Y26975
X113742Y26500
X112042Y26875
X110612Y25900
X109137Y26875
X113217Y28350
X113742Y28350
X126017Y20925
X125967Y20100
X127267Y20475
X128242Y19925
X127042Y18950
X127892Y18100
X128417Y17950
X126017Y18150
X122442Y18175
X118142Y13700
X128142Y7075
X131167Y8875
X134642Y10225
X135617Y9825
X135617Y8825
X135617Y7825
X135617Y6825
X135617Y5825
X135617Y4825
X135617Y3825
X134617Y3825
X133617Y3825
X130617Y3825
X128187Y4300
X127187Y4300
X125937Y4300
X132042Y7075
X132312Y10900
X132890Y12224
X132892Y13050
X134642Y13050
X135617Y12825
X135617Y11825
X135617Y10825
X135617Y13825
X135617Y14825
X115362Y4300
X114187Y4300
X113187Y4300
X112212Y4300
X111192Y4150
X104292Y6225
X102667Y6075
X101892Y5725
X102567Y7675
X102542Y8725
X101292Y9025
X101317Y7775
X93662Y14275
X91862Y14100
X90487Y14150
X89437Y14650
X89062Y15325
X89512Y15775
X89837Y16200
X91862Y16100
X91862Y15100
X93087Y15275
X93662Y16175
X91862Y17100
X90062Y17775
X88987Y18000
X88687Y17325
X89312Y19575
X88687Y20650
X88287Y20300
X87487Y19550
X83787Y19550
X83187Y19550
X79887Y19550
X80037Y21225
X79662Y22500
X79887Y23375
X80712Y23400
X82462Y23150
X82112Y22450
X82612Y22125
X81362Y22375
X76937Y23375
X77537Y24925
X75262Y25150
X74837Y25625
X66312Y25475
X66312Y28175
X66912Y21475
X59737Y21350
X59737Y19975
X59362Y19600
X58837Y19350
X58837Y17325
X55637Y15325
X55837Y14800
X55412Y14500
X55062Y15225
X54587Y16100
X54987Y17450
X53987Y17825
X54262Y20825
X64362Y17950
X57162Y14050
X56637Y14050
X56287Y14425
X57762Y13600
X59762Y13275
X59762Y11725
X58462Y11725
X57587Y11725
X56587Y11725
X55587Y11725
X54587Y11725
X54587Y12675
X54587Y13600
X53887Y10500
X65587Y11475
X70362Y12225
X70987Y11625
X71418Y9850
X70618Y8350
X69943Y7400
X71793Y4600
X70993Y4250
X69493Y4275
X77943Y10025
X80862Y10750
X79287Y12125
X81937Y12700
X83412Y12425
X83362Y13375
X84837Y14300
X85987Y13925
X83662Y15850
X79662Y15300
X79287Y13975
X74537Y11600
X84362Y10925
X86587Y9350
X87537Y7700
X85012Y6875
X87537Y6125
X88112Y4300
X83518Y4675
X91237Y21375
X91237Y22375
X89887Y26300
X87062Y27900
X111204Y38925
X115004Y40615
X115004Y41015
X115004Y41415
X115404Y41415
X115404Y41015
X115404Y40615
X115804Y40615
X115804Y41015
X115804Y41415
X116204Y41415
X116204Y41015
X116204Y40615
X118329Y40050
X118329Y39650
X118329Y39275
X118329Y38875
X118329Y38475
X120654Y38450
X120654Y38850
X120654Y39250
X120654Y39650
X120654Y40050
X120279Y40050
X119879Y40050
X119504Y40050
X119104Y40050
X118729Y40050
X121054Y40050
X121054Y39650
X121054Y39250
X121054Y38850
X121054Y38450
X121429Y41200
X121054Y41600
X121429Y42000
X121054Y42400
X121429Y42800
X121054Y43200
X121429Y43600
X121479Y44025
X121479Y44400
X121079Y44400
X121079Y44025
X120679Y44025
X120679Y44400
X120279Y44400
X120279Y44025
X119879Y44025
X119879Y44400
X119479Y44400
X119479Y44025
X119079Y44025
X119079Y44400
X119854Y43600
X119454Y43200
X119854Y42800
X119454Y42400
X119854Y42000
X119454Y41600
X119854Y41200
X120254Y41600
X120654Y41200
X121829Y41600
X121829Y42400
X121829Y43200
X120654Y42800
X120254Y42400
X120654Y42000
X120254Y43200
X120654Y43600
X121879Y44025
X121879Y44400
X122279Y44400
X122279Y44025
X122679Y44025
X122679Y44400
X126844Y44450
X128069Y44475
X128929Y44050
X130154Y43825
X130519Y44950
X130519Y45325
X130519Y45700
X130519Y46075
X133454Y43950
X117344Y49175
X116944Y49175
X116219Y49200
X115819Y49200
X115419Y49200
X115019Y49200
X114619Y49200
X114619Y48800
X115019Y48800
X115419Y48800
X115819Y48800
X116219Y48800
X115979Y50550
X115279Y50975
X113279Y51625
X113079Y53100
X112079Y53100
X111079Y53100
X110079Y53100
X110079Y52100
X110079Y51100
X110079Y50100
X108604Y49500
X107604Y49500
X106604Y49500
X105604Y49500
X105604Y50500
X105604Y51500
X105604Y52500
X104379Y52925
X104404Y52000
X103704Y51325
X100529Y52025
X101404Y53300
X103529Y53300
X104129Y54800
X103929Y55600
X102379Y55600
X101204Y55100
X98704Y53725
X97629Y53725
X95379Y52725
X94779Y52725
X94454Y53325
X94354Y54150
X95029Y54075
X93879Y54875
X93079Y54700
X92354Y54725
X91654Y54700
X90879Y54700
X90104Y54700
X89329Y54725
X88554Y54700
X87804Y54550
X86679Y54400
X85504Y54700
X84679Y53875
X84629Y53075
X83529Y52725
X81404Y52550
X82779Y51550
X82504Y50450
X81929Y49650
X80204Y49675
X78679Y49525
X79679Y48250
X77204Y48025
X76029Y48025
X83879Y50450
X85004Y50450
X85429Y49825
X89354Y50625
X91379Y50625
X92329Y50225
X93579Y49100
X94104Y49125
X94979Y48400
X95379Y47875
X96129Y48700
X96779Y49175
X98179Y48950
X99729Y49600
X92854Y48400
X90104Y46875
X87879Y46875
X85579Y46875
X89354Y48700
X79029Y52500
X77204Y52075
X76029Y52075
X74879Y53300
X74179Y55375
X72679Y55350
X76254Y55275
X79404Y55825
X80929Y55275
X81729Y55250
X82529Y54525
X81729Y54350
X84304Y55550
X84679Y55900
X84529Y56425
X85604Y57425
X86629Y55825
X82904Y57450
X83679Y57825
X82104Y57925
X81454Y58800
X81104Y59450
X82004Y60450
X82004Y60950
X84929Y59050
X86754Y60425
X86454Y60950
X87204Y61175
X87879Y60800
X89004Y59675
X88079Y59250
X87879Y58750
X88454Y57950
X90254Y58550
X90779Y58000
X91304Y58000
X91854Y57375
X91604Y56825
X91054Y56200
X92554Y56575
X93154Y57225
X93129Y58525
X93904Y59200
X94204Y60050
X92879Y59775
X92529Y60175
X91654Y59975
X92004Y59200
X96954Y57775
X97604Y58600
X99904Y58725
X101079Y58750
X98704Y56775
X95629Y56350
X95654Y55175
X94704Y55475
X91604Y53375
X105604Y53500
X105604Y54500
X105604Y55500
X107304Y55350
X107904Y55875
X107904Y56275
X108304Y56275
X108304Y55875
X108704Y55875
X108704Y56275
X105604Y56500
X105604Y57500
X107829Y57850
X108029Y58375
X105604Y58500
X105604Y59500
X105604Y60500
X105129Y61175
X104029Y60025
X108304Y60025
X111029Y60075
X112029Y59050
X113804Y59050
X114254Y59600
X117304Y60225
X117104Y61775
X119104Y59200
X120754Y58025
X120754Y57600
X120754Y57175
X120754Y56750
X121179Y56750
X121179Y57175
X121179Y57600
X121179Y58025
X121604Y58025
X121604Y57600
X121604Y57175
X121604Y56750
X122029Y56750
X122029Y57175
X122029Y57600
X122029Y58025
X122454Y58025
X122454Y57600
X122454Y57175
X122454Y56750
X125379Y56750
X125379Y57175
X125379Y57600
X125379Y58025
X125804Y58025
X125804Y57600
X125804Y57175
X125804Y56750
X126229Y56750
X126229Y57175
X126229Y57600
X126229Y58025
X126654Y58025
X126654Y57600
X126654Y57175
X126654Y56750
X127079Y56750
X127079Y57175
X127079Y57600
X127079Y58025
X127079Y53600
X126654Y53600
X126229Y53600
X125804Y53600
X125379Y53600
X125379Y53175
X125379Y52750
X125379Y52325
X125804Y52325
X125804Y52750
X125804Y53175
X126229Y53175
X126229Y52750
X126229Y52325
X126654Y52325
X126654Y52750
X126654Y53175
X127079Y53175
X127079Y52750
X127079Y52325
X122479Y52275
X122054Y52275
X121629Y52275
X121204Y52275
X120779Y52275
X120779Y52700
X120779Y53125
X120779Y53550
X121204Y53550
X121204Y53125
X121204Y52700
X121629Y52700
X121629Y53125
X121629Y53550
X122054Y53550
X122054Y53125
X122054Y52700
X122479Y52700
X122479Y53125
X122479Y53550
X119329Y52200
X119079Y53100
X118079Y53100
X117079Y53100
X116079Y53100
X115079Y53100
X114079Y53100
X115654Y54075
X115654Y54525
X115654Y54975
X115654Y55425
X115654Y55875
X115654Y56325
X115654Y56775
X115654Y57225
X117179Y57575
X112304Y57225
X112304Y56775
X112304Y56325
X112304Y55875
X112304Y55425
X112304Y54975
X112304Y54525
X112304Y54075
X108804Y53350
X108254Y52000
X111929Y49650
X108954Y48200
X108954Y47200
X108579Y46150
X108579Y45275
X106904Y46325
X106379Y46950
X105004Y43625
X115479Y46200
X116079Y45750
X109929Y58375
X98329Y60375
X76604Y57425
X61331Y57600
X61331Y57175
X61331Y56750
X60906Y56750
X60481Y56750
X60056Y56750
X59631Y56750
X59631Y57175
X60056Y57175
X60481Y57175
X60906Y57175
X60906Y57600
X60481Y57600
X60056Y57600
X59631Y57600
X59631Y58025
X60056Y58025
X60481Y58025
X60906Y58025
X61331Y58025
X61331Y53600
X61331Y53175
X61331Y52750
X61331Y52325
X60906Y52325
X60481Y52325
X60056Y52325
X59631Y52325
X59631Y52750
X60056Y52750
X60481Y52750
X60906Y52750
X60906Y53175
X60481Y53175
X60056Y53175
X59631Y53175
X59631Y53600
X60056Y53600
X60481Y53600
X60906Y53600
X50331Y45750
X49731Y46200
X52581Y40050
X52581Y39650
X52581Y39275
X52581Y38875
X52581Y38475
X52981Y40050
X53356Y40050
X53756Y40050
X54131Y40050
X54531Y40050
X54906Y40050
X54906Y39650
X54906Y39250
X54906Y38850
X54906Y38450
X55306Y38450
X55306Y38850
X55306Y39250
X55306Y39650
X55306Y40050
X42206Y35975
X41831Y35975
X44056Y33800
X43887Y31750
X44312Y31750
X44737Y31750
X45162Y31750
X43462Y31750
X43462Y30350
X43887Y30350
X44312Y30350
X44737Y30350
X45162Y30350
X45062Y28050
X45437Y28050
X36362Y27675
X33702Y35921
X32106Y36150
X32106Y37725
X35106Y37575
X12731Y40975
X11456Y48025
X10281Y48025
X13931Y48250
X14456Y49675
X12931Y49525
X25856Y53375
X28956Y55475
X29906Y55175
X29881Y56350
X32956Y56775
X32581Y60375
X20881Y55825
X10856Y57425
X85779Y42650
X34137Y17950
X33887Y16050
X32737Y16050
X34987Y15575
X35687Y13300
X33937Y13300
X30187Y14125
X30187Y14525
X30862Y8875
X30862Y7150
X29612Y6100
X10562Y6800
X10562Y7175
T03
X23606Y34425
X23606Y34800
X24031Y34800
X24031Y34425
X24356Y35875
X24356Y36275
X22631Y36275
X22631Y35875
X6206Y40625
X5831Y40625
X5831Y41050
X6206Y41050
X46506Y35875
X46506Y35475
X46931Y35475
X46931Y35875
X47381Y46150
X47781Y46150
X48181Y46150
X48181Y46575
X47781Y46575
X47381Y46575
X47381Y47000
X47781Y47000
X48181Y47000
X71579Y41050
X71954Y41050
X71954Y40625
X71579Y40625
X88379Y36275
X88379Y35875
X90104Y35875
X90104Y36275
X89779Y34800
X89779Y34425
X89354Y34425
X89354Y34800
X112254Y35475
X112254Y35875
X112679Y35875
X112679Y35475
X113129Y46150
X113529Y46150
X113929Y46150
X113929Y46575
X113529Y46575
X113129Y46575
X113129Y47000
X113529Y47000
X113929Y47000
T04
X121879Y50050
X133199Y29425
X134774Y29425
X131662Y27393
X131662Y26393
X130662Y26393
X130662Y27393
X130662Y25393
X131662Y25393
X131662Y24393
X131662Y23393
X130662Y23393
X130662Y24393
X130662Y22393
X131662Y22393
X131662Y21393
X130662Y21393
X130662Y20393
X131662Y20393
X131662Y19393
X131662Y18393
X130662Y18393
X130662Y19393
X130662Y17393
X131662Y17393
X131662Y16393
X130662Y16393
X130662Y15393
X131662Y15393
X131662Y14393
X131662Y13393
X130662Y13393
X130662Y14393
X130662Y12393
X131662Y12393
X131662Y11393
X130662Y11393
X130662Y10393
X131662Y10393
X131662Y9393
X131662Y8393
X130662Y8393
X130662Y9393
X123604Y28525
X122029Y28525
X56131Y50050
T05
X54131Y50050
X119879Y50050
T06
X119837Y31390
X118837Y31390
X117837Y31390
X116837Y31390
X115837Y31390
X114837Y31390
X112837Y31390
X111837Y31390
X110837Y31390
X109837Y31390
X108837Y31390
X107837Y31390
X106837Y31390
X105837Y31390
X102837Y31390
X101837Y31390
X101837Y30390
X102837Y30390
X102837Y29390
X101837Y29390
X101837Y28390
X102837Y28390
X102837Y27390
X101837Y27390
X101837Y26390
X102837Y26390
X102837Y25390
X101837Y25390
X101837Y24390
X101837Y23390
X102837Y23390
X102837Y24390
X102837Y22390
X101837Y22390
X101837Y21390
X102837Y21390
X102837Y20390
X101837Y20390
X101837Y19390
X101837Y18390
X102837Y18390
X102837Y19390
X102837Y17390
X101837Y17390
X101837Y16390
X102837Y16390
X102837Y15390
X101837Y15390
X101837Y14390
X102837Y14390
X103837Y12390
X104837Y12390
X105837Y12390
X106837Y12390
X107837Y12390
X108837Y12390
X109837Y12390
X110837Y12390
X112837Y12390
X113837Y12390
X114837Y12390
X115837Y12390
X116837Y12390
X117837Y12390
X118837Y12390
X119837Y12390
X121837Y12390
X122837Y12390
X123837Y12390
X124837Y12390
X125837Y12390
X126837Y12390
X114837Y21390
X114837Y22390
X113837Y22390
X113837Y23390
X114837Y23390
X120837Y31390
X121837Y31390
X123437Y31390
X124437Y31390
X125437Y31390
X126437Y31390
X127437Y31390
X128437Y31390
X129437Y31390
X130437Y31390
X88071Y18661
X87071Y18661
X86071Y18661
X85071Y18661
X84071Y18661
X83071Y18661
X82071Y18661
X81071Y18661
X81071Y16661
X82071Y16661
X83071Y16661
X84071Y16661
X85071Y16661
X86071Y16661
X87071Y16661
X88071Y16661
X59331Y16661
X58331Y16661
X57331Y16661
X56331Y16661
X55331Y16661
X54331Y16661
X53331Y16661
X52331Y16661
X52331Y18661
X53331Y18661
X54331Y18661
X55331Y18661
X56331Y18661
X57331Y18661
X58331Y18661
X59331Y18661
X25555Y26355
X24571Y26355
X24571Y27615
X25555Y27615
T07
X7762Y4250
X7762Y7250
T08
X30662Y18775
X31662Y18775
X32662Y18775
X33662Y18775
X34662Y18775
X34662Y19775
X33662Y19775
X32662Y19775
X31662Y19775
X30662Y19775
X32337Y24431
X33337Y24431
X36317Y24431
X37317Y24431
X36577Y28549
X35577Y28549
X34577Y28549
X33577Y28549
X33077Y29549
X34077Y29549
X35077Y29549
X36077Y29549
X36162Y31275
X35162Y31275
X34162Y31275
X33162Y31275
X32162Y31275
X31162Y31275
X30162Y31275
X29162Y31275
X24762Y31275
X23762Y31275
X22762Y31275
X21762Y31275
X20762Y31275
X17387Y31275
X16387Y31275
X15387Y31275
X14387Y31275
X13387Y31275
X8438Y41791
X7438Y41791
X7438Y42791
X7438Y43791
X8438Y43791
X8438Y42791
X8438Y44791
X7438Y44791
X7438Y45791
X7438Y46791
X8438Y46791
X8438Y45791
X8438Y47791
X7438Y47791
X7438Y48791
X8438Y48791
X8438Y49791
X7438Y49791
X7438Y50791
X7438Y51791
X8438Y51791
X8438Y50791
X8438Y52791
X7438Y52791
X7438Y53791
X8438Y53791
X73186Y53791
X73186Y52791
X74186Y52791
X74186Y53791
X74186Y51791
X73186Y51791
X73186Y50791
X74186Y50791
X74186Y49791
X73186Y49791
X73186Y48791
X73186Y47791
X74186Y47791
X74186Y48791
X74186Y46791
X73186Y46791
X73186Y45791
X74186Y45791
X74186Y44791
X73186Y44791
X73186Y43791
X73186Y42791
X74186Y42791
X74186Y43791
X74186Y41791
X73186Y41791
X88945Y28669
X88945Y26700
X94654Y26700
X94654Y27685
X94654Y28669
X78414Y23870
X77414Y23870
X77414Y22870
X78414Y22870
X78414Y21870
X77414Y21870
X77414Y20870
X78414Y20870
X78414Y19870
X77414Y19870
X77414Y18870
X78414Y18870
X78414Y17870
X77414Y17870
X77414Y16870
X77414Y15870
X78414Y15870
X78414Y16870
X78414Y14870
X77414Y14870
X77414Y13870
X78414Y13870
X78414Y12870
X77414Y12870
X77414Y11870
X78414Y11870
X63273Y11815
X62273Y11815
X62273Y12815
X63273Y12815
X63273Y13815
X63273Y14815
X62273Y14815
X62273Y13815
X62273Y15815
X62273Y16815
X63273Y16815
X63273Y15815
X63273Y17815
X62273Y17815
X62273Y18815
X62273Y19815
X63273Y19815
X63273Y18815
X63273Y20815
X63273Y21815
X62273Y21815
X62273Y20815
X62273Y22815
X63273Y22815
X63273Y23815
X62273Y23815
X46812Y23150
X46812Y22150
X46812Y21150
X98417Y11625
X98417Y10625
X98417Y9625
X98417Y8625
X98417Y7625
X98417Y6625
X98417Y5625
X98417Y4625
X114867Y4950
X115867Y4950
X122517Y4825
X123517Y4825
X124517Y4825
X125517Y4825
X126517Y4825
X126517Y5825
X125517Y5825
X124517Y5825
X123517Y5825
X122517Y5825
T09
X113837Y21390
X47038Y18525
X44085Y19525
X44460Y8050
X47413Y7050
X14412Y6825
X14412Y8825
X11262Y22525
X11262Y26525
T10
X10962Y14090
X7025Y14090
X63230Y46950
X66183Y46950
X66208Y54100
X63255Y54100
X129003Y54100
X131956Y54100
X131931Y46950
X128978Y46950
T11
X127319Y48387
X132240Y48387
X132240Y40513
X127319Y40513
X66492Y40513
X61571Y40513
X61571Y48387
X66492Y48387
X25599Y22262
X23630Y22262
X19693Y22262
X17725Y22262
X12730Y18401
X8793Y19149
X8793Y17174
X12730Y16426
X17725Y14388
X25599Y14388
T12
X37726Y13987
X43679Y13987
X45663Y13987
X47647Y13987
X47647Y16963
X45663Y16963
X43679Y16963
X37726Y16963
X64764Y15613
X66748Y15613
X68732Y15613
X68732Y12637
X66748Y12637
X64764Y12637
X74685Y12637
X74685Y15613
X74910Y18562
X72926Y18562
X70941Y18562
X64989Y18562
X64989Y21538
X70941Y21538
X72926Y21538
X74910Y21538
X120237Y22575
X128107Y22575
T13
X132004Y59000
X132004Y60969
X66256Y60969
X66256Y59000
T14
X24612Y11000
X22462Y11000
X20312Y11000
X20312Y7300
X22462Y7300
X24612Y7300
T15
X96362Y8100
X96362Y10069
T16
X100722Y39376
X102922Y39376
X105122Y39376
X39373Y39376
X37173Y39376
X34973Y39376
X11197Y11245
X11222Y9065
X5222Y9065
X5197Y11245
T17
X43473Y9968
X45441Y9968
X47410Y9968
T18
X37927Y27581
X31727Y27581
T19
X134030Y9062
X134030Y7212
X134030Y5362
T20
X130854Y34943
X130854Y36597
X130854Y38250
X65106Y38250
X65106Y36597
X65106Y34943
X8737Y27575
X8737Y25922
X8737Y24268
X8737Y22615
X8737Y20961
T21
X91701Y25283
X91701Y30086
T22
X27433Y26552
X22693Y26552
T23
X27487Y8525
X17487Y8525
T24
X5863Y20961
X5863Y27575
X62921Y37423
X66622Y34943
X128669Y37423
X132370Y34943
T25
X123394Y34771
X130087Y29456
X96425Y29456
X73394Y34771
X57646Y34771
X51150Y30834
X41307Y30834
X37077Y26049
X32577Y26049
X29496Y27881
X7646Y34771
X5087Y30834
X5087Y6031
X41307Y6031
X96425Y6228
X130087Y6228
X118670Y60756
X73394Y60756
X52922Y60756
X7646Y60756
T26
X58847Y6819
X66347Y6819
X73847Y6819
X81347Y6819
X91701Y6819
T27
X102922Y46976
X37173Y46976
M30
