G75*
G70*
%OFA0B0*%
%FSLAX24Y24*%
%IPPOS*%
%LPD*%
%AMOC8*
5,1,8,0,0,1.08239X$1,22.5*
%
%ADD10C,0.0039*%
%ADD11C,0.0000*%
D10*
X004103Y003275D02*
X048197Y003275D01*
X048243Y003277D01*
X048289Y003282D01*
X048335Y003291D01*
X048380Y003304D01*
X048423Y003320D01*
X048465Y003339D01*
X048506Y003362D01*
X048544Y003388D01*
X048581Y003417D01*
X048615Y003448D01*
X048646Y003482D01*
X048675Y003519D01*
X048701Y003557D01*
X048724Y003598D01*
X048743Y003640D01*
X048759Y003683D01*
X048772Y003728D01*
X048781Y003774D01*
X048786Y003820D01*
X048788Y003866D01*
X048788Y031819D01*
X048786Y031865D01*
X048781Y031911D01*
X048772Y031957D01*
X048759Y032002D01*
X048743Y032045D01*
X048724Y032087D01*
X048701Y032128D01*
X048675Y032166D01*
X048646Y032203D01*
X048615Y032237D01*
X048581Y032268D01*
X048544Y032297D01*
X048506Y032323D01*
X048465Y032346D01*
X048423Y032365D01*
X048380Y032381D01*
X048335Y032394D01*
X048289Y032403D01*
X048243Y032408D01*
X048197Y032410D01*
X048197Y032409D02*
X004103Y032409D01*
X004103Y032410D02*
X004057Y032408D01*
X004011Y032403D01*
X003965Y032394D01*
X003920Y032381D01*
X003877Y032365D01*
X003835Y032346D01*
X003794Y032323D01*
X003756Y032297D01*
X003719Y032268D01*
X003685Y032237D01*
X003654Y032203D01*
X003625Y032166D01*
X003599Y032128D01*
X003576Y032087D01*
X003557Y032045D01*
X003541Y032002D01*
X003528Y031957D01*
X003519Y031911D01*
X003514Y031865D01*
X003512Y031819D01*
X003512Y003866D01*
X003514Y003820D01*
X003519Y003774D01*
X003528Y003728D01*
X003541Y003683D01*
X003557Y003640D01*
X003576Y003598D01*
X003599Y003557D01*
X003625Y003519D01*
X003654Y003482D01*
X003685Y003448D01*
X003719Y003417D01*
X003756Y003388D01*
X003794Y003362D01*
X003835Y003339D01*
X003877Y003320D01*
X003920Y003304D01*
X003965Y003291D01*
X004011Y003282D01*
X004057Y003277D01*
X004103Y003275D01*
X049575Y003866D02*
X049575Y031819D01*
X049577Y031865D01*
X049582Y031911D01*
X049591Y031957D01*
X049604Y032002D01*
X049620Y032045D01*
X049639Y032087D01*
X049662Y032128D01*
X049688Y032166D01*
X049717Y032203D01*
X049748Y032237D01*
X049782Y032268D01*
X049819Y032297D01*
X049857Y032323D01*
X049898Y032346D01*
X049940Y032365D01*
X049983Y032381D01*
X050028Y032394D01*
X050074Y032403D01*
X050120Y032408D01*
X050166Y032410D01*
X050166Y032409D02*
X135599Y032409D01*
X135599Y032410D02*
X135645Y032408D01*
X135691Y032403D01*
X135737Y032394D01*
X135782Y032381D01*
X135825Y032365D01*
X135867Y032346D01*
X135908Y032323D01*
X135946Y032297D01*
X135983Y032268D01*
X136017Y032237D01*
X136048Y032203D01*
X136077Y032166D01*
X136103Y032128D01*
X136126Y032087D01*
X136145Y032045D01*
X136161Y032002D01*
X136174Y031957D01*
X136183Y031911D01*
X136188Y031865D01*
X136190Y031819D01*
X136189Y031819D02*
X136189Y003866D01*
X136190Y003866D02*
X136188Y003820D01*
X136183Y003774D01*
X136174Y003728D01*
X136161Y003683D01*
X136145Y003640D01*
X136126Y003598D01*
X136103Y003557D01*
X136077Y003519D01*
X136048Y003482D01*
X136017Y003448D01*
X135983Y003417D01*
X135946Y003388D01*
X135908Y003362D01*
X135867Y003339D01*
X135825Y003320D01*
X135782Y003304D01*
X135737Y003291D01*
X135691Y003282D01*
X135645Y003277D01*
X135599Y003275D01*
X050166Y003275D01*
X050120Y003277D01*
X050074Y003282D01*
X050028Y003291D01*
X049983Y003304D01*
X049940Y003320D01*
X049898Y003339D01*
X049857Y003362D01*
X049819Y003388D01*
X049782Y003417D01*
X049748Y003448D01*
X049717Y003482D01*
X049688Y003519D01*
X049662Y003557D01*
X049639Y003598D01*
X049620Y003640D01*
X049604Y003683D01*
X049591Y003728D01*
X049582Y003774D01*
X049577Y003820D01*
X049575Y003866D01*
X067882Y033196D02*
X004103Y033196D01*
X004057Y033198D01*
X004011Y033203D01*
X003965Y033212D01*
X003920Y033225D01*
X003877Y033241D01*
X003835Y033260D01*
X003794Y033283D01*
X003756Y033309D01*
X003719Y033338D01*
X003685Y033369D01*
X003654Y033403D01*
X003625Y033440D01*
X003599Y033478D01*
X003576Y033519D01*
X003557Y033561D01*
X003541Y033604D01*
X003528Y033649D01*
X003519Y033695D01*
X003514Y033741D01*
X003512Y033787D01*
X003512Y061740D01*
X003514Y061786D01*
X003519Y061832D01*
X003528Y061878D01*
X003541Y061923D01*
X003557Y061966D01*
X003576Y062008D01*
X003599Y062049D01*
X003625Y062087D01*
X003654Y062124D01*
X003685Y062158D01*
X003719Y062189D01*
X003756Y062218D01*
X003794Y062244D01*
X003835Y062267D01*
X003877Y062286D01*
X003920Y062302D01*
X003965Y062315D01*
X004011Y062324D01*
X004057Y062329D01*
X004103Y062331D01*
X004103Y062330D02*
X067882Y062330D01*
X067882Y062331D02*
X067928Y062329D01*
X067974Y062324D01*
X068020Y062315D01*
X068065Y062302D01*
X068108Y062286D01*
X068150Y062267D01*
X068191Y062244D01*
X068229Y062218D01*
X068266Y062189D01*
X068300Y062158D01*
X068331Y062124D01*
X068360Y062087D01*
X068386Y062049D01*
X068409Y062008D01*
X068428Y061966D01*
X068444Y061923D01*
X068457Y061878D01*
X068466Y061832D01*
X068471Y061786D01*
X068473Y061740D01*
X068473Y033787D01*
X068471Y033741D01*
X068466Y033695D01*
X068457Y033649D01*
X068444Y033604D01*
X068428Y033561D01*
X068409Y033519D01*
X068386Y033478D01*
X068360Y033440D01*
X068331Y033403D01*
X068300Y033369D01*
X068266Y033338D01*
X068229Y033309D01*
X068191Y033283D01*
X068150Y033260D01*
X068108Y033241D01*
X068065Y033225D01*
X068020Y033212D01*
X067974Y033203D01*
X067928Y033198D01*
X067882Y033196D01*
X069260Y033787D02*
X069260Y061740D01*
X069262Y061786D01*
X069267Y061832D01*
X069276Y061878D01*
X069289Y061923D01*
X069305Y061966D01*
X069324Y062008D01*
X069347Y062049D01*
X069373Y062087D01*
X069402Y062124D01*
X069433Y062158D01*
X069467Y062189D01*
X069504Y062218D01*
X069542Y062244D01*
X069583Y062267D01*
X069625Y062286D01*
X069668Y062302D01*
X069713Y062315D01*
X069759Y062324D01*
X069805Y062329D01*
X069851Y062331D01*
X069851Y062330D02*
X133630Y062330D01*
X133630Y062331D02*
X133676Y062329D01*
X133722Y062324D01*
X133768Y062315D01*
X133813Y062302D01*
X133856Y062286D01*
X133898Y062267D01*
X133939Y062244D01*
X133977Y062218D01*
X134014Y062189D01*
X134048Y062158D01*
X134079Y062124D01*
X134108Y062087D01*
X134134Y062049D01*
X134157Y062008D01*
X134176Y061966D01*
X134192Y061923D01*
X134205Y061878D01*
X134214Y061832D01*
X134219Y061786D01*
X134221Y061740D01*
X134221Y033787D01*
X134219Y033741D01*
X134214Y033695D01*
X134205Y033649D01*
X134192Y033604D01*
X134176Y033561D01*
X134157Y033519D01*
X134134Y033478D01*
X134108Y033440D01*
X134079Y033403D01*
X134048Y033369D01*
X134014Y033338D01*
X133977Y033309D01*
X133939Y033283D01*
X133898Y033260D01*
X133856Y033241D01*
X133813Y033225D01*
X133768Y033212D01*
X133722Y033203D01*
X133676Y033198D01*
X133630Y033196D01*
X069851Y033196D01*
X069805Y033198D01*
X069759Y033203D01*
X069713Y033212D01*
X069668Y033225D01*
X069625Y033241D01*
X069583Y033260D01*
X069542Y033283D01*
X069504Y033309D01*
X069467Y033338D01*
X069433Y033369D01*
X069402Y033403D01*
X069373Y033440D01*
X069347Y033478D01*
X069324Y033519D01*
X069305Y033561D01*
X069289Y033604D01*
X069276Y033649D01*
X069267Y033695D01*
X069262Y033741D01*
X069260Y033787D01*
D11*
X066031Y034943D02*
X066033Y034991D01*
X066039Y035039D01*
X066049Y035086D01*
X066062Y035132D01*
X066080Y035177D01*
X066100Y035221D01*
X066125Y035263D01*
X066153Y035302D01*
X066183Y035339D01*
X066217Y035373D01*
X066254Y035405D01*
X066292Y035434D01*
X066333Y035459D01*
X066376Y035481D01*
X066421Y035499D01*
X066467Y035513D01*
X066514Y035524D01*
X066562Y035531D01*
X066610Y035534D01*
X066658Y035533D01*
X066706Y035528D01*
X066754Y035519D01*
X066800Y035507D01*
X066845Y035490D01*
X066889Y035470D01*
X066931Y035447D01*
X066971Y035420D01*
X067009Y035390D01*
X067044Y035357D01*
X067076Y035321D01*
X067106Y035283D01*
X067132Y035242D01*
X067154Y035199D01*
X067174Y035155D01*
X067189Y035110D01*
X067201Y035063D01*
X067209Y035015D01*
X067213Y034967D01*
X067213Y034919D01*
X067209Y034871D01*
X067201Y034823D01*
X067189Y034776D01*
X067174Y034731D01*
X067154Y034687D01*
X067132Y034644D01*
X067106Y034603D01*
X067076Y034565D01*
X067044Y034529D01*
X067009Y034496D01*
X066971Y034466D01*
X066931Y034439D01*
X066889Y034416D01*
X066845Y034396D01*
X066800Y034379D01*
X066754Y034367D01*
X066706Y034358D01*
X066658Y034353D01*
X066610Y034352D01*
X066562Y034355D01*
X066514Y034362D01*
X066467Y034373D01*
X066421Y034387D01*
X066376Y034405D01*
X066333Y034427D01*
X066292Y034452D01*
X066254Y034481D01*
X066217Y034513D01*
X066183Y034547D01*
X066153Y034584D01*
X066125Y034623D01*
X066100Y034665D01*
X066080Y034709D01*
X066062Y034754D01*
X066049Y034800D01*
X066039Y034847D01*
X066033Y034895D01*
X066031Y034943D01*
X062330Y037423D02*
X062332Y037471D01*
X062338Y037519D01*
X062348Y037566D01*
X062361Y037612D01*
X062379Y037657D01*
X062399Y037701D01*
X062424Y037743D01*
X062452Y037782D01*
X062482Y037819D01*
X062516Y037853D01*
X062553Y037885D01*
X062591Y037914D01*
X062632Y037939D01*
X062675Y037961D01*
X062720Y037979D01*
X062766Y037993D01*
X062813Y038004D01*
X062861Y038011D01*
X062909Y038014D01*
X062957Y038013D01*
X063005Y038008D01*
X063053Y037999D01*
X063099Y037987D01*
X063144Y037970D01*
X063188Y037950D01*
X063230Y037927D01*
X063270Y037900D01*
X063308Y037870D01*
X063343Y037837D01*
X063375Y037801D01*
X063405Y037763D01*
X063431Y037722D01*
X063453Y037679D01*
X063473Y037635D01*
X063488Y037590D01*
X063500Y037543D01*
X063508Y037495D01*
X063512Y037447D01*
X063512Y037399D01*
X063508Y037351D01*
X063500Y037303D01*
X063488Y037256D01*
X063473Y037211D01*
X063453Y037167D01*
X063431Y037124D01*
X063405Y037083D01*
X063375Y037045D01*
X063343Y037009D01*
X063308Y036976D01*
X063270Y036946D01*
X063230Y036919D01*
X063188Y036896D01*
X063144Y036876D01*
X063099Y036859D01*
X063053Y036847D01*
X063005Y036838D01*
X062957Y036833D01*
X062909Y036832D01*
X062861Y036835D01*
X062813Y036842D01*
X062766Y036853D01*
X062720Y036867D01*
X062675Y036885D01*
X062632Y036907D01*
X062591Y036932D01*
X062553Y036961D01*
X062516Y036993D01*
X062482Y037027D01*
X062452Y037064D01*
X062424Y037103D01*
X062399Y037145D01*
X062379Y037189D01*
X062361Y037234D01*
X062348Y037280D01*
X062338Y037327D01*
X062332Y037375D01*
X062330Y037423D01*
X035893Y046976D02*
X035895Y047047D01*
X035901Y047118D01*
X035911Y047189D01*
X035925Y047258D01*
X035942Y047327D01*
X035964Y047395D01*
X035989Y047462D01*
X036018Y047527D01*
X036050Y047590D01*
X036086Y047652D01*
X036125Y047711D01*
X036168Y047768D01*
X036213Y047823D01*
X036262Y047875D01*
X036313Y047924D01*
X036367Y047970D01*
X036424Y048014D01*
X036482Y048054D01*
X036543Y048090D01*
X036606Y048124D01*
X036671Y048153D01*
X036737Y048179D01*
X036805Y048202D01*
X036873Y048220D01*
X036943Y048235D01*
X037013Y048246D01*
X037084Y048253D01*
X037155Y048256D01*
X037226Y048255D01*
X037297Y048250D01*
X037368Y048241D01*
X037438Y048228D01*
X037507Y048212D01*
X037575Y048191D01*
X037642Y048167D01*
X037708Y048139D01*
X037771Y048107D01*
X037833Y048072D01*
X037893Y048034D01*
X037951Y047992D01*
X038006Y047948D01*
X038059Y047900D01*
X038109Y047849D01*
X038156Y047796D01*
X038200Y047740D01*
X038241Y047682D01*
X038279Y047621D01*
X038313Y047559D01*
X038343Y047494D01*
X038370Y047429D01*
X038394Y047361D01*
X038413Y047293D01*
X038429Y047224D01*
X038441Y047153D01*
X038449Y047083D01*
X038453Y047012D01*
X038453Y046940D01*
X038449Y046869D01*
X038441Y046799D01*
X038429Y046728D01*
X038413Y046659D01*
X038394Y046591D01*
X038370Y046523D01*
X038343Y046458D01*
X038313Y046393D01*
X038279Y046331D01*
X038241Y046270D01*
X038200Y046212D01*
X038156Y046156D01*
X038109Y046103D01*
X038059Y046052D01*
X038006Y046004D01*
X037951Y045960D01*
X037893Y045918D01*
X037833Y045880D01*
X037771Y045845D01*
X037708Y045813D01*
X037642Y045785D01*
X037575Y045761D01*
X037507Y045740D01*
X037438Y045724D01*
X037368Y045711D01*
X037297Y045702D01*
X037226Y045697D01*
X037155Y045696D01*
X037084Y045699D01*
X037013Y045706D01*
X036943Y045717D01*
X036873Y045732D01*
X036805Y045750D01*
X036737Y045773D01*
X036671Y045799D01*
X036606Y045828D01*
X036543Y045862D01*
X036482Y045898D01*
X036424Y045938D01*
X036367Y045982D01*
X036313Y046028D01*
X036262Y046077D01*
X036213Y046129D01*
X036168Y046184D01*
X036125Y046241D01*
X036086Y046300D01*
X036050Y046362D01*
X036018Y046425D01*
X035989Y046490D01*
X035964Y046557D01*
X035942Y046625D01*
X035925Y046694D01*
X035911Y046763D01*
X035901Y046834D01*
X035895Y046905D01*
X035893Y046976D01*
X005272Y027575D02*
X005274Y027623D01*
X005280Y027671D01*
X005290Y027718D01*
X005303Y027764D01*
X005321Y027809D01*
X005341Y027853D01*
X005366Y027895D01*
X005394Y027934D01*
X005424Y027971D01*
X005458Y028005D01*
X005495Y028037D01*
X005533Y028066D01*
X005574Y028091D01*
X005617Y028113D01*
X005662Y028131D01*
X005708Y028145D01*
X005755Y028156D01*
X005803Y028163D01*
X005851Y028166D01*
X005899Y028165D01*
X005947Y028160D01*
X005995Y028151D01*
X006041Y028139D01*
X006086Y028122D01*
X006130Y028102D01*
X006172Y028079D01*
X006212Y028052D01*
X006250Y028022D01*
X006285Y027989D01*
X006317Y027953D01*
X006347Y027915D01*
X006373Y027874D01*
X006395Y027831D01*
X006415Y027787D01*
X006430Y027742D01*
X006442Y027695D01*
X006450Y027647D01*
X006454Y027599D01*
X006454Y027551D01*
X006450Y027503D01*
X006442Y027455D01*
X006430Y027408D01*
X006415Y027363D01*
X006395Y027319D01*
X006373Y027276D01*
X006347Y027235D01*
X006317Y027197D01*
X006285Y027161D01*
X006250Y027128D01*
X006212Y027098D01*
X006172Y027071D01*
X006130Y027048D01*
X006086Y027028D01*
X006041Y027011D01*
X005995Y026999D01*
X005947Y026990D01*
X005899Y026985D01*
X005851Y026984D01*
X005803Y026987D01*
X005755Y026994D01*
X005708Y027005D01*
X005662Y027019D01*
X005617Y027037D01*
X005574Y027059D01*
X005533Y027084D01*
X005495Y027113D01*
X005458Y027145D01*
X005424Y027179D01*
X005394Y027216D01*
X005366Y027255D01*
X005341Y027297D01*
X005321Y027341D01*
X005303Y027386D01*
X005290Y027432D01*
X005280Y027479D01*
X005274Y027527D01*
X005272Y027575D01*
X005272Y020961D02*
X005274Y021009D01*
X005280Y021057D01*
X005290Y021104D01*
X005303Y021150D01*
X005321Y021195D01*
X005341Y021239D01*
X005366Y021281D01*
X005394Y021320D01*
X005424Y021357D01*
X005458Y021391D01*
X005495Y021423D01*
X005533Y021452D01*
X005574Y021477D01*
X005617Y021499D01*
X005662Y021517D01*
X005708Y021531D01*
X005755Y021542D01*
X005803Y021549D01*
X005851Y021552D01*
X005899Y021551D01*
X005947Y021546D01*
X005995Y021537D01*
X006041Y021525D01*
X006086Y021508D01*
X006130Y021488D01*
X006172Y021465D01*
X006212Y021438D01*
X006250Y021408D01*
X006285Y021375D01*
X006317Y021339D01*
X006347Y021301D01*
X006373Y021260D01*
X006395Y021217D01*
X006415Y021173D01*
X006430Y021128D01*
X006442Y021081D01*
X006450Y021033D01*
X006454Y020985D01*
X006454Y020937D01*
X006450Y020889D01*
X006442Y020841D01*
X006430Y020794D01*
X006415Y020749D01*
X006395Y020705D01*
X006373Y020662D01*
X006347Y020621D01*
X006317Y020583D01*
X006285Y020547D01*
X006250Y020514D01*
X006212Y020484D01*
X006172Y020457D01*
X006130Y020434D01*
X006086Y020414D01*
X006041Y020397D01*
X005995Y020385D01*
X005947Y020376D01*
X005899Y020371D01*
X005851Y020370D01*
X005803Y020373D01*
X005755Y020380D01*
X005708Y020391D01*
X005662Y020405D01*
X005617Y020423D01*
X005574Y020445D01*
X005533Y020470D01*
X005495Y020499D01*
X005458Y020531D01*
X005424Y020565D01*
X005394Y020602D01*
X005366Y020641D01*
X005341Y020683D01*
X005321Y020727D01*
X005303Y020772D01*
X005290Y020818D01*
X005280Y020865D01*
X005274Y020913D01*
X005272Y020961D01*
X031947Y026049D02*
X031949Y026099D01*
X031955Y026149D01*
X031965Y026198D01*
X031979Y026246D01*
X031996Y026293D01*
X032017Y026338D01*
X032042Y026382D01*
X032070Y026423D01*
X032102Y026462D01*
X032136Y026499D01*
X032173Y026533D01*
X032213Y026563D01*
X032255Y026590D01*
X032299Y026614D01*
X032345Y026635D01*
X032392Y026651D01*
X032440Y026664D01*
X032490Y026673D01*
X032539Y026678D01*
X032590Y026679D01*
X032640Y026676D01*
X032689Y026669D01*
X032738Y026658D01*
X032786Y026643D01*
X032832Y026625D01*
X032877Y026603D01*
X032920Y026577D01*
X032961Y026548D01*
X033000Y026516D01*
X033036Y026481D01*
X033068Y026443D01*
X033098Y026403D01*
X033125Y026360D01*
X033148Y026316D01*
X033167Y026270D01*
X033183Y026222D01*
X033195Y026173D01*
X033203Y026124D01*
X033207Y026074D01*
X033207Y026024D01*
X033203Y025974D01*
X033195Y025925D01*
X033183Y025876D01*
X033167Y025828D01*
X033148Y025782D01*
X033125Y025738D01*
X033098Y025695D01*
X033068Y025655D01*
X033036Y025617D01*
X033000Y025582D01*
X032961Y025550D01*
X032920Y025521D01*
X032877Y025495D01*
X032832Y025473D01*
X032786Y025455D01*
X032738Y025440D01*
X032689Y025429D01*
X032640Y025422D01*
X032590Y025419D01*
X032539Y025420D01*
X032490Y025425D01*
X032440Y025434D01*
X032392Y025447D01*
X032345Y025463D01*
X032299Y025484D01*
X032255Y025508D01*
X032213Y025535D01*
X032173Y025565D01*
X032136Y025599D01*
X032102Y025636D01*
X032070Y025675D01*
X032042Y025716D01*
X032017Y025760D01*
X031996Y025805D01*
X031979Y025852D01*
X031965Y025900D01*
X031955Y025949D01*
X031949Y025999D01*
X031947Y026049D01*
X036447Y026049D02*
X036449Y026099D01*
X036455Y026149D01*
X036465Y026198D01*
X036479Y026246D01*
X036496Y026293D01*
X036517Y026338D01*
X036542Y026382D01*
X036570Y026423D01*
X036602Y026462D01*
X036636Y026499D01*
X036673Y026533D01*
X036713Y026563D01*
X036755Y026590D01*
X036799Y026614D01*
X036845Y026635D01*
X036892Y026651D01*
X036940Y026664D01*
X036990Y026673D01*
X037039Y026678D01*
X037090Y026679D01*
X037140Y026676D01*
X037189Y026669D01*
X037238Y026658D01*
X037286Y026643D01*
X037332Y026625D01*
X037377Y026603D01*
X037420Y026577D01*
X037461Y026548D01*
X037500Y026516D01*
X037536Y026481D01*
X037568Y026443D01*
X037598Y026403D01*
X037625Y026360D01*
X037648Y026316D01*
X037667Y026270D01*
X037683Y026222D01*
X037695Y026173D01*
X037703Y026124D01*
X037707Y026074D01*
X037707Y026024D01*
X037703Y025974D01*
X037695Y025925D01*
X037683Y025876D01*
X037667Y025828D01*
X037648Y025782D01*
X037625Y025738D01*
X037598Y025695D01*
X037568Y025655D01*
X037536Y025617D01*
X037500Y025582D01*
X037461Y025550D01*
X037420Y025521D01*
X037377Y025495D01*
X037332Y025473D01*
X037286Y025455D01*
X037238Y025440D01*
X037189Y025429D01*
X037140Y025422D01*
X037090Y025419D01*
X037039Y025420D01*
X036990Y025425D01*
X036940Y025434D01*
X036892Y025447D01*
X036845Y025463D01*
X036799Y025484D01*
X036755Y025508D01*
X036713Y025535D01*
X036673Y025565D01*
X036636Y025599D01*
X036602Y025636D01*
X036570Y025675D01*
X036542Y025716D01*
X036517Y025760D01*
X036496Y025805D01*
X036479Y025852D01*
X036465Y025900D01*
X036455Y025949D01*
X036449Y025999D01*
X036447Y026049D01*
X095795Y029456D02*
X095797Y029506D01*
X095803Y029556D01*
X095813Y029605D01*
X095827Y029653D01*
X095844Y029700D01*
X095865Y029745D01*
X095890Y029789D01*
X095918Y029830D01*
X095950Y029869D01*
X095984Y029906D01*
X096021Y029940D01*
X096061Y029970D01*
X096103Y029997D01*
X096147Y030021D01*
X096193Y030042D01*
X096240Y030058D01*
X096288Y030071D01*
X096338Y030080D01*
X096387Y030085D01*
X096438Y030086D01*
X096488Y030083D01*
X096537Y030076D01*
X096586Y030065D01*
X096634Y030050D01*
X096680Y030032D01*
X096725Y030010D01*
X096768Y029984D01*
X096809Y029955D01*
X096848Y029923D01*
X096884Y029888D01*
X096916Y029850D01*
X096946Y029810D01*
X096973Y029767D01*
X096996Y029723D01*
X097015Y029677D01*
X097031Y029629D01*
X097043Y029580D01*
X097051Y029531D01*
X097055Y029481D01*
X097055Y029431D01*
X097051Y029381D01*
X097043Y029332D01*
X097031Y029283D01*
X097015Y029235D01*
X096996Y029189D01*
X096973Y029145D01*
X096946Y029102D01*
X096916Y029062D01*
X096884Y029024D01*
X096848Y028989D01*
X096809Y028957D01*
X096768Y028928D01*
X096725Y028902D01*
X096680Y028880D01*
X096634Y028862D01*
X096586Y028847D01*
X096537Y028836D01*
X096488Y028829D01*
X096438Y028826D01*
X096387Y028827D01*
X096338Y028832D01*
X096288Y028841D01*
X096240Y028854D01*
X096193Y028870D01*
X096147Y028891D01*
X096103Y028915D01*
X096061Y028942D01*
X096021Y028972D01*
X095984Y029006D01*
X095950Y029043D01*
X095918Y029082D01*
X095890Y029123D01*
X095865Y029167D01*
X095844Y029212D01*
X095827Y029259D01*
X095813Y029307D01*
X095803Y029356D01*
X095797Y029406D01*
X095795Y029456D01*
X128078Y037423D02*
X128080Y037471D01*
X128086Y037519D01*
X128096Y037566D01*
X128109Y037612D01*
X128127Y037657D01*
X128147Y037701D01*
X128172Y037743D01*
X128200Y037782D01*
X128230Y037819D01*
X128264Y037853D01*
X128301Y037885D01*
X128339Y037914D01*
X128380Y037939D01*
X128423Y037961D01*
X128468Y037979D01*
X128514Y037993D01*
X128561Y038004D01*
X128609Y038011D01*
X128657Y038014D01*
X128705Y038013D01*
X128753Y038008D01*
X128801Y037999D01*
X128847Y037987D01*
X128892Y037970D01*
X128936Y037950D01*
X128978Y037927D01*
X129018Y037900D01*
X129056Y037870D01*
X129091Y037837D01*
X129123Y037801D01*
X129153Y037763D01*
X129179Y037722D01*
X129201Y037679D01*
X129221Y037635D01*
X129236Y037590D01*
X129248Y037543D01*
X129256Y037495D01*
X129260Y037447D01*
X129260Y037399D01*
X129256Y037351D01*
X129248Y037303D01*
X129236Y037256D01*
X129221Y037211D01*
X129201Y037167D01*
X129179Y037124D01*
X129153Y037083D01*
X129123Y037045D01*
X129091Y037009D01*
X129056Y036976D01*
X129018Y036946D01*
X128978Y036919D01*
X128936Y036896D01*
X128892Y036876D01*
X128847Y036859D01*
X128801Y036847D01*
X128753Y036838D01*
X128705Y036833D01*
X128657Y036832D01*
X128609Y036835D01*
X128561Y036842D01*
X128514Y036853D01*
X128468Y036867D01*
X128423Y036885D01*
X128380Y036907D01*
X128339Y036932D01*
X128301Y036961D01*
X128264Y036993D01*
X128230Y037027D01*
X128200Y037064D01*
X128172Y037103D01*
X128147Y037145D01*
X128127Y037189D01*
X128109Y037234D01*
X128096Y037280D01*
X128086Y037327D01*
X128080Y037375D01*
X128078Y037423D01*
X131779Y034943D02*
X131781Y034991D01*
X131787Y035039D01*
X131797Y035086D01*
X131810Y035132D01*
X131828Y035177D01*
X131848Y035221D01*
X131873Y035263D01*
X131901Y035302D01*
X131931Y035339D01*
X131965Y035373D01*
X132002Y035405D01*
X132040Y035434D01*
X132081Y035459D01*
X132124Y035481D01*
X132169Y035499D01*
X132215Y035513D01*
X132262Y035524D01*
X132310Y035531D01*
X132358Y035534D01*
X132406Y035533D01*
X132454Y035528D01*
X132502Y035519D01*
X132548Y035507D01*
X132593Y035490D01*
X132637Y035470D01*
X132679Y035447D01*
X132719Y035420D01*
X132757Y035390D01*
X132792Y035357D01*
X132824Y035321D01*
X132854Y035283D01*
X132880Y035242D01*
X132902Y035199D01*
X132922Y035155D01*
X132937Y035110D01*
X132949Y035063D01*
X132957Y035015D01*
X132961Y034967D01*
X132961Y034919D01*
X132957Y034871D01*
X132949Y034823D01*
X132937Y034776D01*
X132922Y034731D01*
X132902Y034687D01*
X132880Y034644D01*
X132854Y034603D01*
X132824Y034565D01*
X132792Y034529D01*
X132757Y034496D01*
X132719Y034466D01*
X132679Y034439D01*
X132637Y034416D01*
X132593Y034396D01*
X132548Y034379D01*
X132502Y034367D01*
X132454Y034358D01*
X132406Y034353D01*
X132358Y034352D01*
X132310Y034355D01*
X132262Y034362D01*
X132215Y034373D01*
X132169Y034387D01*
X132124Y034405D01*
X132081Y034427D01*
X132040Y034452D01*
X132002Y034481D01*
X131965Y034513D01*
X131931Y034547D01*
X131901Y034584D01*
X131873Y034623D01*
X131848Y034665D01*
X131828Y034709D01*
X131810Y034754D01*
X131797Y034800D01*
X131787Y034847D01*
X131781Y034895D01*
X131779Y034943D01*
X129457Y029456D02*
X129459Y029506D01*
X129465Y029556D01*
X129475Y029605D01*
X129489Y029653D01*
X129506Y029700D01*
X129527Y029745D01*
X129552Y029789D01*
X129580Y029830D01*
X129612Y029869D01*
X129646Y029906D01*
X129683Y029940D01*
X129723Y029970D01*
X129765Y029997D01*
X129809Y030021D01*
X129855Y030042D01*
X129902Y030058D01*
X129950Y030071D01*
X130000Y030080D01*
X130049Y030085D01*
X130100Y030086D01*
X130150Y030083D01*
X130199Y030076D01*
X130248Y030065D01*
X130296Y030050D01*
X130342Y030032D01*
X130387Y030010D01*
X130430Y029984D01*
X130471Y029955D01*
X130510Y029923D01*
X130546Y029888D01*
X130578Y029850D01*
X130608Y029810D01*
X130635Y029767D01*
X130658Y029723D01*
X130677Y029677D01*
X130693Y029629D01*
X130705Y029580D01*
X130713Y029531D01*
X130717Y029481D01*
X130717Y029431D01*
X130713Y029381D01*
X130705Y029332D01*
X130693Y029283D01*
X130677Y029235D01*
X130658Y029189D01*
X130635Y029145D01*
X130608Y029102D01*
X130578Y029062D01*
X130546Y029024D01*
X130510Y028989D01*
X130471Y028957D01*
X130430Y028928D01*
X130387Y028902D01*
X130342Y028880D01*
X130296Y028862D01*
X130248Y028847D01*
X130199Y028836D01*
X130150Y028829D01*
X130100Y028826D01*
X130049Y028827D01*
X130000Y028832D01*
X129950Y028841D01*
X129902Y028854D01*
X129855Y028870D01*
X129809Y028891D01*
X129765Y028915D01*
X129723Y028942D01*
X129683Y028972D01*
X129646Y029006D01*
X129612Y029043D01*
X129580Y029082D01*
X129552Y029123D01*
X129527Y029167D01*
X129506Y029212D01*
X129489Y029259D01*
X129475Y029307D01*
X129465Y029356D01*
X129459Y029406D01*
X129457Y029456D01*
X101642Y046976D02*
X101644Y047047D01*
X101650Y047118D01*
X101660Y047189D01*
X101674Y047258D01*
X101691Y047327D01*
X101713Y047395D01*
X101738Y047462D01*
X101767Y047527D01*
X101799Y047590D01*
X101835Y047652D01*
X101874Y047711D01*
X101917Y047768D01*
X101962Y047823D01*
X102011Y047875D01*
X102062Y047924D01*
X102116Y047970D01*
X102173Y048014D01*
X102231Y048054D01*
X102292Y048090D01*
X102355Y048124D01*
X102420Y048153D01*
X102486Y048179D01*
X102554Y048202D01*
X102622Y048220D01*
X102692Y048235D01*
X102762Y048246D01*
X102833Y048253D01*
X102904Y048256D01*
X102975Y048255D01*
X103046Y048250D01*
X103117Y048241D01*
X103187Y048228D01*
X103256Y048212D01*
X103324Y048191D01*
X103391Y048167D01*
X103457Y048139D01*
X103520Y048107D01*
X103582Y048072D01*
X103642Y048034D01*
X103700Y047992D01*
X103755Y047948D01*
X103808Y047900D01*
X103858Y047849D01*
X103905Y047796D01*
X103949Y047740D01*
X103990Y047682D01*
X104028Y047621D01*
X104062Y047559D01*
X104092Y047494D01*
X104119Y047429D01*
X104143Y047361D01*
X104162Y047293D01*
X104178Y047224D01*
X104190Y047153D01*
X104198Y047083D01*
X104202Y047012D01*
X104202Y046940D01*
X104198Y046869D01*
X104190Y046799D01*
X104178Y046728D01*
X104162Y046659D01*
X104143Y046591D01*
X104119Y046523D01*
X104092Y046458D01*
X104062Y046393D01*
X104028Y046331D01*
X103990Y046270D01*
X103949Y046212D01*
X103905Y046156D01*
X103858Y046103D01*
X103808Y046052D01*
X103755Y046004D01*
X103700Y045960D01*
X103642Y045918D01*
X103582Y045880D01*
X103520Y045845D01*
X103457Y045813D01*
X103391Y045785D01*
X103324Y045761D01*
X103256Y045740D01*
X103187Y045724D01*
X103117Y045711D01*
X103046Y045702D01*
X102975Y045697D01*
X102904Y045696D01*
X102833Y045699D01*
X102762Y045706D01*
X102692Y045717D01*
X102622Y045732D01*
X102554Y045750D01*
X102486Y045773D01*
X102420Y045799D01*
X102355Y045828D01*
X102292Y045862D01*
X102231Y045898D01*
X102173Y045938D01*
X102116Y045982D01*
X102062Y046028D01*
X102011Y046077D01*
X101962Y046129D01*
X101917Y046184D01*
X101874Y046241D01*
X101835Y046300D01*
X101799Y046362D01*
X101767Y046425D01*
X101738Y046490D01*
X101713Y046557D01*
X101691Y046625D01*
X101674Y046694D01*
X101660Y046763D01*
X101650Y046834D01*
X101644Y046905D01*
X101642Y046976D01*
X095795Y006228D02*
X095797Y006278D01*
X095803Y006328D01*
X095813Y006377D01*
X095827Y006425D01*
X095844Y006472D01*
X095865Y006517D01*
X095890Y006561D01*
X095918Y006602D01*
X095950Y006641D01*
X095984Y006678D01*
X096021Y006712D01*
X096061Y006742D01*
X096103Y006769D01*
X096147Y006793D01*
X096193Y006814D01*
X096240Y006830D01*
X096288Y006843D01*
X096338Y006852D01*
X096387Y006857D01*
X096438Y006858D01*
X096488Y006855D01*
X096537Y006848D01*
X096586Y006837D01*
X096634Y006822D01*
X096680Y006804D01*
X096725Y006782D01*
X096768Y006756D01*
X096809Y006727D01*
X096848Y006695D01*
X096884Y006660D01*
X096916Y006622D01*
X096946Y006582D01*
X096973Y006539D01*
X096996Y006495D01*
X097015Y006449D01*
X097031Y006401D01*
X097043Y006352D01*
X097051Y006303D01*
X097055Y006253D01*
X097055Y006203D01*
X097051Y006153D01*
X097043Y006104D01*
X097031Y006055D01*
X097015Y006007D01*
X096996Y005961D01*
X096973Y005917D01*
X096946Y005874D01*
X096916Y005834D01*
X096884Y005796D01*
X096848Y005761D01*
X096809Y005729D01*
X096768Y005700D01*
X096725Y005674D01*
X096680Y005652D01*
X096634Y005634D01*
X096586Y005619D01*
X096537Y005608D01*
X096488Y005601D01*
X096438Y005598D01*
X096387Y005599D01*
X096338Y005604D01*
X096288Y005613D01*
X096240Y005626D01*
X096193Y005642D01*
X096147Y005663D01*
X096103Y005687D01*
X096061Y005714D01*
X096021Y005744D01*
X095984Y005778D01*
X095950Y005815D01*
X095918Y005854D01*
X095890Y005895D01*
X095865Y005939D01*
X095844Y005984D01*
X095827Y006031D01*
X095813Y006079D01*
X095803Y006128D01*
X095797Y006178D01*
X095795Y006228D01*
X129457Y006228D02*
X129459Y006278D01*
X129465Y006328D01*
X129475Y006377D01*
X129489Y006425D01*
X129506Y006472D01*
X129527Y006517D01*
X129552Y006561D01*
X129580Y006602D01*
X129612Y006641D01*
X129646Y006678D01*
X129683Y006712D01*
X129723Y006742D01*
X129765Y006769D01*
X129809Y006793D01*
X129855Y006814D01*
X129902Y006830D01*
X129950Y006843D01*
X130000Y006852D01*
X130049Y006857D01*
X130100Y006858D01*
X130150Y006855D01*
X130199Y006848D01*
X130248Y006837D01*
X130296Y006822D01*
X130342Y006804D01*
X130387Y006782D01*
X130430Y006756D01*
X130471Y006727D01*
X130510Y006695D01*
X130546Y006660D01*
X130578Y006622D01*
X130608Y006582D01*
X130635Y006539D01*
X130658Y006495D01*
X130677Y006449D01*
X130693Y006401D01*
X130705Y006352D01*
X130713Y006303D01*
X130717Y006253D01*
X130717Y006203D01*
X130713Y006153D01*
X130705Y006104D01*
X130693Y006055D01*
X130677Y006007D01*
X130658Y005961D01*
X130635Y005917D01*
X130608Y005874D01*
X130578Y005834D01*
X130546Y005796D01*
X130510Y005761D01*
X130471Y005729D01*
X130430Y005700D01*
X130387Y005674D01*
X130342Y005652D01*
X130296Y005634D01*
X130248Y005619D01*
X130199Y005608D01*
X130150Y005601D01*
X130100Y005598D01*
X130049Y005599D01*
X130000Y005604D01*
X129950Y005613D01*
X129902Y005626D01*
X129855Y005642D01*
X129809Y005663D01*
X129765Y005687D01*
X129723Y005714D01*
X129683Y005744D01*
X129646Y005778D01*
X129612Y005815D01*
X129580Y005854D01*
X129552Y005895D01*
X129527Y005939D01*
X129506Y005984D01*
X129489Y006031D01*
X129475Y006079D01*
X129465Y006128D01*
X129459Y006178D01*
X129457Y006228D01*
M02*
