%
M48
M72
T01C0.0197
T02C0.0236
T03C0.0276
T04C0.0315
T05C0.0320
T06C0.0354
T07C0.0360
T08C0.0394
T09C0.0400
T10C0.0433
T11C0.0472
T12C0.0512
T13C0.0531
T14C0.0550
T15C0.0551
T16C0.0590
T17C0.0591
T18C0.0630
T19C0.0710
T20C0.0787
T21C0.0866
T22C0.0906
T23C0.1102
T24C0.1181
T25C0.1260
T26C0.2165
T27C0.2559
%
T01
X115966Y22928
X116517Y22928
T02
X117967Y22653
X117037Y21553
X117392Y21178
X117017Y20803
X118017Y20403
X118742Y20653
X119467Y21003
X120492Y21528
X121337Y21353
X121762Y21703
X122367Y22253
X121867Y22478
X123092Y22028
X123867Y21078
X122442Y20728
X122442Y19678
X120617Y19903
X119942Y19203
X119342Y18753
X118967Y18378
X118592Y18878
X118342Y19603
X116767Y18828
X115917Y19028
X113612Y18828
X112562Y19028
X111812Y19853
X110192Y20303
X110412Y20803
X108942Y21303
X108817Y22003
X109637Y22828
X110012Y23178
X110142Y22528
X111812Y22503
X112387Y22803
X112462Y23403
X107217Y22953
X106662Y22953
X106467Y21853
X107217Y21928
X107217Y21403
X107617Y21053
X107067Y20278
X105467Y20078
X104992Y20303
X104042Y20303
X103517Y19828
X101487Y19703
X101017Y18253
X98912Y18328
X98912Y19103
X98162Y19903
X98912Y20103
X97812Y20928
X97412Y20528
X97412Y19103
X97412Y18328
X97437Y17078
X97412Y16253
X96262Y15653
X95512Y16153
X95112Y16553
X93662Y15978
X93087Y15078
X91862Y14903
X91862Y13903
X90487Y13953
X89437Y14453
X89062Y15128
X89512Y15578
X89837Y16003
X91862Y15903
X91862Y16903
X91862Y17903
X91137Y18078
X90312Y18728
X91237Y19278
X92787Y19228
X94337Y19228
X95112Y18553
X93662Y17578
X90062Y17578
X88987Y17803
X88687Y17128
X89312Y19378
X88687Y20453
X88287Y20103
X87487Y19353
X83787Y19353
X83187Y19353
X79887Y19353
X80037Y21028
X79662Y22303
X79887Y23178
X80712Y23203
X82462Y22953
X82112Y22253
X82612Y21928
X81362Y22178
X85587Y22003
X85587Y23503
X86687Y24728
X85737Y25253
X86337Y25778
X86137Y26353
X86662Y26603
X87787Y26603
X87687Y25828
X89887Y26103
X92787Y26028
X94742Y25578
X96662Y25453
X97162Y25953
X98237Y26153
X98912Y26103
X98912Y25103
X98912Y24103
X98912Y23103
X97687Y23428
X95512Y23753
X94917Y23578
X94537Y22853
X93362Y24028
X92787Y24578
X91237Y23178
X89787Y23828
X89187Y24103
X88737Y23328
X89312Y22903
X88537Y21953
X91237Y22178
X91237Y21178
X91237Y20178
X94337Y20378
X94537Y21128
X98387Y22353
X98912Y22103
X98912Y21303
X102167Y21678
X103467Y21028
X104042Y21503
X104767Y22103
X104467Y22553
X103592Y22703
X103742Y23253
X102192Y23678
X102192Y22703
X105342Y22953
X105367Y21978
X108817Y19853
X109542Y18878
X107587Y18653
X107067Y18878
X106717Y18428
X106042Y18903
X105617Y18203
X104992Y18203
X104042Y18203
X104692Y17453
X106017Y17128
X106017Y16353
X107192Y15878
X106612Y14728
X106737Y13978
X104267Y13903
X104437Y15378
X100787Y15228
X99287Y15028
X98587Y15228
X98937Y15928
X99487Y16253
X98912Y17103
X94712Y15203
X95087Y14853
X95512Y14403
X93662Y14078
X93362Y12953
X92612Y12728
X91612Y12728
X90612Y12728
X89612Y12728
X88612Y12903
X88612Y11903
X88612Y10903
X92187Y10053
X94437Y11803
X95012Y12303
X95437Y11803
X94437Y13103
X96587Y13103
X97612Y11803
X98937Y11803
X99937Y11803
X100937Y11803
X101937Y11803
X100837Y10703
X103342Y9653
X103042Y9203
X102542Y8528
X101292Y8828
X101317Y7578
X102567Y7478
X104042Y7503
X104042Y8503
X105292Y7903
X106692Y6903
X107692Y7478
X109417Y6903
X109517Y6353
X109017Y5453
X108742Y4928
X108667Y4153
X109217Y3953
X107342Y4153
X105717Y4153
X104342Y4153
X102967Y4153
X102292Y4278
X99967Y4378
X101892Y5528
X102667Y5878
X104292Y6028
X109084Y8545
X109592Y8353
X109867Y8803
X109092Y9378
X108567Y9403
X107842Y9653
X109392Y10503
X108317Y10753
X111192Y10853
X114087Y11328
X111812Y13103
X112337Y13878
X111812Y14253
X110687Y13903
X109292Y13978
X109292Y14728
X110687Y15228
X111212Y16528
X112337Y16628
X113612Y16628
X113612Y15353
X116062Y15203
X116587Y15203
X117717Y15803
X117992Y15078
X116987Y14203
X116467Y14253
X118142Y13503
X120167Y13503
X121142Y13503
X122192Y13678
X121667Y14803
X119917Y15003
X117092Y16503
X116292Y16453
X116742Y17228
X121837Y17953
X122442Y17978
X126017Y17953
X127892Y17903
X128417Y17753
X127042Y18753
X128242Y19728
X127267Y20278
X126017Y20728
X125967Y19903
X132042Y19703
X133412Y19453
X132812Y18278
X132042Y18703
X133287Y17253
X134617Y17278
X135617Y16628
X135617Y15628
X134642Y15648
X134142Y15653
X133067Y16178
X132312Y15728
X132637Y15303
X132042Y16703
X128892Y15503
X127492Y16103
X127142Y16478
X126417Y16603
X126542Y15728
X125792Y15853
X125567Y14828
X127492Y13878
X126842Y13378
X127142Y12703
X128217Y12653
X128517Y14153
X125842Y13128
X125892Y11228
X127912Y10503
X128142Y11228
X128817Y9678
X127392Y9003
X126492Y8578
X124867Y8578
X123267Y7978
X124807Y9603
X120942Y11353
X120937Y11903
X119837Y11328
X117342Y11578
X119142Y9678
X119142Y9278
X119142Y8878
X119142Y8478
X119142Y8078
X119142Y7678
X116837Y6278
X116087Y6278
X113512Y5403
X112462Y6153
X109792Y5078
X112212Y4128
X113212Y4128
X114212Y4128
X115212Y4128
X119962Y5528
X125937Y4103
X127187Y4103
X128187Y4103
X130617Y3628
X133617Y3628
X134617Y3628
X135617Y3628
X135617Y4628
X135617Y5628
X135617Y6628
X135617Y7628
X135617Y8628
X135617Y9628
X134642Y10028
X135617Y10628
X135617Y11628
X135617Y12628
X135617Y13628
X134642Y12853
X132892Y12853
X132890Y12027
X132312Y10703
X131167Y8678
X132042Y6878
X128142Y6878
X116237Y8403
X115042Y9578
X113437Y8003
X111192Y7028
X105767Y8978
X104767Y9653
X104042Y10603
X103542Y10253
X102987Y13103
X106737Y13103
X99487Y14328
X99062Y13703
X98412Y13103
X97587Y10153
X97587Y9153
X97587Y8153
X97587Y7153
X97587Y6153
X97587Y5153
X97587Y4153
X88112Y4103
X87537Y5928
X85012Y6678
X87537Y7503
X86587Y9153
X84362Y10728
X83412Y12228
X81937Y12503
X83362Y13178
X84837Y14103
X85987Y13728
X83662Y15653
X79662Y15103
X79287Y13778
X79287Y11928
X80862Y10553
X77943Y9828
X74537Y11403
X70987Y11428
X70362Y12028
X65587Y11278
X71418Y9653
X70618Y8153
X69943Y7203
X71793Y4403
X70993Y4053
X69493Y4078
X83518Y4478
X59762Y11528
X58462Y11528
X57587Y11528
X56587Y11528
X55587Y11528
X54587Y11528
X54587Y12478
X54587Y13403
X55412Y14303
X55837Y14603
X55637Y15128
X55062Y15028
X54587Y15903
X54987Y17253
X53987Y17628
X58837Y17128
X58837Y19153
X59362Y19403
X59737Y19778
X59737Y21153
X54262Y20628
X54087Y22953
X54612Y23553
X55362Y23628
X57512Y23628
X60712Y24303
X61712Y24303
X62712Y24303
X63712Y24303
X64512Y24303
X65412Y24303
X66312Y24303
X68037Y24228
X66312Y25278
X67362Y25928
X67912Y26278
X66312Y26278
X64112Y25803
X62787Y26503
X61862Y27978
X59987Y27978
X60237Y29003
X59937Y29428
X58987Y29003
X57987Y29003
X56987Y29003
X56362Y29278
X55862Y29003
X55037Y28578
X55412Y27978
X53712Y27978
X53087Y28653
X52087Y28653
X51087Y28653
X51737Y26628
X52087Y26253
X52462Y25903
X52837Y25553
X53187Y25178
X53712Y25303
X52162Y24078
X52062Y23178
X50437Y25053
X50437Y25553
X45762Y23778
X43887Y24528
X42537Y24528
X36512Y23078
X33162Y23003
X33162Y21128
X37087Y20303
X39812Y21778
X40187Y21778
X41237Y21453
X41912Y20603
X41412Y19628
X34137Y17753
X33887Y15853
X32737Y15853
X34987Y15378
X30187Y14328
X30187Y13928
X33937Y13103
X35687Y13103
X30862Y8678
X30862Y6953
X29612Y5903
X10562Y6603
X10562Y6978
X27562Y24578
X21362Y25778
X18837Y26278
X18837Y29253
X19587Y30103
X15837Y29553
X14137Y25928
X24692Y28123
X26512Y30003
X24031Y33878
X23606Y33878
X23606Y34978
X24031Y34978
X19056Y36603
X19056Y37603
X19056Y38603
X21356Y38653
X19781Y39603
X19056Y39603
X16631Y38204
X15281Y37103
X14931Y36403
X6606Y40428
X6606Y40853
X5456Y40853
X5456Y40428
X9281Y42928
X9656Y43303
X12381Y45203
X14131Y45203
X14581Y46003
X13906Y46703
X14831Y47003
X15681Y46678
X16181Y47178
X16956Y46678
X17531Y46153
X18206Y46678
X19831Y46678
X21131Y46678
X21406Y45778
X21906Y45778
X22506Y45328
X23981Y44353
X23981Y43878
X23981Y43403
X23981Y42928
X23981Y42453
X24456Y42453
X24456Y42928
X24456Y43403
X24456Y43878
X24456Y44353
X25481Y45978
X26356Y46678
X27831Y47178
X28481Y46678
X29631Y47678
X29231Y48203
X28356Y48928
X27831Y48903
X27106Y48203
X30381Y48503
X31031Y48978
X32431Y48753
X33981Y49403
X37956Y51128
X38656Y51803
X39856Y51303
X39856Y52303
X38631Y52728
X37781Y53103
X39856Y53303
X39856Y54303
X38381Y54603
X38181Y55403
X36631Y55403
X35456Y54903
X35656Y53103
X34781Y51828
X32956Y53528
X31881Y53528
X29631Y52528
X29031Y52528
X28706Y53128
X28606Y53953
X29281Y53878
X28131Y54678
X27331Y54503
X26606Y54528
X25906Y54503
X25131Y54503
X24356Y54503
X23581Y54528
X22806Y54503
X22056Y54353
X20931Y54203
X19756Y54503
X18556Y55353
X18931Y55703
X18781Y56228
X19856Y57228
X17931Y57628
X17156Y57253
X16356Y57728
X15706Y58603
X15356Y59253
X16256Y60253
X16256Y60753
X19181Y58853
X21006Y60228
X20706Y60753
X21456Y60978
X22131Y60603
X23256Y59478
X22331Y59053
X22131Y58553
X22706Y57753
X24506Y58353
X25031Y57803
X25556Y57803
X26106Y57178
X25856Y56628
X25306Y56003
X26806Y56378
X27406Y57028
X27381Y58328
X28156Y59003
X28456Y59853
X27131Y59578
X26781Y59978
X25906Y59778
X26256Y59003
X31206Y57578
X31856Y58403
X34156Y58528
X35331Y58553
X38281Y59828
X39856Y60303
X39381Y60978
X42556Y59828
X42281Y58178
X42081Y57653
X44181Y58178
X46281Y58853
X45281Y59878
X48056Y58853
X48506Y59403
X51556Y60028
X51356Y61578
X53356Y59003
X55006Y57828
X55006Y57403
X55006Y56978
X55006Y56553
X55431Y56553
X55856Y56553
X56281Y56553
X56706Y56553
X56706Y56978
X56281Y56978
X55856Y56978
X55431Y56978
X55431Y57403
X55856Y57403
X56281Y57403
X56706Y57403
X56706Y57828
X56281Y57828
X55856Y57828
X55431Y57828
X51431Y57378
X49906Y57028
X49906Y56578
X49906Y56128
X49906Y55678
X49906Y55228
X49906Y54778
X49906Y54328
X49906Y53878
X50331Y52903
X49331Y52903
X48331Y52903
X47331Y52903
X46331Y52903
X45331Y52903
X44331Y52903
X44331Y51903
X44331Y50903
X44331Y49903
X42856Y49303
X41856Y49303
X40856Y49303
X39856Y49303
X39856Y50303
X42506Y51803
X43056Y53153
X46556Y53878
X46556Y54328
X46556Y54778
X46556Y55228
X46556Y55678
X46556Y56128
X46556Y56578
X46556Y57028
X42956Y56078
X42956Y55678
X42556Y55678
X42156Y55678
X42156Y56078
X42556Y56078
X41556Y55153
X39856Y55303
X39856Y56303
X39856Y57303
X39856Y58303
X39856Y59303
X32956Y56578
X29881Y56153
X29906Y54978
X28956Y55278
X25856Y53178
X20881Y55628
X16781Y54328
X15981Y54153
X15981Y55053
X15181Y55078
X13656Y55628
X10506Y55078
X8431Y55178
X6931Y55153
X9131Y53103
X10281Y51878
X11456Y51878
X13281Y52303
X15656Y52353
X17031Y51353
X16756Y50253
X16181Y49453
X14456Y49478
X12931Y49328
X13931Y48053
X11456Y47828
X10281Y47828
X17156Y47678
X19681Y48603
X20681Y47678
X22131Y46678
X24356Y46678
X23606Y48503
X23606Y50428
X25631Y50428
X26581Y50028
X32431Y47178
X32131Y46678
X32431Y45953
X31631Y45928
X31031Y44978
X30281Y44403
X29406Y44753
X32006Y44178
X33956Y43428
X35556Y43428
X32631Y42253
X28731Y41128
X28731Y40628
X28731Y40128
X28731Y39628
X28731Y39128
X28731Y38628
X28231Y38628
X28231Y39128
X28231Y39628
X28231Y40128
X28231Y40628
X28231Y41128
X21881Y41979
X21881Y42728
X21631Y43503
X20031Y44203
X18881Y44653
X16481Y44453
X15256Y44053
X15281Y43303
X15481Y42478
X16581Y41853
X19781Y41453
X20681Y41503
X20031Y42453
X12731Y40778
X30656Y46678
X33606Y46678
X34481Y46678
X33981Y45328
X39256Y43428
X42831Y45078
X42831Y45953
X43206Y47003
X43206Y48003
X40631Y46753
X41156Y46128
X46181Y49453
X48871Y49003
X48871Y48603
X49271Y48603
X49671Y48603
X50071Y48603
X50471Y48603
X50471Y49003
X50071Y49003
X49671Y49003
X49271Y49003
X51196Y48978
X51596Y48978
X50231Y50353
X49531Y50778
X47531Y51428
X51331Y52903
X52331Y52903
X53331Y52903
X53581Y52003
X55031Y52078
X55456Y52078
X55881Y52078
X56306Y52078
X56731Y52078
X56731Y52503
X56306Y52503
X55881Y52503
X55456Y52503
X55031Y52503
X55031Y52928
X55456Y52928
X55881Y52928
X56306Y52928
X56731Y52928
X56731Y53353
X56306Y53353
X55881Y53353
X55456Y53353
X55031Y53353
X59631Y53403
X59631Y52978
X59631Y52553
X59631Y52128
X60056Y52128
X60481Y52128
X60906Y52128
X61331Y52128
X61331Y52553
X60906Y52553
X60481Y52553
X60056Y52553
X60056Y52978
X60481Y52978
X60906Y52978
X61331Y52978
X61331Y53403
X60906Y53403
X60481Y53403
X60056Y53403
X60056Y56553
X59631Y56553
X59631Y56978
X60056Y56978
X60481Y56978
X60481Y56553
X60906Y56553
X61331Y56553
X61331Y56978
X60906Y56978
X60906Y57403
X60481Y57403
X60056Y57403
X59631Y57403
X59631Y57828
X60056Y57828
X60481Y57828
X60906Y57828
X61331Y57828
X61331Y57403
X72679Y55153
X74179Y55178
X76254Y55078
X79404Y55628
X80929Y55078
X81729Y55053
X82529Y54328
X81729Y54153
X83529Y52528
X84629Y52878
X84679Y53678
X86679Y54203
X87804Y54353
X88554Y54503
X89329Y54528
X90104Y54503
X90879Y54503
X91654Y54503
X92354Y54528
X93079Y54503
X93879Y54678
X94354Y53953
X95029Y53878
X94454Y53128
X94779Y52528
X95379Y52528
X97629Y53528
X98704Y53528
X100529Y51828
X101404Y53103
X103529Y53103
X104379Y52728
X105604Y52303
X105604Y51303
X104404Y51803
X103704Y51128
X105604Y50303
X105604Y49303
X106604Y49303
X107604Y49303
X108604Y49303
X110079Y49903
X111929Y49453
X110079Y50903
X110079Y51903
X110079Y52903
X111079Y52903
X112079Y52903
X113079Y52903
X114079Y52903
X115079Y52903
X116079Y52903
X117079Y52903
X118079Y52903
X119079Y52903
X119329Y52003
X120779Y52078
X121204Y52078
X121629Y52078
X122054Y52078
X122479Y52078
X122479Y52503
X122054Y52503
X121629Y52503
X121204Y52503
X120779Y52503
X120779Y52928
X121204Y52928
X121629Y52928
X122054Y52928
X122479Y52928
X122479Y53353
X122054Y53353
X121629Y53353
X121204Y53353
X120779Y53353
X115654Y53878
X115654Y54328
X115654Y54778
X115654Y55228
X115654Y55678
X115654Y56128
X115654Y56578
X115654Y57028
X117179Y57378
X120754Y57403
X120754Y56978
X120754Y56553
X121179Y56553
X121604Y56553
X122029Y56553
X122454Y56553
X122454Y56978
X122029Y56978
X121604Y56978
X121179Y56978
X121179Y57403
X121604Y57403
X122029Y57403
X122454Y57403
X122454Y57828
X122029Y57828
X121604Y57828
X121179Y57828
X120754Y57828
X119104Y59003
X117304Y60028
X117104Y61578
X114254Y59403
X113804Y58853
X112029Y58853
X111029Y59878
X108304Y59828
X108029Y58178
X107829Y57653
X105604Y57303
X105604Y56303
X107904Y56078
X107904Y55678
X108304Y55678
X108704Y55678
X108704Y56078
X108304Y56078
X107304Y55153
X105604Y55303
X104129Y54603
X103929Y55403
X102379Y55403
X101204Y54903
X98704Y56578
X96954Y57578
X97604Y58403
X99904Y58528
X101079Y58553
X98329Y60178
X94204Y59853
X93904Y59003
X93129Y58328
X92004Y59003
X91654Y59778
X92529Y59978
X92879Y59578
X90254Y58353
X90779Y57803
X91304Y57803
X91854Y57178
X91604Y56628
X91054Y56003
X92554Y56378
X93154Y57028
X95629Y56153
X95654Y54978
X94704Y55278
X91604Y53178
X86629Y55628
X84679Y55703
X84304Y55353
X85504Y54503
X84529Y56228
X85604Y57228
X83679Y57628
X82904Y57253
X82104Y57728
X81454Y58603
X81104Y59253
X82004Y60253
X82004Y60753
X84929Y58853
X86754Y60228
X86454Y60753
X87204Y60978
X87879Y60603
X89004Y59478
X88079Y59053
X87879Y58553
X88454Y57753
X81404Y52353
X82779Y51353
X82504Y50253
X81929Y49453
X80204Y49478
X78679Y49328
X79679Y48053
X80579Y47003
X81429Y46678
X81929Y47178
X82704Y46678
X83279Y46153
X83954Y46678
X82904Y47678
X85429Y48603
X86429Y47678
X86879Y46678
X87154Y45778
X87654Y45778
X88254Y45328
X89729Y44353
X89729Y43878
X89729Y43403
X89729Y42928
X89729Y42453
X90204Y42453
X90204Y42928
X90204Y43403
X90204Y43878
X90204Y44353
X91229Y45978
X92104Y46678
X93579Y47178
X94229Y46678
X96404Y46678
X97379Y45928
X98179Y45953
X97879Y46678
X98179Y47178
X99354Y46678
X100229Y46678
X99729Y45328
X97754Y44178
X96029Y44403
X95154Y44753
X96779Y44978
X99704Y43428
X101304Y43428
X98379Y42253
X94479Y41128
X94479Y40628
X94479Y40128
X94479Y39628
X94479Y39128
X94479Y38628
X93979Y38628
X93979Y39128
X93979Y39628
X93979Y40128
X93979Y40628
X93979Y41128
X87629Y41979
X87629Y42728
X87379Y43503
X85779Y44203
X84629Y44653
X82229Y44453
X81004Y44053
X81029Y43303
X81229Y42478
X82329Y41853
X78479Y40778
X75029Y42928
X75404Y43303
X78129Y45203
X79879Y45203
X80329Y46003
X79654Y46703
X77204Y47828
X76029Y47828
X83879Y50253
X85004Y50253
X85429Y49628
X89354Y50428
X91379Y50428
X92329Y50028
X93579Y48903
X94104Y48928
X94979Y48203
X95379Y47678
X96129Y48503
X96779Y48978
X98179Y48753
X99729Y49403
X92854Y48203
X90104Y46678
X87879Y46678
X85579Y46678
X89354Y48503
X79029Y52303
X77204Y51878
X76029Y51878
X74879Y53103
X76604Y57228
X64771Y45878
X64771Y45503
X64771Y45128
X64771Y44753
X63181Y43853
X62321Y44278
X61096Y44253
X64406Y43628
X67706Y43753
X71204Y40853
X71204Y40428
X72354Y40428
X72354Y40853
X81029Y37103
X80679Y36403
X82379Y38204
X84804Y38603
X84804Y37603
X84804Y36603
X87104Y38653
X85529Y39603
X84804Y39603
X85529Y41453
X86429Y41503
X85779Y42453
X97854Y37528
X100854Y37378
X99450Y35724
X97854Y35953
X89779Y34978
X89354Y34978
X89354Y33878
X89779Y33878
X95337Y30878
X93362Y30478
X94637Y29553
X94162Y29003
X93787Y28628
X93012Y28403
X92937Y27703
X93462Y27653
X93462Y27153
X91262Y27703
X91962Y28278
X89812Y28903
X88937Y29853
X87912Y29678
X86787Y29853
X86262Y29653
X84637Y29878
X83637Y29878
X82637Y29878
X81637Y29878
X80637Y29878
X79637Y29878
X79087Y29828
X78587Y29678
X77587Y29678
X76587Y29678
X75612Y29678
X75137Y28828
X74612Y28828
X73862Y28903
X73512Y29278
X72862Y29878
X71862Y29878
X70862Y29878
X69862Y29878
X69387Y29578
X68862Y29878
X67862Y29878
X67187Y29303
X66462Y29478
X66237Y29003
X65237Y29003
X64237Y29003
X63237Y29003
X62237Y29003
X61237Y29003
X60637Y30203
X59237Y30928
X58837Y30553
X57837Y31628
X56837Y31003
X55137Y30928
X54537Y30453
X62287Y30353
X63837Y30253
X66312Y27978
X68637Y27878
X70737Y28478
X70037Y29228
X72962Y27053
X71887Y26353
X72462Y26078
X71887Y24753
X70487Y24228
X70087Y24653
X74837Y25428
X75262Y24953
X77537Y24728
X76937Y23178
X83337Y26003
X83937Y26403
X85137Y25978
X84162Y24728
X87062Y27703
X81212Y27903
X77537Y28353
X75987Y28178
X75537Y27503
X74612Y27503
X74487Y31053
X73962Y31053
X59612Y25303
X58837Y25628
X56937Y25303
X66912Y21278
X64362Y17753
X57162Y13853
X56637Y13853
X56287Y14228
X57762Y13403
X59762Y13078
X53887Y10303
X35212Y27353
X43462Y30153
X43887Y30153
X44312Y30153
X44737Y30153
X45162Y30153
X45162Y31553
X44737Y31553
X44312Y31553
X43887Y31553
X43462Y31553
X44056Y33603
X42206Y35778
X41831Y35778
X45456Y38728
X49256Y40418
X49656Y40418
X50056Y40418
X50456Y40418
X50456Y40818
X50056Y40818
X49656Y40818
X49256Y40818
X49256Y41218
X49656Y41218
X50056Y41218
X50456Y41218
X53706Y41403
X54106Y41003
X54506Y41403
X54906Y41003
X55306Y41403
X55681Y41003
X56081Y41403
X55681Y41803
X55306Y42203
X55681Y42603
X55306Y43003
X55681Y43403
X55731Y43828
X55731Y44203
X55331Y44203
X55331Y43828
X54931Y43828
X54931Y44203
X54531Y44203
X54531Y43828
X54131Y43828
X54131Y44203
X53731Y44203
X53731Y43828
X53331Y43828
X53331Y44203
X54106Y43403
X53706Y43003
X54106Y42603
X53706Y42203
X54106Y41803
X54506Y42203
X54906Y41803
X56081Y42203
X56081Y43003
X54906Y42603
X54506Y43003
X54906Y43403
X56131Y43828
X56131Y44203
X56531Y44203
X56531Y43828
X56931Y43828
X56931Y44203
X50331Y45553
X49731Y46003
X52581Y39853
X52581Y39453
X52581Y39078
X52581Y38678
X52581Y38278
X52981Y39853
X53356Y39853
X53756Y39853
X54131Y39853
X54531Y39853
X54906Y39853
X54906Y39453
X54906Y39053
X54906Y38653
X54906Y38253
X55306Y38253
X55306Y38653
X55306Y39053
X55306Y39453
X55306Y39853
X35106Y37378
X33702Y35724
X32106Y35953
X32106Y37528
X45062Y27853
X45437Y27853
X19681Y49628
X19256Y50253
X18131Y50253
X17781Y52528
X18881Y52878
X18931Y53678
X10856Y57228
X32581Y60178
X98287Y31653
X98912Y31253
X99292Y30678
X99487Y30178
X99987Y29978
X100362Y29628
X100762Y29278
X101487Y29703
X103437Y29378
X104237Y29003
X103492Y28328
X101487Y28678
X101487Y27678
X100187Y27453
X98912Y27203
X97662Y27203
X98237Y28353
X98912Y28153
X98687Y29053
X99462Y29278
X97062Y30678
X99912Y31253
X100912Y31253
X104237Y31253
X105437Y30728
X104737Y30478
X104237Y30478
X106342Y29003
X108612Y29378
X109167Y29003
X110842Y29778
X112987Y30003
X115342Y29728
X115342Y28628
X116792Y28378
X117412Y29653
X118817Y28578
X120292Y28828
X121267Y28878
X122542Y29653
X123042Y29078
X123417Y29428
X124442Y29878
X123992Y30803
X122442Y31453
X121842Y30028
X124842Y28228
X125367Y27728
X126167Y27203
X127142Y27403
X128417Y27178
X128642Y27728
X129592Y26978
X128617Y26328
X128242Y25878
X127892Y25478
X127867Y24953
X126592Y24703
X125567Y24278
X123667Y24303
X123317Y23878
X122742Y23878
X122162Y24603
X121417Y24553
X122092Y25728
X119967Y26678
X118867Y26303
X117062Y26978
X115342Y26778
X113742Y26303
X112042Y26678
X110612Y25703
X109137Y26828
X107687Y27228
X106662Y26828
X106187Y27428
X104237Y27028
X103462Y27428
X101487Y26703
X101487Y25678
X103487Y25678
X104237Y25303
X106662Y25303
X107217Y25278
X101487Y24703
X113217Y28153
X113742Y28153
X113842Y31453
X109804Y33603
X107954Y35778
X107579Y35778
X111204Y38728
X115004Y40418
X115404Y40418
X115804Y40418
X116204Y40418
X116204Y40818
X115804Y40818
X115404Y40818
X115004Y40818
X115004Y41218
X115404Y41218
X115804Y41218
X116204Y41218
X119454Y41403
X119854Y41003
X120254Y41403
X120654Y41003
X121054Y41403
X121429Y41003
X121829Y41403
X121429Y41803
X121054Y42203
X121429Y42603
X121054Y43003
X121429Y43403
X121479Y43828
X121479Y44203
X121079Y44203
X121079Y43828
X120679Y43828
X120679Y44203
X120279Y44203
X120279Y43828
X119879Y43828
X119879Y44203
X119479Y44203
X119479Y43828
X119079Y43828
X119079Y44203
X119854Y43403
X119454Y43003
X119854Y42603
X119454Y42203
X119854Y41803
X120254Y42203
X120654Y41803
X121829Y42203
X121829Y43003
X120654Y42603
X120254Y43003
X120654Y43403
X121879Y43828
X121879Y44203
X122279Y44203
X122279Y43828
X122679Y43828
X122679Y44203
X126844Y44253
X128069Y44278
X128929Y43853
X130154Y43628
X130519Y44753
X130519Y45128
X130519Y45503
X130519Y45878
X133454Y43753
X121054Y39853
X121054Y39453
X121054Y39053
X121054Y38653
X121054Y38253
X120654Y38253
X120654Y38653
X120654Y39053
X120654Y39453
X120654Y39853
X120279Y39853
X119879Y39853
X119504Y39853
X119104Y39853
X118729Y39853
X118329Y39853
X118329Y39453
X118329Y39078
X118329Y38678
X118329Y38278
X105004Y43428
X108579Y45078
X108579Y45953
X106904Y46128
X106379Y46753
X108954Y47003
X108954Y48003
X114619Y48603
X115019Y48603
X115419Y48603
X115819Y48603
X116219Y48603
X116219Y49003
X115819Y49003
X115419Y49003
X115019Y49003
X114619Y49003
X115979Y50353
X115279Y50778
X113279Y51428
X108804Y53153
X105604Y53303
X105604Y54303
X108254Y51803
X112304Y53878
X112304Y54328
X112304Y54778
X112304Y55228
X112304Y55678
X112304Y56128
X112304Y56578
X112304Y57028
X109929Y58178
X105604Y58303
X105604Y59303
X104029Y59828
X105604Y60303
X105129Y60978
X125379Y57828
X125379Y57403
X125379Y56978
X125379Y56553
X125804Y56553
X126229Y56553
X126654Y56553
X127079Y56553
X127079Y56978
X126654Y56978
X126229Y56978
X125804Y56978
X125804Y57403
X126229Y57403
X126654Y57403
X127079Y57403
X127079Y57828
X126654Y57828
X126229Y57828
X125804Y57828
X125804Y53403
X125804Y52978
X125804Y52553
X125804Y52128
X125379Y52128
X125379Y52553
X125379Y52978
X125379Y53403
X126229Y53403
X126229Y52978
X126229Y52553
X126229Y52128
X126654Y52128
X127079Y52128
X127079Y52553
X126654Y52553
X126654Y52978
X127079Y52978
X127079Y53403
X126654Y53403
X117344Y48978
X116944Y48978
X115479Y46003
X116079Y45553
X131192Y31278
X132192Y31278
X133192Y31278
X134192Y31278
X135617Y29628
X135617Y28628
X135617Y27628
X135187Y26203
X134687Y25353
X134417Y24703
X134042Y24703
X133667Y24703
X133667Y24303
X134042Y24303
X134417Y24303
X133362Y23778
X133312Y23178
X134337Y23053
X134442Y21253
X132042Y22703
X132042Y23703
X132042Y24703
X133362Y25378
X132042Y25703
X131142Y25628
X130042Y24803
X129517Y24578
X128992Y25778
X126342Y26103
X124142Y27653
X127067Y29253
X131192Y28578
X132437Y28703
X110062Y16953
X109242Y17128
X135617Y14628
T03
X89779Y34228
X89779Y34603
X89354Y34603
X89354Y34228
X90104Y35678
X90104Y36078
X88379Y36078
X88379Y35678
X71954Y40428
X71579Y40428
X71579Y40853
X71954Y40853
X48181Y45953
X47781Y45953
X47381Y45953
X47381Y46378
X47781Y46378
X48181Y46378
X48181Y46803
X47781Y46803
X47381Y46803
X46931Y35678
X46931Y35278
X46506Y35278
X46506Y35678
X24356Y35678
X24356Y36078
X24031Y34603
X24031Y34228
X23606Y34228
X23606Y34603
X22631Y35678
X22631Y36078
X6206Y40428
X5831Y40428
X5831Y40853
X6206Y40853
X112254Y35678
X112254Y35278
X112679Y35278
X112679Y35678
X113129Y45953
X113529Y45953
X113929Y45953
X113929Y46378
X113529Y46378
X113129Y46378
X113129Y46803
X113529Y46803
X113929Y46803
T04
X121879Y49853
X133199Y29228
X134774Y29228
X131662Y27196
X130662Y27196
X130662Y26196
X130662Y25196
X131662Y25196
X131662Y26196
X131662Y24196
X131662Y23196
X130662Y23196
X130662Y24196
X130662Y22196
X131662Y22196
X131662Y21196
X131662Y20196
X130662Y20196
X130662Y21196
X130662Y19196
X130662Y18196
X131662Y18196
X131662Y19196
X131662Y17196
X130662Y17196
X130662Y16196
X130662Y15196
X131662Y15196
X131662Y16196
X131662Y14196
X131662Y13196
X130662Y13196
X130662Y14196
X130662Y12196
X131662Y12196
X131662Y11196
X131662Y10196
X130662Y10196
X130662Y11196
X130662Y9196
X130662Y8196
X131662Y8196
X131662Y9196
X123604Y28328
X122029Y28328
X56131Y49853
T05
X54131Y49853
X119879Y49853
T06
X119837Y31193
X118837Y31193
X117837Y31193
X116837Y31193
X115837Y31193
X114837Y31193
X112837Y31193
X111837Y31193
X110837Y31193
X109837Y31193
X108837Y31193
X107837Y31193
X106837Y31193
X105837Y31193
X102837Y31193
X101837Y31193
X101837Y30193
X102837Y30193
X102837Y29193
X101837Y29193
X101837Y28193
X102837Y28193
X102837Y27193
X101837Y27193
X101837Y26193
X101837Y25193
X102837Y25193
X102837Y26193
X102837Y24193
X101837Y24193
X101837Y23193
X102837Y23193
X102837Y22193
X101837Y22193
X101837Y21193
X101837Y20193
X102837Y20193
X102837Y21193
X102837Y19193
X101837Y19193
X101837Y18193
X102837Y18193
X102837Y17193
X101837Y17193
X101837Y16193
X101837Y15193
X102837Y15193
X102837Y16193
X102837Y14193
X101837Y14193
X103837Y12193
X104837Y12193
X105837Y12193
X106837Y12193
X107837Y12193
X108837Y12193
X109837Y12193
X110837Y12193
X112837Y12193
X113837Y12193
X114837Y12193
X115837Y12193
X116837Y12193
X117837Y12193
X118837Y12193
X119837Y12193
X121837Y12193
X122837Y12193
X123837Y12193
X124837Y12193
X125837Y12193
X126837Y12193
X114837Y21193
X114837Y22193
X113837Y22193
X113837Y23193
X114837Y23193
X120837Y31193
X121837Y31193
X123437Y31193
X124437Y31193
X125437Y31193
X126437Y31193
X127437Y31193
X128437Y31193
X129437Y31193
X130437Y31193
X88071Y18464
X87071Y18464
X86071Y18464
X85071Y18464
X84071Y18464
X83071Y18464
X82071Y18464
X81071Y18464
X81071Y16464
X82071Y16464
X83071Y16464
X84071Y16464
X85071Y16464
X86071Y16464
X87071Y16464
X88071Y16464
X59331Y16464
X58331Y16464
X57331Y16464
X56331Y16464
X55331Y16464
X54331Y16464
X53331Y16464
X52331Y16464
X52331Y18464
X53331Y18464
X54331Y18464
X55331Y18464
X56331Y18464
X57331Y18464
X58331Y18464
X59331Y18464
X25555Y26158
X24571Y26158
X24571Y27418
X25555Y27418
T07
X7762Y4053
X7762Y7053
T08
X30662Y18578
X31662Y18578
X32662Y18578
X33662Y18578
X34662Y18578
X34662Y19578
X33662Y19578
X32662Y19578
X31662Y19578
X30662Y19578
X32337Y24234
X33337Y24234
X36317Y24234
X37317Y24234
X46812Y22953
X46812Y21953
X46812Y20953
X62273Y20618
X63273Y20618
X63273Y21618
X62273Y21618
X62273Y22618
X63273Y22618
X63273Y23618
X62273Y23618
X62273Y19618
X63273Y19618
X63273Y18618
X63273Y17618
X62273Y17618
X62273Y18618
X62273Y16618
X63273Y16618
X63273Y15618
X62273Y15618
X62273Y14618
X63273Y14618
X63273Y13618
X63273Y12618
X62273Y12618
X62273Y13618
X62273Y11618
X63273Y11618
X77414Y11673
X78414Y11673
X78414Y12673
X77414Y12673
X77414Y13673
X78414Y13673
X78414Y14673
X77414Y14673
X77414Y15673
X77414Y16673
X78414Y16673
X78414Y15673
X78414Y17673
X77414Y17673
X77414Y18673
X78414Y18673
X78414Y19673
X77414Y19673
X77414Y20673
X77414Y21673
X78414Y21673
X78414Y20673
X78414Y22673
X77414Y22673
X77414Y23673
X78414Y23673
X88945Y26504
X88945Y28472
X94654Y28472
X94654Y27488
X94654Y26504
X98417Y11428
X98417Y10428
X98417Y9428
X98417Y8428
X98417Y7428
X98417Y6428
X98417Y5428
X98417Y4428
X112942Y9428
X113942Y9428
X122517Y5628
X123517Y5628
X124517Y5628
X125517Y5628
X126517Y5628
X126517Y4628
X125517Y4628
X124517Y4628
X123517Y4628
X122517Y4628
X74186Y41594
X73186Y41594
X73186Y42594
X74186Y42594
X74186Y43594
X73186Y43594
X73186Y44594
X74186Y44594
X74186Y45594
X73186Y45594
X73186Y46594
X74186Y46594
X74186Y47594
X73186Y47594
X73186Y48594
X74186Y48594
X74186Y49594
X73186Y49594
X73186Y50594
X74186Y50594
X74186Y51594
X73186Y51594
X73186Y52594
X74186Y52594
X74186Y53594
X73186Y53594
X36162Y31078
X35162Y31078
X34162Y31078
X33162Y31078
X32162Y31078
X31162Y31078
X30162Y31078
X29162Y31078
X33077Y29352
X34077Y29352
X35077Y29352
X36077Y29352
X35577Y28352
X34577Y28352
X33577Y28352
X36577Y28352
X24762Y31078
X23762Y31078
X22762Y31078
X21762Y31078
X20762Y31078
X17387Y31078
X16387Y31078
X15387Y31078
X14387Y31078
X13387Y31078
X8438Y41594
X7438Y41594
X7438Y42594
X8438Y42594
X8438Y43594
X7438Y43594
X7438Y44594
X8438Y44594
X8438Y45594
X7438Y45594
X7438Y46594
X8438Y46594
X8438Y47594
X7438Y47594
X7438Y48594
X8438Y48594
X8438Y49594
X7438Y49594
X7438Y50594
X8438Y50594
X8438Y51594
X7438Y51594
X7438Y52594
X8438Y52594
X8438Y53594
X7438Y53594
T09
X11262Y26328
X11262Y22328
X14412Y8628
X14412Y6628
X44085Y19328
X47038Y18328
X44460Y7853
X47413Y6853
X113837Y21193
T10
X128978Y46753
X131931Y46753
X131956Y53903
X129003Y53903
X66208Y53903
X63255Y53903
X63230Y46753
X66183Y46753
X10962Y13893
X7025Y13893
T11
X12730Y16229
X8793Y16977
X12730Y18204
X8793Y18952
X17725Y22065
X19693Y22065
X23630Y22065
X25599Y22065
X25599Y14191
X17725Y14191
X61571Y40316
X66492Y40316
X66492Y48190
X61571Y48190
X127319Y48190
X132240Y48190
X132240Y40316
X127319Y40316
T12
X128107Y22378
X120237Y22378
X74910Y21342
X72926Y21342
X70941Y21342
X64989Y21342
X64989Y18365
X70941Y18365
X72926Y18365
X74910Y18365
X74685Y15417
X68732Y15417
X66748Y15417
X64764Y15417
X64764Y12440
X66748Y12440
X68732Y12440
X74685Y12440
X47647Y13790
X45663Y13790
X43679Y13790
X43679Y16767
X45663Y16767
X47647Y16767
X37726Y16767
X37726Y13790
T13
X66256Y58803
X66256Y60772
X132004Y60772
X132004Y58803
T14
X24612Y10803
X22462Y10803
X20312Y10803
X20312Y7103
X22462Y7103
X24612Y7103
T15
X96362Y7903
X96362Y9872
T16
X100722Y39179
X102922Y39179
X105122Y39179
X39373Y39179
X37173Y39179
X34973Y39179
X11197Y11049
X11222Y8868
X5222Y8868
X5197Y11049
T17
X43473Y9771
X45441Y9771
X47410Y9771
T18
X37927Y27384
X31727Y27384
T19
X134030Y8865
X134030Y7015
X134030Y5165
T20
X130854Y34746
X130854Y36400
X130854Y38053
X65106Y38053
X65106Y36400
X65106Y34746
X8737Y27378
X8737Y25725
X8737Y24071
X8737Y22418
X8737Y20764
T21
X91701Y25086
X91701Y29889
T22
X27433Y26355
X22693Y26355
T23
X27487Y8328
X17487Y8328
T24
X5863Y20764
X5863Y27378
X62921Y37227
X66622Y34746
X128669Y37227
X132370Y34746
T25
X123394Y34574
X130087Y29259
X96425Y29259
X73394Y34574
X57646Y34574
X51150Y30637
X41307Y30637
X37077Y25852
X32577Y25852
X29496Y27685
X7646Y34574
X5087Y30637
X5087Y5834
X41307Y5834
X96425Y6031
X130087Y6031
X118670Y60559
X73394Y60559
X52922Y60559
X7646Y60559
T26
X58847Y6622
X66347Y6622
X73847Y6622
X81347Y6622
X91701Y6622
T27
X102922Y46779
X37173Y46779
M30
