G75*
G70*
%OFA0B0*%
%FSLAX24Y24*%
%IPPOS*%
%LPD*%
%AMOC8*
5,1,8,0,0,1.08239X$1,22.5*
%
%ADD10C,0.1000*%
%ADD11C,0.0973*%
%ADD12C,0.2759*%
%ADD13R,0.0674X0.0674*%
%ADD14OC8,0.0674*%
%ADD15C,0.1360*%
%ADD16OC8,0.1360*%
%ADD17C,0.1100*%
%ADD18OC8,0.0640*%
%ADD19OC8,0.0600*%
%ADD20C,0.1100*%
%ADD21OC8,0.0973*%
%ADD22C,0.0907*%
%ADD23OC8,0.0840*%
%ADD24C,0.1653*%
%ADD25C,0.0674*%
%ADD26C,0.0674*%
%ADD27C,0.0640*%
%ADD28C,0.1436*%
%ADD29C,0.1039*%
%ADD30C,0.1386*%
%ADD31OC8,0.0680*%
%ADD32C,0.0477*%
%ADD33C,0.0640*%
%ADD34C,0.0946*%
%ADD35OC8,0.0946*%
%ADD36OC8,0.0634*%
%ADD37C,0.1299*%
%ADD38C,0.0848*%
%ADD39C,0.4885*%
%ADD40R,0.0552X0.0552*%
%ADD41C,0.1172*%
%ADD42C,0.0595*%
%ADD43R,0.0595X0.0595*%
%ADD44C,0.0634*%
%ADD45R,0.0710X0.0789*%
%ADD46R,0.0592X0.0671*%
%ADD47C,0.0095*%
%ADD48C,0.0050*%
%ADD49C,0.0780*%
%ADD50OC8,0.0780*%
%ADD51OC8,0.1100*%
%ADD52C,0.1299*%
%ADD53R,0.0710X0.0790*%
%ADD54R,0.0516X0.0516*%
%ADD55C,0.2365*%
%ADD56C,0.2562*%
%ADD57C,0.1650*%
D10*
X051894Y008687D02*
X051894Y021412D01*
X052394Y021912D01*
X063844Y021912D01*
X063944Y021912D02*
X064669Y021912D01*
X065794Y020787D01*
X065794Y020262D01*
X063869Y017612D02*
X062694Y018787D01*
X054894Y018787D01*
X054694Y018987D01*
X053619Y018987D01*
X061694Y017162D02*
X061694Y013987D01*
X060444Y012737D01*
X058194Y012737D01*
X057694Y012237D01*
X057694Y011312D01*
X055719Y011412D02*
X055719Y014212D01*
X063869Y017312D02*
X063869Y017612D01*
X067519Y013937D02*
X066969Y013387D01*
X066969Y007562D01*
X065544Y006137D01*
X056594Y006112D02*
X054469Y006112D01*
X051894Y008687D01*
X067519Y013937D02*
X069019Y013937D01*
X068636Y033037D02*
X067761Y033037D01*
X062711Y038087D01*
X062711Y043087D01*
X063561Y043937D01*
X064711Y043937D01*
X064611Y041037D02*
X064611Y038612D01*
X068486Y034737D01*
X075461Y034737D01*
X072936Y032987D02*
X095986Y032987D01*
X100586Y037587D01*
X100586Y039537D01*
X089786Y038087D02*
X089786Y036587D01*
X087886Y034687D01*
X081861Y034687D01*
X040744Y037587D02*
X040744Y039537D01*
X040744Y037587D02*
X036144Y032987D01*
X013094Y032987D01*
X015619Y034737D02*
X008644Y034737D01*
X004769Y038612D01*
X004769Y041037D01*
X002869Y043087D02*
X002869Y038087D01*
X007919Y033037D01*
X008794Y033037D01*
X022019Y034687D02*
X028044Y034687D01*
X029944Y036587D01*
X029944Y038087D01*
X004869Y043937D02*
X003719Y043937D01*
X002869Y043087D01*
D11*
X025856Y038481D02*
X025856Y037596D01*
X028056Y037596D02*
X028056Y038481D01*
X030256Y038481D02*
X030256Y037596D01*
X085698Y037596D02*
X085698Y038481D01*
X087898Y038481D02*
X087898Y037596D01*
X090098Y037596D02*
X090098Y038481D01*
D12*
X087898Y045638D03*
X028056Y045638D03*
D13*
X004226Y052453D03*
X033359Y027211D03*
X053155Y010477D03*
X069296Y022532D03*
X064068Y052453D03*
D14*
X065068Y052453D03*
X065068Y051453D03*
X064068Y051453D03*
X064068Y050453D03*
X065068Y050453D03*
X065068Y049453D03*
X064068Y049453D03*
X064068Y048453D03*
X064068Y047453D03*
X065068Y047453D03*
X065068Y048453D03*
X065068Y046453D03*
X064068Y046453D03*
X064068Y045453D03*
X065068Y045453D03*
X065068Y044453D03*
X064068Y044453D03*
X064068Y043453D03*
X064068Y042453D03*
X065068Y042453D03*
X065068Y043453D03*
X065068Y041453D03*
X064068Y041453D03*
X064068Y040453D03*
X065068Y040453D03*
X035319Y029937D03*
X034319Y029937D03*
X033319Y029937D03*
X032319Y029937D03*
X031319Y029937D03*
X030319Y029937D03*
X029319Y029937D03*
X028319Y029937D03*
X021544Y029937D03*
X020544Y029937D03*
X019544Y029937D03*
X018544Y029937D03*
X017544Y029937D03*
X014169Y029937D03*
X013169Y029937D03*
X012169Y029937D03*
X011169Y029937D03*
X010169Y029937D03*
X005226Y040453D03*
X004226Y040453D03*
X004226Y041453D03*
X005226Y041453D03*
X005226Y042453D03*
X005226Y043453D03*
X004226Y043453D03*
X004226Y042453D03*
X004226Y044453D03*
X005226Y044453D03*
X005226Y045453D03*
X005226Y046453D03*
X004226Y046453D03*
X004226Y045453D03*
X004226Y047453D03*
X005226Y047453D03*
X005226Y048453D03*
X004226Y048453D03*
X004226Y049453D03*
X005226Y049453D03*
X005226Y050453D03*
X005226Y051453D03*
X004226Y051453D03*
X004226Y050453D03*
X005226Y052453D03*
X053155Y022477D03*
X054155Y022477D03*
X054155Y021477D03*
X053155Y021477D03*
X053155Y020477D03*
X054155Y020477D03*
X054155Y019477D03*
X053155Y019477D03*
X053155Y018477D03*
X054155Y018477D03*
X054155Y017477D03*
X053155Y017477D03*
X053155Y016477D03*
X054155Y016477D03*
X054155Y015477D03*
X053155Y015477D03*
X053155Y014477D03*
X054155Y014477D03*
X054155Y013477D03*
X053155Y013477D03*
X053155Y012477D03*
X054155Y012477D03*
X054155Y011477D03*
X053155Y011477D03*
X054155Y010477D03*
X068296Y010532D03*
X068296Y011532D03*
X069296Y011532D03*
X069296Y010532D03*
X069296Y012532D03*
X068296Y012532D03*
X068296Y013532D03*
X068296Y014532D03*
X069296Y014532D03*
X069296Y013532D03*
X069296Y015532D03*
X068296Y015532D03*
X068296Y016532D03*
X069296Y016532D03*
X069296Y017532D03*
X068296Y017532D03*
X068296Y018532D03*
X068296Y019532D03*
X069296Y019532D03*
X069296Y018532D03*
X069296Y020532D03*
X068296Y020532D03*
X068296Y021532D03*
X068296Y022532D03*
X069296Y021532D03*
X084569Y010512D03*
X084569Y009512D03*
X084569Y008512D03*
X084569Y007512D03*
X084569Y006512D03*
X084569Y005512D03*
X084569Y004512D03*
X084569Y003512D03*
D15*
X113960Y045612D03*
X113985Y052762D03*
X054142Y052762D03*
X054117Y045612D03*
D16*
X057070Y045612D03*
X057095Y052762D03*
X116938Y052762D03*
X116913Y045612D03*
D17*
X116486Y057662D02*
X117486Y057662D01*
X117486Y059631D02*
X116486Y059631D01*
X057644Y059631D02*
X056644Y059631D01*
X056644Y057662D02*
X057644Y057662D01*
D18*
X004544Y002912D03*
X004544Y005912D03*
X047019Y048712D03*
X106861Y048712D03*
D19*
X104861Y048712D03*
X045019Y048712D03*
D20*
X052458Y047049D03*
X057379Y047049D03*
X057379Y039175D03*
X052458Y039175D03*
X009512Y017063D03*
X009512Y015088D03*
X005575Y015836D03*
X005575Y017811D03*
X003807Y012752D03*
X007744Y012752D03*
X112301Y039175D03*
X117222Y039175D03*
X117222Y047049D03*
X112301Y047049D03*
D21*
X007979Y009908D03*
X008004Y007727D03*
X002004Y007727D03*
X001979Y009908D03*
D22*
X017094Y010075D02*
X017094Y009250D01*
X019244Y009250D02*
X019244Y010075D01*
X021394Y010075D02*
X021394Y009250D01*
X021394Y006375D02*
X021394Y005550D01*
X019244Y005550D02*
X019244Y006375D01*
X017094Y006375D02*
X017094Y005550D01*
D23*
X011194Y005487D03*
X011194Y007487D03*
D24*
X014269Y007187D03*
X024269Y007187D03*
D25*
X037722Y014862D02*
X038316Y014862D01*
X038316Y015862D02*
X037722Y015862D01*
X037722Y016862D02*
X038316Y016862D01*
X099219Y003884D02*
X099219Y003290D01*
X100219Y003290D02*
X100219Y003884D01*
X101219Y003884D02*
X101219Y003290D01*
X102219Y003290D02*
X102219Y003884D01*
X103219Y003884D02*
X103219Y003290D01*
X104219Y003290D02*
X104219Y003884D01*
D26*
X107669Y003487D03*
X108669Y003487D03*
X109669Y003487D03*
X110669Y003487D03*
X111669Y003487D03*
X111669Y004487D03*
X110669Y004487D03*
X109669Y004487D03*
X108669Y004487D03*
X107669Y004487D03*
X038213Y019675D03*
X038213Y020675D03*
X037213Y020675D03*
X037213Y019675D03*
X037213Y021675D03*
X037213Y022675D03*
X038213Y022675D03*
X038213Y021675D03*
X038213Y023675D03*
X037213Y023675D03*
X034099Y023093D03*
X033099Y023093D03*
X030119Y023093D03*
X029119Y023093D03*
X030359Y027211D03*
X031359Y027211D03*
X032359Y027211D03*
X031859Y028211D03*
X030859Y028211D03*
X029859Y028211D03*
X032859Y028211D03*
D27*
X022337Y026277D03*
X021353Y026277D03*
X021353Y025017D03*
X022337Y025017D03*
D28*
X024215Y025214D03*
X019475Y025214D03*
D29*
X028509Y026243D03*
X034709Y026243D03*
D30*
X033859Y024711D03*
X029359Y024711D03*
X082583Y028118D03*
X116244Y028118D03*
X116244Y004890D03*
X082583Y004890D03*
D31*
X099989Y020052D03*
X008044Y021187D03*
X008044Y025187D03*
D32*
X102043Y021712D03*
X102594Y021712D03*
D33*
X120589Y027862D02*
X121149Y027862D01*
X121149Y028862D02*
X120589Y028862D01*
D34*
X106389Y021237D03*
D35*
X114259Y021237D03*
D36*
X100989Y021052D03*
X099989Y021052D03*
X099989Y022052D03*
X100989Y022052D03*
X100989Y020052D03*
X088989Y020052D03*
X087989Y020052D03*
X087989Y019052D03*
X088989Y019052D03*
X088989Y018052D03*
X087989Y018052D03*
X087989Y017052D03*
X087989Y016052D03*
X088989Y016052D03*
X088989Y017052D03*
X088989Y015052D03*
X087989Y015052D03*
X087989Y014052D03*
X087989Y013052D03*
X088989Y013052D03*
X088989Y014052D03*
X089989Y011052D03*
X090989Y011052D03*
X091989Y011052D03*
X092989Y011052D03*
X093989Y011052D03*
X094989Y011052D03*
X095989Y011052D03*
X096989Y011052D03*
X098989Y011052D03*
X099989Y011052D03*
X100989Y011052D03*
X101989Y011052D03*
X102989Y011052D03*
X103989Y011052D03*
X104989Y011052D03*
X105989Y011052D03*
X107989Y011052D03*
X108989Y011052D03*
X109989Y011052D03*
X110989Y011052D03*
X111989Y011052D03*
X112989Y011052D03*
X088989Y021052D03*
X087989Y021052D03*
X087989Y022052D03*
X088989Y022052D03*
X088989Y023052D03*
X087989Y023052D03*
X087989Y024052D03*
X087989Y025052D03*
X088989Y025052D03*
X088989Y024052D03*
X088989Y026052D03*
X087989Y026052D03*
X087989Y027052D03*
X087989Y028052D03*
X088989Y028052D03*
X088989Y027052D03*
X088989Y029052D03*
X087989Y029052D03*
X087989Y030052D03*
X088989Y030052D03*
X091989Y030052D03*
X092989Y030052D03*
X093989Y030052D03*
X094989Y030052D03*
X095989Y030052D03*
X096989Y030052D03*
X097989Y030052D03*
X098989Y030052D03*
X100989Y030052D03*
X101989Y030052D03*
X102989Y030052D03*
X103989Y030052D03*
X104989Y030052D03*
X105989Y030052D03*
X106989Y030052D03*
X107989Y030052D03*
X109589Y030052D03*
X110589Y030052D03*
X111589Y030052D03*
X112589Y030052D03*
X113589Y030052D03*
X114589Y030052D03*
X115589Y030052D03*
X116589Y030052D03*
D37*
X116635Y033605D03*
X116635Y036912D03*
X065792Y020200D03*
X063808Y020200D03*
X061823Y020200D03*
X061823Y017224D03*
X063808Y017224D03*
X065792Y017224D03*
X059614Y014275D03*
X057630Y014275D03*
X055646Y014275D03*
X055646Y011299D03*
X057630Y011299D03*
X059614Y011299D03*
X056793Y033605D03*
X056793Y036912D03*
X002645Y026237D03*
X002645Y019623D03*
D38*
X055871Y020200D03*
X055871Y017224D03*
X065567Y014275D03*
X065567Y011299D03*
D39*
X065122Y005481D03*
X057622Y005481D03*
X050122Y005481D03*
X043804Y005481D03*
X072622Y005481D03*
D40*
X069217Y009024D03*
X068390Y009024D03*
X061737Y009024D03*
X060910Y009024D03*
X054256Y009024D03*
X053430Y009024D03*
X050122Y020441D03*
X049296Y020441D03*
X047170Y020441D03*
X046343Y020441D03*
X046343Y023197D03*
X047170Y023197D03*
X047170Y025953D03*
X046343Y025953D03*
X075083Y025953D03*
X075910Y025953D03*
X075910Y023197D03*
X075083Y023197D03*
X075083Y020441D03*
X075910Y020441D03*
X078036Y020441D03*
X078863Y020441D03*
X119768Y010205D03*
X120595Y010205D03*
D41*
X120714Y007724D02*
X119649Y007724D01*
X119649Y005874D02*
X120714Y005874D01*
X120714Y004024D02*
X119649Y004024D01*
D42*
X117819Y007055D03*
X116819Y007055D03*
X116819Y008055D03*
X117819Y008055D03*
X117819Y009055D03*
X116819Y009055D03*
X116819Y010055D03*
X117819Y010055D03*
X117819Y011055D03*
X116819Y011055D03*
X116819Y012055D03*
X117819Y012055D03*
X117819Y013055D03*
X116819Y013055D03*
X116819Y014055D03*
X117819Y014055D03*
X117819Y015055D03*
X116819Y015055D03*
X116819Y016055D03*
X117819Y016055D03*
X117819Y017055D03*
X116819Y017055D03*
X116819Y018055D03*
X117819Y018055D03*
X117819Y019055D03*
X116819Y019055D03*
X116819Y020055D03*
X117819Y020055D03*
X117819Y021055D03*
X116819Y021055D03*
X116819Y022055D03*
X117819Y022055D03*
X117819Y023055D03*
X116819Y023055D03*
X116819Y024055D03*
X117819Y024055D03*
X117819Y025055D03*
X116819Y025055D03*
X116819Y026055D03*
D43*
X117819Y026055D03*
D44*
X078953Y017323D03*
X077953Y017323D03*
X076953Y017323D03*
X075953Y017323D03*
X074953Y017323D03*
X073953Y017323D03*
X072953Y017323D03*
X071953Y017323D03*
X071953Y015323D03*
X072953Y015323D03*
X073953Y015323D03*
X074953Y015323D03*
X075953Y015323D03*
X076953Y015323D03*
X077953Y015323D03*
X078953Y015323D03*
X050181Y015323D03*
X049181Y015323D03*
X048181Y015323D03*
X047181Y015323D03*
X046181Y015323D03*
X045181Y015323D03*
X045181Y017323D03*
X046181Y017323D03*
X047181Y017323D03*
X048181Y017323D03*
X049181Y017323D03*
X050181Y017323D03*
D45*
X091593Y006262D03*
X092695Y006262D03*
X107510Y054537D03*
X108612Y054537D03*
X048770Y054537D03*
X047668Y054537D03*
D46*
X119495Y013762D03*
X120243Y013762D03*
D47*
X120799Y014445D02*
X120799Y015257D01*
X121335Y015257D01*
X121335Y014445D01*
X120799Y014445D01*
X120799Y014539D02*
X121335Y014539D01*
X121335Y014633D02*
X120799Y014633D01*
X120799Y014727D02*
X121335Y014727D01*
X121335Y014821D02*
X120799Y014821D01*
X120799Y014915D02*
X121335Y014915D01*
X121335Y015009D02*
X120799Y015009D01*
X120799Y015103D02*
X121335Y015103D01*
X121335Y015197D02*
X120799Y015197D01*
X119028Y015257D02*
X119028Y014445D01*
X119028Y015257D02*
X119564Y015257D01*
X119564Y014445D01*
X119028Y014445D01*
X119028Y014539D02*
X119564Y014539D01*
X119564Y014633D02*
X119028Y014633D01*
X119028Y014727D02*
X119564Y014727D01*
X119564Y014821D02*
X119028Y014821D01*
X119028Y014915D02*
X119564Y014915D01*
X119564Y015009D02*
X119028Y015009D01*
X119028Y015103D02*
X119564Y015103D01*
X119564Y015197D02*
X119028Y015197D01*
X119028Y017752D02*
X119028Y018564D01*
X119564Y018564D01*
X119564Y017752D01*
X119028Y017752D01*
X119028Y017846D02*
X119564Y017846D01*
X119564Y017940D02*
X119028Y017940D01*
X119028Y018034D02*
X119564Y018034D01*
X119564Y018128D02*
X119028Y018128D01*
X119028Y018222D02*
X119564Y018222D01*
X119564Y018316D02*
X119028Y018316D01*
X119028Y018410D02*
X119564Y018410D01*
X119564Y018504D02*
X119028Y018504D01*
X119913Y018564D02*
X119913Y017752D01*
X119913Y018564D02*
X120449Y018564D01*
X120449Y017752D01*
X119913Y017752D01*
X119913Y017846D02*
X120449Y017846D01*
X120449Y017940D02*
X119913Y017940D01*
X119913Y018034D02*
X120449Y018034D01*
X120449Y018128D02*
X119913Y018128D01*
X119913Y018222D02*
X120449Y018222D01*
X120449Y018316D02*
X119913Y018316D01*
X119913Y018410D02*
X120449Y018410D01*
X120449Y018504D02*
X119913Y018504D01*
X120799Y018564D02*
X120799Y017752D01*
X120799Y018564D02*
X121335Y018564D01*
X121335Y017752D01*
X120799Y017752D01*
X120799Y017846D02*
X121335Y017846D01*
X121335Y017940D02*
X120799Y017940D01*
X120799Y018034D02*
X121335Y018034D01*
X121335Y018128D02*
X120799Y018128D01*
X120799Y018222D02*
X121335Y018222D01*
X121335Y018316D02*
X120799Y018316D01*
X120799Y018410D02*
X121335Y018410D01*
X121335Y018504D02*
X120799Y018504D01*
D48*
X120944Y029637D02*
X120857Y029645D01*
X120773Y029667D01*
X120694Y029704D01*
X120622Y029754D01*
X120561Y029816D01*
X120511Y029887D01*
X120474Y029966D01*
X120451Y030050D01*
X120444Y030137D01*
X120451Y030224D01*
X120474Y030308D01*
X120511Y030387D01*
X120561Y030459D01*
X120622Y030520D01*
X120694Y030570D01*
X120773Y030607D01*
X120857Y030630D01*
X120944Y030637D01*
X121031Y030630D01*
X121115Y030607D01*
X121194Y030570D01*
X121265Y030520D01*
X121327Y030459D01*
X121377Y030387D01*
X121414Y030308D01*
X121436Y030224D01*
X121444Y030137D01*
X121436Y030050D01*
X121414Y029966D01*
X121377Y029887D01*
X121327Y029816D01*
X121265Y029754D01*
X121194Y029704D01*
X121115Y029667D01*
X121031Y029645D01*
X120944Y029637D01*
X121140Y029679D02*
X120747Y029679D01*
X120660Y029728D02*
X121227Y029728D01*
X121287Y029776D02*
X120600Y029776D01*
X120554Y029825D02*
X121333Y029825D01*
X121367Y029873D02*
X120520Y029873D01*
X120495Y029922D02*
X121393Y029922D01*
X121415Y029970D02*
X120473Y029970D01*
X120460Y030019D02*
X121428Y030019D01*
X121438Y030067D02*
X120450Y030067D01*
X120446Y030116D02*
X121442Y030116D01*
X121441Y030164D02*
X120446Y030164D01*
X120450Y030213D02*
X121437Y030213D01*
X121426Y030261D02*
X120461Y030261D01*
X120475Y030310D02*
X121413Y030310D01*
X121390Y030358D02*
X120497Y030358D01*
X120524Y030407D02*
X121363Y030407D01*
X121329Y030455D02*
X120558Y030455D01*
X120606Y030504D02*
X121281Y030504D01*
X121219Y030552D02*
X120668Y030552D01*
X120759Y030601D02*
X121128Y030601D01*
X118373Y048720D02*
X118286Y048712D01*
X118199Y048720D01*
X118115Y048742D01*
X118036Y048779D01*
X117965Y048829D01*
X117903Y048891D01*
X117853Y048962D01*
X117816Y049041D01*
X117794Y049125D01*
X117786Y049212D01*
X117794Y049299D01*
X117816Y049383D01*
X117853Y049462D01*
X117903Y049534D01*
X117965Y049595D01*
X118036Y049645D01*
X118115Y049682D01*
X118199Y049705D01*
X118286Y049712D01*
X118373Y049705D01*
X118457Y049682D01*
X118536Y049645D01*
X118608Y049595D01*
X118669Y049534D01*
X118719Y049462D01*
X118756Y049383D01*
X118779Y049299D01*
X118786Y049212D01*
X118779Y049125D01*
X118756Y049041D01*
X118719Y048962D01*
X118669Y048891D01*
X118608Y048829D01*
X118536Y048779D01*
X118457Y048742D01*
X118373Y048720D01*
X118448Y048740D02*
X118124Y048740D01*
X118023Y048789D02*
X118549Y048789D01*
X118615Y048837D02*
X117957Y048837D01*
X117909Y048886D02*
X118664Y048886D01*
X118699Y048934D02*
X117873Y048934D01*
X117844Y048983D02*
X118729Y048983D01*
X118751Y049031D02*
X117821Y049031D01*
X117806Y049080D02*
X118766Y049080D01*
X118779Y049128D02*
X117794Y049128D01*
X117789Y049177D02*
X118783Y049177D01*
X118785Y049225D02*
X117787Y049225D01*
X117792Y049274D02*
X118781Y049274D01*
X118772Y049322D02*
X117800Y049322D01*
X117813Y049371D02*
X118759Y049371D01*
X118739Y049419D02*
X117833Y049419D01*
X117857Y049468D02*
X118716Y049468D01*
X118682Y049516D02*
X117891Y049516D01*
X117934Y049565D02*
X118638Y049565D01*
X118582Y049613D02*
X117990Y049613D01*
X118071Y049662D02*
X118501Y049662D01*
X118312Y049710D02*
X118260Y049710D01*
X061956Y033083D02*
X061979Y032999D01*
X061986Y032912D01*
X061979Y032825D01*
X061956Y032741D01*
X061919Y032662D01*
X061869Y032591D01*
X061808Y032529D01*
X061736Y032479D01*
X061657Y032442D01*
X061573Y032420D01*
X061486Y032412D01*
X061399Y032420D01*
X061315Y032442D01*
X061236Y032479D01*
X061165Y032529D01*
X061103Y032591D01*
X061053Y032662D01*
X061016Y032741D01*
X060994Y032825D01*
X060986Y032912D01*
X060994Y032999D01*
X061016Y033083D01*
X061053Y033162D01*
X061103Y033234D01*
X061165Y033295D01*
X061236Y033345D01*
X061315Y033382D01*
X061399Y033405D01*
X061486Y033412D01*
X061573Y033405D01*
X061657Y033382D01*
X061736Y033345D01*
X061808Y033295D01*
X061869Y033234D01*
X061919Y033162D01*
X061956Y033083D01*
X061958Y033074D02*
X061014Y033074D01*
X061001Y033026D02*
X061971Y033026D01*
X061981Y032977D02*
X060992Y032977D01*
X060988Y032929D02*
X061985Y032929D01*
X061983Y032880D02*
X060989Y032880D01*
X060993Y032832D02*
X061979Y032832D01*
X061967Y032783D02*
X061005Y032783D01*
X061019Y032735D02*
X061953Y032735D01*
X061930Y032686D02*
X061042Y032686D01*
X061070Y032638D02*
X061902Y032638D01*
X061868Y032589D02*
X061105Y032589D01*
X061153Y032541D02*
X061819Y032541D01*
X061755Y032492D02*
X061217Y032492D01*
X061312Y032444D02*
X061660Y032444D01*
X061938Y033123D02*
X061035Y033123D01*
X061060Y033171D02*
X061913Y033171D01*
X061879Y033220D02*
X061094Y033220D01*
X061138Y033268D02*
X061834Y033268D01*
X061777Y033317D02*
X061196Y033317D01*
X061279Y033365D02*
X061693Y033365D01*
X058531Y048720D02*
X058444Y048712D01*
X058357Y048720D01*
X058273Y048742D01*
X058194Y048779D01*
X058122Y048829D01*
X058061Y048891D01*
X058011Y048962D01*
X057974Y049041D01*
X057951Y049125D01*
X057944Y049212D01*
X057951Y049299D01*
X057974Y049383D01*
X058011Y049462D01*
X058061Y049534D01*
X058122Y049595D01*
X058194Y049645D01*
X058273Y049682D01*
X058357Y049705D01*
X058444Y049712D01*
X058531Y049705D01*
X058615Y049682D01*
X058694Y049645D01*
X058765Y049595D01*
X058827Y049534D01*
X058877Y049462D01*
X058914Y049383D01*
X058936Y049299D01*
X058944Y049212D01*
X058936Y049125D01*
X058914Y049041D01*
X058877Y048962D01*
X058827Y048891D01*
X058765Y048829D01*
X058694Y048779D01*
X058615Y048742D01*
X058531Y048720D01*
X058606Y048740D02*
X058282Y048740D01*
X058180Y048789D02*
X058707Y048789D01*
X058773Y048837D02*
X058115Y048837D01*
X058066Y048886D02*
X058821Y048886D01*
X058857Y048934D02*
X058030Y048934D01*
X058001Y048983D02*
X058886Y048983D01*
X058909Y049031D02*
X057979Y049031D01*
X057964Y049080D02*
X058924Y049080D01*
X058936Y049128D02*
X057951Y049128D01*
X057947Y049177D02*
X058941Y049177D01*
X058943Y049225D02*
X057945Y049225D01*
X057949Y049274D02*
X058938Y049274D01*
X058930Y049322D02*
X057957Y049322D01*
X057970Y049371D02*
X058917Y049371D01*
X058897Y049419D02*
X057991Y049419D01*
X058014Y049468D02*
X058873Y049468D01*
X058839Y049516D02*
X058048Y049516D01*
X058092Y049565D02*
X058796Y049565D01*
X058740Y049613D02*
X058148Y049613D01*
X058229Y049662D02*
X058659Y049662D01*
X058470Y049710D02*
X058418Y049710D01*
X004414Y030458D02*
X004436Y030374D01*
X004444Y030287D01*
X004436Y030200D01*
X004414Y030116D01*
X004377Y030037D01*
X004327Y029966D01*
X004265Y029904D01*
X004194Y029854D01*
X004115Y029817D01*
X004031Y029795D01*
X003944Y029787D01*
X003857Y029795D01*
X003773Y029817D01*
X003694Y029854D01*
X003622Y029904D01*
X003561Y029966D01*
X003511Y030037D01*
X003474Y030116D01*
X004413Y030116D01*
X004426Y030164D02*
X003461Y030164D01*
X003451Y030200D02*
X003444Y030287D01*
X003451Y030374D01*
X003474Y030458D01*
X003511Y030537D01*
X003561Y030609D01*
X003622Y030670D01*
X003694Y030720D01*
X003773Y030757D01*
X003857Y030780D01*
X003944Y030787D01*
X004031Y030780D01*
X004115Y030757D01*
X004194Y030720D01*
X004265Y030670D01*
X004327Y030609D01*
X004377Y030537D01*
X004414Y030458D01*
X004414Y030455D02*
X003473Y030455D01*
X003460Y030407D02*
X004427Y030407D01*
X004437Y030358D02*
X003450Y030358D01*
X003446Y030310D02*
X004442Y030310D01*
X004441Y030261D02*
X003446Y030261D01*
X003450Y030213D02*
X004437Y030213D01*
X004391Y030067D02*
X003497Y030067D01*
X003474Y030116D02*
X003451Y030200D01*
X003524Y030019D02*
X004364Y030019D01*
X004330Y029970D02*
X003558Y029970D01*
X003605Y029922D02*
X004283Y029922D01*
X004221Y029873D02*
X003666Y029873D01*
X003757Y029825D02*
X004131Y029825D01*
X004392Y030504D02*
X003495Y030504D01*
X003521Y030552D02*
X004366Y030552D01*
X004332Y030601D02*
X003555Y030601D01*
X003601Y030649D02*
X004286Y030649D01*
X004226Y030698D02*
X003662Y030698D01*
X003750Y030746D02*
X004138Y030746D01*
X001965Y032529D02*
X001894Y032479D01*
X001815Y032442D01*
X001731Y032420D01*
X001644Y032412D01*
X001557Y032420D01*
X001473Y032442D01*
X001394Y032479D01*
X001322Y032529D01*
X001261Y032591D01*
X001211Y032662D01*
X001174Y032741D01*
X001151Y032825D01*
X001144Y032912D01*
X001151Y032999D01*
X001174Y033083D01*
X001211Y033162D01*
X001261Y033234D01*
X001322Y033295D01*
X001394Y033345D01*
X001473Y033382D01*
X001557Y033405D01*
X001644Y033412D01*
X001731Y033405D01*
X001815Y033382D01*
X001894Y033345D01*
X001965Y033295D01*
X002027Y033234D01*
X002077Y033162D01*
X002114Y033083D01*
X002136Y032999D01*
X002144Y032912D01*
X002136Y032825D01*
X002114Y032741D01*
X002077Y032662D01*
X002027Y032591D01*
X001965Y032529D01*
X001977Y032541D02*
X001311Y032541D01*
X001262Y032589D02*
X002025Y032589D01*
X002060Y032638D02*
X001228Y032638D01*
X001199Y032686D02*
X002088Y032686D01*
X002111Y032735D02*
X001177Y032735D01*
X001163Y032783D02*
X002125Y032783D01*
X002137Y032832D02*
X001151Y032832D01*
X001146Y032880D02*
X002141Y032880D01*
X002142Y032929D02*
X001145Y032929D01*
X001149Y032977D02*
X002138Y032977D01*
X002129Y033026D02*
X001158Y033026D01*
X001171Y033074D02*
X002116Y033074D01*
X002095Y033123D02*
X001192Y033123D01*
X001217Y033171D02*
X002070Y033171D01*
X002036Y033220D02*
X001251Y033220D01*
X001295Y033268D02*
X001992Y033268D01*
X001934Y033317D02*
X001353Y033317D01*
X001437Y033365D02*
X001850Y033365D01*
X001913Y032492D02*
X001375Y032492D01*
X001469Y032444D02*
X001818Y032444D01*
X038436Y003134D02*
X038497Y003195D01*
X038569Y003245D01*
X038648Y003282D01*
X038732Y003305D01*
X038819Y003312D01*
X038906Y003305D01*
X038990Y003282D01*
X039069Y003245D01*
X039140Y003195D01*
X039202Y003134D01*
X039252Y003062D01*
X039289Y002983D01*
X039311Y002899D01*
X039319Y002812D01*
X039311Y002725D01*
X039289Y002641D01*
X039252Y002562D01*
X039202Y002491D01*
X039140Y002429D01*
X039069Y002379D01*
X038990Y002342D01*
X038906Y002320D01*
X038819Y002312D01*
X038732Y002320D01*
X038648Y002342D01*
X038569Y002379D01*
X038497Y002429D01*
X038436Y002491D01*
X038386Y002562D01*
X038349Y002641D01*
X038326Y002725D01*
X038319Y002812D01*
X038326Y002899D01*
X038349Y002983D01*
X038386Y003062D01*
X038436Y003134D01*
X038452Y003150D02*
X039186Y003150D01*
X039224Y003101D02*
X038413Y003101D01*
X038381Y003053D02*
X039256Y003053D01*
X039279Y003004D02*
X038359Y003004D01*
X038341Y002956D02*
X039296Y002956D01*
X039309Y002907D02*
X038328Y002907D01*
X038323Y002859D02*
X039315Y002859D01*
X039319Y002810D02*
X038319Y002810D01*
X038323Y002762D02*
X039314Y002762D01*
X039308Y002713D02*
X038330Y002713D01*
X038343Y002665D02*
X039295Y002665D01*
X039277Y002616D02*
X038361Y002616D01*
X038383Y002568D02*
X039254Y002568D01*
X039222Y002519D02*
X038416Y002519D01*
X038456Y002471D02*
X039182Y002471D01*
X039130Y002422D02*
X038507Y002422D01*
X038580Y002374D02*
X039057Y002374D01*
X038926Y002325D02*
X038712Y002325D01*
X040951Y002700D02*
X040944Y002787D01*
X040951Y002874D01*
X040974Y002958D01*
X041011Y003037D01*
X041061Y003109D01*
X041122Y003170D01*
X041194Y003220D01*
X041273Y003257D01*
X041357Y003280D01*
X041444Y003287D01*
X041531Y003280D01*
X041615Y003257D01*
X041694Y003220D01*
X041765Y003170D01*
X041827Y003109D01*
X041877Y003037D01*
X041914Y002958D01*
X041936Y002874D01*
X041944Y002787D01*
X041936Y002700D01*
X041914Y002616D01*
X041877Y002537D01*
X041827Y002466D01*
X041765Y002404D01*
X041694Y002354D01*
X041615Y002317D01*
X041531Y002295D01*
X041444Y002287D01*
X041357Y002295D01*
X041273Y002317D01*
X041194Y002354D01*
X041122Y002404D01*
X041061Y002466D01*
X041011Y002537D01*
X040974Y002616D01*
X040951Y002700D01*
X040950Y002713D02*
X041937Y002713D01*
X041941Y002762D02*
X040946Y002762D01*
X040946Y002810D02*
X041942Y002810D01*
X041937Y002859D02*
X040950Y002859D01*
X040960Y002907D02*
X041927Y002907D01*
X041914Y002956D02*
X040973Y002956D01*
X040995Y003004D02*
X041892Y003004D01*
X041866Y003053D02*
X041022Y003053D01*
X041056Y003101D02*
X041832Y003101D01*
X041786Y003150D02*
X041102Y003150D01*
X041162Y003198D02*
X041725Y003198D01*
X041637Y003247D02*
X041251Y003247D01*
X040961Y002665D02*
X041927Y002665D01*
X041914Y002616D02*
X040974Y002616D01*
X040996Y002568D02*
X041891Y002568D01*
X041864Y002519D02*
X041023Y002519D01*
X041057Y002471D02*
X041830Y002471D01*
X041783Y002422D02*
X041104Y002422D01*
X041166Y002374D02*
X041722Y002374D01*
X041632Y002325D02*
X041256Y002325D01*
X039136Y003198D02*
X038502Y003198D01*
X038572Y003247D02*
X039065Y003247D01*
X038941Y003295D02*
X038697Y003295D01*
D49*
X108181Y027187D03*
D50*
X109756Y027187D03*
D51*
X021606Y013475D03*
X013732Y013475D03*
X015700Y021349D03*
X019637Y021349D03*
D52*
X006109Y021277D02*
X004928Y021277D01*
X004928Y022930D02*
X006109Y022930D01*
X006109Y024584D02*
X004928Y024584D01*
X004928Y026237D02*
X006109Y026237D01*
X006109Y019623D02*
X004928Y019623D01*
X053328Y033605D02*
X054509Y033605D01*
X054509Y035259D02*
X053328Y035259D01*
X053328Y036912D02*
X054509Y036912D01*
X113171Y036912D02*
X114352Y036912D01*
X114352Y035259D02*
X113171Y035259D01*
X113171Y033605D02*
X114352Y033605D01*
D53*
X110571Y054537D03*
X109451Y054537D03*
X050729Y054537D03*
X049609Y054537D03*
D54*
X038719Y045662D03*
X038319Y045662D03*
X037919Y045662D03*
X037919Y045237D03*
X038319Y045237D03*
X038719Y045237D03*
X038719Y044812D03*
X038319Y044812D03*
X037919Y044812D03*
X021819Y035062D03*
X021819Y034637D03*
X021819Y034212D03*
X021394Y034212D03*
X021394Y034637D03*
X021394Y035062D03*
X020969Y035062D03*
X020969Y034637D03*
X020969Y034212D03*
X016619Y034212D03*
X016619Y034637D03*
X016619Y035062D03*
X016194Y035062D03*
X016194Y034637D03*
X016194Y034212D03*
X015769Y034212D03*
X015769Y034637D03*
X015769Y035062D03*
X013269Y033537D03*
X013269Y033162D03*
X013269Y032787D03*
X012844Y032787D03*
X012844Y033162D03*
X012844Y033537D03*
X009544Y033537D03*
X009544Y033162D03*
X009544Y032787D03*
X009119Y032787D03*
X009119Y033162D03*
X009119Y033537D03*
X037394Y034137D03*
X037394Y034537D03*
X037819Y034537D03*
X037819Y034137D03*
X068961Y033537D03*
X068961Y033162D03*
X068961Y032787D03*
X069386Y032787D03*
X069386Y033162D03*
X069386Y033537D03*
X072686Y033537D03*
X072686Y033162D03*
X072686Y032787D03*
X073111Y032787D03*
X073111Y033162D03*
X073111Y033537D03*
X075611Y034212D03*
X076036Y034212D03*
X076461Y034212D03*
X076461Y034637D03*
X076036Y034637D03*
X075611Y034637D03*
X075611Y035062D03*
X076036Y035062D03*
X076461Y035062D03*
X080811Y035062D03*
X080811Y034637D03*
X080811Y034212D03*
X081236Y034212D03*
X081661Y034212D03*
X081661Y034637D03*
X081236Y034637D03*
X081236Y035062D03*
X081661Y035062D03*
X097236Y034537D03*
X097236Y034137D03*
X097661Y034137D03*
X097661Y034537D03*
X097761Y044812D03*
X098161Y044812D03*
X098561Y044812D03*
X098561Y045237D03*
X098161Y045237D03*
X097761Y045237D03*
X097761Y045662D03*
X098161Y045662D03*
X098561Y045662D03*
D55*
X108370Y033433D03*
X064276Y033433D03*
X048528Y033433D03*
X026284Y026544D03*
X004433Y033433D03*
X004433Y059418D03*
X043804Y059418D03*
X064276Y059418D03*
X103646Y059418D03*
D56*
X042032Y029496D03*
X038095Y029496D03*
X001874Y029496D03*
X001874Y004693D03*
X038095Y004693D03*
D57*
X001694Y014987D03*
X001694Y016737D03*
M02*
