G75*
G70*
%OFA0B0*%
%FSLAX24Y24*%
%IPPOS*%
%LPD*%
%AMOC8*
5,1,8,0,0,1.08239X$1,22.5*
%
%ADD10C,0.0039*%
%ADD11C,0.0000*%
D10*
X006662Y005047D02*
X047607Y005047D01*
X047607Y005046D02*
X047653Y005048D01*
X047699Y005053D01*
X047745Y005062D01*
X047790Y005075D01*
X047833Y005091D01*
X047875Y005110D01*
X047916Y005133D01*
X047954Y005159D01*
X047991Y005188D01*
X048025Y005219D01*
X048056Y005253D01*
X048085Y005290D01*
X048111Y005328D01*
X048134Y005369D01*
X048153Y005411D01*
X048169Y005454D01*
X048182Y005499D01*
X048191Y005545D01*
X048196Y005591D01*
X048198Y005637D01*
X048197Y005637D02*
X048197Y033590D01*
X048198Y033590D02*
X048196Y033636D01*
X048191Y033682D01*
X048182Y033728D01*
X048169Y033773D01*
X048153Y033816D01*
X048134Y033858D01*
X048111Y033899D01*
X048085Y033937D01*
X048056Y033974D01*
X048025Y034008D01*
X047991Y034039D01*
X047954Y034068D01*
X047916Y034094D01*
X047875Y034117D01*
X047833Y034136D01*
X047790Y034152D01*
X047745Y034165D01*
X047699Y034174D01*
X047653Y034179D01*
X047607Y034181D01*
X006662Y034181D01*
X006616Y034179D01*
X006570Y034174D01*
X006524Y034165D01*
X006479Y034152D01*
X006436Y034136D01*
X006394Y034117D01*
X006353Y034094D01*
X006315Y034068D01*
X006278Y034039D01*
X006244Y034008D01*
X006213Y033974D01*
X006184Y033937D01*
X006158Y033899D01*
X006135Y033858D01*
X006116Y033816D01*
X006100Y033773D01*
X006087Y033728D01*
X006078Y033682D01*
X006073Y033636D01*
X006071Y033590D01*
X006071Y005637D01*
X006073Y005591D01*
X006078Y005545D01*
X006087Y005499D01*
X006100Y005454D01*
X006116Y005411D01*
X006135Y005369D01*
X006158Y005328D01*
X006184Y005290D01*
X006213Y005253D01*
X006244Y005219D01*
X006278Y005188D01*
X006315Y005159D01*
X006353Y005133D01*
X006394Y005110D01*
X006436Y005091D01*
X006479Y005075D01*
X006524Y005062D01*
X006570Y005053D01*
X006616Y005048D01*
X006662Y005046D01*
X048985Y005637D02*
X048985Y033590D01*
X048984Y033590D02*
X048986Y033636D01*
X048991Y033682D01*
X049000Y033728D01*
X049013Y033773D01*
X049029Y033816D01*
X049048Y033858D01*
X049071Y033899D01*
X049097Y033937D01*
X049126Y033974D01*
X049157Y034008D01*
X049191Y034039D01*
X049228Y034068D01*
X049266Y034094D01*
X049307Y034117D01*
X049349Y034136D01*
X049392Y034152D01*
X049437Y034165D01*
X049483Y034174D01*
X049529Y034179D01*
X049575Y034181D01*
X129890Y034181D01*
X129936Y034179D01*
X129982Y034174D01*
X130028Y034165D01*
X130073Y034152D01*
X130116Y034136D01*
X130158Y034117D01*
X130199Y034094D01*
X130237Y034068D01*
X130274Y034039D01*
X130308Y034008D01*
X130339Y033974D01*
X130368Y033937D01*
X130394Y033899D01*
X130417Y033858D01*
X130436Y033816D01*
X130452Y033773D01*
X130465Y033728D01*
X130474Y033682D01*
X130479Y033636D01*
X130481Y033590D01*
X130481Y005637D01*
X130479Y005591D01*
X130474Y005545D01*
X130465Y005499D01*
X130452Y005454D01*
X130436Y005411D01*
X130417Y005369D01*
X130394Y005328D01*
X130368Y005290D01*
X130339Y005253D01*
X130308Y005219D01*
X130274Y005188D01*
X130237Y005159D01*
X130199Y005133D01*
X130158Y005110D01*
X130116Y005091D01*
X130073Y005075D01*
X130028Y005062D01*
X129982Y005053D01*
X129936Y005048D01*
X129890Y005046D01*
X129890Y005047D02*
X049575Y005047D01*
X049575Y005046D02*
X049529Y005048D01*
X049483Y005053D01*
X049437Y005062D01*
X049392Y005075D01*
X049349Y005091D01*
X049307Y005110D01*
X049266Y005133D01*
X049228Y005159D01*
X049191Y005188D01*
X049157Y005219D01*
X049126Y005253D01*
X049097Y005290D01*
X049071Y005328D01*
X049048Y005369D01*
X049029Y005411D01*
X049013Y005454D01*
X049000Y005499D01*
X048991Y005545D01*
X048986Y005591D01*
X048984Y005637D01*
X064536Y034968D02*
X006662Y034968D01*
X006616Y034970D01*
X006570Y034975D01*
X006524Y034984D01*
X006479Y034997D01*
X006436Y035013D01*
X006394Y035032D01*
X006353Y035055D01*
X006315Y035081D01*
X006278Y035110D01*
X006244Y035141D01*
X006213Y035175D01*
X006184Y035212D01*
X006158Y035250D01*
X006135Y035291D01*
X006116Y035333D01*
X006100Y035376D01*
X006087Y035421D01*
X006078Y035467D01*
X006073Y035513D01*
X006071Y035559D01*
X006071Y063511D01*
X006073Y063557D01*
X006078Y063603D01*
X006087Y063649D01*
X006100Y063694D01*
X006116Y063737D01*
X006135Y063779D01*
X006158Y063820D01*
X006184Y063858D01*
X006213Y063895D01*
X006244Y063929D01*
X006278Y063960D01*
X006315Y063989D01*
X006353Y064015D01*
X006394Y064038D01*
X006436Y064057D01*
X006479Y064073D01*
X006524Y064086D01*
X006570Y064095D01*
X006616Y064100D01*
X006662Y064102D01*
X064536Y064102D01*
X064582Y064100D01*
X064628Y064095D01*
X064674Y064086D01*
X064719Y064073D01*
X064762Y064057D01*
X064804Y064038D01*
X064845Y064015D01*
X064883Y063989D01*
X064920Y063960D01*
X064954Y063929D01*
X064985Y063895D01*
X065014Y063858D01*
X065040Y063820D01*
X065063Y063779D01*
X065082Y063737D01*
X065098Y063694D01*
X065111Y063649D01*
X065120Y063603D01*
X065125Y063557D01*
X065127Y063511D01*
X065126Y063511D02*
X065126Y035559D01*
X065127Y035559D02*
X065125Y035513D01*
X065120Y035467D01*
X065111Y035421D01*
X065098Y035376D01*
X065082Y035333D01*
X065063Y035291D01*
X065040Y035250D01*
X065014Y035212D01*
X064985Y035175D01*
X064954Y035141D01*
X064920Y035110D01*
X064883Y035081D01*
X064845Y035055D01*
X064804Y035032D01*
X064762Y035013D01*
X064719Y034997D01*
X064674Y034984D01*
X064628Y034975D01*
X064582Y034970D01*
X064536Y034968D01*
X065914Y035559D02*
X065914Y063511D01*
X065913Y063511D02*
X065915Y063557D01*
X065920Y063603D01*
X065929Y063649D01*
X065942Y063694D01*
X065958Y063737D01*
X065977Y063779D01*
X066000Y063820D01*
X066026Y063858D01*
X066055Y063895D01*
X066086Y063929D01*
X066120Y063960D01*
X066157Y063989D01*
X066195Y064015D01*
X066236Y064038D01*
X066278Y064057D01*
X066321Y064073D01*
X066366Y064086D01*
X066412Y064095D01*
X066458Y064100D01*
X066504Y064102D01*
X124378Y064102D01*
X124424Y064100D01*
X124470Y064095D01*
X124516Y064086D01*
X124561Y064073D01*
X124604Y064057D01*
X124646Y064038D01*
X124687Y064015D01*
X124725Y063989D01*
X124762Y063960D01*
X124796Y063929D01*
X124827Y063895D01*
X124856Y063858D01*
X124882Y063820D01*
X124905Y063779D01*
X124924Y063737D01*
X124940Y063694D01*
X124953Y063649D01*
X124962Y063603D01*
X124967Y063557D01*
X124969Y063511D01*
X124969Y035559D01*
X124967Y035513D01*
X124962Y035467D01*
X124953Y035421D01*
X124940Y035376D01*
X124924Y035333D01*
X124905Y035291D01*
X124882Y035250D01*
X124856Y035212D01*
X124827Y035175D01*
X124796Y035141D01*
X124762Y035110D01*
X124725Y035081D01*
X124687Y035055D01*
X124646Y035032D01*
X124604Y035013D01*
X124561Y034997D01*
X124516Y034984D01*
X124470Y034975D01*
X124424Y034970D01*
X124378Y034968D01*
X066504Y034968D01*
X066458Y034970D01*
X066412Y034975D01*
X066366Y034984D01*
X066321Y034997D01*
X066278Y035013D01*
X066236Y035032D01*
X066195Y035055D01*
X066157Y035081D01*
X066120Y035110D01*
X066086Y035141D01*
X066055Y035175D01*
X066026Y035212D01*
X066000Y035250D01*
X065977Y035291D01*
X065958Y035333D01*
X065942Y035376D01*
X065929Y035421D01*
X065920Y035467D01*
X065915Y035513D01*
X065913Y035559D01*
D11*
X090677Y031228D02*
X090679Y031278D01*
X090685Y031328D01*
X090695Y031377D01*
X090709Y031425D01*
X090726Y031472D01*
X090747Y031517D01*
X090772Y031561D01*
X090800Y031602D01*
X090832Y031641D01*
X090866Y031678D01*
X090903Y031712D01*
X090943Y031742D01*
X090985Y031769D01*
X091029Y031793D01*
X091075Y031814D01*
X091122Y031830D01*
X091170Y031843D01*
X091220Y031852D01*
X091269Y031857D01*
X091320Y031858D01*
X091370Y031855D01*
X091419Y031848D01*
X091468Y031837D01*
X091516Y031822D01*
X091562Y031804D01*
X091607Y031782D01*
X091650Y031756D01*
X091691Y031727D01*
X091730Y031695D01*
X091766Y031660D01*
X091798Y031622D01*
X091828Y031582D01*
X091855Y031539D01*
X091878Y031495D01*
X091897Y031449D01*
X091913Y031401D01*
X091925Y031352D01*
X091933Y031303D01*
X091937Y031253D01*
X091937Y031203D01*
X091933Y031153D01*
X091925Y031104D01*
X091913Y031055D01*
X091897Y031007D01*
X091878Y030961D01*
X091855Y030917D01*
X091828Y030874D01*
X091798Y030834D01*
X091766Y030796D01*
X091730Y030761D01*
X091691Y030729D01*
X091650Y030700D01*
X091607Y030674D01*
X091562Y030652D01*
X091516Y030634D01*
X091468Y030619D01*
X091419Y030608D01*
X091370Y030601D01*
X091320Y030598D01*
X091269Y030599D01*
X091220Y030604D01*
X091170Y030613D01*
X091122Y030626D01*
X091075Y030642D01*
X091029Y030663D01*
X090985Y030687D01*
X090943Y030714D01*
X090903Y030744D01*
X090866Y030778D01*
X090832Y030815D01*
X090800Y030854D01*
X090772Y030895D01*
X090747Y030939D01*
X090726Y030984D01*
X090709Y031031D01*
X090695Y031079D01*
X090685Y031128D01*
X090679Y031178D01*
X090677Y031228D01*
X124142Y031228D02*
X124144Y031278D01*
X124150Y031328D01*
X124160Y031377D01*
X124174Y031425D01*
X124191Y031472D01*
X124212Y031517D01*
X124237Y031561D01*
X124265Y031602D01*
X124297Y031641D01*
X124331Y031678D01*
X124368Y031712D01*
X124408Y031742D01*
X124450Y031769D01*
X124494Y031793D01*
X124540Y031814D01*
X124587Y031830D01*
X124635Y031843D01*
X124685Y031852D01*
X124734Y031857D01*
X124785Y031858D01*
X124835Y031855D01*
X124884Y031848D01*
X124933Y031837D01*
X124981Y031822D01*
X125027Y031804D01*
X125072Y031782D01*
X125115Y031756D01*
X125156Y031727D01*
X125195Y031695D01*
X125231Y031660D01*
X125263Y031622D01*
X125293Y031582D01*
X125320Y031539D01*
X125343Y031495D01*
X125362Y031449D01*
X125378Y031401D01*
X125390Y031352D01*
X125398Y031303D01*
X125402Y031253D01*
X125402Y031203D01*
X125398Y031153D01*
X125390Y031104D01*
X125378Y031055D01*
X125362Y031007D01*
X125343Y030961D01*
X125320Y030917D01*
X125293Y030874D01*
X125263Y030834D01*
X125231Y030796D01*
X125195Y030761D01*
X125156Y030729D01*
X125115Y030700D01*
X125072Y030674D01*
X125027Y030652D01*
X124981Y030634D01*
X124933Y030619D01*
X124884Y030608D01*
X124835Y030601D01*
X124785Y030598D01*
X124734Y030599D01*
X124685Y030604D01*
X124635Y030613D01*
X124587Y030626D01*
X124540Y030642D01*
X124494Y030663D01*
X124450Y030687D01*
X124408Y030714D01*
X124368Y030744D01*
X124331Y030778D01*
X124297Y030815D01*
X124265Y030854D01*
X124237Y030895D01*
X124212Y030939D01*
X124191Y030984D01*
X124174Y031031D01*
X124160Y031079D01*
X124150Y031128D01*
X124144Y031178D01*
X124142Y031228D01*
X092390Y048748D02*
X092392Y048819D01*
X092398Y048890D01*
X092408Y048961D01*
X092422Y049030D01*
X092439Y049099D01*
X092461Y049167D01*
X092486Y049234D01*
X092515Y049299D01*
X092547Y049362D01*
X092583Y049424D01*
X092622Y049483D01*
X092665Y049540D01*
X092710Y049595D01*
X092759Y049647D01*
X092810Y049696D01*
X092864Y049742D01*
X092921Y049786D01*
X092979Y049826D01*
X093040Y049862D01*
X093103Y049896D01*
X093168Y049925D01*
X093234Y049951D01*
X093302Y049974D01*
X093370Y049992D01*
X093440Y050007D01*
X093510Y050018D01*
X093581Y050025D01*
X093652Y050028D01*
X093723Y050027D01*
X093794Y050022D01*
X093865Y050013D01*
X093935Y050000D01*
X094004Y049984D01*
X094072Y049963D01*
X094139Y049939D01*
X094205Y049911D01*
X094268Y049879D01*
X094330Y049844D01*
X094390Y049806D01*
X094448Y049764D01*
X094503Y049720D01*
X094556Y049672D01*
X094606Y049621D01*
X094653Y049568D01*
X094697Y049512D01*
X094738Y049454D01*
X094776Y049393D01*
X094810Y049331D01*
X094840Y049266D01*
X094867Y049201D01*
X094891Y049133D01*
X094910Y049065D01*
X094926Y048996D01*
X094938Y048925D01*
X094946Y048855D01*
X094950Y048784D01*
X094950Y048712D01*
X094946Y048641D01*
X094938Y048571D01*
X094926Y048500D01*
X094910Y048431D01*
X094891Y048363D01*
X094867Y048295D01*
X094840Y048230D01*
X094810Y048165D01*
X094776Y048103D01*
X094738Y048042D01*
X094697Y047984D01*
X094653Y047928D01*
X094606Y047875D01*
X094556Y047824D01*
X094503Y047776D01*
X094448Y047732D01*
X094390Y047690D01*
X094330Y047652D01*
X094268Y047617D01*
X094205Y047585D01*
X094139Y047557D01*
X094072Y047533D01*
X094004Y047512D01*
X093935Y047496D01*
X093865Y047483D01*
X093794Y047474D01*
X093723Y047469D01*
X093652Y047468D01*
X093581Y047471D01*
X093510Y047478D01*
X093440Y047489D01*
X093370Y047504D01*
X093302Y047522D01*
X093234Y047545D01*
X093168Y047571D01*
X093103Y047600D01*
X093040Y047634D01*
X092979Y047670D01*
X092921Y047710D01*
X092864Y047754D01*
X092810Y047800D01*
X092759Y047849D01*
X092710Y047901D01*
X092665Y047956D01*
X092622Y048013D01*
X092583Y048072D01*
X092547Y048134D01*
X092515Y048197D01*
X092486Y048262D01*
X092461Y048329D01*
X092439Y048397D01*
X092422Y048466D01*
X092408Y048535D01*
X092398Y048606D01*
X092392Y048677D01*
X092390Y048748D01*
X032547Y048748D02*
X032549Y048819D01*
X032555Y048890D01*
X032565Y048961D01*
X032579Y049030D01*
X032596Y049099D01*
X032618Y049167D01*
X032643Y049234D01*
X032672Y049299D01*
X032704Y049362D01*
X032740Y049424D01*
X032779Y049483D01*
X032822Y049540D01*
X032867Y049595D01*
X032916Y049647D01*
X032967Y049696D01*
X033021Y049742D01*
X033078Y049786D01*
X033136Y049826D01*
X033197Y049862D01*
X033260Y049896D01*
X033325Y049925D01*
X033391Y049951D01*
X033459Y049974D01*
X033527Y049992D01*
X033597Y050007D01*
X033667Y050018D01*
X033738Y050025D01*
X033809Y050028D01*
X033880Y050027D01*
X033951Y050022D01*
X034022Y050013D01*
X034092Y050000D01*
X034161Y049984D01*
X034229Y049963D01*
X034296Y049939D01*
X034362Y049911D01*
X034425Y049879D01*
X034487Y049844D01*
X034547Y049806D01*
X034605Y049764D01*
X034660Y049720D01*
X034713Y049672D01*
X034763Y049621D01*
X034810Y049568D01*
X034854Y049512D01*
X034895Y049454D01*
X034933Y049393D01*
X034967Y049331D01*
X034997Y049266D01*
X035024Y049201D01*
X035048Y049133D01*
X035067Y049065D01*
X035083Y048996D01*
X035095Y048925D01*
X035103Y048855D01*
X035107Y048784D01*
X035107Y048712D01*
X035103Y048641D01*
X035095Y048571D01*
X035083Y048500D01*
X035067Y048431D01*
X035048Y048363D01*
X035024Y048295D01*
X034997Y048230D01*
X034967Y048165D01*
X034933Y048103D01*
X034895Y048042D01*
X034854Y047984D01*
X034810Y047928D01*
X034763Y047875D01*
X034713Y047824D01*
X034660Y047776D01*
X034605Y047732D01*
X034547Y047690D01*
X034487Y047652D01*
X034425Y047617D01*
X034362Y047585D01*
X034296Y047557D01*
X034229Y047533D01*
X034161Y047512D01*
X034092Y047496D01*
X034022Y047483D01*
X033951Y047474D01*
X033880Y047469D01*
X033809Y047468D01*
X033738Y047471D01*
X033667Y047478D01*
X033597Y047489D01*
X033527Y047504D01*
X033459Y047522D01*
X033391Y047545D01*
X033325Y047571D01*
X033260Y047600D01*
X033197Y047634D01*
X033136Y047670D01*
X033078Y047710D01*
X033021Y047754D01*
X032967Y047800D01*
X032916Y047849D01*
X032867Y047901D01*
X032822Y047956D01*
X032779Y048013D01*
X032740Y048072D01*
X032704Y048134D01*
X032672Y048197D01*
X032643Y048262D01*
X032618Y048329D01*
X032596Y048397D01*
X032579Y048466D01*
X032565Y048535D01*
X032555Y048606D01*
X032549Y048677D01*
X032547Y048748D01*
X020096Y029521D02*
X020098Y029571D01*
X020104Y029621D01*
X020114Y029670D01*
X020128Y029718D01*
X020145Y029765D01*
X020166Y029810D01*
X020191Y029854D01*
X020219Y029895D01*
X020251Y029934D01*
X020285Y029971D01*
X020322Y030005D01*
X020362Y030035D01*
X020404Y030062D01*
X020448Y030086D01*
X020494Y030107D01*
X020541Y030123D01*
X020589Y030136D01*
X020639Y030145D01*
X020688Y030150D01*
X020739Y030151D01*
X020789Y030148D01*
X020838Y030141D01*
X020887Y030130D01*
X020935Y030115D01*
X020981Y030097D01*
X021026Y030075D01*
X021069Y030049D01*
X021110Y030020D01*
X021149Y029988D01*
X021185Y029953D01*
X021217Y029915D01*
X021247Y029875D01*
X021274Y029832D01*
X021297Y029788D01*
X021316Y029742D01*
X021332Y029694D01*
X021344Y029645D01*
X021352Y029596D01*
X021356Y029546D01*
X021356Y029496D01*
X021352Y029446D01*
X021344Y029397D01*
X021332Y029348D01*
X021316Y029300D01*
X021297Y029254D01*
X021274Y029210D01*
X021247Y029167D01*
X021217Y029127D01*
X021185Y029089D01*
X021149Y029054D01*
X021110Y029022D01*
X021069Y028993D01*
X021026Y028967D01*
X020981Y028945D01*
X020935Y028927D01*
X020887Y028912D01*
X020838Y028901D01*
X020789Y028894D01*
X020739Y028891D01*
X020688Y028892D01*
X020639Y028897D01*
X020589Y028906D01*
X020541Y028919D01*
X020494Y028935D01*
X020448Y028956D01*
X020404Y028980D01*
X020362Y029007D01*
X020322Y029037D01*
X020285Y029071D01*
X020251Y029108D01*
X020219Y029147D01*
X020191Y029188D01*
X020166Y029232D01*
X020145Y029277D01*
X020128Y029324D01*
X020114Y029372D01*
X020104Y029421D01*
X020098Y029471D01*
X020096Y029521D01*
X015596Y029521D02*
X015598Y029571D01*
X015604Y029621D01*
X015614Y029670D01*
X015628Y029718D01*
X015645Y029765D01*
X015666Y029810D01*
X015691Y029854D01*
X015719Y029895D01*
X015751Y029934D01*
X015785Y029971D01*
X015822Y030005D01*
X015862Y030035D01*
X015904Y030062D01*
X015948Y030086D01*
X015994Y030107D01*
X016041Y030123D01*
X016089Y030136D01*
X016139Y030145D01*
X016188Y030150D01*
X016239Y030151D01*
X016289Y030148D01*
X016338Y030141D01*
X016387Y030130D01*
X016435Y030115D01*
X016481Y030097D01*
X016526Y030075D01*
X016569Y030049D01*
X016610Y030020D01*
X016649Y029988D01*
X016685Y029953D01*
X016717Y029915D01*
X016747Y029875D01*
X016774Y029832D01*
X016797Y029788D01*
X016816Y029742D01*
X016832Y029694D01*
X016844Y029645D01*
X016852Y029596D01*
X016856Y029546D01*
X016856Y029496D01*
X016852Y029446D01*
X016844Y029397D01*
X016832Y029348D01*
X016816Y029300D01*
X016797Y029254D01*
X016774Y029210D01*
X016747Y029167D01*
X016717Y029127D01*
X016685Y029089D01*
X016649Y029054D01*
X016610Y029022D01*
X016569Y028993D01*
X016526Y028967D01*
X016481Y028945D01*
X016435Y028927D01*
X016387Y028912D01*
X016338Y028901D01*
X016289Y028894D01*
X016239Y028891D01*
X016188Y028892D01*
X016139Y028897D01*
X016089Y028906D01*
X016041Y028919D01*
X015994Y028935D01*
X015948Y028956D01*
X015904Y028980D01*
X015862Y029007D01*
X015822Y029037D01*
X015785Y029071D01*
X015751Y029108D01*
X015719Y029147D01*
X015691Y029188D01*
X015666Y029232D01*
X015645Y029277D01*
X015628Y029324D01*
X015614Y029372D01*
X015604Y029421D01*
X015598Y029471D01*
X015596Y029521D01*
X090677Y008000D02*
X090679Y008050D01*
X090685Y008100D01*
X090695Y008149D01*
X090709Y008197D01*
X090726Y008244D01*
X090747Y008289D01*
X090772Y008333D01*
X090800Y008374D01*
X090832Y008413D01*
X090866Y008450D01*
X090903Y008484D01*
X090943Y008514D01*
X090985Y008541D01*
X091029Y008565D01*
X091075Y008586D01*
X091122Y008602D01*
X091170Y008615D01*
X091220Y008624D01*
X091269Y008629D01*
X091320Y008630D01*
X091370Y008627D01*
X091419Y008620D01*
X091468Y008609D01*
X091516Y008594D01*
X091562Y008576D01*
X091607Y008554D01*
X091650Y008528D01*
X091691Y008499D01*
X091730Y008467D01*
X091766Y008432D01*
X091798Y008394D01*
X091828Y008354D01*
X091855Y008311D01*
X091878Y008267D01*
X091897Y008221D01*
X091913Y008173D01*
X091925Y008124D01*
X091933Y008075D01*
X091937Y008025D01*
X091937Y007975D01*
X091933Y007925D01*
X091925Y007876D01*
X091913Y007827D01*
X091897Y007779D01*
X091878Y007733D01*
X091855Y007689D01*
X091828Y007646D01*
X091798Y007606D01*
X091766Y007568D01*
X091730Y007533D01*
X091691Y007501D01*
X091650Y007472D01*
X091607Y007446D01*
X091562Y007424D01*
X091516Y007406D01*
X091468Y007391D01*
X091419Y007380D01*
X091370Y007373D01*
X091320Y007370D01*
X091269Y007371D01*
X091220Y007376D01*
X091170Y007385D01*
X091122Y007398D01*
X091075Y007414D01*
X091029Y007435D01*
X090985Y007459D01*
X090943Y007486D01*
X090903Y007516D01*
X090866Y007550D01*
X090832Y007587D01*
X090800Y007626D01*
X090772Y007667D01*
X090747Y007711D01*
X090726Y007756D01*
X090709Y007803D01*
X090695Y007851D01*
X090685Y007900D01*
X090679Y007950D01*
X090677Y008000D01*
X124142Y008000D02*
X124144Y008050D01*
X124150Y008100D01*
X124160Y008149D01*
X124174Y008197D01*
X124191Y008244D01*
X124212Y008289D01*
X124237Y008333D01*
X124265Y008374D01*
X124297Y008413D01*
X124331Y008450D01*
X124368Y008484D01*
X124408Y008514D01*
X124450Y008541D01*
X124494Y008565D01*
X124540Y008586D01*
X124587Y008602D01*
X124635Y008615D01*
X124685Y008624D01*
X124734Y008629D01*
X124785Y008630D01*
X124835Y008627D01*
X124884Y008620D01*
X124933Y008609D01*
X124981Y008594D01*
X125027Y008576D01*
X125072Y008554D01*
X125115Y008528D01*
X125156Y008499D01*
X125195Y008467D01*
X125231Y008432D01*
X125263Y008394D01*
X125293Y008354D01*
X125320Y008311D01*
X125343Y008267D01*
X125362Y008221D01*
X125378Y008173D01*
X125390Y008124D01*
X125398Y008075D01*
X125402Y008025D01*
X125402Y007975D01*
X125398Y007925D01*
X125390Y007876D01*
X125378Y007827D01*
X125362Y007779D01*
X125343Y007733D01*
X125320Y007689D01*
X125293Y007646D01*
X125263Y007606D01*
X125231Y007568D01*
X125195Y007533D01*
X125156Y007501D01*
X125115Y007472D01*
X125072Y007446D01*
X125027Y007424D01*
X124981Y007406D01*
X124933Y007391D01*
X124884Y007380D01*
X124835Y007373D01*
X124785Y007370D01*
X124734Y007371D01*
X124685Y007376D01*
X124635Y007385D01*
X124587Y007398D01*
X124540Y007414D01*
X124494Y007435D01*
X124450Y007459D01*
X124408Y007486D01*
X124368Y007516D01*
X124331Y007550D01*
X124297Y007587D01*
X124265Y007626D01*
X124237Y007667D01*
X124212Y007711D01*
X124191Y007756D01*
X124174Y007803D01*
X124160Y007851D01*
X124150Y007900D01*
X124144Y007950D01*
X124142Y008000D01*
M02*
