G75*
G70*
%OFA0B0*%
%FSLAX24Y24*%
%IPPOS*%
%LPD*%
%AMOC8*
5,1,8,0,0,1.08239X$1,22.5*
%
%ADD10C,0.1000*%
%ADD11C,0.0477*%
%ADD12C,0.0780*%
%ADD13OC8,0.0780*%
%ADD14C,0.0674*%
%ADD15OC8,0.0710*%
%ADD16C,0.0710*%
%ADD17C,0.0640*%
%ADD18C,0.0946*%
%ADD19OC8,0.0946*%
%ADD20OC8,0.0634*%
%ADD21OC8,0.0680*%
%ADD22C,0.1299*%
%ADD23C,0.0848*%
%ADD24C,0.4885*%
%ADD25R,0.0552X0.0552*%
%ADD26C,0.1172*%
%ADD27R,0.0674X0.0674*%
%ADD28OC8,0.0674*%
%ADD29C,0.0595*%
%ADD30R,0.0595X0.0595*%
%ADD31C,0.1386*%
%ADD32C,0.0674*%
%ADD33C,0.0634*%
%ADD34R,0.0710X0.0789*%
%ADD35R,0.0516X0.0516*%
%ADD36R,0.0592X0.0671*%
%ADD37C,0.0095*%
%ADD38C,0.0973*%
%ADD39C,0.2759*%
%ADD40C,0.1360*%
%ADD41OC8,0.1360*%
%ADD42C,0.1100*%
%ADD43OC8,0.0640*%
%ADD44OC8,0.0600*%
%ADD45C,0.1100*%
%ADD46OC8,0.1100*%
%ADD47OC8,0.0973*%
%ADD48C,0.0907*%
%ADD49OC8,0.0840*%
%ADD50C,0.1653*%
%ADD51C,0.0640*%
%ADD52C,0.1436*%
%ADD53C,0.1039*%
%ADD54R,0.0516X0.0516*%
%ADD55C,0.2365*%
%ADD56C,0.2562*%
%ADD57C,0.1650*%
%ADD58OC8,0.0516*%
D10*
X060421Y011797D02*
X060421Y024522D01*
X060921Y025022D01*
X072371Y025022D01*
X072471Y025022D02*
X073196Y025022D01*
X074321Y023897D01*
X074321Y023372D01*
X072396Y020722D02*
X071221Y021897D01*
X063421Y021897D01*
X063221Y022097D01*
X062146Y022097D01*
X070221Y020272D02*
X070221Y017097D01*
X068971Y015847D01*
X066721Y015847D01*
X066221Y015347D01*
X066221Y014422D01*
X064246Y014522D02*
X064246Y017322D01*
X072396Y020422D02*
X072396Y020722D01*
X076046Y017222D02*
X075496Y016672D01*
X075496Y010672D01*
X074071Y009247D01*
X065121Y009222D02*
X062996Y009222D01*
X060421Y011797D01*
X076046Y017222D02*
X077546Y017222D01*
X078539Y036122D02*
X101714Y036122D01*
X106314Y040722D01*
X106314Y042672D01*
X106289Y042697D01*
X106439Y042872D02*
X106464Y042872D01*
X106439Y042872D02*
X107689Y044122D01*
X107689Y046972D01*
X108089Y047372D01*
X113639Y047372D01*
X114089Y046922D01*
X121889Y046922D01*
X122464Y047497D01*
X122464Y048447D01*
X112589Y049222D02*
X104789Y049222D01*
X104089Y048522D01*
X104089Y048397D01*
X097439Y042572D02*
X096814Y043197D01*
X094714Y043197D01*
X093814Y042297D01*
X093814Y041322D01*
X095514Y041222D02*
X095514Y039722D01*
X093614Y037822D01*
X087589Y037822D01*
X081189Y037872D02*
X074214Y037872D01*
X070339Y041747D01*
X070339Y044172D01*
X068439Y046472D02*
X069039Y047072D01*
X070439Y047072D01*
X068439Y046472D02*
X068439Y041322D01*
X073589Y036172D01*
X074364Y036172D01*
X062621Y047497D02*
X062046Y046922D01*
X054246Y046922D01*
X053796Y047372D01*
X048246Y047372D01*
X047846Y046972D01*
X047846Y044122D01*
X046596Y042872D01*
X046621Y042872D01*
X046446Y042697D02*
X046471Y042672D01*
X046471Y040722D01*
X041871Y036122D01*
X018696Y036122D01*
X021346Y037872D02*
X014371Y037872D01*
X010496Y041747D01*
X010496Y044172D01*
X008596Y046472D02*
X009196Y047072D01*
X010596Y047072D01*
X008596Y046472D02*
X008596Y041322D01*
X013746Y036172D01*
X014521Y036172D01*
X027746Y037822D02*
X033771Y037822D01*
X035671Y039722D01*
X035671Y041222D01*
X033971Y041322D02*
X033971Y042297D01*
X034871Y043197D01*
X036971Y043197D01*
X037596Y042572D01*
X037596Y042197D01*
X044246Y048397D02*
X044246Y048522D01*
X044946Y049222D01*
X052746Y049222D01*
X062621Y048447D02*
X062621Y047497D01*
X097439Y042572D02*
X097439Y042197D01*
D11*
X110571Y024822D03*
X111122Y024822D03*
D12*
X116496Y030297D03*
X116746Y030297D03*
D13*
X118246Y030297D03*
X118496Y030297D03*
D14*
X112171Y006994D02*
X112171Y006400D01*
X111171Y006400D02*
X111171Y006994D01*
X110171Y006994D02*
X110171Y006400D01*
X109171Y006400D02*
X109171Y006994D01*
X108171Y006994D02*
X108171Y006400D01*
X107171Y006400D02*
X107171Y006994D01*
X046818Y020347D02*
X046224Y020347D01*
X046224Y021347D02*
X046818Y021347D01*
X046818Y022347D02*
X046224Y022347D01*
D15*
X056521Y022922D03*
X081971Y014797D03*
D16*
X081971Y013797D03*
X056521Y023922D03*
D17*
X093821Y032767D02*
X093821Y033327D01*
X094821Y033327D02*
X094821Y032767D01*
D18*
X114916Y024347D03*
D19*
X122786Y024347D03*
X096964Y038497D03*
X072389Y043672D03*
X037121Y038497D03*
X012546Y043672D03*
X062409Y008747D03*
X077253Y008803D03*
D20*
X096517Y016162D03*
X097517Y016162D03*
X097517Y017162D03*
X096517Y017162D03*
X096517Y018162D03*
X097517Y018162D03*
X097517Y019162D03*
X097517Y020162D03*
X096517Y020162D03*
X096517Y019162D03*
X096517Y021162D03*
X097517Y021162D03*
X097517Y022162D03*
X096517Y022162D03*
X096517Y023162D03*
X097517Y023162D03*
X097517Y024162D03*
X096517Y024162D03*
X096517Y025162D03*
X097517Y025162D03*
X097517Y026162D03*
X096517Y026162D03*
X096517Y027162D03*
X097517Y027162D03*
X097517Y028162D03*
X097517Y029162D03*
X096517Y029162D03*
X096517Y028162D03*
X096517Y030162D03*
X097517Y030162D03*
X097517Y031162D03*
X096517Y031162D03*
X096517Y032162D03*
X097517Y032162D03*
X097517Y033162D03*
X096517Y033162D03*
X100517Y033162D03*
X101517Y033162D03*
X102517Y033162D03*
X103517Y033162D03*
X104517Y033162D03*
X105517Y033162D03*
X106517Y033162D03*
X107517Y033162D03*
X109517Y033162D03*
X110517Y033162D03*
X111517Y033162D03*
X112517Y033162D03*
X113517Y033162D03*
X114517Y033162D03*
X115517Y033162D03*
X116517Y033162D03*
X118117Y033162D03*
X119117Y033162D03*
X120117Y033162D03*
X121117Y033162D03*
X122117Y033162D03*
X123117Y033162D03*
X124117Y033162D03*
X125117Y033162D03*
X109517Y025162D03*
X108517Y025162D03*
X108517Y024162D03*
X109517Y024162D03*
X109517Y023162D03*
X109517Y014162D03*
X110517Y014162D03*
X111517Y014162D03*
X112517Y014162D03*
X113517Y014162D03*
X114517Y014162D03*
X116517Y014162D03*
X117517Y014162D03*
X118517Y014162D03*
X119517Y014162D03*
X120517Y014162D03*
X121517Y014162D03*
X108517Y014162D03*
X107517Y014162D03*
X105517Y014162D03*
X104517Y014162D03*
X103517Y014162D03*
X102517Y014162D03*
X101517Y014162D03*
X100517Y014162D03*
X099517Y014162D03*
X098517Y014162D03*
D21*
X108517Y023162D03*
X013321Y030422D03*
X009321Y030422D03*
D22*
X064173Y017385D03*
X066157Y017385D03*
X068142Y017385D03*
X068142Y014409D03*
X066157Y014409D03*
X064173Y014409D03*
X070351Y020334D03*
X072335Y020334D03*
X074319Y020334D03*
X074319Y023310D03*
X072335Y023310D03*
X070351Y023310D03*
D23*
X064398Y023310D03*
X064398Y020334D03*
X074094Y017385D03*
X074094Y014409D03*
D24*
X073650Y008590D03*
X066150Y008590D03*
X058650Y008590D03*
X052331Y008590D03*
X081150Y008590D03*
D25*
X077744Y012133D03*
X076918Y012133D03*
X070264Y012133D03*
X069437Y012133D03*
X062784Y012133D03*
X061957Y012133D03*
X058650Y023551D03*
X057823Y023551D03*
X055697Y023551D03*
X054870Y023551D03*
X054870Y026307D03*
X055697Y026307D03*
X055697Y029063D03*
X054870Y029063D03*
X083610Y029063D03*
X084437Y029063D03*
X084437Y026307D03*
X083610Y026307D03*
X083610Y023551D03*
X084437Y023551D03*
X086563Y023551D03*
X087390Y023551D03*
X128296Y013315D03*
X129122Y013315D03*
D26*
X129241Y010834D02*
X128176Y010834D01*
X128176Y008984D02*
X129241Y008984D01*
X129241Y007134D02*
X128176Y007134D01*
D27*
X105471Y008272D03*
X077824Y025641D03*
X061682Y013586D03*
X020226Y032021D03*
X009953Y055563D03*
X069796Y055563D03*
X128321Y026847D03*
D28*
X129321Y026847D03*
X129321Y027847D03*
X129321Y028847D03*
X129321Y029847D03*
X128321Y029847D03*
X128321Y028847D03*
X128321Y027847D03*
X105471Y012272D03*
X104471Y012272D03*
X104471Y011272D03*
X105471Y011272D03*
X105471Y010272D03*
X104471Y010272D03*
X104471Y009272D03*
X105471Y009272D03*
X104471Y008272D03*
X088721Y008272D03*
X088721Y007272D03*
X088721Y009272D03*
X088721Y010272D03*
X088721Y011272D03*
X088721Y012272D03*
X088721Y013272D03*
X088721Y014272D03*
X077824Y014641D03*
X076824Y014641D03*
X076824Y015641D03*
X077824Y015641D03*
X077824Y016641D03*
X076824Y016641D03*
X076824Y017641D03*
X077824Y017641D03*
X077824Y018641D03*
X076824Y018641D03*
X076824Y019641D03*
X077824Y019641D03*
X077824Y020641D03*
X076824Y020641D03*
X076824Y021641D03*
X077824Y021641D03*
X077824Y022641D03*
X076824Y022641D03*
X076824Y023641D03*
X077824Y023641D03*
X077824Y024641D03*
X076824Y024641D03*
X076824Y025641D03*
X062682Y025586D03*
X062682Y024586D03*
X061682Y024586D03*
X061682Y025586D03*
X061682Y023586D03*
X061682Y022586D03*
X061682Y021586D03*
X062682Y021586D03*
X062682Y022586D03*
X062682Y023586D03*
X062682Y020586D03*
X062682Y019586D03*
X061682Y019586D03*
X061682Y020586D03*
X061682Y018586D03*
X061682Y017586D03*
X062682Y017586D03*
X062682Y018586D03*
X062682Y016586D03*
X062682Y015586D03*
X061682Y015586D03*
X061682Y016586D03*
X061682Y014586D03*
X062682Y014586D03*
X062682Y013586D03*
X076824Y013641D03*
X077824Y013641D03*
X041371Y033022D03*
X040371Y033022D03*
X039371Y033022D03*
X038371Y033022D03*
X037371Y033022D03*
X035271Y033022D03*
X034271Y033022D03*
X033271Y033022D03*
X032271Y033022D03*
X031271Y033022D03*
X029271Y033022D03*
X028271Y033022D03*
X027271Y033022D03*
X026271Y033022D03*
X025271Y033022D03*
X024271Y033022D03*
X023271Y033022D03*
X022271Y033022D03*
X010953Y043563D03*
X009953Y043563D03*
X009953Y044563D03*
X009953Y045563D03*
X009953Y046563D03*
X010953Y046563D03*
X010953Y045563D03*
X010953Y044563D03*
X010953Y047563D03*
X010953Y048563D03*
X009953Y048563D03*
X009953Y047563D03*
X009953Y049563D03*
X009953Y050563D03*
X010953Y050563D03*
X010953Y049563D03*
X010953Y051563D03*
X010953Y052563D03*
X010953Y053563D03*
X009953Y053563D03*
X009953Y052563D03*
X009953Y051563D03*
X009953Y054563D03*
X010953Y054563D03*
X010953Y055563D03*
X069796Y054563D03*
X070796Y054563D03*
X070796Y055563D03*
X070796Y053563D03*
X070796Y052563D03*
X070796Y051563D03*
X069796Y051563D03*
X069796Y052563D03*
X069796Y053563D03*
X069796Y050563D03*
X070796Y050563D03*
X070796Y049563D03*
X069796Y049563D03*
X069796Y048563D03*
X070796Y048563D03*
X070796Y047563D03*
X069796Y047563D03*
X069796Y046563D03*
X070796Y046563D03*
X070796Y045563D03*
X070796Y044563D03*
X069796Y044563D03*
X069796Y045563D03*
X069796Y043563D03*
X070796Y043563D03*
D29*
X125347Y029165D03*
X125347Y028165D03*
X126347Y028165D03*
X126347Y027165D03*
X125347Y027165D03*
X125347Y026165D03*
X126347Y026165D03*
X126347Y025165D03*
X125347Y025165D03*
X125347Y024165D03*
X126347Y024165D03*
X126347Y023165D03*
X125347Y023165D03*
X125347Y022165D03*
X126347Y022165D03*
X126347Y021165D03*
X125347Y021165D03*
X125347Y020165D03*
X126347Y020165D03*
X126347Y019165D03*
X126347Y018165D03*
X125347Y018165D03*
X125347Y019165D03*
X125347Y017165D03*
X126347Y017165D03*
X126347Y016165D03*
X125347Y016165D03*
X125347Y015165D03*
X126347Y015165D03*
X126347Y014165D03*
X125347Y014165D03*
X125347Y013165D03*
X126347Y013165D03*
X126347Y012165D03*
X126347Y011165D03*
X125347Y011165D03*
X125347Y012165D03*
X125347Y010165D03*
X126347Y010165D03*
D30*
X126347Y029165D03*
D31*
X124772Y031228D03*
X091307Y031228D03*
X091307Y008000D03*
X124772Y008000D03*
X020726Y029521D03*
X016226Y029521D03*
D32*
X015986Y027903D03*
X016986Y027903D03*
X019966Y027903D03*
X020966Y027903D03*
X019226Y032021D03*
X018226Y032021D03*
X017226Y032021D03*
X017726Y033021D03*
X018726Y033021D03*
X019726Y033021D03*
X016726Y033021D03*
X045640Y029259D03*
X046640Y029259D03*
X046640Y028259D03*
X046640Y027259D03*
X045640Y027259D03*
X045640Y028259D03*
X045640Y026259D03*
X045640Y025259D03*
X046640Y025259D03*
X046640Y026259D03*
X116196Y007597D03*
X117196Y007597D03*
X118196Y007597D03*
X119196Y007597D03*
X120196Y007597D03*
X120196Y006597D03*
X119196Y006597D03*
X118196Y006597D03*
X117196Y006597D03*
X116196Y006597D03*
D33*
X087481Y018433D03*
X086481Y018433D03*
X085481Y018433D03*
X084481Y018433D03*
X083481Y018433D03*
X082481Y018433D03*
X081481Y018433D03*
X080481Y018433D03*
X080481Y020433D03*
X081481Y020433D03*
X082481Y020433D03*
X083481Y020433D03*
X084481Y020433D03*
X085481Y020433D03*
X086481Y020433D03*
X087481Y020433D03*
X058709Y020433D03*
X057709Y020433D03*
X056709Y020433D03*
X055709Y020433D03*
X054709Y020433D03*
X053709Y020433D03*
X053709Y018433D03*
X054709Y018433D03*
X055709Y018433D03*
X056709Y018433D03*
X057709Y018433D03*
X058709Y018433D03*
D34*
X097245Y009372D03*
X098347Y009372D03*
D35*
X075253Y008803D03*
X060409Y008747D03*
X037121Y036497D03*
X012546Y041672D03*
X072389Y041672D03*
X096964Y036497D03*
D36*
X128022Y016872D03*
X128770Y016872D03*
D37*
X129327Y017554D02*
X129327Y018366D01*
X129863Y018366D01*
X129863Y017554D01*
X129327Y017554D01*
X129327Y017648D02*
X129863Y017648D01*
X129863Y017742D02*
X129327Y017742D01*
X129327Y017836D02*
X129863Y017836D01*
X129863Y017930D02*
X129327Y017930D01*
X129327Y018024D02*
X129863Y018024D01*
X129863Y018118D02*
X129327Y018118D01*
X129327Y018212D02*
X129863Y018212D01*
X129863Y018306D02*
X129327Y018306D01*
X127555Y018366D02*
X127555Y017554D01*
X127555Y018366D02*
X128091Y018366D01*
X128091Y017554D01*
X127555Y017554D01*
X127555Y017648D02*
X128091Y017648D01*
X128091Y017742D02*
X127555Y017742D01*
X127555Y017836D02*
X128091Y017836D01*
X128091Y017930D02*
X127555Y017930D01*
X127555Y018024D02*
X128091Y018024D01*
X128091Y018118D02*
X127555Y018118D01*
X127555Y018212D02*
X128091Y018212D01*
X128091Y018306D02*
X127555Y018306D01*
X127555Y020861D02*
X127555Y021673D01*
X128091Y021673D01*
X128091Y020861D01*
X127555Y020861D01*
X127555Y020955D02*
X128091Y020955D01*
X128091Y021049D02*
X127555Y021049D01*
X127555Y021143D02*
X128091Y021143D01*
X128091Y021237D02*
X127555Y021237D01*
X127555Y021331D02*
X128091Y021331D01*
X128091Y021425D02*
X127555Y021425D01*
X127555Y021519D02*
X128091Y021519D01*
X128091Y021613D02*
X127555Y021613D01*
X128441Y021673D02*
X128441Y020861D01*
X128441Y021673D02*
X128977Y021673D01*
X128977Y020861D01*
X128441Y020861D01*
X128441Y020955D02*
X128977Y020955D01*
X128977Y021049D02*
X128441Y021049D01*
X128441Y021143D02*
X128977Y021143D01*
X128977Y021237D02*
X128441Y021237D01*
X128441Y021331D02*
X128977Y021331D01*
X128977Y021425D02*
X128441Y021425D01*
X128441Y021519D02*
X128977Y021519D01*
X128977Y021613D02*
X128441Y021613D01*
X129327Y021673D02*
X129327Y020861D01*
X129327Y021673D02*
X129863Y021673D01*
X129863Y020861D01*
X129327Y020861D01*
X129327Y020955D02*
X129863Y020955D01*
X129863Y021049D02*
X129327Y021049D01*
X129327Y021143D02*
X129863Y021143D01*
X129863Y021237D02*
X129327Y021237D01*
X129327Y021331D02*
X129863Y021331D01*
X129863Y021425D02*
X129327Y021425D01*
X129327Y021519D02*
X129863Y021519D01*
X129863Y021613D02*
X129327Y021613D01*
D38*
X095870Y040705D02*
X095870Y041590D01*
X093670Y041590D02*
X093670Y040705D01*
X091470Y040705D02*
X091470Y041590D01*
X036027Y041590D02*
X036027Y040705D01*
X033827Y040705D02*
X033827Y041590D01*
X031627Y041590D02*
X031627Y040705D01*
D39*
X033827Y048748D03*
X093670Y048748D03*
D40*
X119687Y048747D03*
X119712Y055897D03*
X059870Y055897D03*
X059845Y048747D03*
D41*
X062798Y048747D03*
X062823Y055897D03*
X122640Y048747D03*
X122665Y055897D03*
D42*
X122214Y060797D02*
X123214Y060797D01*
X123214Y062765D02*
X122214Y062765D01*
X122214Y040309D02*
X123214Y040309D01*
X123214Y038340D02*
X122214Y038340D01*
X122214Y036372D02*
X123214Y036372D01*
X063371Y036372D02*
X062371Y036372D01*
X062371Y038340D02*
X063371Y038340D01*
X063371Y040309D02*
X062371Y040309D01*
X062371Y060797D02*
X063371Y060797D01*
X063371Y062765D02*
X062371Y062765D01*
X008328Y027843D02*
X007328Y027843D01*
X007328Y025874D02*
X008328Y025874D01*
X008328Y023906D02*
X007328Y023906D01*
X007328Y021937D02*
X008328Y021937D01*
X008328Y019969D02*
X007328Y019969D01*
D43*
X012821Y006847D03*
X012821Y009847D03*
X052746Y051847D03*
X112589Y051847D03*
D44*
X110589Y051847D03*
X050746Y051847D03*
D45*
X058185Y050184D03*
X063107Y050184D03*
X063107Y042310D03*
X058185Y042310D03*
X014370Y025790D03*
X012420Y025790D03*
X011672Y021853D03*
X013622Y021853D03*
X013321Y017787D03*
X009384Y017787D03*
X039047Y011812D03*
X118028Y042310D03*
X122949Y042310D03*
X122949Y050184D03*
X118028Y050184D03*
D46*
X041047Y011812D03*
X028742Y014976D03*
X027821Y016147D03*
X025821Y016147D03*
X021821Y016147D03*
X019821Y016147D03*
X018900Y014976D03*
X018900Y024818D03*
X020868Y024818D03*
X021853Y024818D03*
X021821Y026147D03*
X019821Y026147D03*
X023821Y024818D03*
X025790Y024818D03*
X026774Y024818D03*
X028742Y024818D03*
X027821Y026147D03*
X025821Y026147D03*
D47*
X014006Y014292D03*
X014006Y011986D03*
X008006Y011986D03*
X008006Y014292D03*
D48*
X022046Y011734D02*
X022046Y010909D01*
X024196Y010909D02*
X024196Y011734D01*
X026346Y011734D02*
X026346Y010909D01*
X026346Y008034D02*
X026346Y007209D01*
X024196Y007209D02*
X024196Y008034D01*
X022046Y008034D02*
X022046Y007209D01*
D49*
X015896Y007322D03*
X015896Y009322D03*
D50*
X019221Y008847D03*
X029221Y008847D03*
D51*
X028904Y029398D03*
X027920Y029398D03*
X027920Y030658D03*
X028904Y030658D03*
D52*
X030782Y029595D03*
X026042Y029595D03*
D53*
X021576Y031052D03*
X015375Y031052D03*
D54*
X014921Y035922D03*
X014921Y036297D03*
X014921Y036672D03*
X014496Y036672D03*
X014496Y036297D03*
X014496Y035922D03*
X018221Y035922D03*
X018221Y036297D03*
X018221Y036672D03*
X018646Y036672D03*
X018646Y036297D03*
X018646Y035922D03*
X021496Y037347D03*
X021496Y037772D03*
X021496Y038197D03*
X021921Y038197D03*
X022346Y038197D03*
X022346Y037772D03*
X021921Y037772D03*
X021921Y037347D03*
X022346Y037347D03*
X026696Y037347D03*
X026696Y037772D03*
X026696Y038197D03*
X027121Y038197D03*
X027546Y038197D03*
X027546Y037772D03*
X027121Y037772D03*
X027121Y037347D03*
X027546Y037347D03*
X037246Y041572D03*
X037246Y041997D03*
X037246Y042422D03*
X037671Y042422D03*
X038096Y042422D03*
X038096Y041997D03*
X037671Y041997D03*
X037671Y041572D03*
X038096Y041572D03*
X043146Y037672D03*
X043546Y037672D03*
X043546Y037272D03*
X043146Y037272D03*
X043546Y047947D03*
X043946Y047947D03*
X044346Y047947D03*
X044346Y048372D03*
X043946Y048372D03*
X043546Y048372D03*
X043546Y048797D03*
X043946Y048797D03*
X044346Y048797D03*
X074339Y036672D03*
X074339Y036297D03*
X074339Y035922D03*
X074764Y035922D03*
X074764Y036297D03*
X074764Y036672D03*
X078064Y036672D03*
X078064Y036297D03*
X078064Y035922D03*
X078489Y035922D03*
X078489Y036297D03*
X078489Y036672D03*
X081339Y037347D03*
X081764Y037347D03*
X082189Y037347D03*
X082189Y037772D03*
X082189Y038197D03*
X081764Y038197D03*
X081764Y037772D03*
X081339Y037772D03*
X081339Y038197D03*
X086539Y038197D03*
X086964Y038197D03*
X087389Y038197D03*
X087389Y037772D03*
X087389Y037347D03*
X086964Y037347D03*
X086964Y037772D03*
X086539Y037772D03*
X086539Y037347D03*
X097089Y041572D03*
X097514Y041572D03*
X097939Y041572D03*
X097939Y041997D03*
X097939Y042422D03*
X097514Y042422D03*
X097514Y041997D03*
X097089Y041997D03*
X097089Y042422D03*
X102989Y037672D03*
X103389Y037672D03*
X103389Y037272D03*
X102989Y037272D03*
X103389Y047947D03*
X103789Y047947D03*
X104189Y047947D03*
X104189Y048372D03*
X103789Y048372D03*
X103389Y048372D03*
X103389Y048797D03*
X103789Y048797D03*
X104189Y048797D03*
D55*
X114142Y036543D03*
X070048Y036543D03*
X054299Y036543D03*
X023788Y030637D03*
X010205Y036543D03*
X010205Y062527D03*
X049575Y062527D03*
X070048Y062527D03*
X109418Y062527D03*
D56*
X043866Y032606D03*
X007646Y032606D03*
X007646Y007803D03*
X043866Y007803D03*
D57*
X007521Y015997D03*
X007521Y017747D03*
X014021Y032647D03*
D58*
X039171Y005747D03*
X041171Y005747D03*
M02*
