%
M48
M72
T01C0.0197
T02C0.0236
T03C0.0276
T04C0.0315
T05C0.0320
T06C0.0354
T07C0.0360
T08C0.0394
T09C0.0400
T10C0.0433
T11C0.0472
T12C0.0512
T13C0.0531
T14C0.0550
T15C0.0551
T16C0.0590
T17C0.0591
T18C0.0630
T19C0.0710
T20C0.0787
T21C0.0866
T22C0.0906
T23C0.1102
T24C0.1181
T25C0.1260
T26C0.2165
T27C0.2559
%
T01
X115179Y22928
X115730Y22928
T02
X117179Y22653
X116249Y21553
X116604Y21178
X116229Y20803
X117229Y20403
X117954Y20653
X118679Y21003
X119704Y21528
X120549Y21353
X120974Y21703
X121579Y22253
X121079Y22478
X122304Y22028
X123079Y21078
X121654Y20728
X121654Y19678
X119829Y19903
X119154Y19203
X118554Y18753
X118179Y18378
X117804Y18878
X117554Y19603
X115979Y18828
X115129Y19028
X112824Y18828
X111774Y19028
X111024Y19853
X109404Y20303
X109624Y20803
X108154Y21303
X108029Y22003
X108849Y22828
X109224Y23178
X109354Y22528
X111024Y22503
X111599Y22803
X111674Y23403
X106429Y22953
X105874Y22953
X105679Y21853
X106429Y21928
X106429Y21403
X106829Y21053
X106279Y20278
X108029Y19853
X108754Y18878
X106799Y18653
X106279Y18878
X105929Y18428
X105254Y18903
X104829Y18203
X104204Y18203
X103254Y18203
X103904Y17453
X105229Y17128
X105229Y16353
X106404Y15878
X105824Y14728
X105949Y13978
X103479Y13903
X103649Y15378
X100499Y15928
X98124Y16153
X97074Y16353
X96774Y15928
X96324Y16253
X94574Y16553
X93924Y15203
X92299Y15078
X91074Y14903
X91074Y13903
X89974Y13978
X88924Y14478
X88274Y15128
X88724Y15578
X89049Y16003
X87899Y17128
X88199Y17803
X89274Y17578
X89524Y18728
X90349Y18078
X91074Y17903
X91074Y16903
X92874Y17578
X92249Y19228
X90449Y19278
X88524Y19378
X87899Y20453
X87499Y20103
X86699Y19353
X84099Y19378
X82399Y19353
X79099Y19353
X79249Y21028
X78874Y22303
X80574Y22178
X81199Y22378
X81674Y22953
X81824Y21928
X79924Y23203
X79099Y23178
X76749Y24728
X76149Y23178
X74474Y24953
X74049Y25428
X71674Y26078
X71099Y26353
X72174Y27053
X73824Y27503
X74749Y27503
X75199Y28178
X74349Y28828
X73824Y28828
X73074Y28903
X72724Y29278
X72074Y29878
X71074Y29878
X70074Y29878
X69074Y29878
X68599Y29578
X68074Y29878
X67074Y29878
X66399Y29303
X65674Y29478
X65449Y29003
X64449Y29003
X63449Y29003
X62449Y29003
X61449Y29003
X60449Y29003
X59449Y29003
X59149Y29428
X58199Y29003
X57199Y29003
X56199Y29003
X55574Y29278
X55074Y29003
X54249Y28578
X54624Y27978
X52924Y27978
X52299Y28653
X51299Y28653
X50299Y28653
X50949Y26628
X51299Y26253
X51674Y25903
X52049Y25553
X52399Y25178
X52924Y25303
X51374Y24078
X51274Y23178
X53299Y22953
X53824Y23553
X54574Y23628
X56724Y23628
X59924Y24303
X60924Y24303
X61924Y24303
X62924Y24303
X63724Y24303
X64624Y24303
X65524Y24303
X67249Y24228
X69299Y24653
X69699Y24228
X71099Y24753
X67124Y26278
X66574Y25928
X65524Y26278
X65524Y25278
X63324Y25803
X61999Y26503
X61074Y27978
X59199Y27978
X58049Y25628
X58824Y25303
X56149Y25303
X49649Y25053
X49649Y25553
X44974Y23778
X43099Y24528
X41749Y24528
X35724Y23078
X39024Y21778
X39399Y21778
X40449Y21453
X41124Y20603
X40624Y19553
X36299Y20303
X32374Y21128
X32374Y23003
X26774Y24578
X20524Y25778
X18049Y26278
X13349Y25928
X18049Y29253
X18774Y29828
X15049Y29553
X23624Y29478
X24974Y29303
X23624Y28703
X34774Y26753
X35324Y26953
X35499Y27703
X36074Y27178
X42674Y30153
X43099Y30153
X43524Y30153
X43949Y30153
X44374Y30153
X44374Y31553
X43949Y31553
X43524Y31553
X43099Y31553
X42674Y31553
X43269Y33603
X41419Y35778
X41044Y35778
X34319Y37378
X32915Y35724
X31319Y35953
X31319Y37528
X27944Y38628
X27444Y38628
X27444Y39128
X27944Y39128
X27944Y39628
X27444Y39628
X27444Y40128
X27944Y40128
X27944Y40628
X27444Y40628
X27444Y41128
X27944Y41128
X31844Y42253
X33169Y43428
X34769Y43428
X31219Y44178
X30244Y44978
X29494Y44403
X28619Y44753
X30844Y45928
X31644Y45953
X33194Y45328
X31644Y47178
X29594Y48503
X30244Y48978
X31644Y48753
X33194Y49403
X37169Y51128
X37869Y51803
X39069Y51303
X39069Y52303
X37844Y52728
X36994Y53103
X39069Y53303
X39069Y54303
X37594Y54603
X37394Y55403
X35844Y55403
X34669Y54903
X34869Y53103
X33994Y51828
X32169Y53528
X31094Y53528
X28844Y52528
X28244Y52528
X27919Y53128
X27819Y53953
X28494Y53878
X27344Y54678
X26544Y54503
X25819Y54528
X25119Y54503
X24344Y54503
X23569Y54503
X22794Y54528
X22019Y54503
X21269Y54353
X20144Y54203
X18969Y54503
X17769Y55353
X18144Y55703
X17994Y56228
X19069Y57228
X17144Y57628
X16094Y57253
X15569Y57128
X16294Y56403
X14419Y55878
X14394Y57028
X13344Y57803
X14919Y58603
X14569Y59253
X15469Y60253
X15469Y60753
X16819Y60303
X18394Y58853
X20219Y60228
X19919Y60753
X20669Y60978
X21344Y60603
X22469Y59478
X21544Y59053
X21344Y58553
X21919Y57753
X23719Y58353
X24244Y57803
X24769Y57803
X25319Y57178
X25069Y56628
X24494Y56003
X26019Y56378
X26619Y57028
X26594Y58328
X27369Y59003
X27669Y59853
X26344Y59578
X25994Y59978
X25119Y59778
X25469Y59003
X30419Y57578
X31069Y58403
X33369Y58528
X34544Y58553
X37494Y59828
X39069Y60303
X38594Y60978
X41769Y59828
X41494Y58178
X41294Y57653
X42769Y57678
X45494Y58853
X44494Y59878
X47269Y59003
X47719Y59403
X50769Y60003
X49394Y61353
X52894Y58478
X54219Y57828
X54219Y57403
X54219Y56978
X54219Y56553
X54644Y56553
X55069Y56553
X55494Y56553
X55919Y56553
X55919Y56978
X55494Y56978
X55069Y56978
X54644Y56978
X54644Y57403
X55069Y57403
X55494Y57403
X55919Y57403
X55919Y57828
X55494Y57828
X55069Y57828
X54644Y57828
X51594Y57228
X51594Y56778
X51594Y56328
X51594Y55878
X51594Y55428
X51594Y54978
X51594Y54528
X51594Y54078
X51119Y54078
X51119Y54528
X51119Y54978
X51119Y55428
X51119Y55878
X51119Y56328
X51119Y56778
X51119Y57228
X51119Y57678
X45894Y57728
X41969Y56078
X41969Y55678
X41569Y55678
X41569Y56078
X40769Y55153
X39069Y55303
X39069Y56303
X39069Y57303
X39069Y58303
X39069Y59303
X33644Y60503
X31794Y60178
X32169Y56578
X29094Y56153
X29119Y54978
X28169Y55278
X25069Y53178
X20094Y55628
X18144Y53678
X18094Y52878
X16994Y52528
X16244Y52503
X15294Y52628
X17569Y51578
X17344Y50253
X18469Y50253
X18894Y49628
X18894Y48603
X19894Y47678
X19044Y46678
X20619Y45778
X21119Y45778
X21719Y45328
X23194Y44353
X23194Y43878
X23194Y43403
X23194Y42928
X23194Y42453
X23669Y42453
X23669Y42928
X23669Y43403
X23669Y43878
X23669Y44353
X24694Y45978
X27044Y47178
X28844Y47678
X28444Y48203
X27569Y48928
X27044Y48903
X26319Y48203
X22819Y48503
X22819Y50428
X24844Y50428
X25794Y50028
X15969Y50253
X14719Y49828
X13669Y49478
X12144Y49328
X10919Y50778
X11119Y52203
X9044Y52203
X8344Y53103
X7644Y55178
X6144Y55153
X9719Y55728
X10969Y55328
X8969Y57228
X9344Y58178
X11569Y60103
X14419Y54528
X9269Y49628
X9269Y47828
X10894Y47828
X13144Y48053
X14044Y47003
X14819Y47453
X15394Y47178
X13119Y46703
X13794Y46003
X12969Y45203
X14044Y44478
X14469Y44053
X14494Y43303
X14694Y42478
X15694Y44453
X18094Y44653
X19244Y44203
X20844Y43503
X21094Y42728
X21093Y41979
X19894Y41503
X19244Y42453
X20644Y39378
X14468Y38204
X13194Y37103
X12769Y36403
X12119Y39903
X13718Y39904
X10144Y42353
X9244Y42903
X5819Y40853
X5819Y40428
X4669Y40428
X4669Y40853
X11594Y45203
X16744Y46153
X39069Y50303
X41719Y51803
X43544Y51903
X43544Y52903
X44544Y52903
X45544Y52903
X46544Y52903
X46744Y51428
X48744Y50778
X49444Y50353
X49284Y49003
X49284Y48603
X49684Y48603
X49684Y49003
X50409Y48978
X50809Y48978
X48884Y49003
X48884Y48603
X48484Y48603
X48084Y48603
X48084Y49003
X48484Y49003
X45394Y49453
X43544Y50903
X42269Y53153
X44344Y53878
X48544Y52903
X50544Y52903
X52544Y52903
X52794Y52003
X54244Y52078
X54669Y52078
X55094Y52078
X55519Y52078
X55944Y52078
X55944Y52503
X55519Y52503
X55094Y52503
X54669Y52503
X54244Y52503
X54244Y52928
X54669Y52928
X55094Y52928
X55519Y52928
X55944Y52928
X55944Y53353
X55519Y53353
X55094Y53353
X54669Y53353
X54244Y53353
X58844Y53403
X58844Y52978
X58844Y52553
X58844Y52128
X59269Y52128
X59694Y52128
X60119Y52128
X60544Y52128
X60544Y52553
X60119Y52553
X59694Y52553
X59269Y52553
X59269Y52978
X59694Y52978
X60119Y52978
X60544Y52978
X60544Y53403
X60119Y53403
X59694Y53403
X59269Y53403
X59269Y56553
X59694Y56553
X60119Y56553
X60544Y56553
X60544Y56978
X60119Y56978
X59694Y56978
X59269Y56978
X58844Y56978
X58844Y56553
X58844Y57403
X59269Y57403
X59694Y57403
X60119Y57403
X60544Y57403
X60544Y57828
X60119Y57828
X59694Y57828
X59269Y57828
X58844Y57828
X71892Y55153
X73392Y55178
X75467Y55728
X76717Y55328
X80167Y55878
X82042Y56403
X81842Y57253
X81317Y57128
X80142Y57028
X79092Y57803
X80667Y58603
X80317Y59253
X81217Y60253
X81217Y60753
X82567Y60303
X84142Y58853
X82892Y57628
X84817Y57228
X83742Y56228
X83892Y55703
X83517Y55353
X84717Y54503
X85892Y54203
X87017Y54353
X87767Y54503
X88542Y54528
X89317Y54503
X90092Y54503
X90867Y54503
X91567Y54528
X92292Y54503
X93092Y54678
X93567Y53953
X94242Y53878
X93667Y53128
X93992Y52528
X94592Y52528
X96842Y53528
X97917Y53528
X99742Y51828
X100617Y53103
X102742Y53103
X103592Y52728
X104817Y52303
X104817Y51303
X103617Y51803
X102917Y51128
X104817Y50303
X107467Y51803
X109292Y51903
X109292Y52903
X110292Y52903
X111292Y52903
X112292Y52903
X114292Y52903
X116292Y52903
X118292Y52903
X118542Y52003
X119992Y52078
X120417Y52078
X120842Y52078
X121267Y52078
X121692Y52078
X121692Y52503
X121267Y52503
X120842Y52503
X120417Y52503
X119992Y52503
X119992Y52928
X120417Y52928
X120842Y52928
X121267Y52928
X121692Y52928
X121692Y53353
X121267Y53353
X120842Y53353
X120417Y53353
X119992Y53353
X117342Y54078
X117342Y54528
X117342Y54978
X117342Y55428
X117342Y55878
X117342Y56328
X117342Y56778
X117342Y57228
X116867Y57228
X116867Y56778
X116867Y56328
X116867Y55878
X116867Y55428
X116867Y54978
X116867Y54528
X116867Y54078
X119967Y56553
X120392Y56553
X120817Y56553
X121242Y56553
X121667Y56553
X121667Y56978
X121242Y56978
X120817Y56978
X120392Y56978
X119967Y56978
X119967Y57403
X120392Y57403
X120817Y57403
X121242Y57403
X121667Y57403
X121667Y57828
X121242Y57828
X120817Y57828
X120392Y57828
X119967Y57828
X118642Y58478
X116867Y57678
X113467Y59403
X113017Y59003
X111242Y58853
X110242Y59878
X107517Y59828
X107242Y58178
X107042Y57653
X108517Y57678
X111642Y57728
X107717Y56078
X107717Y55678
X107317Y55678
X107317Y56078
X106517Y55153
X104817Y55303
X103342Y54603
X103142Y55403
X101592Y55403
X100417Y54903
X97917Y56578
X96167Y57578
X96817Y58403
X99117Y58528
X100292Y58553
X103242Y59828
X104817Y60303
X104342Y60978
X104817Y59303
X104817Y58303
X104817Y57303
X104817Y56303
X104817Y54303
X104817Y53303
X108017Y53153
X110092Y53878
X112492Y51428
X114492Y50778
X115192Y50353
X115032Y49003
X115032Y48603
X115432Y48603
X115432Y49003
X116157Y48978
X116557Y48978
X114632Y49003
X114632Y48603
X114232Y48603
X113832Y48603
X113832Y49003
X114232Y49003
X111142Y49453
X109292Y50903
X107792Y46353
X106342Y45153
X107792Y44903
X105317Y43478
X100517Y43428
X98917Y43428
X96967Y44178
X95242Y44403
X94367Y44753
X95992Y44978
X96592Y45928
X97392Y45953
X98942Y45328
X97392Y47178
X95342Y48503
X95992Y48978
X97392Y48753
X98942Y49403
X94592Y47678
X94192Y48203
X93317Y48928
X92792Y48903
X92067Y48203
X92792Y47178
X90442Y45978
X89417Y44353
X89417Y43878
X89417Y43403
X89417Y42928
X89417Y42453
X88942Y42453
X88942Y42928
X88942Y43403
X88942Y43878
X88942Y44353
X87467Y45328
X86867Y45778
X86367Y45778
X84792Y46678
X82492Y46153
X81142Y47178
X80567Y47453
X79792Y47003
X78867Y46703
X79542Y46003
X78717Y45203
X79792Y44478
X80217Y44053
X80242Y43303
X80442Y42478
X81442Y44453
X83842Y44653
X84992Y44203
X86592Y43503
X86842Y42728
X86841Y41979
X85642Y41503
X84992Y42453
X86392Y39378
X80216Y38204
X78942Y37103
X78517Y36403
X77867Y39903
X79466Y39904
X75892Y42353
X74992Y42903
X71567Y40853
X71567Y40428
X70417Y40428
X70417Y40853
X62394Y43853
X63984Y44753
X63984Y45128
X63984Y45503
X63984Y45878
X60584Y44228
X60209Y44228
X56144Y44203
X56144Y43828
X55744Y43828
X55744Y44203
X55344Y44203
X55344Y43828
X54944Y43828
X54944Y44203
X54544Y44203
X54544Y43828
X54144Y43828
X54144Y44203
X53744Y44203
X53744Y43828
X53344Y43828
X53344Y44203
X52944Y44203
X52944Y43828
X52544Y43828
X52544Y44203
X53319Y43403
X53719Y43003
X54119Y42603
X54519Y42203
X54894Y41803
X54519Y41403
X54894Y41003
X55294Y41403
X55294Y42203
X54894Y42603
X54519Y43003
X54894Y43403
X55294Y43003
X54119Y43403
X53319Y42603
X53719Y42203
X54119Y41803
X53719Y41403
X54119Y41003
X53319Y41003
X52919Y41403
X53319Y41803
X52919Y42203
X52919Y43003
X49669Y41218
X49669Y40818
X49669Y40418
X49269Y40418
X48869Y40418
X48469Y40418
X48469Y40818
X48869Y40818
X49269Y40818
X49269Y41218
X48869Y41218
X48469Y41218
X51794Y39853
X51794Y39453
X51794Y39078
X51794Y38678
X51794Y38278
X52194Y39853
X52569Y39853
X52969Y39853
X53344Y39853
X53744Y39853
X54119Y39853
X54119Y39453
X54119Y39053
X54119Y38653
X54119Y38253
X54519Y38253
X54519Y38653
X54519Y39053
X54519Y39453
X54519Y39853
X44669Y38728
X39569Y43478
X42044Y44903
X40594Y45153
X39844Y46753
X42044Y46353
X48944Y46003
X49544Y45553
X75017Y47828
X76642Y47828
X78892Y48053
X79417Y49478
X80467Y49828
X81717Y50253
X83092Y50253
X84217Y50253
X84642Y49628
X84642Y48603
X85642Y47678
X88567Y48503
X88567Y50428
X90592Y50428
X91542Y50028
X90817Y53178
X93917Y55278
X94867Y54978
X94842Y56153
X92367Y57028
X91767Y56378
X90817Y56628
X91067Y57178
X90517Y57803
X89992Y57803
X89467Y58353
X91217Y59003
X90867Y59778
X91742Y59978
X92092Y59578
X93117Y59003
X93417Y59853
X92342Y58328
X88217Y59478
X87292Y59053
X87092Y58553
X87667Y57753
X85842Y55628
X90242Y56003
X83892Y53678
X83842Y52878
X82742Y52528
X81992Y52503
X81042Y52628
X83317Y51578
X77892Y49328
X76667Y50778
X76867Y52203
X74792Y52203
X74092Y53103
X80167Y54528
X74717Y57228
X75092Y58178
X77317Y60103
X85667Y60753
X85967Y60228
X86417Y60978
X87092Y60603
X97542Y60178
X99392Y60503
X115142Y61353
X116517Y60003
X124592Y57828
X124592Y57403
X124592Y56978
X124592Y56553
X125017Y56553
X125442Y56553
X125867Y56553
X126292Y56553
X126292Y56978
X125867Y56978
X125442Y56978
X125017Y56978
X125017Y57403
X125442Y57403
X125867Y57403
X126292Y57403
X126292Y57828
X125867Y57828
X125442Y57828
X125017Y57828
X125017Y53403
X125017Y52978
X125017Y52553
X125017Y52128
X125442Y52128
X125867Y52128
X126292Y52128
X126292Y52553
X125867Y52553
X125442Y52553
X125442Y52978
X125867Y52978
X126292Y52978
X126292Y53403
X125867Y53403
X125442Y53403
X124592Y53403
X124592Y52978
X124592Y52553
X124592Y52128
X129732Y45878
X129732Y45503
X129732Y45128
X129732Y44753
X128142Y43853
X126332Y44228
X125957Y44228
X121892Y44203
X121892Y43828
X121492Y43828
X121492Y44203
X121092Y44203
X121092Y43828
X120692Y43828
X120692Y44203
X120292Y44203
X120292Y43828
X119892Y43828
X119892Y44203
X119492Y44203
X119492Y43828
X119092Y43828
X119092Y44203
X118692Y44203
X118692Y43828
X118292Y43828
X118292Y44203
X119067Y43403
X119467Y43003
X119867Y42603
X120267Y42203
X120642Y41803
X120267Y41403
X120642Y41003
X121042Y41403
X121042Y42203
X120642Y42603
X120267Y43003
X120642Y43403
X121042Y43003
X119867Y43403
X119067Y42603
X119467Y42203
X119867Y41803
X119467Y41403
X119867Y41003
X119067Y41003
X118667Y41403
X119067Y41803
X118667Y42203
X118667Y43003
X115417Y41218
X115417Y40818
X115417Y40418
X115017Y40418
X114617Y40418
X114217Y40418
X114217Y40818
X114617Y40818
X115017Y40818
X115017Y41218
X114617Y41218
X114217Y41218
X117542Y39853
X117542Y39453
X117542Y39078
X117542Y38678
X117542Y38278
X117942Y39853
X118317Y39853
X118717Y39853
X119092Y39853
X119492Y39853
X119867Y39853
X119867Y39453
X119867Y39053
X119867Y38653
X119867Y38253
X120267Y38253
X120267Y38653
X120267Y39053
X120267Y39453
X120267Y39853
X110417Y38728
X107167Y35778
X106792Y35778
X109017Y33603
X113054Y31453
X112199Y30003
X114554Y29728
X114554Y28628
X116004Y28378
X116624Y29653
X118029Y28578
X119504Y28828
X120479Y28878
X121754Y29653
X122254Y29078
X122629Y29428
X123654Y29878
X123204Y30803
X121654Y31453
X121054Y30028
X124054Y28228
X124579Y27728
X125379Y27203
X126354Y27403
X127629Y27178
X127854Y27728
X128804Y26978
X127829Y26328
X127454Y25878
X127104Y25478
X127079Y24953
X125804Y24703
X124779Y24278
X122879Y24303
X122529Y23878
X121954Y23878
X121374Y24603
X120629Y24553
X121304Y25728
X119179Y26678
X118079Y26303
X116274Y26978
X114554Y26778
X112954Y26303
X111254Y26678
X109824Y25703
X108349Y26828
X106899Y27228
X105874Y26828
X105399Y27428
X103449Y27028
X102674Y27428
X100699Y27678
X100699Y28678
X99974Y29278
X99574Y29628
X99199Y29978
X98699Y30178
X98504Y30678
X98124Y31253
X97499Y31653
X96274Y30678
X94549Y30878
X92574Y30478
X93849Y29553
X93374Y29003
X92999Y28628
X92224Y28403
X92149Y27703
X92674Y27653
X92674Y27153
X91999Y26028
X91999Y24578
X92574Y24028
X93749Y22853
X95049Y22678
X96049Y22853
X97449Y23553
X98124Y24103
X98124Y25103
X98124Y26103
X97449Y26153
X96374Y25953
X95874Y25453
X93954Y25578
X95279Y23753
X98124Y22228
X98124Y21303
X100499Y20753
X101379Y21678
X102679Y21028
X103254Y21503
X103979Y22103
X103679Y22553
X102804Y22703
X102954Y23253
X101404Y23678
X101404Y22703
X104554Y22953
X104579Y21978
X104204Y20303
X104679Y20078
X103254Y20303
X102729Y19828
X100229Y18253
X98124Y17703
X95349Y19153
X94924Y18478
X96049Y19653
X94324Y20203
X94749Y20853
X94949Y21753
X93549Y20853
X91999Y22453
X90449Y22178
X88524Y22903
X87949Y23328
X88399Y24103
X88999Y23828
X90449Y23178
X87749Y21953
X90449Y21178
X90449Y20178
X84799Y22003
X84799Y23503
X85899Y24728
X84949Y25253
X85549Y25778
X85349Y26353
X85874Y26603
X86999Y26603
X86899Y25828
X89099Y26103
X90474Y27703
X91174Y28278
X89024Y28903
X88149Y29853
X87124Y29678
X85999Y29853
X85474Y29653
X83849Y29878
X82849Y29878
X81849Y29878
X80849Y29878
X79849Y29878
X78849Y29878
X78299Y29828
X77799Y29678
X76799Y29678
X75799Y29678
X74824Y29678
X73699Y31053
X73174Y31053
X69249Y29228
X69949Y28478
X67849Y27878
X65524Y27978
X63049Y30253
X61499Y30353
X59849Y30203
X58449Y30928
X58049Y30553
X56049Y31003
X57049Y31628
X54349Y30928
X53749Y30453
X44649Y27853
X44274Y27853
X53474Y20628
X58049Y19153
X58574Y19403
X58949Y19778
X58949Y21153
X63574Y17753
X58049Y17128
X54049Y17253
X53074Y17628
X53799Y15903
X54274Y15028
X54849Y15128
X55049Y14603
X54624Y14303
X55499Y14228
X55849Y13853
X56374Y13853
X56974Y13403
X58974Y13078
X58974Y11528
X57674Y11528
X56799Y11528
X55799Y11528
X54799Y11528
X53799Y11528
X53799Y12478
X53799Y13403
X53099Y10303
X64799Y11278
X69574Y12028
X70199Y11428
X70631Y9653
X69831Y8153
X69156Y7203
X71006Y4403
X70206Y4053
X68706Y4078
X77156Y9828
X80224Y10553
X79449Y11928
X80874Y12428
X83374Y12728
X83399Y13403
X84949Y14103
X86099Y13728
X88824Y12728
X88724Y11903
X89824Y12728
X90824Y12728
X91824Y12728
X92574Y12953
X93649Y13103
X94224Y12303
X94649Y11803
X93649Y11803
X95649Y11803
X96649Y11803
X98149Y11803
X99149Y11803
X100149Y11803
X101149Y11803
X100049Y10703
X102554Y9653
X102254Y9203
X101754Y8528
X100504Y8828
X100529Y7578
X101779Y7478
X103254Y7503
X103254Y8503
X104504Y7903
X105904Y6903
X106904Y7478
X108629Y6903
X108729Y6353
X110404Y7028
X108804Y8378
X109079Y8828
X108296Y8545
X108304Y9378
X107779Y9403
X107054Y9653
X108604Y10503
X107529Y10753
X110404Y10853
X111024Y13103
X111549Y13878
X111024Y14253
X109899Y13903
X108504Y13978
X108504Y14728
X109899Y15228
X110424Y16528
X111549Y16628
X112824Y16628
X112824Y15353
X115274Y15203
X115799Y15203
X116929Y15803
X117204Y15078
X118679Y15003
X120879Y14803
X121399Y13703
X120399Y13528
X119379Y13503
X120149Y11903
X120154Y11353
X119049Y11328
X116554Y11578
X113899Y11328
X117354Y13503
X116199Y14203
X115679Y14253
X115504Y16453
X116304Y16503
X115954Y17228
X121049Y17953
X121654Y17978
X125424Y16778
X126199Y17028
X126349Y16478
X126699Y16103
X125724Y15728
X125174Y15853
X124779Y14828
X126729Y14253
X127199Y13178
X126149Y13178
X124924Y13178
X127554Y12228
X126424Y11628
X127354Y11228
X127124Y10503
X128029Y9678
X126604Y9003
X125704Y8578
X124079Y8578
X122479Y7978
X124019Y9603
X125104Y11228
X130379Y8678
X131254Y6878
X134829Y6628
X134829Y5628
X134829Y4628
X134829Y3628
X133829Y3628
X132829Y3628
X129829Y3628
X127399Y4103
X126399Y4103
X125149Y4103
X119174Y5528
X116049Y6278
X115299Y6278
X113399Y8003
X115449Y8403
X114729Y9228
X118354Y9278
X118354Y8878
X118354Y8478
X118354Y8078
X118354Y7678
X118354Y9678
X127354Y6878
X133854Y10028
X134829Y9628
X134829Y8628
X134829Y7628
X134829Y10628
X134829Y11628
X134829Y12628
X134829Y13628
X133854Y12853
X132104Y12853
X132103Y12027
X131524Y10703
X134829Y14628
X134829Y15628
X133854Y15648
X133354Y15653
X132279Y16178
X131524Y15728
X131849Y15303
X131254Y16703
X132499Y17253
X133829Y17278
X134829Y16628
X132024Y18278
X131254Y18703
X131254Y19703
X132624Y19453
X133654Y21253
X133549Y23053
X132524Y23178
X132574Y23778
X133054Y24303
X133454Y24303
X133454Y24703
X133054Y24703
X132574Y25378
X133899Y25353
X134399Y26203
X131254Y25703
X130354Y25628
X131254Y24703
X129254Y24803
X128729Y24578
X128204Y25778
X125554Y26103
X123354Y27653
X126279Y29253
X130404Y28578
X131649Y28703
X134829Y28628
X134829Y27628
X134829Y29628
X133404Y31278
X132404Y31278
X131404Y31278
X130404Y31278
X131254Y23703
X131254Y22703
X126479Y20278
X127454Y19728
X126249Y18753
X125179Y19903
X125229Y20728
X126024Y18003
X127099Y17903
X127624Y17753
X109274Y16953
X108454Y17128
X105949Y13103
X102199Y13103
X98674Y14453
X98124Y14803
X97274Y15228
X97974Y13703
X97624Y13103
X92874Y14078
X91074Y15903
X98124Y19403
X98124Y20403
X100699Y24703
X100699Y25678
X100699Y26703
X99399Y27453
X98124Y27203
X96874Y27203
X97449Y28353
X98124Y28153
X97899Y29053
X98674Y29278
X100699Y29703
X102649Y29378
X103449Y29003
X102704Y28328
X105554Y29003
X103949Y30478
X103449Y30478
X104649Y30728
X103449Y31253
X100124Y31253
X99124Y31253
X98663Y35724
X97067Y35953
X100067Y37378
X97067Y37528
X93692Y38628
X93192Y38628
X93192Y39128
X93692Y39128
X93692Y39628
X93192Y39628
X93192Y40128
X93692Y40128
X93692Y40628
X93192Y40628
X93192Y41128
X93692Y41128
X97592Y42253
X105592Y46753
X114692Y46003
X115292Y45553
X88992Y34978
X88567Y34978
X88567Y33878
X88992Y33878
X76749Y28353
X80424Y27903
X83149Y26403
X82549Y26003
X84349Y25978
X83374Y24728
X86274Y27703
X102699Y25678
X103449Y25303
X105874Y25303
X106429Y25278
X112429Y28153
X112954Y28153
X110054Y29778
X108379Y29003
X107824Y29378
X82874Y15653
X79874Y14878
X79449Y13778
X73749Y11403
X84474Y10728
X86699Y9153
X86749Y7353
X86749Y5928
X84224Y6678
X82731Y4478
X87324Y4103
X96799Y4153
X96799Y5153
X96799Y6153
X96799Y7153
X96799Y8153
X96799Y9153
X96799Y10153
X91399Y10053
X88724Y10903
X101104Y5528
X101879Y5878
X103504Y6028
X103554Y4153
X102179Y4153
X101504Y4278
X99179Y4378
X104929Y4153
X106554Y4153
X107879Y4153
X108429Y3953
X107954Y4928
X108229Y5453
X109004Y5078
X111474Y3953
X112499Y4103
X113424Y4128
X114424Y4128
X112724Y5403
X104979Y8978
X103979Y9653
X103254Y10603
X102754Y10253
X66124Y21278
X34899Y13103
X33149Y13103
X29399Y13928
X29399Y14328
X31949Y15853
X33099Y15853
X34199Y15378
X33349Y17753
X30074Y8678
X30074Y6953
X28824Y5903
X9774Y6603
X9774Y6978
X22819Y33878
X23244Y33878
X23244Y34978
X22819Y34978
X75017Y49628
X77342Y45203
T03
X71167Y40853
X70792Y40853
X70792Y40428
X71167Y40428
X87692Y36078
X87692Y35678
X88567Y34603
X88567Y34228
X88992Y34228
X88992Y34603
X89317Y35678
X89317Y36078
X111467Y35678
X111467Y35278
X111892Y35278
X111892Y35678
X112342Y45953
X112742Y45953
X113142Y45953
X113142Y46378
X112742Y46378
X112342Y46378
X112342Y46803
X112742Y46803
X113142Y46803
X47394Y46803
X46994Y46803
X46594Y46803
X46594Y46378
X46994Y46378
X47394Y46378
X47394Y45953
X46994Y45953
X46594Y45953
X46144Y35678
X46144Y35278
X45719Y35278
X45719Y35678
X23569Y35678
X23569Y36078
X21944Y36078
X21944Y35678
X22819Y34603
X22819Y34228
X23244Y34228
X23244Y34603
X5419Y40428
X5044Y40428
X5044Y40853
X5419Y40853
T04
X55344Y49853
X121092Y49853
X132412Y29228
X133987Y29228
X130874Y27196
X129874Y27196
X129874Y26196
X129874Y25196
X130874Y25196
X130874Y26196
X130874Y24196
X130874Y23196
X129874Y23196
X129874Y24196
X129874Y22196
X130874Y22196
X130874Y21196
X130874Y20196
X129874Y20196
X129874Y21196
X129874Y19196
X129874Y18196
X130874Y18196
X130874Y19196
X130874Y17196
X129874Y17196
X129874Y16196
X129874Y15196
X130874Y15196
X130874Y16196
X130874Y14196
X130874Y13196
X129874Y13196
X129874Y14196
X129874Y12196
X130874Y12196
X130874Y11196
X130874Y10196
X129874Y10196
X129874Y11196
X129874Y9196
X129874Y8196
X130874Y8196
X130874Y9196
X122817Y28328
X121242Y28328
T05
X119092Y49853
X53344Y49853
T06
X13649Y29416
X13649Y28628
X13649Y27841
X19912Y27778
X20699Y27778
X21487Y27778
X23784Y27418
X24768Y27418
X24768Y26158
X23784Y26158
X51544Y18464
X52544Y18464
X53544Y18464
X54544Y18464
X55544Y18464
X56544Y18464
X57544Y18464
X58544Y18464
X58544Y16464
X57544Y16464
X56544Y16464
X55544Y16464
X54544Y16464
X53544Y16464
X52544Y16464
X51544Y16464
X80284Y16464
X81284Y16464
X82284Y16464
X83284Y16464
X84284Y16464
X85284Y16464
X86284Y16464
X87284Y16464
X87284Y18464
X86284Y18464
X85284Y18464
X84284Y18464
X83284Y18464
X82284Y18464
X81284Y18464
X80284Y18464
X101050Y18193
X102050Y18193
X102050Y19193
X101050Y19193
X101050Y20193
X102050Y20193
X102050Y21193
X101050Y21193
X101050Y22193
X102050Y22193
X102050Y23193
X101050Y23193
X101050Y24193
X102050Y24193
X102050Y25193
X101050Y25193
X101050Y26193
X102050Y26193
X102050Y27193
X101050Y27193
X101050Y28193
X102050Y28193
X102050Y29193
X101050Y29193
X101050Y30193
X102050Y30193
X102050Y31193
X101050Y31193
X105050Y31193
X106050Y31193
X107050Y31193
X108050Y31193
X109050Y31193
X110050Y31193
X111050Y31193
X112050Y31193
X114050Y31193
X115050Y31193
X116050Y31193
X117050Y31193
X118050Y31193
X119050Y31193
X120050Y31193
X121050Y31193
X122650Y31193
X123650Y31193
X124650Y31193
X125650Y31193
X126650Y31193
X127650Y31193
X128650Y31193
X129650Y31193
X114050Y23193
X113050Y23193
X113050Y22193
X114050Y22193
X114050Y21193
X102050Y17193
X101050Y17193
X101050Y16193
X101050Y15193
X102050Y15193
X102050Y16193
X102050Y14193
X101050Y14193
X103050Y12193
X104050Y12193
X105050Y12193
X106050Y12193
X107050Y12193
X108050Y12193
X109050Y12193
X110050Y12193
X112050Y12193
X113050Y12193
X114050Y12193
X115050Y12193
X116050Y12193
X117050Y12193
X118050Y12193
X119050Y12193
X121050Y12193
X122050Y12193
X123050Y12193
X124050Y12193
X125050Y12193
X126050Y12193
T07
X6974Y4053
X6974Y7053
T08
X29874Y18578
X30874Y18578
X31874Y18578
X32874Y18578
X33874Y18578
X33874Y19578
X32874Y19578
X31874Y19578
X30874Y19578
X29874Y19578
X31549Y24234
X32549Y24234
X35530Y24234
X36530Y24234
X35790Y28352
X34790Y28352
X33790Y28352
X32790Y28352
X33290Y29352
X34290Y29352
X35290Y29352
X35374Y31078
X34374Y31078
X33374Y31078
X32374Y31078
X31374Y31078
X30374Y31078
X32290Y29352
X36374Y31078
X37374Y31078
X23974Y31078
X22974Y31078
X21974Y31078
X20974Y31078
X19974Y31078
X16599Y31078
X15599Y31078
X14599Y31078
X13599Y31078
X12599Y31078
X7651Y41594
X6651Y41594
X6651Y42594
X7651Y42594
X7651Y43594
X6651Y43594
X6651Y44594
X7651Y44594
X7651Y45594
X7651Y46594
X6651Y46594
X6651Y45594
X6651Y47594
X7651Y47594
X7651Y48594
X6651Y48594
X6651Y49594
X7651Y49594
X7651Y50594
X7651Y51594
X6651Y51594
X6651Y50594
X6651Y52594
X7651Y52594
X7651Y53594
X6651Y53594
X72399Y53594
X73399Y53594
X73399Y52594
X72399Y52594
X72399Y51594
X73399Y51594
X73399Y50594
X72399Y50594
X72399Y49594
X73399Y49594
X73399Y48594
X73399Y47594
X72399Y47594
X72399Y48594
X72399Y46594
X73399Y46594
X73399Y45594
X72399Y45594
X72399Y44594
X73399Y44594
X73399Y43594
X73399Y42594
X72399Y42594
X72399Y43594
X72399Y41594
X73399Y41594
X88158Y28472
X88158Y26504
X93866Y26504
X93866Y27488
X93866Y28472
X77627Y23673
X76627Y23673
X76627Y22673
X77627Y22673
X77627Y21673
X76627Y21673
X76627Y20673
X77627Y20673
X77627Y19673
X76627Y19673
X76627Y18673
X77627Y18673
X77627Y17673
X76627Y17673
X76627Y16673
X77627Y16673
X77627Y15673
X76627Y15673
X76627Y14673
X77627Y14673
X77627Y13673
X76627Y13673
X76627Y12673
X77627Y12673
X77627Y11673
X76627Y11673
X62485Y11618
X61485Y11618
X61485Y12618
X61485Y13618
X62485Y13618
X62485Y12618
X62485Y14618
X61485Y14618
X61485Y15618
X61485Y16618
X62485Y16618
X62485Y15618
X62485Y17618
X61485Y17618
X61485Y18618
X62485Y18618
X62485Y19618
X61485Y19618
X61485Y20618
X61485Y21618
X62485Y21618
X62485Y20618
X62485Y22618
X61485Y22618
X61485Y23618
X62485Y23618
X46024Y22953
X46024Y21953
X46024Y20953
X97629Y11428
X97629Y10428
X97629Y9428
X97629Y8428
X97629Y7428
X97629Y6428
X97629Y5428
X97629Y4428
X112899Y9428
X113899Y9428
X121729Y5628
X122729Y5628
X123729Y5628
X124729Y5628
X125729Y5628
X125729Y4628
X124729Y4628
X123729Y4628
X122729Y4628
X121729Y4628
T09
X113050Y21193
X46251Y18328
X43298Y19328
X43673Y7853
X46626Y6853
X13624Y6628
X13624Y8628
X10474Y22328
X10474Y26328
T10
X10174Y13893
X6237Y13893
X62442Y46753
X65395Y46753
X65420Y53903
X62467Y53903
X128215Y53903
X131168Y53903
X131143Y46753
X128190Y46753
T11
X127203Y46756
X131140Y46756
X131140Y40851
X127203Y40851
X65392Y40851
X61455Y40851
X61455Y46756
X65392Y46756
X24811Y22065
X22843Y22065
X18906Y22065
X16937Y22065
X11943Y18204
X8006Y18952
X8006Y16977
X11943Y16229
X16937Y14191
X24811Y14191
T12
X36939Y13790
X36939Y16767
X42891Y16767
X44876Y16767
X46860Y16767
X46860Y13790
X44876Y13790
X42891Y13790
X63976Y12440
X65960Y12440
X67945Y12440
X67945Y15417
X65960Y15417
X63976Y15417
X64201Y18365
X70154Y18365
X72138Y18365
X74123Y18365
X73898Y15417
X73898Y12440
X74123Y21342
X72138Y21342
X70154Y21342
X64201Y21342
X119449Y22378
X127319Y22378
T13
X131217Y58803
X131217Y60772
X65469Y60772
X65469Y58803
T14
X23824Y10803
X21674Y10803
X19524Y10803
X19524Y7103
X21674Y7103
X23824Y7103
T15
X64294Y35200
X64294Y36853
X64294Y38507
X95574Y9872
X95574Y7903
X130042Y35200
X130042Y36853
X130042Y38507
T16
X104334Y39179
X102134Y39179
X99934Y39179
X38586Y39179
X36386Y39179
X34186Y39179
X10410Y11049
X10435Y8868
X4435Y8868
X4410Y11049
T17
X42685Y9771
X44654Y9771
X46622Y9771
T18
X37140Y27384
X30939Y27384
T19
X133243Y8865
X133243Y7015
X133243Y5165
T20
X7949Y20764
X7949Y22418
X7949Y24071
X7949Y25725
X7949Y27378
T21
X90914Y25086
X90914Y29889
T22
X26646Y26355
X21906Y26355
T23
X26699Y8328
X16699Y8328
T24
X5075Y20764
X5075Y27378
X62778Y38507
X66479Y36027
X128526Y38507
X132227Y36027
T25
X122607Y34574
X129299Y29259
X95638Y29259
X72607Y34574
X56859Y34574
X50362Y30637
X40520Y30637
X36290Y25852
X31790Y25852
X28709Y27685
X6859Y34574
X4299Y30637
X4299Y5834
X40520Y5834
X95638Y6031
X129299Y6031
X117882Y60559
X72607Y60559
X52134Y60559
X6859Y60559
T26
X58059Y6622
X65559Y6622
X73059Y6622
X80559Y6622
X90914Y6622
T27
X102134Y46779
X36386Y46779
M30
