G75*
G70*
%OFA0B0*%
%FSLAX24Y24*%
%IPPOS*%
%LPD*%
%AMOC8*
5,1,8,0,0,1.08239X$1,22.5*
%
%ADD10C,0.0039*%
%ADD11C,0.0000*%
D10*
X004103Y003078D02*
X048197Y003078D01*
X048243Y003080D01*
X048289Y003085D01*
X048335Y003094D01*
X048380Y003107D01*
X048423Y003123D01*
X048465Y003142D01*
X048506Y003165D01*
X048544Y003191D01*
X048581Y003220D01*
X048615Y003251D01*
X048646Y003285D01*
X048675Y003322D01*
X048701Y003360D01*
X048724Y003401D01*
X048743Y003443D01*
X048759Y003486D01*
X048772Y003531D01*
X048781Y003577D01*
X048786Y003623D01*
X048788Y003669D01*
X048788Y031622D01*
X048786Y031668D01*
X048781Y031714D01*
X048772Y031760D01*
X048759Y031805D01*
X048743Y031848D01*
X048724Y031890D01*
X048701Y031931D01*
X048675Y031969D01*
X048646Y032006D01*
X048615Y032040D01*
X048581Y032071D01*
X048544Y032100D01*
X048506Y032126D01*
X048465Y032149D01*
X048423Y032168D01*
X048380Y032184D01*
X048335Y032197D01*
X048289Y032206D01*
X048243Y032211D01*
X048197Y032213D01*
X048197Y032212D02*
X004103Y032212D01*
X004103Y032213D02*
X004057Y032211D01*
X004011Y032206D01*
X003965Y032197D01*
X003920Y032184D01*
X003877Y032168D01*
X003835Y032149D01*
X003794Y032126D01*
X003756Y032100D01*
X003719Y032071D01*
X003685Y032040D01*
X003654Y032006D01*
X003625Y031969D01*
X003599Y031931D01*
X003576Y031890D01*
X003557Y031848D01*
X003541Y031805D01*
X003528Y031760D01*
X003519Y031714D01*
X003514Y031668D01*
X003512Y031622D01*
X003512Y003669D01*
X003514Y003623D01*
X003519Y003577D01*
X003528Y003531D01*
X003541Y003486D01*
X003557Y003443D01*
X003576Y003401D01*
X003599Y003360D01*
X003625Y003322D01*
X003654Y003285D01*
X003685Y003251D01*
X003719Y003220D01*
X003756Y003191D01*
X003794Y003165D01*
X003835Y003142D01*
X003877Y003123D01*
X003920Y003107D01*
X003965Y003094D01*
X004011Y003085D01*
X004057Y003080D01*
X004103Y003078D01*
X049575Y003669D02*
X049575Y031622D01*
X049577Y031668D01*
X049582Y031714D01*
X049591Y031760D01*
X049604Y031805D01*
X049620Y031848D01*
X049639Y031890D01*
X049662Y031931D01*
X049688Y031969D01*
X049717Y032006D01*
X049748Y032040D01*
X049782Y032071D01*
X049819Y032100D01*
X049857Y032126D01*
X049898Y032149D01*
X049940Y032168D01*
X049983Y032184D01*
X050028Y032197D01*
X050074Y032206D01*
X050120Y032211D01*
X050166Y032213D01*
X050166Y032212D02*
X135599Y032212D01*
X135599Y032213D02*
X135645Y032211D01*
X135691Y032206D01*
X135737Y032197D01*
X135782Y032184D01*
X135825Y032168D01*
X135867Y032149D01*
X135908Y032126D01*
X135946Y032100D01*
X135983Y032071D01*
X136017Y032040D01*
X136048Y032006D01*
X136077Y031969D01*
X136103Y031931D01*
X136126Y031890D01*
X136145Y031848D01*
X136161Y031805D01*
X136174Y031760D01*
X136183Y031714D01*
X136188Y031668D01*
X136190Y031622D01*
X136189Y031622D02*
X136189Y003669D01*
X136190Y003669D02*
X136188Y003623D01*
X136183Y003577D01*
X136174Y003531D01*
X136161Y003486D01*
X136145Y003443D01*
X136126Y003401D01*
X136103Y003360D01*
X136077Y003322D01*
X136048Y003285D01*
X136017Y003251D01*
X135983Y003220D01*
X135946Y003191D01*
X135908Y003165D01*
X135867Y003142D01*
X135825Y003123D01*
X135782Y003107D01*
X135737Y003094D01*
X135691Y003085D01*
X135645Y003080D01*
X135599Y003078D01*
X050166Y003078D01*
X050120Y003080D01*
X050074Y003085D01*
X050028Y003094D01*
X049983Y003107D01*
X049940Y003123D01*
X049898Y003142D01*
X049857Y003165D01*
X049819Y003191D01*
X049782Y003220D01*
X049748Y003251D01*
X049717Y003285D01*
X049688Y003322D01*
X049662Y003360D01*
X049639Y003401D01*
X049620Y003443D01*
X049604Y003486D01*
X049591Y003531D01*
X049582Y003577D01*
X049577Y003623D01*
X049575Y003669D01*
X067882Y033000D02*
X004103Y033000D01*
X004103Y032999D02*
X004057Y033001D01*
X004011Y033006D01*
X003965Y033015D01*
X003920Y033028D01*
X003877Y033044D01*
X003835Y033063D01*
X003794Y033086D01*
X003756Y033112D01*
X003719Y033141D01*
X003685Y033172D01*
X003654Y033206D01*
X003625Y033243D01*
X003599Y033281D01*
X003576Y033322D01*
X003557Y033364D01*
X003541Y033407D01*
X003528Y033452D01*
X003519Y033498D01*
X003514Y033544D01*
X003512Y033590D01*
X003512Y061543D01*
X003514Y061589D01*
X003519Y061635D01*
X003528Y061681D01*
X003541Y061726D01*
X003557Y061769D01*
X003576Y061811D01*
X003599Y061852D01*
X003625Y061890D01*
X003654Y061927D01*
X003685Y061961D01*
X003719Y061992D01*
X003756Y062021D01*
X003794Y062047D01*
X003835Y062070D01*
X003877Y062089D01*
X003920Y062105D01*
X003965Y062118D01*
X004011Y062127D01*
X004057Y062132D01*
X004103Y062134D01*
X004103Y062133D02*
X067882Y062133D01*
X067882Y062134D02*
X067928Y062132D01*
X067974Y062127D01*
X068020Y062118D01*
X068065Y062105D01*
X068108Y062089D01*
X068150Y062070D01*
X068191Y062047D01*
X068229Y062021D01*
X068266Y061992D01*
X068300Y061961D01*
X068331Y061927D01*
X068360Y061890D01*
X068386Y061852D01*
X068409Y061811D01*
X068428Y061769D01*
X068444Y061726D01*
X068457Y061681D01*
X068466Y061635D01*
X068471Y061589D01*
X068473Y061543D01*
X068473Y033590D01*
X068471Y033544D01*
X068466Y033498D01*
X068457Y033452D01*
X068444Y033407D01*
X068428Y033364D01*
X068409Y033322D01*
X068386Y033281D01*
X068360Y033243D01*
X068331Y033206D01*
X068300Y033172D01*
X068266Y033141D01*
X068229Y033112D01*
X068191Y033086D01*
X068150Y033063D01*
X068108Y033044D01*
X068065Y033028D01*
X068020Y033015D01*
X067974Y033006D01*
X067928Y033001D01*
X067882Y032999D01*
X069260Y033590D02*
X069260Y061543D01*
X069262Y061589D01*
X069267Y061635D01*
X069276Y061681D01*
X069289Y061726D01*
X069305Y061769D01*
X069324Y061811D01*
X069347Y061852D01*
X069373Y061890D01*
X069402Y061927D01*
X069433Y061961D01*
X069467Y061992D01*
X069504Y062021D01*
X069542Y062047D01*
X069583Y062070D01*
X069625Y062089D01*
X069668Y062105D01*
X069713Y062118D01*
X069759Y062127D01*
X069805Y062132D01*
X069851Y062134D01*
X069851Y062133D02*
X133630Y062133D01*
X133630Y062134D02*
X133676Y062132D01*
X133722Y062127D01*
X133768Y062118D01*
X133813Y062105D01*
X133856Y062089D01*
X133898Y062070D01*
X133939Y062047D01*
X133977Y062021D01*
X134014Y061992D01*
X134048Y061961D01*
X134079Y061927D01*
X134108Y061890D01*
X134134Y061852D01*
X134157Y061811D01*
X134176Y061769D01*
X134192Y061726D01*
X134205Y061681D01*
X134214Y061635D01*
X134219Y061589D01*
X134221Y061543D01*
X134221Y033590D01*
X134219Y033544D01*
X134214Y033498D01*
X134205Y033452D01*
X134192Y033407D01*
X134176Y033364D01*
X134157Y033322D01*
X134134Y033281D01*
X134108Y033243D01*
X134079Y033206D01*
X134048Y033172D01*
X134014Y033141D01*
X133977Y033112D01*
X133939Y033086D01*
X133898Y033063D01*
X133856Y033044D01*
X133813Y033028D01*
X133768Y033015D01*
X133722Y033006D01*
X133676Y033001D01*
X133630Y032999D01*
X133630Y033000D02*
X069851Y033000D01*
X069851Y032999D02*
X069805Y033001D01*
X069759Y033006D01*
X069713Y033015D01*
X069668Y033028D01*
X069625Y033044D01*
X069583Y033063D01*
X069542Y033086D01*
X069504Y033112D01*
X069467Y033141D01*
X069433Y033172D01*
X069402Y033206D01*
X069373Y033243D01*
X069347Y033281D01*
X069324Y033322D01*
X069305Y033364D01*
X069289Y033407D01*
X069276Y033452D01*
X069267Y033498D01*
X069262Y033544D01*
X069260Y033590D01*
D11*
X066575Y036030D02*
X066577Y036078D01*
X066583Y036126D01*
X066593Y036173D01*
X066606Y036219D01*
X066624Y036264D01*
X066644Y036308D01*
X066669Y036350D01*
X066697Y036389D01*
X066727Y036426D01*
X066761Y036460D01*
X066798Y036492D01*
X066836Y036521D01*
X066877Y036546D01*
X066920Y036568D01*
X066965Y036586D01*
X067011Y036600D01*
X067058Y036611D01*
X067106Y036618D01*
X067154Y036621D01*
X067202Y036620D01*
X067250Y036615D01*
X067298Y036606D01*
X067344Y036594D01*
X067389Y036577D01*
X067433Y036557D01*
X067475Y036534D01*
X067515Y036507D01*
X067553Y036477D01*
X067588Y036444D01*
X067620Y036408D01*
X067650Y036370D01*
X067676Y036329D01*
X067698Y036286D01*
X067718Y036242D01*
X067733Y036197D01*
X067745Y036150D01*
X067753Y036102D01*
X067757Y036054D01*
X067757Y036006D01*
X067753Y035958D01*
X067745Y035910D01*
X067733Y035863D01*
X067718Y035818D01*
X067698Y035774D01*
X067676Y035731D01*
X067650Y035690D01*
X067620Y035652D01*
X067588Y035616D01*
X067553Y035583D01*
X067515Y035553D01*
X067475Y035526D01*
X067433Y035503D01*
X067389Y035483D01*
X067344Y035466D01*
X067298Y035454D01*
X067250Y035445D01*
X067202Y035440D01*
X067154Y035439D01*
X067106Y035442D01*
X067058Y035449D01*
X067011Y035460D01*
X066965Y035474D01*
X066920Y035492D01*
X066877Y035514D01*
X066836Y035539D01*
X066798Y035568D01*
X066761Y035600D01*
X066727Y035634D01*
X066697Y035671D01*
X066669Y035710D01*
X066644Y035752D01*
X066624Y035796D01*
X066606Y035841D01*
X066593Y035887D01*
X066583Y035934D01*
X066577Y035982D01*
X066575Y036030D01*
X062874Y038510D02*
X062876Y038558D01*
X062882Y038606D01*
X062892Y038653D01*
X062905Y038699D01*
X062923Y038744D01*
X062943Y038788D01*
X062968Y038830D01*
X062996Y038869D01*
X063026Y038906D01*
X063060Y038940D01*
X063097Y038972D01*
X063135Y039001D01*
X063176Y039026D01*
X063219Y039048D01*
X063264Y039066D01*
X063310Y039080D01*
X063357Y039091D01*
X063405Y039098D01*
X063453Y039101D01*
X063501Y039100D01*
X063549Y039095D01*
X063597Y039086D01*
X063643Y039074D01*
X063688Y039057D01*
X063732Y039037D01*
X063774Y039014D01*
X063814Y038987D01*
X063852Y038957D01*
X063887Y038924D01*
X063919Y038888D01*
X063949Y038850D01*
X063975Y038809D01*
X063997Y038766D01*
X064017Y038722D01*
X064032Y038677D01*
X064044Y038630D01*
X064052Y038582D01*
X064056Y038534D01*
X064056Y038486D01*
X064052Y038438D01*
X064044Y038390D01*
X064032Y038343D01*
X064017Y038298D01*
X063997Y038254D01*
X063975Y038211D01*
X063949Y038170D01*
X063919Y038132D01*
X063887Y038096D01*
X063852Y038063D01*
X063814Y038033D01*
X063774Y038006D01*
X063732Y037983D01*
X063688Y037963D01*
X063643Y037946D01*
X063597Y037934D01*
X063549Y037925D01*
X063501Y037920D01*
X063453Y037919D01*
X063405Y037922D01*
X063357Y037929D01*
X063310Y037940D01*
X063264Y037954D01*
X063219Y037972D01*
X063176Y037994D01*
X063135Y038019D01*
X063097Y038048D01*
X063060Y038080D01*
X063026Y038114D01*
X062996Y038151D01*
X062968Y038190D01*
X062943Y038232D01*
X062923Y038276D01*
X062905Y038321D01*
X062892Y038367D01*
X062882Y038414D01*
X062876Y038462D01*
X062874Y038510D01*
X035893Y046779D02*
X035895Y046850D01*
X035901Y046921D01*
X035911Y046992D01*
X035925Y047061D01*
X035942Y047130D01*
X035964Y047198D01*
X035989Y047265D01*
X036018Y047330D01*
X036050Y047393D01*
X036086Y047455D01*
X036125Y047514D01*
X036168Y047571D01*
X036213Y047626D01*
X036262Y047678D01*
X036313Y047727D01*
X036367Y047773D01*
X036424Y047817D01*
X036482Y047857D01*
X036543Y047893D01*
X036606Y047927D01*
X036671Y047956D01*
X036737Y047982D01*
X036805Y048005D01*
X036873Y048023D01*
X036943Y048038D01*
X037013Y048049D01*
X037084Y048056D01*
X037155Y048059D01*
X037226Y048058D01*
X037297Y048053D01*
X037368Y048044D01*
X037438Y048031D01*
X037507Y048015D01*
X037575Y047994D01*
X037642Y047970D01*
X037708Y047942D01*
X037771Y047910D01*
X037833Y047875D01*
X037893Y047837D01*
X037951Y047795D01*
X038006Y047751D01*
X038059Y047703D01*
X038109Y047652D01*
X038156Y047599D01*
X038200Y047543D01*
X038241Y047485D01*
X038279Y047424D01*
X038313Y047362D01*
X038343Y047297D01*
X038370Y047232D01*
X038394Y047164D01*
X038413Y047096D01*
X038429Y047027D01*
X038441Y046956D01*
X038449Y046886D01*
X038453Y046815D01*
X038453Y046743D01*
X038449Y046672D01*
X038441Y046602D01*
X038429Y046531D01*
X038413Y046462D01*
X038394Y046394D01*
X038370Y046326D01*
X038343Y046261D01*
X038313Y046196D01*
X038279Y046134D01*
X038241Y046073D01*
X038200Y046015D01*
X038156Y045959D01*
X038109Y045906D01*
X038059Y045855D01*
X038006Y045807D01*
X037951Y045763D01*
X037893Y045721D01*
X037833Y045683D01*
X037771Y045648D01*
X037708Y045616D01*
X037642Y045588D01*
X037575Y045564D01*
X037507Y045543D01*
X037438Y045527D01*
X037368Y045514D01*
X037297Y045505D01*
X037226Y045500D01*
X037155Y045499D01*
X037084Y045502D01*
X037013Y045509D01*
X036943Y045520D01*
X036873Y045535D01*
X036805Y045553D01*
X036737Y045576D01*
X036671Y045602D01*
X036606Y045631D01*
X036543Y045665D01*
X036482Y045701D01*
X036424Y045741D01*
X036367Y045785D01*
X036313Y045831D01*
X036262Y045880D01*
X036213Y045932D01*
X036168Y045987D01*
X036125Y046044D01*
X036086Y046103D01*
X036050Y046165D01*
X036018Y046228D01*
X035989Y046293D01*
X035964Y046360D01*
X035942Y046428D01*
X035925Y046497D01*
X035911Y046566D01*
X035901Y046637D01*
X035895Y046708D01*
X035893Y046779D01*
X005272Y027378D02*
X005274Y027426D01*
X005280Y027474D01*
X005290Y027521D01*
X005303Y027567D01*
X005321Y027612D01*
X005341Y027656D01*
X005366Y027698D01*
X005394Y027737D01*
X005424Y027774D01*
X005458Y027808D01*
X005495Y027840D01*
X005533Y027869D01*
X005574Y027894D01*
X005617Y027916D01*
X005662Y027934D01*
X005708Y027948D01*
X005755Y027959D01*
X005803Y027966D01*
X005851Y027969D01*
X005899Y027968D01*
X005947Y027963D01*
X005995Y027954D01*
X006041Y027942D01*
X006086Y027925D01*
X006130Y027905D01*
X006172Y027882D01*
X006212Y027855D01*
X006250Y027825D01*
X006285Y027792D01*
X006317Y027756D01*
X006347Y027718D01*
X006373Y027677D01*
X006395Y027634D01*
X006415Y027590D01*
X006430Y027545D01*
X006442Y027498D01*
X006450Y027450D01*
X006454Y027402D01*
X006454Y027354D01*
X006450Y027306D01*
X006442Y027258D01*
X006430Y027211D01*
X006415Y027166D01*
X006395Y027122D01*
X006373Y027079D01*
X006347Y027038D01*
X006317Y027000D01*
X006285Y026964D01*
X006250Y026931D01*
X006212Y026901D01*
X006172Y026874D01*
X006130Y026851D01*
X006086Y026831D01*
X006041Y026814D01*
X005995Y026802D01*
X005947Y026793D01*
X005899Y026788D01*
X005851Y026787D01*
X005803Y026790D01*
X005755Y026797D01*
X005708Y026808D01*
X005662Y026822D01*
X005617Y026840D01*
X005574Y026862D01*
X005533Y026887D01*
X005495Y026916D01*
X005458Y026948D01*
X005424Y026982D01*
X005394Y027019D01*
X005366Y027058D01*
X005341Y027100D01*
X005321Y027144D01*
X005303Y027189D01*
X005290Y027235D01*
X005280Y027282D01*
X005274Y027330D01*
X005272Y027378D01*
X005272Y020764D02*
X005274Y020812D01*
X005280Y020860D01*
X005290Y020907D01*
X005303Y020953D01*
X005321Y020998D01*
X005341Y021042D01*
X005366Y021084D01*
X005394Y021123D01*
X005424Y021160D01*
X005458Y021194D01*
X005495Y021226D01*
X005533Y021255D01*
X005574Y021280D01*
X005617Y021302D01*
X005662Y021320D01*
X005708Y021334D01*
X005755Y021345D01*
X005803Y021352D01*
X005851Y021355D01*
X005899Y021354D01*
X005947Y021349D01*
X005995Y021340D01*
X006041Y021328D01*
X006086Y021311D01*
X006130Y021291D01*
X006172Y021268D01*
X006212Y021241D01*
X006250Y021211D01*
X006285Y021178D01*
X006317Y021142D01*
X006347Y021104D01*
X006373Y021063D01*
X006395Y021020D01*
X006415Y020976D01*
X006430Y020931D01*
X006442Y020884D01*
X006450Y020836D01*
X006454Y020788D01*
X006454Y020740D01*
X006450Y020692D01*
X006442Y020644D01*
X006430Y020597D01*
X006415Y020552D01*
X006395Y020508D01*
X006373Y020465D01*
X006347Y020424D01*
X006317Y020386D01*
X006285Y020350D01*
X006250Y020317D01*
X006212Y020287D01*
X006172Y020260D01*
X006130Y020237D01*
X006086Y020217D01*
X006041Y020200D01*
X005995Y020188D01*
X005947Y020179D01*
X005899Y020174D01*
X005851Y020173D01*
X005803Y020176D01*
X005755Y020183D01*
X005708Y020194D01*
X005662Y020208D01*
X005617Y020226D01*
X005574Y020248D01*
X005533Y020273D01*
X005495Y020302D01*
X005458Y020334D01*
X005424Y020368D01*
X005394Y020405D01*
X005366Y020444D01*
X005341Y020486D01*
X005321Y020530D01*
X005303Y020575D01*
X005290Y020621D01*
X005280Y020668D01*
X005274Y020716D01*
X005272Y020764D01*
X031947Y025852D02*
X031949Y025902D01*
X031955Y025952D01*
X031965Y026001D01*
X031979Y026049D01*
X031996Y026096D01*
X032017Y026141D01*
X032042Y026185D01*
X032070Y026226D01*
X032102Y026265D01*
X032136Y026302D01*
X032173Y026336D01*
X032213Y026366D01*
X032255Y026393D01*
X032299Y026417D01*
X032345Y026438D01*
X032392Y026454D01*
X032440Y026467D01*
X032490Y026476D01*
X032539Y026481D01*
X032590Y026482D01*
X032640Y026479D01*
X032689Y026472D01*
X032738Y026461D01*
X032786Y026446D01*
X032832Y026428D01*
X032877Y026406D01*
X032920Y026380D01*
X032961Y026351D01*
X033000Y026319D01*
X033036Y026284D01*
X033068Y026246D01*
X033098Y026206D01*
X033125Y026163D01*
X033148Y026119D01*
X033167Y026073D01*
X033183Y026025D01*
X033195Y025976D01*
X033203Y025927D01*
X033207Y025877D01*
X033207Y025827D01*
X033203Y025777D01*
X033195Y025728D01*
X033183Y025679D01*
X033167Y025631D01*
X033148Y025585D01*
X033125Y025541D01*
X033098Y025498D01*
X033068Y025458D01*
X033036Y025420D01*
X033000Y025385D01*
X032961Y025353D01*
X032920Y025324D01*
X032877Y025298D01*
X032832Y025276D01*
X032786Y025258D01*
X032738Y025243D01*
X032689Y025232D01*
X032640Y025225D01*
X032590Y025222D01*
X032539Y025223D01*
X032490Y025228D01*
X032440Y025237D01*
X032392Y025250D01*
X032345Y025266D01*
X032299Y025287D01*
X032255Y025311D01*
X032213Y025338D01*
X032173Y025368D01*
X032136Y025402D01*
X032102Y025439D01*
X032070Y025478D01*
X032042Y025519D01*
X032017Y025563D01*
X031996Y025608D01*
X031979Y025655D01*
X031965Y025703D01*
X031955Y025752D01*
X031949Y025802D01*
X031947Y025852D01*
X036447Y025852D02*
X036449Y025902D01*
X036455Y025952D01*
X036465Y026001D01*
X036479Y026049D01*
X036496Y026096D01*
X036517Y026141D01*
X036542Y026185D01*
X036570Y026226D01*
X036602Y026265D01*
X036636Y026302D01*
X036673Y026336D01*
X036713Y026366D01*
X036755Y026393D01*
X036799Y026417D01*
X036845Y026438D01*
X036892Y026454D01*
X036940Y026467D01*
X036990Y026476D01*
X037039Y026481D01*
X037090Y026482D01*
X037140Y026479D01*
X037189Y026472D01*
X037238Y026461D01*
X037286Y026446D01*
X037332Y026428D01*
X037377Y026406D01*
X037420Y026380D01*
X037461Y026351D01*
X037500Y026319D01*
X037536Y026284D01*
X037568Y026246D01*
X037598Y026206D01*
X037625Y026163D01*
X037648Y026119D01*
X037667Y026073D01*
X037683Y026025D01*
X037695Y025976D01*
X037703Y025927D01*
X037707Y025877D01*
X037707Y025827D01*
X037703Y025777D01*
X037695Y025728D01*
X037683Y025679D01*
X037667Y025631D01*
X037648Y025585D01*
X037625Y025541D01*
X037598Y025498D01*
X037568Y025458D01*
X037536Y025420D01*
X037500Y025385D01*
X037461Y025353D01*
X037420Y025324D01*
X037377Y025298D01*
X037332Y025276D01*
X037286Y025258D01*
X037238Y025243D01*
X037189Y025232D01*
X037140Y025225D01*
X037090Y025222D01*
X037039Y025223D01*
X036990Y025228D01*
X036940Y025237D01*
X036892Y025250D01*
X036845Y025266D01*
X036799Y025287D01*
X036755Y025311D01*
X036713Y025338D01*
X036673Y025368D01*
X036636Y025402D01*
X036602Y025439D01*
X036570Y025478D01*
X036542Y025519D01*
X036517Y025563D01*
X036496Y025608D01*
X036479Y025655D01*
X036465Y025703D01*
X036455Y025752D01*
X036449Y025802D01*
X036447Y025852D01*
X095795Y029259D02*
X095797Y029309D01*
X095803Y029359D01*
X095813Y029408D01*
X095827Y029456D01*
X095844Y029503D01*
X095865Y029548D01*
X095890Y029592D01*
X095918Y029633D01*
X095950Y029672D01*
X095984Y029709D01*
X096021Y029743D01*
X096061Y029773D01*
X096103Y029800D01*
X096147Y029824D01*
X096193Y029845D01*
X096240Y029861D01*
X096288Y029874D01*
X096338Y029883D01*
X096387Y029888D01*
X096438Y029889D01*
X096488Y029886D01*
X096537Y029879D01*
X096586Y029868D01*
X096634Y029853D01*
X096680Y029835D01*
X096725Y029813D01*
X096768Y029787D01*
X096809Y029758D01*
X096848Y029726D01*
X096884Y029691D01*
X096916Y029653D01*
X096946Y029613D01*
X096973Y029570D01*
X096996Y029526D01*
X097015Y029480D01*
X097031Y029432D01*
X097043Y029383D01*
X097051Y029334D01*
X097055Y029284D01*
X097055Y029234D01*
X097051Y029184D01*
X097043Y029135D01*
X097031Y029086D01*
X097015Y029038D01*
X096996Y028992D01*
X096973Y028948D01*
X096946Y028905D01*
X096916Y028865D01*
X096884Y028827D01*
X096848Y028792D01*
X096809Y028760D01*
X096768Y028731D01*
X096725Y028705D01*
X096680Y028683D01*
X096634Y028665D01*
X096586Y028650D01*
X096537Y028639D01*
X096488Y028632D01*
X096438Y028629D01*
X096387Y028630D01*
X096338Y028635D01*
X096288Y028644D01*
X096240Y028657D01*
X096193Y028673D01*
X096147Y028694D01*
X096103Y028718D01*
X096061Y028745D01*
X096021Y028775D01*
X095984Y028809D01*
X095950Y028846D01*
X095918Y028885D01*
X095890Y028926D01*
X095865Y028970D01*
X095844Y029015D01*
X095827Y029062D01*
X095813Y029110D01*
X095803Y029159D01*
X095797Y029209D01*
X095795Y029259D01*
X128622Y038510D02*
X128624Y038558D01*
X128630Y038606D01*
X128640Y038653D01*
X128653Y038699D01*
X128671Y038744D01*
X128691Y038788D01*
X128716Y038830D01*
X128744Y038869D01*
X128774Y038906D01*
X128808Y038940D01*
X128845Y038972D01*
X128883Y039001D01*
X128924Y039026D01*
X128967Y039048D01*
X129012Y039066D01*
X129058Y039080D01*
X129105Y039091D01*
X129153Y039098D01*
X129201Y039101D01*
X129249Y039100D01*
X129297Y039095D01*
X129345Y039086D01*
X129391Y039074D01*
X129436Y039057D01*
X129480Y039037D01*
X129522Y039014D01*
X129562Y038987D01*
X129600Y038957D01*
X129635Y038924D01*
X129667Y038888D01*
X129697Y038850D01*
X129723Y038809D01*
X129745Y038766D01*
X129765Y038722D01*
X129780Y038677D01*
X129792Y038630D01*
X129800Y038582D01*
X129804Y038534D01*
X129804Y038486D01*
X129800Y038438D01*
X129792Y038390D01*
X129780Y038343D01*
X129765Y038298D01*
X129745Y038254D01*
X129723Y038211D01*
X129697Y038170D01*
X129667Y038132D01*
X129635Y038096D01*
X129600Y038063D01*
X129562Y038033D01*
X129522Y038006D01*
X129480Y037983D01*
X129436Y037963D01*
X129391Y037946D01*
X129345Y037934D01*
X129297Y037925D01*
X129249Y037920D01*
X129201Y037919D01*
X129153Y037922D01*
X129105Y037929D01*
X129058Y037940D01*
X129012Y037954D01*
X128967Y037972D01*
X128924Y037994D01*
X128883Y038019D01*
X128845Y038048D01*
X128808Y038080D01*
X128774Y038114D01*
X128744Y038151D01*
X128716Y038190D01*
X128691Y038232D01*
X128671Y038276D01*
X128653Y038321D01*
X128640Y038367D01*
X128630Y038414D01*
X128624Y038462D01*
X128622Y038510D01*
X132323Y036030D02*
X132325Y036078D01*
X132331Y036126D01*
X132341Y036173D01*
X132354Y036219D01*
X132372Y036264D01*
X132392Y036308D01*
X132417Y036350D01*
X132445Y036389D01*
X132475Y036426D01*
X132509Y036460D01*
X132546Y036492D01*
X132584Y036521D01*
X132625Y036546D01*
X132668Y036568D01*
X132713Y036586D01*
X132759Y036600D01*
X132806Y036611D01*
X132854Y036618D01*
X132902Y036621D01*
X132950Y036620D01*
X132998Y036615D01*
X133046Y036606D01*
X133092Y036594D01*
X133137Y036577D01*
X133181Y036557D01*
X133223Y036534D01*
X133263Y036507D01*
X133301Y036477D01*
X133336Y036444D01*
X133368Y036408D01*
X133398Y036370D01*
X133424Y036329D01*
X133446Y036286D01*
X133466Y036242D01*
X133481Y036197D01*
X133493Y036150D01*
X133501Y036102D01*
X133505Y036054D01*
X133505Y036006D01*
X133501Y035958D01*
X133493Y035910D01*
X133481Y035863D01*
X133466Y035818D01*
X133446Y035774D01*
X133424Y035731D01*
X133398Y035690D01*
X133368Y035652D01*
X133336Y035616D01*
X133301Y035583D01*
X133263Y035553D01*
X133223Y035526D01*
X133181Y035503D01*
X133137Y035483D01*
X133092Y035466D01*
X133046Y035454D01*
X132998Y035445D01*
X132950Y035440D01*
X132902Y035439D01*
X132854Y035442D01*
X132806Y035449D01*
X132759Y035460D01*
X132713Y035474D01*
X132668Y035492D01*
X132625Y035514D01*
X132584Y035539D01*
X132546Y035568D01*
X132509Y035600D01*
X132475Y035634D01*
X132445Y035671D01*
X132417Y035710D01*
X132392Y035752D01*
X132372Y035796D01*
X132354Y035841D01*
X132341Y035887D01*
X132331Y035934D01*
X132325Y035982D01*
X132323Y036030D01*
X129457Y029259D02*
X129459Y029309D01*
X129465Y029359D01*
X129475Y029408D01*
X129489Y029456D01*
X129506Y029503D01*
X129527Y029548D01*
X129552Y029592D01*
X129580Y029633D01*
X129612Y029672D01*
X129646Y029709D01*
X129683Y029743D01*
X129723Y029773D01*
X129765Y029800D01*
X129809Y029824D01*
X129855Y029845D01*
X129902Y029861D01*
X129950Y029874D01*
X130000Y029883D01*
X130049Y029888D01*
X130100Y029889D01*
X130150Y029886D01*
X130199Y029879D01*
X130248Y029868D01*
X130296Y029853D01*
X130342Y029835D01*
X130387Y029813D01*
X130430Y029787D01*
X130471Y029758D01*
X130510Y029726D01*
X130546Y029691D01*
X130578Y029653D01*
X130608Y029613D01*
X130635Y029570D01*
X130658Y029526D01*
X130677Y029480D01*
X130693Y029432D01*
X130705Y029383D01*
X130713Y029334D01*
X130717Y029284D01*
X130717Y029234D01*
X130713Y029184D01*
X130705Y029135D01*
X130693Y029086D01*
X130677Y029038D01*
X130658Y028992D01*
X130635Y028948D01*
X130608Y028905D01*
X130578Y028865D01*
X130546Y028827D01*
X130510Y028792D01*
X130471Y028760D01*
X130430Y028731D01*
X130387Y028705D01*
X130342Y028683D01*
X130296Y028665D01*
X130248Y028650D01*
X130199Y028639D01*
X130150Y028632D01*
X130100Y028629D01*
X130049Y028630D01*
X130000Y028635D01*
X129950Y028644D01*
X129902Y028657D01*
X129855Y028673D01*
X129809Y028694D01*
X129765Y028718D01*
X129723Y028745D01*
X129683Y028775D01*
X129646Y028809D01*
X129612Y028846D01*
X129580Y028885D01*
X129552Y028926D01*
X129527Y028970D01*
X129506Y029015D01*
X129489Y029062D01*
X129475Y029110D01*
X129465Y029159D01*
X129459Y029209D01*
X129457Y029259D01*
X101642Y046779D02*
X101644Y046850D01*
X101650Y046921D01*
X101660Y046992D01*
X101674Y047061D01*
X101691Y047130D01*
X101713Y047198D01*
X101738Y047265D01*
X101767Y047330D01*
X101799Y047393D01*
X101835Y047455D01*
X101874Y047514D01*
X101917Y047571D01*
X101962Y047626D01*
X102011Y047678D01*
X102062Y047727D01*
X102116Y047773D01*
X102173Y047817D01*
X102231Y047857D01*
X102292Y047893D01*
X102355Y047927D01*
X102420Y047956D01*
X102486Y047982D01*
X102554Y048005D01*
X102622Y048023D01*
X102692Y048038D01*
X102762Y048049D01*
X102833Y048056D01*
X102904Y048059D01*
X102975Y048058D01*
X103046Y048053D01*
X103117Y048044D01*
X103187Y048031D01*
X103256Y048015D01*
X103324Y047994D01*
X103391Y047970D01*
X103457Y047942D01*
X103520Y047910D01*
X103582Y047875D01*
X103642Y047837D01*
X103700Y047795D01*
X103755Y047751D01*
X103808Y047703D01*
X103858Y047652D01*
X103905Y047599D01*
X103949Y047543D01*
X103990Y047485D01*
X104028Y047424D01*
X104062Y047362D01*
X104092Y047297D01*
X104119Y047232D01*
X104143Y047164D01*
X104162Y047096D01*
X104178Y047027D01*
X104190Y046956D01*
X104198Y046886D01*
X104202Y046815D01*
X104202Y046743D01*
X104198Y046672D01*
X104190Y046602D01*
X104178Y046531D01*
X104162Y046462D01*
X104143Y046394D01*
X104119Y046326D01*
X104092Y046261D01*
X104062Y046196D01*
X104028Y046134D01*
X103990Y046073D01*
X103949Y046015D01*
X103905Y045959D01*
X103858Y045906D01*
X103808Y045855D01*
X103755Y045807D01*
X103700Y045763D01*
X103642Y045721D01*
X103582Y045683D01*
X103520Y045648D01*
X103457Y045616D01*
X103391Y045588D01*
X103324Y045564D01*
X103256Y045543D01*
X103187Y045527D01*
X103117Y045514D01*
X103046Y045505D01*
X102975Y045500D01*
X102904Y045499D01*
X102833Y045502D01*
X102762Y045509D01*
X102692Y045520D01*
X102622Y045535D01*
X102554Y045553D01*
X102486Y045576D01*
X102420Y045602D01*
X102355Y045631D01*
X102292Y045665D01*
X102231Y045701D01*
X102173Y045741D01*
X102116Y045785D01*
X102062Y045831D01*
X102011Y045880D01*
X101962Y045932D01*
X101917Y045987D01*
X101874Y046044D01*
X101835Y046103D01*
X101799Y046165D01*
X101767Y046228D01*
X101738Y046293D01*
X101713Y046360D01*
X101691Y046428D01*
X101674Y046497D01*
X101660Y046566D01*
X101650Y046637D01*
X101644Y046708D01*
X101642Y046779D01*
X095795Y006031D02*
X095797Y006081D01*
X095803Y006131D01*
X095813Y006180D01*
X095827Y006228D01*
X095844Y006275D01*
X095865Y006320D01*
X095890Y006364D01*
X095918Y006405D01*
X095950Y006444D01*
X095984Y006481D01*
X096021Y006515D01*
X096061Y006545D01*
X096103Y006572D01*
X096147Y006596D01*
X096193Y006617D01*
X096240Y006633D01*
X096288Y006646D01*
X096338Y006655D01*
X096387Y006660D01*
X096438Y006661D01*
X096488Y006658D01*
X096537Y006651D01*
X096586Y006640D01*
X096634Y006625D01*
X096680Y006607D01*
X096725Y006585D01*
X096768Y006559D01*
X096809Y006530D01*
X096848Y006498D01*
X096884Y006463D01*
X096916Y006425D01*
X096946Y006385D01*
X096973Y006342D01*
X096996Y006298D01*
X097015Y006252D01*
X097031Y006204D01*
X097043Y006155D01*
X097051Y006106D01*
X097055Y006056D01*
X097055Y006006D01*
X097051Y005956D01*
X097043Y005907D01*
X097031Y005858D01*
X097015Y005810D01*
X096996Y005764D01*
X096973Y005720D01*
X096946Y005677D01*
X096916Y005637D01*
X096884Y005599D01*
X096848Y005564D01*
X096809Y005532D01*
X096768Y005503D01*
X096725Y005477D01*
X096680Y005455D01*
X096634Y005437D01*
X096586Y005422D01*
X096537Y005411D01*
X096488Y005404D01*
X096438Y005401D01*
X096387Y005402D01*
X096338Y005407D01*
X096288Y005416D01*
X096240Y005429D01*
X096193Y005445D01*
X096147Y005466D01*
X096103Y005490D01*
X096061Y005517D01*
X096021Y005547D01*
X095984Y005581D01*
X095950Y005618D01*
X095918Y005657D01*
X095890Y005698D01*
X095865Y005742D01*
X095844Y005787D01*
X095827Y005834D01*
X095813Y005882D01*
X095803Y005931D01*
X095797Y005981D01*
X095795Y006031D01*
X129457Y006031D02*
X129459Y006081D01*
X129465Y006131D01*
X129475Y006180D01*
X129489Y006228D01*
X129506Y006275D01*
X129527Y006320D01*
X129552Y006364D01*
X129580Y006405D01*
X129612Y006444D01*
X129646Y006481D01*
X129683Y006515D01*
X129723Y006545D01*
X129765Y006572D01*
X129809Y006596D01*
X129855Y006617D01*
X129902Y006633D01*
X129950Y006646D01*
X130000Y006655D01*
X130049Y006660D01*
X130100Y006661D01*
X130150Y006658D01*
X130199Y006651D01*
X130248Y006640D01*
X130296Y006625D01*
X130342Y006607D01*
X130387Y006585D01*
X130430Y006559D01*
X130471Y006530D01*
X130510Y006498D01*
X130546Y006463D01*
X130578Y006425D01*
X130608Y006385D01*
X130635Y006342D01*
X130658Y006298D01*
X130677Y006252D01*
X130693Y006204D01*
X130705Y006155D01*
X130713Y006106D01*
X130717Y006056D01*
X130717Y006006D01*
X130713Y005956D01*
X130705Y005907D01*
X130693Y005858D01*
X130677Y005810D01*
X130658Y005764D01*
X130635Y005720D01*
X130608Y005677D01*
X130578Y005637D01*
X130546Y005599D01*
X130510Y005564D01*
X130471Y005532D01*
X130430Y005503D01*
X130387Y005477D01*
X130342Y005455D01*
X130296Y005437D01*
X130248Y005422D01*
X130199Y005411D01*
X130150Y005404D01*
X130100Y005401D01*
X130049Y005402D01*
X130000Y005407D01*
X129950Y005416D01*
X129902Y005429D01*
X129855Y005445D01*
X129809Y005466D01*
X129765Y005490D01*
X129723Y005517D01*
X129683Y005547D01*
X129646Y005581D01*
X129612Y005618D01*
X129580Y005657D01*
X129552Y005698D01*
X129527Y005742D01*
X129506Y005787D01*
X129489Y005834D01*
X129475Y005882D01*
X129465Y005931D01*
X129459Y005981D01*
X129457Y006031D01*
M02*
