G75*
G70*
%OFA0B0*%
%FSLAX24Y24*%
%IPPOS*%
%LPD*%
%AMOC8*
5,1,8,0,0,1.08239X$1,22.5*
%
%ADD10C,0.1000*%
%ADD11C,0.0973*%
%ADD12C,0.2759*%
%ADD13R,0.0674X0.0674*%
%ADD14OC8,0.0674*%
%ADD15C,0.1360*%
%ADD16OC8,0.1360*%
%ADD17C,0.1100*%
%ADD18OC8,0.0946*%
%ADD19R,0.0516X0.0516*%
%ADD20OC8,0.0640*%
%ADD21OC8,0.0600*%
%ADD22C,0.1100*%
%ADD23OC8,0.0973*%
%ADD24C,0.0907*%
%ADD25OC8,0.0840*%
%ADD26C,0.1653*%
%ADD27C,0.0674*%
%ADD28C,0.0674*%
%ADD29C,0.0640*%
%ADD30C,0.1436*%
%ADD31C,0.1039*%
%ADD32C,0.1386*%
%ADD33OC8,0.0680*%
%ADD34C,0.0477*%
%ADD35OC8,0.0710*%
%ADD36C,0.0710*%
%ADD37C,0.0640*%
%ADD38C,0.0946*%
%ADD39OC8,0.0634*%
%ADD40C,0.1299*%
%ADD41C,0.0848*%
%ADD42C,0.4885*%
%ADD43R,0.0552X0.0552*%
%ADD44C,0.1172*%
%ADD45C,0.0595*%
%ADD46R,0.0595X0.0595*%
%ADD47C,0.0634*%
%ADD48R,0.0710X0.0789*%
%ADD49R,0.0592X0.0671*%
%ADD50C,0.0095*%
%ADD51C,0.0050*%
%ADD52C,0.0780*%
%ADD53OC8,0.0780*%
%ADD54OC8,0.1100*%
%ADD55C,0.1299*%
%ADD56R,0.0516X0.0516*%
%ADD57C,0.2365*%
%ADD58C,0.2562*%
%ADD59C,0.1650*%
D10*
X056090Y010222D02*
X056090Y022947D01*
X056590Y023447D01*
X068040Y023447D01*
X068140Y023447D02*
X068865Y023447D01*
X069990Y022322D01*
X069990Y021797D01*
X068065Y019147D02*
X066890Y020322D01*
X059090Y020322D01*
X058890Y020522D01*
X057815Y020522D01*
X065890Y018697D02*
X065890Y015522D01*
X064640Y014272D01*
X062390Y014272D01*
X061890Y013772D01*
X061890Y012847D01*
X059915Y012947D02*
X059915Y015747D01*
X068065Y018847D02*
X068065Y019147D01*
X071715Y015472D02*
X071165Y014922D01*
X071165Y009097D01*
X069740Y007672D01*
X060790Y007647D02*
X058665Y007647D01*
X056090Y010222D01*
X071715Y015472D02*
X073215Y015472D01*
X072833Y034572D02*
X072058Y034572D01*
X066908Y039722D01*
X066908Y044872D01*
X067508Y045472D01*
X068908Y045472D01*
X068808Y042572D02*
X068808Y040147D01*
X072683Y036272D01*
X079658Y036272D01*
X077133Y034522D02*
X100183Y034522D01*
X104783Y039122D01*
X104783Y041072D01*
X104758Y041097D01*
X104908Y041272D02*
X104933Y041272D01*
X104908Y041272D02*
X106158Y042522D01*
X106158Y045372D01*
X106558Y045772D01*
X112108Y045772D01*
X112558Y045322D01*
X120358Y045322D01*
X120933Y045897D01*
X120933Y046847D01*
X111058Y047622D02*
X103258Y047622D01*
X102558Y046922D01*
X102558Y046797D01*
X093983Y039622D02*
X093983Y038122D01*
X092083Y036222D01*
X086058Y036222D01*
X061090Y045897D02*
X060515Y045322D01*
X052715Y045322D01*
X052265Y045772D01*
X046715Y045772D01*
X046315Y045372D01*
X046315Y042522D01*
X045065Y041272D01*
X045090Y041272D01*
X044915Y041097D02*
X044940Y041072D01*
X044940Y039122D01*
X040340Y034522D01*
X017290Y034522D01*
X019815Y036272D02*
X012840Y036272D01*
X008965Y040147D01*
X008965Y042572D01*
X007065Y044872D02*
X007065Y039722D01*
X012215Y034572D01*
X012990Y034572D01*
X026215Y036222D02*
X032240Y036222D01*
X034140Y038122D01*
X034140Y039622D01*
X042715Y046797D02*
X042715Y046922D01*
X043415Y047622D01*
X051215Y047622D01*
X061090Y046847D02*
X061090Y045897D01*
X009065Y045472D02*
X007665Y045472D01*
X007065Y044872D01*
D11*
X030052Y040015D02*
X030052Y039130D01*
X032252Y039130D02*
X032252Y040015D01*
X034452Y040015D02*
X034452Y039130D01*
X089895Y039130D02*
X089895Y040015D01*
X092095Y040015D02*
X092095Y039130D01*
X094295Y039130D02*
X094295Y040015D01*
D12*
X092095Y047173D03*
X032252Y047173D03*
D13*
X008422Y053988D03*
X037556Y028746D03*
X057351Y012011D03*
X073493Y024067D03*
X101140Y006697D03*
X123990Y025272D03*
X068265Y053988D03*
D14*
X069265Y053988D03*
X069265Y052988D03*
X068265Y052988D03*
X068265Y051988D03*
X069265Y051988D03*
X069265Y050988D03*
X068265Y050988D03*
X068265Y049988D03*
X069265Y049988D03*
X069265Y048988D03*
X068265Y048988D03*
X068265Y047988D03*
X069265Y047988D03*
X069265Y046988D03*
X068265Y046988D03*
X068265Y045988D03*
X069265Y045988D03*
X069265Y044988D03*
X068265Y044988D03*
X068265Y043988D03*
X069265Y043988D03*
X069265Y042988D03*
X068265Y042988D03*
X068265Y041988D03*
X069265Y041988D03*
X039515Y031472D03*
X038515Y031472D03*
X037515Y031472D03*
X036515Y031472D03*
X035515Y031472D03*
X034515Y031472D03*
X033515Y031472D03*
X032515Y031472D03*
X025740Y031472D03*
X024740Y031472D03*
X023740Y031472D03*
X022740Y031472D03*
X021740Y031472D03*
X018365Y031472D03*
X017365Y031472D03*
X016365Y031472D03*
X015365Y031472D03*
X014365Y031472D03*
X009422Y041988D03*
X008422Y041988D03*
X008422Y042988D03*
X008422Y043988D03*
X009422Y043988D03*
X009422Y042988D03*
X009422Y044988D03*
X008422Y044988D03*
X008422Y045988D03*
X008422Y046988D03*
X009422Y046988D03*
X009422Y045988D03*
X009422Y047988D03*
X008422Y047988D03*
X008422Y048988D03*
X009422Y048988D03*
X009422Y049988D03*
X008422Y049988D03*
X008422Y050988D03*
X008422Y051988D03*
X009422Y051988D03*
X009422Y050988D03*
X009422Y052988D03*
X008422Y052988D03*
X009422Y053988D03*
X057351Y024011D03*
X058351Y024011D03*
X058351Y023011D03*
X057351Y023011D03*
X057351Y022011D03*
X057351Y021011D03*
X058351Y021011D03*
X058351Y022011D03*
X058351Y020011D03*
X057351Y020011D03*
X057351Y019011D03*
X058351Y019011D03*
X058351Y018011D03*
X057351Y018011D03*
X057351Y017011D03*
X058351Y017011D03*
X058351Y016011D03*
X057351Y016011D03*
X057351Y015011D03*
X057351Y014011D03*
X058351Y014011D03*
X058351Y015011D03*
X058351Y013011D03*
X057351Y013011D03*
X058351Y012011D03*
X072493Y012067D03*
X072493Y013067D03*
X073493Y013067D03*
X073493Y012067D03*
X073493Y014067D03*
X073493Y015067D03*
X072493Y015067D03*
X072493Y014067D03*
X072493Y016067D03*
X073493Y016067D03*
X073493Y017067D03*
X073493Y018067D03*
X072493Y018067D03*
X072493Y017067D03*
X072493Y019067D03*
X072493Y020067D03*
X073493Y020067D03*
X073493Y019067D03*
X073493Y021067D03*
X072493Y021067D03*
X072493Y022067D03*
X072493Y023067D03*
X073493Y023067D03*
X073493Y022067D03*
X072493Y024067D03*
X084390Y012697D03*
X084390Y011697D03*
X084390Y010697D03*
X084390Y009697D03*
X084390Y008697D03*
X084390Y007697D03*
X084390Y006697D03*
X084390Y005697D03*
X100140Y006697D03*
X100140Y007697D03*
X100140Y008697D03*
X101140Y008697D03*
X101140Y007697D03*
X101140Y009697D03*
X100140Y009697D03*
X100140Y010697D03*
X101140Y010697D03*
X124990Y025272D03*
X124990Y026272D03*
X123990Y026272D03*
X123990Y027272D03*
X123990Y028272D03*
X124990Y028272D03*
X124990Y027272D03*
D15*
X118157Y047147D03*
X118182Y054297D03*
X058339Y054297D03*
X058314Y047147D03*
D16*
X061267Y047147D03*
X061292Y054297D03*
X121134Y054297D03*
X121109Y047147D03*
D17*
X120683Y059197D02*
X121683Y059197D01*
X121683Y061166D02*
X120683Y061166D01*
X061840Y061166D02*
X060840Y061166D01*
X060840Y059197D02*
X061840Y059197D01*
D18*
X070858Y041922D03*
X118455Y022772D03*
X072922Y007228D03*
X058078Y007172D03*
X011015Y041922D03*
D19*
X011015Y039922D03*
X070858Y039922D03*
X070922Y007228D03*
X056078Y007172D03*
D20*
X008740Y004447D03*
X008740Y007447D03*
X051215Y050247D03*
X111058Y050247D03*
D21*
X109058Y050247D03*
X049215Y050247D03*
D22*
X056655Y048584D03*
X061576Y048584D03*
X061576Y040710D03*
X056655Y040710D03*
X009772Y019346D03*
X009772Y017371D03*
X013709Y016623D03*
X013709Y018598D03*
X011940Y014287D03*
X008003Y014287D03*
X116497Y040710D03*
X121419Y040710D03*
X121419Y048584D03*
X116497Y048584D03*
D23*
X012176Y011442D03*
X012201Y009262D03*
X006201Y009262D03*
X006176Y011442D03*
D24*
X021290Y011610D02*
X021290Y010785D01*
X023440Y010785D02*
X023440Y011610D01*
X025590Y011610D02*
X025590Y010785D01*
X025590Y007910D02*
X025590Y007085D01*
X023440Y007085D02*
X023440Y007910D01*
X021290Y007910D02*
X021290Y007085D01*
D25*
X015390Y007022D03*
X015390Y009022D03*
D26*
X018465Y008722D03*
X028465Y008722D03*
D27*
X041919Y016397D02*
X042512Y016397D01*
X042512Y017397D02*
X041919Y017397D01*
X041919Y018397D02*
X042512Y018397D01*
X102840Y005419D02*
X102840Y004825D01*
X103840Y004825D02*
X103840Y005419D01*
X104840Y005419D02*
X104840Y004825D01*
X105840Y004825D02*
X105840Y005419D01*
X106840Y005419D02*
X106840Y004825D01*
X107840Y004825D02*
X107840Y005419D01*
D28*
X111865Y005022D03*
X112865Y005022D03*
X113865Y005022D03*
X114865Y005022D03*
X115865Y005022D03*
X115865Y006022D03*
X114865Y006022D03*
X113865Y006022D03*
X112865Y006022D03*
X111865Y006022D03*
X042410Y021210D03*
X041410Y021210D03*
X041410Y022210D03*
X041410Y023210D03*
X042410Y023210D03*
X042410Y022210D03*
X042410Y024210D03*
X041410Y024210D03*
X041410Y025210D03*
X042410Y025210D03*
X038296Y024628D03*
X037296Y024628D03*
X034316Y024628D03*
X033316Y024628D03*
X034556Y028746D03*
X035556Y028746D03*
X036556Y028746D03*
X037056Y029746D03*
X036056Y029746D03*
X035056Y029746D03*
X034056Y029746D03*
D29*
X026534Y027812D03*
X025550Y027812D03*
X025550Y026552D03*
X026534Y026552D03*
D30*
X028412Y026749D03*
X023672Y026749D03*
D31*
X032705Y027778D03*
X038906Y027778D03*
D32*
X038056Y026246D03*
X033556Y026246D03*
X086977Y029653D03*
X120441Y029653D03*
X120441Y006425D03*
X086977Y006425D03*
D33*
X104186Y021587D03*
X012240Y022722D03*
X012240Y026722D03*
D34*
X106240Y023247D03*
X106791Y023247D03*
D35*
X077065Y013222D03*
X052190Y021347D03*
D36*
X052190Y022347D03*
X077065Y012222D03*
D37*
X089490Y031192D02*
X089490Y031752D01*
X090490Y031752D02*
X090490Y031192D01*
D38*
X110585Y022772D03*
D39*
X105186Y022587D03*
X104186Y022587D03*
X105186Y021587D03*
X105186Y023587D03*
X104186Y023587D03*
X093186Y023587D03*
X092186Y023587D03*
X092186Y022587D03*
X092186Y021587D03*
X093186Y021587D03*
X093186Y022587D03*
X093186Y020587D03*
X092186Y020587D03*
X092186Y019587D03*
X093186Y019587D03*
X093186Y018587D03*
X092186Y018587D03*
X092186Y017587D03*
X092186Y016587D03*
X093186Y016587D03*
X093186Y017587D03*
X093186Y015587D03*
X092186Y015587D03*
X092186Y014587D03*
X093186Y014587D03*
X094186Y012587D03*
X095186Y012587D03*
X096186Y012587D03*
X097186Y012587D03*
X098186Y012587D03*
X099186Y012587D03*
X100186Y012587D03*
X101186Y012587D03*
X103186Y012587D03*
X104186Y012587D03*
X105186Y012587D03*
X106186Y012587D03*
X107186Y012587D03*
X108186Y012587D03*
X109186Y012587D03*
X110186Y012587D03*
X112186Y012587D03*
X113186Y012587D03*
X114186Y012587D03*
X115186Y012587D03*
X116186Y012587D03*
X117186Y012587D03*
X093186Y024587D03*
X092186Y024587D03*
X092186Y025587D03*
X093186Y025587D03*
X093186Y026587D03*
X092186Y026587D03*
X092186Y027587D03*
X093186Y027587D03*
X093186Y028587D03*
X092186Y028587D03*
X092186Y029587D03*
X092186Y030587D03*
X093186Y030587D03*
X093186Y029587D03*
X093186Y031587D03*
X092186Y031587D03*
X096186Y031587D03*
X097186Y031587D03*
X098186Y031587D03*
X099186Y031587D03*
X100186Y031587D03*
X101186Y031587D03*
X102186Y031587D03*
X103186Y031587D03*
X105186Y031587D03*
X106186Y031587D03*
X107186Y031587D03*
X108186Y031587D03*
X109186Y031587D03*
X110186Y031587D03*
X111186Y031587D03*
X112186Y031587D03*
X113786Y031587D03*
X114786Y031587D03*
X115786Y031587D03*
X116786Y031587D03*
X117786Y031587D03*
X118786Y031587D03*
X119786Y031587D03*
X120786Y031587D03*
D40*
X120832Y035140D03*
X120832Y038447D03*
X069989Y021735D03*
X068004Y021735D03*
X066020Y021735D03*
X066020Y018759D03*
X068004Y018759D03*
X069989Y018759D03*
X063811Y015810D03*
X061827Y015810D03*
X059842Y015810D03*
X059842Y012834D03*
X061827Y012834D03*
X063811Y012834D03*
X060989Y035140D03*
X060989Y038447D03*
X006841Y027772D03*
X006841Y021158D03*
D41*
X060067Y021735D03*
X060067Y018759D03*
X069764Y015810D03*
X069764Y012834D03*
D42*
X069319Y007015D03*
X076819Y007015D03*
X061819Y007015D03*
X054319Y007015D03*
X048000Y007015D03*
D43*
X057626Y010559D03*
X058453Y010559D03*
X065107Y010559D03*
X065933Y010559D03*
X072587Y010559D03*
X073414Y010559D03*
X079280Y021976D03*
X080107Y021976D03*
X082233Y021976D03*
X083059Y021976D03*
X080107Y024732D03*
X079280Y024732D03*
X079280Y027488D03*
X080107Y027488D03*
X054319Y021976D03*
X053492Y021976D03*
X051366Y021976D03*
X050540Y021976D03*
X050540Y024732D03*
X051366Y024732D03*
X051366Y027488D03*
X050540Y027488D03*
X123965Y011740D03*
X124792Y011740D03*
D44*
X124911Y009259D02*
X123846Y009259D01*
X123846Y007409D02*
X124911Y007409D01*
X124911Y005559D02*
X123846Y005559D01*
D45*
X122016Y008590D03*
X121016Y008590D03*
X121016Y009590D03*
X122016Y009590D03*
X122016Y010590D03*
X121016Y010590D03*
X121016Y011590D03*
X122016Y011590D03*
X122016Y012590D03*
X121016Y012590D03*
X121016Y013590D03*
X122016Y013590D03*
X122016Y014590D03*
X121016Y014590D03*
X121016Y015590D03*
X122016Y015590D03*
X122016Y016590D03*
X121016Y016590D03*
X121016Y017590D03*
X122016Y017590D03*
X122016Y018590D03*
X121016Y018590D03*
X121016Y019590D03*
X122016Y019590D03*
X122016Y020590D03*
X121016Y020590D03*
X121016Y021590D03*
X122016Y021590D03*
X122016Y022590D03*
X121016Y022590D03*
X121016Y023590D03*
X122016Y023590D03*
X122016Y024590D03*
X121016Y024590D03*
X121016Y025590D03*
X122016Y025590D03*
X122016Y026590D03*
X121016Y026590D03*
X121016Y027590D03*
D46*
X122016Y027590D03*
D47*
X083150Y018858D03*
X082150Y018858D03*
X081150Y018858D03*
X080150Y018858D03*
X079150Y018858D03*
X078150Y018858D03*
X077150Y018858D03*
X076150Y018858D03*
X076150Y016858D03*
X077150Y016858D03*
X078150Y016858D03*
X079150Y016858D03*
X080150Y016858D03*
X081150Y016858D03*
X082150Y016858D03*
X083150Y016858D03*
X054378Y016858D03*
X053378Y016858D03*
X052378Y016858D03*
X051378Y016858D03*
X050378Y016858D03*
X049378Y016858D03*
X049378Y018858D03*
X050378Y018858D03*
X051378Y018858D03*
X052378Y018858D03*
X053378Y018858D03*
X054378Y018858D03*
D48*
X092914Y007797D03*
X094017Y007797D03*
D49*
X123691Y015297D03*
X124439Y015297D03*
D50*
X124996Y015979D02*
X124996Y016791D01*
X125532Y016791D01*
X125532Y015979D01*
X124996Y015979D01*
X124996Y016073D02*
X125532Y016073D01*
X125532Y016167D02*
X124996Y016167D01*
X124996Y016261D02*
X125532Y016261D01*
X125532Y016355D02*
X124996Y016355D01*
X124996Y016449D02*
X125532Y016449D01*
X125532Y016543D02*
X124996Y016543D01*
X124996Y016637D02*
X125532Y016637D01*
X125532Y016731D02*
X124996Y016731D01*
X123224Y016791D02*
X123224Y015979D01*
X123224Y016791D02*
X123760Y016791D01*
X123760Y015979D01*
X123224Y015979D01*
X123224Y016073D02*
X123760Y016073D01*
X123760Y016167D02*
X123224Y016167D01*
X123224Y016261D02*
X123760Y016261D01*
X123760Y016355D02*
X123224Y016355D01*
X123224Y016449D02*
X123760Y016449D01*
X123760Y016543D02*
X123224Y016543D01*
X123224Y016637D02*
X123760Y016637D01*
X123760Y016731D02*
X123224Y016731D01*
X123224Y019287D02*
X123224Y020099D01*
X123760Y020099D01*
X123760Y019287D01*
X123224Y019287D01*
X123224Y019381D02*
X123760Y019381D01*
X123760Y019475D02*
X123224Y019475D01*
X123224Y019569D02*
X123760Y019569D01*
X123760Y019663D02*
X123224Y019663D01*
X123224Y019757D02*
X123760Y019757D01*
X123760Y019851D02*
X123224Y019851D01*
X123224Y019945D02*
X123760Y019945D01*
X123760Y020039D02*
X123224Y020039D01*
X124110Y020099D02*
X124110Y019287D01*
X124110Y020099D02*
X124646Y020099D01*
X124646Y019287D01*
X124110Y019287D01*
X124110Y019381D02*
X124646Y019381D01*
X124646Y019475D02*
X124110Y019475D01*
X124110Y019569D02*
X124646Y019569D01*
X124646Y019663D02*
X124110Y019663D01*
X124110Y019757D02*
X124646Y019757D01*
X124646Y019851D02*
X124110Y019851D01*
X124110Y019945D02*
X124646Y019945D01*
X124646Y020039D02*
X124110Y020039D01*
X124996Y020099D02*
X124996Y019287D01*
X124996Y020099D02*
X125532Y020099D01*
X125532Y019287D01*
X124996Y019287D01*
X124996Y019381D02*
X125532Y019381D01*
X125532Y019475D02*
X124996Y019475D01*
X124996Y019569D02*
X125532Y019569D01*
X125532Y019663D02*
X124996Y019663D01*
X124996Y019757D02*
X125532Y019757D01*
X125532Y019851D02*
X124996Y019851D01*
X124996Y019945D02*
X125532Y019945D01*
X125532Y020039D02*
X124996Y020039D01*
D51*
X125140Y031172D02*
X125054Y031180D01*
X124969Y031202D01*
X124890Y031239D01*
X124819Y031289D01*
X124757Y031351D01*
X124707Y031422D01*
X124671Y031501D01*
X124648Y031585D01*
X124640Y031672D01*
X124648Y031759D01*
X124671Y031843D01*
X124707Y031922D01*
X124757Y031993D01*
X124819Y032055D01*
X124890Y032105D01*
X124969Y032142D01*
X125054Y032164D01*
X125140Y032172D01*
X125227Y032164D01*
X125311Y032142D01*
X125390Y032105D01*
X125462Y032055D01*
X125523Y031993D01*
X125573Y031922D01*
X125610Y031843D01*
X125633Y031759D01*
X125640Y031672D01*
X125633Y031585D01*
X125610Y031501D01*
X125573Y031422D01*
X125523Y031351D01*
X125462Y031289D01*
X125390Y031239D01*
X125311Y031202D01*
X125227Y031180D01*
X125140Y031172D01*
X124944Y031214D02*
X125337Y031214D01*
X125424Y031263D02*
X124857Y031263D01*
X124797Y031311D02*
X125484Y031311D01*
X125530Y031360D02*
X124751Y031360D01*
X124717Y031408D02*
X125564Y031408D01*
X125590Y031457D02*
X124691Y031457D01*
X124669Y031505D02*
X125611Y031505D01*
X125624Y031554D02*
X124656Y031554D01*
X124647Y031602D02*
X125634Y031602D01*
X125639Y031651D02*
X124642Y031651D01*
X124643Y031699D02*
X125638Y031699D01*
X125634Y031748D02*
X124647Y031748D01*
X124658Y031796D02*
X125623Y031796D01*
X125610Y031845D02*
X124671Y031845D01*
X124694Y031893D02*
X125587Y031893D01*
X125560Y031942D02*
X124721Y031942D01*
X124755Y031990D02*
X125526Y031990D01*
X125478Y032039D02*
X124803Y032039D01*
X124865Y032087D02*
X125416Y032087D01*
X125325Y032136D02*
X124956Y032136D01*
X122570Y050255D02*
X122483Y050247D01*
X122396Y050255D01*
X122312Y050277D01*
X122233Y050314D01*
X122162Y050364D01*
X122100Y050426D01*
X122050Y050497D01*
X122013Y050576D01*
X121991Y050660D01*
X121983Y050747D01*
X121991Y050834D01*
X122013Y050918D01*
X122050Y050997D01*
X122100Y051068D01*
X122162Y051130D01*
X122233Y051180D01*
X122312Y051217D01*
X122396Y051239D01*
X122483Y051247D01*
X122570Y051239D01*
X122654Y051217D01*
X122733Y051180D01*
X122804Y051130D01*
X122866Y051068D01*
X122916Y050997D01*
X122953Y050918D01*
X122975Y050834D01*
X122983Y050747D01*
X122975Y050660D01*
X122953Y050576D01*
X122916Y050497D01*
X122866Y050426D01*
X122804Y050364D01*
X122733Y050314D01*
X122654Y050277D01*
X122570Y050255D01*
X122645Y050275D02*
X122321Y050275D01*
X122220Y050323D02*
X122746Y050323D01*
X122812Y050372D02*
X122154Y050372D01*
X122105Y050420D02*
X122861Y050420D01*
X122896Y050469D02*
X122070Y050469D01*
X122040Y050517D02*
X122925Y050517D01*
X122948Y050566D02*
X122018Y050566D01*
X122003Y050614D02*
X122963Y050614D01*
X122976Y050663D02*
X121990Y050663D01*
X121986Y050711D02*
X122980Y050711D01*
X122982Y050760D02*
X121984Y050760D01*
X121988Y050808D02*
X122978Y050808D01*
X122969Y050857D02*
X121997Y050857D01*
X122010Y050905D02*
X122956Y050905D01*
X122936Y050954D02*
X122030Y050954D01*
X122054Y051002D02*
X122912Y051002D01*
X122878Y051051D02*
X122088Y051051D01*
X122131Y051099D02*
X122835Y051099D01*
X122779Y051148D02*
X122187Y051148D01*
X122268Y051196D02*
X122698Y051196D01*
X122509Y051245D02*
X122457Y051245D01*
X066153Y034618D02*
X066175Y034534D01*
X066183Y034447D01*
X066175Y034360D01*
X066153Y034276D01*
X066116Y034197D01*
X066066Y034126D01*
X066004Y034064D01*
X065933Y034014D01*
X065854Y033977D01*
X065770Y033955D01*
X065683Y033947D01*
X065596Y033955D01*
X065512Y033977D01*
X065433Y034014D01*
X065362Y034064D01*
X065300Y034126D01*
X065250Y034197D01*
X065213Y034276D01*
X065191Y034360D01*
X065183Y034447D01*
X065191Y034534D01*
X065213Y034618D01*
X065250Y034697D01*
X065300Y034768D01*
X065362Y034830D01*
X065433Y034880D01*
X065512Y034917D01*
X065596Y034939D01*
X065683Y034947D01*
X065770Y034939D01*
X065854Y034917D01*
X065933Y034880D01*
X066004Y034830D01*
X066066Y034768D01*
X066116Y034697D01*
X066153Y034618D01*
X066155Y034609D02*
X065211Y034609D01*
X065198Y034561D02*
X066168Y034561D01*
X066177Y034512D02*
X065189Y034512D01*
X065184Y034464D02*
X066181Y034464D01*
X066180Y034415D02*
X065186Y034415D01*
X065190Y034367D02*
X066176Y034367D01*
X066164Y034318D02*
X065202Y034318D01*
X065216Y034270D02*
X066150Y034270D01*
X066127Y034221D02*
X065239Y034221D01*
X065267Y034173D02*
X066099Y034173D01*
X066065Y034124D02*
X065301Y034124D01*
X065350Y034076D02*
X066016Y034076D01*
X065952Y034027D02*
X065414Y034027D01*
X065509Y033979D02*
X065857Y033979D01*
X066134Y034658D02*
X065232Y034658D01*
X065256Y034706D02*
X066110Y034706D01*
X066076Y034755D02*
X065290Y034755D01*
X065335Y034803D02*
X066031Y034803D01*
X065973Y034852D02*
X065392Y034852D01*
X065476Y034900D02*
X065890Y034900D01*
X062727Y050255D02*
X062640Y050247D01*
X062554Y050255D01*
X062469Y050277D01*
X062390Y050314D01*
X062319Y050364D01*
X062257Y050426D01*
X062207Y050497D01*
X062171Y050576D01*
X062148Y050660D01*
X062140Y050747D01*
X062148Y050834D01*
X062171Y050918D01*
X062207Y050997D01*
X062257Y051068D01*
X062319Y051130D01*
X062390Y051180D01*
X062469Y051217D01*
X062554Y051239D01*
X062640Y051247D01*
X062727Y051239D01*
X062811Y051217D01*
X062890Y051180D01*
X062962Y051130D01*
X063023Y051068D01*
X063073Y050997D01*
X063110Y050918D01*
X063133Y050834D01*
X063140Y050747D01*
X063133Y050660D01*
X063110Y050576D01*
X063073Y050497D01*
X063023Y050426D01*
X062962Y050364D01*
X062890Y050314D01*
X062811Y050277D01*
X062727Y050255D01*
X062802Y050275D02*
X062478Y050275D01*
X062377Y050323D02*
X062904Y050323D01*
X062970Y050372D02*
X062311Y050372D01*
X062263Y050420D02*
X063018Y050420D01*
X063054Y050469D02*
X062227Y050469D01*
X062198Y050517D02*
X063083Y050517D01*
X063105Y050566D02*
X062175Y050566D01*
X062160Y050614D02*
X063121Y050614D01*
X063133Y050663D02*
X062148Y050663D01*
X062144Y050711D02*
X063137Y050711D01*
X063139Y050760D02*
X062142Y050760D01*
X062146Y050808D02*
X063135Y050808D01*
X063127Y050857D02*
X062154Y050857D01*
X062167Y050905D02*
X063114Y050905D01*
X063094Y050954D02*
X062187Y050954D01*
X062211Y051002D02*
X063070Y051002D01*
X063036Y051051D02*
X062245Y051051D01*
X062288Y051099D02*
X062993Y051099D01*
X062937Y051148D02*
X062344Y051148D01*
X062425Y051196D02*
X062856Y051196D01*
X062666Y051245D02*
X062615Y051245D01*
X008610Y031993D02*
X008633Y031909D01*
X008640Y031822D01*
X008633Y031735D01*
X008610Y031651D01*
X008573Y031572D01*
X008523Y031501D01*
X008462Y031439D01*
X008390Y031389D01*
X008311Y031352D01*
X008227Y031330D01*
X008140Y031322D01*
X008054Y031330D01*
X007969Y031352D01*
X007890Y031389D01*
X007819Y031439D01*
X007757Y031501D01*
X007707Y031572D01*
X007671Y031651D01*
X008610Y031651D01*
X008623Y031699D02*
X007658Y031699D01*
X007648Y031735D02*
X007640Y031822D01*
X007648Y031909D01*
X007671Y031993D01*
X007707Y032072D01*
X007757Y032143D01*
X007819Y032205D01*
X007890Y032255D01*
X007969Y032292D01*
X008054Y032314D01*
X008140Y032322D01*
X008227Y032314D01*
X008311Y032292D01*
X008390Y032255D01*
X008462Y032205D01*
X008523Y032143D01*
X008573Y032072D01*
X008610Y031993D01*
X008611Y031990D02*
X007670Y031990D01*
X007657Y031942D02*
X008624Y031942D01*
X008634Y031893D02*
X007647Y031893D01*
X007642Y031845D02*
X008638Y031845D01*
X008638Y031796D02*
X007643Y031796D01*
X007647Y031748D02*
X008634Y031748D01*
X008587Y031602D02*
X007693Y031602D01*
X007671Y031651D02*
X007648Y031735D01*
X007720Y031554D02*
X008561Y031554D01*
X008527Y031505D02*
X007754Y031505D01*
X007801Y031457D02*
X008479Y031457D01*
X008418Y031408D02*
X007863Y031408D01*
X007953Y031360D02*
X008327Y031360D01*
X008589Y032039D02*
X007692Y032039D01*
X007718Y032087D02*
X008563Y032087D01*
X008529Y032136D02*
X007752Y032136D01*
X007798Y032184D02*
X008483Y032184D01*
X008422Y032233D02*
X007858Y032233D01*
X007946Y032281D02*
X008334Y032281D01*
X006011Y033977D02*
X005927Y033955D01*
X005840Y033947D01*
X005754Y033955D01*
X005669Y033977D01*
X005590Y034014D01*
X005519Y034064D01*
X005457Y034126D01*
X005407Y034197D01*
X005371Y034276D01*
X005348Y034360D01*
X005340Y034447D01*
X005348Y034534D01*
X005371Y034618D01*
X005407Y034697D01*
X005457Y034768D01*
X005519Y034830D01*
X005590Y034880D01*
X005669Y034917D01*
X005754Y034939D01*
X005840Y034947D01*
X005927Y034939D01*
X006011Y034917D01*
X006090Y034880D01*
X006162Y034830D01*
X006223Y034768D01*
X006273Y034697D01*
X006310Y034618D01*
X006333Y034534D01*
X006340Y034447D01*
X006333Y034360D01*
X006310Y034276D01*
X006273Y034197D01*
X006223Y034126D01*
X006162Y034064D01*
X006090Y034014D01*
X006011Y033977D01*
X006015Y033979D02*
X005666Y033979D01*
X005572Y034027D02*
X006109Y034027D01*
X006173Y034076D02*
X005507Y034076D01*
X005459Y034124D02*
X006222Y034124D01*
X006256Y034173D02*
X005424Y034173D01*
X005396Y034221D02*
X006285Y034221D01*
X006307Y034270D02*
X005374Y034270D01*
X005359Y034318D02*
X006322Y034318D01*
X006333Y034367D02*
X005347Y034367D01*
X005343Y034415D02*
X006338Y034415D01*
X006339Y034464D02*
X005342Y034464D01*
X005346Y034512D02*
X006335Y034512D01*
X006326Y034561D02*
X005355Y034561D01*
X005368Y034609D02*
X006313Y034609D01*
X006292Y034658D02*
X005389Y034658D01*
X005414Y034706D02*
X006267Y034706D01*
X006233Y034755D02*
X005448Y034755D01*
X005492Y034803D02*
X006189Y034803D01*
X006131Y034852D02*
X005550Y034852D01*
X005634Y034900D02*
X006047Y034900D01*
X042632Y004668D02*
X042694Y004730D01*
X042765Y004780D01*
X042844Y004817D01*
X042929Y004839D01*
X043015Y004847D01*
X043102Y004839D01*
X043186Y004817D01*
X043265Y004780D01*
X043337Y004730D01*
X043398Y004668D01*
X043448Y004597D01*
X043485Y004518D01*
X043508Y004434D01*
X043515Y004347D01*
X043508Y004260D01*
X043485Y004176D01*
X043448Y004097D01*
X043398Y004026D01*
X043337Y003964D01*
X043265Y003914D01*
X043186Y003877D01*
X043102Y003855D01*
X043015Y003847D01*
X042929Y003855D01*
X042844Y003877D01*
X042765Y003914D01*
X042694Y003964D01*
X042632Y004026D01*
X042582Y004097D01*
X042546Y004176D01*
X042523Y004260D01*
X042515Y004347D01*
X042523Y004434D01*
X042546Y004518D01*
X042582Y004597D01*
X042632Y004668D01*
X042649Y004685D02*
X043382Y004685D01*
X043421Y004636D02*
X042610Y004636D01*
X042578Y004588D02*
X043453Y004588D01*
X043475Y004539D02*
X042555Y004539D01*
X042538Y004491D02*
X043493Y004491D01*
X043506Y004442D02*
X042525Y004442D01*
X042519Y004394D02*
X043511Y004394D01*
X043515Y004345D02*
X042516Y004345D01*
X042520Y004297D02*
X043511Y004297D01*
X043505Y004248D02*
X042526Y004248D01*
X042539Y004200D02*
X043492Y004200D01*
X043474Y004151D02*
X042557Y004151D01*
X042580Y004103D02*
X043451Y004103D01*
X043418Y004054D02*
X042613Y004054D01*
X042653Y004006D02*
X043378Y004006D01*
X043327Y003957D02*
X042704Y003957D01*
X042777Y003909D02*
X043254Y003909D01*
X043122Y003860D02*
X042908Y003860D01*
X042698Y004733D02*
X043333Y004733D01*
X043262Y004782D02*
X042769Y004782D01*
X042894Y004830D02*
X043137Y004830D01*
X045148Y004409D02*
X045140Y004322D01*
X045148Y004235D01*
X045171Y004151D01*
X045207Y004072D01*
X045257Y004001D01*
X045319Y003939D01*
X045390Y003889D01*
X045469Y003852D01*
X045554Y003830D01*
X045640Y003822D01*
X045727Y003830D01*
X045811Y003852D01*
X045890Y003889D01*
X045962Y003939D01*
X046023Y004001D01*
X046073Y004072D01*
X046110Y004151D01*
X046133Y004235D01*
X046140Y004322D01*
X046133Y004409D01*
X046110Y004493D01*
X046073Y004572D01*
X046023Y004643D01*
X045962Y004705D01*
X045890Y004755D01*
X045811Y004792D01*
X045727Y004814D01*
X045640Y004822D01*
X045554Y004814D01*
X045469Y004792D01*
X045390Y004755D01*
X045319Y004705D01*
X045257Y004643D01*
X045207Y004572D01*
X045171Y004493D01*
X045148Y004409D01*
X045147Y004394D02*
X046134Y004394D01*
X046124Y004442D02*
X045157Y004442D01*
X045170Y004491D02*
X046111Y004491D01*
X046089Y004539D02*
X045192Y004539D01*
X045218Y004588D02*
X046063Y004588D01*
X046029Y004636D02*
X045252Y004636D01*
X045299Y004685D02*
X045982Y004685D01*
X045922Y004733D02*
X045359Y004733D01*
X045447Y004782D02*
X045834Y004782D01*
X046138Y004345D02*
X045142Y004345D01*
X045143Y004297D02*
X046138Y004297D01*
X046134Y004248D02*
X045147Y004248D01*
X045158Y004200D02*
X046123Y004200D01*
X046110Y004151D02*
X045171Y004151D01*
X045193Y004103D02*
X046088Y004103D01*
X046061Y004054D02*
X045220Y004054D01*
X045254Y004006D02*
X046027Y004006D01*
X045980Y003957D02*
X045301Y003957D01*
X045363Y003909D02*
X045918Y003909D01*
X045828Y003860D02*
X045453Y003860D01*
D52*
X112378Y028722D03*
D53*
X113953Y028722D03*
D54*
X025802Y015010D03*
X017928Y015010D03*
X019897Y022884D03*
X023834Y022884D03*
D55*
X010306Y022811D02*
X009125Y022811D01*
X009125Y024465D02*
X010306Y024465D01*
X010306Y026119D02*
X009125Y026119D01*
X009125Y027772D02*
X010306Y027772D01*
X010306Y021158D02*
X009125Y021158D01*
X057525Y035140D02*
X058706Y035140D01*
X058706Y036794D02*
X057525Y036794D01*
X057525Y038447D02*
X058706Y038447D01*
X117367Y038447D02*
X118548Y038447D01*
X118548Y036794D02*
X117367Y036794D01*
X117367Y035140D02*
X118548Y035140D01*
D56*
X101858Y035672D03*
X101858Y036072D03*
X101433Y036072D03*
X101433Y035672D03*
X085858Y035747D03*
X085858Y036172D03*
X085858Y036597D03*
X085433Y036597D03*
X085433Y036172D03*
X085433Y035747D03*
X085008Y035747D03*
X085008Y036172D03*
X085008Y036597D03*
X080658Y036597D03*
X080658Y036172D03*
X080658Y035747D03*
X080233Y035747D03*
X080233Y036172D03*
X080233Y036597D03*
X079808Y036597D03*
X079808Y036172D03*
X079808Y035747D03*
X077308Y035072D03*
X077308Y034697D03*
X077308Y034322D03*
X076883Y034322D03*
X076883Y034697D03*
X076883Y035072D03*
X073583Y035072D03*
X073583Y034697D03*
X073583Y034322D03*
X073158Y034322D03*
X073158Y034697D03*
X073158Y035072D03*
X101858Y046347D03*
X102258Y046347D03*
X102658Y046347D03*
X102658Y046772D03*
X102258Y046772D03*
X101858Y046772D03*
X101858Y047197D03*
X102258Y047197D03*
X102658Y047197D03*
X042815Y047197D03*
X042415Y047197D03*
X042015Y047197D03*
X042015Y046772D03*
X042415Y046772D03*
X042815Y046772D03*
X042815Y046347D03*
X042415Y046347D03*
X042015Y046347D03*
X026015Y036597D03*
X025590Y036597D03*
X025165Y036597D03*
X025165Y036172D03*
X025165Y035747D03*
X025590Y035747D03*
X025590Y036172D03*
X026015Y036172D03*
X026015Y035747D03*
X020815Y035747D03*
X020390Y035747D03*
X019965Y035747D03*
X019965Y036172D03*
X019965Y036597D03*
X020390Y036597D03*
X020390Y036172D03*
X020815Y036172D03*
X020815Y036597D03*
X017465Y035072D03*
X017465Y034697D03*
X017465Y034322D03*
X017040Y034322D03*
X017040Y034697D03*
X017040Y035072D03*
X013740Y035072D03*
X013740Y034697D03*
X013740Y034322D03*
X013315Y034322D03*
X013315Y034697D03*
X013315Y035072D03*
X041590Y035672D03*
X041590Y036072D03*
X042015Y036072D03*
X042015Y035672D03*
D57*
X052725Y034968D03*
X068473Y034968D03*
X030481Y028078D03*
X008630Y034968D03*
X008630Y060952D03*
X048000Y060952D03*
X068473Y060952D03*
X107843Y060952D03*
X112567Y034968D03*
D58*
X042292Y031031D03*
X006071Y031031D03*
X006071Y006228D03*
X042292Y006228D03*
D59*
X005890Y016522D03*
X005890Y018272D03*
M02*
