G75*
G70*
%OFA0B0*%
%FSLAX24Y24*%
%IPPOS*%
%LPD*%
%AMOC8*
5,1,8,0,0,1.08239X$1,22.5*
%
%ADD10C,0.0039*%
%ADD11C,0.0000*%
D10*
X003315Y003078D02*
X047410Y003078D01*
X047456Y003080D01*
X047502Y003085D01*
X047548Y003094D01*
X047593Y003107D01*
X047636Y003123D01*
X047678Y003142D01*
X047719Y003165D01*
X047757Y003191D01*
X047794Y003220D01*
X047828Y003251D01*
X047859Y003285D01*
X047888Y003322D01*
X047914Y003360D01*
X047937Y003401D01*
X047956Y003443D01*
X047972Y003486D01*
X047985Y003531D01*
X047994Y003577D01*
X047999Y003623D01*
X048001Y003669D01*
X048000Y003669D02*
X048000Y031622D01*
X048001Y031622D02*
X047999Y031668D01*
X047994Y031714D01*
X047985Y031760D01*
X047972Y031805D01*
X047956Y031848D01*
X047937Y031890D01*
X047914Y031931D01*
X047888Y031969D01*
X047859Y032006D01*
X047828Y032040D01*
X047794Y032071D01*
X047757Y032100D01*
X047719Y032126D01*
X047678Y032149D01*
X047636Y032168D01*
X047593Y032184D01*
X047548Y032197D01*
X047502Y032206D01*
X047456Y032211D01*
X047410Y032213D01*
X047410Y032212D02*
X003315Y032212D01*
X003315Y032213D02*
X003269Y032211D01*
X003223Y032206D01*
X003177Y032197D01*
X003132Y032184D01*
X003089Y032168D01*
X003047Y032149D01*
X003006Y032126D01*
X002968Y032100D01*
X002931Y032071D01*
X002897Y032040D01*
X002866Y032006D01*
X002837Y031969D01*
X002811Y031931D01*
X002788Y031890D01*
X002769Y031848D01*
X002753Y031805D01*
X002740Y031760D01*
X002731Y031714D01*
X002726Y031668D01*
X002724Y031622D01*
X002725Y031622D02*
X002725Y003669D01*
X002724Y003669D02*
X002726Y003623D01*
X002731Y003577D01*
X002740Y003531D01*
X002753Y003486D01*
X002769Y003443D01*
X002788Y003401D01*
X002811Y003360D01*
X002837Y003322D01*
X002866Y003285D01*
X002897Y003251D01*
X002931Y003220D01*
X002968Y003191D01*
X003006Y003165D01*
X003047Y003142D01*
X003089Y003123D01*
X003132Y003107D01*
X003177Y003094D01*
X003223Y003085D01*
X003269Y003080D01*
X003315Y003078D01*
X048788Y003669D02*
X048788Y031622D01*
X048787Y031622D02*
X048789Y031668D01*
X048794Y031714D01*
X048803Y031760D01*
X048816Y031805D01*
X048832Y031848D01*
X048851Y031890D01*
X048874Y031931D01*
X048900Y031969D01*
X048929Y032006D01*
X048960Y032040D01*
X048994Y032071D01*
X049031Y032100D01*
X049069Y032126D01*
X049110Y032149D01*
X049152Y032168D01*
X049195Y032184D01*
X049240Y032197D01*
X049286Y032206D01*
X049332Y032211D01*
X049378Y032213D01*
X049378Y032212D02*
X134811Y032212D01*
X134811Y032213D02*
X134857Y032211D01*
X134903Y032206D01*
X134949Y032197D01*
X134994Y032184D01*
X135037Y032168D01*
X135079Y032149D01*
X135120Y032126D01*
X135158Y032100D01*
X135195Y032071D01*
X135229Y032040D01*
X135260Y032006D01*
X135289Y031969D01*
X135315Y031931D01*
X135338Y031890D01*
X135357Y031848D01*
X135373Y031805D01*
X135386Y031760D01*
X135395Y031714D01*
X135400Y031668D01*
X135402Y031622D01*
X135402Y003669D01*
X135400Y003623D01*
X135395Y003577D01*
X135386Y003531D01*
X135373Y003486D01*
X135357Y003443D01*
X135338Y003401D01*
X135315Y003360D01*
X135289Y003322D01*
X135260Y003285D01*
X135229Y003251D01*
X135195Y003220D01*
X135158Y003191D01*
X135120Y003165D01*
X135079Y003142D01*
X135037Y003123D01*
X134994Y003107D01*
X134949Y003094D01*
X134903Y003085D01*
X134857Y003080D01*
X134811Y003078D01*
X049378Y003078D01*
X049332Y003080D01*
X049286Y003085D01*
X049240Y003094D01*
X049195Y003107D01*
X049152Y003123D01*
X049110Y003142D01*
X049069Y003165D01*
X049031Y003191D01*
X048994Y003220D01*
X048960Y003251D01*
X048929Y003285D01*
X048900Y003322D01*
X048874Y003360D01*
X048851Y003401D01*
X048832Y003443D01*
X048816Y003486D01*
X048803Y003531D01*
X048794Y003577D01*
X048789Y003623D01*
X048787Y003669D01*
X067095Y033000D02*
X003315Y033000D01*
X003315Y032999D02*
X003269Y033001D01*
X003223Y033006D01*
X003177Y033015D01*
X003132Y033028D01*
X003089Y033044D01*
X003047Y033063D01*
X003006Y033086D01*
X002968Y033112D01*
X002931Y033141D01*
X002897Y033172D01*
X002866Y033206D01*
X002837Y033243D01*
X002811Y033281D01*
X002788Y033322D01*
X002769Y033364D01*
X002753Y033407D01*
X002740Y033452D01*
X002731Y033498D01*
X002726Y033544D01*
X002724Y033590D01*
X002725Y033590D02*
X002725Y061543D01*
X002724Y061543D02*
X002726Y061589D01*
X002731Y061635D01*
X002740Y061681D01*
X002753Y061726D01*
X002769Y061769D01*
X002788Y061811D01*
X002811Y061852D01*
X002837Y061890D01*
X002866Y061927D01*
X002897Y061961D01*
X002931Y061992D01*
X002968Y062021D01*
X003006Y062047D01*
X003047Y062070D01*
X003089Y062089D01*
X003132Y062105D01*
X003177Y062118D01*
X003223Y062127D01*
X003269Y062132D01*
X003315Y062134D01*
X003315Y062133D02*
X067095Y062133D01*
X067095Y062134D02*
X067141Y062132D01*
X067187Y062127D01*
X067233Y062118D01*
X067278Y062105D01*
X067321Y062089D01*
X067363Y062070D01*
X067404Y062047D01*
X067442Y062021D01*
X067479Y061992D01*
X067513Y061961D01*
X067544Y061927D01*
X067573Y061890D01*
X067599Y061852D01*
X067622Y061811D01*
X067641Y061769D01*
X067657Y061726D01*
X067670Y061681D01*
X067679Y061635D01*
X067684Y061589D01*
X067686Y061543D01*
X067685Y061543D02*
X067685Y033590D01*
X067686Y033590D02*
X067684Y033544D01*
X067679Y033498D01*
X067670Y033452D01*
X067657Y033407D01*
X067641Y033364D01*
X067622Y033322D01*
X067599Y033281D01*
X067573Y033243D01*
X067544Y033206D01*
X067513Y033172D01*
X067479Y033141D01*
X067442Y033112D01*
X067404Y033086D01*
X067363Y033063D01*
X067321Y033044D01*
X067278Y033028D01*
X067233Y033015D01*
X067187Y033006D01*
X067141Y033001D01*
X067095Y032999D01*
X068473Y033590D02*
X068473Y061543D01*
X068472Y061543D02*
X068474Y061589D01*
X068479Y061635D01*
X068488Y061681D01*
X068501Y061726D01*
X068517Y061769D01*
X068536Y061811D01*
X068559Y061852D01*
X068585Y061890D01*
X068614Y061927D01*
X068645Y061961D01*
X068679Y061992D01*
X068716Y062021D01*
X068754Y062047D01*
X068795Y062070D01*
X068837Y062089D01*
X068880Y062105D01*
X068925Y062118D01*
X068971Y062127D01*
X069017Y062132D01*
X069063Y062134D01*
X069063Y062133D02*
X132843Y062133D01*
X132843Y062134D02*
X132889Y062132D01*
X132935Y062127D01*
X132981Y062118D01*
X133026Y062105D01*
X133069Y062089D01*
X133111Y062070D01*
X133152Y062047D01*
X133190Y062021D01*
X133227Y061992D01*
X133261Y061961D01*
X133292Y061927D01*
X133321Y061890D01*
X133347Y061852D01*
X133370Y061811D01*
X133389Y061769D01*
X133405Y061726D01*
X133418Y061681D01*
X133427Y061635D01*
X133432Y061589D01*
X133434Y061543D01*
X133433Y061543D02*
X133433Y033590D01*
X133434Y033590D02*
X133432Y033544D01*
X133427Y033498D01*
X133418Y033452D01*
X133405Y033407D01*
X133389Y033364D01*
X133370Y033322D01*
X133347Y033281D01*
X133321Y033243D01*
X133292Y033206D01*
X133261Y033172D01*
X133227Y033141D01*
X133190Y033112D01*
X133152Y033086D01*
X133111Y033063D01*
X133069Y033044D01*
X133026Y033028D01*
X132981Y033015D01*
X132935Y033006D01*
X132889Y033001D01*
X132843Y032999D01*
X132843Y033000D02*
X069063Y033000D01*
X069063Y032999D02*
X069017Y033001D01*
X068971Y033006D01*
X068925Y033015D01*
X068880Y033028D01*
X068837Y033044D01*
X068795Y033063D01*
X068754Y033086D01*
X068716Y033112D01*
X068679Y033141D01*
X068645Y033172D01*
X068614Y033206D01*
X068585Y033243D01*
X068559Y033281D01*
X068536Y033322D01*
X068517Y033364D01*
X068501Y033407D01*
X068488Y033452D01*
X068479Y033498D01*
X068474Y033544D01*
X068472Y033590D01*
D11*
X065888Y036027D02*
X065890Y036075D01*
X065896Y036123D01*
X065906Y036170D01*
X065919Y036216D01*
X065937Y036261D01*
X065957Y036305D01*
X065982Y036347D01*
X066010Y036386D01*
X066040Y036423D01*
X066074Y036457D01*
X066111Y036489D01*
X066149Y036518D01*
X066190Y036543D01*
X066233Y036565D01*
X066278Y036583D01*
X066324Y036597D01*
X066371Y036608D01*
X066419Y036615D01*
X066467Y036618D01*
X066515Y036617D01*
X066563Y036612D01*
X066611Y036603D01*
X066657Y036591D01*
X066702Y036574D01*
X066746Y036554D01*
X066788Y036531D01*
X066828Y036504D01*
X066866Y036474D01*
X066901Y036441D01*
X066933Y036405D01*
X066963Y036367D01*
X066989Y036326D01*
X067011Y036283D01*
X067031Y036239D01*
X067046Y036194D01*
X067058Y036147D01*
X067066Y036099D01*
X067070Y036051D01*
X067070Y036003D01*
X067066Y035955D01*
X067058Y035907D01*
X067046Y035860D01*
X067031Y035815D01*
X067011Y035771D01*
X066989Y035728D01*
X066963Y035687D01*
X066933Y035649D01*
X066901Y035613D01*
X066866Y035580D01*
X066828Y035550D01*
X066788Y035523D01*
X066746Y035500D01*
X066702Y035480D01*
X066657Y035463D01*
X066611Y035451D01*
X066563Y035442D01*
X066515Y035437D01*
X066467Y035436D01*
X066419Y035439D01*
X066371Y035446D01*
X066324Y035457D01*
X066278Y035471D01*
X066233Y035489D01*
X066190Y035511D01*
X066149Y035536D01*
X066111Y035565D01*
X066074Y035597D01*
X066040Y035631D01*
X066010Y035668D01*
X065982Y035707D01*
X065957Y035749D01*
X065937Y035793D01*
X065919Y035838D01*
X065906Y035884D01*
X065896Y035931D01*
X065890Y035979D01*
X065888Y036027D01*
X062187Y038507D02*
X062189Y038555D01*
X062195Y038603D01*
X062205Y038650D01*
X062218Y038696D01*
X062236Y038741D01*
X062256Y038785D01*
X062281Y038827D01*
X062309Y038866D01*
X062339Y038903D01*
X062373Y038937D01*
X062410Y038969D01*
X062448Y038998D01*
X062489Y039023D01*
X062532Y039045D01*
X062577Y039063D01*
X062623Y039077D01*
X062670Y039088D01*
X062718Y039095D01*
X062766Y039098D01*
X062814Y039097D01*
X062862Y039092D01*
X062910Y039083D01*
X062956Y039071D01*
X063001Y039054D01*
X063045Y039034D01*
X063087Y039011D01*
X063127Y038984D01*
X063165Y038954D01*
X063200Y038921D01*
X063232Y038885D01*
X063262Y038847D01*
X063288Y038806D01*
X063310Y038763D01*
X063330Y038719D01*
X063345Y038674D01*
X063357Y038627D01*
X063365Y038579D01*
X063369Y038531D01*
X063369Y038483D01*
X063365Y038435D01*
X063357Y038387D01*
X063345Y038340D01*
X063330Y038295D01*
X063310Y038251D01*
X063288Y038208D01*
X063262Y038167D01*
X063232Y038129D01*
X063200Y038093D01*
X063165Y038060D01*
X063127Y038030D01*
X063087Y038003D01*
X063045Y037980D01*
X063001Y037960D01*
X062956Y037943D01*
X062910Y037931D01*
X062862Y037922D01*
X062814Y037917D01*
X062766Y037916D01*
X062718Y037919D01*
X062670Y037926D01*
X062623Y037937D01*
X062577Y037951D01*
X062532Y037969D01*
X062489Y037991D01*
X062448Y038016D01*
X062410Y038045D01*
X062373Y038077D01*
X062339Y038111D01*
X062309Y038148D01*
X062281Y038187D01*
X062256Y038229D01*
X062236Y038273D01*
X062218Y038318D01*
X062205Y038364D01*
X062195Y038411D01*
X062189Y038459D01*
X062187Y038507D01*
X035106Y046779D02*
X035108Y046850D01*
X035114Y046921D01*
X035124Y046992D01*
X035138Y047061D01*
X035155Y047130D01*
X035177Y047198D01*
X035202Y047265D01*
X035231Y047330D01*
X035263Y047393D01*
X035299Y047455D01*
X035338Y047514D01*
X035381Y047571D01*
X035426Y047626D01*
X035475Y047678D01*
X035526Y047727D01*
X035580Y047773D01*
X035637Y047817D01*
X035695Y047857D01*
X035756Y047893D01*
X035819Y047927D01*
X035884Y047956D01*
X035950Y047982D01*
X036018Y048005D01*
X036086Y048023D01*
X036156Y048038D01*
X036226Y048049D01*
X036297Y048056D01*
X036368Y048059D01*
X036439Y048058D01*
X036510Y048053D01*
X036581Y048044D01*
X036651Y048031D01*
X036720Y048015D01*
X036788Y047994D01*
X036855Y047970D01*
X036921Y047942D01*
X036984Y047910D01*
X037046Y047875D01*
X037106Y047837D01*
X037164Y047795D01*
X037219Y047751D01*
X037272Y047703D01*
X037322Y047652D01*
X037369Y047599D01*
X037413Y047543D01*
X037454Y047485D01*
X037492Y047424D01*
X037526Y047362D01*
X037556Y047297D01*
X037583Y047232D01*
X037607Y047164D01*
X037626Y047096D01*
X037642Y047027D01*
X037654Y046956D01*
X037662Y046886D01*
X037666Y046815D01*
X037666Y046743D01*
X037662Y046672D01*
X037654Y046602D01*
X037642Y046531D01*
X037626Y046462D01*
X037607Y046394D01*
X037583Y046326D01*
X037556Y046261D01*
X037526Y046196D01*
X037492Y046134D01*
X037454Y046073D01*
X037413Y046015D01*
X037369Y045959D01*
X037322Y045906D01*
X037272Y045855D01*
X037219Y045807D01*
X037164Y045763D01*
X037106Y045721D01*
X037046Y045683D01*
X036984Y045648D01*
X036921Y045616D01*
X036855Y045588D01*
X036788Y045564D01*
X036720Y045543D01*
X036651Y045527D01*
X036581Y045514D01*
X036510Y045505D01*
X036439Y045500D01*
X036368Y045499D01*
X036297Y045502D01*
X036226Y045509D01*
X036156Y045520D01*
X036086Y045535D01*
X036018Y045553D01*
X035950Y045576D01*
X035884Y045602D01*
X035819Y045631D01*
X035756Y045665D01*
X035695Y045701D01*
X035637Y045741D01*
X035580Y045785D01*
X035526Y045831D01*
X035475Y045880D01*
X035426Y045932D01*
X035381Y045987D01*
X035338Y046044D01*
X035299Y046103D01*
X035263Y046165D01*
X035231Y046228D01*
X035202Y046293D01*
X035177Y046360D01*
X035155Y046428D01*
X035138Y046497D01*
X035124Y046566D01*
X035114Y046637D01*
X035108Y046708D01*
X035106Y046779D01*
X004484Y027378D02*
X004486Y027426D01*
X004492Y027474D01*
X004502Y027521D01*
X004515Y027567D01*
X004533Y027612D01*
X004553Y027656D01*
X004578Y027698D01*
X004606Y027737D01*
X004636Y027774D01*
X004670Y027808D01*
X004707Y027840D01*
X004745Y027869D01*
X004786Y027894D01*
X004829Y027916D01*
X004874Y027934D01*
X004920Y027948D01*
X004967Y027959D01*
X005015Y027966D01*
X005063Y027969D01*
X005111Y027968D01*
X005159Y027963D01*
X005207Y027954D01*
X005253Y027942D01*
X005298Y027925D01*
X005342Y027905D01*
X005384Y027882D01*
X005424Y027855D01*
X005462Y027825D01*
X005497Y027792D01*
X005529Y027756D01*
X005559Y027718D01*
X005585Y027677D01*
X005607Y027634D01*
X005627Y027590D01*
X005642Y027545D01*
X005654Y027498D01*
X005662Y027450D01*
X005666Y027402D01*
X005666Y027354D01*
X005662Y027306D01*
X005654Y027258D01*
X005642Y027211D01*
X005627Y027166D01*
X005607Y027122D01*
X005585Y027079D01*
X005559Y027038D01*
X005529Y027000D01*
X005497Y026964D01*
X005462Y026931D01*
X005424Y026901D01*
X005384Y026874D01*
X005342Y026851D01*
X005298Y026831D01*
X005253Y026814D01*
X005207Y026802D01*
X005159Y026793D01*
X005111Y026788D01*
X005063Y026787D01*
X005015Y026790D01*
X004967Y026797D01*
X004920Y026808D01*
X004874Y026822D01*
X004829Y026840D01*
X004786Y026862D01*
X004745Y026887D01*
X004707Y026916D01*
X004670Y026948D01*
X004636Y026982D01*
X004606Y027019D01*
X004578Y027058D01*
X004553Y027100D01*
X004533Y027144D01*
X004515Y027189D01*
X004502Y027235D01*
X004492Y027282D01*
X004486Y027330D01*
X004484Y027378D01*
X004484Y020764D02*
X004486Y020812D01*
X004492Y020860D01*
X004502Y020907D01*
X004515Y020953D01*
X004533Y020998D01*
X004553Y021042D01*
X004578Y021084D01*
X004606Y021123D01*
X004636Y021160D01*
X004670Y021194D01*
X004707Y021226D01*
X004745Y021255D01*
X004786Y021280D01*
X004829Y021302D01*
X004874Y021320D01*
X004920Y021334D01*
X004967Y021345D01*
X005015Y021352D01*
X005063Y021355D01*
X005111Y021354D01*
X005159Y021349D01*
X005207Y021340D01*
X005253Y021328D01*
X005298Y021311D01*
X005342Y021291D01*
X005384Y021268D01*
X005424Y021241D01*
X005462Y021211D01*
X005497Y021178D01*
X005529Y021142D01*
X005559Y021104D01*
X005585Y021063D01*
X005607Y021020D01*
X005627Y020976D01*
X005642Y020931D01*
X005654Y020884D01*
X005662Y020836D01*
X005666Y020788D01*
X005666Y020740D01*
X005662Y020692D01*
X005654Y020644D01*
X005642Y020597D01*
X005627Y020552D01*
X005607Y020508D01*
X005585Y020465D01*
X005559Y020424D01*
X005529Y020386D01*
X005497Y020350D01*
X005462Y020317D01*
X005424Y020287D01*
X005384Y020260D01*
X005342Y020237D01*
X005298Y020217D01*
X005253Y020200D01*
X005207Y020188D01*
X005159Y020179D01*
X005111Y020174D01*
X005063Y020173D01*
X005015Y020176D01*
X004967Y020183D01*
X004920Y020194D01*
X004874Y020208D01*
X004829Y020226D01*
X004786Y020248D01*
X004745Y020273D01*
X004707Y020302D01*
X004670Y020334D01*
X004636Y020368D01*
X004606Y020405D01*
X004578Y020444D01*
X004553Y020486D01*
X004533Y020530D01*
X004515Y020575D01*
X004502Y020621D01*
X004492Y020668D01*
X004486Y020716D01*
X004484Y020764D01*
X031160Y025852D02*
X031162Y025902D01*
X031168Y025952D01*
X031178Y026001D01*
X031192Y026049D01*
X031209Y026096D01*
X031230Y026141D01*
X031255Y026185D01*
X031283Y026226D01*
X031315Y026265D01*
X031349Y026302D01*
X031386Y026336D01*
X031426Y026366D01*
X031468Y026393D01*
X031512Y026417D01*
X031558Y026438D01*
X031605Y026454D01*
X031653Y026467D01*
X031703Y026476D01*
X031752Y026481D01*
X031803Y026482D01*
X031853Y026479D01*
X031902Y026472D01*
X031951Y026461D01*
X031999Y026446D01*
X032045Y026428D01*
X032090Y026406D01*
X032133Y026380D01*
X032174Y026351D01*
X032213Y026319D01*
X032249Y026284D01*
X032281Y026246D01*
X032311Y026206D01*
X032338Y026163D01*
X032361Y026119D01*
X032380Y026073D01*
X032396Y026025D01*
X032408Y025976D01*
X032416Y025927D01*
X032420Y025877D01*
X032420Y025827D01*
X032416Y025777D01*
X032408Y025728D01*
X032396Y025679D01*
X032380Y025631D01*
X032361Y025585D01*
X032338Y025541D01*
X032311Y025498D01*
X032281Y025458D01*
X032249Y025420D01*
X032213Y025385D01*
X032174Y025353D01*
X032133Y025324D01*
X032090Y025298D01*
X032045Y025276D01*
X031999Y025258D01*
X031951Y025243D01*
X031902Y025232D01*
X031853Y025225D01*
X031803Y025222D01*
X031752Y025223D01*
X031703Y025228D01*
X031653Y025237D01*
X031605Y025250D01*
X031558Y025266D01*
X031512Y025287D01*
X031468Y025311D01*
X031426Y025338D01*
X031386Y025368D01*
X031349Y025402D01*
X031315Y025439D01*
X031283Y025478D01*
X031255Y025519D01*
X031230Y025563D01*
X031209Y025608D01*
X031192Y025655D01*
X031178Y025703D01*
X031168Y025752D01*
X031162Y025802D01*
X031160Y025852D01*
X035660Y025852D02*
X035662Y025902D01*
X035668Y025952D01*
X035678Y026001D01*
X035692Y026049D01*
X035709Y026096D01*
X035730Y026141D01*
X035755Y026185D01*
X035783Y026226D01*
X035815Y026265D01*
X035849Y026302D01*
X035886Y026336D01*
X035926Y026366D01*
X035968Y026393D01*
X036012Y026417D01*
X036058Y026438D01*
X036105Y026454D01*
X036153Y026467D01*
X036203Y026476D01*
X036252Y026481D01*
X036303Y026482D01*
X036353Y026479D01*
X036402Y026472D01*
X036451Y026461D01*
X036499Y026446D01*
X036545Y026428D01*
X036590Y026406D01*
X036633Y026380D01*
X036674Y026351D01*
X036713Y026319D01*
X036749Y026284D01*
X036781Y026246D01*
X036811Y026206D01*
X036838Y026163D01*
X036861Y026119D01*
X036880Y026073D01*
X036896Y026025D01*
X036908Y025976D01*
X036916Y025927D01*
X036920Y025877D01*
X036920Y025827D01*
X036916Y025777D01*
X036908Y025728D01*
X036896Y025679D01*
X036880Y025631D01*
X036861Y025585D01*
X036838Y025541D01*
X036811Y025498D01*
X036781Y025458D01*
X036749Y025420D01*
X036713Y025385D01*
X036674Y025353D01*
X036633Y025324D01*
X036590Y025298D01*
X036545Y025276D01*
X036499Y025258D01*
X036451Y025243D01*
X036402Y025232D01*
X036353Y025225D01*
X036303Y025222D01*
X036252Y025223D01*
X036203Y025228D01*
X036153Y025237D01*
X036105Y025250D01*
X036058Y025266D01*
X036012Y025287D01*
X035968Y025311D01*
X035926Y025338D01*
X035886Y025368D01*
X035849Y025402D01*
X035815Y025439D01*
X035783Y025478D01*
X035755Y025519D01*
X035730Y025563D01*
X035709Y025608D01*
X035692Y025655D01*
X035678Y025703D01*
X035668Y025752D01*
X035662Y025802D01*
X035660Y025852D01*
X095008Y029259D02*
X095010Y029309D01*
X095016Y029359D01*
X095026Y029408D01*
X095040Y029456D01*
X095057Y029503D01*
X095078Y029548D01*
X095103Y029592D01*
X095131Y029633D01*
X095163Y029672D01*
X095197Y029709D01*
X095234Y029743D01*
X095274Y029773D01*
X095316Y029800D01*
X095360Y029824D01*
X095406Y029845D01*
X095453Y029861D01*
X095501Y029874D01*
X095551Y029883D01*
X095600Y029888D01*
X095651Y029889D01*
X095701Y029886D01*
X095750Y029879D01*
X095799Y029868D01*
X095847Y029853D01*
X095893Y029835D01*
X095938Y029813D01*
X095981Y029787D01*
X096022Y029758D01*
X096061Y029726D01*
X096097Y029691D01*
X096129Y029653D01*
X096159Y029613D01*
X096186Y029570D01*
X096209Y029526D01*
X096228Y029480D01*
X096244Y029432D01*
X096256Y029383D01*
X096264Y029334D01*
X096268Y029284D01*
X096268Y029234D01*
X096264Y029184D01*
X096256Y029135D01*
X096244Y029086D01*
X096228Y029038D01*
X096209Y028992D01*
X096186Y028948D01*
X096159Y028905D01*
X096129Y028865D01*
X096097Y028827D01*
X096061Y028792D01*
X096022Y028760D01*
X095981Y028731D01*
X095938Y028705D01*
X095893Y028683D01*
X095847Y028665D01*
X095799Y028650D01*
X095750Y028639D01*
X095701Y028632D01*
X095651Y028629D01*
X095600Y028630D01*
X095551Y028635D01*
X095501Y028644D01*
X095453Y028657D01*
X095406Y028673D01*
X095360Y028694D01*
X095316Y028718D01*
X095274Y028745D01*
X095234Y028775D01*
X095197Y028809D01*
X095163Y028846D01*
X095131Y028885D01*
X095103Y028926D01*
X095078Y028970D01*
X095057Y029015D01*
X095040Y029062D01*
X095026Y029110D01*
X095016Y029159D01*
X095010Y029209D01*
X095008Y029259D01*
X127935Y038507D02*
X127937Y038555D01*
X127943Y038603D01*
X127953Y038650D01*
X127966Y038696D01*
X127984Y038741D01*
X128004Y038785D01*
X128029Y038827D01*
X128057Y038866D01*
X128087Y038903D01*
X128121Y038937D01*
X128158Y038969D01*
X128196Y038998D01*
X128237Y039023D01*
X128280Y039045D01*
X128325Y039063D01*
X128371Y039077D01*
X128418Y039088D01*
X128466Y039095D01*
X128514Y039098D01*
X128562Y039097D01*
X128610Y039092D01*
X128658Y039083D01*
X128704Y039071D01*
X128749Y039054D01*
X128793Y039034D01*
X128835Y039011D01*
X128875Y038984D01*
X128913Y038954D01*
X128948Y038921D01*
X128980Y038885D01*
X129010Y038847D01*
X129036Y038806D01*
X129058Y038763D01*
X129078Y038719D01*
X129093Y038674D01*
X129105Y038627D01*
X129113Y038579D01*
X129117Y038531D01*
X129117Y038483D01*
X129113Y038435D01*
X129105Y038387D01*
X129093Y038340D01*
X129078Y038295D01*
X129058Y038251D01*
X129036Y038208D01*
X129010Y038167D01*
X128980Y038129D01*
X128948Y038093D01*
X128913Y038060D01*
X128875Y038030D01*
X128835Y038003D01*
X128793Y037980D01*
X128749Y037960D01*
X128704Y037943D01*
X128658Y037931D01*
X128610Y037922D01*
X128562Y037917D01*
X128514Y037916D01*
X128466Y037919D01*
X128418Y037926D01*
X128371Y037937D01*
X128325Y037951D01*
X128280Y037969D01*
X128237Y037991D01*
X128196Y038016D01*
X128158Y038045D01*
X128121Y038077D01*
X128087Y038111D01*
X128057Y038148D01*
X128029Y038187D01*
X128004Y038229D01*
X127984Y038273D01*
X127966Y038318D01*
X127953Y038364D01*
X127943Y038411D01*
X127937Y038459D01*
X127935Y038507D01*
X131636Y036027D02*
X131638Y036075D01*
X131644Y036123D01*
X131654Y036170D01*
X131667Y036216D01*
X131685Y036261D01*
X131705Y036305D01*
X131730Y036347D01*
X131758Y036386D01*
X131788Y036423D01*
X131822Y036457D01*
X131859Y036489D01*
X131897Y036518D01*
X131938Y036543D01*
X131981Y036565D01*
X132026Y036583D01*
X132072Y036597D01*
X132119Y036608D01*
X132167Y036615D01*
X132215Y036618D01*
X132263Y036617D01*
X132311Y036612D01*
X132359Y036603D01*
X132405Y036591D01*
X132450Y036574D01*
X132494Y036554D01*
X132536Y036531D01*
X132576Y036504D01*
X132614Y036474D01*
X132649Y036441D01*
X132681Y036405D01*
X132711Y036367D01*
X132737Y036326D01*
X132759Y036283D01*
X132779Y036239D01*
X132794Y036194D01*
X132806Y036147D01*
X132814Y036099D01*
X132818Y036051D01*
X132818Y036003D01*
X132814Y035955D01*
X132806Y035907D01*
X132794Y035860D01*
X132779Y035815D01*
X132759Y035771D01*
X132737Y035728D01*
X132711Y035687D01*
X132681Y035649D01*
X132649Y035613D01*
X132614Y035580D01*
X132576Y035550D01*
X132536Y035523D01*
X132494Y035500D01*
X132450Y035480D01*
X132405Y035463D01*
X132359Y035451D01*
X132311Y035442D01*
X132263Y035437D01*
X132215Y035436D01*
X132167Y035439D01*
X132119Y035446D01*
X132072Y035457D01*
X132026Y035471D01*
X131981Y035489D01*
X131938Y035511D01*
X131897Y035536D01*
X131859Y035565D01*
X131822Y035597D01*
X131788Y035631D01*
X131758Y035668D01*
X131730Y035707D01*
X131705Y035749D01*
X131685Y035793D01*
X131667Y035838D01*
X131654Y035884D01*
X131644Y035931D01*
X131638Y035979D01*
X131636Y036027D01*
X128669Y029259D02*
X128671Y029309D01*
X128677Y029359D01*
X128687Y029408D01*
X128701Y029456D01*
X128718Y029503D01*
X128739Y029548D01*
X128764Y029592D01*
X128792Y029633D01*
X128824Y029672D01*
X128858Y029709D01*
X128895Y029743D01*
X128935Y029773D01*
X128977Y029800D01*
X129021Y029824D01*
X129067Y029845D01*
X129114Y029861D01*
X129162Y029874D01*
X129212Y029883D01*
X129261Y029888D01*
X129312Y029889D01*
X129362Y029886D01*
X129411Y029879D01*
X129460Y029868D01*
X129508Y029853D01*
X129554Y029835D01*
X129599Y029813D01*
X129642Y029787D01*
X129683Y029758D01*
X129722Y029726D01*
X129758Y029691D01*
X129790Y029653D01*
X129820Y029613D01*
X129847Y029570D01*
X129870Y029526D01*
X129889Y029480D01*
X129905Y029432D01*
X129917Y029383D01*
X129925Y029334D01*
X129929Y029284D01*
X129929Y029234D01*
X129925Y029184D01*
X129917Y029135D01*
X129905Y029086D01*
X129889Y029038D01*
X129870Y028992D01*
X129847Y028948D01*
X129820Y028905D01*
X129790Y028865D01*
X129758Y028827D01*
X129722Y028792D01*
X129683Y028760D01*
X129642Y028731D01*
X129599Y028705D01*
X129554Y028683D01*
X129508Y028665D01*
X129460Y028650D01*
X129411Y028639D01*
X129362Y028632D01*
X129312Y028629D01*
X129261Y028630D01*
X129212Y028635D01*
X129162Y028644D01*
X129114Y028657D01*
X129067Y028673D01*
X129021Y028694D01*
X128977Y028718D01*
X128935Y028745D01*
X128895Y028775D01*
X128858Y028809D01*
X128824Y028846D01*
X128792Y028885D01*
X128764Y028926D01*
X128739Y028970D01*
X128718Y029015D01*
X128701Y029062D01*
X128687Y029110D01*
X128677Y029159D01*
X128671Y029209D01*
X128669Y029259D01*
X100854Y046779D02*
X100856Y046850D01*
X100862Y046921D01*
X100872Y046992D01*
X100886Y047061D01*
X100903Y047130D01*
X100925Y047198D01*
X100950Y047265D01*
X100979Y047330D01*
X101011Y047393D01*
X101047Y047455D01*
X101086Y047514D01*
X101129Y047571D01*
X101174Y047626D01*
X101223Y047678D01*
X101274Y047727D01*
X101328Y047773D01*
X101385Y047817D01*
X101443Y047857D01*
X101504Y047893D01*
X101567Y047927D01*
X101632Y047956D01*
X101698Y047982D01*
X101766Y048005D01*
X101834Y048023D01*
X101904Y048038D01*
X101974Y048049D01*
X102045Y048056D01*
X102116Y048059D01*
X102187Y048058D01*
X102258Y048053D01*
X102329Y048044D01*
X102399Y048031D01*
X102468Y048015D01*
X102536Y047994D01*
X102603Y047970D01*
X102669Y047942D01*
X102732Y047910D01*
X102794Y047875D01*
X102854Y047837D01*
X102912Y047795D01*
X102967Y047751D01*
X103020Y047703D01*
X103070Y047652D01*
X103117Y047599D01*
X103161Y047543D01*
X103202Y047485D01*
X103240Y047424D01*
X103274Y047362D01*
X103304Y047297D01*
X103331Y047232D01*
X103355Y047164D01*
X103374Y047096D01*
X103390Y047027D01*
X103402Y046956D01*
X103410Y046886D01*
X103414Y046815D01*
X103414Y046743D01*
X103410Y046672D01*
X103402Y046602D01*
X103390Y046531D01*
X103374Y046462D01*
X103355Y046394D01*
X103331Y046326D01*
X103304Y046261D01*
X103274Y046196D01*
X103240Y046134D01*
X103202Y046073D01*
X103161Y046015D01*
X103117Y045959D01*
X103070Y045906D01*
X103020Y045855D01*
X102967Y045807D01*
X102912Y045763D01*
X102854Y045721D01*
X102794Y045683D01*
X102732Y045648D01*
X102669Y045616D01*
X102603Y045588D01*
X102536Y045564D01*
X102468Y045543D01*
X102399Y045527D01*
X102329Y045514D01*
X102258Y045505D01*
X102187Y045500D01*
X102116Y045499D01*
X102045Y045502D01*
X101974Y045509D01*
X101904Y045520D01*
X101834Y045535D01*
X101766Y045553D01*
X101698Y045576D01*
X101632Y045602D01*
X101567Y045631D01*
X101504Y045665D01*
X101443Y045701D01*
X101385Y045741D01*
X101328Y045785D01*
X101274Y045831D01*
X101223Y045880D01*
X101174Y045932D01*
X101129Y045987D01*
X101086Y046044D01*
X101047Y046103D01*
X101011Y046165D01*
X100979Y046228D01*
X100950Y046293D01*
X100925Y046360D01*
X100903Y046428D01*
X100886Y046497D01*
X100872Y046566D01*
X100862Y046637D01*
X100856Y046708D01*
X100854Y046779D01*
X095008Y006031D02*
X095010Y006081D01*
X095016Y006131D01*
X095026Y006180D01*
X095040Y006228D01*
X095057Y006275D01*
X095078Y006320D01*
X095103Y006364D01*
X095131Y006405D01*
X095163Y006444D01*
X095197Y006481D01*
X095234Y006515D01*
X095274Y006545D01*
X095316Y006572D01*
X095360Y006596D01*
X095406Y006617D01*
X095453Y006633D01*
X095501Y006646D01*
X095551Y006655D01*
X095600Y006660D01*
X095651Y006661D01*
X095701Y006658D01*
X095750Y006651D01*
X095799Y006640D01*
X095847Y006625D01*
X095893Y006607D01*
X095938Y006585D01*
X095981Y006559D01*
X096022Y006530D01*
X096061Y006498D01*
X096097Y006463D01*
X096129Y006425D01*
X096159Y006385D01*
X096186Y006342D01*
X096209Y006298D01*
X096228Y006252D01*
X096244Y006204D01*
X096256Y006155D01*
X096264Y006106D01*
X096268Y006056D01*
X096268Y006006D01*
X096264Y005956D01*
X096256Y005907D01*
X096244Y005858D01*
X096228Y005810D01*
X096209Y005764D01*
X096186Y005720D01*
X096159Y005677D01*
X096129Y005637D01*
X096097Y005599D01*
X096061Y005564D01*
X096022Y005532D01*
X095981Y005503D01*
X095938Y005477D01*
X095893Y005455D01*
X095847Y005437D01*
X095799Y005422D01*
X095750Y005411D01*
X095701Y005404D01*
X095651Y005401D01*
X095600Y005402D01*
X095551Y005407D01*
X095501Y005416D01*
X095453Y005429D01*
X095406Y005445D01*
X095360Y005466D01*
X095316Y005490D01*
X095274Y005517D01*
X095234Y005547D01*
X095197Y005581D01*
X095163Y005618D01*
X095131Y005657D01*
X095103Y005698D01*
X095078Y005742D01*
X095057Y005787D01*
X095040Y005834D01*
X095026Y005882D01*
X095016Y005931D01*
X095010Y005981D01*
X095008Y006031D01*
X128669Y006031D02*
X128671Y006081D01*
X128677Y006131D01*
X128687Y006180D01*
X128701Y006228D01*
X128718Y006275D01*
X128739Y006320D01*
X128764Y006364D01*
X128792Y006405D01*
X128824Y006444D01*
X128858Y006481D01*
X128895Y006515D01*
X128935Y006545D01*
X128977Y006572D01*
X129021Y006596D01*
X129067Y006617D01*
X129114Y006633D01*
X129162Y006646D01*
X129212Y006655D01*
X129261Y006660D01*
X129312Y006661D01*
X129362Y006658D01*
X129411Y006651D01*
X129460Y006640D01*
X129508Y006625D01*
X129554Y006607D01*
X129599Y006585D01*
X129642Y006559D01*
X129683Y006530D01*
X129722Y006498D01*
X129758Y006463D01*
X129790Y006425D01*
X129820Y006385D01*
X129847Y006342D01*
X129870Y006298D01*
X129889Y006252D01*
X129905Y006204D01*
X129917Y006155D01*
X129925Y006106D01*
X129929Y006056D01*
X129929Y006006D01*
X129925Y005956D01*
X129917Y005907D01*
X129905Y005858D01*
X129889Y005810D01*
X129870Y005764D01*
X129847Y005720D01*
X129820Y005677D01*
X129790Y005637D01*
X129758Y005599D01*
X129722Y005564D01*
X129683Y005532D01*
X129642Y005503D01*
X129599Y005477D01*
X129554Y005455D01*
X129508Y005437D01*
X129460Y005422D01*
X129411Y005411D01*
X129362Y005404D01*
X129312Y005401D01*
X129261Y005402D01*
X129212Y005407D01*
X129162Y005416D01*
X129114Y005429D01*
X129067Y005445D01*
X129021Y005466D01*
X128977Y005490D01*
X128935Y005517D01*
X128895Y005547D01*
X128858Y005581D01*
X128824Y005618D01*
X128792Y005657D01*
X128764Y005698D01*
X128739Y005742D01*
X128718Y005787D01*
X128701Y005834D01*
X128687Y005882D01*
X128677Y005931D01*
X128671Y005981D01*
X128669Y006031D01*
M02*
