G75*
G70*
%OFA0B0*%
%FSLAX24Y24*%
%IPPOS*%
%LPD*%
%AMOC8*
5,1,8,0,0,1.08239X$1,22.5*
%
%ADD10R,0.1275X0.1700*%
%ADD11C,0.0120*%
%ADD12C,0.0140*%
%ADD13C,0.1000*%
%ADD14R,0.0671X0.0552*%
%ADD15R,0.0513X0.0474*%
%ADD16R,0.0671X0.0592*%
%ADD17R,0.0592X0.0671*%
%ADD18R,0.1143X0.0710*%
%ADD19R,0.0760X0.0270*%
%ADD20R,0.0474X0.0513*%
%ADD21R,0.0218X0.0710*%
%ADD22R,0.1080X0.0300*%
%ADD23R,0.0710X0.0790*%
%ADD24C,0.0973*%
%ADD25C,0.2759*%
%ADD26R,0.0552X0.0671*%
%ADD27R,0.0830X0.0530*%
%ADD28R,0.1375X0.2125*%
%ADD29R,0.0690X0.0316*%
%ADD30R,0.0474X0.0631*%
%ADD31R,0.0631X0.0474*%
%ADD32R,0.0789X0.1340*%
%ADD33R,0.0300X0.0680*%
%ADD34R,0.0300X0.0600*%
%ADD35R,0.1060X0.0450*%
%ADD36R,0.2770X0.2850*%
%ADD37R,0.0710X0.0789*%
%ADD38R,0.0860X0.0300*%
%ADD39R,0.0674X0.0674*%
%ADD40OC8,0.0674*%
%ADD41R,0.2444X0.2365*%
%ADD42R,0.0749X0.0592*%
%ADD43R,0.0789X0.0710*%
%ADD44R,0.1280X0.0680*%
%ADD45R,0.0260X0.0580*%
%ADD46R,0.1240X0.0770*%
%ADD47R,0.1360X0.0380*%
%ADD48R,0.0710X0.1143*%
%ADD49R,0.0790X0.0710*%
%ADD50R,0.0552X0.0552*%
%ADD51R,0.0631X0.0631*%
%ADD52R,0.0220X0.0640*%
%ADD53C,0.1360*%
%ADD54OC8,0.1360*%
%ADD55R,0.2365X0.2444*%
%ADD56R,0.0592X0.0749*%
%ADD57R,0.0316X0.0690*%
%ADD58R,0.0540X0.0220*%
%ADD59R,0.0300X0.0580*%
%ADD60R,0.0946X0.0316*%
%ADD61C,0.1100*%
%ADD62R,0.0510X0.1680*%
%ADD63R,0.0946X0.0789*%
%ADD64R,0.0789X0.0946*%
%ADD65OC8,0.0946*%
%ADD66R,0.0516X0.0516*%
%ADD67R,0.0909X0.1539*%
%ADD68R,0.0631X0.0907*%
%ADD69OC8,0.0640*%
%ADD70OC8,0.0600*%
%ADD71R,0.1939X0.1841*%
%ADD72C,0.1100*%
%ADD73R,0.1720X0.0550*%
%ADD74R,0.0640X0.0220*%
%ADD75R,0.1298X0.1298*%
%ADD76R,0.2165X0.2362*%
%ADD77OC8,0.0973*%
%ADD78C,0.0907*%
%ADD79R,0.1340X0.0789*%
%ADD80OC8,0.0840*%
%ADD81C,0.1653*%
%ADD82R,0.0678X0.0781*%
%ADD83R,0.0789X0.1064*%
%ADD84C,0.0674*%
%ADD85C,0.0674*%
%ADD86R,0.0560X0.0960*%
%ADD87R,0.1504X0.0953*%
%ADD88C,0.0640*%
%ADD89C,0.1436*%
%ADD90C,0.1039*%
%ADD91C,0.1386*%
%ADD92R,0.0520X0.0180*%
%ADD93R,0.0520X0.0200*%
%ADD94R,0.0600X0.0450*%
%ADD95R,0.0700X0.0300*%
%ADD96OC8,0.0680*%
%ADD97R,0.0867X0.0474*%
%ADD98R,0.0220X0.0710*%
%ADD99R,0.0600X0.0300*%
%ADD100R,0.2641X0.2483*%
%ADD101R,0.1261X0.0710*%
%ADD102R,0.1210X0.0380*%
%ADD103C,0.0477*%
%ADD104R,0.0660X0.0220*%
%ADD105R,0.0867X0.1852*%
%ADD106R,0.0680X0.0300*%
%ADD107OC8,0.0710*%
%ADD108C,0.0710*%
%ADD109R,0.0631X0.1497*%
%ADD110C,0.0640*%
%ADD111C,0.0946*%
%ADD112OC8,0.0634*%
%ADD113R,0.0320X0.0690*%
%ADD114R,0.0749X0.0789*%
%ADD115C,0.1299*%
%ADD116C,0.0848*%
%ADD117C,0.4885*%
%ADD118C,0.1172*%
%ADD119R,0.0690X0.0320*%
%ADD120R,0.0430X0.0580*%
%ADD121C,0.0595*%
%ADD122R,0.0595X0.0595*%
%ADD123R,0.0580X0.0300*%
%ADD124R,0.0631X0.0789*%
%ADD125R,0.0789X0.0749*%
%ADD126C,0.0634*%
%ADD127C,0.0103*%
%ADD128R,0.0277X0.0336*%
%ADD129R,0.0220X0.0600*%
%ADD130C,0.0050*%
%ADD131C,0.0780*%
%ADD132OC8,0.0780*%
%ADD133OC8,0.1100*%
%ADD134C,0.1299*%
%ADD135R,0.0380X0.1360*%
%ADD136R,0.0516X0.0516*%
%ADD137C,0.2365*%
%ADD138C,0.2562*%
%ADD139C,0.1650*%
D10*
X047478Y042822D03*
X107320Y042822D03*
D11*
X103458Y055597D02*
X103458Y056397D01*
X043615Y056397D02*
X043615Y055597D01*
X032840Y016322D02*
X031465Y016322D01*
D12*
X035215Y016347D02*
X036165Y016347D01*
X036165Y016597D02*
X035240Y016597D01*
X043365Y058672D02*
X043365Y059597D01*
X043590Y059597D02*
X043590Y058672D01*
X103208Y058672D02*
X103208Y059597D01*
X103433Y059597D02*
X103433Y058672D01*
D13*
X067890Y021847D02*
X067890Y021097D01*
X067115Y020322D01*
X065165Y020322D01*
X064315Y019472D01*
X064315Y017597D01*
X067715Y014197D01*
X070440Y014197D01*
X071290Y013347D01*
X071290Y012897D01*
X071665Y012522D01*
X073215Y012522D01*
X070790Y010447D02*
X069140Y010447D01*
X063890Y015697D01*
X063865Y015747D02*
X063790Y015747D01*
X061815Y015847D02*
X061765Y015797D01*
X061815Y015847D02*
X061815Y019297D01*
X064290Y021772D01*
X066015Y021772D01*
X069990Y018722D02*
X071065Y017647D01*
X071065Y016622D01*
X072040Y015647D01*
X073040Y015647D01*
X063815Y012897D02*
X063815Y011922D01*
X062190Y010297D01*
X057515Y010297D01*
X054665Y007447D01*
X070790Y010447D02*
X072365Y008872D01*
X074740Y008872D01*
X076290Y007322D01*
X076465Y007322D01*
D14*
X079921Y010234D03*
X081063Y010234D03*
X066336Y011322D03*
X065195Y011322D03*
X061486Y023347D03*
X060345Y023347D03*
X049361Y023972D03*
X048220Y023972D03*
X028836Y034672D03*
X028836Y035522D03*
X027695Y035522D03*
X027695Y034672D03*
X025986Y034797D03*
X024845Y034797D03*
X016586Y043372D03*
X015445Y043372D03*
X015470Y044472D03*
X016611Y044472D03*
X025695Y049547D03*
X026836Y049547D03*
X026811Y051922D03*
X025670Y051922D03*
X039845Y048097D03*
X040986Y048097D03*
X075312Y044472D03*
X076454Y044472D03*
X076429Y043372D03*
X075287Y043372D03*
X085537Y049547D03*
X086679Y049547D03*
X086654Y051922D03*
X085512Y051922D03*
X099687Y048097D03*
X100829Y048097D03*
X088679Y035522D03*
X088679Y034672D03*
X087537Y034672D03*
X087537Y035522D03*
X085829Y034797D03*
X084687Y034797D03*
D15*
X080800Y030072D03*
X080131Y030072D03*
X078800Y022322D03*
X078131Y022322D03*
X084731Y019622D03*
X085400Y019622D03*
X086806Y019622D03*
X087475Y019622D03*
X087656Y014347D03*
X088325Y014347D03*
X085175Y014347D03*
X084506Y014347D03*
X088506Y009872D03*
X089175Y009872D03*
X090506Y008922D03*
X091175Y008922D03*
X089200Y008697D03*
X088531Y008697D03*
X090506Y007872D03*
X091175Y007872D03*
X091275Y006272D03*
X090606Y006272D03*
X105006Y013797D03*
X105675Y013797D03*
X123531Y015972D03*
X124200Y015972D03*
X108975Y023547D03*
X108306Y023547D03*
X101700Y022922D03*
X101031Y022922D03*
X124256Y024272D03*
X124925Y024272D03*
X077718Y039972D03*
X077048Y039972D03*
X073043Y039247D03*
X072373Y039247D03*
X075048Y046547D03*
X075718Y046547D03*
X082448Y049697D03*
X083118Y049697D03*
X083948Y052547D03*
X084618Y052547D03*
X093198Y053347D03*
X093868Y053347D03*
X093858Y052432D03*
X093858Y051762D03*
X095798Y048797D03*
X096468Y048797D03*
X085718Y057972D03*
X085048Y057972D03*
X080468Y060247D03*
X079798Y060247D03*
X079168Y060247D03*
X078498Y060247D03*
X075418Y061522D03*
X074748Y061522D03*
X036625Y048797D03*
X035956Y048797D03*
X034015Y051762D03*
X034015Y052432D03*
X034025Y053347D03*
X033356Y053347D03*
X024775Y052547D03*
X024106Y052547D03*
X023275Y049697D03*
X022606Y049697D03*
X015875Y046547D03*
X015206Y046547D03*
X017206Y039972D03*
X017875Y039972D03*
X013200Y039247D03*
X012531Y039247D03*
X027231Y029847D03*
X027900Y029847D03*
X033131Y017497D03*
X033800Y017497D03*
X055031Y030172D03*
X055700Y030172D03*
X061531Y030247D03*
X062200Y030247D03*
X025875Y057972D03*
X025206Y057972D03*
X020625Y060247D03*
X019956Y060247D03*
X019325Y060247D03*
X018656Y060247D03*
X015575Y061522D03*
X014906Y061522D03*
D16*
X007315Y059371D03*
X007315Y058623D03*
X017140Y056096D03*
X017140Y055348D03*
X017890Y055348D03*
X017890Y056096D03*
X018665Y056096D03*
X018665Y055348D03*
X019440Y055348D03*
X019440Y056096D03*
X020215Y056096D03*
X020215Y055348D03*
X020990Y055348D03*
X020990Y056096D03*
X021765Y056096D03*
X021765Y055348D03*
X022540Y055348D03*
X022540Y056096D03*
X021490Y053471D03*
X021490Y052723D03*
X021490Y051571D03*
X021490Y050823D03*
X021490Y050026D03*
X021490Y049278D03*
X012190Y049396D03*
X012190Y048648D03*
X014665Y044196D03*
X014665Y043448D03*
X019440Y040571D03*
X019440Y039823D03*
X015715Y038121D03*
X015715Y037373D03*
X015715Y036571D03*
X014890Y036571D03*
X014890Y037373D03*
X014890Y038121D03*
X014090Y038121D03*
X014090Y037373D03*
X013290Y037373D03*
X013290Y038121D03*
X014890Y035823D03*
X015715Y035823D03*
X017790Y036273D03*
X017790Y037021D03*
X027190Y036773D03*
X027190Y037521D03*
X027965Y037521D03*
X027965Y036773D03*
X028740Y036773D03*
X028740Y037521D03*
X029515Y037521D03*
X029515Y036773D03*
X027940Y040948D03*
X027940Y041696D03*
X024540Y043973D03*
X023640Y043973D03*
X023640Y044721D03*
X024540Y044721D03*
X035190Y051073D03*
X035190Y051821D03*
X039540Y049721D03*
X041715Y049846D03*
X041715Y049098D03*
X042490Y049098D03*
X042490Y049846D03*
X042490Y050648D03*
X042490Y051396D03*
X041715Y051396D03*
X041715Y050648D03*
X043265Y051623D03*
X043265Y052371D03*
X044040Y052371D03*
X044040Y051623D03*
X044815Y051623D03*
X044815Y052371D03*
X046990Y052053D03*
X046990Y052722D03*
X046990Y053391D03*
X046565Y051096D03*
X046565Y050348D03*
X039540Y048973D03*
X039665Y054098D03*
X039665Y054846D03*
X040440Y054846D03*
X040440Y054098D03*
X041215Y054098D03*
X041215Y054846D03*
X041990Y054846D03*
X041990Y054098D03*
X038790Y055148D03*
X038790Y055896D03*
X042465Y058873D03*
X042465Y059621D03*
X045715Y059248D03*
X045715Y059996D03*
X046490Y059996D03*
X046490Y059248D03*
X037215Y059123D03*
X037215Y059871D03*
X030215Y056121D03*
X030215Y055373D03*
X029440Y055373D03*
X029440Y056121D03*
X028140Y056121D03*
X028140Y055373D03*
X027365Y055373D03*
X027365Y056121D03*
X023540Y060698D03*
X023540Y061446D03*
X039815Y042796D03*
X039815Y042048D03*
X043065Y040046D03*
X043065Y039298D03*
X047815Y030246D03*
X047815Y029498D03*
X041240Y028471D03*
X041240Y027723D03*
X040465Y027723D03*
X040465Y028471D03*
X054040Y023421D03*
X054040Y022673D03*
X054040Y021871D03*
X054040Y021123D03*
X064715Y024948D03*
X064715Y025696D03*
X079065Y028998D03*
X079065Y029746D03*
X075558Y035823D03*
X074733Y035823D03*
X074733Y036571D03*
X074733Y037373D03*
X074733Y038121D03*
X073933Y038121D03*
X073933Y037373D03*
X073133Y037373D03*
X073133Y038121D03*
X075558Y038121D03*
X075558Y037373D03*
X075558Y036571D03*
X077633Y036273D03*
X077633Y037021D03*
X079283Y039823D03*
X079283Y040571D03*
X083483Y043973D03*
X084383Y043973D03*
X084383Y044721D03*
X083483Y044721D03*
X087783Y041696D03*
X087783Y040948D03*
X087808Y037521D03*
X087808Y036773D03*
X088583Y036773D03*
X088583Y037521D03*
X089358Y037521D03*
X089358Y036773D03*
X087033Y036773D03*
X087033Y037521D03*
X099658Y042048D03*
X099658Y042796D03*
X102908Y040046D03*
X102908Y039298D03*
X099383Y048973D03*
X099383Y049721D03*
X101558Y049846D03*
X101558Y049098D03*
X102333Y049098D03*
X102333Y049846D03*
X102333Y050648D03*
X102333Y051396D03*
X101558Y051396D03*
X101558Y050648D03*
X103108Y051623D03*
X103108Y052371D03*
X103883Y052371D03*
X103883Y051623D03*
X104658Y051623D03*
X104658Y052371D03*
X106408Y051096D03*
X106408Y050348D03*
X106833Y052053D03*
X106833Y052722D03*
X106833Y053391D03*
X101833Y054098D03*
X101833Y054846D03*
X101058Y054846D03*
X101058Y054098D03*
X100283Y054098D03*
X100283Y054846D03*
X099508Y054846D03*
X099508Y054098D03*
X098633Y055148D03*
X098633Y055896D03*
X102308Y058873D03*
X102308Y059621D03*
X105558Y059248D03*
X105558Y059996D03*
X106333Y059996D03*
X106333Y059248D03*
X097058Y059123D03*
X097058Y059871D03*
X090058Y056121D03*
X090058Y055373D03*
X089283Y055373D03*
X089283Y056121D03*
X087983Y056121D03*
X087983Y055373D03*
X087208Y055373D03*
X087208Y056121D03*
X082383Y056096D03*
X082383Y055348D03*
X081608Y055348D03*
X081608Y056096D03*
X080833Y056096D03*
X080833Y055348D03*
X080058Y055348D03*
X080058Y056096D03*
X079283Y056096D03*
X079283Y055348D03*
X078508Y055348D03*
X078508Y056096D03*
X077733Y056096D03*
X077733Y055348D03*
X076983Y055348D03*
X076983Y056096D03*
X081333Y053471D03*
X081333Y052723D03*
X081333Y051571D03*
X081333Y050823D03*
X081333Y050026D03*
X081333Y049278D03*
X072033Y049396D03*
X072033Y048648D03*
X074508Y044196D03*
X074508Y043448D03*
X066808Y039321D03*
X066808Y038573D03*
X066033Y038573D03*
X066033Y039321D03*
X066033Y040123D03*
X066033Y040871D03*
X066033Y037771D03*
X066808Y037771D03*
X066808Y037023D03*
X066033Y037023D03*
X095033Y051073D03*
X095033Y051821D03*
X083383Y060698D03*
X083383Y061446D03*
X067158Y059371D03*
X067158Y058623D03*
X006965Y039321D03*
X006965Y038573D03*
X006190Y038573D03*
X006190Y039321D03*
X006190Y040123D03*
X006190Y040871D03*
X006190Y037771D03*
X006965Y037771D03*
X006965Y037023D03*
X006190Y037023D03*
X030565Y019446D03*
X030565Y018698D03*
X030565Y017896D03*
X030565Y017148D03*
X031515Y014306D03*
X031515Y013558D03*
X035790Y013698D03*
X035790Y014446D03*
X036815Y012146D03*
X036815Y011398D03*
X036815Y010596D03*
X036815Y009848D03*
X037015Y008321D03*
X037015Y007573D03*
X037015Y006771D03*
X037015Y006023D03*
X051115Y005646D03*
X051115Y004898D03*
X058690Y004898D03*
X058690Y005646D03*
X066290Y005646D03*
X066290Y004898D03*
X073440Y004898D03*
X073440Y005646D03*
X065390Y009654D03*
X065390Y010402D03*
X075165Y011773D03*
X075165Y012521D03*
X075165Y013323D03*
X075165Y014071D03*
X094790Y005721D03*
X095565Y005721D03*
X095565Y004973D03*
X094790Y004973D03*
X104140Y013798D03*
X104140Y014546D03*
X101690Y014823D03*
X101690Y015571D03*
X100915Y015571D03*
X100915Y014823D03*
X100140Y014823D03*
X100140Y015571D03*
X098965Y015571D03*
X098965Y014823D03*
X098190Y014823D03*
X098190Y015571D03*
X097415Y015571D03*
X097415Y014823D03*
X109990Y014646D03*
X109990Y013898D03*
X114090Y013603D03*
X114090Y014272D03*
X114090Y014941D03*
X119665Y015222D03*
X119665Y014553D03*
X119665Y015891D03*
X119665Y016878D03*
X119665Y017547D03*
X119665Y018216D03*
X119665Y019353D03*
X119665Y020022D03*
X119665Y020691D03*
X119815Y022448D03*
X119815Y023196D03*
X123165Y023421D03*
X123165Y022673D03*
X122940Y025953D03*
X122940Y026622D03*
X122940Y027291D03*
X040390Y017696D03*
X037940Y017773D03*
X037940Y018521D03*
X040390Y016948D03*
X019890Y011971D03*
X019890Y011223D03*
D17*
X024841Y005822D03*
X025589Y005822D03*
X038066Y010097D03*
X038814Y010097D03*
X038814Y010872D03*
X038066Y010872D03*
X034989Y012747D03*
X034241Y012747D03*
X034241Y013522D03*
X034989Y013522D03*
X034989Y014322D03*
X034241Y014322D03*
X033064Y014322D03*
X032316Y014322D03*
X032316Y013547D03*
X033064Y013547D03*
X030714Y013222D03*
X029966Y013222D03*
X029966Y013997D03*
X030714Y013997D03*
X030714Y014772D03*
X029966Y014772D03*
X035516Y017347D03*
X036264Y017347D03*
X041441Y008422D03*
X042189Y008422D03*
X075366Y019772D03*
X076114Y019772D03*
X076916Y019772D03*
X077664Y019772D03*
X077941Y023247D03*
X078689Y023247D03*
X078689Y024022D03*
X077941Y024022D03*
X077114Y024022D03*
X076366Y024022D03*
X082816Y023022D03*
X083564Y023022D03*
X083189Y027322D03*
X082441Y027322D03*
X082116Y029147D03*
X082864Y029147D03*
X075864Y028597D03*
X075116Y028597D03*
X067114Y029447D03*
X066366Y029447D03*
X070934Y036797D03*
X071682Y036797D03*
X069982Y037772D03*
X069234Y037772D03*
X069234Y038547D03*
X069982Y038547D03*
X072184Y040035D03*
X072932Y040035D03*
X072938Y040816D03*
X072190Y040816D03*
X073784Y041447D03*
X074532Y041447D03*
X075334Y041447D03*
X076082Y041447D03*
X077159Y041529D03*
X077907Y041529D03*
X077907Y040747D03*
X077159Y040747D03*
X072928Y042523D03*
X072180Y042523D03*
X072157Y043297D03*
X071409Y043297D03*
X071582Y044197D03*
X070834Y044197D03*
X072384Y044197D03*
X073132Y044197D03*
X072959Y043297D03*
X073707Y043297D03*
X075463Y045291D03*
X076211Y045291D03*
X077559Y046247D03*
X078307Y046247D03*
X078132Y048822D03*
X077384Y048822D03*
X076357Y048822D03*
X075609Y048822D03*
X075609Y049972D03*
X076357Y049972D03*
X076357Y050822D03*
X075609Y050822D03*
X075609Y051667D03*
X076357Y051667D03*
X076357Y052647D03*
X075609Y052647D03*
X075609Y053497D03*
X076357Y053497D03*
X077384Y053497D03*
X078132Y053497D03*
X079359Y053497D03*
X080107Y053497D03*
X080107Y052647D03*
X079359Y052647D03*
X078132Y052647D03*
X077384Y052647D03*
X077384Y051667D03*
X078132Y051667D03*
X078132Y050822D03*
X077384Y050822D03*
X077384Y049971D03*
X078132Y049971D03*
X079359Y049972D03*
X080107Y049972D03*
X080107Y050822D03*
X079359Y050822D03*
X079359Y049047D03*
X080107Y049047D03*
X085659Y050372D03*
X086407Y050372D03*
X086407Y051147D03*
X085659Y051147D03*
X085859Y052722D03*
X086607Y052722D03*
X090884Y051997D03*
X091632Y051997D03*
X091632Y051222D03*
X090884Y051222D03*
X089482Y050222D03*
X088734Y050222D03*
X088734Y049447D03*
X089482Y049447D03*
X098309Y046822D03*
X099057Y046822D03*
X099057Y046022D03*
X098309Y046022D03*
X093757Y044672D03*
X093009Y044672D03*
X092207Y044672D03*
X091459Y044672D03*
X090207Y044672D03*
X089459Y044672D03*
X088657Y044672D03*
X087909Y044672D03*
X086507Y045197D03*
X085759Y045197D03*
X085207Y042972D03*
X084459Y042972D03*
X090484Y037847D03*
X091232Y037847D03*
X092034Y037847D03*
X092782Y037847D03*
X092782Y037072D03*
X092034Y037072D03*
X091232Y037072D03*
X090484Y037072D03*
X083682Y034772D03*
X082934Y034772D03*
X097984Y041622D03*
X098732Y041622D03*
X098732Y042472D03*
X097984Y042472D03*
X098734Y040697D03*
X099482Y040697D03*
X099482Y039847D03*
X098734Y039847D03*
X107934Y040972D03*
X108682Y040972D03*
X115434Y043272D03*
X116182Y043272D03*
X105207Y047297D03*
X104459Y047297D03*
X109684Y050247D03*
X110432Y050247D03*
X103857Y050822D03*
X103109Y050822D03*
X105984Y055622D03*
X106732Y055622D03*
X106732Y056397D03*
X105984Y056397D03*
X105984Y057372D03*
X106732Y057372D03*
X106732Y058147D03*
X105984Y058147D03*
X107534Y058147D03*
X108282Y058147D03*
X107882Y059147D03*
X107134Y059147D03*
X105932Y060872D03*
X105184Y060872D03*
X102082Y061797D03*
X101334Y061797D03*
X096857Y061247D03*
X096109Y061247D03*
X093457Y061272D03*
X092709Y061272D03*
X091907Y061272D03*
X091159Y061272D03*
X092259Y057922D03*
X093007Y057922D03*
X093307Y056422D03*
X092559Y056422D03*
X080457Y061022D03*
X079709Y061022D03*
X078907Y061022D03*
X078159Y061022D03*
X071002Y056222D03*
X070333Y056222D03*
X069664Y056222D03*
X069309Y055272D03*
X070057Y055272D03*
X070259Y053547D03*
X071007Y053547D03*
X071007Y052772D03*
X070259Y052772D03*
X070484Y051247D03*
X071232Y051247D03*
X071232Y050197D03*
X070484Y050197D03*
X070484Y049422D03*
X071232Y049422D03*
X056339Y043272D03*
X055591Y043272D03*
X048839Y040972D03*
X048091Y040972D03*
X039639Y040697D03*
X038891Y040697D03*
X038891Y039847D03*
X039639Y039847D03*
X038889Y041622D03*
X038141Y041622D03*
X038141Y042472D03*
X038889Y042472D03*
X033914Y044672D03*
X033166Y044672D03*
X032364Y044672D03*
X031616Y044672D03*
X030364Y044672D03*
X029616Y044672D03*
X028814Y044672D03*
X028066Y044672D03*
X026664Y045197D03*
X025916Y045197D03*
X025364Y042972D03*
X024616Y042972D03*
X018064Y041529D03*
X017316Y041529D03*
X016239Y041447D03*
X015491Y041447D03*
X014689Y041447D03*
X013941Y041447D03*
X013096Y040816D03*
X012348Y040816D03*
X012341Y040035D03*
X013089Y040035D03*
X010139Y038547D03*
X009391Y038547D03*
X009391Y037772D03*
X010139Y037772D03*
X011091Y036797D03*
X011839Y036797D03*
X017316Y040747D03*
X018064Y040747D03*
X013864Y043297D03*
X013116Y043297D03*
X013085Y042523D03*
X012337Y042523D03*
X012314Y043297D03*
X011566Y043297D03*
X011739Y044197D03*
X010991Y044197D03*
X012541Y044197D03*
X013289Y044197D03*
X015620Y045291D03*
X016369Y045291D03*
X017716Y046247D03*
X018464Y046247D03*
X018289Y048822D03*
X017541Y048822D03*
X016514Y048822D03*
X015766Y048822D03*
X015766Y049972D03*
X016514Y049972D03*
X016514Y050822D03*
X015766Y050822D03*
X017541Y050822D03*
X018289Y050822D03*
X018289Y049971D03*
X017541Y049971D03*
X019516Y049972D03*
X020264Y049972D03*
X020264Y050822D03*
X019516Y050822D03*
X018289Y051667D03*
X017541Y051667D03*
X017541Y052647D03*
X018289Y052647D03*
X019516Y052647D03*
X020264Y052647D03*
X020264Y053497D03*
X019516Y053497D03*
X018289Y053497D03*
X017541Y053497D03*
X016514Y053497D03*
X015766Y053497D03*
X015766Y052647D03*
X016514Y052647D03*
X016514Y051667D03*
X015766Y051667D03*
X011389Y051247D03*
X010641Y051247D03*
X010641Y050197D03*
X011389Y050197D03*
X011389Y049422D03*
X010641Y049422D03*
X010416Y052772D03*
X011164Y052772D03*
X011164Y053547D03*
X010416Y053547D03*
X010214Y055272D03*
X009466Y055272D03*
X009821Y056222D03*
X010490Y056222D03*
X011160Y056222D03*
X018316Y061022D03*
X019064Y061022D03*
X019866Y061022D03*
X020614Y061022D03*
X031316Y061272D03*
X032064Y061272D03*
X032866Y061272D03*
X033614Y061272D03*
X036266Y061247D03*
X037014Y061247D03*
X041491Y061797D03*
X042239Y061797D03*
X045341Y060872D03*
X046089Y060872D03*
X047291Y059147D03*
X048039Y059147D03*
X047691Y058147D03*
X048439Y058147D03*
X046889Y058147D03*
X046141Y058147D03*
X046141Y057372D03*
X046889Y057372D03*
X046889Y056397D03*
X046141Y056397D03*
X046141Y055622D03*
X046889Y055622D03*
X044014Y050822D03*
X043266Y050822D03*
X049841Y050247D03*
X050589Y050247D03*
X045364Y047297D03*
X044616Y047297D03*
X039214Y046822D03*
X038466Y046822D03*
X038466Y046022D03*
X039214Y046022D03*
X031789Y051222D03*
X031041Y051222D03*
X031041Y051997D03*
X031789Y051997D03*
X029639Y050222D03*
X028891Y050222D03*
X028891Y049447D03*
X029639Y049447D03*
X026564Y050372D03*
X025816Y050372D03*
X025816Y051147D03*
X026564Y051147D03*
X026764Y052722D03*
X026016Y052722D03*
X020264Y049047D03*
X019516Y049047D03*
X032716Y056422D03*
X033464Y056422D03*
X033164Y057922D03*
X032416Y057922D03*
X032191Y037847D03*
X032939Y037847D03*
X031389Y037847D03*
X030641Y037847D03*
X030641Y037072D03*
X031389Y037072D03*
X032191Y037072D03*
X032939Y037072D03*
X023839Y034772D03*
X023091Y034772D03*
X022389Y029297D03*
X021641Y029297D03*
X021641Y028522D03*
X022389Y028522D03*
X081866Y008497D03*
X082614Y008497D03*
X086791Y008222D03*
X087539Y008222D03*
X087539Y008997D03*
X086791Y008997D03*
X086791Y009772D03*
X087539Y009772D03*
X087539Y010547D03*
X086791Y010547D03*
X086791Y011322D03*
X087539Y011322D03*
X087539Y012097D03*
X086791Y012097D03*
X090416Y007097D03*
X091164Y007097D03*
X089339Y005447D03*
X088591Y005447D03*
X088591Y004672D03*
X089339Y004672D03*
X098191Y004847D03*
X098939Y004847D03*
X098939Y010897D03*
X098191Y010897D03*
X105116Y014572D03*
X105864Y014572D03*
X110841Y015797D03*
X111589Y015797D03*
X112466Y015797D03*
X113214Y015797D03*
X123466Y015097D03*
X124214Y015097D03*
X124214Y014022D03*
X123466Y014022D03*
X118189Y027397D03*
X117441Y027397D03*
D18*
X105258Y038921D03*
X103983Y038921D03*
X103983Y040023D03*
X105258Y040023D03*
X105858Y043121D03*
X104583Y043121D03*
X103308Y043121D03*
X103308Y044223D03*
X104583Y044223D03*
X105858Y044223D03*
X095933Y059096D03*
X095933Y060198D03*
X087508Y059946D03*
X087508Y061048D03*
X046015Y044223D03*
X044740Y044223D03*
X043465Y044223D03*
X043465Y043121D03*
X044740Y043121D03*
X046015Y043121D03*
X045415Y040023D03*
X044140Y040023D03*
X044140Y038921D03*
X045415Y038921D03*
X036090Y059096D03*
X036090Y060198D03*
X027665Y059946D03*
X027665Y061048D03*
X031640Y018148D03*
X031640Y017046D03*
D19*
X024395Y057692D03*
X024395Y057942D03*
X024395Y058202D03*
X024395Y058452D03*
X022635Y058452D03*
X022635Y058202D03*
X022635Y057942D03*
X022635Y057692D03*
X082478Y057692D03*
X082478Y057942D03*
X082478Y058202D03*
X082478Y058452D03*
X084238Y058452D03*
X084238Y058202D03*
X084238Y057942D03*
X084238Y057692D03*
D20*
X084458Y057207D03*
X084458Y056537D03*
X086758Y054282D03*
X086758Y053612D03*
X090883Y053537D03*
X090883Y054207D03*
X094348Y049297D03*
X095018Y049297D03*
X105433Y051512D03*
X105433Y052182D03*
X102358Y056412D03*
X102358Y057082D03*
X094308Y059387D03*
X094308Y060057D03*
X090343Y061222D03*
X089673Y061222D03*
X080983Y058632D03*
X080983Y057962D03*
X071408Y045957D03*
X071408Y045287D03*
X045590Y051512D03*
X045590Y052182D03*
X042515Y056412D03*
X042515Y057082D03*
X034465Y059387D03*
X034465Y060057D03*
X030500Y061222D03*
X029831Y061222D03*
X024615Y057207D03*
X024615Y056537D03*
X026915Y054282D03*
X026915Y053612D03*
X031040Y053537D03*
X031040Y054207D03*
X021140Y057962D03*
X021140Y058632D03*
X034506Y049297D03*
X035175Y049297D03*
X011565Y045957D03*
X011565Y045287D03*
X021081Y030497D03*
X021750Y030497D03*
X022315Y027382D03*
X022315Y026712D03*
X021540Y026707D03*
X021540Y026037D03*
X022331Y025397D03*
X023000Y025397D03*
X015890Y026037D03*
X015890Y026707D03*
X015115Y026687D03*
X015115Y027357D03*
X038731Y030472D03*
X039400Y030472D03*
X055065Y027807D03*
X055065Y027137D03*
X061490Y027337D03*
X061490Y028007D03*
X072006Y029497D03*
X072675Y029497D03*
X084290Y027157D03*
X084290Y026487D03*
X103365Y014532D03*
X103365Y013862D03*
X108165Y013937D03*
X108165Y014607D03*
X109215Y014607D03*
X109215Y013937D03*
X117990Y014787D03*
X117990Y015457D03*
X096465Y007432D03*
X096465Y006762D03*
X093940Y005632D03*
X093940Y004962D03*
X093165Y004962D03*
X093165Y005632D03*
X092390Y005632D03*
X092390Y004962D03*
D21*
X080369Y057270D03*
X080113Y057270D03*
X079857Y057270D03*
X079601Y057270D03*
X079345Y057270D03*
X079089Y057270D03*
X078833Y057270D03*
X078577Y057270D03*
X078577Y059474D03*
X078833Y059474D03*
X079089Y059474D03*
X079345Y059474D03*
X079601Y059474D03*
X079857Y059474D03*
X080113Y059474D03*
X080369Y059474D03*
X020526Y059474D03*
X020270Y059474D03*
X020014Y059474D03*
X019759Y059474D03*
X019503Y059474D03*
X019247Y059474D03*
X018991Y059474D03*
X018735Y059474D03*
X018735Y057270D03*
X018991Y057270D03*
X019247Y057270D03*
X019503Y057270D03*
X019759Y057270D03*
X020014Y057270D03*
X020270Y057270D03*
X020526Y057270D03*
D22*
X014920Y057447D03*
X014920Y056947D03*
X014920Y057947D03*
X014920Y058447D03*
X014920Y058947D03*
X014920Y059447D03*
X014920Y059947D03*
X014920Y060447D03*
X014920Y060947D03*
X011160Y060947D03*
X011160Y060447D03*
X011160Y059947D03*
X011160Y059447D03*
X011160Y058947D03*
X011160Y058447D03*
X011160Y057947D03*
X011160Y057447D03*
X011160Y056947D03*
X071003Y056947D03*
X071003Y057447D03*
X071003Y057947D03*
X071003Y058447D03*
X071003Y058947D03*
X071003Y059447D03*
X071003Y059947D03*
X071003Y060447D03*
X071003Y060947D03*
X074763Y060947D03*
X074763Y060447D03*
X074763Y059947D03*
X074763Y059447D03*
X074763Y058947D03*
X074763Y058447D03*
X074763Y057947D03*
X074763Y057447D03*
X074763Y056947D03*
D23*
X081273Y061022D03*
X082393Y061022D03*
X102898Y061797D03*
X104018Y061797D03*
X105998Y040972D03*
X107118Y040972D03*
X047275Y040972D03*
X046156Y040972D03*
X022550Y061022D03*
X021431Y061022D03*
X043056Y061797D03*
X044175Y061797D03*
D24*
X034452Y040015D02*
X034452Y039130D01*
X032252Y039130D02*
X032252Y040015D01*
X030052Y040015D02*
X030052Y039130D01*
X089895Y039130D02*
X089895Y040015D01*
X092095Y040015D02*
X092095Y039130D01*
X094295Y039130D02*
X094295Y040015D01*
D25*
X092095Y047173D03*
X032252Y047173D03*
D26*
X026865Y042593D03*
X026865Y041451D03*
X026815Y039968D03*
X026815Y038826D03*
X019365Y041376D03*
X019365Y042518D03*
X042140Y028793D03*
X042140Y027651D03*
X079208Y041376D03*
X079208Y042518D03*
X086708Y042593D03*
X086708Y041451D03*
X086658Y039968D03*
X086658Y038826D03*
X109740Y023418D03*
X109740Y022276D03*
D27*
X090473Y034212D03*
X090473Y035122D03*
X090473Y036032D03*
X082068Y043312D03*
X082068Y044222D03*
X082068Y045132D03*
X030630Y036032D03*
X030630Y035122D03*
X030630Y034212D03*
X022225Y043312D03*
X022225Y044222D03*
X022225Y045132D03*
D28*
X019955Y044222D03*
X032900Y035122D03*
X079798Y044222D03*
X092743Y035122D03*
D29*
X076171Y039224D03*
X076171Y039724D03*
X076171Y040224D03*
X076171Y040724D03*
X074045Y040724D03*
X074045Y040224D03*
X074045Y039724D03*
X074045Y039224D03*
X074371Y044999D03*
X074371Y045499D03*
X074371Y045999D03*
X074371Y046499D03*
X072245Y046499D03*
X072245Y045999D03*
X072245Y045499D03*
X072245Y044999D03*
X082545Y050374D03*
X082545Y050874D03*
X082545Y051374D03*
X082545Y051874D03*
X084671Y051874D03*
X084671Y051374D03*
X084671Y050874D03*
X084671Y050374D03*
X091845Y054099D03*
X091845Y054599D03*
X091845Y055099D03*
X091845Y055599D03*
X093971Y055599D03*
X093971Y055099D03*
X093971Y054599D03*
X093971Y054099D03*
X034128Y054099D03*
X034128Y054599D03*
X034128Y055099D03*
X034128Y055599D03*
X032002Y055599D03*
X032002Y055099D03*
X032002Y054599D03*
X032002Y054099D03*
X024828Y051874D03*
X024828Y051374D03*
X024828Y050874D03*
X024828Y050374D03*
X022702Y050374D03*
X022702Y050874D03*
X022702Y051374D03*
X022702Y051874D03*
X014528Y046499D03*
X014528Y045999D03*
X014528Y045499D03*
X014528Y044999D03*
X012402Y044999D03*
X012402Y045499D03*
X012402Y045999D03*
X012402Y046499D03*
X014202Y040724D03*
X014202Y040224D03*
X014202Y039724D03*
X014202Y039224D03*
X016328Y039224D03*
X016328Y039724D03*
X016328Y040224D03*
X016328Y040724D03*
D30*
X018865Y037105D03*
X018491Y036239D03*
X019239Y036239D03*
X028290Y042989D03*
X027916Y043855D03*
X028664Y043855D03*
X029591Y043830D03*
X030339Y043830D03*
X029965Y042964D03*
X031441Y043805D03*
X032189Y043805D03*
X031815Y042939D03*
X040291Y048914D03*
X041039Y048914D03*
X040665Y049780D03*
X070084Y048480D03*
X070832Y048480D03*
X070458Y047614D03*
X070834Y054489D03*
X071582Y054489D03*
X071208Y055355D03*
X087759Y043855D03*
X088507Y043855D03*
X089434Y043830D03*
X090182Y043830D03*
X089808Y042964D03*
X088133Y042989D03*
X091284Y043805D03*
X092032Y043805D03*
X091658Y042939D03*
X100134Y048914D03*
X100882Y048914D03*
X100508Y049780D03*
X078708Y037105D03*
X079082Y036239D03*
X078334Y036239D03*
X010989Y048480D03*
X010241Y048480D03*
X010615Y047614D03*
X010991Y054489D03*
X011739Y054489D03*
X011365Y055355D03*
D31*
X028848Y039871D03*
X028848Y039123D03*
X027982Y039497D03*
X021382Y034796D03*
X021382Y034048D03*
X022248Y034422D03*
X011848Y037623D03*
X010982Y037997D03*
X011848Y038371D03*
X008648Y037397D03*
X007782Y037023D03*
X007782Y037771D03*
X067625Y037771D03*
X068491Y037397D03*
X067625Y037023D03*
X070825Y037997D03*
X071691Y037623D03*
X071691Y038371D03*
X081225Y034796D03*
X081225Y034048D03*
X082091Y034422D03*
X087825Y039497D03*
X088691Y039123D03*
X088691Y039871D03*
X077973Y028921D03*
X077973Y028173D03*
X077107Y028547D03*
D32*
X076335Y034522D03*
X074131Y034522D03*
X080056Y037997D03*
X082260Y037997D03*
X081731Y036172D03*
X083935Y036172D03*
X103506Y045947D03*
X105710Y045947D03*
X045868Y045947D03*
X043663Y045947D03*
X024093Y036172D03*
X021888Y036172D03*
X022418Y037997D03*
X020213Y037997D03*
X016493Y034522D03*
X014288Y034522D03*
D33*
X033540Y042947D03*
X033140Y043797D03*
X033940Y043797D03*
X040240Y050522D03*
X041040Y050522D03*
X040640Y051372D03*
X092983Y043797D03*
X093783Y043797D03*
X093383Y042947D03*
X100083Y050522D03*
X100883Y050522D03*
X100483Y051372D03*
X110790Y014897D03*
X111590Y014897D03*
X112440Y014947D03*
X113240Y014947D03*
X112840Y014097D03*
X111190Y014047D03*
D34*
X123470Y013252D03*
X124210Y013252D03*
X123840Y012392D03*
X082610Y009317D03*
X081870Y009317D03*
X082240Y010177D03*
X086133Y043567D03*
X086503Y044427D03*
X085763Y044427D03*
X026660Y044427D03*
X025920Y044427D03*
X026290Y043567D03*
D35*
X021072Y041255D03*
X021072Y039455D03*
X046895Y045597D03*
X046895Y047397D03*
X080914Y041255D03*
X080914Y039455D03*
X106738Y045597D03*
X106738Y047397D03*
D36*
X109318Y046497D03*
X083494Y040355D03*
X049475Y046497D03*
X023652Y040355D03*
D37*
X036139Y039572D03*
X037242Y039572D03*
X058564Y041947D03*
X059667Y041947D03*
X043917Y053947D03*
X042814Y053947D03*
X042814Y054822D03*
X043917Y054822D03*
X026442Y058797D03*
X025339Y058797D03*
X085182Y058797D03*
X086284Y058797D03*
X102657Y054822D03*
X103759Y054822D03*
X103759Y053947D03*
X102657Y053947D03*
X118407Y041947D03*
X119509Y041947D03*
X097084Y039572D03*
X095982Y039572D03*
X091517Y005322D03*
X090414Y005322D03*
D38*
X115095Y014197D03*
X115095Y014697D03*
X115095Y015197D03*
X115095Y015697D03*
X117035Y015697D03*
X117035Y015197D03*
X117035Y014697D03*
X117035Y014197D03*
X101810Y020697D03*
X101810Y021197D03*
X101810Y021697D03*
X101810Y022197D03*
X099870Y022197D03*
X099870Y021697D03*
X099870Y021197D03*
X099870Y020697D03*
X081610Y022397D03*
X081610Y022897D03*
X081610Y023397D03*
X081610Y023897D03*
X079670Y023897D03*
X079670Y023397D03*
X079670Y022897D03*
X079670Y022397D03*
X020540Y026172D03*
X020540Y026672D03*
X020540Y027172D03*
X020540Y027672D03*
X020540Y028172D03*
X020540Y028672D03*
X020540Y029172D03*
X020540Y029672D03*
X016840Y029672D03*
X016840Y029172D03*
X016840Y028672D03*
X016840Y028172D03*
X016840Y027672D03*
X016840Y027172D03*
X016840Y026672D03*
X016840Y026172D03*
X031620Y058747D03*
X031620Y059247D03*
X031620Y059747D03*
X031620Y060247D03*
X033560Y060247D03*
X033560Y059747D03*
X033560Y059247D03*
X033560Y058747D03*
X026485Y060047D03*
X026485Y060547D03*
X026485Y061047D03*
X026485Y061547D03*
X024545Y061547D03*
X024545Y061047D03*
X024545Y060547D03*
X024545Y060047D03*
X084388Y060047D03*
X084388Y060547D03*
X084388Y061047D03*
X084388Y061547D03*
X086328Y061547D03*
X086328Y061047D03*
X086328Y060547D03*
X086328Y060047D03*
X091463Y060247D03*
X091463Y059747D03*
X091463Y059247D03*
X091463Y058747D03*
X093403Y058747D03*
X093403Y059247D03*
X093403Y059747D03*
X093403Y060247D03*
D39*
X068265Y053988D03*
X037556Y028746D03*
X057351Y012011D03*
X073493Y024067D03*
X101140Y006697D03*
X123990Y025272D03*
X008422Y053988D03*
D40*
X008422Y052988D03*
X009422Y052988D03*
X009422Y053988D03*
X009422Y051988D03*
X008422Y051988D03*
X008422Y050988D03*
X009422Y050988D03*
X009422Y049988D03*
X008422Y049988D03*
X008422Y048988D03*
X008422Y047988D03*
X009422Y047988D03*
X009422Y048988D03*
X009422Y046988D03*
X008422Y046988D03*
X008422Y045988D03*
X009422Y045988D03*
X009422Y044988D03*
X008422Y044988D03*
X008422Y043988D03*
X008422Y042988D03*
X009422Y042988D03*
X009422Y043988D03*
X009422Y041988D03*
X008422Y041988D03*
X014365Y031472D03*
X015365Y031472D03*
X016365Y031472D03*
X017365Y031472D03*
X018365Y031472D03*
X021740Y031472D03*
X022740Y031472D03*
X023740Y031472D03*
X024740Y031472D03*
X025740Y031472D03*
X032515Y031472D03*
X033515Y031472D03*
X034515Y031472D03*
X035515Y031472D03*
X036515Y031472D03*
X037515Y031472D03*
X038515Y031472D03*
X039515Y031472D03*
X057351Y024011D03*
X058351Y024011D03*
X058351Y023011D03*
X057351Y023011D03*
X057351Y022011D03*
X057351Y021011D03*
X058351Y021011D03*
X058351Y022011D03*
X058351Y020011D03*
X057351Y020011D03*
X057351Y019011D03*
X058351Y019011D03*
X058351Y018011D03*
X057351Y018011D03*
X057351Y017011D03*
X058351Y017011D03*
X058351Y016011D03*
X057351Y016011D03*
X057351Y015011D03*
X057351Y014011D03*
X058351Y014011D03*
X058351Y015011D03*
X058351Y013011D03*
X057351Y013011D03*
X058351Y012011D03*
X072493Y012067D03*
X072493Y013067D03*
X073493Y013067D03*
X073493Y012067D03*
X073493Y014067D03*
X073493Y015067D03*
X072493Y015067D03*
X072493Y014067D03*
X072493Y016067D03*
X073493Y016067D03*
X073493Y017067D03*
X073493Y018067D03*
X072493Y018067D03*
X072493Y017067D03*
X072493Y019067D03*
X072493Y020067D03*
X073493Y020067D03*
X073493Y019067D03*
X073493Y021067D03*
X072493Y021067D03*
X072493Y022067D03*
X072493Y023067D03*
X073493Y023067D03*
X073493Y022067D03*
X072493Y024067D03*
X084390Y012697D03*
X084390Y011697D03*
X084390Y010697D03*
X084390Y009697D03*
X084390Y008697D03*
X084390Y007697D03*
X084390Y006697D03*
X084390Y005697D03*
X100140Y006697D03*
X100140Y007697D03*
X100140Y008697D03*
X101140Y008697D03*
X101140Y007697D03*
X101140Y009697D03*
X100140Y009697D03*
X100140Y010697D03*
X101140Y010697D03*
X124990Y025272D03*
X124990Y026272D03*
X123990Y026272D03*
X123990Y027272D03*
X123990Y028272D03*
X124990Y028272D03*
X124990Y027272D03*
X069265Y041988D03*
X068265Y041988D03*
X068265Y042988D03*
X068265Y043988D03*
X069265Y043988D03*
X069265Y042988D03*
X069265Y044988D03*
X068265Y044988D03*
X068265Y045988D03*
X068265Y046988D03*
X069265Y046988D03*
X069265Y045988D03*
X069265Y047988D03*
X069265Y048988D03*
X068265Y048988D03*
X068265Y047988D03*
X068265Y049988D03*
X069265Y049988D03*
X069265Y050988D03*
X069265Y051988D03*
X068265Y051988D03*
X068265Y050988D03*
X068265Y052988D03*
X069265Y052988D03*
X069265Y053988D03*
D41*
X050289Y042797D03*
X110132Y042797D03*
D42*
X107597Y041897D03*
X107597Y043697D03*
X047754Y043697D03*
X047754Y041897D03*
D43*
X058490Y043171D03*
X059740Y043171D03*
X059740Y044273D03*
X058490Y044273D03*
X046465Y048246D03*
X046465Y049348D03*
X030490Y058446D03*
X030490Y059548D03*
X090333Y059548D03*
X090333Y058446D03*
X106308Y049348D03*
X106308Y048246D03*
X118333Y044273D03*
X119583Y044273D03*
X119583Y043171D03*
X118333Y043171D03*
D44*
X101333Y043937D03*
X101333Y041957D03*
X101333Y040887D03*
X101333Y038907D03*
X041490Y038907D03*
X041490Y040887D03*
X041490Y041957D03*
X041490Y043937D03*
D45*
X044349Y048217D03*
X044605Y048217D03*
X044860Y048217D03*
X045120Y048217D03*
X045376Y048217D03*
X045632Y048217D03*
X045632Y049977D03*
X045376Y049977D03*
X045120Y049977D03*
X044860Y049977D03*
X044605Y049977D03*
X044349Y049977D03*
X104191Y049977D03*
X104447Y049977D03*
X104703Y049977D03*
X104963Y049977D03*
X105219Y049977D03*
X105475Y049977D03*
X105475Y048217D03*
X105219Y048217D03*
X104963Y048217D03*
X104703Y048217D03*
X104447Y048217D03*
X104191Y048217D03*
D46*
X104833Y049097D03*
X044990Y049097D03*
D47*
X037465Y053947D03*
X035565Y053947D03*
X035565Y057072D03*
X037465Y057072D03*
X095408Y057072D03*
X097308Y057072D03*
X097308Y053947D03*
X095408Y053947D03*
X042765Y014147D03*
X040865Y014147D03*
D48*
X031142Y015997D03*
X030039Y015997D03*
X029839Y021772D03*
X030942Y021772D03*
X030942Y023147D03*
X029839Y023147D03*
X065914Y028147D03*
X067017Y028147D03*
X115689Y029372D03*
X116792Y029372D03*
X105984Y054397D03*
X104882Y054397D03*
X099634Y056972D03*
X098532Y056972D03*
X046142Y054397D03*
X045039Y054397D03*
X039792Y056972D03*
X038689Y056972D03*
D49*
X056315Y057637D03*
X056315Y058757D03*
X116158Y058757D03*
X116158Y057637D03*
X037940Y016957D03*
X037940Y015837D03*
X123840Y011582D03*
X123840Y010462D03*
D50*
X095296Y061247D03*
X094470Y061247D03*
X035454Y061247D03*
X034627Y061247D03*
D51*
X038165Y060495D03*
X038165Y058999D03*
X042642Y060497D03*
X044138Y060497D03*
X033140Y052495D03*
X033140Y050999D03*
X035140Y048370D03*
X035140Y046874D03*
X072067Y028597D03*
X073563Y028597D03*
X039615Y013070D03*
X039615Y011574D03*
X037065Y015899D03*
X037065Y017395D03*
X094983Y046874D03*
X094983Y048370D03*
X092983Y050999D03*
X092983Y052495D03*
X098008Y058999D03*
X098008Y060495D03*
X102485Y060497D03*
X103981Y060497D03*
D52*
X103963Y058667D03*
X104213Y058667D03*
X104473Y058667D03*
X104733Y058667D03*
X103703Y058667D03*
X103453Y058667D03*
X103193Y058667D03*
X102933Y058667D03*
X102933Y056427D03*
X103193Y056427D03*
X103453Y056427D03*
X103703Y056427D03*
X103963Y056427D03*
X104213Y056427D03*
X104473Y056427D03*
X104733Y056427D03*
X044890Y056427D03*
X044630Y056427D03*
X044370Y056427D03*
X044120Y056427D03*
X043860Y056427D03*
X043610Y056427D03*
X043350Y056427D03*
X043090Y056427D03*
X043090Y058667D03*
X043350Y058667D03*
X043610Y058667D03*
X043860Y058667D03*
X044120Y058667D03*
X044370Y058667D03*
X044630Y058667D03*
X044890Y058667D03*
D53*
X058339Y054297D03*
X058314Y047147D03*
X118157Y047147D03*
X118182Y054297D03*
D54*
X121134Y054297D03*
X121109Y047147D03*
X061267Y047147D03*
X061292Y054297D03*
D55*
X054315Y053398D03*
X051065Y053398D03*
X051065Y057823D03*
X054315Y057823D03*
X110908Y057823D03*
X114158Y057823D03*
X114158Y053398D03*
X110908Y053398D03*
D56*
X111808Y055933D03*
X113258Y055933D03*
X115058Y055933D03*
X110008Y055933D03*
X110008Y060358D03*
X111808Y060358D03*
X113258Y060358D03*
X115058Y060358D03*
X055215Y060358D03*
X053416Y060358D03*
X051965Y060358D03*
X050166Y060358D03*
X050166Y055933D03*
X051965Y055933D03*
X053416Y055933D03*
X055215Y055933D03*
D57*
X037417Y051760D03*
X036917Y051760D03*
X036417Y051760D03*
X035917Y051760D03*
X035917Y049634D03*
X036417Y049634D03*
X036917Y049634D03*
X037417Y049634D03*
X095760Y049634D03*
X096260Y049634D03*
X096760Y049634D03*
X097260Y049634D03*
X097260Y051760D03*
X096760Y051760D03*
X096260Y051760D03*
X095760Y051760D03*
D58*
X084703Y054587D03*
X084703Y054847D03*
X084703Y055107D03*
X083963Y055107D03*
X083963Y054847D03*
X083963Y054587D03*
X024860Y054587D03*
X024860Y054847D03*
X024860Y055107D03*
X024120Y055107D03*
X024120Y054847D03*
X024120Y054587D03*
X075770Y023332D03*
X075770Y023072D03*
X075770Y022812D03*
X076510Y022812D03*
X076510Y023072D03*
X076510Y023332D03*
D59*
X073503Y051237D03*
X073133Y051237D03*
X072763Y051237D03*
X072763Y052257D03*
X073133Y052257D03*
X073503Y052257D03*
X013660Y052257D03*
X013290Y052257D03*
X012920Y052257D03*
X012920Y051237D03*
X013290Y051237D03*
X013660Y051237D03*
D60*
X028045Y051497D03*
X028045Y051997D03*
X028045Y052497D03*
X028045Y052997D03*
X028045Y053497D03*
X028045Y053997D03*
X028045Y054497D03*
X030085Y054497D03*
X030085Y053997D03*
X030085Y053497D03*
X030085Y052997D03*
X030085Y052497D03*
X030085Y051997D03*
X030085Y051497D03*
X087888Y051497D03*
X087888Y051997D03*
X087888Y052497D03*
X087888Y052997D03*
X087888Y053497D03*
X087888Y053997D03*
X087888Y054497D03*
X089928Y054497D03*
X089928Y053997D03*
X089928Y053497D03*
X089928Y052997D03*
X089928Y052497D03*
X089928Y051997D03*
X089928Y051497D03*
D61*
X061840Y059197D02*
X060840Y059197D01*
X060840Y061166D02*
X061840Y061166D01*
X120683Y061166D02*
X121683Y061166D01*
X121683Y059197D02*
X120683Y059197D01*
D62*
X098233Y038052D03*
X098233Y035592D03*
X038390Y035592D03*
X038390Y038052D03*
D63*
X055640Y038201D03*
X055640Y036193D03*
X058665Y059168D03*
X058665Y061176D03*
X115483Y038201D03*
X115483Y036193D03*
X118508Y059168D03*
X118508Y061176D03*
X122291Y006551D03*
X122291Y004543D03*
D64*
X069287Y040522D03*
X067279Y040522D03*
X009444Y040522D03*
X007436Y040522D03*
D65*
X011015Y041922D03*
X070858Y041922D03*
X118455Y022772D03*
X072922Y007228D03*
X058078Y007172D03*
D66*
X056078Y007172D03*
X070922Y007228D03*
X070858Y039922D03*
X011015Y039922D03*
D67*
X056115Y044797D03*
X057315Y044797D03*
X115958Y044797D03*
X117158Y044797D03*
D68*
X100377Y058134D03*
X099589Y058134D03*
X099589Y060260D03*
X100377Y060260D03*
X040534Y060260D03*
X039747Y060260D03*
X039747Y058134D03*
X040534Y058134D03*
D69*
X008740Y004447D03*
X008740Y007447D03*
X051215Y050247D03*
X111058Y050247D03*
D70*
X109058Y050247D03*
X049215Y050247D03*
D71*
X048815Y039114D03*
X048815Y034972D03*
X108658Y034972D03*
X108658Y039114D03*
D72*
X116497Y040710D03*
X121419Y040710D03*
X121419Y048584D03*
X116497Y048584D03*
X061576Y048584D03*
X056655Y048584D03*
X056655Y040710D03*
X061576Y040710D03*
X013709Y018598D03*
X013709Y016623D03*
X009772Y017371D03*
X009772Y019346D03*
X008003Y014287D03*
X011940Y014287D03*
D73*
X041365Y035872D03*
X044565Y035872D03*
X101208Y035872D03*
X104408Y035872D03*
D74*
X035310Y016847D03*
X035310Y016587D03*
X035310Y016327D03*
X035310Y016077D03*
X035310Y015817D03*
X035310Y015567D03*
X035310Y015307D03*
X035310Y015047D03*
X033070Y015047D03*
X033070Y015307D03*
X033070Y015567D03*
X033070Y015817D03*
X033070Y016077D03*
X033070Y016327D03*
X033070Y016587D03*
X033070Y016847D03*
D75*
X034190Y015947D03*
D76*
X032942Y020672D03*
X036289Y020672D03*
D77*
X012176Y011442D03*
X012201Y009262D03*
X006201Y009262D03*
X006176Y011442D03*
D78*
X021290Y011610D02*
X021290Y010785D01*
X023440Y010785D02*
X023440Y011610D01*
X025590Y011610D02*
X025590Y010785D01*
X025590Y007910D02*
X025590Y007085D01*
X023440Y007085D02*
X023440Y007910D01*
X021290Y007910D02*
X021290Y007085D01*
D79*
X012315Y007224D03*
X010765Y007224D03*
X010765Y005020D03*
X012315Y005020D03*
X030465Y004620D03*
X030465Y006824D03*
X030465Y008745D03*
X030465Y010949D03*
D80*
X015390Y009022D03*
X015390Y007022D03*
D81*
X018465Y008722D03*
X028465Y008722D03*
D82*
X032312Y008847D03*
X032312Y009847D03*
X032312Y010847D03*
X035969Y010847D03*
X035969Y009847D03*
X035969Y008847D03*
X035969Y007047D03*
X035969Y006047D03*
X035969Y005047D03*
X032312Y005047D03*
X032312Y006047D03*
X032312Y007047D03*
D83*
X040407Y010972D03*
X043124Y010972D03*
D84*
X042512Y016397D02*
X041919Y016397D01*
X041919Y017397D02*
X042512Y017397D01*
X042512Y018397D02*
X041919Y018397D01*
X102840Y005419D02*
X102840Y004825D01*
X103840Y004825D02*
X103840Y005419D01*
X104840Y005419D02*
X104840Y004825D01*
X105840Y004825D02*
X105840Y005419D01*
X106840Y005419D02*
X106840Y004825D01*
X107840Y004825D02*
X107840Y005419D01*
D85*
X111865Y005022D03*
X112865Y005022D03*
X113865Y005022D03*
X114865Y005022D03*
X115865Y005022D03*
X115865Y006022D03*
X114865Y006022D03*
X113865Y006022D03*
X112865Y006022D03*
X111865Y006022D03*
X042410Y021210D03*
X041410Y021210D03*
X041410Y022210D03*
X041410Y023210D03*
X042410Y023210D03*
X042410Y022210D03*
X042410Y024210D03*
X041410Y024210D03*
X041410Y025210D03*
X042410Y025210D03*
X038296Y024628D03*
X037296Y024628D03*
X034316Y024628D03*
X033316Y024628D03*
X034556Y028746D03*
X035556Y028746D03*
X036556Y028746D03*
X037056Y029746D03*
X036056Y029746D03*
X035056Y029746D03*
X034056Y029746D03*
D86*
X038381Y008692D03*
X039290Y008692D03*
X040200Y008692D03*
D87*
X039290Y006252D03*
D88*
X026534Y026552D03*
X025550Y026552D03*
X025550Y027812D03*
X026534Y027812D03*
D89*
X028412Y026749D03*
X023672Y026749D03*
D90*
X032705Y027778D03*
X038906Y027778D03*
D91*
X038056Y026246D03*
X033556Y026246D03*
X086977Y029653D03*
X120441Y029653D03*
X120441Y006425D03*
X086977Y006425D03*
D92*
X036705Y027547D03*
X036705Y027747D03*
X036705Y027947D03*
D93*
X035625Y027947D03*
X035625Y027547D03*
D94*
X026090Y029147D03*
D95*
X026090Y028467D03*
X026840Y028467D03*
X026840Y029227D03*
D96*
X012240Y026722D03*
X012240Y022722D03*
X104186Y021587D03*
D97*
X082533Y014122D03*
X082533Y013122D03*
X082533Y012122D03*
X082533Y011122D03*
X079698Y011122D03*
X079698Y012122D03*
X079698Y013122D03*
X079698Y014122D03*
X050133Y020022D03*
X050133Y021022D03*
X050133Y022022D03*
X050133Y023022D03*
X047298Y023022D03*
X047298Y022022D03*
X047298Y021022D03*
X047298Y020022D03*
D98*
X067935Y026472D03*
X068195Y026472D03*
X068435Y026472D03*
X068695Y026472D03*
X068935Y026472D03*
X069195Y026472D03*
X069435Y026472D03*
X069695Y026472D03*
X069935Y026472D03*
X070195Y026472D03*
X070435Y026472D03*
X070695Y026472D03*
X070695Y028572D03*
X070435Y028572D03*
X070195Y028572D03*
X069935Y028572D03*
X069695Y028572D03*
X069435Y028572D03*
X069195Y028572D03*
X068935Y028572D03*
X068695Y028572D03*
X068435Y028572D03*
X068195Y028572D03*
X067935Y028572D03*
D99*
X063820Y025642D03*
X063820Y024902D03*
X062960Y025272D03*
X049595Y029872D03*
X048735Y029502D03*
X048735Y030242D03*
X066485Y010517D03*
X066485Y009777D03*
X067345Y010147D03*
D100*
X110528Y009597D03*
D101*
X113355Y008699D03*
X113355Y010495D03*
D102*
X104870Y009197D03*
X103310Y009197D03*
D103*
X106240Y023247D03*
X106791Y023247D03*
D104*
X106755Y022842D03*
X106755Y022582D03*
X106755Y022332D03*
X106755Y022072D03*
X106755Y021812D03*
X106755Y021562D03*
X106755Y021302D03*
X108975Y021302D03*
X108975Y021562D03*
X108975Y021812D03*
X108975Y022072D03*
X108975Y022332D03*
X108975Y022582D03*
X108975Y022842D03*
D105*
X098215Y009545D03*
X098215Y006199D03*
D106*
X115665Y027572D03*
X116515Y027172D03*
X116515Y027972D03*
D107*
X077065Y013222D03*
X052190Y021347D03*
D108*
X052190Y022347D03*
X077065Y012222D03*
D109*
X077065Y011698D03*
X077065Y013706D03*
X052190Y020863D03*
X052190Y022871D03*
D110*
X089490Y031192D02*
X089490Y031752D01*
X090490Y031752D02*
X090490Y031192D01*
D111*
X110585Y022772D03*
D112*
X105186Y022587D03*
X104186Y022587D03*
X105186Y021587D03*
X105186Y023587D03*
X104186Y023587D03*
X093186Y023587D03*
X092186Y023587D03*
X092186Y022587D03*
X092186Y021587D03*
X093186Y021587D03*
X093186Y022587D03*
X093186Y020587D03*
X092186Y020587D03*
X092186Y019587D03*
X093186Y019587D03*
X093186Y018587D03*
X092186Y018587D03*
X092186Y017587D03*
X092186Y016587D03*
X093186Y016587D03*
X093186Y017587D03*
X093186Y015587D03*
X092186Y015587D03*
X092186Y014587D03*
X093186Y014587D03*
X094186Y012587D03*
X095186Y012587D03*
X096186Y012587D03*
X097186Y012587D03*
X098186Y012587D03*
X099186Y012587D03*
X100186Y012587D03*
X101186Y012587D03*
X103186Y012587D03*
X104186Y012587D03*
X105186Y012587D03*
X106186Y012587D03*
X107186Y012587D03*
X108186Y012587D03*
X109186Y012587D03*
X110186Y012587D03*
X112186Y012587D03*
X113186Y012587D03*
X114186Y012587D03*
X115186Y012587D03*
X116186Y012587D03*
X117186Y012587D03*
X093186Y024587D03*
X092186Y024587D03*
X092186Y025587D03*
X093186Y025587D03*
X093186Y026587D03*
X092186Y026587D03*
X092186Y027587D03*
X093186Y027587D03*
X093186Y028587D03*
X092186Y028587D03*
X092186Y029587D03*
X092186Y030587D03*
X093186Y030587D03*
X093186Y029587D03*
X093186Y031587D03*
X092186Y031587D03*
X096186Y031587D03*
X097186Y031587D03*
X098186Y031587D03*
X099186Y031587D03*
X100186Y031587D03*
X101186Y031587D03*
X102186Y031587D03*
X103186Y031587D03*
X105186Y031587D03*
X106186Y031587D03*
X107186Y031587D03*
X108186Y031587D03*
X109186Y031587D03*
X110186Y031587D03*
X111186Y031587D03*
X112186Y031587D03*
X113786Y031587D03*
X114786Y031587D03*
X115786Y031587D03*
X116786Y031587D03*
X117786Y031587D03*
X118786Y031587D03*
X119786Y031587D03*
X120786Y031587D03*
D113*
X060865Y030132D03*
X060365Y030132D03*
X059865Y030132D03*
X059365Y030132D03*
X058865Y030132D03*
X058365Y030132D03*
X057865Y030132D03*
X057365Y030132D03*
X054440Y030157D03*
X053940Y030157D03*
X053440Y030157D03*
X052940Y030157D03*
X052440Y030157D03*
X051940Y030157D03*
X051440Y030157D03*
X050940Y030157D03*
X050940Y028037D03*
X051440Y028037D03*
X051940Y028037D03*
X052440Y028037D03*
X052940Y028037D03*
X053440Y028037D03*
X053940Y028037D03*
X054440Y028037D03*
X057365Y028012D03*
X057865Y028012D03*
X058365Y028012D03*
X058865Y028012D03*
X059365Y028012D03*
X059865Y028012D03*
X060365Y028012D03*
X060865Y028012D03*
D114*
X055765Y023047D03*
X055765Y021433D03*
X071315Y015754D03*
X071315Y014140D03*
D115*
X063811Y012834D03*
X061827Y012834D03*
X059842Y012834D03*
X059842Y015810D03*
X061827Y015810D03*
X063811Y015810D03*
X066020Y018759D03*
X068004Y018759D03*
X069989Y018759D03*
X069989Y021735D03*
X068004Y021735D03*
X066020Y021735D03*
X060989Y035140D03*
X060989Y038447D03*
X006841Y027772D03*
X006841Y021158D03*
X120832Y035140D03*
X120832Y038447D03*
D116*
X069764Y015810D03*
X069764Y012834D03*
X060067Y018759D03*
X060067Y021735D03*
D117*
X061819Y007015D03*
X054319Y007015D03*
X048000Y007015D03*
X069319Y007015D03*
X076819Y007015D03*
D118*
X123846Y007409D02*
X124911Y007409D01*
X124911Y005559D02*
X123846Y005559D01*
X123846Y009259D02*
X124911Y009259D01*
D119*
X087750Y014972D03*
X087750Y015472D03*
X087750Y015972D03*
X087750Y016472D03*
X087750Y016972D03*
X087750Y017472D03*
X087750Y017972D03*
X087750Y018472D03*
X085630Y018472D03*
X085630Y017972D03*
X085630Y017472D03*
X085630Y016972D03*
X085630Y016472D03*
X085630Y015972D03*
X085630Y015472D03*
X085630Y014972D03*
X084880Y020297D03*
X084880Y020797D03*
X084880Y021297D03*
X084880Y021797D03*
X084880Y022297D03*
X084880Y022797D03*
X084880Y023297D03*
X084880Y023797D03*
X087000Y023797D03*
X087000Y023297D03*
X087000Y022797D03*
X087000Y022297D03*
X087000Y021797D03*
X087000Y021297D03*
X087000Y020797D03*
X087000Y020297D03*
D120*
X083415Y024047D03*
X082415Y024047D03*
X082415Y026547D03*
X083415Y026547D03*
D121*
X121016Y026590D03*
X122016Y026590D03*
X121016Y027590D03*
X121016Y025590D03*
X121016Y024590D03*
X122016Y024590D03*
X122016Y025590D03*
X122016Y023590D03*
X121016Y023590D03*
X121016Y022590D03*
X121016Y021590D03*
X122016Y021590D03*
X122016Y022590D03*
X122016Y020590D03*
X122016Y019590D03*
X121016Y019590D03*
X121016Y020590D03*
X121016Y018590D03*
X122016Y018590D03*
X122016Y017590D03*
X122016Y016590D03*
X121016Y016590D03*
X121016Y017590D03*
X121016Y015590D03*
X121016Y014590D03*
X122016Y014590D03*
X122016Y015590D03*
X122016Y013590D03*
X122016Y012590D03*
X121016Y012590D03*
X121016Y013590D03*
X121016Y011590D03*
X122016Y011590D03*
X122016Y010590D03*
X122016Y009590D03*
X121016Y009590D03*
X121016Y010590D03*
X121016Y008590D03*
X122016Y008590D03*
D122*
X122016Y027590D03*
D123*
X081175Y028627D03*
X081175Y029367D03*
X080155Y029367D03*
X080155Y028997D03*
X080155Y028627D03*
D124*
X076360Y029497D03*
X075021Y029497D03*
D125*
X081158Y015922D03*
X082773Y015922D03*
X054528Y015772D03*
X052914Y015772D03*
D126*
X053378Y016858D03*
X052378Y016858D03*
X051378Y016858D03*
X050378Y016858D03*
X049378Y016858D03*
X049378Y018858D03*
X050378Y018858D03*
X051378Y018858D03*
X052378Y018858D03*
X053378Y018858D03*
X054378Y018858D03*
X054378Y016858D03*
X076150Y016858D03*
X077150Y016858D03*
X078150Y016858D03*
X079150Y016858D03*
X080150Y016858D03*
X081150Y016858D03*
X082150Y016858D03*
X083150Y016858D03*
X083150Y018858D03*
X082150Y018858D03*
X081150Y018858D03*
X080150Y018858D03*
X079150Y018858D03*
X078150Y018858D03*
X077150Y018858D03*
X076150Y018858D03*
D127*
X092885Y010011D02*
X092885Y009699D01*
X092781Y009699D01*
X092781Y010011D01*
X092885Y010011D01*
X092885Y009801D02*
X092781Y009801D01*
X092781Y009903D02*
X092885Y009903D01*
X092885Y010005D02*
X092781Y010005D01*
X093082Y010011D02*
X093082Y009699D01*
X092978Y009699D01*
X092978Y010011D01*
X093082Y010011D01*
X093082Y009801D02*
X092978Y009801D01*
X092978Y009903D02*
X093082Y009903D01*
X093082Y010005D02*
X092978Y010005D01*
X093278Y010011D02*
X093278Y009699D01*
X093174Y009699D01*
X093174Y010011D01*
X093278Y010011D01*
X093278Y009801D02*
X093174Y009801D01*
X093174Y009903D02*
X093278Y009903D01*
X093278Y010005D02*
X093174Y010005D01*
X093475Y010011D02*
X093475Y009699D01*
X093371Y009699D01*
X093371Y010011D01*
X093475Y010011D01*
X093475Y009801D02*
X093371Y009801D01*
X093371Y009903D02*
X093475Y009903D01*
X093475Y010005D02*
X093371Y010005D01*
X093672Y010011D02*
X093672Y009699D01*
X093568Y009699D01*
X093568Y010011D01*
X093672Y010011D01*
X093672Y009801D02*
X093568Y009801D01*
X093568Y009903D02*
X093672Y009903D01*
X093672Y010005D02*
X093568Y010005D01*
X093869Y010011D02*
X093869Y009699D01*
X093765Y009699D01*
X093765Y010011D01*
X093869Y010011D01*
X093869Y009801D02*
X093765Y009801D01*
X093765Y009903D02*
X093869Y009903D01*
X093869Y010005D02*
X093765Y010005D01*
X094066Y010011D02*
X094066Y009699D01*
X093962Y009699D01*
X093962Y010011D01*
X094066Y010011D01*
X094066Y009801D02*
X093962Y009801D01*
X093962Y009903D02*
X094066Y009903D01*
X094066Y010005D02*
X093962Y010005D01*
X094263Y010011D02*
X094263Y009699D01*
X094159Y009699D01*
X094159Y010011D01*
X094263Y010011D01*
X094263Y009801D02*
X094159Y009801D01*
X094159Y009903D02*
X094263Y009903D01*
X094263Y010005D02*
X094159Y010005D01*
X094460Y010011D02*
X094460Y009699D01*
X094356Y009699D01*
X094356Y010011D01*
X094460Y010011D01*
X094460Y009801D02*
X094356Y009801D01*
X094356Y009903D02*
X094460Y009903D01*
X094460Y010005D02*
X094356Y010005D01*
X094656Y010011D02*
X094656Y009699D01*
X094552Y009699D01*
X094552Y010011D01*
X094656Y010011D01*
X094656Y009801D02*
X094552Y009801D01*
X094552Y009903D02*
X094656Y009903D01*
X094656Y010005D02*
X094552Y010005D01*
X094853Y010011D02*
X094853Y009699D01*
X094749Y009699D01*
X094749Y010011D01*
X094853Y010011D01*
X094853Y009801D02*
X094749Y009801D01*
X094749Y009903D02*
X094853Y009903D01*
X094853Y010005D02*
X094749Y010005D01*
X095050Y010011D02*
X095050Y009699D01*
X094946Y009699D01*
X094946Y010011D01*
X095050Y010011D01*
X095050Y009801D02*
X094946Y009801D01*
X094946Y009903D02*
X095050Y009903D01*
X095050Y010005D02*
X094946Y010005D01*
X095442Y009203D02*
X095754Y009203D01*
X095442Y009203D02*
X095442Y009307D01*
X095754Y009307D01*
X095754Y009203D01*
X095754Y009305D02*
X095442Y009305D01*
X095442Y009006D02*
X095754Y009006D01*
X095442Y009006D02*
X095442Y009110D01*
X095754Y009110D01*
X095754Y009006D01*
X095754Y009108D02*
X095442Y009108D01*
X095442Y008809D02*
X095754Y008809D01*
X095442Y008809D02*
X095442Y008913D01*
X095754Y008913D01*
X095754Y008809D01*
X095754Y008911D02*
X095442Y008911D01*
X095442Y008612D02*
X095754Y008612D01*
X095442Y008612D02*
X095442Y008716D01*
X095754Y008716D01*
X095754Y008612D01*
X095754Y008714D02*
X095442Y008714D01*
X095442Y008415D02*
X095754Y008415D01*
X095442Y008415D02*
X095442Y008519D01*
X095754Y008519D01*
X095754Y008415D01*
X095754Y008517D02*
X095442Y008517D01*
X095442Y008218D02*
X095754Y008218D01*
X095442Y008218D02*
X095442Y008322D01*
X095754Y008322D01*
X095754Y008218D01*
X095754Y008320D02*
X095442Y008320D01*
X095442Y008022D02*
X095754Y008022D01*
X095442Y008022D02*
X095442Y008126D01*
X095754Y008126D01*
X095754Y008022D01*
X095754Y008124D02*
X095442Y008124D01*
X095442Y007825D02*
X095754Y007825D01*
X095442Y007825D02*
X095442Y007929D01*
X095754Y007929D01*
X095754Y007825D01*
X095754Y007927D02*
X095442Y007927D01*
X095442Y007628D02*
X095754Y007628D01*
X095442Y007628D02*
X095442Y007732D01*
X095754Y007732D01*
X095754Y007628D01*
X095754Y007730D02*
X095442Y007730D01*
X095442Y007431D02*
X095754Y007431D01*
X095442Y007431D02*
X095442Y007535D01*
X095754Y007535D01*
X095754Y007431D01*
X095754Y007533D02*
X095442Y007533D01*
X095442Y007234D02*
X095754Y007234D01*
X095442Y007234D02*
X095442Y007338D01*
X095754Y007338D01*
X095754Y007234D01*
X095754Y007336D02*
X095442Y007336D01*
X095442Y007037D02*
X095754Y007037D01*
X095442Y007037D02*
X095442Y007141D01*
X095754Y007141D01*
X095754Y007037D01*
X095754Y007139D02*
X095442Y007139D01*
X095050Y006645D02*
X095050Y006333D01*
X094946Y006333D01*
X094946Y006645D01*
X095050Y006645D01*
X095050Y006435D02*
X094946Y006435D01*
X094946Y006537D02*
X095050Y006537D01*
X095050Y006639D02*
X094946Y006639D01*
X094853Y006645D02*
X094853Y006333D01*
X094749Y006333D01*
X094749Y006645D01*
X094853Y006645D01*
X094853Y006435D02*
X094749Y006435D01*
X094749Y006537D02*
X094853Y006537D01*
X094853Y006639D02*
X094749Y006639D01*
X094656Y006645D02*
X094656Y006333D01*
X094552Y006333D01*
X094552Y006645D01*
X094656Y006645D01*
X094656Y006435D02*
X094552Y006435D01*
X094552Y006537D02*
X094656Y006537D01*
X094656Y006639D02*
X094552Y006639D01*
X094460Y006645D02*
X094460Y006333D01*
X094356Y006333D01*
X094356Y006645D01*
X094460Y006645D01*
X094460Y006435D02*
X094356Y006435D01*
X094356Y006537D02*
X094460Y006537D01*
X094460Y006639D02*
X094356Y006639D01*
X094263Y006645D02*
X094263Y006333D01*
X094159Y006333D01*
X094159Y006645D01*
X094263Y006645D01*
X094263Y006435D02*
X094159Y006435D01*
X094159Y006537D02*
X094263Y006537D01*
X094263Y006639D02*
X094159Y006639D01*
X094066Y006645D02*
X094066Y006333D01*
X093962Y006333D01*
X093962Y006645D01*
X094066Y006645D01*
X094066Y006435D02*
X093962Y006435D01*
X093962Y006537D02*
X094066Y006537D01*
X094066Y006639D02*
X093962Y006639D01*
X093869Y006645D02*
X093869Y006333D01*
X093765Y006333D01*
X093765Y006645D01*
X093869Y006645D01*
X093869Y006435D02*
X093765Y006435D01*
X093765Y006537D02*
X093869Y006537D01*
X093869Y006639D02*
X093765Y006639D01*
X093672Y006645D02*
X093672Y006333D01*
X093568Y006333D01*
X093568Y006645D01*
X093672Y006645D01*
X093672Y006435D02*
X093568Y006435D01*
X093568Y006537D02*
X093672Y006537D01*
X093672Y006639D02*
X093568Y006639D01*
X093475Y006645D02*
X093475Y006333D01*
X093371Y006333D01*
X093371Y006645D01*
X093475Y006645D01*
X093475Y006435D02*
X093371Y006435D01*
X093371Y006537D02*
X093475Y006537D01*
X093475Y006639D02*
X093371Y006639D01*
X093278Y006645D02*
X093278Y006333D01*
X093174Y006333D01*
X093174Y006645D01*
X093278Y006645D01*
X093278Y006435D02*
X093174Y006435D01*
X093174Y006537D02*
X093278Y006537D01*
X093278Y006639D02*
X093174Y006639D01*
X093082Y006645D02*
X093082Y006333D01*
X092978Y006333D01*
X092978Y006645D01*
X093082Y006645D01*
X093082Y006435D02*
X092978Y006435D01*
X092978Y006537D02*
X093082Y006537D01*
X093082Y006639D02*
X092978Y006639D01*
X092885Y006645D02*
X092885Y006333D01*
X092781Y006333D01*
X092781Y006645D01*
X092885Y006645D01*
X092885Y006435D02*
X092781Y006435D01*
X092781Y006537D02*
X092885Y006537D01*
X092885Y006639D02*
X092781Y006639D01*
X092388Y007037D02*
X092076Y007037D01*
X092076Y007141D01*
X092388Y007141D01*
X092388Y007037D01*
X092388Y007139D02*
X092076Y007139D01*
X092076Y007234D02*
X092388Y007234D01*
X092076Y007234D02*
X092076Y007338D01*
X092388Y007338D01*
X092388Y007234D01*
X092388Y007336D02*
X092076Y007336D01*
X092076Y007431D02*
X092388Y007431D01*
X092076Y007431D02*
X092076Y007535D01*
X092388Y007535D01*
X092388Y007431D01*
X092388Y007533D02*
X092076Y007533D01*
X092076Y007628D02*
X092388Y007628D01*
X092076Y007628D02*
X092076Y007732D01*
X092388Y007732D01*
X092388Y007628D01*
X092388Y007730D02*
X092076Y007730D01*
X092076Y007825D02*
X092388Y007825D01*
X092076Y007825D02*
X092076Y007929D01*
X092388Y007929D01*
X092388Y007825D01*
X092388Y007927D02*
X092076Y007927D01*
X092076Y008022D02*
X092388Y008022D01*
X092076Y008022D02*
X092076Y008126D01*
X092388Y008126D01*
X092388Y008022D01*
X092388Y008124D02*
X092076Y008124D01*
X092076Y008218D02*
X092388Y008218D01*
X092076Y008218D02*
X092076Y008322D01*
X092388Y008322D01*
X092388Y008218D01*
X092388Y008320D02*
X092076Y008320D01*
X092076Y008415D02*
X092388Y008415D01*
X092076Y008415D02*
X092076Y008519D01*
X092388Y008519D01*
X092388Y008415D01*
X092388Y008517D02*
X092076Y008517D01*
X092076Y008612D02*
X092388Y008612D01*
X092076Y008612D02*
X092076Y008716D01*
X092388Y008716D01*
X092388Y008612D01*
X092388Y008714D02*
X092076Y008714D01*
X092076Y008809D02*
X092388Y008809D01*
X092076Y008809D02*
X092076Y008913D01*
X092388Y008913D01*
X092388Y008809D01*
X092388Y008911D02*
X092076Y008911D01*
X092076Y009006D02*
X092388Y009006D01*
X092076Y009006D02*
X092076Y009110D01*
X092388Y009110D01*
X092388Y009006D01*
X092388Y009108D02*
X092076Y009108D01*
X092076Y009203D02*
X092388Y009203D01*
X092076Y009203D02*
X092076Y009307D01*
X092388Y009307D01*
X092388Y009203D01*
X092388Y009305D02*
X092076Y009305D01*
D128*
X092943Y010631D03*
X093258Y010631D03*
X093573Y010631D03*
X093888Y010631D03*
X094318Y010631D03*
X094633Y010631D03*
X094948Y010631D03*
X095263Y010631D03*
X095263Y011163D03*
X094948Y011163D03*
X094633Y011163D03*
X094318Y011163D03*
X093888Y011163D03*
X093573Y011163D03*
X093258Y011163D03*
X092943Y011163D03*
D129*
X106760Y014452D03*
X107010Y014452D03*
X107270Y014452D03*
X107520Y014452D03*
X107520Y015892D03*
X107270Y015892D03*
X107010Y015892D03*
X106760Y015892D03*
X085770Y026252D03*
X085520Y026252D03*
X085260Y026252D03*
X085010Y026252D03*
X085010Y027692D03*
X085260Y027692D03*
X085520Y027692D03*
X085770Y027692D03*
D130*
X066153Y034276D02*
X066175Y034360D01*
X066183Y034447D01*
X066175Y034534D01*
X066153Y034618D01*
X066116Y034697D01*
X066066Y034768D01*
X066004Y034830D01*
X065933Y034880D01*
X065854Y034917D01*
X065770Y034939D01*
X065683Y034947D01*
X065596Y034939D01*
X065512Y034917D01*
X065433Y034880D01*
X065362Y034830D01*
X065300Y034768D01*
X065250Y034697D01*
X065213Y034618D01*
X065191Y034534D01*
X065183Y034447D01*
X065191Y034360D01*
X065213Y034276D01*
X065250Y034197D01*
X065300Y034126D01*
X065362Y034064D01*
X065433Y034014D01*
X065512Y033977D01*
X065596Y033955D01*
X065683Y033947D01*
X065770Y033955D01*
X065854Y033977D01*
X065933Y034014D01*
X066004Y034064D01*
X066066Y034126D01*
X066116Y034197D01*
X066153Y034276D01*
X066150Y034270D02*
X065216Y034270D01*
X065202Y034318D02*
X066164Y034318D01*
X066176Y034367D02*
X065190Y034367D01*
X065186Y034415D02*
X066180Y034415D01*
X066181Y034464D02*
X065184Y034464D01*
X065189Y034512D02*
X066177Y034512D01*
X066168Y034561D02*
X065198Y034561D01*
X065211Y034609D02*
X066155Y034609D01*
X066134Y034658D02*
X065232Y034658D01*
X065256Y034706D02*
X066110Y034706D01*
X066076Y034755D02*
X065290Y034755D01*
X065335Y034803D02*
X066031Y034803D01*
X065973Y034852D02*
X065392Y034852D01*
X065476Y034900D02*
X065890Y034900D01*
X066127Y034221D02*
X065239Y034221D01*
X065267Y034173D02*
X066099Y034173D01*
X066065Y034124D02*
X065301Y034124D01*
X065350Y034076D02*
X066016Y034076D01*
X065952Y034027D02*
X065414Y034027D01*
X065509Y033979D02*
X065857Y033979D01*
X062727Y050255D02*
X062640Y050247D01*
X062554Y050255D01*
X062469Y050277D01*
X062390Y050314D01*
X062319Y050364D01*
X062257Y050426D01*
X062207Y050497D01*
X062171Y050576D01*
X062148Y050660D01*
X062140Y050747D01*
X062148Y050834D01*
X062171Y050918D01*
X062207Y050997D01*
X062257Y051068D01*
X062319Y051130D01*
X062390Y051180D01*
X062469Y051217D01*
X062554Y051239D01*
X062640Y051247D01*
X062727Y051239D01*
X062811Y051217D01*
X062890Y051180D01*
X062962Y051130D01*
X063023Y051068D01*
X063073Y050997D01*
X063110Y050918D01*
X063133Y050834D01*
X063140Y050747D01*
X063133Y050660D01*
X063110Y050576D01*
X063073Y050497D01*
X063023Y050426D01*
X062962Y050364D01*
X062890Y050314D01*
X062811Y050277D01*
X062727Y050255D01*
X062802Y050275D02*
X062478Y050275D01*
X062377Y050323D02*
X062904Y050323D01*
X062970Y050372D02*
X062311Y050372D01*
X062263Y050420D02*
X063018Y050420D01*
X063054Y050469D02*
X062227Y050469D01*
X062198Y050517D02*
X063083Y050517D01*
X063105Y050566D02*
X062175Y050566D01*
X062160Y050614D02*
X063121Y050614D01*
X063133Y050663D02*
X062148Y050663D01*
X062144Y050711D02*
X063137Y050711D01*
X063139Y050760D02*
X062142Y050760D01*
X062146Y050808D02*
X063135Y050808D01*
X063127Y050857D02*
X062154Y050857D01*
X062167Y050905D02*
X063114Y050905D01*
X063094Y050954D02*
X062187Y050954D01*
X062211Y051002D02*
X063070Y051002D01*
X063036Y051051D02*
X062245Y051051D01*
X062288Y051099D02*
X062993Y051099D01*
X062937Y051148D02*
X062344Y051148D01*
X062425Y051196D02*
X062856Y051196D01*
X062666Y051245D02*
X062615Y051245D01*
X008610Y031993D02*
X008633Y031909D01*
X008640Y031822D01*
X008633Y031735D01*
X008610Y031651D01*
X008573Y031572D01*
X008523Y031501D01*
X008462Y031439D01*
X008390Y031389D01*
X008311Y031352D01*
X008227Y031330D01*
X008140Y031322D01*
X008054Y031330D01*
X007969Y031352D01*
X007890Y031389D01*
X007819Y031439D01*
X007757Y031501D01*
X007707Y031572D01*
X007671Y031651D01*
X008610Y031651D01*
X008623Y031699D02*
X007658Y031699D01*
X007648Y031735D02*
X007640Y031822D01*
X007648Y031909D01*
X007671Y031993D01*
X007707Y032072D01*
X007757Y032143D01*
X007819Y032205D01*
X007890Y032255D01*
X007969Y032292D01*
X008054Y032314D01*
X008140Y032322D01*
X008227Y032314D01*
X008311Y032292D01*
X008390Y032255D01*
X008462Y032205D01*
X008523Y032143D01*
X008573Y032072D01*
X008610Y031993D01*
X008611Y031990D02*
X007670Y031990D01*
X007657Y031942D02*
X008624Y031942D01*
X008634Y031893D02*
X007647Y031893D01*
X007642Y031845D02*
X008638Y031845D01*
X008638Y031796D02*
X007643Y031796D01*
X007647Y031748D02*
X008634Y031748D01*
X008587Y031602D02*
X007693Y031602D01*
X007671Y031651D02*
X007648Y031735D01*
X007720Y031554D02*
X008561Y031554D01*
X008527Y031505D02*
X007754Y031505D01*
X007801Y031457D02*
X008479Y031457D01*
X008418Y031408D02*
X007863Y031408D01*
X007953Y031360D02*
X008327Y031360D01*
X008589Y032039D02*
X007692Y032039D01*
X007718Y032087D02*
X008563Y032087D01*
X008529Y032136D02*
X007752Y032136D01*
X007798Y032184D02*
X008483Y032184D01*
X008422Y032233D02*
X007858Y032233D01*
X007946Y032281D02*
X008334Y032281D01*
X006011Y033977D02*
X005927Y033955D01*
X005840Y033947D01*
X005754Y033955D01*
X005669Y033977D01*
X005590Y034014D01*
X005519Y034064D01*
X005457Y034126D01*
X005407Y034197D01*
X005371Y034276D01*
X005348Y034360D01*
X005340Y034447D01*
X005348Y034534D01*
X005371Y034618D01*
X005407Y034697D01*
X005457Y034768D01*
X005519Y034830D01*
X005590Y034880D01*
X005669Y034917D01*
X005754Y034939D01*
X005840Y034947D01*
X005927Y034939D01*
X006011Y034917D01*
X006090Y034880D01*
X006162Y034830D01*
X006223Y034768D01*
X006273Y034697D01*
X006310Y034618D01*
X006333Y034534D01*
X006340Y034447D01*
X006333Y034360D01*
X006310Y034276D01*
X006273Y034197D01*
X006223Y034126D01*
X006162Y034064D01*
X006090Y034014D01*
X006011Y033977D01*
X006015Y033979D02*
X005666Y033979D01*
X005572Y034027D02*
X006109Y034027D01*
X006173Y034076D02*
X005507Y034076D01*
X005459Y034124D02*
X006222Y034124D01*
X006256Y034173D02*
X005424Y034173D01*
X005396Y034221D02*
X006285Y034221D01*
X006307Y034270D02*
X005374Y034270D01*
X005359Y034318D02*
X006322Y034318D01*
X006333Y034367D02*
X005347Y034367D01*
X005343Y034415D02*
X006338Y034415D01*
X006339Y034464D02*
X005342Y034464D01*
X005346Y034512D02*
X006335Y034512D01*
X006326Y034561D02*
X005355Y034561D01*
X005368Y034609D02*
X006313Y034609D01*
X006292Y034658D02*
X005389Y034658D01*
X005414Y034706D02*
X006267Y034706D01*
X006233Y034755D02*
X005448Y034755D01*
X005492Y034803D02*
X006189Y034803D01*
X006131Y034852D02*
X005550Y034852D01*
X005634Y034900D02*
X006047Y034900D01*
X042632Y004668D02*
X042694Y004730D01*
X042765Y004780D01*
X042844Y004817D01*
X042929Y004839D01*
X043015Y004847D01*
X043102Y004839D01*
X043186Y004817D01*
X043265Y004780D01*
X043337Y004730D01*
X043398Y004668D01*
X043448Y004597D01*
X043485Y004518D01*
X043508Y004434D01*
X043515Y004347D01*
X043508Y004260D01*
X043485Y004176D01*
X043448Y004097D01*
X043398Y004026D01*
X043337Y003964D01*
X043265Y003914D01*
X043186Y003877D01*
X043102Y003855D01*
X043015Y003847D01*
X042929Y003855D01*
X042844Y003877D01*
X042765Y003914D01*
X042694Y003964D01*
X042632Y004026D01*
X042582Y004097D01*
X042546Y004176D01*
X042523Y004260D01*
X042515Y004347D01*
X042523Y004434D01*
X042546Y004518D01*
X042582Y004597D01*
X042632Y004668D01*
X042649Y004685D02*
X043382Y004685D01*
X043421Y004636D02*
X042610Y004636D01*
X042578Y004588D02*
X043453Y004588D01*
X043475Y004539D02*
X042555Y004539D01*
X042538Y004491D02*
X043493Y004491D01*
X043506Y004442D02*
X042525Y004442D01*
X042519Y004394D02*
X043511Y004394D01*
X043515Y004345D02*
X042516Y004345D01*
X042520Y004297D02*
X043511Y004297D01*
X043505Y004248D02*
X042526Y004248D01*
X042539Y004200D02*
X043492Y004200D01*
X043474Y004151D02*
X042557Y004151D01*
X042580Y004103D02*
X043451Y004103D01*
X043418Y004054D02*
X042613Y004054D01*
X042653Y004006D02*
X043378Y004006D01*
X043327Y003957D02*
X042704Y003957D01*
X042777Y003909D02*
X043254Y003909D01*
X043122Y003860D02*
X042908Y003860D01*
X042698Y004733D02*
X043333Y004733D01*
X043262Y004782D02*
X042769Y004782D01*
X042894Y004830D02*
X043137Y004830D01*
X045148Y004409D02*
X045140Y004322D01*
X045148Y004235D01*
X045171Y004151D01*
X045207Y004072D01*
X045257Y004001D01*
X045319Y003939D01*
X045390Y003889D01*
X045469Y003852D01*
X045554Y003830D01*
X045640Y003822D01*
X045727Y003830D01*
X045811Y003852D01*
X045890Y003889D01*
X045962Y003939D01*
X046023Y004001D01*
X046073Y004072D01*
X046110Y004151D01*
X046133Y004235D01*
X046140Y004322D01*
X046133Y004409D01*
X046110Y004493D01*
X046073Y004572D01*
X046023Y004643D01*
X045962Y004705D01*
X045890Y004755D01*
X045811Y004792D01*
X045727Y004814D01*
X045640Y004822D01*
X045554Y004814D01*
X045469Y004792D01*
X045390Y004755D01*
X045319Y004705D01*
X045257Y004643D01*
X045207Y004572D01*
X045171Y004493D01*
X045148Y004409D01*
X045147Y004394D02*
X046134Y004394D01*
X046124Y004442D02*
X045157Y004442D01*
X045170Y004491D02*
X046111Y004491D01*
X046089Y004539D02*
X045192Y004539D01*
X045218Y004588D02*
X046063Y004588D01*
X046029Y004636D02*
X045252Y004636D01*
X045299Y004685D02*
X045982Y004685D01*
X045922Y004733D02*
X045359Y004733D01*
X045447Y004782D02*
X045834Y004782D01*
X046138Y004345D02*
X045142Y004345D01*
X045143Y004297D02*
X046138Y004297D01*
X046134Y004248D02*
X045147Y004248D01*
X045158Y004200D02*
X046123Y004200D01*
X046110Y004151D02*
X045171Y004151D01*
X045193Y004103D02*
X046088Y004103D01*
X046061Y004054D02*
X045220Y004054D01*
X045254Y004006D02*
X046027Y004006D01*
X045980Y003957D02*
X045301Y003957D01*
X045363Y003909D02*
X045918Y003909D01*
X045828Y003860D02*
X045453Y003860D01*
X124671Y031501D02*
X124707Y031422D01*
X124757Y031351D01*
X124819Y031289D01*
X124890Y031239D01*
X124969Y031202D01*
X125054Y031180D01*
X125140Y031172D01*
X125227Y031180D01*
X125311Y031202D01*
X125390Y031239D01*
X125462Y031289D01*
X125523Y031351D01*
X125573Y031422D01*
X125610Y031501D01*
X125633Y031585D01*
X125640Y031672D01*
X125633Y031759D01*
X125610Y031843D01*
X125573Y031922D01*
X125523Y031993D01*
X125462Y032055D01*
X125390Y032105D01*
X125311Y032142D01*
X125227Y032164D01*
X125140Y032172D01*
X125054Y032164D01*
X124969Y032142D01*
X124890Y032105D01*
X124819Y032055D01*
X124757Y031993D01*
X124707Y031922D01*
X124671Y031843D01*
X124648Y031759D01*
X124640Y031672D01*
X124648Y031585D01*
X124671Y031501D01*
X124669Y031505D02*
X125611Y031505D01*
X125624Y031554D02*
X124656Y031554D01*
X124647Y031602D02*
X125634Y031602D01*
X125639Y031651D02*
X124642Y031651D01*
X124643Y031699D02*
X125638Y031699D01*
X125634Y031748D02*
X124647Y031748D01*
X124658Y031796D02*
X125623Y031796D01*
X125610Y031845D02*
X124671Y031845D01*
X124694Y031893D02*
X125587Y031893D01*
X125560Y031942D02*
X124721Y031942D01*
X124755Y031990D02*
X125526Y031990D01*
X125478Y032039D02*
X124803Y032039D01*
X124865Y032087D02*
X125416Y032087D01*
X125325Y032136D02*
X124956Y032136D01*
X124691Y031457D02*
X125590Y031457D01*
X125564Y031408D02*
X124717Y031408D01*
X124751Y031360D02*
X125530Y031360D01*
X125484Y031311D02*
X124797Y031311D01*
X124857Y031263D02*
X125424Y031263D01*
X125337Y031214D02*
X124944Y031214D01*
X122570Y050255D02*
X122483Y050247D01*
X122396Y050255D01*
X122312Y050277D01*
X122233Y050314D01*
X122162Y050364D01*
X122100Y050426D01*
X122050Y050497D01*
X122013Y050576D01*
X121991Y050660D01*
X121983Y050747D01*
X121991Y050834D01*
X122013Y050918D01*
X122050Y050997D01*
X122100Y051068D01*
X122162Y051130D01*
X122233Y051180D01*
X122312Y051217D01*
X122396Y051239D01*
X122483Y051247D01*
X122570Y051239D01*
X122654Y051217D01*
X122733Y051180D01*
X122804Y051130D01*
X122866Y051068D01*
X122916Y050997D01*
X122953Y050918D01*
X122975Y050834D01*
X122983Y050747D01*
X122975Y050660D01*
X122953Y050576D01*
X122916Y050497D01*
X122866Y050426D01*
X122804Y050364D01*
X122733Y050314D01*
X122654Y050277D01*
X122570Y050255D01*
X122645Y050275D02*
X122321Y050275D01*
X122220Y050323D02*
X122746Y050323D01*
X122812Y050372D02*
X122154Y050372D01*
X122105Y050420D02*
X122861Y050420D01*
X122896Y050469D02*
X122070Y050469D01*
X122040Y050517D02*
X122925Y050517D01*
X122948Y050566D02*
X122018Y050566D01*
X122003Y050614D02*
X122963Y050614D01*
X122976Y050663D02*
X121990Y050663D01*
X121986Y050711D02*
X122980Y050711D01*
X122982Y050760D02*
X121984Y050760D01*
X121988Y050808D02*
X122978Y050808D01*
X122969Y050857D02*
X121997Y050857D01*
X122010Y050905D02*
X122956Y050905D01*
X122936Y050954D02*
X122030Y050954D01*
X122054Y051002D02*
X122912Y051002D01*
X122878Y051051D02*
X122088Y051051D01*
X122131Y051099D02*
X122835Y051099D01*
X122779Y051148D02*
X122187Y051148D01*
X122268Y051196D02*
X122698Y051196D01*
X122509Y051245D02*
X122457Y051245D01*
D131*
X112378Y028722D03*
D132*
X113953Y028722D03*
D133*
X025802Y015010D03*
X017928Y015010D03*
X019897Y022884D03*
X023834Y022884D03*
D134*
X010306Y022811D02*
X009125Y022811D01*
X009125Y024465D02*
X010306Y024465D01*
X010306Y026119D02*
X009125Y026119D01*
X009125Y027772D02*
X010306Y027772D01*
X010306Y021158D02*
X009125Y021158D01*
X057525Y035140D02*
X058706Y035140D01*
X058706Y036794D02*
X057525Y036794D01*
X057525Y038447D02*
X058706Y038447D01*
X117367Y038447D02*
X118548Y038447D01*
X118548Y036794D02*
X117367Y036794D01*
X117367Y035140D02*
X118548Y035140D01*
D135*
X117890Y010122D03*
X117890Y008222D03*
D136*
X077308Y034322D03*
X077308Y034697D03*
X077308Y035072D03*
X076883Y035072D03*
X076883Y034697D03*
X076883Y034322D03*
X073583Y034322D03*
X073583Y034697D03*
X073583Y035072D03*
X073158Y035072D03*
X073158Y034697D03*
X073158Y034322D03*
X079808Y035747D03*
X080233Y035747D03*
X080658Y035747D03*
X080658Y036172D03*
X080658Y036597D03*
X080233Y036597D03*
X080233Y036172D03*
X079808Y036172D03*
X079808Y036597D03*
X085008Y036597D03*
X085433Y036597D03*
X085858Y036597D03*
X085858Y036172D03*
X085858Y035747D03*
X085433Y035747D03*
X085433Y036172D03*
X085008Y036172D03*
X085008Y035747D03*
X101433Y035672D03*
X101433Y036072D03*
X101858Y036072D03*
X101858Y035672D03*
X101858Y046347D03*
X102258Y046347D03*
X102658Y046347D03*
X102658Y046772D03*
X102258Y046772D03*
X101858Y046772D03*
X101858Y047197D03*
X102258Y047197D03*
X102658Y047197D03*
X042815Y047197D03*
X042415Y047197D03*
X042015Y047197D03*
X042015Y046772D03*
X042415Y046772D03*
X042815Y046772D03*
X042815Y046347D03*
X042415Y046347D03*
X042015Y046347D03*
X026015Y036597D03*
X025590Y036597D03*
X025165Y036597D03*
X025165Y036172D03*
X025165Y035747D03*
X025590Y035747D03*
X025590Y036172D03*
X026015Y036172D03*
X026015Y035747D03*
X020815Y035747D03*
X020390Y035747D03*
X019965Y035747D03*
X019965Y036172D03*
X019965Y036597D03*
X020390Y036597D03*
X020390Y036172D03*
X020815Y036172D03*
X020815Y036597D03*
X017465Y035072D03*
X017465Y034697D03*
X017465Y034322D03*
X017040Y034322D03*
X017040Y034697D03*
X017040Y035072D03*
X013740Y035072D03*
X013740Y034697D03*
X013740Y034322D03*
X013315Y034322D03*
X013315Y034697D03*
X013315Y035072D03*
X041590Y035672D03*
X041590Y036072D03*
X042015Y036072D03*
X042015Y035672D03*
D137*
X052725Y034968D03*
X068473Y034968D03*
X030481Y028078D03*
X008630Y034968D03*
X008630Y060952D03*
X048000Y060952D03*
X068473Y060952D03*
X107843Y060952D03*
X112567Y034968D03*
D138*
X042292Y031031D03*
X006071Y031031D03*
X006071Y006228D03*
X042292Y006228D03*
D139*
X005890Y016522D03*
X005890Y018272D03*
M02*
