G75*
G70*
%OFA0B0*%
%FSLAX24Y24*%
%IPPOS*%
%LPD*%
%AMOC8*
5,1,8,0,0,1.08239X$1,22.5*
%
%ADD10C,0.0100*%
%ADD11C,0.0000*%
%ADD12C,0.0004*%
D10*
X004103Y003275D02*
X042685Y003275D01*
X042685Y044614D01*
X004103Y044614D01*
X004103Y003275D01*
D11*
X008406Y007207D02*
X008408Y007257D01*
X008414Y007307D01*
X008424Y007356D01*
X008438Y007404D01*
X008455Y007451D01*
X008476Y007496D01*
X008501Y007540D01*
X008529Y007581D01*
X008561Y007620D01*
X008595Y007657D01*
X008632Y007691D01*
X008672Y007721D01*
X008714Y007748D01*
X008758Y007772D01*
X008804Y007793D01*
X008851Y007809D01*
X008899Y007822D01*
X008949Y007831D01*
X008998Y007836D01*
X009049Y007837D01*
X009099Y007834D01*
X009148Y007827D01*
X009197Y007816D01*
X009245Y007801D01*
X009291Y007783D01*
X009336Y007761D01*
X009379Y007735D01*
X009420Y007706D01*
X009459Y007674D01*
X009495Y007639D01*
X009527Y007601D01*
X009557Y007561D01*
X009584Y007518D01*
X009607Y007474D01*
X009626Y007428D01*
X009642Y007380D01*
X009654Y007331D01*
X009662Y007282D01*
X009666Y007232D01*
X009666Y007182D01*
X009662Y007132D01*
X009654Y007083D01*
X009642Y007034D01*
X009626Y006986D01*
X009607Y006940D01*
X009584Y006896D01*
X009557Y006853D01*
X009527Y006813D01*
X009495Y006775D01*
X009459Y006740D01*
X009420Y006708D01*
X009379Y006679D01*
X009336Y006653D01*
X009291Y006631D01*
X009245Y006613D01*
X009197Y006598D01*
X009148Y006587D01*
X009099Y006580D01*
X009049Y006577D01*
X008998Y006578D01*
X008949Y006583D01*
X008899Y006592D01*
X008851Y006605D01*
X008804Y006621D01*
X008758Y006642D01*
X008714Y006666D01*
X008672Y006693D01*
X008632Y006723D01*
X008595Y006757D01*
X008561Y006794D01*
X008529Y006833D01*
X008501Y006874D01*
X008476Y006918D01*
X008455Y006963D01*
X008438Y007010D01*
X008424Y007058D01*
X008414Y007107D01*
X008408Y007157D01*
X008406Y007207D01*
X031634Y007207D02*
X031636Y007257D01*
X031642Y007307D01*
X031652Y007356D01*
X031666Y007404D01*
X031683Y007451D01*
X031704Y007496D01*
X031729Y007540D01*
X031757Y007581D01*
X031789Y007620D01*
X031823Y007657D01*
X031860Y007691D01*
X031900Y007721D01*
X031942Y007748D01*
X031986Y007772D01*
X032032Y007793D01*
X032079Y007809D01*
X032127Y007822D01*
X032177Y007831D01*
X032226Y007836D01*
X032277Y007837D01*
X032327Y007834D01*
X032376Y007827D01*
X032425Y007816D01*
X032473Y007801D01*
X032519Y007783D01*
X032564Y007761D01*
X032607Y007735D01*
X032648Y007706D01*
X032687Y007674D01*
X032723Y007639D01*
X032755Y007601D01*
X032785Y007561D01*
X032812Y007518D01*
X032835Y007474D01*
X032854Y007428D01*
X032870Y007380D01*
X032882Y007331D01*
X032890Y007282D01*
X032894Y007232D01*
X032894Y007182D01*
X032890Y007132D01*
X032882Y007083D01*
X032870Y007034D01*
X032854Y006986D01*
X032835Y006940D01*
X032812Y006896D01*
X032785Y006853D01*
X032755Y006813D01*
X032723Y006775D01*
X032687Y006740D01*
X032648Y006708D01*
X032607Y006679D01*
X032564Y006653D01*
X032519Y006631D01*
X032473Y006613D01*
X032425Y006598D01*
X032376Y006587D01*
X032327Y006580D01*
X032277Y006577D01*
X032226Y006578D01*
X032177Y006583D01*
X032127Y006592D01*
X032079Y006605D01*
X032032Y006621D01*
X031986Y006642D01*
X031942Y006666D01*
X031900Y006693D01*
X031860Y006723D01*
X031823Y006757D01*
X031789Y006794D01*
X031757Y006833D01*
X031729Y006874D01*
X031704Y006918D01*
X031683Y006963D01*
X031666Y007010D01*
X031652Y007058D01*
X031642Y007107D01*
X031636Y007157D01*
X031634Y007207D01*
X038836Y037475D02*
X038838Y037525D01*
X038844Y037575D01*
X038854Y037624D01*
X038867Y037673D01*
X038885Y037720D01*
X038906Y037766D01*
X038930Y037809D01*
X038958Y037851D01*
X038989Y037891D01*
X039023Y037928D01*
X039060Y037962D01*
X039100Y037993D01*
X039142Y038021D01*
X039185Y038045D01*
X039231Y038066D01*
X039278Y038084D01*
X039327Y038097D01*
X039376Y038107D01*
X039426Y038113D01*
X039476Y038115D01*
X039526Y038113D01*
X039576Y038107D01*
X039625Y038097D01*
X039674Y038084D01*
X039721Y038066D01*
X039767Y038045D01*
X039810Y038021D01*
X039852Y037993D01*
X039892Y037962D01*
X039929Y037928D01*
X039963Y037891D01*
X039994Y037851D01*
X040022Y037809D01*
X040046Y037766D01*
X040067Y037720D01*
X040085Y037673D01*
X040098Y037624D01*
X040108Y037575D01*
X040114Y037525D01*
X040116Y037475D01*
X040114Y037425D01*
X040108Y037375D01*
X040098Y037326D01*
X040085Y037277D01*
X040067Y037230D01*
X040046Y037184D01*
X040022Y037141D01*
X039994Y037099D01*
X039963Y037059D01*
X039929Y037022D01*
X039892Y036988D01*
X039852Y036957D01*
X039810Y036929D01*
X039767Y036905D01*
X039721Y036884D01*
X039674Y036866D01*
X039625Y036853D01*
X039576Y036843D01*
X039526Y036837D01*
X039476Y036835D01*
X039426Y036837D01*
X039376Y036843D01*
X039327Y036853D01*
X039278Y036866D01*
X039231Y036884D01*
X039185Y036905D01*
X039142Y036929D01*
X039100Y036957D01*
X039060Y036988D01*
X039023Y037022D01*
X038989Y037059D01*
X038958Y037099D01*
X038930Y037141D01*
X038906Y037184D01*
X038885Y037230D01*
X038867Y037277D01*
X038854Y037326D01*
X038844Y037375D01*
X038838Y037425D01*
X038836Y037475D01*
X038836Y041975D02*
X038838Y042025D01*
X038844Y042075D01*
X038854Y042124D01*
X038867Y042173D01*
X038885Y042220D01*
X038906Y042266D01*
X038930Y042309D01*
X038958Y042351D01*
X038989Y042391D01*
X039023Y042428D01*
X039060Y042462D01*
X039100Y042493D01*
X039142Y042521D01*
X039185Y042545D01*
X039231Y042566D01*
X039278Y042584D01*
X039327Y042597D01*
X039376Y042607D01*
X039426Y042613D01*
X039476Y042615D01*
X039526Y042613D01*
X039576Y042607D01*
X039625Y042597D01*
X039674Y042584D01*
X039721Y042566D01*
X039767Y042545D01*
X039810Y042521D01*
X039852Y042493D01*
X039892Y042462D01*
X039929Y042428D01*
X039963Y042391D01*
X039994Y042351D01*
X040022Y042309D01*
X040046Y042266D01*
X040067Y042220D01*
X040085Y042173D01*
X040098Y042124D01*
X040108Y042075D01*
X040114Y042025D01*
X040116Y041975D01*
X040114Y041925D01*
X040108Y041875D01*
X040098Y041826D01*
X040085Y041777D01*
X040067Y041730D01*
X040046Y041684D01*
X040022Y041641D01*
X039994Y041599D01*
X039963Y041559D01*
X039929Y041522D01*
X039892Y041488D01*
X039852Y041457D01*
X039810Y041429D01*
X039767Y041405D01*
X039721Y041384D01*
X039674Y041366D01*
X039625Y041353D01*
X039576Y041343D01*
X039526Y041337D01*
X039476Y041335D01*
X039426Y041337D01*
X039376Y041343D01*
X039327Y041353D01*
X039278Y041366D01*
X039231Y041384D01*
X039185Y041405D01*
X039142Y041429D01*
X039100Y041457D01*
X039060Y041488D01*
X039023Y041522D01*
X038989Y041559D01*
X038958Y041599D01*
X038930Y041641D01*
X038906Y041684D01*
X038885Y041730D01*
X038867Y041777D01*
X038854Y041826D01*
X038844Y041875D01*
X038838Y041925D01*
X038836Y041975D01*
X031634Y040671D02*
X031636Y040721D01*
X031642Y040771D01*
X031652Y040820D01*
X031666Y040868D01*
X031683Y040915D01*
X031704Y040960D01*
X031729Y041004D01*
X031757Y041045D01*
X031789Y041084D01*
X031823Y041121D01*
X031860Y041155D01*
X031900Y041185D01*
X031942Y041212D01*
X031986Y041236D01*
X032032Y041257D01*
X032079Y041273D01*
X032127Y041286D01*
X032177Y041295D01*
X032226Y041300D01*
X032277Y041301D01*
X032327Y041298D01*
X032376Y041291D01*
X032425Y041280D01*
X032473Y041265D01*
X032519Y041247D01*
X032564Y041225D01*
X032607Y041199D01*
X032648Y041170D01*
X032687Y041138D01*
X032723Y041103D01*
X032755Y041065D01*
X032785Y041025D01*
X032812Y040982D01*
X032835Y040938D01*
X032854Y040892D01*
X032870Y040844D01*
X032882Y040795D01*
X032890Y040746D01*
X032894Y040696D01*
X032894Y040646D01*
X032890Y040596D01*
X032882Y040547D01*
X032870Y040498D01*
X032854Y040450D01*
X032835Y040404D01*
X032812Y040360D01*
X032785Y040317D01*
X032755Y040277D01*
X032723Y040239D01*
X032687Y040204D01*
X032648Y040172D01*
X032607Y040143D01*
X032564Y040117D01*
X032519Y040095D01*
X032473Y040077D01*
X032425Y040062D01*
X032376Y040051D01*
X032327Y040044D01*
X032277Y040041D01*
X032226Y040042D01*
X032177Y040047D01*
X032127Y040056D01*
X032079Y040069D01*
X032032Y040085D01*
X031986Y040106D01*
X031942Y040130D01*
X031900Y040157D01*
X031860Y040187D01*
X031823Y040221D01*
X031789Y040258D01*
X031757Y040297D01*
X031729Y040338D01*
X031704Y040382D01*
X031683Y040427D01*
X031666Y040474D01*
X031652Y040522D01*
X031642Y040571D01*
X031636Y040621D01*
X031634Y040671D01*
X008406Y040671D02*
X008408Y040721D01*
X008414Y040771D01*
X008424Y040820D01*
X008438Y040868D01*
X008455Y040915D01*
X008476Y040960D01*
X008501Y041004D01*
X008529Y041045D01*
X008561Y041084D01*
X008595Y041121D01*
X008632Y041155D01*
X008672Y041185D01*
X008714Y041212D01*
X008758Y041236D01*
X008804Y041257D01*
X008851Y041273D01*
X008899Y041286D01*
X008949Y041295D01*
X008998Y041300D01*
X009049Y041301D01*
X009099Y041298D01*
X009148Y041291D01*
X009197Y041280D01*
X009245Y041265D01*
X009291Y041247D01*
X009336Y041225D01*
X009379Y041199D01*
X009420Y041170D01*
X009459Y041138D01*
X009495Y041103D01*
X009527Y041065D01*
X009557Y041025D01*
X009584Y040982D01*
X009607Y040938D01*
X009626Y040892D01*
X009642Y040844D01*
X009654Y040795D01*
X009662Y040746D01*
X009666Y040696D01*
X009666Y040646D01*
X009662Y040596D01*
X009654Y040547D01*
X009642Y040498D01*
X009626Y040450D01*
X009607Y040404D01*
X009584Y040360D01*
X009557Y040317D01*
X009527Y040277D01*
X009495Y040239D01*
X009459Y040204D01*
X009420Y040172D01*
X009379Y040143D01*
X009336Y040117D01*
X009291Y040095D01*
X009245Y040077D01*
X009197Y040062D01*
X009148Y040051D01*
X009099Y040044D01*
X009049Y040041D01*
X008998Y040042D01*
X008949Y040047D01*
X008899Y040056D01*
X008851Y040069D01*
X008804Y040085D01*
X008758Y040106D01*
X008714Y040130D01*
X008672Y040157D01*
X008632Y040187D01*
X008595Y040221D01*
X008561Y040258D01*
X008529Y040297D01*
X008501Y040338D01*
X008476Y040382D01*
X008455Y040427D01*
X008438Y040474D01*
X008424Y040522D01*
X008414Y040571D01*
X008408Y040621D01*
X008406Y040671D01*
D12*
X042697Y043550D02*
X042697Y035900D01*
M02*
