G75*
G70*
%OFA0B0*%
%FSLAX24Y24*%
%IPPOS*%
%LPD*%
%AMOC8*
5,1,8,0,0,1.08239X$1,22.5*
%
%ADD10C,0.0120*%
%ADD11C,0.0320*%
%ADD12C,0.1200*%
%ADD13R,0.2126X0.0945*%
%ADD14R,0.0756X0.1189*%
%ADD15R,0.0618X0.0618*%
%ADD16R,0.0661X0.1528*%
%ADD17OC8,0.0756*%
%ADD18C,0.0756*%
%ADD19C,0.0921*%
%ADD20R,0.0693X0.0614*%
%ADD21R,0.0630X0.0472*%
%ADD22R,0.1189X0.0756*%
%ADD23R,0.0824X0.0264*%
%ADD24OC8,0.0624*%
%ADD25R,0.0614X0.0693*%
%ADD26R,0.0843X0.0803*%
%ADD27R,0.0819X0.0661*%
%ADD28R,0.0661X0.0819*%
%ADD29R,0.0803X0.0843*%
%ADD30OC8,0.0840*%
%ADD31OC8,0.0780*%
%ADD32C,0.0712*%
%ADD33R,0.0283X0.0657*%
%ADD34C,0.2010*%
%ADD35OC8,0.2010*%
%ADD36R,0.0472X0.0512*%
%ADD37R,0.0264X0.0824*%
%ADD38R,0.0512X0.0472*%
%ADD39R,0.0567X0.0567*%
%ADD40C,0.1200*%
%ADD41OC8,0.1200*%
%ADD42C,0.0840*%
%ADD43R,0.0661X0.0661*%
%ADD44R,0.0709X0.1063*%
%ADD45R,0.1063X0.0709*%
%ADD46R,0.0840X0.0540*%
%ADD47R,0.1450X0.2200*%
%ADD48R,0.0614X0.1126*%
%ADD49C,0.0618*%
%ADD50OC8,0.0618*%
%ADD51R,0.0588X0.0168*%
%ADD52C,0.0720*%
%ADD53R,0.0712X0.0712*%
%ADD54OC8,0.0712*%
%ADD55OC8,0.0672*%
%ADD56C,0.0672*%
%ADD57R,0.0523X0.0523*%
%ADD58C,0.2365*%
%ADD59OC8,0.0523*%
D10*
X013218Y007999D02*
X014768Y007999D01*
D11*
X016968Y008149D02*
X017918Y008149D01*
D12*
X008738Y034077D02*
X007738Y034077D01*
X007738Y036045D02*
X008738Y036045D01*
D13*
X014670Y013388D03*
X014670Y012010D03*
X018016Y012010D03*
X018016Y013388D03*
D14*
X020392Y014099D03*
X021494Y014099D03*
X022367Y014099D03*
X023469Y014099D03*
X013019Y007674D03*
X011917Y007674D03*
X011617Y013249D03*
X012719Y013249D03*
X012719Y014599D03*
X011617Y014599D03*
D15*
X011968Y007674D03*
X012968Y007674D03*
X020443Y014099D03*
X021443Y014099D03*
X022043Y015799D03*
X022043Y016799D03*
D16*
X022143Y012583D03*
X022143Y010575D03*
X014068Y016175D03*
X014068Y018183D03*
D17*
X014068Y017899D03*
X022143Y012299D03*
D18*
X022143Y010899D03*
X014068Y016499D03*
D19*
X014053Y040972D02*
X014821Y040972D01*
X017006Y040972D02*
X017774Y040972D01*
X011868Y040972D02*
X011101Y040972D01*
X007931Y040972D02*
X007164Y040972D01*
D20*
X022293Y037873D03*
X022293Y037125D03*
X023093Y037125D03*
X023093Y037873D03*
X023118Y036073D03*
X023118Y035325D03*
X022318Y035325D03*
X022318Y036073D03*
X023993Y034723D03*
X023993Y033975D03*
X024968Y033975D03*
X024968Y034723D03*
X024968Y035625D03*
X024968Y036373D03*
X024968Y037125D03*
X024968Y037873D03*
X026118Y033498D03*
X026118Y032750D03*
X024868Y031648D03*
X024868Y030900D03*
X011968Y011098D03*
X011968Y010350D03*
X011968Y009498D03*
X011968Y008750D03*
X013293Y005948D03*
X013293Y005200D03*
X017568Y005175D03*
X017568Y005923D03*
X020168Y009375D03*
X020168Y010123D03*
X023343Y007348D03*
X023343Y006600D03*
X024143Y006600D03*
X024143Y007348D03*
X024293Y008450D03*
X024293Y009198D03*
X025493Y005423D03*
X025493Y004675D03*
D21*
X025226Y032500D03*
X025226Y033248D03*
X024360Y032874D03*
D22*
X023393Y016850D03*
X023393Y015747D03*
X022043Y015747D03*
X022043Y016850D03*
X020043Y008525D03*
X020043Y007422D03*
X013193Y008747D03*
X013193Y009850D03*
D23*
X024998Y011574D03*
X024998Y012074D03*
X024998Y012574D03*
X024998Y013074D03*
X024998Y015374D03*
X024998Y015874D03*
X024998Y016374D03*
X024998Y016874D03*
X026938Y016874D03*
X026938Y016374D03*
X026938Y015874D03*
X026938Y015374D03*
X026938Y013074D03*
X026938Y012574D03*
X026938Y012074D03*
X026938Y011574D03*
D24*
X022643Y008649D03*
X022143Y007899D03*
X021643Y008649D03*
X028618Y031299D03*
X012768Y038199D03*
X010768Y038199D03*
D25*
X016169Y037349D03*
X016917Y037349D03*
X016892Y036474D03*
X016144Y036474D03*
X026744Y030799D03*
X027492Y030799D03*
X025192Y017824D03*
X024444Y017824D03*
X025769Y014599D03*
X026517Y014599D03*
X026517Y013824D03*
X025769Y013824D03*
X025844Y010799D03*
X026592Y010799D03*
X027294Y010799D03*
X028042Y010799D03*
X028042Y009699D03*
X027294Y009699D03*
X024092Y005849D03*
X023344Y005849D03*
X017992Y009024D03*
X017244Y009024D03*
X015567Y009249D03*
X014819Y009249D03*
X014817Y005974D03*
X014817Y005149D03*
X014069Y005149D03*
X014069Y005974D03*
X012517Y005974D03*
X012517Y005149D03*
X011769Y005149D03*
X011769Y005974D03*
X015994Y005974D03*
X015994Y005149D03*
X016742Y005149D03*
X016742Y005974D03*
X008967Y021499D03*
X008219Y021499D03*
D26*
X012986Y034449D03*
X012986Y035749D03*
X014600Y035749D03*
X014600Y034449D03*
X024611Y018649D03*
X026225Y018649D03*
X026886Y017674D03*
X028500Y017674D03*
D27*
X024043Y036504D03*
X024043Y037843D03*
D28*
X016862Y035524D03*
X015524Y035524D03*
D29*
X010993Y035481D03*
X010993Y033867D03*
D30*
X017493Y026249D03*
D31*
X017493Y026249D03*
D32*
X007193Y008070D02*
X007193Y007477D01*
X008193Y007477D02*
X008193Y008070D01*
X009193Y008070D02*
X009193Y007477D01*
X009193Y013327D02*
X009193Y013920D01*
X008193Y013920D02*
X008193Y013327D01*
X007193Y013327D02*
X007193Y013920D01*
X027971Y008324D02*
X028565Y008324D01*
X028565Y007324D02*
X027971Y007324D01*
D33*
X009420Y009561D03*
X008920Y009561D03*
X008420Y009561D03*
X007920Y009561D03*
X007920Y011687D03*
X008420Y011687D03*
X008920Y011687D03*
X009420Y011687D03*
D34*
X017343Y021624D03*
X013468Y026249D03*
X017343Y030874D03*
D35*
X017468Y026249D03*
X021343Y030874D03*
X021343Y021624D03*
X009468Y026249D03*
D36*
X007243Y011958D03*
X007243Y011289D03*
X007268Y010083D03*
X007268Y009414D03*
D37*
X025043Y008569D03*
X025543Y008569D03*
X026043Y008569D03*
X026543Y008569D03*
X026543Y006629D03*
X026043Y006629D03*
X025543Y006629D03*
X025043Y006629D03*
D38*
X025133Y009649D03*
X025803Y009649D03*
D39*
X024243Y009960D03*
X024243Y010787D03*
D40*
X009366Y017054D03*
D41*
X009366Y019054D03*
D42*
X017343Y015874D03*
X020343Y015874D03*
X018868Y009474D03*
X018868Y006474D03*
D43*
X018868Y007226D03*
X019591Y015874D03*
D44*
X018868Y008474D03*
D45*
X018343Y015874D03*
D46*
X026033Y034839D03*
X026033Y035749D03*
X026033Y036659D03*
X018233Y036949D03*
X018233Y037859D03*
X018233Y036039D03*
D47*
X020503Y036949D03*
X028303Y035749D03*
D48*
X028518Y016307D03*
X028518Y014890D03*
X028518Y013557D03*
X028518Y012140D03*
X021818Y006857D03*
X021818Y005440D03*
D49*
X021818Y005649D03*
X028518Y012349D03*
X028518Y015099D03*
D50*
X028518Y016099D03*
X028518Y013349D03*
X021818Y006649D03*
D51*
X017038Y006724D03*
X017038Y006984D03*
X017038Y007244D03*
X017038Y007494D03*
X017038Y007754D03*
X017038Y008004D03*
X017038Y008264D03*
X017038Y008524D03*
X014798Y008524D03*
X014798Y008264D03*
X014798Y008004D03*
X014798Y007754D03*
X014798Y007494D03*
X014798Y007244D03*
X014798Y006984D03*
X014798Y006724D03*
D52*
X020622Y041050D02*
X020622Y041650D01*
X021622Y041650D02*
X021622Y041050D01*
X022622Y041050D02*
X022622Y041650D01*
X025347Y041650D02*
X025347Y041050D01*
X026347Y041050D02*
X026347Y041650D01*
X027347Y041650D02*
X027347Y041050D01*
D53*
X026118Y020224D03*
D54*
X026118Y021224D03*
X026118Y022224D03*
X026118Y023224D03*
X026118Y024224D03*
X026118Y025224D03*
X026118Y026224D03*
X026118Y027224D03*
X026118Y028224D03*
X025118Y028224D03*
X025118Y027224D03*
X025118Y026224D03*
X025118Y025224D03*
X025118Y024224D03*
X025118Y023224D03*
X025118Y022224D03*
X025118Y021224D03*
X025118Y020224D03*
D55*
X026618Y031299D03*
D56*
X027618Y031299D03*
D57*
X026768Y018524D03*
X026318Y017574D03*
X023393Y015249D03*
X023418Y013374D03*
X013493Y012224D03*
X013493Y011799D03*
X013418Y010324D03*
X012993Y010324D03*
X011093Y013049D03*
X011093Y013474D03*
X011093Y014374D03*
X011093Y014799D03*
D58*
X007843Y004948D03*
X028315Y004948D03*
X028315Y038807D03*
X007843Y038807D03*
D59*
X023968Y018649D03*
M02*
