G75*
G70*
%OFA0B0*%
%FSLAX24Y24*%
%IPPOS*%
%LPD*%
%AMOC8*
5,1,8,0,0,1.08239X$1,22.5*
%
%ADD10C,0.0100*%
%ADD11C,0.0050*%
%ADD12R,0.0149X0.0001*%
%ADD13R,0.0004X0.0001*%
%ADD14R,0.0010X0.0001*%
%ADD15R,0.0017X0.0001*%
%ADD16R,0.0023X0.0001*%
%ADD17R,0.0029X0.0001*%
%ADD18R,0.0034X0.0001*%
%ADD19R,0.0040X0.0001*%
%ADD20R,0.0043X0.0002*%
%ADD21R,0.0047X0.0001*%
%ADD22R,0.0050X0.0001*%
%ADD23R,0.0054X0.0001*%
%ADD24R,0.0059X0.0001*%
%ADD25R,0.0064X0.0001*%
%ADD26R,0.0015X0.0001*%
%ADD27R,0.0067X0.0001*%
%ADD28R,0.0020X0.0001*%
%ADD29R,0.0070X0.0001*%
%ADD30R,0.0024X0.0001*%
%ADD31R,0.0074X0.0001*%
%ADD32R,0.0027X0.0001*%
%ADD33R,0.0076X0.0001*%
%ADD34R,0.0030X0.0001*%
%ADD35R,0.0081X0.0002*%
%ADD36R,0.0036X0.0002*%
%ADD37R,0.0086X0.0001*%
%ADD38R,0.0044X0.0001*%
%ADD39R,0.0091X0.0001*%
%ADD40R,0.0046X0.0001*%
%ADD41R,0.0094X0.0001*%
%ADD42R,0.0096X0.0001*%
%ADD43R,0.0053X0.0001*%
%ADD44R,0.0099X0.0001*%
%ADD45R,0.0056X0.0001*%
%ADD46R,0.0104X0.0001*%
%ADD47R,0.0060X0.0001*%
%ADD48R,0.0108X0.0001*%
%ADD49R,0.0112X0.0001*%
%ADD50R,0.0117X0.0001*%
%ADD51R,0.0072X0.0001*%
%ADD52R,0.0120X0.0002*%
%ADD53R,0.0075X0.0002*%
%ADD54R,0.0123X0.0001*%
%ADD55R,0.0078X0.0001*%
%ADD56R,0.0126X0.0001*%
%ADD57R,0.0081X0.0001*%
%ADD58R,0.0131X0.0001*%
%ADD59R,0.0136X0.0001*%
%ADD60R,0.0090X0.0001*%
%ADD61R,0.0139X0.0001*%
%ADD62R,0.0144X0.0001*%
%ADD63R,0.0147X0.0001*%
%ADD64R,0.0101X0.0001*%
%ADD65R,0.0150X0.0001*%
%ADD66R,0.0102X0.0001*%
%ADD67R,0.0153X0.0001*%
%ADD68R,0.0106X0.0001*%
%ADD69R,0.0158X0.0002*%
%ADD70R,0.0109X0.0002*%
%ADD71R,0.0164X0.0001*%
%ADD72R,0.0115X0.0001*%
%ADD73R,0.0168X0.0001*%
%ADD74R,0.0120X0.0001*%
%ADD75R,0.0171X0.0001*%
%ADD76R,0.0123X0.0001*%
%ADD77R,0.0172X0.0001*%
%ADD78R,0.0125X0.0001*%
%ADD79R,0.0175X0.0001*%
%ADD80R,0.0128X0.0001*%
%ADD81R,0.0180X0.0001*%
%ADD82R,0.0132X0.0001*%
%ADD83R,0.0186X0.0001*%
%ADD84R,0.0191X0.0001*%
%ADD85R,0.0141X0.0001*%
%ADD86R,0.0194X0.0001*%
%ADD87R,0.0145X0.0001*%
%ADD88R,0.0196X0.0002*%
%ADD89R,0.0149X0.0002*%
%ADD90R,0.0199X0.0001*%
%ADD91R,0.0151X0.0001*%
%ADD92R,0.0204X0.0001*%
%ADD93R,0.0153X0.0001*%
%ADD94R,0.0207X0.0001*%
%ADD95R,0.0158X0.0001*%
%ADD96R,0.0211X0.0001*%
%ADD97R,0.0162X0.0001*%
%ADD98R,0.0216X0.0001*%
%ADD99R,0.0166X0.0001*%
%ADD100R,0.0219X0.0001*%
%ADD101R,0.0007X0.0001*%
%ADD102R,0.0169X0.0001*%
%ADD103R,0.0222X0.0001*%
%ADD104R,0.0011X0.0001*%
%ADD105R,0.0224X0.0001*%
%ADD106R,0.0014X0.0001*%
%ADD107R,0.0176X0.0001*%
%ADD108R,0.0228X0.0001*%
%ADD109R,0.0018X0.0001*%
%ADD110R,0.0179X0.0001*%
%ADD111R,0.0234X0.0002*%
%ADD112R,0.0024X0.0002*%
%ADD113R,0.0183X0.0002*%
%ADD114R,0.0239X0.0001*%
%ADD115R,0.0189X0.0001*%
%ADD116R,0.0241X0.0001*%
%ADD117R,0.0033X0.0001*%
%ADD118R,0.0012X0.0001*%
%ADD119R,0.0192X0.0001*%
%ADD120R,0.0243X0.0001*%
%ADD121R,0.0038X0.0001*%
%ADD122R,0.0246X0.0001*%
%ADD123R,0.0041X0.0001*%
%ADD124R,0.0019X0.0001*%
%ADD125R,0.0196X0.0001*%
%ADD126R,0.0250X0.0001*%
%ADD127R,0.0021X0.0001*%
%ADD128R,0.0201X0.0001*%
%ADD129R,0.0254X0.0001*%
%ADD130R,0.0048X0.0001*%
%ADD131R,0.0258X0.0001*%
%ADD132R,0.0054X0.0001*%
%ADD133R,0.0209X0.0001*%
%ADD134R,0.0263X0.0001*%
%ADD135R,0.0213X0.0001*%
%ADD136R,0.0267X0.0001*%
%ADD137R,0.0063X0.0001*%
%ADD138R,0.0270X0.0002*%
%ADD139R,0.0066X0.0002*%
%ADD140R,0.0045X0.0002*%
%ADD141R,0.0219X0.0002*%
%ADD142R,0.0271X0.0001*%
%ADD143R,0.0220X0.0001*%
%ADD144R,0.0274X0.0001*%
%ADD145R,0.0051X0.0001*%
%ADD146R,0.0223X0.0001*%
%ADD147R,0.0278X0.0001*%
%ADD148R,0.0282X0.0001*%
%ADD149R,0.0231X0.0001*%
%ADD150R,0.0288X0.0001*%
%ADD151R,0.0085X0.0001*%
%ADD152R,0.0236X0.0001*%
%ADD153R,0.0289X0.0001*%
%ADD154R,0.0087X0.0001*%
%ADD155R,0.0066X0.0001*%
%ADD156R,0.0292X0.0001*%
%ADD157R,0.0069X0.0001*%
%ADD158R,0.0297X0.0001*%
%ADD159R,0.0300X0.0001*%
%ADD160R,0.0075X0.0001*%
%ADD161R,0.0305X0.0002*%
%ADD162R,0.0101X0.0002*%
%ADD163R,0.0078X0.0002*%
%ADD164R,0.0251X0.0002*%
%ADD165R,0.0309X0.0001*%
%ADD166R,0.0105X0.0001*%
%ADD167R,0.0083X0.0001*%
%ADD168R,0.0255X0.0001*%
%ADD169R,0.0314X0.0001*%
%ADD170R,0.0110X0.0001*%
%ADD171R,0.0087X0.0001*%
%ADD172R,0.0316X0.0001*%
%ADD173R,0.0113X0.0001*%
%ADD174R,0.0262X0.0001*%
%ADD175R,0.0319X0.0001*%
%ADD176R,0.0114X0.0001*%
%ADD177R,0.0093X0.0001*%
%ADD178R,0.0266X0.0001*%
%ADD179R,0.0321X0.0001*%
%ADD180R,0.0096X0.0001*%
%ADD181R,0.0324X0.0001*%
%ADD182R,0.0270X0.0001*%
%ADD183R,0.0329X0.0001*%
%ADD184R,0.0124X0.0001*%
%ADD185R,0.0275X0.0001*%
%ADD186R,0.0333X0.0001*%
%ADD187R,0.0279X0.0001*%
%ADD188R,0.0336X0.0001*%
%ADD189R,0.0111X0.0001*%
%ADD190R,0.0284X0.0001*%
%ADD191R,0.0339X0.0002*%
%ADD192R,0.0134X0.0002*%
%ADD193R,0.0114X0.0002*%
%ADD194R,0.0286X0.0002*%
%ADD195R,0.0342X0.0001*%
%ADD196R,0.0116X0.0001*%
%ADD197R,0.0491X0.0001*%
%ADD198R,0.0492X0.0001*%
%ADD199R,0.0294X0.0001*%
%ADD200R,0.0495X0.0001*%
%ADD201R,0.0299X0.0001*%
%ADD202R,0.0496X0.0001*%
%ADD203R,0.0127X0.0001*%
%ADD204R,0.0301X0.0001*%
%ADD205R,0.0498X0.0001*%
%ADD206R,0.0304X0.0001*%
%ADD207R,0.0501X0.0001*%
%ADD208R,0.0134X0.0001*%
%ADD209R,0.0308X0.0001*%
%ADD210R,0.0135X0.0001*%
%ADD211R,0.0311X0.0001*%
%ADD212R,0.0504X0.0001*%
%ADD213R,0.0138X0.0001*%
%ADD214R,0.0504X0.0002*%
%ADD215R,0.0141X0.0002*%
%ADD216R,0.0318X0.0002*%
%ADD217R,0.0507X0.0001*%
%ADD218R,0.0323X0.0001*%
%ADD219R,0.0326X0.0001*%
%ADD220R,0.0508X0.0001*%
%ADD221R,0.0152X0.0001*%
%ADD222R,0.0330X0.0001*%
%ADD223R,0.0510X0.0001*%
%ADD224R,0.0494X0.0001*%
%ADD225R,0.0512X0.0001*%
%ADD226R,0.0500X0.0001*%
%ADD227R,0.0513X0.0001*%
%ADD228R,0.0501X0.0001*%
%ADD229R,0.0513X0.0002*%
%ADD230R,0.0501X0.0002*%
%ADD231R,0.0503X0.0001*%
%ADD232R,0.0504X0.0001*%
%ADD233R,0.0506X0.0001*%
%ADD234R,0.0513X0.0001*%
%ADD235R,0.0509X0.0001*%
%ADD236R,0.0511X0.0001*%
%ADD237R,0.0514X0.0001*%
%ADD238R,0.0516X0.0001*%
%ADD239R,0.0513X0.0002*%
%ADD240R,0.0519X0.0002*%
%ADD241R,0.0519X0.0001*%
%ADD242R,0.0520X0.0001*%
%ADD243R,0.0522X0.0001*%
%ADD244R,0.0507X0.0001*%
%ADD245R,0.0509X0.0002*%
%ADD246R,0.0520X0.0002*%
%ADD247R,0.0522X0.0001*%
%ADD248R,0.0505X0.0001*%
%ADD249R,0.0502X0.0001*%
%ADD250R,0.0521X0.0001*%
%ADD251R,0.0503X0.0002*%
%ADD252R,0.0519X0.0002*%
%ADD253R,0.0519X0.0001*%
%ADD254R,0.0499X0.0001*%
%ADD255R,0.0517X0.0001*%
%ADD256R,0.0495X0.0002*%
%ADD257R,0.0514X0.0002*%
%ADD258R,0.0515X0.0001*%
%ADD259R,0.0492X0.0001*%
%ADD260R,0.0490X0.0001*%
%ADD261R,0.0490X0.0002*%
%ADD262R,0.0511X0.0002*%
%ADD263R,0.0489X0.0001*%
%ADD264R,0.0489X0.0001*%
%ADD265R,0.0488X0.0001*%
%ADD266R,0.0485X0.0001*%
%ADD267R,0.0483X0.0001*%
%ADD268R,0.0483X0.0002*%
%ADD269R,0.0507X0.0002*%
%ADD270R,0.0483X0.0001*%
%ADD271R,0.0481X0.0001*%
%ADD272R,0.0480X0.0001*%
%ADD273R,0.0480X0.0002*%
%ADD274R,0.0501X0.0002*%
%ADD275R,0.0479X0.0001*%
%ADD276R,0.0477X0.0001*%
%ADD277R,0.0477X0.0001*%
%ADD278R,0.0475X0.0001*%
%ADD279R,0.0474X0.0001*%
%ADD280R,0.0472X0.0001*%
%ADD281R,0.0472X0.0002*%
%ADD282R,0.0498X0.0002*%
%ADD283R,0.0471X0.0001*%
%ADD284R,0.0473X0.0001*%
%ADD285R,0.0471X0.0001*%
%ADD286R,0.0470X0.0001*%
%ADD287R,0.0468X0.0001*%
%ADD288R,0.0469X0.0001*%
%ADD289R,0.0468X0.0002*%
%ADD290R,0.0491X0.0002*%
%ADD291R,0.0466X0.0001*%
%ADD292R,0.0465X0.0001*%
%ADD293R,0.0464X0.0001*%
%ADD294R,0.0462X0.0001*%
%ADD295R,0.0462X0.0002*%
%ADD296R,0.0489X0.0002*%
%ADD297R,0.0461X0.0001*%
%ADD298R,0.0460X0.0001*%
%ADD299R,0.0459X0.0001*%
%ADD300R,0.0484X0.0001*%
%ADD301R,0.0457X0.0001*%
%ADD302R,0.0459X0.0001*%
%ADD303R,0.0458X0.0002*%
%ADD304R,0.0484X0.0002*%
%ADD305R,0.0456X0.0001*%
%ADD306R,0.0455X0.0001*%
%ADD307R,0.0453X0.0001*%
%ADD308R,0.0451X0.0001*%
%ADD309R,0.0453X0.0001*%
%ADD310R,0.0450X0.0001*%
%ADD311R,0.0451X0.0002*%
%ADD312R,0.0478X0.0001*%
%ADD313R,0.0449X0.0001*%
%ADD314R,0.0476X0.0001*%
%ADD315R,0.0447X0.0001*%
%ADD316R,0.0474X0.0001*%
%ADD317R,0.0449X0.0002*%
%ADD318R,0.0476X0.0002*%
%ADD319R,0.0454X0.0001*%
%ADD320R,0.0469X0.0002*%
%ADD321R,0.0468X0.0001*%
%ADD322R,0.0467X0.0001*%
%ADD323R,0.0473X0.0002*%
%ADD324R,0.0468X0.0002*%
%ADD325R,0.0486X0.0002*%
%ADD326R,0.0474X0.0002*%
%ADD327R,0.0487X0.0001*%
%ADD328R,0.0497X0.0001*%
%ADD329R,0.0486X0.0001*%
%ADD330R,0.0500X0.0002*%
%ADD331R,0.0487X0.0002*%
%ADD332R,0.0498X0.0001*%
%ADD333R,0.0524X0.0002*%
%ADD334R,0.0524X0.0001*%
%ADD335R,0.0525X0.0001*%
%ADD336R,0.0528X0.0001*%
%ADD337R,0.0529X0.0001*%
%ADD338R,0.0533X0.0001*%
%ADD339R,0.0534X0.0001*%
%ADD340R,0.0523X0.0001*%
%ADD341R,0.0536X0.0001*%
%ADD342R,0.0537X0.0002*%
%ADD343R,0.0527X0.0002*%
%ADD344R,0.0537X0.0001*%
%ADD345R,0.0528X0.0001*%
%ADD346R,0.0539X0.0001*%
%ADD347R,0.0530X0.0001*%
%ADD348R,0.0540X0.0001*%
%ADD349R,0.0541X0.0001*%
%ADD350R,0.0531X0.0001*%
%ADD351R,0.0543X0.0001*%
%ADD352R,0.0544X0.0001*%
%ADD353R,0.0546X0.0002*%
%ADD354R,0.0536X0.0002*%
%ADD355R,0.0547X0.0001*%
%ADD356R,0.0551X0.0001*%
%ADD357R,0.0552X0.0001*%
%ADD358R,0.0554X0.0001*%
%ADD359R,0.0555X0.0001*%
%ADD360R,0.0555X0.0002*%
%ADD361R,0.0547X0.0002*%
%ADD362R,0.0549X0.0001*%
%ADD363R,0.0548X0.0001*%
%ADD364R,0.0538X0.0001*%
%ADD365R,0.0537X0.0001*%
%ADD366R,0.0533X0.0002*%
%ADD367R,0.0531X0.0001*%
%ADD368R,0.0526X0.0001*%
%ADD369R,0.0518X0.0001*%
%ADD370R,0.0498X0.0002*%
%ADD371R,0.0496X0.0002*%
%ADD372R,0.0486X0.0001*%
%ADD373R,0.0485X0.0002*%
%ADD374R,0.0482X0.0001*%
%ADD375R,0.0477X0.0002*%
%ADD376R,0.0530X0.0002*%
%ADD377R,0.0464X0.0002*%
%ADD378R,0.0561X0.0001*%
%ADD379R,0.0570X0.0001*%
%ADD380R,0.0576X0.0001*%
%ADD381R,0.0581X0.0001*%
%ADD382R,0.0585X0.0001*%
%ADD383R,0.0589X0.0001*%
%ADD384R,0.0600X0.0002*%
%ADD385R,0.0614X0.0001*%
%ADD386R,0.0623X0.0001*%
%ADD387R,0.0630X0.0001*%
%ADD388R,0.0633X0.0001*%
%ADD389R,0.0638X0.0001*%
%ADD390R,0.0645X0.0001*%
%ADD391R,0.0657X0.0001*%
%ADD392R,0.0556X0.0001*%
%ADD393R,0.0669X0.0001*%
%ADD394R,0.0674X0.0001*%
%ADD395R,0.0579X0.0001*%
%ADD396R,0.0676X0.0002*%
%ADD397R,0.0585X0.0002*%
%ADD398R,0.0678X0.0001*%
%ADD399R,0.0590X0.0001*%
%ADD400R,0.0679X0.0001*%
%ADD401R,0.0596X0.0001*%
%ADD402R,0.0681X0.0001*%
%ADD403R,0.0606X0.0001*%
%ADD404R,0.0620X0.0001*%
%ADD405R,0.0682X0.0001*%
%ADD406R,0.0633X0.0001*%
%ADD407R,0.0684X0.0001*%
%ADD408R,0.0639X0.0001*%
%ADD409R,0.0649X0.0001*%
%ADD410R,0.0684X0.0001*%
%ADD411R,0.0655X0.0001*%
%ADD412R,0.0683X0.0002*%
%ADD413R,0.0664X0.0002*%
%ADD414R,0.0683X0.0001*%
%ADD415R,0.0670X0.0001*%
%ADD416R,0.0671X0.0001*%
%ADD417R,0.0681X0.0001*%
%ADD418R,0.0672X0.0001*%
%ADD419R,0.0680X0.0001*%
%ADD420R,0.0675X0.0001*%
%ADD421R,0.0676X0.0001*%
%ADD422R,0.0680X0.0002*%
%ADD423R,0.0678X0.0002*%
%ADD424R,0.0678X0.0001*%
%ADD425R,0.0675X0.0002*%
%ADD426R,0.0672X0.0002*%
%ADD427R,0.0672X0.0001*%
%ADD428R,0.0671X0.0002*%
%ADD429R,0.0670X0.0002*%
%ADD430R,0.0669X0.0001*%
%ADD431R,0.0667X0.0001*%
%ADD432R,0.0669X0.0002*%
%ADD433R,0.0667X0.0002*%
%ADD434R,0.0668X0.0001*%
%ADD435R,0.0666X0.0001*%
%ADD436R,0.0668X0.0002*%
%ADD437R,0.0666X0.0002*%
%ADD438R,0.0666X0.0001*%
%ADD439R,0.0664X0.0001*%
%ADD440R,0.0663X0.0001*%
%ADD441R,0.0666X0.0002*%
%ADD442R,0.0663X0.0002*%
%ADD443R,0.0665X0.0001*%
%ADD444R,0.0674X0.0002*%
%ADD445R,0.0677X0.0001*%
%ADD446R,0.0678X0.0002*%
%ADD447R,0.0682X0.0002*%
%ADD448R,0.0686X0.0001*%
%ADD449R,0.0686X0.0002*%
%ADD450R,0.0687X0.0001*%
%ADD451R,0.0689X0.0001*%
%ADD452R,0.0653X0.0001*%
%ADD453R,0.0641X0.0001*%
%ADD454R,0.0626X0.0001*%
%ADD455R,0.0616X0.0001*%
%ADD456R,0.0687X0.0001*%
%ADD457R,0.0612X0.0001*%
%ADD458R,0.0688X0.0001*%
%ADD459R,0.0606X0.0001*%
%ADD460R,0.0601X0.0001*%
%ADD461R,0.0591X0.0002*%
%ADD462R,0.0567X0.0001*%
%ADD463R,0.0560X0.0001*%
%ADD464R,0.0659X0.0001*%
%ADD465R,0.0516X0.0001*%
%ADD466R,0.0639X0.0001*%
%ADD467R,0.0502X0.0002*%
%ADD468R,0.0633X0.0002*%
%ADD469R,0.0608X0.0001*%
%ADD470R,0.0582X0.0001*%
%ADD471R,0.0577X0.0001*%
%ADD472R,0.0569X0.0002*%
%ADD473R,0.0546X0.0001*%
%ADD474R,0.0486X0.0002*%
%ADD475R,0.0493X0.0001*%
%ADD476R,0.0516X0.0002*%
%ADD477R,0.0532X0.0001*%
%ADD478R,0.0534X0.0002*%
%ADD479R,0.0535X0.0002*%
%ADD480R,0.0543X0.0001*%
%ADD481R,0.0553X0.0001*%
%ADD482R,0.0559X0.0001*%
%ADD483R,0.0564X0.0001*%
%ADD484R,0.0564X0.0001*%
%ADD485R,0.0567X0.0001*%
%ADD486R,0.0569X0.0001*%
%ADD487R,0.0570X0.0002*%
%ADD488R,0.0571X0.0002*%
%ADD489R,0.0571X0.0001*%
%ADD490R,0.0573X0.0001*%
%ADD491R,0.0574X0.0001*%
%ADD492R,0.0576X0.0001*%
%ADD493R,0.0600X0.0001*%
%ADD494R,0.0611X0.0001*%
%ADD495R,0.0618X0.0001*%
%ADD496R,0.0621X0.0001*%
%ADD497R,0.1269X0.0001*%
%ADD498R,0.1267X0.0001*%
%ADD499R,0.1266X0.0001*%
%ADD500R,0.1266X0.0002*%
%ADD501R,0.1264X0.0001*%
%ADD502R,0.1261X0.0001*%
%ADD503R,0.1260X0.0001*%
%ADD504R,0.1259X0.0001*%
%ADD505R,0.1256X0.0001*%
%ADD506R,0.1254X0.0001*%
%ADD507R,0.1253X0.0001*%
%ADD508R,0.1251X0.0001*%
%ADD509R,0.1251X0.0002*%
%ADD510R,0.1248X0.0001*%
%ADD511R,0.1245X0.0001*%
%ADD512R,0.1244X0.0001*%
%ADD513R,0.1242X0.0001*%
%ADD514R,0.1239X0.0001*%
%ADD515R,0.1237X0.0001*%
%ADD516R,0.1236X0.0002*%
%ADD517R,0.1233X0.0001*%
%ADD518R,0.1230X0.0001*%
%ADD519R,0.1229X0.0001*%
%ADD520R,0.1227X0.0001*%
%ADD521R,0.1226X0.0001*%
%ADD522R,0.1224X0.0001*%
%ADD523R,0.1223X0.0002*%
%ADD524R,0.1219X0.0001*%
%ADD525R,0.1216X0.0001*%
%ADD526R,0.1215X0.0001*%
%ADD527R,0.1214X0.0001*%
%ADD528R,0.1212X0.0001*%
%ADD529R,0.1209X0.0001*%
%ADD530R,0.1207X0.0002*%
%ADD531R,0.1206X0.0001*%
%ADD532R,0.1204X0.0001*%
%ADD533R,0.1201X0.0001*%
%ADD534R,0.1200X0.0001*%
%ADD535R,0.1199X0.0001*%
%ADD536R,0.1196X0.0001*%
%ADD537R,0.1194X0.0001*%
%ADD538R,0.1193X0.0001*%
%ADD539R,0.1191X0.0001*%
%ADD540R,0.1191X0.0002*%
%ADD541R,0.1188X0.0001*%
%ADD542R,0.1185X0.0001*%
%ADD543R,0.1184X0.0001*%
%ADD544R,0.1181X0.0001*%
%ADD545R,0.1177X0.0001*%
%ADD546R,0.1176X0.0001*%
%ADD547R,0.1174X0.0001*%
%ADD548R,0.1173X0.0001*%
%ADD549R,0.1170X0.0002*%
%ADD550R,0.1170X0.0001*%
%ADD551R,0.1169X0.0001*%
%ADD552R,0.1166X0.0001*%
%ADD553R,0.1164X0.0001*%
%ADD554R,0.1163X0.0001*%
%ADD555R,0.1163X0.0002*%
%ADD556R,0.1167X0.0001*%
%ADD557R,0.1171X0.0001*%
%ADD558R,0.1179X0.0001*%
%ADD559R,0.1182X0.0001*%
%ADD560R,0.1182X0.0002*%
%ADD561R,0.1188X0.0001*%
%ADD562R,0.1190X0.0001*%
%ADD563R,0.1197X0.0001*%
%ADD564R,0.1204X0.0002*%
%ADD565R,0.1207X0.0001*%
%ADD566R,0.1210X0.0001*%
%ADD567R,0.1213X0.0001*%
%ADD568R,0.1217X0.0001*%
%ADD569R,0.1218X0.0001*%
%ADD570R,0.1220X0.0001*%
%ADD571R,0.1221X0.0001*%
%ADD572R,0.1223X0.0001*%
%ADD573R,0.1226X0.0002*%
%ADD574R,0.1236X0.0001*%
%ADD575R,0.1239X0.0001*%
%ADD576R,0.1240X0.0001*%
%ADD577R,0.1243X0.0001*%
%ADD578R,0.1248X0.0002*%
%ADD579R,0.1248X0.0001*%
%ADD580R,0.1251X0.0001*%
%ADD581R,0.1257X0.0001*%
%ADD582R,0.1263X0.0001*%
%ADD583R,0.1267X0.0002*%
%ADD584R,0.1270X0.0001*%
%ADD585R,0.1274X0.0001*%
%ADD586R,0.1275X0.0001*%
%ADD587R,0.1278X0.0001*%
%ADD588R,0.1280X0.0001*%
%ADD589R,0.1281X0.0001*%
%ADD590R,0.1284X0.0001*%
%ADD591R,0.1286X0.0001*%
%ADD592R,0.1289X0.0001*%
%ADD593R,0.1290X0.0002*%
%ADD594R,0.1291X0.0001*%
%ADD595R,0.1294X0.0001*%
%ADD596R,0.1296X0.0001*%
%ADD597R,0.1299X0.0001*%
%ADD598R,0.1300X0.0001*%
%ADD599R,0.1302X0.0001*%
%ADD600R,0.1304X0.0001*%
%ADD601R,0.1306X0.0001*%
%ADD602R,0.1308X0.0001*%
%ADD603R,0.1311X0.0002*%
%ADD604R,0.1313X0.0001*%
%ADD605R,0.1316X0.0001*%
%ADD606R,0.1317X0.0001*%
%ADD607R,0.1320X0.0001*%
%ADD608R,0.1323X0.0001*%
%ADD609R,0.1326X0.0001*%
%ADD610R,0.1329X0.0001*%
%ADD611R,0.1332X0.0002*%
%ADD612R,0.1335X0.0001*%
%ADD613R,0.1336X0.0001*%
%ADD614R,0.1340X0.0001*%
%ADD615R,0.1343X0.0001*%
%ADD616R,0.1346X0.0001*%
%ADD617R,0.1347X0.0001*%
%ADD618R,0.1350X0.0001*%
%ADD619R,0.1353X0.0002*%
%ADD620R,0.1356X0.0001*%
%ADD621R,0.1357X0.0001*%
%ADD622R,0.1360X0.0001*%
%ADD623R,0.1364X0.0001*%
%ADD624R,0.1365X0.0001*%
%ADD625R,0.1368X0.0001*%
%ADD626R,0.1369X0.0001*%
%ADD627R,0.1373X0.0001*%
%ADD628R,0.1374X0.0002*%
%ADD629R,0.1377X0.0001*%
%ADD630R,0.1379X0.0001*%
%ADD631R,0.1380X0.0001*%
%ADD632R,0.1383X0.0001*%
%ADD633R,0.1386X0.0001*%
%ADD634R,0.1387X0.0001*%
%ADD635R,0.1391X0.0001*%
%ADD636R,0.1394X0.0001*%
%ADD637R,0.1395X0.0002*%
%ADD638R,0.1398X0.0001*%
%ADD639R,0.1401X0.0001*%
%ADD640R,0.1403X0.0001*%
%ADD641R,0.1406X0.0001*%
%ADD642R,0.1407X0.0001*%
%ADD643R,0.1409X0.0001*%
%ADD644R,0.1411X0.0001*%
%ADD645R,0.1414X0.0001*%
%ADD646R,0.1416X0.0002*%
%ADD647R,0.1419X0.0001*%
%ADD648R,0.1421X0.0001*%
%ADD649R,0.1422X0.0001*%
%ADD650R,0.1424X0.0001*%
%ADD651R,0.1426X0.0001*%
%ADD652R,0.1428X0.0001*%
%ADD653R,0.1429X0.0002*%
%ADD654R,0.1429X0.0001*%
%ADD655R,0.1425X0.0001*%
%ADD656R,0.1421X0.0002*%
%ADD657R,0.1418X0.0001*%
%ADD658R,0.1416X0.0001*%
%ADD659R,0.1413X0.0001*%
%ADD660R,0.1410X0.0001*%
%ADD661R,0.1404X0.0001*%
%ADD662R,0.1401X0.0001*%
%ADD663R,0.0346X0.0001*%
%ADD664R,0.1044X0.0001*%
%ADD665R,0.0342X0.0002*%
%ADD666R,0.1040X0.0002*%
%ADD667R,0.0337X0.0001*%
%ADD668R,0.1034X0.0001*%
%ADD669R,0.0357X0.0001*%
%ADD670R,0.0660X0.0001*%
%ADD671R,0.0353X0.0001*%
%ADD672R,0.0327X0.0001*%
%ADD673R,0.0349X0.0001*%
%ADD674R,0.0321X0.0001*%
%ADD675R,0.0648X0.0001*%
%ADD676R,0.0344X0.0001*%
%ADD677R,0.0317X0.0001*%
%ADD678R,0.0339X0.0001*%
%ADD679R,0.0312X0.0001*%
%ADD680R,0.0631X0.0001*%
%ADD681R,0.0334X0.0001*%
%ADD682R,0.0309X0.0001*%
%ADD683R,0.0307X0.0002*%
%ADD684R,0.0623X0.0002*%
%ADD685R,0.0327X0.0002*%
%ADD686R,0.0618X0.0001*%
%ADD687R,0.0297X0.0001*%
%ADD688R,0.0607X0.0001*%
%ADD689R,0.0320X0.0001*%
%ADD690R,0.0293X0.0001*%
%ADD691R,0.0599X0.0001*%
%ADD692R,0.0313X0.0001*%
%ADD693R,0.0285X0.0001*%
%ADD694R,0.0584X0.0001*%
%ADD695R,0.0303X0.0001*%
%ADD696R,0.0281X0.0001*%
%ADD697R,0.0273X0.0002*%
%ADD698R,0.0563X0.0002*%
%ADD699R,0.0293X0.0002*%
%ADD700R,0.0264X0.0001*%
%ADD701R,0.0259X0.0001*%
%ADD702R,0.0256X0.0001*%
%ADD703R,0.0276X0.0001*%
%ADD704R,0.0252X0.0001*%
%ADD705R,0.0273X0.0001*%
%ADD706R,0.0248X0.0001*%
%ADD707R,0.0269X0.0001*%
%ADD708R,0.0245X0.0001*%
%ADD709R,0.0240X0.0001*%
%ADD710R,0.0237X0.0002*%
%ADD711R,0.0256X0.0002*%
%ADD712R,0.0234X0.0001*%
%ADD713R,0.0232X0.0001*%
%ADD714R,0.0251X0.0001*%
%ADD715R,0.0228X0.0001*%
%ADD716R,0.0246X0.0001*%
%ADD717R,0.0456X0.0001*%
%ADD718R,0.0219X0.0001*%
%ADD719R,0.0444X0.0001*%
%ADD720R,0.0237X0.0001*%
%ADD721R,0.0214X0.0001*%
%ADD722R,0.0436X0.0001*%
%ADD723R,0.0432X0.0001*%
%ADD724R,0.0231X0.0001*%
%ADD725R,0.0210X0.0001*%
%ADD726R,0.0426X0.0001*%
%ADD727R,0.0420X0.0001*%
%ADD728R,0.0226X0.0001*%
%ADD729R,0.0204X0.0002*%
%ADD730R,0.0409X0.0002*%
%ADD731R,0.0222X0.0002*%
%ADD732R,0.0391X0.0001*%
%ADD733R,0.0217X0.0001*%
%ADD734R,0.0376X0.0001*%
%ADD735R,0.0368X0.0001*%
%ADD736R,0.0189X0.0001*%
%ADD737R,0.0361X0.0001*%
%ADD738R,0.0206X0.0001*%
%ADD739R,0.0186X0.0001*%
%ADD740R,0.0356X0.0001*%
%ADD741R,0.0181X0.0001*%
%ADD742R,0.0345X0.0001*%
%ADD743R,0.0173X0.0001*%
%ADD744R,0.0331X0.0001*%
%ADD745R,0.0190X0.0001*%
%ADD746R,0.0168X0.0001*%
%ADD747R,0.0165X0.0002*%
%ADD748R,0.0162X0.0001*%
%ADD749R,0.0159X0.0001*%
%ADD750R,0.0177X0.0001*%
%ADD751R,0.0156X0.0001*%
%ADD752R,0.0324X0.0001*%
%ADD753R,0.0174X0.0001*%
%ADD754R,0.0167X0.0001*%
%ADD755R,0.0146X0.0001*%
%ADD756R,0.0163X0.0001*%
%ADD757R,0.0141X0.0001*%
%ADD758R,0.0140X0.0001*%
%ADD759R,0.0137X0.0001*%
%ADD760R,0.0133X0.0001*%
%ADD761R,0.0129X0.0002*%
%ADD762R,0.0321X0.0002*%
%ADD763R,0.0146X0.0002*%
%ADD764R,0.0119X0.0001*%
%ADD765R,0.0129X0.0001*%
%ADD766R,0.0111X0.0001*%
%ADD767R,0.0126X0.0001*%
%ADD768R,0.0318X0.0001*%
%ADD769R,0.0097X0.0001*%
%ADD770R,0.0315X0.0001*%
%ADD771R,0.0089X0.0002*%
%ADD772R,0.0315X0.0002*%
%ADD773R,0.0105X0.0002*%
%ADD774R,0.0079X0.0001*%
%ADD775R,0.0089X0.0001*%
%ADD776R,0.0069X0.0001*%
%ADD777R,0.0084X0.0001*%
%ADD778R,0.0057X0.0001*%
%ADD779R,0.0052X0.0002*%
%ADD780R,0.0311X0.0002*%
%ADD781R,0.0066X0.0002*%
%ADD782R,0.0061X0.0001*%
%ADD783R,0.0042X0.0001*%
%ADD784R,0.0055X0.0001*%
%ADD785R,0.0039X0.0001*%
%ADD786R,0.0052X0.0001*%
%ADD787R,0.0036X0.0001*%
%ADD788R,0.0049X0.0001*%
%ADD789R,0.0307X0.0001*%
%ADD790R,0.0045X0.0001*%
%ADD791R,0.0022X0.0001*%
%ADD792R,0.0035X0.0001*%
%ADD793R,0.0025X0.0002*%
%ADD794R,0.0306X0.0001*%
%ADD795R,0.0018X0.0001*%
%ADD796R,0.0008X0.0001*%
%ADD797R,0.0300X0.0002*%
%ADD798R,0.0296X0.0001*%
%ADD799R,0.0294X0.0002*%
%ADD800R,0.0294X0.0001*%
%ADD801R,0.0291X0.0001*%
%ADD802R,0.0291X0.0002*%
%ADD803R,0.0286X0.0001*%
%ADD804R,0.0281X0.0002*%
%ADD805R,0.0277X0.0001*%
%ADD806R,0.0276X0.0001*%
%ADD807R,0.0266X0.0002*%
%ADD808R,0.0264X0.0001*%
%ADD809R,0.0261X0.0001*%
%ADD810R,0.0259X0.0002*%
%ADD811R,0.0254X0.0002*%
%ADD812R,0.0248X0.0002*%
%ADD813R,0.0218X0.0002*%
%ADD814R,0.0157X0.0001*%
%ADD815C,0.0070*%
%ADD816C,0.0040*%
%ADD817C,0.0020*%
%ADD818C,0.0060*%
%ADD819C,0.0160*%
%ADD820C,0.0120*%
%ADD821R,0.0118X0.0827*%
%ADD822C,0.0080*%
%ADD823R,0.0620X0.0240*%
%ADD824R,0.0240X0.0620*%
%ADD825R,0.0827X0.0118*%
%ADD826C,0.0030*%
%ADD827R,0.0500X0.2000*%
%ADD828R,0.0079X0.0079*%
%ADD829R,0.1000X0.0250*%
%ADD830C,0.0500*%
%ADD831R,0.0100X0.0150*%
%ADD832R,0.0150X0.0100*%
%ADD833C,0.0200*%
%ADD834R,0.4200X0.0300*%
%ADD835R,0.0750X0.0200*%
%ADD836R,0.0300X0.0200*%
%ADD837R,0.0748X0.0118*%
D10*
X006268Y003374D02*
X006268Y042744D01*
X029890Y042744D01*
X029890Y003374D01*
X006268Y003374D01*
X006693Y006524D02*
X006693Y009024D01*
X009693Y009024D01*
X009693Y006524D01*
X006693Y006524D01*
X007568Y008274D02*
X007818Y008274D01*
X008568Y008274D02*
X008818Y008274D01*
X009693Y012374D02*
X006693Y012374D01*
X006693Y014874D01*
X009693Y014874D01*
X009693Y012374D01*
X008818Y014124D02*
X008568Y014124D01*
X007818Y014124D02*
X007568Y014124D01*
X014079Y013880D02*
X014079Y014766D01*
X014081Y014805D01*
X014087Y014843D01*
X014096Y014880D01*
X014109Y014917D01*
X014126Y014952D01*
X014145Y014985D01*
X014168Y015016D01*
X014194Y015045D01*
X014223Y015071D01*
X014254Y015094D01*
X014287Y015113D01*
X014322Y015130D01*
X014359Y015143D01*
X014396Y015152D01*
X014434Y015158D01*
X014473Y015160D01*
X014473Y015159D02*
X018213Y015159D01*
X018213Y015160D02*
X018252Y015158D01*
X018290Y015152D01*
X018327Y015143D01*
X018364Y015130D01*
X018399Y015113D01*
X018432Y015094D01*
X018463Y015071D01*
X018492Y015045D01*
X018518Y015016D01*
X018541Y014985D01*
X018560Y014952D01*
X018577Y014917D01*
X018590Y014880D01*
X018599Y014843D01*
X018605Y014805D01*
X018607Y014766D01*
X018607Y013880D01*
X018607Y012895D02*
X018607Y012502D01*
X018607Y011518D02*
X018607Y010632D01*
X018605Y010593D01*
X018599Y010555D01*
X018590Y010518D01*
X018577Y010481D01*
X018560Y010446D01*
X018541Y010413D01*
X018518Y010382D01*
X018492Y010353D01*
X018463Y010327D01*
X018432Y010304D01*
X018399Y010285D01*
X018364Y010268D01*
X018327Y010255D01*
X018290Y010246D01*
X018252Y010240D01*
X018213Y010238D01*
X014473Y010238D01*
X014434Y010240D01*
X014396Y010246D01*
X014359Y010255D01*
X014322Y010268D01*
X014287Y010285D01*
X014254Y010304D01*
X014223Y010327D01*
X014194Y010353D01*
X014168Y010382D01*
X014145Y010413D01*
X014126Y010446D01*
X014109Y010481D01*
X014096Y010518D01*
X014087Y010555D01*
X014081Y010593D01*
X014079Y010632D01*
X014079Y011518D01*
X014079Y012502D02*
X014079Y012895D01*
X018804Y011321D02*
X019096Y011045D01*
X019096Y011321D01*
X018804Y011321D01*
X018875Y011254D02*
X019096Y011254D01*
X019096Y011155D02*
X018979Y011155D01*
X019083Y011057D02*
X019096Y011057D01*
X025320Y018353D02*
X025320Y018924D01*
X025733Y018649D01*
X025320Y018353D01*
X027595Y017949D02*
X027595Y017378D01*
X028008Y017674D01*
X027595Y017949D01*
X027768Y008824D02*
X027018Y008824D01*
X027018Y006824D01*
X027768Y006824D01*
X029518Y006824D01*
X029518Y008824D01*
X027768Y008824D01*
X027768Y007949D02*
X027768Y007699D01*
X019173Y020624D02*
X018723Y020624D01*
X018723Y021028D01*
X018723Y021422D02*
X018723Y021826D01*
X018723Y021624D02*
X018343Y021624D01*
X018723Y022219D02*
X018723Y022624D01*
X019173Y022624D01*
X019173Y022219D01*
X019173Y021826D02*
X019173Y021422D01*
X023781Y021704D02*
X023773Y021909D01*
X023755Y022113D01*
X020343Y021624D02*
X019593Y021624D01*
X015179Y020085D02*
X015113Y020279D01*
X015055Y020476D01*
X017118Y022999D02*
X017618Y022999D01*
X017368Y023249D02*
X017368Y022749D01*
X019393Y026063D02*
X019598Y026056D01*
X019803Y026039D01*
X019173Y029874D02*
X018723Y029874D01*
X018723Y030278D01*
X018723Y030672D02*
X018723Y031076D01*
X018723Y030874D02*
X018343Y030874D01*
X018723Y031469D02*
X018723Y031874D01*
X019173Y031874D01*
X019173Y031469D01*
X019173Y031076D02*
X019173Y030672D01*
X019393Y026435D02*
X019598Y026442D01*
X019803Y026459D01*
X019173Y029874D02*
X019173Y030278D01*
X022971Y033432D02*
X022849Y033597D01*
X022720Y033756D01*
X020343Y030874D02*
X019593Y030874D01*
X015179Y032413D02*
X015113Y032219D01*
X015055Y032022D01*
X013695Y034153D02*
X013695Y034724D01*
X014108Y034449D01*
X013695Y034153D01*
X013695Y035453D02*
X013695Y036024D01*
X014108Y035749D01*
X013695Y035453D01*
X011269Y034772D02*
X010993Y034359D01*
X010698Y034772D01*
X011269Y034772D01*
X013493Y027874D02*
X013493Y027374D01*
X013743Y027624D02*
X013243Y027624D01*
X012468Y026249D02*
X012088Y026249D01*
X012088Y026047D02*
X012088Y026451D01*
X012088Y026844D02*
X012088Y027249D01*
X011638Y027249D01*
X011638Y026844D01*
X011638Y026451D02*
X011638Y026047D01*
X007297Y024861D02*
X007237Y025058D01*
X007186Y025256D01*
X010468Y026249D02*
X011218Y026249D01*
X007076Y026052D02*
X007090Y025847D01*
X007114Y025643D01*
X007076Y026446D02*
X007090Y026651D01*
X007114Y026855D01*
X007824Y028708D02*
X007943Y028876D01*
X008070Y029037D01*
X010401Y030514D02*
X010601Y030559D01*
X010803Y030594D01*
X007297Y027637D02*
X007237Y027440D01*
X007186Y027242D01*
X007824Y023790D02*
X007943Y023622D01*
X008070Y023461D01*
X011638Y025249D02*
X011638Y025653D01*
X011638Y025249D02*
X012088Y025249D01*
X012088Y025653D01*
X014506Y023072D02*
X014355Y022934D01*
X014197Y022802D01*
X014848Y025249D02*
X014848Y026249D01*
X014848Y027249D01*
X015298Y027249D01*
X015298Y025249D01*
X014848Y025249D01*
X014848Y026249D02*
X014468Y026249D01*
X021468Y022748D02*
X021631Y023046D01*
X021779Y023351D01*
X021913Y023663D01*
X022031Y023981D01*
X022134Y024304D01*
X022222Y024631D01*
X022294Y024963D01*
X022350Y025297D01*
X022391Y025634D01*
X022415Y025972D01*
X022423Y026311D01*
X022415Y026650D01*
X022391Y026988D01*
X022350Y027325D01*
X022294Y027659D01*
X022222Y027991D01*
X022134Y028318D01*
X022031Y028641D01*
X021913Y028959D01*
X021779Y029271D01*
X021631Y029576D01*
X021468Y029874D01*
X023295Y028853D02*
X023384Y029038D01*
X023465Y029226D01*
X025748Y030452D02*
X025748Y032303D01*
X029488Y032303D01*
X029488Y030452D01*
X027998Y030452D01*
X026238Y030452D02*
X025748Y030452D01*
X023694Y029996D02*
X023649Y029796D01*
X023595Y029598D01*
X022019Y027333D02*
X021853Y027213D01*
X021681Y027101D01*
X019570Y035307D02*
X019365Y035313D01*
X019160Y035309D01*
X017368Y032499D02*
X017368Y031999D01*
X017618Y032249D02*
X017118Y032249D01*
X020963Y026741D02*
X021152Y026820D01*
X021338Y026908D01*
X023372Y032736D02*
X023282Y032920D01*
X023183Y033100D01*
X023101Y028511D02*
X022987Y028340D01*
X022866Y028174D01*
X022451Y034043D02*
X022301Y034184D01*
X022145Y034317D01*
X017245Y034786D02*
X017067Y034685D01*
X016893Y034576D01*
X023781Y030794D02*
X023773Y030589D01*
X023755Y030385D01*
X015793Y028209D02*
X015674Y028376D01*
X015562Y028548D01*
X019468Y031999D02*
X019182Y032187D01*
X018887Y032362D01*
X018583Y032522D01*
X018273Y032667D01*
X017955Y032797D01*
X017632Y032910D01*
X017303Y033008D01*
X016970Y033090D01*
X016634Y033155D01*
X016294Y033204D01*
X015953Y033236D01*
X015610Y033252D01*
X015267Y033250D01*
X014925Y033232D01*
X014584Y033197D01*
X014245Y033145D01*
X013909Y033077D01*
X013577Y032993D01*
X013249Y032892D01*
X012926Y032776D01*
X012610Y032643D01*
X012301Y032496D01*
X011999Y032333D01*
X011705Y032156D01*
X011421Y031965D01*
X011146Y031760D01*
X010881Y031542D01*
X010628Y031311D01*
X010386Y031068D01*
X010156Y030814D01*
X009939Y030548D01*
X009735Y030273D01*
X009545Y029987D01*
X009369Y029693D01*
X009208Y029390D01*
X009062Y029080D01*
X008931Y028763D01*
X008816Y028440D01*
X008716Y028112D01*
X008633Y027780D01*
X008567Y027443D01*
X008516Y027104D01*
X008483Y026763D01*
X008466Y026420D01*
X008466Y026078D01*
X008483Y025735D01*
X008516Y025394D01*
X008567Y025055D01*
X008633Y024718D01*
X008716Y024386D01*
X008816Y024058D01*
X008931Y023735D01*
X009062Y023418D01*
X009208Y023108D01*
X009369Y022805D01*
X009545Y022511D01*
X009735Y022225D01*
X009939Y021950D01*
X010156Y021684D01*
X010386Y021430D01*
X010628Y021187D01*
X010881Y020956D01*
X011146Y020738D01*
X011421Y020533D01*
X011705Y020342D01*
X011999Y020165D01*
X012301Y020002D01*
X012610Y019855D01*
X012926Y019722D01*
X013249Y019606D01*
X013577Y019505D01*
X013909Y019421D01*
X014245Y019353D01*
X014584Y019301D01*
X014925Y019266D01*
X015267Y019248D01*
X015610Y019246D01*
X015953Y019262D01*
X016294Y019294D01*
X016634Y019343D01*
X016970Y019408D01*
X017303Y019490D01*
X017632Y019588D01*
X017955Y019701D01*
X018273Y019831D01*
X018583Y019976D01*
X018887Y020136D01*
X019182Y020311D01*
X019468Y020499D01*
X019173Y020624D02*
X019173Y021028D01*
X023101Y023987D02*
X022987Y024158D01*
X022866Y024324D01*
X023295Y023645D02*
X023384Y023460D01*
X023465Y023272D01*
X023595Y022900D02*
X023649Y022702D01*
X023694Y022502D01*
X022451Y018455D02*
X022301Y018314D01*
X022145Y018181D01*
X017245Y017712D02*
X017067Y017813D01*
X016893Y017922D01*
X020963Y025757D02*
X021152Y025678D01*
X021338Y025590D01*
X022971Y019066D02*
X022849Y018901D01*
X022720Y018742D01*
X015562Y023950D02*
X015674Y024122D01*
X015793Y024289D01*
X016018Y026249D02*
X016468Y026249D01*
X016266Y034074D02*
X016417Y034213D01*
X016575Y034344D01*
X020743Y035086D02*
X020937Y035017D01*
X021126Y034939D01*
X015525Y033138D02*
X015424Y032959D01*
X015332Y032776D01*
X014904Y030838D02*
X014911Y030633D01*
X014926Y030428D01*
X013878Y029926D02*
X013703Y030034D01*
X013524Y030135D01*
X010024Y022097D02*
X009831Y022169D01*
X009643Y022250D01*
X010401Y021984D02*
X010601Y021939D01*
X010803Y021904D01*
X007619Y024125D02*
X007524Y024308D01*
X007438Y024494D01*
X011998Y030613D02*
X012201Y030584D01*
X012402Y030545D01*
X007619Y028373D02*
X007524Y028190D01*
X007438Y028004D01*
X011998Y021885D02*
X012201Y021914D01*
X012402Y021953D01*
X009643Y030248D02*
X009831Y030329D01*
X010024Y030401D01*
X015442Y024370D02*
X015350Y024186D01*
X015249Y024007D01*
X013878Y022572D02*
X013703Y022464D01*
X013524Y022363D01*
X011605Y021855D02*
X011400Y021854D01*
X011195Y021862D01*
X008634Y022889D02*
X008480Y023025D01*
X008333Y023168D01*
X015594Y024733D02*
X015660Y024927D01*
X015718Y025124D01*
X016266Y018424D02*
X016417Y018285D01*
X016575Y018154D01*
X014904Y021660D02*
X014911Y021865D01*
X014926Y022070D01*
X014506Y029426D02*
X014355Y029564D01*
X014197Y029696D01*
X011605Y030643D02*
X011400Y030644D01*
X011195Y030636D01*
X013168Y022195D02*
X012977Y022120D01*
X012783Y022054D01*
X013168Y030303D02*
X012977Y030378D01*
X012783Y030444D01*
X008634Y029609D02*
X008480Y029473D01*
X008333Y029330D01*
X008946Y029849D02*
X009116Y029963D01*
X009292Y030069D01*
X015594Y027765D02*
X015660Y027571D01*
X015718Y027374D01*
X016632Y027359D02*
X016797Y027238D01*
X016968Y027124D01*
X015079Y029640D02*
X015027Y029838D01*
X014983Y030039D01*
X014778Y029142D02*
X014910Y028984D01*
X015034Y028820D01*
X015034Y023678D02*
X014910Y023514D01*
X014778Y023356D01*
X015442Y028128D02*
X015350Y028312D01*
X015249Y028491D01*
X009292Y022429D02*
X009116Y022535D01*
X008946Y022649D01*
X020743Y017412D02*
X020937Y017481D01*
X021126Y017559D01*
X015525Y019360D02*
X015424Y019539D01*
X015332Y019722D01*
X017600Y017542D02*
X017790Y017465D01*
X017984Y017398D01*
X023522Y020126D02*
X023586Y020321D01*
X023642Y020518D01*
X022613Y024625D02*
X022471Y024773D01*
X022323Y024914D01*
X022019Y025165D02*
X021853Y025285D01*
X021681Y025397D01*
X019570Y017191D02*
X019365Y017185D01*
X019160Y017189D01*
X015995Y018709D02*
X015864Y018867D01*
X015740Y019031D01*
X016632Y025139D02*
X016797Y025260D01*
X016968Y025374D01*
X015079Y022858D02*
X015027Y022660D01*
X014983Y022459D01*
X016043Y024593D02*
X016184Y024742D01*
X016331Y024885D01*
X014918Y021267D02*
X014940Y021063D01*
X014970Y020860D01*
X018364Y017294D02*
X018565Y017254D01*
X018768Y017222D01*
X020591Y025884D02*
X020392Y025937D01*
X020192Y025981D01*
X020365Y017304D02*
X020164Y017262D01*
X019962Y017228D01*
X019000Y026050D02*
X018796Y026029D01*
X018593Y025999D01*
X023372Y019762D02*
X023282Y019578D01*
X023183Y019398D01*
X015205Y023231D02*
X015284Y023420D01*
X015371Y023606D01*
X023771Y021311D02*
X023752Y021106D01*
X023723Y020903D01*
X021829Y017947D02*
X021657Y017836D01*
X021479Y017733D01*
X020365Y035194D02*
X020164Y035236D01*
X019962Y035270D01*
X023522Y032372D02*
X023586Y032177D01*
X023642Y031980D01*
X022613Y027873D02*
X022471Y027725D01*
X022323Y027584D01*
X021829Y034551D02*
X021657Y034662D01*
X021479Y034765D01*
X019000Y026448D02*
X018796Y026469D01*
X018593Y026499D01*
X017600Y034956D02*
X017790Y035033D01*
X017984Y035100D01*
X015995Y033789D02*
X015864Y033631D01*
X015740Y033467D01*
X016043Y027905D02*
X016184Y027756D01*
X016331Y027613D01*
X014918Y031231D02*
X014940Y031435D01*
X014970Y031638D01*
X018364Y035204D02*
X018565Y035244D01*
X018768Y035276D01*
X020591Y026614D02*
X020392Y026561D01*
X020192Y026517D01*
X015371Y028892D02*
X015284Y029078D01*
X015205Y029267D01*
X023771Y031187D02*
X023752Y031392D01*
X023723Y031595D01*
X017587Y041759D02*
X017193Y041759D01*
X014751Y041759D02*
X014756Y041737D01*
X014757Y041714D01*
X014754Y041691D01*
X014748Y041669D01*
X014738Y041648D01*
X014725Y041629D01*
X014709Y041613D01*
X014690Y041599D01*
X014670Y041588D01*
X014648Y041581D01*
X014625Y041577D01*
X014603Y041577D01*
X014580Y041581D01*
X014558Y041588D01*
X014538Y041599D01*
X014519Y041613D01*
X014503Y041629D01*
X014490Y041648D01*
X014480Y041669D01*
X014474Y041691D01*
X014471Y041714D01*
X014472Y041737D01*
X014477Y041759D01*
X014476Y041760D02*
X014481Y041782D01*
X014482Y041805D01*
X014479Y041828D01*
X014473Y041850D01*
X014463Y041871D01*
X014450Y041890D01*
X014434Y041906D01*
X014415Y041920D01*
X014395Y041931D01*
X014373Y041938D01*
X014350Y041942D01*
X014328Y041942D01*
X014305Y041938D01*
X014283Y041931D01*
X014263Y041920D01*
X014244Y041906D01*
X014228Y041890D01*
X014215Y041871D01*
X014205Y041850D01*
X014199Y041828D01*
X014196Y041805D01*
X014197Y041782D01*
X014202Y041760D01*
X011759Y041759D02*
X011764Y041737D01*
X011765Y041714D01*
X011762Y041691D01*
X011756Y041669D01*
X011746Y041648D01*
X011733Y041629D01*
X011717Y041613D01*
X011698Y041599D01*
X011678Y041588D01*
X011656Y041581D01*
X011633Y041577D01*
X011611Y041577D01*
X011588Y041581D01*
X011566Y041588D01*
X011546Y041599D01*
X011527Y041613D01*
X011511Y041629D01*
X011498Y041648D01*
X011488Y041669D01*
X011482Y041691D01*
X011479Y041714D01*
X011480Y041737D01*
X011485Y041759D01*
X011484Y041760D02*
X011489Y041782D01*
X011490Y041805D01*
X011487Y041828D01*
X011481Y041850D01*
X011471Y041871D01*
X011458Y041890D01*
X011442Y041906D01*
X011423Y041920D01*
X011403Y041931D01*
X011381Y041938D01*
X011358Y041942D01*
X011336Y041942D01*
X011313Y041938D01*
X011291Y041931D01*
X011271Y041920D01*
X011252Y041906D01*
X011236Y041890D01*
X011223Y041871D01*
X011213Y041850D01*
X011207Y041828D01*
X011204Y041805D01*
X011205Y041782D01*
X011210Y041760D01*
X007744Y041759D02*
X007351Y041759D01*
X007548Y041563D02*
X007548Y041956D01*
D11*
X009474Y039424D02*
X009775Y039424D01*
X009925Y039273D01*
X009775Y039123D01*
X009474Y039123D01*
X009550Y038963D02*
X009474Y038888D01*
X009474Y038738D01*
X009550Y038663D01*
X009850Y038663D02*
X009925Y038738D01*
X009925Y038888D01*
X009850Y038963D01*
X009550Y038963D01*
X009700Y039123D02*
X009700Y039424D01*
X009775Y038042D02*
X009775Y037967D01*
X009474Y037967D01*
X009474Y038042D02*
X009474Y037892D01*
X009474Y037736D02*
X009775Y037736D01*
X009775Y037510D01*
X009700Y037435D01*
X009474Y037435D01*
X009447Y037226D02*
X009447Y032895D01*
X006663Y032895D01*
X006663Y035061D01*
X010009Y035061D01*
X010009Y032895D01*
X009447Y032895D01*
X010643Y032874D02*
X010868Y032874D01*
X010943Y032949D01*
X010943Y033249D01*
X010868Y033324D01*
X010643Y033324D01*
X010643Y032874D01*
X011103Y032949D02*
X011178Y032874D01*
X011329Y032874D01*
X011404Y032949D01*
X011404Y033024D01*
X011329Y033099D01*
X011253Y033099D01*
X011329Y033099D02*
X011404Y033174D01*
X011404Y033249D01*
X011329Y033324D01*
X011178Y033324D01*
X011103Y033249D01*
X011722Y034199D02*
X011947Y034199D01*
X012022Y034274D01*
X012022Y034574D01*
X011947Y034649D01*
X011722Y034649D01*
X011722Y034199D01*
X012183Y034199D02*
X012483Y034199D01*
X012333Y034199D02*
X012333Y034649D01*
X012183Y034499D01*
X012133Y035499D02*
X012433Y035799D01*
X012433Y035874D01*
X012358Y035949D01*
X012208Y035949D01*
X012133Y035874D01*
X011972Y035874D02*
X011897Y035949D01*
X011672Y035949D01*
X011672Y035499D01*
X011897Y035499D01*
X011972Y035574D01*
X011972Y035874D01*
X012133Y035499D02*
X012433Y035499D01*
X010009Y035061D02*
X010009Y037226D01*
X009447Y037226D01*
X006663Y037226D01*
X006663Y035061D01*
X006768Y032762D02*
X007068Y032312D01*
X007229Y032312D02*
X007529Y032612D01*
X007529Y032687D01*
X007454Y032762D01*
X007304Y032762D01*
X007229Y032687D01*
X007068Y032762D02*
X006768Y032312D01*
X007229Y032312D02*
X007529Y032312D01*
X009925Y037967D02*
X010000Y037967D01*
X011543Y039774D02*
X011693Y039774D01*
X011768Y039849D01*
X011928Y039774D02*
X012229Y039774D01*
X012078Y039774D02*
X012078Y040224D01*
X011928Y040074D01*
X011768Y040149D02*
X011693Y040224D01*
X011543Y040224D01*
X011468Y040149D01*
X011468Y039849D01*
X011543Y039774D01*
X015494Y039784D02*
X015719Y039784D01*
X015794Y039859D01*
X015794Y039934D01*
X015719Y040009D01*
X015494Y040009D01*
X015494Y039784D02*
X015494Y040234D01*
X015719Y040234D01*
X015794Y040159D01*
X015794Y040084D01*
X015719Y040009D01*
X015954Y040084D02*
X016104Y040234D01*
X016104Y039784D01*
X015954Y039784D02*
X016254Y039784D01*
X016693Y039749D02*
X016918Y039749D01*
X016993Y039824D01*
X016993Y039974D01*
X016918Y040049D01*
X016693Y040049D01*
X016693Y039599D01*
X016843Y039299D02*
X016693Y039149D01*
X016693Y038999D01*
X016843Y038849D01*
X017000Y038849D02*
X017300Y038849D01*
X017150Y038849D02*
X017150Y039299D01*
X017000Y039149D01*
X017460Y039224D02*
X017535Y039299D01*
X017685Y039299D01*
X017761Y039224D01*
X017460Y038924D01*
X017535Y038849D01*
X017685Y038849D01*
X017761Y038924D01*
X017761Y039224D01*
X017460Y039224D02*
X017460Y038924D01*
X017379Y039599D02*
X017228Y039599D01*
X017153Y039674D01*
X017228Y039824D02*
X017379Y039824D01*
X017454Y039749D01*
X017454Y039674D01*
X017379Y039599D01*
X017614Y039674D02*
X017614Y040049D01*
X017454Y039974D02*
X017379Y040049D01*
X017228Y040049D01*
X017153Y039974D01*
X017153Y039899D01*
X017228Y039824D01*
X017614Y039674D02*
X017689Y039599D01*
X017839Y039599D01*
X017914Y039674D01*
X017914Y040049D01*
X018535Y039899D02*
X018610Y039899D01*
X018685Y039824D01*
X018760Y039899D01*
X018835Y039824D01*
X018835Y039599D01*
X018685Y039599D02*
X018685Y039824D01*
X018535Y039899D02*
X018535Y039599D01*
X018606Y039299D02*
X018456Y039299D01*
X018381Y039224D01*
X018221Y039299D02*
X017921Y038849D01*
X018381Y038849D02*
X018681Y039149D01*
X018681Y039224D01*
X018606Y039299D01*
X018841Y039224D02*
X018917Y039299D01*
X019067Y039299D01*
X019142Y039224D01*
X018841Y038924D01*
X018917Y038849D01*
X019067Y038849D01*
X019142Y038924D01*
X019142Y039224D01*
X019302Y039149D02*
X019452Y039299D01*
X019452Y038849D01*
X019302Y038849D02*
X019602Y038849D01*
X019762Y038924D02*
X019837Y038849D01*
X019987Y038849D01*
X020063Y038924D01*
X020063Y039074D01*
X019987Y039149D01*
X019912Y039149D01*
X019762Y039074D01*
X019762Y039299D01*
X020063Y039299D01*
X019991Y039599D02*
X019991Y039974D01*
X020066Y040049D01*
X020066Y039824D02*
X019916Y039824D01*
X019756Y039899D02*
X019530Y039899D01*
X019455Y039824D01*
X019530Y039749D01*
X019681Y039749D01*
X019756Y039674D01*
X019681Y039599D01*
X019455Y039599D01*
X019295Y039674D02*
X019295Y039824D01*
X019220Y039899D01*
X019070Y039899D01*
X018995Y039824D01*
X018995Y039674D01*
X019070Y039599D01*
X019220Y039599D01*
X019295Y039674D01*
X018841Y039224D02*
X018841Y038924D01*
X018681Y038849D02*
X018381Y038849D01*
X020223Y039674D02*
X020223Y039824D01*
X020298Y039899D01*
X020448Y039899D01*
X020523Y039824D01*
X020523Y039749D01*
X020223Y039749D01*
X020223Y039674D02*
X020298Y039599D01*
X020448Y039599D01*
X020758Y039674D02*
X020758Y039974D01*
X020683Y039899D02*
X020833Y039899D01*
X020758Y039674D02*
X020833Y039599D01*
X021142Y039299D02*
X021292Y039299D01*
X021367Y039224D01*
X021367Y039149D01*
X021292Y039074D01*
X021367Y038999D01*
X021367Y038924D01*
X021292Y038849D01*
X021142Y038849D01*
X021067Y038924D01*
X021217Y039074D02*
X021292Y039074D01*
X021527Y039074D02*
X021752Y039074D01*
X021827Y038999D01*
X021827Y038924D01*
X021752Y038849D01*
X021527Y038849D01*
X021527Y039299D01*
X021752Y039299D01*
X021827Y039224D01*
X021827Y039149D01*
X021752Y039074D01*
X021987Y039224D02*
X022063Y039299D01*
X022213Y039299D01*
X022288Y039224D01*
X022288Y039149D01*
X022213Y039074D01*
X022288Y038999D01*
X022288Y038924D01*
X022213Y038849D01*
X022063Y038849D01*
X021987Y038924D01*
X022138Y039074D02*
X022213Y039074D01*
X022448Y039149D02*
X022673Y039149D01*
X022748Y039074D01*
X022748Y038924D01*
X022673Y038849D01*
X022448Y038849D01*
X022448Y039299D01*
X022520Y039599D02*
X022369Y039599D01*
X022294Y039674D01*
X022294Y039824D01*
X022369Y039899D01*
X022520Y039899D01*
X022595Y039824D01*
X022595Y039749D01*
X022294Y039749D01*
X022136Y039899D02*
X022061Y039899D01*
X021911Y039749D01*
X021911Y039599D02*
X021911Y039899D01*
X021751Y039824D02*
X021751Y039674D01*
X021676Y039599D01*
X021450Y039599D01*
X021450Y039448D02*
X021450Y039899D01*
X021676Y039899D01*
X021751Y039824D01*
X021142Y039299D02*
X021067Y039224D01*
X020908Y039149D02*
X020833Y039149D01*
X020683Y038999D01*
X020683Y038849D02*
X020683Y039149D01*
X019508Y041120D02*
X019208Y041120D01*
X019508Y041420D01*
X019508Y041495D01*
X019433Y041570D01*
X019283Y041570D01*
X019208Y041495D01*
X019048Y041495D02*
X019048Y041195D01*
X018973Y041120D01*
X018822Y041120D01*
X018747Y041195D01*
X018747Y041495D01*
X018822Y041570D01*
X018973Y041570D01*
X019048Y041495D01*
X018897Y041270D02*
X019048Y041120D01*
X022755Y039824D02*
X023055Y039824D01*
X023215Y039899D02*
X023215Y039599D01*
X023215Y039749D02*
X023365Y039899D01*
X023440Y039899D01*
X023599Y039824D02*
X023674Y039899D01*
X023824Y039899D01*
X023899Y039824D01*
X023899Y039749D01*
X023599Y039749D01*
X023599Y039674D02*
X023599Y039824D01*
X023599Y039674D02*
X023674Y039599D01*
X023824Y039599D01*
X024059Y039674D02*
X024134Y039599D01*
X024360Y039599D01*
X024360Y039524D02*
X024360Y039899D01*
X024134Y039899D01*
X024059Y039824D01*
X024059Y039674D01*
X024209Y039448D02*
X024284Y039448D01*
X024360Y039524D01*
X024520Y039674D02*
X024595Y039599D01*
X024820Y039599D01*
X024820Y039899D01*
X024980Y040049D02*
X025055Y040049D01*
X025055Y039599D01*
X024980Y039599D02*
X025130Y039599D01*
X025287Y039674D02*
X025362Y039749D01*
X025587Y039749D01*
X025587Y039824D02*
X025587Y039599D01*
X025362Y039599D01*
X025287Y039674D01*
X025362Y039899D02*
X025512Y039899D01*
X025587Y039824D01*
X025747Y039899D02*
X025897Y039899D01*
X025822Y039974D02*
X025822Y039674D01*
X025897Y039599D01*
X026054Y039674D02*
X026129Y039599D01*
X026279Y039599D01*
X026355Y039674D01*
X026355Y039824D01*
X026279Y039899D01*
X026129Y039899D01*
X026054Y039824D01*
X026054Y039674D01*
X026515Y039749D02*
X026665Y039899D01*
X026740Y039899D01*
X026515Y039899D02*
X026515Y039599D01*
X026703Y037649D02*
X026853Y037649D01*
X026928Y037574D01*
X026928Y037274D01*
X026853Y037199D01*
X026703Y037199D01*
X026628Y037274D01*
X026628Y037574D01*
X026703Y037649D01*
X026778Y037349D02*
X026928Y037199D01*
X027088Y037274D02*
X027163Y037199D01*
X027314Y037199D01*
X027389Y037274D01*
X027389Y037424D01*
X027314Y037499D01*
X027238Y037499D01*
X027088Y037424D01*
X027088Y037649D01*
X027389Y037649D01*
X028547Y041120D02*
X028472Y041195D01*
X028472Y041495D01*
X028547Y041570D01*
X028697Y041570D01*
X028772Y041495D01*
X028772Y041195D01*
X028697Y041120D01*
X028547Y041120D01*
X028622Y041270D02*
X028772Y041120D01*
X028932Y041195D02*
X029007Y041120D01*
X029157Y041120D01*
X029232Y041195D01*
X029232Y041270D01*
X029157Y041345D01*
X029082Y041345D01*
X029157Y041345D02*
X029232Y041420D01*
X029232Y041495D01*
X029157Y041570D01*
X029007Y041570D01*
X028932Y041495D01*
X024520Y039899D02*
X024520Y039674D01*
X023058Y039149D02*
X022908Y039299D01*
X023058Y039149D02*
X023058Y038999D01*
X022908Y038849D01*
X021189Y035724D02*
X020963Y035499D01*
X021264Y035499D01*
X021189Y035274D02*
X021189Y035724D01*
X020803Y035649D02*
X020803Y035349D01*
X020728Y035274D01*
X020578Y035274D01*
X020503Y035349D01*
X020503Y035649D01*
X020578Y035724D01*
X020728Y035724D01*
X020803Y035649D01*
X020653Y035424D02*
X020803Y035274D01*
X024043Y032449D02*
X024043Y032149D01*
X024118Y032074D01*
X024268Y032074D01*
X024343Y032149D01*
X024343Y032449D01*
X024268Y032524D01*
X024118Y032524D01*
X024043Y032449D01*
X024193Y032224D02*
X024343Y032074D01*
X024503Y032074D02*
X024804Y032074D01*
X024653Y032074D02*
X024653Y032524D01*
X024503Y032374D01*
X026768Y029374D02*
X026993Y029374D01*
X027068Y029299D01*
X027068Y029149D01*
X026993Y029074D01*
X026768Y029074D01*
X026768Y028924D02*
X026768Y029374D01*
X027228Y029149D02*
X027228Y028999D01*
X027303Y028924D01*
X027454Y028924D01*
X027529Y028999D01*
X027529Y029149D01*
X027454Y029224D01*
X027303Y029224D01*
X027228Y029149D01*
X027293Y029845D02*
X027293Y030296D01*
X027518Y030296D01*
X027593Y030221D01*
X027593Y030071D01*
X027518Y029996D01*
X027293Y029996D01*
X027753Y030146D02*
X027903Y030296D01*
X027903Y029845D01*
X027753Y029845D02*
X028053Y029845D01*
X027989Y029224D02*
X027989Y028999D01*
X027914Y028924D01*
X027839Y028999D01*
X027764Y028924D01*
X027689Y028999D01*
X027689Y029224D01*
X028149Y029149D02*
X028224Y029224D01*
X028374Y029224D01*
X028449Y029149D01*
X028449Y029074D01*
X028149Y029074D01*
X028149Y028999D02*
X028149Y029149D01*
X028149Y028999D02*
X028224Y028924D01*
X028374Y028924D01*
X028610Y028924D02*
X028610Y029224D01*
X028760Y029224D02*
X028835Y029224D01*
X028760Y029224D02*
X028610Y029074D01*
X024664Y024579D02*
X024363Y024579D01*
X024513Y024579D02*
X024513Y025029D01*
X024363Y024879D01*
X024203Y025029D02*
X023903Y024579D01*
X024203Y024579D02*
X023903Y025029D01*
X024893Y019729D02*
X025160Y019462D01*
X025227Y019462D01*
X025293Y019528D01*
X025293Y019662D01*
X025227Y019729D01*
X024893Y019729D02*
X024893Y019462D01*
X025893Y019462D02*
X025893Y019729D01*
X025893Y019595D02*
X026293Y019595D01*
X026160Y019729D01*
X026743Y019449D02*
X026743Y018999D01*
X026968Y018999D01*
X027043Y019074D01*
X027043Y019374D01*
X026968Y019449D01*
X026743Y019449D01*
X027203Y019449D02*
X027504Y019449D01*
X027504Y019374D01*
X027203Y019074D01*
X027203Y018999D01*
X027418Y018649D02*
X027643Y018649D01*
X027718Y018574D01*
X027718Y018274D01*
X027643Y018199D01*
X027418Y018199D01*
X027418Y018649D01*
X027878Y018424D02*
X027878Y018274D01*
X027953Y018199D01*
X028104Y018199D01*
X028179Y018274D01*
X028179Y018349D01*
X028104Y018424D01*
X027878Y018424D01*
X028028Y018574D01*
X028179Y018649D01*
X028868Y016549D02*
X028926Y016525D01*
X028983Y016498D01*
X029039Y016467D01*
X029092Y016433D01*
X029143Y016395D01*
X029191Y016355D01*
X029237Y016311D01*
X029280Y016265D01*
X029320Y016216D01*
X029357Y016165D01*
X029391Y016111D01*
X029421Y016056D01*
X029448Y015999D01*
X029471Y015940D01*
X029490Y015880D01*
X029506Y015818D01*
X029518Y015756D01*
X029526Y015694D01*
X029530Y015631D01*
X029530Y015567D01*
X029526Y015504D01*
X029518Y015442D01*
X029506Y015380D01*
X029490Y015318D01*
X029471Y015258D01*
X029448Y015199D01*
X029421Y015142D01*
X029391Y015087D01*
X029357Y015033D01*
X029320Y014982D01*
X029280Y014933D01*
X029237Y014887D01*
X029191Y014843D01*
X029143Y014803D01*
X029092Y014765D01*
X029039Y014731D01*
X028983Y014700D01*
X028926Y014673D01*
X028868Y014649D01*
X028168Y014649D02*
X028110Y014673D01*
X028053Y014700D01*
X027997Y014731D01*
X027944Y014765D01*
X027893Y014803D01*
X027845Y014843D01*
X027799Y014887D01*
X027756Y014933D01*
X027716Y014982D01*
X027679Y015033D01*
X027645Y015087D01*
X027615Y015142D01*
X027588Y015199D01*
X027565Y015258D01*
X027546Y015318D01*
X027530Y015380D01*
X027518Y015442D01*
X027510Y015504D01*
X027506Y015567D01*
X027506Y015631D01*
X027510Y015694D01*
X027518Y015756D01*
X027530Y015818D01*
X027546Y015880D01*
X027565Y015940D01*
X027588Y015999D01*
X027615Y016056D01*
X027645Y016111D01*
X027679Y016165D01*
X027716Y016216D01*
X027756Y016265D01*
X027799Y016311D01*
X027845Y016355D01*
X027893Y016395D01*
X027944Y016433D01*
X027997Y016467D01*
X028053Y016498D01*
X028110Y016525D01*
X028168Y016549D01*
X027843Y014724D02*
X027843Y014474D01*
X027718Y014599D02*
X027968Y014599D01*
X028868Y013799D02*
X028926Y013775D01*
X028983Y013748D01*
X029039Y013717D01*
X029092Y013683D01*
X029143Y013645D01*
X029191Y013605D01*
X029237Y013561D01*
X029280Y013515D01*
X029320Y013466D01*
X029357Y013415D01*
X029391Y013361D01*
X029421Y013306D01*
X029448Y013249D01*
X029471Y013190D01*
X029490Y013130D01*
X029506Y013068D01*
X029518Y013006D01*
X029526Y012944D01*
X029530Y012881D01*
X029530Y012817D01*
X029526Y012754D01*
X029518Y012692D01*
X029506Y012630D01*
X029490Y012568D01*
X029471Y012508D01*
X029448Y012449D01*
X029421Y012392D01*
X029391Y012337D01*
X029357Y012283D01*
X029320Y012232D01*
X029280Y012183D01*
X029237Y012137D01*
X029191Y012093D01*
X029143Y012053D01*
X029092Y012015D01*
X029039Y011981D01*
X028983Y011950D01*
X028926Y011923D01*
X028868Y011899D01*
X028168Y011899D02*
X028110Y011923D01*
X028053Y011950D01*
X027997Y011981D01*
X027944Y012015D01*
X027893Y012053D01*
X027845Y012093D01*
X027799Y012137D01*
X027756Y012183D01*
X027716Y012232D01*
X027679Y012283D01*
X027645Y012337D01*
X027615Y012392D01*
X027588Y012449D01*
X027565Y012508D01*
X027546Y012568D01*
X027530Y012630D01*
X027518Y012692D01*
X027510Y012754D01*
X027506Y012817D01*
X027506Y012881D01*
X027510Y012944D01*
X027518Y013006D01*
X027530Y013068D01*
X027546Y013130D01*
X027565Y013190D01*
X027588Y013249D01*
X027615Y013306D01*
X027645Y013361D01*
X027679Y013415D01*
X027716Y013466D01*
X027756Y013515D01*
X027799Y013561D01*
X027845Y013605D01*
X027893Y013645D01*
X027944Y013683D01*
X027997Y013717D01*
X028053Y013748D01*
X028110Y013775D01*
X028168Y013799D01*
X027843Y011974D02*
X027843Y011724D01*
X027718Y011849D02*
X027968Y011849D01*
X024493Y011839D02*
X024493Y011989D01*
X024493Y011914D02*
X024043Y011914D01*
X024043Y011839D02*
X024043Y011989D01*
X024118Y012146D02*
X024418Y012146D01*
X024493Y012221D01*
X024493Y012371D01*
X024418Y012446D01*
X024493Y012606D02*
X024193Y012906D01*
X024118Y012906D01*
X024043Y012831D01*
X024043Y012681D01*
X024118Y012606D01*
X024118Y012446D02*
X024043Y012371D01*
X024043Y012221D01*
X024118Y012146D01*
X024493Y012606D02*
X024493Y012906D01*
X024518Y015606D02*
X024518Y015756D01*
X024518Y015681D02*
X024068Y015681D01*
X024068Y015606D02*
X024068Y015756D01*
X024143Y015913D02*
X024068Y015988D01*
X024068Y016138D01*
X024143Y016213D01*
X024218Y016373D02*
X024068Y016523D01*
X024518Y016523D01*
X024518Y016373D02*
X024518Y016673D01*
X024443Y016213D02*
X024518Y016138D01*
X024518Y015988D01*
X024443Y015913D01*
X024143Y015913D01*
X022518Y013174D02*
X022595Y013153D01*
X022670Y013128D01*
X022745Y013100D01*
X022818Y013068D01*
X022890Y013032D01*
X022959Y012993D01*
X023027Y012950D01*
X023092Y012905D01*
X023155Y012856D01*
X023216Y012804D01*
X023274Y012749D01*
X023329Y012691D01*
X023382Y012631D01*
X023431Y012568D01*
X023477Y012503D01*
X023520Y012435D01*
X023559Y012366D01*
X023595Y012295D01*
X023628Y012222D01*
X023657Y012147D01*
X023682Y012071D01*
X023703Y011994D01*
X023721Y011916D01*
X023734Y011838D01*
X023744Y011758D01*
X023750Y011679D01*
X023752Y011599D01*
X023750Y011519D01*
X023744Y011440D01*
X023734Y011360D01*
X023721Y011282D01*
X023703Y011204D01*
X023682Y011127D01*
X023657Y011051D01*
X023628Y010976D01*
X023595Y010903D01*
X023559Y010832D01*
X023520Y010763D01*
X023477Y010695D01*
X023431Y010630D01*
X023382Y010567D01*
X023329Y010507D01*
X023274Y010449D01*
X023216Y010394D01*
X023155Y010342D01*
X023092Y010293D01*
X023027Y010248D01*
X022959Y010205D01*
X022890Y010166D01*
X022818Y010130D01*
X022745Y010098D01*
X022670Y010070D01*
X022595Y010045D01*
X022518Y010024D01*
X021742Y010024D02*
X021665Y010045D01*
X021590Y010070D01*
X021515Y010098D01*
X021442Y010130D01*
X021370Y010166D01*
X021301Y010205D01*
X021233Y010248D01*
X021168Y010293D01*
X021105Y010342D01*
X021044Y010394D01*
X020986Y010449D01*
X020931Y010507D01*
X020878Y010567D01*
X020829Y010630D01*
X020783Y010695D01*
X020740Y010763D01*
X020701Y010832D01*
X020665Y010903D01*
X020632Y010976D01*
X020603Y011051D01*
X020578Y011127D01*
X020557Y011204D01*
X020539Y011282D01*
X020526Y011360D01*
X020516Y011440D01*
X020510Y011519D01*
X020508Y011599D01*
X020510Y011679D01*
X020516Y011758D01*
X020526Y011838D01*
X020539Y011916D01*
X020557Y011994D01*
X020578Y012071D01*
X020603Y012147D01*
X020632Y012222D01*
X020665Y012295D01*
X020701Y012366D01*
X020740Y012435D01*
X020783Y012503D01*
X020829Y012568D01*
X020878Y012631D01*
X020931Y012691D01*
X020986Y012749D01*
X021044Y012804D01*
X021105Y012856D01*
X021168Y012905D01*
X021233Y012950D01*
X021301Y012993D01*
X021370Y013032D01*
X021442Y013068D01*
X021515Y013100D01*
X021590Y013128D01*
X021665Y013153D01*
X021742Y013174D01*
X020377Y012930D02*
X020077Y012930D01*
X020227Y012930D02*
X020227Y013380D01*
X020077Y013230D01*
X019916Y013305D02*
X019916Y013155D01*
X019841Y013080D01*
X019616Y013080D01*
X019766Y013080D02*
X019916Y012930D01*
X019616Y012930D02*
X019616Y013380D01*
X019841Y013380D01*
X019916Y013305D01*
X019456Y013380D02*
X019156Y013380D01*
X019306Y013380D02*
X019306Y012930D01*
X021068Y010249D02*
X021068Y009999D01*
X020943Y010124D02*
X021193Y010124D01*
X022168Y007099D02*
X022226Y007075D01*
X022283Y007048D01*
X022339Y007017D01*
X022392Y006983D01*
X022443Y006945D01*
X022491Y006905D01*
X022537Y006861D01*
X022580Y006815D01*
X022620Y006766D01*
X022657Y006715D01*
X022691Y006661D01*
X022721Y006606D01*
X022748Y006549D01*
X022771Y006490D01*
X022790Y006430D01*
X022806Y006368D01*
X022818Y006306D01*
X022826Y006244D01*
X022830Y006181D01*
X022830Y006117D01*
X022826Y006054D01*
X022818Y005992D01*
X022806Y005930D01*
X022790Y005868D01*
X022771Y005808D01*
X022748Y005749D01*
X022721Y005692D01*
X022691Y005637D01*
X022657Y005583D01*
X022620Y005532D01*
X022580Y005483D01*
X022537Y005437D01*
X022491Y005393D01*
X022443Y005353D01*
X022392Y005315D01*
X022339Y005281D01*
X022283Y005250D01*
X022226Y005223D01*
X022168Y005199D01*
X022264Y004689D02*
X022414Y004689D01*
X022489Y004614D01*
X022189Y004314D01*
X022264Y004239D01*
X022414Y004239D01*
X022489Y004314D01*
X022489Y004614D01*
X022264Y004689D02*
X022189Y004614D01*
X022189Y004314D01*
X022029Y004239D02*
X021728Y004239D01*
X022029Y004539D01*
X022029Y004614D01*
X021954Y004689D01*
X021803Y004689D01*
X021728Y004614D01*
X021568Y004614D02*
X021493Y004689D01*
X021343Y004689D01*
X021268Y004614D01*
X021268Y004314D01*
X021343Y004239D01*
X021493Y004239D01*
X021568Y004314D01*
X021143Y005024D02*
X021143Y005274D01*
X021018Y005149D02*
X021268Y005149D01*
X021468Y005199D02*
X021410Y005223D01*
X021353Y005250D01*
X021297Y005281D01*
X021244Y005315D01*
X021193Y005353D01*
X021145Y005393D01*
X021099Y005437D01*
X021056Y005483D01*
X021016Y005532D01*
X020979Y005583D01*
X020945Y005637D01*
X020915Y005692D01*
X020888Y005749D01*
X020865Y005808D01*
X020846Y005868D01*
X020830Y005930D01*
X020818Y005992D01*
X020810Y006054D01*
X020806Y006117D01*
X020806Y006181D01*
X020810Y006244D01*
X020818Y006306D01*
X020830Y006368D01*
X020846Y006430D01*
X020865Y006490D01*
X020888Y006549D01*
X020915Y006606D01*
X020945Y006661D01*
X020979Y006715D01*
X021016Y006766D01*
X021056Y006815D01*
X021099Y006861D01*
X021145Y006905D01*
X021193Y006945D01*
X021244Y006983D01*
X021297Y007017D01*
X021353Y007048D01*
X021410Y007075D01*
X021468Y007099D01*
X019279Y005949D02*
X018978Y005949D01*
X018978Y005724D01*
X019128Y005799D01*
X019204Y005799D01*
X019279Y005724D01*
X019279Y005574D01*
X019204Y005499D01*
X019053Y005499D01*
X018978Y005574D01*
X018818Y005574D02*
X018818Y005874D01*
X018743Y005949D01*
X018518Y005949D01*
X018518Y005499D01*
X018743Y005499D01*
X018818Y005574D01*
X017958Y006634D02*
X017958Y006784D01*
X017958Y006709D02*
X017508Y006709D01*
X017508Y006634D02*
X017508Y006784D01*
X017583Y006941D02*
X017508Y007016D01*
X017508Y007166D01*
X017583Y007241D01*
X017583Y007401D02*
X017508Y007476D01*
X017508Y007626D01*
X017583Y007701D01*
X017658Y007701D01*
X017733Y007626D01*
X017808Y007701D01*
X017883Y007701D01*
X017958Y007626D01*
X017958Y007476D01*
X017883Y007401D01*
X017883Y007241D02*
X017958Y007166D01*
X017958Y007016D01*
X017883Y006941D01*
X017583Y006941D01*
X017733Y007551D02*
X017733Y007626D01*
X012993Y015599D02*
X012993Y015849D01*
X012868Y015724D02*
X013118Y015724D01*
X013667Y015624D02*
X013590Y015645D01*
X013515Y015670D01*
X013440Y015698D01*
X013367Y015730D01*
X013295Y015766D01*
X013226Y015805D01*
X013158Y015848D01*
X013093Y015893D01*
X013030Y015942D01*
X012969Y015994D01*
X012911Y016049D01*
X012856Y016107D01*
X012803Y016167D01*
X012754Y016230D01*
X012708Y016295D01*
X012665Y016363D01*
X012626Y016432D01*
X012590Y016503D01*
X012557Y016576D01*
X012528Y016651D01*
X012503Y016727D01*
X012482Y016804D01*
X012464Y016882D01*
X012451Y016960D01*
X012441Y017040D01*
X012435Y017119D01*
X012433Y017199D01*
X012435Y017279D01*
X012441Y017358D01*
X012451Y017438D01*
X012464Y017516D01*
X012482Y017594D01*
X012503Y017671D01*
X012528Y017747D01*
X012557Y017822D01*
X012590Y017895D01*
X012626Y017966D01*
X012665Y018035D01*
X012708Y018103D01*
X012754Y018168D01*
X012803Y018231D01*
X012856Y018291D01*
X012911Y018349D01*
X012969Y018404D01*
X013030Y018456D01*
X013093Y018505D01*
X013158Y018550D01*
X013226Y018593D01*
X013295Y018632D01*
X013367Y018668D01*
X013440Y018700D01*
X013515Y018728D01*
X013590Y018753D01*
X013667Y018774D01*
X014443Y018774D02*
X014520Y018753D01*
X014595Y018728D01*
X014670Y018700D01*
X014743Y018668D01*
X014815Y018632D01*
X014884Y018593D01*
X014952Y018550D01*
X015017Y018505D01*
X015080Y018456D01*
X015141Y018404D01*
X015199Y018349D01*
X015254Y018291D01*
X015307Y018231D01*
X015356Y018168D01*
X015402Y018103D01*
X015445Y018035D01*
X015484Y017966D01*
X015520Y017895D01*
X015553Y017822D01*
X015582Y017747D01*
X015607Y017671D01*
X015628Y017594D01*
X015646Y017516D01*
X015659Y017438D01*
X015669Y017358D01*
X015675Y017279D01*
X015677Y017199D01*
X015675Y017119D01*
X015669Y017040D01*
X015659Y016960D01*
X015646Y016882D01*
X015628Y016804D01*
X015607Y016727D01*
X015582Y016651D01*
X015553Y016576D01*
X015520Y016503D01*
X015484Y016432D01*
X015445Y016363D01*
X015402Y016295D01*
X015356Y016230D01*
X015307Y016167D01*
X015254Y016107D01*
X015199Y016049D01*
X015141Y015994D01*
X015080Y015942D01*
X015017Y015893D01*
X014952Y015848D01*
X014884Y015805D01*
X014815Y015766D01*
X014743Y015730D01*
X014670Y015698D01*
X014595Y015670D01*
X014520Y015645D01*
X014443Y015624D01*
X015828Y016964D02*
X015828Y017264D01*
X015903Y017339D01*
X016053Y017339D01*
X016128Y017264D01*
X016288Y017189D02*
X016438Y017339D01*
X016438Y016889D01*
X016288Y016889D02*
X016589Y016889D01*
X016749Y016889D02*
X017049Y017189D01*
X017049Y017264D01*
X016974Y017339D01*
X016824Y017339D01*
X016749Y017264D01*
X016749Y016889D02*
X017049Y016889D01*
X016128Y016964D02*
X016053Y016889D01*
X015903Y016889D01*
X015828Y016964D01*
X018018Y016899D02*
X018018Y016449D01*
X018243Y016449D01*
X018318Y016524D01*
X018318Y016824D01*
X018243Y016899D01*
X018018Y016899D01*
X018478Y016674D02*
X018779Y016674D01*
X018704Y016899D02*
X018478Y016674D01*
X018704Y016449D02*
X018704Y016899D01*
X011303Y007974D02*
X011303Y007524D01*
X011153Y007524D02*
X011454Y007524D01*
X011153Y007824D02*
X011303Y007974D01*
X010993Y007524D02*
X010693Y007524D01*
X010693Y007974D01*
X010268Y007903D02*
X010193Y007828D01*
X009968Y007828D01*
X010043Y007667D02*
X009968Y007592D01*
X009968Y007367D01*
X009968Y007099D02*
X009968Y006948D01*
X009968Y007024D02*
X010268Y007024D01*
X010268Y007099D01*
X010418Y007024D02*
X010493Y007024D01*
X010268Y006792D02*
X010268Y006567D01*
X010193Y006491D01*
X009968Y006491D01*
X009968Y006792D02*
X010268Y006792D01*
X010268Y007367D02*
X010268Y007592D01*
X010193Y007667D01*
X010043Y007667D01*
X010268Y007903D02*
X010268Y008128D01*
X009968Y008128D01*
X009968Y008288D02*
X009968Y008513D01*
X010043Y008588D01*
X010268Y008588D01*
X010343Y008748D02*
X010418Y008823D01*
X010418Y008974D01*
X010343Y009049D01*
X010268Y009049D01*
X010193Y008974D01*
X010193Y008823D01*
X010118Y008748D01*
X010043Y008748D01*
X009968Y008823D01*
X009968Y008974D01*
X010043Y009049D01*
X009818Y008438D02*
X009818Y008363D01*
X009893Y008288D01*
X010268Y008288D01*
X010290Y010349D02*
X010365Y010424D01*
X010290Y010349D02*
X010140Y010349D01*
X010065Y010424D01*
X010065Y010724D01*
X010140Y010799D01*
X010290Y010799D01*
X010365Y010724D01*
X010525Y010799D02*
X010525Y010574D01*
X010675Y010649D01*
X010750Y010649D01*
X010826Y010574D01*
X010826Y010424D01*
X010750Y010349D01*
X010600Y010349D01*
X010525Y010424D01*
X010525Y010799D02*
X010826Y010799D01*
X009908Y010799D02*
X009758Y010799D01*
X009833Y010799D02*
X009833Y010349D01*
X009758Y010349D02*
X009908Y010349D01*
X009943Y011853D02*
X010018Y011928D01*
X010318Y011928D01*
X010243Y012003D02*
X010243Y011853D01*
X010243Y012163D02*
X009943Y012163D01*
X009943Y012388D01*
X010018Y012463D01*
X010243Y012463D01*
X010168Y012623D02*
X010243Y012698D01*
X010243Y012849D01*
X010168Y012924D01*
X010018Y012924D01*
X009943Y012849D01*
X009943Y012698D01*
X010018Y012623D01*
X010168Y012623D01*
X010243Y013217D02*
X010243Y013442D01*
X010168Y013517D01*
X010018Y013517D01*
X009943Y013442D01*
X009943Y013217D01*
X009943Y013678D02*
X010168Y013678D01*
X010243Y013753D01*
X010243Y013978D01*
X009943Y013978D01*
X009943Y014138D02*
X009943Y014363D01*
X010018Y014438D01*
X010243Y014438D01*
X010318Y014598D02*
X010393Y014673D01*
X010393Y014824D01*
X010318Y014899D01*
X010243Y014899D01*
X010168Y014824D01*
X010168Y014673D01*
X010093Y014598D01*
X010018Y014598D01*
X009943Y014673D01*
X009943Y014824D01*
X010018Y014899D01*
X009793Y014288D02*
X009793Y014213D01*
X009868Y014138D01*
X010243Y014138D01*
X025983Y006074D02*
X026133Y006074D01*
X026058Y006074D02*
X026058Y005624D01*
X025983Y005624D02*
X026133Y005624D01*
X026290Y005699D02*
X026365Y005624D01*
X026515Y005624D01*
X026590Y005699D01*
X026750Y005699D02*
X026825Y005624D01*
X026975Y005624D01*
X027051Y005699D01*
X027051Y005774D01*
X026975Y005849D01*
X026750Y005849D01*
X026750Y005699D01*
X026750Y005849D02*
X026900Y005999D01*
X027051Y006074D01*
X026590Y005999D02*
X026515Y006074D01*
X026365Y006074D01*
X026290Y005999D01*
X026290Y005699D01*
X027618Y006724D02*
X027918Y006724D01*
X027768Y006724D02*
X027768Y006274D01*
X028078Y006349D02*
X028078Y006499D01*
X028153Y006574D01*
X028304Y006574D01*
X028379Y006499D01*
X028379Y006424D01*
X028078Y006424D01*
X028078Y006349D02*
X028153Y006274D01*
X028304Y006274D01*
X028539Y006274D02*
X028539Y006574D01*
X028614Y006574D01*
X028689Y006499D01*
X028764Y006574D01*
X028839Y006499D01*
X028839Y006274D01*
X028689Y006274D02*
X028689Y006499D01*
X028999Y006574D02*
X029224Y006574D01*
X029299Y006499D01*
X029299Y006349D01*
X029224Y006274D01*
X028999Y006274D01*
X028999Y006123D02*
X028999Y006574D01*
D12*
X008827Y031427D03*
D13*
X008538Y030856D03*
X009358Y030943D03*
X009676Y030872D03*
X038818Y001726D03*
D14*
X008538Y030857D03*
D15*
X008538Y030859D03*
D16*
X008538Y030860D03*
D17*
X008538Y030862D03*
X008547Y032300D03*
D18*
X008538Y030863D03*
X009363Y030952D03*
D19*
X009364Y030953D03*
X008538Y030865D03*
D20*
X008538Y030866D03*
D21*
X008538Y030868D03*
D22*
X008538Y030869D03*
X009676Y030886D03*
D23*
X008539Y030871D03*
D24*
X008539Y030872D03*
X008841Y030953D03*
X009372Y030962D03*
D25*
X009373Y030964D03*
X009675Y030892D03*
X008539Y030874D03*
D26*
X009358Y030946D03*
X009677Y030874D03*
D27*
X009675Y030893D03*
X008838Y030958D03*
X008539Y030875D03*
D28*
X009676Y030875D03*
D29*
X009376Y030968D03*
X008836Y030959D03*
X008539Y030877D03*
D30*
X009677Y030877D03*
D31*
X008539Y030878D03*
D32*
X009361Y030950D03*
X009677Y030878D03*
D33*
X008835Y030961D03*
X008539Y030880D03*
D34*
X008851Y030943D03*
X009677Y030880D03*
X009640Y032305D03*
D35*
X008540Y030881D03*
D36*
X009677Y030881D03*
D37*
X009673Y030901D03*
X008541Y030883D03*
D38*
X008847Y030949D03*
X009366Y030955D03*
X009676Y030883D03*
D39*
X009382Y030976D03*
X008829Y030968D03*
X008541Y030884D03*
X008550Y032275D03*
D40*
X008548Y032293D03*
X009676Y030884D03*
D41*
X009673Y030904D03*
X008827Y030970D03*
X008541Y030886D03*
X009079Y032492D03*
X009637Y032281D03*
D42*
X008542Y030887D03*
D43*
X009676Y030887D03*
D44*
X009673Y030905D03*
X009385Y030980D03*
X008542Y030889D03*
X009637Y032279D03*
D45*
X009676Y030889D03*
D46*
X008542Y030890D03*
D47*
X009676Y030890D03*
X008549Y032288D03*
D48*
X009637Y032275D03*
X009388Y030983D03*
X008542Y030892D03*
D49*
X008542Y030893D03*
D50*
X008543Y030895D03*
X008821Y030979D03*
X009391Y030989D03*
X009635Y032272D03*
D51*
X009638Y032290D03*
X009674Y030895D03*
D52*
X008543Y030896D03*
D53*
X009674Y030896D03*
D54*
X008543Y030898D03*
X008552Y032263D03*
X009635Y032270D03*
D55*
X009638Y032287D03*
X009674Y030898D03*
D56*
X008543Y030899D03*
D57*
X008833Y030962D03*
X009674Y030899D03*
X009638Y032285D03*
D58*
X009396Y030995D03*
X008544Y030901D03*
D59*
X008544Y030902D03*
X008814Y030988D03*
X009670Y030922D03*
D60*
X009673Y030902D03*
X008830Y030967D03*
D61*
X008544Y030904D03*
D62*
X008545Y030905D03*
D63*
X008545Y030907D03*
X009400Y031004D03*
D64*
X009672Y030907D03*
D65*
X008545Y030908D03*
X008554Y032252D03*
X009634Y032260D03*
D66*
X009637Y032278D03*
X008551Y032272D03*
X009673Y030908D03*
D67*
X008545Y030910D03*
D68*
X009672Y030910D03*
D69*
X008545Y030911D03*
D70*
X009672Y030911D03*
D71*
X008545Y030913D03*
D72*
X009672Y030913D03*
D73*
X008546Y030914D03*
D74*
X008821Y030980D03*
X009392Y030991D03*
X009671Y030914D03*
D75*
X008546Y030916D03*
D76*
X009671Y030916D03*
D77*
X009667Y030937D03*
X008547Y030917D03*
D78*
X009670Y030917D03*
D79*
X008547Y030919D03*
D80*
X008817Y030983D03*
X009670Y030919D03*
D81*
X008546Y030920D03*
X009632Y032248D03*
D82*
X009635Y032266D03*
X009670Y030920D03*
X008816Y030985D03*
D83*
X008548Y030922D03*
D84*
X008548Y030923D03*
X008556Y032236D03*
D85*
X009670Y030923D03*
D86*
X009666Y030946D03*
X008548Y030925D03*
X008556Y032234D03*
X009097Y032489D03*
D87*
X009399Y031003D03*
X009669Y030925D03*
D88*
X008548Y030926D03*
D89*
X009669Y030926D03*
D90*
X008548Y030928D03*
X008556Y032233D03*
D91*
X009669Y030928D03*
D92*
X009665Y030950D03*
X008549Y030929D03*
X009631Y032239D03*
D93*
X009634Y032258D03*
X009668Y030929D03*
D94*
X008549Y030931D03*
X008557Y032230D03*
D95*
X009669Y030931D03*
D96*
X008550Y030932D03*
D97*
X009668Y030932D03*
D98*
X009664Y030955D03*
X008551Y030934D03*
D99*
X009667Y030934D03*
D100*
X008551Y030935D03*
D101*
X008856Y030935D03*
D102*
X009667Y030935D03*
D103*
X008551Y030937D03*
D104*
X008856Y030937D03*
D105*
X008551Y030938D03*
X008557Y032222D03*
X009099Y032485D03*
D106*
X008856Y030938D03*
D107*
X009667Y030938D03*
D108*
X009662Y030961D03*
X008552Y030940D03*
D109*
X008854Y030940D03*
D110*
X009667Y030940D03*
X008554Y032242D03*
D111*
X008552Y030941D03*
D112*
X008852Y030941D03*
D113*
X009667Y030941D03*
X009632Y032246D03*
D114*
X009661Y030965D03*
X008553Y030943D03*
D115*
X009667Y030943D03*
D116*
X009661Y030967D03*
X008553Y030944D03*
X009627Y032222D03*
D117*
X008548Y032299D03*
X008849Y030944D03*
D118*
X009358Y030944D03*
X008548Y032303D03*
D119*
X009667Y030944D03*
D120*
X009661Y030968D03*
X008554Y030946D03*
X009098Y032477D03*
D121*
X008848Y030946D03*
D122*
X008554Y030947D03*
X009661Y030970D03*
D123*
X008848Y030947D03*
D124*
X009358Y030947D03*
D125*
X009666Y030947D03*
X009631Y032242D03*
D126*
X008554Y030949D03*
D127*
X009359Y030949D03*
D128*
X009665Y030949D03*
X009631Y032240D03*
D129*
X009625Y032218D03*
X009097Y032452D03*
X009097Y032453D03*
X009097Y032455D03*
X009097Y032458D03*
X008554Y030950D03*
D130*
X008846Y030950D03*
X009367Y030958D03*
X009640Y032299D03*
D131*
X009625Y032215D03*
X009098Y032444D03*
X009659Y030974D03*
X008555Y030952D03*
D132*
X008843Y030952D03*
X009370Y030961D03*
D133*
X009664Y030952D03*
X009630Y032236D03*
D134*
X008556Y030953D03*
D135*
X009664Y030953D03*
X009629Y032234D03*
X008557Y032227D03*
D136*
X008563Y032203D03*
X009097Y032423D03*
X009097Y032425D03*
X009658Y030979D03*
X008557Y030955D03*
D137*
X008840Y030955D03*
X008549Y032287D03*
D138*
X009097Y032411D03*
X008557Y030956D03*
D139*
X008839Y030956D03*
D140*
X009367Y030956D03*
D141*
X009664Y030956D03*
D142*
X008557Y030958D03*
X009097Y032401D03*
X009097Y032402D03*
X009097Y032404D03*
X009097Y032405D03*
X009097Y032407D03*
D143*
X009663Y030958D03*
D144*
X008557Y030959D03*
X009097Y032393D03*
D145*
X009368Y030959D03*
D146*
X009663Y030959D03*
D147*
X008557Y030961D03*
X008563Y032200D03*
X009622Y032207D03*
D148*
X009097Y032377D03*
X009097Y032378D03*
X008564Y032197D03*
X008558Y030962D03*
D149*
X009662Y030962D03*
D150*
X009656Y030988D03*
X008564Y032194D03*
X009097Y032356D03*
X009097Y032357D03*
X009097Y032359D03*
X009097Y032360D03*
X009097Y032362D03*
X009097Y032363D03*
X009097Y032365D03*
X009622Y032203D03*
X008558Y030964D03*
D151*
X008830Y030964D03*
D152*
X009661Y030964D03*
D153*
X009655Y030989D03*
X008559Y030965D03*
D154*
X008830Y030965D03*
D155*
X009374Y030965D03*
X008549Y032285D03*
D156*
X008559Y030967D03*
D157*
X009376Y030967D03*
D158*
X008560Y030968D03*
D159*
X008560Y030970D03*
X009095Y032320D03*
X009095Y032323D03*
X009095Y032324D03*
X009620Y032198D03*
D160*
X009638Y032288D03*
X008549Y032282D03*
X009377Y030970D03*
D161*
X008560Y030971D03*
D162*
X008826Y030971D03*
D163*
X009379Y030971D03*
D164*
X009660Y030971D03*
D165*
X008561Y030973D03*
X009097Y032296D03*
X009097Y032297D03*
X009097Y032299D03*
D166*
X008551Y032270D03*
X008824Y030973D03*
X009386Y030982D03*
D167*
X009381Y030973D03*
X008550Y032279D03*
D168*
X009098Y032450D03*
X009659Y030973D03*
D169*
X009652Y031000D03*
X008562Y030974D03*
X009096Y032279D03*
X009096Y032281D03*
X009096Y032282D03*
X009096Y032284D03*
X009096Y032285D03*
D170*
X008823Y030974D03*
D171*
X009382Y030974D03*
X008549Y032278D03*
D172*
X009094Y032273D03*
X009094Y032272D03*
X008562Y030976D03*
D173*
X008823Y030976D03*
X008551Y032267D03*
X009636Y032273D03*
D174*
X009624Y032213D03*
X009097Y032434D03*
X009097Y032435D03*
X009097Y032437D03*
X008562Y032206D03*
X009658Y030976D03*
D175*
X008562Y030977D03*
D176*
X008822Y030977D03*
D177*
X009383Y030977D03*
D178*
X009658Y030977D03*
X009097Y032428D03*
X009097Y032429D03*
X009097Y032431D03*
D179*
X008563Y030979D03*
D180*
X009383Y030979D03*
D181*
X008563Y030980D03*
D182*
X009658Y030980D03*
X009097Y032408D03*
X009097Y032410D03*
X009097Y032413D03*
X009097Y032414D03*
D183*
X009096Y032245D03*
X008563Y030982D03*
D184*
X008818Y030982D03*
X009393Y030992D03*
D185*
X009657Y030982D03*
D186*
X008564Y030983D03*
X008569Y032174D03*
D187*
X009097Y032383D03*
X009097Y032384D03*
X009656Y030983D03*
D188*
X008564Y030985D03*
X009097Y032242D03*
D189*
X009389Y030985D03*
D190*
X009655Y030985D03*
X009622Y032204D03*
X009096Y032374D03*
X009096Y032375D03*
D191*
X008564Y030986D03*
D192*
X008815Y030986D03*
D193*
X009389Y030986D03*
D194*
X009655Y030986D03*
X009096Y032366D03*
D195*
X008564Y030988D03*
D196*
X009390Y030988D03*
X008551Y032266D03*
D197*
X008655Y031429D03*
X008679Y031402D03*
X008676Y031094D03*
X008637Y030989D03*
X009508Y031163D03*
X009510Y031160D03*
X009570Y031007D03*
D198*
X009518Y031145D03*
X009517Y031148D03*
X009517Y031150D03*
X009515Y031153D03*
X009511Y031396D03*
X009509Y031772D03*
X009508Y031774D03*
X009506Y031775D03*
X008654Y031739D03*
X008680Y031400D03*
X008681Y031399D03*
X008671Y031087D03*
X008669Y031084D03*
X008668Y031081D03*
X008636Y030991D03*
D199*
X009655Y030991D03*
D200*
X009571Y031010D03*
X009520Y031142D03*
X009467Y031282D03*
X009505Y031778D03*
X008689Y031777D03*
X008683Y031396D03*
X008684Y031394D03*
X008734Y031265D03*
X008734Y031264D03*
X008666Y031078D03*
X008636Y030992D03*
D201*
X009654Y030992D03*
X009096Y032326D03*
D202*
X008691Y031780D03*
X008689Y031778D03*
X008650Y031430D03*
X008664Y031075D03*
X008664Y031073D03*
X008635Y030994D03*
X009466Y031283D03*
X009520Y031141D03*
X009522Y031139D03*
X009571Y031012D03*
X009502Y031780D03*
D203*
X009394Y030994D03*
D204*
X009652Y030994D03*
X008566Y032189D03*
D205*
X008651Y031738D03*
X008686Y031393D03*
X008663Y031072D03*
X008662Y031069D03*
X008635Y030995D03*
X009523Y031138D03*
X009524Y031135D03*
X009524Y031133D03*
X009526Y031132D03*
D206*
X009652Y030995D03*
X008566Y032188D03*
X009096Y032311D03*
X009096Y032312D03*
X009096Y032314D03*
X009619Y032195D03*
D207*
X009503Y031387D03*
X009533Y031118D03*
X008635Y030998D03*
X008635Y030997D03*
X008693Y031784D03*
D208*
X009396Y030997D03*
D209*
X009652Y030997D03*
D210*
X009397Y030998D03*
X009635Y032264D03*
D211*
X009096Y032287D03*
X009096Y032288D03*
X009096Y032290D03*
X009096Y032293D03*
X009096Y032294D03*
X009652Y030998D03*
D212*
X009536Y031112D03*
X009535Y031114D03*
X008653Y031054D03*
X008653Y031052D03*
X008651Y031051D03*
X008635Y031000D03*
X008695Y031786D03*
X008696Y031787D03*
D213*
X009397Y031000D03*
D214*
X008635Y031001D03*
D215*
X009398Y031001D03*
D216*
X009652Y031001D03*
D217*
X008650Y031048D03*
X008635Y031004D03*
X008635Y031003D03*
D218*
X009651Y031003D03*
X009618Y032189D03*
X009094Y032255D03*
X009094Y032257D03*
X009094Y032258D03*
X009094Y032260D03*
D219*
X009094Y032249D03*
X008568Y032179D03*
X009649Y031004D03*
D220*
X008635Y031006D03*
X008695Y031381D03*
D221*
X009400Y031006D03*
D222*
X009649Y031006D03*
X009617Y032185D03*
X008569Y032176D03*
D223*
X008696Y031379D03*
X008732Y031285D03*
X008647Y031042D03*
X008647Y031040D03*
X008645Y031039D03*
X008645Y031037D03*
X008635Y031009D03*
X008635Y031007D03*
X009467Y031295D03*
X009467Y031297D03*
X009467Y031298D03*
X009467Y031300D03*
X009497Y031378D03*
X009547Y031094D03*
X009547Y031093D03*
X009548Y031090D03*
X009491Y031793D03*
D224*
X009505Y031777D03*
X009516Y031768D03*
X009510Y031394D03*
X009508Y031393D03*
X009466Y031280D03*
X009517Y031147D03*
X009519Y031144D03*
X009570Y031009D03*
X008670Y031085D03*
X008668Y031082D03*
X008667Y031079D03*
X008682Y031397D03*
X009096Y032215D03*
D225*
X008635Y031013D03*
X008635Y031012D03*
X008635Y031010D03*
D226*
X008733Y031270D03*
X008733Y031273D03*
X009526Y031130D03*
X009528Y031129D03*
X009529Y031127D03*
X009529Y031126D03*
X009571Y031013D03*
D227*
X009551Y031084D03*
X009550Y031085D03*
X009490Y031795D03*
X008636Y031021D03*
X008636Y031019D03*
X008636Y031018D03*
X008636Y031015D03*
D228*
X008659Y031063D03*
X008660Y031064D03*
X008732Y031274D03*
X008732Y031276D03*
X008689Y031390D03*
X009530Y031124D03*
X009572Y031015D03*
D229*
X008636Y031016D03*
D230*
X009467Y031286D03*
X009572Y031016D03*
D231*
X009573Y031018D03*
X009499Y031784D03*
X009498Y031786D03*
X009096Y032213D03*
X008689Y031388D03*
X008691Y031387D03*
X008691Y031385D03*
X008733Y031277D03*
X008656Y031060D03*
D232*
X008656Y031058D03*
X008654Y031057D03*
X008732Y031279D03*
X008732Y031280D03*
X009467Y031288D03*
X009467Y031289D03*
X009500Y031382D03*
X009502Y031384D03*
X009572Y031019D03*
X009497Y031787D03*
D233*
X009496Y031789D03*
X009495Y031790D03*
X009526Y031763D03*
X009538Y031108D03*
X009540Y031105D03*
X009541Y031103D03*
X009573Y031021D03*
X008692Y031384D03*
D234*
X008699Y031375D03*
X008732Y031288D03*
X008642Y031033D03*
X008639Y031028D03*
X008638Y031025D03*
X008638Y031024D03*
X008638Y031022D03*
X008702Y031793D03*
X009467Y031304D03*
X009467Y031303D03*
D235*
X009498Y031379D03*
X009567Y031453D03*
X009493Y031792D03*
X009544Y031099D03*
X009544Y031097D03*
X009546Y031096D03*
X009574Y031022D03*
X008647Y031043D03*
X008643Y031735D03*
X008700Y031792D03*
D236*
X008697Y031378D03*
X008644Y031036D03*
X008643Y031034D03*
X009549Y031087D03*
X009549Y031088D03*
X009574Y031025D03*
X009574Y031024D03*
X009495Y031375D03*
D237*
X009493Y031373D03*
X009468Y031306D03*
X009553Y031081D03*
X009555Y031078D03*
X009556Y031075D03*
X009558Y031073D03*
X009574Y031027D03*
X009487Y031798D03*
X009486Y031799D03*
X009096Y032212D03*
X008704Y031795D03*
X008700Y031373D03*
X008640Y031030D03*
X008638Y031027D03*
D238*
X008732Y031289D03*
X008732Y031291D03*
X008707Y031798D03*
X009467Y031307D03*
X009554Y031079D03*
X009559Y031072D03*
X009574Y031030D03*
X009574Y031028D03*
D239*
X009488Y031796D03*
X008698Y031376D03*
X008732Y031286D03*
X008641Y031031D03*
D240*
X009574Y031031D03*
D241*
X009574Y031033D03*
X009574Y031034D03*
X008732Y031294D03*
X008732Y031295D03*
X008702Y031372D03*
D242*
X008731Y031298D03*
X008731Y031297D03*
X009468Y031310D03*
X009573Y031454D03*
X009573Y031040D03*
X009573Y031039D03*
X009573Y031037D03*
X009573Y031036D03*
D243*
X009572Y031042D03*
X009572Y031043D03*
X009572Y031045D03*
X009467Y031312D03*
X009482Y031802D03*
X008704Y031370D03*
X008732Y031300D03*
D244*
X008732Y031283D03*
X008732Y031282D03*
X008644Y031432D03*
X008698Y031790D03*
X008648Y031045D03*
X009467Y031291D03*
X009467Y031292D03*
X009467Y031294D03*
X009499Y031381D03*
X009538Y031109D03*
X009542Y031102D03*
X009544Y031100D03*
D245*
X008649Y031046D03*
D246*
X009571Y031046D03*
D247*
X009571Y031048D03*
X009571Y031049D03*
X009569Y031051D03*
X009569Y031052D03*
X009568Y031054D03*
X009566Y031055D03*
X009565Y031058D03*
X009488Y031369D03*
X009490Y031370D03*
X008711Y031802D03*
D248*
X008697Y031789D03*
X008694Y031382D03*
X008650Y031049D03*
X009537Y031111D03*
D249*
X009534Y031115D03*
X009534Y031117D03*
X009532Y031120D03*
X009502Y031385D03*
X008653Y031055D03*
D250*
X009562Y031063D03*
X009564Y031060D03*
X009565Y031057D03*
D251*
X008658Y031061D03*
D252*
X009563Y031061D03*
D253*
X009562Y031064D03*
X009562Y031066D03*
X009535Y031762D03*
X008710Y031801D03*
X008636Y031433D03*
D254*
X008692Y031783D03*
X008662Y031070D03*
X008661Y031067D03*
X008661Y031066D03*
X009531Y031123D03*
X009504Y031388D03*
X009505Y031390D03*
X009522Y031765D03*
X009501Y031783D03*
D255*
X009484Y031801D03*
X009468Y031309D03*
X009559Y031070D03*
X009561Y031069D03*
X009561Y031067D03*
X008731Y031292D03*
D256*
X008666Y031076D03*
X009559Y031451D03*
X009518Y031766D03*
D257*
X009556Y031076D03*
D258*
X009552Y031082D03*
D259*
X009467Y031277D03*
X009467Y031279D03*
X009512Y031397D03*
X008734Y031262D03*
X008672Y031088D03*
X008687Y031774D03*
D260*
X008686Y031772D03*
X008734Y031261D03*
X008673Y031090D03*
X009466Y031274D03*
X009466Y031276D03*
X009511Y031159D03*
X009511Y031157D03*
X009513Y031156D03*
X009514Y031154D03*
X009513Y031399D03*
X009514Y031400D03*
X009513Y031769D03*
X009511Y031771D03*
D261*
X008674Y031091D03*
D262*
X009468Y031301D03*
X009496Y031376D03*
X009547Y031091D03*
D263*
X009467Y031273D03*
X009515Y031402D03*
X008675Y031093D03*
D264*
X008677Y031096D03*
X008677Y031097D03*
X008678Y031100D03*
X008678Y031403D03*
X008684Y031771D03*
X009506Y031168D03*
X009508Y031165D03*
X009509Y031162D03*
D265*
X009505Y031169D03*
X009505Y031171D03*
X008679Y031102D03*
X008677Y031099D03*
X008677Y031405D03*
X008683Y031769D03*
D266*
X008680Y031765D03*
X008680Y031103D03*
X009504Y031172D03*
D267*
X009520Y031408D03*
X008681Y031105D03*
X008680Y031763D03*
D268*
X008681Y031106D03*
D269*
X009539Y031106D03*
D270*
X009503Y031174D03*
X009502Y031177D03*
X009500Y031180D03*
X009499Y031183D03*
X009497Y031184D03*
X009466Y031267D03*
X009553Y031450D03*
X008734Y031253D03*
X008734Y031252D03*
X008684Y031112D03*
X008683Y031109D03*
X008683Y031108D03*
X008674Y031411D03*
X008660Y031426D03*
X008678Y031762D03*
X009097Y032218D03*
D271*
X008673Y031412D03*
X008688Y031117D03*
X008686Y031115D03*
X008685Y031114D03*
X008683Y031111D03*
X009465Y031264D03*
X009465Y031265D03*
X009493Y031190D03*
X009495Y031189D03*
X009495Y031187D03*
X009496Y031186D03*
D272*
X009493Y031192D03*
X009493Y031193D03*
X009521Y031411D03*
X009521Y031412D03*
X008734Y031250D03*
X008734Y031249D03*
X008692Y031124D03*
X008690Y031120D03*
X008689Y031118D03*
X008672Y031414D03*
X008671Y031417D03*
X008663Y031424D03*
X008675Y031759D03*
X008677Y031760D03*
D273*
X008690Y031121D03*
X009491Y031196D03*
D274*
X009532Y031121D03*
D275*
X009492Y031195D03*
X009465Y031262D03*
X009522Y031414D03*
X009523Y031415D03*
X009523Y031417D03*
X008734Y031247D03*
X008692Y031127D03*
X008692Y031126D03*
X008691Y031123D03*
X008671Y031415D03*
X008670Y031418D03*
X008673Y031754D03*
X008674Y031756D03*
X008674Y031757D03*
D276*
X008672Y031753D03*
X008669Y031420D03*
X008735Y031246D03*
X008693Y031129D03*
X009466Y031261D03*
X009524Y031418D03*
X009097Y032219D03*
D277*
X009490Y031201D03*
X008695Y031130D03*
D278*
X008695Y031132D03*
X008665Y031742D03*
X009549Y031448D03*
D279*
X008696Y031133D03*
D280*
X008697Y031135D03*
X008698Y031138D03*
X008667Y031744D03*
X008668Y031745D03*
X009478Y031219D03*
X009478Y031217D03*
D281*
X008698Y031136D03*
D282*
X008692Y031781D03*
X009502Y031781D03*
X009523Y031136D03*
D283*
X009478Y031220D03*
X009478Y031222D03*
X009476Y031225D03*
X008737Y031240D03*
X008699Y031139D03*
D284*
X008700Y031141D03*
X009480Y031216D03*
X009526Y031423D03*
D285*
X009527Y031424D03*
X009529Y031426D03*
X009529Y031427D03*
X009545Y031447D03*
X009466Y031255D03*
X009466Y031253D03*
X008702Y031144D03*
X008701Y031142D03*
D286*
X008703Y031145D03*
X008704Y031147D03*
X009529Y031429D03*
D287*
X009530Y031430D03*
X009466Y031250D03*
X009466Y031249D03*
X009466Y031246D03*
X009472Y031232D03*
X009475Y031228D03*
X008737Y031234D03*
X008737Y031235D03*
X008737Y031237D03*
X008708Y031154D03*
X008707Y031153D03*
X008705Y031148D03*
D288*
X008706Y031150D03*
X008736Y031238D03*
X009465Y031252D03*
X009474Y031229D03*
X009477Y031223D03*
X009097Y032221D03*
D289*
X008707Y031151D03*
D290*
X009516Y031151D03*
D291*
X009472Y031231D03*
X009471Y031234D03*
X009469Y031235D03*
X009466Y031243D03*
X009466Y031244D03*
X009465Y031247D03*
X009531Y031432D03*
X009532Y031433D03*
X008709Y031157D03*
X008709Y031156D03*
D292*
X008710Y031159D03*
X008737Y031231D03*
X008737Y031232D03*
X009533Y031435D03*
X009535Y031438D03*
X009536Y031439D03*
X009538Y031441D03*
X009539Y031442D03*
X009541Y031444D03*
D293*
X008712Y031162D03*
X008710Y031160D03*
D294*
X008713Y031163D03*
X008713Y031165D03*
X008714Y031168D03*
X008737Y031229D03*
D295*
X008714Y031166D03*
D296*
X009508Y031166D03*
D297*
X008715Y031169D03*
D298*
X008716Y031171D03*
X008718Y031172D03*
D299*
X008719Y031174D03*
X008720Y031175D03*
X008720Y031177D03*
D300*
X008734Y031255D03*
X008674Y031409D03*
X008659Y031741D03*
X009501Y031178D03*
X009502Y031175D03*
D301*
X008721Y031178D03*
D302*
X008722Y031180D03*
X008737Y031228D03*
D303*
X008737Y031226D03*
X008722Y031181D03*
D304*
X009499Y031181D03*
D305*
X008725Y031184D03*
X008723Y031183D03*
D306*
X008725Y031186D03*
D307*
X008726Y031187D03*
X008726Y031189D03*
D308*
X008727Y031190D03*
X008728Y031193D03*
X008737Y031219D03*
X008737Y031220D03*
D309*
X008738Y031222D03*
X008728Y031192D03*
D310*
X008729Y031195D03*
X008731Y031198D03*
X008732Y031199D03*
X008738Y031216D03*
X008738Y031217D03*
D311*
X008730Y031196D03*
D312*
X008665Y031423D03*
X009490Y031199D03*
X009490Y031198D03*
D313*
X008737Y031210D03*
X008737Y031213D03*
X008737Y031214D03*
X008736Y031207D03*
X008736Y031205D03*
X008734Y031202D03*
X008733Y031201D03*
D314*
X008670Y031748D03*
X008671Y031750D03*
X009525Y031420D03*
X009465Y031259D03*
X009481Y031213D03*
X009484Y031208D03*
X009486Y031205D03*
X009487Y031204D03*
X009487Y031202D03*
D315*
X008737Y031208D03*
X008735Y031204D03*
D316*
X008735Y031243D03*
X008735Y031244D03*
X008669Y031747D03*
X009466Y031258D03*
X009481Y031214D03*
X009484Y031210D03*
X009485Y031207D03*
D317*
X008737Y031211D03*
D318*
X009483Y031211D03*
D319*
X008737Y031223D03*
X008737Y031225D03*
D320*
X009475Y031226D03*
D321*
X009469Y031237D03*
D322*
X009468Y031238D03*
X009468Y031240D03*
X009543Y031445D03*
D323*
X008736Y031241D03*
D324*
X009467Y031241D03*
D325*
X008734Y031256D03*
X008677Y031406D03*
D326*
X009466Y031256D03*
X009526Y031421D03*
D327*
X009466Y031270D03*
X008734Y031259D03*
X008734Y031258D03*
D328*
X008733Y031267D03*
X008733Y031268D03*
D329*
X008675Y031408D03*
X008659Y031427D03*
X009466Y031268D03*
X009517Y031403D03*
D330*
X008733Y031271D03*
D331*
X009466Y031271D03*
X009096Y032216D03*
D332*
X009467Y031285D03*
D333*
X008731Y031301D03*
D334*
X008731Y031303D03*
X009096Y032210D03*
D335*
X008632Y031435D03*
X008705Y031369D03*
X008731Y031304D03*
X009467Y031315D03*
X009487Y031367D03*
D336*
X009479Y031805D03*
X008716Y031805D03*
X008708Y031366D03*
X008731Y031307D03*
X008731Y031306D03*
D337*
X008730Y031309D03*
X008709Y031364D03*
X009477Y031807D03*
X009096Y032209D03*
D338*
X008718Y031810D03*
X008730Y031312D03*
X008730Y031310D03*
X009468Y031327D03*
X009468Y031328D03*
X009546Y031759D03*
D339*
X009467Y031330D03*
X008731Y031313D03*
D340*
X009468Y031313D03*
D341*
X009468Y031333D03*
X009583Y031459D03*
X008730Y031315D03*
X008625Y031438D03*
X009096Y032207D03*
D342*
X008731Y031316D03*
D343*
X009468Y031316D03*
D344*
X009478Y031360D03*
X008731Y031318D03*
X008716Y031360D03*
D345*
X009467Y031319D03*
X009467Y031318D03*
D346*
X009468Y031334D03*
X009471Y031813D03*
X009096Y032206D03*
X008622Y031439D03*
X008731Y031321D03*
X008731Y031319D03*
D347*
X008716Y031807D03*
X009483Y031363D03*
X009468Y031322D03*
X009468Y031321D03*
D348*
X009469Y031336D03*
X009473Y031355D03*
X008731Y031322D03*
X008720Y031355D03*
X008719Y031357D03*
X008717Y031358D03*
X008723Y031813D03*
D349*
X008622Y031730D03*
X008731Y031325D03*
X008731Y031324D03*
X009468Y031337D03*
X009472Y031354D03*
X009552Y031756D03*
X009469Y031814D03*
D350*
X009467Y031325D03*
X009467Y031324D03*
X008717Y031808D03*
X008629Y031732D03*
D351*
X008722Y031354D03*
X008731Y031328D03*
X008731Y031327D03*
D352*
X008730Y031330D03*
X009468Y031339D03*
X009468Y031340D03*
X009471Y031352D03*
X009588Y031460D03*
X009468Y031816D03*
X009096Y032204D03*
D353*
X008731Y031331D03*
D354*
X008713Y031361D03*
X009468Y031331D03*
D355*
X009468Y031342D03*
X009468Y031343D03*
X009468Y031345D03*
X009468Y031348D03*
X009469Y031351D03*
X008730Y031334D03*
X008730Y031333D03*
D356*
X008730Y031336D03*
X008730Y031337D03*
X008727Y031351D03*
X008617Y031729D03*
X008730Y031819D03*
D357*
X008728Y031349D03*
X008729Y031340D03*
X008729Y031339D03*
X009461Y031820D03*
X009097Y032203D03*
D358*
X008728Y031348D03*
X008730Y031343D03*
X008730Y031342D03*
D359*
X008729Y031345D03*
X008614Y031727D03*
D360*
X008729Y031346D03*
D361*
X009468Y031346D03*
D362*
X009469Y031349D03*
D363*
X009463Y031819D03*
X008728Y031817D03*
X008727Y031816D03*
X008617Y031441D03*
X008724Y031352D03*
D364*
X009475Y031357D03*
D365*
X009476Y031358D03*
X009550Y031757D03*
D366*
X009480Y031361D03*
D367*
X009580Y031457D03*
X009476Y031808D03*
X008711Y031363D03*
D368*
X008707Y031367D03*
X008713Y031804D03*
X009480Y031804D03*
X009541Y031760D03*
X009577Y031456D03*
X009486Y031366D03*
X009484Y031364D03*
D369*
X009492Y031372D03*
X008707Y031799D03*
D370*
X008687Y031391D03*
D371*
X009507Y031391D03*
D372*
X009518Y031405D03*
X008683Y031768D03*
D373*
X009519Y031406D03*
D374*
X009520Y031409D03*
D375*
X008668Y031421D03*
X008672Y031751D03*
D376*
X008628Y031436D03*
D377*
X009534Y031436D03*
D378*
X008609Y031442D03*
D379*
X008603Y031444D03*
X009604Y031463D03*
D380*
X009097Y032198D03*
X008600Y031723D03*
X008599Y031445D03*
D381*
X008595Y031447D03*
X009096Y032197D03*
D382*
X009581Y031747D03*
X008593Y031448D03*
D383*
X008589Y031450D03*
X009096Y032194D03*
X009585Y031745D03*
D384*
X008584Y031451D03*
D385*
X008575Y031453D03*
X009096Y032189D03*
D386*
X008571Y031454D03*
D387*
X008567Y031456D03*
X009416Y031835D03*
X009611Y031738D03*
D388*
X008564Y031457D03*
D389*
X008562Y031459D03*
D390*
X008557Y031460D03*
X009647Y031477D03*
X009622Y031733D03*
D391*
X009095Y032177D03*
X008549Y031462D03*
D392*
X009457Y031822D03*
X009561Y031753D03*
X009595Y031462D03*
D393*
X009097Y032174D03*
X008518Y031642D03*
X008518Y031640D03*
X008518Y031639D03*
X008518Y031637D03*
X008518Y031636D03*
X008518Y031634D03*
X008516Y031625D03*
X008516Y031624D03*
X008516Y031622D03*
X008516Y031547D03*
X008516Y031546D03*
X008516Y031544D03*
X008516Y031543D03*
X008516Y031540D03*
X008516Y031538D03*
X008516Y031537D03*
X008516Y031535D03*
X008516Y031534D03*
X008543Y031463D03*
D394*
X008539Y031465D03*
X008518Y031514D03*
X008518Y031516D03*
X008518Y031517D03*
X008520Y031654D03*
X008520Y031655D03*
X008541Y031705D03*
X009672Y031664D03*
X009673Y031660D03*
X009675Y031510D03*
X009675Y031508D03*
X009669Y031489D03*
X009667Y031487D03*
D395*
X009610Y031465D03*
D396*
X008536Y031466D03*
X008521Y031661D03*
D397*
X009613Y031466D03*
D398*
X009671Y031493D03*
X009671Y031495D03*
X009673Y031498D03*
X009673Y031499D03*
X009673Y031501D03*
X009665Y031688D03*
X009643Y031727D03*
X008536Y031702D03*
X008536Y031468D03*
D399*
X009616Y031468D03*
D400*
X008533Y031469D03*
X008526Y031684D03*
D401*
X009589Y031744D03*
X009619Y031469D03*
D402*
X008533Y031471D03*
X008531Y031472D03*
X008527Y031685D03*
X008531Y031694D03*
X008533Y031699D03*
X008534Y031700D03*
D403*
X009625Y031471D03*
D404*
X009633Y031472D03*
X009603Y031741D03*
D405*
X008532Y031697D03*
X008532Y031696D03*
X008530Y031693D03*
X008529Y031690D03*
X008529Y031688D03*
X008527Y031687D03*
X008530Y031474D03*
D406*
X009640Y031474D03*
D407*
X008530Y031475D03*
X008528Y031477D03*
X008528Y031478D03*
D408*
X009644Y031475D03*
D409*
X009651Y031478D03*
D410*
X009661Y031703D03*
X009647Y031724D03*
X008527Y031480D03*
D411*
X009655Y031480D03*
D412*
X008526Y031481D03*
D413*
X009661Y031481D03*
X009681Y031601D03*
X009679Y031616D03*
D414*
X009663Y031696D03*
X009663Y031697D03*
X009661Y031700D03*
X009661Y031702D03*
X008526Y031483D03*
X008524Y031484D03*
D415*
X009664Y031483D03*
X009676Y031516D03*
X009676Y031517D03*
X009676Y031519D03*
X009678Y031523D03*
X009678Y031525D03*
X009678Y031528D03*
X009678Y031529D03*
X009678Y031531D03*
X009676Y031645D03*
X009676Y031648D03*
X009676Y031649D03*
D416*
X009675Y031652D03*
X009675Y031654D03*
X009675Y031655D03*
X009666Y031484D03*
X008517Y031525D03*
X008517Y031528D03*
X008517Y031529D03*
X008517Y031531D03*
X008517Y031532D03*
X008518Y031643D03*
X008518Y031645D03*
X008518Y031648D03*
X008518Y031649D03*
D417*
X008525Y031682D03*
X008524Y031489D03*
X008524Y031487D03*
X008524Y031486D03*
X009646Y031726D03*
X009662Y031699D03*
X009664Y031694D03*
X009664Y031693D03*
D418*
X009674Y031658D03*
X009674Y031657D03*
X009676Y031514D03*
X009676Y031513D03*
X009667Y031486D03*
X008518Y031519D03*
X008518Y031520D03*
X008518Y031522D03*
X008518Y031523D03*
X008519Y031651D03*
X008519Y031652D03*
D419*
X008524Y031679D03*
X008524Y031681D03*
X008523Y031495D03*
X008523Y031493D03*
X008523Y031492D03*
X008523Y031490D03*
X009664Y031690D03*
D420*
X009668Y031682D03*
X009668Y031681D03*
X009668Y031679D03*
X009670Y031678D03*
X009670Y031675D03*
X009670Y031673D03*
X009670Y031672D03*
X009671Y031670D03*
X009671Y031669D03*
X009671Y031667D03*
X009671Y031666D03*
X009673Y031663D03*
X009640Y031729D03*
X009674Y031507D03*
X009674Y031505D03*
X009670Y031490D03*
X008521Y031508D03*
X008519Y031513D03*
X008521Y031657D03*
X008521Y031658D03*
X008522Y031663D03*
X008539Y031703D03*
D421*
X008521Y031660D03*
X008520Y031510D03*
X008521Y031507D03*
X008521Y031505D03*
X008521Y031504D03*
X009670Y031492D03*
X009673Y031502D03*
X009673Y031504D03*
X009667Y031684D03*
X009667Y031685D03*
X009666Y031687D03*
D422*
X009664Y031691D03*
X008523Y031496D03*
D423*
X009673Y031496D03*
D424*
X008522Y031498D03*
X008522Y031499D03*
X008522Y031501D03*
X008522Y031502D03*
X008524Y031672D03*
X008524Y031673D03*
X008524Y031675D03*
X008524Y031678D03*
D425*
X008519Y031511D03*
X009670Y031676D03*
D426*
X009676Y031511D03*
X008543Y031706D03*
D427*
X009677Y031522D03*
X009677Y031520D03*
D428*
X008517Y031526D03*
X008518Y031646D03*
D429*
X009676Y031646D03*
X009678Y031526D03*
D430*
X009679Y031532D03*
X009679Y031534D03*
X009679Y031535D03*
X009679Y031537D03*
X009679Y031538D03*
X009677Y031637D03*
X009677Y031639D03*
X009677Y031640D03*
X009677Y031642D03*
X009677Y031643D03*
X009676Y031651D03*
D431*
X009678Y031636D03*
X009678Y031634D03*
X009678Y031633D03*
X009678Y031630D03*
X009678Y031628D03*
X009679Y031549D03*
X009679Y031547D03*
X009679Y031546D03*
X009679Y031544D03*
X009679Y031543D03*
X009679Y031540D03*
X009636Y031730D03*
D432*
X008516Y031541D03*
D433*
X009679Y031541D03*
X009678Y031631D03*
D434*
X008545Y031708D03*
X008517Y031633D03*
X008517Y031630D03*
X008517Y031628D03*
X008517Y031627D03*
X008515Y031621D03*
X008515Y031619D03*
X008515Y031618D03*
X008515Y031615D03*
X008515Y031613D03*
X008515Y031612D03*
X008515Y031610D03*
X008515Y031558D03*
X008515Y031555D03*
X008515Y031553D03*
X008515Y031552D03*
X008515Y031550D03*
X008515Y031549D03*
D435*
X009680Y031550D03*
X009680Y031552D03*
X009680Y031553D03*
X009680Y031555D03*
X009680Y031558D03*
X009680Y031609D03*
X009680Y031610D03*
X009680Y031612D03*
X009679Y031618D03*
X009679Y031619D03*
X009679Y031621D03*
X009679Y031622D03*
X009679Y031624D03*
X009679Y031625D03*
X009679Y031627D03*
D436*
X008517Y031631D03*
X008515Y031616D03*
X008515Y031556D03*
D437*
X009680Y031556D03*
D438*
X008515Y031559D03*
X008515Y031561D03*
X008515Y031562D03*
X008515Y031564D03*
X008515Y031565D03*
X008515Y031567D03*
X008513Y031568D03*
X008513Y031570D03*
X008513Y031573D03*
X008513Y031574D03*
X008513Y031576D03*
X008513Y031577D03*
X008515Y031600D03*
X008515Y031603D03*
X008515Y031604D03*
X008515Y031606D03*
X008515Y031607D03*
X008515Y031609D03*
D439*
X008512Y031582D03*
X008512Y031580D03*
X008512Y031579D03*
X009679Y031613D03*
X009679Y031615D03*
X009681Y031607D03*
X009681Y031606D03*
X009681Y031604D03*
X009681Y031603D03*
X009681Y031600D03*
X009681Y031598D03*
X009681Y031568D03*
X009681Y031567D03*
X009681Y031565D03*
X009681Y031564D03*
X009681Y031562D03*
X009681Y031561D03*
X009681Y031559D03*
D440*
X009682Y031570D03*
X009682Y031573D03*
X009682Y031574D03*
X009682Y031576D03*
X009682Y031577D03*
X009682Y031579D03*
X009682Y031580D03*
X009682Y031582D03*
X009682Y031583D03*
X009682Y031585D03*
X009682Y031588D03*
X009682Y031589D03*
X009682Y031591D03*
X009682Y031592D03*
X009682Y031594D03*
X009682Y031595D03*
X009682Y031597D03*
X008549Y031709D03*
X008513Y031589D03*
X008513Y031588D03*
X008513Y031585D03*
X008513Y031583D03*
D441*
X008513Y031571D03*
X008515Y031601D03*
D442*
X008513Y031586D03*
X009682Y031586D03*
X009682Y031571D03*
D443*
X008514Y031591D03*
X008514Y031592D03*
X008514Y031594D03*
X008514Y031595D03*
X008514Y031597D03*
X008514Y031598D03*
D444*
X009673Y031661D03*
D445*
X008523Y031664D03*
X008523Y031666D03*
X008523Y031667D03*
X008523Y031669D03*
X008523Y031670D03*
D446*
X008524Y031676D03*
D447*
X008530Y031691D03*
D448*
X009649Y031723D03*
X009660Y031705D03*
D449*
X009660Y031706D03*
X009651Y031721D03*
D450*
X009653Y031720D03*
X009658Y031711D03*
X009659Y031708D03*
D451*
X009658Y031709D03*
X009657Y031712D03*
X009657Y031714D03*
D452*
X009096Y032179D03*
X008554Y031711D03*
D453*
X008562Y031712D03*
X009096Y032182D03*
D454*
X009096Y032185D03*
X009607Y031739D03*
X008569Y031714D03*
D455*
X008574Y031715D03*
D456*
X009655Y031718D03*
X009656Y031715D03*
D457*
X008578Y031717D03*
D458*
X009655Y031717D03*
D459*
X008581Y031718D03*
D460*
X008584Y031720D03*
D461*
X008591Y031721D03*
D462*
X008606Y031724D03*
D463*
X008611Y031726D03*
D464*
X009630Y031732D03*
D465*
X008638Y031733D03*
D466*
X009617Y031735D03*
D467*
X008647Y031736D03*
D468*
X009614Y031736D03*
D469*
X009595Y031742D03*
D470*
X009578Y031748D03*
X009442Y031831D03*
X008752Y031831D03*
D471*
X009574Y031750D03*
D472*
X009568Y031751D03*
D473*
X009556Y031754D03*
X009466Y031817D03*
D474*
X008681Y031766D03*
D475*
X008688Y031775D03*
D476*
X008705Y031796D03*
D477*
X009475Y031810D03*
D478*
X008720Y031811D03*
D479*
X009474Y031811D03*
D480*
X008725Y031814D03*
D481*
X008733Y031820D03*
D482*
X008736Y031822D03*
D483*
X008740Y031823D03*
D484*
X009452Y031823D03*
D485*
X008743Y031825D03*
D486*
X009450Y031825D03*
D487*
X008744Y031826D03*
D488*
X009448Y031826D03*
D489*
X009096Y032200D03*
X008746Y031828D03*
D490*
X009446Y031828D03*
D491*
X008748Y031829D03*
D492*
X009445Y031829D03*
D493*
X009433Y031832D03*
X008761Y031832D03*
D494*
X008767Y031834D03*
D495*
X009422Y031834D03*
D496*
X008773Y031835D03*
D497*
X009097Y031837D03*
D498*
X009096Y031838D03*
D499*
X009097Y031840D03*
X009094Y032020D03*
D500*
X009097Y031841D03*
D501*
X009096Y031843D03*
D502*
X009096Y031844D03*
X009093Y032017D03*
D503*
X009094Y032015D03*
X009095Y031846D03*
D504*
X009096Y031847D03*
X009093Y032014D03*
D505*
X009096Y031850D03*
X009096Y031849D03*
D506*
X009097Y031852D03*
X009094Y032011D03*
D507*
X009096Y031853D03*
D508*
X009097Y031855D03*
X009097Y031858D03*
D509*
X009097Y031856D03*
D510*
X009097Y031859D03*
X009097Y031861D03*
X009097Y031862D03*
D511*
X009097Y031864D03*
X009094Y032005D03*
D512*
X009096Y031865D03*
D513*
X009097Y031867D03*
D514*
X009097Y031868D03*
D515*
X009096Y031870D03*
X009093Y031999D03*
D516*
X009097Y031871D03*
D517*
X009097Y031873D03*
X009097Y031874D03*
X009094Y031996D03*
D518*
X009094Y031994D03*
X009097Y031879D03*
X009097Y031877D03*
X009097Y031876D03*
D519*
X009096Y031880D03*
X009093Y031993D03*
D520*
X009097Y031882D03*
D521*
X009096Y031883D03*
D522*
X009097Y031885D03*
D523*
X009096Y031886D03*
D524*
X009096Y031888D03*
X009096Y031889D03*
D525*
X009096Y031891D03*
D526*
X009097Y031892D03*
D527*
X009096Y031894D03*
D528*
X009097Y031895D03*
X009097Y031897D03*
D529*
X009097Y031898D03*
X009097Y031900D03*
D530*
X009096Y031901D03*
D531*
X009097Y031903D03*
D532*
X009096Y031904D03*
X009093Y031978D03*
D533*
X009093Y031975D03*
X009096Y031906D03*
D534*
X009095Y031907D03*
X009092Y031973D03*
D535*
X009093Y031972D03*
X009096Y031909D03*
D536*
X009096Y031910D03*
X009093Y031969D03*
D537*
X009097Y031912D03*
D538*
X009096Y031913D03*
X009093Y031967D03*
D539*
X009097Y031915D03*
D540*
X009097Y031916D03*
D541*
X009097Y031918D03*
X009097Y031919D03*
D542*
X009097Y031921D03*
X009092Y031963D03*
D543*
X009096Y031922D03*
D544*
X009096Y031924D03*
D545*
X009096Y031925D03*
D546*
X009097Y031927D03*
X009092Y031955D03*
D547*
X009093Y031954D03*
X009096Y031928D03*
D548*
X009097Y031930D03*
D549*
X009097Y031931D03*
D550*
X009097Y031933D03*
D551*
X009096Y031934D03*
X009096Y031936D03*
D552*
X009096Y031937D03*
X009096Y031939D03*
X009093Y031949D03*
D553*
X009092Y031948D03*
X009094Y031943D03*
X009094Y031942D03*
X009095Y031940D03*
D554*
X009093Y031945D03*
D555*
X009093Y031946D03*
D556*
X009092Y031951D03*
D557*
X009093Y031952D03*
D558*
X009092Y031957D03*
X009092Y031958D03*
D559*
X009092Y031960D03*
D560*
X009092Y031961D03*
D561*
X009092Y031964D03*
D562*
X009093Y031966D03*
D563*
X009092Y031970D03*
D564*
X009093Y031976D03*
D565*
X009093Y031979D03*
D566*
X009093Y031981D03*
D567*
X009093Y031982D03*
D568*
X009093Y031984D03*
D569*
X009092Y031985D03*
D570*
X009093Y031987D03*
D571*
X009092Y031988D03*
D572*
X009093Y031990D03*
D573*
X009093Y031991D03*
D574*
X009094Y031997D03*
D575*
X009094Y032000D03*
D576*
X009093Y032002D03*
D577*
X009093Y032003D03*
D578*
X009094Y032006D03*
D579*
X009094Y032008D03*
D580*
X009094Y032009D03*
D581*
X009094Y032012D03*
D582*
X009094Y032018D03*
D583*
X009094Y032021D03*
D584*
X009094Y032023D03*
D585*
X009094Y032024D03*
D586*
X009094Y032026D03*
D587*
X009094Y032027D03*
D588*
X009093Y032029D03*
D589*
X009094Y032030D03*
D590*
X009094Y032032D03*
D591*
X009094Y032033D03*
D592*
X009094Y032035D03*
D593*
X009095Y032036D03*
D594*
X009094Y032038D03*
D595*
X009094Y032039D03*
D596*
X009094Y032041D03*
D597*
X009094Y032042D03*
D598*
X009094Y032044D03*
D599*
X009094Y032045D03*
D600*
X009094Y032047D03*
D601*
X009094Y032048D03*
D602*
X009095Y032050D03*
D603*
X009095Y032051D03*
D604*
X009094Y032053D03*
D605*
X009094Y032054D03*
D606*
X009094Y032056D03*
D607*
X009094Y032057D03*
X009094Y032059D03*
D608*
X009094Y032060D03*
D609*
X009095Y032062D03*
D610*
X009095Y032063D03*
X009095Y032065D03*
D611*
X009095Y032066D03*
D612*
X009095Y032068D03*
D613*
X009094Y032069D03*
D614*
X009094Y032071D03*
X009094Y032072D03*
D615*
X009094Y032074D03*
D616*
X009094Y032075D03*
D617*
X009095Y032077D03*
D618*
X009095Y032078D03*
X009095Y032080D03*
D619*
X009095Y032081D03*
D620*
X009095Y032083D03*
D621*
X009094Y032084D03*
D622*
X009094Y032086D03*
X009094Y032087D03*
D623*
X009094Y032089D03*
D624*
X009095Y032090D03*
D625*
X009095Y032092D03*
D626*
X009096Y032093D03*
D627*
X009096Y032095D03*
D628*
X009095Y032096D03*
D629*
X009095Y032098D03*
D630*
X009094Y032099D03*
D631*
X009095Y032101D03*
D632*
X009095Y032102D03*
D633*
X009095Y032104D03*
D634*
X009096Y032105D03*
D635*
X009096Y032107D03*
X009096Y032108D03*
D636*
X009096Y032110D03*
D637*
X009095Y032111D03*
D638*
X009095Y032113D03*
D639*
X009095Y032114D03*
D640*
X009096Y032116D03*
D641*
X009096Y032117D03*
X009097Y032165D03*
D642*
X009097Y032119D03*
D643*
X009096Y032120D03*
X009097Y032164D03*
D644*
X009096Y032123D03*
X009096Y032122D03*
D645*
X009096Y032125D03*
D646*
X009095Y032126D03*
D647*
X009095Y032128D03*
D648*
X009096Y032129D03*
D649*
X009095Y032131D03*
X009097Y032155D03*
D650*
X009096Y032132D03*
D651*
X009096Y032134D03*
X009097Y032152D03*
D652*
X009097Y032150D03*
X009097Y032149D03*
X009097Y032140D03*
X009097Y032138D03*
X009097Y032137D03*
X009097Y032135D03*
D653*
X009097Y032141D03*
D654*
X009097Y032143D03*
X009097Y032144D03*
X009097Y032146D03*
X009097Y032147D03*
D655*
X009097Y032153D03*
D656*
X009097Y032156D03*
D657*
X009097Y032158D03*
D658*
X009097Y032159D03*
D659*
X009097Y032161D03*
D660*
X009097Y032162D03*
D661*
X009097Y032167D03*
D662*
X009097Y032168D03*
D663*
X009615Y032179D03*
X008571Y032170D03*
D664*
X009274Y032170D03*
D665*
X008570Y032171D03*
D666*
X009274Y032171D03*
D667*
X008569Y032173D03*
D668*
X009276Y032173D03*
D669*
X009613Y032174D03*
D670*
X009095Y032176D03*
D671*
X009615Y032176D03*
D672*
X009617Y032188D03*
X009095Y032248D03*
X008569Y032177D03*
D673*
X009615Y032177D03*
D674*
X008569Y032180D03*
D675*
X009095Y032180D03*
D676*
X009615Y032180D03*
D677*
X008568Y032182D03*
D678*
X009616Y032182D03*
D679*
X008567Y032183D03*
D680*
X009096Y032183D03*
D681*
X009616Y032183D03*
D682*
X009619Y032194D03*
X008567Y032185D03*
D683*
X008566Y032186D03*
X009096Y032306D03*
D684*
X009096Y032186D03*
D685*
X009095Y032246D03*
X009617Y032186D03*
D686*
X009095Y032188D03*
D687*
X009095Y032327D03*
X009095Y032329D03*
X009095Y032330D03*
X009620Y032200D03*
X008566Y032191D03*
D688*
X009096Y032191D03*
D689*
X009094Y032263D03*
X009094Y032264D03*
X009094Y032266D03*
X009094Y032267D03*
X009094Y032269D03*
X009618Y032191D03*
D690*
X009096Y032339D03*
X009096Y032341D03*
X009096Y032342D03*
X008565Y032192D03*
D691*
X009096Y032192D03*
D692*
X009618Y032192D03*
D693*
X009097Y032369D03*
X009097Y032371D03*
X009097Y032372D03*
X008564Y032195D03*
D694*
X009096Y032195D03*
D695*
X009095Y032315D03*
X009095Y032317D03*
X009095Y032318D03*
X009620Y032197D03*
D696*
X009622Y032206D03*
X009096Y032380D03*
X008563Y032198D03*
D697*
X008563Y032201D03*
X009097Y032396D03*
D698*
X009096Y032201D03*
D699*
X009621Y032201D03*
D700*
X008563Y032204D03*
D701*
X008562Y032207D03*
X009097Y032440D03*
X009097Y032443D03*
D702*
X009097Y032446D03*
X009097Y032447D03*
X009097Y032449D03*
X008562Y032209D03*
D703*
X009623Y032209D03*
D704*
X009098Y032459D03*
X008561Y032210D03*
D705*
X009097Y032395D03*
X009097Y032398D03*
X009097Y032399D03*
X009623Y032210D03*
D706*
X009097Y032473D03*
X008560Y032212D03*
D707*
X009097Y032416D03*
X009097Y032417D03*
X009097Y032419D03*
X009097Y032420D03*
X009097Y032422D03*
X009624Y032212D03*
D708*
X008560Y032213D03*
D709*
X008560Y032215D03*
X009098Y032479D03*
D710*
X008560Y032216D03*
D711*
X009625Y032216D03*
D712*
X009628Y032225D03*
X008560Y032218D03*
D713*
X008559Y032219D03*
X009097Y032482D03*
D714*
X009097Y032470D03*
X009097Y032468D03*
X009097Y032467D03*
X009097Y032465D03*
X009097Y032464D03*
X009097Y032462D03*
X009097Y032461D03*
X009625Y032219D03*
D715*
X009628Y032228D03*
X009098Y032483D03*
X008558Y032221D03*
D716*
X009098Y032474D03*
X009098Y032476D03*
X009626Y032221D03*
D717*
X009097Y032222D03*
D718*
X008558Y032224D03*
D719*
X009097Y032224D03*
D720*
X009098Y032480D03*
X009628Y032224D03*
D721*
X008557Y032225D03*
D722*
X009096Y032225D03*
D723*
X009097Y032227D03*
D724*
X009628Y032227D03*
D725*
X009100Y032488D03*
X008557Y032228D03*
D726*
X009097Y032228D03*
D727*
X009097Y032230D03*
D728*
X009628Y032230D03*
D729*
X008557Y032231D03*
D730*
X009096Y032231D03*
D731*
X009629Y032231D03*
D732*
X009097Y032233D03*
D733*
X009630Y032233D03*
D734*
X009097Y032234D03*
D735*
X009097Y032236D03*
D736*
X008555Y032237D03*
D737*
X009097Y032237D03*
D738*
X009630Y032237D03*
D739*
X009632Y032245D03*
X008555Y032239D03*
D740*
X009097Y032239D03*
D741*
X008554Y032240D03*
D742*
X009097Y032240D03*
D743*
X008554Y032243D03*
D744*
X009096Y032243D03*
D745*
X009631Y032243D03*
D746*
X008554Y032245D03*
D747*
X008554Y032246D03*
D748*
X008554Y032248D03*
D749*
X008554Y032249D03*
X009634Y032255D03*
D750*
X009632Y032249D03*
D751*
X009634Y032257D03*
X008554Y032251D03*
D752*
X009095Y032252D03*
X009095Y032251D03*
X009095Y032254D03*
D753*
X009632Y032251D03*
D754*
X009633Y032252D03*
D755*
X008553Y032254D03*
D756*
X009633Y032254D03*
D757*
X008552Y032255D03*
D758*
X008553Y032257D03*
X009634Y032263D03*
D759*
X008553Y032258D03*
D760*
X008553Y032260D03*
D761*
X008552Y032261D03*
D762*
X009094Y032261D03*
D763*
X009634Y032261D03*
D764*
X008551Y032264D03*
D765*
X009635Y032267D03*
D766*
X008551Y032269D03*
D767*
X009635Y032269D03*
D768*
X009095Y032270D03*
D769*
X008550Y032273D03*
D770*
X009095Y032275D03*
X009095Y032278D03*
D771*
X008550Y032276D03*
D772*
X009095Y032276D03*
D773*
X009637Y032276D03*
D774*
X008550Y032281D03*
D775*
X009637Y032282D03*
D776*
X008549Y032284D03*
D777*
X009638Y032284D03*
D778*
X008549Y032290D03*
D779*
X008548Y032291D03*
D780*
X009096Y032291D03*
D781*
X009638Y032291D03*
D782*
X009639Y032293D03*
D783*
X008548Y032294D03*
D784*
X009639Y032294D03*
D785*
X009640Y032302D03*
X008548Y032296D03*
D786*
X009639Y032296D03*
D787*
X008548Y032297D03*
D788*
X009639Y032297D03*
D789*
X009096Y032300D03*
X009096Y032302D03*
X009096Y032303D03*
X009096Y032305D03*
X009096Y032308D03*
D790*
X009640Y032300D03*
D791*
X009640Y032308D03*
X008547Y032302D03*
D792*
X009640Y032303D03*
D793*
X009640Y032306D03*
D794*
X009095Y032309D03*
D795*
X009641Y032309D03*
D796*
X009643Y032311D03*
D797*
X009095Y032321D03*
D798*
X009096Y032332D03*
X009096Y032333D03*
X009096Y032335D03*
D799*
X009097Y032336D03*
D800*
X009097Y032338D03*
D801*
X009097Y032344D03*
X009097Y032345D03*
X009097Y032347D03*
X009097Y032348D03*
X009097Y032350D03*
X009097Y032353D03*
X009097Y032354D03*
D802*
X009097Y032351D03*
D803*
X009096Y032368D03*
D804*
X009096Y032381D03*
D805*
X009096Y032386D03*
D806*
X009097Y032387D03*
X009097Y032389D03*
X009097Y032390D03*
X009097Y032392D03*
D807*
X009097Y032426D03*
D808*
X009097Y032432D03*
D809*
X009098Y032438D03*
D810*
X009097Y032441D03*
D811*
X009097Y032456D03*
D812*
X009097Y032471D03*
D813*
X009099Y032486D03*
D814*
X009090Y032491D03*
D815*
X007741Y021106D02*
X007426Y020791D01*
X007846Y020791D01*
X007741Y020475D02*
X007741Y021106D01*
X007201Y021001D02*
X007096Y021106D01*
X006886Y021106D01*
X006781Y021001D01*
X006781Y020580D01*
X006886Y020475D01*
X007096Y020475D01*
X007201Y020580D01*
X022703Y026639D02*
X022808Y026534D01*
X023018Y026534D01*
X023123Y026639D01*
X023348Y026534D02*
X023768Y026954D01*
X023768Y027059D01*
X023663Y027164D01*
X023453Y027164D01*
X023348Y027059D01*
X023123Y027059D02*
X023018Y027164D01*
X022808Y027164D01*
X022703Y027059D01*
X022703Y026639D01*
X023348Y026534D02*
X023768Y026534D01*
D816*
X024038Y031029D02*
X024038Y031204D01*
X024096Y031262D01*
X024213Y031262D01*
X024271Y031204D01*
X024271Y031029D01*
X024271Y031145D02*
X024388Y031262D01*
X024388Y031388D02*
X024388Y031621D01*
X024388Y031504D02*
X024038Y031504D01*
X024154Y031388D01*
X024038Y031029D02*
X024388Y031029D01*
X026573Y032979D02*
X026573Y033329D01*
X026748Y033329D01*
X026807Y033271D01*
X026807Y033154D01*
X026748Y033095D01*
X026573Y033095D01*
X026690Y033095D02*
X026807Y032979D01*
X026932Y032979D02*
X027166Y033212D01*
X027166Y033271D01*
X027107Y033329D01*
X026990Y033329D01*
X026932Y033271D01*
X026932Y032979D02*
X027166Y032979D01*
X026375Y034079D02*
X026141Y034079D01*
X026258Y034079D02*
X026258Y034429D01*
X026141Y034312D01*
X026016Y034079D02*
X025782Y034079D01*
X025899Y034079D02*
X025899Y034429D01*
X025782Y034312D01*
X025657Y034254D02*
X025598Y034195D01*
X025423Y034195D01*
X025423Y034079D02*
X025423Y034429D01*
X025598Y034429D01*
X025657Y034371D01*
X025657Y034254D01*
X025540Y034195D02*
X025657Y034079D01*
X024316Y035237D02*
X024316Y035471D01*
X024257Y035529D01*
X024140Y035529D01*
X024082Y035471D01*
X024082Y035412D01*
X024140Y035354D01*
X024316Y035354D01*
X024316Y035237D02*
X024257Y035179D01*
X024140Y035179D01*
X024082Y035237D01*
X023957Y035179D02*
X023840Y035295D01*
X023898Y035295D02*
X023723Y035295D01*
X023723Y035179D02*
X023723Y035529D01*
X023898Y035529D01*
X023957Y035471D01*
X023957Y035354D01*
X023898Y035295D01*
X023936Y035719D02*
X024057Y035719D01*
X024117Y035779D01*
X024245Y035779D02*
X024305Y035719D01*
X024425Y035719D01*
X024485Y035779D01*
X024485Y035839D01*
X024425Y035899D01*
X024365Y035899D01*
X024425Y035899D02*
X024485Y035959D01*
X024485Y036019D01*
X024425Y036079D01*
X024305Y036079D01*
X024245Y036019D01*
X024117Y036019D02*
X024057Y036079D01*
X023936Y036079D01*
X023876Y036019D01*
X023876Y035779D01*
X023936Y035719D01*
X023441Y034854D02*
X023207Y034854D01*
X023082Y034796D02*
X023082Y034679D01*
X023023Y034620D01*
X022848Y034620D01*
X022848Y034504D02*
X022848Y034854D01*
X023023Y034854D01*
X023082Y034796D01*
X022965Y034620D02*
X023082Y034504D01*
X023207Y034504D02*
X023207Y034562D01*
X023441Y034796D01*
X023441Y034854D01*
X021813Y035304D02*
X021463Y035304D01*
X021463Y035479D01*
X021521Y035537D01*
X021638Y035537D01*
X021696Y035479D01*
X021696Y035304D01*
X021696Y035420D02*
X021813Y035537D01*
X021813Y035663D02*
X021813Y035896D01*
X021813Y035779D02*
X021463Y035779D01*
X021579Y035663D01*
X021521Y036022D02*
X021463Y036080D01*
X021463Y036197D01*
X021521Y036255D01*
X021755Y036022D01*
X021813Y036080D01*
X021813Y036197D01*
X021755Y036255D01*
X021521Y036255D01*
X021521Y036022D02*
X021755Y036022D01*
X021813Y037154D02*
X021463Y037154D01*
X021463Y037329D01*
X021521Y037387D01*
X021638Y037387D01*
X021696Y037329D01*
X021696Y037154D01*
X021696Y037270D02*
X021813Y037387D01*
X021755Y037513D02*
X021813Y037571D01*
X021813Y037688D01*
X021755Y037746D01*
X021696Y037746D01*
X021638Y037688D01*
X021638Y037513D01*
X021755Y037513D01*
X021638Y037513D02*
X021521Y037629D01*
X021463Y037746D01*
X022823Y038354D02*
X022823Y038704D01*
X022998Y038704D01*
X023057Y038646D01*
X023057Y038529D01*
X022998Y038470D01*
X022823Y038470D01*
X022940Y038470D02*
X023057Y038354D01*
X023182Y038529D02*
X023416Y038529D01*
X023563Y038629D02*
X023803Y038629D01*
X023803Y038569D01*
X023563Y038329D01*
X023563Y038269D01*
X023803Y038269D01*
X023931Y038269D02*
X024111Y038269D01*
X024171Y038329D01*
X024171Y038569D01*
X024111Y038629D01*
X023931Y038629D01*
X023931Y038269D01*
X024300Y038269D02*
X024540Y038269D01*
X024420Y038269D02*
X024420Y038629D01*
X024300Y038509D01*
X024648Y038470D02*
X024823Y038470D01*
X024882Y038529D01*
X024882Y038646D01*
X024823Y038704D01*
X024648Y038704D01*
X024648Y038354D01*
X024765Y038470D02*
X024882Y038354D01*
X025007Y038412D02*
X025065Y038354D01*
X025182Y038354D01*
X025241Y038412D01*
X025241Y038529D01*
X025182Y038587D01*
X025124Y038587D01*
X025007Y038529D01*
X025007Y038704D01*
X025241Y038704D01*
X023357Y038704D02*
X023182Y038529D01*
X023357Y038354D02*
X023357Y038704D01*
X016765Y034944D02*
X016705Y035004D01*
X016585Y035004D01*
X016525Y034944D01*
X016396Y034944D02*
X016336Y035004D01*
X016156Y035004D01*
X016156Y034644D01*
X016336Y034644D01*
X016396Y034704D01*
X016396Y034944D01*
X016525Y034644D02*
X016765Y034884D01*
X016765Y034944D01*
X016765Y034644D02*
X016525Y034644D01*
X016028Y034644D02*
X015788Y034644D01*
X015788Y034704D01*
X016028Y034944D01*
X016028Y035004D01*
X015788Y035004D01*
X015607Y036304D02*
X015490Y036304D01*
X015432Y036362D01*
X015432Y036420D01*
X015490Y036479D01*
X015607Y036479D01*
X015666Y036420D01*
X015666Y036362D01*
X015607Y036304D01*
X015607Y036479D02*
X015666Y036537D01*
X015666Y036596D01*
X015607Y036654D01*
X015490Y036654D01*
X015432Y036596D01*
X015432Y036537D01*
X015490Y036479D01*
X015307Y036479D02*
X015248Y036420D01*
X015073Y036420D01*
X015073Y036304D02*
X015073Y036654D01*
X015248Y036654D01*
X015307Y036596D01*
X015307Y036479D01*
X015190Y036420D02*
X015307Y036304D01*
X015332Y037154D02*
X015215Y037270D01*
X015273Y037270D02*
X015098Y037270D01*
X015098Y037154D02*
X015098Y037504D01*
X015273Y037504D01*
X015332Y037446D01*
X015332Y037329D01*
X015273Y037270D01*
X015457Y037212D02*
X015515Y037154D01*
X015632Y037154D01*
X015691Y037212D01*
X015691Y037270D01*
X015632Y037329D01*
X015574Y037329D01*
X015632Y037329D02*
X015691Y037387D01*
X015691Y037446D01*
X015632Y037504D01*
X015515Y037504D01*
X015457Y037446D01*
X014800Y039459D02*
X014560Y039459D01*
X014800Y039699D01*
X014800Y039759D01*
X014740Y039819D01*
X014620Y039819D01*
X014560Y039759D01*
X014432Y039759D02*
X014372Y039819D01*
X014192Y039819D01*
X014192Y039459D01*
X014372Y039459D01*
X014432Y039519D01*
X014432Y039759D01*
X014064Y039759D02*
X013824Y039519D01*
X013824Y039459D01*
X014064Y039459D01*
X014064Y039759D02*
X014064Y039819D01*
X013824Y039819D01*
X008866Y022329D02*
X008750Y022329D01*
X008691Y022271D01*
X008866Y022329D02*
X008925Y022271D01*
X008925Y022212D01*
X008691Y021979D01*
X008925Y021979D01*
X008566Y021979D02*
X008332Y021979D01*
X008449Y021979D02*
X008449Y022329D01*
X008332Y022212D01*
X008207Y022154D02*
X008207Y022271D01*
X008148Y022329D01*
X007973Y022329D01*
X007973Y021979D01*
X007973Y022095D02*
X008148Y022095D01*
X008207Y022154D01*
X008090Y022095D02*
X008207Y021979D01*
X011598Y015654D02*
X011538Y015594D01*
X011538Y015354D01*
X011598Y015294D01*
X011718Y015294D01*
X011778Y015354D01*
X011906Y015294D02*
X012146Y015294D01*
X012026Y015294D02*
X012026Y015654D01*
X011906Y015534D01*
X011778Y015594D02*
X011718Y015654D01*
X011598Y015654D01*
X012275Y015474D02*
X012455Y015474D01*
X012515Y015414D01*
X012515Y015354D01*
X012455Y015294D01*
X012335Y015294D01*
X012275Y015354D01*
X012275Y015474D01*
X012395Y015594D01*
X012515Y015654D01*
X012615Y012554D02*
X012375Y012554D01*
X012615Y012554D02*
X012615Y012494D01*
X012375Y012254D01*
X012375Y012194D01*
X012246Y012194D02*
X012006Y012194D01*
X012126Y012194D02*
X012126Y012554D01*
X012006Y012434D01*
X011878Y012494D02*
X011818Y012554D01*
X011698Y012554D01*
X011638Y012494D01*
X011638Y012254D01*
X011698Y012194D01*
X011818Y012194D01*
X011878Y012254D01*
X012413Y011379D02*
X012593Y011379D01*
X012653Y011319D01*
X012653Y011199D01*
X012593Y011139D01*
X012413Y011139D01*
X012533Y011139D02*
X012653Y011019D01*
X012781Y011019D02*
X013021Y011019D01*
X012901Y011019D02*
X012901Y011379D01*
X012781Y011259D01*
X013150Y011199D02*
X013390Y011199D01*
X013330Y011379D02*
X013150Y011199D01*
X013330Y011019D02*
X013330Y011379D01*
X013948Y010129D02*
X013888Y010069D01*
X013888Y009829D01*
X013948Y009769D01*
X014068Y009769D01*
X014128Y009829D01*
X014256Y009829D02*
X014316Y009769D01*
X014436Y009769D01*
X014496Y009829D01*
X014496Y010069D01*
X014436Y010129D01*
X014316Y010129D01*
X014256Y010069D01*
X014256Y010009D01*
X014316Y009949D01*
X014496Y009949D01*
X014128Y010069D02*
X014068Y010129D01*
X013948Y010129D01*
X015013Y010019D02*
X015013Y009779D01*
X015073Y009719D01*
X015193Y009719D01*
X015253Y009779D01*
X015381Y009719D02*
X015621Y009719D01*
X015501Y009719D02*
X015501Y010079D01*
X015381Y009959D01*
X015253Y010019D02*
X015193Y010079D01*
X015073Y010079D01*
X015013Y010019D01*
X015750Y010079D02*
X015750Y009899D01*
X015870Y009959D01*
X015930Y009959D01*
X015990Y009899D01*
X015990Y009779D01*
X015930Y009719D01*
X015810Y009719D01*
X015750Y009779D01*
X015750Y010079D02*
X015990Y010079D01*
X017313Y009769D02*
X017313Y009529D01*
X017373Y009469D01*
X017493Y009469D01*
X017553Y009529D01*
X017681Y009529D02*
X017681Y009589D01*
X017741Y009649D01*
X017861Y009649D01*
X017921Y009589D01*
X017921Y009529D01*
X017861Y009469D01*
X017741Y009469D01*
X017681Y009529D01*
X017741Y009649D02*
X017681Y009709D01*
X017681Y009769D01*
X017741Y009829D01*
X017861Y009829D01*
X017921Y009769D01*
X017921Y009709D01*
X017861Y009649D01*
X017553Y009769D02*
X017493Y009829D01*
X017373Y009829D01*
X017313Y009769D01*
X019563Y010654D02*
X019623Y010594D01*
X019743Y010594D01*
X019803Y010654D01*
X019931Y010594D02*
X020171Y010594D01*
X020051Y010594D02*
X020051Y010954D01*
X019931Y010834D01*
X019803Y010894D02*
X019743Y010954D01*
X019623Y010954D01*
X019563Y010894D01*
X019563Y010654D01*
X019883Y011534D02*
X019823Y011594D01*
X019823Y011834D01*
X019883Y011894D01*
X020003Y011894D01*
X020063Y011834D01*
X020191Y011714D02*
X020371Y011714D01*
X020431Y011654D01*
X020431Y011594D01*
X020371Y011534D01*
X020251Y011534D01*
X020191Y011594D01*
X020191Y011714D01*
X020311Y011834D01*
X020431Y011894D01*
X020063Y011594D02*
X020003Y011534D01*
X019883Y011534D01*
X020360Y010954D02*
X020480Y010954D01*
X020540Y010894D01*
X020300Y010654D01*
X020360Y010594D01*
X020480Y010594D01*
X020540Y010654D01*
X020540Y010894D01*
X020360Y010954D02*
X020300Y010894D01*
X020300Y010654D01*
X021788Y009754D02*
X021908Y009754D01*
X021848Y009754D02*
X021848Y009394D01*
X021788Y009394D02*
X021908Y009394D01*
X022034Y009454D02*
X022094Y009394D01*
X022214Y009394D01*
X022274Y009454D01*
X022402Y009574D02*
X022642Y009574D01*
X022582Y009754D02*
X022402Y009574D01*
X022274Y009694D02*
X022214Y009754D01*
X022094Y009754D01*
X022034Y009694D01*
X022034Y009454D01*
X022582Y009394D02*
X022582Y009754D01*
X023488Y009164D02*
X023838Y009164D01*
X023838Y009280D02*
X023838Y009047D01*
X023838Y008921D02*
X023838Y008688D01*
X023604Y008921D01*
X023546Y008921D01*
X023488Y008863D01*
X023488Y008746D01*
X023546Y008688D01*
X023546Y008562D02*
X023663Y008562D01*
X023721Y008504D01*
X023721Y008329D01*
X023721Y008445D02*
X023838Y008562D01*
X023838Y008329D02*
X023488Y008329D01*
X023488Y008504D01*
X023546Y008562D01*
X023432Y008154D02*
X023315Y008154D01*
X023257Y008096D01*
X023132Y008096D02*
X023132Y007979D01*
X023073Y007920D01*
X022898Y007920D01*
X022898Y007804D02*
X022898Y008154D01*
X023073Y008154D01*
X023132Y008096D01*
X023015Y007920D02*
X023132Y007804D01*
X023257Y007804D02*
X023491Y008037D01*
X023491Y008096D01*
X023432Y008154D01*
X023616Y007979D02*
X023791Y007979D01*
X023850Y007920D01*
X023850Y007862D01*
X023791Y007804D01*
X023675Y007804D01*
X023616Y007862D01*
X023616Y007979D01*
X023733Y008096D01*
X023850Y008154D01*
X023491Y007804D02*
X023257Y007804D01*
X023604Y009047D02*
X023488Y009164D01*
X024588Y010069D02*
X024948Y010069D01*
X024948Y010309D01*
X025038Y010304D02*
X025038Y010479D01*
X025096Y010537D01*
X025213Y010537D01*
X025271Y010479D01*
X025271Y010304D01*
X025271Y010420D02*
X025388Y010537D01*
X025388Y010663D02*
X025154Y010896D01*
X025096Y010896D01*
X025038Y010838D01*
X025038Y010721D01*
X025096Y010663D01*
X024948Y010677D02*
X024948Y010437D01*
X024588Y010437D01*
X024588Y010677D01*
X024588Y010805D02*
X024588Y010985D01*
X024648Y011045D01*
X024888Y011045D01*
X024948Y010985D01*
X024948Y010805D01*
X024588Y010805D01*
X024768Y010557D02*
X024768Y010437D01*
X025038Y010304D02*
X025388Y010304D01*
X025388Y010663D02*
X025388Y010896D01*
X025330Y011022D02*
X025096Y011255D01*
X025330Y011255D01*
X025388Y011197D01*
X025388Y011080D01*
X025330Y011022D01*
X025096Y011022D01*
X025038Y011080D01*
X025038Y011197D01*
X025096Y011255D01*
X026223Y010120D02*
X026283Y010120D01*
X026343Y010060D01*
X026403Y010120D01*
X026463Y010120D01*
X026523Y010060D01*
X026523Y009940D01*
X026463Y009880D01*
X026523Y009752D02*
X026523Y009512D01*
X026283Y009752D01*
X026223Y009752D01*
X026163Y009692D01*
X026163Y009572D01*
X026223Y009512D01*
X026223Y009384D02*
X026163Y009324D01*
X026163Y009204D01*
X026223Y009144D01*
X026463Y009144D01*
X026523Y009204D01*
X026523Y009324D01*
X026463Y009384D01*
X026223Y009880D02*
X026163Y009940D01*
X026163Y010060D01*
X026223Y010120D01*
X026343Y010060D02*
X026343Y010000D01*
X028523Y009929D02*
X028698Y009929D01*
X028757Y009871D01*
X028757Y009754D01*
X028698Y009695D01*
X028523Y009695D01*
X028523Y009579D02*
X028523Y009929D01*
X028640Y009695D02*
X028757Y009579D01*
X028882Y009579D02*
X029116Y009812D01*
X029116Y009871D01*
X029057Y009929D01*
X028940Y009929D01*
X028882Y009871D01*
X028882Y009579D02*
X029116Y009579D01*
X029241Y009637D02*
X029241Y009695D01*
X029300Y009754D01*
X029416Y009754D01*
X029475Y009695D01*
X029475Y009637D01*
X029416Y009579D01*
X029300Y009579D01*
X029241Y009637D01*
X029300Y009754D02*
X029241Y009812D01*
X029241Y009871D01*
X029300Y009929D01*
X029416Y009929D01*
X029475Y009871D01*
X029475Y009812D01*
X029416Y009754D01*
X029471Y009304D02*
X029231Y009304D01*
X029231Y009124D01*
X029351Y009184D01*
X029411Y009184D01*
X029471Y009124D01*
X029471Y009004D01*
X029411Y008944D01*
X029291Y008944D01*
X029231Y009004D01*
X029103Y008944D02*
X028863Y009304D01*
X029103Y009304D02*
X028863Y008944D01*
X028857Y010654D02*
X029091Y010654D01*
X028974Y010654D02*
X028974Y011004D01*
X028857Y010887D01*
X028732Y010829D02*
X028673Y010770D01*
X028498Y010770D01*
X028498Y010654D02*
X028498Y011004D01*
X028673Y011004D01*
X028732Y010946D01*
X028732Y010829D01*
X028615Y010770D02*
X028732Y010654D01*
X029216Y010654D02*
X029216Y010712D01*
X029450Y010946D01*
X029450Y011004D01*
X029216Y011004D01*
X027331Y013369D02*
X027383Y013420D01*
X027383Y013524D01*
X027331Y013575D01*
X027383Y013691D02*
X027383Y013898D01*
X027383Y013794D02*
X027073Y013794D01*
X027176Y013691D01*
X027124Y013575D02*
X027073Y013524D01*
X027073Y013420D01*
X027124Y013369D01*
X027331Y013369D01*
X027228Y014013D02*
X027228Y014220D01*
X027383Y014168D02*
X027073Y014168D01*
X027228Y014013D01*
X025402Y013911D02*
X025402Y013852D01*
X025344Y013794D01*
X025227Y013794D01*
X025169Y013852D01*
X025169Y013911D01*
X025227Y013969D01*
X025344Y013969D01*
X025402Y013911D01*
X025344Y013794D02*
X025402Y013735D01*
X025402Y013677D01*
X025344Y013619D01*
X025227Y013619D01*
X025169Y013677D01*
X025169Y013735D01*
X025227Y013794D01*
X025043Y013619D02*
X024810Y013619D01*
X024927Y013619D02*
X024927Y013969D01*
X024810Y013852D01*
X024684Y013794D02*
X024626Y013735D01*
X024451Y013735D01*
X024451Y013619D02*
X024451Y013969D01*
X024626Y013969D01*
X024684Y013911D01*
X024684Y013794D01*
X024567Y013735D02*
X024684Y013619D01*
X024709Y014419D02*
X024592Y014535D01*
X024651Y014535D02*
X024476Y014535D01*
X024476Y014419D02*
X024476Y014769D01*
X024651Y014769D01*
X024709Y014711D01*
X024709Y014594D01*
X024651Y014535D01*
X024835Y014419D02*
X025068Y014419D01*
X024952Y014419D02*
X024952Y014769D01*
X024835Y014652D01*
X025194Y014594D02*
X025369Y014594D01*
X025427Y014535D01*
X025427Y014477D01*
X025369Y014419D01*
X025252Y014419D01*
X025194Y014477D01*
X025194Y014594D01*
X025311Y014711D01*
X025427Y014769D01*
X023780Y017344D02*
X023660Y017344D01*
X023600Y017404D01*
X023471Y017344D02*
X023231Y017344D01*
X023351Y017344D02*
X023351Y017704D01*
X023231Y017584D01*
X023103Y017644D02*
X023043Y017704D01*
X022923Y017704D01*
X022863Y017644D01*
X022863Y017404D01*
X022923Y017344D01*
X023043Y017344D01*
X023103Y017404D01*
X023209Y017819D02*
X023092Y017935D01*
X023151Y017935D02*
X022976Y017935D01*
X022976Y017819D02*
X022976Y018169D01*
X023151Y018169D01*
X023209Y018111D01*
X023209Y017994D01*
X023151Y017935D01*
X023335Y017819D02*
X023568Y017819D01*
X023452Y017819D02*
X023452Y018169D01*
X023335Y018052D01*
X023694Y017994D02*
X023811Y018052D01*
X023869Y018052D01*
X023927Y017994D01*
X023927Y017877D01*
X023869Y017819D01*
X023752Y017819D01*
X023694Y017877D01*
X023694Y017994D02*
X023694Y018169D01*
X023927Y018169D01*
X023780Y017704D02*
X023660Y017704D01*
X023600Y017644D01*
X023720Y017524D02*
X023780Y017524D01*
X023840Y017464D01*
X023840Y017404D01*
X023780Y017344D01*
X023780Y017524D02*
X023840Y017584D01*
X023840Y017644D01*
X023780Y017704D01*
X022443Y017625D02*
X022443Y017565D01*
X022383Y017504D01*
X022443Y017444D01*
X022443Y017384D01*
X022383Y017324D01*
X022263Y017324D01*
X022203Y017384D01*
X022074Y017324D02*
X021834Y017324D01*
X021834Y017685D01*
X022203Y017625D02*
X022263Y017685D01*
X022383Y017685D01*
X022443Y017625D01*
X022383Y017504D02*
X022323Y017504D01*
X022523Y015179D02*
X022463Y015119D01*
X022463Y014879D01*
X022523Y014819D01*
X022643Y014819D01*
X022703Y014879D01*
X022831Y014879D02*
X022891Y014819D01*
X023011Y014819D01*
X023071Y014879D01*
X023071Y014999D01*
X023011Y015059D01*
X022951Y015059D01*
X022831Y014999D01*
X022831Y015179D01*
X023071Y015179D01*
X022703Y015119D02*
X022643Y015179D01*
X022523Y015179D01*
X021273Y015086D02*
X021213Y015146D01*
X021093Y015146D01*
X021033Y015086D01*
X021273Y015086D02*
X021273Y015026D01*
X021033Y014786D01*
X021273Y014786D01*
X020905Y014786D02*
X020665Y014786D01*
X020665Y015146D01*
X020430Y006929D02*
X020310Y006929D01*
X020250Y006869D01*
X020250Y006809D01*
X020310Y006749D01*
X020490Y006749D01*
X020490Y006869D02*
X020430Y006929D01*
X020490Y006869D02*
X020490Y006629D01*
X020430Y006569D01*
X020310Y006569D01*
X020250Y006629D01*
X020121Y006569D02*
X019881Y006569D01*
X020001Y006569D02*
X020001Y006929D01*
X019881Y006809D01*
X019753Y006869D02*
X019753Y006749D01*
X019693Y006689D01*
X019513Y006689D01*
X019633Y006689D02*
X019753Y006569D01*
X019513Y006569D02*
X019513Y006929D01*
X019693Y006929D01*
X019753Y006869D01*
X018070Y004729D02*
X018070Y004369D01*
X017950Y004369D02*
X018190Y004369D01*
X017950Y004609D02*
X018070Y004729D01*
X017701Y004729D02*
X017701Y004369D01*
X017581Y004369D02*
X017821Y004369D01*
X017581Y004609D02*
X017701Y004729D01*
X017453Y004669D02*
X017393Y004729D01*
X017273Y004729D01*
X017213Y004669D01*
X017213Y004429D01*
X017273Y004369D01*
X017393Y004369D01*
X017453Y004429D01*
X016925Y004534D02*
X016685Y004534D01*
X016865Y004714D01*
X016865Y004354D01*
X016556Y004354D02*
X016316Y004354D01*
X016556Y004594D01*
X016556Y004654D01*
X016496Y004714D01*
X016376Y004714D01*
X016316Y004654D01*
X016188Y004654D02*
X016188Y004534D01*
X016128Y004474D01*
X015948Y004474D01*
X016068Y004474D02*
X016188Y004354D01*
X015948Y004354D02*
X015948Y004714D01*
X016128Y004714D01*
X016188Y004654D01*
X015496Y005544D02*
X015548Y005595D01*
X015548Y005699D01*
X015496Y005750D01*
X015548Y005866D02*
X015548Y006073D01*
X015548Y005969D02*
X015238Y005969D01*
X015341Y005866D01*
X015289Y005750D02*
X015238Y005699D01*
X015238Y005595D01*
X015289Y005544D01*
X015496Y005544D01*
X014891Y004704D02*
X014775Y004704D01*
X014716Y004646D01*
X014591Y004646D02*
X014532Y004704D01*
X014415Y004704D01*
X014357Y004646D01*
X014232Y004646D02*
X014232Y004529D01*
X014173Y004470D01*
X013998Y004470D01*
X013998Y004354D02*
X013998Y004704D01*
X014173Y004704D01*
X014232Y004646D01*
X014115Y004470D02*
X014232Y004354D01*
X014357Y004354D02*
X014591Y004587D01*
X014591Y004646D01*
X014591Y004354D02*
X014357Y004354D01*
X014716Y004354D02*
X014950Y004587D01*
X014950Y004646D01*
X014891Y004704D01*
X014950Y004354D02*
X014716Y004354D01*
X013790Y004344D02*
X013550Y004344D01*
X013670Y004344D02*
X013670Y004704D01*
X013550Y004584D01*
X013421Y004584D02*
X013421Y004644D01*
X013361Y004704D01*
X013241Y004704D01*
X013181Y004644D01*
X013053Y004644D02*
X012993Y004704D01*
X012873Y004704D01*
X012813Y004644D01*
X012813Y004404D01*
X012873Y004344D01*
X012993Y004344D01*
X013053Y004404D01*
X013181Y004344D02*
X013421Y004584D01*
X013421Y004344D02*
X013181Y004344D01*
X013448Y006404D02*
X013448Y006764D01*
X013628Y006764D01*
X013688Y006704D01*
X013688Y006584D01*
X013628Y006524D01*
X013448Y006524D01*
X013568Y006524D02*
X013688Y006404D01*
X013816Y006404D02*
X014056Y006644D01*
X014056Y006704D01*
X013996Y006764D01*
X013876Y006764D01*
X013816Y006704D01*
X013816Y006404D02*
X014056Y006404D01*
X014185Y006404D02*
X014185Y006464D01*
X014425Y006704D01*
X014425Y006764D01*
X014185Y006764D01*
X015238Y006343D02*
X015289Y006395D01*
X015341Y006395D01*
X015393Y006343D01*
X015393Y006240D01*
X015341Y006188D01*
X015289Y006188D01*
X015238Y006240D01*
X015238Y006343D01*
X015393Y006343D02*
X015445Y006395D01*
X015496Y006395D01*
X015548Y006343D01*
X015548Y006240D01*
X015496Y006188D01*
X015445Y006188D01*
X015393Y006240D01*
X012413Y011019D02*
X012413Y011379D01*
X011450Y009779D02*
X011510Y009719D01*
X011510Y009659D01*
X011450Y009599D01*
X011510Y009539D01*
X011510Y009479D01*
X011450Y009419D01*
X011330Y009419D01*
X011270Y009479D01*
X011142Y009419D02*
X010901Y009419D01*
X011021Y009419D02*
X011021Y009779D01*
X010901Y009659D01*
X010773Y009719D02*
X010773Y009599D01*
X010713Y009539D01*
X010533Y009539D01*
X010653Y009539D02*
X010773Y009419D01*
X010533Y009419D02*
X010533Y009779D01*
X010713Y009779D01*
X010773Y009719D01*
X011270Y009719D02*
X011330Y009779D01*
X011450Y009779D01*
X011450Y009599D02*
X011390Y009599D01*
X011250Y006119D02*
X011010Y006119D01*
X011010Y005939D01*
X011130Y005999D01*
X011190Y005999D01*
X011250Y005939D01*
X011250Y005819D01*
X011190Y005759D01*
X011070Y005759D01*
X011010Y005819D01*
X010882Y005759D02*
X010641Y005759D01*
X010882Y005999D01*
X010882Y006059D01*
X010822Y006119D01*
X010701Y006119D01*
X010641Y006059D01*
X010513Y006059D02*
X010513Y005939D01*
X010453Y005879D01*
X010273Y005879D01*
X010393Y005879D02*
X010513Y005759D01*
X010273Y005759D02*
X010273Y006119D01*
X010453Y006119D01*
X010513Y006059D01*
X010463Y005354D02*
X010343Y005354D01*
X010283Y005294D01*
X010283Y005054D01*
X010343Y004994D01*
X010463Y004994D01*
X010523Y005054D01*
X010651Y004994D02*
X010892Y005234D01*
X010892Y005294D01*
X010832Y005354D01*
X010711Y005354D01*
X010651Y005294D01*
X010523Y005294D02*
X010463Y005354D01*
X010651Y004994D02*
X010892Y004994D01*
X011020Y004994D02*
X011260Y005234D01*
X011260Y005294D01*
X011200Y005354D01*
X011080Y005354D01*
X011020Y005294D01*
X011020Y004994D02*
X011260Y004994D01*
X009611Y006019D02*
X009611Y006379D01*
X009431Y006199D01*
X009671Y006199D01*
X009303Y006379D02*
X009063Y006019D01*
X009303Y006019D02*
X009063Y006379D01*
X006763Y009264D02*
X006823Y009324D01*
X006823Y009444D01*
X006763Y009504D01*
X006823Y009632D02*
X006583Y009872D01*
X006523Y009872D01*
X006463Y009812D01*
X006463Y009692D01*
X006523Y009632D01*
X006523Y009504D02*
X006463Y009444D01*
X006463Y009324D01*
X006523Y009264D01*
X006763Y009264D01*
X006823Y009632D02*
X006823Y009872D01*
X006763Y010000D02*
X006823Y010060D01*
X006823Y010180D01*
X006763Y010241D01*
X006643Y010241D01*
X006583Y010180D01*
X006583Y010120D01*
X006643Y010000D01*
X006463Y010000D01*
X006463Y010241D01*
X006498Y011064D02*
X006738Y011064D01*
X006798Y011124D01*
X006798Y011244D01*
X006738Y011304D01*
X006798Y011432D02*
X006558Y011672D01*
X006498Y011672D01*
X006438Y011612D01*
X006438Y011492D01*
X006498Y011432D01*
X006498Y011304D02*
X006438Y011244D01*
X006438Y011124D01*
X006498Y011064D01*
X006798Y011432D02*
X006798Y011672D01*
X006618Y011800D02*
X006618Y012041D01*
X006798Y011980D02*
X006438Y011980D01*
X006618Y011800D01*
X006738Y015044D02*
X006978Y015404D01*
X007106Y015344D02*
X007166Y015404D01*
X007286Y015404D01*
X007346Y015344D01*
X007346Y015284D01*
X007286Y015224D01*
X007346Y015164D01*
X007346Y015104D01*
X007286Y015044D01*
X007166Y015044D01*
X007106Y015104D01*
X006978Y015044D02*
X006738Y015404D01*
X007226Y015224D02*
X007286Y015224D01*
X023288Y005344D02*
X023288Y005104D01*
X023348Y005044D01*
X023468Y005044D01*
X023528Y005104D01*
X023656Y005044D02*
X023896Y005044D01*
X023776Y005044D02*
X023776Y005404D01*
X023656Y005284D01*
X023528Y005344D02*
X023468Y005404D01*
X023348Y005404D01*
X023288Y005344D01*
X024025Y005344D02*
X024025Y005284D01*
X024085Y005224D01*
X024265Y005224D01*
X024265Y005344D02*
X024205Y005404D01*
X024085Y005404D01*
X024025Y005344D01*
X024265Y005344D02*
X024265Y005104D01*
X024205Y005044D01*
X024085Y005044D01*
X024025Y005104D01*
X024553Y006079D02*
X024553Y006234D01*
X024604Y006285D01*
X024708Y006285D01*
X024760Y006234D01*
X024760Y006079D01*
X024863Y006079D02*
X024553Y006079D01*
X024760Y006182D02*
X024863Y006285D01*
X024863Y006401D02*
X024656Y006608D01*
X024604Y006608D01*
X024553Y006556D01*
X024553Y006453D01*
X024604Y006401D01*
X024863Y006401D02*
X024863Y006608D01*
X024811Y006723D02*
X024863Y006775D01*
X024863Y006878D01*
X024811Y006930D01*
X024760Y006930D01*
X024708Y006878D01*
X024708Y006827D01*
X024708Y006878D02*
X024656Y006930D01*
X024604Y006930D01*
X024553Y006878D01*
X024553Y006775D01*
X024604Y006723D01*
X025073Y004204D02*
X025013Y004144D01*
X025013Y003904D01*
X025073Y003844D01*
X025193Y003844D01*
X025253Y003904D01*
X025381Y003844D02*
X025621Y004084D01*
X025621Y004144D01*
X025561Y004204D01*
X025441Y004204D01*
X025381Y004144D01*
X025253Y004144D02*
X025193Y004204D01*
X025073Y004204D01*
X025381Y003844D02*
X025621Y003844D01*
X025750Y003904D02*
X025810Y003844D01*
X025930Y003844D01*
X025990Y003904D01*
X025990Y003964D01*
X025930Y004024D01*
X025750Y004024D01*
X025750Y003904D01*
X025750Y004024D02*
X025870Y004144D01*
X025990Y004204D01*
X029098Y016934D02*
X029218Y016934D01*
X029278Y016994D01*
X029406Y016994D02*
X029406Y016934D01*
X029406Y016994D02*
X029646Y017234D01*
X029646Y017294D01*
X029406Y017294D01*
X029278Y017234D02*
X029218Y017294D01*
X029098Y017294D01*
X029038Y017234D01*
X029038Y016994D01*
X029098Y016934D01*
D817*
X026920Y014986D02*
X026920Y014212D01*
X025366Y014212D01*
X025366Y014986D01*
X026920Y014986D01*
X026920Y014211D02*
X026920Y013437D01*
X025366Y013437D01*
X025366Y014211D01*
X026920Y014211D01*
X026891Y011186D02*
X028445Y011186D01*
X028445Y010412D01*
X026891Y010412D01*
X026891Y011186D01*
X026995Y011186D02*
X026995Y010412D01*
X025441Y010412D01*
X025441Y011186D01*
X026995Y011186D01*
X026891Y010086D02*
X026891Y009312D01*
X028445Y009312D01*
X028445Y010086D01*
X026891Y010086D01*
X026048Y010036D02*
X026048Y009262D01*
X024888Y009262D01*
X024888Y010036D01*
X026048Y010036D01*
X024680Y009600D02*
X023906Y009600D01*
X023906Y008047D01*
X024680Y008047D01*
X024680Y009600D01*
X024530Y007750D02*
X023756Y007750D01*
X023756Y006197D01*
X024530Y006197D01*
X024530Y007750D01*
X024495Y006236D02*
X024495Y005462D01*
X022941Y005462D01*
X022941Y006236D01*
X024495Y006236D01*
X025106Y005825D02*
X025880Y005825D01*
X025880Y004272D01*
X025106Y004272D01*
X025106Y005825D01*
X023730Y006197D02*
X022956Y006197D01*
X022956Y007750D01*
X023730Y007750D01*
X023730Y006197D01*
X020627Y007000D02*
X019459Y007000D01*
X019459Y008947D01*
X020627Y008947D01*
X020627Y007000D01*
X020555Y008972D02*
X019781Y008972D01*
X019781Y010525D01*
X020555Y010525D01*
X020555Y008972D01*
X018395Y008637D02*
X018395Y009411D01*
X016841Y009411D01*
X016841Y008637D01*
X018395Y008637D01*
X017955Y006325D02*
X017181Y006325D01*
X017181Y004772D01*
X017955Y004772D01*
X017955Y006325D01*
X017145Y006361D02*
X017145Y005587D01*
X015591Y005587D01*
X015591Y006361D01*
X017145Y006361D01*
X017145Y005536D02*
X017145Y004762D01*
X015591Y004762D01*
X015591Y005536D01*
X017145Y005536D01*
X015220Y005536D02*
X015220Y004762D01*
X013666Y004762D01*
X013666Y005536D01*
X015220Y005536D01*
X015220Y005587D02*
X013666Y005587D01*
X013666Y006361D01*
X015220Y006361D01*
X015220Y005587D01*
X013680Y006350D02*
X013680Y004797D01*
X012906Y004797D01*
X012906Y006350D01*
X013680Y006350D01*
X012920Y006361D02*
X012920Y005587D01*
X011366Y005587D01*
X011366Y006361D01*
X012920Y006361D01*
X012920Y005536D02*
X012920Y004762D01*
X011366Y004762D01*
X011366Y005536D01*
X012920Y005536D01*
X012559Y008325D02*
X013827Y008325D01*
X013827Y010272D01*
X012559Y010272D01*
X012559Y008325D01*
X012355Y008347D02*
X011581Y008347D01*
X011581Y009900D01*
X012355Y009900D01*
X012355Y008347D01*
X012355Y009947D02*
X011581Y009947D01*
X011581Y011500D01*
X012355Y011500D01*
X012355Y009947D01*
X013142Y012615D02*
X011194Y012615D01*
X011194Y013882D01*
X013142Y013882D01*
X013142Y012615D01*
X013142Y013965D02*
X013142Y015232D01*
X011194Y015232D01*
X011194Y013965D01*
X013142Y013965D01*
X014416Y009636D02*
X014416Y008862D01*
X015970Y008862D01*
X015970Y009636D01*
X014416Y009636D01*
X007655Y009169D02*
X006881Y009169D01*
X006881Y010329D01*
X007655Y010329D01*
X007655Y009169D01*
X007630Y011044D02*
X006856Y011044D01*
X006856Y012204D01*
X007630Y012204D01*
X007630Y011044D01*
X007816Y021112D02*
X007816Y021886D01*
X009370Y021886D01*
X009370Y021112D01*
X007816Y021112D01*
X015741Y036087D02*
X015741Y036861D01*
X017295Y036861D01*
X017295Y036087D01*
X015741Y036087D01*
X015766Y036962D02*
X015766Y037736D01*
X017320Y037736D01*
X017320Y036962D01*
X015766Y036962D01*
X021906Y036722D02*
X021906Y038275D01*
X022680Y038275D01*
X022680Y036722D01*
X021906Y036722D01*
X021931Y036475D02*
X022705Y036475D01*
X022705Y034922D01*
X021931Y034922D01*
X021931Y036475D01*
X022731Y036475D02*
X023505Y036475D01*
X023505Y034922D01*
X022731Y034922D01*
X022731Y036475D01*
X022706Y036722D02*
X022706Y038275D01*
X023480Y038275D01*
X023480Y036722D01*
X022706Y036722D01*
X023606Y035125D02*
X024380Y035125D01*
X024380Y033572D01*
X023606Y033572D01*
X023606Y035125D01*
X024581Y035125D02*
X024581Y033572D01*
X025355Y033572D01*
X025355Y035125D01*
X024581Y035125D01*
X024581Y035222D02*
X025355Y035222D01*
X025355Y036775D01*
X024581Y036775D01*
X024581Y035222D01*
X024581Y036722D02*
X024581Y038275D01*
X025355Y038275D01*
X025355Y036722D01*
X024581Y036722D01*
X025731Y033900D02*
X026505Y033900D01*
X026505Y032347D01*
X025731Y032347D01*
X025731Y033900D01*
X025255Y032050D02*
X024481Y032050D01*
X024481Y030497D01*
X025255Y030497D01*
X025255Y032050D01*
X026341Y031061D02*
X026341Y030412D01*
X027895Y030412D01*
X027895Y031036D01*
X027280Y031175D02*
X026981Y031175D01*
X025595Y018211D02*
X024041Y018211D01*
X024041Y017437D01*
X025595Y017437D01*
X025595Y018211D01*
X024027Y017272D02*
X022759Y017272D01*
X022759Y015325D01*
X024027Y015325D01*
X024027Y017272D01*
X023892Y014732D02*
X021944Y014732D01*
X021944Y013465D01*
X023892Y013465D01*
X023892Y014732D01*
D818*
X023543Y013299D02*
X022543Y013299D01*
X021743Y013299D02*
X020743Y013299D01*
X020743Y009899D01*
X021743Y009899D01*
X021318Y009299D02*
X022968Y009299D01*
X023030Y008749D02*
X023188Y008749D01*
X022256Y008749D02*
X022030Y008749D01*
X021318Y009299D02*
X021281Y009248D01*
X021246Y009195D01*
X021214Y009139D01*
X021186Y009082D01*
X021162Y009023D01*
X021141Y008963D01*
X021124Y008902D01*
X021110Y008840D01*
X021101Y008777D01*
X021095Y008714D01*
X021093Y008650D01*
X021095Y008586D01*
X021101Y008523D01*
X021110Y008460D01*
X021123Y008398D01*
X021141Y008337D01*
X021161Y008277D01*
X021186Y008218D01*
X021213Y008161D01*
X021245Y008105D01*
X021279Y008052D01*
X021317Y008001D01*
X021358Y007952D01*
X021402Y007906D01*
X021448Y007862D01*
X021497Y007821D01*
X021548Y007784D01*
X021602Y007749D01*
X021657Y007718D01*
X021714Y007690D01*
X021773Y007666D01*
X021833Y007646D01*
X022228Y007389D02*
X022808Y007389D01*
X022808Y004909D01*
X022228Y004909D01*
X021408Y004909D02*
X020828Y004909D01*
X020828Y007389D01*
X021408Y007389D01*
X021256Y008749D02*
X021098Y008749D01*
X022453Y007646D02*
X022513Y007666D01*
X022572Y007690D01*
X022629Y007718D01*
X022684Y007749D01*
X022738Y007784D01*
X022789Y007821D01*
X022838Y007862D01*
X022884Y007906D01*
X022928Y007952D01*
X022969Y008001D01*
X023007Y008052D01*
X023041Y008105D01*
X023073Y008161D01*
X023100Y008218D01*
X023125Y008277D01*
X023145Y008337D01*
X023163Y008398D01*
X023176Y008460D01*
X023185Y008523D01*
X023191Y008586D01*
X023193Y008650D01*
X023191Y008714D01*
X023185Y008777D01*
X023176Y008840D01*
X023162Y008902D01*
X023145Y008963D01*
X023124Y009023D01*
X023100Y009082D01*
X023072Y009139D01*
X023040Y009195D01*
X023005Y009248D01*
X022968Y009299D01*
X022543Y009899D02*
X023543Y009899D01*
X023543Y013299D01*
X025428Y013304D02*
X026508Y013304D01*
X027528Y014089D02*
X028108Y014089D01*
X028108Y014359D02*
X027528Y014359D01*
X027528Y016839D01*
X028108Y016839D01*
X028928Y016839D02*
X029508Y016839D01*
X029508Y014359D01*
X028928Y014359D01*
X028928Y014089D02*
X029508Y014089D01*
X029508Y011609D01*
X028928Y011609D01*
X028108Y011609D02*
X027528Y011609D01*
X027528Y014089D01*
X026508Y015144D02*
X026088Y015144D01*
X026086Y015165D01*
X026081Y015185D01*
X026072Y015204D01*
X026060Y015221D01*
X026045Y015236D01*
X026028Y015248D01*
X026009Y015257D01*
X025989Y015262D01*
X025968Y015264D01*
X025947Y015262D01*
X025927Y015257D01*
X025908Y015248D01*
X025891Y015236D01*
X025876Y015221D01*
X025864Y015204D01*
X025855Y015185D01*
X025850Y015165D01*
X025848Y015144D01*
X025428Y015144D01*
X025848Y015144D02*
X025850Y015165D01*
X025855Y015185D01*
X025864Y015204D01*
X025876Y015221D01*
X025891Y015236D01*
X025908Y015248D01*
X025927Y015257D01*
X025947Y015262D01*
X025968Y015264D01*
X025989Y015262D01*
X026009Y015257D01*
X026028Y015248D01*
X026045Y015236D01*
X026060Y015221D01*
X026072Y015204D01*
X026081Y015185D01*
X026086Y015165D01*
X026088Y015144D01*
X026068Y015374D02*
X026418Y015374D01*
X026068Y015624D01*
X026068Y015374D01*
X026068Y015425D02*
X026347Y015425D01*
X026265Y015483D02*
X026068Y015483D01*
X026068Y015542D02*
X026183Y015542D01*
X026101Y015600D02*
X026068Y015600D01*
X026508Y017104D02*
X025428Y017104D01*
X026718Y019724D02*
X030018Y019724D01*
X030018Y028724D01*
X026718Y028724D01*
X026718Y019724D01*
X026068Y011824D02*
X026418Y011574D01*
X026068Y011574D01*
X026068Y011824D01*
X026068Y011798D02*
X026104Y011798D01*
X026068Y011739D02*
X026186Y011739D01*
X026268Y011681D02*
X026068Y011681D01*
X026068Y011622D02*
X026350Y011622D01*
X026508Y011344D02*
X026088Y011344D01*
X026086Y011365D01*
X026081Y011385D01*
X026072Y011404D01*
X026060Y011421D01*
X026045Y011436D01*
X026028Y011448D01*
X026009Y011457D01*
X025989Y011462D01*
X025968Y011464D01*
X025947Y011462D01*
X025927Y011457D01*
X025908Y011448D01*
X025891Y011436D01*
X025876Y011421D01*
X025864Y011404D01*
X025855Y011385D01*
X025850Y011365D01*
X025848Y011344D01*
X025428Y011344D01*
X025848Y011344D02*
X025850Y011365D01*
X025855Y011385D01*
X025864Y011404D01*
X025876Y011421D01*
X025891Y011436D01*
X025908Y011448D01*
X025927Y011457D01*
X025947Y011462D01*
X025968Y011464D01*
X025989Y011462D01*
X026009Y011457D01*
X026028Y011448D01*
X026045Y011436D01*
X026060Y011421D01*
X026072Y011404D01*
X026081Y011385D01*
X026086Y011365D01*
X026088Y011344D01*
X026773Y008139D02*
X026773Y007059D01*
X025293Y007499D02*
X025043Y007149D01*
X025043Y007499D01*
X025293Y007499D01*
X025272Y007469D02*
X025043Y007469D01*
X025043Y007410D02*
X025230Y007410D01*
X025188Y007352D02*
X025043Y007352D01*
X025043Y007293D02*
X025146Y007293D01*
X025104Y007235D02*
X025043Y007235D01*
X025043Y007176D02*
X025063Y007176D01*
X024813Y007059D02*
X024813Y007479D01*
X024834Y007481D01*
X024854Y007486D01*
X024873Y007495D01*
X024890Y007507D01*
X024905Y007522D01*
X024917Y007539D01*
X024926Y007558D01*
X024931Y007578D01*
X024933Y007599D01*
X024931Y007620D01*
X024926Y007640D01*
X024917Y007659D01*
X024905Y007676D01*
X024890Y007691D01*
X024873Y007703D01*
X024854Y007712D01*
X024834Y007717D01*
X024813Y007719D01*
X024813Y008139D01*
X024813Y007719D02*
X024834Y007717D01*
X024854Y007712D01*
X024873Y007703D01*
X024890Y007691D01*
X024905Y007676D01*
X024917Y007659D01*
X024926Y007640D01*
X024931Y007620D01*
X024933Y007599D01*
X024931Y007578D01*
X024926Y007558D01*
X024917Y007539D01*
X024905Y007522D01*
X024890Y007507D01*
X024873Y007495D01*
X024854Y007486D01*
X024834Y007481D01*
X024813Y007479D01*
X019318Y007174D02*
X019318Y008774D01*
X019317Y008789D01*
X019312Y008803D01*
X019305Y008816D01*
X019296Y008827D01*
X019285Y008836D01*
X019272Y008843D01*
X019258Y008848D01*
X019243Y008849D01*
X018493Y008849D02*
X018478Y008848D01*
X018464Y008843D01*
X018451Y008836D01*
X018440Y008827D01*
X018431Y008816D01*
X018424Y008803D01*
X018419Y008789D01*
X018418Y008774D01*
X018418Y007174D01*
X018419Y007159D01*
X018424Y007145D01*
X018431Y007132D01*
X018440Y007121D01*
X018451Y007112D01*
X018464Y007105D01*
X018478Y007100D01*
X018493Y007099D01*
X019243Y007099D02*
X019258Y007100D01*
X019272Y007105D01*
X019285Y007112D01*
X019296Y007121D01*
X019305Y007132D01*
X019312Y007145D01*
X019317Y007159D01*
X019318Y007174D01*
X016628Y006644D02*
X015208Y006644D01*
X015618Y008224D02*
X015268Y008474D01*
X015618Y008474D01*
X015618Y008224D01*
X015618Y008229D02*
X015610Y008229D01*
X015618Y008288D02*
X015528Y008288D01*
X015446Y008346D02*
X015618Y008346D01*
X015618Y008405D02*
X015365Y008405D01*
X015283Y008463D02*
X015618Y008463D01*
X015798Y008604D02*
X015208Y008604D01*
X015798Y008604D02*
X015800Y008583D01*
X015805Y008563D01*
X015814Y008544D01*
X015826Y008527D01*
X015841Y008512D01*
X015858Y008500D01*
X015877Y008491D01*
X015897Y008486D01*
X015918Y008484D01*
X015939Y008486D01*
X015959Y008491D01*
X015978Y008500D01*
X015995Y008512D01*
X016010Y008527D01*
X016022Y008544D01*
X016031Y008563D01*
X016036Y008583D01*
X016038Y008604D01*
X016628Y008604D01*
X018043Y015424D02*
X019643Y015424D01*
X019658Y015425D01*
X019672Y015430D01*
X019685Y015437D01*
X019696Y015446D01*
X019705Y015457D01*
X019712Y015470D01*
X019717Y015484D01*
X019718Y015499D01*
X019718Y016249D02*
X019717Y016264D01*
X019712Y016278D01*
X019705Y016291D01*
X019696Y016302D01*
X019685Y016311D01*
X019672Y016318D01*
X019658Y016323D01*
X019643Y016324D01*
X018043Y016324D01*
X018028Y016323D01*
X018014Y016318D01*
X018001Y016311D01*
X017990Y016302D01*
X017981Y016291D01*
X017974Y016278D01*
X017969Y016264D01*
X017968Y016249D01*
X017968Y015499D02*
X017969Y015484D01*
X017974Y015470D01*
X017981Y015457D01*
X017990Y015446D01*
X018001Y015437D01*
X018014Y015430D01*
X018028Y015425D01*
X018043Y015424D01*
X015468Y015499D02*
X015468Y018899D01*
X014468Y018899D01*
X013668Y018899D02*
X012668Y018899D01*
X012668Y015499D01*
X013668Y015499D01*
X014468Y015499D02*
X015468Y015499D01*
X009866Y017704D02*
X009866Y017954D01*
X008866Y017954D01*
X008866Y017704D01*
X009366Y017704D01*
X009866Y017704D01*
X009366Y017704D02*
X009366Y017604D01*
X006616Y018054D02*
X006619Y018189D01*
X006629Y018324D01*
X006646Y018458D01*
X006669Y018590D01*
X006698Y018722D01*
X006734Y018852D01*
X006777Y018980D01*
X006825Y019106D01*
X006880Y019230D01*
X006941Y019350D01*
X007007Y019468D01*
X007079Y019582D01*
X007157Y019692D01*
X007240Y019799D01*
X007328Y019901D01*
X007421Y019999D01*
X007519Y020092D01*
X007621Y020180D01*
X007728Y020263D01*
X007838Y020341D01*
X007952Y020413D01*
X008070Y020479D01*
X008190Y020540D01*
X008314Y020595D01*
X008440Y020643D01*
X008568Y020686D01*
X008698Y020722D01*
X008830Y020751D01*
X008962Y020774D01*
X009096Y020791D01*
X009231Y020801D01*
X009366Y020804D01*
X009501Y020801D01*
X009636Y020791D01*
X009770Y020774D01*
X009902Y020751D01*
X010034Y020722D01*
X010164Y020686D01*
X010292Y020643D01*
X010418Y020595D01*
X010542Y020540D01*
X010662Y020479D01*
X010780Y020413D01*
X010894Y020341D01*
X011004Y020263D01*
X011111Y020180D01*
X011213Y020092D01*
X011311Y019999D01*
X011404Y019901D01*
X011492Y019799D01*
X011575Y019692D01*
X011653Y019582D01*
X011725Y019468D01*
X011791Y019350D01*
X011852Y019230D01*
X011907Y019106D01*
X011955Y018980D01*
X011998Y018852D01*
X012034Y018722D01*
X012063Y018590D01*
X012086Y018458D01*
X012103Y018324D01*
X012113Y018189D01*
X012116Y018054D01*
X012113Y017919D01*
X012103Y017784D01*
X012086Y017650D01*
X012063Y017518D01*
X012034Y017386D01*
X011998Y017256D01*
X011955Y017128D01*
X011907Y017002D01*
X011852Y016878D01*
X011791Y016758D01*
X011725Y016640D01*
X011653Y016526D01*
X011575Y016416D01*
X011492Y016309D01*
X011404Y016207D01*
X011311Y016109D01*
X011213Y016016D01*
X011111Y015928D01*
X011004Y015845D01*
X010894Y015767D01*
X010780Y015695D01*
X010662Y015629D01*
X010542Y015568D01*
X010418Y015513D01*
X010292Y015465D01*
X010164Y015422D01*
X010034Y015386D01*
X009902Y015357D01*
X009770Y015334D01*
X009636Y015317D01*
X009501Y015307D01*
X009366Y015304D01*
X009231Y015307D01*
X009096Y015317D01*
X008962Y015334D01*
X008830Y015357D01*
X008698Y015386D01*
X008568Y015422D01*
X008440Y015465D01*
X008314Y015513D01*
X008190Y015568D01*
X008070Y015629D01*
X007952Y015695D01*
X007838Y015767D01*
X007728Y015845D01*
X007621Y015928D01*
X007519Y016016D01*
X007421Y016109D01*
X007328Y016207D01*
X007240Y016309D01*
X007157Y016416D01*
X007079Y016526D01*
X007007Y016640D01*
X006941Y016758D01*
X006880Y016878D01*
X006825Y017002D01*
X006777Y017128D01*
X006734Y017256D01*
X006698Y017386D01*
X006669Y017518D01*
X006646Y017650D01*
X006629Y017784D01*
X006619Y017919D01*
X006616Y018054D01*
X009116Y016054D02*
X009616Y016054D01*
X009366Y015804D02*
X009366Y016304D01*
X009366Y018304D02*
X009366Y018504D01*
X009648Y011360D02*
X009648Y009887D01*
X008193Y010349D02*
X007943Y009999D01*
X007943Y010349D01*
X008193Y010349D01*
X008183Y010335D02*
X007943Y010335D01*
X007943Y010277D02*
X008142Y010277D01*
X008100Y010218D02*
X007943Y010218D01*
X007943Y010160D02*
X008058Y010160D01*
X008016Y010101D02*
X007943Y010101D01*
X007943Y010043D02*
X007974Y010043D01*
X007688Y009887D02*
X007688Y010504D01*
X007709Y010506D01*
X007729Y010511D01*
X007748Y010520D01*
X007765Y010532D01*
X007780Y010547D01*
X007792Y010564D01*
X007801Y010583D01*
X007806Y010603D01*
X007808Y010624D01*
X007806Y010645D01*
X007801Y010665D01*
X007792Y010684D01*
X007780Y010701D01*
X007765Y010716D01*
X007748Y010728D01*
X007729Y010737D01*
X007709Y010742D01*
X007688Y010744D01*
X007688Y011360D01*
X018763Y035629D02*
X018763Y038269D01*
X020223Y038269D01*
X020223Y038049D01*
X020223Y035849D02*
X020223Y035629D01*
X018763Y035629D01*
X019772Y040650D02*
X019672Y040750D01*
X019622Y041900D01*
X019772Y040650D02*
X023472Y040650D01*
X023572Y040750D01*
X023622Y041900D01*
X024347Y041900D02*
X024397Y040750D01*
X024497Y040650D01*
X028197Y040650D01*
X028297Y040750D01*
X028347Y041900D01*
X028023Y037069D02*
X026563Y037069D01*
X026563Y034429D01*
X028023Y034429D01*
X028023Y034649D01*
X028023Y036849D02*
X028023Y037069D01*
X028642Y031593D02*
X028622Y031627D01*
X028606Y031663D01*
X028593Y031700D01*
X028584Y031739D01*
X028579Y031778D01*
X028578Y031817D01*
X028581Y031856D01*
X028587Y031895D01*
X028597Y031933D01*
X028611Y031970D01*
X028629Y032005D01*
X028650Y032038D01*
X028674Y032069D01*
X028701Y032098D01*
X028731Y032123D01*
X028763Y032146D01*
X028797Y032166D01*
X028833Y032181D01*
X028870Y032194D01*
X028909Y032202D01*
X028948Y032207D01*
X028987Y032208D01*
X029026Y032205D01*
X029065Y032198D01*
X029103Y032187D01*
X029139Y032173D01*
X029174Y032155D01*
X029207Y032134D01*
X029238Y032109D01*
X029267Y032082D01*
X029292Y032052D01*
X029314Y032020D01*
X029333Y031985D01*
X029349Y031949D01*
X029361Y031912D01*
X029369Y031873D01*
X029373Y031834D01*
X029374Y031795D01*
X029370Y031756D01*
X029363Y031717D01*
X029352Y031679D01*
X029337Y031643D01*
X029319Y031608D01*
X029297Y031575D01*
X029273Y031545D01*
X029245Y031517D01*
X029215Y031492D01*
X029182Y031470D01*
X029148Y031451D01*
X029111Y031436D01*
X029074Y031424D01*
X029035Y031416D01*
X028996Y031413D01*
X028957Y031412D01*
X028918Y031416D01*
X013218Y036849D02*
X013218Y039549D01*
X013216Y039566D01*
X013212Y039583D01*
X013205Y039599D01*
X013195Y039613D01*
X013182Y039626D01*
X013168Y039636D01*
X013152Y039643D01*
X013135Y039647D01*
X013118Y039649D01*
X010418Y039649D01*
X010401Y039647D01*
X010384Y039643D01*
X010368Y039636D01*
X010354Y039626D01*
X010341Y039613D01*
X010331Y039599D01*
X010324Y039583D01*
X010320Y039566D01*
X010318Y039549D01*
X010318Y036849D01*
X010320Y036832D01*
X010324Y036815D01*
X010331Y036799D01*
X010341Y036785D01*
X010354Y036772D01*
X010368Y036762D01*
X010384Y036755D01*
X010401Y036751D01*
X010418Y036749D01*
X013118Y036749D01*
X013135Y036751D01*
X013152Y036755D01*
X013168Y036762D01*
X013182Y036772D01*
X013195Y036785D01*
X013205Y036799D01*
X013212Y036815D01*
X013216Y036832D01*
X013218Y036849D01*
X012368Y038199D02*
X011938Y038199D01*
X011588Y038199D02*
X011168Y038199D01*
D819*
X011588Y038199D02*
X011588Y038499D01*
X011588Y038199D02*
X011588Y037899D01*
X011938Y037899D02*
X011938Y038199D01*
X011938Y038499D01*
X012567Y040381D02*
X018571Y040381D01*
X018571Y042350D01*
X012567Y042350D01*
X006563Y042350D01*
X006563Y040381D01*
X012567Y040381D01*
D820*
X012567Y040775D01*
X012567Y041169D02*
X012567Y041563D01*
X012567Y041956D02*
X012567Y042350D01*
D821*
X014128Y035749D03*
X014128Y034449D03*
X025753Y018649D03*
X028028Y017674D03*
D822*
X016390Y035524D02*
X015996Y035327D01*
X015996Y035720D01*
X016390Y035524D01*
X023846Y036977D02*
X024240Y036977D01*
X024043Y037370D01*
X023846Y036977D01*
D823*
X024043Y037394D03*
D824*
X016413Y035524D03*
D825*
X010993Y034339D03*
D826*
X007206Y012884D02*
X007206Y012514D01*
X007083Y012514D02*
X007330Y012514D01*
X007083Y012760D02*
X007206Y012884D01*
X007206Y007034D02*
X007206Y006664D01*
X007083Y006664D02*
X007330Y006664D01*
X007083Y006910D02*
X007206Y007034D01*
X029008Y007337D02*
X029131Y007214D01*
X029008Y007337D02*
X029378Y007337D01*
X029378Y007214D02*
X029378Y007460D01*
D827*
X019723Y021624D03*
X015848Y026249D03*
X019723Y030874D03*
X011088Y026249D03*
D828*
X024243Y010334D03*
D829*
X009366Y018279D03*
D830*
X011366Y019054D02*
X011316Y019149D01*
X011261Y019242D01*
X011201Y019331D01*
X011138Y019418D01*
X011070Y019502D01*
X010998Y019582D01*
X010923Y019659D01*
X010844Y019732D01*
X010761Y019801D01*
X010676Y019866D01*
X010587Y019927D01*
X010495Y019984D01*
X010401Y020036D01*
X010305Y020083D01*
X010206Y020126D01*
X010105Y020164D01*
X010003Y020197D01*
X009899Y020226D01*
X009794Y020249D01*
X009688Y020267D01*
X009581Y020280D01*
X009474Y020287D01*
X009366Y020290D01*
X009258Y020287D01*
X009151Y020280D01*
X009044Y020267D01*
X008938Y020249D01*
X008833Y020226D01*
X008729Y020197D01*
X008627Y020164D01*
X008526Y020126D01*
X008427Y020083D01*
X008331Y020036D01*
X008237Y019984D01*
X008145Y019927D01*
X008056Y019866D01*
X007971Y019801D01*
X007888Y019732D01*
X007809Y019659D01*
X007734Y019582D01*
X007662Y019502D01*
X007594Y019418D01*
X007531Y019331D01*
X007471Y019242D01*
X007416Y019149D01*
X007366Y019054D01*
D831*
X018468Y008599D03*
X019268Y008599D03*
D832*
X018218Y015474D03*
X018218Y016274D03*
D833*
X019852Y040890D03*
X024577Y040890D03*
D834*
X026347Y042200D03*
X021622Y042200D03*
D835*
X019897Y041950D03*
X023347Y041950D03*
X024622Y041950D03*
X028072Y041950D03*
D836*
X026847Y041950D03*
X025847Y041950D03*
X022122Y041950D03*
X021122Y041950D03*
D837*
X028976Y031810D03*
M02*
