%
M48
M72
T01C0.0236
T02C0.0394
T03C0.0400
T04C0.0512
T05C0.0531
T06C0.0790
T07C0.1260
%
T01
X6652Y7275
X8752Y6400
X9277Y7475
X11352Y5250
X12402Y5000
X12402Y5500
X12402Y6000
X12877Y6000
X13352Y6000
X13352Y5500
X12877Y5500
X12877Y5000
X13352Y5000
X12627Y3800
X14627Y5400
X16767Y4975
X17142Y4975
X17977Y4675
X15087Y8875
X14737Y8875
X14477Y10275
X13317Y11800
X15392Y13225
X15392Y13600
X17717Y11850
X17577Y10275
X17492Y8950
X18242Y8950
X16702Y8975
X19952Y10175
X20602Y10175
X22927Y13200
X22952Y14950
X23802Y15825
X24627Y14950
X25477Y14375
X25877Y13800
X26827Y13800
X27677Y12075
X27452Y9825
X25577Y9325
X25627Y7825
X25877Y6715
X25202Y5840
X23902Y4200
X23902Y3150
X25202Y2910
X25352Y1250
X26777Y3150
X27277Y3560
X23452Y10325
X23552Y11100
X21902Y6050
X21902Y5400
X21702Y4100
X22542Y16575
X22542Y16975
X23327Y18050
X22552Y18975
X22552Y19725
X19602Y23175
X19227Y23575
X18827Y23175
X18427Y23575
X18827Y23975
X18427Y24375
X18827Y24775
X18427Y25175
X18827Y25575
X18427Y25975
X18827Y26375
X19227Y25975
X19602Y25575
X19227Y25175
X19227Y24375
X19602Y23975
X19602Y24775
X19627Y26375
X18027Y26375
X17627Y25975
X18027Y25575
X17627Y25175
X18027Y24775
X17627Y24375
X18027Y23975
X17627Y23575
X18027Y23175
X15077Y20750
X14377Y22590
X14377Y22990
X14377Y23390
X13977Y23390
X13577Y23390
X13177Y23390
X13177Y22990
X13177Y22590
X13577Y22590
X13577Y22990
X13977Y22990
X13977Y22590
X13977Y26875
X13227Y27475
X11252Y29625
X12792Y30775
X12792Y31175
X13192Y31175
X13192Y30775
X13592Y30775
X13592Y31175
X13992Y31175
X13992Y30775
X14392Y30775
X14392Y31175
X14157Y32530
X13452Y32950
X16352Y33825
X17202Y32900
X18702Y29000
X22852Y28850
X27402Y28350
X28702Y21925
X12027Y7975
X9777Y13375
X7577Y15075
X9002Y28275
X9002Y29475
T02
X6577Y4450
X7577Y4450
X8577Y4450
X8577Y11300
X7577Y11300
X6577Y11300
X10577Y11325
X11577Y11325
X24527Y17000
X24527Y18000
X24527Y19000
X24527Y20000
X24527Y21000
X24527Y22000
X24527Y23000
X24527Y24000
X24527Y25000
X25527Y25000
X25527Y24000
X25527Y23000
X25527Y22000
X25527Y21000
X25527Y20000
X25527Y19000
X25527Y18000
X25527Y17000
T03
X26777Y27325
X26777Y29325
X9152Y21500
X9152Y19500
T04
X10894Y37748
X13847Y37748
X16799Y37748
X6957Y37748
T05
X7647Y32821
X7647Y30853
T06
X19977Y34625
X23977Y34625
T07
X27725Y35583
X7252Y35583
X7252Y1725
X27725Y1725
M30
