G75*
G70*
%OFA0B0*%
%FSLAX24Y24*%
%IPPOS*%
%LPD*%
%AMOC8*
5,1,8,0,0,1.08239X$1,22.5*
%
%ADD10C,0.0100*%
%ADD11C,0.0050*%
%ADD12R,0.0149X0.0001*%
%ADD13R,0.0004X0.0001*%
%ADD14R,0.0010X0.0001*%
%ADD15R,0.0017X0.0001*%
%ADD16R,0.0023X0.0001*%
%ADD17R,0.0029X0.0001*%
%ADD18R,0.0034X0.0001*%
%ADD19R,0.0040X0.0001*%
%ADD20R,0.0043X0.0002*%
%ADD21R,0.0047X0.0001*%
%ADD22R,0.0050X0.0001*%
%ADD23R,0.0054X0.0001*%
%ADD24R,0.0059X0.0001*%
%ADD25R,0.0064X0.0001*%
%ADD26R,0.0015X0.0001*%
%ADD27R,0.0067X0.0001*%
%ADD28R,0.0020X0.0001*%
%ADD29R,0.0070X0.0001*%
%ADD30R,0.0024X0.0001*%
%ADD31R,0.0074X0.0001*%
%ADD32R,0.0027X0.0001*%
%ADD33R,0.0076X0.0001*%
%ADD34R,0.0030X0.0001*%
%ADD35R,0.0081X0.0002*%
%ADD36R,0.0036X0.0002*%
%ADD37R,0.0086X0.0001*%
%ADD38R,0.0044X0.0001*%
%ADD39R,0.0091X0.0001*%
%ADD40R,0.0046X0.0001*%
%ADD41R,0.0094X0.0001*%
%ADD42R,0.0096X0.0001*%
%ADD43R,0.0053X0.0001*%
%ADD44R,0.0099X0.0001*%
%ADD45R,0.0056X0.0001*%
%ADD46R,0.0104X0.0001*%
%ADD47R,0.0060X0.0001*%
%ADD48R,0.0108X0.0001*%
%ADD49R,0.0112X0.0001*%
%ADD50R,0.0117X0.0001*%
%ADD51R,0.0072X0.0001*%
%ADD52R,0.0120X0.0002*%
%ADD53R,0.0075X0.0002*%
%ADD54R,0.0123X0.0001*%
%ADD55R,0.0078X0.0001*%
%ADD56R,0.0126X0.0001*%
%ADD57R,0.0081X0.0001*%
%ADD58R,0.0131X0.0001*%
%ADD59R,0.0136X0.0001*%
%ADD60R,0.0090X0.0001*%
%ADD61R,0.0139X0.0001*%
%ADD62R,0.0144X0.0001*%
%ADD63R,0.0147X0.0001*%
%ADD64R,0.0101X0.0001*%
%ADD65R,0.0150X0.0001*%
%ADD66R,0.0102X0.0001*%
%ADD67R,0.0153X0.0001*%
%ADD68R,0.0106X0.0001*%
%ADD69R,0.0158X0.0002*%
%ADD70R,0.0109X0.0002*%
%ADD71R,0.0164X0.0001*%
%ADD72R,0.0115X0.0001*%
%ADD73R,0.0168X0.0001*%
%ADD74R,0.0120X0.0001*%
%ADD75R,0.0171X0.0001*%
%ADD76R,0.0123X0.0001*%
%ADD77R,0.0172X0.0001*%
%ADD78R,0.0125X0.0001*%
%ADD79R,0.0175X0.0001*%
%ADD80R,0.0128X0.0001*%
%ADD81R,0.0180X0.0001*%
%ADD82R,0.0132X0.0001*%
%ADD83R,0.0186X0.0001*%
%ADD84R,0.0191X0.0001*%
%ADD85R,0.0141X0.0001*%
%ADD86R,0.0194X0.0001*%
%ADD87R,0.0145X0.0001*%
%ADD88R,0.0196X0.0002*%
%ADD89R,0.0149X0.0002*%
%ADD90R,0.0199X0.0001*%
%ADD91R,0.0151X0.0001*%
%ADD92R,0.0204X0.0001*%
%ADD93R,0.0153X0.0001*%
%ADD94R,0.0207X0.0001*%
%ADD95R,0.0158X0.0001*%
%ADD96R,0.0211X0.0001*%
%ADD97R,0.0162X0.0001*%
%ADD98R,0.0216X0.0001*%
%ADD99R,0.0166X0.0001*%
%ADD100R,0.0219X0.0001*%
%ADD101R,0.0007X0.0001*%
%ADD102R,0.0169X0.0001*%
%ADD103R,0.0222X0.0001*%
%ADD104R,0.0011X0.0001*%
%ADD105R,0.0224X0.0001*%
%ADD106R,0.0014X0.0001*%
%ADD107R,0.0176X0.0001*%
%ADD108R,0.0228X0.0001*%
%ADD109R,0.0018X0.0001*%
%ADD110R,0.0179X0.0001*%
%ADD111R,0.0234X0.0002*%
%ADD112R,0.0024X0.0002*%
%ADD113R,0.0183X0.0002*%
%ADD114R,0.0239X0.0001*%
%ADD115R,0.0189X0.0001*%
%ADD116R,0.0241X0.0001*%
%ADD117R,0.0033X0.0001*%
%ADD118R,0.0012X0.0001*%
%ADD119R,0.0192X0.0001*%
%ADD120R,0.0243X0.0001*%
%ADD121R,0.0038X0.0001*%
%ADD122R,0.0246X0.0001*%
%ADD123R,0.0041X0.0001*%
%ADD124R,0.0019X0.0001*%
%ADD125R,0.0196X0.0001*%
%ADD126R,0.0250X0.0001*%
%ADD127R,0.0021X0.0001*%
%ADD128R,0.0201X0.0001*%
%ADD129R,0.0254X0.0001*%
%ADD130R,0.0048X0.0001*%
%ADD131R,0.0258X0.0001*%
%ADD132R,0.0054X0.0001*%
%ADD133R,0.0209X0.0001*%
%ADD134R,0.0263X0.0001*%
%ADD135R,0.0213X0.0001*%
%ADD136R,0.0267X0.0001*%
%ADD137R,0.0063X0.0001*%
%ADD138R,0.0270X0.0002*%
%ADD139R,0.0066X0.0002*%
%ADD140R,0.0045X0.0002*%
%ADD141R,0.0219X0.0002*%
%ADD142R,0.0271X0.0001*%
%ADD143R,0.0220X0.0001*%
%ADD144R,0.0274X0.0001*%
%ADD145R,0.0051X0.0001*%
%ADD146R,0.0223X0.0001*%
%ADD147R,0.0278X0.0001*%
%ADD148R,0.0282X0.0001*%
%ADD149R,0.0231X0.0001*%
%ADD150R,0.0288X0.0001*%
%ADD151R,0.0085X0.0001*%
%ADD152R,0.0236X0.0001*%
%ADD153R,0.0289X0.0001*%
%ADD154R,0.0087X0.0001*%
%ADD155R,0.0066X0.0001*%
%ADD156R,0.0292X0.0001*%
%ADD157R,0.0069X0.0001*%
%ADD158R,0.0297X0.0001*%
%ADD159R,0.0300X0.0001*%
%ADD160R,0.0075X0.0001*%
%ADD161R,0.0305X0.0002*%
%ADD162R,0.0101X0.0002*%
%ADD163R,0.0078X0.0002*%
%ADD164R,0.0251X0.0002*%
%ADD165R,0.0309X0.0001*%
%ADD166R,0.0105X0.0001*%
%ADD167R,0.0083X0.0001*%
%ADD168R,0.0255X0.0001*%
%ADD169R,0.0314X0.0001*%
%ADD170R,0.0110X0.0001*%
%ADD171R,0.0087X0.0001*%
%ADD172R,0.0316X0.0001*%
%ADD173R,0.0113X0.0001*%
%ADD174R,0.0262X0.0001*%
%ADD175R,0.0319X0.0001*%
%ADD176R,0.0114X0.0001*%
%ADD177R,0.0093X0.0001*%
%ADD178R,0.0266X0.0001*%
%ADD179R,0.0321X0.0001*%
%ADD180R,0.0096X0.0001*%
%ADD181R,0.0324X0.0001*%
%ADD182R,0.0270X0.0001*%
%ADD183R,0.0329X0.0001*%
%ADD184R,0.0124X0.0001*%
%ADD185R,0.0275X0.0001*%
%ADD186R,0.0333X0.0001*%
%ADD187R,0.0279X0.0001*%
%ADD188R,0.0336X0.0001*%
%ADD189R,0.0111X0.0001*%
%ADD190R,0.0284X0.0001*%
%ADD191R,0.0339X0.0002*%
%ADD192R,0.0134X0.0002*%
%ADD193R,0.0114X0.0002*%
%ADD194R,0.0286X0.0002*%
%ADD195R,0.0342X0.0001*%
%ADD196R,0.0116X0.0001*%
%ADD197R,0.0491X0.0001*%
%ADD198R,0.0492X0.0001*%
%ADD199R,0.0294X0.0001*%
%ADD200R,0.0495X0.0001*%
%ADD201R,0.0299X0.0001*%
%ADD202R,0.0496X0.0001*%
%ADD203R,0.0127X0.0001*%
%ADD204R,0.0301X0.0001*%
%ADD205R,0.0498X0.0001*%
%ADD206R,0.0304X0.0001*%
%ADD207R,0.0501X0.0001*%
%ADD208R,0.0134X0.0001*%
%ADD209R,0.0308X0.0001*%
%ADD210R,0.0135X0.0001*%
%ADD211R,0.0311X0.0001*%
%ADD212R,0.0504X0.0001*%
%ADD213R,0.0138X0.0001*%
%ADD214R,0.0504X0.0002*%
%ADD215R,0.0141X0.0002*%
%ADD216R,0.0318X0.0002*%
%ADD217R,0.0507X0.0001*%
%ADD218R,0.0323X0.0001*%
%ADD219R,0.0326X0.0001*%
%ADD220R,0.0508X0.0001*%
%ADD221R,0.0152X0.0001*%
%ADD222R,0.0330X0.0001*%
%ADD223R,0.0510X0.0001*%
%ADD224R,0.0494X0.0001*%
%ADD225R,0.0512X0.0001*%
%ADD226R,0.0500X0.0001*%
%ADD227R,0.0513X0.0001*%
%ADD228R,0.0501X0.0001*%
%ADD229R,0.0513X0.0002*%
%ADD230R,0.0501X0.0002*%
%ADD231R,0.0503X0.0001*%
%ADD232R,0.0504X0.0001*%
%ADD233R,0.0506X0.0001*%
%ADD234R,0.0513X0.0001*%
%ADD235R,0.0509X0.0001*%
%ADD236R,0.0511X0.0001*%
%ADD237R,0.0514X0.0001*%
%ADD238R,0.0516X0.0001*%
%ADD239R,0.0513X0.0002*%
%ADD240R,0.0519X0.0002*%
%ADD241R,0.0519X0.0001*%
%ADD242R,0.0520X0.0001*%
%ADD243R,0.0522X0.0001*%
%ADD244R,0.0507X0.0001*%
%ADD245R,0.0509X0.0002*%
%ADD246R,0.0520X0.0002*%
%ADD247R,0.0522X0.0001*%
%ADD248R,0.0505X0.0001*%
%ADD249R,0.0502X0.0001*%
%ADD250R,0.0521X0.0001*%
%ADD251R,0.0503X0.0002*%
%ADD252R,0.0519X0.0002*%
%ADD253R,0.0519X0.0001*%
%ADD254R,0.0499X0.0001*%
%ADD255R,0.0517X0.0001*%
%ADD256R,0.0495X0.0002*%
%ADD257R,0.0514X0.0002*%
%ADD258R,0.0515X0.0001*%
%ADD259R,0.0492X0.0001*%
%ADD260R,0.0490X0.0001*%
%ADD261R,0.0490X0.0002*%
%ADD262R,0.0511X0.0002*%
%ADD263R,0.0489X0.0001*%
%ADD264R,0.0489X0.0001*%
%ADD265R,0.0488X0.0001*%
%ADD266R,0.0485X0.0001*%
%ADD267R,0.0483X0.0001*%
%ADD268R,0.0483X0.0002*%
%ADD269R,0.0507X0.0002*%
%ADD270R,0.0483X0.0001*%
%ADD271R,0.0481X0.0001*%
%ADD272R,0.0480X0.0001*%
%ADD273R,0.0480X0.0002*%
%ADD274R,0.0501X0.0002*%
%ADD275R,0.0479X0.0001*%
%ADD276R,0.0477X0.0001*%
%ADD277R,0.0477X0.0001*%
%ADD278R,0.0475X0.0001*%
%ADD279R,0.0474X0.0001*%
%ADD280R,0.0472X0.0001*%
%ADD281R,0.0472X0.0002*%
%ADD282R,0.0498X0.0002*%
%ADD283R,0.0471X0.0001*%
%ADD284R,0.0473X0.0001*%
%ADD285R,0.0471X0.0001*%
%ADD286R,0.0470X0.0001*%
%ADD287R,0.0468X0.0001*%
%ADD288R,0.0469X0.0001*%
%ADD289R,0.0468X0.0002*%
%ADD290R,0.0491X0.0002*%
%ADD291R,0.0466X0.0001*%
%ADD292R,0.0465X0.0001*%
%ADD293R,0.0464X0.0001*%
%ADD294R,0.0462X0.0001*%
%ADD295R,0.0462X0.0002*%
%ADD296R,0.0489X0.0002*%
%ADD297R,0.0461X0.0001*%
%ADD298R,0.0460X0.0001*%
%ADD299R,0.0459X0.0001*%
%ADD300R,0.0484X0.0001*%
%ADD301R,0.0457X0.0001*%
%ADD302R,0.0459X0.0001*%
%ADD303R,0.0458X0.0002*%
%ADD304R,0.0484X0.0002*%
%ADD305R,0.0456X0.0001*%
%ADD306R,0.0455X0.0001*%
%ADD307R,0.0453X0.0001*%
%ADD308R,0.0451X0.0001*%
%ADD309R,0.0453X0.0001*%
%ADD310R,0.0450X0.0001*%
%ADD311R,0.0451X0.0002*%
%ADD312R,0.0478X0.0001*%
%ADD313R,0.0449X0.0001*%
%ADD314R,0.0476X0.0001*%
%ADD315R,0.0447X0.0001*%
%ADD316R,0.0474X0.0001*%
%ADD317R,0.0449X0.0002*%
%ADD318R,0.0476X0.0002*%
%ADD319R,0.0454X0.0001*%
%ADD320R,0.0469X0.0002*%
%ADD321R,0.0468X0.0001*%
%ADD322R,0.0467X0.0001*%
%ADD323R,0.0473X0.0002*%
%ADD324R,0.0468X0.0002*%
%ADD325R,0.0486X0.0002*%
%ADD326R,0.0474X0.0002*%
%ADD327R,0.0487X0.0001*%
%ADD328R,0.0497X0.0001*%
%ADD329R,0.0486X0.0001*%
%ADD330R,0.0500X0.0002*%
%ADD331R,0.0487X0.0002*%
%ADD332R,0.0498X0.0001*%
%ADD333R,0.0524X0.0002*%
%ADD334R,0.0524X0.0001*%
%ADD335R,0.0525X0.0001*%
%ADD336R,0.0528X0.0001*%
%ADD337R,0.0529X0.0001*%
%ADD338R,0.0533X0.0001*%
%ADD339R,0.0534X0.0001*%
%ADD340R,0.0523X0.0001*%
%ADD341R,0.0536X0.0001*%
%ADD342R,0.0537X0.0002*%
%ADD343R,0.0527X0.0002*%
%ADD344R,0.0537X0.0001*%
%ADD345R,0.0528X0.0001*%
%ADD346R,0.0539X0.0001*%
%ADD347R,0.0530X0.0001*%
%ADD348R,0.0540X0.0001*%
%ADD349R,0.0541X0.0001*%
%ADD350R,0.0531X0.0001*%
%ADD351R,0.0543X0.0001*%
%ADD352R,0.0544X0.0001*%
%ADD353R,0.0546X0.0002*%
%ADD354R,0.0536X0.0002*%
%ADD355R,0.0547X0.0001*%
%ADD356R,0.0551X0.0001*%
%ADD357R,0.0552X0.0001*%
%ADD358R,0.0554X0.0001*%
%ADD359R,0.0555X0.0001*%
%ADD360R,0.0555X0.0002*%
%ADD361R,0.0547X0.0002*%
%ADD362R,0.0549X0.0001*%
%ADD363R,0.0548X0.0001*%
%ADD364R,0.0538X0.0001*%
%ADD365R,0.0537X0.0001*%
%ADD366R,0.0533X0.0002*%
%ADD367R,0.0531X0.0001*%
%ADD368R,0.0526X0.0001*%
%ADD369R,0.0518X0.0001*%
%ADD370R,0.0498X0.0002*%
%ADD371R,0.0496X0.0002*%
%ADD372R,0.0486X0.0001*%
%ADD373R,0.0485X0.0002*%
%ADD374R,0.0482X0.0001*%
%ADD375R,0.0477X0.0002*%
%ADD376R,0.0530X0.0002*%
%ADD377R,0.0464X0.0002*%
%ADD378R,0.0561X0.0001*%
%ADD379R,0.0570X0.0001*%
%ADD380R,0.0576X0.0001*%
%ADD381R,0.0581X0.0001*%
%ADD382R,0.0585X0.0001*%
%ADD383R,0.0589X0.0001*%
%ADD384R,0.0600X0.0002*%
%ADD385R,0.0614X0.0001*%
%ADD386R,0.0623X0.0001*%
%ADD387R,0.0630X0.0001*%
%ADD388R,0.0633X0.0001*%
%ADD389R,0.0638X0.0001*%
%ADD390R,0.0645X0.0001*%
%ADD391R,0.0657X0.0001*%
%ADD392R,0.0556X0.0001*%
%ADD393R,0.0669X0.0001*%
%ADD394R,0.0674X0.0001*%
%ADD395R,0.0579X0.0001*%
%ADD396R,0.0676X0.0002*%
%ADD397R,0.0585X0.0002*%
%ADD398R,0.0678X0.0001*%
%ADD399R,0.0590X0.0001*%
%ADD400R,0.0679X0.0001*%
%ADD401R,0.0596X0.0001*%
%ADD402R,0.0681X0.0001*%
%ADD403R,0.0606X0.0001*%
%ADD404R,0.0620X0.0001*%
%ADD405R,0.0682X0.0001*%
%ADD406R,0.0633X0.0001*%
%ADD407R,0.0684X0.0001*%
%ADD408R,0.0639X0.0001*%
%ADD409R,0.0649X0.0001*%
%ADD410R,0.0684X0.0001*%
%ADD411R,0.0655X0.0001*%
%ADD412R,0.0683X0.0002*%
%ADD413R,0.0664X0.0002*%
%ADD414R,0.0683X0.0001*%
%ADD415R,0.0670X0.0001*%
%ADD416R,0.0671X0.0001*%
%ADD417R,0.0681X0.0001*%
%ADD418R,0.0672X0.0001*%
%ADD419R,0.0680X0.0001*%
%ADD420R,0.0675X0.0001*%
%ADD421R,0.0676X0.0001*%
%ADD422R,0.0680X0.0002*%
%ADD423R,0.0678X0.0002*%
%ADD424R,0.0678X0.0001*%
%ADD425R,0.0675X0.0002*%
%ADD426R,0.0672X0.0002*%
%ADD427R,0.0672X0.0001*%
%ADD428R,0.0671X0.0002*%
%ADD429R,0.0670X0.0002*%
%ADD430R,0.0669X0.0001*%
%ADD431R,0.0667X0.0001*%
%ADD432R,0.0669X0.0002*%
%ADD433R,0.0667X0.0002*%
%ADD434R,0.0668X0.0001*%
%ADD435R,0.0666X0.0001*%
%ADD436R,0.0668X0.0002*%
%ADD437R,0.0666X0.0002*%
%ADD438R,0.0666X0.0001*%
%ADD439R,0.0664X0.0001*%
%ADD440R,0.0663X0.0001*%
%ADD441R,0.0666X0.0002*%
%ADD442R,0.0663X0.0002*%
%ADD443R,0.0665X0.0001*%
%ADD444R,0.0674X0.0002*%
%ADD445R,0.0677X0.0001*%
%ADD446R,0.0678X0.0002*%
%ADD447R,0.0682X0.0002*%
%ADD448R,0.0686X0.0001*%
%ADD449R,0.0686X0.0002*%
%ADD450R,0.0687X0.0001*%
%ADD451R,0.0689X0.0001*%
%ADD452R,0.0653X0.0001*%
%ADD453R,0.0641X0.0001*%
%ADD454R,0.0626X0.0001*%
%ADD455R,0.0616X0.0001*%
%ADD456R,0.0687X0.0001*%
%ADD457R,0.0612X0.0001*%
%ADD458R,0.0688X0.0001*%
%ADD459R,0.0606X0.0001*%
%ADD460R,0.0601X0.0001*%
%ADD461R,0.0591X0.0002*%
%ADD462R,0.0567X0.0001*%
%ADD463R,0.0560X0.0001*%
%ADD464R,0.0659X0.0001*%
%ADD465R,0.0516X0.0001*%
%ADD466R,0.0639X0.0001*%
%ADD467R,0.0502X0.0002*%
%ADD468R,0.0633X0.0002*%
%ADD469R,0.0608X0.0001*%
%ADD470R,0.0582X0.0001*%
%ADD471R,0.0577X0.0001*%
%ADD472R,0.0569X0.0002*%
%ADD473R,0.0546X0.0001*%
%ADD474R,0.0486X0.0002*%
%ADD475R,0.0493X0.0001*%
%ADD476R,0.0516X0.0002*%
%ADD477R,0.0532X0.0001*%
%ADD478R,0.0534X0.0002*%
%ADD479R,0.0535X0.0002*%
%ADD480R,0.0543X0.0001*%
%ADD481R,0.0553X0.0001*%
%ADD482R,0.0559X0.0001*%
%ADD483R,0.0564X0.0001*%
%ADD484R,0.0564X0.0001*%
%ADD485R,0.0567X0.0001*%
%ADD486R,0.0569X0.0001*%
%ADD487R,0.0570X0.0002*%
%ADD488R,0.0571X0.0002*%
%ADD489R,0.0571X0.0001*%
%ADD490R,0.0573X0.0001*%
%ADD491R,0.0574X0.0001*%
%ADD492R,0.0576X0.0001*%
%ADD493R,0.0600X0.0001*%
%ADD494R,0.0611X0.0001*%
%ADD495R,0.0618X0.0001*%
%ADD496R,0.0621X0.0001*%
%ADD497R,0.1269X0.0001*%
%ADD498R,0.1267X0.0001*%
%ADD499R,0.1266X0.0001*%
%ADD500R,0.1266X0.0002*%
%ADD501R,0.1264X0.0001*%
%ADD502R,0.1261X0.0001*%
%ADD503R,0.1260X0.0001*%
%ADD504R,0.1259X0.0001*%
%ADD505R,0.1256X0.0001*%
%ADD506R,0.1254X0.0001*%
%ADD507R,0.1253X0.0001*%
%ADD508R,0.1251X0.0001*%
%ADD509R,0.1251X0.0002*%
%ADD510R,0.1248X0.0001*%
%ADD511R,0.1245X0.0001*%
%ADD512R,0.1244X0.0001*%
%ADD513R,0.1242X0.0001*%
%ADD514R,0.1239X0.0001*%
%ADD515R,0.1237X0.0001*%
%ADD516R,0.1236X0.0002*%
%ADD517R,0.1233X0.0001*%
%ADD518R,0.1230X0.0001*%
%ADD519R,0.1229X0.0001*%
%ADD520R,0.1227X0.0001*%
%ADD521R,0.1226X0.0001*%
%ADD522R,0.1224X0.0001*%
%ADD523R,0.1223X0.0002*%
%ADD524R,0.1219X0.0001*%
%ADD525R,0.1216X0.0001*%
%ADD526R,0.1215X0.0001*%
%ADD527R,0.1214X0.0001*%
%ADD528R,0.1212X0.0001*%
%ADD529R,0.1209X0.0001*%
%ADD530R,0.1207X0.0002*%
%ADD531R,0.1206X0.0001*%
%ADD532R,0.1204X0.0001*%
%ADD533R,0.1201X0.0001*%
%ADD534R,0.1200X0.0001*%
%ADD535R,0.1199X0.0001*%
%ADD536R,0.1196X0.0001*%
%ADD537R,0.1194X0.0001*%
%ADD538R,0.1193X0.0001*%
%ADD539R,0.1191X0.0001*%
%ADD540R,0.1191X0.0002*%
%ADD541R,0.1188X0.0001*%
%ADD542R,0.1185X0.0001*%
%ADD543R,0.1184X0.0001*%
%ADD544R,0.1181X0.0001*%
%ADD545R,0.1177X0.0001*%
%ADD546R,0.1176X0.0001*%
%ADD547R,0.1174X0.0001*%
%ADD548R,0.1173X0.0001*%
%ADD549R,0.1170X0.0002*%
%ADD550R,0.1170X0.0001*%
%ADD551R,0.1169X0.0001*%
%ADD552R,0.1166X0.0001*%
%ADD553R,0.1164X0.0001*%
%ADD554R,0.1163X0.0001*%
%ADD555R,0.1163X0.0002*%
%ADD556R,0.1167X0.0001*%
%ADD557R,0.1171X0.0001*%
%ADD558R,0.1179X0.0001*%
%ADD559R,0.1182X0.0001*%
%ADD560R,0.1182X0.0002*%
%ADD561R,0.1188X0.0001*%
%ADD562R,0.1190X0.0001*%
%ADD563R,0.1197X0.0001*%
%ADD564R,0.1204X0.0002*%
%ADD565R,0.1207X0.0001*%
%ADD566R,0.1210X0.0001*%
%ADD567R,0.1213X0.0001*%
%ADD568R,0.1217X0.0001*%
%ADD569R,0.1218X0.0001*%
%ADD570R,0.1220X0.0001*%
%ADD571R,0.1221X0.0001*%
%ADD572R,0.1223X0.0001*%
%ADD573R,0.1226X0.0002*%
%ADD574R,0.1236X0.0001*%
%ADD575R,0.1239X0.0001*%
%ADD576R,0.1240X0.0001*%
%ADD577R,0.1243X0.0001*%
%ADD578R,0.1248X0.0002*%
%ADD579R,0.1248X0.0001*%
%ADD580R,0.1251X0.0001*%
%ADD581R,0.1257X0.0001*%
%ADD582R,0.1263X0.0001*%
%ADD583R,0.1267X0.0002*%
%ADD584R,0.1270X0.0001*%
%ADD585R,0.1274X0.0001*%
%ADD586R,0.1275X0.0001*%
%ADD587R,0.1278X0.0001*%
%ADD588R,0.1280X0.0001*%
%ADD589R,0.1281X0.0001*%
%ADD590R,0.1284X0.0001*%
%ADD591R,0.1286X0.0001*%
%ADD592R,0.1289X0.0001*%
%ADD593R,0.1290X0.0002*%
%ADD594R,0.1291X0.0001*%
%ADD595R,0.1294X0.0001*%
%ADD596R,0.1296X0.0001*%
%ADD597R,0.1299X0.0001*%
%ADD598R,0.1300X0.0001*%
%ADD599R,0.1302X0.0001*%
%ADD600R,0.1304X0.0001*%
%ADD601R,0.1306X0.0001*%
%ADD602R,0.1308X0.0001*%
%ADD603R,0.1311X0.0002*%
%ADD604R,0.1313X0.0001*%
%ADD605R,0.1316X0.0001*%
%ADD606R,0.1317X0.0001*%
%ADD607R,0.1320X0.0001*%
%ADD608R,0.1323X0.0001*%
%ADD609R,0.1326X0.0001*%
%ADD610R,0.1329X0.0001*%
%ADD611R,0.1332X0.0002*%
%ADD612R,0.1335X0.0001*%
%ADD613R,0.1336X0.0001*%
%ADD614R,0.1340X0.0001*%
%ADD615R,0.1343X0.0001*%
%ADD616R,0.1346X0.0001*%
%ADD617R,0.1347X0.0001*%
%ADD618R,0.1350X0.0001*%
%ADD619R,0.1353X0.0002*%
%ADD620R,0.1356X0.0001*%
%ADD621R,0.1357X0.0001*%
%ADD622R,0.1360X0.0001*%
%ADD623R,0.1364X0.0001*%
%ADD624R,0.1365X0.0001*%
%ADD625R,0.1368X0.0001*%
%ADD626R,0.1369X0.0001*%
%ADD627R,0.1373X0.0001*%
%ADD628R,0.1374X0.0002*%
%ADD629R,0.1377X0.0001*%
%ADD630R,0.1379X0.0001*%
%ADD631R,0.1380X0.0001*%
%ADD632R,0.1383X0.0001*%
%ADD633R,0.1386X0.0001*%
%ADD634R,0.1387X0.0001*%
%ADD635R,0.1391X0.0001*%
%ADD636R,0.1394X0.0001*%
%ADD637R,0.1395X0.0002*%
%ADD638R,0.1398X0.0001*%
%ADD639R,0.1401X0.0001*%
%ADD640R,0.1403X0.0001*%
%ADD641R,0.1406X0.0001*%
%ADD642R,0.1407X0.0001*%
%ADD643R,0.1409X0.0001*%
%ADD644R,0.1411X0.0001*%
%ADD645R,0.1414X0.0001*%
%ADD646R,0.1416X0.0002*%
%ADD647R,0.1419X0.0001*%
%ADD648R,0.1421X0.0001*%
%ADD649R,0.1422X0.0001*%
%ADD650R,0.1424X0.0001*%
%ADD651R,0.1426X0.0001*%
%ADD652R,0.1428X0.0001*%
%ADD653R,0.1429X0.0002*%
%ADD654R,0.1429X0.0001*%
%ADD655R,0.1425X0.0001*%
%ADD656R,0.1421X0.0002*%
%ADD657R,0.1418X0.0001*%
%ADD658R,0.1416X0.0001*%
%ADD659R,0.1413X0.0001*%
%ADD660R,0.1410X0.0001*%
%ADD661R,0.1404X0.0001*%
%ADD662R,0.1401X0.0001*%
%ADD663R,0.0346X0.0001*%
%ADD664R,0.1044X0.0001*%
%ADD665R,0.0342X0.0002*%
%ADD666R,0.1040X0.0002*%
%ADD667R,0.0337X0.0001*%
%ADD668R,0.1034X0.0001*%
%ADD669R,0.0357X0.0001*%
%ADD670R,0.0660X0.0001*%
%ADD671R,0.0353X0.0001*%
%ADD672R,0.0327X0.0001*%
%ADD673R,0.0349X0.0001*%
%ADD674R,0.0321X0.0001*%
%ADD675R,0.0648X0.0001*%
%ADD676R,0.0344X0.0001*%
%ADD677R,0.0317X0.0001*%
%ADD678R,0.0339X0.0001*%
%ADD679R,0.0312X0.0001*%
%ADD680R,0.0631X0.0001*%
%ADD681R,0.0334X0.0001*%
%ADD682R,0.0309X0.0001*%
%ADD683R,0.0307X0.0002*%
%ADD684R,0.0623X0.0002*%
%ADD685R,0.0327X0.0002*%
%ADD686R,0.0618X0.0001*%
%ADD687R,0.0297X0.0001*%
%ADD688R,0.0607X0.0001*%
%ADD689R,0.0320X0.0001*%
%ADD690R,0.0293X0.0001*%
%ADD691R,0.0599X0.0001*%
%ADD692R,0.0313X0.0001*%
%ADD693R,0.0285X0.0001*%
%ADD694R,0.0584X0.0001*%
%ADD695R,0.0303X0.0001*%
%ADD696R,0.0281X0.0001*%
%ADD697R,0.0273X0.0002*%
%ADD698R,0.0563X0.0002*%
%ADD699R,0.0293X0.0002*%
%ADD700R,0.0264X0.0001*%
%ADD701R,0.0259X0.0001*%
%ADD702R,0.0256X0.0001*%
%ADD703R,0.0276X0.0001*%
%ADD704R,0.0252X0.0001*%
%ADD705R,0.0273X0.0001*%
%ADD706R,0.0248X0.0001*%
%ADD707R,0.0269X0.0001*%
%ADD708R,0.0245X0.0001*%
%ADD709R,0.0240X0.0001*%
%ADD710R,0.0237X0.0002*%
%ADD711R,0.0256X0.0002*%
%ADD712R,0.0234X0.0001*%
%ADD713R,0.0232X0.0001*%
%ADD714R,0.0251X0.0001*%
%ADD715R,0.0228X0.0001*%
%ADD716R,0.0246X0.0001*%
%ADD717R,0.0456X0.0001*%
%ADD718R,0.0219X0.0001*%
%ADD719R,0.0444X0.0001*%
%ADD720R,0.0237X0.0001*%
%ADD721R,0.0214X0.0001*%
%ADD722R,0.0436X0.0001*%
%ADD723R,0.0432X0.0001*%
%ADD724R,0.0231X0.0001*%
%ADD725R,0.0210X0.0001*%
%ADD726R,0.0426X0.0001*%
%ADD727R,0.0420X0.0001*%
%ADD728R,0.0226X0.0001*%
%ADD729R,0.0204X0.0002*%
%ADD730R,0.0409X0.0002*%
%ADD731R,0.0222X0.0002*%
%ADD732R,0.0391X0.0001*%
%ADD733R,0.0217X0.0001*%
%ADD734R,0.0376X0.0001*%
%ADD735R,0.0368X0.0001*%
%ADD736R,0.0189X0.0001*%
%ADD737R,0.0361X0.0001*%
%ADD738R,0.0206X0.0001*%
%ADD739R,0.0186X0.0001*%
%ADD740R,0.0356X0.0001*%
%ADD741R,0.0181X0.0001*%
%ADD742R,0.0345X0.0001*%
%ADD743R,0.0173X0.0001*%
%ADD744R,0.0331X0.0001*%
%ADD745R,0.0190X0.0001*%
%ADD746R,0.0168X0.0001*%
%ADD747R,0.0165X0.0002*%
%ADD748R,0.0162X0.0001*%
%ADD749R,0.0159X0.0001*%
%ADD750R,0.0177X0.0001*%
%ADD751R,0.0156X0.0001*%
%ADD752R,0.0324X0.0001*%
%ADD753R,0.0174X0.0001*%
%ADD754R,0.0167X0.0001*%
%ADD755R,0.0146X0.0001*%
%ADD756R,0.0163X0.0001*%
%ADD757R,0.0141X0.0001*%
%ADD758R,0.0140X0.0001*%
%ADD759R,0.0137X0.0001*%
%ADD760R,0.0133X0.0001*%
%ADD761R,0.0129X0.0002*%
%ADD762R,0.0321X0.0002*%
%ADD763R,0.0146X0.0002*%
%ADD764R,0.0119X0.0001*%
%ADD765R,0.0129X0.0001*%
%ADD766R,0.0111X0.0001*%
%ADD767R,0.0126X0.0001*%
%ADD768R,0.0318X0.0001*%
%ADD769R,0.0097X0.0001*%
%ADD770R,0.0315X0.0001*%
%ADD771R,0.0089X0.0002*%
%ADD772R,0.0315X0.0002*%
%ADD773R,0.0105X0.0002*%
%ADD774R,0.0079X0.0001*%
%ADD775R,0.0089X0.0001*%
%ADD776R,0.0069X0.0001*%
%ADD777R,0.0084X0.0001*%
%ADD778R,0.0057X0.0001*%
%ADD779R,0.0052X0.0002*%
%ADD780R,0.0311X0.0002*%
%ADD781R,0.0066X0.0002*%
%ADD782R,0.0061X0.0001*%
%ADD783R,0.0042X0.0001*%
%ADD784R,0.0055X0.0001*%
%ADD785R,0.0039X0.0001*%
%ADD786R,0.0052X0.0001*%
%ADD787R,0.0036X0.0001*%
%ADD788R,0.0049X0.0001*%
%ADD789R,0.0307X0.0001*%
%ADD790R,0.0045X0.0001*%
%ADD791R,0.0022X0.0001*%
%ADD792R,0.0035X0.0001*%
%ADD793R,0.0025X0.0002*%
%ADD794R,0.0306X0.0001*%
%ADD795R,0.0018X0.0001*%
%ADD796R,0.0008X0.0001*%
%ADD797R,0.0300X0.0002*%
%ADD798R,0.0296X0.0001*%
%ADD799R,0.0294X0.0002*%
%ADD800R,0.0294X0.0001*%
%ADD801R,0.0291X0.0001*%
%ADD802R,0.0291X0.0002*%
%ADD803R,0.0286X0.0001*%
%ADD804R,0.0281X0.0002*%
%ADD805R,0.0277X0.0001*%
%ADD806R,0.0276X0.0001*%
%ADD807R,0.0266X0.0002*%
%ADD808R,0.0264X0.0001*%
%ADD809R,0.0261X0.0001*%
%ADD810R,0.0259X0.0002*%
%ADD811R,0.0254X0.0002*%
%ADD812R,0.0248X0.0002*%
%ADD813R,0.0218X0.0002*%
%ADD814R,0.0157X0.0001*%
%ADD815R,0.0001X0.0004*%
%ADD816C,0.0070*%
%ADD817C,0.0040*%
%ADD818C,0.0160*%
%ADD819C,0.0120*%
%ADD820C,0.0020*%
%ADD821C,0.0080*%
%ADD822R,0.0240X0.0620*%
%ADD823R,0.0327X0.0299*%
%ADD824R,0.0358X0.0299*%
%ADD825C,0.0060*%
%ADD826R,0.0551X0.0079*%
%ADD827R,0.0079X0.0079*%
%ADD828R,0.0079X0.0551*%
%ADD829R,0.0827X0.0118*%
%ADD830R,0.0900X0.0250*%
%ADD831C,0.0240*%
%ADD832C,0.0030*%
%ADD833R,0.0500X0.2000*%
%ADD834C,0.0500*%
D10*
X005677Y000150D02*
X005677Y039520D01*
X029299Y039520D01*
X029299Y000150D01*
X005677Y000150D01*
X006077Y003200D02*
X006077Y005700D01*
X009077Y005700D01*
X009077Y003200D01*
X006077Y003200D01*
X006952Y004950D02*
X007202Y004950D01*
X007952Y004950D02*
X008202Y004950D01*
X009077Y010050D02*
X006077Y010050D01*
X006077Y012550D01*
X009077Y012550D01*
X009077Y010050D01*
X010077Y010075D02*
X010077Y011825D01*
X010077Y012575D01*
X012077Y012575D01*
X012077Y011825D01*
X012077Y010075D01*
X010077Y010075D01*
X010952Y011825D02*
X011202Y011825D01*
X008202Y011800D02*
X007952Y011800D01*
X007202Y011800D02*
X006952Y011800D01*
X014317Y016972D02*
X014317Y021028D01*
X014316Y021028D02*
X014318Y021067D01*
X014324Y021105D01*
X014333Y021142D01*
X014346Y021179D01*
X014363Y021214D01*
X014382Y021247D01*
X014405Y021278D01*
X014431Y021307D01*
X014460Y021333D01*
X014491Y021356D01*
X014524Y021375D01*
X014559Y021392D01*
X014596Y021405D01*
X014633Y021414D01*
X014671Y021420D01*
X014710Y021422D01*
X014710Y021421D02*
X015478Y021421D01*
X018084Y021421D02*
X018844Y021421D01*
X018844Y021422D02*
X018883Y021420D01*
X018921Y021414D01*
X018958Y021405D01*
X018995Y021392D01*
X019030Y021375D01*
X019063Y021356D01*
X019094Y021333D01*
X019123Y021307D01*
X019149Y021278D01*
X019172Y021247D01*
X019191Y021214D01*
X019208Y021179D01*
X019221Y021142D01*
X019230Y021105D01*
X019236Y021067D01*
X019238Y021028D01*
X019238Y016972D01*
X019236Y016933D01*
X019230Y016895D01*
X019221Y016858D01*
X019208Y016821D01*
X019191Y016786D01*
X019172Y016753D01*
X019149Y016722D01*
X019123Y016693D01*
X019094Y016667D01*
X019063Y016644D01*
X019030Y016625D01*
X018995Y016608D01*
X018958Y016595D01*
X018921Y016586D01*
X018883Y016580D01*
X018844Y016578D01*
X018844Y016579D02*
X018084Y016579D01*
X015471Y016579D02*
X014710Y016579D01*
X014710Y016578D02*
X014671Y016580D01*
X014633Y016586D01*
X014596Y016595D01*
X014559Y016608D01*
X014524Y016625D01*
X014491Y016644D01*
X014460Y016667D01*
X014431Y016693D01*
X014405Y016722D01*
X014382Y016753D01*
X014363Y016786D01*
X014346Y016821D01*
X014333Y016858D01*
X014324Y016895D01*
X014318Y016933D01*
X014316Y016972D01*
X015585Y006689D02*
X016471Y006689D01*
X015585Y006689D02*
X015546Y006687D01*
X015508Y006681D01*
X015471Y006672D01*
X015434Y006659D01*
X015399Y006642D01*
X015366Y006623D01*
X015335Y006600D01*
X015306Y006574D01*
X015280Y006545D01*
X015257Y006514D01*
X015238Y006481D01*
X015221Y006446D01*
X015208Y006409D01*
X015199Y006372D01*
X015193Y006334D01*
X015191Y006295D01*
X015192Y006295D02*
X015192Y002555D01*
X015191Y002555D02*
X015193Y002516D01*
X015199Y002478D01*
X015208Y002441D01*
X015221Y002404D01*
X015238Y002369D01*
X015257Y002336D01*
X015280Y002305D01*
X015306Y002276D01*
X015335Y002250D01*
X015366Y002227D01*
X015399Y002208D01*
X015434Y002191D01*
X015471Y002178D01*
X015508Y002169D01*
X015546Y002163D01*
X015585Y002161D01*
X016471Y002161D01*
X016274Y001964D02*
X015999Y001672D01*
X016274Y001672D01*
X016274Y001964D01*
X016274Y001923D02*
X016235Y001923D01*
X016274Y001825D02*
X016143Y001825D01*
X016050Y001726D02*
X016274Y001726D01*
X017456Y002161D02*
X017849Y002161D01*
X018834Y002161D02*
X019719Y002161D01*
X019758Y002163D01*
X019796Y002169D01*
X019833Y002178D01*
X019870Y002191D01*
X019905Y002208D01*
X019938Y002227D01*
X019969Y002250D01*
X019998Y002276D01*
X020024Y002305D01*
X020047Y002336D01*
X020066Y002369D01*
X020083Y002404D01*
X020096Y002441D01*
X020105Y002478D01*
X020111Y002516D01*
X020113Y002555D01*
X020113Y006295D01*
X020111Y006334D01*
X020105Y006372D01*
X020096Y006409D01*
X020083Y006446D01*
X020066Y006481D01*
X020047Y006514D01*
X020024Y006545D01*
X019998Y006574D01*
X019969Y006600D01*
X019938Y006623D01*
X019905Y006642D01*
X019870Y006659D01*
X019833Y006672D01*
X019796Y006681D01*
X019758Y006687D01*
X019719Y006689D01*
X018834Y006689D01*
X017849Y006689D02*
X017456Y006689D01*
X028202Y031900D02*
X028202Y032150D01*
X028202Y032178D02*
X028478Y032670D01*
X027927Y032670D01*
X028202Y032178D01*
X028202Y032675D02*
X028202Y032925D01*
X022977Y034625D02*
X022227Y034625D01*
X017527Y034625D02*
X017532Y034843D01*
X017548Y035061D01*
X017575Y035278D01*
X017613Y035493D01*
X017660Y035706D01*
X017719Y035917D01*
X017787Y036124D01*
X017866Y036328D01*
X017954Y036528D01*
X018052Y036723D01*
X018160Y036913D01*
X018277Y037097D01*
X018403Y037276D01*
X018537Y037448D01*
X018680Y037613D01*
X018830Y037772D01*
X018989Y037922D01*
X019154Y038065D01*
X019326Y038199D01*
X019505Y038325D01*
X019689Y038442D01*
X019879Y038550D01*
X020074Y038648D01*
X020274Y038736D01*
X020478Y038815D01*
X020685Y038883D01*
X020896Y038942D01*
X021109Y038989D01*
X021324Y039027D01*
X021541Y039054D01*
X021759Y039070D01*
X021977Y039075D01*
X022195Y039070D01*
X022413Y039054D01*
X022630Y039027D01*
X022845Y038989D01*
X023058Y038942D01*
X023269Y038883D01*
X023476Y038815D01*
X023680Y038736D01*
X023880Y038648D01*
X024075Y038550D01*
X024265Y038442D01*
X024449Y038325D01*
X024628Y038199D01*
X024800Y038065D01*
X024965Y037922D01*
X025124Y037772D01*
X025274Y037613D01*
X025417Y037448D01*
X025551Y037276D01*
X025677Y037097D01*
X025794Y036913D01*
X025902Y036723D01*
X026000Y036528D01*
X026088Y036328D01*
X026167Y036124D01*
X026235Y035917D01*
X026294Y035706D01*
X026341Y035493D01*
X026379Y035278D01*
X026406Y035061D01*
X026422Y034843D01*
X026427Y034625D01*
X026422Y034407D01*
X026406Y034189D01*
X026379Y033972D01*
X026341Y033757D01*
X026294Y033544D01*
X026235Y033333D01*
X026167Y033126D01*
X026088Y032922D01*
X026000Y032722D01*
X025902Y032527D01*
X025794Y032337D01*
X025677Y032153D01*
X025551Y031974D01*
X025417Y031802D01*
X025274Y031637D01*
X025124Y031478D01*
X024965Y031328D01*
X024800Y031185D01*
X024628Y031051D01*
X024449Y030925D01*
X024265Y030808D01*
X024075Y030700D01*
X023880Y030602D01*
X023680Y030514D01*
X023476Y030435D01*
X023269Y030367D01*
X023058Y030308D01*
X022845Y030261D01*
X022630Y030223D01*
X022413Y030196D01*
X022195Y030180D01*
X021977Y030175D01*
X021759Y030180D01*
X021541Y030196D01*
X021324Y030223D01*
X021109Y030261D01*
X020896Y030308D01*
X020685Y030367D01*
X020478Y030435D01*
X020274Y030514D01*
X020074Y030602D01*
X019879Y030700D01*
X019689Y030808D01*
X019505Y030925D01*
X019326Y031051D01*
X019154Y031185D01*
X018989Y031328D01*
X018830Y031478D01*
X018680Y031637D01*
X018537Y031802D01*
X018403Y031974D01*
X018277Y032153D01*
X018160Y032337D01*
X018052Y032527D01*
X017954Y032722D01*
X017866Y032922D01*
X017787Y033126D01*
X017719Y033333D01*
X017660Y033544D01*
X017613Y033757D01*
X017575Y033972D01*
X017548Y034189D01*
X017532Y034407D01*
X017527Y034625D01*
X016996Y038536D02*
X016603Y038536D01*
X014161Y038535D02*
X014166Y038513D01*
X014167Y038490D01*
X014164Y038467D01*
X014158Y038445D01*
X014148Y038424D01*
X014135Y038405D01*
X014119Y038389D01*
X014100Y038375D01*
X014080Y038364D01*
X014058Y038357D01*
X014035Y038353D01*
X014013Y038353D01*
X013990Y038357D01*
X013968Y038364D01*
X013948Y038375D01*
X013929Y038389D01*
X013913Y038405D01*
X013900Y038424D01*
X013890Y038445D01*
X013884Y038467D01*
X013881Y038490D01*
X013882Y038513D01*
X013887Y038535D01*
X013885Y038536D02*
X013890Y038558D01*
X013891Y038581D01*
X013888Y038604D01*
X013882Y038626D01*
X013872Y038647D01*
X013859Y038666D01*
X013843Y038682D01*
X013824Y038696D01*
X013804Y038707D01*
X013782Y038714D01*
X013759Y038718D01*
X013737Y038718D01*
X013714Y038714D01*
X013692Y038707D01*
X013672Y038696D01*
X013653Y038682D01*
X013637Y038666D01*
X013624Y038647D01*
X013614Y038626D01*
X013608Y038604D01*
X013605Y038581D01*
X013606Y038558D01*
X013611Y038536D01*
X011169Y038535D02*
X011174Y038513D01*
X011175Y038490D01*
X011172Y038467D01*
X011166Y038445D01*
X011156Y038424D01*
X011143Y038405D01*
X011127Y038389D01*
X011108Y038375D01*
X011088Y038364D01*
X011066Y038357D01*
X011043Y038353D01*
X011021Y038353D01*
X010998Y038357D01*
X010976Y038364D01*
X010956Y038375D01*
X010937Y038389D01*
X010921Y038405D01*
X010908Y038424D01*
X010898Y038445D01*
X010892Y038467D01*
X010889Y038490D01*
X010890Y038513D01*
X010895Y038535D01*
X010893Y038536D02*
X010898Y038558D01*
X010899Y038581D01*
X010896Y038604D01*
X010890Y038626D01*
X010880Y038647D01*
X010867Y038666D01*
X010851Y038682D01*
X010832Y038696D01*
X010812Y038707D01*
X010790Y038714D01*
X010767Y038718D01*
X010745Y038718D01*
X010722Y038714D01*
X010700Y038707D01*
X010680Y038696D01*
X010661Y038682D01*
X010645Y038666D01*
X010632Y038647D01*
X010622Y038626D01*
X010616Y038604D01*
X010613Y038581D01*
X010614Y038558D01*
X010619Y038536D01*
X007154Y038536D02*
X006760Y038536D01*
X006957Y038733D02*
X006957Y038339D01*
X020627Y035375D02*
X021127Y035375D01*
X021357Y035625D02*
X021357Y034625D01*
X021357Y033625D01*
X021807Y033625D01*
X021807Y035625D01*
X021357Y035625D01*
X020877Y035625D02*
X020877Y035125D01*
X020977Y034625D02*
X021357Y034625D01*
D11*
X017534Y031219D02*
X017234Y031219D01*
X017384Y031219D02*
X017384Y031670D01*
X017234Y031520D01*
X017073Y031595D02*
X017073Y031444D01*
X016998Y031369D01*
X016773Y031369D01*
X016773Y031219D02*
X016773Y031670D01*
X016998Y031670D01*
X017073Y031595D01*
X016613Y031670D02*
X016613Y031219D01*
X016313Y031219D02*
X016313Y031670D01*
X016463Y031520D01*
X016613Y031670D01*
X016153Y031670D02*
X016003Y031670D01*
X016078Y031670D02*
X016078Y031294D01*
X016003Y031219D01*
X015927Y031219D01*
X015852Y031294D01*
X012895Y031320D02*
X012595Y031320D01*
X012745Y031320D02*
X012745Y031770D01*
X012595Y031620D01*
X012435Y031695D02*
X012360Y031770D01*
X012209Y031770D01*
X012134Y031695D01*
X012134Y031395D01*
X012209Y031320D01*
X012360Y031320D01*
X012435Y031395D01*
X011978Y031320D02*
X011827Y031320D01*
X011902Y031320D02*
X011902Y031770D01*
X011827Y031770D02*
X011978Y031770D01*
X010234Y031444D02*
X010159Y031444D01*
X010009Y031444D02*
X009709Y031444D01*
X009709Y031519D02*
X009709Y031369D01*
X009709Y031212D02*
X010009Y031212D01*
X010009Y030987D01*
X009934Y030912D01*
X009709Y030912D01*
X010009Y031444D02*
X010009Y031519D01*
X010084Y032139D02*
X010159Y032214D01*
X010159Y032365D01*
X010084Y032440D01*
X009784Y032440D01*
X009709Y032365D01*
X009709Y032214D01*
X009784Y032139D01*
X009709Y032600D02*
X010009Y032600D01*
X010159Y032750D01*
X010009Y032900D01*
X009709Y032900D01*
X009934Y032900D02*
X009934Y032600D01*
X009419Y031837D02*
X006072Y031837D01*
X006072Y034003D01*
X008856Y034003D01*
X008856Y029672D01*
X006072Y029672D01*
X006072Y031837D01*
X006452Y029482D02*
X006302Y029332D01*
X006452Y029482D02*
X006602Y029482D01*
X006752Y029332D01*
X006752Y029172D02*
X006752Y028871D01*
X006752Y029022D02*
X006302Y029022D01*
X006452Y028871D01*
X006452Y028711D02*
X006527Y028636D01*
X006527Y028411D01*
X006302Y028411D02*
X006302Y028636D01*
X006377Y028711D01*
X006452Y028711D01*
X006527Y028636D02*
X006602Y028711D01*
X006677Y028711D01*
X006752Y028636D01*
X006752Y028411D01*
X006302Y028411D01*
X006302Y028101D02*
X006752Y028101D01*
X006752Y027951D02*
X006752Y028251D01*
X006452Y027951D02*
X006302Y028101D01*
X006452Y027792D02*
X006452Y027717D01*
X006602Y027567D01*
X006752Y027567D02*
X006452Y027567D01*
X006302Y026946D02*
X006377Y026796D01*
X006527Y026646D01*
X006527Y026871D01*
X006602Y026946D01*
X006677Y026946D01*
X006752Y026871D01*
X006752Y026721D01*
X006677Y026646D01*
X006527Y026646D01*
X006752Y026486D02*
X006752Y026186D01*
X006752Y026336D02*
X006302Y026336D01*
X006452Y026186D01*
X006377Y026026D02*
X006677Y025725D01*
X006752Y025800D01*
X006752Y025951D01*
X006677Y026026D01*
X006377Y026026D01*
X006302Y025951D01*
X006302Y025800D01*
X006377Y025725D01*
X006677Y025725D01*
X006752Y025565D02*
X006752Y025265D01*
X006452Y025565D01*
X006377Y025565D01*
X006302Y025490D01*
X006302Y025340D01*
X006377Y025265D01*
X006302Y025105D02*
X006752Y024805D01*
X006677Y024644D02*
X006752Y024569D01*
X006752Y024419D01*
X006677Y024344D01*
X006677Y024184D02*
X006377Y024184D01*
X006677Y023884D01*
X006752Y023959D01*
X006752Y024109D01*
X006677Y024184D01*
X006377Y024184D02*
X006302Y024109D01*
X006302Y023959D01*
X006377Y023884D01*
X006677Y023884D01*
X006752Y023727D02*
X006602Y023577D01*
X006452Y023577D01*
X006302Y023727D01*
X006452Y022958D02*
X006452Y022883D01*
X006602Y022733D01*
X006752Y022733D02*
X006452Y022733D01*
X006527Y022573D02*
X006452Y022498D01*
X006452Y022348D01*
X006527Y022272D01*
X006677Y022272D01*
X006752Y022348D01*
X006752Y022498D01*
X006677Y022573D01*
X006527Y022573D01*
X006452Y022116D02*
X006452Y021966D01*
X006377Y022041D02*
X006677Y022041D01*
X006752Y022116D01*
X006752Y021805D02*
X006527Y021805D01*
X006452Y021730D01*
X006452Y021580D01*
X006602Y021580D02*
X006677Y021505D01*
X006752Y021580D01*
X006752Y021805D01*
X006602Y021805D02*
X006602Y021580D01*
X006752Y021348D02*
X006752Y021198D01*
X006752Y021273D02*
X006302Y021273D01*
X006302Y021198D01*
X006452Y021038D02*
X006752Y021038D01*
X006752Y020813D01*
X006677Y020738D01*
X006452Y020738D01*
X006452Y020578D02*
X006452Y020352D01*
X006527Y020277D01*
X006677Y020277D01*
X006752Y020352D01*
X006752Y020578D01*
X006827Y020578D02*
X006452Y020578D01*
X006827Y020578D02*
X006903Y020503D01*
X006903Y020428D01*
X006752Y020042D02*
X006752Y019892D01*
X006677Y019817D01*
X006527Y019817D01*
X006452Y019892D01*
X006452Y020042D01*
X006527Y020117D01*
X006602Y020117D01*
X006602Y019817D01*
X006452Y019659D02*
X006452Y019583D01*
X006602Y019433D01*
X006752Y019433D02*
X006452Y019433D01*
X006527Y019273D02*
X006527Y018973D01*
X006527Y018813D02*
X006602Y018813D01*
X006602Y018513D01*
X006677Y018513D02*
X006527Y018513D01*
X006452Y018588D01*
X006452Y018738D01*
X006527Y018813D01*
X006752Y018738D02*
X006752Y018588D01*
X006677Y018513D01*
X006452Y018354D02*
X006452Y018279D01*
X006602Y018129D01*
X006752Y018129D02*
X006452Y018129D01*
X006527Y017969D02*
X006677Y017969D01*
X006752Y017894D01*
X006752Y017669D01*
X006903Y017669D02*
X006452Y017669D01*
X006452Y017894D01*
X006527Y017969D01*
X006602Y017048D02*
X006527Y016973D01*
X006527Y016823D01*
X006452Y016748D01*
X006377Y016748D01*
X006302Y016823D01*
X006302Y016973D01*
X006377Y017048D01*
X006602Y017048D02*
X006677Y017048D01*
X006752Y016973D01*
X006752Y016823D01*
X006677Y016748D01*
X006527Y016588D02*
X006602Y016513D01*
X006602Y016287D01*
X006752Y016287D02*
X006302Y016287D01*
X006302Y016513D01*
X006377Y016588D01*
X006527Y016588D01*
X006302Y016127D02*
X006752Y016127D01*
X006752Y015827D02*
X006302Y015827D01*
X006452Y015977D01*
X006302Y016127D01*
X006377Y015667D02*
X006302Y015592D01*
X006302Y015442D01*
X006377Y015367D01*
X006452Y015367D01*
X006527Y015442D01*
X006527Y015592D01*
X006602Y015667D01*
X006677Y015667D01*
X006752Y015592D01*
X006752Y015442D01*
X006677Y015367D01*
X006752Y014746D02*
X006752Y014446D01*
X006677Y014446D01*
X006377Y014746D01*
X006302Y014746D01*
X006302Y014446D01*
X006302Y014286D02*
X006302Y013985D01*
X006752Y013985D01*
X006752Y014286D01*
X006527Y014136D02*
X006527Y013985D01*
X006302Y013825D02*
X006302Y013525D01*
X006752Y013525D01*
X006752Y013825D01*
X006527Y013675D02*
X006527Y013525D01*
X006278Y013200D02*
X006127Y013200D01*
X006052Y013125D01*
X006052Y013050D01*
X006127Y012975D01*
X006278Y012975D01*
X006353Y012900D01*
X006353Y012825D01*
X006278Y012750D01*
X006127Y012750D01*
X006052Y012825D01*
X006353Y013125D02*
X006278Y013200D01*
X006513Y013050D02*
X006513Y012825D01*
X006588Y012750D01*
X006813Y012750D01*
X006813Y012675D02*
X006738Y012600D01*
X006663Y012600D01*
X006813Y012675D02*
X006813Y013050D01*
X006973Y013050D02*
X007198Y013050D01*
X007273Y012975D01*
X007273Y012750D01*
X007434Y012825D02*
X007509Y012750D01*
X007734Y012750D01*
X007734Y013050D02*
X007509Y013050D01*
X007434Y012975D01*
X007434Y012825D01*
X006973Y012750D02*
X006973Y013050D01*
X008354Y013125D02*
X008354Y012825D01*
X008429Y012750D01*
X008580Y012750D01*
X008655Y012825D01*
X008655Y013125D01*
X008580Y013200D01*
X008429Y013200D01*
X008354Y013125D01*
X008815Y013050D02*
X008815Y012825D01*
X008890Y012750D01*
X009115Y012750D01*
X009115Y013050D01*
X009275Y013050D02*
X009425Y013050D01*
X009350Y013125D02*
X009350Y012825D01*
X009425Y012750D01*
X010302Y013225D02*
X010603Y013225D01*
X010453Y013225D02*
X010453Y012775D01*
X010763Y012850D02*
X010763Y013000D01*
X010838Y013075D01*
X010988Y013075D01*
X011063Y013000D01*
X011063Y012925D01*
X010763Y012925D01*
X010763Y012850D02*
X010838Y012775D01*
X010988Y012775D01*
X011223Y012775D02*
X011223Y013075D01*
X011298Y013075D01*
X011373Y013000D01*
X011448Y013075D01*
X011523Y013000D01*
X011523Y012775D01*
X011373Y012775D02*
X011373Y013000D01*
X011684Y013075D02*
X011684Y012625D01*
X011684Y012775D02*
X011909Y012775D01*
X011984Y012850D01*
X011984Y013000D01*
X011909Y013075D01*
X011684Y013075D01*
X011288Y009425D02*
X010988Y009425D01*
X010988Y009200D01*
X011138Y009275D01*
X011213Y009275D01*
X011288Y009200D01*
X011288Y009050D01*
X011213Y008975D01*
X011063Y008975D01*
X010988Y009050D01*
X010828Y008975D02*
X010527Y008975D01*
X010527Y009425D01*
X012162Y007485D02*
X012313Y007485D01*
X012237Y007485D02*
X012237Y007035D01*
X012162Y007035D02*
X012313Y007035D01*
X012469Y007110D02*
X012544Y007035D01*
X012695Y007035D01*
X012770Y007110D01*
X012930Y007110D02*
X013005Y007035D01*
X013155Y007035D01*
X013230Y007110D01*
X013230Y007260D01*
X013155Y007335D01*
X013080Y007335D01*
X012930Y007260D01*
X012930Y007485D01*
X013230Y007485D01*
X012770Y007410D02*
X012695Y007485D01*
X012544Y007485D01*
X012469Y007410D01*
X012469Y007110D01*
X017140Y001581D02*
X017440Y001581D01*
X017290Y001581D02*
X017290Y001131D01*
X017601Y001131D02*
X017601Y001581D01*
X017826Y001581D01*
X017901Y001506D01*
X017901Y001356D01*
X017826Y001281D01*
X017601Y001281D01*
X017751Y001281D02*
X017901Y001131D01*
X018061Y001131D02*
X018361Y001131D01*
X018211Y001131D02*
X018211Y001581D01*
X018061Y001431D01*
X020252Y001400D02*
X020478Y001400D01*
X020553Y001475D01*
X020553Y001775D01*
X020478Y001850D01*
X020252Y001850D01*
X020252Y001400D01*
X020713Y001625D02*
X021013Y001625D01*
X020938Y001400D02*
X020938Y001850D01*
X020713Y001625D01*
X025742Y002775D02*
X025893Y002775D01*
X025817Y002775D02*
X025817Y003225D01*
X025742Y003225D02*
X025893Y003225D01*
X026049Y003150D02*
X026049Y002850D01*
X026124Y002775D01*
X026275Y002775D01*
X026350Y002850D01*
X026510Y002850D02*
X026585Y002775D01*
X026735Y002775D01*
X026810Y002850D01*
X026810Y002925D01*
X026735Y003000D01*
X026660Y003000D01*
X026735Y003000D02*
X026810Y003075D01*
X026810Y003150D01*
X026735Y003225D01*
X026585Y003225D01*
X026510Y003150D01*
X026350Y003150D02*
X026275Y003225D01*
X026124Y003225D01*
X026049Y003150D01*
X027544Y005644D02*
X027770Y005644D01*
X027845Y005719D01*
X027845Y006019D01*
X027770Y006094D01*
X027544Y006094D01*
X027544Y005644D01*
X028005Y005719D02*
X028080Y005644D01*
X028230Y005644D01*
X028305Y005719D01*
X028305Y005869D01*
X028230Y005944D01*
X028155Y005944D01*
X028005Y005869D01*
X028005Y006094D01*
X028305Y006094D01*
X027410Y010325D02*
X027410Y010775D01*
X027185Y010550D01*
X027485Y010550D01*
X027025Y010400D02*
X026950Y010325D01*
X026799Y010325D01*
X026724Y010400D01*
X026724Y010700D01*
X026799Y010775D01*
X026950Y010775D01*
X027025Y010700D01*
X026568Y010775D02*
X026417Y010775D01*
X026492Y010775D02*
X026492Y010325D01*
X026417Y010325D02*
X026568Y010325D01*
X026852Y011475D02*
X026852Y011725D01*
X026727Y011600D02*
X026977Y011600D01*
X026735Y014000D02*
X026810Y014075D01*
X026810Y014150D01*
X026735Y014225D01*
X026510Y014225D01*
X026510Y014075D01*
X026585Y014000D01*
X026735Y014000D01*
X026510Y014225D02*
X026660Y014375D01*
X026810Y014450D01*
X026350Y014375D02*
X026275Y014450D01*
X026124Y014450D01*
X026049Y014375D01*
X026049Y014075D01*
X026124Y014000D01*
X026275Y014000D01*
X026350Y014075D01*
X025893Y014000D02*
X025742Y014000D01*
X025817Y014000D02*
X025817Y014450D01*
X025742Y014450D02*
X025893Y014450D01*
X025302Y016238D02*
X025302Y016505D01*
X025302Y016372D02*
X025703Y016372D01*
X025569Y016505D01*
X024703Y016438D02*
X024703Y016305D01*
X024636Y016238D01*
X024569Y016238D01*
X024302Y016505D01*
X024302Y016238D01*
X024636Y016505D02*
X024703Y016438D01*
X027337Y016330D02*
X027638Y015880D01*
X027798Y015880D02*
X028098Y016180D01*
X028098Y016255D01*
X028023Y016330D01*
X027873Y016330D01*
X027798Y016255D01*
X027638Y016330D02*
X027337Y015880D01*
X027798Y015880D02*
X028098Y015880D01*
X020858Y011340D02*
X020858Y010890D01*
X020933Y011115D02*
X020633Y011115D01*
X020858Y011340D01*
X020473Y011265D02*
X020473Y011190D01*
X020398Y011115D01*
X020473Y011040D01*
X020473Y010965D01*
X020398Y010890D01*
X020248Y010890D01*
X020173Y010965D01*
X020013Y010965D02*
X019938Y010890D01*
X019787Y010890D01*
X019712Y010965D01*
X019712Y011265D01*
X019787Y011340D01*
X019938Y011340D01*
X020013Y011265D01*
X020173Y011265D02*
X020248Y011340D01*
X020398Y011340D01*
X020473Y011265D01*
X020398Y011115D02*
X020323Y011115D01*
X020367Y015875D02*
X020367Y015950D01*
X020667Y016250D01*
X020667Y016325D01*
X020367Y016325D01*
X020057Y016325D02*
X020057Y015875D01*
X019907Y015875D02*
X020207Y015875D01*
X019907Y016175D02*
X020057Y016325D01*
X019747Y016250D02*
X019671Y016325D01*
X019521Y016325D01*
X019446Y016250D01*
X019446Y015950D01*
X019521Y015875D01*
X019671Y015875D01*
X019747Y015950D01*
X019702Y021215D02*
X019853Y021215D01*
X019928Y021290D01*
X020088Y021215D02*
X020388Y021215D01*
X020238Y021215D02*
X020238Y021665D01*
X020088Y021515D01*
X019928Y021590D02*
X019853Y021665D01*
X019702Y021665D01*
X019627Y021590D01*
X019627Y021290D01*
X019702Y021215D01*
X020548Y021215D02*
X020848Y021515D01*
X020848Y021590D01*
X020773Y021665D01*
X020623Y021665D01*
X020548Y021590D01*
X020548Y021215D02*
X020848Y021215D01*
X016263Y024125D02*
X015963Y024125D01*
X016263Y024425D01*
X016263Y024500D01*
X016188Y024575D01*
X016038Y024575D01*
X015963Y024500D01*
X015803Y024500D02*
X015803Y024200D01*
X015728Y024125D01*
X015502Y024125D01*
X015502Y024575D01*
X015728Y024575D01*
X015803Y024500D01*
X013976Y019180D02*
X013976Y018729D01*
X013826Y018729D02*
X014126Y018729D01*
X013826Y019030D02*
X013976Y019180D01*
X013665Y018729D02*
X013365Y018729D01*
X013365Y019180D01*
X012633Y019210D02*
X012333Y019210D01*
X012558Y019435D01*
X012558Y018985D01*
X012173Y018985D02*
X011873Y018985D01*
X012023Y018985D02*
X012023Y019435D01*
X011873Y019285D01*
X011713Y019360D02*
X011638Y019435D01*
X011487Y019435D01*
X011412Y019360D01*
X011412Y019060D01*
X011487Y018985D01*
X011638Y018985D01*
X011713Y019060D01*
X014627Y016196D02*
X014702Y016046D01*
X014852Y015896D01*
X014852Y016121D01*
X014927Y016196D01*
X015002Y016196D01*
X015077Y016121D01*
X015077Y015971D01*
X015002Y015896D01*
X014852Y015896D01*
X015077Y015736D02*
X015077Y015435D01*
X015077Y015586D02*
X014627Y015586D01*
X014777Y015435D01*
X014702Y015275D02*
X014627Y015200D01*
X014627Y015050D01*
X014702Y014975D01*
X015002Y014975D01*
X015077Y015050D01*
X015077Y015200D01*
X015002Y015275D01*
X011902Y026479D02*
X011452Y026479D01*
X011452Y026704D01*
X011527Y026779D01*
X011677Y026779D01*
X011752Y026704D01*
X011752Y026479D01*
X011752Y026629D02*
X011902Y026779D01*
X011827Y026940D02*
X011902Y027015D01*
X011902Y027165D01*
X011827Y027240D01*
X011752Y027240D01*
X011677Y027165D01*
X011677Y027090D01*
X011677Y027165D02*
X011602Y027240D01*
X011527Y027240D01*
X011452Y027165D01*
X011452Y027015D01*
X011527Y026940D01*
X009419Y029672D02*
X008856Y029672D01*
X009419Y029672D02*
X009419Y031837D01*
X009419Y034003D01*
X008856Y034003D01*
X008903Y034188D02*
X008603Y034639D01*
X008903Y034639D02*
X008603Y034188D01*
X009063Y034188D02*
X009363Y034188D01*
X009213Y034188D02*
X009213Y034639D01*
X009063Y034489D01*
X011653Y036435D02*
X011878Y036435D01*
X011953Y036510D01*
X011953Y036586D01*
X011878Y036661D01*
X011653Y036661D01*
X011653Y036886D02*
X011878Y036886D01*
X011953Y036811D01*
X011953Y036736D01*
X011878Y036661D01*
X012114Y036736D02*
X012264Y036886D01*
X012264Y036435D01*
X012114Y036435D02*
X012414Y036435D01*
X011653Y036435D02*
X011653Y036886D01*
X019877Y028675D02*
X020028Y028675D01*
X020103Y028600D01*
X020103Y028300D01*
X020028Y028225D01*
X019877Y028225D01*
X019802Y028300D01*
X019802Y028600D01*
X019877Y028675D01*
X019953Y028375D02*
X020103Y028225D01*
X020263Y028225D02*
X020563Y028225D01*
X020413Y028225D02*
X020413Y028675D01*
X020263Y028525D01*
X026462Y031035D02*
X026537Y030960D01*
X026688Y030960D01*
X026763Y031035D01*
X026923Y031035D02*
X026998Y030960D01*
X027148Y030960D01*
X027223Y031035D01*
X027223Y031185D01*
X027148Y031260D01*
X027073Y031260D01*
X026923Y031185D01*
X026923Y031410D01*
X027223Y031410D01*
X026763Y031335D02*
X026688Y031410D01*
X026537Y031410D01*
X026462Y031335D01*
X026462Y031035D01*
X027888Y033915D02*
X028113Y033915D01*
X028188Y033990D01*
X028188Y034291D01*
X028113Y034366D01*
X027888Y034366D01*
X027888Y033915D01*
X028348Y033915D02*
X028649Y033915D01*
X028499Y033915D02*
X028499Y034366D01*
X028348Y034216D01*
X006677Y024644D02*
X006602Y024644D01*
X006527Y024569D01*
X006527Y024494D01*
X006527Y024569D02*
X006452Y024644D01*
X006377Y024644D01*
X006302Y024569D01*
X006302Y024419D01*
X006377Y024344D01*
D12*
X008911Y016528D03*
D13*
X008622Y015957D03*
X009443Y016044D03*
X009761Y015974D03*
D14*
X008622Y015959D03*
D15*
X008622Y015960D03*
D16*
X008622Y015961D03*
D17*
X008622Y015963D03*
X008631Y017401D03*
D18*
X008622Y015964D03*
X009447Y016053D03*
D19*
X009449Y016054D03*
X008622Y015966D03*
D20*
X008622Y015968D03*
D21*
X008622Y015969D03*
D22*
X008622Y015971D03*
X009761Y015987D03*
D23*
X008623Y015972D03*
D24*
X008624Y015974D03*
X008925Y016054D03*
X009456Y016064D03*
D25*
X009458Y016065D03*
X009759Y015993D03*
X008624Y015975D03*
D26*
X009442Y016047D03*
X009762Y015975D03*
D27*
X009759Y015994D03*
X008922Y016059D03*
X008624Y015976D03*
D28*
X009761Y015976D03*
D29*
X009461Y016069D03*
X008921Y016061D03*
X008624Y015978D03*
D30*
X009762Y015978D03*
D31*
X008624Y015979D03*
D32*
X009445Y016051D03*
X009762Y015979D03*
D33*
X008919Y016062D03*
X008624Y015981D03*
D34*
X008935Y016044D03*
X009762Y015981D03*
X009724Y017406D03*
D35*
X008625Y015983D03*
D36*
X009762Y015983D03*
D37*
X009758Y016002D03*
X008625Y015984D03*
D38*
X008931Y016050D03*
X009450Y016056D03*
X009761Y015984D03*
D39*
X009467Y016077D03*
X008913Y016069D03*
X008625Y015986D03*
X008634Y017376D03*
D40*
X008633Y017394D03*
X009761Y015986D03*
D41*
X009758Y016005D03*
X008912Y016071D03*
X008625Y015987D03*
X009164Y017594D03*
X009722Y017382D03*
D42*
X008626Y015989D03*
D43*
X009761Y015989D03*
D44*
X009757Y016006D03*
X009469Y016081D03*
X008626Y015990D03*
X009721Y017381D03*
D45*
X009761Y015990D03*
D46*
X008627Y015991D03*
D47*
X008634Y017389D03*
X009760Y015991D03*
D48*
X009472Y016084D03*
X008626Y015993D03*
X009721Y017376D03*
D49*
X008627Y015994D03*
D50*
X008628Y015996D03*
X008905Y016080D03*
X009475Y016091D03*
X009720Y017373D03*
D51*
X009723Y017391D03*
X009759Y015996D03*
D52*
X008628Y015998D03*
D53*
X009759Y015998D03*
D54*
X009720Y017371D03*
X008637Y017364D03*
X008628Y015999D03*
D55*
X009759Y015999D03*
X009723Y017388D03*
D56*
X008628Y016001D03*
D57*
X008917Y016064D03*
X009759Y016001D03*
X009723Y017386D03*
D58*
X009480Y016096D03*
X008628Y016002D03*
D59*
X008628Y016004D03*
X008898Y016089D03*
X009755Y016023D03*
D60*
X009757Y016004D03*
X008914Y016068D03*
D61*
X008628Y016005D03*
D62*
X008629Y016006D03*
D63*
X008629Y016008D03*
X009484Y016106D03*
D64*
X009756Y016008D03*
D65*
X009718Y017361D03*
X008638Y017354D03*
X008629Y016009D03*
D66*
X008635Y017373D03*
X009721Y017379D03*
X009757Y016009D03*
D67*
X008629Y016011D03*
D68*
X009756Y016011D03*
D69*
X008630Y016013D03*
D70*
X009756Y016013D03*
D71*
X008630Y016014D03*
D72*
X009756Y016014D03*
D73*
X008631Y016016D03*
D74*
X008905Y016081D03*
X009477Y016092D03*
X009756Y016016D03*
D75*
X008631Y016017D03*
D76*
X009756Y016017D03*
D77*
X009752Y016038D03*
X008631Y016019D03*
D78*
X009755Y016019D03*
D79*
X008631Y016020D03*
D80*
X008901Y016084D03*
X009755Y016020D03*
D81*
X009717Y017349D03*
X008631Y016021D03*
D82*
X008901Y016086D03*
X009754Y016021D03*
X009720Y017367D03*
D83*
X008632Y016023D03*
D84*
X008633Y016024D03*
X008640Y017337D03*
D85*
X009754Y016024D03*
D86*
X009750Y016047D03*
X009182Y017591D03*
X008640Y017336D03*
X008633Y016026D03*
D87*
X009483Y016104D03*
X009753Y016026D03*
D88*
X008633Y016028D03*
D89*
X009753Y016028D03*
D90*
X008633Y016029D03*
X008640Y017334D03*
D91*
X009753Y016029D03*
D92*
X009750Y016051D03*
X009715Y017340D03*
X008634Y016031D03*
D93*
X009753Y016031D03*
X009718Y017359D03*
D94*
X008641Y017331D03*
X008634Y016032D03*
D95*
X009753Y016032D03*
D96*
X008634Y016034D03*
D97*
X009753Y016034D03*
D98*
X009748Y016056D03*
X008635Y016035D03*
D99*
X009752Y016035D03*
D100*
X008635Y016036D03*
D101*
X008940Y016036D03*
D102*
X009752Y016036D03*
D103*
X008635Y016038D03*
D104*
X008940Y016038D03*
D105*
X008636Y016039D03*
X008642Y017324D03*
X009183Y017586D03*
D106*
X008940Y016039D03*
D107*
X009752Y016039D03*
D108*
X009747Y016062D03*
X008637Y016041D03*
D109*
X008938Y016041D03*
D110*
X009752Y016041D03*
X008639Y017343D03*
D111*
X008637Y016043D03*
D112*
X008937Y016043D03*
D113*
X009751Y016043D03*
X009717Y017348D03*
D114*
X009746Y016066D03*
X008637Y016044D03*
D115*
X009751Y016044D03*
D116*
X009746Y016068D03*
X009711Y017324D03*
X008637Y016046D03*
D117*
X008934Y016046D03*
X008632Y017400D03*
D118*
X008632Y017404D03*
X009442Y016046D03*
D119*
X009751Y016046D03*
D120*
X009745Y016069D03*
X009183Y017579D03*
X008638Y016047D03*
D121*
X008933Y016047D03*
D122*
X008638Y016049D03*
X009745Y016071D03*
D123*
X008933Y016049D03*
D124*
X009443Y016049D03*
D125*
X009750Y016049D03*
X009716Y017343D03*
D126*
X008639Y016050D03*
D127*
X009444Y016050D03*
D128*
X009750Y016050D03*
X009715Y017341D03*
D129*
X009710Y017319D03*
X009182Y017553D03*
X009182Y017554D03*
X009182Y017556D03*
X009182Y017559D03*
X008639Y016051D03*
D130*
X008931Y016051D03*
X009451Y016059D03*
X009724Y017400D03*
D131*
X009709Y017316D03*
X009183Y017546D03*
X009744Y016076D03*
X008640Y016053D03*
D132*
X008928Y016053D03*
X009454Y016062D03*
D133*
X009749Y016053D03*
X009714Y017337D03*
D134*
X008640Y016054D03*
D135*
X008641Y017328D03*
X009714Y017336D03*
X009748Y016054D03*
D136*
X009742Y016080D03*
X009181Y017524D03*
X009181Y017526D03*
X008647Y017304D03*
X008641Y016056D03*
D137*
X008925Y016056D03*
X008634Y017388D03*
D138*
X009181Y017513D03*
X008641Y016058D03*
D139*
X008923Y016058D03*
D140*
X009451Y016058D03*
D141*
X009748Y016058D03*
D142*
X009182Y017502D03*
X009182Y017504D03*
X009182Y017505D03*
X009182Y017506D03*
X009182Y017508D03*
X008642Y016059D03*
D143*
X009747Y016059D03*
D144*
X009182Y017494D03*
X008642Y016061D03*
D145*
X009453Y016061D03*
D146*
X009747Y016061D03*
D147*
X009707Y017309D03*
X008648Y017301D03*
X008642Y016062D03*
D148*
X008643Y016064D03*
X008649Y017298D03*
X009181Y017478D03*
X009181Y017479D03*
D149*
X009747Y016064D03*
D150*
X009741Y016089D03*
X009706Y017304D03*
X009181Y017457D03*
X009181Y017459D03*
X009181Y017460D03*
X009181Y017461D03*
X009181Y017463D03*
X009181Y017464D03*
X009181Y017466D03*
X008649Y017295D03*
X008643Y016065D03*
D151*
X008915Y016065D03*
D152*
X009746Y016065D03*
D153*
X009740Y016091D03*
X008643Y016066D03*
D154*
X008914Y016066D03*
D155*
X009459Y016066D03*
X008634Y017386D03*
D156*
X008643Y016068D03*
D157*
X009460Y016068D03*
D158*
X008644Y016069D03*
D159*
X008644Y016071D03*
X009180Y017421D03*
X009180Y017424D03*
X009180Y017426D03*
X009705Y017299D03*
D160*
X009723Y017389D03*
X009462Y016071D03*
X008634Y017384D03*
D161*
X008645Y016073D03*
D162*
X008910Y016073D03*
D163*
X009463Y016073D03*
D164*
X009744Y016073D03*
D165*
X009181Y017397D03*
X009181Y017399D03*
X009181Y017400D03*
X008646Y016074D03*
D166*
X008908Y016074D03*
X009471Y016083D03*
X008635Y017371D03*
D167*
X008634Y017381D03*
X009465Y016074D03*
D168*
X009744Y016074D03*
X009183Y017551D03*
D169*
X009180Y017386D03*
X009180Y017385D03*
X009180Y017384D03*
X009180Y017382D03*
X009180Y017381D03*
X009737Y016101D03*
X008646Y016076D03*
D170*
X008907Y016076D03*
D171*
X009466Y016076D03*
X008634Y017379D03*
D172*
X009179Y017374D03*
X009179Y017373D03*
X008646Y016077D03*
D173*
X008907Y016077D03*
X008636Y017369D03*
X009720Y017374D03*
D174*
X009708Y017314D03*
X009182Y017535D03*
X009182Y017536D03*
X009182Y017538D03*
X008646Y017307D03*
X009743Y016077D03*
D175*
X008646Y016079D03*
D176*
X008907Y016079D03*
D177*
X009468Y016079D03*
D178*
X009743Y016079D03*
X009182Y017529D03*
X009182Y017531D03*
X009182Y017532D03*
D179*
X008647Y016080D03*
D180*
X009468Y016080D03*
D181*
X008647Y016081D03*
D182*
X009181Y017509D03*
X009181Y017511D03*
X009181Y017514D03*
X009181Y017516D03*
X009742Y016081D03*
D183*
X009180Y017346D03*
X008648Y016083D03*
D184*
X008903Y016083D03*
X009477Y016094D03*
D185*
X009741Y016083D03*
D186*
X008649Y016084D03*
X008653Y017276D03*
D187*
X009181Y017484D03*
X009181Y017486D03*
X009741Y016084D03*
D188*
X009181Y017343D03*
X008649Y016086D03*
D189*
X009474Y016086D03*
D190*
X009740Y016086D03*
X009707Y017306D03*
X009180Y017475D03*
X009180Y017476D03*
D191*
X008649Y016088D03*
D192*
X008900Y016088D03*
D193*
X009474Y016088D03*
D194*
X009740Y016088D03*
X009180Y017468D03*
D195*
X008649Y016089D03*
D196*
X009474Y016089D03*
X008636Y017367D03*
D197*
X008739Y016530D03*
X008763Y016503D03*
X008760Y016196D03*
X008721Y016091D03*
X009593Y016264D03*
X009594Y016261D03*
X009654Y016109D03*
D198*
X009603Y016246D03*
X009601Y016249D03*
X009601Y016251D03*
X009600Y016254D03*
X009595Y016497D03*
X009594Y016874D03*
X009592Y016875D03*
X009591Y016876D03*
X008739Y016841D03*
X008764Y016501D03*
X008766Y016500D03*
X008755Y016188D03*
X008754Y016185D03*
X008752Y016182D03*
X008721Y016092D03*
D199*
X009739Y016092D03*
D200*
X009655Y016111D03*
X009604Y016244D03*
X009552Y016383D03*
X009589Y016879D03*
X008773Y016878D03*
X008767Y016497D03*
X008769Y016496D03*
X008818Y016366D03*
X008818Y016365D03*
X008751Y016179D03*
X008721Y016094D03*
D201*
X009738Y016094D03*
X009180Y017427D03*
D202*
X008775Y016881D03*
X008774Y016879D03*
X008735Y016531D03*
X008748Y016176D03*
X008748Y016174D03*
X008720Y016095D03*
X009551Y016384D03*
X009605Y016242D03*
X009606Y016241D03*
X009656Y016113D03*
X009587Y016881D03*
D203*
X009479Y016095D03*
D204*
X009737Y016095D03*
X008651Y017291D03*
D205*
X008736Y016839D03*
X008770Y016494D03*
X008748Y016173D03*
X008746Y016170D03*
X008719Y016096D03*
X009607Y016239D03*
X009609Y016236D03*
X009609Y016234D03*
X009610Y016233D03*
D206*
X009737Y016096D03*
X009704Y017296D03*
X009180Y017412D03*
X009180Y017414D03*
X009180Y017415D03*
X008651Y017289D03*
D207*
X008778Y016886D03*
X008719Y016099D03*
X008719Y016098D03*
X009618Y016219D03*
X009588Y016488D03*
D208*
X009480Y016098D03*
D209*
X009737Y016098D03*
D210*
X009481Y016099D03*
X009720Y017366D03*
D211*
X009180Y017388D03*
X009180Y017389D03*
X009180Y017391D03*
X009180Y017394D03*
X009180Y017396D03*
X009737Y016099D03*
D212*
X009621Y016214D03*
X009619Y016215D03*
X008737Y016155D03*
X008737Y016154D03*
X008736Y016152D03*
X008719Y016101D03*
X008779Y016887D03*
X008781Y016889D03*
D213*
X009481Y016101D03*
D214*
X008719Y016103D03*
D215*
X009483Y016103D03*
D216*
X009736Y016103D03*
D217*
X008734Y016149D03*
X008719Y016106D03*
X008719Y016104D03*
D218*
X009735Y016104D03*
X009702Y017291D03*
X009179Y017356D03*
X009179Y017358D03*
X009179Y017359D03*
X009179Y017361D03*
D219*
X009179Y017351D03*
X008652Y017280D03*
X009734Y016106D03*
D220*
X008720Y016107D03*
X008780Y016482D03*
D221*
X009485Y016107D03*
D222*
X009733Y016107D03*
X009702Y017286D03*
X008653Y017277D03*
D223*
X008781Y016481D03*
X008817Y016386D03*
X008731Y016143D03*
X008731Y016141D03*
X008730Y016140D03*
X008730Y016139D03*
X008719Y016110D03*
X008719Y016109D03*
X009552Y016396D03*
X009552Y016398D03*
X009552Y016399D03*
X009552Y016401D03*
X009582Y016479D03*
X009631Y016196D03*
X009631Y016194D03*
X009633Y016191D03*
X009576Y016894D03*
D224*
X009590Y016878D03*
X009600Y016869D03*
X009594Y016496D03*
X009593Y016494D03*
X009551Y016381D03*
X009602Y016248D03*
X009603Y016245D03*
X009654Y016110D03*
X008754Y016186D03*
X008753Y016184D03*
X008751Y016181D03*
X008766Y016499D03*
X009180Y017316D03*
D225*
X008720Y016114D03*
X008720Y016113D03*
X008720Y016111D03*
D226*
X008817Y016371D03*
X008817Y016374D03*
X009611Y016231D03*
X009612Y016230D03*
X009614Y016229D03*
X009614Y016227D03*
X009656Y016114D03*
D227*
X009636Y016185D03*
X009634Y016186D03*
X009574Y016896D03*
X008721Y016122D03*
X008721Y016121D03*
X008721Y016119D03*
X008721Y016116D03*
D228*
X008743Y016164D03*
X008745Y016166D03*
X008817Y016376D03*
X008817Y016377D03*
X008773Y016491D03*
X009615Y016226D03*
X009657Y016116D03*
D229*
X008721Y016118D03*
D230*
X009552Y016388D03*
X009657Y016118D03*
D231*
X009657Y016119D03*
X009584Y016886D03*
X009582Y016887D03*
X009180Y017314D03*
X008774Y016489D03*
X008775Y016488D03*
X008775Y016486D03*
X008817Y016379D03*
X008741Y016161D03*
D232*
X008740Y016159D03*
X008739Y016158D03*
X008817Y016380D03*
X008817Y016381D03*
X009552Y016389D03*
X009552Y016391D03*
X009585Y016484D03*
X009586Y016485D03*
X009657Y016121D03*
X009582Y016889D03*
D233*
X009581Y016890D03*
X009579Y016891D03*
X009611Y016864D03*
X009623Y016209D03*
X009624Y016206D03*
X009626Y016204D03*
X009657Y016122D03*
X008777Y016485D03*
D234*
X008784Y016476D03*
X008817Y016389D03*
X008727Y016134D03*
X008724Y016129D03*
X008722Y016126D03*
X008722Y016125D03*
X008722Y016124D03*
X008787Y016894D03*
X009552Y016406D03*
X009552Y016404D03*
D235*
X009582Y016481D03*
X009651Y016554D03*
X009578Y016893D03*
X009629Y016200D03*
X009629Y016199D03*
X009630Y016197D03*
X009659Y016124D03*
X008732Y016144D03*
X008727Y016836D03*
X008784Y016893D03*
D236*
X008781Y016479D03*
X008729Y016137D03*
X008727Y016136D03*
X009633Y016188D03*
X009633Y016189D03*
X009659Y016126D03*
X009659Y016125D03*
X009579Y016476D03*
D237*
X009578Y016474D03*
X009552Y016407D03*
X009638Y016182D03*
X009639Y016179D03*
X009641Y016176D03*
X009642Y016174D03*
X009659Y016128D03*
X009572Y016899D03*
X009570Y016901D03*
X009180Y017313D03*
X008789Y016896D03*
X008784Y016474D03*
X008724Y016131D03*
X008723Y016128D03*
D238*
X008817Y016391D03*
X008817Y016392D03*
X008791Y016899D03*
X009552Y016409D03*
X009639Y016181D03*
X009643Y016173D03*
X009658Y016131D03*
X009658Y016129D03*
D239*
X009573Y016898D03*
X008782Y016478D03*
X008817Y016388D03*
X008725Y016133D03*
D240*
X009658Y016133D03*
D241*
X009658Y016134D03*
X009658Y016136D03*
X008817Y016395D03*
X008817Y016396D03*
X008787Y016473D03*
D242*
X008816Y016399D03*
X008816Y016398D03*
X009552Y016411D03*
X009657Y016556D03*
X009657Y016141D03*
X009657Y016140D03*
X009657Y016139D03*
X009657Y016137D03*
D243*
X009657Y016143D03*
X009657Y016144D03*
X009657Y016146D03*
X009552Y016413D03*
X009567Y016904D03*
X008788Y016471D03*
X008817Y016401D03*
D244*
X008817Y016384D03*
X008817Y016383D03*
X008728Y016533D03*
X008782Y016891D03*
X008733Y016146D03*
X009552Y016392D03*
X009552Y016394D03*
X009552Y016395D03*
X009583Y016482D03*
X009622Y016211D03*
X009627Y016203D03*
X009628Y016201D03*
D245*
X008733Y016148D03*
D246*
X009656Y016148D03*
D247*
X009655Y016149D03*
X009655Y016151D03*
X009654Y016152D03*
X009654Y016154D03*
X009652Y016155D03*
X009651Y016156D03*
X009649Y016159D03*
X009573Y016470D03*
X009574Y016471D03*
X008796Y016904D03*
D248*
X008781Y016890D03*
X008778Y016484D03*
X008735Y016151D03*
X009621Y016212D03*
D249*
X009618Y016216D03*
X009618Y016218D03*
X009617Y016221D03*
X009587Y016486D03*
X008738Y016156D03*
D250*
X009647Y016164D03*
X009648Y016161D03*
X009650Y016158D03*
D251*
X008742Y016163D03*
D252*
X009648Y016163D03*
D253*
X009646Y016166D03*
X009646Y016167D03*
X009619Y016863D03*
X008794Y016902D03*
X008721Y016534D03*
D254*
X008777Y016884D03*
X008747Y016171D03*
X008745Y016169D03*
X008745Y016167D03*
X009615Y016224D03*
X009588Y016489D03*
X009590Y016491D03*
X009606Y016866D03*
X009585Y016884D03*
D255*
X009569Y016902D03*
X009552Y016410D03*
X009644Y016171D03*
X009645Y016170D03*
X009645Y016169D03*
X008816Y016394D03*
D256*
X008751Y016178D03*
X009643Y016553D03*
X009603Y016868D03*
D257*
X009641Y016178D03*
D258*
X009636Y016184D03*
D259*
X009552Y016379D03*
X009552Y016380D03*
X009597Y016499D03*
X008818Y016364D03*
X008757Y016189D03*
X008772Y016875D03*
D260*
X008771Y016874D03*
X008819Y016362D03*
X008757Y016191D03*
X009551Y016376D03*
X009551Y016377D03*
X009596Y016260D03*
X009596Y016259D03*
X009597Y016257D03*
X009599Y016256D03*
X009597Y016500D03*
X009599Y016501D03*
X009597Y016871D03*
X009596Y016872D03*
D261*
X008759Y016193D03*
D262*
X009552Y016403D03*
X009581Y016478D03*
X009632Y016193D03*
D263*
X009552Y016374D03*
X009600Y016503D03*
X008760Y016194D03*
D264*
X008761Y016197D03*
X008761Y016199D03*
X008763Y016201D03*
X008763Y016504D03*
X008769Y016872D03*
X009591Y016269D03*
X009592Y016266D03*
X009594Y016263D03*
D265*
X009590Y016271D03*
X009590Y016272D03*
X008763Y016203D03*
X008762Y016200D03*
X008762Y016506D03*
X008768Y016871D03*
D266*
X008765Y016866D03*
X008765Y016204D03*
X009588Y016274D03*
D267*
X009604Y016509D03*
X008766Y016206D03*
X008764Y016864D03*
D268*
X008766Y016208D03*
D269*
X009624Y016208D03*
D270*
X009588Y016275D03*
X009586Y016278D03*
X009585Y016281D03*
X009583Y016284D03*
X009582Y016286D03*
X009550Y016368D03*
X009637Y016551D03*
X008818Y016354D03*
X008818Y016353D03*
X008769Y016214D03*
X008767Y016211D03*
X008767Y016209D03*
X008758Y016512D03*
X008745Y016527D03*
X008763Y016863D03*
X009181Y017319D03*
D271*
X008757Y016514D03*
X008772Y016218D03*
X008771Y016216D03*
X008769Y016215D03*
X008768Y016212D03*
X009549Y016365D03*
X009549Y016366D03*
X009578Y016291D03*
X009579Y016290D03*
X009579Y016289D03*
X009581Y016287D03*
D272*
X009577Y016293D03*
X009577Y016294D03*
X009606Y016512D03*
X009606Y016514D03*
X008818Y016351D03*
X008818Y016350D03*
X008776Y016226D03*
X008775Y016221D03*
X008773Y016219D03*
X008757Y016515D03*
X008755Y016518D03*
X008748Y016526D03*
X008760Y016860D03*
X008761Y016861D03*
D273*
X008775Y016223D03*
X009576Y016298D03*
D274*
X009616Y016223D03*
D275*
X009576Y016296D03*
X009549Y016364D03*
X009606Y016515D03*
X009608Y016516D03*
X009608Y016518D03*
X008819Y016349D03*
X008777Y016229D03*
X008777Y016227D03*
X008775Y016224D03*
X008756Y016516D03*
X008754Y016519D03*
X008757Y016856D03*
X008759Y016857D03*
X008759Y016859D03*
D276*
X008757Y016854D03*
X008754Y016521D03*
X008820Y016347D03*
X008778Y016230D03*
X009550Y016362D03*
X009609Y016519D03*
X009181Y017321D03*
D277*
X009574Y016302D03*
X008779Y016231D03*
D278*
X008780Y016233D03*
X008750Y016844D03*
X009633Y016549D03*
D279*
X008781Y016234D03*
D280*
X008781Y016236D03*
X008783Y016239D03*
X008751Y016845D03*
X008753Y016846D03*
X009563Y016320D03*
X009563Y016319D03*
D281*
X008783Y016238D03*
D282*
X008776Y016883D03*
X009586Y016883D03*
X009607Y016238D03*
D283*
X009562Y016321D03*
X009562Y016323D03*
X009561Y016326D03*
X008821Y016341D03*
X008784Y016241D03*
D284*
X008784Y016242D03*
X009564Y016317D03*
X009611Y016524D03*
D285*
X009612Y016526D03*
X009613Y016527D03*
X009613Y016529D03*
X009630Y016548D03*
X009550Y016356D03*
X009550Y016354D03*
X008787Y016245D03*
X008785Y016244D03*
D286*
X008787Y016246D03*
X008789Y016248D03*
X009614Y016530D03*
D287*
X009615Y016531D03*
X009550Y016351D03*
X009550Y016350D03*
X009550Y016347D03*
X009556Y016334D03*
X009559Y016329D03*
X008821Y016335D03*
X008821Y016336D03*
X008821Y016338D03*
X008793Y016256D03*
X008791Y016254D03*
X008790Y016249D03*
D288*
X008790Y016251D03*
X008820Y016339D03*
X009549Y016353D03*
X009558Y016331D03*
X009561Y016324D03*
X009182Y017322D03*
D289*
X008791Y016253D03*
D290*
X009600Y016253D03*
D291*
X009557Y016332D03*
X009555Y016335D03*
X009554Y016336D03*
X009551Y016344D03*
X009551Y016346D03*
X009549Y016349D03*
X009615Y016533D03*
X009617Y016534D03*
X008793Y016259D03*
X008793Y016257D03*
D292*
X008794Y016260D03*
X008821Y016332D03*
X008821Y016334D03*
X009618Y016536D03*
X009619Y016539D03*
X009621Y016541D03*
X009622Y016542D03*
X009624Y016544D03*
X009625Y016545D03*
D293*
X008796Y016263D03*
X008795Y016261D03*
D294*
X008797Y016264D03*
X008797Y016266D03*
X008799Y016269D03*
X008821Y016331D03*
D295*
X008799Y016268D03*
D296*
X009592Y016268D03*
D297*
X008799Y016271D03*
D298*
X008801Y016272D03*
X008802Y016274D03*
D299*
X008803Y016275D03*
X008805Y016276D03*
X008805Y016278D03*
D300*
X008819Y016356D03*
X008759Y016511D03*
X008744Y016842D03*
X009585Y016279D03*
X009587Y016276D03*
D301*
X008805Y016279D03*
D302*
X008806Y016281D03*
X008821Y016329D03*
D303*
X008822Y016328D03*
X008807Y016283D03*
D304*
X009584Y016283D03*
D305*
X008809Y016286D03*
X008808Y016284D03*
D306*
X008810Y016287D03*
D307*
X008811Y016289D03*
X008811Y016290D03*
D308*
X008811Y016291D03*
X008813Y016294D03*
X008822Y016320D03*
X008822Y016321D03*
D309*
X008823Y016323D03*
X008812Y016293D03*
D310*
X008814Y016296D03*
X008815Y016299D03*
X008817Y016301D03*
X008823Y016317D03*
X008823Y016319D03*
D311*
X008814Y016298D03*
D312*
X008750Y016524D03*
X009575Y016301D03*
X009575Y016299D03*
D313*
X008822Y016311D03*
X008822Y016314D03*
X008822Y016316D03*
X008820Y016308D03*
X008820Y016306D03*
X008819Y016304D03*
X008817Y016302D03*
D314*
X008754Y016849D03*
X008756Y016851D03*
X009609Y016521D03*
X009549Y016361D03*
X009566Y016314D03*
X009569Y016309D03*
X009570Y016306D03*
X009572Y016305D03*
X009572Y016304D03*
D315*
X008821Y016309D03*
X008820Y016305D03*
D316*
X008820Y016344D03*
X008820Y016346D03*
X008754Y016848D03*
X009550Y016359D03*
X009565Y016316D03*
X009568Y016311D03*
X009570Y016308D03*
D317*
X008822Y016313D03*
D318*
X009567Y016313D03*
D319*
X008822Y016324D03*
X008822Y016326D03*
D320*
X009560Y016328D03*
D321*
X009553Y016338D03*
D322*
X009552Y016339D03*
X009552Y016341D03*
X009627Y016546D03*
D323*
X008820Y016343D03*
D324*
X009552Y016343D03*
D325*
X008818Y016358D03*
X008761Y016508D03*
D326*
X009550Y016358D03*
X009610Y016523D03*
D327*
X009551Y016371D03*
X008819Y016361D03*
X008819Y016359D03*
D328*
X008817Y016368D03*
X008817Y016369D03*
D329*
X008760Y016509D03*
X008743Y016529D03*
X009550Y016369D03*
X009601Y016504D03*
D330*
X008817Y016373D03*
D331*
X009551Y016373D03*
X009180Y017318D03*
D332*
X009552Y016386D03*
D333*
X008816Y016403D03*
D334*
X008816Y016404D03*
X009180Y017311D03*
D335*
X008716Y016536D03*
X008790Y016470D03*
X008815Y016406D03*
X009552Y016416D03*
X009571Y016469D03*
D336*
X009564Y016906D03*
X008800Y016906D03*
X008793Y016467D03*
X008815Y016409D03*
X008815Y016407D03*
D337*
X008814Y016410D03*
X008793Y016466D03*
X009561Y016908D03*
X009180Y017310D03*
D338*
X008802Y016911D03*
X008814Y016413D03*
X008814Y016411D03*
X009552Y016428D03*
X009552Y016429D03*
X009630Y016860D03*
D339*
X009552Y016431D03*
X008815Y016414D03*
D340*
X009552Y016414D03*
D341*
X009552Y016434D03*
X009668Y016560D03*
X009180Y017309D03*
X008709Y016539D03*
X008814Y016416D03*
D342*
X008815Y016418D03*
D343*
X009552Y016418D03*
D344*
X009562Y016461D03*
X008815Y016419D03*
X008800Y016461D03*
D345*
X009552Y016421D03*
X009552Y016419D03*
D346*
X009552Y016436D03*
X009555Y016914D03*
X009180Y017307D03*
X008706Y016541D03*
X008816Y016422D03*
X008816Y016421D03*
D347*
X008801Y016908D03*
X009567Y016464D03*
X009552Y016424D03*
X009552Y016422D03*
D348*
X009553Y016437D03*
X009558Y016456D03*
X008815Y016424D03*
X008805Y016456D03*
X008803Y016458D03*
X008802Y016459D03*
X008808Y016914D03*
D349*
X008706Y016831D03*
X008816Y016426D03*
X008816Y016425D03*
X009552Y016439D03*
X009557Y016455D03*
X009636Y016857D03*
X009554Y016916D03*
D350*
X009552Y016426D03*
X009552Y016425D03*
X008802Y016909D03*
X008713Y016833D03*
D351*
X008806Y016455D03*
X008815Y016429D03*
X008815Y016428D03*
D352*
X008814Y016431D03*
X009180Y017306D03*
X009552Y016917D03*
X009672Y016561D03*
X009555Y016454D03*
X009552Y016441D03*
X009552Y016440D03*
D353*
X008815Y016433D03*
D354*
X008798Y016463D03*
X009552Y016433D03*
D355*
X009552Y016443D03*
X009552Y016444D03*
X009552Y016446D03*
X009552Y016449D03*
X009554Y016452D03*
X008814Y016436D03*
X008814Y016434D03*
D356*
X008814Y016437D03*
X008814Y016439D03*
X008811Y016452D03*
X008702Y016830D03*
X008814Y016920D03*
D357*
X008812Y016451D03*
X008814Y016441D03*
X008814Y016440D03*
X009181Y017304D03*
X009546Y016921D03*
D358*
X008813Y016449D03*
X008814Y016444D03*
X008814Y016443D03*
D359*
X008814Y016446D03*
X008698Y016829D03*
D360*
X008814Y016448D03*
D361*
X009552Y016448D03*
D362*
X009553Y016451D03*
D363*
X009548Y016920D03*
X008813Y016919D03*
X008811Y016917D03*
X008702Y016542D03*
X008808Y016454D03*
D364*
X009560Y016458D03*
D365*
X009561Y016459D03*
X009634Y016859D03*
D366*
X009564Y016463D03*
D367*
X009664Y016559D03*
X009561Y016909D03*
X008796Y016464D03*
D368*
X008792Y016469D03*
X008798Y016905D03*
X009564Y016905D03*
X009626Y016861D03*
X009662Y016557D03*
X009570Y016467D03*
X009569Y016466D03*
D369*
X009576Y016473D03*
X008792Y016901D03*
D370*
X008772Y016493D03*
D371*
X009591Y016493D03*
D372*
X009603Y016506D03*
X008767Y016869D03*
D373*
X009603Y016508D03*
D374*
X009605Y016511D03*
D375*
X008752Y016523D03*
X008757Y016853D03*
D376*
X008712Y016538D03*
D377*
X009618Y016538D03*
D378*
X008694Y016544D03*
D379*
X008688Y016545D03*
X009688Y016564D03*
D380*
X009181Y017299D03*
X008685Y016824D03*
X008683Y016546D03*
D381*
X008679Y016548D03*
X009180Y017298D03*
D382*
X009666Y016848D03*
X008677Y016549D03*
D383*
X008673Y016551D03*
X009180Y017295D03*
X009669Y016846D03*
D384*
X008668Y016553D03*
D385*
X008660Y016554D03*
X009180Y017291D03*
D386*
X008655Y016556D03*
D387*
X008652Y016557D03*
X009501Y016936D03*
X009696Y016839D03*
D388*
X008649Y016559D03*
D389*
X008646Y016560D03*
D390*
X008641Y016561D03*
X009732Y016578D03*
X009706Y016834D03*
D391*
X009180Y017279D03*
X008634Y016563D03*
D392*
X009542Y016923D03*
X009645Y016854D03*
X009680Y016563D03*
D393*
X009181Y017276D03*
X008602Y016743D03*
X008602Y016741D03*
X008602Y016740D03*
X008602Y016739D03*
X008602Y016737D03*
X008602Y016736D03*
X008601Y016726D03*
X008601Y016725D03*
X008601Y016724D03*
X008601Y016649D03*
X008601Y016647D03*
X008601Y016646D03*
X008601Y016644D03*
X008601Y016641D03*
X008601Y016639D03*
X008601Y016638D03*
X008601Y016636D03*
X008601Y016635D03*
X008628Y016564D03*
D394*
X008624Y016566D03*
X008603Y016616D03*
X008603Y016617D03*
X008603Y016619D03*
X008604Y016755D03*
X008604Y016756D03*
X008625Y016806D03*
X009756Y016766D03*
X009758Y016761D03*
X009759Y016611D03*
X009759Y016609D03*
X009753Y016590D03*
X009752Y016589D03*
D395*
X009694Y016566D03*
D396*
X008621Y016568D03*
X008606Y016763D03*
D397*
X009697Y016568D03*
D398*
X009756Y016594D03*
X009756Y016596D03*
X009757Y016599D03*
X009757Y016601D03*
X009757Y016602D03*
X009750Y016789D03*
X009727Y016829D03*
X008620Y016803D03*
X008620Y016569D03*
D399*
X009701Y016569D03*
D400*
X008618Y016571D03*
X008610Y016785D03*
D401*
X009674Y016845D03*
X009704Y016571D03*
D402*
X008617Y016572D03*
X008616Y016574D03*
X008611Y016786D03*
X008616Y016796D03*
X008617Y016800D03*
X008619Y016801D03*
D403*
X009709Y016572D03*
D404*
X009717Y016574D03*
X009687Y016842D03*
D405*
X008616Y016799D03*
X008616Y016797D03*
X008615Y016794D03*
X008613Y016791D03*
X008613Y016789D03*
X008612Y016788D03*
X008615Y016575D03*
D406*
X009724Y016575D03*
D407*
X008614Y016576D03*
X008613Y016578D03*
X008613Y016579D03*
D408*
X009729Y016576D03*
D409*
X009735Y016579D03*
D410*
X009745Y016804D03*
X009732Y016826D03*
X008611Y016581D03*
D411*
X009740Y016581D03*
D412*
X008610Y016583D03*
D413*
X009746Y016583D03*
X009765Y016703D03*
X009764Y016718D03*
D414*
X009747Y016797D03*
X009747Y016799D03*
X009746Y016801D03*
X009746Y016803D03*
X008610Y016584D03*
X008609Y016586D03*
D415*
X009749Y016584D03*
X009761Y016617D03*
X009761Y016619D03*
X009761Y016620D03*
X009762Y016624D03*
X009762Y016626D03*
X009762Y016629D03*
X009762Y016631D03*
X009762Y016632D03*
X009761Y016746D03*
X009761Y016749D03*
X009761Y016751D03*
D416*
X009759Y016754D03*
X009759Y016755D03*
X009759Y016756D03*
X009750Y016586D03*
X008601Y016626D03*
X008601Y016629D03*
X008601Y016631D03*
X008601Y016632D03*
X008601Y016634D03*
X008603Y016744D03*
X008603Y016746D03*
X008603Y016749D03*
X008603Y016751D03*
D417*
X008610Y016784D03*
X008608Y016590D03*
X008608Y016589D03*
X008608Y016587D03*
X009730Y016827D03*
X009747Y016800D03*
X009748Y016796D03*
X009748Y016794D03*
D418*
X009759Y016759D03*
X009759Y016758D03*
X009760Y016616D03*
X009760Y016614D03*
X009751Y016587D03*
X008602Y016620D03*
X008602Y016621D03*
X008602Y016623D03*
X008602Y016624D03*
X008604Y016752D03*
X008604Y016754D03*
D419*
X008609Y016781D03*
X008609Y016782D03*
X008607Y016596D03*
X008607Y016594D03*
X008607Y016593D03*
X008607Y016591D03*
X009749Y016791D03*
D420*
X009753Y016784D03*
X009753Y016782D03*
X009753Y016781D03*
X009754Y016779D03*
X009754Y016776D03*
X009754Y016774D03*
X009754Y016773D03*
X009756Y016771D03*
X009756Y016770D03*
X009756Y016769D03*
X009756Y016767D03*
X009757Y016764D03*
X009724Y016830D03*
X009759Y016608D03*
X009759Y016606D03*
X009754Y016591D03*
X008605Y016609D03*
X008604Y016614D03*
X008605Y016758D03*
X008605Y016759D03*
X008607Y016764D03*
X008623Y016804D03*
D421*
X008606Y016761D03*
X008604Y016611D03*
X008606Y016608D03*
X008606Y016606D03*
X008606Y016605D03*
X009755Y016593D03*
X009758Y016604D03*
X009758Y016605D03*
X009752Y016785D03*
X009752Y016786D03*
X009750Y016788D03*
D422*
X009749Y016793D03*
X008607Y016598D03*
D423*
X009757Y016598D03*
D424*
X008607Y016599D03*
X008607Y016601D03*
X008607Y016602D03*
X008607Y016604D03*
X008608Y016773D03*
X008608Y016774D03*
X008608Y016776D03*
X008608Y016779D03*
D425*
X008604Y016613D03*
X009754Y016778D03*
D426*
X009760Y016613D03*
X008628Y016808D03*
D427*
X009762Y016623D03*
X009762Y016621D03*
D428*
X008601Y016628D03*
X008603Y016748D03*
D429*
X009761Y016748D03*
X009762Y016628D03*
D430*
X009763Y016634D03*
X009763Y016635D03*
X009763Y016636D03*
X009763Y016638D03*
X009763Y016639D03*
X009762Y016739D03*
X009762Y016740D03*
X009762Y016741D03*
X009762Y016743D03*
X009762Y016744D03*
X009760Y016752D03*
D431*
X009762Y016737D03*
X009762Y016736D03*
X009762Y016734D03*
X009762Y016731D03*
X009762Y016729D03*
X009764Y016650D03*
X009764Y016649D03*
X009764Y016647D03*
X009764Y016646D03*
X009764Y016644D03*
X009764Y016641D03*
X009720Y016831D03*
D432*
X008601Y016643D03*
D433*
X009764Y016643D03*
X009762Y016733D03*
D434*
X008630Y016809D03*
X008601Y016734D03*
X008601Y016731D03*
X008601Y016729D03*
X008601Y016728D03*
X008600Y016722D03*
X008600Y016721D03*
X008600Y016719D03*
X008600Y016716D03*
X008600Y016714D03*
X008600Y016713D03*
X008600Y016711D03*
X008600Y016659D03*
X008600Y016656D03*
X008600Y016654D03*
X008600Y016653D03*
X008600Y016651D03*
X008600Y016650D03*
D435*
X009765Y016651D03*
X009765Y016653D03*
X009765Y016654D03*
X009765Y016656D03*
X009765Y016659D03*
X009765Y016710D03*
X009765Y016711D03*
X009765Y016713D03*
X009763Y016719D03*
X009763Y016721D03*
X009763Y016722D03*
X009763Y016724D03*
X009763Y016725D03*
X009763Y016726D03*
X009763Y016728D03*
D436*
X008601Y016733D03*
X008600Y016718D03*
X008600Y016658D03*
D437*
X009765Y016658D03*
D438*
X008599Y016661D03*
X008599Y016662D03*
X008599Y016664D03*
X008599Y016665D03*
X008599Y016666D03*
X008599Y016668D03*
X008598Y016669D03*
X008598Y016671D03*
X008598Y016674D03*
X008598Y016676D03*
X008598Y016677D03*
X008598Y016679D03*
X008599Y016701D03*
X008599Y016704D03*
X008599Y016706D03*
X008599Y016707D03*
X008599Y016709D03*
X008599Y016710D03*
D439*
X008597Y016683D03*
X008597Y016681D03*
X008597Y016680D03*
X009764Y016714D03*
X009764Y016716D03*
X009765Y016709D03*
X009765Y016707D03*
X009765Y016706D03*
X009765Y016704D03*
X009765Y016701D03*
X009765Y016699D03*
X009765Y016669D03*
X009765Y016668D03*
X009765Y016666D03*
X009765Y016665D03*
X009765Y016664D03*
X009765Y016662D03*
X009765Y016661D03*
D440*
X009766Y016671D03*
X009766Y016674D03*
X009766Y016676D03*
X009766Y016677D03*
X009766Y016679D03*
X009766Y016680D03*
X009766Y016681D03*
X009766Y016683D03*
X009766Y016684D03*
X009766Y016686D03*
X009766Y016689D03*
X009766Y016691D03*
X009766Y016692D03*
X009766Y016694D03*
X009766Y016695D03*
X009766Y016696D03*
X009766Y016698D03*
X008634Y016811D03*
X008598Y016691D03*
X008598Y016689D03*
X008598Y016686D03*
X008598Y016684D03*
D441*
X008598Y016673D03*
X008599Y016703D03*
D442*
X008598Y016688D03*
X009766Y016688D03*
X009766Y016673D03*
D443*
X008598Y016692D03*
X008598Y016694D03*
X008598Y016695D03*
X008598Y016696D03*
X008598Y016698D03*
X008598Y016699D03*
D444*
X009758Y016763D03*
D445*
X008607Y016766D03*
X008607Y016767D03*
X008607Y016769D03*
X008607Y016770D03*
X008607Y016771D03*
D446*
X008608Y016778D03*
D447*
X008615Y016793D03*
D448*
X009734Y016824D03*
X009744Y016806D03*
D449*
X009744Y016808D03*
X009735Y016823D03*
D450*
X009738Y016821D03*
X009742Y016812D03*
X009744Y016809D03*
D451*
X009743Y016811D03*
X009741Y016814D03*
X009741Y016815D03*
D452*
X009180Y017280D03*
X008639Y016812D03*
D453*
X008646Y016814D03*
X009180Y017283D03*
D454*
X009180Y017286D03*
X009692Y016841D03*
X008654Y016815D03*
D455*
X008658Y016816D03*
D456*
X009739Y016819D03*
X009741Y016816D03*
D457*
X008662Y016818D03*
D458*
X009740Y016818D03*
D459*
X008665Y016819D03*
D460*
X008669Y016821D03*
D461*
X008676Y016823D03*
D462*
X008691Y016826D03*
D463*
X008696Y016827D03*
D464*
X009714Y016833D03*
D465*
X008722Y016834D03*
D466*
X009702Y016836D03*
D467*
X008732Y016838D03*
D468*
X009699Y016838D03*
D469*
X009680Y016844D03*
D470*
X009663Y016849D03*
X009526Y016932D03*
X008836Y016932D03*
D471*
X009659Y016851D03*
D472*
X009653Y016853D03*
D473*
X009640Y016856D03*
X009550Y016919D03*
D474*
X008766Y016868D03*
D475*
X008772Y016876D03*
D476*
X008790Y016898D03*
D477*
X009560Y016911D03*
D478*
X008805Y016913D03*
D479*
X009558Y016913D03*
D480*
X008809Y016916D03*
D481*
X008817Y016921D03*
D482*
X008820Y016923D03*
D483*
X008824Y016924D03*
D484*
X009537Y016924D03*
D485*
X008827Y016926D03*
D486*
X009534Y016926D03*
D487*
X008829Y016928D03*
D488*
X009533Y016928D03*
D489*
X009180Y017301D03*
X008831Y016929D03*
D490*
X009531Y016929D03*
D491*
X008832Y016931D03*
D492*
X009529Y016931D03*
D493*
X009517Y016934D03*
X008845Y016934D03*
D494*
X008852Y016935D03*
D495*
X009507Y016935D03*
D496*
X008857Y016936D03*
D497*
X009181Y016938D03*
D498*
X009180Y016939D03*
D499*
X009181Y016941D03*
X009178Y017121D03*
D500*
X009181Y016943D03*
D501*
X009180Y016944D03*
D502*
X009180Y016946D03*
X009177Y017118D03*
D503*
X009178Y017116D03*
X009180Y016947D03*
D504*
X009180Y016949D03*
X009177Y017115D03*
D505*
X009180Y016951D03*
X009180Y016950D03*
D506*
X009181Y016953D03*
X009178Y017112D03*
D507*
X009180Y016954D03*
D508*
X009181Y016956D03*
X009181Y016959D03*
D509*
X009181Y016958D03*
D510*
X009181Y016961D03*
X009181Y016962D03*
X009181Y016964D03*
D511*
X009181Y016965D03*
X009178Y017106D03*
D512*
X009180Y016966D03*
D513*
X009181Y016968D03*
D514*
X009181Y016969D03*
D515*
X009180Y016971D03*
X009177Y017100D03*
D516*
X009181Y016973D03*
D517*
X009181Y016974D03*
X009181Y016976D03*
X009178Y017097D03*
D518*
X009178Y017096D03*
X009181Y016980D03*
X009181Y016979D03*
X009181Y016977D03*
D519*
X009180Y016981D03*
X009177Y017094D03*
D520*
X009181Y016983D03*
D521*
X009180Y016984D03*
D522*
X009181Y016986D03*
D523*
X009180Y016988D03*
D524*
X009180Y016989D03*
X009180Y016991D03*
D525*
X009180Y016992D03*
D526*
X009181Y016994D03*
D527*
X009180Y016995D03*
D528*
X009181Y016996D03*
X009181Y016998D03*
D529*
X009181Y016999D03*
X009181Y017001D03*
D530*
X009180Y017003D03*
D531*
X009181Y017004D03*
D532*
X009180Y017006D03*
X009177Y017079D03*
D533*
X009177Y017076D03*
X009180Y017007D03*
D534*
X009180Y017009D03*
X009177Y017074D03*
D535*
X009177Y017073D03*
X009180Y017010D03*
D536*
X009180Y017011D03*
X009177Y017070D03*
D537*
X009181Y017013D03*
D538*
X009180Y017014D03*
X009177Y017069D03*
D539*
X009181Y017016D03*
D540*
X009181Y017018D03*
D541*
X009181Y017019D03*
X009181Y017021D03*
D542*
X009181Y017022D03*
X009177Y017064D03*
D543*
X009180Y017024D03*
D544*
X009180Y017025D03*
D545*
X009180Y017026D03*
D546*
X009181Y017028D03*
X009177Y017056D03*
D547*
X009177Y017055D03*
X009180Y017029D03*
D548*
X009181Y017031D03*
D549*
X009181Y017033D03*
D550*
X009181Y017034D03*
D551*
X009180Y017036D03*
X009180Y017037D03*
D552*
X009180Y017039D03*
X009180Y017040D03*
X009177Y017051D03*
D553*
X009177Y017049D03*
X009178Y017044D03*
X009178Y017043D03*
X009180Y017041D03*
D554*
X009177Y017046D03*
D555*
X009177Y017048D03*
D556*
X009177Y017052D03*
D557*
X009177Y017054D03*
D558*
X009177Y017058D03*
X009177Y017059D03*
D559*
X009177Y017061D03*
D560*
X009177Y017063D03*
D561*
X009177Y017066D03*
D562*
X009177Y017067D03*
D563*
X009177Y017071D03*
D564*
X009177Y017078D03*
D565*
X009177Y017081D03*
D566*
X009177Y017082D03*
D567*
X009177Y017084D03*
D568*
X009177Y017085D03*
D569*
X009177Y017086D03*
D570*
X009177Y017088D03*
D571*
X009177Y017089D03*
D572*
X009177Y017091D03*
D573*
X009177Y017093D03*
D574*
X009178Y017099D03*
D575*
X009178Y017101D03*
D576*
X009177Y017103D03*
D577*
X009177Y017104D03*
D578*
X009178Y017108D03*
D579*
X009178Y017109D03*
D580*
X009178Y017111D03*
D581*
X009178Y017114D03*
D582*
X009178Y017119D03*
D583*
X009179Y017123D03*
D584*
X009179Y017124D03*
D585*
X009179Y017126D03*
D586*
X009178Y017127D03*
D587*
X009178Y017129D03*
D588*
X009177Y017130D03*
D589*
X009178Y017131D03*
D590*
X009178Y017133D03*
D591*
X009179Y017134D03*
D592*
X009179Y017136D03*
D593*
X009180Y017138D03*
D594*
X009179Y017139D03*
D595*
X009179Y017141D03*
D596*
X009178Y017142D03*
D597*
X009178Y017144D03*
D598*
X009179Y017145D03*
D599*
X009178Y017146D03*
D600*
X009179Y017148D03*
D601*
X009179Y017149D03*
D602*
X009180Y017151D03*
D603*
X009180Y017153D03*
D604*
X009179Y017154D03*
D605*
X009179Y017156D03*
D606*
X009178Y017157D03*
D607*
X009178Y017159D03*
X009178Y017160D03*
D608*
X009178Y017161D03*
D609*
X009180Y017163D03*
D610*
X009180Y017164D03*
X009180Y017166D03*
D611*
X009180Y017168D03*
D612*
X009180Y017169D03*
D613*
X009179Y017171D03*
D614*
X009179Y017172D03*
X009179Y017174D03*
D615*
X009179Y017175D03*
D616*
X009179Y017176D03*
D617*
X009180Y017178D03*
D618*
X009180Y017179D03*
X009180Y017181D03*
D619*
X009180Y017183D03*
D620*
X009180Y017184D03*
D621*
X009179Y017186D03*
D622*
X009179Y017187D03*
X009179Y017189D03*
D623*
X009179Y017190D03*
D624*
X009180Y017191D03*
D625*
X009180Y017193D03*
D626*
X009180Y017194D03*
D627*
X009180Y017196D03*
D628*
X009180Y017198D03*
D629*
X009180Y017199D03*
D630*
X009179Y017201D03*
D631*
X009180Y017202D03*
D632*
X009180Y017204D03*
D633*
X009180Y017205D03*
D634*
X009180Y017206D03*
D635*
X009180Y017208D03*
X009180Y017209D03*
D636*
X009180Y017211D03*
D637*
X009180Y017213D03*
D638*
X009180Y017214D03*
D639*
X009180Y017216D03*
D640*
X009180Y017217D03*
D641*
X009180Y017219D03*
X009182Y017266D03*
D642*
X009181Y017220D03*
D643*
X009180Y017221D03*
X009182Y017265D03*
D644*
X009180Y017224D03*
X009180Y017223D03*
D645*
X009180Y017226D03*
D646*
X009180Y017228D03*
D647*
X009180Y017229D03*
D648*
X009180Y017231D03*
D649*
X009180Y017232D03*
X009181Y017256D03*
D650*
X009180Y017234D03*
D651*
X009180Y017235D03*
X009182Y017253D03*
D652*
X009181Y017251D03*
X009181Y017250D03*
X009181Y017241D03*
X009181Y017239D03*
X009181Y017238D03*
X009181Y017236D03*
D653*
X009182Y017243D03*
D654*
X009182Y017244D03*
X009182Y017246D03*
X009182Y017247D03*
X009182Y017249D03*
D655*
X009181Y017254D03*
D656*
X009182Y017258D03*
D657*
X009182Y017259D03*
D658*
X009181Y017261D03*
D659*
X009181Y017262D03*
D660*
X009181Y017264D03*
D661*
X009181Y017268D03*
D662*
X009181Y017269D03*
D663*
X009699Y017280D03*
X008655Y017271D03*
D664*
X009358Y017271D03*
D665*
X008655Y017273D03*
D666*
X009359Y017273D03*
D667*
X008654Y017274D03*
D668*
X009360Y017274D03*
D669*
X009697Y017276D03*
D670*
X009180Y017277D03*
D671*
X009699Y017277D03*
D672*
X009702Y017289D03*
X009180Y017349D03*
X008653Y017279D03*
D673*
X009699Y017279D03*
D674*
X008653Y017281D03*
D675*
X009180Y017281D03*
D676*
X009699Y017281D03*
D677*
X008652Y017283D03*
D678*
X009700Y017283D03*
D679*
X008652Y017284D03*
D680*
X009180Y017284D03*
D681*
X009701Y017284D03*
D682*
X009703Y017295D03*
X008652Y017286D03*
D683*
X008651Y017288D03*
X009180Y017408D03*
D684*
X009180Y017288D03*
D685*
X009180Y017348D03*
X009702Y017288D03*
D686*
X009180Y017289D03*
D687*
X009180Y017429D03*
X009180Y017430D03*
X009180Y017431D03*
X009705Y017301D03*
X008650Y017292D03*
D688*
X009180Y017292D03*
D689*
X009179Y017364D03*
X009179Y017366D03*
X009179Y017367D03*
X009179Y017369D03*
X009179Y017370D03*
X009702Y017292D03*
D690*
X009180Y017441D03*
X009180Y017442D03*
X009180Y017444D03*
X008649Y017294D03*
D691*
X009180Y017294D03*
D692*
X009702Y017294D03*
D693*
X009181Y017471D03*
X009181Y017472D03*
X009181Y017474D03*
X008649Y017296D03*
D694*
X009180Y017296D03*
D695*
X009180Y017416D03*
X009180Y017418D03*
X009180Y017419D03*
X009705Y017298D03*
D696*
X009707Y017307D03*
X009180Y017481D03*
X008648Y017299D03*
D697*
X008647Y017303D03*
X009181Y017498D03*
D698*
X009180Y017303D03*
D699*
X009705Y017303D03*
D700*
X008647Y017306D03*
D701*
X008646Y017309D03*
X009182Y017541D03*
X009182Y017544D03*
D702*
X009182Y017547D03*
X009182Y017549D03*
X009182Y017550D03*
X008646Y017310D03*
D703*
X009708Y017310D03*
D704*
X009183Y017561D03*
X008646Y017311D03*
D705*
X009181Y017496D03*
X009181Y017499D03*
X009181Y017501D03*
X009708Y017311D03*
D706*
X009182Y017574D03*
X008645Y017313D03*
D707*
X009182Y017517D03*
X009182Y017519D03*
X009182Y017520D03*
X009182Y017521D03*
X009182Y017523D03*
X009708Y017313D03*
D708*
X008645Y017314D03*
D709*
X008644Y017316D03*
X009183Y017580D03*
D710*
X008644Y017318D03*
D711*
X009710Y017318D03*
D712*
X009712Y017326D03*
X008644Y017319D03*
D713*
X008643Y017321D03*
X009182Y017583D03*
D714*
X009182Y017571D03*
X009182Y017569D03*
X009182Y017568D03*
X009182Y017566D03*
X009182Y017565D03*
X009182Y017564D03*
X009182Y017562D03*
X009710Y017321D03*
D715*
X009712Y017329D03*
X009183Y017584D03*
X008643Y017322D03*
D716*
X009183Y017576D03*
X009183Y017577D03*
X009711Y017322D03*
D717*
X009181Y017324D03*
D718*
X008643Y017325D03*
D719*
X009181Y017325D03*
D720*
X009183Y017581D03*
X009712Y017325D03*
D721*
X008642Y017326D03*
D722*
X009180Y017326D03*
D723*
X009181Y017328D03*
D724*
X009712Y017328D03*
D725*
X009184Y017589D03*
X008641Y017329D03*
D726*
X009181Y017329D03*
D727*
X009181Y017331D03*
D728*
X009713Y017331D03*
D729*
X008641Y017333D03*
D730*
X009180Y017333D03*
D731*
X009714Y017333D03*
D732*
X009182Y017334D03*
D733*
X009714Y017334D03*
D734*
X009182Y017336D03*
D735*
X009182Y017337D03*
D736*
X008640Y017339D03*
D737*
X009182Y017339D03*
D738*
X009714Y017339D03*
D739*
X009717Y017346D03*
X008640Y017340D03*
D740*
X009182Y017340D03*
D741*
X008639Y017341D03*
D742*
X009181Y017341D03*
D743*
X008639Y017344D03*
D744*
X009180Y017344D03*
D745*
X009716Y017344D03*
D746*
X008638Y017346D03*
D747*
X008638Y017348D03*
D748*
X008638Y017349D03*
D749*
X008638Y017351D03*
X009718Y017356D03*
D750*
X009717Y017351D03*
D751*
X009718Y017358D03*
X008638Y017352D03*
D752*
X009180Y017352D03*
X009180Y017354D03*
X009180Y017355D03*
D753*
X009717Y017352D03*
D754*
X009717Y017354D03*
D755*
X008637Y017355D03*
D756*
X009717Y017355D03*
D757*
X008637Y017356D03*
D758*
X008637Y017358D03*
X009719Y017364D03*
D759*
X008637Y017359D03*
D760*
X008637Y017361D03*
D761*
X008637Y017363D03*
D762*
X009178Y017363D03*
D763*
X009719Y017363D03*
D764*
X008636Y017366D03*
D765*
X009720Y017369D03*
D766*
X008635Y017370D03*
D767*
X009720Y017370D03*
D768*
X009180Y017371D03*
D769*
X008634Y017374D03*
D770*
X009180Y017376D03*
X009180Y017379D03*
D771*
X008634Y017378D03*
D772*
X009180Y017378D03*
D773*
X009721Y017378D03*
D774*
X008634Y017382D03*
D775*
X009722Y017384D03*
D776*
X008634Y017385D03*
D777*
X009723Y017385D03*
D778*
X008634Y017391D03*
D779*
X008633Y017393D03*
D780*
X009180Y017393D03*
D781*
X009723Y017393D03*
D782*
X009723Y017394D03*
D783*
X008632Y017396D03*
D784*
X009723Y017396D03*
D785*
X009724Y017403D03*
X008632Y017397D03*
D786*
X009723Y017397D03*
D787*
X008632Y017399D03*
D788*
X009723Y017399D03*
D789*
X009180Y017401D03*
X009180Y017403D03*
X009180Y017404D03*
X009180Y017406D03*
X009180Y017409D03*
D790*
X009724Y017401D03*
D791*
X009725Y017409D03*
X008631Y017403D03*
D792*
X009725Y017404D03*
D793*
X009725Y017408D03*
D794*
X009180Y017411D03*
D795*
X009726Y017411D03*
D796*
X009728Y017412D03*
D797*
X009180Y017423D03*
D798*
X009180Y017433D03*
X009180Y017434D03*
X009180Y017436D03*
D799*
X009181Y017438D03*
D800*
X009181Y017439D03*
D801*
X009181Y017445D03*
X009181Y017446D03*
X009181Y017448D03*
X009181Y017449D03*
X009181Y017451D03*
X009181Y017454D03*
X009181Y017456D03*
D802*
X009181Y017453D03*
D803*
X009180Y017469D03*
D804*
X009180Y017483D03*
D805*
X009180Y017487D03*
D806*
X009181Y017489D03*
X009181Y017490D03*
X009181Y017491D03*
X009181Y017493D03*
D807*
X009182Y017528D03*
D808*
X009181Y017534D03*
D809*
X009183Y017539D03*
D810*
X009182Y017543D03*
D811*
X009182Y017558D03*
D812*
X009182Y017573D03*
D813*
X009183Y017588D03*
D814*
X009174Y017592D03*
D815*
X013625Y004450D03*
D816*
X025428Y038010D02*
X025638Y038010D01*
X025743Y038115D01*
X025967Y038010D02*
X026387Y038010D01*
X026177Y038010D02*
X026177Y038641D01*
X025967Y038430D01*
X025743Y038535D02*
X025638Y038641D01*
X025428Y038641D01*
X025322Y038535D01*
X025322Y038115D01*
X025428Y038010D01*
D817*
X026747Y033930D02*
X026928Y033930D01*
X026988Y033870D01*
X026988Y033750D01*
X026928Y033690D01*
X026747Y033690D01*
X026747Y033570D02*
X026747Y033930D01*
X026868Y033690D02*
X026988Y033570D01*
X027116Y033570D02*
X027356Y033570D01*
X027236Y033570D02*
X027236Y033930D01*
X027116Y033810D01*
X023271Y030045D02*
X023271Y029985D01*
X023211Y029925D01*
X023271Y029865D01*
X023271Y029805D01*
X023211Y029745D01*
X023091Y029745D01*
X023031Y029805D01*
X022903Y029805D02*
X022903Y030045D01*
X022843Y030105D01*
X022722Y030105D01*
X022662Y030045D01*
X022662Y029805D01*
X022722Y029745D01*
X022843Y029745D01*
X022903Y029805D01*
X022903Y029745D02*
X022783Y029865D01*
X023031Y030045D02*
X023091Y030105D01*
X023211Y030105D01*
X023271Y030045D01*
X023211Y029925D02*
X023151Y029925D01*
X022732Y029072D02*
X022732Y028832D01*
X022732Y028952D02*
X022372Y028952D01*
X022492Y028832D01*
X022732Y028704D02*
X022732Y028463D01*
X022732Y028583D02*
X022372Y028583D01*
X022492Y028463D01*
X022432Y028335D02*
X022552Y028335D01*
X022612Y028275D01*
X022612Y028095D01*
X022612Y028215D02*
X022732Y028335D01*
X022732Y028095D02*
X022372Y028095D01*
X022372Y028275D01*
X022432Y028335D01*
X022426Y027930D02*
X022366Y027870D01*
X022426Y027930D02*
X022546Y027930D01*
X022606Y027870D01*
X022606Y027810D01*
X022366Y027570D01*
X022606Y027570D01*
X022238Y027570D02*
X022118Y027690D01*
X022238Y027630D02*
X022178Y027570D01*
X022057Y027570D01*
X021997Y027630D01*
X021997Y027870D01*
X022057Y027930D01*
X022178Y027930D01*
X022238Y027870D01*
X022238Y027630D01*
X022074Y028470D02*
X021834Y028470D01*
X022074Y028710D01*
X022074Y028770D01*
X022014Y028830D01*
X021894Y028830D01*
X021834Y028770D01*
X021586Y028830D02*
X021586Y028470D01*
X021466Y028470D02*
X021706Y028470D01*
X021466Y028710D02*
X021586Y028830D01*
X021338Y028770D02*
X021338Y028650D01*
X021278Y028590D01*
X021097Y028590D01*
X021097Y028470D02*
X021097Y028830D01*
X021278Y028830D01*
X021338Y028770D01*
X021218Y028590D02*
X021338Y028470D01*
X021114Y029495D02*
X021114Y029855D01*
X020934Y029675D01*
X021174Y029675D01*
X020806Y029495D02*
X020566Y029495D01*
X020686Y029495D02*
X020686Y029855D01*
X020566Y029735D01*
X020438Y029675D02*
X020378Y029615D01*
X020197Y029615D01*
X020197Y029495D02*
X020197Y029855D01*
X020378Y029855D01*
X020438Y029795D01*
X020438Y029675D01*
X020318Y029615D02*
X020438Y029495D01*
X019564Y030320D02*
X019624Y030380D01*
X019624Y030440D01*
X019564Y030500D01*
X019504Y030500D01*
X019564Y030500D02*
X019624Y030560D01*
X019624Y030620D01*
X019564Y030680D01*
X019444Y030680D01*
X019384Y030620D01*
X019384Y030380D02*
X019444Y030320D01*
X019564Y030320D01*
X019256Y030320D02*
X019016Y030320D01*
X019136Y030320D02*
X019136Y030680D01*
X019016Y030560D01*
X018888Y030500D02*
X018828Y030440D01*
X018647Y030440D01*
X018647Y030320D02*
X018647Y030680D01*
X018828Y030680D01*
X018888Y030620D01*
X018888Y030500D01*
X018768Y030440D02*
X018888Y030320D01*
X016869Y029820D02*
X016629Y029580D01*
X016689Y029520D01*
X016809Y029520D01*
X016869Y029580D01*
X016869Y029820D01*
X016809Y029880D01*
X016689Y029880D01*
X016629Y029820D01*
X016629Y029580D01*
X016501Y029520D02*
X016261Y029520D01*
X016501Y029760D01*
X016501Y029820D01*
X016441Y029880D01*
X016321Y029880D01*
X016261Y029820D01*
X016133Y029820D02*
X016073Y029880D01*
X015953Y029880D01*
X015892Y029820D01*
X015892Y029580D01*
X015953Y029520D01*
X016073Y029520D01*
X016133Y029580D01*
X016222Y029280D02*
X016403Y029280D01*
X016463Y029220D01*
X016463Y029100D01*
X016403Y029040D01*
X016222Y029040D01*
X016222Y028920D02*
X016222Y029280D01*
X016343Y029040D02*
X016463Y028920D01*
X016591Y028920D02*
X016591Y028980D01*
X016831Y029220D01*
X016831Y029280D01*
X016591Y029280D01*
X016497Y027417D02*
X016437Y027417D01*
X016377Y027357D01*
X016377Y027177D01*
X016497Y027177D01*
X016557Y027237D01*
X016557Y027357D01*
X016497Y027417D01*
X016257Y027297D02*
X016377Y027177D01*
X016377Y027049D02*
X016437Y026989D01*
X016437Y026808D01*
X016557Y026808D02*
X016197Y026808D01*
X016197Y026989D01*
X016257Y027049D01*
X016377Y027049D01*
X016437Y026928D02*
X016557Y027049D01*
X016257Y027297D02*
X016197Y027417D01*
X014081Y027580D02*
X014021Y027520D01*
X013901Y027520D01*
X013841Y027580D01*
X013841Y027640D01*
X013901Y027700D01*
X014021Y027700D01*
X014081Y027640D01*
X014081Y027580D01*
X014021Y027700D02*
X014081Y027760D01*
X014081Y027820D01*
X014021Y027880D01*
X013901Y027880D01*
X013841Y027820D01*
X013841Y027760D01*
X013901Y027700D01*
X013713Y027580D02*
X013653Y027520D01*
X013532Y027520D01*
X013472Y027580D01*
X013472Y027820D01*
X013532Y027880D01*
X013653Y027880D01*
X013713Y027820D01*
X012909Y028870D02*
X012969Y028930D01*
X012969Y028990D01*
X012909Y029050D01*
X012729Y029050D01*
X012729Y028930D01*
X012789Y028870D01*
X012909Y028870D01*
X012729Y029050D02*
X012849Y029170D01*
X012969Y029230D01*
X012601Y029170D02*
X012541Y029230D01*
X012421Y029230D01*
X012361Y029170D01*
X012361Y028930D01*
X012421Y028870D01*
X012541Y028870D01*
X012601Y028930D01*
X011882Y028507D02*
X011522Y028507D01*
X011702Y028327D01*
X011702Y028567D01*
X011702Y028199D02*
X011762Y028139D01*
X011762Y027958D01*
X011882Y027958D02*
X011522Y027958D01*
X011522Y028139D01*
X011582Y028199D01*
X011702Y028199D01*
X011762Y028078D02*
X011882Y028199D01*
X011822Y030145D02*
X011822Y030505D01*
X012003Y030505D01*
X012063Y030445D01*
X012063Y030325D01*
X012003Y030265D01*
X011822Y030265D01*
X011943Y030265D02*
X012063Y030145D01*
X012191Y030145D02*
X012431Y030385D01*
X012431Y030445D01*
X012371Y030505D01*
X012251Y030505D01*
X012191Y030445D01*
X012191Y030145D02*
X012431Y030145D01*
X011584Y032420D02*
X011464Y032420D01*
X011404Y032480D01*
X011644Y032720D01*
X011644Y032480D01*
X011584Y032420D01*
X011404Y032480D02*
X011404Y032720D01*
X011464Y032780D01*
X011584Y032780D01*
X011644Y032720D01*
X011276Y032420D02*
X011036Y032420D01*
X011156Y032420D02*
X011156Y032780D01*
X011036Y032660D01*
X010908Y032600D02*
X010848Y032540D01*
X010667Y032540D01*
X010667Y032420D02*
X010667Y032780D01*
X010848Y032780D01*
X010908Y032720D01*
X010908Y032600D01*
X010788Y032540D02*
X010908Y032420D01*
X011332Y033290D02*
X011572Y033290D01*
X011632Y033350D01*
X011632Y033470D01*
X011572Y033530D01*
X011632Y033658D02*
X011392Y033899D01*
X011332Y033899D01*
X011272Y033839D01*
X011272Y033718D01*
X011332Y033658D01*
X011332Y033530D02*
X011272Y033470D01*
X011272Y033350D01*
X011332Y033290D01*
X011632Y033658D02*
X011632Y033899D01*
X011632Y034027D02*
X011632Y034267D01*
X011632Y034147D02*
X011272Y034147D01*
X011392Y034027D01*
X012347Y034680D02*
X012407Y034620D01*
X012528Y034620D01*
X012588Y034680D01*
X012716Y034620D02*
X012956Y034620D01*
X012836Y034620D02*
X012836Y034980D01*
X012716Y034860D01*
X012588Y034920D02*
X012528Y034980D01*
X012407Y034980D01*
X012347Y034920D01*
X012347Y034680D01*
X013084Y034680D02*
X013144Y034620D01*
X013264Y034620D01*
X013324Y034680D01*
X013324Y034920D01*
X013264Y034980D01*
X013144Y034980D01*
X013084Y034920D01*
X013084Y034860D01*
X013144Y034800D01*
X013324Y034800D01*
X014197Y034680D02*
X014257Y034620D01*
X014378Y034620D01*
X014438Y034680D01*
X014566Y034680D02*
X014626Y034620D01*
X014746Y034620D01*
X014806Y034680D01*
X014806Y034920D01*
X014746Y034980D01*
X014626Y034980D01*
X014566Y034920D01*
X014566Y034860D01*
X014626Y034800D01*
X014806Y034800D01*
X014438Y034920D02*
X014378Y034980D01*
X014257Y034980D01*
X014197Y034920D01*
X014197Y034680D01*
X014986Y033680D02*
X014986Y033320D01*
X014986Y033440D02*
X015166Y033440D01*
X015226Y033500D01*
X015226Y033620D01*
X015166Y033680D01*
X014986Y033680D01*
X015106Y033440D02*
X015226Y033320D01*
X015354Y033380D02*
X015414Y033320D01*
X015534Y033320D01*
X015594Y033380D01*
X015594Y033500D01*
X015534Y033560D01*
X015474Y033560D01*
X015354Y033500D01*
X015354Y033680D01*
X015594Y033680D01*
X014299Y032905D02*
X014179Y032845D01*
X014059Y032725D01*
X014239Y032725D01*
X014299Y032665D01*
X014299Y032605D01*
X014239Y032545D01*
X014119Y032545D01*
X014059Y032605D01*
X014059Y032725D01*
X013931Y032545D02*
X013691Y032545D01*
X013811Y032545D02*
X013811Y032905D01*
X013691Y032785D01*
X013563Y032725D02*
X013503Y032665D01*
X013322Y032665D01*
X013322Y032545D02*
X013322Y032905D01*
X013503Y032905D01*
X013563Y032845D01*
X013563Y032725D01*
X013443Y032665D02*
X013563Y032545D01*
X014947Y031620D02*
X014947Y031380D01*
X015007Y031320D01*
X015128Y031320D01*
X015188Y031380D01*
X015316Y031380D02*
X015316Y031320D01*
X015316Y031380D02*
X015556Y031620D01*
X015556Y031680D01*
X015316Y031680D01*
X015188Y031620D02*
X015128Y031680D01*
X015007Y031680D01*
X014947Y031620D01*
X014621Y023855D02*
X014681Y023795D01*
X014681Y023735D01*
X014621Y023675D01*
X014681Y023615D01*
X014681Y023555D01*
X014621Y023495D01*
X014501Y023495D01*
X014441Y023555D01*
X014313Y023555D02*
X014253Y023495D01*
X014132Y023495D01*
X014072Y023555D01*
X014072Y023795D01*
X014132Y023855D01*
X014253Y023855D01*
X014313Y023795D01*
X014441Y023795D02*
X014501Y023855D01*
X014621Y023855D01*
X014621Y023675D02*
X014561Y023675D01*
X013506Y023735D02*
X013506Y023795D01*
X013446Y023855D01*
X013326Y023855D01*
X013266Y023795D01*
X013138Y023795D02*
X013078Y023855D01*
X012957Y023855D01*
X012897Y023795D01*
X012897Y023555D01*
X012957Y023495D01*
X013078Y023495D01*
X013138Y023555D01*
X013266Y023495D02*
X013506Y023735D01*
X013506Y023495D02*
X013266Y023495D01*
X012181Y023675D02*
X011941Y023675D01*
X012121Y023855D01*
X012121Y023495D01*
X011813Y023555D02*
X011753Y023495D01*
X011632Y023495D01*
X011572Y023555D01*
X011572Y023795D01*
X011632Y023855D01*
X011753Y023855D01*
X011813Y023795D01*
X011748Y022330D02*
X011628Y022330D01*
X011567Y022270D01*
X011567Y022030D01*
X011628Y021970D01*
X011748Y021970D01*
X011808Y022030D01*
X011936Y021970D02*
X012176Y021970D01*
X012056Y021970D02*
X012056Y022330D01*
X011936Y022210D01*
X011808Y022270D02*
X011748Y022330D01*
X012304Y022270D02*
X012304Y022210D01*
X012364Y022150D01*
X012484Y022150D01*
X012544Y022090D01*
X012544Y022030D01*
X012484Y021970D01*
X012364Y021970D01*
X012304Y022030D01*
X012304Y022090D01*
X012364Y022150D01*
X012484Y022150D02*
X012544Y022210D01*
X012544Y022270D01*
X012484Y022330D01*
X012364Y022330D01*
X012304Y022270D01*
X013022Y022270D02*
X013022Y022030D01*
X013082Y021970D01*
X013203Y021970D01*
X013263Y022030D01*
X013391Y021970D02*
X013631Y021970D01*
X013511Y021970D02*
X013511Y022330D01*
X013391Y022210D01*
X013263Y022270D02*
X013203Y022330D01*
X013082Y022330D01*
X013022Y022270D01*
X013759Y022270D02*
X013819Y022330D01*
X013939Y022330D01*
X013999Y022270D01*
X013759Y022030D01*
X013819Y021970D01*
X013939Y021970D01*
X013999Y022030D01*
X013999Y022270D01*
X013759Y022270D02*
X013759Y022030D01*
X014786Y021930D02*
X014966Y021930D01*
X015026Y021870D01*
X015026Y021750D01*
X014966Y021690D01*
X014786Y021690D01*
X014906Y021690D02*
X015026Y021570D01*
X015154Y021630D02*
X015214Y021570D01*
X015334Y021570D01*
X015394Y021630D01*
X015394Y021870D01*
X015334Y021930D01*
X015214Y021930D01*
X015154Y021870D01*
X015154Y021810D01*
X015214Y021750D01*
X015394Y021750D01*
X014786Y021570D02*
X014786Y021930D01*
X013209Y016460D02*
X013089Y016460D01*
X013029Y016400D01*
X013209Y016460D02*
X013269Y016400D01*
X013269Y016340D01*
X013029Y016099D01*
X013269Y016099D01*
X012900Y016099D02*
X012660Y016099D01*
X012660Y016460D01*
X012628Y012680D02*
X012507Y012680D01*
X012447Y012620D01*
X012447Y012380D01*
X012507Y012320D01*
X012628Y012320D01*
X012688Y012380D01*
X012816Y012500D02*
X012996Y012680D01*
X012996Y012320D01*
X013056Y012500D02*
X012816Y012500D01*
X012688Y012620D02*
X012628Y012680D01*
X013184Y012500D02*
X013424Y012500D01*
X013364Y012320D02*
X013364Y012680D01*
X013184Y012500D01*
X013862Y012530D02*
X013983Y012530D01*
X013922Y012530D02*
X013922Y012170D01*
X013862Y012170D02*
X013983Y012170D01*
X014108Y012230D02*
X014168Y012170D01*
X014288Y012170D01*
X014348Y012230D01*
X014476Y012230D02*
X014476Y012170D01*
X014476Y012230D02*
X014716Y012470D01*
X014716Y012530D01*
X014476Y012530D01*
X014348Y012470D02*
X014288Y012530D01*
X014168Y012530D01*
X014108Y012470D01*
X014108Y012230D01*
X012856Y010430D02*
X012616Y010430D01*
X012616Y010250D01*
X012736Y010310D01*
X012796Y010310D01*
X012856Y010250D01*
X012856Y010130D01*
X012796Y010070D01*
X012676Y010070D01*
X012616Y010130D01*
X012488Y010070D02*
X012247Y010430D01*
X012488Y010430D02*
X012247Y010070D01*
X013647Y009195D02*
X013647Y008955D01*
X013707Y008895D01*
X013828Y008895D01*
X013888Y008955D01*
X014016Y008955D02*
X014076Y008895D01*
X014196Y008895D01*
X014256Y008955D01*
X014256Y009015D01*
X014196Y009075D01*
X014136Y009075D01*
X014196Y009075D02*
X014256Y009135D01*
X014256Y009195D01*
X014196Y009255D01*
X014076Y009255D01*
X014016Y009195D01*
X013888Y009195D02*
X013828Y009255D01*
X013707Y009255D01*
X013647Y009195D01*
X014384Y009195D02*
X014444Y009255D01*
X014564Y009255D01*
X014624Y009195D01*
X014384Y008955D01*
X014444Y008895D01*
X014564Y008895D01*
X014624Y008955D01*
X014624Y009195D01*
X014384Y009195D02*
X014384Y008955D01*
X015647Y008995D02*
X015647Y009175D01*
X015707Y009235D01*
X015827Y009235D01*
X015887Y009175D01*
X015887Y008995D01*
X015887Y009115D02*
X016007Y009235D01*
X016007Y009363D02*
X016007Y009604D01*
X016007Y009483D02*
X015647Y009483D01*
X015767Y009363D01*
X015647Y008995D02*
X016007Y008995D01*
X016472Y008995D02*
X016472Y009175D01*
X016532Y009235D01*
X016652Y009235D01*
X016712Y009175D01*
X016712Y008995D01*
X016712Y009115D02*
X016832Y009235D01*
X016832Y009363D02*
X016832Y009604D01*
X016832Y009483D02*
X016472Y009483D01*
X016592Y009363D01*
X016592Y009732D02*
X016532Y009732D01*
X016472Y009792D01*
X016472Y009912D01*
X016532Y009972D01*
X016592Y009972D01*
X016652Y009912D01*
X016652Y009792D01*
X016592Y009732D01*
X016652Y009792D02*
X016712Y009732D01*
X016772Y009732D01*
X016832Y009792D01*
X016832Y009912D01*
X016772Y009972D01*
X016712Y009972D01*
X016652Y009912D01*
X017247Y009892D02*
X017247Y010012D01*
X017307Y010072D01*
X017367Y010072D01*
X017427Y010012D01*
X017427Y009892D01*
X017367Y009832D01*
X017307Y009832D01*
X017247Y009892D01*
X017427Y009892D02*
X017487Y009832D01*
X017547Y009832D01*
X017607Y009892D01*
X017607Y010012D01*
X017547Y010072D01*
X017487Y010072D01*
X017427Y010012D01*
X017367Y009704D02*
X017427Y009643D01*
X017487Y009704D01*
X017547Y009704D01*
X017607Y009643D01*
X017607Y009523D01*
X017547Y009463D01*
X017547Y009335D02*
X017607Y009275D01*
X017607Y009155D01*
X017547Y009095D01*
X017307Y009095D01*
X017247Y009155D01*
X017247Y009275D01*
X017307Y009335D01*
X017307Y009463D02*
X017247Y009523D01*
X017247Y009643D01*
X017307Y009704D01*
X017367Y009704D01*
X017427Y009643D02*
X017427Y009583D01*
X018022Y009523D02*
X018022Y009643D01*
X018082Y009704D01*
X018142Y009704D01*
X018202Y009643D01*
X018262Y009704D01*
X018322Y009704D01*
X018382Y009643D01*
X018382Y009523D01*
X018322Y009463D01*
X018322Y009335D02*
X018382Y009275D01*
X018382Y009155D01*
X018322Y009095D01*
X018082Y009095D01*
X018022Y009155D01*
X018022Y009275D01*
X018082Y009335D01*
X018082Y009463D02*
X018022Y009523D01*
X018202Y009583D02*
X018202Y009643D01*
X018322Y009832D02*
X018382Y009832D01*
X018322Y009832D02*
X018082Y010072D01*
X018022Y010072D01*
X018022Y009832D01*
X018047Y010945D02*
X018047Y011305D01*
X018228Y011305D01*
X018288Y011245D01*
X018288Y011125D01*
X018228Y011065D01*
X018047Y011065D01*
X018168Y011065D02*
X018288Y010945D01*
X018416Y010945D02*
X018656Y011185D01*
X018656Y011245D01*
X018596Y011305D01*
X018476Y011305D01*
X018416Y011245D01*
X018416Y010945D02*
X018656Y010945D01*
X018784Y011005D02*
X018784Y011065D01*
X018844Y011125D01*
X018964Y011125D01*
X019024Y011065D01*
X019024Y011005D01*
X018964Y010945D01*
X018844Y010945D01*
X018784Y011005D01*
X018844Y011125D02*
X018784Y011185D01*
X018784Y011245D01*
X018844Y011305D01*
X018964Y011305D01*
X019024Y011245D01*
X019024Y011185D01*
X018964Y011125D01*
X018938Y013070D02*
X018818Y013190D01*
X018878Y013190D02*
X018697Y013190D01*
X018697Y013070D02*
X018697Y013430D01*
X018878Y013430D01*
X018938Y013370D01*
X018938Y013250D01*
X018878Y013190D01*
X019066Y013190D02*
X019126Y013250D01*
X019246Y013250D01*
X019306Y013190D01*
X019306Y013130D01*
X019246Y013070D01*
X019126Y013070D01*
X019066Y013130D01*
X019066Y013190D01*
X019126Y013250D02*
X019066Y013310D01*
X019066Y013370D01*
X019126Y013430D01*
X019246Y013430D01*
X019306Y013370D01*
X019306Y013310D01*
X019246Y013250D01*
X019235Y014649D02*
X019475Y014649D01*
X019604Y014709D02*
X019664Y014649D01*
X019784Y014649D01*
X019844Y014709D01*
X019844Y014769D01*
X019784Y014829D01*
X019724Y014829D01*
X019784Y014829D02*
X019844Y014890D01*
X019844Y014950D01*
X019784Y015010D01*
X019664Y015010D01*
X019604Y014950D01*
X019235Y015010D02*
X019235Y014649D01*
X019953Y016720D02*
X019892Y016780D01*
X019892Y017020D01*
X019953Y017080D01*
X020073Y017080D01*
X020133Y017020D01*
X020261Y016960D02*
X020381Y017080D01*
X020381Y016720D01*
X020261Y016720D02*
X020501Y016720D01*
X020629Y016720D02*
X020869Y016720D01*
X020749Y016720D02*
X020749Y017080D01*
X020629Y016960D01*
X020133Y016780D02*
X020073Y016720D01*
X019953Y016720D01*
X022507Y012630D02*
X022447Y012570D01*
X022447Y012330D01*
X022507Y012270D01*
X022628Y012270D01*
X022688Y012330D01*
X022816Y012450D02*
X022996Y012630D01*
X022996Y012270D01*
X023184Y012270D02*
X023424Y012270D01*
X023304Y012270D02*
X023304Y012630D01*
X023184Y012510D01*
X023056Y012450D02*
X022816Y012450D01*
X022688Y012570D02*
X022628Y012630D01*
X022507Y012630D01*
X022842Y014095D02*
X022842Y014455D01*
X023023Y014455D01*
X023083Y014395D01*
X023083Y014275D01*
X023023Y014215D01*
X022842Y014215D01*
X022963Y014215D02*
X023083Y014095D01*
X023211Y014095D02*
X023451Y014335D01*
X023451Y014395D01*
X023391Y014455D01*
X023271Y014455D01*
X023211Y014395D01*
X023211Y014095D02*
X023451Y014095D01*
X023579Y014095D02*
X023579Y014155D01*
X023819Y014395D01*
X023819Y014455D01*
X023579Y014455D01*
X023767Y010730D02*
X023948Y010730D01*
X024008Y010670D01*
X024008Y010550D01*
X023948Y010490D01*
X023767Y010490D01*
X023767Y010370D02*
X023767Y010730D01*
X023888Y010490D02*
X024008Y010370D01*
X024136Y010370D02*
X024376Y010610D01*
X024376Y010670D01*
X024316Y010730D01*
X024196Y010730D01*
X024136Y010670D01*
X024136Y010370D02*
X024376Y010370D01*
X024504Y010430D02*
X024564Y010370D01*
X024684Y010370D01*
X024744Y010430D01*
X024744Y010490D01*
X024684Y010550D01*
X024504Y010550D01*
X024504Y010430D01*
X024504Y010550D02*
X024624Y010670D01*
X024744Y010730D01*
X025267Y010755D02*
X025448Y010755D01*
X025508Y010695D01*
X025508Y010575D01*
X025448Y010515D01*
X025267Y010515D01*
X025267Y010395D02*
X025267Y010755D01*
X025388Y010515D02*
X025508Y010395D01*
X025636Y010395D02*
X025876Y010635D01*
X025876Y010695D01*
X025816Y010755D01*
X025696Y010755D01*
X025636Y010695D01*
X025636Y010395D02*
X025876Y010395D01*
X026004Y010575D02*
X026244Y010575D01*
X026184Y010395D02*
X026184Y010755D01*
X026004Y010575D01*
X027432Y012620D02*
X027372Y012680D01*
X027372Y012920D01*
X027432Y012980D01*
X027553Y012980D01*
X027613Y012920D01*
X027741Y012800D02*
X027981Y012800D01*
X028109Y012920D02*
X028169Y012980D01*
X028289Y012980D01*
X028349Y012920D01*
X028349Y012860D01*
X028109Y012620D01*
X028349Y012620D01*
X027921Y012620D02*
X027921Y012980D01*
X027741Y012800D01*
X027613Y012680D02*
X027553Y012620D01*
X027432Y012620D01*
X028032Y009522D02*
X027972Y009462D01*
X027972Y009342D01*
X028032Y009282D01*
X028092Y009282D01*
X028152Y009342D01*
X028152Y009522D01*
X028272Y009522D02*
X028032Y009522D01*
X028272Y009522D02*
X028332Y009462D01*
X028332Y009342D01*
X028272Y009282D01*
X028332Y009154D02*
X028332Y008913D01*
X028092Y009154D01*
X028032Y009154D01*
X027972Y009093D01*
X027972Y008973D01*
X028032Y008913D01*
X028032Y008785D02*
X027972Y008725D01*
X027972Y008605D01*
X028032Y008545D01*
X028272Y008545D01*
X028332Y008605D01*
X028332Y008725D01*
X028272Y008785D01*
X028145Y008024D02*
X027964Y008024D01*
X027964Y007664D01*
X028145Y007664D01*
X028205Y007724D01*
X028205Y007964D01*
X028145Y008024D01*
X028333Y007844D02*
X028513Y007844D01*
X028573Y007784D01*
X028573Y007724D01*
X028513Y007664D01*
X028393Y007664D01*
X028333Y007724D01*
X028333Y007844D01*
X028453Y007964D01*
X028573Y008024D01*
X028499Y006930D02*
X028379Y006870D01*
X028259Y006750D01*
X028439Y006750D01*
X028499Y006690D01*
X028499Y006630D01*
X028439Y006570D01*
X028319Y006570D01*
X028259Y006630D01*
X028259Y006750D01*
X028131Y006810D02*
X028131Y006870D01*
X028071Y006930D01*
X027951Y006930D01*
X027891Y006870D01*
X027763Y006870D02*
X027703Y006930D01*
X027582Y006930D01*
X027522Y006870D01*
X027522Y006630D01*
X027582Y006570D01*
X027703Y006570D01*
X027763Y006630D01*
X027891Y006570D02*
X028131Y006810D01*
X028131Y006570D02*
X027891Y006570D01*
X025299Y007020D02*
X025059Y007020D01*
X025179Y007020D02*
X025179Y007380D01*
X025059Y007260D01*
X024931Y007260D02*
X024871Y007200D01*
X024931Y007140D01*
X024931Y007080D01*
X024871Y007020D01*
X024751Y007020D01*
X024691Y007080D01*
X024563Y007080D02*
X024503Y007020D01*
X024382Y007020D01*
X024322Y007080D01*
X024322Y007320D01*
X024382Y007380D01*
X024503Y007380D01*
X024563Y007320D01*
X024691Y007320D02*
X024751Y007380D01*
X024871Y007380D01*
X024931Y007320D01*
X024931Y007260D01*
X024871Y007200D02*
X024811Y007200D01*
X024781Y006695D02*
X024661Y006695D01*
X024601Y006635D01*
X024473Y006635D02*
X024413Y006695D01*
X024292Y006695D01*
X024232Y006635D01*
X024232Y006395D01*
X024292Y006335D01*
X024413Y006335D01*
X024473Y006395D01*
X024601Y006335D02*
X024841Y006575D01*
X024841Y006635D01*
X024781Y006695D01*
X024969Y006695D02*
X025209Y006695D01*
X025209Y006635D01*
X024969Y006395D01*
X024969Y006335D01*
X024841Y006335D02*
X024601Y006335D01*
X024701Y004530D02*
X024641Y004470D01*
X024701Y004530D02*
X024821Y004530D01*
X024881Y004470D01*
X024881Y004410D01*
X024641Y004170D01*
X024881Y004170D01*
X025009Y004230D02*
X025069Y004170D01*
X025189Y004170D01*
X025249Y004230D01*
X025249Y004350D01*
X025189Y004410D01*
X025129Y004410D01*
X025009Y004350D01*
X025009Y004530D01*
X025249Y004530D01*
X024513Y004470D02*
X024453Y004530D01*
X024332Y004530D01*
X024272Y004470D01*
X024272Y004230D01*
X024332Y004170D01*
X024453Y004170D01*
X024513Y004230D01*
X024071Y003030D02*
X023891Y002850D01*
X024131Y002850D01*
X024071Y002670D02*
X024071Y003030D01*
X023763Y002670D02*
X023522Y002670D01*
X023522Y003030D01*
X023597Y002005D02*
X023597Y001645D01*
X023477Y001645D02*
X023718Y001645D01*
X023477Y001885D02*
X023597Y002005D01*
X023349Y001945D02*
X023289Y002005D01*
X023109Y002005D01*
X023109Y001645D01*
X023289Y001645D01*
X023349Y001705D01*
X023349Y001945D01*
X022981Y002005D02*
X022741Y002005D01*
X022741Y001645D01*
X022981Y001645D01*
X022861Y001825D02*
X022741Y001825D01*
X022613Y001645D02*
X022372Y001645D01*
X022372Y002005D01*
X021984Y002095D02*
X021984Y002455D01*
X021804Y002275D01*
X022044Y002275D01*
X021676Y002335D02*
X021676Y002395D01*
X021616Y002455D01*
X021496Y002455D01*
X021436Y002395D01*
X021308Y002395D02*
X021248Y002455D01*
X021128Y002455D01*
X021067Y002395D01*
X021067Y002155D01*
X021128Y002095D01*
X021248Y002095D01*
X021308Y002155D01*
X021436Y002095D02*
X021676Y002335D01*
X021676Y002095D02*
X021436Y002095D01*
X024107Y002055D02*
X024107Y001705D01*
X024107Y001822D02*
X024283Y001822D01*
X024341Y001880D01*
X024341Y001997D01*
X024283Y002055D01*
X024107Y002055D01*
X024224Y001822D02*
X024341Y001705D01*
X024467Y001705D02*
X024700Y001939D01*
X024700Y001997D01*
X024642Y002055D01*
X024525Y002055D01*
X024467Y001997D01*
X024467Y001705D02*
X024700Y001705D01*
X024826Y001705D02*
X025059Y001705D01*
X024942Y001705D02*
X024942Y002055D01*
X024826Y001939D01*
X022442Y008701D02*
X022322Y008701D01*
X022262Y008761D01*
X022262Y008881D01*
X022442Y008881D01*
X022502Y008821D01*
X022502Y008761D01*
X022442Y008701D01*
X022262Y008881D02*
X022382Y009001D01*
X022502Y009061D01*
X022622Y009080D02*
X022682Y009020D01*
X022922Y009020D01*
X022982Y009080D01*
X022982Y009200D01*
X022922Y009260D01*
X022922Y009388D02*
X022982Y009448D01*
X022982Y009568D01*
X022922Y009629D01*
X022862Y009629D01*
X022802Y009568D01*
X022802Y009508D01*
X022802Y009568D02*
X022742Y009629D01*
X022682Y009629D01*
X022622Y009568D01*
X022622Y009448D01*
X022682Y009388D01*
X022682Y009260D02*
X022622Y009200D01*
X022622Y009080D01*
X022134Y008701D02*
X021894Y008701D01*
X021894Y009061D01*
X022622Y009757D02*
X022622Y009997D01*
X022742Y009937D02*
X022802Y009997D01*
X022922Y009997D01*
X022982Y009937D01*
X022982Y009817D01*
X022922Y009757D01*
X022802Y009757D02*
X022742Y009877D01*
X022742Y009937D01*
X022802Y009757D02*
X022622Y009757D01*
X017474Y012380D02*
X017414Y012320D01*
X017294Y012320D01*
X017234Y012380D01*
X017354Y012500D02*
X017414Y012500D01*
X017474Y012440D01*
X017474Y012380D01*
X017414Y012500D02*
X017474Y012560D01*
X017474Y012620D01*
X017414Y012680D01*
X017294Y012680D01*
X017234Y012620D01*
X017106Y012500D02*
X016866Y012500D01*
X017046Y012680D01*
X017046Y012320D01*
X016738Y012380D02*
X016678Y012320D01*
X016557Y012320D01*
X016497Y012380D01*
X016497Y012620D01*
X016557Y012680D01*
X016678Y012680D01*
X016738Y012620D01*
X015707Y009972D02*
X015947Y009732D01*
X016007Y009732D01*
X015647Y009732D02*
X015647Y009972D01*
X015707Y009972D01*
X016472Y008995D02*
X016832Y008995D01*
X015019Y007430D02*
X014899Y007370D01*
X014779Y007250D01*
X014959Y007250D01*
X015019Y007190D01*
X015019Y007130D01*
X014959Y007070D01*
X014839Y007070D01*
X014779Y007130D01*
X014779Y007250D01*
X014651Y007190D02*
X014651Y007130D01*
X014591Y007070D01*
X014471Y007070D01*
X014411Y007130D01*
X014283Y007130D02*
X014223Y007070D01*
X014103Y007070D01*
X014042Y007130D01*
X014042Y007370D01*
X014103Y007430D01*
X014223Y007430D01*
X014283Y007370D01*
X014411Y007370D02*
X014471Y007430D01*
X014591Y007430D01*
X014651Y007370D01*
X014651Y007310D01*
X014591Y007250D01*
X014651Y007190D01*
X014591Y007250D02*
X014531Y007250D01*
X014571Y005030D02*
X014451Y005030D01*
X014391Y004970D01*
X014263Y004970D02*
X014203Y005030D01*
X014082Y005030D01*
X014022Y004970D01*
X014022Y004730D01*
X014082Y004670D01*
X014203Y004670D01*
X014263Y004730D01*
X014391Y004670D02*
X014631Y004910D01*
X014631Y004970D01*
X014571Y005030D01*
X014759Y004970D02*
X014759Y004910D01*
X014819Y004850D01*
X014939Y004850D01*
X014999Y004790D01*
X014999Y004730D01*
X014939Y004670D01*
X014819Y004670D01*
X014759Y004730D01*
X014759Y004790D01*
X014819Y004850D01*
X014939Y004850D02*
X014999Y004910D01*
X014999Y004970D01*
X014939Y005030D01*
X014819Y005030D01*
X014759Y004970D01*
X014631Y004670D02*
X014391Y004670D01*
X013906Y002155D02*
X013666Y002155D01*
X013538Y002095D02*
X013478Y002155D01*
X013297Y002155D01*
X013297Y001795D01*
X013478Y001795D01*
X013538Y001855D01*
X013538Y002095D01*
X013666Y001855D02*
X013666Y001795D01*
X013666Y001855D02*
X013906Y002095D01*
X013906Y002155D01*
X014622Y002020D02*
X014622Y001780D01*
X014682Y001720D01*
X014803Y001720D01*
X014863Y001780D01*
X014991Y001780D02*
X015051Y001720D01*
X015171Y001720D01*
X015231Y001780D01*
X015231Y001840D01*
X015171Y001900D01*
X015111Y001900D01*
X015171Y001900D02*
X015231Y001960D01*
X015231Y002020D01*
X015171Y002080D01*
X015051Y002080D01*
X014991Y002020D01*
X014863Y002020D02*
X014803Y002080D01*
X014682Y002080D01*
X014622Y002020D01*
X015359Y002020D02*
X015419Y002080D01*
X015539Y002080D01*
X015599Y002020D01*
X015599Y001960D01*
X015359Y001720D01*
X015599Y001720D01*
X012144Y001195D02*
X012084Y001255D01*
X011964Y001255D01*
X011904Y001195D01*
X011904Y001135D01*
X011964Y001075D01*
X012144Y001075D01*
X012144Y000955D02*
X012144Y001195D01*
X012144Y000955D02*
X012084Y000895D01*
X011964Y000895D01*
X011904Y000955D01*
X011776Y000895D02*
X011536Y000895D01*
X011656Y000895D02*
X011656Y001255D01*
X011536Y001135D01*
X011408Y001075D02*
X011348Y001015D01*
X011167Y001015D01*
X011167Y000895D02*
X011167Y001255D01*
X011348Y001255D01*
X011408Y001195D01*
X011408Y001075D01*
X011288Y001015D02*
X011408Y000895D01*
X010319Y001580D02*
X010259Y001520D01*
X010139Y001520D01*
X010079Y001580D01*
X009951Y001580D02*
X009891Y001520D01*
X009771Y001520D01*
X009711Y001580D01*
X009583Y001580D02*
X009523Y001520D01*
X009403Y001520D01*
X009342Y001580D01*
X009342Y001820D01*
X009403Y001880D01*
X009523Y001880D01*
X009583Y001820D01*
X009711Y001820D02*
X009771Y001880D01*
X009891Y001880D01*
X009951Y001820D01*
X009951Y001760D01*
X009891Y001700D01*
X009951Y001640D01*
X009951Y001580D01*
X009891Y001700D02*
X009831Y001700D01*
X010079Y001820D02*
X010139Y001880D01*
X010259Y001880D01*
X010319Y001820D01*
X010319Y001760D01*
X010259Y001700D01*
X010319Y001640D01*
X010319Y001580D01*
X010259Y001700D02*
X010199Y001700D01*
X009947Y002555D02*
X009587Y002555D01*
X009587Y002735D01*
X009647Y002795D01*
X009767Y002795D01*
X009827Y002735D01*
X009827Y002555D01*
X009827Y002675D02*
X009947Y002795D01*
X009947Y002923D02*
X009707Y003164D01*
X009647Y003164D01*
X009587Y003103D01*
X009587Y002983D01*
X009647Y002923D01*
X009947Y002923D02*
X009947Y003164D01*
X009947Y003292D02*
X009707Y003532D01*
X009647Y003532D01*
X009587Y003472D01*
X009587Y003352D01*
X009647Y003292D01*
X009947Y003292D02*
X009947Y003532D01*
X009081Y002850D02*
X008841Y002850D01*
X009021Y003030D01*
X009021Y002670D01*
X008713Y002670D02*
X008472Y003030D01*
X008713Y003030D02*
X008472Y002670D01*
X009372Y004755D02*
X009372Y004930D01*
X009431Y004989D01*
X009547Y004989D01*
X009606Y004930D01*
X009606Y004755D01*
X009722Y004755D02*
X009372Y004755D01*
X009606Y004872D02*
X009722Y004989D01*
X009722Y005114D02*
X009489Y005348D01*
X009431Y005348D01*
X009372Y005289D01*
X009372Y005172D01*
X009431Y005114D01*
X009722Y005114D02*
X009722Y005348D01*
X009664Y005473D02*
X009431Y005707D01*
X009664Y005707D01*
X009722Y005648D01*
X009722Y005532D01*
X009664Y005473D01*
X009431Y005473D01*
X009372Y005532D01*
X009372Y005648D01*
X009431Y005707D01*
X010137Y007005D02*
X010137Y007185D01*
X010197Y007245D01*
X010317Y007245D01*
X010377Y007185D01*
X010377Y007005D01*
X010377Y007125D02*
X010497Y007245D01*
X010497Y007373D02*
X010257Y007614D01*
X010197Y007614D01*
X010137Y007553D01*
X010137Y007433D01*
X010197Y007373D01*
X010497Y007373D02*
X010497Y007614D01*
X010437Y007742D02*
X010497Y007802D01*
X010497Y007922D01*
X010437Y007982D01*
X010377Y007982D01*
X010317Y007922D01*
X010317Y007862D01*
X010317Y007922D02*
X010257Y007982D01*
X010197Y007982D01*
X010137Y007922D01*
X010137Y007802D01*
X010197Y007742D01*
X010137Y007005D02*
X010497Y007005D01*
X011422Y006637D02*
X011422Y006517D01*
X011482Y006457D01*
X011722Y006457D01*
X011482Y006697D01*
X011722Y006697D01*
X011782Y006637D01*
X011782Y006517D01*
X011722Y006457D01*
X011602Y006329D02*
X011602Y006088D01*
X011422Y006268D01*
X011782Y006268D01*
X011722Y005960D02*
X011782Y005900D01*
X011782Y005780D01*
X011722Y005720D01*
X011482Y005720D01*
X011422Y005780D01*
X011422Y005900D01*
X011482Y005960D01*
X011422Y006637D02*
X011482Y006697D01*
X011437Y004857D02*
X011437Y004617D01*
X011617Y004617D01*
X011557Y004737D01*
X011557Y004797D01*
X011617Y004857D01*
X011737Y004857D01*
X011797Y004797D01*
X011797Y004677D01*
X011737Y004617D01*
X011797Y004489D02*
X011797Y004248D01*
X011557Y004489D01*
X011497Y004489D01*
X011437Y004428D01*
X011437Y004308D01*
X011497Y004248D01*
X011497Y004120D02*
X011617Y004120D01*
X011677Y004060D01*
X011677Y003880D01*
X011677Y004000D02*
X011797Y004120D01*
X011797Y003880D02*
X011437Y003880D01*
X011437Y004060D01*
X011497Y004120D01*
X011724Y003396D02*
X011672Y003345D01*
X011672Y003241D01*
X011724Y003190D01*
X011776Y003190D01*
X011827Y003241D01*
X011827Y003396D01*
X011724Y003396D02*
X011931Y003396D01*
X011982Y003345D01*
X011982Y003241D01*
X011931Y003190D01*
X011931Y003074D02*
X011982Y003022D01*
X011982Y002919D01*
X011931Y002867D01*
X011931Y002752D02*
X011982Y002700D01*
X011982Y002597D01*
X011931Y002545D01*
X011724Y002545D01*
X011672Y002597D01*
X011672Y002700D01*
X011724Y002752D01*
X011724Y002867D02*
X011672Y002919D01*
X011672Y003022D01*
X011724Y003074D01*
X011776Y003074D01*
X011827Y003022D01*
X011879Y003074D01*
X011931Y003074D01*
X011827Y003022D02*
X011827Y002971D01*
X008124Y006105D02*
X008064Y006045D01*
X007944Y006045D01*
X007884Y006105D01*
X007756Y006045D02*
X007516Y006045D01*
X007756Y006285D01*
X007756Y006345D01*
X007696Y006405D01*
X007576Y006405D01*
X007516Y006345D01*
X007388Y006345D02*
X007328Y006405D01*
X007207Y006405D01*
X007147Y006345D01*
X007147Y006105D01*
X007207Y006045D01*
X007328Y006045D01*
X007388Y006105D01*
X007884Y006345D02*
X007944Y006405D01*
X008064Y006405D01*
X008124Y006345D01*
X008124Y006285D01*
X008064Y006225D01*
X008124Y006165D01*
X008124Y006105D01*
X008064Y006225D02*
X008004Y006225D01*
X006891Y007795D02*
X006651Y007795D01*
X006891Y008035D01*
X006891Y008095D01*
X006831Y008155D01*
X006711Y008155D01*
X006651Y008095D01*
X006523Y008095D02*
X006463Y008155D01*
X006343Y008155D01*
X006283Y008095D01*
X006283Y007855D01*
X006343Y007795D01*
X006463Y007795D01*
X006523Y007855D01*
X006158Y007795D02*
X006037Y007795D01*
X006097Y007795D02*
X006097Y008155D01*
X006037Y008155D02*
X006158Y008155D01*
X007082Y009520D02*
X007203Y009520D01*
X007263Y009580D01*
X007391Y009520D02*
X007631Y009760D01*
X007631Y009820D01*
X007571Y009880D01*
X007451Y009880D01*
X007391Y009820D01*
X007263Y009820D02*
X007203Y009880D01*
X007082Y009880D01*
X007022Y009820D01*
X007022Y009580D01*
X007082Y009520D01*
X007391Y009520D02*
X007631Y009520D01*
X007759Y009520D02*
X007999Y009760D01*
X007999Y009820D01*
X007939Y009880D01*
X007819Y009880D01*
X007759Y009820D01*
X007759Y009520D02*
X007999Y009520D01*
X009197Y011170D02*
X009438Y011530D01*
X009566Y011470D02*
X009626Y011530D01*
X009746Y011530D01*
X009806Y011470D01*
X009806Y011410D01*
X009746Y011350D01*
X009806Y011290D01*
X009806Y011230D01*
X009746Y011170D01*
X009626Y011170D01*
X009566Y011230D01*
X009438Y011170D02*
X009197Y011530D01*
X009686Y011350D02*
X009746Y011350D01*
X015322Y015030D02*
X015382Y014970D01*
X015503Y014970D01*
X015563Y015030D01*
X015691Y014970D02*
X015931Y014970D01*
X015811Y014970D02*
X015811Y015330D01*
X015691Y015210D01*
X015563Y015270D02*
X015503Y015330D01*
X015382Y015330D01*
X015322Y015270D01*
X015322Y015030D01*
X016059Y015030D02*
X016119Y014970D01*
X016239Y014970D01*
X016299Y015030D01*
X016299Y015150D01*
X016239Y015210D01*
X016179Y015210D01*
X016059Y015150D01*
X016059Y015330D01*
X016299Y015330D01*
X018657Y022245D02*
X018778Y022245D01*
X018838Y022305D01*
X018966Y022245D02*
X019206Y022245D01*
X019086Y022245D02*
X019086Y022605D01*
X018966Y022485D01*
X018838Y022545D02*
X018778Y022605D01*
X018657Y022605D01*
X018597Y022545D01*
X018597Y022305D01*
X018657Y022245D01*
X019334Y022305D02*
X019394Y022245D01*
X019514Y022245D01*
X019574Y022305D01*
X019574Y022365D01*
X019514Y022425D01*
X019454Y022425D01*
X019514Y022425D02*
X019574Y022485D01*
X019574Y022545D01*
X019514Y022605D01*
X019394Y022605D01*
X019334Y022545D01*
X020642Y025070D02*
X020883Y025070D01*
X021011Y025070D02*
X021191Y025070D01*
X021251Y025130D01*
X021251Y025370D01*
X021191Y025430D01*
X021011Y025430D01*
X021011Y025070D01*
X020883Y025370D02*
X020642Y025130D01*
X020642Y025070D01*
X020642Y025430D02*
X020883Y025430D01*
X020883Y025370D01*
X021379Y025310D02*
X021499Y025430D01*
X021499Y025070D01*
X021379Y025070D02*
X021619Y025070D01*
X022297Y024580D02*
X022297Y024220D01*
X022297Y024400D02*
X022418Y024400D01*
X022297Y024580D02*
X022538Y024580D01*
X022666Y024580D02*
X022846Y024580D01*
X022906Y024520D01*
X022906Y024460D01*
X022846Y024400D01*
X022666Y024400D01*
X022846Y024400D02*
X022906Y024340D01*
X022906Y024280D01*
X022846Y024220D01*
X022666Y024220D01*
X022666Y024580D01*
X023034Y024460D02*
X023154Y024580D01*
X023154Y024220D01*
X023034Y024220D02*
X023274Y024220D01*
X023839Y025689D02*
X024020Y025689D01*
X024080Y025749D01*
X024080Y025989D01*
X024020Y026049D01*
X023839Y026049D01*
X023839Y025689D01*
X024208Y025749D02*
X024268Y025689D01*
X024388Y025689D01*
X024448Y025749D01*
X024448Y025809D01*
X024388Y025869D01*
X024328Y025869D01*
X024388Y025869D02*
X024448Y025929D01*
X024448Y025989D01*
X024388Y026049D01*
X024268Y026049D01*
X024208Y025989D01*
X021769Y026055D02*
X021709Y025995D01*
X021589Y025995D01*
X021529Y026055D01*
X021529Y026175D02*
X021649Y026235D01*
X021709Y026235D01*
X021769Y026175D01*
X021769Y026055D01*
X021529Y026175D02*
X021529Y026355D01*
X021769Y026355D01*
X021281Y026355D02*
X021281Y025995D01*
X021161Y025995D02*
X021401Y025995D01*
X021161Y026235D02*
X021281Y026355D01*
X021033Y026295D02*
X021033Y026175D01*
X020973Y026115D01*
X020792Y026115D01*
X020792Y025995D02*
X020792Y026355D01*
X020973Y026355D01*
X021033Y026295D01*
X020913Y026115D02*
X021033Y025995D01*
D818*
X017981Y037158D02*
X017981Y039126D01*
X011977Y039126D01*
X005973Y039126D01*
X005973Y037158D01*
X011977Y037158D01*
X017981Y037158D01*
D819*
X011977Y037158D02*
X011977Y037552D01*
X011977Y037945D02*
X011977Y038339D01*
X011977Y038733D02*
X011977Y039126D01*
D820*
X011715Y034552D02*
X012489Y034552D01*
X012489Y032998D01*
X011715Y032998D01*
X011715Y034552D01*
X012490Y034552D02*
X012490Y032998D01*
X013264Y032998D01*
X013264Y034552D01*
X012490Y034552D01*
X013265Y034552D02*
X014039Y034552D01*
X014039Y032998D01*
X013265Y032998D01*
X013265Y034552D01*
X014115Y034552D02*
X014115Y032998D01*
X014889Y032998D01*
X014889Y034552D01*
X014115Y034552D01*
X014915Y033277D02*
X015689Y033277D01*
X015689Y031723D01*
X014915Y031723D01*
X014915Y033277D01*
X013254Y032987D02*
X013254Y032213D01*
X011701Y032213D01*
X011701Y032987D01*
X013254Y032987D01*
X014815Y031252D02*
X015589Y031252D01*
X015589Y029698D01*
X014815Y029698D01*
X014815Y031252D01*
X014604Y029462D02*
X014604Y028688D01*
X013051Y028688D01*
X013051Y029462D01*
X014604Y029462D01*
X014601Y029462D02*
X016154Y029462D01*
X016154Y028688D01*
X014601Y028688D01*
X014601Y029462D01*
X015054Y028687D02*
X015054Y027913D01*
X013501Y027913D01*
X013501Y028687D01*
X015054Y028687D01*
X015365Y028052D02*
X016139Y028052D01*
X016139Y026498D01*
X015365Y026498D01*
X015365Y028052D01*
X015092Y027656D02*
X015092Y026094D01*
X011963Y026094D01*
X011963Y027656D01*
X015092Y027656D01*
X015036Y025874D02*
X013769Y025874D01*
X013769Y023926D01*
X015036Y023926D01*
X015036Y025874D01*
X013761Y025874D02*
X013761Y023926D01*
X012494Y023926D01*
X012494Y025874D01*
X013761Y025874D01*
X012486Y025874D02*
X012486Y023926D01*
X011219Y023926D01*
X011219Y025874D01*
X012486Y025874D01*
X011951Y027913D02*
X011951Y028687D01*
X013504Y028687D01*
X013504Y027913D01*
X011951Y027913D01*
X011301Y029288D02*
X011301Y030062D01*
X012854Y030062D01*
X012854Y029288D01*
X011301Y029288D01*
X014904Y022787D02*
X014904Y022013D01*
X016851Y022013D01*
X016851Y022787D01*
X014904Y022787D01*
X014011Y021924D02*
X012744Y021924D01*
X012744Y019976D01*
X014011Y019976D01*
X014011Y021924D01*
X012736Y021924D02*
X012736Y019976D01*
X011469Y019976D01*
X011469Y021924D01*
X012736Y021924D01*
X016976Y022013D02*
X016976Y022787D01*
X018529Y022787D01*
X018529Y022013D01*
X016976Y022013D01*
X020829Y016487D02*
X020829Y015613D01*
X022776Y015613D01*
X022776Y016487D01*
X020829Y016487D01*
X021026Y016563D02*
X021026Y017337D01*
X022579Y017337D01*
X022579Y016563D01*
X021026Y016563D01*
X018604Y013612D02*
X018604Y012838D01*
X017051Y012838D01*
X017051Y013612D01*
X018604Y013612D01*
X017557Y012237D02*
X017557Y011463D01*
X016398Y011463D01*
X016398Y012237D01*
X017557Y012237D01*
X017954Y011337D02*
X017954Y010563D01*
X016401Y010563D01*
X016401Y011337D01*
X017954Y011337D01*
X017865Y008927D02*
X018639Y008927D01*
X018639Y007373D01*
X017865Y007373D01*
X017865Y008927D01*
X017864Y008927D02*
X017090Y008927D01*
X017090Y007373D01*
X017864Y007373D01*
X017864Y008927D01*
X017064Y008927D02*
X016290Y008927D01*
X016290Y007373D01*
X017064Y007373D01*
X017064Y008927D01*
X016239Y008927D02*
X016239Y007373D01*
X015465Y007373D01*
X015465Y008927D01*
X016239Y008927D01*
X015326Y008834D02*
X015326Y007566D01*
X013379Y007566D01*
X013379Y008834D01*
X015326Y008834D01*
X015014Y007002D02*
X014240Y007002D01*
X014240Y005448D01*
X015014Y005448D01*
X015014Y007002D01*
X014914Y004577D02*
X014140Y004577D01*
X014140Y003023D01*
X014914Y003023D01*
X014914Y004577D01*
X014351Y001637D02*
X014351Y000863D01*
X015904Y000863D01*
X015904Y001637D01*
X014351Y001637D01*
X014276Y001637D02*
X014276Y000863D01*
X012329Y000863D01*
X012329Y001637D01*
X014276Y001637D01*
X012054Y001338D02*
X012054Y002112D01*
X010501Y002112D01*
X010501Y001338D01*
X012054Y001338D01*
X011614Y002198D02*
X010840Y002198D01*
X010840Y003752D01*
X011614Y003752D01*
X011614Y002198D01*
X010789Y002198D02*
X010015Y002198D01*
X010015Y003752D01*
X010789Y003752D01*
X010789Y002198D01*
X011354Y003988D02*
X009801Y003988D01*
X009801Y004762D01*
X011354Y004762D01*
X011354Y003988D01*
X011354Y004838D02*
X011354Y005612D01*
X009801Y005612D01*
X009801Y004838D01*
X011354Y004838D01*
X011354Y005813D02*
X011354Y006587D01*
X009801Y006587D01*
X009801Y005813D01*
X011354Y005813D01*
X011364Y006648D02*
X010590Y006648D01*
X010590Y008202D01*
X011364Y008202D01*
X011364Y006648D01*
X012490Y010698D02*
X013264Y010698D01*
X013264Y012252D01*
X012490Y012252D01*
X012490Y010698D01*
X014440Y012926D02*
X015314Y012926D01*
X015314Y014874D01*
X014440Y014874D01*
X014440Y012926D01*
X015440Y013323D02*
X016214Y013323D01*
X016214Y014877D01*
X015440Y014877D01*
X015440Y013323D01*
X021315Y004077D02*
X022089Y004077D01*
X022089Y002523D01*
X021315Y002523D01*
X021315Y004077D01*
X023801Y001637D02*
X023801Y000863D01*
X025354Y000863D01*
X025354Y001637D01*
X023801Y001637D01*
X024365Y002523D02*
X025139Y002523D01*
X025139Y004077D01*
X024365Y004077D01*
X024365Y002523D01*
X025901Y006313D02*
X025901Y007087D01*
X027454Y007087D01*
X027454Y006313D01*
X025901Y006313D01*
X025604Y007463D02*
X025604Y008237D01*
X024051Y008237D01*
X024051Y007463D01*
X025604Y007463D01*
X027090Y008248D02*
X027090Y009802D01*
X027864Y009802D01*
X027864Y008248D01*
X027090Y008248D01*
X026704Y010838D02*
X026704Y011612D01*
X025151Y011612D01*
X025151Y010838D01*
X026704Y010838D01*
X026415Y011776D02*
X027289Y011776D01*
X027289Y013724D01*
X026415Y013724D01*
X026415Y011776D01*
X025154Y011612D02*
X025154Y010838D01*
X023601Y010838D01*
X023601Y011612D01*
X025154Y011612D01*
X023839Y010302D02*
X023065Y010302D01*
X023065Y008748D01*
X023839Y008748D01*
X023839Y010302D01*
X023489Y010648D02*
X022715Y010648D01*
X022715Y012202D01*
X023489Y012202D01*
X023489Y010648D01*
X023901Y013888D02*
X023901Y014662D01*
X025454Y014662D01*
X025454Y013888D01*
X023901Y013888D01*
X023454Y025788D02*
X021901Y025788D01*
X021901Y026562D01*
X023454Y026562D01*
X023454Y025788D01*
X022851Y028013D02*
X022851Y028787D01*
X024404Y028787D01*
X024404Y028013D01*
X022851Y028013D01*
X021939Y028352D02*
X021939Y026798D01*
X021165Y026798D01*
X021165Y028352D01*
X021939Y028352D01*
X020129Y029263D02*
X020129Y030037D01*
X018576Y030037D01*
X018576Y029263D01*
X020129Y029263D01*
X018579Y029263D02*
X018579Y030037D01*
X017026Y030037D01*
X017026Y029263D01*
X018579Y029263D01*
X018579Y030038D02*
X017026Y030038D01*
X017026Y030812D01*
X018579Y030812D01*
X018579Y030038D01*
X026640Y031551D02*
X026640Y033499D01*
X027414Y033499D01*
X027414Y031551D01*
X026640Y031551D01*
X006914Y009880D02*
X006914Y008720D01*
X006140Y008720D01*
X006140Y009880D01*
X006914Y009880D01*
X007039Y007130D02*
X006265Y007130D01*
X006265Y005970D01*
X007039Y005970D01*
X007039Y007130D01*
D821*
X016704Y023030D02*
X016704Y025620D01*
X019106Y025620D01*
X019106Y025490D01*
X019106Y023160D02*
X019106Y023030D01*
X016704Y023030D01*
X022481Y025225D02*
X022874Y025028D01*
X022874Y025422D01*
X022481Y025225D01*
D822*
X022457Y025225D03*
D823*
X016541Y024325D03*
D824*
X016525Y025225D03*
X016525Y023425D03*
D825*
X016362Y026205D02*
X016792Y026205D01*
X016792Y026555D02*
X016362Y026555D01*
X016362Y027995D02*
X016792Y027995D01*
X016792Y028345D02*
X016362Y028345D01*
X014647Y030245D02*
X014647Y030755D01*
X014626Y030757D01*
X014606Y030762D01*
X014587Y030771D01*
X014570Y030783D01*
X014555Y030798D01*
X014543Y030815D01*
X014534Y030834D01*
X014529Y030854D01*
X014527Y030875D01*
X014529Y030896D01*
X014534Y030916D01*
X014543Y030935D01*
X014555Y030952D01*
X014570Y030967D01*
X014587Y030979D01*
X014606Y030988D01*
X014626Y030993D01*
X014647Y030995D01*
X014647Y031505D01*
X013007Y031505D02*
X013007Y030245D01*
X011282Y023020D02*
X007022Y023020D01*
X007022Y017980D01*
X011282Y017980D01*
X011282Y023020D01*
X011182Y022530D02*
X009522Y022530D01*
X008782Y022530D02*
X007122Y022530D01*
X007122Y018470D01*
X008782Y018470D01*
X008652Y018390D02*
X008652Y018090D01*
X008502Y018240D02*
X008802Y018240D01*
X008142Y018470D02*
X007122Y019490D01*
X008702Y020150D02*
X009152Y020150D01*
X009602Y020150D01*
X009602Y020400D01*
X008702Y020400D01*
X008702Y020150D01*
X009152Y020150D02*
X009152Y020050D01*
X007152Y020500D02*
X007154Y020598D01*
X007162Y020696D01*
X007174Y020793D01*
X007190Y020890D01*
X007212Y020986D01*
X007238Y021081D01*
X007269Y021174D01*
X007304Y021265D01*
X007344Y021355D01*
X007388Y021443D01*
X007437Y021528D01*
X007489Y021611D01*
X007546Y021691D01*
X007606Y021769D01*
X007670Y021843D01*
X007738Y021914D01*
X007809Y021982D01*
X007883Y022046D01*
X007961Y022106D01*
X008041Y022163D01*
X008124Y022215D01*
X008209Y022264D01*
X008297Y022308D01*
X008387Y022348D01*
X008478Y022383D01*
X008571Y022414D01*
X008666Y022440D01*
X008762Y022462D01*
X008859Y022478D01*
X008956Y022490D01*
X009054Y022498D01*
X009152Y022500D01*
X009250Y022498D01*
X009348Y022490D01*
X009445Y022478D01*
X009542Y022462D01*
X009638Y022440D01*
X009733Y022414D01*
X009826Y022383D01*
X009917Y022348D01*
X010007Y022308D01*
X010095Y022264D01*
X010180Y022215D01*
X010263Y022163D01*
X010343Y022106D01*
X010421Y022046D01*
X010495Y021982D01*
X010566Y021914D01*
X010634Y021843D01*
X010698Y021769D01*
X010758Y021691D01*
X010815Y021611D01*
X010867Y021528D01*
X010916Y021443D01*
X010960Y021355D01*
X011000Y021265D01*
X011035Y021174D01*
X011066Y021081D01*
X011092Y020986D01*
X011114Y020890D01*
X011130Y020793D01*
X011142Y020696D01*
X011150Y020598D01*
X011152Y020500D01*
X011150Y020402D01*
X011142Y020304D01*
X011130Y020207D01*
X011114Y020110D01*
X011092Y020014D01*
X011066Y019919D01*
X011035Y019826D01*
X011000Y019735D01*
X010960Y019645D01*
X010916Y019557D01*
X010867Y019472D01*
X010815Y019389D01*
X010758Y019309D01*
X010698Y019231D01*
X010634Y019157D01*
X010566Y019086D01*
X010495Y019018D01*
X010421Y018954D01*
X010343Y018894D01*
X010263Y018837D01*
X010180Y018785D01*
X010095Y018736D01*
X010007Y018692D01*
X009917Y018652D01*
X009826Y018617D01*
X009733Y018586D01*
X009638Y018560D01*
X009542Y018538D01*
X009445Y018522D01*
X009348Y018510D01*
X009250Y018502D01*
X009152Y018500D01*
X009054Y018502D01*
X008956Y018510D01*
X008859Y018522D01*
X008762Y018538D01*
X008666Y018560D01*
X008571Y018586D01*
X008478Y018617D01*
X008387Y018652D01*
X008297Y018692D01*
X008209Y018736D01*
X008124Y018785D01*
X008041Y018837D01*
X007961Y018894D01*
X007883Y018954D01*
X007809Y019018D01*
X007738Y019086D01*
X007670Y019157D01*
X007606Y019231D01*
X007546Y019309D01*
X007489Y019389D01*
X007437Y019472D01*
X007388Y019557D01*
X007344Y019645D01*
X007304Y019735D01*
X007269Y019826D01*
X007238Y019919D01*
X007212Y020014D01*
X007190Y020110D01*
X007174Y020207D01*
X007162Y020304D01*
X007154Y020402D01*
X007152Y020500D01*
X009152Y020750D02*
X009152Y020950D01*
X011182Y019490D02*
X010162Y018470D01*
X011182Y018470D01*
X011182Y022530D01*
X010162Y018470D02*
X009522Y018470D01*
X011502Y015975D02*
X011502Y013775D01*
X014302Y013775D01*
X014302Y015975D01*
X011502Y015975D01*
X014287Y012005D02*
X014707Y012005D01*
X014709Y011984D01*
X014714Y011964D01*
X014723Y011945D01*
X014735Y011928D01*
X014750Y011913D01*
X014767Y011901D01*
X014786Y011892D01*
X014806Y011887D01*
X014827Y011885D01*
X014848Y011887D01*
X014868Y011892D01*
X014887Y011901D01*
X014904Y011913D01*
X014919Y011928D01*
X014931Y011945D01*
X014940Y011964D01*
X014945Y011984D01*
X014947Y012005D01*
X015367Y012005D01*
X014947Y012005D02*
X014945Y011984D01*
X014940Y011964D01*
X014931Y011945D01*
X014919Y011928D01*
X014904Y011913D01*
X014887Y011901D01*
X014868Y011892D01*
X014848Y011887D01*
X014827Y011885D01*
X014806Y011887D01*
X014786Y011892D01*
X014767Y011901D01*
X014750Y011913D01*
X014735Y011928D01*
X014723Y011945D01*
X014714Y011964D01*
X014709Y011984D01*
X014707Y012005D01*
X014727Y011775D02*
X014727Y011525D01*
X014377Y011775D01*
X014727Y011775D01*
X014727Y011733D02*
X014436Y011733D01*
X014518Y011675D02*
X014727Y011675D01*
X014727Y011616D02*
X014600Y011616D01*
X014682Y011558D02*
X014727Y011558D01*
X014287Y010045D02*
X015367Y010045D01*
X016327Y013725D02*
X019127Y013725D01*
X019127Y015925D01*
X016327Y015925D01*
X016327Y013725D01*
X018877Y010775D02*
X021677Y010775D01*
X021677Y007375D01*
X018877Y007375D01*
X018877Y010775D01*
X018977Y010375D02*
X018977Y007775D01*
X019997Y007775D01*
X019777Y007685D02*
X019777Y007385D01*
X019627Y007535D02*
X019927Y007535D01*
X019627Y007775D02*
X018977Y008425D01*
X018977Y010375D02*
X019997Y010375D01*
X020557Y010375D02*
X021577Y010375D01*
X021577Y007775D01*
X020927Y007775D01*
X021577Y008425D01*
X020927Y007775D02*
X020557Y007775D01*
X020702Y007125D02*
X024102Y007125D01*
X024102Y004325D01*
X020702Y004325D01*
X020702Y007125D01*
X021102Y007025D02*
X021102Y006005D01*
X021012Y006225D02*
X020712Y006225D01*
X020862Y006375D02*
X020862Y006075D01*
X021102Y006375D02*
X021752Y007025D01*
X021102Y007025D02*
X023702Y007025D01*
X023702Y006005D01*
X023702Y005445D02*
X023702Y004425D01*
X021102Y004425D01*
X021102Y005075D01*
X021752Y004425D01*
X021102Y005075D02*
X021102Y005445D01*
X021002Y003300D02*
X020527Y003300D01*
X020752Y002975D01*
X021002Y003300D01*
X020964Y003251D02*
X020562Y003251D01*
X020602Y003192D02*
X020919Y003192D01*
X020874Y003134D02*
X020643Y003134D01*
X020683Y003075D02*
X020829Y003075D01*
X020784Y003017D02*
X020724Y003017D01*
X024841Y008345D02*
X025457Y008345D01*
X025459Y008366D01*
X025464Y008386D01*
X025473Y008405D01*
X025485Y008422D01*
X025500Y008437D01*
X025517Y008449D01*
X025536Y008458D01*
X025556Y008463D01*
X025577Y008465D01*
X025598Y008463D01*
X025618Y008458D01*
X025637Y008449D01*
X025654Y008437D01*
X025669Y008422D01*
X025681Y008405D01*
X025690Y008386D01*
X025695Y008366D01*
X025697Y008345D01*
X026314Y008345D01*
X026202Y008600D02*
X025852Y008850D01*
X025852Y008600D01*
X026202Y008600D01*
X026157Y008633D02*
X025852Y008633D01*
X025852Y008691D02*
X026075Y008691D01*
X025993Y008750D02*
X025852Y008750D01*
X025852Y008808D02*
X025911Y008808D01*
X026577Y008075D02*
X026577Y007600D01*
X026902Y007825D01*
X026577Y008075D01*
X026577Y008048D02*
X026613Y008048D01*
X026577Y007989D02*
X026689Y007989D01*
X026765Y007931D02*
X026577Y007931D01*
X026577Y007872D02*
X026841Y007872D01*
X026886Y007814D02*
X026577Y007814D01*
X026577Y007755D02*
X026801Y007755D01*
X026717Y007697D02*
X026577Y007697D01*
X026577Y007638D02*
X026632Y007638D01*
X026627Y006075D02*
X026302Y005850D01*
X026627Y005600D01*
X026627Y006075D01*
X026627Y006059D02*
X026604Y006059D01*
X026627Y006000D02*
X026519Y006000D01*
X026435Y005942D02*
X026627Y005942D01*
X026627Y005883D02*
X026350Y005883D01*
X026336Y005825D02*
X026627Y005825D01*
X026627Y005766D02*
X026412Y005766D01*
X026488Y005708D02*
X026627Y005708D01*
X026627Y005649D02*
X026564Y005649D01*
X026582Y005305D02*
X025966Y005305D01*
X026077Y005050D02*
X026427Y004800D01*
X026427Y005050D01*
X026077Y005050D01*
X026140Y005006D02*
X026427Y005006D01*
X026427Y004947D02*
X026222Y004947D01*
X026304Y004889D02*
X026427Y004889D01*
X026427Y004830D02*
X026385Y004830D01*
X026582Y005305D02*
X026584Y005284D01*
X026589Y005264D01*
X026598Y005245D01*
X026610Y005228D01*
X026625Y005213D01*
X026642Y005201D01*
X026661Y005192D01*
X026681Y005187D01*
X026702Y005185D01*
X026723Y005187D01*
X026743Y005192D01*
X026762Y005201D01*
X026779Y005213D01*
X026794Y005228D01*
X026806Y005245D01*
X026815Y005264D01*
X026820Y005284D01*
X026822Y005305D01*
X027439Y005305D01*
X027439Y003345D02*
X025966Y003345D01*
X026314Y010305D02*
X024841Y010305D01*
X024782Y011795D02*
X024362Y011795D01*
X024782Y011795D02*
X024784Y011816D01*
X024789Y011836D01*
X024798Y011855D01*
X024810Y011872D01*
X024825Y011887D01*
X024842Y011899D01*
X024861Y011908D01*
X024881Y011913D01*
X024902Y011915D01*
X024923Y011913D01*
X024943Y011908D01*
X024962Y011899D01*
X024979Y011887D01*
X024994Y011872D01*
X025006Y011855D01*
X025015Y011836D01*
X025020Y011816D01*
X025022Y011795D01*
X025442Y011795D01*
X025352Y012025D02*
X025002Y012275D01*
X025002Y012025D01*
X025352Y012025D01*
X025352Y012026D02*
X025002Y012026D01*
X025002Y012084D02*
X025270Y012084D01*
X025188Y012143D02*
X025002Y012143D01*
X025002Y012201D02*
X025106Y012201D01*
X025024Y012260D02*
X025002Y012260D01*
X025022Y011795D02*
X025020Y011816D01*
X025015Y011836D01*
X025006Y011855D01*
X024994Y011872D01*
X024979Y011887D01*
X024962Y011899D01*
X024943Y011908D01*
X024923Y011913D01*
X024902Y011915D01*
X024881Y011913D01*
X024861Y011908D01*
X024842Y011899D01*
X024825Y011887D01*
X024810Y011872D01*
X024798Y011855D01*
X024789Y011836D01*
X024784Y011816D01*
X024782Y011795D01*
X024362Y013755D02*
X025442Y013755D01*
X026127Y016500D02*
X029427Y016500D01*
X029427Y025500D01*
X026127Y025500D01*
X026127Y016500D01*
X023857Y017580D02*
X023857Y021120D01*
X019597Y021120D01*
X019597Y017580D01*
X023857Y017580D01*
X023397Y017680D02*
X023397Y019000D01*
X023397Y019700D02*
X023397Y021020D01*
X020057Y021020D01*
X020057Y019700D01*
X020057Y020190D02*
X020887Y021020D01*
X020057Y019000D02*
X020057Y018510D01*
X020887Y017680D01*
X020057Y017680D02*
X023397Y017680D01*
X020057Y017680D02*
X020057Y018510D01*
X019407Y019350D02*
X019107Y019350D01*
X019257Y019500D02*
X019257Y019200D01*
X023977Y026850D02*
X024127Y027075D01*
X024277Y026850D01*
X023977Y026850D01*
X024001Y026885D02*
X024254Y026885D01*
X024215Y026943D02*
X024040Y026943D01*
X024079Y027002D02*
X024176Y027002D01*
X024137Y027060D02*
X024118Y027060D01*
X024747Y027315D02*
X025767Y026295D01*
X026127Y026065D02*
X026427Y026065D01*
X026277Y026215D02*
X026277Y025915D01*
X026407Y026295D02*
X024747Y026295D01*
X024747Y030355D01*
X026407Y030355D01*
X027147Y030355D02*
X028807Y030355D01*
X028807Y026295D01*
X027787Y026295D01*
X028807Y027315D01*
X027787Y026295D02*
X027147Y026295D01*
X026777Y027875D02*
X026777Y027975D01*
X026327Y027975D01*
X026327Y028225D01*
X027227Y028225D01*
X027227Y027975D01*
X026777Y027975D01*
X024777Y028325D02*
X024779Y028423D01*
X024787Y028521D01*
X024799Y028618D01*
X024815Y028715D01*
X024837Y028811D01*
X024863Y028906D01*
X024894Y028999D01*
X024929Y029090D01*
X024969Y029180D01*
X025013Y029268D01*
X025062Y029353D01*
X025114Y029436D01*
X025171Y029516D01*
X025231Y029594D01*
X025295Y029668D01*
X025363Y029739D01*
X025434Y029807D01*
X025508Y029871D01*
X025586Y029931D01*
X025666Y029988D01*
X025749Y030040D01*
X025834Y030089D01*
X025922Y030133D01*
X026012Y030173D01*
X026103Y030208D01*
X026196Y030239D01*
X026291Y030265D01*
X026387Y030287D01*
X026484Y030303D01*
X026581Y030315D01*
X026679Y030323D01*
X026777Y030325D01*
X026875Y030323D01*
X026973Y030315D01*
X027070Y030303D01*
X027167Y030287D01*
X027263Y030265D01*
X027358Y030239D01*
X027451Y030208D01*
X027542Y030173D01*
X027632Y030133D01*
X027720Y030089D01*
X027805Y030040D01*
X027888Y029988D01*
X027968Y029931D01*
X028046Y029871D01*
X028120Y029807D01*
X028191Y029739D01*
X028259Y029668D01*
X028323Y029594D01*
X028383Y029516D01*
X028440Y029436D01*
X028492Y029353D01*
X028541Y029268D01*
X028585Y029180D01*
X028625Y029090D01*
X028660Y028999D01*
X028691Y028906D01*
X028717Y028811D01*
X028739Y028715D01*
X028755Y028618D01*
X028767Y028521D01*
X028775Y028423D01*
X028777Y028325D01*
X028775Y028227D01*
X028767Y028129D01*
X028755Y028032D01*
X028739Y027935D01*
X028717Y027839D01*
X028691Y027744D01*
X028660Y027651D01*
X028625Y027560D01*
X028585Y027470D01*
X028541Y027382D01*
X028492Y027297D01*
X028440Y027214D01*
X028383Y027134D01*
X028323Y027056D01*
X028259Y026982D01*
X028191Y026911D01*
X028120Y026843D01*
X028046Y026779D01*
X027968Y026719D01*
X027888Y026662D01*
X027805Y026610D01*
X027720Y026561D01*
X027632Y026517D01*
X027542Y026477D01*
X027451Y026442D01*
X027358Y026411D01*
X027263Y026385D01*
X027167Y026363D01*
X027070Y026347D01*
X026973Y026335D01*
X026875Y026327D01*
X026777Y026325D01*
X026679Y026327D01*
X026581Y026335D01*
X026484Y026347D01*
X026387Y026363D01*
X026291Y026385D01*
X026196Y026411D01*
X026103Y026442D01*
X026012Y026477D01*
X025922Y026517D01*
X025834Y026561D01*
X025749Y026610D01*
X025666Y026662D01*
X025586Y026719D01*
X025508Y026779D01*
X025434Y026843D01*
X025363Y026911D01*
X025295Y026982D01*
X025231Y027056D01*
X025171Y027134D01*
X025114Y027214D01*
X025062Y027297D01*
X025013Y027382D01*
X024969Y027470D01*
X024929Y027560D01*
X024894Y027651D01*
X024863Y027744D01*
X024837Y027839D01*
X024815Y027935D01*
X024799Y028032D01*
X024787Y028129D01*
X024779Y028227D01*
X024777Y028325D01*
X023692Y028935D02*
X023532Y028935D01*
X023372Y028935D01*
X023372Y029285D01*
X023662Y029055D02*
X023642Y029055D01*
X023623Y029051D01*
X023604Y029045D01*
X023586Y029035D01*
X023571Y029023D01*
X023557Y029009D01*
X023546Y028992D01*
X023538Y028974D01*
X023534Y028954D01*
X023532Y028935D01*
X023932Y029365D02*
X023932Y029685D01*
X023692Y030115D02*
X023372Y030115D01*
X023372Y029765D01*
X024647Y030845D02*
X028907Y030845D01*
X028907Y025805D01*
X024647Y025805D01*
X024647Y030845D01*
X026777Y028775D02*
X026777Y028575D01*
X013982Y006210D02*
X013982Y005620D01*
X013961Y005618D01*
X013941Y005613D01*
X013922Y005604D01*
X013905Y005592D01*
X013890Y005577D01*
X013878Y005560D01*
X013869Y005541D01*
X013864Y005521D01*
X013862Y005500D01*
X013864Y005479D01*
X013869Y005459D01*
X013878Y005440D01*
X013890Y005423D01*
X013905Y005408D01*
X013922Y005396D01*
X013941Y005387D01*
X013961Y005382D01*
X013982Y005380D01*
X013982Y004790D01*
X013852Y005800D02*
X013602Y005800D01*
X013852Y006150D01*
X013852Y005800D01*
X013852Y005825D02*
X013620Y005825D01*
X013662Y005883D02*
X013852Y005883D01*
X013852Y005942D02*
X013704Y005942D01*
X013745Y006000D02*
X013852Y006000D01*
X013852Y006059D02*
X013787Y006059D01*
X013829Y006117D02*
X013852Y006117D01*
X012022Y006210D02*
X012022Y004790D01*
X013352Y002800D02*
X013677Y002550D01*
X013352Y002325D01*
X013352Y002800D01*
X013352Y002783D02*
X013375Y002783D01*
X013352Y002724D02*
X013451Y002724D01*
X013527Y002666D02*
X013352Y002666D01*
X013352Y002607D02*
X013603Y002607D01*
X013675Y002549D02*
X013352Y002549D01*
X013352Y002490D02*
X013591Y002490D01*
X013506Y002432D02*
X013352Y002432D01*
X013352Y002373D02*
X013422Y002373D01*
X008982Y007213D02*
X008982Y008687D01*
X007527Y007675D02*
X007277Y007325D01*
X007277Y007675D01*
X007527Y007675D01*
X007501Y007638D02*
X007277Y007638D01*
X007277Y007580D02*
X007459Y007580D01*
X007417Y007521D02*
X007277Y007521D01*
X007277Y007463D02*
X007376Y007463D01*
X007334Y007404D02*
X007277Y007404D01*
X007277Y007346D02*
X007292Y007346D01*
X007022Y007213D02*
X007022Y007830D01*
X007043Y007832D01*
X007063Y007837D01*
X007082Y007846D01*
X007099Y007858D01*
X007114Y007873D01*
X007126Y007890D01*
X007135Y007909D01*
X007140Y007929D01*
X007142Y007950D01*
X007140Y007971D01*
X007135Y007991D01*
X007126Y008010D01*
X007114Y008027D01*
X007099Y008042D01*
X007082Y008054D01*
X007063Y008063D01*
X007043Y008068D01*
X007022Y008070D01*
X007022Y008687D01*
D826*
X020752Y002914D03*
X024127Y027136D03*
D827*
X023017Y001250D03*
D828*
X026241Y005850D03*
X026964Y007825D03*
X013739Y002550D03*
D829*
X028202Y032158D03*
D830*
X026777Y028550D03*
X009152Y020725D03*
D831*
X010777Y021000D02*
X010750Y021079D01*
X010720Y021156D01*
X010686Y021232D01*
X010649Y021306D01*
X010607Y021379D01*
X010563Y021449D01*
X010515Y021517D01*
X010463Y021582D01*
X010409Y021645D01*
X010351Y021705D01*
X010291Y021762D01*
X010228Y021816D01*
X010162Y021867D01*
X010094Y021915D01*
X010024Y021960D01*
X009951Y022000D01*
X009877Y022038D01*
X009801Y022071D01*
X009723Y022101D01*
X009644Y022127D01*
X009564Y022149D01*
X009483Y022168D01*
X009401Y022182D01*
X009318Y022192D01*
X009235Y022198D01*
X009152Y022200D01*
X009069Y022198D01*
X008986Y022192D01*
X008903Y022182D01*
X008821Y022168D01*
X008740Y022149D01*
X008660Y022127D01*
X008581Y022101D01*
X008503Y022071D01*
X008427Y022038D01*
X008353Y022000D01*
X008280Y021960D01*
X008210Y021915D01*
X008142Y021867D01*
X008076Y021816D01*
X008013Y021762D01*
X007953Y021705D01*
X007895Y021645D01*
X007841Y021582D01*
X007789Y021517D01*
X007741Y021449D01*
X007697Y021379D01*
X007655Y021306D01*
X007618Y021232D01*
X007584Y021156D01*
X007554Y021079D01*
X007527Y021000D01*
X025152Y028825D02*
X025179Y028904D01*
X025209Y028981D01*
X025243Y029057D01*
X025280Y029131D01*
X025322Y029204D01*
X025366Y029274D01*
X025414Y029342D01*
X025466Y029407D01*
X025520Y029470D01*
X025578Y029530D01*
X025638Y029587D01*
X025701Y029641D01*
X025767Y029692D01*
X025835Y029740D01*
X025905Y029785D01*
X025978Y029825D01*
X026052Y029863D01*
X026128Y029896D01*
X026206Y029926D01*
X026285Y029952D01*
X026365Y029974D01*
X026446Y029993D01*
X026528Y030007D01*
X026611Y030017D01*
X026694Y030023D01*
X026777Y030025D01*
X026860Y030023D01*
X026943Y030017D01*
X027026Y030007D01*
X027108Y029993D01*
X027189Y029974D01*
X027269Y029952D01*
X027348Y029926D01*
X027426Y029896D01*
X027502Y029863D01*
X027576Y029825D01*
X027649Y029785D01*
X027719Y029740D01*
X027787Y029692D01*
X027853Y029641D01*
X027916Y029587D01*
X027976Y029530D01*
X028034Y029470D01*
X028088Y029407D01*
X028140Y029342D01*
X028188Y029274D01*
X028232Y029204D01*
X028274Y029131D01*
X028311Y029057D01*
X028345Y028981D01*
X028375Y028904D01*
X028402Y028825D01*
D832*
X010591Y010585D02*
X010591Y010215D01*
X010714Y010215D02*
X010467Y010215D01*
X010467Y010462D02*
X010591Y010585D01*
X006714Y010190D02*
X006467Y010190D01*
X006591Y010190D02*
X006591Y010560D01*
X006467Y010437D01*
X006591Y003710D02*
X006467Y003587D01*
X006591Y003710D02*
X006591Y003340D01*
X006714Y003340D02*
X006467Y003340D01*
D833*
X022357Y034625D03*
D834*
X021977Y030625D02*
X022170Y030630D01*
X022363Y030644D01*
X022555Y030667D01*
X022746Y030700D01*
X022934Y030741D01*
X023121Y030792D01*
X023305Y030852D01*
X023485Y030920D01*
X023663Y030998D01*
X023836Y031083D01*
X024005Y031177D01*
X024169Y031279D01*
X024328Y031389D01*
X024482Y031506D01*
X024629Y031631D01*
X024771Y031763D01*
X024906Y031901D01*
X025034Y032046D01*
X025155Y032196D01*
X025269Y032353D01*
X025375Y032514D01*
X025473Y032681D01*
X025563Y032852D01*
X025644Y033028D01*
X025717Y033207D01*
X025781Y033389D01*
X025837Y033574D01*
X025883Y033762D01*
X025920Y033952D01*
X025948Y034143D01*
X025966Y034335D01*
X025976Y034528D01*
X025976Y034722D01*
X025966Y034915D01*
X025948Y035107D01*
X025920Y035298D01*
X025883Y035488D01*
X025837Y035676D01*
X025781Y035861D01*
X025717Y036043D01*
X025644Y036222D01*
X025563Y036398D01*
X025473Y036569D01*
X025375Y036736D01*
X025269Y036897D01*
X025155Y037054D01*
X025034Y037204D01*
X024906Y037349D01*
X024771Y037487D01*
X024629Y037619D01*
X024482Y037744D01*
X024328Y037861D01*
X024169Y037971D01*
X024005Y038073D01*
X023836Y038167D01*
X023663Y038252D01*
X023485Y038330D01*
X023305Y038398D01*
X023121Y038458D01*
X022934Y038509D01*
X022746Y038550D01*
X022555Y038583D01*
X022363Y038606D01*
X022170Y038620D01*
X021977Y038625D01*
M02*
