G75*
G70*
%OFA0B0*%
%FSLAX24Y24*%
%IPPOS*%
%LPD*%
%AMOC8*
5,1,8,0,0,1.08239X$1,22.5*
%
%ADD10C,0.1200*%
%ADD11C,0.0921*%
%ADD12C,0.0840*%
%ADD13OC8,0.0840*%
%ADD14R,0.0712X0.0712*%
%ADD15OC8,0.0712*%
%ADD16C,0.0712*%
%ADD17C,0.2010*%
%ADD18OC8,0.2010*%
%ADD19C,0.2365*%
D10*
X007738Y033584D02*
X008738Y033584D01*
X008738Y035553D02*
X007738Y035553D01*
D11*
X007931Y040480D02*
X007164Y040480D01*
X011101Y040480D02*
X011868Y040480D01*
X014053Y040480D02*
X014821Y040480D01*
X017006Y040480D02*
X017774Y040480D01*
D12*
X027368Y030056D03*
X009743Y022231D03*
D13*
X009743Y024231D03*
X027368Y032056D03*
D14*
X026118Y019731D03*
D15*
X026118Y020731D03*
X026118Y021731D03*
X026118Y022731D03*
X026118Y023731D03*
X026118Y024731D03*
X026118Y025731D03*
X026118Y026731D03*
X026118Y027731D03*
X025118Y027731D03*
X025118Y026731D03*
X025118Y025731D03*
X025118Y024731D03*
X025118Y023731D03*
X025118Y022731D03*
X025118Y021731D03*
X025118Y020731D03*
X025118Y019731D03*
D16*
X007168Y007478D02*
X007168Y006885D01*
X008168Y006885D02*
X008168Y007478D01*
X009168Y007478D02*
X009168Y006885D01*
X009168Y013735D02*
X009168Y014328D01*
X008168Y014328D02*
X008168Y013735D01*
X007168Y013735D02*
X007168Y014328D01*
X011168Y014353D02*
X011168Y013760D01*
X012168Y013760D02*
X012168Y014353D01*
D17*
X020568Y037356D03*
D18*
X024568Y037356D03*
D19*
X028315Y038315D03*
X007843Y038315D03*
X007843Y004456D03*
X028315Y004456D03*
M02*
