G75*
G70*
%OFA0B0*%
%FSLAX24Y24*%
%IPPOS*%
%LPD*%
%AMOC8*
5,1,8,0,0,1.08239X$1,22.5*
%
%ADD10C,0.0050*%
%ADD11C,0.1000*%
%ADD12C,0.0768*%
%ADD13C,0.0100*%
%ADD14C,0.0010*%
%ADD15R,0.0098X0.0197*%
%ADD16C,0.0700*%
%ADD17OC8,0.0700*%
%ADD18R,0.0594X0.0594*%
%ADD19OC8,0.0594*%
%ADD20C,0.0594*%
%ADD21C,0.1810*%
%ADD22OC8,0.1810*%
%ADD23R,0.0396X0.0396*%
%ADD24OC8,0.0396*%
%ADD25C,0.0400*%
%ADD26C,0.2165*%
%ADD27C,0.1500*%
%ADD28C,0.0160*%
%ADD29C,0.0120*%
%ADD30C,0.0320*%
D10*
X006452Y013518D02*
X006302Y013668D01*
X006452Y013518D02*
X006602Y013518D01*
X006752Y013668D01*
X006752Y013828D02*
X006752Y014129D01*
X006752Y013978D02*
X006302Y013978D01*
X006452Y014129D01*
X006452Y014289D02*
X006527Y014364D01*
X006527Y014589D01*
X006302Y014589D02*
X006302Y014364D01*
X006377Y014289D01*
X006452Y014289D01*
X006527Y014364D02*
X006602Y014289D01*
X006677Y014289D01*
X006752Y014364D01*
X006752Y014589D01*
X006302Y014589D01*
X006302Y014899D02*
X006752Y014899D01*
X006752Y015049D02*
X006752Y014749D01*
X006452Y015049D02*
X006302Y014899D01*
X006452Y015208D02*
X006452Y015283D01*
X006602Y015433D01*
X006752Y015433D02*
X006452Y015433D01*
X006302Y016054D02*
X006377Y016204D01*
X006527Y016354D01*
X006527Y016129D01*
X006602Y016054D01*
X006677Y016054D01*
X006752Y016129D01*
X006752Y016279D01*
X006677Y016354D01*
X006527Y016354D01*
X006752Y016514D02*
X006752Y016814D01*
X006752Y016664D02*
X006302Y016664D01*
X006452Y016814D01*
X006377Y016974D02*
X006677Y017275D01*
X006752Y017200D01*
X006752Y017049D01*
X006677Y016974D01*
X006377Y016974D01*
X006302Y017049D01*
X006302Y017200D01*
X006377Y017275D01*
X006677Y017275D01*
X006752Y017435D02*
X006752Y017735D01*
X006452Y017435D01*
X006377Y017435D01*
X006302Y017510D01*
X006302Y017660D01*
X006377Y017735D01*
X006302Y017895D02*
X006752Y018195D01*
X006677Y018356D02*
X006752Y018431D01*
X006752Y018581D01*
X006677Y018656D01*
X006677Y018816D02*
X006377Y018816D01*
X006677Y019116D01*
X006752Y019041D01*
X006752Y018891D01*
X006677Y018816D01*
X006377Y018816D02*
X006302Y018891D01*
X006302Y019041D01*
X006377Y019116D01*
X006677Y019116D01*
X006752Y019273D02*
X006602Y019423D01*
X006452Y019423D01*
X006302Y019273D01*
X006452Y020042D02*
X006452Y020117D01*
X006602Y020267D01*
X006752Y020267D02*
X006452Y020267D01*
X006527Y020427D02*
X006452Y020502D01*
X006452Y020652D01*
X006527Y020728D01*
X006677Y020728D01*
X006752Y020652D01*
X006752Y020502D01*
X006677Y020427D01*
X006527Y020427D01*
X006452Y020884D02*
X006452Y021034D01*
X006377Y020959D02*
X006677Y020959D01*
X006752Y020884D01*
X006752Y021195D02*
X006527Y021195D01*
X006452Y021270D01*
X006452Y021420D01*
X006602Y021420D02*
X006602Y021195D01*
X006752Y021195D02*
X006752Y021420D01*
X006677Y021495D01*
X006602Y021420D01*
X006752Y021652D02*
X006752Y021802D01*
X006752Y021727D02*
X006302Y021727D01*
X006302Y021802D01*
X006452Y021962D02*
X006752Y021962D01*
X006752Y022187D01*
X006677Y022262D01*
X006452Y022262D01*
X006452Y022422D02*
X006452Y022648D01*
X006527Y022723D01*
X006677Y022723D01*
X006752Y022648D01*
X006752Y022422D01*
X006827Y022422D02*
X006452Y022422D01*
X006827Y022422D02*
X006903Y022497D01*
X006903Y022572D01*
X006752Y022958D02*
X006752Y023108D01*
X006677Y023183D01*
X006527Y023183D01*
X006452Y023108D01*
X006452Y022958D01*
X006527Y022883D01*
X006602Y022883D01*
X006602Y023183D01*
X006452Y023341D02*
X006452Y023417D01*
X006602Y023567D01*
X006752Y023567D02*
X006452Y023567D01*
X006527Y023727D02*
X006527Y024027D01*
X006527Y024187D02*
X006602Y024187D01*
X006602Y024487D01*
X006677Y024487D02*
X006527Y024487D01*
X006452Y024412D01*
X006452Y024262D01*
X006527Y024187D01*
X006752Y024262D02*
X006752Y024412D01*
X006677Y024487D01*
X006452Y024646D02*
X006452Y024721D01*
X006602Y024871D01*
X006752Y024871D02*
X006452Y024871D01*
X006527Y025031D02*
X006677Y025031D01*
X006752Y025106D01*
X006752Y025331D01*
X006903Y025331D02*
X006452Y025331D01*
X006452Y025106D01*
X006527Y025031D01*
X006602Y025952D02*
X006527Y026027D01*
X006527Y026177D01*
X006452Y026252D01*
X006377Y026252D01*
X006302Y026177D01*
X006302Y026027D01*
X006377Y025952D01*
X006602Y025952D02*
X006677Y025952D01*
X006752Y026027D01*
X006752Y026177D01*
X006677Y026252D01*
X006527Y026412D02*
X006602Y026487D01*
X006602Y026713D01*
X006752Y026713D02*
X006302Y026713D01*
X006302Y026487D01*
X006377Y026412D01*
X006527Y026412D01*
X006302Y026873D02*
X006752Y026873D01*
X006752Y027173D02*
X006302Y027173D01*
X006452Y027023D01*
X006302Y026873D01*
X006377Y027333D02*
X006302Y027408D01*
X006302Y027558D01*
X006377Y027633D01*
X006452Y027633D01*
X006527Y027558D01*
X006527Y027408D01*
X006602Y027333D01*
X006677Y027333D01*
X006752Y027408D01*
X006752Y027558D01*
X006677Y027633D01*
X006752Y028254D02*
X006752Y028554D01*
X006677Y028554D01*
X006377Y028254D01*
X006302Y028254D01*
X006302Y028554D01*
X006302Y028714D02*
X006302Y029015D01*
X006752Y029015D01*
X006752Y028714D01*
X006527Y028864D02*
X006527Y029015D01*
X006302Y029175D02*
X006302Y029475D01*
X006752Y029475D01*
X006752Y029175D01*
X006527Y029325D02*
X006527Y029475D01*
X006377Y018656D02*
X006302Y018581D01*
X006302Y018431D01*
X006377Y018356D01*
X006452Y018356D01*
X006527Y018431D01*
X006602Y018356D01*
X006677Y018356D01*
X006527Y018431D02*
X006527Y018506D01*
D11*
X007147Y030853D02*
X008147Y030853D01*
X008147Y032821D02*
X007147Y032821D01*
D12*
X007341Y037748D02*
X006573Y037748D01*
X010510Y037748D02*
X011278Y037748D01*
X013463Y037748D02*
X014231Y037748D01*
X016416Y037748D02*
X017183Y037748D01*
D13*
X006077Y008175D02*
X006077Y002180D01*
X006085Y002208D01*
X006250Y002494D01*
X006483Y002727D01*
X006769Y002892D01*
X007087Y002977D01*
X007417Y002977D01*
X007736Y002892D01*
X008021Y002727D01*
X008255Y002494D01*
X008420Y002208D01*
X008505Y001890D01*
X008505Y001560D01*
X008420Y001241D01*
X008255Y000956D01*
X008021Y000722D01*
X007736Y000557D01*
X007708Y000550D01*
X027269Y000550D01*
X027241Y000557D01*
X026956Y000722D01*
X026722Y000956D01*
X026557Y001241D01*
X026472Y001560D01*
X026472Y001890D01*
X026557Y002208D01*
X026722Y002494D01*
X026956Y002727D01*
X027241Y002892D01*
X027271Y002900D01*
X027048Y002900D01*
X026930Y002782D01*
X026625Y002782D01*
X026409Y002998D01*
X026409Y003302D01*
X024271Y003302D01*
X024132Y003441D01*
X024132Y003909D01*
X024271Y004048D01*
X024271Y004352D01*
X024055Y004568D01*
X023750Y004568D01*
X023534Y004352D01*
X023534Y004048D01*
X023672Y003909D01*
X023672Y003441D01*
X023534Y003302D01*
X006077Y003302D01*
X006077Y003204D02*
X023534Y003204D01*
X023534Y003302D02*
X023534Y002998D01*
X023750Y002782D01*
X024055Y002782D01*
X024271Y002998D01*
X024271Y003302D01*
X024271Y003204D02*
X026409Y003204D01*
X026409Y003302D02*
X026625Y003518D01*
X026930Y003518D01*
X027048Y003400D01*
X027624Y003400D01*
X027802Y003579D01*
X027802Y011596D01*
X027692Y011707D01*
X027525Y011707D01*
X027309Y011923D01*
X027309Y012227D01*
X027525Y012443D01*
X027830Y012443D01*
X028046Y012227D01*
X028046Y012060D01*
X028194Y011912D01*
X028194Y011912D01*
X028264Y011842D01*
X028302Y011750D01*
X028302Y003425D01*
X028264Y003333D01*
X027904Y002973D01*
X028208Y002892D01*
X028494Y002727D01*
X028727Y002494D01*
X028892Y002208D01*
X028899Y002180D01*
X028899Y021601D01*
X028855Y021557D01*
X028550Y021557D01*
X028334Y021773D01*
X028334Y022077D01*
X028550Y022293D01*
X028607Y022293D01*
X028607Y026884D01*
X027509Y027982D01*
X027250Y027982D01*
X027034Y028198D01*
X027034Y028502D01*
X027250Y028718D01*
X027555Y028718D01*
X027771Y028502D01*
X027771Y028343D01*
X028899Y027214D01*
X028899Y035128D01*
X028892Y035100D01*
X028727Y034814D01*
X028494Y034581D01*
X028208Y034416D01*
X027890Y034330D01*
X027560Y034330D01*
X027241Y034416D01*
X026956Y034581D01*
X026722Y034814D01*
X026557Y035100D01*
X026472Y035418D01*
X026472Y035748D01*
X026557Y036067D01*
X026722Y036352D01*
X026956Y036585D01*
X027241Y036750D01*
X027560Y036836D01*
X027890Y036836D01*
X028208Y036750D01*
X028494Y036585D01*
X028727Y036352D01*
X028892Y036067D01*
X028899Y036039D01*
X028899Y039120D01*
X006077Y039120D01*
X006077Y037999D01*
X006104Y038062D01*
X006259Y038218D01*
X006463Y038302D01*
X007451Y038302D01*
X007655Y038218D01*
X007810Y038062D01*
X007895Y037859D01*
X007895Y037638D01*
X007810Y037435D01*
X007655Y037279D01*
X007451Y037195D01*
X006463Y037195D01*
X006259Y037279D01*
X006104Y037435D01*
X006077Y037498D01*
X006077Y036039D01*
X006085Y036067D01*
X006250Y036352D01*
X006483Y036585D01*
X006769Y036750D01*
X007087Y036836D01*
X007417Y036836D01*
X007736Y036750D01*
X008021Y036585D01*
X008255Y036352D01*
X008420Y036067D01*
X008505Y035748D01*
X008505Y035418D01*
X008420Y035100D01*
X008255Y034814D01*
X008021Y034581D01*
X007736Y034416D01*
X007417Y034330D01*
X007087Y034330D01*
X006769Y034416D01*
X006483Y034581D01*
X006250Y034814D01*
X006085Y035100D01*
X006077Y035128D01*
X006077Y012500D01*
X009344Y012500D01*
X009402Y012441D01*
X009402Y008234D01*
X009344Y008175D01*
X006077Y008175D01*
X006077Y008129D02*
X011660Y008129D01*
X011659Y008127D02*
X011659Y007918D01*
X011436Y007695D01*
X009578Y007695D01*
X009430Y007843D01*
X009125Y007843D01*
X008909Y007627D01*
X008909Y007323D01*
X009125Y007107D01*
X009430Y007107D01*
X009578Y007255D01*
X011619Y007255D01*
X011970Y007607D01*
X012180Y007607D01*
X012396Y007823D01*
X012396Y008127D01*
X012180Y008343D01*
X011875Y008343D01*
X011659Y008127D01*
X011659Y008030D02*
X006077Y008030D01*
X006077Y007932D02*
X011659Y007932D01*
X011574Y007833D02*
X009440Y007833D01*
X009538Y007735D02*
X011476Y007735D01*
X011527Y007475D02*
X012027Y007975D01*
X011759Y008227D02*
X009396Y008227D01*
X009402Y008326D02*
X011857Y008326D01*
X012197Y008326D02*
X027802Y008326D01*
X027802Y008424D02*
X009402Y008424D01*
X009402Y008523D02*
X027802Y008523D01*
X027802Y008621D02*
X009402Y008621D01*
X009402Y008720D02*
X027802Y008720D01*
X027802Y008818D02*
X009402Y008818D01*
X009402Y008917D02*
X027802Y008917D01*
X027802Y009015D02*
X009402Y009015D01*
X009402Y009114D02*
X027802Y009114D01*
X027802Y009212D02*
X009402Y009212D01*
X009402Y009311D02*
X027802Y009311D01*
X027802Y009409D02*
X009402Y009409D01*
X009402Y009508D02*
X027802Y009508D01*
X027802Y009606D02*
X009402Y009606D01*
X009402Y009705D02*
X027802Y009705D01*
X027802Y009803D02*
X009402Y009803D01*
X009402Y009902D02*
X027802Y009902D01*
X027802Y010000D02*
X017823Y010000D01*
X017730Y009907D02*
X017946Y010123D01*
X017946Y010427D01*
X017730Y010643D01*
X017425Y010643D01*
X017287Y010505D01*
X014768Y010505D01*
X014630Y010643D01*
X014325Y010643D01*
X014109Y010427D01*
X014109Y010123D01*
X014325Y009907D01*
X014630Y009907D01*
X014768Y010045D01*
X017287Y010045D01*
X017425Y009907D01*
X017730Y009907D01*
X017922Y010099D02*
X027802Y010099D01*
X027802Y010197D02*
X017946Y010197D01*
X017946Y010296D02*
X027802Y010296D01*
X027802Y010394D02*
X017946Y010394D01*
X017880Y010493D02*
X027802Y010493D01*
X027802Y010591D02*
X017782Y010591D01*
X017373Y010591D02*
X014682Y010591D01*
X014723Y010000D02*
X017332Y010000D01*
X015876Y012890D02*
X015780Y012930D01*
X015707Y013003D01*
X015667Y013098D01*
X015667Y021015D01*
X015446Y020793D01*
X015446Y020598D01*
X015230Y020382D01*
X014925Y020382D01*
X014709Y020598D01*
X014709Y020902D01*
X014925Y021118D01*
X015120Y021118D01*
X015422Y021420D01*
X015422Y028670D01*
X015782Y029030D01*
X018334Y029030D01*
X018334Y029152D01*
X018550Y029368D01*
X018855Y029368D01*
X019071Y029152D01*
X019071Y029030D01*
X022512Y029030D01*
X022700Y029218D01*
X023005Y029218D01*
X023221Y029002D01*
X023221Y028698D01*
X023005Y028482D01*
X022700Y028482D01*
X022612Y028570D01*
X022312Y028570D01*
X022312Y013098D01*
X022273Y013003D01*
X022200Y012930D01*
X022104Y012890D01*
X015876Y012890D01*
X015755Y012955D02*
X006077Y012955D01*
X006077Y012857D02*
X022750Y012857D01*
X022775Y012832D02*
X023080Y012832D01*
X023218Y012970D01*
X023798Y012970D01*
X025109Y014282D01*
X025109Y014223D01*
X025325Y014007D01*
X025630Y014007D01*
X025846Y014223D01*
X025846Y014527D01*
X025630Y014743D01*
X025507Y014743D01*
X025507Y016533D01*
X025895Y016533D01*
X025994Y016633D01*
X025994Y017367D01*
X025895Y017467D01*
X025320Y017467D01*
X025386Y017533D01*
X025721Y017533D01*
X025994Y017807D01*
X025994Y018193D01*
X025721Y018467D01*
X025334Y018467D01*
X025061Y018193D01*
X025061Y017858D01*
X024797Y017595D01*
X024797Y017390D01*
X024721Y017467D01*
X024334Y017467D01*
X024132Y017265D01*
X024132Y017735D01*
X024334Y017533D01*
X024721Y017533D01*
X024994Y017807D01*
X024994Y018193D01*
X024721Y018467D01*
X024461Y018467D01*
X024527Y018533D01*
X024721Y018533D01*
X024994Y018807D01*
X024994Y019193D01*
X024721Y019467D01*
X024334Y019467D01*
X024061Y019193D01*
X024061Y019000D01*
X023557Y018497D01*
X023557Y019105D01*
X024160Y019707D01*
X024334Y019533D01*
X024721Y019533D01*
X024994Y019807D01*
X024994Y020193D01*
X024721Y020467D01*
X024334Y020467D01*
X024097Y020230D01*
X024032Y020230D01*
X023897Y020095D01*
X023097Y019295D01*
X023097Y018341D01*
X022959Y018202D01*
X022959Y017898D01*
X023175Y017682D01*
X023472Y017682D01*
X023472Y016016D01*
X023434Y015977D01*
X023434Y015673D01*
X023650Y015457D01*
X023955Y015457D01*
X024171Y015673D01*
X024171Y015977D01*
X024132Y016016D01*
X024132Y016735D01*
X024297Y016570D01*
X024297Y015200D01*
X023223Y015200D01*
X023105Y015318D01*
X022800Y015318D01*
X022584Y015102D01*
X022584Y014798D01*
X022800Y014582D01*
X023105Y014582D01*
X023223Y014700D01*
X024357Y014700D01*
X024475Y014582D01*
X024759Y014582D01*
X023607Y013430D01*
X023218Y013430D01*
X023080Y013568D01*
X022775Y013568D01*
X022559Y013352D01*
X022559Y013048D01*
X022775Y012832D01*
X022652Y012955D02*
X022225Y012955D01*
X022294Y013054D02*
X022559Y013054D01*
X022559Y013152D02*
X022312Y013152D01*
X022312Y013251D02*
X022559Y013251D01*
X022559Y013349D02*
X022312Y013349D01*
X022312Y013448D02*
X022654Y013448D01*
X022753Y013546D02*
X022312Y013546D01*
X022312Y013645D02*
X023822Y013645D01*
X023920Y013743D02*
X022312Y013743D01*
X022312Y013842D02*
X024019Y013842D01*
X024117Y013940D02*
X022312Y013940D01*
X022312Y014039D02*
X024216Y014039D01*
X024314Y014137D02*
X022312Y014137D01*
X022312Y014236D02*
X024413Y014236D01*
X024511Y014334D02*
X022312Y014334D01*
X022312Y014433D02*
X024610Y014433D01*
X024708Y014531D02*
X022312Y014531D01*
X022312Y014630D02*
X022752Y014630D01*
X022654Y014728D02*
X022312Y014728D01*
X022312Y014827D02*
X022584Y014827D01*
X022584Y014925D02*
X022312Y014925D01*
X022312Y015024D02*
X022584Y015024D01*
X022604Y015122D02*
X022312Y015122D01*
X022312Y015221D02*
X022702Y015221D01*
X022312Y015319D02*
X024297Y015319D01*
X024297Y015221D02*
X023202Y015221D01*
X023591Y015516D02*
X022312Y015516D01*
X022312Y015418D02*
X024297Y015418D01*
X024297Y015516D02*
X024014Y015516D01*
X024113Y015615D02*
X024297Y015615D01*
X024297Y015713D02*
X024171Y015713D01*
X024171Y015812D02*
X024297Y015812D01*
X024297Y015910D02*
X024171Y015910D01*
X024139Y016009D02*
X024297Y016009D01*
X024297Y016107D02*
X024132Y016107D01*
X024132Y016206D02*
X024297Y016206D01*
X024297Y016304D02*
X024132Y016304D01*
X024132Y016403D02*
X024297Y016403D01*
X024297Y016501D02*
X024132Y016501D01*
X024132Y016600D02*
X024268Y016600D01*
X024169Y016698D02*
X024132Y016698D01*
X024132Y017289D02*
X024156Y017289D01*
X024132Y017388D02*
X024255Y017388D01*
X024132Y017486D02*
X024797Y017486D01*
X024797Y017585D02*
X024772Y017585D01*
X024871Y017683D02*
X024885Y017683D01*
X024969Y017782D02*
X024984Y017782D01*
X024994Y017880D02*
X025061Y017880D01*
X025061Y017979D02*
X024994Y017979D01*
X024994Y018077D02*
X025061Y018077D01*
X025061Y018176D02*
X024994Y018176D01*
X024914Y018274D02*
X025141Y018274D01*
X025240Y018373D02*
X024815Y018373D01*
X024757Y018570D02*
X025298Y018570D01*
X025334Y018533D02*
X025721Y018533D01*
X025994Y018807D01*
X025994Y019193D01*
X025721Y019467D01*
X025334Y019467D01*
X025061Y019193D01*
X025061Y018807D01*
X025334Y018533D01*
X025199Y018668D02*
X024856Y018668D01*
X024954Y018767D02*
X025101Y018767D01*
X025061Y018865D02*
X024994Y018865D01*
X024994Y018964D02*
X025061Y018964D01*
X025061Y019062D02*
X024994Y019062D01*
X024994Y019161D02*
X025061Y019161D01*
X025126Y019259D02*
X024929Y019259D01*
X024830Y019358D02*
X025225Y019358D01*
X025323Y019456D02*
X024732Y019456D01*
X024742Y019555D02*
X025313Y019555D01*
X025334Y019533D02*
X025721Y019533D01*
X025994Y019807D01*
X025994Y020193D01*
X025721Y020467D01*
X025334Y020467D01*
X025061Y020193D01*
X025061Y019807D01*
X025334Y019533D01*
X025214Y019653D02*
X024841Y019653D01*
X024939Y019752D02*
X025116Y019752D01*
X025061Y019850D02*
X024994Y019850D01*
X024994Y019949D02*
X025061Y019949D01*
X025061Y020047D02*
X024994Y020047D01*
X024994Y020146D02*
X025061Y020146D01*
X025111Y020244D02*
X024944Y020244D01*
X024845Y020343D02*
X025210Y020343D01*
X025308Y020441D02*
X024747Y020441D01*
X024713Y020553D02*
X024974Y020815D01*
X024974Y020952D01*
X024576Y020952D01*
X024576Y021048D01*
X024974Y021048D01*
X024974Y021185D01*
X024713Y021447D01*
X024576Y021447D01*
X024576Y021048D01*
X024479Y021048D01*
X024479Y020952D01*
X024081Y020952D01*
X024081Y020815D01*
X024342Y020553D01*
X024479Y020553D01*
X024479Y020952D01*
X024576Y020952D01*
X024576Y020553D01*
X024713Y020553D01*
X024797Y020638D02*
X025229Y020638D01*
X025131Y020737D02*
X024896Y020737D01*
X024974Y020835D02*
X025061Y020835D01*
X025061Y020807D02*
X025334Y020533D01*
X025721Y020533D01*
X025994Y020807D01*
X025994Y021193D01*
X025721Y021467D01*
X025334Y021467D01*
X025061Y021193D01*
X025061Y020807D01*
X025061Y020934D02*
X024974Y020934D01*
X025061Y021032D02*
X024576Y021032D01*
X024479Y021032D02*
X022312Y021032D01*
X022312Y020934D02*
X024081Y020934D01*
X024081Y020835D02*
X022312Y020835D01*
X022312Y020737D02*
X024159Y020737D01*
X024257Y020638D02*
X022312Y020638D01*
X022312Y020540D02*
X025328Y020540D01*
X025727Y020540D02*
X028899Y020540D01*
X028899Y020638D02*
X025826Y020638D01*
X025924Y020737D02*
X028899Y020737D01*
X028899Y020835D02*
X025994Y020835D01*
X025994Y020934D02*
X028899Y020934D01*
X028899Y021032D02*
X025994Y021032D01*
X025994Y021131D02*
X028899Y021131D01*
X028899Y021229D02*
X025959Y021229D01*
X025860Y021328D02*
X028899Y021328D01*
X028899Y021426D02*
X025762Y021426D01*
X025713Y021553D02*
X025974Y021815D01*
X025974Y021952D01*
X025576Y021952D01*
X025576Y022048D01*
X025974Y022048D01*
X025974Y022185D01*
X025713Y022447D01*
X025576Y022447D01*
X025576Y022048D01*
X025479Y022048D01*
X025479Y021952D01*
X025081Y021952D01*
X025081Y021815D01*
X025342Y021553D01*
X025479Y021553D01*
X025479Y021952D01*
X025576Y021952D01*
X025576Y021553D01*
X025713Y021553D01*
X025782Y021623D02*
X028484Y021623D01*
X028385Y021722D02*
X025881Y021722D01*
X025974Y021820D02*
X028334Y021820D01*
X028334Y021919D02*
X025974Y021919D01*
X025974Y022116D02*
X028372Y022116D01*
X028334Y022017D02*
X025576Y022017D01*
X025479Y022017D02*
X024576Y022017D01*
X024576Y022048D02*
X024974Y022048D01*
X024974Y022185D01*
X024713Y022447D01*
X024576Y022447D01*
X024576Y022048D01*
X024576Y021952D01*
X024974Y021952D01*
X024974Y021815D01*
X024713Y021553D01*
X024576Y021553D01*
X024576Y021952D01*
X024479Y021952D01*
X024081Y021952D01*
X024081Y021815D01*
X024342Y021553D01*
X024479Y021553D01*
X024479Y021952D01*
X024479Y022048D01*
X024081Y022048D01*
X024081Y022185D01*
X024342Y022447D01*
X024479Y022447D01*
X024479Y022048D01*
X024576Y022048D01*
X024576Y022116D02*
X024479Y022116D01*
X024479Y022214D02*
X024576Y022214D01*
X024576Y022313D02*
X024479Y022313D01*
X024479Y022411D02*
X024576Y022411D01*
X024748Y022411D02*
X025307Y022411D01*
X025342Y022447D02*
X025081Y022185D01*
X025081Y022048D01*
X025479Y022048D01*
X025479Y022447D01*
X025342Y022447D01*
X025342Y022553D02*
X025081Y022815D01*
X025081Y022952D01*
X025479Y022952D01*
X025479Y023048D01*
X025081Y023048D01*
X025081Y023185D01*
X025342Y023447D01*
X025479Y023447D01*
X025479Y023048D01*
X025576Y023048D01*
X025974Y023048D01*
X025974Y023185D01*
X025713Y023447D01*
X025576Y023447D01*
X025576Y023048D01*
X025576Y022952D01*
X025974Y022952D01*
X025974Y022815D01*
X025713Y022553D01*
X025576Y022553D01*
X025576Y022952D01*
X025479Y022952D01*
X025479Y022553D01*
X025342Y022553D01*
X025287Y022608D02*
X024796Y022608D01*
X024721Y022533D02*
X024994Y022807D01*
X024994Y023193D01*
X024721Y023467D01*
X024334Y023467D01*
X024061Y023193D01*
X024061Y022807D01*
X024334Y022533D01*
X024721Y022533D01*
X024894Y022707D02*
X025189Y022707D01*
X025090Y022805D02*
X024993Y022805D01*
X024994Y022904D02*
X025081Y022904D01*
X024994Y023002D02*
X025479Y023002D01*
X025576Y023002D02*
X028607Y023002D01*
X028607Y022904D02*
X025974Y022904D01*
X025964Y022805D02*
X028607Y022805D01*
X028607Y022707D02*
X025866Y022707D01*
X025767Y022608D02*
X028607Y022608D01*
X028607Y022510D02*
X022312Y022510D01*
X022312Y022608D02*
X024259Y022608D01*
X024161Y022707D02*
X022312Y022707D01*
X022312Y022805D02*
X024062Y022805D01*
X024061Y022904D02*
X022312Y022904D01*
X022312Y023002D02*
X024061Y023002D01*
X024061Y023101D02*
X022312Y023101D01*
X022312Y023199D02*
X024066Y023199D01*
X024165Y023298D02*
X022312Y023298D01*
X022312Y023396D02*
X024263Y023396D01*
X024334Y023533D02*
X024061Y023807D01*
X024061Y024193D01*
X024334Y024467D01*
X024721Y024467D01*
X024994Y024193D01*
X024994Y023807D01*
X024721Y023533D01*
X024334Y023533D01*
X024274Y023593D02*
X022312Y023593D01*
X022312Y023495D02*
X028607Y023495D01*
X028607Y023593D02*
X025781Y023593D01*
X025721Y023533D02*
X025994Y023807D01*
X025994Y024193D01*
X025721Y024467D01*
X025334Y024467D01*
X025061Y024193D01*
X025061Y023807D01*
X025334Y023533D01*
X025721Y023533D01*
X025763Y023396D02*
X028607Y023396D01*
X028607Y023298D02*
X025862Y023298D01*
X025960Y023199D02*
X028607Y023199D01*
X028607Y023101D02*
X025974Y023101D01*
X025576Y023101D02*
X025479Y023101D01*
X025479Y023199D02*
X025576Y023199D01*
X025576Y023298D02*
X025479Y023298D01*
X025479Y023396D02*
X025576Y023396D01*
X025292Y023396D02*
X024792Y023396D01*
X024890Y023298D02*
X025193Y023298D01*
X025095Y023199D02*
X024989Y023199D01*
X024994Y023101D02*
X025081Y023101D01*
X025479Y022904D02*
X025576Y022904D01*
X025576Y022805D02*
X025479Y022805D01*
X025479Y022707D02*
X025576Y022707D01*
X025576Y022608D02*
X025479Y022608D01*
X025479Y022411D02*
X025576Y022411D01*
X025576Y022313D02*
X025479Y022313D01*
X025479Y022214D02*
X025576Y022214D01*
X025576Y022116D02*
X025479Y022116D01*
X025479Y021919D02*
X025576Y021919D01*
X025576Y021820D02*
X025479Y021820D01*
X025479Y021722D02*
X025576Y021722D01*
X025576Y021623D02*
X025479Y021623D01*
X025272Y021623D02*
X024782Y021623D01*
X024881Y021722D02*
X025174Y021722D01*
X025081Y021820D02*
X024974Y021820D01*
X024974Y021919D02*
X025081Y021919D01*
X025081Y022116D02*
X024974Y022116D01*
X024945Y022214D02*
X025110Y022214D01*
X025208Y022313D02*
X024847Y022313D01*
X024479Y022017D02*
X022312Y022017D01*
X022312Y021919D02*
X024081Y021919D01*
X024081Y021820D02*
X022312Y021820D01*
X022312Y021722D02*
X024174Y021722D01*
X024272Y021623D02*
X022312Y021623D01*
X022312Y021525D02*
X028899Y021525D01*
X028702Y021925D02*
X028827Y022050D01*
X028827Y026975D01*
X027452Y028350D01*
X027402Y028350D01*
X027148Y028617D02*
X023140Y028617D01*
X023221Y028715D02*
X027247Y028715D01*
X027072Y028912D02*
X028899Y028912D01*
X028899Y028814D02*
X023221Y028814D01*
X023221Y028912D02*
X026483Y028912D01*
X026570Y028825D02*
X026277Y029118D01*
X026277Y029275D01*
X026727Y029275D01*
X026727Y029375D01*
X026277Y029375D01*
X026277Y029532D01*
X026570Y029825D01*
X026727Y029825D01*
X026727Y029375D01*
X026827Y029375D01*
X026827Y029825D01*
X026985Y029825D01*
X027277Y029532D01*
X027277Y029375D01*
X026827Y029375D01*
X026827Y029275D01*
X026827Y028825D01*
X026985Y028825D01*
X027277Y029118D01*
X027277Y029275D01*
X026827Y029275D01*
X026727Y029275D01*
X026727Y028825D01*
X026570Y028825D01*
X026727Y028912D02*
X026827Y028912D01*
X026827Y029011D02*
X026727Y029011D01*
X026727Y029109D02*
X026827Y029109D01*
X026827Y029208D02*
X026727Y029208D01*
X026727Y029306D02*
X018917Y029306D01*
X019015Y029208D02*
X022689Y029208D01*
X022591Y029109D02*
X019071Y029109D01*
X018488Y029306D02*
X012082Y029306D01*
X012082Y029208D02*
X018389Y029208D01*
X018334Y029109D02*
X012082Y029109D01*
X012082Y029011D02*
X015763Y029011D01*
X015664Y028912D02*
X012082Y028912D01*
X012082Y028814D02*
X015566Y028814D01*
X015467Y028715D02*
X012082Y028715D01*
X012082Y028617D02*
X015422Y028617D01*
X015422Y028518D02*
X012082Y028518D01*
X012082Y028420D02*
X015422Y028420D01*
X015422Y028321D02*
X012082Y028321D01*
X012082Y028223D02*
X015422Y028223D01*
X015422Y028124D02*
X012082Y028124D01*
X012082Y028026D02*
X015422Y028026D01*
X015422Y027927D02*
X012082Y027927D01*
X012082Y027829D02*
X013060Y027829D01*
X013075Y027843D02*
X012859Y027627D01*
X012859Y027323D01*
X013075Y027107D01*
X013284Y027107D01*
X013609Y026782D01*
X013609Y026723D01*
X013825Y026507D01*
X014130Y026507D01*
X014346Y026723D01*
X014346Y027027D01*
X014130Y027243D01*
X013825Y027243D01*
X013798Y027216D01*
X013596Y027418D01*
X013596Y027627D01*
X013380Y027843D01*
X013075Y027843D01*
X012962Y027730D02*
X012082Y027730D01*
X012082Y027632D02*
X012863Y027632D01*
X012859Y027533D02*
X012082Y027533D01*
X012082Y027435D02*
X012859Y027435D01*
X012859Y027336D02*
X012082Y027336D01*
X012082Y027238D02*
X012944Y027238D01*
X013043Y027139D02*
X012082Y027139D01*
X012082Y027041D02*
X013351Y027041D01*
X013449Y026942D02*
X012082Y026942D01*
X012082Y026844D02*
X013548Y026844D01*
X013609Y026745D02*
X012082Y026745D01*
X012082Y026647D02*
X013685Y026647D01*
X013784Y026548D02*
X012082Y026548D01*
X012082Y026450D02*
X015422Y026450D01*
X015422Y026548D02*
X014171Y026548D01*
X014270Y026647D02*
X015422Y026647D01*
X015422Y026745D02*
X014346Y026745D01*
X014346Y026844D02*
X015422Y026844D01*
X015422Y026942D02*
X014346Y026942D01*
X014332Y027041D02*
X015422Y027041D01*
X015422Y027139D02*
X014234Y027139D01*
X014135Y027238D02*
X015422Y027238D01*
X015422Y027336D02*
X013677Y027336D01*
X013596Y027435D02*
X015422Y027435D01*
X015422Y027533D02*
X013596Y027533D01*
X013591Y027632D02*
X015422Y027632D01*
X015422Y027730D02*
X013493Y027730D01*
X013394Y027829D02*
X015422Y027829D01*
X015927Y027829D02*
X022052Y027829D01*
X022052Y027927D02*
X015927Y027927D01*
X015927Y028026D02*
X022052Y028026D01*
X022052Y028124D02*
X015927Y028124D01*
X015927Y028223D02*
X022052Y028223D01*
X022052Y028321D02*
X015927Y028321D01*
X015927Y028420D02*
X022052Y028420D01*
X022052Y028518D02*
X015977Y028518D01*
X015984Y028525D02*
X022052Y028525D01*
X022052Y013150D01*
X015927Y013150D01*
X015927Y028468D01*
X015984Y028525D01*
X015927Y027730D02*
X022052Y027730D01*
X022052Y027632D02*
X015927Y027632D01*
X015927Y027533D02*
X022052Y027533D01*
X022052Y027435D02*
X015927Y027435D01*
X015927Y027336D02*
X022052Y027336D01*
X022052Y027238D02*
X015927Y027238D01*
X015927Y027139D02*
X022052Y027139D01*
X022052Y027041D02*
X015927Y027041D01*
X015927Y026942D02*
X022052Y026942D01*
X022052Y026844D02*
X015927Y026844D01*
X015927Y026745D02*
X022052Y026745D01*
X022052Y026647D02*
X015927Y026647D01*
X015927Y026548D02*
X022052Y026548D01*
X022052Y026450D02*
X015927Y026450D01*
X015927Y026351D02*
X022052Y026351D01*
X022052Y026253D02*
X015927Y026253D01*
X015927Y026154D02*
X022052Y026154D01*
X022052Y026056D02*
X015927Y026056D01*
X015927Y025957D02*
X022052Y025957D01*
X022052Y025859D02*
X015927Y025859D01*
X015927Y025760D02*
X022052Y025760D01*
X022052Y025662D02*
X015927Y025662D01*
X015927Y025563D02*
X022052Y025563D01*
X022052Y025465D02*
X015927Y025465D01*
X015927Y025366D02*
X022052Y025366D01*
X022052Y025268D02*
X015927Y025268D01*
X015927Y025169D02*
X022052Y025169D01*
X022052Y025071D02*
X015927Y025071D01*
X015927Y024972D02*
X022052Y024972D01*
X022052Y024874D02*
X015927Y024874D01*
X015927Y024775D02*
X022052Y024775D01*
X022052Y024677D02*
X015927Y024677D01*
X015927Y024578D02*
X022052Y024578D01*
X022052Y024480D02*
X015927Y024480D01*
X015927Y024381D02*
X022052Y024381D01*
X022052Y024283D02*
X015927Y024283D01*
X015927Y024184D02*
X022052Y024184D01*
X022052Y024086D02*
X015927Y024086D01*
X015927Y023987D02*
X022052Y023987D01*
X022052Y023889D02*
X015927Y023889D01*
X015927Y023790D02*
X022052Y023790D01*
X022052Y023692D02*
X015927Y023692D01*
X015927Y023593D02*
X022052Y023593D01*
X022052Y023495D02*
X015927Y023495D01*
X015927Y023396D02*
X022052Y023396D01*
X022052Y023298D02*
X015927Y023298D01*
X015927Y023199D02*
X022052Y023199D01*
X022052Y023101D02*
X015927Y023101D01*
X015927Y023002D02*
X022052Y023002D01*
X022052Y022904D02*
X015927Y022904D01*
X015927Y022805D02*
X022052Y022805D01*
X022052Y022707D02*
X015927Y022707D01*
X015927Y022608D02*
X022052Y022608D01*
X022052Y022510D02*
X015927Y022510D01*
X015927Y022411D02*
X022052Y022411D01*
X022052Y022313D02*
X015927Y022313D01*
X015927Y022214D02*
X022052Y022214D01*
X022052Y022116D02*
X015927Y022116D01*
X015927Y022017D02*
X022052Y022017D01*
X022052Y021919D02*
X015927Y021919D01*
X015927Y021820D02*
X022052Y021820D01*
X022052Y021722D02*
X015927Y021722D01*
X015927Y021623D02*
X022052Y021623D01*
X022052Y021525D02*
X015927Y021525D01*
X015927Y021426D02*
X022052Y021426D01*
X022052Y021328D02*
X015927Y021328D01*
X015927Y021229D02*
X022052Y021229D01*
X022052Y021131D02*
X015927Y021131D01*
X015927Y021032D02*
X022052Y021032D01*
X022052Y020934D02*
X015927Y020934D01*
X015927Y020835D02*
X022052Y020835D01*
X022052Y020737D02*
X015927Y020737D01*
X015927Y020638D02*
X022052Y020638D01*
X022052Y020540D02*
X015927Y020540D01*
X015927Y020441D02*
X022052Y020441D01*
X022052Y020343D02*
X015927Y020343D01*
X015927Y020244D02*
X022052Y020244D01*
X022052Y020146D02*
X015927Y020146D01*
X015927Y020047D02*
X022052Y020047D01*
X022052Y019949D02*
X015927Y019949D01*
X015927Y019850D02*
X022052Y019850D01*
X022052Y019752D02*
X015927Y019752D01*
X015927Y019653D02*
X022052Y019653D01*
X022052Y019555D02*
X015927Y019555D01*
X015927Y019456D02*
X022052Y019456D01*
X022052Y019358D02*
X015927Y019358D01*
X015927Y019259D02*
X022052Y019259D01*
X022052Y019161D02*
X015927Y019161D01*
X015927Y019062D02*
X022052Y019062D01*
X022052Y018964D02*
X015927Y018964D01*
X015927Y018865D02*
X022052Y018865D01*
X022052Y018767D02*
X015927Y018767D01*
X015927Y018668D02*
X022052Y018668D01*
X022052Y018570D02*
X015927Y018570D01*
X015927Y018471D02*
X022052Y018471D01*
X022052Y018373D02*
X015927Y018373D01*
X015927Y018274D02*
X022052Y018274D01*
X022052Y018176D02*
X015927Y018176D01*
X015927Y018077D02*
X022052Y018077D01*
X022052Y017979D02*
X015927Y017979D01*
X015927Y017880D02*
X022052Y017880D01*
X022052Y017782D02*
X015927Y017782D01*
X015927Y017683D02*
X022052Y017683D01*
X022052Y017585D02*
X015927Y017585D01*
X015927Y017486D02*
X022052Y017486D01*
X022052Y017388D02*
X015927Y017388D01*
X015927Y017289D02*
X022052Y017289D01*
X022052Y017191D02*
X015927Y017191D01*
X015927Y017092D02*
X022052Y017092D01*
X022052Y016994D02*
X015927Y016994D01*
X015927Y016895D02*
X022052Y016895D01*
X022052Y016797D02*
X015927Y016797D01*
X015927Y016698D02*
X022052Y016698D01*
X022052Y016600D02*
X015927Y016600D01*
X015927Y016501D02*
X022052Y016501D01*
X022052Y016403D02*
X015927Y016403D01*
X015927Y016304D02*
X022052Y016304D01*
X022052Y016206D02*
X015927Y016206D01*
X015927Y016107D02*
X022052Y016107D01*
X022052Y016009D02*
X015927Y016009D01*
X015927Y015910D02*
X022052Y015910D01*
X022052Y015812D02*
X015927Y015812D01*
X015927Y015713D02*
X022052Y015713D01*
X022052Y015615D02*
X015927Y015615D01*
X015927Y015516D02*
X022052Y015516D01*
X022052Y015418D02*
X015927Y015418D01*
X015927Y015319D02*
X022052Y015319D01*
X022052Y015221D02*
X015927Y015221D01*
X015927Y015122D02*
X022052Y015122D01*
X022052Y015024D02*
X015927Y015024D01*
X015927Y014925D02*
X022052Y014925D01*
X022052Y014827D02*
X015927Y014827D01*
X015927Y014728D02*
X022052Y014728D01*
X022052Y014630D02*
X015927Y014630D01*
X015927Y014531D02*
X022052Y014531D01*
X022052Y014433D02*
X015927Y014433D01*
X015927Y014334D02*
X022052Y014334D01*
X022052Y014236D02*
X015927Y014236D01*
X015927Y014137D02*
X022052Y014137D01*
X022052Y014039D02*
X015927Y014039D01*
X015927Y013940D02*
X022052Y013940D01*
X022052Y013842D02*
X015927Y013842D01*
X015927Y013743D02*
X022052Y013743D01*
X022052Y013645D02*
X015927Y013645D01*
X015927Y013546D02*
X022052Y013546D01*
X022052Y013448D02*
X015927Y013448D01*
X015927Y013349D02*
X022052Y013349D01*
X022052Y013251D02*
X015927Y013251D01*
X015927Y013152D02*
X022052Y013152D01*
X023105Y012857D02*
X028899Y012857D01*
X028899Y012955D02*
X023203Y012955D01*
X023200Y013448D02*
X023625Y013448D01*
X023723Y013546D02*
X023102Y013546D01*
X023881Y013054D02*
X028899Y013054D01*
X028899Y013152D02*
X023980Y013152D01*
X024078Y013251D02*
X028899Y013251D01*
X028899Y013349D02*
X024177Y013349D01*
X024275Y013448D02*
X028899Y013448D01*
X028899Y013546D02*
X024374Y013546D01*
X024472Y013645D02*
X028899Y013645D01*
X028899Y013743D02*
X024571Y013743D01*
X024669Y013842D02*
X028899Y013842D01*
X028899Y013940D02*
X024768Y013940D01*
X024866Y014039D02*
X025293Y014039D01*
X025195Y014137D02*
X024965Y014137D01*
X025063Y014236D02*
X025109Y014236D01*
X025507Y014827D02*
X028899Y014827D01*
X028899Y014925D02*
X025507Y014925D01*
X025507Y015024D02*
X028899Y015024D01*
X028899Y015122D02*
X025507Y015122D01*
X025507Y015221D02*
X028899Y015221D01*
X028899Y015319D02*
X025507Y015319D01*
X025507Y015418D02*
X028899Y015418D01*
X028899Y015516D02*
X025507Y015516D01*
X025507Y015615D02*
X028899Y015615D01*
X028899Y015713D02*
X025507Y015713D01*
X025507Y015812D02*
X028899Y015812D01*
X028899Y015910D02*
X025507Y015910D01*
X025507Y016009D02*
X028899Y016009D01*
X028899Y016107D02*
X025507Y016107D01*
X025507Y016206D02*
X028899Y016206D01*
X028899Y016304D02*
X025507Y016304D01*
X025507Y016403D02*
X028899Y016403D01*
X028899Y016501D02*
X025507Y016501D01*
X025961Y016600D02*
X028899Y016600D01*
X028899Y016698D02*
X025994Y016698D01*
X025994Y016797D02*
X028899Y016797D01*
X028899Y016895D02*
X025994Y016895D01*
X025994Y016994D02*
X028899Y016994D01*
X028899Y017092D02*
X025994Y017092D01*
X025994Y017191D02*
X028899Y017191D01*
X028899Y017289D02*
X025994Y017289D01*
X025974Y017388D02*
X028899Y017388D01*
X028899Y017486D02*
X025339Y017486D01*
X025772Y017585D02*
X028899Y017585D01*
X028899Y017683D02*
X025871Y017683D01*
X025969Y017782D02*
X028899Y017782D01*
X028899Y017880D02*
X025994Y017880D01*
X025994Y017979D02*
X028899Y017979D01*
X028899Y018077D02*
X025994Y018077D01*
X025994Y018176D02*
X028899Y018176D01*
X028899Y018274D02*
X025914Y018274D01*
X025815Y018373D02*
X028899Y018373D01*
X028899Y018471D02*
X024465Y018471D01*
X024024Y018964D02*
X023557Y018964D01*
X023557Y019062D02*
X024061Y019062D01*
X024061Y019161D02*
X023613Y019161D01*
X023712Y019259D02*
X024126Y019259D01*
X024225Y019358D02*
X023810Y019358D01*
X023909Y019456D02*
X024323Y019456D01*
X024313Y019555D02*
X024007Y019555D01*
X024106Y019653D02*
X024214Y019653D01*
X023849Y020047D02*
X022312Y020047D01*
X022312Y019949D02*
X023751Y019949D01*
X023652Y019850D02*
X022312Y019850D01*
X022312Y019752D02*
X023554Y019752D01*
X023455Y019653D02*
X022312Y019653D01*
X022312Y019555D02*
X023357Y019555D01*
X023258Y019456D02*
X022312Y019456D01*
X022312Y019358D02*
X023160Y019358D01*
X023097Y019259D02*
X022312Y019259D01*
X022312Y019161D02*
X023097Y019161D01*
X023097Y019062D02*
X022312Y019062D01*
X022312Y018964D02*
X023097Y018964D01*
X023097Y018865D02*
X022312Y018865D01*
X022312Y018767D02*
X023097Y018767D01*
X023097Y018668D02*
X022312Y018668D01*
X022312Y018570D02*
X023097Y018570D01*
X023097Y018471D02*
X022312Y018471D01*
X022312Y018373D02*
X023097Y018373D01*
X023031Y018274D02*
X022312Y018274D01*
X022312Y018176D02*
X022959Y018176D01*
X022959Y018077D02*
X022312Y018077D01*
X022312Y017979D02*
X022959Y017979D01*
X022977Y017880D02*
X022312Y017880D01*
X022312Y017782D02*
X023075Y017782D01*
X023174Y017683D02*
X022312Y017683D01*
X022312Y017585D02*
X023472Y017585D01*
X023472Y017486D02*
X022312Y017486D01*
X022312Y017388D02*
X023472Y017388D01*
X023472Y017289D02*
X022312Y017289D01*
X022312Y017191D02*
X023472Y017191D01*
X023472Y017092D02*
X022312Y017092D01*
X022312Y016994D02*
X023472Y016994D01*
X023472Y016895D02*
X022312Y016895D01*
X022312Y016797D02*
X023472Y016797D01*
X023472Y016698D02*
X022312Y016698D01*
X022312Y016600D02*
X023472Y016600D01*
X023472Y016501D02*
X022312Y016501D01*
X022312Y016403D02*
X023472Y016403D01*
X023472Y016304D02*
X022312Y016304D01*
X022312Y016206D02*
X023472Y016206D01*
X023472Y016107D02*
X022312Y016107D01*
X022312Y016009D02*
X023465Y016009D01*
X023434Y015910D02*
X022312Y015910D01*
X022312Y015812D02*
X023434Y015812D01*
X023434Y015713D02*
X022312Y015713D01*
X022312Y015615D02*
X023492Y015615D01*
X023153Y014630D02*
X024427Y014630D01*
X025645Y014728D02*
X028899Y014728D01*
X028899Y014630D02*
X025743Y014630D01*
X025842Y014531D02*
X028899Y014531D01*
X028899Y014433D02*
X025846Y014433D01*
X025846Y014334D02*
X028899Y014334D01*
X028899Y014236D02*
X025846Y014236D01*
X025760Y014137D02*
X028899Y014137D01*
X028899Y014039D02*
X025662Y014039D01*
X027347Y012266D02*
X009402Y012266D01*
X009402Y012364D02*
X027446Y012364D01*
X027309Y012167D02*
X009402Y012167D01*
X009402Y012069D02*
X010436Y012069D01*
X010485Y012089D02*
X010313Y012018D01*
X010182Y011886D01*
X010111Y011715D01*
X010111Y010935D01*
X010182Y010764D01*
X010313Y010632D01*
X010485Y010561D01*
X010670Y010561D01*
X010842Y010632D01*
X010973Y010764D01*
X011044Y010935D01*
X011044Y011715D01*
X010973Y011886D01*
X010842Y012018D01*
X010670Y012089D01*
X010485Y012089D01*
X010719Y012069D02*
X011436Y012069D01*
X011485Y012089D02*
X011313Y012018D01*
X011182Y011886D01*
X011111Y011715D01*
X011111Y010935D01*
X011182Y010764D01*
X011313Y010632D01*
X011485Y010561D01*
X011670Y010561D01*
X011842Y010632D01*
X011973Y010764D01*
X012044Y010935D01*
X012044Y011715D01*
X011973Y011886D01*
X011842Y012018D01*
X011670Y012089D01*
X011485Y012089D01*
X011719Y012069D02*
X027309Y012069D01*
X027309Y011970D02*
X011889Y011970D01*
X011979Y011872D02*
X027360Y011872D01*
X027459Y011773D02*
X012020Y011773D01*
X012044Y011675D02*
X027724Y011675D01*
X027802Y011576D02*
X012044Y011576D01*
X012044Y011478D02*
X027802Y011478D01*
X027802Y011379D02*
X012044Y011379D01*
X012044Y011281D02*
X027802Y011281D01*
X027802Y011182D02*
X012044Y011182D01*
X012044Y011084D02*
X027802Y011084D01*
X027802Y010985D02*
X012044Y010985D01*
X012024Y010887D02*
X027802Y010887D01*
X027802Y010788D02*
X011983Y010788D01*
X011899Y010690D02*
X027802Y010690D01*
X028302Y010690D02*
X028899Y010690D01*
X028899Y010788D02*
X028302Y010788D01*
X028302Y010887D02*
X028899Y010887D01*
X028899Y010985D02*
X028302Y010985D01*
X028302Y011084D02*
X028899Y011084D01*
X028899Y011182D02*
X028302Y011182D01*
X028302Y011281D02*
X028899Y011281D01*
X028899Y011379D02*
X028302Y011379D01*
X028302Y011478D02*
X028899Y011478D01*
X028899Y011576D02*
X028302Y011576D01*
X028302Y011675D02*
X028899Y011675D01*
X028899Y011773D02*
X028293Y011773D01*
X028234Y011872D02*
X028899Y011872D01*
X028899Y011970D02*
X028136Y011970D01*
X028046Y012069D02*
X028899Y012069D01*
X028899Y012167D02*
X028046Y012167D01*
X028007Y012266D02*
X028899Y012266D01*
X028899Y012364D02*
X027909Y012364D01*
X028899Y012463D02*
X009381Y012463D01*
X009402Y011970D02*
X010265Y011970D01*
X010176Y011872D02*
X009402Y011872D01*
X009402Y011773D02*
X010135Y011773D01*
X010111Y011675D02*
X009402Y011675D01*
X009402Y011576D02*
X010111Y011576D01*
X010111Y011478D02*
X009402Y011478D01*
X009402Y011379D02*
X010111Y011379D01*
X010111Y011281D02*
X009402Y011281D01*
X009402Y011182D02*
X010111Y011182D01*
X010111Y011084D02*
X009402Y011084D01*
X009402Y010985D02*
X010111Y010985D01*
X010131Y010887D02*
X009402Y010887D01*
X009402Y010788D02*
X010172Y010788D01*
X010256Y010690D02*
X009402Y010690D01*
X009402Y010591D02*
X010413Y010591D01*
X010742Y010591D02*
X011413Y010591D01*
X011256Y010690D02*
X010899Y010690D01*
X010983Y010788D02*
X011172Y010788D01*
X011131Y010887D02*
X011024Y010887D01*
X011044Y010985D02*
X011111Y010985D01*
X011111Y011084D02*
X011044Y011084D01*
X011044Y011182D02*
X011111Y011182D01*
X011111Y011281D02*
X011044Y011281D01*
X011044Y011379D02*
X011111Y011379D01*
X011111Y011478D02*
X011044Y011478D01*
X011044Y011576D02*
X011111Y011576D01*
X011111Y011675D02*
X011044Y011675D01*
X011020Y011773D02*
X011135Y011773D01*
X011176Y011872D02*
X010979Y011872D01*
X010889Y011970D02*
X011265Y011970D01*
X011742Y010591D02*
X014273Y010591D01*
X014174Y010493D02*
X009402Y010493D01*
X009402Y010394D02*
X014109Y010394D01*
X014109Y010296D02*
X009402Y010296D01*
X009402Y010197D02*
X014109Y010197D01*
X014133Y010099D02*
X009402Y010099D01*
X009402Y010000D02*
X014232Y010000D01*
X012394Y008129D02*
X027802Y008129D01*
X027802Y008227D02*
X012296Y008227D01*
X012396Y008030D02*
X027802Y008030D01*
X027802Y007932D02*
X012396Y007932D01*
X012396Y007833D02*
X027802Y007833D01*
X027802Y007735D02*
X012308Y007735D01*
X012209Y007636D02*
X027802Y007636D01*
X027802Y007538D02*
X011901Y007538D01*
X011803Y007439D02*
X027802Y007439D01*
X027802Y007341D02*
X011704Y007341D01*
X011527Y007475D02*
X009277Y007475D01*
X009016Y007735D02*
X006077Y007735D01*
X006077Y007833D02*
X009115Y007833D01*
X008918Y007636D02*
X006077Y007636D01*
X006077Y007538D02*
X008909Y007538D01*
X008909Y007439D02*
X006077Y007439D01*
X006077Y007341D02*
X008909Y007341D01*
X008990Y007242D02*
X006077Y007242D01*
X006077Y007144D02*
X009088Y007144D01*
X009467Y007144D02*
X027802Y007144D01*
X027802Y007242D02*
X009565Y007242D01*
X008749Y005161D02*
X008682Y005183D01*
X008626Y005192D01*
X008626Y004498D01*
X009024Y004498D01*
X009024Y004782D01*
X009013Y004851D01*
X008992Y004918D01*
X008960Y004981D01*
X008918Y005038D01*
X008869Y005088D01*
X008812Y005129D01*
X008749Y005161D01*
X008710Y005174D02*
X010984Y005174D01*
X010984Y005098D02*
X010984Y005402D01*
X011200Y005618D01*
X011505Y005618D01*
X011721Y005402D01*
X011721Y005193D01*
X012319Y004595D01*
X017586Y004595D01*
X017609Y004618D01*
X017609Y004827D01*
X017825Y005043D01*
X018130Y005043D01*
X018346Y004827D01*
X018346Y004523D01*
X018130Y004307D01*
X017920Y004307D01*
X017897Y004284D01*
X017769Y004155D01*
X012847Y004155D01*
X012847Y004101D01*
X012996Y003952D01*
X012996Y003648D01*
X012780Y003432D01*
X012475Y003432D01*
X012259Y003648D01*
X012259Y003952D01*
X012407Y004101D01*
X012407Y004155D01*
X012136Y004155D01*
X012007Y004284D01*
X011409Y004882D01*
X011200Y004882D01*
X010984Y005098D01*
X011007Y005075D02*
X008881Y005075D01*
X008962Y004977D02*
X011105Y004977D01*
X010984Y005272D02*
X006077Y005272D01*
X006077Y005174D02*
X006388Y005174D01*
X006313Y005143D02*
X006485Y005214D01*
X006670Y005214D01*
X006842Y005143D01*
X006973Y005011D01*
X007044Y004840D01*
X007044Y004060D01*
X006973Y003889D01*
X006842Y003757D01*
X006670Y003686D01*
X006485Y003686D01*
X006313Y003757D01*
X006182Y003889D01*
X006111Y004060D01*
X006111Y004840D01*
X006182Y005011D01*
X006313Y005143D01*
X006245Y005075D02*
X006077Y005075D01*
X006077Y004977D02*
X006167Y004977D01*
X006126Y004878D02*
X006077Y004878D01*
X006077Y004780D02*
X006111Y004780D01*
X006111Y004681D02*
X006077Y004681D01*
X006077Y004583D02*
X006111Y004583D01*
X006111Y004484D02*
X006077Y004484D01*
X006077Y004386D02*
X006111Y004386D01*
X006111Y004287D02*
X006077Y004287D01*
X006077Y004189D02*
X006111Y004189D01*
X006111Y004090D02*
X006077Y004090D01*
X006077Y003992D02*
X006139Y003992D01*
X006180Y003893D02*
X006077Y003893D01*
X006077Y003795D02*
X006276Y003795D01*
X006461Y003696D02*
X006077Y003696D01*
X006077Y003598D02*
X012309Y003598D01*
X012259Y003696D02*
X007694Y003696D01*
X007670Y003686D02*
X007842Y003757D01*
X007973Y003889D01*
X008044Y004060D01*
X008044Y004840D01*
X007973Y005011D01*
X007842Y005143D01*
X007670Y005214D01*
X007485Y005214D01*
X007313Y005143D01*
X007182Y005011D01*
X007111Y004840D01*
X007111Y004060D01*
X007182Y003889D01*
X007313Y003757D01*
X007485Y003686D01*
X007670Y003686D01*
X007461Y003696D02*
X006694Y003696D01*
X006879Y003795D02*
X007276Y003795D01*
X007180Y003893D02*
X006975Y003893D01*
X007016Y003992D02*
X007139Y003992D01*
X007111Y004090D02*
X007044Y004090D01*
X007044Y004189D02*
X007111Y004189D01*
X007111Y004287D02*
X007044Y004287D01*
X007044Y004386D02*
X007111Y004386D01*
X007111Y004484D02*
X007044Y004484D01*
X007044Y004583D02*
X007111Y004583D01*
X007111Y004681D02*
X007044Y004681D01*
X007044Y004780D02*
X007111Y004780D01*
X007126Y004878D02*
X007028Y004878D01*
X006988Y004977D02*
X007167Y004977D01*
X007245Y005075D02*
X006909Y005075D01*
X006767Y005174D02*
X007388Y005174D01*
X007767Y005174D02*
X008445Y005174D01*
X008473Y005183D02*
X008406Y005161D01*
X008343Y005129D01*
X008286Y005088D01*
X008237Y005038D01*
X008195Y004981D01*
X008163Y004918D01*
X008142Y004851D01*
X008131Y004782D01*
X008131Y004498D01*
X008529Y004498D01*
X008529Y004402D01*
X008131Y004402D01*
X008131Y004118D01*
X008142Y004049D01*
X008163Y003982D01*
X008195Y003919D01*
X008237Y003862D01*
X008286Y003812D01*
X008343Y003771D01*
X008406Y003739D01*
X008473Y003717D01*
X008529Y003708D01*
X008529Y004402D01*
X008626Y004402D01*
X008626Y004498D01*
X008529Y004498D01*
X008529Y005192D01*
X008473Y005183D01*
X008529Y005174D02*
X008626Y005174D01*
X008626Y005075D02*
X008529Y005075D01*
X008529Y004977D02*
X008626Y004977D01*
X008626Y004878D02*
X008529Y004878D01*
X008529Y004780D02*
X008626Y004780D01*
X008626Y004681D02*
X008529Y004681D01*
X008529Y004583D02*
X008626Y004583D01*
X008626Y004484D02*
X011807Y004484D01*
X011709Y004583D02*
X009024Y004583D01*
X009024Y004681D02*
X011610Y004681D01*
X011512Y004780D02*
X009024Y004780D01*
X009005Y004878D02*
X011413Y004878D01*
X011352Y005250D02*
X012227Y004375D01*
X012627Y004375D01*
X017677Y004375D01*
X017977Y004675D01*
X017609Y004681D02*
X012233Y004681D01*
X012134Y004780D02*
X017609Y004780D01*
X017660Y004878D02*
X012036Y004878D01*
X011937Y004977D02*
X017758Y004977D01*
X018196Y004977D02*
X027802Y004977D01*
X027802Y005075D02*
X011839Y005075D01*
X011740Y005174D02*
X027802Y005174D01*
X027802Y005272D02*
X011721Y005272D01*
X011721Y005371D02*
X027802Y005371D01*
X027802Y005469D02*
X011654Y005469D01*
X011555Y005568D02*
X027802Y005568D01*
X027802Y005666D02*
X006077Y005666D01*
X006077Y005568D02*
X011149Y005568D01*
X011051Y005469D02*
X006077Y005469D01*
X006077Y005371D02*
X010984Y005371D01*
X011906Y004386D02*
X009024Y004386D01*
X009024Y004402D02*
X008626Y004402D01*
X008626Y003708D01*
X008682Y003717D01*
X008749Y003739D01*
X008812Y003771D01*
X008869Y003812D01*
X008918Y003862D01*
X008960Y003919D01*
X008992Y003982D01*
X009013Y004049D01*
X009024Y004118D01*
X009024Y004402D01*
X009024Y004287D02*
X012004Y004287D01*
X012103Y004189D02*
X009024Y004189D01*
X009020Y004090D02*
X012397Y004090D01*
X012298Y003992D02*
X008995Y003992D01*
X008941Y003893D02*
X012259Y003893D01*
X012259Y003795D02*
X008844Y003795D01*
X008626Y003795D02*
X008529Y003795D01*
X008529Y003893D02*
X008626Y003893D01*
X008626Y003992D02*
X008529Y003992D01*
X008529Y004090D02*
X008626Y004090D01*
X008626Y004189D02*
X008529Y004189D01*
X008529Y004287D02*
X008626Y004287D01*
X008626Y004386D02*
X008529Y004386D01*
X008529Y004484D02*
X008044Y004484D01*
X008044Y004386D02*
X008131Y004386D01*
X008131Y004287D02*
X008044Y004287D01*
X008044Y004189D02*
X008131Y004189D01*
X008135Y004090D02*
X008044Y004090D01*
X008016Y003992D02*
X008160Y003992D01*
X008214Y003893D02*
X007975Y003893D01*
X007879Y003795D02*
X008311Y003795D01*
X008131Y004583D02*
X008044Y004583D01*
X008044Y004681D02*
X008131Y004681D01*
X008131Y004780D02*
X008044Y004780D01*
X008028Y004878D02*
X008150Y004878D01*
X008193Y004977D02*
X007988Y004977D01*
X007909Y005075D02*
X008274Y005075D01*
X007676Y002908D02*
X023624Y002908D01*
X023534Y003007D02*
X006077Y003007D01*
X006077Y003105D02*
X023534Y003105D01*
X023632Y003401D02*
X006077Y003401D01*
X006077Y003499D02*
X012408Y003499D01*
X012627Y003800D02*
X012627Y004375D01*
X012858Y004090D02*
X023534Y004090D01*
X023534Y004189D02*
X017802Y004189D01*
X017901Y004287D02*
X023534Y004287D01*
X023567Y004386D02*
X018209Y004386D01*
X018307Y004484D02*
X023666Y004484D01*
X024139Y004484D02*
X027802Y004484D01*
X027802Y004386D02*
X024238Y004386D01*
X024271Y004287D02*
X027802Y004287D01*
X027802Y004189D02*
X024271Y004189D01*
X024271Y004090D02*
X027802Y004090D01*
X027802Y003992D02*
X024215Y003992D01*
X024132Y003893D02*
X027802Y003893D01*
X027802Y003795D02*
X024132Y003795D01*
X024132Y003696D02*
X027802Y003696D01*
X027802Y003598D02*
X024132Y003598D01*
X024132Y003499D02*
X026606Y003499D01*
X026507Y003401D02*
X024173Y003401D01*
X024271Y003105D02*
X026409Y003105D01*
X026409Y003007D02*
X024271Y003007D01*
X024181Y002908D02*
X026499Y002908D01*
X026597Y002810D02*
X024083Y002810D01*
X023722Y002810D02*
X007879Y002810D01*
X008038Y002711D02*
X026939Y002711D01*
X026958Y002810D02*
X027098Y002810D01*
X026841Y002613D02*
X008136Y002613D01*
X008235Y002514D02*
X026742Y002514D01*
X026677Y002416D02*
X008300Y002416D01*
X008357Y002317D02*
X026620Y002317D01*
X026563Y002219D02*
X008414Y002219D01*
X008443Y002120D02*
X026534Y002120D01*
X026507Y002022D02*
X008470Y002022D01*
X008496Y001923D02*
X026481Y001923D01*
X026472Y001825D02*
X008505Y001825D01*
X008505Y001726D02*
X026472Y001726D01*
X026472Y001628D02*
X008505Y001628D01*
X008497Y001529D02*
X026480Y001529D01*
X026507Y001431D02*
X008470Y001431D01*
X008444Y001332D02*
X026533Y001332D01*
X026562Y001234D02*
X008415Y001234D01*
X008358Y001135D02*
X026619Y001135D01*
X026676Y001037D02*
X008301Y001037D01*
X008237Y000938D02*
X026740Y000938D01*
X026838Y000840D02*
X008138Y000840D01*
X008040Y000741D02*
X026937Y000741D01*
X027094Y000643D02*
X007883Y000643D01*
X006270Y002514D02*
X006077Y002514D01*
X006077Y002416D02*
X006205Y002416D01*
X006148Y002317D02*
X006077Y002317D01*
X006077Y002219D02*
X006091Y002219D01*
X006077Y002613D02*
X006368Y002613D01*
X006467Y002711D02*
X006077Y002711D01*
X006077Y002810D02*
X006626Y002810D01*
X006828Y002908D02*
X006077Y002908D01*
X006077Y005765D02*
X027802Y005765D01*
X027802Y005863D02*
X006077Y005863D01*
X006077Y005962D02*
X027802Y005962D01*
X027802Y006060D02*
X006077Y006060D01*
X006077Y006159D02*
X027802Y006159D01*
X027802Y006257D02*
X006077Y006257D01*
X006077Y006356D02*
X027802Y006356D01*
X027802Y006454D02*
X006077Y006454D01*
X006077Y006553D02*
X027802Y006553D01*
X027802Y006651D02*
X006077Y006651D01*
X006077Y006750D02*
X027802Y006750D01*
X027802Y006848D02*
X006077Y006848D01*
X006077Y006947D02*
X027802Y006947D01*
X027802Y007045D02*
X006077Y007045D01*
X006077Y012561D02*
X028899Y012561D01*
X028899Y012660D02*
X006077Y012660D01*
X006077Y012758D02*
X028899Y012758D01*
X028899Y010591D02*
X028302Y010591D01*
X028302Y010493D02*
X028899Y010493D01*
X028899Y010394D02*
X028302Y010394D01*
X028302Y010296D02*
X028899Y010296D01*
X028899Y010197D02*
X028302Y010197D01*
X028302Y010099D02*
X028899Y010099D01*
X028899Y010000D02*
X028302Y010000D01*
X028302Y009902D02*
X028899Y009902D01*
X028899Y009803D02*
X028302Y009803D01*
X028302Y009705D02*
X028899Y009705D01*
X028899Y009606D02*
X028302Y009606D01*
X028302Y009508D02*
X028899Y009508D01*
X028899Y009409D02*
X028302Y009409D01*
X028302Y009311D02*
X028899Y009311D01*
X028899Y009212D02*
X028302Y009212D01*
X028302Y009114D02*
X028899Y009114D01*
X028899Y009015D02*
X028302Y009015D01*
X028302Y008917D02*
X028899Y008917D01*
X028899Y008818D02*
X028302Y008818D01*
X028302Y008720D02*
X028899Y008720D01*
X028899Y008621D02*
X028302Y008621D01*
X028302Y008523D02*
X028899Y008523D01*
X028899Y008424D02*
X028302Y008424D01*
X028302Y008326D02*
X028899Y008326D01*
X028899Y008227D02*
X028302Y008227D01*
X028302Y008129D02*
X028899Y008129D01*
X028899Y008030D02*
X028302Y008030D01*
X028302Y007932D02*
X028899Y007932D01*
X028899Y007833D02*
X028302Y007833D01*
X028302Y007735D02*
X028899Y007735D01*
X028899Y007636D02*
X028302Y007636D01*
X028302Y007538D02*
X028899Y007538D01*
X028899Y007439D02*
X028302Y007439D01*
X028302Y007341D02*
X028899Y007341D01*
X028899Y007242D02*
X028302Y007242D01*
X028302Y007144D02*
X028899Y007144D01*
X028899Y007045D02*
X028302Y007045D01*
X028302Y006947D02*
X028899Y006947D01*
X028899Y006848D02*
X028302Y006848D01*
X028302Y006750D02*
X028899Y006750D01*
X028899Y006651D02*
X028302Y006651D01*
X028302Y006553D02*
X028899Y006553D01*
X028899Y006454D02*
X028302Y006454D01*
X028302Y006356D02*
X028899Y006356D01*
X028899Y006257D02*
X028302Y006257D01*
X028302Y006159D02*
X028899Y006159D01*
X028899Y006060D02*
X028302Y006060D01*
X028302Y005962D02*
X028899Y005962D01*
X028899Y005863D02*
X028302Y005863D01*
X028302Y005765D02*
X028899Y005765D01*
X028899Y005666D02*
X028302Y005666D01*
X028302Y005568D02*
X028899Y005568D01*
X028899Y005469D02*
X028302Y005469D01*
X028302Y005371D02*
X028899Y005371D01*
X028899Y005272D02*
X028302Y005272D01*
X028302Y005174D02*
X028899Y005174D01*
X028899Y005075D02*
X028302Y005075D01*
X028302Y004977D02*
X028899Y004977D01*
X028899Y004878D02*
X028302Y004878D01*
X028302Y004780D02*
X028899Y004780D01*
X028899Y004681D02*
X028302Y004681D01*
X028302Y004583D02*
X028899Y004583D01*
X028899Y004484D02*
X028302Y004484D01*
X028302Y004386D02*
X028899Y004386D01*
X028899Y004287D02*
X028302Y004287D01*
X028302Y004189D02*
X028899Y004189D01*
X028899Y004090D02*
X028302Y004090D01*
X028302Y003992D02*
X028899Y003992D01*
X028899Y003893D02*
X028302Y003893D01*
X028302Y003795D02*
X028899Y003795D01*
X028899Y003696D02*
X028302Y003696D01*
X028302Y003598D02*
X028899Y003598D01*
X028899Y003499D02*
X028302Y003499D01*
X028292Y003401D02*
X028899Y003401D01*
X028899Y003302D02*
X028233Y003302D01*
X028134Y003204D02*
X028899Y003204D01*
X028899Y003105D02*
X028036Y003105D01*
X027937Y003007D02*
X028899Y003007D01*
X028899Y002908D02*
X028149Y002908D01*
X028351Y002810D02*
X028899Y002810D01*
X028899Y002711D02*
X028510Y002711D01*
X028609Y002613D02*
X028899Y002613D01*
X028899Y002514D02*
X028707Y002514D01*
X028772Y002416D02*
X028899Y002416D01*
X028899Y002317D02*
X028829Y002317D01*
X028886Y002219D02*
X028899Y002219D01*
X027723Y003499D02*
X026949Y003499D01*
X027048Y003401D02*
X027624Y003401D01*
X027802Y004583D02*
X018346Y004583D01*
X018346Y004681D02*
X027802Y004681D01*
X027802Y004780D02*
X018346Y004780D01*
X018295Y004878D02*
X027802Y004878D01*
X023672Y003893D02*
X012996Y003893D01*
X012996Y003795D02*
X023672Y003795D01*
X023672Y003696D02*
X012996Y003696D01*
X012946Y003598D02*
X023672Y003598D01*
X023672Y003499D02*
X012847Y003499D01*
X012957Y003992D02*
X023590Y003992D01*
X015686Y013054D02*
X009977Y013054D01*
X009930Y013007D02*
X010146Y013223D01*
X010146Y013527D01*
X009930Y013743D01*
X015667Y013743D01*
X015667Y013645D02*
X010028Y013645D01*
X009930Y013743D02*
X009625Y013743D01*
X009487Y013605D01*
X009373Y013605D01*
X007946Y015032D01*
X007946Y015227D01*
X007730Y015443D01*
X007425Y015443D01*
X007209Y015227D01*
X007209Y014923D01*
X007425Y014707D01*
X007620Y014707D01*
X009182Y013145D01*
X009487Y013145D01*
X009625Y013007D01*
X009930Y013007D01*
X010075Y013152D02*
X015667Y013152D01*
X015667Y013251D02*
X010146Y013251D01*
X010146Y013349D02*
X015667Y013349D01*
X015667Y013448D02*
X010146Y013448D01*
X010127Y013546D02*
X015667Y013546D01*
X015667Y013842D02*
X009136Y013842D01*
X009038Y013940D02*
X015667Y013940D01*
X015667Y014039D02*
X008939Y014039D01*
X008841Y014137D02*
X015667Y014137D01*
X015667Y014236D02*
X008742Y014236D01*
X008644Y014334D02*
X015667Y014334D01*
X015667Y014433D02*
X008545Y014433D01*
X008447Y014531D02*
X015667Y014531D01*
X015667Y014630D02*
X008348Y014630D01*
X008250Y014728D02*
X015667Y014728D01*
X015667Y014827D02*
X008151Y014827D01*
X008053Y014925D02*
X015667Y014925D01*
X015667Y015024D02*
X007954Y015024D01*
X007946Y015122D02*
X015667Y015122D01*
X015667Y015221D02*
X007946Y015221D01*
X007854Y015319D02*
X015667Y015319D01*
X015667Y015418D02*
X009467Y015418D01*
X009501Y015420D02*
X009501Y015420D01*
X009899Y015595D01*
X009899Y015595D01*
X010219Y015889D01*
X010219Y015889D01*
X010426Y016271D01*
X010426Y016271D01*
X010497Y016700D01*
X010426Y017129D01*
X010219Y017511D01*
X009899Y017805D01*
X009501Y017980D01*
X009068Y018015D01*
X008647Y017909D01*
X008283Y017671D01*
X008016Y017328D01*
X007875Y016917D01*
X007875Y016483D01*
X008016Y016072D01*
X008016Y016072D01*
X008283Y015729D01*
X008283Y015729D01*
X008283Y015729D01*
X008647Y015491D01*
X009068Y015385D01*
X009068Y015385D01*
X009501Y015420D01*
X009719Y015516D02*
X015667Y015516D01*
X015667Y015615D02*
X009920Y015615D01*
X010027Y015713D02*
X015667Y015713D01*
X015667Y015812D02*
X010134Y015812D01*
X010230Y015910D02*
X015667Y015910D01*
X015667Y016009D02*
X010283Y016009D01*
X010337Y016107D02*
X015667Y016107D01*
X015667Y016206D02*
X010390Y016206D01*
X010431Y016304D02*
X015667Y016304D01*
X015667Y016403D02*
X010448Y016403D01*
X010464Y016501D02*
X015667Y016501D01*
X015667Y016600D02*
X010480Y016600D01*
X010497Y016698D02*
X015667Y016698D01*
X015667Y016797D02*
X010481Y016797D01*
X010465Y016895D02*
X015667Y016895D01*
X015667Y016994D02*
X010448Y016994D01*
X010432Y017092D02*
X015667Y017092D01*
X015667Y017191D02*
X010392Y017191D01*
X010426Y017129D02*
X010426Y017129D01*
X010339Y017289D02*
X015667Y017289D01*
X015667Y017388D02*
X010286Y017388D01*
X010232Y017486D02*
X015667Y017486D01*
X015667Y017585D02*
X010139Y017585D01*
X010219Y017511D02*
X010219Y017511D01*
X010032Y017683D02*
X015667Y017683D01*
X015667Y017782D02*
X009925Y017782D01*
X009899Y017805D02*
X009899Y017805D01*
X009728Y017880D02*
X015667Y017880D01*
X015667Y017979D02*
X009504Y017979D01*
X009501Y017980D02*
X009501Y017980D01*
X009068Y018015D02*
X009068Y018015D01*
X008922Y017979D02*
X006779Y017979D01*
X006833Y017930D02*
X006706Y017930D01*
X006928Y018078D01*
X006959Y018236D01*
X006909Y018312D01*
X006947Y018350D01*
X006947Y018661D01*
X006873Y018736D01*
X006947Y018810D01*
X006947Y019122D01*
X006912Y019157D01*
X006947Y019192D01*
X006947Y019354D01*
X006797Y019504D01*
X006683Y019618D01*
X006371Y019618D01*
X006107Y019354D01*
X006107Y019192D01*
X006142Y019157D01*
X006107Y019122D01*
X006107Y018810D01*
X006181Y018736D01*
X006107Y018661D01*
X006107Y018350D01*
X006182Y018275D01*
X006296Y018161D01*
X006349Y018161D01*
X006127Y018013D01*
X006095Y017854D01*
X006145Y017779D01*
X006107Y017741D01*
X006107Y017429D01*
X006181Y017355D01*
X006107Y017280D01*
X006107Y016969D01*
X006182Y016894D01*
X006182Y016894D01*
X006219Y016857D01*
X006107Y016745D01*
X006107Y016583D01*
X006221Y016469D01*
X006367Y016469D01*
X006332Y016435D01*
X006332Y016435D01*
X006272Y016374D01*
X006239Y016363D01*
X006217Y016319D01*
X006182Y016284D01*
X006182Y016250D01*
X006092Y016069D01*
X006143Y015915D01*
X006287Y015843D01*
X006440Y015894D01*
X006456Y015925D01*
X006522Y015859D01*
X006758Y015859D01*
X006872Y015973D01*
X006947Y016048D01*
X006947Y016360D01*
X006911Y016396D01*
X006947Y016433D01*
X006947Y016895D01*
X007875Y016895D01*
X007875Y016797D02*
X006947Y016797D01*
X006947Y016895D02*
X006911Y016932D01*
X006947Y016969D01*
X006947Y017280D01*
X006911Y017317D01*
X006947Y017354D01*
X006947Y017816D01*
X006833Y017930D01*
X006883Y017880D02*
X008603Y017880D01*
X008647Y017909D02*
X008647Y017909D01*
X008452Y017782D02*
X006947Y017782D01*
X006947Y017683D02*
X008301Y017683D01*
X008283Y017671D02*
X008283Y017671D01*
X008283Y017671D01*
X008216Y017585D02*
X006947Y017585D01*
X006947Y017486D02*
X008139Y017486D01*
X008062Y017388D02*
X006947Y017388D01*
X006939Y017289D02*
X008003Y017289D01*
X008016Y017328D02*
X008016Y017328D01*
X007969Y017191D02*
X006947Y017191D01*
X006947Y017092D02*
X007935Y017092D01*
X007901Y016994D02*
X006947Y016994D01*
X006947Y016698D02*
X007875Y016698D01*
X007875Y016600D02*
X006947Y016600D01*
X006947Y016501D02*
X007875Y016501D01*
X007903Y016403D02*
X006917Y016403D01*
X006947Y016304D02*
X007937Y016304D01*
X007970Y016206D02*
X006947Y016206D01*
X006947Y016107D02*
X008004Y016107D01*
X008066Y016009D02*
X006908Y016009D01*
X006810Y015910D02*
X008142Y015910D01*
X008219Y015812D02*
X006077Y015812D01*
X006077Y015910D02*
X006153Y015910D01*
X006112Y016009D02*
X006077Y016009D01*
X006077Y016107D02*
X006111Y016107D01*
X006077Y016206D02*
X006160Y016206D01*
X006202Y016304D02*
X006077Y016304D01*
X006077Y016403D02*
X006300Y016403D01*
X006189Y016501D02*
X006077Y016501D01*
X006077Y016600D02*
X006107Y016600D01*
X006107Y016698D02*
X006077Y016698D01*
X006077Y016797D02*
X006159Y016797D01*
X006181Y016895D02*
X006077Y016895D01*
X006077Y016994D02*
X006107Y016994D01*
X006107Y017092D02*
X006077Y017092D01*
X006077Y017191D02*
X006107Y017191D01*
X006116Y017289D02*
X006077Y017289D01*
X006077Y017388D02*
X006149Y017388D01*
X006107Y017486D02*
X006077Y017486D01*
X006077Y017585D02*
X006107Y017585D01*
X006107Y017683D02*
X006077Y017683D01*
X006077Y017782D02*
X006143Y017782D01*
X006100Y017880D02*
X006077Y017880D01*
X006077Y017979D02*
X006120Y017979D01*
X006077Y018077D02*
X006223Y018077D01*
X006281Y018176D02*
X006077Y018176D01*
X006077Y018274D02*
X006183Y018274D01*
X006107Y018373D02*
X006077Y018373D01*
X006077Y018471D02*
X006107Y018471D01*
X006107Y018570D02*
X006077Y018570D01*
X006077Y018668D02*
X006114Y018668D01*
X006077Y018767D02*
X006151Y018767D01*
X006107Y018865D02*
X006077Y018865D01*
X006077Y018964D02*
X006107Y018964D01*
X006107Y019062D02*
X006077Y019062D01*
X006077Y019161D02*
X006139Y019161D01*
X006107Y019259D02*
X006077Y019259D01*
X006077Y019358D02*
X006111Y019358D01*
X006077Y019456D02*
X006209Y019456D01*
X006308Y019555D02*
X006077Y019555D01*
X006077Y019653D02*
X008653Y019653D01*
X008632Y019603D02*
X008632Y019397D01*
X008712Y019205D01*
X008858Y019059D01*
X009049Y018980D01*
X009256Y018980D01*
X009447Y019059D01*
X009593Y019205D01*
X009672Y019397D01*
X009672Y019603D01*
X009593Y019795D01*
X009447Y019941D01*
X009256Y020020D01*
X009049Y020020D01*
X008858Y019941D01*
X008712Y019795D01*
X008632Y019603D01*
X008632Y019555D02*
X006747Y019555D01*
X006845Y019456D02*
X008632Y019456D01*
X008649Y019358D02*
X006944Y019358D01*
X006947Y019259D02*
X008689Y019259D01*
X008756Y019161D02*
X006916Y019161D01*
X006947Y019062D02*
X008855Y019062D01*
X009450Y019062D02*
X015667Y019062D01*
X015667Y018964D02*
X006947Y018964D01*
X006947Y018865D02*
X015667Y018865D01*
X015667Y018767D02*
X006904Y018767D01*
X006941Y018668D02*
X015667Y018668D01*
X015667Y018570D02*
X006947Y018570D01*
X006947Y018471D02*
X015667Y018471D01*
X015667Y018373D02*
X006947Y018373D01*
X006934Y018274D02*
X015667Y018274D01*
X015667Y018176D02*
X006947Y018176D01*
X006926Y018077D02*
X015667Y018077D01*
X015667Y019161D02*
X009548Y019161D01*
X009615Y019259D02*
X015667Y019259D01*
X015667Y019358D02*
X009656Y019358D01*
X009672Y019456D02*
X015667Y019456D01*
X015667Y019555D02*
X009672Y019555D01*
X009652Y019653D02*
X015667Y019653D01*
X015667Y019752D02*
X009611Y019752D01*
X009538Y019850D02*
X015667Y019850D01*
X015667Y019949D02*
X009428Y019949D01*
X008876Y019949D02*
X006635Y019949D01*
X006647Y019961D02*
X006647Y020036D01*
X006683Y020072D01*
X006833Y020072D01*
X006947Y020186D01*
X006947Y020348D01*
X006911Y020385D01*
X006947Y020422D01*
X006947Y020733D01*
X006912Y020768D01*
X006947Y020804D01*
X006947Y020965D01*
X006873Y021039D01*
X006947Y021114D01*
X006947Y021501D01*
X006912Y021536D01*
X006947Y021571D01*
X006947Y022266D01*
X007022Y022342D01*
X007098Y022417D01*
X007098Y022653D01*
X006983Y022767D01*
X006908Y022767D01*
X006873Y022803D01*
X006947Y022877D01*
X006947Y023189D01*
X006872Y023264D01*
X006764Y023372D01*
X006833Y023372D01*
X006947Y023486D01*
X006947Y023647D01*
X006833Y023762D01*
X006722Y023762D01*
X006722Y024031D01*
X006758Y024067D01*
X006833Y024067D01*
X006947Y024181D01*
X006947Y024493D01*
X006872Y024568D01*
X006764Y024676D01*
X006833Y024676D01*
X006947Y024790D01*
X006947Y024952D01*
X006911Y024989D01*
X006947Y025026D01*
X006947Y025136D01*
X006983Y025136D01*
X007098Y025251D01*
X007098Y025412D01*
X006983Y025526D01*
X006371Y025526D01*
X006257Y025412D01*
X006257Y025026D01*
X006294Y024989D01*
X006257Y024952D01*
X006257Y024565D01*
X006293Y024529D01*
X006257Y024493D01*
X006257Y024181D01*
X006332Y024106D01*
X006332Y023722D01*
X006257Y023647D01*
X006257Y023261D01*
X006293Y023225D01*
X006257Y023189D01*
X006257Y022877D01*
X006332Y022803D01*
X006257Y022728D01*
X006257Y022181D01*
X006327Y022112D01*
X006257Y022043D01*
X006257Y021997D01*
X006221Y021997D01*
X006107Y021883D01*
X006107Y021646D01*
X006221Y021532D01*
X006288Y021532D01*
X006257Y021501D01*
X006257Y021189D01*
X006294Y021152D01*
X006257Y021115D01*
X006182Y021040D01*
X006182Y020879D01*
X006257Y020804D01*
X006292Y020768D01*
X006257Y020733D01*
X006257Y020422D01*
X006294Y020385D01*
X006257Y020348D01*
X006257Y019961D01*
X006371Y019847D01*
X006533Y019847D01*
X006647Y019961D01*
X006658Y020047D02*
X015667Y020047D01*
X015667Y020146D02*
X006907Y020146D01*
X006947Y020244D02*
X015667Y020244D01*
X015667Y020343D02*
X006947Y020343D01*
X006947Y020441D02*
X014866Y020441D01*
X014767Y020540D02*
X006947Y020540D01*
X006947Y020638D02*
X014709Y020638D01*
X014709Y020737D02*
X006944Y020737D01*
X006947Y020835D02*
X014709Y020835D01*
X014740Y020934D02*
X006947Y020934D01*
X006880Y021032D02*
X008913Y021032D01*
X008945Y021000D02*
X009102Y021000D01*
X009102Y021170D01*
X009202Y021169D01*
X009202Y021000D01*
X009360Y021000D01*
X009652Y021293D01*
X009652Y021450D01*
X009478Y021450D01*
X009479Y021550D01*
X009652Y021550D01*
X009652Y021707D01*
X009564Y021795D01*
X012032Y024263D01*
X012082Y024384D01*
X012082Y031263D01*
X012844Y032025D01*
X014048Y032025D01*
X014169Y032075D01*
X014256Y032162D01*
X014310Y032162D01*
X014525Y032377D01*
X014525Y032670D01*
X016912Y032670D01*
X017050Y032532D01*
X017355Y032532D01*
X017571Y032748D01*
X017571Y033052D01*
X017355Y033268D01*
X017050Y033268D01*
X016912Y033130D01*
X013793Y033130D01*
X013605Y033318D01*
X013300Y033318D01*
X013084Y033102D01*
X013084Y032798D01*
X013197Y032685D01*
X012642Y032685D01*
X012520Y032635D01*
X012428Y032542D01*
X011565Y031680D01*
X011473Y031587D01*
X011422Y031466D01*
X011422Y029976D01*
X011405Y029993D01*
X011100Y029993D01*
X010884Y029777D01*
X010884Y029568D01*
X009811Y028495D01*
X009303Y028495D01*
X009155Y028643D01*
X008850Y028643D01*
X008634Y028427D01*
X008634Y028123D01*
X008850Y027907D01*
X009155Y027907D01*
X009303Y028055D01*
X009994Y028055D01*
X011195Y029257D01*
X011405Y029257D01*
X011422Y029274D01*
X011422Y024587D01*
X008920Y022085D01*
X008875Y022040D01*
X008874Y022038D01*
X008873Y022037D01*
X008848Y021978D01*
X008823Y021919D01*
X008823Y021917D01*
X008822Y021916D01*
X008822Y021877D01*
X008652Y021707D01*
X008652Y021550D01*
X008819Y021550D01*
X008818Y021450D01*
X008652Y021450D01*
X008652Y021293D01*
X008945Y021000D01*
X009102Y021032D02*
X009202Y021032D01*
X009202Y021131D02*
X009102Y021131D01*
X008815Y021131D02*
X006947Y021131D01*
X006947Y021229D02*
X008716Y021229D01*
X008652Y021328D02*
X006947Y021328D01*
X006947Y021426D02*
X008652Y021426D01*
X008819Y021525D02*
X006923Y021525D01*
X006947Y021623D02*
X008652Y021623D01*
X008667Y021722D02*
X006947Y021722D01*
X006947Y021820D02*
X008765Y021820D01*
X008823Y021919D02*
X006947Y021919D01*
X006947Y022017D02*
X008864Y022017D01*
X008951Y022116D02*
X006947Y022116D01*
X006947Y022214D02*
X009050Y022214D01*
X009148Y022313D02*
X006993Y022313D01*
X007092Y022411D02*
X009247Y022411D01*
X009345Y022510D02*
X007098Y022510D01*
X007098Y022608D02*
X009444Y022608D01*
X009542Y022707D02*
X007044Y022707D01*
X006875Y022805D02*
X009641Y022805D01*
X009739Y022904D02*
X006947Y022904D01*
X006947Y023002D02*
X009838Y023002D01*
X009936Y023101D02*
X006947Y023101D01*
X006937Y023199D02*
X010035Y023199D01*
X010133Y023298D02*
X006839Y023298D01*
X006858Y023396D02*
X010232Y023396D01*
X010330Y023495D02*
X006947Y023495D01*
X006947Y023593D02*
X010429Y023593D01*
X010527Y023692D02*
X006903Y023692D01*
X006722Y023790D02*
X010626Y023790D01*
X010724Y023889D02*
X006722Y023889D01*
X006722Y023987D02*
X010823Y023987D01*
X010921Y024086D02*
X006852Y024086D01*
X006947Y024184D02*
X011020Y024184D01*
X011118Y024283D02*
X006947Y024283D01*
X006947Y024381D02*
X011217Y024381D01*
X011315Y024480D02*
X006947Y024480D01*
X006862Y024578D02*
X011414Y024578D01*
X011422Y024677D02*
X006834Y024677D01*
X006932Y024775D02*
X011422Y024775D01*
X011422Y024874D02*
X006947Y024874D01*
X006927Y024972D02*
X011422Y024972D01*
X011422Y025071D02*
X006947Y025071D01*
X007016Y025169D02*
X011422Y025169D01*
X011422Y025268D02*
X007098Y025268D01*
X007098Y025366D02*
X011422Y025366D01*
X011422Y025465D02*
X007045Y025465D01*
X006758Y025757D02*
X006833Y025832D01*
X006947Y025946D01*
X006947Y026258D01*
X006797Y026408D01*
X006797Y026518D01*
X006833Y026518D01*
X006947Y026632D01*
X006947Y026954D01*
X006878Y027023D01*
X006947Y027092D01*
X006947Y027254D01*
X006911Y027291D01*
X006947Y027327D01*
X006947Y027639D01*
X006758Y027828D01*
X006597Y027828D01*
X006565Y027797D01*
X006533Y027828D01*
X006296Y027828D01*
X006182Y027714D01*
X006107Y027639D01*
X006107Y027327D01*
X006144Y027291D01*
X006107Y027254D01*
X006107Y027092D01*
X006176Y027023D01*
X006107Y026954D01*
X006107Y026407D01*
X006181Y026332D01*
X006107Y026258D01*
X006107Y025946D01*
X006221Y025832D01*
X006221Y025832D01*
X006296Y025757D01*
X006458Y025757D01*
X006490Y025789D01*
X006522Y025757D01*
X006758Y025757D01*
X006761Y025760D02*
X011422Y025760D01*
X011422Y025662D02*
X006077Y025662D01*
X006077Y025760D02*
X006293Y025760D01*
X006195Y025859D02*
X006077Y025859D01*
X006077Y025957D02*
X006107Y025957D01*
X006107Y026056D02*
X006077Y026056D01*
X006077Y026154D02*
X006107Y026154D01*
X006107Y026253D02*
X006077Y026253D01*
X006077Y026351D02*
X006163Y026351D01*
X006107Y026450D02*
X006077Y026450D01*
X006077Y026548D02*
X006107Y026548D01*
X006107Y026647D02*
X006077Y026647D01*
X006077Y026745D02*
X006107Y026745D01*
X006107Y026844D02*
X006077Y026844D01*
X006077Y026942D02*
X006107Y026942D01*
X006077Y027041D02*
X006159Y027041D01*
X006107Y027139D02*
X006077Y027139D01*
X006077Y027238D02*
X006107Y027238D01*
X006107Y027336D02*
X006077Y027336D01*
X006077Y027435D02*
X006107Y027435D01*
X006107Y027533D02*
X006077Y027533D01*
X006077Y027632D02*
X006107Y027632D01*
X006077Y027730D02*
X006198Y027730D01*
X006077Y027829D02*
X011422Y027829D01*
X011422Y027927D02*
X009175Y027927D01*
X009274Y028026D02*
X011422Y028026D01*
X011422Y028124D02*
X010063Y028124D01*
X010161Y028223D02*
X011422Y028223D01*
X011422Y028321D02*
X010260Y028321D01*
X010358Y028420D02*
X011422Y028420D01*
X011422Y028518D02*
X010457Y028518D01*
X010555Y028617D02*
X011422Y028617D01*
X011422Y028715D02*
X010654Y028715D01*
X010752Y028814D02*
X011422Y028814D01*
X011422Y028912D02*
X010851Y028912D01*
X010949Y029011D02*
X011422Y029011D01*
X011422Y029109D02*
X011048Y029109D01*
X011146Y029208D02*
X011422Y029208D01*
X011252Y029625D02*
X009902Y028275D01*
X009002Y028275D01*
X008731Y028026D02*
X006077Y028026D01*
X006077Y028124D02*
X006156Y028124D01*
X006107Y028173D02*
X006221Y028059D01*
X006458Y028059D01*
X006565Y028166D01*
X006672Y028059D01*
X006833Y028059D01*
X006947Y028173D01*
X006947Y029095D01*
X006947Y029556D01*
X006833Y029670D01*
X006221Y029670D01*
X006107Y029556D01*
X006107Y028173D01*
X006107Y028223D02*
X006077Y028223D01*
X006077Y028321D02*
X006107Y028321D01*
X006107Y028420D02*
X006077Y028420D01*
X006077Y028518D02*
X006107Y028518D01*
X006107Y028617D02*
X006077Y028617D01*
X006077Y028715D02*
X006107Y028715D01*
X006107Y028814D02*
X006077Y028814D01*
X006077Y028912D02*
X006107Y028912D01*
X006107Y029011D02*
X006077Y029011D01*
X006077Y029109D02*
X006107Y029109D01*
X006107Y029208D02*
X006077Y029208D01*
X006077Y029306D02*
X006107Y029306D01*
X006107Y029405D02*
X006077Y029405D01*
X006077Y029503D02*
X006107Y029503D01*
X006077Y029602D02*
X006153Y029602D01*
X006077Y029700D02*
X008707Y029700D01*
X008634Y029627D02*
X008634Y029323D01*
X008850Y029107D01*
X009155Y029107D01*
X009371Y029323D01*
X009371Y029557D01*
X013419Y033605D01*
X016052Y033605D01*
X016200Y033457D01*
X016505Y033457D01*
X016721Y033673D01*
X016721Y033977D01*
X016505Y034193D01*
X016200Y034193D01*
X016052Y034045D01*
X013236Y034045D01*
X009034Y029843D01*
X008850Y029843D01*
X008634Y029627D01*
X008634Y029602D02*
X006902Y029602D01*
X006947Y029503D02*
X008634Y029503D01*
X008634Y029405D02*
X006947Y029405D01*
X006947Y029306D02*
X008651Y029306D01*
X008749Y029208D02*
X006947Y029208D01*
X006947Y029109D02*
X008848Y029109D01*
X009157Y029109D02*
X010425Y029109D01*
X010327Y029011D02*
X006947Y029011D01*
X006947Y028912D02*
X010228Y028912D01*
X010130Y028814D02*
X006947Y028814D01*
X006947Y028715D02*
X010031Y028715D01*
X009933Y028617D02*
X009181Y028617D01*
X009280Y028518D02*
X009834Y028518D01*
X009256Y029208D02*
X010524Y029208D01*
X010622Y029306D02*
X009354Y029306D01*
X009371Y029405D02*
X010721Y029405D01*
X010819Y029503D02*
X009371Y029503D01*
X009415Y029602D02*
X010884Y029602D01*
X010884Y029700D02*
X009514Y029700D01*
X009612Y029799D02*
X010905Y029799D01*
X011004Y029897D02*
X009711Y029897D01*
X009809Y029996D02*
X011422Y029996D01*
X011422Y030094D02*
X009908Y030094D01*
X010006Y030193D02*
X011422Y030193D01*
X011422Y030291D02*
X010105Y030291D01*
X010203Y030390D02*
X011422Y030390D01*
X011422Y030488D02*
X010302Y030488D01*
X010400Y030587D02*
X011422Y030587D01*
X011422Y030685D02*
X010499Y030685D01*
X010597Y030784D02*
X011422Y030784D01*
X011422Y030882D02*
X010696Y030882D01*
X010794Y030981D02*
X011422Y030981D01*
X011422Y031079D02*
X010893Y031079D01*
X010991Y031178D02*
X011422Y031178D01*
X011422Y031276D02*
X011090Y031276D01*
X011188Y031375D02*
X011422Y031375D01*
X011426Y031473D02*
X011287Y031473D01*
X011385Y031572D02*
X011466Y031572D01*
X011484Y031670D02*
X011556Y031670D01*
X011565Y031680D02*
X011565Y031680D01*
X011582Y031769D02*
X011654Y031769D01*
X011681Y031867D02*
X011753Y031867D01*
X011779Y031966D02*
X011851Y031966D01*
X011878Y032064D02*
X011950Y032064D01*
X011976Y032163D02*
X012048Y032163D01*
X012075Y032261D02*
X012147Y032261D01*
X012173Y032360D02*
X012245Y032360D01*
X012272Y032458D02*
X012344Y032458D01*
X012370Y032557D02*
X012442Y032557D01*
X012428Y032542D02*
X012428Y032542D01*
X012469Y032655D02*
X012570Y032655D01*
X012567Y032754D02*
X013128Y032754D01*
X013084Y032852D02*
X012666Y032852D01*
X012764Y032951D02*
X013084Y032951D01*
X013084Y033049D02*
X012863Y033049D01*
X012961Y033148D02*
X013129Y033148D01*
X013060Y033246D02*
X013228Y033246D01*
X013158Y033345D02*
X028899Y033345D01*
X028899Y033443D02*
X013257Y033443D01*
X013355Y033542D02*
X016115Y033542D01*
X016352Y033825D02*
X013327Y033825D01*
X008977Y029475D01*
X009002Y029475D01*
X008805Y029799D02*
X006077Y029799D01*
X006077Y029897D02*
X009088Y029897D01*
X009040Y029996D02*
X009187Y029996D01*
X009227Y030073D02*
X009485Y030332D01*
X013407Y034254D01*
X014627Y035473D01*
X014767Y035811D01*
X014767Y037595D01*
X014784Y037638D01*
X014784Y037859D01*
X014767Y037901D01*
X014767Y037931D01*
X014627Y038270D01*
X028899Y038270D01*
X028899Y038368D02*
X014528Y038368D01*
X014430Y038467D02*
X028899Y038467D01*
X028899Y038565D02*
X014279Y038565D01*
X014368Y038528D02*
X014030Y038668D01*
X013664Y038668D01*
X013326Y038528D01*
X013067Y038270D01*
X011674Y038270D01*
X011415Y038528D01*
X011077Y038668D01*
X010711Y038668D01*
X010373Y038528D01*
X010114Y038270D01*
X007530Y038270D01*
X007701Y038171D02*
X010073Y038171D01*
X010032Y038073D02*
X007800Y038073D01*
X007847Y037974D02*
X009992Y037974D01*
X009974Y037931D02*
X009974Y037901D01*
X009956Y037859D01*
X009956Y037638D01*
X009974Y037595D01*
X009974Y036449D01*
X007016Y033491D01*
X007014Y033491D01*
X006768Y033389D01*
X006579Y033201D01*
X006477Y032955D01*
X006477Y032688D01*
X006579Y032442D01*
X006768Y032253D01*
X007014Y032151D01*
X007016Y032151D01*
X007126Y032042D01*
X007464Y031901D01*
X007830Y031901D01*
X008168Y032042D01*
X008278Y032151D01*
X008280Y032151D01*
X008527Y032253D01*
X008715Y032442D01*
X008817Y032688D01*
X008817Y032690D01*
X011674Y035547D01*
X011814Y035885D01*
X011814Y037595D01*
X011832Y037638D01*
X011832Y037859D01*
X011814Y037901D01*
X011814Y037931D01*
X011674Y038270D01*
X011715Y038171D02*
X013026Y038171D01*
X012985Y038073D02*
X011755Y038073D01*
X011796Y037974D02*
X012944Y037974D01*
X012927Y037931D02*
X012927Y037901D01*
X012909Y037859D01*
X012909Y037638D01*
X012927Y037595D01*
X012927Y036375D01*
X012106Y035555D01*
X008324Y031773D01*
X007464Y031773D01*
X007126Y031633D01*
X007016Y031523D01*
X007014Y031523D01*
X006768Y031421D01*
X006579Y031232D01*
X006477Y030986D01*
X006477Y030720D01*
X006579Y030473D01*
X006768Y030285D01*
X007014Y030183D01*
X007016Y030183D01*
X007126Y030073D01*
X007464Y029933D01*
X008888Y029933D01*
X009227Y030073D01*
X009248Y030094D02*
X009285Y030094D01*
X009346Y030193D02*
X009384Y030193D01*
X009445Y030291D02*
X009482Y030291D01*
X009543Y030390D02*
X009581Y030390D01*
X009642Y030488D02*
X009679Y030488D01*
X009740Y030587D02*
X009778Y030587D01*
X009839Y030685D02*
X009876Y030685D01*
X009937Y030784D02*
X009975Y030784D01*
X010036Y030882D02*
X010073Y030882D01*
X010134Y030981D02*
X010172Y030981D01*
X010233Y031079D02*
X010270Y031079D01*
X010331Y031178D02*
X010369Y031178D01*
X010430Y031276D02*
X010467Y031276D01*
X010528Y031375D02*
X010566Y031375D01*
X010627Y031473D02*
X010664Y031473D01*
X010725Y031572D02*
X010763Y031572D01*
X010824Y031670D02*
X010861Y031670D01*
X010922Y031769D02*
X010960Y031769D01*
X011021Y031867D02*
X011058Y031867D01*
X011119Y031966D02*
X011157Y031966D01*
X011218Y032064D02*
X011255Y032064D01*
X011316Y032163D02*
X011354Y032163D01*
X011415Y032261D02*
X011452Y032261D01*
X011513Y032360D02*
X011551Y032360D01*
X011612Y032458D02*
X011649Y032458D01*
X011710Y032557D02*
X011748Y032557D01*
X011809Y032655D02*
X011846Y032655D01*
X011907Y032754D02*
X011945Y032754D01*
X012006Y032852D02*
X012043Y032852D01*
X012104Y032951D02*
X012142Y032951D01*
X012203Y033049D02*
X012240Y033049D01*
X012301Y033148D02*
X012339Y033148D01*
X012400Y033246D02*
X012437Y033246D01*
X012498Y033345D02*
X012536Y033345D01*
X012597Y033443D02*
X012634Y033443D01*
X012695Y033542D02*
X012733Y033542D01*
X012794Y033640D02*
X012831Y033640D01*
X012892Y033739D02*
X012930Y033739D01*
X012991Y033837D02*
X013028Y033837D01*
X013089Y033936D02*
X013127Y033936D01*
X013188Y034034D02*
X013225Y034034D01*
X013286Y034133D02*
X016139Y034133D01*
X016565Y034133D02*
X019020Y034133D01*
X018976Y034210D02*
X019117Y033965D01*
X019317Y033765D01*
X019562Y033623D01*
X019836Y033550D01*
X020119Y033550D01*
X020392Y033623D01*
X020637Y033765D01*
X020838Y033965D01*
X020979Y034210D01*
X021052Y034483D01*
X021052Y034767D01*
X020979Y035040D01*
X020838Y035285D01*
X020637Y035485D01*
X020392Y035627D01*
X020119Y035700D01*
X019836Y035700D01*
X019562Y035627D01*
X019317Y035485D01*
X019117Y035285D01*
X018976Y035040D01*
X018902Y034767D01*
X018902Y034483D01*
X018976Y034210D01*
X018970Y034231D02*
X013385Y034231D01*
X013483Y034330D02*
X018944Y034330D01*
X018917Y034428D02*
X013582Y034428D01*
X013680Y034527D02*
X018902Y034527D01*
X018902Y034625D02*
X013779Y034625D01*
X013877Y034724D02*
X018902Y034724D01*
X018917Y034822D02*
X013976Y034822D01*
X014074Y034921D02*
X018944Y034921D01*
X018970Y035019D02*
X014173Y035019D01*
X014271Y035118D02*
X019021Y035118D01*
X019077Y035216D02*
X014370Y035216D01*
X014468Y035315D02*
X019147Y035315D01*
X019245Y035413D02*
X014567Y035413D01*
X014643Y035512D02*
X019363Y035512D01*
X019534Y035610D02*
X014683Y035610D01*
X014724Y035709D02*
X026472Y035709D01*
X026472Y035610D02*
X024484Y035610D01*
X024414Y035680D02*
X024027Y035680D01*
X024027Y034675D01*
X023927Y034675D01*
X023927Y034575D01*
X022922Y034575D01*
X022922Y034188D01*
X023540Y033570D01*
X023927Y033570D01*
X023927Y034575D01*
X024027Y034575D01*
X024027Y033570D01*
X024414Y033570D01*
X025032Y034188D01*
X025032Y034575D01*
X024027Y034575D01*
X024027Y034675D01*
X025032Y034675D01*
X025032Y035062D01*
X024414Y035680D01*
X024583Y035512D02*
X026472Y035512D01*
X026473Y035413D02*
X024681Y035413D01*
X024780Y035315D02*
X026500Y035315D01*
X026526Y035216D02*
X024878Y035216D01*
X024977Y035118D02*
X026553Y035118D01*
X026604Y035019D02*
X025032Y035019D01*
X025032Y034921D02*
X026661Y034921D01*
X026718Y034822D02*
X025032Y034822D01*
X025032Y034724D02*
X026813Y034724D01*
X026911Y034625D02*
X024027Y034625D01*
X024027Y034527D02*
X023927Y034527D01*
X023927Y034625D02*
X021052Y034625D01*
X021052Y034527D02*
X022922Y034527D01*
X022922Y034428D02*
X021038Y034428D01*
X021011Y034330D02*
X022922Y034330D01*
X022922Y034231D02*
X020985Y034231D01*
X020934Y034133D02*
X022978Y034133D01*
X023076Y034034D02*
X020878Y034034D01*
X020808Y033936D02*
X023175Y033936D01*
X023273Y033837D02*
X020710Y033837D01*
X020592Y033739D02*
X023372Y033739D01*
X023470Y033640D02*
X020422Y033640D01*
X019533Y033640D02*
X016688Y033640D01*
X016721Y033739D02*
X019363Y033739D01*
X019245Y033837D02*
X016721Y033837D01*
X016721Y033936D02*
X019147Y033936D01*
X019077Y034034D02*
X016664Y034034D01*
X016590Y033542D02*
X028899Y033542D01*
X028899Y033640D02*
X024485Y033640D01*
X024583Y033739D02*
X028899Y033739D01*
X028899Y033837D02*
X024682Y033837D01*
X024780Y033936D02*
X028899Y033936D01*
X028899Y034034D02*
X024879Y034034D01*
X024977Y034133D02*
X028899Y034133D01*
X028899Y034231D02*
X025032Y034231D01*
X025032Y034330D02*
X028899Y034330D01*
X028899Y034428D02*
X028230Y034428D01*
X028400Y034527D02*
X028899Y034527D01*
X028899Y034625D02*
X028538Y034625D01*
X028637Y034724D02*
X028899Y034724D01*
X028899Y034822D02*
X028732Y034822D01*
X028789Y034921D02*
X028899Y034921D01*
X028899Y035019D02*
X028846Y035019D01*
X028897Y035118D02*
X028899Y035118D01*
X028871Y036103D02*
X028899Y036103D01*
X028899Y036201D02*
X028814Y036201D01*
X028757Y036300D02*
X028899Y036300D01*
X028899Y036398D02*
X028681Y036398D01*
X028583Y036497D02*
X028899Y036497D01*
X028899Y036595D02*
X028477Y036595D01*
X028307Y036694D02*
X028899Y036694D01*
X028899Y036792D02*
X028053Y036792D01*
X027397Y036792D02*
X014767Y036792D01*
X014767Y036694D02*
X027143Y036694D01*
X026972Y036595D02*
X014767Y036595D01*
X014767Y036497D02*
X026867Y036497D01*
X026768Y036398D02*
X014767Y036398D01*
X014767Y036300D02*
X026692Y036300D01*
X026635Y036201D02*
X014767Y036201D01*
X014767Y036103D02*
X026578Y036103D01*
X026541Y036004D02*
X014767Y036004D01*
X014767Y035906D02*
X026514Y035906D01*
X026488Y035807D02*
X014765Y035807D01*
X014767Y036891D02*
X028899Y036891D01*
X028899Y036989D02*
X014767Y036989D01*
X014767Y037088D02*
X028899Y037088D01*
X028899Y037186D02*
X014767Y037186D01*
X014767Y037285D02*
X028899Y037285D01*
X028899Y037383D02*
X014767Y037383D01*
X014767Y037482D02*
X028899Y037482D01*
X028899Y037580D02*
X014767Y037580D01*
X014784Y037679D02*
X028899Y037679D01*
X028899Y037777D02*
X014784Y037777D01*
X014777Y037876D02*
X028899Y037876D01*
X028899Y037974D02*
X014749Y037974D01*
X014708Y038073D02*
X028899Y038073D01*
X028899Y038171D02*
X014667Y038171D01*
X014627Y038270D02*
X014368Y038528D01*
X014041Y038664D02*
X028899Y038664D01*
X028899Y038762D02*
X006077Y038762D01*
X006077Y038664D02*
X010699Y038664D01*
X010462Y038565D02*
X006077Y038565D01*
X006077Y038467D02*
X010311Y038467D01*
X010213Y038368D02*
X006077Y038368D01*
X006077Y038270D02*
X006384Y038270D01*
X006212Y038171D02*
X006077Y038171D01*
X006077Y038073D02*
X006114Y038073D01*
X006084Y037482D02*
X006077Y037482D01*
X006077Y037383D02*
X006155Y037383D01*
X006077Y037285D02*
X006254Y037285D01*
X006077Y037186D02*
X009974Y037186D01*
X009974Y037088D02*
X006077Y037088D01*
X006077Y036989D02*
X009974Y036989D01*
X009974Y036891D02*
X006077Y036891D01*
X006077Y036792D02*
X006924Y036792D01*
X006670Y036694D02*
X006077Y036694D01*
X006077Y036595D02*
X006500Y036595D01*
X006394Y036497D02*
X006077Y036497D01*
X006077Y036398D02*
X006296Y036398D01*
X006219Y036300D02*
X006077Y036300D01*
X006077Y036201D02*
X006163Y036201D01*
X006106Y036103D02*
X006077Y036103D01*
X006077Y035118D02*
X006080Y035118D01*
X006077Y035019D02*
X006131Y035019D01*
X006077Y034921D02*
X006188Y034921D01*
X006245Y034822D02*
X006077Y034822D01*
X006077Y034724D02*
X006340Y034724D01*
X006439Y034625D02*
X006077Y034625D01*
X006077Y034527D02*
X006577Y034527D01*
X006747Y034428D02*
X006077Y034428D01*
X006077Y034330D02*
X007854Y034330D01*
X007757Y034428D02*
X007953Y034428D01*
X007928Y034527D02*
X008051Y034527D01*
X008066Y034625D02*
X008150Y034625D01*
X008164Y034724D02*
X008248Y034724D01*
X008259Y034822D02*
X008347Y034822D01*
X008316Y034921D02*
X008445Y034921D01*
X008373Y035019D02*
X008544Y035019D01*
X008642Y035118D02*
X008424Y035118D01*
X008451Y035216D02*
X008741Y035216D01*
X008839Y035315D02*
X008477Y035315D01*
X008504Y035413D02*
X008938Y035413D01*
X009036Y035512D02*
X008505Y035512D01*
X008505Y035610D02*
X009135Y035610D01*
X009233Y035709D02*
X008505Y035709D01*
X008489Y035807D02*
X009332Y035807D01*
X009430Y035906D02*
X008463Y035906D01*
X008436Y036004D02*
X009529Y036004D01*
X009627Y036103D02*
X008399Y036103D01*
X008342Y036201D02*
X009726Y036201D01*
X009824Y036300D02*
X008285Y036300D01*
X008209Y036398D02*
X009923Y036398D01*
X009974Y036497D02*
X008110Y036497D01*
X008005Y036595D02*
X009974Y036595D01*
X009974Y036694D02*
X007834Y036694D01*
X007580Y036792D02*
X009974Y036792D01*
X009974Y037285D02*
X007660Y037285D01*
X007759Y037383D02*
X009974Y037383D01*
X009974Y037482D02*
X007830Y037482D01*
X007871Y037580D02*
X009974Y037580D01*
X009956Y037679D02*
X007895Y037679D01*
X007895Y037777D02*
X009956Y037777D01*
X009963Y037876D02*
X007888Y037876D01*
X006077Y038861D02*
X028899Y038861D01*
X028899Y038959D02*
X006077Y038959D01*
X006077Y039058D02*
X028899Y039058D01*
X027049Y034527D02*
X025032Y034527D01*
X025032Y034428D02*
X027220Y034428D01*
X028899Y033246D02*
X017377Y033246D01*
X017475Y033148D02*
X028899Y033148D01*
X028899Y033049D02*
X017571Y033049D01*
X017571Y032951D02*
X028899Y032951D01*
X028899Y032852D02*
X017571Y032852D01*
X017571Y032754D02*
X028899Y032754D01*
X028899Y032655D02*
X017478Y032655D01*
X017380Y032557D02*
X028899Y032557D01*
X028899Y032458D02*
X014525Y032458D01*
X014525Y032557D02*
X017025Y032557D01*
X016927Y032655D02*
X014525Y032655D01*
X014508Y032360D02*
X028899Y032360D01*
X028899Y032261D02*
X014409Y032261D01*
X014311Y032163D02*
X028899Y032163D01*
X028899Y032064D02*
X014143Y032064D01*
X013775Y033148D02*
X016929Y033148D01*
X017028Y033246D02*
X013677Y033246D01*
X012785Y031966D02*
X028899Y031966D01*
X028899Y031867D02*
X012686Y031867D01*
X012588Y031769D02*
X028899Y031769D01*
X028899Y031670D02*
X012489Y031670D01*
X012391Y031572D02*
X028899Y031572D01*
X028899Y031473D02*
X012292Y031473D01*
X012194Y031375D02*
X028899Y031375D01*
X028899Y031276D02*
X012095Y031276D01*
X012082Y031178D02*
X028899Y031178D01*
X028899Y031079D02*
X012082Y031079D01*
X012082Y030981D02*
X028899Y030981D01*
X028899Y030882D02*
X012082Y030882D01*
X012082Y030784D02*
X028899Y030784D01*
X028899Y030685D02*
X012082Y030685D01*
X012082Y030587D02*
X028899Y030587D01*
X028899Y030488D02*
X012082Y030488D01*
X012082Y030390D02*
X028899Y030390D01*
X028899Y030291D02*
X012082Y030291D01*
X012082Y030193D02*
X028899Y030193D01*
X028899Y030094D02*
X012082Y030094D01*
X012082Y029996D02*
X028899Y029996D01*
X028899Y029897D02*
X012082Y029897D01*
X012082Y029799D02*
X026544Y029799D01*
X026445Y029700D02*
X012082Y029700D01*
X012082Y029602D02*
X026347Y029602D01*
X026277Y029503D02*
X012082Y029503D01*
X012082Y029405D02*
X026277Y029405D01*
X026277Y029208D02*
X023015Y029208D01*
X023114Y029109D02*
X026286Y029109D01*
X026385Y029011D02*
X023212Y029011D01*
X023041Y028518D02*
X027050Y028518D01*
X027034Y028420D02*
X022312Y028420D01*
X022312Y028518D02*
X022664Y028518D01*
X022312Y028321D02*
X027034Y028321D01*
X027034Y028223D02*
X022312Y028223D01*
X022312Y028124D02*
X027108Y028124D01*
X027206Y028026D02*
X022312Y028026D01*
X022312Y027927D02*
X027564Y027927D01*
X027663Y027829D02*
X026921Y027829D01*
X026881Y027845D02*
X026674Y027845D01*
X026483Y027766D01*
X026337Y027620D01*
X026257Y027428D01*
X026257Y027222D01*
X026337Y027030D01*
X026483Y026884D01*
X026674Y026805D01*
X026881Y026805D01*
X027072Y026884D01*
X027218Y027030D01*
X027297Y027222D01*
X027297Y027428D01*
X027218Y027620D01*
X027072Y027766D01*
X026881Y027845D01*
X026634Y027829D02*
X022312Y027829D01*
X022312Y027730D02*
X026447Y027730D01*
X026349Y027632D02*
X022312Y027632D01*
X022312Y027533D02*
X026301Y027533D01*
X026260Y027435D02*
X022312Y027435D01*
X022312Y027336D02*
X026257Y027336D01*
X026257Y027238D02*
X022312Y027238D01*
X022312Y027139D02*
X026292Y027139D01*
X026332Y027041D02*
X022312Y027041D01*
X022312Y026942D02*
X026425Y026942D01*
X026581Y026844D02*
X022312Y026844D01*
X022312Y026745D02*
X028607Y026745D01*
X028607Y026647D02*
X022312Y026647D01*
X022312Y026548D02*
X028607Y026548D01*
X028607Y026450D02*
X022312Y026450D01*
X022312Y026351D02*
X028607Y026351D01*
X028607Y026253D02*
X022312Y026253D01*
X022312Y026154D02*
X028607Y026154D01*
X028607Y026056D02*
X022312Y026056D01*
X022312Y025957D02*
X028607Y025957D01*
X028607Y025859D02*
X022312Y025859D01*
X022312Y025760D02*
X028607Y025760D01*
X028607Y025662D02*
X022312Y025662D01*
X022312Y025563D02*
X028607Y025563D01*
X028607Y025465D02*
X025723Y025465D01*
X025721Y025467D02*
X025334Y025467D01*
X025061Y025193D01*
X025061Y024807D01*
X025334Y024533D01*
X025721Y024533D01*
X025994Y024807D01*
X025994Y025193D01*
X025721Y025467D01*
X025822Y025366D02*
X028607Y025366D01*
X028607Y025268D02*
X025920Y025268D01*
X025994Y025169D02*
X028607Y025169D01*
X028607Y025071D02*
X025994Y025071D01*
X025994Y024972D02*
X028607Y024972D01*
X028607Y024874D02*
X025994Y024874D01*
X025963Y024775D02*
X028607Y024775D01*
X028607Y024677D02*
X025864Y024677D01*
X025766Y024578D02*
X028607Y024578D01*
X028607Y024480D02*
X022312Y024480D01*
X022312Y024578D02*
X024289Y024578D01*
X024334Y024533D02*
X024721Y024533D01*
X024994Y024807D01*
X024994Y025193D01*
X024721Y025467D01*
X024334Y025467D01*
X024061Y025193D01*
X024061Y024807D01*
X024334Y024533D01*
X024248Y024381D02*
X022312Y024381D01*
X022312Y024283D02*
X024150Y024283D01*
X024061Y024184D02*
X022312Y024184D01*
X022312Y024086D02*
X024061Y024086D01*
X024061Y023987D02*
X022312Y023987D01*
X022312Y023889D02*
X024061Y023889D01*
X024077Y023790D02*
X022312Y023790D01*
X022312Y023692D02*
X024176Y023692D01*
X024781Y023593D02*
X025274Y023593D01*
X025176Y023692D02*
X024879Y023692D01*
X024978Y023790D02*
X025077Y023790D01*
X025061Y023889D02*
X024994Y023889D01*
X024994Y023987D02*
X025061Y023987D01*
X025061Y024086D02*
X024994Y024086D01*
X024994Y024184D02*
X025061Y024184D01*
X025150Y024283D02*
X024905Y024283D01*
X024807Y024381D02*
X025248Y024381D01*
X025289Y024578D02*
X024766Y024578D01*
X024864Y024677D02*
X025191Y024677D01*
X025092Y024775D02*
X024963Y024775D01*
X024994Y024874D02*
X025061Y024874D01*
X025061Y024972D02*
X024994Y024972D01*
X024994Y025071D02*
X025061Y025071D01*
X025061Y025169D02*
X024994Y025169D01*
X024920Y025268D02*
X025135Y025268D01*
X025233Y025366D02*
X024822Y025366D01*
X024723Y025465D02*
X025332Y025465D01*
X025807Y024381D02*
X028607Y024381D01*
X028607Y024283D02*
X025905Y024283D01*
X025994Y024184D02*
X028607Y024184D01*
X028607Y024086D02*
X025994Y024086D01*
X025994Y023987D02*
X028607Y023987D01*
X028607Y023889D02*
X025994Y023889D01*
X025978Y023790D02*
X028607Y023790D01*
X028607Y023692D02*
X025879Y023692D01*
X025748Y022411D02*
X028607Y022411D01*
X028607Y022313D02*
X025847Y022313D01*
X025945Y022214D02*
X028471Y022214D01*
X028899Y020441D02*
X025747Y020441D01*
X025845Y020343D02*
X028899Y020343D01*
X028899Y020244D02*
X025944Y020244D01*
X025994Y020146D02*
X028899Y020146D01*
X028899Y020047D02*
X025994Y020047D01*
X025994Y019949D02*
X028899Y019949D01*
X028899Y019850D02*
X025994Y019850D01*
X025939Y019752D02*
X028899Y019752D01*
X028899Y019653D02*
X025841Y019653D01*
X025742Y019555D02*
X028899Y019555D01*
X028899Y019456D02*
X025732Y019456D01*
X025830Y019358D02*
X028899Y019358D01*
X028899Y019259D02*
X025929Y019259D01*
X025994Y019161D02*
X028899Y019161D01*
X028899Y019062D02*
X025994Y019062D01*
X025994Y018964D02*
X028899Y018964D01*
X028899Y018865D02*
X025994Y018865D01*
X025954Y018767D02*
X028899Y018767D01*
X028899Y018668D02*
X025856Y018668D01*
X025757Y018570D02*
X028899Y018570D01*
X025293Y021426D02*
X024733Y021426D01*
X024832Y021328D02*
X025195Y021328D01*
X025096Y021229D02*
X024930Y021229D01*
X024974Y021131D02*
X025061Y021131D01*
X024576Y021131D02*
X024479Y021131D01*
X024479Y021048D02*
X024479Y021447D01*
X024342Y021447D01*
X024081Y021185D01*
X024081Y021048D01*
X024479Y021048D01*
X024479Y020934D02*
X024576Y020934D01*
X024576Y020835D02*
X024479Y020835D01*
X024479Y020737D02*
X024576Y020737D01*
X024576Y020638D02*
X024479Y020638D01*
X024308Y020441D02*
X022312Y020441D01*
X022312Y020343D02*
X024210Y020343D01*
X024111Y020244D02*
X022312Y020244D01*
X022312Y020146D02*
X023948Y020146D01*
X024081Y021131D02*
X022312Y021131D01*
X022312Y021229D02*
X024125Y021229D01*
X024223Y021328D02*
X022312Y021328D01*
X022312Y021426D02*
X024322Y021426D01*
X024479Y021426D02*
X024576Y021426D01*
X024576Y021328D02*
X024479Y021328D01*
X024479Y021229D02*
X024576Y021229D01*
X024576Y021623D02*
X024479Y021623D01*
X024479Y021722D02*
X024576Y021722D01*
X024576Y021820D02*
X024479Y021820D01*
X024479Y021919D02*
X024576Y021919D01*
X024081Y022116D02*
X022312Y022116D01*
X022312Y022214D02*
X024110Y022214D01*
X024208Y022313D02*
X022312Y022313D01*
X022312Y022411D02*
X024307Y022411D01*
X024191Y024677D02*
X022312Y024677D01*
X022312Y024775D02*
X024092Y024775D01*
X024061Y024874D02*
X022312Y024874D01*
X022312Y024972D02*
X024061Y024972D01*
X024061Y025071D02*
X022312Y025071D01*
X022312Y025169D02*
X024061Y025169D01*
X024135Y025268D02*
X022312Y025268D01*
X022312Y025366D02*
X024233Y025366D01*
X024332Y025465D02*
X022312Y025465D01*
X026727Y029405D02*
X026827Y029405D01*
X026827Y029503D02*
X026727Y029503D01*
X026727Y029602D02*
X026827Y029602D01*
X026827Y029700D02*
X026727Y029700D01*
X026727Y029799D02*
X026827Y029799D01*
X027011Y029799D02*
X028899Y029799D01*
X028899Y029700D02*
X027109Y029700D01*
X027208Y029602D02*
X028899Y029602D01*
X028899Y029503D02*
X027277Y029503D01*
X027277Y029405D02*
X028899Y029405D01*
X028899Y029306D02*
X026827Y029306D01*
X027170Y029011D02*
X028899Y029011D01*
X028899Y029109D02*
X027269Y029109D01*
X027277Y029208D02*
X028899Y029208D01*
X028899Y028715D02*
X027558Y028715D01*
X027656Y028617D02*
X028899Y028617D01*
X028899Y028518D02*
X027755Y028518D01*
X027771Y028420D02*
X028899Y028420D01*
X028899Y028321D02*
X027792Y028321D01*
X027891Y028223D02*
X028899Y028223D01*
X028899Y028124D02*
X027989Y028124D01*
X028088Y028026D02*
X028899Y028026D01*
X028899Y027927D02*
X028186Y027927D01*
X028285Y027829D02*
X028899Y027829D01*
X028899Y027730D02*
X028383Y027730D01*
X028482Y027632D02*
X028899Y027632D01*
X028899Y027533D02*
X028580Y027533D01*
X028679Y027435D02*
X028899Y027435D01*
X028899Y027336D02*
X028777Y027336D01*
X028876Y027238D02*
X028899Y027238D01*
X028549Y026942D02*
X027130Y026942D01*
X027222Y027041D02*
X028451Y027041D01*
X028352Y027139D02*
X027263Y027139D01*
X027297Y027238D02*
X028254Y027238D01*
X028155Y027336D02*
X027297Y027336D01*
X027295Y027435D02*
X028057Y027435D01*
X027958Y027533D02*
X027254Y027533D01*
X027206Y027632D02*
X027860Y027632D01*
X027761Y027730D02*
X027108Y027730D01*
X026974Y026844D02*
X028607Y026844D01*
X024027Y033640D02*
X023927Y033640D01*
X023927Y033739D02*
X024027Y033739D01*
X024027Y033837D02*
X023927Y033837D01*
X023927Y033936D02*
X024027Y033936D01*
X024027Y034034D02*
X023927Y034034D01*
X023927Y034133D02*
X024027Y034133D01*
X024027Y034231D02*
X023927Y034231D01*
X023927Y034330D02*
X024027Y034330D01*
X024027Y034428D02*
X023927Y034428D01*
X023927Y034675D02*
X022922Y034675D01*
X022922Y035062D01*
X023540Y035680D01*
X023927Y035680D01*
X023927Y034675D01*
X023927Y034724D02*
X024027Y034724D01*
X024027Y034822D02*
X023927Y034822D01*
X023927Y034921D02*
X024027Y034921D01*
X024027Y035019D02*
X023927Y035019D01*
X023927Y035118D02*
X024027Y035118D01*
X024027Y035216D02*
X023927Y035216D01*
X023927Y035315D02*
X024027Y035315D01*
X024027Y035413D02*
X023927Y035413D01*
X023927Y035512D02*
X024027Y035512D01*
X024027Y035610D02*
X023927Y035610D01*
X023471Y035610D02*
X020421Y035610D01*
X020592Y035512D02*
X023372Y035512D01*
X023274Y035413D02*
X020710Y035413D01*
X020808Y035315D02*
X023175Y035315D01*
X023077Y035216D02*
X020877Y035216D01*
X020934Y035118D02*
X022978Y035118D01*
X022922Y035019D02*
X020985Y035019D01*
X021011Y034921D02*
X022922Y034921D01*
X022922Y034822D02*
X021038Y034822D01*
X021052Y034724D02*
X022922Y034724D01*
X015422Y026351D02*
X012082Y026351D01*
X012082Y026253D02*
X015422Y026253D01*
X015422Y026154D02*
X012082Y026154D01*
X012082Y026056D02*
X015422Y026056D01*
X015422Y025957D02*
X012082Y025957D01*
X012082Y025859D02*
X015422Y025859D01*
X015422Y025760D02*
X012082Y025760D01*
X012082Y025662D02*
X015422Y025662D01*
X015422Y025563D02*
X012082Y025563D01*
X012082Y025465D02*
X015422Y025465D01*
X015422Y025366D02*
X012082Y025366D01*
X012082Y025268D02*
X015422Y025268D01*
X015422Y025169D02*
X012082Y025169D01*
X012082Y025071D02*
X015422Y025071D01*
X015422Y024972D02*
X012082Y024972D01*
X012082Y024874D02*
X015422Y024874D01*
X015422Y024775D02*
X012082Y024775D01*
X012082Y024677D02*
X015422Y024677D01*
X015422Y024578D02*
X012082Y024578D01*
X012082Y024480D02*
X015422Y024480D01*
X015422Y024381D02*
X012081Y024381D01*
X012040Y024283D02*
X015422Y024283D01*
X015422Y024184D02*
X011953Y024184D01*
X011855Y024086D02*
X015422Y024086D01*
X015422Y023987D02*
X011756Y023987D01*
X011658Y023889D02*
X015422Y023889D01*
X015422Y023790D02*
X011559Y023790D01*
X011461Y023692D02*
X015422Y023692D01*
X015422Y023593D02*
X011362Y023593D01*
X011264Y023495D02*
X015422Y023495D01*
X015422Y023396D02*
X011165Y023396D01*
X011067Y023298D02*
X015422Y023298D01*
X015422Y023199D02*
X010968Y023199D01*
X010870Y023101D02*
X015422Y023101D01*
X015422Y023002D02*
X010771Y023002D01*
X010673Y022904D02*
X015422Y022904D01*
X015422Y022805D02*
X010574Y022805D01*
X010476Y022707D02*
X015422Y022707D01*
X015422Y022608D02*
X010377Y022608D01*
X010279Y022510D02*
X015422Y022510D01*
X015422Y022411D02*
X010180Y022411D01*
X010082Y022313D02*
X015422Y022313D01*
X015422Y022214D02*
X009983Y022214D01*
X009885Y022116D02*
X015422Y022116D01*
X015422Y022017D02*
X009786Y022017D01*
X009688Y021919D02*
X015422Y021919D01*
X015422Y021820D02*
X009589Y021820D01*
X009638Y021722D02*
X015422Y021722D01*
X015422Y021623D02*
X009652Y021623D01*
X009652Y021426D02*
X015422Y021426D01*
X015422Y021525D02*
X009479Y021525D01*
X009652Y021328D02*
X015330Y021328D01*
X015231Y021229D02*
X009589Y021229D01*
X009490Y021131D02*
X015133Y021131D01*
X014839Y021032D02*
X009392Y021032D01*
X008767Y019850D02*
X006536Y019850D01*
X006368Y019850D02*
X006077Y019850D01*
X006077Y019752D02*
X008694Y019752D01*
X009079Y017094D02*
X009079Y016306D01*
X009276Y016306D02*
X009276Y017094D01*
X008077Y016700D02*
X008079Y016766D01*
X008085Y016831D01*
X008095Y016896D01*
X008108Y016961D01*
X008126Y017024D01*
X008147Y017087D01*
X008172Y017147D01*
X008201Y017207D01*
X008233Y017264D01*
X008268Y017320D01*
X008307Y017373D01*
X008349Y017424D01*
X008393Y017472D01*
X008441Y017517D01*
X008491Y017560D01*
X008544Y017599D01*
X008599Y017636D01*
X008656Y017669D01*
X008715Y017698D01*
X008775Y017724D01*
X008837Y017746D01*
X008900Y017765D01*
X008964Y017779D01*
X009029Y017790D01*
X009095Y017797D01*
X009161Y017800D01*
X009226Y017799D01*
X009292Y017794D01*
X009357Y017785D01*
X009422Y017772D01*
X009485Y017756D01*
X009548Y017736D01*
X009609Y017711D01*
X009669Y017684D01*
X009727Y017653D01*
X009783Y017618D01*
X009837Y017580D01*
X009888Y017539D01*
X009937Y017495D01*
X009983Y017448D01*
X010027Y017399D01*
X010067Y017347D01*
X010104Y017292D01*
X010138Y017236D01*
X010168Y017177D01*
X010195Y017117D01*
X010218Y017056D01*
X010237Y016993D01*
X010253Y016929D01*
X010265Y016864D01*
X010273Y016799D01*
X010277Y016733D01*
X010277Y016667D01*
X010273Y016601D01*
X010265Y016536D01*
X010253Y016471D01*
X010237Y016407D01*
X010218Y016344D01*
X010195Y016283D01*
X010168Y016223D01*
X010138Y016164D01*
X010104Y016108D01*
X010067Y016053D01*
X010027Y016001D01*
X009983Y015952D01*
X009937Y015905D01*
X009888Y015861D01*
X009837Y015820D01*
X009783Y015782D01*
X009727Y015747D01*
X009669Y015716D01*
X009609Y015689D01*
X009548Y015664D01*
X009485Y015644D01*
X009422Y015628D01*
X009357Y015615D01*
X009292Y015606D01*
X009226Y015601D01*
X009161Y015600D01*
X009095Y015603D01*
X009029Y015610D01*
X008964Y015621D01*
X008900Y015635D01*
X008837Y015654D01*
X008775Y015676D01*
X008715Y015702D01*
X008656Y015731D01*
X008599Y015764D01*
X008544Y015801D01*
X008491Y015840D01*
X008441Y015883D01*
X008393Y015928D01*
X008349Y015976D01*
X008307Y016027D01*
X008268Y016080D01*
X008233Y016136D01*
X008201Y016193D01*
X008172Y016253D01*
X008147Y016313D01*
X008126Y016376D01*
X008108Y016439D01*
X008095Y016504D01*
X008085Y016569D01*
X008079Y016634D01*
X008077Y016700D01*
X008307Y015713D02*
X006077Y015713D01*
X006077Y015615D02*
X006358Y015615D01*
X006371Y015628D02*
X006257Y015514D01*
X006257Y015130D01*
X006221Y015094D01*
X006107Y014980D01*
X006107Y014818D01*
X006181Y014744D01*
X006107Y014670D01*
X006107Y014283D01*
X006182Y014208D01*
X006219Y014171D01*
X006107Y014059D01*
X006107Y013898D01*
X006181Y013823D01*
X006107Y013749D01*
X006107Y013587D01*
X006371Y013323D01*
X006683Y013323D01*
X006797Y013437D01*
X006947Y013587D01*
X006947Y014209D01*
X006911Y014246D01*
X006947Y014283D01*
X006947Y015130D01*
X006836Y015241D01*
X006947Y015352D01*
X006947Y015514D01*
X006833Y015628D01*
X006371Y015628D01*
X006259Y015516D02*
X006077Y015516D01*
X006077Y015418D02*
X006257Y015418D01*
X006257Y015319D02*
X006077Y015319D01*
X006077Y015221D02*
X006257Y015221D01*
X006249Y015122D02*
X006077Y015122D01*
X006077Y015024D02*
X006151Y015024D01*
X006107Y014925D02*
X006077Y014925D01*
X006077Y014827D02*
X006107Y014827D01*
X006077Y014728D02*
X006165Y014728D01*
X006107Y014630D02*
X006077Y014630D01*
X006077Y014531D02*
X006107Y014531D01*
X006107Y014433D02*
X006077Y014433D01*
X006077Y014334D02*
X006107Y014334D01*
X006077Y014236D02*
X006155Y014236D01*
X006185Y014137D02*
X006077Y014137D01*
X006077Y014039D02*
X006107Y014039D01*
X006107Y013940D02*
X006077Y013940D01*
X006077Y013842D02*
X006163Y013842D01*
X006107Y013743D02*
X006077Y013743D01*
X006077Y013645D02*
X006107Y013645D01*
X006077Y013546D02*
X006148Y013546D01*
X006077Y013448D02*
X006247Y013448D01*
X006345Y013349D02*
X006077Y013349D01*
X006077Y013251D02*
X009077Y013251D01*
X008978Y013349D02*
X006709Y013349D01*
X006808Y013448D02*
X008880Y013448D01*
X008781Y013546D02*
X006906Y013546D01*
X006947Y013645D02*
X008683Y013645D01*
X008584Y013743D02*
X006947Y013743D01*
X006947Y013842D02*
X008486Y013842D01*
X008387Y013940D02*
X006947Y013940D01*
X006947Y014039D02*
X008289Y014039D01*
X008190Y014137D02*
X006947Y014137D01*
X006921Y014236D02*
X008092Y014236D01*
X007993Y014334D02*
X006947Y014334D01*
X006947Y014433D02*
X007895Y014433D01*
X007796Y014531D02*
X006947Y014531D01*
X006947Y014630D02*
X007698Y014630D01*
X007404Y014728D02*
X006947Y014728D01*
X006947Y014827D02*
X007305Y014827D01*
X007209Y014925D02*
X006947Y014925D01*
X006947Y015024D02*
X007209Y015024D01*
X007209Y015122D02*
X006947Y015122D01*
X006857Y015221D02*
X007209Y015221D01*
X007301Y015319D02*
X006914Y015319D01*
X006947Y015418D02*
X007399Y015418D01*
X007755Y015418D02*
X008938Y015418D01*
X008647Y015491D02*
X008647Y015491D01*
X008609Y015516D02*
X006945Y015516D01*
X006847Y015615D02*
X008458Y015615D01*
X008764Y016621D02*
X009591Y016621D01*
X009591Y016779D02*
X008764Y016779D01*
X009235Y013743D02*
X009625Y013743D01*
X009526Y013645D02*
X009333Y013645D01*
X009175Y013152D02*
X006077Y013152D01*
X006077Y013054D02*
X009578Y013054D01*
X006470Y015910D02*
X006448Y015910D01*
X006270Y019949D02*
X006077Y019949D01*
X006077Y020047D02*
X006257Y020047D01*
X006257Y020146D02*
X006077Y020146D01*
X006077Y020244D02*
X006257Y020244D01*
X006257Y020343D02*
X006077Y020343D01*
X006077Y020441D02*
X006257Y020441D01*
X006257Y020540D02*
X006077Y020540D01*
X006077Y020638D02*
X006257Y020638D01*
X006260Y020737D02*
X006077Y020737D01*
X006077Y020835D02*
X006226Y020835D01*
X006182Y020934D02*
X006077Y020934D01*
X006077Y021032D02*
X006182Y021032D01*
X006272Y021131D02*
X006077Y021131D01*
X006077Y021229D02*
X006257Y021229D01*
X006257Y021328D02*
X006077Y021328D01*
X006077Y021426D02*
X006257Y021426D01*
X006281Y021525D02*
X006077Y021525D01*
X006077Y021623D02*
X006130Y021623D01*
X006107Y021722D02*
X006077Y021722D01*
X006077Y021820D02*
X006107Y021820D01*
X006077Y021919D02*
X006143Y021919D01*
X006077Y022017D02*
X006257Y022017D01*
X006323Y022116D02*
X006077Y022116D01*
X006077Y022214D02*
X006257Y022214D01*
X006257Y022313D02*
X006077Y022313D01*
X006077Y022411D02*
X006257Y022411D01*
X006257Y022510D02*
X006077Y022510D01*
X006077Y022608D02*
X006257Y022608D01*
X006257Y022707D02*
X006077Y022707D01*
X006077Y022805D02*
X006329Y022805D01*
X006257Y022904D02*
X006077Y022904D01*
X006077Y023002D02*
X006257Y023002D01*
X006257Y023101D02*
X006077Y023101D01*
X006077Y023199D02*
X006268Y023199D01*
X006257Y023298D02*
X006077Y023298D01*
X006077Y023396D02*
X006257Y023396D01*
X006257Y023495D02*
X006077Y023495D01*
X006077Y023593D02*
X006257Y023593D01*
X006301Y023692D02*
X006077Y023692D01*
X006077Y023790D02*
X006332Y023790D01*
X006332Y023889D02*
X006077Y023889D01*
X006077Y023987D02*
X006332Y023987D01*
X006332Y024086D02*
X006077Y024086D01*
X006077Y024184D02*
X006257Y024184D01*
X006257Y024283D02*
X006077Y024283D01*
X006077Y024381D02*
X006257Y024381D01*
X006257Y024480D02*
X006077Y024480D01*
X006077Y024578D02*
X006257Y024578D01*
X006257Y024677D02*
X006077Y024677D01*
X006077Y024775D02*
X006257Y024775D01*
X006257Y024874D02*
X006077Y024874D01*
X006077Y024972D02*
X006277Y024972D01*
X006257Y025071D02*
X006077Y025071D01*
X006077Y025169D02*
X006257Y025169D01*
X006257Y025268D02*
X006077Y025268D01*
X006077Y025366D02*
X006257Y025366D01*
X006309Y025465D02*
X006077Y025465D01*
X006077Y025563D02*
X011422Y025563D01*
X011422Y025859D02*
X006860Y025859D01*
X006947Y025957D02*
X011422Y025957D01*
X011422Y026056D02*
X006947Y026056D01*
X006947Y026154D02*
X011422Y026154D01*
X011422Y026253D02*
X006947Y026253D01*
X006854Y026351D02*
X011422Y026351D01*
X011422Y026450D02*
X006797Y026450D01*
X006864Y026548D02*
X011422Y026548D01*
X011422Y026647D02*
X006947Y026647D01*
X006947Y026745D02*
X011422Y026745D01*
X011422Y026844D02*
X006947Y026844D01*
X006947Y026942D02*
X011422Y026942D01*
X011422Y027041D02*
X006896Y027041D01*
X006947Y027139D02*
X011422Y027139D01*
X011422Y027238D02*
X006947Y027238D01*
X006947Y027336D02*
X011422Y027336D01*
X011422Y027435D02*
X006947Y027435D01*
X006947Y027533D02*
X011422Y027533D01*
X011422Y027632D02*
X006947Y027632D01*
X006856Y027730D02*
X011422Y027730D01*
X013227Y027475D02*
X013827Y026875D01*
X013977Y026875D01*
X013819Y027238D02*
X013776Y027238D01*
X009699Y033148D02*
X009274Y033148D01*
X009373Y033246D02*
X009797Y033246D01*
X009896Y033345D02*
X009471Y033345D01*
X009570Y033443D02*
X009994Y033443D01*
X010093Y033542D02*
X009668Y033542D01*
X009767Y033640D02*
X010191Y033640D01*
X010290Y033739D02*
X009865Y033739D01*
X009964Y033837D02*
X010388Y033837D01*
X010487Y033936D02*
X010062Y033936D01*
X010161Y034034D02*
X010585Y034034D01*
X010684Y034133D02*
X010259Y034133D01*
X010358Y034231D02*
X010782Y034231D01*
X010881Y034330D02*
X010456Y034330D01*
X010555Y034428D02*
X010979Y034428D01*
X011078Y034527D02*
X010653Y034527D01*
X010752Y034625D02*
X011176Y034625D01*
X011275Y034724D02*
X010850Y034724D01*
X010949Y034822D02*
X011373Y034822D01*
X011472Y034921D02*
X011047Y034921D01*
X011146Y035019D02*
X011570Y035019D01*
X011669Y035118D02*
X011244Y035118D01*
X011343Y035216D02*
X011767Y035216D01*
X011866Y035315D02*
X011441Y035315D01*
X011540Y035413D02*
X011964Y035413D01*
X012063Y035512D02*
X011638Y035512D01*
X011700Y035610D02*
X012161Y035610D01*
X012260Y035709D02*
X011741Y035709D01*
X011782Y035807D02*
X012358Y035807D01*
X012457Y035906D02*
X011814Y035906D01*
X011814Y036004D02*
X012555Y036004D01*
X012654Y036103D02*
X011814Y036103D01*
X011814Y036201D02*
X012752Y036201D01*
X012851Y036300D02*
X011814Y036300D01*
X011814Y036398D02*
X012927Y036398D01*
X012927Y036497D02*
X011814Y036497D01*
X011814Y036595D02*
X012927Y036595D01*
X012927Y036694D02*
X011814Y036694D01*
X011814Y036792D02*
X012927Y036792D01*
X012927Y036891D02*
X011814Y036891D01*
X011814Y036989D02*
X012927Y036989D01*
X012927Y037088D02*
X011814Y037088D01*
X011814Y037186D02*
X012927Y037186D01*
X012927Y037285D02*
X011814Y037285D01*
X011814Y037383D02*
X012927Y037383D01*
X012927Y037482D02*
X011814Y037482D01*
X011814Y037580D02*
X012927Y037580D01*
X012909Y037679D02*
X011832Y037679D01*
X011832Y037777D02*
X012909Y037777D01*
X012916Y037876D02*
X011825Y037876D01*
X011575Y038368D02*
X013165Y038368D01*
X013067Y038270D02*
X012927Y037931D01*
X013264Y038467D02*
X011477Y038467D01*
X011326Y038565D02*
X013414Y038565D01*
X013652Y038664D02*
X011089Y038664D01*
X010114Y038270D02*
X009974Y037931D01*
X007756Y034231D02*
X006077Y034231D01*
X006077Y034133D02*
X007657Y034133D01*
X007559Y034034D02*
X006077Y034034D01*
X006077Y033936D02*
X007460Y033936D01*
X007362Y033837D02*
X006077Y033837D01*
X006077Y033739D02*
X007263Y033739D01*
X007165Y033640D02*
X006077Y033640D01*
X006077Y033542D02*
X007066Y033542D01*
X006897Y033443D02*
X006077Y033443D01*
X006077Y033345D02*
X006723Y033345D01*
X006624Y033246D02*
X006077Y033246D01*
X006077Y033148D02*
X006557Y033148D01*
X006516Y033049D02*
X006077Y033049D01*
X006077Y032951D02*
X006477Y032951D01*
X006477Y032852D02*
X006077Y032852D01*
X006077Y032754D02*
X006477Y032754D01*
X006491Y032655D02*
X006077Y032655D01*
X006077Y032557D02*
X006532Y032557D01*
X006572Y032458D02*
X006077Y032458D01*
X006077Y032360D02*
X006661Y032360D01*
X006760Y032261D02*
X006077Y032261D01*
X006077Y032163D02*
X006987Y032163D01*
X007103Y032064D02*
X006077Y032064D01*
X006077Y031966D02*
X007309Y031966D01*
X007454Y031769D02*
X006077Y031769D01*
X006077Y031867D02*
X008418Y031867D01*
X008517Y031966D02*
X007985Y031966D01*
X008191Y032064D02*
X008615Y032064D01*
X008714Y032163D02*
X008307Y032163D01*
X008534Y032261D02*
X008812Y032261D01*
X008911Y032360D02*
X008633Y032360D01*
X008722Y032458D02*
X009009Y032458D01*
X009108Y032557D02*
X008763Y032557D01*
X008803Y032655D02*
X009206Y032655D01*
X009305Y032754D02*
X008880Y032754D01*
X008979Y032852D02*
X009403Y032852D01*
X009502Y032951D02*
X009077Y032951D01*
X009176Y033049D02*
X009600Y033049D01*
X007216Y031670D02*
X006077Y031670D01*
X006077Y031572D02*
X007065Y031572D01*
X006893Y031473D02*
X006077Y031473D01*
X006077Y031375D02*
X006721Y031375D01*
X006623Y031276D02*
X006077Y031276D01*
X006077Y031178D02*
X006556Y031178D01*
X006516Y031079D02*
X006077Y031079D01*
X006077Y030981D02*
X006477Y030981D01*
X006477Y030882D02*
X006077Y030882D01*
X006077Y030784D02*
X006477Y030784D01*
X006491Y030685D02*
X006077Y030685D01*
X006077Y030587D02*
X006532Y030587D01*
X006573Y030488D02*
X006077Y030488D01*
X006077Y030390D02*
X006663Y030390D01*
X006761Y030291D02*
X006077Y030291D01*
X006077Y030193D02*
X006991Y030193D01*
X007105Y030094D02*
X006077Y030094D01*
X006077Y029996D02*
X007313Y029996D01*
X006947Y028617D02*
X008823Y028617D01*
X008725Y028518D02*
X006947Y028518D01*
X006947Y028420D02*
X008634Y028420D01*
X008634Y028321D02*
X006947Y028321D01*
X006947Y028223D02*
X008634Y028223D01*
X008634Y028124D02*
X006898Y028124D01*
X006607Y028124D02*
X006523Y028124D01*
X006077Y027927D02*
X008830Y027927D01*
X006518Y025760D02*
X006461Y025760D01*
X015488Y020835D02*
X015667Y020835D01*
X015667Y020737D02*
X015446Y020737D01*
X015446Y020638D02*
X015667Y020638D01*
X015667Y020540D02*
X015388Y020540D01*
X015289Y020441D02*
X015667Y020441D01*
X015667Y020934D02*
X015586Y020934D01*
X023557Y018865D02*
X023926Y018865D01*
X023827Y018767D02*
X023557Y018767D01*
X023557Y018668D02*
X023729Y018668D01*
X023630Y018570D02*
X023557Y018570D01*
X024132Y017683D02*
X024184Y017683D01*
X024132Y017585D02*
X024283Y017585D01*
D14*
X009594Y016735D02*
X009597Y016825D01*
X009597Y016824D02*
X009630Y016826D01*
X009662Y016831D01*
X009694Y016840D01*
X009725Y016853D01*
X009753Y016870D01*
X009780Y016890D01*
X009804Y016912D01*
X009825Y016938D01*
X009843Y016966D01*
X009858Y016995D01*
X009869Y017026D01*
X009876Y017059D01*
X009880Y017092D01*
X009879Y017125D01*
X009875Y017158D01*
X009867Y017190D01*
X009854Y017221D01*
X009839Y017250D01*
X009820Y017277D01*
X009798Y017302D01*
X009773Y017324D01*
X009746Y017343D01*
X009717Y017358D01*
X009686Y017371D01*
X009654Y017379D01*
X009621Y017383D01*
X009588Y017384D01*
X009555Y017380D01*
X009522Y017373D01*
X009491Y017362D01*
X009462Y017347D01*
X009434Y017329D01*
X009408Y017308D01*
X009386Y017284D01*
X009366Y017257D01*
X009349Y017229D01*
X009336Y017198D01*
X009327Y017166D01*
X009322Y017134D01*
X009320Y017101D01*
X009231Y017098D01*
X009230Y017098D01*
X009231Y017135D01*
X009236Y017172D01*
X009245Y017208D01*
X009257Y017244D01*
X009273Y017278D01*
X009292Y017310D01*
X009315Y017340D01*
X009340Y017367D01*
X009368Y017392D01*
X009398Y017414D01*
X009430Y017433D01*
X009464Y017448D01*
X009500Y017460D01*
X009536Y017468D01*
X009573Y017473D01*
X009610Y017474D01*
X009648Y017471D01*
X009684Y017464D01*
X009720Y017454D01*
X009755Y017440D01*
X009788Y017423D01*
X009819Y017402D01*
X009848Y017378D01*
X009874Y017352D01*
X009898Y017323D01*
X009919Y017292D01*
X009936Y017259D01*
X009950Y017224D01*
X009960Y017188D01*
X009967Y017152D01*
X009970Y017114D01*
X009969Y017077D01*
X009964Y017040D01*
X009956Y017004D01*
X009944Y016968D01*
X009929Y016934D01*
X009910Y016902D01*
X009888Y016872D01*
X009863Y016844D01*
X009836Y016819D01*
X009806Y016796D01*
X009774Y016777D01*
X009740Y016761D01*
X009704Y016749D01*
X009668Y016740D01*
X009631Y016735D01*
X009594Y016734D01*
X009594Y016743D01*
X009631Y016744D01*
X009668Y016749D01*
X009704Y016758D01*
X009739Y016771D01*
X009773Y016787D01*
X009805Y016807D01*
X009834Y016829D01*
X009861Y016855D01*
X009885Y016883D01*
X009907Y016914D01*
X009925Y016946D01*
X009939Y016980D01*
X009950Y017016D01*
X009957Y017053D01*
X009961Y017090D01*
X009960Y017127D01*
X009956Y017164D01*
X009948Y017200D01*
X009936Y017235D01*
X009921Y017269D01*
X009902Y017302D01*
X009880Y017332D01*
X009855Y017359D01*
X009828Y017384D01*
X009798Y017406D01*
X009765Y017425D01*
X009731Y017440D01*
X009696Y017452D01*
X009660Y017460D01*
X009623Y017464D01*
X009586Y017465D01*
X009549Y017461D01*
X009512Y017454D01*
X009476Y017443D01*
X009442Y017429D01*
X009410Y017411D01*
X009379Y017389D01*
X009351Y017365D01*
X009325Y017338D01*
X009303Y017309D01*
X009283Y017277D01*
X009267Y017243D01*
X009254Y017208D01*
X009245Y017172D01*
X009240Y017135D01*
X009239Y017098D01*
X009248Y017098D01*
X009249Y017135D01*
X009255Y017172D01*
X009264Y017208D01*
X009277Y017243D01*
X009293Y017276D01*
X009313Y017308D01*
X009336Y017337D01*
X009362Y017363D01*
X009390Y017387D01*
X009421Y017407D01*
X009454Y017424D01*
X009489Y017438D01*
X009524Y017448D01*
X009561Y017454D01*
X009598Y017456D01*
X009635Y017454D01*
X009672Y017449D01*
X009708Y017439D01*
X009742Y017426D01*
X009775Y017409D01*
X009807Y017389D01*
X009835Y017366D01*
X009862Y017339D01*
X009885Y017311D01*
X009905Y017279D01*
X009922Y017246D01*
X009935Y017212D01*
X009945Y017176D01*
X009950Y017139D01*
X009952Y017102D01*
X009950Y017065D01*
X009944Y017028D01*
X009934Y016993D01*
X009920Y016958D01*
X009903Y016925D01*
X009883Y016894D01*
X009859Y016866D01*
X009833Y016840D01*
X009804Y016817D01*
X009772Y016797D01*
X009739Y016781D01*
X009704Y016768D01*
X009668Y016759D01*
X009631Y016753D01*
X009594Y016752D01*
X009595Y016761D01*
X009631Y016762D01*
X009667Y016768D01*
X009702Y016776D01*
X009735Y016789D01*
X009768Y016805D01*
X009798Y016824D01*
X009827Y016847D01*
X009853Y016872D01*
X009876Y016900D01*
X009896Y016930D01*
X009912Y016962D01*
X009925Y016996D01*
X009935Y017030D01*
X009941Y017066D01*
X009943Y017102D01*
X009941Y017138D01*
X009936Y017174D01*
X009927Y017209D01*
X009914Y017243D01*
X009897Y017275D01*
X009878Y017305D01*
X009855Y017333D01*
X009829Y017359D01*
X009801Y017382D01*
X009771Y017401D01*
X009739Y017418D01*
X009705Y017431D01*
X009670Y017440D01*
X009634Y017445D01*
X009598Y017447D01*
X009562Y017445D01*
X009526Y017439D01*
X009492Y017429D01*
X009458Y017416D01*
X009426Y017400D01*
X009396Y017380D01*
X009368Y017357D01*
X009343Y017331D01*
X009320Y017302D01*
X009301Y017272D01*
X009285Y017239D01*
X009272Y017206D01*
X009264Y017171D01*
X009258Y017135D01*
X009257Y017099D01*
X009266Y017099D01*
X009267Y017135D01*
X009273Y017170D01*
X009282Y017205D01*
X009294Y017239D01*
X009311Y017271D01*
X009330Y017301D01*
X009353Y017329D01*
X009379Y017354D01*
X009407Y017377D01*
X009437Y017396D01*
X009470Y017412D01*
X009504Y017424D01*
X009539Y017432D01*
X009574Y017437D01*
X009610Y017438D01*
X009646Y017435D01*
X009681Y017428D01*
X009716Y017417D01*
X009749Y017403D01*
X009780Y017385D01*
X009809Y017364D01*
X009836Y017340D01*
X009860Y017313D01*
X009881Y017284D01*
X009899Y017253D01*
X009913Y017220D01*
X009924Y017185D01*
X009931Y017150D01*
X009934Y017114D01*
X009933Y017078D01*
X009928Y017043D01*
X009920Y017008D01*
X009908Y016974D01*
X009892Y016941D01*
X009873Y016911D01*
X009850Y016883D01*
X009825Y016857D01*
X009797Y016834D01*
X009767Y016815D01*
X009735Y016798D01*
X009701Y016786D01*
X009666Y016777D01*
X009631Y016771D01*
X009595Y016770D01*
X009595Y016779D01*
X009630Y016780D01*
X009665Y016786D01*
X009699Y016794D01*
X009731Y016807D01*
X009763Y016823D01*
X009792Y016842D01*
X009819Y016864D01*
X009844Y016889D01*
X009865Y016916D01*
X009884Y016946D01*
X009899Y016977D01*
X009911Y017010D01*
X009919Y017044D01*
X009924Y017079D01*
X009925Y017114D01*
X009922Y017149D01*
X009915Y017183D01*
X009905Y017217D01*
X009891Y017249D01*
X009874Y017279D01*
X009853Y017308D01*
X009830Y017334D01*
X009804Y017357D01*
X009775Y017378D01*
X009745Y017395D01*
X009713Y017409D01*
X009679Y017419D01*
X009645Y017426D01*
X009610Y017429D01*
X009575Y017428D01*
X009540Y017423D01*
X009506Y017415D01*
X009473Y017403D01*
X009442Y017388D01*
X009412Y017369D01*
X009385Y017348D01*
X009360Y017323D01*
X009338Y017296D01*
X009319Y017267D01*
X009303Y017235D01*
X009290Y017203D01*
X009282Y017169D01*
X009276Y017134D01*
X009275Y017099D01*
X009284Y017099D01*
X009285Y017134D01*
X009291Y017169D01*
X009300Y017202D01*
X009312Y017235D01*
X009328Y017266D01*
X009348Y017295D01*
X009370Y017321D01*
X009396Y017345D01*
X009423Y017366D01*
X009453Y017384D01*
X009485Y017398D01*
X009518Y017409D01*
X009552Y017416D01*
X009587Y017420D01*
X009622Y017419D01*
X009656Y017415D01*
X009690Y017407D01*
X009723Y017395D01*
X009754Y017380D01*
X009784Y017361D01*
X009811Y017339D01*
X009835Y017315D01*
X009857Y017288D01*
X009876Y017258D01*
X009891Y017227D01*
X009903Y017194D01*
X009911Y017160D01*
X009915Y017126D01*
X009916Y017091D01*
X009912Y017056D01*
X009905Y017022D01*
X009894Y016989D01*
X009880Y016957D01*
X009862Y016927D01*
X009841Y016900D01*
X009817Y016874D01*
X009791Y016852D01*
X009762Y016832D01*
X009731Y016816D01*
X009698Y016804D01*
X009665Y016795D01*
X009630Y016789D01*
X009595Y016788D01*
X009596Y016797D01*
X009629Y016798D01*
X009663Y016804D01*
X009696Y016812D01*
X009727Y016825D01*
X009757Y016840D01*
X009785Y016859D01*
X009811Y016881D01*
X009834Y016906D01*
X009855Y016933D01*
X009872Y016962D01*
X009886Y016992D01*
X009897Y017025D01*
X009903Y017058D01*
X009907Y017091D01*
X009906Y017125D01*
X009902Y017159D01*
X009894Y017192D01*
X009883Y017223D01*
X009868Y017254D01*
X009850Y017282D01*
X009829Y017309D01*
X009805Y017333D01*
X009778Y017354D01*
X009750Y017372D01*
X009719Y017387D01*
X009688Y017398D01*
X009655Y017406D01*
X009621Y017410D01*
X009587Y017411D01*
X009554Y017407D01*
X009521Y017401D01*
X009488Y017390D01*
X009458Y017376D01*
X009429Y017359D01*
X009402Y017338D01*
X009377Y017315D01*
X009355Y017289D01*
X009336Y017261D01*
X009321Y017231D01*
X009308Y017200D01*
X009300Y017167D01*
X009294Y017133D01*
X009293Y017100D01*
X009302Y017100D01*
X009303Y017134D01*
X009309Y017167D01*
X009318Y017199D01*
X009330Y017230D01*
X009346Y017260D01*
X009365Y017288D01*
X009387Y017313D01*
X009412Y017335D01*
X009440Y017355D01*
X009469Y017372D01*
X009500Y017385D01*
X009532Y017394D01*
X009565Y017400D01*
X009599Y017402D01*
X009632Y017400D01*
X009665Y017395D01*
X009698Y017386D01*
X009729Y017373D01*
X009758Y017357D01*
X009786Y017337D01*
X009811Y017315D01*
X009833Y017290D01*
X009853Y017262D01*
X009869Y017233D01*
X009882Y017202D01*
X009891Y017169D01*
X009896Y017136D01*
X009898Y017103D01*
X009896Y017069D01*
X009890Y017036D01*
X009881Y017004D01*
X009868Y016973D01*
X009851Y016944D01*
X009831Y016916D01*
X009809Y016891D01*
X009784Y016869D01*
X009756Y016850D01*
X009726Y016834D01*
X009695Y016822D01*
X009663Y016813D01*
X009630Y016807D01*
X009596Y016806D01*
X009596Y016815D01*
X009630Y016817D01*
X009663Y016822D01*
X009695Y016831D01*
X009726Y016844D01*
X009755Y016860D01*
X009782Y016879D01*
X009807Y016902D01*
X009828Y016927D01*
X009847Y016955D01*
X009863Y016984D01*
X009875Y017015D01*
X009883Y017047D01*
X009888Y017081D01*
X009889Y017114D01*
X009886Y017147D01*
X009879Y017180D01*
X009868Y017211D01*
X009854Y017242D01*
X009837Y017270D01*
X009816Y017296D01*
X009792Y017320D01*
X009766Y017341D01*
X009738Y017358D01*
X009707Y017372D01*
X009676Y017383D01*
X009643Y017390D01*
X009610Y017393D01*
X009577Y017392D01*
X009543Y017387D01*
X009511Y017379D01*
X009480Y017367D01*
X009451Y017351D01*
X009423Y017332D01*
X009398Y017311D01*
X009375Y017286D01*
X009356Y017259D01*
X009340Y017230D01*
X009327Y017199D01*
X009318Y017167D01*
X009313Y017134D01*
X009311Y017100D01*
X009123Y017098D02*
X009033Y017101D01*
X009034Y017101D02*
X009032Y017134D01*
X009027Y017166D01*
X009018Y017198D01*
X009005Y017229D01*
X008988Y017257D01*
X008968Y017284D01*
X008946Y017308D01*
X008920Y017329D01*
X008892Y017347D01*
X008863Y017362D01*
X008832Y017373D01*
X008799Y017380D01*
X008766Y017384D01*
X008733Y017383D01*
X008700Y017379D01*
X008668Y017371D01*
X008637Y017358D01*
X008608Y017343D01*
X008581Y017324D01*
X008556Y017302D01*
X008534Y017277D01*
X008515Y017250D01*
X008500Y017221D01*
X008487Y017190D01*
X008479Y017158D01*
X008475Y017125D01*
X008474Y017092D01*
X008478Y017059D01*
X008485Y017026D01*
X008496Y016995D01*
X008511Y016966D01*
X008529Y016938D01*
X008550Y016912D01*
X008574Y016890D01*
X008601Y016870D01*
X008629Y016853D01*
X008660Y016840D01*
X008692Y016831D01*
X008724Y016826D01*
X008757Y016824D01*
X008760Y016735D01*
X008760Y016734D01*
X008723Y016735D01*
X008686Y016740D01*
X008650Y016749D01*
X008614Y016761D01*
X008580Y016777D01*
X008548Y016796D01*
X008518Y016819D01*
X008491Y016844D01*
X008466Y016872D01*
X008444Y016902D01*
X008425Y016934D01*
X008410Y016968D01*
X008398Y017004D01*
X008390Y017040D01*
X008385Y017077D01*
X008384Y017114D01*
X008387Y017152D01*
X008394Y017188D01*
X008404Y017224D01*
X008418Y017259D01*
X008435Y017292D01*
X008456Y017323D01*
X008480Y017352D01*
X008506Y017378D01*
X008535Y017402D01*
X008566Y017423D01*
X008599Y017440D01*
X008634Y017454D01*
X008670Y017464D01*
X008706Y017471D01*
X008744Y017474D01*
X008781Y017473D01*
X008818Y017468D01*
X008854Y017460D01*
X008890Y017448D01*
X008924Y017433D01*
X008956Y017414D01*
X008986Y017392D01*
X009014Y017367D01*
X009039Y017340D01*
X009062Y017310D01*
X009081Y017278D01*
X009097Y017244D01*
X009109Y017208D01*
X009118Y017172D01*
X009123Y017135D01*
X009124Y017098D01*
X009115Y017098D01*
X009114Y017135D01*
X009109Y017172D01*
X009100Y017208D01*
X009087Y017243D01*
X009071Y017277D01*
X009051Y017309D01*
X009029Y017338D01*
X009003Y017365D01*
X008975Y017389D01*
X008944Y017411D01*
X008912Y017429D01*
X008878Y017443D01*
X008842Y017454D01*
X008805Y017461D01*
X008768Y017465D01*
X008731Y017464D01*
X008694Y017460D01*
X008658Y017452D01*
X008623Y017440D01*
X008589Y017425D01*
X008556Y017406D01*
X008526Y017384D01*
X008499Y017359D01*
X008474Y017332D01*
X008452Y017302D01*
X008433Y017269D01*
X008418Y017235D01*
X008406Y017200D01*
X008398Y017164D01*
X008394Y017127D01*
X008393Y017090D01*
X008397Y017053D01*
X008404Y017016D01*
X008415Y016980D01*
X008429Y016946D01*
X008447Y016914D01*
X008469Y016883D01*
X008493Y016855D01*
X008520Y016829D01*
X008549Y016807D01*
X008581Y016787D01*
X008615Y016771D01*
X008650Y016758D01*
X008686Y016749D01*
X008723Y016744D01*
X008760Y016743D01*
X008760Y016752D01*
X008723Y016753D01*
X008686Y016759D01*
X008650Y016768D01*
X008615Y016781D01*
X008582Y016797D01*
X008550Y016817D01*
X008521Y016840D01*
X008495Y016866D01*
X008471Y016894D01*
X008451Y016925D01*
X008434Y016958D01*
X008420Y016993D01*
X008410Y017028D01*
X008404Y017065D01*
X008402Y017102D01*
X008404Y017139D01*
X008409Y017176D01*
X008419Y017212D01*
X008432Y017246D01*
X008449Y017279D01*
X008469Y017311D01*
X008492Y017339D01*
X008519Y017366D01*
X008547Y017389D01*
X008579Y017409D01*
X008612Y017426D01*
X008646Y017439D01*
X008682Y017449D01*
X008719Y017454D01*
X008756Y017456D01*
X008793Y017454D01*
X008830Y017448D01*
X008865Y017438D01*
X008900Y017424D01*
X008933Y017407D01*
X008964Y017387D01*
X008992Y017363D01*
X009018Y017337D01*
X009041Y017308D01*
X009061Y017276D01*
X009077Y017243D01*
X009090Y017208D01*
X009099Y017172D01*
X009105Y017135D01*
X009106Y017098D01*
X009097Y017099D01*
X009096Y017135D01*
X009090Y017171D01*
X009082Y017206D01*
X009069Y017239D01*
X009053Y017272D01*
X009034Y017302D01*
X009011Y017331D01*
X008986Y017357D01*
X008958Y017380D01*
X008928Y017400D01*
X008896Y017416D01*
X008862Y017429D01*
X008828Y017439D01*
X008792Y017445D01*
X008756Y017447D01*
X008720Y017445D01*
X008684Y017440D01*
X008649Y017431D01*
X008615Y017418D01*
X008583Y017401D01*
X008553Y017382D01*
X008525Y017359D01*
X008499Y017333D01*
X008476Y017305D01*
X008457Y017275D01*
X008440Y017243D01*
X008427Y017209D01*
X008418Y017174D01*
X008413Y017138D01*
X008411Y017102D01*
X008413Y017066D01*
X008419Y017030D01*
X008429Y016996D01*
X008442Y016962D01*
X008458Y016930D01*
X008478Y016900D01*
X008501Y016872D01*
X008527Y016847D01*
X008556Y016824D01*
X008586Y016805D01*
X008619Y016789D01*
X008652Y016776D01*
X008687Y016768D01*
X008723Y016762D01*
X008759Y016761D01*
X008759Y016770D01*
X008723Y016771D01*
X008688Y016777D01*
X008653Y016786D01*
X008619Y016798D01*
X008587Y016815D01*
X008557Y016834D01*
X008529Y016857D01*
X008504Y016883D01*
X008481Y016911D01*
X008462Y016941D01*
X008446Y016974D01*
X008434Y017008D01*
X008426Y017043D01*
X008421Y017078D01*
X008420Y017114D01*
X008423Y017150D01*
X008430Y017185D01*
X008441Y017220D01*
X008455Y017253D01*
X008473Y017284D01*
X008494Y017313D01*
X008518Y017340D01*
X008545Y017364D01*
X008574Y017385D01*
X008605Y017403D01*
X008638Y017417D01*
X008673Y017428D01*
X008708Y017435D01*
X008744Y017438D01*
X008780Y017437D01*
X008815Y017432D01*
X008850Y017424D01*
X008884Y017412D01*
X008917Y017396D01*
X008947Y017377D01*
X008975Y017354D01*
X009001Y017329D01*
X009024Y017301D01*
X009043Y017271D01*
X009060Y017239D01*
X009072Y017205D01*
X009081Y017170D01*
X009087Y017135D01*
X009088Y017099D01*
X009079Y017099D01*
X009078Y017134D01*
X009072Y017169D01*
X009064Y017203D01*
X009051Y017235D01*
X009035Y017267D01*
X009016Y017296D01*
X008994Y017323D01*
X008969Y017348D01*
X008942Y017369D01*
X008912Y017388D01*
X008881Y017403D01*
X008848Y017415D01*
X008814Y017423D01*
X008779Y017428D01*
X008744Y017429D01*
X008709Y017426D01*
X008675Y017419D01*
X008641Y017409D01*
X008609Y017395D01*
X008579Y017378D01*
X008550Y017357D01*
X008524Y017334D01*
X008501Y017308D01*
X008480Y017279D01*
X008463Y017249D01*
X008449Y017217D01*
X008439Y017183D01*
X008432Y017149D01*
X008429Y017114D01*
X008430Y017079D01*
X008435Y017044D01*
X008443Y017010D01*
X008455Y016977D01*
X008470Y016946D01*
X008489Y016916D01*
X008510Y016889D01*
X008535Y016864D01*
X008562Y016842D01*
X008591Y016823D01*
X008623Y016807D01*
X008655Y016794D01*
X008689Y016786D01*
X008724Y016780D01*
X008759Y016779D01*
X008759Y016788D01*
X008724Y016789D01*
X008689Y016795D01*
X008656Y016804D01*
X008623Y016816D01*
X008592Y016832D01*
X008563Y016852D01*
X008537Y016874D01*
X008513Y016900D01*
X008492Y016927D01*
X008474Y016957D01*
X008460Y016989D01*
X008449Y017022D01*
X008442Y017056D01*
X008438Y017091D01*
X008439Y017126D01*
X008443Y017160D01*
X008451Y017194D01*
X008463Y017227D01*
X008478Y017258D01*
X008497Y017288D01*
X008519Y017315D01*
X008543Y017339D01*
X008570Y017361D01*
X008600Y017380D01*
X008631Y017395D01*
X008664Y017407D01*
X008698Y017415D01*
X008732Y017419D01*
X008767Y017420D01*
X008802Y017416D01*
X008836Y017409D01*
X008869Y017398D01*
X008901Y017384D01*
X008931Y017366D01*
X008958Y017345D01*
X008984Y017321D01*
X009006Y017295D01*
X009026Y017266D01*
X009042Y017235D01*
X009054Y017202D01*
X009063Y017169D01*
X009069Y017134D01*
X009070Y017099D01*
X009061Y017100D01*
X009060Y017133D01*
X009054Y017167D01*
X009046Y017200D01*
X009033Y017231D01*
X009018Y017261D01*
X008999Y017289D01*
X008977Y017315D01*
X008952Y017338D01*
X008925Y017359D01*
X008896Y017376D01*
X008866Y017390D01*
X008833Y017401D01*
X008800Y017407D01*
X008767Y017411D01*
X008733Y017410D01*
X008699Y017406D01*
X008666Y017398D01*
X008635Y017387D01*
X008604Y017372D01*
X008576Y017354D01*
X008549Y017333D01*
X008525Y017309D01*
X008504Y017282D01*
X008486Y017254D01*
X008471Y017223D01*
X008460Y017192D01*
X008452Y017159D01*
X008448Y017125D01*
X008447Y017091D01*
X008451Y017058D01*
X008457Y017025D01*
X008468Y016992D01*
X008482Y016962D01*
X008499Y016933D01*
X008520Y016906D01*
X008543Y016881D01*
X008569Y016859D01*
X008597Y016840D01*
X008627Y016825D01*
X008658Y016812D01*
X008691Y016804D01*
X008725Y016798D01*
X008758Y016797D01*
X008758Y016806D01*
X008724Y016807D01*
X008691Y016813D01*
X008659Y016822D01*
X008628Y016834D01*
X008598Y016850D01*
X008570Y016869D01*
X008545Y016891D01*
X008523Y016916D01*
X008503Y016944D01*
X008486Y016973D01*
X008473Y017004D01*
X008464Y017036D01*
X008458Y017069D01*
X008456Y017103D01*
X008458Y017136D01*
X008463Y017169D01*
X008472Y017202D01*
X008485Y017233D01*
X008501Y017262D01*
X008521Y017290D01*
X008543Y017315D01*
X008568Y017337D01*
X008596Y017357D01*
X008625Y017373D01*
X008656Y017386D01*
X008689Y017395D01*
X008722Y017400D01*
X008755Y017402D01*
X008789Y017400D01*
X008822Y017394D01*
X008854Y017385D01*
X008885Y017372D01*
X008914Y017355D01*
X008942Y017335D01*
X008967Y017313D01*
X008989Y017288D01*
X009008Y017260D01*
X009024Y017230D01*
X009036Y017199D01*
X009045Y017167D01*
X009051Y017134D01*
X009052Y017100D01*
X009043Y017100D01*
X009041Y017134D01*
X009036Y017167D01*
X009027Y017199D01*
X009014Y017230D01*
X008998Y017259D01*
X008979Y017286D01*
X008956Y017311D01*
X008931Y017332D01*
X008903Y017351D01*
X008874Y017367D01*
X008843Y017379D01*
X008811Y017387D01*
X008777Y017392D01*
X008744Y017393D01*
X008711Y017390D01*
X008678Y017383D01*
X008647Y017372D01*
X008616Y017358D01*
X008588Y017341D01*
X008562Y017320D01*
X008538Y017296D01*
X008517Y017270D01*
X008500Y017242D01*
X008486Y017211D01*
X008475Y017180D01*
X008468Y017147D01*
X008465Y017114D01*
X008466Y017081D01*
X008471Y017047D01*
X008479Y017015D01*
X008491Y016984D01*
X008507Y016955D01*
X008526Y016927D01*
X008547Y016902D01*
X008572Y016879D01*
X008599Y016860D01*
X008628Y016844D01*
X008659Y016831D01*
X008691Y016822D01*
X008724Y016817D01*
X008758Y016815D01*
X008760Y016665D02*
X008757Y016575D01*
X008757Y016576D02*
X008724Y016574D01*
X008692Y016569D01*
X008660Y016560D01*
X008629Y016547D01*
X008601Y016530D01*
X008574Y016510D01*
X008550Y016488D01*
X008529Y016462D01*
X008511Y016434D01*
X008496Y016405D01*
X008485Y016374D01*
X008478Y016341D01*
X008474Y016308D01*
X008475Y016275D01*
X008479Y016242D01*
X008487Y016210D01*
X008500Y016179D01*
X008515Y016150D01*
X008534Y016123D01*
X008556Y016098D01*
X008581Y016076D01*
X008608Y016057D01*
X008637Y016042D01*
X008668Y016029D01*
X008700Y016021D01*
X008733Y016017D01*
X008766Y016016D01*
X008799Y016020D01*
X008832Y016027D01*
X008863Y016038D01*
X008892Y016053D01*
X008920Y016071D01*
X008946Y016092D01*
X008968Y016116D01*
X008988Y016143D01*
X009005Y016171D01*
X009018Y016202D01*
X009027Y016234D01*
X009032Y016266D01*
X009034Y016299D01*
X009123Y016302D01*
X009124Y016302D01*
X009123Y016265D01*
X009118Y016228D01*
X009109Y016192D01*
X009097Y016156D01*
X009081Y016122D01*
X009062Y016090D01*
X009039Y016060D01*
X009014Y016033D01*
X008986Y016008D01*
X008956Y015986D01*
X008924Y015967D01*
X008890Y015952D01*
X008854Y015940D01*
X008818Y015932D01*
X008781Y015927D01*
X008744Y015926D01*
X008706Y015929D01*
X008670Y015936D01*
X008634Y015946D01*
X008599Y015960D01*
X008566Y015977D01*
X008535Y015998D01*
X008506Y016022D01*
X008480Y016048D01*
X008456Y016077D01*
X008435Y016108D01*
X008418Y016141D01*
X008404Y016176D01*
X008394Y016212D01*
X008387Y016248D01*
X008384Y016286D01*
X008385Y016323D01*
X008390Y016360D01*
X008398Y016396D01*
X008410Y016432D01*
X008425Y016466D01*
X008444Y016498D01*
X008466Y016528D01*
X008491Y016556D01*
X008518Y016581D01*
X008548Y016604D01*
X008580Y016623D01*
X008614Y016639D01*
X008650Y016651D01*
X008686Y016660D01*
X008723Y016665D01*
X008760Y016666D01*
X008760Y016657D01*
X008723Y016656D01*
X008686Y016651D01*
X008650Y016642D01*
X008615Y016629D01*
X008581Y016613D01*
X008549Y016593D01*
X008520Y016571D01*
X008493Y016545D01*
X008469Y016517D01*
X008447Y016486D01*
X008429Y016454D01*
X008415Y016420D01*
X008404Y016384D01*
X008397Y016347D01*
X008393Y016310D01*
X008394Y016273D01*
X008398Y016236D01*
X008406Y016200D01*
X008418Y016165D01*
X008433Y016131D01*
X008452Y016098D01*
X008474Y016068D01*
X008499Y016041D01*
X008526Y016016D01*
X008556Y015994D01*
X008589Y015975D01*
X008623Y015960D01*
X008658Y015948D01*
X008694Y015940D01*
X008731Y015936D01*
X008768Y015935D01*
X008805Y015939D01*
X008842Y015946D01*
X008878Y015957D01*
X008912Y015971D01*
X008944Y015989D01*
X008975Y016011D01*
X009003Y016035D01*
X009029Y016062D01*
X009051Y016091D01*
X009071Y016123D01*
X009087Y016157D01*
X009100Y016192D01*
X009109Y016228D01*
X009114Y016265D01*
X009115Y016302D01*
X009106Y016302D01*
X009105Y016265D01*
X009099Y016228D01*
X009090Y016192D01*
X009077Y016157D01*
X009061Y016124D01*
X009041Y016092D01*
X009018Y016063D01*
X008992Y016037D01*
X008964Y016013D01*
X008933Y015993D01*
X008900Y015976D01*
X008865Y015962D01*
X008830Y015952D01*
X008793Y015946D01*
X008756Y015944D01*
X008719Y015946D01*
X008682Y015951D01*
X008646Y015961D01*
X008612Y015974D01*
X008579Y015991D01*
X008547Y016011D01*
X008519Y016034D01*
X008492Y016061D01*
X008469Y016089D01*
X008449Y016121D01*
X008432Y016154D01*
X008419Y016188D01*
X008409Y016224D01*
X008404Y016261D01*
X008402Y016298D01*
X008404Y016335D01*
X008410Y016372D01*
X008420Y016407D01*
X008434Y016442D01*
X008451Y016475D01*
X008471Y016506D01*
X008495Y016534D01*
X008521Y016560D01*
X008550Y016583D01*
X008582Y016603D01*
X008615Y016619D01*
X008650Y016632D01*
X008686Y016641D01*
X008723Y016647D01*
X008760Y016648D01*
X008759Y016639D01*
X008723Y016638D01*
X008687Y016632D01*
X008652Y016624D01*
X008619Y016611D01*
X008586Y016595D01*
X008556Y016576D01*
X008527Y016553D01*
X008501Y016528D01*
X008478Y016500D01*
X008458Y016470D01*
X008442Y016438D01*
X008429Y016404D01*
X008419Y016370D01*
X008413Y016334D01*
X008411Y016298D01*
X008413Y016262D01*
X008418Y016226D01*
X008427Y016191D01*
X008440Y016157D01*
X008457Y016125D01*
X008476Y016095D01*
X008499Y016067D01*
X008525Y016041D01*
X008553Y016018D01*
X008583Y015999D01*
X008615Y015982D01*
X008649Y015969D01*
X008684Y015960D01*
X008720Y015955D01*
X008756Y015953D01*
X008792Y015955D01*
X008828Y015961D01*
X008862Y015971D01*
X008896Y015984D01*
X008928Y016000D01*
X008958Y016020D01*
X008986Y016043D01*
X009011Y016069D01*
X009034Y016098D01*
X009053Y016128D01*
X009069Y016161D01*
X009082Y016194D01*
X009090Y016229D01*
X009096Y016265D01*
X009097Y016301D01*
X009088Y016301D01*
X009087Y016265D01*
X009081Y016230D01*
X009072Y016195D01*
X009060Y016161D01*
X009043Y016129D01*
X009024Y016099D01*
X009001Y016071D01*
X008975Y016046D01*
X008947Y016023D01*
X008917Y016004D01*
X008884Y015988D01*
X008850Y015976D01*
X008815Y015968D01*
X008780Y015963D01*
X008744Y015962D01*
X008708Y015965D01*
X008673Y015972D01*
X008638Y015983D01*
X008605Y015997D01*
X008574Y016015D01*
X008545Y016036D01*
X008518Y016060D01*
X008494Y016087D01*
X008473Y016116D01*
X008455Y016147D01*
X008441Y016180D01*
X008430Y016215D01*
X008423Y016250D01*
X008420Y016286D01*
X008421Y016322D01*
X008426Y016357D01*
X008434Y016392D01*
X008446Y016426D01*
X008462Y016459D01*
X008481Y016489D01*
X008504Y016517D01*
X008529Y016543D01*
X008557Y016566D01*
X008587Y016585D01*
X008619Y016602D01*
X008653Y016614D01*
X008688Y016623D01*
X008723Y016629D01*
X008759Y016630D01*
X008759Y016621D01*
X008724Y016620D01*
X008689Y016614D01*
X008655Y016606D01*
X008623Y016593D01*
X008591Y016577D01*
X008562Y016558D01*
X008535Y016536D01*
X008510Y016511D01*
X008489Y016484D01*
X008470Y016454D01*
X008455Y016423D01*
X008443Y016390D01*
X008435Y016356D01*
X008430Y016321D01*
X008429Y016286D01*
X008432Y016251D01*
X008439Y016217D01*
X008449Y016183D01*
X008463Y016151D01*
X008480Y016121D01*
X008501Y016092D01*
X008524Y016066D01*
X008550Y016043D01*
X008579Y016022D01*
X008609Y016005D01*
X008641Y015991D01*
X008675Y015981D01*
X008709Y015974D01*
X008744Y015971D01*
X008779Y015972D01*
X008814Y015977D01*
X008848Y015985D01*
X008881Y015997D01*
X008912Y016012D01*
X008942Y016031D01*
X008969Y016052D01*
X008994Y016077D01*
X009016Y016104D01*
X009035Y016133D01*
X009051Y016165D01*
X009064Y016197D01*
X009072Y016231D01*
X009078Y016266D01*
X009079Y016301D01*
X009070Y016301D01*
X009069Y016266D01*
X009063Y016231D01*
X009054Y016198D01*
X009042Y016165D01*
X009026Y016134D01*
X009006Y016105D01*
X008984Y016079D01*
X008958Y016055D01*
X008931Y016034D01*
X008901Y016016D01*
X008869Y016002D01*
X008836Y015991D01*
X008802Y015984D01*
X008767Y015980D01*
X008732Y015981D01*
X008698Y015985D01*
X008664Y015993D01*
X008631Y016005D01*
X008600Y016020D01*
X008570Y016039D01*
X008543Y016061D01*
X008519Y016085D01*
X008497Y016112D01*
X008478Y016142D01*
X008463Y016173D01*
X008451Y016206D01*
X008443Y016240D01*
X008439Y016274D01*
X008438Y016309D01*
X008442Y016344D01*
X008449Y016378D01*
X008460Y016411D01*
X008474Y016443D01*
X008492Y016473D01*
X008513Y016500D01*
X008537Y016526D01*
X008563Y016548D01*
X008592Y016568D01*
X008623Y016584D01*
X008656Y016596D01*
X008689Y016605D01*
X008724Y016611D01*
X008759Y016612D01*
X008758Y016603D01*
X008725Y016602D01*
X008691Y016596D01*
X008658Y016588D01*
X008627Y016575D01*
X008597Y016560D01*
X008569Y016541D01*
X008543Y016519D01*
X008520Y016494D01*
X008499Y016467D01*
X008482Y016438D01*
X008468Y016408D01*
X008457Y016375D01*
X008451Y016342D01*
X008447Y016309D01*
X008448Y016275D01*
X008452Y016241D01*
X008460Y016208D01*
X008471Y016177D01*
X008486Y016146D01*
X008504Y016118D01*
X008525Y016091D01*
X008549Y016067D01*
X008576Y016046D01*
X008604Y016028D01*
X008635Y016013D01*
X008666Y016002D01*
X008699Y015994D01*
X008733Y015990D01*
X008767Y015989D01*
X008800Y015993D01*
X008833Y015999D01*
X008866Y016010D01*
X008896Y016024D01*
X008925Y016041D01*
X008952Y016062D01*
X008977Y016085D01*
X008999Y016111D01*
X009018Y016139D01*
X009033Y016169D01*
X009046Y016200D01*
X009054Y016233D01*
X009060Y016267D01*
X009061Y016300D01*
X009052Y016300D01*
X009051Y016266D01*
X009045Y016233D01*
X009036Y016201D01*
X009024Y016170D01*
X009008Y016140D01*
X008989Y016112D01*
X008967Y016087D01*
X008942Y016065D01*
X008914Y016045D01*
X008885Y016028D01*
X008854Y016015D01*
X008822Y016006D01*
X008789Y016000D01*
X008755Y015998D01*
X008722Y016000D01*
X008689Y016005D01*
X008656Y016014D01*
X008625Y016027D01*
X008596Y016043D01*
X008568Y016063D01*
X008543Y016085D01*
X008521Y016110D01*
X008501Y016138D01*
X008485Y016167D01*
X008472Y016198D01*
X008463Y016231D01*
X008458Y016264D01*
X008456Y016297D01*
X008458Y016331D01*
X008464Y016364D01*
X008473Y016396D01*
X008486Y016427D01*
X008503Y016456D01*
X008523Y016484D01*
X008545Y016509D01*
X008570Y016531D01*
X008598Y016550D01*
X008628Y016566D01*
X008659Y016578D01*
X008691Y016587D01*
X008724Y016593D01*
X008758Y016594D01*
X008758Y016585D01*
X008724Y016583D01*
X008691Y016578D01*
X008659Y016569D01*
X008628Y016556D01*
X008599Y016540D01*
X008572Y016521D01*
X008547Y016498D01*
X008526Y016473D01*
X008507Y016445D01*
X008491Y016416D01*
X008479Y016385D01*
X008471Y016353D01*
X008466Y016319D01*
X008465Y016286D01*
X008468Y016253D01*
X008475Y016220D01*
X008486Y016189D01*
X008500Y016158D01*
X008517Y016130D01*
X008538Y016104D01*
X008562Y016080D01*
X008588Y016059D01*
X008616Y016042D01*
X008647Y016028D01*
X008678Y016017D01*
X008711Y016010D01*
X008744Y016007D01*
X008777Y016008D01*
X008811Y016013D01*
X008843Y016021D01*
X008874Y016033D01*
X008903Y016049D01*
X008931Y016068D01*
X008956Y016089D01*
X008979Y016114D01*
X008998Y016141D01*
X009014Y016170D01*
X009027Y016201D01*
X009036Y016233D01*
X009041Y016266D01*
X009043Y016300D01*
X009231Y016302D02*
X009321Y016299D01*
X009320Y016299D02*
X009322Y016266D01*
X009327Y016234D01*
X009336Y016202D01*
X009349Y016171D01*
X009366Y016143D01*
X009386Y016116D01*
X009408Y016092D01*
X009434Y016071D01*
X009462Y016053D01*
X009491Y016038D01*
X009522Y016027D01*
X009555Y016020D01*
X009588Y016016D01*
X009621Y016017D01*
X009654Y016021D01*
X009686Y016029D01*
X009717Y016042D01*
X009746Y016057D01*
X009773Y016076D01*
X009798Y016098D01*
X009820Y016123D01*
X009839Y016150D01*
X009854Y016179D01*
X009867Y016210D01*
X009875Y016242D01*
X009879Y016275D01*
X009880Y016308D01*
X009876Y016341D01*
X009869Y016374D01*
X009858Y016405D01*
X009843Y016434D01*
X009825Y016462D01*
X009804Y016488D01*
X009780Y016510D01*
X009753Y016530D01*
X009725Y016547D01*
X009694Y016560D01*
X009662Y016569D01*
X009630Y016574D01*
X009597Y016576D01*
X009594Y016665D01*
X009594Y016666D01*
X009631Y016665D01*
X009668Y016660D01*
X009704Y016651D01*
X009740Y016639D01*
X009774Y016623D01*
X009806Y016604D01*
X009836Y016581D01*
X009863Y016556D01*
X009888Y016528D01*
X009910Y016498D01*
X009929Y016466D01*
X009944Y016432D01*
X009956Y016396D01*
X009964Y016360D01*
X009969Y016323D01*
X009970Y016286D01*
X009967Y016248D01*
X009960Y016212D01*
X009950Y016176D01*
X009936Y016141D01*
X009919Y016108D01*
X009898Y016077D01*
X009874Y016048D01*
X009848Y016022D01*
X009819Y015998D01*
X009788Y015977D01*
X009755Y015960D01*
X009720Y015946D01*
X009684Y015936D01*
X009648Y015929D01*
X009610Y015926D01*
X009573Y015927D01*
X009536Y015932D01*
X009500Y015940D01*
X009464Y015952D01*
X009430Y015967D01*
X009398Y015986D01*
X009368Y016008D01*
X009340Y016033D01*
X009315Y016060D01*
X009292Y016090D01*
X009273Y016122D01*
X009257Y016156D01*
X009245Y016192D01*
X009236Y016228D01*
X009231Y016265D01*
X009230Y016302D01*
X009239Y016302D01*
X009240Y016265D01*
X009245Y016228D01*
X009254Y016192D01*
X009267Y016157D01*
X009283Y016123D01*
X009303Y016091D01*
X009325Y016062D01*
X009351Y016035D01*
X009379Y016011D01*
X009410Y015989D01*
X009442Y015971D01*
X009476Y015957D01*
X009512Y015946D01*
X009549Y015939D01*
X009586Y015935D01*
X009623Y015936D01*
X009660Y015940D01*
X009696Y015948D01*
X009731Y015960D01*
X009765Y015975D01*
X009798Y015994D01*
X009828Y016016D01*
X009855Y016041D01*
X009880Y016068D01*
X009902Y016098D01*
X009921Y016131D01*
X009936Y016165D01*
X009948Y016200D01*
X009956Y016236D01*
X009960Y016273D01*
X009961Y016310D01*
X009957Y016347D01*
X009950Y016384D01*
X009939Y016420D01*
X009925Y016454D01*
X009907Y016486D01*
X009885Y016517D01*
X009861Y016545D01*
X009834Y016571D01*
X009805Y016593D01*
X009773Y016613D01*
X009739Y016629D01*
X009704Y016642D01*
X009668Y016651D01*
X009631Y016656D01*
X009594Y016657D01*
X009594Y016648D01*
X009631Y016647D01*
X009668Y016641D01*
X009704Y016632D01*
X009739Y016619D01*
X009772Y016603D01*
X009804Y016583D01*
X009833Y016560D01*
X009859Y016534D01*
X009883Y016506D01*
X009903Y016475D01*
X009920Y016442D01*
X009934Y016407D01*
X009944Y016372D01*
X009950Y016335D01*
X009952Y016298D01*
X009950Y016261D01*
X009945Y016224D01*
X009935Y016188D01*
X009922Y016154D01*
X009905Y016121D01*
X009885Y016089D01*
X009862Y016061D01*
X009835Y016034D01*
X009807Y016011D01*
X009775Y015991D01*
X009742Y015974D01*
X009708Y015961D01*
X009672Y015951D01*
X009635Y015946D01*
X009598Y015944D01*
X009561Y015946D01*
X009524Y015952D01*
X009489Y015962D01*
X009454Y015976D01*
X009421Y015993D01*
X009390Y016013D01*
X009362Y016037D01*
X009336Y016063D01*
X009313Y016092D01*
X009293Y016124D01*
X009277Y016157D01*
X009264Y016192D01*
X009255Y016228D01*
X009249Y016265D01*
X009248Y016302D01*
X009257Y016301D01*
X009258Y016265D01*
X009264Y016229D01*
X009272Y016194D01*
X009285Y016161D01*
X009301Y016128D01*
X009320Y016098D01*
X009343Y016069D01*
X009368Y016043D01*
X009396Y016020D01*
X009426Y016000D01*
X009458Y015984D01*
X009492Y015971D01*
X009526Y015961D01*
X009562Y015955D01*
X009598Y015953D01*
X009634Y015955D01*
X009670Y015960D01*
X009705Y015969D01*
X009739Y015982D01*
X009771Y015999D01*
X009801Y016018D01*
X009829Y016041D01*
X009855Y016067D01*
X009878Y016095D01*
X009897Y016125D01*
X009914Y016157D01*
X009927Y016191D01*
X009936Y016226D01*
X009941Y016262D01*
X009943Y016298D01*
X009941Y016334D01*
X009935Y016370D01*
X009925Y016404D01*
X009912Y016438D01*
X009896Y016470D01*
X009876Y016500D01*
X009853Y016528D01*
X009827Y016553D01*
X009798Y016576D01*
X009768Y016595D01*
X009735Y016611D01*
X009702Y016624D01*
X009667Y016632D01*
X009631Y016638D01*
X009595Y016639D01*
X009595Y016630D01*
X009631Y016629D01*
X009666Y016623D01*
X009701Y016614D01*
X009735Y016602D01*
X009767Y016585D01*
X009797Y016566D01*
X009825Y016543D01*
X009850Y016517D01*
X009873Y016489D01*
X009892Y016459D01*
X009908Y016426D01*
X009920Y016392D01*
X009928Y016357D01*
X009933Y016322D01*
X009934Y016286D01*
X009931Y016250D01*
X009924Y016215D01*
X009913Y016180D01*
X009899Y016147D01*
X009881Y016116D01*
X009860Y016087D01*
X009836Y016060D01*
X009809Y016036D01*
X009780Y016015D01*
X009749Y015997D01*
X009716Y015983D01*
X009681Y015972D01*
X009646Y015965D01*
X009610Y015962D01*
X009574Y015963D01*
X009539Y015968D01*
X009504Y015976D01*
X009470Y015988D01*
X009437Y016004D01*
X009407Y016023D01*
X009379Y016046D01*
X009353Y016071D01*
X009330Y016099D01*
X009311Y016129D01*
X009294Y016161D01*
X009282Y016195D01*
X009273Y016230D01*
X009267Y016265D01*
X009266Y016301D01*
X009275Y016301D01*
X009276Y016266D01*
X009282Y016231D01*
X009290Y016197D01*
X009303Y016165D01*
X009319Y016133D01*
X009338Y016104D01*
X009360Y016077D01*
X009385Y016052D01*
X009412Y016031D01*
X009442Y016012D01*
X009473Y015997D01*
X009506Y015985D01*
X009540Y015977D01*
X009575Y015972D01*
X009610Y015971D01*
X009645Y015974D01*
X009679Y015981D01*
X009713Y015991D01*
X009745Y016005D01*
X009775Y016022D01*
X009804Y016043D01*
X009830Y016066D01*
X009853Y016092D01*
X009874Y016121D01*
X009891Y016151D01*
X009905Y016183D01*
X009915Y016217D01*
X009922Y016251D01*
X009925Y016286D01*
X009924Y016321D01*
X009919Y016356D01*
X009911Y016390D01*
X009899Y016423D01*
X009884Y016454D01*
X009865Y016484D01*
X009844Y016511D01*
X009819Y016536D01*
X009792Y016558D01*
X009763Y016577D01*
X009731Y016593D01*
X009699Y016606D01*
X009665Y016614D01*
X009630Y016620D01*
X009595Y016621D01*
X009595Y016612D01*
X009630Y016611D01*
X009665Y016605D01*
X009698Y016596D01*
X009731Y016584D01*
X009762Y016568D01*
X009791Y016548D01*
X009817Y016526D01*
X009841Y016500D01*
X009862Y016473D01*
X009880Y016443D01*
X009894Y016411D01*
X009905Y016378D01*
X009912Y016344D01*
X009916Y016309D01*
X009915Y016274D01*
X009911Y016240D01*
X009903Y016206D01*
X009891Y016173D01*
X009876Y016142D01*
X009857Y016112D01*
X009835Y016085D01*
X009811Y016061D01*
X009784Y016039D01*
X009754Y016020D01*
X009723Y016005D01*
X009690Y015993D01*
X009656Y015985D01*
X009622Y015981D01*
X009587Y015980D01*
X009552Y015984D01*
X009518Y015991D01*
X009485Y016002D01*
X009453Y016016D01*
X009423Y016034D01*
X009396Y016055D01*
X009370Y016079D01*
X009348Y016105D01*
X009328Y016134D01*
X009312Y016165D01*
X009300Y016198D01*
X009291Y016231D01*
X009285Y016266D01*
X009284Y016301D01*
X009293Y016300D01*
X009294Y016267D01*
X009300Y016233D01*
X009308Y016200D01*
X009321Y016169D01*
X009336Y016139D01*
X009355Y016111D01*
X009377Y016085D01*
X009402Y016062D01*
X009429Y016041D01*
X009458Y016024D01*
X009488Y016010D01*
X009521Y015999D01*
X009554Y015993D01*
X009587Y015989D01*
X009621Y015990D01*
X009655Y015994D01*
X009688Y016002D01*
X009719Y016013D01*
X009750Y016028D01*
X009778Y016046D01*
X009805Y016067D01*
X009829Y016091D01*
X009850Y016118D01*
X009868Y016146D01*
X009883Y016177D01*
X009894Y016208D01*
X009902Y016241D01*
X009906Y016275D01*
X009907Y016309D01*
X009903Y016342D01*
X009897Y016375D01*
X009886Y016408D01*
X009872Y016438D01*
X009855Y016467D01*
X009834Y016494D01*
X009811Y016519D01*
X009785Y016541D01*
X009757Y016560D01*
X009727Y016575D01*
X009696Y016588D01*
X009663Y016596D01*
X009629Y016602D01*
X009596Y016603D01*
X009596Y016594D01*
X009630Y016593D01*
X009663Y016587D01*
X009695Y016578D01*
X009726Y016566D01*
X009756Y016550D01*
X009784Y016531D01*
X009809Y016509D01*
X009831Y016484D01*
X009851Y016456D01*
X009868Y016427D01*
X009881Y016396D01*
X009890Y016364D01*
X009896Y016331D01*
X009898Y016297D01*
X009896Y016264D01*
X009891Y016231D01*
X009882Y016198D01*
X009869Y016167D01*
X009853Y016138D01*
X009833Y016110D01*
X009811Y016085D01*
X009786Y016063D01*
X009758Y016043D01*
X009729Y016027D01*
X009698Y016014D01*
X009665Y016005D01*
X009632Y016000D01*
X009599Y015998D01*
X009565Y016000D01*
X009532Y016006D01*
X009500Y016015D01*
X009469Y016028D01*
X009440Y016045D01*
X009412Y016065D01*
X009387Y016087D01*
X009365Y016112D01*
X009346Y016140D01*
X009330Y016170D01*
X009318Y016201D01*
X009309Y016233D01*
X009303Y016266D01*
X009302Y016300D01*
X009311Y016300D01*
X009313Y016266D01*
X009318Y016233D01*
X009327Y016201D01*
X009340Y016170D01*
X009356Y016141D01*
X009375Y016114D01*
X009398Y016089D01*
X009423Y016068D01*
X009451Y016049D01*
X009480Y016033D01*
X009511Y016021D01*
X009543Y016013D01*
X009577Y016008D01*
X009610Y016007D01*
X009643Y016010D01*
X009676Y016017D01*
X009707Y016028D01*
X009738Y016042D01*
X009766Y016059D01*
X009792Y016080D01*
X009816Y016104D01*
X009837Y016130D01*
X009854Y016158D01*
X009868Y016189D01*
X009879Y016220D01*
X009886Y016253D01*
X009889Y016286D01*
X009888Y016319D01*
X009883Y016353D01*
X009875Y016385D01*
X009863Y016416D01*
X009847Y016445D01*
X009828Y016473D01*
X009807Y016498D01*
X009782Y016521D01*
X009755Y016540D01*
X009726Y016556D01*
X009695Y016569D01*
X009663Y016578D01*
X009630Y016583D01*
X009596Y016585D01*
D15*
X009149Y021500D03*
X009056Y021500D03*
D16*
X009152Y019500D03*
X026777Y027325D03*
D17*
X026777Y029325D03*
X009152Y021500D03*
D18*
X025527Y017000D03*
D19*
X025527Y018000D03*
X025527Y019000D03*
X025527Y020000D03*
X025527Y021000D03*
X025527Y022000D03*
X025527Y023000D03*
X025527Y024000D03*
X025527Y025000D03*
X024527Y025000D03*
X024527Y024000D03*
X024527Y023000D03*
X024527Y022000D03*
X024527Y021000D03*
X024527Y020000D03*
X024527Y019000D03*
X024527Y018000D03*
X024527Y017000D03*
D20*
X011577Y011622D02*
X011577Y011028D01*
X010577Y011028D02*
X010577Y011622D01*
X008577Y011597D02*
X008577Y011003D01*
X007577Y011003D02*
X007577Y011597D01*
X006577Y011597D02*
X006577Y011003D01*
X006577Y004747D02*
X006577Y004153D01*
X007577Y004153D02*
X007577Y004747D01*
X008577Y004747D02*
X008577Y004153D01*
D21*
X019977Y034625D03*
D22*
X023977Y034625D03*
D23*
X019627Y026375D03*
X019227Y025975D03*
X018827Y025575D03*
X018427Y025175D03*
X018827Y024775D03*
X018427Y024375D03*
X018827Y023975D03*
X018427Y023575D03*
X018827Y023175D03*
X019227Y023575D03*
X019602Y023175D03*
X019602Y023975D03*
X019602Y024775D03*
X019227Y024375D03*
X019227Y025175D03*
X019602Y025575D03*
X018827Y026375D03*
X018427Y025975D03*
X018027Y025575D03*
X017627Y025175D03*
X018027Y024775D03*
X017627Y024375D03*
X018027Y023975D03*
X017627Y023575D03*
X018027Y023175D03*
X017627Y025975D03*
X018027Y026375D03*
X014377Y023390D03*
X014377Y022990D03*
X014377Y022590D03*
X013977Y022590D03*
X013577Y022590D03*
X013177Y022590D03*
X013177Y022990D03*
X013177Y023390D03*
X013577Y023390D03*
X013577Y022990D03*
X013977Y022990D03*
X013977Y023390D03*
X013992Y030775D03*
X013592Y030775D03*
X013192Y030775D03*
X012792Y030775D03*
X012792Y031175D03*
X013192Y031175D03*
X013592Y031175D03*
X013992Y031175D03*
X014392Y031175D03*
X014392Y030775D03*
X022552Y019725D03*
X022552Y018975D03*
X022542Y016975D03*
X022542Y016575D03*
X025877Y013800D03*
X026827Y013800D03*
X027452Y009825D03*
X025577Y009325D03*
X025627Y007825D03*
X025877Y006715D03*
X025202Y005840D03*
X025202Y002910D03*
X027277Y003560D03*
X023452Y010325D03*
X023552Y011100D03*
X020602Y010175D03*
X019952Y010175D03*
X018242Y008950D03*
X017492Y008950D03*
X016702Y008975D03*
X015087Y008875D03*
X014737Y008875D03*
X013352Y006000D03*
X012877Y006000D03*
X012877Y005500D03*
X013352Y005500D03*
X013352Y005000D03*
X012877Y005000D03*
X012402Y005000D03*
X012402Y005500D03*
X012402Y006000D03*
X014627Y005400D03*
X016767Y004975D03*
X017142Y004975D03*
X021702Y004100D03*
X021902Y005400D03*
X021902Y006050D03*
X017717Y011850D03*
X015392Y013225D03*
X015392Y013600D03*
X013317Y011800D03*
X008752Y006400D03*
X006652Y007275D03*
D24*
X009277Y007475D03*
X011352Y005250D03*
X012627Y003800D03*
X012027Y007975D03*
X014477Y010275D03*
X017577Y010275D03*
X017977Y004675D03*
X023902Y004200D03*
X023902Y003150D03*
X025352Y001250D03*
X026777Y003150D03*
X027677Y012075D03*
X025477Y014375D03*
X024627Y014950D03*
X023802Y015825D03*
X022952Y014950D03*
X022927Y013200D03*
X023327Y018050D03*
X028702Y021925D03*
X027402Y028350D03*
X022852Y028850D03*
X018702Y029000D03*
X017202Y032900D03*
X016352Y033825D03*
X014157Y032530D03*
X013452Y032950D03*
X011252Y029625D03*
X013227Y027475D03*
X013977Y026875D03*
X015077Y020750D03*
X009777Y013375D03*
X007577Y015075D03*
X009002Y028275D03*
X009002Y029475D03*
D25*
X021352Y007600D02*
X021377Y007575D01*
X013452Y005400D02*
X013352Y005500D01*
D26*
X007252Y001725D03*
X027725Y001725D03*
X027725Y035583D03*
X007252Y035583D03*
D27*
X007647Y032821D02*
X010894Y036068D01*
X010894Y037748D01*
X013847Y035994D02*
X012627Y034775D01*
X008705Y030853D01*
X007647Y030853D01*
X013847Y035994D02*
X013847Y037748D01*
D28*
X012427Y034975D02*
X012627Y034775D01*
X022952Y014950D02*
X024627Y014950D01*
X027677Y012075D02*
X028052Y011700D01*
X028052Y003475D01*
X027727Y003150D01*
X026777Y003150D01*
D29*
X023902Y003125D02*
X023902Y003150D01*
X023902Y004200D01*
X017577Y010275D02*
X014477Y010275D01*
X009777Y013375D02*
X009277Y013375D01*
X007577Y015075D01*
X015077Y020750D02*
X015652Y021325D01*
X015652Y028575D01*
X015877Y028800D01*
X018702Y028800D01*
X018727Y028800D02*
X018702Y028825D01*
X018702Y029000D01*
X018727Y028800D02*
X022802Y028800D01*
X022852Y028850D01*
X017202Y032900D02*
X013502Y032900D01*
X013452Y032950D01*
X024127Y020000D02*
X023327Y019200D01*
X023327Y018050D01*
X024127Y020000D02*
X024527Y020000D01*
X025527Y018000D02*
X025027Y017500D01*
X025027Y014525D01*
X023702Y013200D01*
X022927Y013200D01*
X025277Y014575D02*
X025477Y014375D01*
X025277Y014575D02*
X025277Y016750D01*
X025527Y017000D01*
D30*
X024627Y016900D02*
X024527Y017000D01*
X024627Y016900D02*
X024627Y014950D01*
X023802Y015825D02*
X023802Y018275D01*
X024527Y019000D01*
X013982Y032355D02*
X014157Y032530D01*
X013982Y032355D02*
X012707Y032355D01*
X011752Y031400D01*
X011752Y024450D01*
X009152Y021850D01*
X009149Y021500D01*
M02*
