%
M48
M72
T01C0.0236
T02C0.0394
T03C0.0400
T04C0.0512
T05C0.0531
T06C0.0790
T07C0.1260
%
T01
X7243Y10006
X9343Y9131
X9868Y10206
X10393Y9731
X11943Y7981
X12993Y7731
X12993Y8231
X12993Y8731
X13468Y8731
X13943Y8731
X13943Y8231
X13468Y8231
X13468Y7731
X13943Y7731
X15218Y8131
X13218Y6531
X12618Y10706
X15068Y13006
X15328Y11606
X15678Y11606
X17293Y11706
X18083Y11681
X18833Y11681
X18168Y13006
X18308Y14581
X15983Y15956
X15983Y16331
X13908Y14531
X10368Y16106
X8168Y17806
X13768Y25321
X13768Y25721
X13768Y26121
X14168Y26121
X14168Y25721
X14168Y25321
X14568Y25321
X14968Y25321
X14968Y25721
X14568Y25721
X14568Y26121
X14968Y26121
X15668Y23481
X18218Y26306
X18618Y25906
X19018Y26306
X19418Y25906
X19818Y26306
X19418Y26706
X19818Y27106
X19418Y27506
X19018Y27106
X18618Y26706
X18218Y27106
X18618Y27506
X19018Y27906
X19418Y28306
X19818Y27906
X20193Y27506
X20193Y26706
X20193Y25906
X20193Y28306
X20218Y29106
X19818Y28706
X19418Y29106
X19018Y28706
X18618Y28306
X18218Y27906
X18218Y28706
X18618Y29106
X19293Y31731
X17793Y35631
X16943Y36556
X14983Y33906
X14983Y33506
X14583Y33506
X14183Y33506
X14183Y33906
X14583Y33906
X13783Y33906
X13783Y33506
X13383Y33506
X13383Y33906
X14043Y35681
X14748Y35261
X11843Y32356
X9593Y32206
X9593Y31006
X13818Y30206
X14568Y29606
X23143Y22456
X23143Y21706
X23918Y20781
X23133Y19706
X23133Y19306
X24393Y18556
X23543Y17681
X23518Y15931
X24143Y13831
X24043Y13056
X26168Y12056
X26218Y10556
X26468Y9446
X25793Y8571
X24493Y6931
X24493Y5881
X25793Y5641
X25943Y3981
X27368Y5881
X27868Y6291
X28043Y12556
X28268Y14806
X27418Y16531
X26468Y16531
X26068Y17106
X25218Y17681
X21193Y12906
X20543Y12906
X22493Y8781
X22493Y8131
X22293Y6831
X18568Y7406
X17733Y7706
X17358Y7706
X29293Y24656
X27993Y31081
X23443Y31581
T02
X7168Y7181
X8168Y7181
X9168Y7181
X9168Y14031
X8168Y14031
X7168Y14031
X11168Y14056
X12168Y14056
X25118Y19731
X25118Y20731
X25118Y21731
X25118Y22731
X25118Y23731
X25118Y24731
X25118Y25731
X25118Y26731
X25118Y27731
X26118Y27731
X26118Y26731
X26118Y25731
X26118Y24731
X26118Y23731
X26118Y22731
X26118Y21731
X26118Y20731
X26118Y19731
T03
X27368Y30056
X27368Y32056
X9743Y24231
X9743Y22231
T04
X11485Y40480
X14437Y40480
X17390Y40480
X7548Y40480
T05
X8238Y35553
X8238Y33584
T06
X20568Y37356
X24568Y37356
T07
X28315Y38315
X7843Y38315
X7843Y4456
X28315Y4456
M30
