G75*
G70*
%OFA0B0*%
%FSLAX24Y24*%
%IPPOS*%
%LPD*%
%AMOC8*
5,1,8,0,0,1.08239X$1,22.5*
%
%ADD10C,0.0039*%
%ADD11C,0.0000*%
%ADD12C,0.0004*%
D10*
X003807Y005244D02*
X027429Y005244D01*
X027429Y044614D01*
X003807Y044614D01*
X003807Y005244D01*
X028217Y003275D02*
X097114Y003275D01*
X097114Y044614D01*
X028217Y044614D01*
X028217Y003275D01*
X028217Y045401D02*
X028217Y084771D01*
X051839Y084771D01*
X051839Y045401D01*
X028217Y045401D01*
X027429Y045401D02*
X027429Y084771D01*
X003807Y084771D01*
X003807Y045401D01*
X027429Y045401D01*
X052626Y045401D02*
X052626Y084771D01*
X076248Y084771D01*
X076248Y045401D01*
X052626Y045401D01*
X077036Y045401D02*
X077036Y084771D01*
X100658Y084771D01*
X100658Y045401D01*
X077036Y045401D01*
D11*
X086064Y040665D02*
X086066Y040715D01*
X086072Y040765D01*
X086082Y040814D01*
X086096Y040862D01*
X086113Y040909D01*
X086134Y040954D01*
X086159Y040998D01*
X086187Y041039D01*
X086219Y041078D01*
X086253Y041115D01*
X086290Y041149D01*
X086330Y041179D01*
X086372Y041206D01*
X086416Y041230D01*
X086462Y041251D01*
X086509Y041267D01*
X086557Y041280D01*
X086607Y041289D01*
X086656Y041294D01*
X086707Y041295D01*
X086757Y041292D01*
X086806Y041285D01*
X086855Y041274D01*
X086903Y041259D01*
X086949Y041241D01*
X086994Y041219D01*
X087037Y041193D01*
X087078Y041164D01*
X087117Y041132D01*
X087153Y041097D01*
X087185Y041059D01*
X087215Y041019D01*
X087242Y040976D01*
X087265Y040932D01*
X087284Y040886D01*
X087300Y040838D01*
X087312Y040789D01*
X087320Y040740D01*
X087324Y040690D01*
X087324Y040640D01*
X087320Y040590D01*
X087312Y040541D01*
X087300Y040492D01*
X087284Y040444D01*
X087265Y040398D01*
X087242Y040354D01*
X087215Y040311D01*
X087185Y040271D01*
X087153Y040233D01*
X087117Y040198D01*
X087078Y040166D01*
X087037Y040137D01*
X086994Y040111D01*
X086949Y040089D01*
X086903Y040071D01*
X086855Y040056D01*
X086806Y040045D01*
X086757Y040038D01*
X086707Y040035D01*
X086656Y040036D01*
X086607Y040041D01*
X086557Y040050D01*
X086509Y040063D01*
X086462Y040079D01*
X086416Y040100D01*
X086372Y040124D01*
X086330Y040151D01*
X086290Y040181D01*
X086253Y040215D01*
X086219Y040252D01*
X086187Y040291D01*
X086159Y040332D01*
X086134Y040376D01*
X086113Y040421D01*
X086096Y040468D01*
X086082Y040516D01*
X086072Y040565D01*
X086066Y040615D01*
X086064Y040665D01*
X093266Y041975D02*
X093268Y042025D01*
X093274Y042075D01*
X093284Y042124D01*
X093297Y042173D01*
X093315Y042220D01*
X093336Y042266D01*
X093360Y042309D01*
X093388Y042351D01*
X093419Y042391D01*
X093453Y042428D01*
X093490Y042462D01*
X093530Y042493D01*
X093572Y042521D01*
X093615Y042545D01*
X093661Y042566D01*
X093708Y042584D01*
X093757Y042597D01*
X093806Y042607D01*
X093856Y042613D01*
X093906Y042615D01*
X093956Y042613D01*
X094006Y042607D01*
X094055Y042597D01*
X094104Y042584D01*
X094151Y042566D01*
X094197Y042545D01*
X094240Y042521D01*
X094282Y042493D01*
X094322Y042462D01*
X094359Y042428D01*
X094393Y042391D01*
X094424Y042351D01*
X094452Y042309D01*
X094476Y042266D01*
X094497Y042220D01*
X094515Y042173D01*
X094528Y042124D01*
X094538Y042075D01*
X094544Y042025D01*
X094546Y041975D01*
X094544Y041925D01*
X094538Y041875D01*
X094528Y041826D01*
X094515Y041777D01*
X094497Y041730D01*
X094476Y041684D01*
X094452Y041641D01*
X094424Y041599D01*
X094393Y041559D01*
X094359Y041522D01*
X094322Y041488D01*
X094282Y041457D01*
X094240Y041429D01*
X094197Y041405D01*
X094151Y041384D01*
X094104Y041366D01*
X094055Y041353D01*
X094006Y041343D01*
X093956Y041337D01*
X093906Y041335D01*
X093856Y041337D01*
X093806Y041343D01*
X093757Y041353D01*
X093708Y041366D01*
X093661Y041384D01*
X093615Y041405D01*
X093572Y041429D01*
X093530Y041457D01*
X093490Y041488D01*
X093453Y041522D01*
X093419Y041559D01*
X093388Y041599D01*
X093360Y041641D01*
X093336Y041684D01*
X093315Y041730D01*
X093297Y041777D01*
X093284Y041826D01*
X093274Y041875D01*
X093268Y041925D01*
X093266Y041975D01*
X093266Y037475D02*
X093268Y037525D01*
X093274Y037575D01*
X093284Y037624D01*
X093297Y037673D01*
X093315Y037720D01*
X093336Y037766D01*
X093360Y037809D01*
X093388Y037851D01*
X093419Y037891D01*
X093453Y037928D01*
X093490Y037962D01*
X093530Y037993D01*
X093572Y038021D01*
X093615Y038045D01*
X093661Y038066D01*
X093708Y038084D01*
X093757Y038097D01*
X093806Y038107D01*
X093856Y038113D01*
X093906Y038115D01*
X093956Y038113D01*
X094006Y038107D01*
X094055Y038097D01*
X094104Y038084D01*
X094151Y038066D01*
X094197Y038045D01*
X094240Y038021D01*
X094282Y037993D01*
X094322Y037962D01*
X094359Y037928D01*
X094393Y037891D01*
X094424Y037851D01*
X094452Y037809D01*
X094476Y037766D01*
X094497Y037720D01*
X094515Y037673D01*
X094528Y037624D01*
X094538Y037575D01*
X094544Y037525D01*
X094546Y037475D01*
X094544Y037425D01*
X094538Y037375D01*
X094528Y037326D01*
X094515Y037277D01*
X094497Y037230D01*
X094476Y037184D01*
X094452Y037141D01*
X094424Y037099D01*
X094393Y037059D01*
X094359Y037022D01*
X094322Y036988D01*
X094282Y036957D01*
X094240Y036929D01*
X094197Y036905D01*
X094151Y036884D01*
X094104Y036866D01*
X094055Y036853D01*
X094006Y036843D01*
X093956Y036837D01*
X093906Y036835D01*
X093856Y036837D01*
X093806Y036843D01*
X093757Y036853D01*
X093708Y036866D01*
X093661Y036884D01*
X093615Y036905D01*
X093572Y036929D01*
X093530Y036957D01*
X093490Y036988D01*
X093453Y037022D01*
X093419Y037059D01*
X093388Y037099D01*
X093360Y037141D01*
X093336Y037184D01*
X093315Y037230D01*
X093297Y037277D01*
X093284Y037326D01*
X093274Y037375D01*
X093268Y037425D01*
X093266Y037475D01*
X062835Y040665D02*
X062837Y040715D01*
X062843Y040765D01*
X062853Y040814D01*
X062867Y040862D01*
X062884Y040909D01*
X062905Y040954D01*
X062930Y040998D01*
X062958Y041039D01*
X062990Y041078D01*
X063024Y041115D01*
X063061Y041149D01*
X063101Y041179D01*
X063143Y041206D01*
X063187Y041230D01*
X063233Y041251D01*
X063280Y041267D01*
X063328Y041280D01*
X063378Y041289D01*
X063427Y041294D01*
X063478Y041295D01*
X063528Y041292D01*
X063577Y041285D01*
X063626Y041274D01*
X063674Y041259D01*
X063720Y041241D01*
X063765Y041219D01*
X063808Y041193D01*
X063849Y041164D01*
X063888Y041132D01*
X063924Y041097D01*
X063956Y041059D01*
X063986Y041019D01*
X064013Y040976D01*
X064036Y040932D01*
X064055Y040886D01*
X064071Y040838D01*
X064083Y040789D01*
X064091Y040740D01*
X064095Y040690D01*
X064095Y040640D01*
X064091Y040590D01*
X064083Y040541D01*
X064071Y040492D01*
X064055Y040444D01*
X064036Y040398D01*
X064013Y040354D01*
X063986Y040311D01*
X063956Y040271D01*
X063924Y040233D01*
X063888Y040198D01*
X063849Y040166D01*
X063808Y040137D01*
X063765Y040111D01*
X063720Y040089D01*
X063674Y040071D01*
X063626Y040056D01*
X063577Y040045D01*
X063528Y040038D01*
X063478Y040035D01*
X063427Y040036D01*
X063378Y040041D01*
X063328Y040050D01*
X063280Y040063D01*
X063233Y040079D01*
X063187Y040100D01*
X063143Y040124D01*
X063101Y040151D01*
X063061Y040181D01*
X063024Y040215D01*
X062990Y040252D01*
X062958Y040291D01*
X062930Y040332D01*
X062905Y040376D01*
X062884Y040421D01*
X062867Y040468D01*
X062853Y040516D01*
X062843Y040565D01*
X062837Y040615D01*
X062835Y040665D01*
X062835Y007200D02*
X062837Y007250D01*
X062843Y007300D01*
X062853Y007349D01*
X062867Y007397D01*
X062884Y007444D01*
X062905Y007489D01*
X062930Y007533D01*
X062958Y007574D01*
X062990Y007613D01*
X063024Y007650D01*
X063061Y007684D01*
X063101Y007714D01*
X063143Y007741D01*
X063187Y007765D01*
X063233Y007786D01*
X063280Y007802D01*
X063328Y007815D01*
X063378Y007824D01*
X063427Y007829D01*
X063478Y007830D01*
X063528Y007827D01*
X063577Y007820D01*
X063626Y007809D01*
X063674Y007794D01*
X063720Y007776D01*
X063765Y007754D01*
X063808Y007728D01*
X063849Y007699D01*
X063888Y007667D01*
X063924Y007632D01*
X063956Y007594D01*
X063986Y007554D01*
X064013Y007511D01*
X064036Y007467D01*
X064055Y007421D01*
X064071Y007373D01*
X064083Y007324D01*
X064091Y007275D01*
X064095Y007225D01*
X064095Y007175D01*
X064091Y007125D01*
X064083Y007076D01*
X064071Y007027D01*
X064055Y006979D01*
X064036Y006933D01*
X064013Y006889D01*
X063986Y006846D01*
X063956Y006806D01*
X063924Y006768D01*
X063888Y006733D01*
X063849Y006701D01*
X063808Y006672D01*
X063765Y006646D01*
X063720Y006624D01*
X063674Y006606D01*
X063626Y006591D01*
X063577Y006580D01*
X063528Y006573D01*
X063478Y006570D01*
X063427Y006571D01*
X063378Y006576D01*
X063328Y006585D01*
X063280Y006598D01*
X063233Y006614D01*
X063187Y006635D01*
X063143Y006659D01*
X063101Y006686D01*
X063061Y006716D01*
X063024Y006750D01*
X062990Y006787D01*
X062958Y006826D01*
X062930Y006867D01*
X062905Y006911D01*
X062884Y006956D01*
X062867Y007003D01*
X062853Y007051D01*
X062843Y007100D01*
X062837Y007150D01*
X062835Y007200D01*
X086064Y007200D02*
X086066Y007250D01*
X086072Y007300D01*
X086082Y007349D01*
X086096Y007397D01*
X086113Y007444D01*
X086134Y007489D01*
X086159Y007533D01*
X086187Y007574D01*
X086219Y007613D01*
X086253Y007650D01*
X086290Y007684D01*
X086330Y007714D01*
X086372Y007741D01*
X086416Y007765D01*
X086462Y007786D01*
X086509Y007802D01*
X086557Y007815D01*
X086607Y007824D01*
X086656Y007829D01*
X086707Y007830D01*
X086757Y007827D01*
X086806Y007820D01*
X086855Y007809D01*
X086903Y007794D01*
X086949Y007776D01*
X086994Y007754D01*
X087037Y007728D01*
X087078Y007699D01*
X087117Y007667D01*
X087153Y007632D01*
X087185Y007594D01*
X087215Y007554D01*
X087242Y007511D01*
X087265Y007467D01*
X087284Y007421D01*
X087300Y007373D01*
X087312Y007324D01*
X087320Y007275D01*
X087324Y007225D01*
X087324Y007175D01*
X087320Y007125D01*
X087312Y007076D01*
X087300Y007027D01*
X087284Y006979D01*
X087265Y006933D01*
X087242Y006889D01*
X087215Y006846D01*
X087185Y006806D01*
X087153Y006768D01*
X087117Y006733D01*
X087078Y006701D01*
X087037Y006672D01*
X086994Y006646D01*
X086949Y006624D01*
X086903Y006606D01*
X086855Y006591D01*
X086806Y006580D01*
X086757Y006573D01*
X086707Y006570D01*
X086656Y006571D01*
X086607Y006576D01*
X086557Y006585D01*
X086509Y006598D01*
X086462Y006614D01*
X086416Y006635D01*
X086372Y006659D01*
X086330Y006686D01*
X086290Y006716D01*
X086253Y006750D01*
X086219Y006787D01*
X086187Y006826D01*
X086159Y006867D01*
X086134Y006911D01*
X086113Y006956D01*
X086096Y007003D01*
X086082Y007051D01*
X086072Y007100D01*
X086066Y007150D01*
X086064Y007200D01*
D12*
X097126Y035900D02*
X097126Y043550D01*
M02*
