G75*
G70*
%OFA0B0*%
%FSLAX24Y24*%
%IPPOS*%
%LPD*%
%AMOC8*
5,1,8,0,0,1.08239X$1,22.5*
%
%ADD10C,0.1000*%
%ADD11C,0.0700*%
%ADD12C,0.0712*%
%ADD13C,0.1200*%
%ADD14OC8,0.0712*%
%ADD15C,0.0672*%
%ADD16C,0.0712*%
%ADD17C,0.1134*%
%ADD18OC8,0.0672*%
%ADD19OC8,0.0523*%
%ADD20OC8,0.0756*%
%ADD21C,0.0756*%
%ADD22C,0.0720*%
%ADD23R,0.0712X0.0712*%
%ADD24R,0.0618X0.0618*%
%ADD25C,0.0921*%
%ADD26OC8,0.0624*%
%ADD27OC8,0.0840*%
%ADD28OC8,0.0780*%
%ADD29C,0.2010*%
%ADD30OC8,0.2010*%
%ADD31C,0.1200*%
%ADD32OC8,0.1200*%
%ADD33C,0.0840*%
%ADD34C,0.0618*%
%ADD35OC8,0.0618*%
%ADD36C,0.0672*%
%ADD37C,0.0720*%
%ADD38OC8,0.0720*%
%ADD39OC8,0.1381*%
%ADD40OC8,0.0792*%
%ADD41OC8,0.1450*%
%ADD42OC8,0.1032*%
%ADD43OC8,0.1062*%
%ADD44C,0.0990*%
%ADD45OC8,0.0912*%
%ADD46C,0.1702*%
%ADD47C,0.4885*%
%ADD48C,0.1460*%
%ADD49R,0.0567X0.0567*%
%ADD50C,0.0476*%
%ADD51C,0.0099*%
%ADD52C,0.1480*%
%ADD53C,0.1263*%
%ADD54C,0.1032*%
%ADD55OC8,0.0665*%
%ADD56C,0.0665*%
%ADD57R,0.0760X0.0543*%
%ADD58C,0.1381*%
%ADD59C,0.0921*%
%ADD60OC8,0.0523*%
%ADD61R,0.0523X0.0523*%
%ADD62C,0.2365*%
%ADD63C,0.2562*%
%ADD64C,0.1700*%
D10*
X016507Y066776D02*
X015057Y068226D01*
X016507Y066776D02*
X022482Y066776D01*
X029292Y071201D02*
X029292Y077401D01*
X034517Y082626D01*
X035092Y079826D02*
X045417Y079826D01*
X047767Y077476D01*
X047767Y071176D01*
X048992Y069951D01*
X049892Y069951D01*
X050067Y072376D02*
X050067Y077926D01*
X046067Y081926D01*
X041117Y081926D01*
X039942Y083101D01*
X035092Y079826D02*
X033017Y077751D01*
X033017Y072351D01*
X019157Y077926D02*
X014957Y073726D01*
X014957Y073201D01*
X011982Y081251D02*
X006857Y076126D01*
X005782Y076126D01*
X005782Y078101D02*
X009032Y081351D01*
X009032Y082876D01*
X011982Y082876D02*
X011982Y081251D01*
X054601Y078101D02*
X057851Y081351D01*
X057851Y082876D01*
X060801Y082876D02*
X060801Y081251D01*
X055676Y076126D01*
X054601Y076126D01*
X063776Y073726D02*
X067976Y077926D01*
X063776Y073726D02*
X063776Y073201D01*
X063876Y068226D02*
X065326Y066776D01*
X071301Y066776D01*
X078111Y071201D02*
X078111Y077401D01*
X083336Y082626D01*
X083911Y079826D02*
X094236Y079826D01*
X096586Y077476D01*
X096586Y071176D01*
X097811Y069951D01*
X098711Y069951D01*
X098886Y072376D02*
X098886Y077926D01*
X094886Y081926D01*
X089936Y081926D01*
X088761Y083101D01*
X083911Y079826D02*
X081836Y077751D01*
X081836Y072351D01*
D11*
X072701Y080376D02*
X070351Y078026D01*
X067976Y078026D01*
X067976Y078001D01*
X067976Y078026D02*
X067976Y083401D01*
X072701Y083351D02*
X072701Y080376D01*
X023882Y080376D02*
X021532Y078026D01*
X019157Y078026D01*
X019157Y078001D01*
X019157Y078026D02*
X019157Y083401D01*
X023882Y083351D02*
X023882Y080376D01*
D12*
X041817Y047951D03*
X042817Y047951D03*
X043817Y047951D03*
X044817Y047951D03*
X045817Y047951D03*
X045817Y046951D03*
X044817Y046951D03*
X043817Y046951D03*
X042817Y046951D03*
X041817Y046951D03*
X067231Y042975D03*
X068231Y042975D03*
X069231Y042975D03*
X070231Y042975D03*
X071231Y042975D03*
X071231Y041975D03*
X070231Y041975D03*
X069231Y041975D03*
X068231Y041975D03*
X067231Y041975D03*
X077231Y041975D03*
X078231Y041975D03*
X079231Y041975D03*
X080231Y041975D03*
X081231Y041975D03*
X081231Y042975D03*
X080231Y042975D03*
X079231Y042975D03*
X078231Y042975D03*
X077231Y042975D03*
X090406Y041475D03*
X090406Y040475D03*
X090406Y039475D03*
X090406Y038475D03*
X091406Y038975D03*
X091406Y039975D03*
X091406Y040975D03*
X095236Y042215D03*
X095906Y041215D03*
X095236Y038235D03*
X095906Y037235D03*
X094636Y046951D03*
X094636Y047951D03*
X093636Y047951D03*
X093636Y046951D03*
X092636Y046951D03*
X092636Y047951D03*
X091636Y047951D03*
X091636Y046951D03*
X090636Y046951D03*
X090636Y047951D03*
D13*
X098211Y065996D02*
X099211Y065996D01*
X099211Y067964D02*
X098211Y067964D01*
X098211Y069933D02*
X099211Y069933D01*
X099211Y071901D02*
X098211Y071901D01*
X055096Y076104D02*
X054096Y076104D01*
X054096Y078073D02*
X055096Y078073D01*
X050392Y071901D02*
X049392Y071901D01*
X049392Y069933D02*
X050392Y069933D01*
X050392Y067964D02*
X049392Y067964D01*
X049392Y065996D02*
X050392Y065996D01*
X030981Y032750D02*
X029981Y032750D01*
X029981Y030782D02*
X030981Y030782D01*
X030981Y028813D02*
X029981Y028813D01*
X029981Y026845D02*
X030981Y026845D01*
X030981Y023150D02*
X029981Y023150D01*
X029981Y021182D02*
X030981Y021182D01*
X030981Y019213D02*
X029981Y019213D01*
X029981Y017245D02*
X030981Y017245D01*
X019111Y007726D02*
X019111Y006726D01*
X017142Y006726D02*
X017142Y007726D01*
X015174Y007726D02*
X015174Y006726D01*
X013205Y006726D02*
X013205Y007726D01*
X011237Y007726D02*
X011237Y006726D01*
X006277Y076104D02*
X005277Y076104D01*
X005277Y078073D02*
X006277Y078073D01*
D14*
X022657Y070251D03*
X022657Y069251D03*
X022657Y068251D03*
X022657Y067251D03*
X023657Y067251D03*
X023657Y068251D03*
X023657Y069251D03*
X023657Y070251D03*
X023657Y066251D03*
X022657Y066251D03*
X022657Y065251D03*
X022657Y064251D03*
X022657Y063251D03*
X022657Y062251D03*
X023657Y063251D03*
X023657Y064251D03*
X023657Y065251D03*
X029267Y065251D03*
X030267Y065251D03*
X030267Y064251D03*
X030267Y063251D03*
X030267Y062251D03*
X029267Y063251D03*
X029267Y064251D03*
X029267Y066251D03*
X030267Y066251D03*
X030267Y067251D03*
X030267Y068251D03*
X030267Y069251D03*
X030267Y070251D03*
X029267Y070251D03*
X029267Y069251D03*
X029267Y068251D03*
X029267Y067251D03*
X049392Y055626D03*
X050392Y055626D03*
X050392Y054626D03*
X050392Y053626D03*
X049392Y053626D03*
X049392Y054626D03*
X049392Y052626D03*
X050392Y052626D03*
X071476Y062251D03*
X071476Y063251D03*
X071476Y064251D03*
X071476Y065251D03*
X071476Y066251D03*
X072476Y066251D03*
X072476Y065251D03*
X072476Y064251D03*
X072476Y063251D03*
X072476Y067251D03*
X071476Y067251D03*
X071476Y068251D03*
X071476Y069251D03*
X071476Y070251D03*
X072476Y070251D03*
X072476Y069251D03*
X072476Y068251D03*
X078086Y068251D03*
X079086Y068251D03*
X079086Y067251D03*
X078086Y067251D03*
X078086Y066251D03*
X079086Y066251D03*
X079086Y065251D03*
X079086Y064251D03*
X079086Y063251D03*
X079086Y062251D03*
X078086Y063251D03*
X078086Y064251D03*
X078086Y065251D03*
X078086Y069251D03*
X079086Y069251D03*
X079086Y070251D03*
X078086Y070251D03*
X098211Y055626D03*
X099211Y055626D03*
X099211Y054626D03*
X099211Y053626D03*
X098211Y053626D03*
X098211Y054626D03*
X098211Y052626D03*
X099211Y052626D03*
D15*
X095816Y052176D02*
X095256Y052176D01*
X095256Y051176D02*
X095816Y051176D01*
X095816Y053176D02*
X095256Y053176D01*
X095256Y054176D02*
X095816Y054176D01*
X095361Y020875D02*
X094801Y020875D01*
X094801Y019875D02*
X095361Y019875D01*
X084981Y012955D02*
X084981Y012395D01*
X083981Y012395D02*
X083981Y012955D01*
X082981Y012955D02*
X082981Y012395D01*
X068481Y012845D02*
X068481Y013405D01*
X067481Y013405D02*
X067481Y012845D01*
X046997Y051176D02*
X046437Y051176D01*
X046437Y052176D02*
X046997Y052176D01*
X046997Y053176D02*
X046437Y053176D01*
X046437Y054176D02*
X046997Y054176D01*
D16*
X049870Y051101D02*
X050464Y051101D01*
X050464Y050101D02*
X049870Y050101D01*
X049870Y049101D02*
X050464Y049101D01*
X053551Y049504D02*
X053551Y050098D01*
X054551Y050098D02*
X054551Y049504D01*
X055551Y049504D02*
X055551Y050098D01*
X055551Y055354D02*
X055551Y055948D01*
X054551Y055948D02*
X054551Y055354D01*
X053551Y055354D02*
X053551Y055948D01*
X038042Y047373D02*
X038042Y046779D01*
X037042Y046779D02*
X037042Y047373D01*
X036042Y047373D02*
X036042Y046779D01*
X035042Y046779D02*
X035042Y047373D01*
X034042Y047373D02*
X034042Y046779D01*
X033042Y046779D02*
X033042Y047373D01*
X032042Y047373D02*
X032042Y046779D01*
X026104Y049351D02*
X025510Y049351D01*
X025510Y050351D02*
X026104Y050351D01*
X029595Y056651D02*
X030189Y056651D01*
X030189Y057651D02*
X029595Y057651D01*
X029595Y058651D02*
X030189Y058651D01*
X006732Y055948D02*
X006732Y055354D01*
X005732Y055354D02*
X005732Y055948D01*
X004732Y055948D02*
X004732Y055354D01*
X004732Y050098D02*
X004732Y049504D01*
X005732Y049504D02*
X005732Y050098D01*
X006732Y050098D02*
X006732Y049504D01*
X006154Y039144D02*
X005560Y039144D01*
X005560Y038144D02*
X006154Y038144D01*
X006154Y037144D02*
X005560Y037144D01*
X005560Y036144D02*
X006154Y036144D01*
X006154Y035144D02*
X005560Y035144D01*
X005560Y034144D02*
X006154Y034144D01*
X009307Y035147D02*
X009307Y035741D01*
X010307Y035741D02*
X010307Y035147D01*
X011307Y035147D02*
X011307Y035741D01*
X049184Y038075D02*
X049777Y038075D01*
X049777Y039075D02*
X049184Y039075D01*
X049184Y040075D02*
X049777Y040075D01*
X074329Y049351D02*
X074923Y049351D01*
X074923Y050351D02*
X074329Y050351D01*
X080861Y047373D02*
X080861Y046779D01*
X081861Y046779D02*
X081861Y047373D01*
X082861Y047373D02*
X082861Y046779D01*
X083861Y046779D02*
X083861Y047373D01*
X084861Y047373D02*
X084861Y046779D01*
X085861Y046779D02*
X085861Y047373D01*
X086861Y047373D02*
X086861Y046779D01*
X098689Y049101D02*
X099283Y049101D01*
X099283Y050101D02*
X098689Y050101D01*
X098689Y051101D02*
X099283Y051101D01*
X079008Y056651D02*
X078414Y056651D01*
X078414Y057651D02*
X079008Y057651D01*
X079008Y058651D02*
X078414Y058651D01*
X095158Y012925D02*
X095752Y012925D01*
X095752Y011925D02*
X095158Y011925D01*
X095158Y010925D02*
X095752Y010925D01*
X095752Y009925D02*
X095158Y009925D01*
X095159Y008050D02*
X095752Y008050D01*
X095752Y007050D02*
X095159Y007050D01*
X067031Y010528D02*
X067031Y011122D01*
X066031Y011122D02*
X066031Y010528D01*
X049777Y007750D02*
X049184Y007750D01*
X049184Y006750D02*
X049777Y006750D01*
X049777Y005750D02*
X049184Y005750D01*
D17*
X036716Y082755D02*
X036716Y083700D01*
X034516Y083700D02*
X034516Y082755D01*
X032316Y082755D02*
X032316Y083700D01*
X081135Y083700D02*
X081135Y082755D01*
X083335Y082755D02*
X083335Y083700D01*
X085535Y083700D02*
X085535Y082755D01*
D18*
X087136Y083226D03*
X088636Y083226D03*
X094986Y083376D03*
X094986Y081876D03*
X072976Y073326D03*
X046167Y081876D03*
X046167Y083376D03*
X039817Y083226D03*
X038317Y083226D03*
X024157Y073326D03*
X023457Y028469D03*
X026457Y028469D03*
D19*
X029267Y068251D03*
X029267Y068251D03*
X078086Y068251D03*
X078086Y068251D03*
D20*
X095386Y074701D03*
X068501Y054326D03*
X060426Y059926D03*
X046567Y074701D03*
X019682Y054326D03*
X011607Y059926D03*
X042231Y030025D03*
X041206Y025975D03*
D21*
X041206Y024975D03*
X041231Y030025D03*
X019682Y052926D03*
X011607Y058526D03*
X046567Y073701D03*
X060426Y058526D03*
X068501Y052926D03*
X095386Y073701D03*
D22*
X092603Y083078D02*
X092603Y083678D01*
X091603Y083678D02*
X091603Y083078D01*
X090603Y083078D02*
X090603Y083678D01*
X073705Y083678D02*
X073705Y083078D01*
X072705Y083078D02*
X072705Y083678D01*
X071705Y083678D02*
X071705Y083078D01*
X068981Y083078D02*
X068981Y083678D01*
X067981Y083678D02*
X067981Y083078D01*
X066981Y083078D02*
X066981Y083678D01*
X043784Y083678D02*
X043784Y083078D01*
X042784Y083078D02*
X042784Y083678D01*
X041784Y083678D02*
X041784Y083078D01*
X024886Y083078D02*
X024886Y083678D01*
X023886Y083678D02*
X023886Y083078D01*
X022886Y083078D02*
X022886Y083678D01*
X020162Y083678D02*
X020162Y083078D01*
X019162Y083078D02*
X019162Y083678D01*
X018162Y083678D02*
X018162Y083078D01*
D23*
X023657Y062251D03*
X029267Y062251D03*
X072476Y062251D03*
X078086Y062251D03*
X091406Y037975D03*
D24*
X067801Y056126D03*
X066801Y056126D03*
X068401Y057826D03*
X068401Y058826D03*
X059326Y049701D03*
X058326Y049701D03*
X019582Y057826D03*
X019582Y058826D03*
X018982Y056126D03*
X017982Y056126D03*
X010507Y049701D03*
X009507Y049701D03*
X084631Y005625D03*
D25*
X064132Y083000D02*
X063364Y083000D01*
X061179Y083000D02*
X060412Y083000D01*
X058227Y083000D02*
X057459Y083000D01*
X054290Y083000D02*
X053522Y083000D01*
X015313Y083000D02*
X014546Y083000D01*
X012360Y083000D02*
X011593Y083000D01*
X009408Y083000D02*
X008640Y083000D01*
X005471Y083000D02*
X004703Y083000D01*
D26*
X008307Y080226D03*
X010307Y080226D03*
X026157Y073326D03*
X020182Y050676D03*
X019682Y049926D03*
X019182Y050676D03*
X057126Y080226D03*
X059126Y080226D03*
X074976Y073326D03*
X069001Y050676D03*
X068501Y049926D03*
X068001Y050676D03*
D27*
X085256Y036925D03*
X085506Y036925D03*
X063851Y068276D03*
X015032Y068276D03*
D28*
X015032Y068276D03*
X063851Y068276D03*
X093256Y022075D03*
D29*
X063701Y063651D03*
X059826Y068276D03*
X063701Y072901D03*
X014882Y072901D03*
X011007Y068276D03*
X014882Y063651D03*
D30*
X018882Y063651D03*
X015007Y068276D03*
X018882Y072901D03*
X007007Y068276D03*
X055826Y068276D03*
X063826Y068276D03*
X067701Y072901D03*
X067701Y063651D03*
D31*
X055724Y059082D03*
X019898Y041018D03*
X006905Y059082D03*
X005692Y014244D03*
X009111Y013989D03*
X009117Y011609D03*
X005692Y010307D03*
X013054Y010743D03*
X013048Y013122D03*
D32*
X019898Y043018D03*
X006905Y061082D03*
X055724Y061082D03*
D33*
X063701Y057901D03*
X066701Y057901D03*
X065226Y051501D03*
X065226Y048501D03*
X087006Y036925D03*
X087256Y036925D03*
X017882Y057901D03*
X014882Y057901D03*
X016407Y051501D03*
X016407Y048501D03*
D34*
X019357Y047676D03*
X026057Y054376D03*
X026057Y057126D03*
X068176Y047676D03*
X074876Y054376D03*
X074876Y057126D03*
X074631Y006625D03*
X075631Y006625D03*
X076631Y006625D03*
X077631Y006625D03*
X078631Y006625D03*
X079631Y006625D03*
X080631Y006625D03*
X081631Y006625D03*
X082631Y006625D03*
X083631Y006625D03*
X084631Y006625D03*
X083631Y005625D03*
X082631Y005625D03*
X081631Y005625D03*
X080631Y005625D03*
X079631Y005625D03*
X078631Y005625D03*
X077631Y005625D03*
X076631Y005625D03*
X075631Y005625D03*
X074631Y005625D03*
X073631Y005625D03*
X073631Y006625D03*
X072631Y006625D03*
X072631Y005625D03*
X071631Y005625D03*
X071631Y006625D03*
X070631Y006625D03*
X070631Y005625D03*
X069631Y005625D03*
X069631Y006625D03*
X068631Y006625D03*
X068631Y005625D03*
X067631Y005625D03*
X067631Y006625D03*
X066631Y006625D03*
X066631Y005625D03*
X065631Y005625D03*
X065631Y006625D03*
D35*
X068176Y048676D03*
X074876Y055376D03*
X074876Y058126D03*
X026057Y058126D03*
X026057Y055376D03*
X019357Y048676D03*
D36*
X025157Y073326D03*
X073976Y073326D03*
D37*
X022683Y039369D03*
D38*
X024683Y039369D03*
X024683Y041369D03*
X022683Y041369D03*
X075481Y023850D03*
D39*
X014982Y039369D03*
D40*
X018573Y014794D03*
X020542Y014794D03*
D41*
X016729Y019672D03*
X016729Y021641D03*
X017713Y021641D03*
X017713Y023609D03*
X017713Y027546D03*
X016729Y027546D03*
X016729Y029515D03*
X017713Y029515D03*
X007870Y027546D03*
X006886Y027546D03*
X006886Y029515D03*
X007870Y025578D03*
X007870Y023609D03*
X007870Y021641D03*
X006886Y021641D03*
X006886Y019672D03*
D42*
X006886Y024594D03*
X086256Y024065D03*
D43*
X022243Y012814D03*
X022243Y010558D03*
X016243Y010558D03*
X016243Y012814D03*
D44*
X020620Y019344D02*
X021445Y019344D01*
X021445Y021494D02*
X020620Y021494D01*
X020620Y023644D02*
X021445Y023644D01*
X024320Y023644D02*
X025145Y023644D01*
X025145Y021494D02*
X024320Y021494D01*
X024320Y019344D02*
X025145Y019344D01*
D45*
X024957Y012969D03*
X024957Y010969D03*
D46*
X023507Y016494D03*
X023507Y026494D03*
D47*
X037666Y033590D03*
X045166Y033590D03*
X045166Y012724D03*
X037666Y012724D03*
X031366Y008787D03*
D48*
X063465Y007200D03*
X086694Y007200D03*
X086694Y040665D03*
X063465Y040665D03*
D49*
X060894Y042626D03*
X060894Y043452D03*
X060894Y036759D03*
X060894Y035933D03*
X060894Y032822D03*
X060894Y031996D03*
X051150Y035933D03*
X051150Y036759D03*
X045166Y018649D03*
X045166Y017822D03*
X051150Y015893D03*
X051150Y015067D03*
X060894Y015067D03*
X060894Y015893D03*
X060894Y011956D03*
X060894Y011130D03*
X037666Y017822D03*
X037666Y018649D03*
D50*
X095105Y027225D03*
X095656Y027225D03*
D51*
X092769Y014009D02*
X092769Y013171D01*
X092207Y013171D01*
X092207Y014009D01*
X092769Y014009D01*
X092769Y013269D02*
X092207Y013269D01*
X092207Y013367D02*
X092769Y013367D01*
X092769Y013465D02*
X092207Y013465D01*
X092207Y013563D02*
X092769Y013563D01*
X092769Y013661D02*
X092207Y013661D01*
X092207Y013759D02*
X092769Y013759D01*
X092769Y013857D02*
X092207Y013857D01*
X092207Y013955D02*
X092769Y013955D01*
X090998Y014009D02*
X090998Y013171D01*
X090436Y013171D01*
X090436Y014009D01*
X090998Y014009D01*
X090998Y013269D02*
X090436Y013269D01*
X090436Y013367D02*
X090998Y013367D01*
X090998Y013465D02*
X090436Y013465D01*
X090436Y013563D02*
X090998Y013563D01*
X090998Y013661D02*
X090436Y013661D01*
X090436Y013759D02*
X090998Y013759D01*
X090998Y013857D02*
X090436Y013857D01*
X090436Y013955D02*
X090998Y013955D01*
X090998Y010702D02*
X090998Y009864D01*
X090436Y009864D01*
X090436Y010702D01*
X090998Y010702D01*
X090998Y009962D02*
X090436Y009962D01*
X090436Y010060D02*
X090998Y010060D01*
X090998Y010158D02*
X090436Y010158D01*
X090436Y010256D02*
X090998Y010256D01*
X090998Y010354D02*
X090436Y010354D01*
X090436Y010452D02*
X090998Y010452D01*
X090998Y010550D02*
X090436Y010550D01*
X090436Y010648D02*
X090998Y010648D01*
X091884Y010702D02*
X091884Y009864D01*
X091322Y009864D01*
X091322Y010702D01*
X091884Y010702D01*
X091884Y009962D02*
X091322Y009962D01*
X091322Y010060D02*
X091884Y010060D01*
X091884Y010158D02*
X091322Y010158D01*
X091322Y010256D02*
X091884Y010256D01*
X091884Y010354D02*
X091322Y010354D01*
X091322Y010452D02*
X091884Y010452D01*
X091884Y010550D02*
X091322Y010550D01*
X091322Y010648D02*
X091884Y010648D01*
X092769Y010702D02*
X092769Y009864D01*
X092207Y009864D01*
X092207Y010702D01*
X092769Y010702D01*
X092769Y009962D02*
X092207Y009962D01*
X092207Y010060D02*
X092769Y010060D01*
X092769Y010158D02*
X092207Y010158D01*
X092207Y010256D02*
X092769Y010256D01*
X092769Y010354D02*
X092207Y010354D01*
X092207Y010452D02*
X092769Y010452D01*
X092769Y010550D02*
X092207Y010550D01*
X092207Y010648D02*
X092769Y010648D01*
D52*
X093906Y037475D03*
X093906Y041975D03*
D53*
X092705Y042776D03*
X092705Y036674D03*
D54*
X086256Y016195D03*
D55*
X086481Y014850D03*
X087481Y014850D03*
X088481Y014850D03*
X085481Y014850D03*
X084481Y014850D03*
X083481Y014850D03*
X081481Y014850D03*
X080481Y014850D03*
X079481Y014850D03*
X078481Y014850D03*
X077481Y014850D03*
X076481Y014850D03*
X075481Y014850D03*
X074481Y014850D03*
X072481Y014850D03*
X071481Y014850D03*
X070481Y014850D03*
X069481Y014850D03*
X068481Y014850D03*
X067481Y014850D03*
X066481Y014850D03*
X065481Y014850D03*
X064481Y016850D03*
X063481Y016850D03*
X063481Y017850D03*
X064481Y017850D03*
X064481Y018850D03*
X064481Y019850D03*
X064481Y020850D03*
X064481Y021850D03*
X064481Y022850D03*
X063481Y022850D03*
X063481Y021850D03*
X063481Y020850D03*
X063481Y019850D03*
X063481Y018850D03*
X063481Y023850D03*
X064481Y023850D03*
X064481Y024850D03*
X064481Y025850D03*
X064481Y026850D03*
X064481Y027850D03*
X064481Y028850D03*
X063481Y028850D03*
X063481Y027850D03*
X063481Y026850D03*
X063481Y025850D03*
X063481Y024850D03*
X063481Y029850D03*
X064481Y029850D03*
X064481Y030850D03*
X064481Y031850D03*
X064481Y032850D03*
X064481Y033850D03*
X063481Y033850D03*
X063481Y032850D03*
X063481Y031850D03*
X063481Y030850D03*
X067481Y033850D03*
X068481Y033850D03*
X069481Y033850D03*
X070481Y033850D03*
X071481Y033850D03*
X072481Y033850D03*
X073481Y033850D03*
X074481Y033850D03*
X076481Y033850D03*
X077481Y033850D03*
X078481Y033850D03*
X079481Y033850D03*
X080481Y033850D03*
X081481Y033850D03*
X082481Y033850D03*
X083481Y033850D03*
X085081Y033850D03*
X086081Y033850D03*
X087081Y033850D03*
X088081Y033850D03*
X089081Y033850D03*
X090081Y033850D03*
X091081Y033850D03*
X092081Y033850D03*
X076481Y025850D03*
X076481Y024850D03*
X076481Y023850D03*
X075481Y024850D03*
X075481Y025850D03*
D56*
X054581Y032150D03*
X053581Y032150D03*
X052581Y032150D03*
X051581Y032150D03*
X050581Y032150D03*
X049581Y032150D03*
X049581Y034150D03*
X050581Y034150D03*
X051581Y034150D03*
X052581Y034150D03*
X053581Y034150D03*
X054581Y034150D03*
X054581Y013300D03*
X053581Y013300D03*
X052581Y013300D03*
X051581Y013300D03*
X050581Y013300D03*
X049581Y013300D03*
X049581Y011300D03*
X050581Y011300D03*
X051581Y011300D03*
X052581Y011300D03*
X053581Y011300D03*
X054581Y011300D03*
D57*
X045697Y038757D03*
X045697Y039446D03*
X044634Y039446D03*
X044634Y038757D03*
X038197Y038757D03*
X038197Y039446D03*
X037134Y039446D03*
X037134Y038757D03*
D58*
X035742Y028086D03*
X035742Y026102D03*
X035742Y024117D03*
X038719Y024117D03*
X038719Y026102D03*
X038719Y028086D03*
X046470Y025838D03*
X048454Y025838D03*
X050438Y025838D03*
X050438Y022862D03*
X048454Y022862D03*
X046470Y022862D03*
D59*
X038719Y018165D03*
X035742Y018165D03*
X056391Y022862D03*
X056391Y025838D03*
D60*
X062306Y015650D03*
X062306Y008850D03*
X082256Y019350D03*
X082806Y019800D03*
X084056Y023700D03*
X084056Y024950D03*
X084631Y026550D03*
X084056Y027050D03*
X084631Y029325D03*
X084056Y031925D03*
X084631Y032350D03*
X083556Y037875D03*
X077856Y028850D03*
X079506Y026950D03*
X074931Y028800D03*
X092331Y024250D03*
X090231Y009475D03*
X091656Y007800D03*
X091656Y007225D03*
X091656Y006650D03*
X091656Y006075D03*
X091656Y005500D03*
X088356Y005500D03*
X088356Y006075D03*
X088356Y006650D03*
X088356Y007225D03*
X088356Y007800D03*
X084006Y009000D03*
X080211Y052726D03*
X070326Y060676D03*
X081661Y062526D03*
X082261Y063376D03*
X085661Y067526D03*
X085336Y068326D03*
X088686Y067526D03*
X089261Y072401D03*
X089261Y072876D03*
X040442Y072876D03*
X040442Y072401D03*
X036517Y068326D03*
X036842Y067526D03*
X039867Y067526D03*
X033442Y063376D03*
X032842Y062526D03*
X031392Y052726D03*
X021507Y060676D03*
D61*
X023857Y059601D03*
X024307Y060551D03*
X020932Y057276D03*
X020957Y055401D03*
X011032Y054251D03*
X011032Y053826D03*
X010957Y052351D03*
X010532Y052351D03*
X008632Y055076D03*
X008632Y055501D03*
X008632Y056401D03*
X008632Y056826D03*
X008857Y042969D03*
X009432Y042969D03*
X010007Y042969D03*
X010582Y042969D03*
X011157Y042969D03*
X029067Y070751D03*
X029492Y070751D03*
X029292Y071176D03*
X029717Y071176D03*
X029717Y071601D03*
X029292Y071601D03*
X028867Y071601D03*
X028867Y071176D03*
X032442Y071976D03*
X032817Y071976D03*
X033192Y071976D03*
X033567Y071976D03*
X033567Y072351D03*
X033192Y072351D03*
X032817Y072351D03*
X032442Y072351D03*
X048267Y073601D03*
X048267Y074026D03*
X048267Y074451D03*
X057451Y056826D03*
X057451Y056401D03*
X057451Y055501D03*
X057451Y055076D03*
X059851Y054251D03*
X059851Y053826D03*
X059776Y052351D03*
X059351Y052351D03*
X069776Y055401D03*
X069751Y057276D03*
X072676Y059601D03*
X073126Y060551D03*
X077886Y070751D03*
X078311Y070751D03*
X078111Y071176D03*
X078536Y071176D03*
X078536Y071601D03*
X078111Y071601D03*
X077686Y071601D03*
X077686Y071176D03*
X081261Y071976D03*
X081636Y071976D03*
X082011Y071976D03*
X082386Y071976D03*
X082386Y072351D03*
X082011Y072351D03*
X081636Y072351D03*
X081261Y072351D03*
X097086Y073601D03*
X097086Y074026D03*
X097086Y074451D03*
D62*
X099083Y083196D03*
X078610Y083196D03*
X074673Y080834D03*
X054201Y080834D03*
X050264Y083196D03*
X029792Y083196D03*
X025855Y080834D03*
X005382Y080834D03*
X005382Y046976D03*
X025855Y046976D03*
X029792Y046976D03*
X050264Y046976D03*
X054201Y046976D03*
X074673Y046976D03*
X078610Y046976D03*
X099083Y046976D03*
D63*
X005382Y006819D03*
X025855Y006819D03*
X025855Y043039D03*
X029792Y043039D03*
X005382Y043039D03*
X095540Y004850D03*
D64*
X008857Y007194D03*
M02*
