G75*
G70*
%OFA0B0*%
%FSLAX24Y24*%
%IPPOS*%
%LPD*%
%AMOC8*
5,1,8,0,0,1.08239X$1,22.5*
%
%ADD10C,0.1000*%
%ADD11C,0.0700*%
%ADD12C,0.1200*%
%ADD13C,0.0720*%
%ADD14C,0.1200*%
%ADD15C,0.1062*%
%ADD16C,0.0712*%
%ADD17C,0.5318*%
%ADD18C,0.0618*%
%ADD19R,0.0618X0.0618*%
%ADD20C,0.1460*%
%ADD21C,0.0661*%
%ADD22OC8,0.0624*%
%ADD23C,0.0672*%
%ADD24C,0.0712*%
%ADD25C,0.0476*%
%ADD26OC8,0.0780*%
%ADD27C,0.0840*%
%ADD28OC8,0.0840*%
%ADD29C,0.0099*%
%ADD30R,0.0712X0.0712*%
%ADD31C,0.1480*%
%ADD32C,0.1263*%
%ADD33OC8,0.0756*%
%ADD34C,0.0756*%
%ADD35C,0.1381*%
%ADD36C,0.0921*%
%ADD37C,0.1032*%
%ADD38OC8,0.1032*%
%ADD39OC8,0.0665*%
%ADD40OC8,0.0720*%
%ADD41OC8,0.0712*%
%ADD42C,0.1134*%
%ADD43OC8,0.0672*%
%ADD44OC8,0.0523*%
%ADD45C,0.0921*%
%ADD46C,0.2010*%
%ADD47OC8,0.2010*%
%ADD48OC8,0.1200*%
%ADD49OC8,0.0618*%
%ADD50C,0.0672*%
%ADD51C,0.0720*%
%ADD52OC8,0.1381*%
%ADD53OC8,0.0792*%
%ADD54OC8,0.1450*%
%ADD55OC8,0.1062*%
%ADD56C,0.0990*%
%ADD57OC8,0.0912*%
%ADD58C,0.1700*%
%ADD59OC8,0.0523*%
%ADD60C,0.2562*%
%ADD61R,0.0523X0.0523*%
%ADD62C,0.2365*%
D10*
X023299Y066776D02*
X021849Y068226D01*
X023299Y066776D02*
X029274Y066776D01*
X036083Y071201D02*
X036083Y077401D01*
X041308Y082626D01*
X041883Y079826D02*
X052208Y079826D01*
X054558Y077476D01*
X054558Y071176D01*
X055783Y069951D01*
X056683Y069951D01*
X056858Y072376D02*
X056858Y077926D01*
X052858Y081926D01*
X047908Y081926D01*
X046733Y083101D01*
X041883Y079826D02*
X039808Y077751D01*
X039808Y072351D01*
X025949Y077926D02*
X021749Y073726D01*
X021749Y073201D01*
X018774Y081251D02*
X013649Y076126D01*
X012574Y076126D01*
X012574Y078101D02*
X015824Y081351D01*
X015824Y082876D01*
X018774Y082876D02*
X018774Y081251D01*
X061393Y078101D02*
X064643Y081351D01*
X064643Y082876D01*
X067593Y082876D02*
X067593Y081251D01*
X062468Y076126D01*
X061393Y076126D01*
X070568Y073726D02*
X074768Y077926D01*
X070568Y073726D02*
X070568Y073201D01*
X070668Y068226D02*
X072118Y066776D01*
X078093Y066776D01*
X084902Y071201D02*
X084902Y077401D01*
X090127Y082626D01*
X090702Y079826D02*
X101027Y079826D01*
X103377Y077476D01*
X103377Y071176D01*
X104602Y069951D01*
X105502Y069951D01*
X105677Y072376D02*
X105677Y077926D01*
X101677Y081926D01*
X096727Y081926D01*
X095552Y083101D01*
X090702Y079826D02*
X088627Y077751D01*
X088627Y072351D01*
D11*
X079493Y080376D02*
X077143Y078026D01*
X074768Y078026D01*
X074768Y078001D01*
X074768Y078026D02*
X074768Y083401D01*
X079493Y083351D02*
X079493Y080376D01*
X030674Y080376D02*
X028324Y078026D01*
X025949Y078026D01*
X025949Y078001D01*
X025949Y078026D02*
X025949Y083401D01*
X030674Y083351D02*
X030674Y080376D01*
D12*
X013068Y078073D02*
X012068Y078073D01*
X012068Y076104D02*
X013068Y076104D01*
X056183Y071901D02*
X057183Y071901D01*
X057183Y069933D02*
X056183Y069933D01*
X056183Y067964D02*
X057183Y067964D01*
X057183Y065996D02*
X056183Y065996D01*
X060887Y076104D02*
X061887Y076104D01*
X061887Y078073D02*
X060887Y078073D01*
X105002Y071901D02*
X106002Y071901D01*
X106002Y069933D02*
X105002Y069933D01*
X105002Y067964D02*
X106002Y067964D01*
X106002Y065996D02*
X105002Y065996D01*
X035190Y031175D02*
X034190Y031175D01*
X034190Y029207D02*
X035190Y029207D01*
X035190Y027238D02*
X034190Y027238D01*
X034190Y025270D02*
X035190Y025270D01*
X035190Y021575D02*
X034190Y021575D01*
X034190Y019607D02*
X035190Y019607D01*
X035190Y017638D02*
X034190Y017638D01*
X034190Y015670D02*
X035190Y015670D01*
X019603Y005757D02*
X019603Y004757D01*
X017634Y004757D02*
X017634Y005757D01*
X015666Y005757D02*
X015666Y004757D01*
X013697Y004757D02*
X013697Y005757D01*
X011729Y005757D02*
X011729Y004757D01*
D13*
X041239Y005650D02*
X041239Y006250D01*
X041239Y008300D02*
X041239Y008900D01*
X044239Y008000D02*
X044239Y007400D01*
X044239Y005350D02*
X044239Y004750D01*
X055964Y005300D02*
X055964Y005900D01*
X055939Y008200D02*
X055939Y008800D01*
X058939Y007900D02*
X058939Y007300D01*
X058964Y005000D02*
X058964Y004400D01*
X059216Y037972D02*
X058616Y037972D01*
X056715Y037979D02*
X056115Y037979D01*
X057015Y040979D02*
X057615Y040979D01*
X059516Y040972D02*
X060116Y040972D01*
X044790Y042225D02*
X044190Y042225D01*
X042490Y042225D02*
X041890Y042225D01*
X041590Y039225D02*
X040990Y039225D01*
X043290Y039225D02*
X043890Y039225D01*
X048575Y083078D02*
X048575Y083678D01*
X049575Y083678D02*
X049575Y083078D01*
X050575Y083078D02*
X050575Y083678D01*
X031677Y083678D02*
X031677Y083078D01*
X030677Y083078D02*
X030677Y083678D01*
X029677Y083678D02*
X029677Y083078D01*
X026953Y083078D02*
X026953Y083678D01*
X025953Y083678D02*
X025953Y083078D01*
X024953Y083078D02*
X024953Y083678D01*
X073772Y083678D02*
X073772Y083078D01*
X074772Y083078D02*
X074772Y083678D01*
X075772Y083678D02*
X075772Y083078D01*
X078496Y083078D02*
X078496Y083678D01*
X079496Y083678D02*
X079496Y083078D01*
X080496Y083078D02*
X080496Y083678D01*
X097394Y083678D02*
X097394Y083078D01*
X098394Y083078D02*
X098394Y083678D01*
X099394Y083678D02*
X099394Y083078D01*
D14*
X062515Y059082D03*
X038725Y041675D03*
X034788Y041675D03*
X020390Y039049D03*
X013696Y059082D03*
X009603Y012020D03*
X009609Y009641D03*
X006184Y008338D03*
X006184Y012275D03*
X013540Y011154D03*
X013546Y008774D03*
X037940Y008298D03*
X037940Y004361D03*
D15*
X046097Y005450D02*
X046982Y005450D01*
X046982Y008150D02*
X046097Y008150D01*
X052097Y008150D02*
X052982Y008150D01*
X052982Y005450D02*
X052097Y005450D01*
X034015Y033083D02*
X034015Y033968D01*
X034015Y039083D02*
X034015Y039968D01*
X047122Y042875D02*
X048007Y042875D01*
X053122Y042875D02*
X054007Y042875D01*
D16*
X056661Y049101D02*
X057255Y049101D01*
X057255Y050101D02*
X056661Y050101D01*
X056661Y051101D02*
X057255Y051101D01*
X060343Y050098D02*
X060343Y049504D01*
X061343Y049504D02*
X061343Y050098D01*
X062343Y050098D02*
X062343Y049504D01*
X062343Y055354D02*
X062343Y055948D01*
X061343Y055948D02*
X061343Y055354D01*
X060343Y055354D02*
X060343Y055948D01*
X044833Y047373D02*
X044833Y046779D01*
X043833Y046779D02*
X043833Y047373D01*
X042833Y047373D02*
X042833Y046779D01*
X041833Y046779D02*
X041833Y047373D01*
X040833Y047373D02*
X040833Y046779D01*
X039833Y046779D02*
X039833Y047373D01*
X038833Y047373D02*
X038833Y046779D01*
X032896Y049351D02*
X032302Y049351D01*
X032302Y050351D02*
X032896Y050351D01*
X036386Y056651D02*
X036980Y056651D01*
X036980Y057651D02*
X036386Y057651D01*
X036386Y058651D02*
X036980Y058651D01*
X013524Y055948D02*
X013524Y055354D01*
X012524Y055354D02*
X012524Y055948D01*
X011524Y055948D02*
X011524Y055354D01*
X011524Y050098D02*
X011524Y049504D01*
X012524Y049504D02*
X012524Y050098D01*
X013524Y050098D02*
X013524Y049504D01*
X006646Y037175D02*
X006053Y037175D01*
X006053Y036175D02*
X006646Y036175D01*
X006646Y035175D02*
X006053Y035175D01*
X006053Y034175D02*
X006646Y034175D01*
X006646Y033175D02*
X006053Y033175D01*
X006053Y032175D02*
X006646Y032175D01*
X009799Y033178D02*
X009799Y033772D01*
X010799Y033772D02*
X010799Y033178D01*
X011799Y033178D02*
X011799Y033772D01*
X063248Y028375D02*
X063248Y027781D01*
X064248Y027781D02*
X064248Y028375D01*
X069493Y037400D02*
X070087Y037400D01*
X070087Y038400D02*
X069493Y038400D01*
X069493Y039400D02*
X070087Y039400D01*
X081121Y049351D02*
X081714Y049351D01*
X081714Y050351D02*
X081121Y050351D01*
X087652Y047373D02*
X087652Y046779D01*
X088652Y046779D02*
X088652Y047373D01*
X089652Y047373D02*
X089652Y046779D01*
X090652Y046779D02*
X090652Y047373D01*
X091652Y047373D02*
X091652Y046779D01*
X092652Y046779D02*
X092652Y047373D01*
X093652Y047373D02*
X093652Y046779D01*
X105480Y049101D02*
X106074Y049101D01*
X106074Y050101D02*
X105480Y050101D01*
X105480Y051101D02*
X106074Y051101D01*
X085799Y056651D02*
X085205Y056651D01*
X085205Y057651D02*
X085799Y057651D01*
X085799Y058651D02*
X085205Y058651D01*
X105493Y012925D02*
X106086Y012925D01*
X106086Y011925D02*
X105493Y011925D01*
X105493Y010925D02*
X106086Y010925D01*
X106086Y009925D02*
X105493Y009925D01*
X105493Y008050D02*
X106087Y008050D01*
X106087Y007050D02*
X105493Y007050D01*
X077365Y010528D02*
X077365Y011122D01*
X076365Y011122D02*
X076365Y010528D01*
X070087Y008275D02*
X069493Y008275D01*
X069493Y007275D02*
X070087Y007275D01*
X070087Y006275D02*
X069493Y006275D01*
X064248Y006915D02*
X064248Y007509D01*
X063248Y007509D02*
X063248Y006915D01*
D17*
X061445Y012724D03*
X053965Y012724D03*
X046445Y012724D03*
X038945Y012724D03*
X032646Y007212D03*
X038945Y033590D03*
X046445Y033590D03*
X053945Y033590D03*
X061445Y033590D03*
D18*
X074968Y047676D03*
X081668Y054376D03*
X081668Y057126D03*
X032849Y057126D03*
X032849Y054376D03*
X026149Y047676D03*
X075965Y006632D03*
X075965Y005632D03*
X076965Y005632D03*
X076965Y006632D03*
X077965Y006632D03*
X077965Y005632D03*
X078965Y005632D03*
X078965Y006632D03*
X079965Y006632D03*
X079965Y005632D03*
X080965Y005632D03*
X080965Y006632D03*
X081965Y006632D03*
X081965Y005632D03*
X082965Y005632D03*
X082965Y006632D03*
X083965Y006632D03*
X083965Y005632D03*
X084965Y005632D03*
X084965Y006632D03*
X085965Y006632D03*
X085965Y005632D03*
X086965Y005632D03*
X086965Y006632D03*
X087965Y006632D03*
X087965Y005632D03*
X088965Y005632D03*
X088965Y006632D03*
X089965Y006632D03*
X089965Y005632D03*
X090965Y005632D03*
X090965Y006632D03*
X091965Y006632D03*
X091965Y005632D03*
X092965Y005632D03*
X092965Y006632D03*
X093965Y006632D03*
X093965Y005632D03*
X094965Y006632D03*
D19*
X094965Y005632D03*
X066118Y049701D03*
X065118Y049701D03*
X073593Y056126D03*
X074593Y056126D03*
X075193Y057826D03*
X075193Y058826D03*
X026374Y058826D03*
X026374Y057826D03*
X025774Y056126D03*
X024774Y056126D03*
X017299Y049701D03*
X016299Y049701D03*
D20*
X073800Y040671D03*
X097028Y040671D03*
X097028Y007207D03*
X073800Y007207D03*
D21*
X061445Y038102D03*
X061445Y039102D03*
X061445Y040102D03*
X038945Y040102D03*
X038945Y039102D03*
X038945Y038102D03*
D22*
X045945Y039102D03*
X046945Y039102D03*
X053445Y039102D03*
X054445Y039102D03*
X069941Y035559D03*
X070941Y035559D03*
X070941Y031622D03*
X069941Y031622D03*
X070441Y042539D03*
X070441Y043539D03*
X075293Y049926D03*
X075793Y050676D03*
X074793Y050676D03*
X081768Y073326D03*
X065918Y080226D03*
X063918Y080226D03*
X032949Y073326D03*
X017099Y080226D03*
X015099Y080226D03*
X025974Y050676D03*
X026474Y049926D03*
X026974Y050676D03*
X038445Y018236D03*
X039445Y018236D03*
X045945Y018236D03*
X046945Y018236D03*
X053445Y018236D03*
X054445Y018236D03*
X060945Y018236D03*
X061945Y018236D03*
X069941Y014693D03*
X070941Y014693D03*
X070941Y010756D03*
X069941Y010756D03*
D23*
X077815Y012845D02*
X077815Y013405D01*
X078815Y013405D02*
X078815Y012845D01*
X093315Y012955D02*
X093315Y012395D01*
X094315Y012395D02*
X094315Y012955D01*
X095315Y012955D02*
X095315Y012395D01*
X105135Y019875D02*
X105695Y019875D01*
X105695Y020875D02*
X105135Y020875D01*
X102607Y051176D02*
X102047Y051176D01*
X102047Y052176D02*
X102607Y052176D01*
X102607Y053176D02*
X102047Y053176D01*
X102047Y054176D02*
X102607Y054176D01*
X053788Y054176D02*
X053228Y054176D01*
X053228Y053176D02*
X053788Y053176D01*
X053788Y052176D02*
X053228Y052176D01*
X053228Y051176D02*
X053788Y051176D01*
D24*
X052608Y047951D03*
X052608Y046951D03*
X051608Y046951D03*
X050608Y046951D03*
X049608Y046951D03*
X048608Y046951D03*
X048608Y047951D03*
X049608Y047951D03*
X050608Y047951D03*
X051608Y047951D03*
X077565Y042975D03*
X077565Y041975D03*
X078565Y041975D03*
X078565Y042975D03*
X079565Y042975D03*
X079565Y041975D03*
X080565Y041975D03*
X080565Y042975D03*
X081565Y042975D03*
X081565Y041975D03*
X087565Y041975D03*
X087565Y042975D03*
X088565Y042975D03*
X088565Y041975D03*
X089565Y041975D03*
X089565Y042975D03*
X090565Y042975D03*
X090565Y041975D03*
X091565Y041975D03*
X091565Y042975D03*
X097427Y046951D03*
X098427Y046951D03*
X099427Y046951D03*
X100427Y046951D03*
X101427Y046951D03*
X101427Y047951D03*
X100427Y047951D03*
X099427Y047951D03*
X098427Y047951D03*
X097427Y047951D03*
X105571Y042215D03*
X106240Y041215D03*
X105571Y038235D03*
X106240Y037235D03*
X101740Y038975D03*
X100740Y038475D03*
X100740Y039475D03*
X100740Y040475D03*
X100740Y041475D03*
X101740Y040975D03*
X101740Y039975D03*
D25*
X105440Y027225D03*
X105991Y027225D03*
D26*
X103590Y022075D03*
X070643Y068276D03*
X021824Y068276D03*
D27*
X021674Y057901D03*
X024674Y057901D03*
X023199Y051501D03*
X023199Y048501D03*
X016424Y040350D03*
X013424Y040350D03*
X070493Y057901D03*
X073493Y057901D03*
X072018Y051501D03*
X072018Y048501D03*
X097340Y036925D03*
X097590Y036925D03*
D28*
X095840Y036925D03*
X095590Y036925D03*
X070643Y068276D03*
X021824Y068276D03*
D29*
X101332Y014009D02*
X101332Y013171D01*
X100770Y013171D01*
X100770Y014009D01*
X101332Y014009D01*
X101332Y013269D02*
X100770Y013269D01*
X100770Y013367D02*
X101332Y013367D01*
X101332Y013465D02*
X100770Y013465D01*
X100770Y013563D02*
X101332Y013563D01*
X101332Y013661D02*
X100770Y013661D01*
X100770Y013759D02*
X101332Y013759D01*
X101332Y013857D02*
X100770Y013857D01*
X100770Y013955D02*
X101332Y013955D01*
X103104Y014009D02*
X103104Y013171D01*
X102542Y013171D01*
X102542Y014009D01*
X103104Y014009D01*
X103104Y013269D02*
X102542Y013269D01*
X102542Y013367D02*
X103104Y013367D01*
X103104Y013465D02*
X102542Y013465D01*
X102542Y013563D02*
X103104Y013563D01*
X103104Y013661D02*
X102542Y013661D01*
X102542Y013759D02*
X103104Y013759D01*
X103104Y013857D02*
X102542Y013857D01*
X102542Y013955D02*
X103104Y013955D01*
X103104Y010702D02*
X103104Y009864D01*
X102542Y009864D01*
X102542Y010702D01*
X103104Y010702D01*
X103104Y009962D02*
X102542Y009962D01*
X102542Y010060D02*
X103104Y010060D01*
X103104Y010158D02*
X102542Y010158D01*
X102542Y010256D02*
X103104Y010256D01*
X103104Y010354D02*
X102542Y010354D01*
X102542Y010452D02*
X103104Y010452D01*
X103104Y010550D02*
X102542Y010550D01*
X102542Y010648D02*
X103104Y010648D01*
X102218Y010702D02*
X102218Y009864D01*
X101656Y009864D01*
X101656Y010702D01*
X102218Y010702D01*
X102218Y009962D02*
X101656Y009962D01*
X101656Y010060D02*
X102218Y010060D01*
X102218Y010158D02*
X101656Y010158D01*
X101656Y010256D02*
X102218Y010256D01*
X102218Y010354D02*
X101656Y010354D01*
X101656Y010452D02*
X102218Y010452D01*
X102218Y010550D02*
X101656Y010550D01*
X101656Y010648D02*
X102218Y010648D01*
X101332Y010702D02*
X101332Y009864D01*
X100770Y009864D01*
X100770Y010702D01*
X101332Y010702D01*
X101332Y009962D02*
X100770Y009962D01*
X100770Y010060D02*
X101332Y010060D01*
X101332Y010158D02*
X100770Y010158D01*
X100770Y010256D02*
X101332Y010256D01*
X101332Y010354D02*
X100770Y010354D01*
X100770Y010452D02*
X101332Y010452D01*
X101332Y010550D02*
X100770Y010550D01*
X100770Y010648D02*
X101332Y010648D01*
D30*
X101740Y037975D03*
X084877Y062251D03*
X079268Y062251D03*
X036058Y062251D03*
X030449Y062251D03*
D31*
X104240Y041975D03*
X104240Y037475D03*
D32*
X103039Y036674D03*
X103039Y042776D03*
D33*
X075293Y054326D03*
X067218Y059926D03*
X053358Y074701D03*
X026474Y054326D03*
X018399Y059926D03*
X056290Y028450D03*
X038490Y021525D03*
X102177Y074701D03*
D34*
X102177Y073701D03*
X075293Y052926D03*
X067218Y058526D03*
X053358Y073701D03*
X026474Y052926D03*
X018399Y058526D03*
X056290Y029450D03*
X037490Y021525D03*
D35*
X040986Y024017D02*
X042168Y024017D01*
X043963Y024017D02*
X045144Y024017D01*
X045144Y026002D02*
X043963Y026002D01*
X042168Y026002D02*
X040986Y026002D01*
X040986Y027986D02*
X042168Y027986D01*
X043963Y027986D02*
X045144Y027986D01*
X049530Y026429D02*
X049530Y025248D01*
X049530Y023453D02*
X049530Y022271D01*
X051514Y022271D02*
X051514Y023453D01*
X053498Y023453D02*
X053498Y022271D01*
X053498Y025248D02*
X053498Y026429D01*
X051514Y026429D02*
X051514Y025248D01*
D36*
X059451Y025838D03*
X059451Y022862D03*
X044553Y018065D03*
X041577Y018065D03*
D37*
X096590Y016195D03*
D38*
X096590Y024065D03*
X016971Y022625D03*
D39*
X073815Y022850D03*
X073815Y021850D03*
X073815Y020850D03*
X073815Y019850D03*
X073815Y018850D03*
X073815Y017850D03*
X074815Y017850D03*
X074815Y018850D03*
X074815Y019850D03*
X074815Y020850D03*
X074815Y021850D03*
X074815Y022850D03*
X074815Y023850D03*
X073815Y023850D03*
X073815Y024850D03*
X073815Y025850D03*
X073815Y026850D03*
X073815Y027850D03*
X073815Y028850D03*
X074815Y028850D03*
X074815Y027850D03*
X074815Y026850D03*
X074815Y025850D03*
X074815Y024850D03*
X074815Y029850D03*
X073815Y029850D03*
X073815Y030850D03*
X073815Y031850D03*
X073815Y032850D03*
X073815Y033850D03*
X074815Y033850D03*
X074815Y032850D03*
X074815Y031850D03*
X074815Y030850D03*
X077815Y033850D03*
X078815Y033850D03*
X079815Y033850D03*
X080815Y033850D03*
X081815Y033850D03*
X082815Y033850D03*
X083815Y033850D03*
X084815Y033850D03*
X086815Y033850D03*
X087815Y033850D03*
X088815Y033850D03*
X089815Y033850D03*
X090815Y033850D03*
X091815Y033850D03*
X092815Y033850D03*
X093815Y033850D03*
X095415Y033850D03*
X096415Y033850D03*
X097415Y033850D03*
X098415Y033850D03*
X099415Y033850D03*
X100415Y033850D03*
X101415Y033850D03*
X102415Y033850D03*
X086815Y025850D03*
X085815Y025850D03*
X085815Y024850D03*
X086815Y024850D03*
X086815Y023850D03*
X074815Y016850D03*
X073815Y016850D03*
X075815Y014850D03*
X076815Y014850D03*
X077815Y014850D03*
X078815Y014850D03*
X079815Y014850D03*
X080815Y014850D03*
X081815Y014850D03*
X082815Y014850D03*
X084815Y014850D03*
X085815Y014850D03*
X086815Y014850D03*
X087815Y014850D03*
X088815Y014850D03*
X089815Y014850D03*
X090815Y014850D03*
X091815Y014850D03*
X093815Y014850D03*
X094815Y014850D03*
X095815Y014850D03*
X096815Y014850D03*
X097815Y014850D03*
X098815Y014850D03*
D40*
X085815Y023850D03*
X025175Y037400D03*
X025175Y039400D03*
X023175Y039400D03*
D41*
X029449Y062251D03*
X029449Y063251D03*
X030449Y063251D03*
X030449Y064251D03*
X030449Y065251D03*
X030449Y066251D03*
X029449Y066251D03*
X029449Y065251D03*
X029449Y064251D03*
X029449Y067251D03*
X030449Y067251D03*
X030449Y068251D03*
X030449Y069251D03*
X030449Y070251D03*
X029449Y070251D03*
X029449Y069251D03*
X029449Y068251D03*
X036058Y068251D03*
X036058Y067251D03*
X037058Y067251D03*
X037058Y068251D03*
X037058Y069251D03*
X036058Y069251D03*
X036058Y070251D03*
X037058Y070251D03*
X037058Y066251D03*
X037058Y065251D03*
X037058Y064251D03*
X037058Y063251D03*
X037058Y062251D03*
X036058Y063251D03*
X036058Y064251D03*
X036058Y065251D03*
X036058Y066251D03*
X056183Y055626D03*
X056183Y054626D03*
X056183Y053626D03*
X057183Y053626D03*
X057183Y054626D03*
X057183Y055626D03*
X057183Y052626D03*
X056183Y052626D03*
X078268Y062251D03*
X078268Y063251D03*
X079268Y063251D03*
X079268Y064251D03*
X079268Y065251D03*
X079268Y066251D03*
X078268Y066251D03*
X078268Y065251D03*
X078268Y064251D03*
X078268Y067251D03*
X079268Y067251D03*
X079268Y068251D03*
X079268Y069251D03*
X079268Y070251D03*
X078268Y070251D03*
X078268Y069251D03*
X078268Y068251D03*
X084877Y068251D03*
X084877Y067251D03*
X085877Y067251D03*
X085877Y068251D03*
X085877Y069251D03*
X084877Y069251D03*
X084877Y070251D03*
X085877Y070251D03*
X085877Y066251D03*
X085877Y065251D03*
X085877Y064251D03*
X085877Y063251D03*
X085877Y062251D03*
X084877Y063251D03*
X084877Y064251D03*
X084877Y065251D03*
X084877Y066251D03*
X105002Y055626D03*
X105002Y054626D03*
X105002Y053626D03*
X106002Y053626D03*
X106002Y054626D03*
X106002Y055626D03*
X106002Y052626D03*
X105002Y052626D03*
D42*
X092326Y082755D02*
X092326Y083700D01*
X090126Y083700D02*
X090126Y082755D01*
X087926Y082755D02*
X087926Y083700D01*
X043507Y083700D02*
X043507Y082755D01*
X041307Y082755D02*
X041307Y083700D01*
X039107Y083700D02*
X039107Y082755D01*
D43*
X045108Y083226D03*
X046608Y083226D03*
X052958Y083376D03*
X052958Y081876D03*
X030949Y073326D03*
X079768Y073326D03*
X093927Y083226D03*
X095427Y083226D03*
X101777Y083376D03*
X101777Y081876D03*
X020899Y027175D03*
X020899Y024175D03*
D44*
X036058Y068251D03*
X036058Y068251D03*
X084877Y068251D03*
X084877Y068251D03*
D45*
X070923Y083000D02*
X070156Y083000D01*
X067971Y083000D02*
X067203Y083000D01*
X065018Y083000D02*
X064250Y083000D01*
X061081Y083000D02*
X060313Y083000D01*
X022105Y083000D02*
X021337Y083000D01*
X019152Y083000D02*
X018384Y083000D01*
X016199Y083000D02*
X015431Y083000D01*
X012262Y083000D02*
X011494Y083000D01*
D46*
X021674Y072901D03*
X017799Y068276D03*
X021674Y063651D03*
X066618Y068276D03*
X070493Y072901D03*
X070493Y063651D03*
D47*
X074493Y063651D03*
X070618Y068276D03*
X074493Y072901D03*
X062618Y068276D03*
X025674Y063651D03*
X021799Y068276D03*
X025674Y072901D03*
X013799Y068276D03*
D48*
X013696Y061082D03*
X020390Y041049D03*
X062515Y061082D03*
D49*
X074968Y048676D03*
X081668Y055376D03*
X081668Y058126D03*
X032849Y058126D03*
X032849Y055376D03*
X026149Y048676D03*
D50*
X031949Y073326D03*
X080768Y073326D03*
D51*
X023175Y037400D03*
D52*
X015474Y037400D03*
D53*
X019065Y012825D03*
X021034Y012825D03*
D54*
X016971Y017704D03*
X016971Y019672D03*
X015986Y019672D03*
X015986Y021641D03*
X015986Y023609D03*
X015986Y025578D03*
X016971Y025578D03*
X016971Y027546D03*
X007128Y027546D03*
X007128Y025578D03*
X006144Y025578D03*
X006144Y023609D03*
X006144Y019672D03*
X007128Y019672D03*
X007128Y017704D03*
X006144Y017704D03*
D55*
X016735Y010845D03*
X016735Y008590D03*
X022735Y008590D03*
X022735Y010845D03*
D56*
X022512Y017325D02*
X023337Y017325D01*
X023337Y019475D02*
X022512Y019475D01*
X022512Y021625D02*
X023337Y021625D01*
X026187Y021700D02*
X027012Y021700D01*
X027012Y019550D02*
X026187Y019550D01*
X026187Y017400D02*
X027012Y017400D01*
D57*
X025449Y011000D03*
X025449Y009000D03*
D58*
X024754Y014550D03*
X024754Y024550D03*
X009349Y005225D03*
D59*
X068990Y022025D03*
X072640Y015650D03*
X072640Y008850D03*
X092590Y019350D03*
X093140Y019800D03*
X094390Y023700D03*
X094390Y024950D03*
X094965Y026550D03*
X094390Y027050D03*
X094965Y029325D03*
X095915Y031625D03*
X094965Y032350D03*
X094390Y031925D03*
X088190Y028850D03*
X089840Y026950D03*
X085265Y028800D03*
X093890Y037875D03*
X102665Y024250D03*
X100565Y009475D03*
X101990Y007800D03*
X101990Y007225D03*
X101990Y006650D03*
X101990Y006075D03*
X101990Y005500D03*
X098690Y005500D03*
X098690Y006075D03*
X098690Y006650D03*
X098690Y007225D03*
X098690Y007800D03*
X094340Y009000D03*
X087002Y052726D03*
X077118Y060676D03*
X088452Y062526D03*
X089052Y063376D03*
X092452Y067526D03*
X092127Y068326D03*
X095477Y067526D03*
X096052Y072401D03*
X096052Y072876D03*
X047233Y072876D03*
X047233Y072401D03*
X043308Y068326D03*
X043633Y067526D03*
X046658Y067526D03*
X040233Y063376D03*
X039633Y062526D03*
X028299Y060676D03*
X038183Y052726D03*
D60*
X005948Y004863D03*
X026421Y004863D03*
X026421Y041084D03*
X030284Y043039D03*
X005948Y041084D03*
X105874Y004850D03*
D61*
X066568Y052351D03*
X066143Y052351D03*
X066643Y053826D03*
X066643Y054251D03*
X064243Y055076D03*
X064243Y055501D03*
X064243Y056401D03*
X064243Y056826D03*
X076543Y057276D03*
X076568Y055401D03*
X079468Y059601D03*
X079918Y060551D03*
X084677Y070751D03*
X085102Y070751D03*
X084902Y071176D03*
X084477Y071176D03*
X084477Y071601D03*
X084902Y071601D03*
X085327Y071601D03*
X085327Y071176D03*
X088052Y071976D03*
X088427Y071976D03*
X088802Y071976D03*
X089177Y071976D03*
X089177Y072351D03*
X088802Y072351D03*
X088427Y072351D03*
X088052Y072351D03*
X103877Y073601D03*
X103877Y074026D03*
X103877Y074451D03*
X055058Y074451D03*
X055058Y074026D03*
X055058Y073601D03*
X040358Y072351D03*
X040358Y071976D03*
X039983Y071976D03*
X039608Y071976D03*
X039233Y071976D03*
X039233Y072351D03*
X039608Y072351D03*
X039983Y072351D03*
X036508Y071601D03*
X036508Y071176D03*
X036083Y071176D03*
X035658Y071176D03*
X035658Y071601D03*
X036083Y071601D03*
X036283Y070751D03*
X035858Y070751D03*
X031099Y060551D03*
X030649Y059601D03*
X027724Y057276D03*
X027749Y055401D03*
X017824Y054251D03*
X017824Y053826D03*
X017749Y052351D03*
X017324Y052351D03*
X015424Y055076D03*
X015424Y055501D03*
X015424Y056401D03*
X015424Y056826D03*
X011649Y041000D03*
X011074Y041000D03*
X010499Y041000D03*
X009924Y041000D03*
X009349Y041000D03*
D62*
X012173Y046976D03*
X032646Y046976D03*
X036583Y046976D03*
X057055Y046976D03*
X060992Y046976D03*
X081465Y046976D03*
X085402Y046976D03*
X105874Y046976D03*
X081465Y080834D03*
X085402Y083196D03*
X105874Y083196D03*
X060992Y080834D03*
X057055Y083196D03*
X036583Y083196D03*
X032646Y080834D03*
X012173Y080834D03*
M02*
