G75*
G70*
%OFA0B0*%
%FSLAX24Y24*%
%IPPOS*%
%LPD*%
%AMOC8*
5,1,8,0,0,1.08239X$1,22.5*
%
%ADD10C,0.0860*%
%ADD11C,0.1000*%
%ADD12C,0.0760*%
%ADD13C,0.0120*%
%ADD14C,0.0320*%
%ADD15C,0.0140*%
%ADD16R,0.0866X0.0472*%
%ADD17R,0.0685X0.0567*%
%ADD18R,0.0567X0.0685*%
%ADD19C,0.1200*%
%ADD20R,0.0264X0.0644*%
%ADD21C,0.0720*%
%ADD22C,0.1200*%
%ADD23R,0.0835X0.0756*%
%ADD24R,0.0756X0.0835*%
%ADD25R,0.0658X0.0168*%
%ADD26R,0.0693X0.0614*%
%ADD27R,0.0614X0.0693*%
%ADD28R,0.0564X0.0264*%
%ADD29R,0.0264X0.0564*%
%ADD30C,0.1062*%
%ADD31C,0.0712*%
%ADD32R,0.1008X0.0850*%
%ADD33C,0.5318*%
%ADD34C,0.0618*%
%ADD35R,0.0618X0.0618*%
%ADD36C,0.1460*%
%ADD37C,0.0661*%
%ADD38OC8,0.0624*%
%ADD39C,0.0672*%
%ADD40R,0.2483X0.2641*%
%ADD41R,0.0756X0.1307*%
%ADD42R,0.1190X0.0360*%
%ADD43R,0.0472X0.0512*%
%ADD44C,0.0712*%
%ADD45R,0.0288X0.0658*%
%ADD46R,0.0283X0.0657*%
%ADD47C,0.0476*%
%ADD48R,0.0824X0.0264*%
%ADD49R,0.0512X0.0472*%
%ADD50R,0.0168X0.0608*%
%ADD51R,0.0204X0.0684*%
%ADD52R,0.1929X0.0945*%
%ADD53OC8,0.0780*%
%ADD54R,0.0644X0.0264*%
%ADD55C,0.0840*%
%ADD56OC8,0.0840*%
%ADD57R,0.0264X0.0824*%
%ADD58R,0.0168X0.0488*%
%ADD59R,0.0488X0.0168*%
%ADD60R,0.0712X0.0712*%
%ADD61C,0.1480*%
%ADD62C,0.1263*%
%ADD63OC8,0.0756*%
%ADD64C,0.0756*%
%ADD65R,0.1528X0.0661*%
%ADD66R,0.1488X0.0898*%
%ADD67R,0.0898X0.1488*%
%ADD68R,0.0684X0.0204*%
%ADD69R,0.0360X0.1190*%
%ADD70C,0.1381*%
%ADD71C,0.0921*%
%ADD72R,0.0661X0.1528*%
%ADD73C,0.1032*%
%ADD74OC8,0.1032*%
%ADD75OC8,0.0665*%
%ADD76OC8,0.0720*%
%ADD77R,0.0661X0.0819*%
%ADD78R,0.0718X0.0228*%
%ADD79R,0.0165X0.0657*%
%ADD80R,0.1044X0.0264*%
%ADD81OC8,0.0712*%
%ADD82C,0.1134*%
%ADD83OC8,0.0672*%
%ADD84R,0.0913X0.0283*%
%ADD85R,0.0840X0.0540*%
%ADD86R,0.1450X0.2200*%
%ADD87OC8,0.0523*%
%ADD88R,0.0472X0.0630*%
%ADD89R,0.0657X0.0283*%
%ADD90R,0.0630X0.0472*%
%ADD91R,0.1402X0.0850*%
%ADD92R,0.0850X0.1008*%
%ADD93R,0.2126X0.0945*%
%ADD94R,0.0756X0.1189*%
%ADD95C,0.0921*%
%ADD96R,0.1189X0.0756*%
%ADD97R,0.0843X0.0803*%
%ADD98R,0.0819X0.0661*%
%ADD99R,0.0803X0.0843*%
%ADD100C,0.2010*%
%ADD101OC8,0.2010*%
%ADD102R,0.0567X0.0567*%
%ADD103OC8,0.1200*%
%ADD104R,0.0661X0.0661*%
%ADD105R,0.0709X0.1063*%
%ADD106R,0.1063X0.0709*%
%ADD107R,0.0614X0.1126*%
%ADD108OC8,0.0618*%
%ADD109R,0.0588X0.0168*%
%ADD110C,0.0672*%
%ADD111C,0.0720*%
%ADD112R,0.0168X0.0588*%
%ADD113R,0.0960X0.0960*%
%ADD114OC8,0.1381*%
%ADD115R,0.2365X0.2169*%
%ADD116OC8,0.0792*%
%ADD117OC8,0.1450*%
%ADD118OC8,0.1062*%
%ADD119R,0.0756X0.0836*%
%ADD120C,0.0990*%
%ADD121R,0.0850X0.1402*%
%ADD122OC8,0.0912*%
%ADD123C,0.1700*%
%ADD124R,0.0820X0.0718*%
%ADD125OC8,0.0523*%
%ADD126C,0.2562*%
%ADD127R,0.0523X0.0523*%
%ADD128C,0.2365*%
D10*
X096540Y004150D02*
X103815Y004150D01*
D11*
X086777Y066851D02*
X086052Y066851D01*
X086777Y066851D02*
X088627Y068701D01*
X088627Y069051D01*
X039808Y069051D02*
X039808Y068701D01*
X037958Y066851D01*
X037233Y066851D01*
D12*
X035758Y076126D02*
X035758Y081301D01*
X084577Y081301D02*
X084577Y076126D01*
D13*
X067918Y050026D02*
X066368Y050026D01*
X019099Y050026D02*
X017549Y050026D01*
X015099Y036250D02*
X015099Y035500D01*
X014699Y035100D01*
D14*
X021299Y050176D02*
X022249Y050176D01*
X070118Y050176D02*
X071068Y050176D01*
D15*
X015074Y039375D02*
X015074Y038425D01*
X014849Y038450D02*
X014849Y039375D01*
D16*
X048998Y039275D03*
X048998Y038275D03*
X048998Y037275D03*
X051833Y037275D03*
X051833Y038275D03*
X051833Y039275D03*
X051833Y040275D03*
X048998Y040275D03*
X048473Y019600D03*
X048473Y018600D03*
X048473Y017600D03*
X048473Y016600D03*
X051308Y016600D03*
X051308Y017600D03*
X051308Y018600D03*
X051308Y019600D03*
D17*
X046336Y016600D03*
X045194Y016600D03*
X040686Y016575D03*
X039544Y016575D03*
X050069Y015675D03*
X051211Y015675D03*
X051060Y041188D03*
X049918Y041188D03*
X044604Y050476D03*
X044604Y051201D03*
X044604Y052201D03*
X043462Y052201D03*
X043462Y051201D03*
X043462Y050476D03*
X043729Y063351D03*
X042587Y063351D03*
X042612Y065726D03*
X043754Y065726D03*
X042754Y079501D03*
X041612Y079501D03*
X040679Y081426D03*
X039537Y081426D03*
X044187Y080026D03*
X045329Y080026D03*
X088356Y081426D03*
X089498Y081426D03*
X090431Y079501D03*
X091573Y079501D03*
X093006Y080026D03*
X094148Y080026D03*
X092573Y065726D03*
X091431Y065726D03*
X091406Y063351D03*
X092548Y063351D03*
X092281Y052201D03*
X092281Y051201D03*
X092281Y050476D03*
X093423Y050476D03*
X093423Y051201D03*
X093423Y052201D03*
X104194Y023150D03*
X105336Y023150D03*
D18*
X061040Y023704D03*
X061040Y024846D03*
X048708Y070505D03*
X048708Y071647D03*
X048708Y072530D03*
X048708Y073672D03*
X049883Y080655D03*
X049883Y081797D03*
X097527Y073672D03*
X097527Y072530D03*
X097527Y071647D03*
X097527Y070505D03*
X098702Y080655D03*
X098702Y081797D03*
D19*
X105002Y071901D02*
X106002Y071901D01*
X106002Y069933D02*
X105002Y069933D01*
X105002Y067964D02*
X106002Y067964D01*
X106002Y065996D02*
X105002Y065996D01*
X061887Y076104D02*
X060887Y076104D01*
X060887Y078073D02*
X061887Y078073D01*
X057183Y071901D02*
X056183Y071901D01*
X056183Y069933D02*
X057183Y069933D01*
X057183Y067964D02*
X056183Y067964D01*
X056183Y065996D02*
X057183Y065996D01*
X013068Y076104D02*
X012068Y076104D01*
X012068Y078073D02*
X013068Y078073D01*
X034190Y031175D02*
X035190Y031175D01*
X035190Y029207D02*
X034190Y029207D01*
X034190Y027238D02*
X035190Y027238D01*
X035190Y025270D02*
X034190Y025270D01*
X034190Y021575D02*
X035190Y021575D01*
X035190Y019607D02*
X034190Y019607D01*
X034190Y017638D02*
X035190Y017638D01*
X035190Y015670D02*
X034190Y015670D01*
X019603Y005757D02*
X019603Y004757D01*
X017634Y004757D02*
X017634Y005757D01*
X015666Y005757D02*
X015666Y004757D01*
X013697Y004757D02*
X013697Y005757D01*
X011729Y005757D02*
X011729Y004757D01*
D20*
X063140Y020250D03*
X063940Y020250D03*
X063540Y019400D03*
X039933Y051376D03*
X039533Y052226D03*
X040333Y052226D03*
X088352Y052226D03*
X089152Y052226D03*
X088752Y051376D03*
D21*
X060116Y040972D02*
X059516Y040972D01*
X057615Y040979D02*
X057015Y040979D01*
X056715Y037979D02*
X056115Y037979D01*
X058616Y037972D02*
X059216Y037972D01*
X044790Y042225D02*
X044190Y042225D01*
X042490Y042225D02*
X041890Y042225D01*
X041590Y039225D02*
X040990Y039225D01*
X043290Y039225D02*
X043890Y039225D01*
X041239Y008900D02*
X041239Y008300D01*
X041239Y006250D02*
X041239Y005650D01*
X044239Y005350D02*
X044239Y004750D01*
X044239Y007400D02*
X044239Y008000D01*
X055939Y008200D02*
X055939Y008800D01*
X058939Y007900D02*
X058939Y007300D01*
X058964Y005000D02*
X058964Y004400D01*
X055964Y005300D02*
X055964Y005900D01*
X050575Y083078D02*
X050575Y083678D01*
X049575Y083678D02*
X049575Y083078D01*
X048575Y083078D02*
X048575Y083678D01*
X031677Y083678D02*
X031677Y083078D01*
X030677Y083078D02*
X030677Y083678D01*
X029677Y083678D02*
X029677Y083078D01*
X026953Y083078D02*
X026953Y083678D01*
X025953Y083678D02*
X025953Y083078D01*
X024953Y083078D02*
X024953Y083678D01*
X073772Y083678D02*
X073772Y083078D01*
X074772Y083078D02*
X074772Y083678D01*
X075772Y083678D02*
X075772Y083078D01*
X078496Y083078D02*
X078496Y083678D01*
X079496Y083678D02*
X079496Y083078D01*
X080496Y083078D02*
X080496Y083678D01*
X097394Y083678D02*
X097394Y083078D01*
X098394Y083078D02*
X098394Y083678D01*
X099394Y083678D02*
X099394Y083078D01*
D22*
X062515Y059082D03*
X038725Y041675D03*
X034788Y041675D03*
X020390Y039049D03*
X013696Y059082D03*
X009603Y012020D03*
X009609Y009641D03*
X006184Y008338D03*
X006184Y012275D03*
X013540Y011154D03*
X013546Y008774D03*
X037940Y008298D03*
X037940Y004361D03*
D23*
X054241Y004650D03*
X054241Y005753D03*
X069216Y016173D03*
X069216Y017275D03*
X095090Y038999D03*
X095090Y040101D03*
X098165Y042374D03*
X098165Y043476D03*
X102090Y030901D03*
X102090Y029799D03*
X061812Y041024D03*
X061812Y042126D03*
X036240Y038351D03*
X036240Y037249D03*
X038283Y068150D03*
X038283Y069252D03*
X087102Y069252D03*
X087102Y068150D03*
D24*
X103576Y059001D03*
X104678Y059001D03*
X105551Y059001D03*
X106653Y059001D03*
X103603Y055251D03*
X102501Y055251D03*
X101616Y035600D03*
X100514Y035600D03*
X057834Y059001D03*
X056732Y059001D03*
X055859Y059001D03*
X054757Y059001D03*
X054784Y055251D03*
X053682Y055251D03*
X034616Y011825D03*
X033514Y011825D03*
D25*
X069089Y018120D03*
X069089Y018380D03*
X069089Y018620D03*
X069089Y018880D03*
X069089Y019120D03*
X069089Y019380D03*
X069089Y019620D03*
X069089Y019880D03*
X069089Y020120D03*
X069089Y020380D03*
X069089Y020620D03*
X069089Y020880D03*
X071189Y020880D03*
X071189Y020620D03*
X071189Y020380D03*
X071189Y020120D03*
X071189Y019880D03*
X071189Y019620D03*
X071189Y019380D03*
X071189Y019120D03*
X071189Y018880D03*
X071189Y018620D03*
X071189Y018380D03*
X071189Y018120D03*
D26*
X071291Y017326D03*
X071291Y016578D03*
X072465Y012399D03*
X072465Y011651D03*
X072465Y010774D03*
X072465Y010026D03*
X076740Y008549D03*
X076740Y007801D03*
X079040Y007826D03*
X079040Y008574D03*
X063765Y023301D03*
X063765Y024049D03*
X070290Y033126D03*
X070290Y033874D03*
X071915Y035876D03*
X071915Y036624D03*
X071915Y037926D03*
X071915Y038674D03*
X074540Y038526D03*
X074540Y039274D03*
X074540Y037099D03*
X074540Y036351D03*
X066140Y034324D03*
X066140Y033576D03*
X057840Y042576D03*
X057840Y043324D03*
X066443Y047227D03*
X066443Y047975D03*
X065118Y050777D03*
X065118Y051525D03*
X065118Y052377D03*
X065118Y053125D03*
X070718Y047950D03*
X070718Y047202D03*
X073318Y051402D03*
X073318Y052150D03*
X076493Y049375D03*
X076493Y048627D03*
X077293Y048627D03*
X077293Y049375D03*
X077443Y050477D03*
X077443Y051225D03*
X078643Y047450D03*
X078643Y046702D03*
X088652Y058552D03*
X088652Y059300D03*
X088652Y060102D03*
X088652Y060850D03*
X089502Y060850D03*
X089502Y060102D03*
X089502Y059300D03*
X089502Y058552D03*
X096852Y062077D03*
X096852Y062825D03*
X096852Y064127D03*
X096852Y064875D03*
X096852Y065672D03*
X096852Y066420D03*
X096727Y068652D03*
X096727Y069400D03*
X095702Y069127D03*
X095702Y069875D03*
X095702Y070677D03*
X095702Y071425D03*
X095246Y072271D03*
X095246Y073019D03*
X094440Y073025D03*
X094440Y072277D03*
X096728Y071429D03*
X096728Y070681D03*
X098327Y070452D03*
X098327Y071200D03*
X098327Y072002D03*
X098327Y072750D03*
X101502Y071350D03*
X101502Y070602D03*
X099371Y069646D03*
X099371Y068898D03*
X093902Y068200D03*
X093902Y067452D03*
X093134Y067452D03*
X093134Y068200D03*
X088952Y074577D03*
X088952Y075325D03*
X088952Y076177D03*
X088952Y076925D03*
X092477Y077752D03*
X092477Y078500D03*
X093377Y078125D03*
X093377Y077377D03*
X094252Y077377D03*
X094252Y078125D03*
X095127Y078125D03*
X095127Y077377D03*
X097777Y077377D03*
X097777Y078125D03*
X098677Y078125D03*
X098677Y077377D03*
X099527Y077377D03*
X099527Y078125D03*
X100352Y078125D03*
X100352Y077377D03*
X079268Y075525D03*
X079268Y074777D03*
X078118Y076002D03*
X078118Y076750D03*
X078118Y077652D03*
X078118Y078400D03*
X078118Y079152D03*
X078118Y079900D03*
X076243Y079900D03*
X076243Y079152D03*
X075443Y079152D03*
X075443Y079900D03*
X075468Y078100D03*
X075468Y077352D03*
X076268Y077352D03*
X076268Y078100D03*
X077143Y076750D03*
X077143Y076002D03*
X078018Y073675D03*
X078018Y072927D03*
X098652Y060275D03*
X098652Y059527D03*
X099527Y059527D03*
X099527Y060275D03*
X099190Y043299D03*
X099190Y042551D03*
X099190Y041724D03*
X099190Y040976D03*
X099190Y039549D03*
X099190Y038801D03*
X099190Y037924D03*
X099190Y037176D03*
X100565Y032749D03*
X100565Y032001D03*
X097265Y032076D03*
X097265Y032824D03*
X097265Y031274D03*
X097265Y030526D03*
X106265Y023149D03*
X106265Y022401D03*
X101590Y018574D03*
X101590Y017826D03*
X101590Y016824D03*
X101590Y016076D03*
X050708Y059527D03*
X050708Y060275D03*
X049833Y060275D03*
X049833Y059527D03*
X048033Y062077D03*
X048033Y062825D03*
X048033Y064127D03*
X048033Y064875D03*
X048033Y065672D03*
X048033Y066420D03*
X047908Y068652D03*
X047908Y069400D03*
X046883Y069127D03*
X046883Y069875D03*
X046883Y070677D03*
X046883Y071425D03*
X046427Y072271D03*
X046427Y073019D03*
X045621Y073025D03*
X045621Y072277D03*
X047909Y071429D03*
X047909Y070681D03*
X049508Y070452D03*
X049508Y071200D03*
X049508Y072002D03*
X049508Y072750D03*
X052683Y071350D03*
X052683Y070602D03*
X050552Y069646D03*
X050552Y068898D03*
X045084Y068200D03*
X045084Y067452D03*
X044315Y067452D03*
X044315Y068200D03*
X040133Y074577D03*
X040133Y075325D03*
X040133Y076177D03*
X040133Y076925D03*
X043658Y077752D03*
X043658Y078500D03*
X044558Y078125D03*
X044558Y077377D03*
X045433Y077377D03*
X045433Y078125D03*
X046308Y078125D03*
X046308Y077377D03*
X048958Y077377D03*
X048958Y078125D03*
X049858Y078125D03*
X049858Y077377D03*
X050708Y077377D03*
X050708Y078125D03*
X051533Y078125D03*
X051533Y077377D03*
X030449Y075525D03*
X030449Y074777D03*
X029299Y076002D03*
X029299Y076750D03*
X029299Y077652D03*
X029299Y078400D03*
X029299Y079152D03*
X029299Y079900D03*
X027424Y079900D03*
X027424Y079152D03*
X026624Y079152D03*
X026624Y079900D03*
X026649Y078100D03*
X026649Y077352D03*
X027449Y077352D03*
X027449Y078100D03*
X028324Y076750D03*
X028324Y076002D03*
X029199Y073675D03*
X029199Y072927D03*
X039833Y060850D03*
X039833Y060102D03*
X039833Y059300D03*
X039833Y058552D03*
X040683Y058552D03*
X040683Y059300D03*
X040683Y060102D03*
X040683Y060850D03*
X028624Y051225D03*
X028624Y050477D03*
X028474Y049375D03*
X028474Y048627D03*
X027674Y048627D03*
X027674Y049375D03*
X029824Y047450D03*
X029824Y046702D03*
X024499Y051402D03*
X024499Y052150D03*
X021899Y047950D03*
X021899Y047202D03*
X017624Y047227D03*
X017624Y047975D03*
X016299Y050777D03*
X016299Y051525D03*
X016299Y052377D03*
X016299Y053125D03*
X014074Y039474D03*
X014074Y038726D03*
X013849Y037049D03*
X013849Y036301D03*
X017099Y036274D03*
X017099Y035526D03*
X017874Y035526D03*
X017874Y036274D03*
X017874Y037351D03*
X017874Y038099D03*
X017099Y038099D03*
X017099Y037351D03*
X017099Y033924D03*
X017099Y033176D03*
X017874Y033176D03*
X017874Y033924D03*
X039665Y024124D03*
X039665Y023376D03*
D27*
X025573Y035325D03*
X024825Y035325D03*
X021673Y035325D03*
X020925Y035325D03*
X017863Y034725D03*
X017115Y034725D03*
X014273Y033775D03*
X013525Y033775D03*
X013525Y033000D03*
X014273Y033000D03*
X017000Y039000D03*
X017748Y039000D03*
X013723Y041650D03*
X012975Y041650D03*
X016100Y047176D03*
X016848Y047176D03*
X016848Y048001D03*
X016100Y048001D03*
X018400Y048001D03*
X019148Y048001D03*
X019148Y047176D03*
X018400Y047176D03*
X020325Y047176D03*
X021073Y047176D03*
X021073Y048001D03*
X020325Y048001D03*
X021575Y051051D03*
X022323Y051051D03*
X019898Y051276D03*
X019150Y051276D03*
X027675Y047876D03*
X028423Y047876D03*
X031625Y051726D03*
X032373Y051726D03*
X032373Y052826D03*
X031625Y052826D03*
X030923Y052826D03*
X030175Y052826D03*
X030100Y055851D03*
X030848Y055851D03*
X030848Y056626D03*
X030100Y056626D03*
X029523Y059851D03*
X028775Y059851D03*
X039084Y056326D03*
X039832Y056326D03*
X039832Y055476D03*
X039084Y055476D03*
X042209Y055101D03*
X042957Y055101D03*
X042957Y054251D03*
X042209Y054251D03*
X040282Y053026D03*
X039534Y053026D03*
X041259Y050601D03*
X042007Y050601D03*
X042007Y049726D03*
X041259Y049726D03*
X040332Y048951D03*
X039584Y048951D03*
X044059Y054251D03*
X044807Y054251D03*
X044807Y055101D03*
X044059Y055101D03*
X047384Y059926D03*
X048132Y059926D03*
X049259Y062476D03*
X050007Y062476D03*
X050007Y063326D03*
X049259Y063326D03*
X051234Y063326D03*
X051982Y063326D03*
X051982Y062476D03*
X051234Y062476D03*
X052859Y062476D03*
X053607Y062476D03*
X053607Y063326D03*
X052859Y063326D03*
X052859Y064306D03*
X053607Y064306D03*
X053607Y065151D03*
X052859Y065151D03*
X052859Y066001D03*
X053607Y066001D03*
X053607Y067001D03*
X052859Y067001D03*
X051982Y067001D03*
X051234Y067001D03*
X051234Y066002D03*
X051982Y066002D03*
X051982Y065151D03*
X051234Y065151D03*
X051234Y064306D03*
X051982Y064306D03*
X050007Y065151D03*
X049259Y065151D03*
X049259Y066001D03*
X050007Y066001D03*
X050182Y067001D03*
X049434Y067001D03*
X053584Y070601D03*
X054332Y070601D03*
X054657Y076501D03*
X053909Y076501D03*
X051582Y080751D03*
X050834Y080751D03*
X050834Y081751D03*
X051582Y081751D03*
X046707Y081576D03*
X045959Y081576D03*
X042982Y081426D03*
X042234Y081426D03*
X042034Y078551D03*
X042782Y078551D03*
X042782Y077726D03*
X042034Y077726D03*
X040082Y073201D03*
X039334Y073201D03*
X041384Y070826D03*
X042132Y070826D03*
X042934Y070826D03*
X043682Y070826D03*
X043682Y071626D03*
X042934Y071626D03*
X042934Y072426D03*
X043682Y072426D03*
X043682Y070001D03*
X042934Y070001D03*
X042132Y070001D03*
X041384Y070001D03*
X042859Y064901D03*
X043607Y064901D03*
X043607Y064126D03*
X042859Y064126D03*
X042784Y062576D03*
X043532Y062576D03*
X056284Y062401D03*
X057032Y062401D03*
X061369Y063526D03*
X062117Y063526D03*
X077594Y059851D03*
X078342Y059851D03*
X078919Y056626D03*
X079667Y056626D03*
X079667Y055851D03*
X078919Y055851D03*
X078994Y052826D03*
X079742Y052826D03*
X080444Y052826D03*
X081192Y052826D03*
X081192Y051726D03*
X080444Y051726D03*
X077242Y047876D03*
X076494Y047876D03*
X071142Y051051D03*
X070394Y051051D03*
X068717Y051276D03*
X067969Y051276D03*
X067967Y048001D03*
X067219Y048001D03*
X067219Y047176D03*
X067967Y047176D03*
X069144Y047176D03*
X069892Y047176D03*
X069892Y048001D03*
X069144Y048001D03*
X065667Y048001D03*
X064919Y048001D03*
X064919Y047176D03*
X065667Y047176D03*
X087903Y055476D03*
X088651Y055476D03*
X088651Y056326D03*
X087903Y056326D03*
X091028Y055101D03*
X091776Y055101D03*
X091776Y054251D03*
X091028Y054251D03*
X092878Y054251D03*
X093626Y054251D03*
X093626Y055101D03*
X092878Y055101D03*
X089101Y053026D03*
X088353Y053026D03*
X090078Y050601D03*
X090826Y050601D03*
X090826Y049726D03*
X090078Y049726D03*
X089151Y048951D03*
X088403Y048951D03*
X096203Y059926D03*
X096951Y059926D03*
X098078Y062476D03*
X098826Y062476D03*
X098826Y063326D03*
X098078Y063326D03*
X098078Y065151D03*
X098826Y065151D03*
X098826Y066001D03*
X098078Y066001D03*
X098253Y067001D03*
X099001Y067001D03*
X100053Y067001D03*
X100801Y067001D03*
X101678Y067001D03*
X102426Y067001D03*
X102426Y066001D03*
X101678Y066001D03*
X101678Y065151D03*
X102426Y065151D03*
X102426Y064306D03*
X101678Y064306D03*
X100801Y064306D03*
X100053Y064306D03*
X100053Y065151D03*
X100801Y065151D03*
X100801Y066002D03*
X100053Y066002D03*
X100053Y063326D03*
X100801Y063326D03*
X100801Y062476D03*
X100053Y062476D03*
X101678Y062476D03*
X102426Y062476D03*
X102426Y063326D03*
X101678Y063326D03*
X105103Y062401D03*
X105851Y062401D03*
X103151Y070601D03*
X102403Y070601D03*
X102728Y076501D03*
X103476Y076501D03*
X100401Y080751D03*
X099653Y080751D03*
X099653Y081751D03*
X100401Y081751D03*
X095526Y081576D03*
X094778Y081576D03*
X091801Y081426D03*
X091053Y081426D03*
X090853Y078551D03*
X091601Y078551D03*
X091601Y077726D03*
X090853Y077726D03*
X088901Y073201D03*
X088153Y073201D03*
X090203Y070826D03*
X090951Y070826D03*
X091753Y070826D03*
X092501Y070826D03*
X092501Y071626D03*
X091753Y071626D03*
X091753Y072426D03*
X092501Y072426D03*
X092501Y070001D03*
X091753Y070001D03*
X090951Y070001D03*
X090203Y070001D03*
X091678Y064901D03*
X092426Y064901D03*
X092426Y064126D03*
X091678Y064126D03*
X091603Y062576D03*
X092351Y062576D03*
X080642Y072826D03*
X079894Y072826D03*
X070042Y078501D03*
X069294Y078501D03*
X069319Y079376D03*
X070067Y079376D03*
X031823Y072826D03*
X031075Y072826D03*
X021223Y078501D03*
X020475Y078501D03*
X020500Y079376D03*
X021248Y079376D03*
X013298Y063526D03*
X012550Y063526D03*
X058166Y027475D03*
X058914Y027475D03*
X063191Y021110D03*
X063939Y021110D03*
X061714Y020000D03*
X060966Y020000D03*
X059814Y018975D03*
X059066Y018975D03*
X063191Y018000D03*
X063939Y018000D03*
X066716Y010500D03*
X067464Y010500D03*
X067089Y006225D03*
X066341Y006225D03*
X073566Y011000D03*
X074314Y011000D03*
X074314Y013325D03*
X073566Y013325D03*
X076191Y004725D03*
X076939Y004725D03*
X089966Y004700D03*
X090714Y004700D03*
X093771Y010400D03*
X094440Y010400D03*
X095110Y010400D03*
X104541Y022275D03*
X105289Y022275D03*
X101789Y023650D03*
X101041Y023650D03*
X100239Y023650D03*
X099491Y023650D03*
X102616Y035525D03*
X103364Y035525D03*
X104516Y035525D03*
X105264Y035525D03*
D28*
X075945Y008545D03*
X075945Y007805D03*
X075085Y008175D03*
X062795Y023305D03*
X062795Y024045D03*
X061935Y023675D03*
X056645Y042630D03*
X056645Y043370D03*
X055785Y043000D03*
D29*
X040303Y049671D03*
X039563Y049671D03*
X039933Y050531D03*
X059095Y018155D03*
X059835Y018155D03*
X059465Y017295D03*
X063170Y017155D03*
X063910Y017155D03*
X063540Y016295D03*
X088382Y049671D03*
X089122Y049671D03*
X088752Y050531D03*
D30*
X054007Y042875D02*
X053122Y042875D01*
X048007Y042875D02*
X047122Y042875D01*
X034015Y039968D02*
X034015Y039083D01*
X034015Y033968D02*
X034015Y033083D01*
X046097Y008150D02*
X046982Y008150D01*
X046982Y005450D02*
X046097Y005450D01*
X052097Y005450D02*
X052982Y005450D01*
X052982Y008150D02*
X052097Y008150D01*
D31*
X063248Y007509D02*
X063248Y006915D01*
X064248Y006915D02*
X064248Y007509D01*
X069493Y007275D02*
X070087Y007275D01*
X070087Y006275D02*
X069493Y006275D01*
X069493Y008275D02*
X070087Y008275D01*
X076365Y010528D02*
X076365Y011122D01*
X077365Y011122D02*
X077365Y010528D01*
X064248Y027781D02*
X064248Y028375D01*
X063248Y028375D02*
X063248Y027781D01*
X069493Y037400D02*
X070087Y037400D01*
X070087Y038400D02*
X069493Y038400D01*
X069493Y039400D02*
X070087Y039400D01*
X057255Y049101D02*
X056661Y049101D01*
X056661Y050101D02*
X057255Y050101D01*
X057255Y051101D02*
X056661Y051101D01*
X060343Y050098D02*
X060343Y049504D01*
X061343Y049504D02*
X061343Y050098D01*
X062343Y050098D02*
X062343Y049504D01*
X062343Y055354D02*
X062343Y055948D01*
X061343Y055948D02*
X061343Y055354D01*
X060343Y055354D02*
X060343Y055948D01*
X044833Y047373D02*
X044833Y046779D01*
X043833Y046779D02*
X043833Y047373D01*
X042833Y047373D02*
X042833Y046779D01*
X041833Y046779D02*
X041833Y047373D01*
X040833Y047373D02*
X040833Y046779D01*
X039833Y046779D02*
X039833Y047373D01*
X038833Y047373D02*
X038833Y046779D01*
X032896Y049351D02*
X032302Y049351D01*
X032302Y050351D02*
X032896Y050351D01*
X036386Y056651D02*
X036980Y056651D01*
X036980Y057651D02*
X036386Y057651D01*
X036386Y058651D02*
X036980Y058651D01*
X013524Y055948D02*
X013524Y055354D01*
X012524Y055354D02*
X012524Y055948D01*
X011524Y055948D02*
X011524Y055354D01*
X011524Y050098D02*
X011524Y049504D01*
X012524Y049504D02*
X012524Y050098D01*
X013524Y050098D02*
X013524Y049504D01*
X006646Y037175D02*
X006053Y037175D01*
X006053Y036175D02*
X006646Y036175D01*
X006646Y035175D02*
X006053Y035175D01*
X006053Y034175D02*
X006646Y034175D01*
X006646Y033175D02*
X006053Y033175D01*
X006053Y032175D02*
X006646Y032175D01*
X009799Y033178D02*
X009799Y033772D01*
X010799Y033772D02*
X010799Y033178D01*
X011799Y033178D02*
X011799Y033772D01*
X081121Y049351D02*
X081714Y049351D01*
X081714Y050351D02*
X081121Y050351D01*
X087652Y047373D02*
X087652Y046779D01*
X088652Y046779D02*
X088652Y047373D01*
X089652Y047373D02*
X089652Y046779D01*
X090652Y046779D02*
X090652Y047373D01*
X091652Y047373D02*
X091652Y046779D01*
X092652Y046779D02*
X092652Y047373D01*
X093652Y047373D02*
X093652Y046779D01*
X105480Y049101D02*
X106074Y049101D01*
X106074Y050101D02*
X105480Y050101D01*
X105480Y051101D02*
X106074Y051101D01*
X085799Y056651D02*
X085205Y056651D01*
X085205Y057651D02*
X085799Y057651D01*
X085799Y058651D02*
X085205Y058651D01*
X105493Y012925D02*
X106086Y012925D01*
X106086Y011925D02*
X105493Y011925D01*
X105493Y010925D02*
X106086Y010925D01*
X106086Y009925D02*
X105493Y009925D01*
X105493Y008050D02*
X106087Y008050D01*
X106087Y007050D02*
X105493Y007050D01*
D32*
X103366Y010871D03*
X103366Y012879D03*
D33*
X061445Y012724D03*
X053965Y012724D03*
X046445Y012724D03*
X038945Y012724D03*
X032646Y007212D03*
X038945Y033590D03*
X046445Y033590D03*
X053945Y033590D03*
X061445Y033590D03*
D34*
X074968Y047676D03*
X081668Y054376D03*
X081668Y057126D03*
X032849Y057126D03*
X032849Y054376D03*
X026149Y047676D03*
X075965Y006632D03*
X075965Y005632D03*
X076965Y005632D03*
X076965Y006632D03*
X077965Y006632D03*
X077965Y005632D03*
X078965Y005632D03*
X078965Y006632D03*
X079965Y006632D03*
X079965Y005632D03*
X080965Y005632D03*
X080965Y006632D03*
X081965Y006632D03*
X081965Y005632D03*
X082965Y005632D03*
X082965Y006632D03*
X083965Y006632D03*
X083965Y005632D03*
X084965Y005632D03*
X084965Y006632D03*
X085965Y006632D03*
X085965Y005632D03*
X086965Y005632D03*
X086965Y006632D03*
X087965Y006632D03*
X087965Y005632D03*
X088965Y005632D03*
X088965Y006632D03*
X089965Y006632D03*
X089965Y005632D03*
X090965Y005632D03*
X090965Y006632D03*
X091965Y006632D03*
X091965Y005632D03*
X092965Y005632D03*
X092965Y006632D03*
X093965Y006632D03*
X093965Y005632D03*
X094965Y006632D03*
D35*
X094965Y005632D03*
X066118Y049701D03*
X065118Y049701D03*
X073593Y056126D03*
X074593Y056126D03*
X075193Y057826D03*
X075193Y058826D03*
X026374Y058826D03*
X026374Y057826D03*
X025774Y056126D03*
X024774Y056126D03*
X017299Y049701D03*
X016299Y049701D03*
D36*
X073800Y040671D03*
X097028Y040671D03*
X097028Y007207D03*
X073800Y007207D03*
D37*
X061445Y038102D03*
X061445Y039102D03*
X061445Y040102D03*
X038945Y040102D03*
X038945Y039102D03*
X038945Y038102D03*
D38*
X045945Y039102D03*
X046945Y039102D03*
X053445Y039102D03*
X054445Y039102D03*
X069941Y035559D03*
X070941Y035559D03*
X070941Y031622D03*
X069941Y031622D03*
X070441Y042539D03*
X070441Y043539D03*
X075293Y049926D03*
X075793Y050676D03*
X074793Y050676D03*
X081768Y073326D03*
X065918Y080226D03*
X063918Y080226D03*
X032949Y073326D03*
X017099Y080226D03*
X015099Y080226D03*
X025974Y050676D03*
X026474Y049926D03*
X026974Y050676D03*
X038445Y018236D03*
X039445Y018236D03*
X045945Y018236D03*
X046945Y018236D03*
X053445Y018236D03*
X054445Y018236D03*
X060945Y018236D03*
X061945Y018236D03*
X069941Y014693D03*
X070941Y014693D03*
X070941Y010756D03*
X069941Y010756D03*
D39*
X077815Y012845D02*
X077815Y013405D01*
X078815Y013405D02*
X078815Y012845D01*
X093315Y012955D02*
X093315Y012395D01*
X094315Y012395D02*
X094315Y012955D01*
X095315Y012955D02*
X095315Y012395D01*
X105135Y019875D02*
X105695Y019875D01*
X105695Y020875D02*
X105135Y020875D01*
X102607Y051176D02*
X102047Y051176D01*
X102047Y052176D02*
X102607Y052176D01*
X102607Y053176D02*
X102047Y053176D01*
X102047Y054176D02*
X102607Y054176D01*
X053788Y054176D02*
X053228Y054176D01*
X053228Y053176D02*
X053788Y053176D01*
X053788Y052176D02*
X053228Y052176D01*
X053228Y051176D02*
X053788Y051176D01*
D40*
X100340Y006638D03*
D41*
X099443Y009465D03*
X101238Y009465D03*
D42*
X097920Y009550D03*
X096360Y009550D03*
D43*
X084515Y016841D03*
X084515Y017510D03*
X084440Y019691D03*
X084440Y020360D03*
X082440Y028946D03*
X082440Y029615D03*
X082465Y031311D03*
X082465Y031980D03*
X083915Y032035D03*
X083915Y031366D03*
X088015Y031366D03*
X088015Y032035D03*
X085565Y037091D03*
X085565Y037760D03*
X085565Y039091D03*
X085565Y039760D03*
X083240Y039760D03*
X083240Y039091D03*
X083265Y037760D03*
X083265Y037091D03*
X075565Y039091D03*
X075565Y039760D03*
X075465Y037760D03*
X075465Y037091D03*
X093240Y037091D03*
X093240Y037760D03*
X093240Y039091D03*
X093240Y039760D03*
X101865Y027085D03*
X101865Y026416D03*
X106240Y024885D03*
X106240Y024216D03*
X078140Y008535D03*
X078140Y007866D03*
X065540Y007916D03*
X065540Y008585D03*
X060418Y051442D03*
X060418Y052111D03*
X060393Y053317D03*
X060393Y053986D03*
X048958Y059642D03*
X048958Y060311D03*
X045858Y058586D03*
X045858Y057917D03*
X041683Y058167D03*
X041683Y058836D03*
X045858Y067517D03*
X045858Y068186D03*
X044808Y072342D03*
X044808Y073011D03*
X050308Y073667D03*
X050308Y074336D03*
X051808Y070061D03*
X051808Y069392D03*
X090502Y058836D03*
X090502Y058167D03*
X094677Y057917D03*
X094677Y058586D03*
X097777Y059642D03*
X097777Y060311D03*
X094677Y067517D03*
X094677Y068186D03*
X093627Y072342D03*
X093627Y073011D03*
X099127Y073667D03*
X099127Y074336D03*
X100627Y070061D03*
X100627Y069392D03*
X011574Y053986D03*
X011574Y053317D03*
X011599Y052111D03*
X011599Y051442D03*
D44*
X048608Y047951D03*
X048608Y046951D03*
X049608Y046951D03*
X050608Y046951D03*
X051608Y046951D03*
X052608Y046951D03*
X052608Y047951D03*
X051608Y047951D03*
X050608Y047951D03*
X049608Y047951D03*
X077565Y042975D03*
X077565Y041975D03*
X078565Y041975D03*
X078565Y042975D03*
X079565Y042975D03*
X079565Y041975D03*
X080565Y041975D03*
X080565Y042975D03*
X081565Y042975D03*
X081565Y041975D03*
X087565Y041975D03*
X087565Y042975D03*
X088565Y042975D03*
X088565Y041975D03*
X089565Y041975D03*
X089565Y042975D03*
X090565Y042975D03*
X090565Y041975D03*
X091565Y041975D03*
X091565Y042975D03*
X097427Y046951D03*
X098427Y046951D03*
X099427Y046951D03*
X100427Y046951D03*
X101427Y046951D03*
X101427Y047951D03*
X100427Y047951D03*
X099427Y047951D03*
X098427Y047951D03*
X097427Y047951D03*
X105571Y042215D03*
X106240Y041215D03*
X105571Y038235D03*
X106240Y037235D03*
X101740Y038975D03*
X100740Y038475D03*
X100740Y039475D03*
X100740Y040475D03*
X100740Y041475D03*
X101740Y040975D03*
X101740Y039975D03*
D45*
X089790Y039210D03*
X089290Y039210D03*
X088790Y039210D03*
X088290Y039210D03*
X087790Y039210D03*
X087290Y039210D03*
X086790Y039210D03*
X086290Y039210D03*
X086290Y037090D03*
X086790Y037090D03*
X087290Y037090D03*
X087790Y037090D03*
X088290Y037090D03*
X088790Y037090D03*
X089290Y037090D03*
X089790Y037090D03*
X079690Y037090D03*
X079190Y037090D03*
X078690Y037090D03*
X078190Y037090D03*
X077690Y037090D03*
X077190Y037090D03*
X076690Y037090D03*
X076190Y037090D03*
X076190Y039210D03*
X076690Y039210D03*
X077190Y039210D03*
X077690Y039210D03*
X078190Y039210D03*
X078690Y039210D03*
X079190Y039210D03*
X079690Y039210D03*
D46*
X081038Y039213D03*
X081538Y039213D03*
X082038Y039213D03*
X082538Y039213D03*
X082538Y037087D03*
X082038Y037087D03*
X081538Y037087D03*
X081038Y037087D03*
X091038Y037087D03*
X091538Y037087D03*
X092038Y037087D03*
X092538Y037087D03*
X092538Y039213D03*
X092038Y039213D03*
X091538Y039213D03*
X091038Y039213D03*
X062570Y051588D03*
X062070Y051588D03*
X061570Y051588D03*
X061070Y051588D03*
X061070Y053714D03*
X061570Y053714D03*
X062070Y053714D03*
X062570Y053714D03*
X046160Y069038D03*
X045660Y069038D03*
X045160Y069038D03*
X044660Y069038D03*
X044660Y071164D03*
X045160Y071164D03*
X045660Y071164D03*
X046160Y071164D03*
X050260Y070738D03*
X050760Y070738D03*
X051260Y070738D03*
X051760Y070738D03*
X051760Y072864D03*
X051260Y072864D03*
X050760Y072864D03*
X050260Y072864D03*
X013751Y053714D03*
X013251Y053714D03*
X012751Y053714D03*
X012251Y053714D03*
X012251Y051588D03*
X012751Y051588D03*
X013251Y051588D03*
X013751Y051588D03*
X093479Y069038D03*
X093979Y069038D03*
X094479Y069038D03*
X094979Y069038D03*
X094979Y071164D03*
X094479Y071164D03*
X093979Y071164D03*
X093479Y071164D03*
X099079Y070738D03*
X099579Y070738D03*
X100079Y070738D03*
X100579Y070738D03*
X100579Y072864D03*
X100079Y072864D03*
X099579Y072864D03*
X099079Y072864D03*
D47*
X105440Y027225D03*
X105991Y027225D03*
D48*
X091485Y021275D03*
X091485Y020775D03*
X091485Y020275D03*
X091485Y019775D03*
X089545Y019775D03*
X089545Y020275D03*
X089545Y020775D03*
X089545Y021275D03*
X069235Y033225D03*
X069235Y033725D03*
X069235Y034225D03*
X069235Y034725D03*
X067295Y034725D03*
X067295Y034225D03*
X067295Y033725D03*
X067295Y033225D03*
X078148Y053601D03*
X078148Y054101D03*
X078148Y054601D03*
X078148Y055101D03*
X080088Y055101D03*
X080088Y054601D03*
X080088Y054101D03*
X080088Y053601D03*
X080088Y057401D03*
X080088Y057901D03*
X080088Y058401D03*
X080088Y058901D03*
X078148Y058901D03*
X078148Y058401D03*
X078148Y057901D03*
X078148Y057401D03*
X057503Y060151D03*
X057503Y060651D03*
X057503Y061151D03*
X057503Y061651D03*
X055563Y061651D03*
X055563Y061151D03*
X055563Y060651D03*
X055563Y060151D03*
X031269Y058901D03*
X031269Y058401D03*
X031269Y057901D03*
X031269Y057401D03*
X029329Y057401D03*
X029329Y057901D03*
X029329Y058401D03*
X029329Y058901D03*
X029329Y055101D03*
X029329Y054601D03*
X029329Y054101D03*
X029329Y053601D03*
X031269Y053601D03*
X031269Y054101D03*
X031269Y054601D03*
X031269Y055101D03*
X104382Y060151D03*
X104382Y060651D03*
X104382Y061151D03*
X104382Y061651D03*
X106322Y061651D03*
X106322Y061151D03*
X106322Y060651D03*
X106322Y060151D03*
D49*
X104887Y056951D03*
X104217Y056951D03*
X103712Y056126D03*
X103042Y056126D03*
X097012Y059151D03*
X096342Y059151D03*
X094237Y062726D03*
X093567Y062726D03*
X095067Y065576D03*
X095737Y065576D03*
X087002Y062261D03*
X087002Y061592D03*
X078952Y051676D03*
X078283Y051676D03*
X094467Y049701D03*
X095137Y049701D03*
X095165Y041660D03*
X095165Y040991D03*
X088075Y029675D03*
X087406Y029675D03*
X088706Y026575D03*
X089375Y026575D03*
X091081Y026550D03*
X091750Y026550D03*
X092000Y021925D03*
X091331Y021925D03*
X082275Y024875D03*
X081606Y024875D03*
X079150Y024825D03*
X078481Y024825D03*
X068675Y032450D03*
X068006Y032450D03*
X077356Y016775D03*
X078025Y016775D03*
X080456Y016775D03*
X081125Y016775D03*
X046318Y049701D03*
X045648Y049701D03*
X054223Y056126D03*
X054893Y056126D03*
X055398Y056951D03*
X056068Y056951D03*
X048193Y059151D03*
X047523Y059151D03*
X045418Y062726D03*
X044748Y062726D03*
X046248Y065576D03*
X046918Y065576D03*
X038183Y062261D03*
X038183Y061592D03*
X030133Y051676D03*
X029464Y051676D03*
D50*
X084595Y031910D03*
X084855Y031910D03*
X085105Y031910D03*
X085365Y031910D03*
X085625Y031910D03*
X085875Y031910D03*
X086135Y031910D03*
X086135Y029690D03*
X085875Y029690D03*
X085625Y029690D03*
X085365Y029690D03*
X085105Y029690D03*
X084855Y029690D03*
X084595Y029690D03*
X103970Y026435D03*
X104230Y026435D03*
X104480Y026435D03*
X104740Y026435D03*
X105000Y026435D03*
X105250Y026435D03*
X105510Y026435D03*
X105510Y024215D03*
X105250Y024215D03*
X105000Y024215D03*
X104740Y024215D03*
X104480Y024215D03*
X104230Y024215D03*
X103970Y024215D03*
D51*
X101075Y026895D03*
X100825Y026895D03*
X100565Y026895D03*
X100315Y026895D03*
X100055Y026895D03*
X099795Y026895D03*
X099545Y026895D03*
X099285Y026895D03*
X099035Y026895D03*
X098775Y026895D03*
X098515Y026895D03*
X098265Y026895D03*
X098005Y026895D03*
X097755Y026895D03*
X097755Y029755D03*
X098005Y029755D03*
X098265Y029755D03*
X098515Y029755D03*
X098775Y029755D03*
X099035Y029755D03*
X099285Y029755D03*
X099545Y029755D03*
X099795Y029755D03*
X100055Y029755D03*
X100315Y029755D03*
X100565Y029755D03*
X100825Y029755D03*
X101075Y029755D03*
X091600Y029120D03*
X091340Y029120D03*
X091090Y029120D03*
X090830Y029120D03*
X090570Y029120D03*
X090320Y029120D03*
X090060Y029120D03*
X089810Y029120D03*
X089550Y029120D03*
X089290Y029120D03*
X089040Y029120D03*
X088780Y029120D03*
X088780Y031980D03*
X089040Y031980D03*
X089290Y031980D03*
X089550Y031980D03*
X089810Y031980D03*
X090060Y031980D03*
X090320Y031980D03*
X090570Y031980D03*
X090830Y031980D03*
X091090Y031980D03*
X091340Y031980D03*
X091600Y031980D03*
X081675Y032205D03*
X081415Y032205D03*
X081165Y032205D03*
X080905Y032205D03*
X080645Y032205D03*
X080395Y032205D03*
X080135Y032205D03*
X079885Y032205D03*
X079625Y032205D03*
X079365Y032205D03*
X079115Y032205D03*
X078855Y032205D03*
X078855Y029345D03*
X079115Y029345D03*
X079365Y029345D03*
X079625Y029345D03*
X079885Y029345D03*
X080135Y029345D03*
X080395Y029345D03*
X080645Y029345D03*
X080905Y029345D03*
X081165Y029345D03*
X081415Y029345D03*
X081675Y029345D03*
X085255Y020030D03*
X085515Y020030D03*
X085765Y020030D03*
X086025Y020030D03*
X086285Y020030D03*
X086535Y020030D03*
X086795Y020030D03*
X087045Y020030D03*
X087305Y020030D03*
X087565Y020030D03*
X087815Y020030D03*
X088075Y020030D03*
X088075Y017170D03*
X087815Y017170D03*
X087565Y017170D03*
X087305Y017170D03*
X087045Y017170D03*
X086795Y017170D03*
X086535Y017170D03*
X086285Y017170D03*
X086025Y017170D03*
X085765Y017170D03*
X085515Y017170D03*
X085255Y017170D03*
D52*
X098167Y025125D03*
X101513Y025125D03*
D53*
X103590Y022075D03*
X070643Y068276D03*
X021824Y068276D03*
D54*
X041983Y056376D03*
X042833Y055976D03*
X042833Y056776D03*
X044133Y056376D03*
X044983Y055976D03*
X044983Y056776D03*
X072865Y038750D03*
X073715Y038350D03*
X073715Y039150D03*
X073690Y037225D03*
X073690Y036425D03*
X072840Y036825D03*
X091652Y055976D03*
X091652Y056776D03*
X090802Y056376D03*
X092952Y056376D03*
X093802Y055976D03*
X093802Y056776D03*
X101440Y032800D03*
X101440Y032000D03*
X102290Y032400D03*
X102515Y018575D03*
X102515Y017775D03*
X102515Y016850D03*
X102515Y016050D03*
X103365Y016450D03*
X103365Y018175D03*
X074315Y012675D03*
X074315Y011875D03*
X073465Y012275D03*
X074315Y010250D03*
X074315Y009450D03*
X073465Y009850D03*
D55*
X097340Y036925D03*
X097590Y036925D03*
X072018Y048501D03*
X072018Y051501D03*
X073493Y057901D03*
X070493Y057901D03*
X024674Y057901D03*
X021674Y057901D03*
X023199Y051501D03*
X023199Y048501D03*
X016424Y040350D03*
X013424Y040350D03*
D56*
X021824Y068276D03*
X070643Y068276D03*
X095590Y036925D03*
X095840Y036925D03*
D57*
X079693Y048656D03*
X079193Y048656D03*
X078693Y048656D03*
X078193Y048656D03*
X078193Y050596D03*
X078693Y050596D03*
X079193Y050596D03*
X079693Y050596D03*
X030874Y050596D03*
X030374Y050596D03*
X029874Y050596D03*
X029374Y050596D03*
X029374Y048656D03*
X029874Y048656D03*
X030374Y048656D03*
X030874Y048656D03*
X066340Y009245D03*
X066840Y009245D03*
X067340Y009245D03*
X067840Y009245D03*
X067840Y007305D03*
X067340Y007305D03*
X066840Y007305D03*
X066340Y007305D03*
D58*
X065750Y009855D03*
X065490Y009855D03*
X065230Y009855D03*
X065230Y010595D03*
X065490Y010595D03*
X065750Y010595D03*
D59*
X066345Y031615D03*
X066345Y031875D03*
X066345Y032135D03*
X067085Y032135D03*
X067085Y031875D03*
X067085Y031615D03*
D60*
X101740Y037975D03*
X084877Y062251D03*
X079268Y062251D03*
X036058Y062251D03*
X030449Y062251D03*
D61*
X104240Y041975D03*
X104240Y037475D03*
D62*
X103039Y036674D03*
X103039Y042776D03*
D63*
X075293Y054326D03*
X067218Y059926D03*
X053358Y074701D03*
X026474Y054326D03*
X018399Y059926D03*
X056290Y028450D03*
X038490Y021525D03*
X102177Y074701D03*
D64*
X102177Y073701D03*
X075293Y052926D03*
X067218Y058526D03*
X053358Y073701D03*
X026474Y052926D03*
X018399Y058526D03*
X056290Y029450D03*
X037490Y021525D03*
D65*
X036967Y021525D03*
X038974Y021525D03*
D66*
X058540Y028457D03*
X058540Y029993D03*
D67*
X038608Y023775D03*
X037073Y023775D03*
X036490Y074901D03*
X038026Y074901D03*
X055715Y075651D03*
X057251Y075651D03*
X085309Y074901D03*
X086845Y074901D03*
X104534Y075651D03*
X106070Y075651D03*
D68*
X081595Y028285D03*
X081595Y028025D03*
X081595Y027775D03*
X081595Y027515D03*
X081595Y027255D03*
X081595Y027005D03*
X081595Y026745D03*
X081595Y026495D03*
X081595Y026235D03*
X081595Y025975D03*
X081595Y025725D03*
X081595Y025465D03*
X078735Y025465D03*
X078735Y025725D03*
X078735Y025975D03*
X078735Y026235D03*
X078735Y026495D03*
X078735Y026745D03*
X078735Y027005D03*
X078735Y027255D03*
X078735Y027515D03*
X078735Y027775D03*
X078735Y028025D03*
X078735Y028285D03*
X089110Y025885D03*
X089110Y025625D03*
X089110Y025375D03*
X089110Y025115D03*
X089110Y024855D03*
X089110Y024605D03*
X089110Y024345D03*
X089110Y024095D03*
X089110Y023835D03*
X089110Y023575D03*
X089110Y023325D03*
X089110Y023065D03*
X091970Y023065D03*
X091970Y023325D03*
X091970Y023575D03*
X091970Y023835D03*
X091970Y024095D03*
X091970Y024345D03*
X091970Y024605D03*
X091970Y024855D03*
X091970Y025115D03*
X091970Y025375D03*
X091970Y025625D03*
X091970Y025885D03*
X080620Y020235D03*
X080620Y019975D03*
X080620Y019725D03*
X080620Y019465D03*
X080620Y019205D03*
X080620Y018955D03*
X080620Y018695D03*
X080620Y018445D03*
X080620Y018185D03*
X080620Y017925D03*
X080620Y017675D03*
X080620Y017415D03*
X077760Y017415D03*
X077760Y017675D03*
X077760Y017925D03*
X077760Y018185D03*
X077760Y018445D03*
X077760Y018695D03*
X077760Y018955D03*
X077760Y019205D03*
X077760Y019465D03*
X077760Y019725D03*
X077760Y019975D03*
X077760Y020235D03*
D69*
X101290Y012905D03*
X101290Y011345D03*
D70*
X053498Y022271D02*
X053498Y023453D01*
X051514Y023453D02*
X051514Y022271D01*
X049530Y022271D02*
X049530Y023453D01*
X049530Y025248D02*
X049530Y026429D01*
X051514Y026429D02*
X051514Y025248D01*
X053498Y025248D02*
X053498Y026429D01*
X045144Y026002D02*
X043963Y026002D01*
X042168Y026002D02*
X040986Y026002D01*
X040986Y027986D02*
X042168Y027986D01*
X043963Y027986D02*
X045144Y027986D01*
X045144Y024017D02*
X043963Y024017D01*
X042168Y024017D02*
X040986Y024017D01*
D71*
X041577Y018065D03*
X044553Y018065D03*
X059451Y022862D03*
X059451Y025838D03*
D72*
X056290Y027966D03*
X056290Y029974D03*
X075293Y052603D03*
X075293Y054610D03*
X067218Y058203D03*
X067218Y060210D03*
X053358Y073178D03*
X053358Y075185D03*
X026474Y054610D03*
X026474Y052603D03*
X018399Y058203D03*
X018399Y060210D03*
X102177Y073178D03*
X102177Y075185D03*
D73*
X096590Y016195D03*
D74*
X096590Y024065D03*
X016971Y022625D03*
D75*
X073815Y022850D03*
X073815Y021850D03*
X073815Y020850D03*
X073815Y019850D03*
X073815Y018850D03*
X073815Y017850D03*
X074815Y017850D03*
X074815Y018850D03*
X074815Y019850D03*
X074815Y020850D03*
X074815Y021850D03*
X074815Y022850D03*
X074815Y023850D03*
X073815Y023850D03*
X073815Y024850D03*
X073815Y025850D03*
X073815Y026850D03*
X073815Y027850D03*
X073815Y028850D03*
X074815Y028850D03*
X074815Y027850D03*
X074815Y026850D03*
X074815Y025850D03*
X074815Y024850D03*
X074815Y029850D03*
X073815Y029850D03*
X073815Y030850D03*
X073815Y031850D03*
X073815Y032850D03*
X073815Y033850D03*
X074815Y033850D03*
X074815Y032850D03*
X074815Y031850D03*
X074815Y030850D03*
X077815Y033850D03*
X078815Y033850D03*
X079815Y033850D03*
X080815Y033850D03*
X081815Y033850D03*
X082815Y033850D03*
X083815Y033850D03*
X084815Y033850D03*
X086815Y033850D03*
X087815Y033850D03*
X088815Y033850D03*
X089815Y033850D03*
X090815Y033850D03*
X091815Y033850D03*
X092815Y033850D03*
X093815Y033850D03*
X095415Y033850D03*
X096415Y033850D03*
X097415Y033850D03*
X098415Y033850D03*
X099415Y033850D03*
X100415Y033850D03*
X101415Y033850D03*
X102415Y033850D03*
X086815Y025850D03*
X085815Y025850D03*
X085815Y024850D03*
X086815Y024850D03*
X086815Y023850D03*
X074815Y016850D03*
X073815Y016850D03*
X075815Y014850D03*
X076815Y014850D03*
X077815Y014850D03*
X078815Y014850D03*
X079815Y014850D03*
X080815Y014850D03*
X081815Y014850D03*
X082815Y014850D03*
X084815Y014850D03*
X085815Y014850D03*
X086815Y014850D03*
X087815Y014850D03*
X088815Y014850D03*
X089815Y014850D03*
X090815Y014850D03*
X091815Y014850D03*
X093815Y014850D03*
X094815Y014850D03*
X095815Y014850D03*
X096815Y014850D03*
X097815Y014850D03*
X098815Y014850D03*
D76*
X085815Y023850D03*
X025175Y037400D03*
X025175Y039400D03*
X023175Y039400D03*
D77*
X021193Y077551D03*
X019854Y077551D03*
X041714Y080526D03*
X043052Y080526D03*
X046164Y079926D03*
X047502Y079926D03*
X068673Y077551D03*
X070012Y077551D03*
X090533Y080526D03*
X091871Y080526D03*
X094983Y079926D03*
X096321Y079926D03*
D78*
X101522Y057556D03*
X101522Y057306D03*
X101522Y057046D03*
X101522Y056796D03*
X103282Y056796D03*
X103282Y057046D03*
X103282Y057306D03*
X103282Y057556D03*
X054463Y057556D03*
X054463Y057306D03*
X054463Y057046D03*
X054463Y056796D03*
X052703Y056796D03*
X052703Y057046D03*
X052703Y057306D03*
X052703Y057556D03*
D79*
X050444Y058329D03*
X050188Y058329D03*
X049932Y058329D03*
X049676Y058329D03*
X049420Y058329D03*
X049164Y058329D03*
X048909Y058329D03*
X048653Y058329D03*
X048653Y056124D03*
X048909Y056124D03*
X049164Y056124D03*
X049420Y056124D03*
X049676Y056124D03*
X049932Y056124D03*
X050188Y056124D03*
X050444Y056124D03*
X097472Y056124D03*
X097727Y056124D03*
X097983Y056124D03*
X098239Y056124D03*
X098495Y056124D03*
X098751Y056124D03*
X099007Y056124D03*
X099263Y056124D03*
X099263Y058329D03*
X099007Y058329D03*
X098751Y058329D03*
X098495Y058329D03*
X098239Y058329D03*
X097983Y058329D03*
X097727Y058329D03*
X097472Y058329D03*
D80*
X099257Y054351D03*
X099257Y053851D03*
X099257Y053351D03*
X099257Y052851D03*
X099257Y052351D03*
X099257Y051851D03*
X099257Y051351D03*
X099257Y050851D03*
X099257Y050351D03*
X095497Y050351D03*
X095497Y050851D03*
X095497Y051351D03*
X095497Y051851D03*
X095497Y052351D03*
X095497Y052851D03*
X095497Y053351D03*
X095497Y053851D03*
X095497Y054351D03*
X050438Y054351D03*
X050438Y053851D03*
X050438Y053351D03*
X050438Y052851D03*
X050438Y052351D03*
X050438Y051851D03*
X050438Y051351D03*
X050438Y050851D03*
X050438Y050351D03*
X046678Y050351D03*
X046678Y050851D03*
X046678Y051351D03*
X046678Y051851D03*
X046678Y052351D03*
X046678Y052851D03*
X046678Y053351D03*
X046678Y053851D03*
X046678Y054351D03*
D81*
X056183Y054626D03*
X056183Y053626D03*
X057183Y053626D03*
X057183Y054626D03*
X057183Y055626D03*
X056183Y055626D03*
X056183Y052626D03*
X057183Y052626D03*
X037058Y062251D03*
X037058Y063251D03*
X036058Y063251D03*
X036058Y064251D03*
X037058Y064251D03*
X037058Y065251D03*
X036058Y065251D03*
X036058Y066251D03*
X037058Y066251D03*
X037058Y067251D03*
X036058Y067251D03*
X036058Y068251D03*
X037058Y068251D03*
X037058Y069251D03*
X036058Y069251D03*
X036058Y070251D03*
X037058Y070251D03*
X030449Y070251D03*
X030449Y069251D03*
X030449Y068251D03*
X030449Y067251D03*
X029449Y067251D03*
X029449Y068251D03*
X029449Y069251D03*
X029449Y070251D03*
X029449Y066251D03*
X030449Y066251D03*
X030449Y065251D03*
X030449Y064251D03*
X030449Y063251D03*
X029449Y063251D03*
X029449Y062251D03*
X029449Y064251D03*
X029449Y065251D03*
X078268Y065251D03*
X079268Y065251D03*
X079268Y064251D03*
X079268Y063251D03*
X078268Y063251D03*
X078268Y062251D03*
X078268Y064251D03*
X078268Y066251D03*
X079268Y066251D03*
X079268Y067251D03*
X079268Y068251D03*
X079268Y069251D03*
X079268Y070251D03*
X078268Y070251D03*
X078268Y069251D03*
X078268Y068251D03*
X078268Y067251D03*
X084877Y067251D03*
X085877Y067251D03*
X085877Y068251D03*
X084877Y068251D03*
X084877Y069251D03*
X085877Y069251D03*
X085877Y070251D03*
X084877Y070251D03*
X084877Y066251D03*
X084877Y065251D03*
X084877Y064251D03*
X084877Y063251D03*
X085877Y063251D03*
X085877Y062251D03*
X085877Y064251D03*
X085877Y065251D03*
X085877Y066251D03*
X105002Y055626D03*
X105002Y054626D03*
X105002Y053626D03*
X106002Y053626D03*
X106002Y054626D03*
X106002Y055626D03*
X106002Y052626D03*
X105002Y052626D03*
D82*
X092326Y082755D02*
X092326Y083700D01*
X090126Y083700D02*
X090126Y082755D01*
X087926Y082755D02*
X087926Y083700D01*
X043507Y083700D02*
X043507Y082755D01*
X041307Y082755D02*
X041307Y083700D01*
X039107Y083700D02*
X039107Y082755D01*
D83*
X045108Y083226D03*
X046608Y083226D03*
X052958Y083376D03*
X052958Y081876D03*
X030949Y073326D03*
X079768Y073326D03*
X093927Y083226D03*
X095427Y083226D03*
X101777Y083376D03*
X101777Y081876D03*
X020899Y027175D03*
X020899Y024175D03*
D84*
X042710Y057626D03*
X042710Y058126D03*
X042710Y058626D03*
X042710Y059126D03*
X042710Y059626D03*
X042710Y060126D03*
X042710Y060626D03*
X044757Y060626D03*
X044757Y060126D03*
X044757Y059626D03*
X044757Y059126D03*
X044757Y058626D03*
X044757Y058126D03*
X044757Y057626D03*
X091528Y057626D03*
X091528Y058126D03*
X091528Y058626D03*
X091528Y059126D03*
X091528Y059626D03*
X091528Y060126D03*
X091528Y060626D03*
X093576Y060626D03*
X093576Y060126D03*
X093576Y059626D03*
X093576Y059126D03*
X093576Y058626D03*
X093576Y058126D03*
X093576Y057626D03*
D85*
X079183Y076866D03*
X079183Y077776D03*
X079183Y078686D03*
X071383Y078976D03*
X071383Y078066D03*
X071383Y079886D03*
X088462Y079551D03*
X088462Y078641D03*
X088462Y080461D03*
X101492Y079536D03*
X101492Y078626D03*
X101492Y077716D03*
X052673Y077716D03*
X052673Y078626D03*
X052673Y079536D03*
X039643Y079551D03*
X039643Y078641D03*
X039643Y080461D03*
X030364Y078686D03*
X030364Y077776D03*
X030364Y076866D03*
X022564Y078066D03*
X022564Y078976D03*
X022564Y079886D03*
D86*
X024834Y078976D03*
X032634Y077776D03*
X037373Y079551D03*
X054943Y078626D03*
X073653Y078976D03*
X081453Y077776D03*
X086192Y079551D03*
X103762Y078626D03*
D87*
X084877Y068251D03*
X084877Y068251D03*
X036058Y068251D03*
X036058Y068251D03*
D88*
X037784Y072643D03*
X038532Y072643D03*
X038158Y073509D03*
X044758Y080868D03*
X044384Y081734D03*
X045132Y081734D03*
X086603Y072643D03*
X087351Y072643D03*
X086977Y073509D03*
X093577Y080868D03*
X093203Y081734D03*
X093951Y081734D03*
D89*
X093514Y064899D03*
X093514Y064399D03*
X093514Y063899D03*
X093514Y063399D03*
X095640Y063399D03*
X095640Y063899D03*
X095640Y064399D03*
X095640Y064899D03*
X046821Y064899D03*
X046821Y064399D03*
X046821Y063899D03*
X046821Y063399D03*
X044695Y063399D03*
X044695Y063899D03*
X044695Y064399D03*
X044695Y064899D03*
D90*
X041175Y074452D03*
X041175Y075200D03*
X042041Y074826D03*
X041175Y076177D03*
X041175Y076925D03*
X042041Y076551D03*
X047225Y077352D03*
X047225Y078100D03*
X048091Y077726D03*
X049016Y080677D03*
X049016Y081425D03*
X048150Y081051D03*
X029557Y075275D03*
X029557Y074527D03*
X028691Y074901D03*
X077510Y074901D03*
X078376Y074527D03*
X078376Y075275D03*
X089994Y075200D03*
X089994Y074452D03*
X090860Y074826D03*
X089994Y076177D03*
X089994Y076925D03*
X090860Y076551D03*
X096044Y077352D03*
X096044Y078100D03*
X096910Y077726D03*
X097835Y080677D03*
X097835Y081425D03*
X096969Y081051D03*
D91*
X088627Y071429D03*
X088627Y069224D03*
X039808Y069224D03*
X039808Y071429D03*
X025274Y029578D03*
X025274Y027373D03*
X020849Y022978D03*
X020849Y020773D03*
D92*
X055604Y074026D03*
X057612Y074026D03*
X104423Y074026D03*
X106431Y074026D03*
D93*
X071166Y055415D03*
X071166Y054037D03*
X067819Y054037D03*
X067819Y055415D03*
X022347Y055415D03*
X022347Y054037D03*
X019000Y054037D03*
X019000Y055415D03*
D94*
X017050Y055276D03*
X015948Y055276D03*
X015948Y056626D03*
X017050Y056626D03*
X024723Y056126D03*
X025825Y056126D03*
X026698Y056126D03*
X027800Y056126D03*
X017350Y049701D03*
X016248Y049701D03*
X006851Y038425D03*
X005748Y038425D03*
X013273Y034850D03*
X014376Y034850D03*
X065066Y049701D03*
X066169Y049701D03*
X065869Y055276D03*
X064766Y055276D03*
X064766Y056626D03*
X065869Y056626D03*
X073541Y056126D03*
X074644Y056126D03*
X075516Y056126D03*
X076619Y056126D03*
D95*
X070923Y083000D02*
X070156Y083000D01*
X067971Y083000D02*
X067203Y083000D01*
X065018Y083000D02*
X064250Y083000D01*
X061081Y083000D02*
X060313Y083000D01*
X022105Y083000D02*
X021337Y083000D01*
X019152Y083000D02*
X018384Y083000D01*
X016199Y083000D02*
X015431Y083000D01*
X012262Y083000D02*
X011494Y083000D01*
D96*
X026374Y058877D03*
X026374Y057775D03*
X027724Y057775D03*
X027724Y058877D03*
X017524Y051877D03*
X017524Y050775D03*
X024374Y050552D03*
X024374Y049450D03*
X015499Y034351D03*
X015499Y033249D03*
X008474Y033124D03*
X008474Y034226D03*
X066343Y050775D03*
X066343Y051877D03*
X073193Y050552D03*
X073193Y049450D03*
X075193Y057775D03*
X075193Y058877D03*
X076543Y058877D03*
X076543Y057775D03*
D97*
X077760Y060676D03*
X079375Y060676D03*
X080035Y059701D03*
X081650Y059701D03*
X067750Y076476D03*
X067750Y077776D03*
X066135Y077776D03*
X066135Y076476D03*
X032831Y059701D03*
X031217Y059701D03*
X030556Y060676D03*
X028942Y060676D03*
X018931Y076476D03*
X018931Y077776D03*
X017317Y077776D03*
X017317Y076476D03*
D98*
X028374Y078532D03*
X028374Y079870D03*
X077193Y079870D03*
X077193Y078532D03*
D99*
X064143Y077508D03*
X064143Y075894D03*
X015324Y075894D03*
X015324Y077508D03*
D100*
X021674Y072901D03*
X017799Y068276D03*
X021674Y063651D03*
X066618Y068276D03*
X070493Y072901D03*
X070493Y063651D03*
D101*
X074493Y063651D03*
X070618Y068276D03*
X074493Y072901D03*
X062618Y068276D03*
X025674Y063651D03*
X021799Y068276D03*
X025674Y072901D03*
X013799Y068276D03*
D102*
X028574Y052815D03*
X028574Y051988D03*
X077393Y051988D03*
X077393Y052815D03*
D103*
X062515Y061082D03*
X020390Y041049D03*
X013696Y061082D03*
D104*
X023922Y057901D03*
X023199Y049253D03*
X015673Y040350D03*
X072018Y049253D03*
X072741Y057901D03*
D105*
X072018Y050501D03*
X023199Y050501D03*
D106*
X022674Y057901D03*
X014424Y040350D03*
X071493Y057901D03*
D107*
X081668Y058335D03*
X081668Y056918D03*
X081668Y055585D03*
X081668Y054168D03*
X074968Y048885D03*
X074968Y047468D03*
X032849Y054168D03*
X032849Y055585D03*
X032849Y056918D03*
X032849Y058335D03*
X026149Y048885D03*
X026149Y047468D03*
D108*
X026149Y048676D03*
X032849Y055376D03*
X032849Y058126D03*
X074968Y048676D03*
X081668Y055376D03*
X081668Y058126D03*
D109*
X070188Y050551D03*
X070188Y050291D03*
X070188Y050031D03*
X070188Y049781D03*
X070188Y049521D03*
X070188Y049271D03*
X070188Y049011D03*
X070188Y048751D03*
X067948Y048751D03*
X067948Y049011D03*
X067948Y049271D03*
X067948Y049521D03*
X067948Y049781D03*
X067948Y050031D03*
X067948Y050291D03*
X067948Y050551D03*
X021369Y050551D03*
X021369Y050291D03*
X021369Y050031D03*
X021369Y049781D03*
X021369Y049521D03*
X021369Y049271D03*
X021369Y049011D03*
X021369Y048751D03*
X019129Y048751D03*
X019129Y049011D03*
X019129Y049271D03*
X019129Y049521D03*
X019129Y049781D03*
X019129Y050031D03*
X019129Y050291D03*
X019129Y050551D03*
D110*
X031949Y073326D03*
X080768Y073326D03*
D111*
X023175Y037400D03*
D112*
X016374Y036280D03*
X016114Y036280D03*
X015854Y036280D03*
X015604Y036280D03*
X015344Y036280D03*
X015094Y036280D03*
X014834Y036280D03*
X014574Y036280D03*
X014574Y038520D03*
X014834Y038520D03*
X015094Y038520D03*
X015344Y038520D03*
X015604Y038520D03*
X015854Y038520D03*
X016114Y038520D03*
X016374Y038520D03*
D113*
X015474Y037400D03*
D114*
X015474Y037400D03*
D115*
X010499Y036152D03*
X010499Y039498D03*
D116*
X019065Y012825D03*
X021034Y012825D03*
D117*
X016971Y017704D03*
X016971Y019672D03*
X015986Y019672D03*
X015986Y021641D03*
X015986Y023609D03*
X015986Y025578D03*
X016971Y025578D03*
X016971Y027546D03*
X007128Y027546D03*
X007128Y025578D03*
X006144Y025578D03*
X006144Y023609D03*
X006144Y019672D03*
X007128Y019672D03*
X007128Y017704D03*
X006144Y017704D03*
D118*
X016735Y010845D03*
X016735Y008590D03*
X022735Y008590D03*
X022735Y010845D03*
D119*
X015684Y041575D03*
X014565Y041575D03*
D120*
X022512Y021625D02*
X023337Y021625D01*
X026187Y021700D02*
X027012Y021700D01*
X027012Y019550D02*
X026187Y019550D01*
X023337Y019475D02*
X022512Y019475D01*
X022512Y017325D02*
X023337Y017325D01*
X026187Y017400D02*
X027012Y017400D01*
D121*
X023027Y028725D03*
X020822Y028725D03*
D122*
X025449Y011000D03*
X025449Y009000D03*
D123*
X024754Y014550D03*
X024754Y024550D03*
X009349Y005225D03*
D124*
X021024Y030796D03*
X022024Y030796D03*
X023024Y030796D03*
X024924Y030746D03*
X025924Y030746D03*
X026924Y030746D03*
X026924Y034404D03*
X025924Y034404D03*
X024924Y034404D03*
X023024Y034454D03*
X022024Y034454D03*
X021024Y034454D03*
D125*
X038183Y052726D03*
X028299Y060676D03*
X039633Y062526D03*
X040233Y063376D03*
X043633Y067526D03*
X043308Y068326D03*
X046658Y067526D03*
X047233Y072401D03*
X047233Y072876D03*
X077118Y060676D03*
X087002Y052726D03*
X088452Y062526D03*
X089052Y063376D03*
X092452Y067526D03*
X092127Y068326D03*
X095477Y067526D03*
X096052Y072401D03*
X096052Y072876D03*
X093890Y037875D03*
X094965Y032350D03*
X094390Y031925D03*
X095915Y031625D03*
X094965Y029325D03*
X094390Y027050D03*
X094965Y026550D03*
X094390Y024950D03*
X094390Y023700D03*
X093140Y019800D03*
X092590Y019350D03*
X089840Y026950D03*
X088190Y028850D03*
X085265Y028800D03*
X068990Y022025D03*
X072640Y015650D03*
X072640Y008850D03*
X094340Y009000D03*
X098690Y007800D03*
X098690Y007225D03*
X098690Y006650D03*
X098690Y006075D03*
X098690Y005500D03*
X101990Y005500D03*
X101990Y006075D03*
X101990Y006650D03*
X101990Y007225D03*
X101990Y007800D03*
X100565Y009475D03*
X102665Y024250D03*
D126*
X005948Y004863D03*
X026421Y004863D03*
X026421Y041084D03*
X030284Y043039D03*
X005948Y041084D03*
X105874Y004850D03*
D127*
X066568Y052351D03*
X066143Y052351D03*
X066643Y053826D03*
X066643Y054251D03*
X064243Y055076D03*
X064243Y055501D03*
X064243Y056401D03*
X064243Y056826D03*
X076543Y057276D03*
X076568Y055401D03*
X079468Y059601D03*
X079918Y060551D03*
X084677Y070751D03*
X085102Y070751D03*
X084902Y071176D03*
X084477Y071176D03*
X084477Y071601D03*
X084902Y071601D03*
X085327Y071601D03*
X085327Y071176D03*
X088052Y071976D03*
X088427Y071976D03*
X088802Y071976D03*
X089177Y071976D03*
X089177Y072351D03*
X088802Y072351D03*
X088427Y072351D03*
X088052Y072351D03*
X103877Y073601D03*
X103877Y074026D03*
X103877Y074451D03*
X055058Y074451D03*
X055058Y074026D03*
X055058Y073601D03*
X040358Y072351D03*
X040358Y071976D03*
X039983Y071976D03*
X039608Y071976D03*
X039233Y071976D03*
X039233Y072351D03*
X039608Y072351D03*
X039983Y072351D03*
X036508Y071601D03*
X036508Y071176D03*
X036083Y071176D03*
X035658Y071176D03*
X035658Y071601D03*
X036083Y071601D03*
X036283Y070751D03*
X035858Y070751D03*
X031099Y060551D03*
X030649Y059601D03*
X027724Y057276D03*
X027749Y055401D03*
X017824Y054251D03*
X017824Y053826D03*
X017749Y052351D03*
X017324Y052351D03*
X015424Y055076D03*
X015424Y055501D03*
X015424Y056401D03*
X015424Y056826D03*
X011649Y041000D03*
X011074Y041000D03*
X010499Y041000D03*
X009924Y041000D03*
X009349Y041000D03*
D128*
X012173Y046976D03*
X032646Y046976D03*
X036583Y046976D03*
X057055Y046976D03*
X060992Y046976D03*
X081465Y046976D03*
X085402Y046976D03*
X105874Y046976D03*
X081465Y080834D03*
X085402Y083196D03*
X105874Y083196D03*
X060992Y080834D03*
X057055Y083196D03*
X036583Y083196D03*
X032646Y080834D03*
X012173Y080834D03*
M02*
