%
M48
M72
T01C0.0236
T02C0.0276
T03C0.0354
T04C0.0360
T05C0.0394
T06C0.0400
T07C0.0433
T08C0.0472
T09C0.0531
T10C0.0550
T11C0.0590
T12C0.0630
T13C0.0787
T14C0.0906
T15C0.1102
T16C0.1260
%
T01
X46213Y12284
X59513Y16409
X59883Y16409
X61463Y16634
X59833Y17959
X59438Y17959
X59043Y17959
X59038Y19284
X60188Y19309
X62963Y20359
X62963Y20959
X62963Y21559
X62963Y22159
X62963Y22759
X62963Y23359
X62963Y23959
X65963Y24634
X65963Y25659
X66163Y26459
X63363Y26759
X61338Y27709
X60588Y28209
X60538Y27184
X64513Y28259
X62113Y30184
X54338Y26759
X54613Y24559
X54613Y24184
X54588Y23184
X54588Y22809
X55113Y21909
X56013Y21909
X56263Y20634
X56638Y19884
X57013Y19884
X54863Y17234
X68513Y11409
X64688Y11134
X64688Y10734
X64688Y10334
X64688Y9934
X64688Y9534
X64688Y9134
X64288Y9134
X64288Y9534
X64288Y9934
X64288Y10334
X64288Y10734
X64288Y11134
X63088Y8984
X68463Y8634
X54413Y5234
X52188Y5184
X40388Y29834
X39288Y30034
X40163Y30609
X41813Y32484
T02
X60588Y5059
X62588Y5059
T03
X50321Y28711
X49336Y28711
X49336Y29970
X50321Y29970
T04
X34238Y9159
X34238Y6159
T05
X67938Y19659
X67938Y20659
X67938Y21659
X68057Y24572
X67057Y24572
X67057Y25572
X68057Y25572
X68057Y26572
X67057Y26572
X67057Y27572
X68057Y27572
X68057Y28572
X67057Y28572
X62788Y32334
X61788Y32334
X60788Y32334
X59788Y32334
X58788Y32334
X56688Y32334
X55688Y32334
X54688Y32334
X53688Y32334
X52688Y32334
X50688Y32334
X49688Y32334
X48688Y32334
X47688Y32334
X46688Y32334
X45688Y32334
X44688Y32334
X43688Y32334
X41643Y31333
X40643Y31333
X39643Y31333
X38643Y31333
X39143Y32333
X40143Y32333
X41143Y32333
X38143Y32333
X38402Y27215
X37402Y27215
X41383Y27215
X42383Y27215
T06
X34738Y29734
X30738Y29734
X60464Y11125
X62464Y11125
X37313Y8634
X37313Y6634
T07
X34738Y17099
X30801Y17099
T08
X40317Y14288
X41238Y15459
X43238Y15459
X47238Y15459
X49238Y15459
X50159Y14288
X35039Y21166
X33089Y21166
X40317Y24131
X42285Y24131
X45238Y24131
X48191Y24131
X50159Y24131
X49238Y25459
X47238Y25459
X43238Y25459
X41238Y25459
X35787Y25103
X33837Y25103
T09
X29245Y25187
X29245Y27155
X29245Y23218
X29245Y21250
X29245Y19281
T10
X43463Y10634
X45613Y10634
X47763Y10634
X47763Y6934
X45613Y6934
X43463Y6934
T11
X35423Y11299
X35423Y13605
X29423Y13605
X29423Y11299
T12
X28938Y15309
X28938Y17059
X36792Y30365
X35438Y31959
X42993Y30365
T13
X59438Y17184
T14
X52199Y28907
X47458Y28907
T15
X50638Y8159
X40638Y8159
T16
X29063Y7015
X65283Y7015
X42143Y28833
X45204Y29850
X37643Y28833
X29063Y31819
X65283Y31819
M30
