G75*
G70*
%OFA0B0*%
%FSLAX24Y24*%
%IPPOS*%
%LPD*%
%AMOC8*
5,1,8,0,0,1.08239X$1,22.5*
%
%ADD10C,0.0120*%
%ADD11C,0.0140*%
%ADD12R,0.0592X0.0671*%
%ADD13R,0.0671X0.0592*%
%ADD14R,0.0513X0.0474*%
%ADD15R,0.0631X0.0631*%
%ADD16R,0.0640X0.0220*%
%ADD17R,0.1298X0.1298*%
%ADD18R,0.1143X0.0710*%
%ADD19R,0.2165X0.2362*%
%ADD20R,0.0710X0.1143*%
%ADD21OC8,0.0973*%
%ADD22R,0.0790X0.0710*%
%ADD23C,0.0907*%
%ADD24R,0.1340X0.0789*%
%ADD25OC8,0.0640*%
%ADD26OC8,0.0840*%
%ADD27C,0.1653*%
%ADD28R,0.0678X0.0781*%
%ADD29C,0.1100*%
%ADD30R,0.0789X0.1064*%
%ADD31C,0.0674*%
%ADD32C,0.0674*%
%ADD33R,0.0560X0.0960*%
%ADD34R,0.1504X0.0953*%
%ADD35C,0.0640*%
%ADD36C,0.1436*%
%ADD37OC8,0.0674*%
%ADD38R,0.0674X0.0674*%
%ADD39C,0.1039*%
%ADD40C,0.1386*%
%ADD41R,0.0474X0.0513*%
%ADD42R,0.1360X0.0380*%
%ADD43R,0.0520X0.0180*%
%ADD44R,0.0520X0.0200*%
%ADD45R,0.0600X0.0450*%
%ADD46R,0.0700X0.0300*%
%ADD47OC8,0.0680*%
%ADD48R,0.0860X0.0300*%
%ADD49R,0.0552X0.0671*%
%ADD50C,0.0050*%
%ADD51OC8,0.1100*%
%ADD52C,0.1299*%
%ADD53C,0.1299*%
%ADD54C,0.2562*%
%ADD55C,0.1650*%
%ADD56C,0.2365*%
D10*
X059418Y017700D02*
X060793Y017700D01*
D11*
X063168Y017725D02*
X064118Y017725D01*
X064118Y017975D02*
X063193Y017975D01*
D12*
X063469Y018725D03*
X064217Y018725D03*
X058667Y016150D03*
X057919Y016150D03*
X057919Y015375D03*
X058667Y015375D03*
X060269Y015700D03*
X061017Y015700D03*
X061017Y014925D03*
X060269Y014925D03*
X058667Y014600D03*
X057919Y014600D03*
X062194Y014900D03*
X062942Y014900D03*
X062942Y015700D03*
X062194Y015700D03*
X062194Y014125D03*
X062942Y014125D03*
X066019Y012250D03*
X066767Y012250D03*
X066767Y011475D03*
X066019Y011475D03*
X069394Y009800D03*
X070142Y009800D03*
X053542Y007200D03*
X052794Y007200D03*
X050342Y029900D03*
X049594Y029900D03*
X049594Y030675D03*
X050342Y030675D03*
D13*
X068418Y029849D03*
X069193Y029849D03*
X069193Y029101D03*
X068418Y029101D03*
X058518Y020824D03*
X058518Y020076D03*
X058518Y019274D03*
X058518Y018526D03*
X063743Y015824D03*
X063743Y015076D03*
X064768Y013524D03*
X064768Y012776D03*
X064768Y011974D03*
X064768Y011226D03*
X064968Y009699D03*
X064968Y008951D03*
X064968Y008149D03*
X064968Y007401D03*
X047843Y012601D03*
X047843Y013349D03*
X059468Y014936D03*
X059468Y015684D03*
X068343Y018326D03*
X068343Y019074D03*
X065893Y019151D03*
X065893Y019899D03*
D14*
X061753Y018875D03*
X061084Y018875D03*
X055853Y031225D03*
X055184Y031225D03*
D15*
X065018Y018773D03*
X065018Y017277D03*
X067568Y014448D03*
X067568Y012952D03*
D16*
X063263Y016425D03*
X063263Y016685D03*
X063263Y016945D03*
X063263Y017195D03*
X063263Y017455D03*
X063263Y017705D03*
X063263Y017965D03*
X063263Y018225D03*
X061023Y018225D03*
X061023Y017965D03*
X061023Y017705D03*
X061023Y017455D03*
X061023Y017195D03*
X061023Y016945D03*
X061023Y016685D03*
X061023Y016425D03*
D17*
X062143Y017325D03*
D18*
X059593Y018424D03*
X059593Y019526D03*
D19*
X060895Y022050D03*
X064241Y022050D03*
D20*
X058894Y023150D03*
X057792Y023150D03*
X057792Y024525D03*
X058894Y024525D03*
X059094Y017375D03*
X057992Y017375D03*
D21*
X040128Y012820D03*
X040153Y010640D03*
X034153Y010640D03*
X034128Y012820D03*
D22*
X065893Y017215D03*
X065893Y018335D03*
D23*
X053543Y012988D02*
X053543Y012163D01*
X051393Y012163D02*
X051393Y012988D01*
X049243Y012988D02*
X049243Y012163D01*
X049243Y009288D02*
X049243Y008463D01*
X051393Y008463D02*
X051393Y009288D01*
X053543Y009288D02*
X053543Y008463D01*
D24*
X058418Y008202D03*
X058418Y010123D03*
X058418Y012327D03*
X058418Y005998D03*
X040268Y006398D03*
X038718Y006398D03*
X038718Y008602D03*
X040268Y008602D03*
D25*
X036693Y008825D03*
X036693Y005825D03*
D26*
X043343Y008400D03*
X043343Y010400D03*
D27*
X046418Y010100D03*
X056418Y010100D03*
D28*
X060264Y010225D03*
X060264Y011225D03*
X060264Y012225D03*
X063922Y012225D03*
X063922Y011225D03*
X063922Y010225D03*
X063922Y008425D03*
X063922Y007425D03*
X063922Y006425D03*
X060264Y006425D03*
X060264Y007425D03*
X060264Y008425D03*
D29*
X039893Y015665D03*
X035956Y015665D03*
X041662Y018001D03*
X037725Y018749D03*
X041662Y019976D03*
X037725Y020724D03*
D30*
X068360Y012350D03*
X071076Y012350D03*
D31*
X070465Y017775D02*
X069871Y017775D01*
X069871Y018775D02*
X070465Y018775D01*
X070465Y019775D02*
X069871Y019775D01*
D32*
X070362Y022588D03*
X069362Y022588D03*
X069362Y023588D03*
X070362Y023588D03*
X070362Y024588D03*
X069362Y024588D03*
X069362Y025588D03*
X070362Y025588D03*
X070362Y026588D03*
X069362Y026588D03*
X066249Y026006D03*
X065249Y026006D03*
X062268Y026006D03*
X061268Y026006D03*
X062509Y030124D03*
X063509Y030124D03*
X064509Y030124D03*
X065009Y031124D03*
X064009Y031124D03*
X063009Y031124D03*
X062009Y031124D03*
D33*
X066333Y010070D03*
X067243Y010070D03*
X068153Y010070D03*
D34*
X067243Y007630D03*
D35*
X054487Y027930D03*
X053502Y027930D03*
X053502Y029190D03*
X054487Y029190D03*
D36*
X056365Y028127D03*
X051624Y028127D03*
D37*
X051693Y032850D03*
X050693Y032850D03*
X049693Y032850D03*
X052693Y032850D03*
X053693Y032850D03*
X060468Y032850D03*
X061468Y032850D03*
X062468Y032850D03*
X063468Y032850D03*
X064468Y032850D03*
X065468Y032850D03*
X066468Y032850D03*
X067468Y032850D03*
X046318Y032850D03*
X045318Y032850D03*
X044318Y032850D03*
X043318Y032850D03*
X042318Y032850D03*
D38*
X065509Y030124D03*
D39*
X066859Y029156D03*
X060658Y029156D03*
D40*
X061509Y027624D03*
X066009Y027624D03*
D41*
X066684Y031850D03*
X067353Y031850D03*
X050953Y026775D03*
X050284Y026775D03*
X049493Y027415D03*
X049493Y028085D03*
X050268Y028090D03*
X050268Y028760D03*
X043843Y028085D03*
X043843Y027415D03*
X043068Y028065D03*
X043068Y028735D03*
X049034Y031875D03*
X049703Y031875D03*
D42*
X068818Y015525D03*
X070718Y015525D03*
D43*
X064658Y028925D03*
X064658Y029125D03*
X064658Y029325D03*
D44*
X063578Y029325D03*
X063578Y028925D03*
D45*
X054043Y030525D03*
D46*
X054043Y029845D03*
X054793Y029845D03*
X054793Y030605D03*
D47*
X040193Y028100D03*
X040193Y024100D03*
D48*
X044793Y027550D03*
X044793Y028050D03*
X044793Y028550D03*
X044793Y029050D03*
X044793Y029550D03*
X044793Y030050D03*
X044793Y030550D03*
X044793Y031050D03*
X048493Y031050D03*
X048493Y030550D03*
X048493Y030050D03*
X048493Y029550D03*
X048493Y029050D03*
X048493Y028550D03*
X048493Y028050D03*
X048493Y027550D03*
D49*
X070093Y029029D03*
X070093Y030171D03*
D50*
X036586Y033113D02*
X036563Y033029D01*
X036526Y032950D01*
X036476Y032879D01*
X036415Y032817D01*
X036343Y032767D01*
X036264Y032730D01*
X036180Y032708D01*
X036093Y032700D01*
X036006Y032708D01*
X035922Y032730D01*
X035843Y032767D01*
X035772Y032817D01*
X035710Y032879D01*
X035660Y032950D01*
X035623Y033029D01*
X035601Y033113D01*
X035593Y033200D01*
X035601Y033287D01*
X035623Y033371D01*
X035660Y033450D01*
X035710Y033521D01*
X035772Y033583D01*
X035843Y033633D01*
X035922Y033670D01*
X036006Y033692D01*
X036093Y033700D01*
X036180Y033692D01*
X036264Y033670D01*
X036343Y033633D01*
X036415Y033583D01*
X036476Y033521D01*
X036526Y033450D01*
X036563Y033371D01*
X036586Y033287D01*
X036593Y033200D01*
X036586Y033113D01*
X036587Y033126D02*
X035600Y033126D01*
X035595Y033174D02*
X036591Y033174D01*
X036591Y033223D02*
X035595Y033223D01*
X035599Y033271D02*
X036587Y033271D01*
X036577Y033320D02*
X035610Y033320D01*
X035623Y033368D02*
X036564Y033368D01*
X036542Y033417D02*
X035645Y033417D01*
X035671Y033465D02*
X036516Y033465D01*
X036482Y033514D02*
X035705Y033514D01*
X035751Y033562D02*
X036435Y033562D01*
X036375Y033611D02*
X035811Y033611D01*
X035899Y033659D02*
X036287Y033659D01*
X036576Y033077D02*
X035610Y033077D01*
X035623Y033029D02*
X036563Y033029D01*
X036540Y032980D02*
X035646Y032980D01*
X035673Y032932D02*
X036513Y032932D01*
X036479Y032883D02*
X035707Y032883D01*
X035754Y032835D02*
X036432Y032835D01*
X036371Y032786D02*
X035816Y032786D01*
X035906Y032738D02*
X036280Y032738D01*
X070797Y006195D02*
X070881Y006217D01*
X070968Y006225D01*
X071055Y006217D01*
X071139Y006195D01*
X071218Y006158D01*
X071290Y006108D01*
X071351Y006046D01*
X071401Y005975D01*
X071438Y005896D01*
X071461Y005812D01*
X071468Y005725D01*
X071461Y005638D01*
X071438Y005554D01*
X071401Y005475D01*
X071351Y005404D01*
X071290Y005342D01*
X071218Y005292D01*
X071139Y005255D01*
X071055Y005233D01*
X070968Y005225D01*
X070881Y005233D01*
X070797Y005255D01*
X070718Y005292D01*
X070647Y005342D01*
X070585Y005404D01*
X070535Y005475D01*
X070498Y005554D01*
X070476Y005638D01*
X070468Y005725D01*
X070476Y005812D01*
X070498Y005896D01*
X070535Y005975D01*
X070585Y006046D01*
X070647Y006108D01*
X070718Y006158D01*
X070797Y006195D01*
X070846Y006208D02*
X071090Y006208D01*
X071215Y006160D02*
X070721Y006160D01*
X070651Y006111D02*
X071285Y006111D01*
X071335Y006063D02*
X070601Y006063D01*
X070562Y006014D02*
X071374Y006014D01*
X071406Y005966D02*
X070531Y005966D01*
X070508Y005917D02*
X071428Y005917D01*
X071445Y005869D02*
X070491Y005869D01*
X070478Y005820D02*
X071458Y005820D01*
X071464Y005772D02*
X070472Y005772D01*
X070468Y005723D02*
X071468Y005723D01*
X071464Y005675D02*
X070473Y005675D01*
X070479Y005626D02*
X071457Y005626D01*
X071444Y005578D02*
X070492Y005578D01*
X070510Y005529D02*
X071426Y005529D01*
X071404Y005481D02*
X070533Y005481D01*
X070565Y005432D02*
X071371Y005432D01*
X071331Y005384D02*
X070605Y005384D01*
X070657Y005335D02*
X071280Y005335D01*
X071206Y005287D02*
X070730Y005287D01*
X070861Y005238D02*
X071075Y005238D01*
D51*
X053755Y016388D03*
X045881Y016388D03*
X047850Y024262D03*
X051787Y024262D03*
D52*
X038259Y024189D02*
X037078Y024189D01*
X037078Y022536D02*
X038259Y022536D01*
X038259Y025843D02*
X037078Y025843D01*
X037078Y027496D02*
X038259Y027496D01*
X038259Y029150D02*
X037078Y029150D01*
D53*
X034794Y029150D03*
X034794Y022536D03*
D54*
X034024Y007606D03*
X070244Y007606D03*
X070244Y032409D03*
X034024Y032409D03*
D55*
X033843Y019650D03*
X033843Y017900D03*
D56*
X058433Y029456D03*
M02*
