G75*
G70*
%OFA0B0*%
%FSLAX24Y24*%
%IPPOS*%
%LPD*%
%AMOC8*
5,1,8,0,0,1.08239X$1,22.5*
%
%ADD10C,0.0120*%
%ADD11C,0.0140*%
%ADD12C,0.1200*%
%ADD13OC8,0.1200*%
%ADD14C,0.0720*%
%ADD15OC8,0.0720*%
%ADD16R,0.0693X0.0614*%
%ADD17R,0.0614X0.0693*%
%ADD18R,0.0661X0.0661*%
%ADD19R,0.0168X0.0588*%
%ADD20R,0.0960X0.0960*%
%ADD21OC8,0.1381*%
%ADD22R,0.0756X0.1189*%
%ADD23R,0.2365X0.2169*%
%ADD24OC8,0.0792*%
%ADD25C,0.0712*%
%ADD26R,0.1189X0.0756*%
%ADD27OC8,0.1450*%
%ADD28OC8,0.1032*%
%ADD29C,0.1200*%
%ADD30OC8,0.1062*%
%ADD31R,0.0756X0.0836*%
%ADD32C,0.0990*%
%ADD33R,0.0850X0.1402*%
%ADD34OC8,0.0672*%
%ADD35OC8,0.0912*%
%ADD36C,0.1702*%
%ADD37R,0.0820X0.0718*%
%ADD38R,0.0523X0.0523*%
%ADD39C,0.2562*%
%ADD40C,0.1700*%
D10*
X016594Y037055D02*
X016994Y037455D01*
X016994Y038205D01*
D11*
X016969Y040380D02*
X016969Y041330D01*
X016744Y041330D02*
X016744Y040405D01*
D12*
X022284Y041005D03*
X011498Y013975D03*
X011503Y011596D03*
X008079Y010293D03*
X008079Y014230D03*
X015435Y013109D03*
X015440Y010730D03*
D13*
X022284Y043005D03*
D14*
X025069Y039355D03*
D15*
X025069Y041355D03*
X027069Y041355D03*
X027069Y039355D03*
D16*
X019769Y039306D03*
X019769Y040054D03*
X018994Y040054D03*
X018994Y039306D03*
X018994Y038229D03*
X018994Y037481D03*
X019769Y037481D03*
X019769Y038229D03*
X019769Y035879D03*
X019769Y035131D03*
X018994Y035131D03*
X018994Y035879D03*
X015744Y038256D03*
X015744Y039004D03*
X015969Y040681D03*
X015969Y041429D03*
D17*
X015568Y043530D03*
X014820Y043530D03*
X018895Y040955D03*
X019643Y040955D03*
X019758Y036680D03*
X019010Y036680D03*
X016168Y035730D03*
X016168Y034955D03*
X015420Y034955D03*
X015420Y035730D03*
X022820Y037280D03*
X023568Y037280D03*
X026720Y037280D03*
X027468Y037280D03*
D18*
X017542Y042430D03*
X016046Y042430D03*
D19*
X016469Y040475D03*
X016729Y040475D03*
X016989Y040475D03*
X017239Y040475D03*
X017499Y040475D03*
X017749Y040475D03*
X018009Y040475D03*
X018269Y040475D03*
X018269Y038235D03*
X018009Y038235D03*
X017749Y038235D03*
X017499Y038235D03*
X017239Y038235D03*
X016989Y038235D03*
X016729Y038235D03*
X016469Y038235D03*
D20*
X017369Y039355D03*
D21*
X017369Y039355D03*
D22*
X016270Y036805D03*
X015168Y036805D03*
X008745Y040380D03*
X007643Y040380D03*
D23*
X012394Y041454D03*
X012394Y038107D03*
D24*
X020960Y014780D03*
X022928Y014780D03*
D25*
X013694Y035133D02*
X013694Y035727D01*
X012694Y035727D02*
X012694Y035133D01*
X011694Y035133D02*
X011694Y035727D01*
X008541Y036130D02*
X007947Y036130D01*
X007947Y035130D02*
X008541Y035130D01*
X008541Y034130D02*
X007947Y034130D01*
X007947Y037130D02*
X008541Y037130D01*
X008541Y038130D02*
X007947Y038130D01*
X007947Y039130D02*
X008541Y039130D01*
D26*
X010369Y036181D03*
X010369Y035079D03*
X017394Y035204D03*
X017394Y036306D03*
D27*
X019115Y029502D03*
X020099Y029502D03*
X020099Y027533D03*
X019115Y027533D03*
X020099Y023596D03*
X020099Y021628D03*
X019115Y021628D03*
X019115Y019659D03*
X010257Y021628D03*
X009273Y021628D03*
X010257Y023596D03*
X010257Y025565D03*
X010257Y027533D03*
X009273Y027533D03*
X009273Y029502D03*
X009273Y019659D03*
D28*
X009273Y024580D03*
D29*
X013623Y007712D02*
X013623Y006712D01*
X015592Y006712D02*
X015592Y007712D01*
X017560Y007712D02*
X017560Y006712D01*
X019529Y006712D02*
X019529Y007712D01*
X021497Y007712D02*
X021497Y006712D01*
D30*
X018629Y010545D03*
X018629Y012801D03*
X024629Y012801D03*
X024629Y010545D03*
D31*
X017579Y043530D03*
X016459Y043530D03*
D32*
X023006Y023630D02*
X023831Y023630D01*
X023831Y021480D02*
X023006Y021480D01*
X023006Y019330D02*
X023831Y019330D01*
X026706Y019330D02*
X027531Y019330D01*
X027531Y021480D02*
X026706Y021480D01*
X026706Y023630D02*
X027531Y023630D01*
D33*
X024646Y028505D03*
X024921Y030855D03*
X026492Y030855D03*
X028696Y030855D03*
X022717Y030855D03*
X022442Y028505D03*
D34*
X025844Y028455D03*
X028844Y028455D03*
D35*
X027344Y012955D03*
X027344Y010955D03*
D36*
X025894Y016480D03*
X025894Y026480D03*
D37*
X026819Y032702D03*
X027819Y032702D03*
X028819Y032702D03*
X028819Y036359D03*
X027819Y036359D03*
X026819Y036359D03*
X024919Y036409D03*
X023919Y036409D03*
X022919Y036409D03*
X022919Y032752D03*
X023919Y032752D03*
X024919Y032752D03*
D38*
X013544Y042955D03*
X012969Y042955D03*
X012394Y042955D03*
X011819Y042955D03*
X011244Y042955D03*
D39*
X007843Y006819D03*
X028315Y006819D03*
X028315Y043039D03*
X007843Y043039D03*
D40*
X011244Y007180D03*
M02*
