G75*
G70*
%OFA0B0*%
%FSLAX24Y24*%
%IPPOS*%
%LPD*%
%AMOC8*
5,1,8,0,0,1.08239X$1,22.5*
%
%ADD10C,0.0040*%
%ADD11C,0.0100*%
%ADD12C,0.0060*%
%ADD13C,0.0070*%
%ADD14C,0.0080*%
%ADD15C,0.0020*%
D10*
X063313Y012088D02*
X063313Y012209D01*
X063373Y012269D01*
X063493Y012269D01*
X063493Y012149D01*
X063613Y012269D02*
X063673Y012209D01*
X063673Y012088D01*
X063613Y012028D01*
X063373Y012028D01*
X063313Y012088D01*
X063313Y012397D02*
X063553Y012397D01*
X063553Y012577D01*
X063493Y012637D01*
X063313Y012637D01*
X063373Y012765D02*
X063493Y012765D01*
X063553Y012825D01*
X063553Y013005D01*
X063673Y013005D02*
X063313Y013005D01*
X063313Y012825D01*
X063373Y012765D01*
X063913Y012825D02*
X063913Y013005D01*
X063913Y012825D02*
X063973Y012765D01*
X064093Y012765D01*
X064153Y012825D01*
X064153Y013005D01*
X064513Y013005D02*
X064513Y012765D01*
X064873Y012765D01*
X064873Y013005D01*
X064693Y012885D02*
X064693Y012765D01*
X064633Y012637D02*
X064573Y012637D01*
X064513Y012577D01*
X064513Y012457D01*
X064573Y012397D01*
X064693Y012457D02*
X064753Y012397D01*
X064813Y012397D01*
X064873Y012457D01*
X064873Y012577D01*
X064813Y012637D01*
X064693Y012577D02*
X064633Y012637D01*
X064693Y012577D02*
X064693Y012457D01*
X064513Y012269D02*
X064873Y012269D01*
X065113Y012269D02*
X065113Y012028D01*
X065473Y012028D01*
X065473Y012269D01*
X065413Y012397D02*
X065173Y012397D01*
X065113Y012457D01*
X065113Y012577D01*
X065173Y012637D01*
X065413Y012637D02*
X065473Y012577D01*
X065473Y012457D01*
X065413Y012397D01*
X065293Y012149D02*
X065293Y012028D01*
X065293Y011900D02*
X065233Y011840D01*
X065233Y011660D01*
X065113Y011660D02*
X065473Y011660D01*
X065473Y011840D01*
X065413Y011900D01*
X065293Y011900D01*
X065233Y011780D02*
X065113Y011900D01*
X064873Y011900D02*
X064873Y011660D01*
X064513Y011660D01*
X064513Y011900D01*
X064513Y012028D02*
X064873Y012028D01*
X064513Y012269D01*
X064153Y012269D02*
X063853Y012269D01*
X063793Y012209D01*
X063793Y012149D01*
X063913Y012088D02*
X063913Y012269D01*
X063913Y012397D02*
X064153Y012397D01*
X064153Y012577D01*
X064093Y012637D01*
X063913Y012637D01*
X063913Y012088D02*
X063973Y012028D01*
X064153Y012028D01*
X064213Y011900D02*
X064273Y011840D01*
X064273Y011720D01*
X064213Y011660D01*
X064153Y011660D01*
X064093Y011720D01*
X064093Y011840D01*
X064033Y011900D01*
X063973Y011900D01*
X063913Y011840D01*
X063913Y011720D01*
X063973Y011660D01*
X064513Y011472D02*
X064513Y011352D01*
X064573Y011292D01*
X064693Y011352D02*
X064693Y011472D01*
X064633Y011532D01*
X064573Y011532D01*
X064513Y011472D01*
X064693Y011352D02*
X064753Y011292D01*
X064813Y011292D01*
X064873Y011352D01*
X064873Y011472D01*
X064813Y011532D01*
X064693Y011660D02*
X064693Y011780D01*
X065113Y011535D02*
X065113Y011415D01*
X065113Y011475D02*
X065473Y011475D01*
X065473Y011415D02*
X065473Y011535D01*
X065413Y011286D02*
X065473Y011226D01*
X065473Y011046D01*
X065113Y011046D01*
X065113Y011226D01*
X065173Y011286D01*
X065413Y011286D01*
X065053Y010918D02*
X065053Y010678D01*
X065113Y010550D02*
X065233Y010430D01*
X065233Y010490D02*
X065233Y010310D01*
X065113Y010310D02*
X065473Y010310D01*
X065473Y010490D01*
X065413Y010550D01*
X065293Y010550D01*
X065233Y010490D01*
X065113Y010182D02*
X065473Y010182D01*
X065473Y009941D02*
X065113Y009941D01*
X065233Y010061D01*
X065113Y010182D01*
X064873Y010059D02*
X064873Y009819D01*
X064513Y009819D01*
X064693Y009819D02*
X064693Y009939D01*
X064693Y010187D02*
X064693Y010427D01*
X064753Y010427D02*
X064513Y010427D01*
X064513Y010555D02*
X064873Y010555D01*
X064513Y010795D01*
X064873Y010795D01*
X064753Y010427D02*
X064873Y010307D01*
X064753Y010187D01*
X064513Y010187D01*
X065233Y009753D02*
X065233Y009573D01*
X065113Y009573D02*
X065473Y009573D01*
X065473Y009753D01*
X065413Y009813D01*
X065293Y009813D01*
X065233Y009753D01*
X067913Y009705D02*
X068153Y009705D01*
X068153Y009885D01*
X068093Y009945D01*
X067913Y009945D01*
X067913Y010073D02*
X067913Y010253D01*
X067973Y010313D01*
X068033Y010253D01*
X068033Y010133D01*
X068093Y010073D01*
X068153Y010133D01*
X068153Y010313D01*
X068093Y010441D02*
X067973Y010441D01*
X067913Y010501D01*
X067913Y010621D01*
X068033Y010682D02*
X068033Y010441D01*
X068093Y010441D02*
X068153Y010501D01*
X068153Y010621D01*
X068093Y010682D01*
X068033Y010682D01*
X068513Y010620D02*
X068693Y010620D01*
X068753Y010560D01*
X068753Y010380D01*
X068513Y010380D01*
X068513Y010252D02*
X068513Y010072D01*
X068573Y010012D01*
X068633Y010072D01*
X068633Y010252D01*
X068693Y010252D02*
X068513Y010252D01*
X068693Y010252D02*
X068753Y010192D01*
X068753Y010072D01*
X068873Y009883D02*
X068873Y009643D01*
X068513Y009643D01*
X068693Y009643D02*
X068693Y009763D01*
X068153Y009517D02*
X068093Y009577D01*
X068033Y009577D01*
X068033Y009336D01*
X067973Y009336D02*
X068093Y009336D01*
X068153Y009396D01*
X068153Y009517D01*
X067913Y009517D02*
X067913Y009396D01*
X067973Y009336D01*
X067973Y009208D02*
X068033Y009148D01*
X068033Y009028D01*
X068093Y008968D01*
X068153Y009028D01*
X068153Y009208D01*
X067973Y009208D02*
X067913Y009148D01*
X067913Y008968D01*
X067913Y008472D02*
X068093Y008472D01*
X068153Y008412D01*
X068153Y008231D01*
X067913Y008231D01*
X067913Y008103D02*
X067913Y007923D01*
X067973Y007863D01*
X068033Y007923D01*
X068033Y008103D01*
X068093Y008103D02*
X067913Y008103D01*
X068093Y008103D02*
X068153Y008043D01*
X068153Y007923D01*
X068273Y007735D02*
X068273Y007495D01*
X067913Y007495D01*
X068093Y007495D02*
X068093Y007615D01*
X069113Y010196D02*
X069473Y010196D01*
X069473Y010436D01*
X069293Y010316D02*
X069293Y010196D01*
X069173Y010564D02*
X069233Y010624D01*
X069233Y010804D01*
X069293Y010804D02*
X069113Y010804D01*
X069113Y010624D01*
X069173Y010564D01*
X069353Y010624D02*
X069353Y010744D01*
X069293Y010804D01*
X069353Y010932D02*
X069353Y011113D01*
X069293Y011173D01*
X069113Y011173D01*
X069293Y011301D02*
X069293Y011541D01*
X069413Y011421D02*
X069173Y011421D01*
X068873Y011605D02*
X068753Y011485D01*
X068633Y011485D01*
X068513Y011605D01*
X068513Y011730D02*
X068513Y011911D01*
X068573Y011971D01*
X068633Y011971D01*
X068693Y011911D01*
X068693Y011730D01*
X068513Y011730D02*
X068873Y011730D01*
X068873Y011911D01*
X068813Y011971D01*
X068753Y011971D01*
X068693Y011911D01*
X068513Y012099D02*
X068513Y012219D01*
X068513Y012159D02*
X068873Y012159D01*
X068873Y012099D01*
X069113Y012157D02*
X069233Y012037D01*
X069353Y012037D01*
X069473Y012157D01*
X069473Y012283D02*
X069473Y012463D01*
X069413Y012523D01*
X069293Y012523D01*
X069233Y012463D01*
X069233Y012283D01*
X069113Y012283D02*
X069473Y012283D01*
X069233Y012403D02*
X069113Y012523D01*
X069173Y012651D02*
X069293Y012651D01*
X069353Y012711D01*
X069353Y012831D01*
X069293Y012891D01*
X069233Y012891D01*
X069233Y012651D01*
X069173Y012651D02*
X069113Y012711D01*
X069113Y012831D01*
X069173Y013020D02*
X069293Y013020D01*
X069353Y013080D01*
X069353Y013260D01*
X069473Y013260D02*
X069113Y013260D01*
X069113Y013080D01*
X069173Y013020D01*
X068873Y013081D02*
X068513Y013081D01*
X068633Y013081D02*
X068753Y013261D01*
X068873Y013388D02*
X068753Y013508D01*
X068633Y013508D01*
X068513Y013388D01*
X068513Y013261D02*
X068633Y013081D01*
X068513Y012953D02*
X068513Y012773D01*
X068573Y012713D01*
X068693Y012713D01*
X068753Y012773D01*
X068753Y012953D01*
X068693Y012584D02*
X068513Y012584D01*
X068513Y012404D01*
X068573Y012344D01*
X068633Y012404D01*
X068633Y012584D01*
X068693Y012584D02*
X068753Y012524D01*
X068753Y012404D01*
X068273Y012406D02*
X068273Y012466D01*
X067913Y012466D01*
X067913Y012406D02*
X067913Y012526D01*
X067973Y012651D02*
X067913Y012711D01*
X067913Y012831D01*
X067973Y012891D01*
X068093Y012891D01*
X068153Y012831D01*
X068153Y012711D01*
X068093Y012651D01*
X067973Y012651D01*
X067973Y013020D02*
X067913Y013080D01*
X067973Y013140D01*
X067913Y013200D01*
X067973Y013260D01*
X068153Y013260D01*
X068273Y013388D02*
X068153Y013508D01*
X068033Y013508D01*
X067913Y013388D01*
X067973Y013020D02*
X068153Y013020D01*
X069113Y013388D02*
X069233Y013508D01*
X069353Y013508D01*
X069473Y013388D01*
X069988Y013670D02*
X070348Y013670D01*
X070348Y013910D01*
X070168Y013790D02*
X070168Y013670D01*
X070048Y014038D02*
X070108Y014098D01*
X070108Y014279D01*
X070168Y014279D02*
X069988Y014279D01*
X069988Y014098D01*
X070048Y014038D01*
X070228Y014098D02*
X070228Y014218D01*
X070168Y014279D01*
X070228Y014407D02*
X070228Y014587D01*
X070168Y014647D01*
X069988Y014647D01*
X069988Y014407D02*
X070228Y014407D01*
X069473Y014122D02*
X069113Y014122D01*
X069113Y014002D02*
X069113Y014242D01*
X068873Y014182D02*
X068873Y014062D01*
X068813Y014002D01*
X068873Y014182D02*
X068813Y014242D01*
X068753Y014242D01*
X068513Y014002D01*
X068513Y014242D01*
X068273Y014182D02*
X068213Y014242D01*
X068153Y014242D01*
X068093Y014182D01*
X068033Y014242D01*
X067973Y014242D01*
X067913Y014182D01*
X067913Y014062D01*
X067973Y014002D01*
X068093Y014122D02*
X068093Y014182D01*
X068273Y014182D02*
X068273Y014062D01*
X068213Y014002D01*
X069353Y014002D02*
X069473Y014122D01*
X069988Y015143D02*
X070348Y015383D01*
X070168Y015512D02*
X070168Y015692D01*
X070108Y015752D01*
X070048Y015752D01*
X069988Y015692D01*
X069988Y015572D01*
X070048Y015512D01*
X070168Y015512D01*
X070288Y015632D01*
X070348Y015752D01*
X069988Y015383D02*
X070348Y015143D01*
X066948Y015319D02*
X066588Y015559D01*
X066648Y015687D02*
X066588Y015747D01*
X066588Y015867D01*
X066648Y015927D01*
X066768Y015927D01*
X066828Y015867D01*
X066828Y015807D01*
X066768Y015687D01*
X066948Y015687D01*
X066948Y015927D01*
X066948Y015559D02*
X066588Y015319D01*
X066173Y015430D02*
X066113Y015370D01*
X066173Y015430D02*
X066173Y015550D01*
X066113Y015610D01*
X066053Y015610D01*
X065813Y015370D01*
X065813Y015610D01*
X065573Y015550D02*
X065393Y015370D01*
X065393Y015610D01*
X065213Y015550D02*
X065573Y015550D01*
X065573Y016107D02*
X065573Y016287D01*
X065513Y016347D01*
X065393Y016347D01*
X065333Y016287D01*
X065333Y016107D01*
X065213Y016107D02*
X065573Y016107D01*
X065813Y016167D02*
X065813Y016287D01*
X065873Y016347D01*
X065993Y016347D01*
X065993Y016227D01*
X065873Y016107D02*
X065813Y016167D01*
X065873Y016107D02*
X066113Y016107D01*
X066173Y016167D01*
X066173Y016287D01*
X066113Y016347D01*
X066053Y016475D02*
X066053Y016655D01*
X065993Y016715D01*
X065813Y016715D01*
X065873Y016843D02*
X065993Y016843D01*
X066053Y016903D01*
X066053Y017083D01*
X066173Y017083D02*
X065813Y017083D01*
X065813Y016903D01*
X065873Y016843D01*
X065573Y016843D02*
X065573Y017023D01*
X065513Y017083D01*
X065393Y017083D01*
X065333Y017023D01*
X065333Y016843D01*
X065213Y016843D02*
X065573Y016843D01*
X065573Y016715D02*
X065213Y016715D01*
X065333Y016595D01*
X065213Y016475D01*
X065573Y016475D01*
X065813Y016475D02*
X066053Y016475D01*
X065333Y016963D02*
X065213Y017083D01*
X065153Y017212D02*
X065153Y017452D01*
X065273Y017580D02*
X065213Y017640D01*
X065213Y017760D01*
X065273Y017820D01*
X065333Y017820D01*
X065393Y017760D01*
X065393Y017640D01*
X065453Y017580D01*
X065513Y017580D01*
X065573Y017640D01*
X065573Y017760D01*
X065513Y017820D01*
X065513Y017948D02*
X065453Y017948D01*
X065393Y018008D01*
X065393Y018128D01*
X065333Y018188D01*
X065273Y018188D01*
X065213Y018128D01*
X065213Y018008D01*
X065273Y017948D01*
X065513Y017948D02*
X065573Y018008D01*
X065573Y018128D01*
X065513Y018188D01*
X065573Y018317D02*
X065573Y018557D01*
X065573Y018437D02*
X065213Y018437D01*
X065213Y018685D02*
X065453Y018685D01*
X065573Y018805D01*
X065453Y018925D01*
X065213Y018925D01*
X065213Y019053D02*
X065573Y019053D01*
X065573Y019233D01*
X065513Y019293D01*
X065393Y019293D01*
X065333Y019233D01*
X065333Y019053D01*
X065333Y019173D02*
X065213Y019293D01*
X065213Y019542D02*
X065573Y019542D01*
X065573Y019662D02*
X065573Y019421D01*
X065393Y018925D02*
X065393Y018685D01*
X064973Y018557D02*
X064613Y018557D01*
X064613Y018317D02*
X064973Y018317D01*
X064853Y018437D01*
X064973Y018557D01*
X064973Y018188D02*
X064613Y018188D01*
X064733Y018068D01*
X064613Y017948D01*
X064973Y017948D01*
X064913Y017820D02*
X064793Y017820D01*
X064733Y017760D01*
X064733Y017580D01*
X064613Y017580D02*
X064973Y017580D01*
X064973Y017760D01*
X064913Y017820D01*
X064553Y017452D02*
X064553Y017212D01*
X064613Y017083D02*
X064973Y017083D01*
X064973Y016843D02*
X064613Y017083D01*
X064373Y017083D02*
X064133Y017083D01*
X064013Y016963D01*
X064133Y016843D01*
X064373Y016843D01*
X064373Y016715D02*
X064373Y016475D01*
X064193Y016475D01*
X064253Y016595D01*
X064253Y016655D01*
X064193Y016715D01*
X064073Y016715D01*
X064013Y016655D01*
X064013Y016535D01*
X064073Y016475D01*
X064193Y016347D02*
X064193Y016107D01*
X064313Y016227D02*
X064073Y016227D01*
X063773Y015918D02*
X063713Y015979D01*
X063473Y015738D01*
X063413Y015798D01*
X063413Y015918D01*
X063473Y015979D01*
X063713Y015979D01*
X063773Y015918D02*
X063773Y015798D01*
X063713Y015738D01*
X063473Y015738D01*
X063413Y015610D02*
X063413Y015370D01*
X063413Y015490D02*
X063773Y015490D01*
X063653Y015370D01*
X064013Y015430D02*
X064073Y015370D01*
X064133Y015370D01*
X064193Y015430D01*
X064193Y015550D01*
X064133Y015610D01*
X064073Y015610D01*
X064013Y015550D01*
X064013Y015430D01*
X064193Y015430D02*
X064253Y015370D01*
X064313Y015370D01*
X064373Y015430D01*
X064373Y015550D01*
X064313Y015610D01*
X064253Y015610D01*
X064193Y015550D01*
X064613Y015550D02*
X064673Y015610D01*
X064733Y015610D01*
X064793Y015550D01*
X064793Y015370D01*
X064673Y015370D01*
X064613Y015430D01*
X064613Y015550D01*
X064793Y015370D02*
X064913Y015490D01*
X064973Y015610D01*
X064973Y016107D02*
X064973Y016347D01*
X064853Y016475D02*
X064973Y016595D01*
X064853Y016715D01*
X064613Y016715D01*
X064613Y016843D02*
X064973Y016843D01*
X064793Y016715D02*
X064793Y016475D01*
X064853Y016475D02*
X064613Y016475D01*
X064793Y016227D02*
X064793Y016107D01*
X064613Y016107D02*
X064973Y016107D01*
X063593Y016475D02*
X063593Y016715D01*
X063593Y016843D02*
X063653Y016963D01*
X063653Y017023D01*
X063593Y017083D01*
X063473Y017083D01*
X063413Y017023D01*
X063413Y016903D01*
X063473Y016843D01*
X063593Y016843D02*
X063773Y016843D01*
X063773Y017083D01*
X063773Y017212D02*
X063533Y017212D01*
X063413Y017332D01*
X063533Y017452D01*
X063773Y017452D01*
X063713Y016595D02*
X063473Y016595D01*
X066588Y014643D02*
X066828Y014643D01*
X066708Y014643D02*
X066828Y014763D01*
X066828Y014823D01*
X066768Y014515D02*
X066708Y014515D01*
X066708Y014275D01*
X066648Y014275D02*
X066768Y014275D01*
X066828Y014335D01*
X066828Y014455D01*
X066768Y014515D01*
X066588Y014455D02*
X066588Y014335D01*
X066648Y014275D01*
X066648Y014147D02*
X066828Y014147D01*
X066648Y014147D02*
X066588Y014087D01*
X066648Y014027D01*
X066588Y013967D01*
X066648Y013907D01*
X066828Y013907D01*
X066768Y013779D02*
X066828Y013718D01*
X066828Y013598D01*
X066768Y013538D01*
X066648Y013538D01*
X066588Y013598D01*
X066588Y013718D01*
X066648Y013779D01*
X066768Y013779D01*
X066768Y013410D02*
X066708Y013350D01*
X066708Y013170D01*
X066588Y013170D02*
X066948Y013170D01*
X066948Y013350D01*
X066888Y013410D01*
X066768Y013410D01*
X066073Y013622D02*
X065713Y013622D01*
X065713Y013502D02*
X065713Y013742D01*
X065473Y013682D02*
X065473Y013562D01*
X065413Y013502D01*
X065293Y013622D02*
X065293Y013682D01*
X065233Y013742D01*
X065173Y013742D01*
X065113Y013682D01*
X065113Y013562D01*
X065173Y013502D01*
X065293Y013682D02*
X065353Y013742D01*
X065413Y013742D01*
X065473Y013682D01*
X065953Y013502D02*
X066073Y013622D01*
X066073Y013005D02*
X065713Y013005D01*
X065713Y012825D01*
X065773Y012765D01*
X065893Y012765D01*
X065953Y012825D01*
X065953Y013005D01*
X065893Y012637D02*
X065713Y012637D01*
X065893Y012637D02*
X065953Y012577D01*
X065953Y012397D01*
X065713Y012397D01*
X065773Y012269D02*
X065893Y012269D01*
X065893Y012149D01*
X065773Y012269D02*
X065713Y012209D01*
X065713Y012088D01*
X065773Y012028D01*
X066013Y012028D01*
X066073Y012088D01*
X066073Y012209D01*
X066013Y012269D01*
X065473Y012765D02*
X065473Y013005D01*
X065473Y012885D02*
X065113Y012885D01*
X064873Y013502D02*
X064693Y013502D01*
X064753Y013622D01*
X064753Y013682D01*
X064693Y013742D01*
X064573Y013742D01*
X064513Y013682D01*
X064513Y013562D01*
X064573Y013502D01*
X064273Y013502D02*
X064273Y013742D01*
X064213Y013742D01*
X063973Y013502D01*
X063913Y013502D01*
X063673Y013562D02*
X063613Y013502D01*
X063553Y013502D01*
X063493Y013562D01*
X063493Y013742D01*
X063373Y013742D02*
X063613Y013742D01*
X063673Y013682D01*
X063673Y013562D01*
X063373Y013502D02*
X063313Y013562D01*
X063313Y013682D01*
X063373Y013742D01*
X064873Y013742D02*
X064873Y013502D01*
X067913Y012280D02*
X067913Y012160D01*
X067913Y012220D02*
X068273Y012220D01*
X068273Y012160D01*
X068093Y012032D02*
X068033Y012032D01*
X068033Y011792D01*
X067973Y011792D02*
X068093Y011792D01*
X068153Y011852D01*
X068153Y011972D01*
X068093Y012032D01*
X067913Y011972D02*
X067913Y011852D01*
X067973Y011792D01*
X067913Y011544D02*
X068093Y011544D01*
X068213Y011664D01*
X068273Y011664D01*
X068093Y011544D02*
X068213Y011423D01*
X068273Y011423D01*
X068273Y011298D02*
X068153Y011178D01*
X068033Y011178D01*
X067913Y011298D01*
X068693Y010988D02*
X068693Y010748D01*
X069113Y010932D02*
X069353Y010932D01*
X064453Y010923D02*
X064453Y011164D01*
X044523Y025170D02*
X044223Y025170D01*
X044163Y025230D01*
X044163Y025350D01*
X044223Y025410D01*
X044523Y025410D01*
X044463Y025538D02*
X044403Y025538D01*
X044343Y025598D01*
X044343Y025718D01*
X044283Y025779D01*
X044223Y025779D01*
X044163Y025718D01*
X044163Y025598D01*
X044223Y025538D01*
X044463Y025538D02*
X044523Y025598D01*
X044523Y025718D01*
X044463Y025779D01*
X044523Y025907D02*
X044523Y026087D01*
X044463Y026147D01*
X044403Y026147D01*
X044343Y026087D01*
X044343Y025907D01*
X044343Y026087D02*
X044283Y026147D01*
X044223Y026147D01*
X044163Y026087D01*
X044163Y025907D01*
X044523Y025907D01*
X044403Y026643D02*
X044523Y026763D01*
X044403Y026643D02*
X044283Y026643D01*
X044163Y026763D01*
X044163Y026889D02*
X044403Y026889D01*
X044403Y027069D01*
X044343Y027129D01*
X044163Y027129D01*
X044223Y027257D02*
X044163Y027317D01*
X044163Y027437D01*
X044223Y027497D01*
X044343Y027497D01*
X044403Y027437D01*
X044403Y027317D01*
X044343Y027257D01*
X044223Y027257D01*
X044163Y027625D02*
X044403Y027625D01*
X044403Y027806D01*
X044343Y027866D01*
X044163Y027866D01*
X044343Y027994D02*
X044343Y028234D01*
X044403Y028362D02*
X044403Y028422D01*
X044163Y028422D01*
X044163Y028362D02*
X044163Y028482D01*
X044163Y028608D02*
X044163Y028788D01*
X044223Y028848D01*
X044283Y028788D01*
X044283Y028668D01*
X044343Y028608D01*
X044403Y028668D01*
X044403Y028848D01*
X044343Y028976D02*
X044223Y028976D01*
X044163Y029036D01*
X044163Y029156D01*
X044223Y029216D01*
X044343Y029216D01*
X044403Y029156D01*
X044403Y029036D01*
X044343Y028976D01*
X044163Y029344D02*
X044163Y029464D01*
X044163Y029404D02*
X044523Y029404D01*
X044523Y029344D01*
X044403Y029650D02*
X044403Y029770D01*
X044343Y029830D01*
X044163Y029830D01*
X044163Y029650D01*
X044223Y029590D01*
X044283Y029650D01*
X044283Y029830D01*
X044403Y029958D02*
X044403Y030078D01*
X044463Y030018D02*
X044223Y030018D01*
X044163Y030078D01*
X044223Y030204D02*
X044163Y030264D01*
X044163Y030384D01*
X044283Y030444D02*
X044283Y030204D01*
X044223Y030204D02*
X044343Y030204D01*
X044403Y030264D01*
X044403Y030384D01*
X044343Y030444D01*
X044283Y030444D01*
X044223Y030572D02*
X044343Y030572D01*
X044403Y030632D01*
X044403Y030812D01*
X044523Y030812D02*
X044163Y030812D01*
X044163Y030632D01*
X044223Y030572D01*
X044163Y030940D02*
X044283Y031060D01*
X044403Y031060D01*
X044523Y030940D01*
X044523Y031554D02*
X044163Y031794D01*
X044223Y031922D02*
X044163Y031982D01*
X044163Y032103D01*
X044223Y032163D01*
X044463Y032163D01*
X044523Y032103D01*
X044523Y031982D01*
X044463Y031922D01*
X044403Y031922D01*
X044343Y031982D01*
X044343Y032163D01*
X044523Y031794D02*
X044163Y031554D01*
X043288Y029342D02*
X043288Y029102D01*
X043288Y029222D02*
X043648Y029222D01*
X043528Y029102D01*
X043048Y029162D02*
X042988Y029102D01*
X043048Y029162D02*
X043048Y029282D01*
X042988Y029342D01*
X042928Y029342D01*
X042688Y029102D01*
X042688Y029342D01*
X042448Y029282D02*
X042388Y029342D01*
X042328Y029342D01*
X042268Y029282D01*
X042208Y029342D01*
X042148Y029342D01*
X042088Y029282D01*
X042088Y029162D01*
X042148Y029102D01*
X042268Y029222D02*
X042268Y029282D01*
X042448Y029282D02*
X042448Y029162D01*
X042388Y029102D01*
X042268Y028605D02*
X042268Y028365D01*
X042268Y028237D02*
X042088Y028237D01*
X042088Y028057D01*
X042148Y027997D01*
X042208Y028057D01*
X042208Y028237D01*
X042268Y028237D02*
X042328Y028177D01*
X042328Y028057D01*
X042328Y027871D02*
X042328Y027751D01*
X042388Y027811D02*
X042148Y027811D01*
X042088Y027871D01*
X041848Y027809D02*
X041848Y027688D01*
X041788Y027628D01*
X041548Y027628D01*
X041488Y027688D01*
X041488Y027809D01*
X041548Y027869D01*
X041668Y027869D01*
X041668Y027749D01*
X041788Y027869D02*
X041848Y027809D01*
X041728Y027997D02*
X041728Y028177D01*
X041668Y028237D01*
X041488Y028237D01*
X041548Y028365D02*
X041668Y028365D01*
X041728Y028425D01*
X041728Y028605D01*
X041848Y028605D02*
X041488Y028605D01*
X041488Y028425D01*
X041548Y028365D01*
X041248Y028180D02*
X040888Y028180D01*
X040888Y028120D02*
X040888Y028240D01*
X040948Y028365D02*
X041068Y028365D01*
X041128Y028425D01*
X041128Y028605D01*
X041248Y028605D02*
X040888Y028605D01*
X040888Y028425D01*
X040948Y028365D01*
X041248Y028180D02*
X041248Y028120D01*
X041068Y027991D02*
X041008Y027991D01*
X041008Y027751D01*
X040948Y027751D02*
X041068Y027751D01*
X041128Y027811D01*
X041128Y027931D01*
X041068Y027991D01*
X040888Y027931D02*
X040888Y027811D01*
X040948Y027751D01*
X040888Y027626D02*
X040888Y027506D01*
X040888Y027566D02*
X041128Y027566D01*
X041128Y027506D01*
X041248Y027566D02*
X041309Y027566D01*
X041068Y027378D02*
X040888Y027378D01*
X041068Y027378D02*
X041128Y027317D01*
X041128Y027197D01*
X041068Y027137D01*
X041008Y027009D02*
X040948Y027009D01*
X040888Y026949D01*
X040888Y026829D01*
X040948Y026769D01*
X041068Y026829D02*
X041068Y026949D01*
X041008Y027009D01*
X040888Y027137D02*
X041248Y027137D01*
X041188Y027009D02*
X041248Y026949D01*
X041248Y026829D01*
X041188Y026769D01*
X041128Y026769D01*
X041068Y026829D01*
X042088Y027015D02*
X042088Y027195D01*
X042148Y027255D01*
X042388Y027255D01*
X042448Y027195D01*
X042448Y027015D01*
X042088Y027015D01*
X042148Y027383D02*
X042208Y027443D01*
X042208Y027623D01*
X042268Y027623D02*
X042088Y027623D01*
X042088Y027443D01*
X042148Y027383D01*
X042328Y027443D02*
X042328Y027563D01*
X042268Y027623D01*
X042688Y027623D02*
X042688Y027443D01*
X042748Y027383D01*
X042808Y027443D01*
X042808Y027623D01*
X042868Y027623D02*
X042688Y027623D01*
X042868Y027623D02*
X042928Y027563D01*
X042928Y027443D01*
X042988Y027255D02*
X042748Y027255D01*
X042688Y027195D01*
X042688Y027015D01*
X043048Y027015D01*
X043048Y027195D01*
X042988Y027255D01*
X043348Y027380D02*
X043588Y027380D01*
X043468Y027260D02*
X043468Y027500D01*
X043408Y027628D02*
X043288Y027749D01*
X043408Y027869D01*
X043648Y027869D01*
X043468Y027997D02*
X043348Y027997D01*
X043288Y028057D01*
X043288Y028237D01*
X043348Y028365D02*
X043288Y028425D01*
X043288Y028605D01*
X043528Y028605D02*
X043528Y028425D01*
X043468Y028365D01*
X043348Y028365D01*
X043528Y028237D02*
X043528Y028057D01*
X043468Y027997D01*
X043408Y027628D02*
X043648Y027628D01*
X042988Y027811D02*
X042748Y027811D01*
X042688Y027871D01*
X042748Y027997D02*
X042808Y028057D01*
X042808Y028237D01*
X042868Y028237D02*
X042688Y028237D01*
X042688Y028057D01*
X042748Y027997D01*
X042928Y028057D02*
X042928Y028177D01*
X042868Y028237D01*
X042868Y028365D02*
X042868Y028605D01*
X042388Y028485D02*
X042148Y028485D01*
X041728Y027997D02*
X041488Y027997D01*
X042928Y027871D02*
X042928Y027751D01*
X044523Y028422D02*
X044584Y028422D01*
X045388Y028485D02*
X045508Y028605D01*
X045748Y028605D01*
X045748Y028365D02*
X045508Y028365D01*
X045388Y028485D01*
X045448Y028237D02*
X045388Y028177D01*
X045388Y028057D01*
X045448Y027997D01*
X045448Y027873D02*
X045388Y027873D01*
X045388Y027813D01*
X045448Y027813D01*
X045448Y027873D01*
X045448Y027684D02*
X045388Y027624D01*
X045388Y027504D01*
X045448Y027444D01*
X045568Y027564D02*
X045568Y027624D01*
X045508Y027684D01*
X045448Y027684D01*
X045568Y027624D02*
X045628Y027684D01*
X045688Y027684D01*
X045748Y027624D01*
X045748Y027504D01*
X045688Y027444D01*
X045568Y027316D02*
X045568Y027076D01*
X045688Y027196D02*
X045448Y027196D01*
X046348Y027628D02*
X046348Y027869D01*
X046348Y027749D02*
X045988Y027749D01*
X045988Y027997D02*
X046348Y028237D01*
X046168Y028365D02*
X046168Y028605D01*
X045988Y028237D02*
X046348Y027997D01*
X046588Y027997D02*
X046948Y028237D01*
X046768Y028365D02*
X046768Y028605D01*
X046888Y028485D02*
X046648Y028485D01*
X046588Y028237D02*
X046948Y027997D01*
X046948Y027869D02*
X046948Y027628D01*
X046948Y027749D02*
X046588Y027749D01*
X047188Y027869D02*
X047308Y027749D01*
X047308Y027809D02*
X047308Y027628D01*
X047188Y027628D02*
X047548Y027628D01*
X047548Y027809D01*
X047488Y027869D01*
X047368Y027869D01*
X047308Y027809D01*
X047188Y027997D02*
X047548Y028237D01*
X047368Y028365D02*
X047368Y028605D01*
X047188Y028237D02*
X047548Y027997D01*
X047788Y027997D02*
X048148Y028237D01*
X047968Y028365D02*
X047968Y028605D01*
X048088Y028485D02*
X047848Y028485D01*
X047788Y028237D02*
X048148Y027997D01*
X048088Y027869D02*
X047968Y027869D01*
X047908Y027809D01*
X047908Y027628D01*
X047788Y027628D02*
X048148Y027628D01*
X048148Y027809D01*
X048088Y027869D01*
X047908Y027749D02*
X047788Y027869D01*
X048388Y027811D02*
X048448Y027751D01*
X048568Y027751D01*
X048628Y027811D01*
X048628Y027931D01*
X048568Y027991D01*
X048508Y027991D01*
X048508Y027751D01*
X048388Y027811D02*
X048388Y027931D01*
X048388Y028120D02*
X048388Y028240D01*
X048388Y028180D02*
X048748Y028180D01*
X048748Y028120D01*
X048988Y028117D02*
X049228Y028237D01*
X049168Y028365D02*
X049228Y028425D01*
X049228Y028545D01*
X049168Y028605D01*
X049108Y028605D01*
X049108Y028365D01*
X049048Y028365D02*
X049168Y028365D01*
X049048Y028365D02*
X048988Y028425D01*
X048988Y028545D01*
X048748Y028605D02*
X048388Y028605D01*
X048388Y028425D01*
X048448Y028365D01*
X048568Y028365D01*
X048628Y028425D01*
X048628Y028605D01*
X048688Y029102D02*
X048748Y029162D01*
X048748Y029282D01*
X048688Y029342D01*
X048628Y029342D01*
X048568Y029282D01*
X048508Y029342D01*
X048448Y029342D01*
X048388Y029282D01*
X048388Y029162D01*
X048448Y029102D01*
X048568Y029222D02*
X048568Y029282D01*
X048148Y029282D02*
X047968Y029102D01*
X047968Y029342D01*
X047788Y029282D02*
X048148Y029282D01*
X047548Y029342D02*
X047548Y029102D01*
X047368Y029102D01*
X047428Y029222D01*
X047428Y029282D01*
X047368Y029342D01*
X047248Y029342D01*
X047188Y029282D01*
X047188Y029162D01*
X047248Y029102D01*
X046888Y029222D02*
X046768Y029102D01*
X046768Y029282D01*
X046708Y029342D01*
X046648Y029342D01*
X046588Y029282D01*
X046588Y029162D01*
X046648Y029102D01*
X046768Y029102D01*
X046888Y029222D02*
X046948Y029342D01*
X046348Y029342D02*
X046288Y029342D01*
X046048Y029102D01*
X045988Y029102D01*
X045748Y029162D02*
X045748Y029282D01*
X045688Y029342D01*
X045628Y029342D01*
X045568Y029282D01*
X045568Y029162D01*
X045628Y029102D01*
X045688Y029102D01*
X045748Y029162D01*
X045568Y029162D02*
X045508Y029102D01*
X045448Y029102D01*
X045388Y029162D01*
X045388Y029282D01*
X045448Y029342D01*
X045508Y029342D01*
X045568Y029282D01*
X046348Y029342D02*
X046348Y029102D01*
X045688Y028237D02*
X045628Y028237D01*
X045568Y028177D01*
X045508Y028237D01*
X045448Y028237D01*
X045568Y028177D02*
X045568Y028117D01*
X045688Y028237D02*
X045748Y028177D01*
X045748Y028057D01*
X045688Y027997D01*
X048388Y027626D02*
X048388Y027506D01*
X048388Y027566D02*
X048628Y027566D01*
X048628Y027506D01*
X048748Y027566D02*
X048809Y027566D01*
X048988Y027626D02*
X049048Y027566D01*
X049288Y027566D01*
X049228Y027506D02*
X049228Y027626D01*
X049228Y027751D02*
X049228Y027811D01*
X048988Y027811D01*
X048988Y027751D02*
X048988Y027871D01*
X048988Y028117D02*
X049228Y027997D01*
X049348Y027811D02*
X049409Y027811D01*
X049588Y027813D02*
X049588Y027933D01*
X049588Y027873D02*
X049828Y027873D01*
X049828Y027813D01*
X049948Y027873D02*
X050009Y027873D01*
X049828Y028058D02*
X049828Y028238D01*
X049768Y028298D01*
X049588Y028298D01*
X049588Y028426D02*
X049948Y028426D01*
X049828Y028607D02*
X049708Y028426D01*
X049588Y028607D01*
X049588Y029102D02*
X049588Y029342D01*
X049588Y029222D02*
X049948Y029222D01*
X049828Y029102D01*
X049348Y029162D02*
X049288Y029102D01*
X049348Y029162D02*
X049348Y029282D01*
X049288Y029342D01*
X049228Y029342D01*
X048988Y029102D01*
X048988Y029342D01*
X050463Y029330D02*
X050703Y029330D01*
X050583Y029330D02*
X050703Y029450D01*
X050703Y029511D01*
X050703Y029637D02*
X050703Y029817D01*
X050643Y029878D01*
X050463Y029878D01*
X050523Y030006D02*
X050643Y030006D01*
X050703Y030066D01*
X050703Y030186D01*
X050643Y030246D01*
X050583Y030246D01*
X050583Y030006D01*
X050523Y030006D02*
X050463Y030066D01*
X050463Y030186D01*
X050523Y030434D02*
X050463Y030494D01*
X050523Y030434D02*
X050763Y030434D01*
X050703Y030374D02*
X050703Y030494D01*
X050823Y030988D02*
X050463Y031228D01*
X050523Y031356D02*
X050583Y031356D01*
X050643Y031416D01*
X050643Y031536D01*
X050583Y031596D01*
X050523Y031596D01*
X050463Y031536D01*
X050463Y031416D01*
X050523Y031356D01*
X050643Y031416D02*
X050703Y031356D01*
X050763Y031356D01*
X050823Y031416D01*
X050823Y031536D01*
X050763Y031596D01*
X050703Y031596D01*
X050643Y031536D01*
X050823Y031228D02*
X050463Y030988D01*
X050463Y029637D02*
X050703Y029637D01*
X050643Y029202D02*
X050583Y029202D01*
X050583Y028962D01*
X050523Y028962D02*
X050643Y028962D01*
X050703Y029022D01*
X050703Y029142D01*
X050643Y029202D01*
X050463Y029142D02*
X050463Y029022D01*
X050523Y028962D01*
X050463Y028834D02*
X050643Y028834D01*
X050703Y028774D01*
X050703Y028654D01*
X050643Y028594D01*
X050703Y028468D02*
X050703Y028348D01*
X050763Y028408D02*
X050523Y028408D01*
X050463Y028468D01*
X050463Y028594D02*
X050823Y028594D01*
X050823Y028220D02*
X050823Y027980D01*
X050463Y027980D01*
X050463Y028220D01*
X050643Y028100D02*
X050643Y027980D01*
X050643Y027483D02*
X050523Y027483D01*
X050463Y027423D01*
X050463Y027303D01*
X050523Y027243D01*
X050643Y027243D02*
X050703Y027363D01*
X050703Y027423D01*
X050643Y027483D01*
X050823Y027483D02*
X050823Y027243D01*
X050643Y027243D01*
X050643Y027115D02*
X050643Y026875D01*
X050823Y027055D01*
X050463Y027055D01*
X050643Y026747D02*
X050643Y026507D01*
X050823Y026379D02*
X050823Y026258D01*
X050823Y026318D02*
X050523Y026318D01*
X050463Y026258D01*
X050463Y026198D01*
X050523Y026138D01*
X050463Y026010D02*
X050583Y025890D01*
X050583Y025950D02*
X050583Y025770D01*
X050463Y025770D02*
X050823Y025770D01*
X050823Y025950D01*
X050763Y026010D01*
X050643Y026010D01*
X050583Y025950D01*
X049948Y025971D02*
X049588Y025971D01*
X049588Y026211D01*
X049588Y026339D02*
X049588Y026580D01*
X049588Y026708D02*
X049588Y026888D01*
X049648Y026948D01*
X049888Y026948D01*
X049948Y026888D01*
X049948Y026708D01*
X049588Y026708D01*
X049348Y026889D02*
X049228Y027009D01*
X048988Y027009D01*
X049048Y027137D02*
X048988Y027197D01*
X048988Y027378D01*
X049228Y027378D02*
X049228Y027197D01*
X049168Y027137D01*
X049048Y027137D01*
X049168Y027009D02*
X049168Y026769D01*
X049228Y026769D02*
X049348Y026889D01*
X049228Y026769D02*
X048988Y026769D01*
X048748Y026829D02*
X048748Y026949D01*
X048688Y027009D01*
X048568Y026949D02*
X048508Y027009D01*
X048448Y027009D01*
X048388Y026949D01*
X048388Y026829D01*
X048448Y026769D01*
X048568Y026829D02*
X048568Y026949D01*
X048568Y026829D02*
X048628Y026769D01*
X048688Y026769D01*
X048748Y026829D01*
X048748Y027137D02*
X048388Y027137D01*
X048568Y027137D02*
X048628Y027197D01*
X048628Y027317D01*
X048568Y027378D01*
X048388Y027378D01*
X049588Y027444D02*
X049588Y027684D01*
X049588Y027444D02*
X049948Y027444D01*
X049828Y028058D02*
X049588Y028058D01*
X049948Y026580D02*
X049948Y026339D01*
X049588Y026339D01*
X049768Y026339D02*
X049768Y026459D01*
X049348Y026213D02*
X049348Y026032D01*
X048988Y026032D01*
X048988Y026213D01*
X049048Y026273D01*
X049288Y026273D01*
X049348Y026213D01*
X049348Y025904D02*
X049348Y025664D01*
X048988Y025664D01*
X048988Y025904D01*
X049168Y025784D02*
X049168Y025664D01*
X048988Y025536D02*
X048988Y025296D01*
X049348Y025296D01*
X053534Y025570D02*
X053841Y025570D01*
X053688Y025570D02*
X053688Y026030D01*
X053841Y025877D01*
X054148Y026030D02*
X054148Y025570D01*
X053995Y025570D02*
X054302Y025570D01*
X054455Y025570D02*
X054762Y026030D01*
X054455Y026030D02*
X054762Y025570D01*
X054302Y025877D02*
X054148Y026030D01*
X041848Y029282D02*
X041668Y029102D01*
X041668Y029342D01*
X041488Y029282D02*
X041848Y029282D01*
X041248Y029342D02*
X041248Y029102D01*
X041068Y029102D01*
X041128Y029222D01*
X041128Y029282D01*
X041068Y029342D01*
X040948Y029342D01*
X040888Y029282D01*
X040888Y029162D01*
X040948Y029102D01*
D11*
X041018Y029950D02*
X041020Y029963D01*
X041025Y029976D01*
X041034Y029987D01*
X041045Y029994D01*
X041058Y029999D01*
X041071Y030000D01*
X041085Y029997D01*
X041097Y029991D01*
X041107Y029982D01*
X041114Y029970D01*
X041118Y029957D01*
X041118Y029943D01*
X041114Y029930D01*
X041107Y029918D01*
X041097Y029909D01*
X041085Y029903D01*
X041071Y029900D01*
X041058Y029901D01*
X041045Y029906D01*
X041034Y029913D01*
X041025Y029924D01*
X041020Y029937D01*
X041018Y029950D01*
X041618Y029950D02*
X041620Y029963D01*
X041625Y029976D01*
X041634Y029987D01*
X041645Y029994D01*
X041658Y029999D01*
X041671Y030000D01*
X041685Y029997D01*
X041697Y029991D01*
X041707Y029982D01*
X041714Y029970D01*
X041718Y029957D01*
X041718Y029943D01*
X041714Y029930D01*
X041707Y029918D01*
X041697Y029909D01*
X041685Y029903D01*
X041671Y029900D01*
X041658Y029901D01*
X041645Y029906D01*
X041634Y029913D01*
X041625Y029924D01*
X041620Y029937D01*
X041618Y029950D01*
X042218Y029950D02*
X042220Y029963D01*
X042225Y029976D01*
X042234Y029987D01*
X042245Y029994D01*
X042258Y029999D01*
X042271Y030000D01*
X042285Y029997D01*
X042297Y029991D01*
X042307Y029982D01*
X042314Y029970D01*
X042318Y029957D01*
X042318Y029943D01*
X042314Y029930D01*
X042307Y029918D01*
X042297Y029909D01*
X042285Y029903D01*
X042271Y029900D01*
X042258Y029901D01*
X042245Y029906D01*
X042234Y029913D01*
X042225Y029924D01*
X042220Y029937D01*
X042218Y029950D01*
X042818Y029950D02*
X042820Y029963D01*
X042825Y029976D01*
X042834Y029987D01*
X042845Y029994D01*
X042858Y029999D01*
X042871Y030000D01*
X042885Y029997D01*
X042897Y029991D01*
X042907Y029982D01*
X042914Y029970D01*
X042918Y029957D01*
X042918Y029943D01*
X042914Y029930D01*
X042907Y029918D01*
X042897Y029909D01*
X042885Y029903D01*
X042871Y029900D01*
X042858Y029901D01*
X042845Y029906D01*
X042834Y029913D01*
X042825Y029924D01*
X042820Y029937D01*
X042818Y029950D01*
X043418Y029950D02*
X043420Y029963D01*
X043425Y029976D01*
X043434Y029987D01*
X043445Y029994D01*
X043458Y029999D01*
X043471Y030000D01*
X043485Y029997D01*
X043497Y029991D01*
X043507Y029982D01*
X043514Y029970D01*
X043518Y029957D01*
X043518Y029943D01*
X043514Y029930D01*
X043507Y029918D01*
X043497Y029909D01*
X043485Y029903D01*
X043471Y029900D01*
X043458Y029901D01*
X043445Y029906D01*
X043434Y029913D01*
X043425Y029924D01*
X043420Y029937D01*
X043418Y029950D01*
X045518Y029950D02*
X045520Y029963D01*
X045525Y029976D01*
X045534Y029987D01*
X045545Y029994D01*
X045558Y029999D01*
X045571Y030000D01*
X045585Y029997D01*
X045597Y029991D01*
X045607Y029982D01*
X045614Y029970D01*
X045618Y029957D01*
X045618Y029943D01*
X045614Y029930D01*
X045607Y029918D01*
X045597Y029909D01*
X045585Y029903D01*
X045571Y029900D01*
X045558Y029901D01*
X045545Y029906D01*
X045534Y029913D01*
X045525Y029924D01*
X045520Y029937D01*
X045518Y029950D01*
X046118Y029950D02*
X046120Y029963D01*
X046125Y029976D01*
X046134Y029987D01*
X046145Y029994D01*
X046158Y029999D01*
X046171Y030000D01*
X046185Y029997D01*
X046197Y029991D01*
X046207Y029982D01*
X046214Y029970D01*
X046218Y029957D01*
X046218Y029943D01*
X046214Y029930D01*
X046207Y029918D01*
X046197Y029909D01*
X046185Y029903D01*
X046171Y029900D01*
X046158Y029901D01*
X046145Y029906D01*
X046134Y029913D01*
X046125Y029924D01*
X046120Y029937D01*
X046118Y029950D01*
X046718Y029950D02*
X046720Y029963D01*
X046725Y029976D01*
X046734Y029987D01*
X046745Y029994D01*
X046758Y029999D01*
X046771Y030000D01*
X046785Y029997D01*
X046797Y029991D01*
X046807Y029982D01*
X046814Y029970D01*
X046818Y029957D01*
X046818Y029943D01*
X046814Y029930D01*
X046807Y029918D01*
X046797Y029909D01*
X046785Y029903D01*
X046771Y029900D01*
X046758Y029901D01*
X046745Y029906D01*
X046734Y029913D01*
X046725Y029924D01*
X046720Y029937D01*
X046718Y029950D01*
X047318Y029950D02*
X047320Y029963D01*
X047325Y029976D01*
X047334Y029987D01*
X047345Y029994D01*
X047358Y029999D01*
X047371Y030000D01*
X047385Y029997D01*
X047397Y029991D01*
X047407Y029982D01*
X047414Y029970D01*
X047418Y029957D01*
X047418Y029943D01*
X047414Y029930D01*
X047407Y029918D01*
X047397Y029909D01*
X047385Y029903D01*
X047371Y029900D01*
X047358Y029901D01*
X047345Y029906D01*
X047334Y029913D01*
X047325Y029924D01*
X047320Y029937D01*
X047318Y029950D01*
X047918Y029950D02*
X047920Y029963D01*
X047925Y029976D01*
X047934Y029987D01*
X047945Y029994D01*
X047958Y029999D01*
X047971Y030000D01*
X047985Y029997D01*
X047997Y029991D01*
X048007Y029982D01*
X048014Y029970D01*
X048018Y029957D01*
X048018Y029943D01*
X048014Y029930D01*
X048007Y029918D01*
X047997Y029909D01*
X047985Y029903D01*
X047971Y029900D01*
X047958Y029901D01*
X047945Y029906D01*
X047934Y029913D01*
X047925Y029924D01*
X047920Y029937D01*
X047918Y029950D01*
X048518Y029950D02*
X048520Y029963D01*
X048525Y029976D01*
X048534Y029987D01*
X048545Y029994D01*
X048558Y029999D01*
X048571Y030000D01*
X048585Y029997D01*
X048597Y029991D01*
X048607Y029982D01*
X048614Y029970D01*
X048618Y029957D01*
X048618Y029943D01*
X048614Y029930D01*
X048607Y029918D01*
X048597Y029909D01*
X048585Y029903D01*
X048571Y029900D01*
X048558Y029901D01*
X048545Y029906D01*
X048534Y029913D01*
X048525Y029924D01*
X048520Y029937D01*
X048518Y029950D01*
X049118Y029950D02*
X049120Y029963D01*
X049125Y029976D01*
X049134Y029987D01*
X049145Y029994D01*
X049158Y029999D01*
X049171Y030000D01*
X049185Y029997D01*
X049197Y029991D01*
X049207Y029982D01*
X049214Y029970D01*
X049218Y029957D01*
X049218Y029943D01*
X049214Y029930D01*
X049207Y029918D01*
X049197Y029909D01*
X049185Y029903D01*
X049171Y029900D01*
X049158Y029901D01*
X049145Y029906D01*
X049134Y029913D01*
X049125Y029924D01*
X049120Y029937D01*
X049118Y029950D01*
X049718Y029950D02*
X049720Y029963D01*
X049725Y029976D01*
X049734Y029987D01*
X049745Y029994D01*
X049758Y029999D01*
X049771Y030000D01*
X049785Y029997D01*
X049797Y029991D01*
X049807Y029982D01*
X049814Y029970D01*
X049818Y029957D01*
X049818Y029943D01*
X049814Y029930D01*
X049807Y029918D01*
X049797Y029909D01*
X049785Y029903D01*
X049771Y029900D01*
X049758Y029901D01*
X049745Y029906D01*
X049734Y029913D01*
X049725Y029924D01*
X049720Y029937D01*
X049718Y029950D01*
X063443Y014850D02*
X063445Y014863D01*
X063450Y014876D01*
X063459Y014887D01*
X063470Y014894D01*
X063483Y014899D01*
X063496Y014900D01*
X063510Y014897D01*
X063522Y014891D01*
X063532Y014882D01*
X063539Y014870D01*
X063543Y014857D01*
X063543Y014843D01*
X063539Y014830D01*
X063532Y014818D01*
X063522Y014809D01*
X063510Y014803D01*
X063496Y014800D01*
X063483Y014801D01*
X063470Y014806D01*
X063459Y014813D01*
X063450Y014824D01*
X063445Y014837D01*
X063443Y014850D01*
X063443Y014350D02*
X063445Y014363D01*
X063450Y014376D01*
X063459Y014387D01*
X063470Y014394D01*
X063483Y014399D01*
X063496Y014400D01*
X063510Y014397D01*
X063522Y014391D01*
X063532Y014382D01*
X063539Y014370D01*
X063543Y014357D01*
X063543Y014343D01*
X063539Y014330D01*
X063532Y014318D01*
X063522Y014309D01*
X063510Y014303D01*
X063496Y014300D01*
X063483Y014301D01*
X063470Y014306D01*
X063459Y014313D01*
X063450Y014324D01*
X063445Y014337D01*
X063443Y014350D01*
X064043Y014350D02*
X064045Y014363D01*
X064050Y014376D01*
X064059Y014387D01*
X064070Y014394D01*
X064083Y014399D01*
X064096Y014400D01*
X064110Y014397D01*
X064122Y014391D01*
X064132Y014382D01*
X064139Y014370D01*
X064143Y014357D01*
X064143Y014343D01*
X064139Y014330D01*
X064132Y014318D01*
X064122Y014309D01*
X064110Y014303D01*
X064096Y014300D01*
X064083Y014301D01*
X064070Y014306D01*
X064059Y014313D01*
X064050Y014324D01*
X064045Y014337D01*
X064043Y014350D01*
X064043Y014850D02*
X064045Y014863D01*
X064050Y014876D01*
X064059Y014887D01*
X064070Y014894D01*
X064083Y014899D01*
X064096Y014900D01*
X064110Y014897D01*
X064122Y014891D01*
X064132Y014882D01*
X064139Y014870D01*
X064143Y014857D01*
X064143Y014843D01*
X064139Y014830D01*
X064132Y014818D01*
X064122Y014809D01*
X064110Y014803D01*
X064096Y014800D01*
X064083Y014801D01*
X064070Y014806D01*
X064059Y014813D01*
X064050Y014824D01*
X064045Y014837D01*
X064043Y014850D01*
X064643Y014850D02*
X064645Y014863D01*
X064650Y014876D01*
X064659Y014887D01*
X064670Y014894D01*
X064683Y014899D01*
X064696Y014900D01*
X064710Y014897D01*
X064722Y014891D01*
X064732Y014882D01*
X064739Y014870D01*
X064743Y014857D01*
X064743Y014843D01*
X064739Y014830D01*
X064732Y014818D01*
X064722Y014809D01*
X064710Y014803D01*
X064696Y014800D01*
X064683Y014801D01*
X064670Y014806D01*
X064659Y014813D01*
X064650Y014824D01*
X064645Y014837D01*
X064643Y014850D01*
X064643Y014350D02*
X064645Y014363D01*
X064650Y014376D01*
X064659Y014387D01*
X064670Y014394D01*
X064683Y014399D01*
X064696Y014400D01*
X064710Y014397D01*
X064722Y014391D01*
X064732Y014382D01*
X064739Y014370D01*
X064743Y014357D01*
X064743Y014343D01*
X064739Y014330D01*
X064732Y014318D01*
X064722Y014309D01*
X064710Y014303D01*
X064696Y014300D01*
X064683Y014301D01*
X064670Y014306D01*
X064659Y014313D01*
X064650Y014324D01*
X064645Y014337D01*
X064643Y014350D01*
X065243Y014350D02*
X065245Y014363D01*
X065250Y014376D01*
X065259Y014387D01*
X065270Y014394D01*
X065283Y014399D01*
X065296Y014400D01*
X065310Y014397D01*
X065322Y014391D01*
X065332Y014382D01*
X065339Y014370D01*
X065343Y014357D01*
X065343Y014343D01*
X065339Y014330D01*
X065332Y014318D01*
X065322Y014309D01*
X065310Y014303D01*
X065296Y014300D01*
X065283Y014301D01*
X065270Y014306D01*
X065259Y014313D01*
X065250Y014324D01*
X065245Y014337D01*
X065243Y014350D01*
X065243Y014850D02*
X065245Y014863D01*
X065250Y014876D01*
X065259Y014887D01*
X065270Y014894D01*
X065283Y014899D01*
X065296Y014900D01*
X065310Y014897D01*
X065322Y014891D01*
X065332Y014882D01*
X065339Y014870D01*
X065343Y014857D01*
X065343Y014843D01*
X065339Y014830D01*
X065332Y014818D01*
X065322Y014809D01*
X065310Y014803D01*
X065296Y014800D01*
X065283Y014801D01*
X065270Y014806D01*
X065259Y014813D01*
X065250Y014824D01*
X065245Y014837D01*
X065243Y014850D01*
X065843Y014850D02*
X065845Y014863D01*
X065850Y014876D01*
X065859Y014887D01*
X065870Y014894D01*
X065883Y014899D01*
X065896Y014900D01*
X065910Y014897D01*
X065922Y014891D01*
X065932Y014882D01*
X065939Y014870D01*
X065943Y014857D01*
X065943Y014843D01*
X065939Y014830D01*
X065932Y014818D01*
X065922Y014809D01*
X065910Y014803D01*
X065896Y014800D01*
X065883Y014801D01*
X065870Y014806D01*
X065859Y014813D01*
X065850Y014824D01*
X065845Y014837D01*
X065843Y014850D01*
X065843Y014350D02*
X065845Y014363D01*
X065850Y014376D01*
X065859Y014387D01*
X065870Y014394D01*
X065883Y014399D01*
X065896Y014400D01*
X065910Y014397D01*
X065922Y014391D01*
X065932Y014382D01*
X065939Y014370D01*
X065943Y014357D01*
X065943Y014343D01*
X065939Y014330D01*
X065932Y014318D01*
X065922Y014309D01*
X065910Y014303D01*
X065896Y014300D01*
X065883Y014301D01*
X065870Y014306D01*
X065859Y014313D01*
X065850Y014324D01*
X065845Y014337D01*
X065843Y014350D01*
X068043Y014850D02*
X068045Y014863D01*
X068050Y014876D01*
X068059Y014887D01*
X068070Y014894D01*
X068083Y014899D01*
X068096Y014900D01*
X068110Y014897D01*
X068122Y014891D01*
X068132Y014882D01*
X068139Y014870D01*
X068143Y014857D01*
X068143Y014843D01*
X068139Y014830D01*
X068132Y014818D01*
X068122Y014809D01*
X068110Y014803D01*
X068096Y014800D01*
X068083Y014801D01*
X068070Y014806D01*
X068059Y014813D01*
X068050Y014824D01*
X068045Y014837D01*
X068043Y014850D01*
X068643Y014850D02*
X068645Y014863D01*
X068650Y014876D01*
X068659Y014887D01*
X068670Y014894D01*
X068683Y014899D01*
X068696Y014900D01*
X068710Y014897D01*
X068722Y014891D01*
X068732Y014882D01*
X068739Y014870D01*
X068743Y014857D01*
X068743Y014843D01*
X068739Y014830D01*
X068732Y014818D01*
X068722Y014809D01*
X068710Y014803D01*
X068696Y014800D01*
X068683Y014801D01*
X068670Y014806D01*
X068659Y014813D01*
X068650Y014824D01*
X068645Y014837D01*
X068643Y014850D01*
X069243Y014850D02*
X069245Y014863D01*
X069250Y014876D01*
X069259Y014887D01*
X069270Y014894D01*
X069283Y014899D01*
X069296Y014900D01*
X069310Y014897D01*
X069322Y014891D01*
X069332Y014882D01*
X069339Y014870D01*
X069343Y014857D01*
X069343Y014843D01*
X069339Y014830D01*
X069332Y014818D01*
X069322Y014809D01*
X069310Y014803D01*
X069296Y014800D01*
X069283Y014801D01*
X069270Y014806D01*
X069259Y014813D01*
X069250Y014824D01*
X069245Y014837D01*
X069243Y014850D01*
D12*
X039620Y005680D02*
X039620Y005430D01*
X039620Y005680D02*
X039703Y005764D01*
X039953Y005764D01*
X039953Y005430D01*
X040135Y005597D02*
X040469Y005597D01*
X040469Y005680D02*
X040385Y005764D01*
X040219Y005764D01*
X040135Y005680D01*
X040135Y005597D01*
X040219Y005430D02*
X040385Y005430D01*
X040469Y005513D01*
X040469Y005680D01*
X040651Y005680D02*
X040651Y005513D01*
X040734Y005430D01*
X040985Y005430D01*
X040985Y005263D02*
X040985Y005764D01*
X040734Y005764D01*
X040651Y005680D01*
X041167Y005680D02*
X041250Y005764D01*
X041417Y005764D01*
X041500Y005680D01*
X041500Y005513D01*
X041417Y005430D01*
X041250Y005430D01*
X041167Y005513D01*
X041167Y005680D01*
X041682Y005680D02*
X042016Y005680D01*
X042198Y005764D02*
X042531Y005430D01*
X042198Y005430D01*
X042198Y005764D02*
X042531Y005764D01*
X042713Y005680D02*
X042713Y005597D01*
X043047Y005597D01*
X043047Y005680D02*
X042964Y005764D01*
X042797Y005764D01*
X042713Y005680D01*
X042797Y005430D02*
X042964Y005430D01*
X043047Y005513D01*
X043047Y005680D01*
X043229Y005680D02*
X043229Y005597D01*
X043563Y005597D01*
X043563Y005680D02*
X043479Y005764D01*
X043313Y005764D01*
X043229Y005680D01*
X043313Y005430D02*
X043479Y005430D01*
X043563Y005513D01*
X043563Y005680D01*
X043745Y005930D02*
X044078Y005430D01*
X044260Y005430D02*
X044260Y005680D01*
X044344Y005764D01*
X044427Y005680D01*
X044427Y005430D01*
X044594Y005430D02*
X044594Y005764D01*
X044511Y005764D01*
X044427Y005680D01*
X044776Y005680D02*
X044859Y005764D01*
X045026Y005764D01*
X045110Y005680D01*
X045110Y005513D01*
X045026Y005430D01*
X044859Y005430D01*
X044776Y005513D01*
X044776Y005680D01*
X045292Y005764D02*
X045542Y005764D01*
X045625Y005680D01*
X045625Y005513D01*
X045542Y005430D01*
X045292Y005430D01*
X045800Y005430D02*
X045883Y005430D01*
X045883Y005513D01*
X045800Y005513D01*
X045800Y005430D01*
X046065Y005513D02*
X046065Y005680D01*
X046149Y005764D01*
X046399Y005764D01*
X046399Y005930D02*
X046399Y005430D01*
X046149Y005430D01*
X046065Y005513D01*
X046581Y005430D02*
X046581Y005764D01*
X046914Y005764D02*
X046914Y005513D01*
X046831Y005430D01*
X046581Y005430D01*
X047096Y005430D02*
X047096Y005680D01*
X047180Y005764D01*
X047347Y005764D01*
X047430Y005680D01*
X047607Y005764D02*
X047774Y005764D01*
X047690Y005847D02*
X047690Y005513D01*
X047607Y005430D01*
X047430Y005430D02*
X047430Y005930D01*
X048034Y005930D02*
X048034Y006014D01*
X048034Y005764D02*
X048034Y005430D01*
X047951Y005430D02*
X048118Y005430D01*
X048300Y005430D02*
X048550Y005430D01*
X048633Y005513D01*
X048633Y005680D01*
X048550Y005764D01*
X048300Y005764D01*
X048300Y005347D01*
X048383Y005263D01*
X048466Y005263D01*
X048118Y005764D02*
X048034Y005764D01*
X049323Y005764D02*
X049323Y005680D01*
X049407Y005680D01*
X049407Y005764D01*
X049323Y005764D01*
X049323Y005513D02*
X049323Y005430D01*
X049407Y005430D01*
X049407Y005513D01*
X049323Y005513D01*
X049589Y005597D02*
X049922Y005597D01*
X049922Y005680D02*
X049839Y005764D01*
X049672Y005764D01*
X049589Y005680D01*
X049589Y005597D01*
X049672Y005430D02*
X049839Y005430D01*
X049922Y005513D01*
X049922Y005680D01*
X050104Y005764D02*
X050355Y005764D01*
X050438Y005680D01*
X050438Y005513D01*
X050355Y005430D01*
X050104Y005430D01*
X050104Y005930D01*
X050620Y005680D02*
X050703Y005764D01*
X050870Y005764D01*
X050954Y005680D01*
X050954Y005513D01*
X050870Y005430D01*
X050703Y005430D01*
X050620Y005513D01*
X050620Y005680D01*
X051136Y005764D02*
X051386Y005764D01*
X051469Y005680D01*
X051469Y005513D01*
X051386Y005430D01*
X051136Y005430D01*
X052167Y005597D02*
X052500Y005597D01*
X052500Y005680D02*
X052417Y005764D01*
X052250Y005764D01*
X052167Y005680D01*
X052167Y005597D01*
X052250Y005430D02*
X052417Y005430D01*
X052500Y005513D01*
X052500Y005680D01*
X052683Y005764D02*
X052933Y005764D01*
X053016Y005680D01*
X053016Y005513D01*
X052933Y005430D01*
X052683Y005430D01*
X053196Y005764D02*
X053279Y005764D01*
X053446Y005597D01*
X053446Y005430D02*
X053446Y005764D01*
X053628Y005764D02*
X053628Y005430D01*
X053878Y005430D01*
X053961Y005513D01*
X053961Y005764D01*
X054143Y005680D02*
X054227Y005764D01*
X054394Y005764D01*
X054477Y005680D01*
X054477Y005513D01*
X054394Y005430D01*
X054227Y005430D01*
X054143Y005513D01*
X054143Y005680D01*
X054659Y005764D02*
X054909Y005764D01*
X054993Y005680D01*
X054909Y005597D01*
X054743Y005597D01*
X054659Y005513D01*
X054743Y005430D01*
X054993Y005430D01*
X055685Y005430D02*
X055769Y005513D01*
X055769Y005847D01*
X055852Y005764D02*
X055685Y005764D01*
X056034Y005764D02*
X056284Y005764D01*
X056368Y005680D01*
X056368Y005513D01*
X056284Y005430D01*
X056034Y005430D01*
X056550Y005597D02*
X056883Y005597D01*
X056883Y005680D02*
X056800Y005764D01*
X056633Y005764D01*
X056550Y005680D01*
X056550Y005597D01*
X056633Y005430D02*
X056800Y005430D01*
X056883Y005513D01*
X056883Y005680D01*
X057060Y005764D02*
X057060Y005347D01*
X057144Y005263D01*
X057227Y005263D01*
X057409Y005513D02*
X057409Y005680D01*
X057493Y005764D01*
X057659Y005764D01*
X057743Y005680D01*
X057743Y005513D01*
X057659Y005430D01*
X057493Y005430D01*
X057409Y005513D01*
X057060Y005930D02*
X057060Y006014D01*
X057922Y005764D02*
X058006Y005764D01*
X058173Y005597D01*
X058173Y005430D02*
X058173Y005764D01*
X058355Y005847D02*
X058355Y005680D01*
X058438Y005597D01*
X058688Y005597D01*
X058688Y005430D02*
X058688Y005930D01*
X058438Y005930D01*
X058355Y005847D01*
X063168Y014050D02*
X066193Y014050D01*
X066193Y015150D01*
X063168Y015150D01*
X063168Y014050D01*
X067768Y014550D02*
X069593Y014550D01*
X069593Y015150D01*
X067768Y015150D01*
X067768Y014550D01*
X050068Y029650D02*
X045243Y029650D01*
X045243Y030250D01*
X050068Y030250D01*
X050068Y029650D01*
X043768Y029650D02*
X043768Y030250D01*
X040743Y030250D01*
X040743Y029650D01*
X043768Y029650D01*
D13*
X063143Y025016D02*
X063143Y024910D01*
X063564Y024490D01*
X063564Y024385D01*
X063788Y024385D02*
X064208Y025016D01*
X063788Y025016D02*
X064208Y024385D01*
X063564Y025016D02*
X063143Y025016D01*
D14*
X060530Y025289D02*
X060530Y028541D01*
X060530Y029783D02*
X060530Y031883D01*
X066987Y031883D01*
X066987Y029771D01*
X066987Y028541D02*
X066987Y025289D01*
X060530Y025289D01*
X056327Y026278D02*
X051662Y026278D01*
X051662Y030648D01*
X056327Y030648D01*
X056327Y026278D01*
X055720Y026719D02*
X052269Y026719D01*
X052309Y026877D02*
X055680Y026877D01*
X055720Y026718D02*
X055753Y026720D01*
X055786Y026725D01*
X055818Y026735D01*
X055849Y026748D01*
X055879Y026764D01*
X055906Y026783D01*
X055931Y026805D01*
X055953Y026830D01*
X055972Y026857D01*
X055988Y026887D01*
X056001Y026918D01*
X056011Y026950D01*
X056016Y026983D01*
X056018Y027016D01*
X056018Y027433D01*
X056037Y027439D01*
X056054Y027448D01*
X056069Y027460D01*
X056081Y027476D01*
X056090Y027493D01*
X056096Y027512D01*
X056098Y027531D01*
X056096Y027551D01*
X056090Y027569D01*
X056081Y027587D01*
X056069Y027602D01*
X056054Y027614D01*
X056036Y027623D01*
X056017Y027629D01*
X055998Y027631D01*
X055740Y027631D01*
X055740Y028880D01*
X055859Y028880D01*
X055859Y029575D01*
X056018Y029515D02*
X056018Y029099D01*
X056018Y029098D02*
X056036Y029093D01*
X056054Y029085D01*
X056069Y029074D01*
X056083Y029060D01*
X056094Y029045D01*
X056102Y029027D01*
X056106Y029009D01*
X056108Y028990D01*
X056106Y028971D01*
X056101Y028952D01*
X056093Y028935D01*
X056082Y028919D01*
X056069Y028906D01*
X056053Y028895D01*
X056036Y028887D01*
X056017Y028882D01*
X055998Y028880D01*
X055879Y028880D01*
X055066Y029178D02*
X054847Y029019D01*
X054847Y028166D01*
X055066Y028008D01*
X055066Y029178D01*
X056017Y029515D02*
X056016Y029559D01*
X056012Y029602D01*
X056004Y029646D01*
X055993Y029688D01*
X055978Y029729D01*
X055960Y029769D01*
X055939Y029808D01*
X055915Y029844D01*
X055888Y029879D01*
X055858Y029911D01*
X055859Y029912D02*
X055423Y030348D01*
X055323Y030229D02*
X055760Y029793D01*
X055782Y029772D01*
X055802Y029748D01*
X055819Y029722D01*
X055833Y029695D01*
X055844Y029666D01*
X055852Y029636D01*
X055857Y029606D01*
X055859Y029575D01*
X055422Y030348D02*
X055391Y030375D01*
X055358Y030399D01*
X055322Y030419D01*
X055285Y030436D01*
X055246Y030450D01*
X055207Y030459D01*
X055166Y030465D01*
X055125Y030467D01*
X052864Y030467D01*
X052864Y030308D02*
X055125Y030308D01*
X055153Y030309D01*
X055180Y030306D01*
X055208Y030301D01*
X055234Y030292D01*
X055259Y030280D01*
X055282Y030266D01*
X055304Y030248D01*
X055324Y030229D01*
X052864Y030467D02*
X052823Y030465D01*
X052782Y030459D01*
X052743Y030450D01*
X052704Y030436D01*
X052667Y030419D01*
X052631Y030399D01*
X052598Y030375D01*
X052567Y030348D01*
X052130Y029912D01*
X052229Y029793D02*
X052666Y030229D01*
X052665Y030229D02*
X052685Y030248D01*
X052707Y030266D01*
X052730Y030280D01*
X052755Y030292D01*
X052781Y030301D01*
X052809Y030306D01*
X052836Y030309D01*
X052864Y030308D01*
X052131Y029911D02*
X052101Y029879D01*
X052074Y029844D01*
X052050Y029808D01*
X052029Y029769D01*
X052011Y029729D01*
X051996Y029688D01*
X051985Y029646D01*
X051977Y029602D01*
X051973Y029559D01*
X051972Y029515D01*
X051972Y029099D01*
X051971Y029098D02*
X051953Y029093D01*
X051935Y029085D01*
X051920Y029074D01*
X051906Y029060D01*
X051895Y029045D01*
X051887Y029027D01*
X051883Y029009D01*
X051881Y028990D01*
X051883Y028971D01*
X051888Y028952D01*
X051896Y028935D01*
X051907Y028919D01*
X051920Y028906D01*
X051936Y028895D01*
X051953Y028887D01*
X051972Y028882D01*
X051991Y028880D01*
X052110Y028880D01*
X052130Y028880D02*
X052249Y028880D01*
X052249Y027631D01*
X051991Y027631D01*
X051972Y027629D01*
X051953Y027623D01*
X051935Y027614D01*
X051920Y027602D01*
X051908Y027587D01*
X051899Y027569D01*
X051893Y027551D01*
X051891Y027531D01*
X051893Y027512D01*
X051899Y027493D01*
X051908Y027476D01*
X051920Y027460D01*
X051935Y027448D01*
X051952Y027439D01*
X051971Y027433D01*
X051972Y027433D02*
X051972Y027016D01*
X052130Y027056D02*
X052130Y027611D01*
X052130Y027056D02*
X052132Y027031D01*
X052137Y027006D01*
X052146Y026982D01*
X052158Y026959D01*
X052174Y026939D01*
X052192Y026921D01*
X052212Y026905D01*
X052235Y026893D01*
X052259Y026884D01*
X052284Y026879D01*
X052309Y026877D01*
X052269Y026718D02*
X052236Y026720D01*
X052203Y026725D01*
X052171Y026735D01*
X052140Y026748D01*
X052110Y026764D01*
X052083Y026783D01*
X052058Y026805D01*
X052036Y026830D01*
X052017Y026857D01*
X052001Y026887D01*
X051988Y026918D01*
X051978Y026950D01*
X051973Y026983D01*
X051971Y027016D01*
X052904Y028008D02*
X053122Y028166D01*
X053122Y029019D01*
X052904Y029178D01*
X052904Y028008D01*
X052130Y028880D02*
X052130Y029575D01*
X052132Y029606D01*
X052137Y029636D01*
X052145Y029666D01*
X052156Y029695D01*
X052170Y029722D01*
X052187Y029748D01*
X052207Y029772D01*
X052229Y029793D01*
X055859Y027611D02*
X055859Y027056D01*
X055857Y027031D01*
X055852Y027006D01*
X055843Y026982D01*
X055831Y026959D01*
X055815Y026939D01*
X055797Y026921D01*
X055777Y026905D01*
X055754Y026893D01*
X055730Y026884D01*
X055705Y026879D01*
X055680Y026877D01*
D15*
X054637Y028235D02*
X054674Y028272D01*
X054637Y028235D02*
X054563Y028235D01*
X054527Y028272D01*
X054527Y028309D01*
X054563Y028345D01*
X054600Y028345D01*
X054563Y028345D02*
X054527Y028382D01*
X054527Y028419D01*
X054563Y028455D01*
X054637Y028455D01*
X054674Y028419D01*
X054378Y028727D02*
X054231Y028874D01*
X054231Y028911D01*
X054268Y028948D01*
X054342Y028948D01*
X054378Y028911D01*
X054378Y028727D02*
X054231Y028727D01*
X053788Y028345D02*
X053641Y028345D01*
X053678Y028235D02*
X053678Y028455D01*
X053788Y028345D01*
X053394Y028727D02*
X053247Y028727D01*
X053321Y028727D02*
X053321Y028948D01*
X053394Y028874D01*
M02*
