G75*
G70*
%OFA0B0*%
%FSLAX24Y24*%
%IPPOS*%
%LPD*%
%AMOC8*
5,1,8,0,0,1.08239X$1,22.5*
%
%ADD10C,0.1100*%
%ADD11OC8,0.1100*%
%ADD12OC8,0.1299*%
%ADD13C,0.1100*%
%ADD14OC8,0.0973*%
%ADD15C,0.0907*%
%ADD16OC8,0.0640*%
%ADD17OC8,0.0840*%
%ADD18C,0.1653*%
%ADD19C,0.0674*%
%ADD20C,0.0674*%
%ADD21C,0.0640*%
%ADD22C,0.1436*%
%ADD23OC8,0.0674*%
%ADD24R,0.0674X0.0674*%
%ADD25C,0.1039*%
%ADD26C,0.1386*%
%ADD27OC8,0.0680*%
%ADD28C,0.2562*%
%ADD29C,0.1650*%
%ADD30OC8,0.0516*%
%ADD31C,0.2365*%
D10*
X030801Y017099D03*
X034738Y017099D03*
X035039Y021166D03*
X033089Y021166D03*
X033837Y025103D03*
X035787Y025103D03*
X060464Y011125D03*
D11*
X062464Y011125D03*
X050159Y014288D03*
X049238Y015459D03*
X047238Y015459D03*
X043238Y015459D03*
X041238Y015459D03*
X040317Y014288D03*
X040317Y024131D03*
X042285Y024131D03*
X045238Y024131D03*
X048191Y024131D03*
X050159Y024131D03*
X049238Y025459D03*
X047238Y025459D03*
X043238Y025459D03*
X041238Y025459D03*
D12*
X059438Y017184D03*
D13*
X029745Y019281D02*
X028745Y019281D01*
X028745Y021250D02*
X029745Y021250D01*
X029745Y023218D02*
X028745Y023218D01*
X028745Y025187D02*
X029745Y025187D01*
X029745Y027155D02*
X028745Y027155D01*
D14*
X029423Y013605D03*
X029423Y011299D03*
X035423Y011299D03*
X035423Y013605D03*
D15*
X043463Y011047D02*
X043463Y010222D01*
X045613Y010222D02*
X045613Y011047D01*
X047763Y011047D02*
X047763Y010222D01*
X047763Y007347D02*
X047763Y006522D01*
X045613Y006522D02*
X045613Y007347D01*
X043463Y007347D02*
X043463Y006522D01*
D16*
X034238Y006159D03*
X034238Y009159D03*
D17*
X037313Y008634D03*
X037313Y006634D03*
D18*
X040638Y008159D03*
X050638Y008159D03*
D19*
X067641Y019659D02*
X068235Y019659D01*
X068235Y020659D02*
X067641Y020659D01*
X067641Y021659D02*
X068235Y021659D01*
D20*
X068057Y024572D03*
X067057Y024572D03*
X067057Y025572D03*
X068057Y025572D03*
X068057Y026572D03*
X067057Y026572D03*
X067057Y027572D03*
X068057Y027572D03*
X068057Y028572D03*
X067057Y028572D03*
X042383Y027215D03*
X041383Y027215D03*
X038402Y027215D03*
X037402Y027215D03*
X038643Y031333D03*
X039643Y031333D03*
X040643Y031333D03*
X041143Y032333D03*
X040143Y032333D03*
X039143Y032333D03*
X038143Y032333D03*
D21*
X049336Y029970D03*
X050321Y029970D03*
X050321Y028711D03*
X049336Y028711D03*
D22*
X047458Y028907D03*
X052199Y028907D03*
D23*
X052688Y032334D03*
X053688Y032334D03*
X054688Y032334D03*
X055688Y032334D03*
X056688Y032334D03*
X058788Y032334D03*
X059788Y032334D03*
X060788Y032334D03*
X061788Y032334D03*
X062788Y032334D03*
X050688Y032334D03*
X049688Y032334D03*
X048688Y032334D03*
X047688Y032334D03*
X046688Y032334D03*
X045688Y032334D03*
X044688Y032334D03*
X043688Y032334D03*
D24*
X041643Y031333D03*
D25*
X042993Y030365D03*
X036792Y030365D03*
D26*
X037643Y028833D03*
X042143Y028833D03*
D27*
X034738Y029734D03*
X030738Y029734D03*
D28*
X029063Y007015D03*
X065283Y007015D03*
X065283Y031819D03*
X029063Y031819D03*
D29*
X035438Y031959D03*
X028938Y017059D03*
X028938Y015309D03*
D30*
X060588Y005059D03*
X062588Y005059D03*
D31*
X045204Y029850D03*
M02*
