%
M48
M72
T01C0.0236
T02C0.0276
T03C0.0354
T04C0.0360
T05C0.0394
T06C0.0400
T07C0.0433
T08C0.0472
T09C0.0531
T10C0.0550
T11C0.0590
T12C0.0630
T13C0.0906
T14C0.1102
T15C0.1260
%
T01
X49993Y12972
X62743Y17422
X63213Y17422
X63688Y17422
X63688Y17947
X63213Y17947
X62738Y17947
X62748Y18472
X63218Y18472
X63688Y18472
X65243Y17322
X58643Y17922
X62818Y19972
X63968Y19997
X66743Y21047
X66743Y21647
X66743Y22247
X66743Y22847
X66743Y23447
X66743Y24047
X66743Y24647
X69743Y25322
X69743Y26347
X69943Y27147
X67143Y27447
X65118Y28397
X64368Y28897
X64318Y27872
X68418Y28797
X65893Y30872
X58118Y27447
X58393Y25247
X58393Y24872
X58368Y23872
X58368Y23497
X58893Y22597
X59793Y22597
X60043Y21322
X60418Y20572
X60793Y20572
X68068Y11922
X68468Y11922
X68468Y11522
X68068Y11522
X68068Y11122
X68468Y11122
X68468Y10722
X68068Y10722
X68068Y10322
X68468Y10322
X68468Y9922
X68068Y9922
X66868Y9747
X72243Y9422
X72293Y12097
X58193Y5922
X55968Y5872
X44168Y30522
X43068Y30722
X43943Y31297
X45593Y33172
T02
X64368Y5747
X66368Y5747
T03
X54101Y29398
X53117Y29398
X53117Y30658
X54101Y30658
T04
X38018Y9847
X38018Y6847
T05
X71718Y20347
X71718Y21347
X71718Y22347
X71837Y25259
X70837Y25259
X70837Y26259
X71837Y26259
X71837Y27259
X70837Y27259
X70837Y28259
X71837Y28259
X71837Y29259
X70837Y29259
X66568Y33022
X65568Y33022
X64568Y33022
X63568Y33022
X62568Y33022
X60468Y33022
X59468Y33022
X58468Y33022
X57468Y33022
X56468Y33022
X54468Y33022
X53468Y33022
X52468Y33022
X51468Y33022
X50468Y33022
X49468Y33022
X48468Y33022
X47468Y33022
X44923Y33021
X43923Y33021
X42923Y33021
X41923Y33021
X42423Y32021
X43423Y32021
X44423Y32021
X45423Y32021
X45163Y27903
X46163Y27903
X42183Y27903
X41183Y27903
T06
X38518Y30422
X34518Y30422
X64244Y11812
X66244Y11812
X41093Y9322
X41093Y7322
T07
X38518Y17787
X34581Y17787
T08
X44097Y14976
X45018Y16147
X47018Y16147
X51018Y16147
X53018Y16147
X53939Y14976
X38819Y21853
X36869Y21853
X44097Y24818
X46065Y24818
X47018Y26147
X45018Y26147
X49018Y24818
X51971Y24818
X53939Y24818
X53018Y26147
X51018Y26147
X39567Y25790
X37617Y25790
T09
X33025Y25874
X33025Y23906
X33025Y21937
X33025Y19969
X33025Y27843
T10
X47243Y11322
X49393Y11322
X51543Y11322
X51543Y7622
X49393Y7622
X47243Y7622
T11
X39203Y11986
X39203Y14292
X33203Y14292
X33203Y11986
T12
X32718Y15997
X32718Y17747
X40572Y31052
X39218Y32647
X46773Y31052
T13
X51239Y29595
X55979Y29595
T14
X54418Y8847
X44418Y8847
T15
X32843Y7803
X69063Y7803
X45923Y29521
X48985Y30637
X41423Y29521
X32843Y32606
X69063Y32606
M30
