G75*
G70*
%OFA0B0*%
%FSLAX24Y24*%
%IPPOS*%
%LPD*%
%AMOC8*
5,1,8,0,0,1.08239X$1,22.5*
%
%ADD10C,0.1000*%
%ADD11OC8,0.1000*%
%ADD12R,0.0591X0.0669*%
%ADD13R,0.0512X0.0591*%
%ADD14R,0.0591X0.0512*%
%ADD15R,0.0551X0.0551*%
%ADD16R,0.0560X0.0140*%
%ADD17R,0.1180X0.1180*%
%ADD18R,0.1063X0.0630*%
%ADD19R,0.1969X0.2165*%
%ADD20R,0.0630X0.1063*%
%ADD21C,0.1000*%
%ADD22OC8,0.0885*%
%ADD23R,0.0710X0.0630*%
%ADD24C,0.0825*%
%ADD25R,0.1260X0.0709*%
%ADD26OC8,0.0560*%
%ADD27OC8,0.0760*%
%ADD28C,0.1502*%
%ADD29R,0.0598X0.0701*%
%ADD30R,0.0709X0.0984*%
%ADD31C,0.0594*%
%ADD32C,0.0594*%
%ADD33R,0.0880X0.0480*%
%ADD34R,0.0866X0.1417*%
%ADD35C,0.0560*%
%ADD36C,0.1306*%
%ADD37OC8,0.0594*%
%ADD38R,0.0594X0.0594*%
%ADD39C,0.0945*%
%ADD40R,0.0394X0.0433*%
%ADD41R,0.0300X0.1280*%
%ADD42R,0.0440X0.0100*%
%ADD43R,0.0440X0.0120*%
%ADD44R,0.0520X0.0370*%
%ADD45R,0.0620X0.0220*%
%ADD46OC8,0.0600*%
%ADD47R,0.2244X0.2165*%
%ADD48R,0.0669X0.0512*%
%ADD49R,0.0780X0.0220*%
%ADD50R,0.0591X0.0472*%
%ADD51R,0.0300X0.1130*%
%ADD52OC8,0.0396*%
%ADD53R,0.0396X0.0396*%
%ADD54C,0.0120*%
%ADD55C,0.0100*%
%ADD56C,0.0160*%
%ADD57C,0.0320*%
%ADD58C,0.0140*%
%ADD59C,0.2362*%
%ADD60C,0.1500*%
%ADD61C,0.0660*%
%ADD62C,0.0240*%
%ADD63OC8,0.0436*%
%ADD64C,0.2165*%
%ADD65C,0.1200*%
%ADD66C,0.0860*%
D10*
X034581Y017787D03*
X038518Y017787D03*
X038819Y021853D03*
X036869Y021853D03*
X037617Y025790D03*
X039567Y025790D03*
X064244Y011812D03*
D11*
X066244Y011812D03*
X053939Y014976D03*
X053018Y016147D03*
X051018Y016147D03*
X047018Y016147D03*
X045018Y016147D03*
X044097Y014976D03*
X044097Y024818D03*
X046065Y024818D03*
X047018Y026147D03*
X045018Y026147D03*
X049018Y024818D03*
X051971Y024818D03*
X053939Y024818D03*
X053018Y026147D03*
X051018Y026147D03*
D12*
X064864Y009294D03*
X066872Y009294D03*
X066872Y005750D03*
X064864Y005750D03*
D13*
X067369Y013822D03*
X068117Y013822D03*
X064017Y015472D03*
X063269Y015472D03*
X062092Y015472D03*
X061344Y015472D03*
X059742Y015472D03*
X058994Y015472D03*
X058994Y016247D03*
X059742Y016247D03*
X061344Y016247D03*
X062092Y016247D03*
X063269Y016247D03*
X064017Y016247D03*
X064544Y019272D03*
X065292Y019272D03*
X062867Y019497D03*
X062119Y019497D03*
X058992Y028272D03*
X058244Y028272D03*
X058244Y029047D03*
X058992Y029047D03*
D14*
X068418Y029223D03*
X069193Y029223D03*
X069193Y029971D03*
X068418Y029971D03*
X069093Y024721D03*
X069093Y023973D03*
X059593Y021371D03*
X059593Y020623D03*
X059593Y019821D03*
X059593Y019073D03*
X066968Y019698D03*
X066968Y020446D03*
X064818Y016346D03*
X064818Y015598D03*
X067293Y015371D03*
X068118Y015371D03*
X068118Y014623D03*
X067293Y014623D03*
X062693Y013621D03*
X062693Y012873D03*
X060543Y015483D03*
X060543Y016231D03*
X063293Y007871D03*
X063293Y007123D03*
D15*
X066093Y017824D03*
X066093Y019320D03*
X070220Y019047D03*
X071716Y019047D03*
D16*
X064338Y018772D03*
X064338Y018512D03*
X064338Y018252D03*
X064338Y018002D03*
X064338Y017742D03*
X064338Y017492D03*
X064338Y017232D03*
X064338Y016972D03*
X062098Y016972D03*
X062098Y017232D03*
X062098Y017492D03*
X062098Y017742D03*
X062098Y018002D03*
X062098Y018252D03*
X062098Y018512D03*
X062098Y018772D03*
D17*
X063218Y017872D03*
D18*
X060668Y018971D03*
X060668Y020073D03*
D19*
X061970Y022597D03*
X065316Y022597D03*
D20*
X059969Y023697D03*
X058867Y023697D03*
X058867Y025072D03*
X059969Y025072D03*
X060169Y017847D03*
X059067Y017847D03*
D21*
X039880Y026134D02*
X039542Y025796D01*
X039567Y025790D01*
X033525Y025874D02*
X032525Y025874D01*
X032525Y023906D02*
X033525Y023906D01*
X033525Y021937D02*
X032525Y021937D01*
X032525Y019969D02*
X033525Y019969D01*
X033525Y027843D02*
X032525Y027843D01*
D22*
X033203Y014292D03*
X033203Y011986D03*
X039203Y011986D03*
X039203Y014292D03*
D23*
X066968Y017712D03*
X066968Y018832D03*
D24*
X051543Y011734D02*
X051543Y010909D01*
X049393Y010909D02*
X049393Y011734D01*
X047243Y011734D02*
X047243Y010909D01*
X047243Y008034D02*
X047243Y007209D01*
X049393Y007209D02*
X049393Y008034D01*
X051543Y008034D02*
X051543Y007209D01*
D25*
X056768Y008024D03*
X056768Y009394D03*
X056768Y011599D03*
X056768Y005819D03*
X035993Y006894D03*
X035993Y009099D03*
D26*
X038018Y009847D03*
X038018Y006847D03*
D27*
X041093Y007322D03*
X041093Y009322D03*
D28*
X044418Y008847D03*
X054418Y008847D03*
D29*
X058789Y007922D03*
X058789Y006922D03*
X058789Y005922D03*
X062447Y005922D03*
X062447Y006922D03*
X062447Y007922D03*
X062447Y009822D03*
X062447Y010822D03*
X062447Y011822D03*
X058789Y011822D03*
X058789Y010822D03*
X058789Y009822D03*
D30*
X069910Y017047D03*
X072626Y017047D03*
D31*
X072015Y020347D02*
X071421Y020347D01*
X071421Y021347D02*
X072015Y021347D01*
X072015Y022347D02*
X071421Y022347D01*
D32*
X071837Y025259D03*
X070837Y025259D03*
X070837Y026259D03*
X071837Y026259D03*
X071837Y027259D03*
X070837Y027259D03*
X070837Y028259D03*
X071837Y028259D03*
X071837Y029259D03*
X070837Y029259D03*
X046163Y027903D03*
X045163Y027903D03*
X042183Y027903D03*
X041183Y027903D03*
X042423Y032021D03*
X043423Y032021D03*
X044423Y032021D03*
X044923Y033021D03*
X043923Y033021D03*
X042923Y033021D03*
X041923Y033021D03*
D33*
X069223Y014957D03*
X069223Y014047D03*
X069223Y013137D03*
D34*
X071663Y014047D03*
D35*
X054101Y029398D03*
X053117Y029398D03*
X053117Y030658D03*
X054101Y030658D03*
D36*
X055979Y029595D03*
X051239Y029595D03*
D37*
X051468Y033022D03*
X052468Y033022D03*
X053468Y033022D03*
X054468Y033022D03*
X056468Y033022D03*
X057468Y033022D03*
X058468Y033022D03*
X059468Y033022D03*
X060468Y033022D03*
X062568Y033022D03*
X063568Y033022D03*
X064568Y033022D03*
X065568Y033022D03*
X066568Y033022D03*
X050468Y033022D03*
X049468Y033022D03*
X048468Y033022D03*
X047468Y033022D03*
D38*
X045423Y032021D03*
D39*
X046773Y031052D03*
X040572Y031052D03*
D40*
X045883Y033072D03*
X046553Y033072D03*
X055468Y031956D03*
X056683Y031522D03*
X057353Y031522D03*
X059093Y031531D03*
X059093Y030862D03*
X058318Y030856D03*
X058318Y030187D03*
X055468Y031287D03*
X064743Y031531D03*
X064743Y030862D03*
X065518Y030881D03*
X065518Y030212D03*
X059178Y027447D03*
X058508Y027447D03*
D41*
X068918Y022247D03*
X068918Y020347D03*
D42*
X044708Y030547D03*
X044708Y030747D03*
X044708Y030947D03*
D43*
X043628Y030947D03*
X043628Y030547D03*
D44*
X053743Y031997D03*
D45*
X054493Y032077D03*
X054493Y031317D03*
X053743Y031317D03*
D46*
X038518Y030422D03*
X034518Y030422D03*
D47*
X069769Y010697D03*
D48*
X072304Y009797D03*
X072304Y011596D03*
D49*
X063793Y027897D03*
X063793Y028397D03*
X063793Y028897D03*
X063793Y029397D03*
X063793Y029897D03*
X063793Y030397D03*
X063793Y030897D03*
X063793Y031397D03*
X060093Y031397D03*
X060093Y030897D03*
X060093Y030397D03*
X060093Y029897D03*
X060093Y029397D03*
X060093Y028897D03*
X060093Y028397D03*
X060093Y027897D03*
D50*
X068097Y030747D03*
X069239Y030747D03*
D51*
X071868Y007952D03*
X071868Y006392D03*
D52*
X072243Y009422D03*
X066868Y009747D03*
X072293Y012097D03*
X065243Y017322D03*
X058643Y017922D03*
X062818Y019972D03*
X063968Y019997D03*
X060043Y021322D03*
X059793Y022597D03*
X058893Y022597D03*
X069743Y025322D03*
X069743Y026347D03*
X069943Y027147D03*
X067143Y027447D03*
X065118Y028397D03*
X064368Y028897D03*
X058118Y027447D03*
X044168Y030522D03*
X043068Y030722D03*
X043943Y031297D03*
X045593Y033172D03*
X049993Y012972D03*
X055968Y005872D03*
X058193Y005922D03*
D53*
X068068Y009922D03*
X068068Y010322D03*
X068068Y010722D03*
X068068Y011122D03*
X068468Y011122D03*
X068468Y010722D03*
X068468Y010322D03*
X068468Y009922D03*
X068468Y011522D03*
X068468Y011922D03*
X068068Y011922D03*
X068068Y011522D03*
X063688Y017422D03*
X063213Y017422D03*
X062743Y017422D03*
X062738Y017947D03*
X063213Y017947D03*
X063688Y017947D03*
X063688Y018472D03*
X063218Y018472D03*
X062748Y018472D03*
X060793Y020572D03*
X060418Y020572D03*
X066743Y021047D03*
X066743Y021647D03*
X066743Y022247D03*
X066743Y022847D03*
X066743Y023447D03*
X066743Y024047D03*
X066743Y024647D03*
X058393Y024872D03*
X058393Y025247D03*
X058368Y023872D03*
X058368Y023497D03*
X064318Y027872D03*
X068418Y028797D03*
X065893Y030872D03*
D54*
X058867Y025072D02*
X058667Y024872D01*
X058393Y024872D01*
X058867Y023697D02*
X058692Y023497D01*
X058368Y023497D01*
X061368Y023547D02*
X061393Y023572D01*
X061393Y023372D01*
X061943Y022822D01*
X061968Y022847D01*
X061970Y022597D01*
X061968Y022772D02*
X062818Y021922D01*
X062818Y020547D01*
X063368Y019997D01*
X063968Y019997D01*
X062818Y019972D02*
X062867Y019497D01*
X064338Y018252D02*
X064898Y018252D01*
X064758Y017232D02*
X064868Y017122D01*
X064868Y016396D01*
X064818Y016346D01*
X063168Y016247D02*
X063143Y016272D01*
X063143Y016597D01*
X062768Y016972D01*
X062098Y016972D01*
X064338Y017232D02*
X064758Y017232D01*
X058418Y014297D02*
X058043Y014672D01*
X058043Y021747D01*
X058893Y022597D01*
X059718Y022597D02*
X059793Y022597D01*
X061943Y022822D02*
X061968Y022797D01*
X044918Y030972D02*
X044918Y033016D01*
X044923Y033021D01*
X045593Y033172D02*
X045833Y033162D01*
X045883Y033072D01*
X058418Y014297D02*
X061568Y014297D01*
X061893Y013972D01*
X061893Y009822D01*
X062447Y009822D01*
X061893Y009822D02*
X061893Y006072D01*
X062043Y005922D01*
X062443Y005922D01*
X067518Y005876D02*
X073014Y005876D01*
X073014Y005758D02*
X067518Y005758D01*
X067518Y005639D02*
X073014Y005639D01*
X073014Y005637D02*
X073012Y005604D01*
X072991Y005542D01*
X072953Y005488D01*
X072899Y005450D01*
X072836Y005429D01*
X072803Y005427D01*
X067518Y005427D01*
X067518Y013022D01*
X073014Y013022D01*
X073014Y005637D01*
X072976Y005521D02*
X067518Y005521D01*
X067518Y005995D02*
X073014Y005995D01*
X073014Y006113D02*
X067518Y006113D01*
X067518Y006232D02*
X073014Y006232D01*
X073014Y006350D02*
X067518Y006350D01*
X067518Y006469D02*
X068783Y006469D01*
X068884Y006442D02*
X069242Y006442D01*
X069589Y006534D01*
X069899Y006714D01*
X070152Y006967D01*
X070332Y007277D01*
X070424Y007624D01*
X070424Y007982D01*
X070332Y008328D01*
X070152Y008638D01*
X069899Y008892D01*
X069589Y009071D01*
X069242Y009164D01*
X068884Y009164D01*
X068538Y009071D01*
X068228Y008892D01*
X067974Y008638D01*
X067795Y008328D01*
X067702Y007982D01*
X067702Y007624D01*
X067795Y007277D01*
X067974Y006967D01*
X068228Y006714D01*
X068538Y006534D01*
X068884Y006442D01*
X069344Y006469D02*
X073014Y006469D01*
X073014Y006587D02*
X069680Y006587D01*
X069886Y006706D02*
X073014Y006706D01*
X073014Y006824D02*
X070010Y006824D01*
X070128Y006943D02*
X073014Y006943D01*
X073014Y007061D02*
X070207Y007061D01*
X070275Y007180D02*
X073014Y007180D01*
X073014Y007298D02*
X072184Y007298D01*
X072198Y007312D02*
X072198Y008591D01*
X072093Y008697D01*
X072042Y008697D01*
X071718Y009021D01*
X071718Y010573D01*
X072306Y011161D01*
X072714Y011161D01*
X072819Y011266D01*
X072819Y011927D01*
X072714Y012032D01*
X072671Y012032D01*
X072671Y012253D01*
X072450Y012475D01*
X072136Y012475D01*
X071915Y012253D01*
X071915Y012032D01*
X071895Y012032D01*
X071790Y011927D01*
X071790Y011493D01*
X071164Y010867D01*
X071118Y010757D01*
X071118Y008837D01*
X071164Y008727D01*
X071248Y008643D01*
X071538Y008353D01*
X071538Y007312D01*
X071643Y007207D01*
X072093Y007207D01*
X072198Y007312D01*
X072198Y007417D02*
X073014Y007417D01*
X073014Y007535D02*
X072198Y007535D01*
X072198Y007654D02*
X073014Y007654D01*
X073014Y007772D02*
X072198Y007772D01*
X072198Y007891D02*
X073014Y007891D01*
X073014Y008009D02*
X072198Y008009D01*
X072198Y008128D02*
X073014Y008128D01*
X073014Y008246D02*
X072198Y008246D01*
X072198Y008365D02*
X073014Y008365D01*
X073014Y008483D02*
X072198Y008483D01*
X072188Y008602D02*
X073014Y008602D01*
X073014Y008720D02*
X072019Y008720D01*
X071900Y008839D02*
X073014Y008839D01*
X073014Y008957D02*
X071782Y008957D01*
X071718Y009076D02*
X072054Y009076D01*
X072086Y009044D02*
X072400Y009044D01*
X072621Y009265D01*
X072621Y009361D01*
X072714Y009361D01*
X072819Y009467D01*
X072819Y010128D01*
X072714Y010233D01*
X071895Y010233D01*
X071790Y010128D01*
X071790Y009467D01*
X071865Y009392D01*
X071865Y009265D01*
X072086Y009044D01*
X071936Y009194D02*
X071718Y009194D01*
X071718Y009313D02*
X071865Y009313D01*
X071825Y009431D02*
X071718Y009431D01*
X071718Y009550D02*
X071790Y009550D01*
X071790Y009668D02*
X071718Y009668D01*
X071718Y009787D02*
X071790Y009787D01*
X071790Y009905D02*
X071718Y009905D01*
X071718Y010024D02*
X071790Y010024D01*
X071804Y010142D02*
X071718Y010142D01*
X071718Y010261D02*
X073014Y010261D01*
X073014Y010379D02*
X071718Y010379D01*
X071718Y010498D02*
X073014Y010498D01*
X073014Y010616D02*
X071762Y010616D01*
X071880Y010735D02*
X073014Y010735D01*
X073014Y010853D02*
X071999Y010853D01*
X072117Y010972D02*
X073014Y010972D01*
X073014Y011090D02*
X072236Y011090D01*
X072762Y011209D02*
X073014Y011209D01*
X073014Y011327D02*
X072819Y011327D01*
X072819Y011446D02*
X073014Y011446D01*
X073014Y011564D02*
X072819Y011564D01*
X072819Y011683D02*
X073014Y011683D01*
X073014Y011801D02*
X072819Y011801D01*
X072819Y011920D02*
X073014Y011920D01*
X073014Y012038D02*
X072671Y012038D01*
X072671Y012157D02*
X073014Y012157D01*
X073014Y012275D02*
X072649Y012275D01*
X072531Y012394D02*
X073014Y012394D01*
X073014Y012512D02*
X067518Y012512D01*
X067518Y012394D02*
X072055Y012394D01*
X071937Y012275D02*
X067518Y012275D01*
X067518Y012157D02*
X071915Y012157D01*
X071915Y012038D02*
X067518Y012038D01*
X067518Y011920D02*
X071790Y011920D01*
X071790Y011801D02*
X067518Y011801D01*
X067518Y011683D02*
X071790Y011683D01*
X071790Y011564D02*
X067518Y011564D01*
X067518Y011446D02*
X071743Y011446D01*
X071624Y011327D02*
X067518Y011327D01*
X067518Y011209D02*
X071506Y011209D01*
X071387Y011090D02*
X067518Y011090D01*
X067518Y010972D02*
X071269Y010972D01*
X071158Y010853D02*
X067518Y010853D01*
X067518Y010735D02*
X071118Y010735D01*
X071118Y010616D02*
X067518Y010616D01*
X067518Y010498D02*
X071118Y010498D01*
X071118Y010379D02*
X067518Y010379D01*
X067518Y010261D02*
X071118Y010261D01*
X071118Y010142D02*
X067518Y010142D01*
X067518Y010024D02*
X071118Y010024D01*
X071118Y009905D02*
X067518Y009905D01*
X067518Y009787D02*
X071118Y009787D01*
X071118Y009668D02*
X067518Y009668D01*
X067518Y009550D02*
X071118Y009550D01*
X071118Y009431D02*
X067518Y009431D01*
X067518Y009313D02*
X071118Y009313D01*
X071118Y009194D02*
X067518Y009194D01*
X067518Y009076D02*
X068556Y009076D01*
X068341Y008957D02*
X067518Y008957D01*
X067518Y008839D02*
X068174Y008839D01*
X068056Y008720D02*
X067518Y008720D01*
X067518Y008602D02*
X067953Y008602D01*
X067885Y008483D02*
X067518Y008483D01*
X067518Y008365D02*
X067816Y008365D01*
X067773Y008246D02*
X067518Y008246D01*
X067518Y008128D02*
X067741Y008128D01*
X067709Y008009D02*
X067518Y008009D01*
X067518Y007891D02*
X067702Y007891D01*
X067702Y007772D02*
X067518Y007772D01*
X067518Y007654D02*
X067702Y007654D01*
X067726Y007535D02*
X067518Y007535D01*
X067518Y007417D02*
X067758Y007417D01*
X067789Y007298D02*
X067518Y007298D01*
X067518Y007180D02*
X067851Y007180D01*
X067920Y007061D02*
X067518Y007061D01*
X067518Y006943D02*
X067998Y006943D01*
X068117Y006824D02*
X067518Y006824D01*
X067518Y006706D02*
X068241Y006706D01*
X068446Y006587D02*
X067518Y006587D01*
X070337Y007298D02*
X071552Y007298D01*
X071538Y007417D02*
X070369Y007417D01*
X070401Y007535D02*
X071538Y007535D01*
X071538Y007654D02*
X070424Y007654D01*
X070424Y007772D02*
X071538Y007772D01*
X071538Y007891D02*
X070424Y007891D01*
X070417Y008009D02*
X071538Y008009D01*
X071538Y008128D02*
X070385Y008128D01*
X070354Y008246D02*
X071538Y008246D01*
X071526Y008365D02*
X070310Y008365D01*
X070242Y008483D02*
X071407Y008483D01*
X071289Y008602D02*
X070174Y008602D01*
X070071Y008720D02*
X071170Y008720D01*
X071118Y008839D02*
X069952Y008839D01*
X069786Y008957D02*
X071118Y008957D01*
X071118Y009076D02*
X069571Y009076D01*
X072432Y009076D02*
X073014Y009076D01*
X073014Y009194D02*
X072550Y009194D01*
X072621Y009313D02*
X073014Y009313D01*
X073014Y009431D02*
X072784Y009431D01*
X072819Y009550D02*
X073014Y009550D01*
X073014Y009668D02*
X072819Y009668D01*
X072819Y009787D02*
X073014Y009787D01*
X073014Y009905D02*
X072819Y009905D01*
X072819Y010024D02*
X073014Y010024D01*
X073014Y010142D02*
X072804Y010142D01*
X073014Y012631D02*
X067518Y012631D01*
X067518Y012749D02*
X073014Y012749D01*
X073014Y012868D02*
X067518Y012868D01*
X067518Y012986D02*
X073014Y012986D01*
D55*
X073024Y013297D02*
X072240Y013297D01*
X072246Y013318D01*
X072246Y013997D01*
X071713Y013997D01*
X071713Y014097D01*
X071613Y014097D01*
X071613Y014906D01*
X071210Y014906D01*
X071172Y014895D01*
X071138Y014876D01*
X071110Y014848D01*
X071090Y014813D01*
X071080Y014775D01*
X071080Y014097D01*
X071613Y014097D01*
X071613Y013997D01*
X071080Y013997D01*
X071080Y013318D01*
X071086Y013297D01*
X069813Y013297D01*
X069813Y013439D01*
X069725Y013527D01*
X068721Y013527D01*
X068718Y013524D01*
X068718Y013671D01*
X068725Y013667D01*
X068763Y013657D01*
X069173Y013657D01*
X069173Y013997D01*
X069273Y013997D01*
X069273Y014097D01*
X069173Y014097D01*
X069173Y014437D01*
X068763Y014437D01*
X068725Y014427D01*
X068718Y014423D01*
X068718Y014570D01*
X068721Y014567D01*
X069725Y014567D01*
X069813Y014655D01*
X069813Y015259D01*
X069725Y015347D01*
X068926Y015347D01*
X068901Y015372D01*
X068718Y015372D01*
X068718Y019272D01*
X069794Y019272D01*
X069794Y019097D01*
X070170Y019097D01*
X070170Y018997D01*
X069794Y018997D01*
X069794Y018752D01*
X069805Y018713D01*
X069824Y018679D01*
X069852Y018651D01*
X069886Y018631D01*
X069925Y018621D01*
X070170Y018621D01*
X070170Y018997D01*
X070270Y018997D01*
X070270Y019097D01*
X070646Y019097D01*
X070646Y019272D01*
X071290Y019272D01*
X071290Y018709D01*
X071378Y018621D01*
X072054Y018621D01*
X072142Y018709D01*
X072142Y019272D01*
X072348Y019272D01*
X072348Y017689D01*
X072210Y017689D01*
X072122Y017601D01*
X072122Y016493D01*
X072210Y016405D01*
X073024Y016405D01*
X073024Y013297D01*
X073024Y013321D02*
X072246Y013321D01*
X072168Y013321D02*
X070868Y013321D01*
X070868Y013297D02*
X070843Y014947D01*
X072143Y014947D01*
X072168Y013297D01*
X070868Y013297D01*
X070866Y013419D02*
X072166Y013419D01*
X072246Y013419D02*
X073024Y013419D01*
X073024Y013518D02*
X072246Y013518D01*
X072165Y013518D02*
X070865Y013518D01*
X070863Y013616D02*
X072163Y013616D01*
X072246Y013616D02*
X073024Y013616D01*
X073024Y013715D02*
X072246Y013715D01*
X072162Y013715D02*
X070862Y013715D01*
X070860Y013813D02*
X072160Y013813D01*
X072246Y013813D02*
X073024Y013813D01*
X073024Y013912D02*
X072246Y013912D01*
X072159Y013912D02*
X070859Y013912D01*
X070857Y014010D02*
X072157Y014010D01*
X072156Y014109D02*
X070856Y014109D01*
X070854Y014207D02*
X072154Y014207D01*
X072246Y014207D02*
X073024Y014207D01*
X073024Y014109D02*
X072246Y014109D01*
X072246Y014097D02*
X072246Y014775D01*
X072236Y014813D01*
X072216Y014848D01*
X072188Y014876D01*
X072154Y014895D01*
X072116Y014906D01*
X071713Y014906D01*
X071713Y014097D01*
X072246Y014097D01*
X072246Y014306D02*
X073024Y014306D01*
X073024Y014404D02*
X072246Y014404D01*
X072151Y014404D02*
X070851Y014404D01*
X070853Y014306D02*
X072153Y014306D01*
X072150Y014503D02*
X070850Y014503D01*
X070848Y014601D02*
X072148Y014601D01*
X072246Y014601D02*
X073024Y014601D01*
X073024Y014503D02*
X072246Y014503D01*
X072246Y014700D02*
X073024Y014700D01*
X073024Y014798D02*
X072240Y014798D01*
X072145Y014798D02*
X070845Y014798D01*
X070847Y014700D02*
X072147Y014700D01*
X072148Y014897D02*
X073024Y014897D01*
X073024Y014995D02*
X069813Y014995D01*
X069813Y014897D02*
X071178Y014897D01*
X071086Y014798D02*
X069813Y014798D01*
X069813Y014700D02*
X071080Y014700D01*
X071080Y014601D02*
X069760Y014601D01*
X069721Y014427D02*
X069755Y014407D01*
X069783Y014379D01*
X069803Y014345D01*
X069813Y014307D01*
X069813Y014097D01*
X069273Y014097D01*
X069273Y014437D01*
X069683Y014437D01*
X069721Y014427D01*
X069757Y014404D02*
X071080Y014404D01*
X071080Y014306D02*
X069813Y014306D01*
X069813Y014207D02*
X071080Y014207D01*
X071080Y014109D02*
X069813Y014109D01*
X069813Y013997D02*
X069273Y013997D01*
X069273Y013657D01*
X069683Y013657D01*
X069721Y013667D01*
X069755Y013687D01*
X069783Y013715D01*
X071080Y013715D01*
X071080Y013813D02*
X069813Y013813D01*
X069813Y013787D02*
X069813Y013997D01*
X069813Y013912D02*
X071080Y013912D01*
X071080Y013616D02*
X068718Y013616D01*
X069173Y013715D02*
X069273Y013715D01*
X069273Y013813D02*
X069173Y013813D01*
X069173Y013912D02*
X069273Y013912D01*
X069273Y014010D02*
X071613Y014010D01*
X071613Y014109D02*
X071713Y014109D01*
X071713Y014207D02*
X071613Y014207D01*
X071613Y014306D02*
X071713Y014306D01*
X071713Y014404D02*
X071613Y014404D01*
X071613Y014503D02*
X071713Y014503D01*
X071713Y014601D02*
X071613Y014601D01*
X071613Y014700D02*
X071713Y014700D01*
X071713Y014798D02*
X071613Y014798D01*
X071613Y014897D02*
X071713Y014897D01*
X072144Y014897D02*
X070844Y014897D01*
X071080Y014503D02*
X068718Y014503D01*
X069173Y014404D02*
X069273Y014404D01*
X069273Y014306D02*
X069173Y014306D01*
X069173Y014207D02*
X069273Y014207D01*
X069273Y014109D02*
X069173Y014109D01*
X069223Y014047D02*
X068342Y014047D01*
X068117Y013822D01*
X067369Y013822D02*
X067369Y014547D01*
X067293Y014623D01*
X067344Y015371D02*
X068066Y014649D01*
X068066Y014623D01*
X068118Y014623D01*
X068818Y015172D02*
X069018Y014972D01*
X069193Y014972D01*
X069218Y014947D01*
X068818Y015172D02*
X068243Y015172D01*
X068118Y015297D01*
X068118Y015371D01*
X068118Y016422D01*
X068368Y016672D01*
X068368Y023248D01*
X069093Y023973D01*
X069093Y024721D02*
X069142Y024721D01*
X069743Y025322D01*
X069093Y025722D02*
X071300Y025722D01*
X071837Y026259D01*
X070837Y026259D02*
X070525Y025947D01*
X068993Y025947D01*
X067893Y024847D01*
X067893Y016947D01*
X067018Y016072D01*
X066643Y016072D01*
X064192Y013621D01*
X062693Y013621D01*
X062693Y012873D02*
X062993Y012573D01*
X062993Y011022D01*
X062793Y010822D01*
X062447Y010822D01*
X063468Y012547D02*
X066743Y015822D01*
X067118Y015822D01*
X068143Y016847D01*
X068143Y024772D01*
X069093Y025722D01*
X068322Y026126D02*
X060222Y026126D01*
X060321Y026224D02*
X068421Y026224D01*
X068519Y026323D02*
X060419Y026323D01*
X060518Y026421D02*
X068618Y026421D01*
X068716Y026520D02*
X060616Y026520D01*
X060715Y026618D02*
X068815Y026618D01*
X068913Y026717D02*
X060813Y026717D01*
X060912Y026815D02*
X069012Y026815D01*
X069110Y026914D02*
X061010Y026914D01*
X061109Y027012D02*
X069209Y027012D01*
X069307Y027111D02*
X067457Y027111D01*
X067393Y027047D02*
X069893Y029547D01*
X071018Y029547D01*
X071143Y029422D01*
X071143Y028097D01*
X071018Y027972D01*
X070168Y027972D01*
X067868Y025672D01*
X063268Y025672D01*
X062893Y025297D01*
X062893Y021547D01*
X060393Y021547D01*
X059643Y022297D01*
X059643Y025547D01*
X061143Y027047D01*
X067393Y027047D01*
X067556Y027209D02*
X069406Y027209D01*
X069504Y027308D02*
X067654Y027308D01*
X067753Y027406D02*
X069603Y027406D01*
X069701Y027505D02*
X067851Y027505D01*
X067950Y027603D02*
X069800Y027603D01*
X069898Y027702D02*
X068048Y027702D01*
X068147Y027800D02*
X069997Y027800D01*
X070095Y027899D02*
X068245Y027899D01*
X068344Y027997D02*
X071044Y027997D01*
X071142Y028096D02*
X068442Y028096D01*
X068541Y028194D02*
X071143Y028194D01*
X071143Y028293D02*
X068639Y028293D01*
X068738Y028391D02*
X071143Y028391D01*
X071143Y028490D02*
X068836Y028490D01*
X068935Y028588D02*
X071143Y028588D01*
X071143Y028687D02*
X069033Y028687D01*
X069132Y028785D02*
X071143Y028785D01*
X071143Y028884D02*
X069230Y028884D01*
X069329Y028982D02*
X071143Y028982D01*
X071143Y029081D02*
X069427Y029081D01*
X069526Y029179D02*
X071143Y029179D01*
X071143Y029278D02*
X069624Y029278D01*
X069723Y029376D02*
X071143Y029376D01*
X071090Y029475D02*
X069821Y029475D01*
X069193Y029223D02*
X070801Y029223D01*
X070837Y029259D01*
X071837Y028259D02*
X071300Y027722D01*
X070418Y027722D01*
X069943Y027247D01*
X069943Y027147D01*
X069925Y026347D02*
X070837Y027259D01*
X071837Y027259D02*
X072443Y027865D01*
X072443Y029672D01*
X072144Y029971D01*
X069193Y029971D01*
X068418Y029971D01*
X068418Y029972D02*
X068243Y030147D01*
X068243Y030697D01*
X068193Y030747D01*
X068097Y030747D01*
X069239Y030747D02*
X071843Y030747D01*
X072768Y029822D01*
X072768Y023397D01*
X071718Y022347D01*
X067318Y022383D02*
X063393Y022383D01*
X063393Y022481D02*
X067318Y022481D01*
X067318Y022580D02*
X063393Y022580D01*
X063393Y022678D02*
X067318Y022678D01*
X067318Y022777D02*
X063393Y022777D01*
X063393Y022875D02*
X067318Y022875D01*
X067318Y022974D02*
X063393Y022974D01*
X063393Y023072D02*
X067318Y023072D01*
X067318Y023171D02*
X063393Y023171D01*
X063393Y023269D02*
X067318Y023269D01*
X067318Y023368D02*
X063393Y023368D01*
X063393Y023466D02*
X067318Y023466D01*
X067318Y023565D02*
X063393Y023565D01*
X063393Y023663D02*
X067318Y023663D01*
X067318Y023762D02*
X063393Y023762D01*
X063393Y023860D02*
X067318Y023860D01*
X067318Y023959D02*
X063393Y023959D01*
X063393Y024057D02*
X067318Y024057D01*
X067318Y024156D02*
X063393Y024156D01*
X063393Y024254D02*
X067318Y024254D01*
X067318Y024353D02*
X063393Y024353D01*
X063393Y024451D02*
X067318Y024451D01*
X067318Y024550D02*
X063393Y024550D01*
X063393Y024648D02*
X067318Y024648D01*
X067318Y024747D02*
X063393Y024747D01*
X063393Y024845D02*
X067318Y024845D01*
X067318Y024944D02*
X063393Y024944D01*
X063393Y025042D02*
X067318Y025042D01*
X067318Y025141D02*
X063393Y025141D01*
X063393Y025239D02*
X067318Y025239D01*
X067318Y025338D02*
X065913Y025338D01*
X067318Y025347D02*
X063393Y025322D01*
X063393Y020472D01*
X064943Y020472D01*
X065068Y020347D01*
X065068Y018722D01*
X064868Y018522D01*
X064313Y018522D01*
X064313Y018272D01*
X064868Y018272D01*
X064893Y018247D01*
X065418Y018247D01*
X066018Y018847D01*
X066443Y018847D01*
X066443Y020172D01*
X067318Y020197D01*
X067318Y025347D01*
X067928Y025732D02*
X059828Y025732D01*
X059927Y025830D02*
X068027Y025830D01*
X068125Y025929D02*
X060025Y025929D01*
X060124Y026027D02*
X068224Y026027D01*
X069743Y026347D02*
X069925Y026347D01*
X070825Y026247D02*
X070837Y026259D01*
X070831Y026259D01*
X067143Y027447D02*
X067043Y027347D01*
X061068Y027347D01*
X059393Y025672D01*
X059393Y022472D01*
X058993Y022072D01*
X058993Y018772D01*
X059168Y018597D01*
X059493Y018597D01*
X059618Y018472D01*
X059618Y017247D01*
X059793Y017072D01*
X060643Y017072D01*
X061573Y018002D01*
X062098Y018002D01*
X062098Y017997D01*
X062093Y018242D02*
X061748Y018242D01*
X061728Y018222D01*
X061482Y018222D01*
X061353Y018093D01*
X061353Y018093D01*
X060632Y017372D01*
X059843Y017372D01*
X059843Y019247D01*
X061193Y019247D01*
X061193Y018572D01*
X061257Y018572D01*
X061352Y018477D01*
X061527Y018302D01*
X061718Y018302D01*
X061748Y018272D01*
X062093Y018272D01*
X062093Y018242D01*
X062093Y018246D02*
X059843Y018246D01*
X059843Y018344D02*
X061484Y018344D01*
X061386Y018443D02*
X059843Y018443D01*
X059843Y018541D02*
X061287Y018541D01*
X061193Y018640D02*
X059843Y018640D01*
X059843Y018738D02*
X061193Y018738D01*
X061193Y018837D02*
X059843Y018837D01*
X059843Y018935D02*
X061193Y018935D01*
X061193Y019034D02*
X059843Y019034D01*
X059843Y019132D02*
X061193Y019132D01*
X061193Y019231D02*
X059843Y019231D01*
X059993Y019547D02*
X059719Y019821D01*
X059593Y019821D01*
X059593Y020623D01*
X060793Y020572D02*
X060793Y020198D01*
X060668Y020073D01*
X061318Y019547D02*
X059993Y019547D01*
X061318Y019547D02*
X061443Y019422D01*
X061443Y018697D01*
X061618Y018522D01*
X062098Y018522D01*
X062118Y018522D01*
X062098Y018522D02*
X062098Y018512D01*
X062548Y018541D02*
X063888Y018541D01*
X063888Y018443D02*
X062548Y018443D01*
X062548Y018344D02*
X063888Y018344D01*
X063888Y018246D02*
X062548Y018246D01*
X062548Y018147D02*
X063888Y018147D01*
X063888Y018049D02*
X062548Y018049D01*
X062548Y017950D02*
X063888Y017950D01*
X063888Y017861D02*
X063988Y017762D01*
X064093Y017762D01*
X064093Y017732D01*
X063988Y017732D01*
X063888Y017632D01*
X063888Y017091D01*
X063988Y016992D01*
X064093Y016992D01*
X064093Y016922D01*
X064638Y016922D01*
X064638Y016772D01*
X064452Y016772D01*
X064353Y016672D01*
X064353Y016020D01*
X064452Y015920D01*
X065098Y015920D01*
X065098Y015188D01*
X064727Y014817D01*
X062809Y014817D01*
X062518Y015108D01*
X062518Y015838D01*
X062418Y015937D01*
X061770Y015937D01*
X061770Y016502D01*
X062523Y016502D01*
X062523Y015631D01*
X062806Y015348D01*
X062843Y015304D01*
X062843Y015106D01*
X062943Y015007D01*
X063595Y015007D01*
X063695Y015106D01*
X063695Y015838D01*
X063673Y015859D01*
X063695Y015881D01*
X063695Y016613D01*
X063595Y016712D01*
X063353Y016712D01*
X063238Y016827D01*
X062863Y017202D01*
X062548Y017202D01*
X062548Y018912D01*
X062448Y019012D01*
X062343Y019012D01*
X062343Y019022D01*
X064093Y019022D01*
X064093Y019012D01*
X063988Y019012D01*
X063888Y018912D01*
X063888Y017861D01*
X063898Y017852D02*
X062548Y017852D01*
X062548Y017753D02*
X064093Y017753D01*
X063911Y017655D02*
X062548Y017655D01*
X062548Y017556D02*
X063888Y017556D01*
X063888Y017458D02*
X062548Y017458D01*
X062548Y017359D02*
X063888Y017359D01*
X063888Y017261D02*
X062548Y017261D01*
X062903Y017162D02*
X063888Y017162D01*
X063916Y017064D02*
X063001Y017064D01*
X063100Y016965D02*
X064093Y016965D01*
X064353Y016670D02*
X063638Y016670D01*
X063695Y016571D02*
X064353Y016571D01*
X064353Y016473D02*
X063695Y016473D01*
X063695Y016374D02*
X064353Y016374D01*
X064353Y016276D02*
X063695Y016276D01*
X063695Y016177D02*
X064353Y016177D01*
X064353Y016079D02*
X063695Y016079D01*
X063695Y015980D02*
X064392Y015980D01*
X063695Y015882D02*
X065098Y015882D01*
X065098Y015783D02*
X063695Y015783D01*
X063695Y015685D02*
X065098Y015685D01*
X065098Y015586D02*
X063695Y015586D01*
X063695Y015488D02*
X065098Y015488D01*
X065098Y015389D02*
X063695Y015389D01*
X063695Y015291D02*
X065098Y015291D01*
X065098Y015192D02*
X063695Y015192D01*
X063683Y015094D02*
X065004Y015094D01*
X064905Y014995D02*
X062631Y014995D01*
X062729Y014897D02*
X064807Y014897D01*
X064818Y014597D02*
X062718Y014597D01*
X062093Y015222D01*
X062093Y015422D01*
X062068Y015447D01*
X062092Y015447D01*
X062092Y015472D01*
X062518Y015488D02*
X062666Y015488D01*
X062764Y015389D02*
X062518Y015389D01*
X062518Y015291D02*
X062843Y015291D01*
X062843Y015192D02*
X062518Y015192D01*
X062532Y015094D02*
X062855Y015094D01*
X062968Y015497D02*
X063269Y015472D01*
X062968Y015497D02*
X062743Y015722D01*
X062743Y016622D01*
X062643Y016722D01*
X061768Y016722D01*
X061668Y016822D01*
X061668Y017147D01*
X061753Y017232D01*
X062098Y017232D01*
X062098Y017492D02*
X061713Y017492D01*
X061344Y017123D01*
X061344Y016247D01*
X061344Y015472D01*
X060619Y015472D01*
X060543Y015483D01*
X060567Y015472D01*
X059742Y015472D01*
X058994Y015472D02*
X058994Y016247D01*
X058994Y016498D01*
X059118Y016622D01*
X059119Y016623D02*
X059318Y016822D01*
X060743Y016822D01*
X061663Y017742D01*
X062098Y017742D01*
X061407Y018147D02*
X059843Y018147D01*
X059843Y018049D02*
X061309Y018049D01*
X061210Y017950D02*
X059843Y017950D01*
X059843Y017852D02*
X061112Y017852D01*
X061013Y017753D02*
X059843Y017753D01*
X059843Y017655D02*
X060915Y017655D01*
X060816Y017556D02*
X059843Y017556D01*
X059843Y017458D02*
X060718Y017458D01*
X061770Y016473D02*
X062523Y016473D01*
X062523Y016374D02*
X061770Y016374D01*
X061770Y016276D02*
X062523Y016276D01*
X062523Y016177D02*
X061770Y016177D01*
X061770Y016079D02*
X062523Y016079D01*
X062523Y015980D02*
X061770Y015980D01*
X062474Y015882D02*
X062523Y015882D01*
X062518Y015783D02*
X062523Y015783D01*
X062518Y015685D02*
X062523Y015685D01*
X062518Y015586D02*
X062567Y015586D01*
X063168Y016247D02*
X063269Y016247D01*
X063297Y016768D02*
X064449Y016768D01*
X064638Y016867D02*
X063198Y016867D01*
X064818Y017732D02*
X064818Y017922D01*
X064768Y017972D01*
X064698Y017972D01*
X064688Y017982D01*
X064443Y017982D01*
X064443Y018012D01*
X064688Y018012D01*
X064698Y018022D01*
X065518Y018022D01*
X065768Y018272D01*
X067343Y018272D01*
X067343Y016972D01*
X065618Y016972D01*
X065618Y017622D01*
X065464Y017622D01*
X065395Y017690D01*
X065214Y017690D01*
X065209Y017695D01*
X065121Y017732D01*
X064818Y017732D01*
X064818Y017753D02*
X067343Y017753D01*
X067343Y017655D02*
X065431Y017655D01*
X065618Y017556D02*
X067343Y017556D01*
X067343Y017458D02*
X065618Y017458D01*
X065618Y017359D02*
X067343Y017359D01*
X067343Y017261D02*
X065618Y017261D01*
X065618Y017162D02*
X067343Y017162D01*
X067343Y017064D02*
X065618Y017064D01*
X065318Y017222D02*
X065218Y017322D01*
X065318Y017222D02*
X065318Y015097D01*
X064818Y014597D01*
X066743Y015197D02*
X066743Y013372D01*
X067093Y013022D01*
X067643Y013022D01*
X069734Y013518D02*
X071080Y013518D01*
X071080Y013419D02*
X069813Y013419D01*
X069813Y013321D02*
X071080Y013321D01*
X069803Y013749D02*
X069813Y013787D01*
X069803Y013749D02*
X069783Y013715D01*
X071713Y014010D02*
X073024Y014010D01*
X073024Y015094D02*
X069813Y015094D01*
X069813Y015192D02*
X073024Y015192D01*
X073024Y015291D02*
X069781Y015291D01*
X068718Y015389D02*
X073024Y015389D01*
X073024Y015488D02*
X068718Y015488D01*
X068718Y015586D02*
X073024Y015586D01*
X073024Y015685D02*
X068718Y015685D01*
X068718Y015783D02*
X073024Y015783D01*
X073024Y015882D02*
X068718Y015882D01*
X068718Y015980D02*
X073024Y015980D01*
X073024Y016079D02*
X068718Y016079D01*
X068718Y016177D02*
X073024Y016177D01*
X073024Y016276D02*
X068718Y016276D01*
X068718Y016374D02*
X073024Y016374D01*
X072142Y016473D02*
X070390Y016473D01*
X070384Y016463D02*
X070404Y016497D01*
X070414Y016535D01*
X070414Y016997D01*
X069960Y016997D01*
X069960Y017097D01*
X070414Y017097D01*
X070414Y017559D01*
X070404Y017597D01*
X070384Y017631D01*
X070356Y017659D01*
X070322Y017679D01*
X070284Y017689D01*
X069960Y017689D01*
X069960Y017097D01*
X069860Y017097D01*
X069860Y017689D01*
X069536Y017689D01*
X069497Y017679D01*
X069463Y017659D01*
X069435Y017631D01*
X069416Y017597D01*
X069405Y017559D01*
X069405Y017097D01*
X069860Y017097D01*
X069860Y016997D01*
X069960Y016997D01*
X069960Y016405D01*
X070284Y016405D01*
X070322Y016415D01*
X070356Y016435D01*
X070384Y016463D01*
X070414Y016571D02*
X072122Y016571D01*
X072122Y016670D02*
X070414Y016670D01*
X070414Y016768D02*
X072122Y016768D01*
X072122Y016867D02*
X070414Y016867D01*
X070414Y016965D02*
X072122Y016965D01*
X072122Y017064D02*
X069960Y017064D01*
X069960Y017162D02*
X069860Y017162D01*
X069860Y017064D02*
X068718Y017064D01*
X068718Y017162D02*
X069405Y017162D01*
X069405Y017261D02*
X068718Y017261D01*
X068718Y017359D02*
X069405Y017359D01*
X069405Y017458D02*
X068718Y017458D01*
X068718Y017556D02*
X069405Y017556D01*
X069459Y017655D02*
X068718Y017655D01*
X068718Y017753D02*
X072348Y017753D01*
X072348Y017852D02*
X068718Y017852D01*
X068718Y017950D02*
X072348Y017950D01*
X072348Y018049D02*
X068718Y018049D01*
X068718Y018147D02*
X072348Y018147D01*
X072348Y018246D02*
X068718Y018246D01*
X068718Y018344D02*
X072348Y018344D01*
X072348Y018443D02*
X068718Y018443D01*
X068718Y018541D02*
X072348Y018541D01*
X072348Y018640D02*
X072072Y018640D01*
X072142Y018738D02*
X072348Y018738D01*
X072348Y018837D02*
X072142Y018837D01*
X072142Y018935D02*
X072348Y018935D01*
X072348Y019034D02*
X072142Y019034D01*
X072142Y019132D02*
X072348Y019132D01*
X072348Y019231D02*
X072142Y019231D01*
X071290Y019231D02*
X070646Y019231D01*
X070646Y019132D02*
X071290Y019132D01*
X071290Y019034D02*
X070270Y019034D01*
X070270Y018997D02*
X070646Y018997D01*
X070646Y018752D01*
X070635Y018713D01*
X070616Y018679D01*
X070588Y018651D01*
X070553Y018631D01*
X070515Y018621D01*
X070270Y018621D01*
X070270Y018997D01*
X070270Y018935D02*
X070170Y018935D01*
X070170Y018837D02*
X070270Y018837D01*
X070270Y018738D02*
X070170Y018738D01*
X070170Y018640D02*
X070270Y018640D01*
X070568Y018640D02*
X071360Y018640D01*
X071290Y018738D02*
X070642Y018738D01*
X070646Y018837D02*
X071290Y018837D01*
X071290Y018935D02*
X070646Y018935D01*
X070170Y019034D02*
X068718Y019034D01*
X068718Y019132D02*
X069794Y019132D01*
X069794Y019231D02*
X068718Y019231D01*
X068718Y018935D02*
X069794Y018935D01*
X069794Y018837D02*
X068718Y018837D01*
X068718Y018738D02*
X069798Y018738D01*
X069872Y018640D02*
X068718Y018640D01*
X067343Y018246D02*
X065742Y018246D01*
X065644Y018147D02*
X067343Y018147D01*
X067343Y018049D02*
X065545Y018049D01*
X065516Y018344D02*
X064313Y018344D01*
X064313Y018443D02*
X065614Y018443D01*
X065713Y018541D02*
X064888Y018541D01*
X064986Y018640D02*
X065811Y018640D01*
X065910Y018738D02*
X065068Y018738D01*
X065068Y018837D02*
X066008Y018837D01*
X066443Y018935D02*
X065068Y018935D01*
X065068Y019034D02*
X066443Y019034D01*
X066443Y019132D02*
X065068Y019132D01*
X065068Y019231D02*
X066443Y019231D01*
X066443Y019329D02*
X065068Y019329D01*
X065068Y019428D02*
X066443Y019428D01*
X066443Y019526D02*
X065068Y019526D01*
X065068Y019625D02*
X066443Y019625D01*
X066443Y019723D02*
X065068Y019723D01*
X065068Y019822D02*
X066443Y019822D01*
X066443Y019920D02*
X065068Y019920D01*
X065068Y020019D02*
X066443Y020019D01*
X066443Y020117D02*
X065068Y020117D01*
X065068Y020216D02*
X067318Y020216D01*
X067318Y020314D02*
X065068Y020314D01*
X065002Y020413D02*
X067318Y020413D01*
X067318Y020511D02*
X063393Y020511D01*
X063393Y020610D02*
X067318Y020610D01*
X067318Y020708D02*
X063393Y020708D01*
X063393Y020807D02*
X067318Y020807D01*
X067318Y020905D02*
X063393Y020905D01*
X063393Y021004D02*
X067318Y021004D01*
X067318Y021102D02*
X063393Y021102D01*
X063393Y021201D02*
X067318Y021201D01*
X067318Y021299D02*
X063393Y021299D01*
X063393Y021398D02*
X067318Y021398D01*
X067318Y021496D02*
X063393Y021496D01*
X063393Y021595D02*
X067318Y021595D01*
X067318Y021693D02*
X063393Y021693D01*
X063393Y021792D02*
X067318Y021792D01*
X067318Y021890D02*
X063393Y021890D01*
X063393Y021989D02*
X067318Y021989D01*
X067318Y022087D02*
X063393Y022087D01*
X063393Y022186D02*
X067318Y022186D01*
X067318Y022284D02*
X063393Y022284D01*
X062893Y022284D02*
X059655Y022284D01*
X059643Y022383D02*
X062893Y022383D01*
X062893Y022481D02*
X059643Y022481D01*
X059643Y022580D02*
X062893Y022580D01*
X062893Y022678D02*
X059643Y022678D01*
X059643Y022777D02*
X062893Y022777D01*
X062893Y022875D02*
X059643Y022875D01*
X059643Y022974D02*
X062893Y022974D01*
X062893Y023072D02*
X059643Y023072D01*
X059643Y023171D02*
X062893Y023171D01*
X062893Y023269D02*
X059643Y023269D01*
X059643Y023368D02*
X062893Y023368D01*
X062893Y023466D02*
X059643Y023466D01*
X059643Y023565D02*
X062893Y023565D01*
X062893Y023663D02*
X059643Y023663D01*
X059643Y023762D02*
X062893Y023762D01*
X062893Y023860D02*
X059643Y023860D01*
X059643Y023959D02*
X062893Y023959D01*
X062893Y024057D02*
X059643Y024057D01*
X059643Y024156D02*
X062893Y024156D01*
X062893Y024254D02*
X059643Y024254D01*
X059643Y024353D02*
X062893Y024353D01*
X062893Y024451D02*
X059643Y024451D01*
X059643Y024550D02*
X062893Y024550D01*
X062893Y024648D02*
X059643Y024648D01*
X059643Y024747D02*
X062893Y024747D01*
X062893Y024845D02*
X059643Y024845D01*
X059643Y024944D02*
X062893Y024944D01*
X062893Y025042D02*
X059643Y025042D01*
X059643Y025141D02*
X062893Y025141D01*
X062893Y025239D02*
X059643Y025239D01*
X059643Y025338D02*
X062934Y025338D01*
X063033Y025436D02*
X059643Y025436D01*
X059643Y025535D02*
X063131Y025535D01*
X063230Y025633D02*
X059730Y025633D01*
X059893Y026772D02*
X057043Y026772D01*
X056268Y027547D01*
X052393Y027547D01*
X052393Y031422D01*
X053018Y032047D01*
X053333Y032047D01*
X053333Y032039D01*
X053700Y032039D01*
X053700Y031954D01*
X053333Y031954D01*
X053333Y031792D01*
X053343Y031754D01*
X053363Y031720D01*
X053391Y031692D01*
X053425Y031672D01*
X053463Y031662D01*
X053700Y031662D01*
X053700Y031954D01*
X053785Y031954D01*
X053785Y031662D01*
X054023Y031662D01*
X054061Y031672D01*
X054095Y031692D01*
X054123Y031720D01*
X054143Y031754D01*
X054153Y031792D01*
X054153Y031797D01*
X054873Y031797D01*
X054903Y031827D01*
X055101Y031827D01*
X055101Y031670D01*
X055163Y031608D01*
X055151Y031596D01*
X055131Y031562D01*
X055121Y031523D01*
X055121Y031336D01*
X055420Y031336D01*
X055420Y031239D01*
X055516Y031239D01*
X055516Y030921D01*
X055685Y030921D01*
X055723Y030931D01*
X055757Y030951D01*
X055785Y030979D01*
X055805Y031013D01*
X055815Y031051D01*
X055815Y031239D01*
X055516Y031239D01*
X055516Y031336D01*
X055815Y031336D01*
X055815Y031523D01*
X055805Y031562D01*
X055785Y031596D01*
X055773Y031608D01*
X055835Y031670D01*
X055835Y032035D01*
X056355Y032555D01*
X056433Y032555D01*
X056433Y031908D01*
X056416Y031908D01*
X056316Y031809D01*
X056316Y031235D01*
X056416Y031135D01*
X056951Y031135D01*
X057018Y031203D01*
X057085Y031135D01*
X057620Y031135D01*
X057719Y031235D01*
X057719Y031272D01*
X058726Y031272D01*
X058726Y031245D01*
X058788Y031183D01*
X058776Y031171D01*
X058756Y031137D01*
X058746Y031098D01*
X058746Y030911D01*
X059045Y030911D01*
X059045Y030814D01*
X058746Y030814D01*
X058746Y030647D01*
X058665Y030647D01*
X058665Y030808D01*
X058366Y030808D01*
X058366Y030905D01*
X058270Y030905D01*
X058270Y031223D01*
X058101Y031223D01*
X058063Y031213D01*
X058029Y031193D01*
X058001Y031165D01*
X057981Y031131D01*
X057971Y031093D01*
X057971Y030905D01*
X058270Y030905D01*
X058270Y030808D01*
X057971Y030808D01*
X057971Y030620D01*
X057981Y030582D01*
X058001Y030548D01*
X058013Y030536D01*
X057951Y030474D01*
X057951Y029900D01*
X058051Y029801D01*
X058585Y029801D01*
X058685Y029900D01*
X058685Y030147D01*
X059603Y030147D01*
X059533Y030077D01*
X059533Y029716D01*
X059603Y029647D01*
X059533Y029577D01*
X059533Y029216D01*
X059603Y029147D01*
X059603Y029147D01*
X059418Y029147D01*
X059418Y029413D01*
X059318Y029512D01*
X058666Y029512D01*
X058618Y029464D01*
X058570Y029512D01*
X057918Y029512D01*
X057818Y029413D01*
X057818Y029033D01*
X057527Y028742D01*
X055659Y028742D01*
X054788Y029613D01*
X054788Y030282D01*
X054536Y030533D01*
X054551Y030568D01*
X054551Y030747D01*
X054549Y030752D01*
X054705Y030908D01*
X054743Y031000D01*
X054743Y031037D01*
X054873Y031037D01*
X054973Y031136D01*
X054973Y031497D01*
X054873Y031597D01*
X053363Y031597D01*
X053263Y031497D01*
X053263Y031136D01*
X053352Y031047D01*
X053206Y031108D01*
X053027Y031108D01*
X052862Y031039D01*
X052735Y030913D01*
X052667Y030747D01*
X052667Y030568D01*
X052735Y030403D01*
X052862Y030276D01*
X053027Y030208D01*
X053206Y030208D01*
X053368Y030275D01*
X053368Y029831D01*
X053406Y029739D01*
X053653Y029492D01*
X053651Y029488D01*
X053651Y029309D01*
X053719Y029143D01*
X053846Y029017D01*
X054011Y028948D01*
X054190Y028948D01*
X054225Y028962D01*
X055007Y028181D01*
X055007Y028181D01*
X055136Y028052D01*
X057818Y028052D01*
X057818Y027906D01*
X057918Y027807D01*
X057957Y027807D01*
X057750Y027599D01*
X057750Y027294D01*
X057966Y027079D01*
X058223Y027079D01*
X058241Y027060D01*
X058776Y027060D01*
X058858Y027143D01*
X058861Y027138D01*
X058889Y027110D01*
X058923Y027091D01*
X058961Y027080D01*
X059129Y027080D01*
X059129Y027398D01*
X059226Y027398D01*
X059226Y027080D01*
X059394Y027080D01*
X059432Y027091D01*
X059467Y027110D01*
X059495Y027138D01*
X059514Y027172D01*
X059524Y027211D01*
X059524Y027398D01*
X059226Y027398D01*
X059226Y027495D01*
X059524Y027495D01*
X059524Y027683D01*
X059514Y027721D01*
X059495Y027755D01*
X059467Y027783D01*
X059432Y027803D01*
X059394Y027813D01*
X059325Y027813D01*
X059418Y027906D01*
X059418Y028147D01*
X059603Y028147D01*
X059618Y028131D01*
X059611Y028127D01*
X059583Y028099D01*
X059563Y028065D01*
X059553Y028027D01*
X059553Y027902D01*
X060088Y027902D01*
X060088Y027892D01*
X059553Y027892D01*
X059553Y027767D01*
X059563Y027729D01*
X059583Y027695D01*
X059611Y027667D01*
X059645Y027647D01*
X059683Y027637D01*
X060088Y027637D01*
X060088Y027892D01*
X060098Y027892D01*
X060098Y027902D01*
X060633Y027902D01*
X060633Y028027D01*
X060623Y028065D01*
X060603Y028099D01*
X060575Y028127D01*
X060568Y028131D01*
X060653Y028216D01*
X060653Y028577D01*
X060583Y028647D01*
X060653Y028716D01*
X060653Y029077D01*
X060583Y029147D01*
X060653Y029216D01*
X060653Y029577D01*
X060583Y029647D01*
X060653Y029716D01*
X060653Y030077D01*
X060583Y030147D01*
X060653Y030216D01*
X060653Y030577D01*
X060568Y030663D01*
X060575Y030667D01*
X060603Y030695D01*
X060623Y030729D01*
X060633Y030767D01*
X060633Y030892D01*
X060098Y030892D01*
X060098Y030902D01*
X060633Y030902D01*
X060633Y031027D01*
X060623Y031065D01*
X060603Y031099D01*
X060575Y031127D01*
X060568Y031131D01*
X060653Y031216D01*
X060653Y031577D01*
X060553Y031677D01*
X059633Y031677D01*
X059603Y031647D01*
X059460Y031647D01*
X059460Y031818D01*
X059360Y031918D01*
X058826Y031918D01*
X058726Y031818D01*
X058726Y031772D01*
X057719Y031772D01*
X057719Y031809D01*
X057620Y031908D01*
X057085Y031908D01*
X057018Y031841D01*
X056951Y031908D01*
X056933Y031908D01*
X056933Y032827D01*
X056935Y032828D01*
X056935Y033215D01*
X056661Y033489D01*
X056275Y033489D01*
X056001Y033215D01*
X056001Y032909D01*
X055643Y032550D01*
X055643Y033672D01*
X061018Y033672D01*
X061018Y027897D01*
X059893Y026772D01*
X059937Y026815D02*
X056999Y026815D01*
X056901Y026914D02*
X060035Y026914D01*
X060134Y027012D02*
X056802Y027012D01*
X056704Y027111D02*
X057933Y027111D01*
X057835Y027209D02*
X056605Y027209D01*
X056507Y027308D02*
X057750Y027308D01*
X057750Y027406D02*
X056408Y027406D01*
X056310Y027505D02*
X057750Y027505D01*
X057754Y027603D02*
X052393Y027603D01*
X052393Y027702D02*
X057852Y027702D01*
X057951Y027800D02*
X052393Y027800D01*
X052393Y027899D02*
X057825Y027899D01*
X057818Y027997D02*
X052393Y027997D01*
X052393Y028096D02*
X055092Y028096D01*
X054993Y028194D02*
X052393Y028194D01*
X052393Y028293D02*
X054895Y028293D01*
X054796Y028391D02*
X052393Y028391D01*
X052393Y028490D02*
X054698Y028490D01*
X054599Y028588D02*
X052393Y028588D01*
X052393Y028687D02*
X054501Y028687D01*
X054402Y028785D02*
X052393Y028785D01*
X052393Y028884D02*
X054304Y028884D01*
X053928Y028982D02*
X053229Y028982D01*
X053217Y028979D02*
X053282Y029000D01*
X053342Y029030D01*
X053397Y029070D01*
X053445Y029118D01*
X053484Y029173D01*
X053515Y029233D01*
X053536Y029297D01*
X053546Y029359D01*
X053155Y029359D01*
X053155Y028969D01*
X053217Y028979D01*
X053155Y028982D02*
X053078Y028982D01*
X053078Y028969D02*
X053078Y029359D01*
X053155Y029359D01*
X053155Y029437D01*
X053078Y029437D01*
X053078Y029827D01*
X053016Y029817D01*
X052952Y029797D01*
X052891Y029766D01*
X052836Y029726D01*
X052789Y029678D01*
X052749Y029623D01*
X052718Y029563D01*
X052697Y029499D01*
X052687Y029437D01*
X053078Y029437D01*
X053078Y029359D01*
X052687Y029359D01*
X052697Y029297D01*
X052718Y029233D01*
X052749Y029173D01*
X052789Y029118D01*
X052836Y029070D01*
X052891Y029030D01*
X052952Y029000D01*
X053016Y028979D01*
X053078Y028969D01*
X053004Y028982D02*
X052393Y028982D01*
X052393Y029081D02*
X052826Y029081D01*
X052745Y029179D02*
X052393Y029179D01*
X052393Y029278D02*
X052704Y029278D01*
X052693Y029475D02*
X052393Y029475D01*
X052393Y029573D02*
X052723Y029573D01*
X052784Y029672D02*
X052393Y029672D01*
X052393Y029770D02*
X052900Y029770D01*
X053078Y029770D02*
X053155Y029770D01*
X053155Y029827D02*
X053155Y029437D01*
X053546Y029437D01*
X053536Y029499D01*
X053515Y029563D01*
X053484Y029623D01*
X053445Y029678D01*
X053397Y029726D01*
X053342Y029766D01*
X053282Y029797D01*
X053217Y029817D01*
X053155Y029827D01*
X053155Y029672D02*
X053078Y029672D01*
X053078Y029573D02*
X053155Y029573D01*
X053155Y029475D02*
X053078Y029475D01*
X053078Y029376D02*
X052393Y029376D01*
X053078Y029278D02*
X053155Y029278D01*
X053155Y029376D02*
X053651Y029376D01*
X053664Y029278D02*
X053530Y029278D01*
X053488Y029179D02*
X053704Y029179D01*
X053782Y029081D02*
X053408Y029081D01*
X053155Y029081D02*
X053078Y029081D01*
X053078Y029179D02*
X053155Y029179D01*
X053540Y029475D02*
X053651Y029475D01*
X053572Y029573D02*
X053510Y029573D01*
X053473Y029672D02*
X053449Y029672D01*
X053393Y029770D02*
X053333Y029770D01*
X053368Y029869D02*
X052393Y029869D01*
X052393Y029967D02*
X053368Y029967D01*
X053368Y030066D02*
X052393Y030066D01*
X052393Y030164D02*
X053368Y030164D01*
X053368Y030263D02*
X053339Y030263D01*
X052894Y030263D02*
X052393Y030263D01*
X052393Y030361D02*
X052777Y030361D01*
X052712Y030460D02*
X052393Y030460D01*
X052393Y030558D02*
X052671Y030558D01*
X052667Y030657D02*
X052393Y030657D01*
X052393Y030755D02*
X052670Y030755D01*
X052711Y030854D02*
X052393Y030854D01*
X052393Y030952D02*
X052775Y030952D01*
X052890Y031051D02*
X052393Y031051D01*
X052393Y031149D02*
X053263Y031149D01*
X053263Y031248D02*
X052393Y031248D01*
X052393Y031346D02*
X053263Y031346D01*
X053263Y031445D02*
X052416Y031445D01*
X052515Y031543D02*
X053309Y031543D01*
X053351Y031740D02*
X052712Y031740D01*
X052810Y031839D02*
X053333Y031839D01*
X053333Y031937D02*
X052909Y031937D01*
X053007Y032036D02*
X053700Y032036D01*
X053700Y031937D02*
X053785Y031937D01*
X053785Y031839D02*
X053700Y031839D01*
X053700Y031740D02*
X053785Y031740D01*
X054135Y031740D02*
X055101Y031740D01*
X055129Y031642D02*
X052613Y031642D01*
X052318Y031872D02*
X050843Y031872D01*
X050343Y031372D01*
X050343Y029897D01*
X047843Y027397D01*
X042693Y027397D01*
X042193Y027897D01*
X046163Y027903D02*
X046424Y027903D01*
X047643Y029122D01*
X047643Y031322D01*
X048543Y032222D01*
X052343Y032222D01*
X053143Y033022D01*
X053468Y033022D01*
X054193Y032547D02*
X054468Y032822D01*
X054468Y033022D01*
X055643Y033021D02*
X056001Y033021D01*
X056001Y033119D02*
X055643Y033119D01*
X055643Y033218D02*
X056004Y033218D01*
X056102Y033316D02*
X055643Y033316D01*
X055643Y033415D02*
X056201Y033415D01*
X056735Y033415D02*
X057201Y033415D01*
X057275Y033489D02*
X057001Y033215D01*
X057001Y032828D01*
X057275Y032555D01*
X057661Y032555D01*
X057935Y032828D01*
X057935Y033215D01*
X057661Y033489D01*
X057275Y033489D01*
X057102Y033316D02*
X056834Y033316D01*
X056932Y033218D02*
X057004Y033218D01*
X057001Y033119D02*
X056935Y033119D01*
X056935Y033021D02*
X057001Y033021D01*
X057001Y032922D02*
X056935Y032922D01*
X056933Y032824D02*
X057006Y032824D01*
X056933Y032725D02*
X057104Y032725D01*
X057203Y032627D02*
X056933Y032627D01*
X056933Y032528D02*
X061018Y032528D01*
X061018Y032430D02*
X056933Y032430D01*
X056933Y032331D02*
X061018Y032331D01*
X061018Y032233D02*
X056933Y032233D01*
X056933Y032134D02*
X061018Y032134D01*
X061018Y032036D02*
X056933Y032036D01*
X056933Y031937D02*
X061018Y031937D01*
X061018Y031839D02*
X059439Y031839D01*
X059460Y031740D02*
X061018Y031740D01*
X061018Y031642D02*
X060588Y031642D01*
X060653Y031543D02*
X061018Y031543D01*
X061018Y031445D02*
X060653Y031445D01*
X060653Y031346D02*
X061018Y031346D01*
X061018Y031248D02*
X060653Y031248D01*
X060586Y031149D02*
X061018Y031149D01*
X061018Y031051D02*
X060626Y031051D01*
X060633Y030952D02*
X061018Y030952D01*
X061018Y030854D02*
X060633Y030854D01*
X060630Y030755D02*
X061018Y030755D01*
X061018Y030657D02*
X060573Y030657D01*
X060653Y030558D02*
X061018Y030558D01*
X061018Y030460D02*
X060653Y030460D01*
X060653Y030361D02*
X061018Y030361D01*
X061018Y030263D02*
X060653Y030263D01*
X060601Y030164D02*
X061018Y030164D01*
X061018Y030066D02*
X060653Y030066D01*
X060653Y029967D02*
X061018Y029967D01*
X061018Y029869D02*
X060653Y029869D01*
X060653Y029770D02*
X061018Y029770D01*
X061018Y029672D02*
X060608Y029672D01*
X060653Y029573D02*
X061018Y029573D01*
X061018Y029475D02*
X060653Y029475D01*
X060653Y029376D02*
X061018Y029376D01*
X061018Y029278D02*
X060653Y029278D01*
X060616Y029179D02*
X061018Y029179D01*
X061018Y029081D02*
X060649Y029081D01*
X060653Y028982D02*
X061018Y028982D01*
X061018Y028884D02*
X060653Y028884D01*
X060653Y028785D02*
X061018Y028785D01*
X061018Y028687D02*
X060623Y028687D01*
X060642Y028588D02*
X061018Y028588D01*
X061018Y028490D02*
X060653Y028490D01*
X060653Y028391D02*
X061018Y028391D01*
X061018Y028293D02*
X060653Y028293D01*
X060631Y028194D02*
X061018Y028194D01*
X061018Y028096D02*
X060605Y028096D01*
X060633Y027997D02*
X061018Y027997D01*
X061018Y027899D02*
X060098Y027899D01*
X060098Y027892D02*
X060633Y027892D01*
X060633Y027767D01*
X060623Y027729D01*
X060603Y027695D01*
X060575Y027667D01*
X060541Y027647D01*
X060503Y027637D01*
X060098Y027637D01*
X060098Y027892D01*
X060088Y027899D02*
X059411Y027899D01*
X059418Y027997D02*
X059553Y027997D01*
X059581Y028096D02*
X059418Y028096D01*
X059437Y027800D02*
X059553Y027800D01*
X059579Y027702D02*
X059519Y027702D01*
X059524Y027603D02*
X060725Y027603D01*
X060823Y027702D02*
X060607Y027702D01*
X060633Y027800D02*
X060922Y027800D01*
X060626Y027505D02*
X059524Y027505D01*
X059524Y027308D02*
X060429Y027308D01*
X060528Y027406D02*
X059226Y027406D01*
X059226Y027308D02*
X059129Y027308D01*
X059129Y027209D02*
X059226Y027209D01*
X059226Y027111D02*
X059129Y027111D01*
X058888Y027111D02*
X058826Y027111D01*
X059467Y027111D02*
X060232Y027111D01*
X060331Y027209D02*
X059524Y027209D01*
X060088Y027702D02*
X060098Y027702D01*
X060088Y027800D02*
X060098Y027800D01*
X058244Y028272D02*
X055227Y028272D01*
X054101Y029398D01*
X054568Y029522D02*
X054568Y030191D01*
X054101Y030658D01*
X054551Y030657D02*
X057971Y030657D01*
X057971Y030755D02*
X054552Y030755D01*
X054650Y030854D02*
X058270Y030854D01*
X058366Y030854D02*
X059045Y030854D01*
X059141Y030854D02*
X059553Y030854D01*
X059553Y030892D02*
X059553Y030767D01*
X059563Y030729D01*
X059583Y030695D01*
X059611Y030667D01*
X059618Y030663D01*
X059603Y030647D01*
X059440Y030647D01*
X059440Y030814D01*
X059141Y030814D01*
X059141Y030911D01*
X059440Y030911D01*
X059440Y031098D01*
X059430Y031137D01*
X059424Y031147D01*
X059603Y031147D01*
X059618Y031131D01*
X059611Y031127D01*
X059583Y031099D01*
X059563Y031065D01*
X059553Y031027D01*
X059553Y030902D01*
X060088Y030902D01*
X060088Y030892D01*
X059553Y030892D01*
X059553Y030952D02*
X059440Y030952D01*
X059440Y031051D02*
X059559Y031051D01*
X059556Y030755D02*
X059440Y030755D01*
X059440Y030657D02*
X059613Y030657D01*
X058746Y030657D02*
X058665Y030657D01*
X058665Y030755D02*
X058746Y030755D01*
X058665Y030905D02*
X058665Y031093D01*
X058655Y031131D01*
X058635Y031165D01*
X058607Y031193D01*
X058573Y031213D01*
X058535Y031223D01*
X058366Y031223D01*
X058366Y030905D01*
X058665Y030905D01*
X058665Y030952D02*
X058746Y030952D01*
X058746Y031051D02*
X058665Y031051D01*
X058644Y031149D02*
X058764Y031149D01*
X058726Y031248D02*
X057719Y031248D01*
X057634Y031149D02*
X057992Y031149D01*
X057971Y031051D02*
X055815Y031051D01*
X055815Y031149D02*
X056402Y031149D01*
X056316Y031248D02*
X055516Y031248D01*
X055420Y031248D02*
X054973Y031248D01*
X054973Y031346D02*
X055121Y031346D01*
X055121Y031445D02*
X054973Y031445D01*
X054927Y031543D02*
X055126Y031543D01*
X055121Y031239D02*
X055121Y031051D01*
X055131Y031013D01*
X055151Y030979D01*
X055179Y030951D01*
X055213Y030931D01*
X055251Y030921D01*
X055420Y030921D01*
X055420Y031239D01*
X055121Y031239D01*
X055121Y031149D02*
X054973Y031149D01*
X054887Y031051D02*
X055121Y031051D01*
X055177Y030952D02*
X054723Y030952D01*
X054547Y030558D02*
X057995Y030558D01*
X057951Y030460D02*
X054610Y030460D01*
X054708Y030361D02*
X055679Y030361D01*
X055815Y030418D02*
X055513Y030292D01*
X055281Y030061D01*
X055156Y029759D01*
X055156Y029431D01*
X055281Y029129D01*
X055513Y028897D01*
X055815Y028772D01*
X056142Y028772D01*
X056445Y028897D01*
X056676Y029129D01*
X056802Y029431D01*
X056802Y029759D01*
X056676Y030061D01*
X056445Y030292D01*
X056142Y030418D01*
X055815Y030418D01*
X055483Y030263D02*
X054788Y030263D01*
X054788Y030164D02*
X055385Y030164D01*
X055286Y030066D02*
X054788Y030066D01*
X054788Y029967D02*
X055243Y029967D01*
X055202Y029869D02*
X054788Y029869D01*
X054788Y029770D02*
X055161Y029770D01*
X055156Y029672D02*
X054788Y029672D01*
X054828Y029573D02*
X055156Y029573D01*
X055156Y029475D02*
X054926Y029475D01*
X055025Y029376D02*
X055179Y029376D01*
X055220Y029278D02*
X055123Y029278D01*
X055222Y029179D02*
X055260Y029179D01*
X055320Y029081D02*
X055329Y029081D01*
X055419Y028982D02*
X055428Y028982D01*
X055517Y028884D02*
X055545Y028884D01*
X055616Y028785D02*
X055783Y028785D01*
X055568Y028522D02*
X057618Y028522D01*
X058093Y028997D01*
X058093Y029047D01*
X058244Y029047D01*
X057818Y029081D02*
X056628Y029081D01*
X056697Y029179D02*
X057818Y029179D01*
X057818Y029278D02*
X056738Y029278D01*
X056779Y029376D02*
X057818Y029376D01*
X057880Y029475D02*
X056802Y029475D01*
X056802Y029573D02*
X059533Y029573D01*
X059533Y029475D02*
X059356Y029475D01*
X059418Y029376D02*
X059533Y029376D01*
X059533Y029278D02*
X059418Y029278D01*
X059418Y029179D02*
X059570Y029179D01*
X059578Y029672D02*
X056802Y029672D01*
X056797Y029770D02*
X059533Y029770D01*
X059533Y029869D02*
X058653Y029869D01*
X058685Y029967D02*
X059533Y029967D01*
X059533Y030066D02*
X058685Y030066D01*
X058628Y029475D02*
X058607Y029475D01*
X057982Y029869D02*
X056756Y029869D01*
X056715Y029967D02*
X057951Y029967D01*
X057951Y030066D02*
X056671Y030066D01*
X056573Y030164D02*
X057951Y030164D01*
X057951Y030263D02*
X056474Y030263D01*
X056278Y030361D02*
X057951Y030361D01*
X057971Y030952D02*
X055759Y030952D01*
X055516Y030952D02*
X055420Y030952D01*
X055420Y031051D02*
X055516Y031051D01*
X055516Y031149D02*
X055420Y031149D01*
X055815Y031346D02*
X056316Y031346D01*
X056316Y031445D02*
X055815Y031445D01*
X055809Y031543D02*
X056316Y031543D01*
X056316Y031642D02*
X055807Y031642D01*
X055835Y031740D02*
X056316Y031740D01*
X056347Y031839D02*
X055835Y031839D01*
X055835Y031937D02*
X056433Y031937D01*
X056433Y032036D02*
X055836Y032036D01*
X055934Y032134D02*
X056433Y032134D01*
X056433Y032233D02*
X056033Y032233D01*
X056131Y032331D02*
X056433Y032331D01*
X056433Y032430D02*
X056230Y032430D01*
X056328Y032528D02*
X056433Y032528D01*
X056001Y032922D02*
X055643Y032922D01*
X055643Y032824D02*
X055916Y032824D01*
X055818Y032725D02*
X055643Y032725D01*
X055643Y032627D02*
X055719Y032627D01*
X057733Y032627D02*
X058203Y032627D01*
X058275Y032555D02*
X058001Y032828D01*
X058001Y033215D01*
X058275Y033489D01*
X058661Y033489D01*
X058935Y033215D01*
X058935Y032828D01*
X058661Y032555D01*
X058275Y032555D01*
X058104Y032725D02*
X057832Y032725D01*
X057930Y032824D02*
X058006Y032824D01*
X058001Y032922D02*
X057935Y032922D01*
X057935Y033021D02*
X058001Y033021D01*
X058001Y033119D02*
X057935Y033119D01*
X057932Y033218D02*
X058004Y033218D01*
X058102Y033316D02*
X057834Y033316D01*
X057735Y033415D02*
X058201Y033415D01*
X058735Y033415D02*
X059229Y033415D01*
X059283Y033469D02*
X059021Y033207D01*
X059021Y033070D01*
X059420Y033070D01*
X059420Y033469D01*
X059283Y033469D01*
X059420Y033415D02*
X059516Y033415D01*
X059516Y033469D02*
X059653Y033469D01*
X059915Y033207D01*
X059915Y033070D01*
X059516Y033070D01*
X059420Y033070D01*
X059420Y032973D01*
X059516Y032973D01*
X059516Y032575D01*
X059653Y032575D01*
X059915Y032837D01*
X059915Y032973D01*
X059516Y032973D01*
X059516Y033070D01*
X059516Y033469D01*
X059516Y033316D02*
X059420Y033316D01*
X059420Y033218D02*
X059516Y033218D01*
X059516Y033119D02*
X059420Y033119D01*
X059420Y033021D02*
X058935Y033021D01*
X059021Y032973D02*
X059021Y032837D01*
X059283Y032575D01*
X059420Y032575D01*
X059420Y032973D01*
X059021Y032973D01*
X059021Y032922D02*
X058935Y032922D01*
X058930Y032824D02*
X059034Y032824D01*
X059132Y032725D02*
X058832Y032725D01*
X058733Y032627D02*
X059231Y032627D01*
X059420Y032627D02*
X059516Y032627D01*
X059516Y032725D02*
X059420Y032725D01*
X059420Y032824D02*
X059516Y032824D01*
X059516Y032922D02*
X059420Y032922D01*
X059516Y033021D02*
X060001Y033021D01*
X060001Y033119D02*
X059915Y033119D01*
X059904Y033218D02*
X060004Y033218D01*
X060001Y033215D02*
X060001Y032828D01*
X060275Y032555D01*
X060661Y032555D01*
X060935Y032828D01*
X060935Y033215D01*
X060661Y033489D01*
X060275Y033489D01*
X060001Y033215D01*
X060102Y033316D02*
X059805Y033316D01*
X059707Y033415D02*
X060201Y033415D01*
X060735Y033415D02*
X061018Y033415D01*
X061018Y033513D02*
X055643Y033513D01*
X055643Y033612D02*
X061018Y033612D01*
X061018Y033316D02*
X060834Y033316D01*
X060932Y033218D02*
X061018Y033218D01*
X061018Y033119D02*
X060935Y033119D01*
X060935Y033021D02*
X061018Y033021D01*
X061018Y032922D02*
X060935Y032922D01*
X060930Y032824D02*
X061018Y032824D01*
X061018Y032725D02*
X060832Y032725D01*
X060733Y032627D02*
X061018Y032627D01*
X060203Y032627D02*
X059705Y032627D01*
X059803Y032725D02*
X060104Y032725D01*
X060006Y032824D02*
X059902Y032824D01*
X059915Y032922D02*
X060001Y032922D01*
X059131Y033316D02*
X058834Y033316D01*
X058932Y033218D02*
X059032Y033218D01*
X059021Y033119D02*
X058935Y033119D01*
X058747Y031839D02*
X057689Y031839D01*
X058270Y031149D02*
X058366Y031149D01*
X058366Y031051D02*
X058270Y031051D01*
X058270Y030952D02*
X058366Y030952D01*
X057071Y031149D02*
X056965Y031149D01*
X054193Y032547D02*
X052993Y032547D01*
X052318Y031872D01*
X053344Y031051D02*
X053348Y031051D01*
X054568Y029522D02*
X055568Y028522D01*
X056175Y028785D02*
X057570Y028785D01*
X057669Y028884D02*
X056412Y028884D01*
X056530Y028982D02*
X057767Y028982D01*
X063793Y028897D02*
X064368Y028897D01*
X063793Y028397D02*
X065118Y028397D01*
X064318Y027872D02*
X064168Y027897D01*
X063793Y027897D01*
X068418Y028797D02*
X068418Y029223D01*
X062893Y022186D02*
X059754Y022186D01*
X059852Y022087D02*
X062893Y022087D01*
X062893Y021989D02*
X059951Y021989D01*
X060049Y021890D02*
X062893Y021890D01*
X062893Y021792D02*
X060148Y021792D01*
X060246Y021693D02*
X062893Y021693D01*
X062893Y021595D02*
X060345Y021595D01*
X060043Y021322D02*
X059669Y021322D01*
X059593Y021371D01*
X062525Y018935D02*
X063911Y018935D01*
X063888Y018837D02*
X062548Y018837D01*
X062548Y018738D02*
X063888Y018738D01*
X063888Y018640D02*
X062548Y018640D01*
X064789Y017950D02*
X067343Y017950D01*
X067343Y017852D02*
X064818Y017852D01*
X068718Y016965D02*
X069405Y016965D01*
X069405Y016997D02*
X069405Y016535D01*
X069416Y016497D01*
X069435Y016463D01*
X069463Y016435D01*
X069497Y016415D01*
X069536Y016405D01*
X069860Y016405D01*
X069860Y016997D01*
X069405Y016997D01*
X069405Y016867D02*
X068718Y016867D01*
X068718Y016768D02*
X069405Y016768D01*
X069405Y016670D02*
X068718Y016670D01*
X068718Y016571D02*
X069405Y016571D01*
X069429Y016473D02*
X068718Y016473D01*
X069860Y016473D02*
X069960Y016473D01*
X069960Y016571D02*
X069860Y016571D01*
X069860Y016670D02*
X069960Y016670D01*
X069960Y016768D02*
X069860Y016768D01*
X069860Y016867D02*
X069960Y016867D01*
X069960Y016965D02*
X069860Y016965D01*
X069860Y017261D02*
X069960Y017261D01*
X069960Y017359D02*
X069860Y017359D01*
X069860Y017458D02*
X069960Y017458D01*
X069960Y017556D02*
X069860Y017556D01*
X069860Y017655D02*
X069960Y017655D01*
X070360Y017655D02*
X072176Y017655D01*
X072122Y017556D02*
X070414Y017556D01*
X070414Y017458D02*
X072122Y017458D01*
X072122Y017359D02*
X070414Y017359D01*
X070414Y017261D02*
X072122Y017261D01*
X072122Y017162D02*
X070414Y017162D01*
X067344Y015371D02*
X067293Y015371D01*
X066917Y015371D01*
X066743Y015197D01*
X060543Y016231D02*
X059818Y016221D01*
X059742Y016247D01*
X063468Y012547D02*
X063468Y008047D01*
X063293Y007872D01*
X063293Y007871D01*
X063293Y007123D02*
X063092Y006922D01*
X062447Y006922D01*
X044993Y030547D02*
X044708Y030547D01*
X044708Y030747D02*
X044393Y030747D01*
X044168Y030522D01*
X043843Y030947D02*
X043628Y030947D01*
X043843Y030947D02*
X043943Y031047D01*
X043943Y031297D01*
X043943Y031541D01*
X044423Y032021D01*
X045423Y032021D02*
X045423Y030977D01*
X044993Y030547D01*
X044893Y030947D02*
X044918Y030972D01*
X044893Y030947D02*
X044708Y030947D01*
X043628Y030547D02*
X043243Y030547D01*
X043068Y030722D01*
X042923Y030867D01*
X042923Y033021D01*
D56*
X044923Y033021D02*
X044923Y033152D01*
X045368Y033597D01*
X048893Y033597D01*
X049468Y033022D01*
X048468Y033022D02*
X047467Y032021D01*
X045423Y032021D01*
X046553Y033072D02*
X047418Y033072D01*
X047468Y033022D01*
X053618Y031322D02*
X053618Y029881D01*
X054101Y029398D01*
X054101Y030658D02*
X054493Y031050D01*
X054493Y031317D01*
X053743Y031317D02*
X053713Y031317D01*
X053618Y031322D01*
X054493Y032077D02*
X055363Y032077D01*
X055468Y031972D01*
X055468Y031956D02*
X055468Y032022D01*
X056468Y033022D01*
X056683Y032806D01*
X056683Y031522D01*
X057353Y031522D02*
X059083Y031522D01*
X059093Y031531D01*
X059228Y031397D01*
X060093Y031397D01*
X060093Y030897D02*
X059128Y030897D01*
X059093Y030862D01*
X058324Y030862D01*
X058318Y030856D01*
X058543Y030397D02*
X058343Y030197D01*
X058543Y030397D02*
X060093Y030397D01*
X060093Y029897D01*
X060093Y029397D01*
X059143Y028897D02*
X058993Y029047D01*
X059143Y028897D02*
X060093Y028897D01*
X060093Y028397D02*
X059117Y028397D01*
X058992Y028272D01*
X058508Y027447D02*
X058118Y027447D01*
X063793Y029397D02*
X063793Y029897D01*
X063793Y030397D01*
X065333Y030397D01*
X065518Y030212D01*
X065512Y030862D02*
X064743Y030862D01*
X064728Y030897D01*
X063793Y030897D01*
X063793Y031397D02*
X064558Y031397D01*
X064743Y031531D01*
X066533Y031531D01*
X067393Y030672D01*
X067393Y027947D01*
X067918Y027422D01*
X065893Y030872D02*
X065878Y030881D01*
X065518Y030881D01*
X065512Y030862D01*
X061218Y023747D02*
X061393Y023572D01*
X062118Y019497D02*
X062093Y019472D01*
X062093Y018847D01*
X063718Y017747D02*
X063723Y017742D01*
X064338Y017742D01*
X066968Y018832D02*
X066968Y019698D01*
D57*
X059118Y017847D02*
X059018Y017922D01*
X058643Y017922D01*
X059067Y017847D02*
X059118Y017847D01*
X053939Y015226D02*
X053018Y016147D01*
X053018Y016363D01*
X051743Y017638D01*
X046943Y017638D01*
X047018Y017563D01*
X047018Y016147D01*
X046943Y017638D02*
X040902Y017638D01*
X040868Y017672D01*
X053939Y015226D02*
X053939Y014976D01*
X064864Y010433D02*
X066244Y011812D01*
X064864Y010433D02*
X064864Y009294D01*
X066872Y009294D02*
X066872Y009668D01*
X066868Y009747D01*
X072243Y009736D02*
X072243Y009422D01*
X072243Y009736D02*
X072304Y009797D01*
X066872Y005750D02*
X066615Y005750D01*
X066368Y005747D01*
X064864Y005750D02*
X064540Y005750D01*
X064368Y005747D01*
X038018Y006847D02*
X036041Y006847D01*
X035993Y006894D01*
X035995Y009097D02*
X035993Y009099D01*
X035995Y009097D02*
X036443Y009097D01*
X065316Y022597D02*
X065316Y022724D01*
X053939Y024818D02*
X052793Y023672D01*
X048143Y023672D01*
X046997Y024818D01*
X046993Y024818D01*
X047018Y024843D01*
X047018Y026147D01*
X046993Y024818D02*
X046065Y024818D01*
D58*
X062093Y018847D02*
X062098Y018842D01*
X062098Y018772D01*
X064338Y018772D02*
X064518Y018772D01*
X064544Y018798D01*
X064544Y019272D01*
X064338Y018512D02*
X065053Y018512D01*
X065068Y018497D01*
X064763Y018002D02*
X064843Y017922D01*
X064763Y018002D02*
X064338Y018002D01*
X064338Y017492D02*
X065073Y017492D01*
X065243Y017322D01*
D59*
X032843Y007803D03*
X069063Y007803D03*
X069063Y032606D03*
X032843Y032606D03*
D60*
X039218Y032647D03*
X032718Y017747D03*
X032718Y015997D03*
D61*
X040572Y031052D02*
X039218Y032407D01*
X039218Y032647D01*
X039592Y033021D01*
X041923Y033021D01*
D62*
X068918Y022247D02*
X068918Y021747D01*
X069318Y021347D01*
X071718Y021347D01*
X072243Y021347D01*
X072618Y020972D01*
X072618Y017172D01*
X072626Y017164D01*
X072626Y017047D01*
X071716Y019047D02*
X071718Y019049D01*
X071718Y020347D01*
X068918Y020347D01*
X053268Y012897D02*
X052643Y013522D01*
X050668Y013522D01*
X050118Y012972D01*
X049993Y012972D01*
X051018Y012772D02*
X052393Y012772D01*
X053593Y011572D01*
X056741Y011572D01*
X056768Y011599D01*
X057368Y012897D02*
X058443Y011822D01*
X058789Y011822D01*
X057368Y012897D02*
X053268Y012897D01*
X051018Y012772D02*
X049568Y011322D01*
X049393Y011322D01*
X056768Y009394D02*
X058362Y009394D01*
X058789Y009822D01*
X056768Y008024D02*
X056768Y007922D01*
X058789Y007922D01*
X058789Y005922D02*
X058193Y005922D01*
X056768Y005819D02*
X056616Y005872D01*
X055968Y005872D01*
X071418Y008897D02*
X071868Y008447D01*
X071868Y007952D01*
X071418Y008897D02*
X071418Y010697D01*
X072318Y011597D01*
X072304Y011596D02*
X072304Y012097D01*
X072293Y012097D01*
D63*
X066368Y005747D03*
X064368Y005747D03*
D64*
X048985Y030637D03*
D65*
X039880Y026134D02*
X037843Y028172D01*
X036618Y028172D01*
X034320Y025874D01*
X033025Y025874D01*
X033025Y023906D02*
X034009Y023906D01*
X035218Y022697D01*
X035218Y020097D01*
X036443Y018872D01*
X036443Y009097D01*
X037218Y008322D01*
X038993Y008322D01*
X039993Y007322D01*
X041093Y007322D01*
X041093Y009322D02*
X041118Y009322D01*
X045093Y013297D01*
X047968Y013297D01*
X049393Y011872D01*
X049393Y011322D01*
X040868Y013247D02*
X039608Y011986D01*
X039203Y011986D01*
X040868Y013247D02*
X040868Y017672D01*
X040868Y025147D01*
X039880Y026134D01*
D66*
X037843Y028172D02*
X037843Y029747D01*
X038518Y030422D01*
M02*
