%
M48
M72
T01C0.0236
T02C0.0276
T03C0.0360
T04C0.0394
T05C0.0400
T06C0.0433
T07C0.0531
T08C0.0550
T09C0.0590
T10C0.0630
T11C0.0787
T12C0.1102
T13C0.1260
%
T01
X21569Y22230
X28819Y32155
X24719Y37680
X24719Y38430
X18069Y39355
X18069Y39750
X16719Y39750
X16719Y39355
X16719Y38960
X15269Y38955
X14094Y38955
X14669Y36930
X14669Y36555
X16294Y34555
X17394Y34505
X17919Y41380
X10569Y34580
X10194Y34580
X9244Y40205
X9244Y40580
T02
X11244Y42955
X11819Y42955
X12394Y42955
X12969Y42955
X13544Y42955
X20960Y14780
X22928Y14780
T03
X25844Y28455
X28844Y28455
T04
X13694Y35430
X12694Y35430
X11694Y35430
X8244Y35130
X8244Y34130
X8244Y36130
X8244Y37130
X8244Y38130
X8244Y39130
T05
X22284Y41005
X22284Y43005
X25069Y41355
X25069Y39355
X27069Y39355
X27069Y41355
X27344Y12955
X27344Y10955
T06
X20099Y21628
X19115Y21628
X20099Y23596
X20099Y27533
X19115Y27533
X19115Y29502
X20099Y29502
X19115Y19659
X15435Y13109
X15440Y10730
X11503Y11596
X11498Y13975
X8079Y14230
X8079Y10293
X9273Y19659
X9273Y21628
X10257Y21628
X10257Y23596
X9273Y24580
X10257Y25565
X10257Y27533
X9273Y27533
X9273Y29502
T07
X13623Y7212
X15592Y7212
X17560Y7212
X19529Y7212
X21497Y7212
T08
X23419Y19330
X23419Y21480
X23419Y23630
X27119Y23630
X27119Y21480
X27119Y19330
T09
X24629Y12801
X24629Y10545
X18629Y10545
X18629Y12801
T10
X11244Y7180
T11
X17369Y39355
T12
X25894Y26480
X25894Y16480
T13
X7843Y6819
X28315Y6819
X28315Y43039
X7843Y43039
M30
