G75*
G70*
%OFA0B0*%
%FSLAX24Y24*%
%IPPOS*%
%LPD*%
%AMOC8*
5,1,8,0,0,1.08239X$1,22.5*
%
%ADD10C,0.0160*%
%ADD11C,0.0060*%
%ADD12C,0.0039*%
%ADD13C,0.0040*%
%ADD14R,0.0001X0.0149*%
%ADD15R,0.0001X0.0004*%
%ADD16R,0.0001X0.0010*%
%ADD17R,0.0001X0.0017*%
%ADD18R,0.0001X0.0023*%
%ADD19R,0.0001X0.0029*%
%ADD20R,0.0001X0.0034*%
%ADD21R,0.0001X0.0040*%
%ADD22R,0.0002X0.0043*%
%ADD23R,0.0001X0.0047*%
%ADD24R,0.0001X0.0050*%
%ADD25R,0.0001X0.0054*%
%ADD26R,0.0001X0.0059*%
%ADD27R,0.0001X0.0064*%
%ADD28R,0.0001X0.0015*%
%ADD29R,0.0001X0.0067*%
%ADD30R,0.0001X0.0020*%
%ADD31R,0.0001X0.0070*%
%ADD32R,0.0001X0.0024*%
%ADD33R,0.0001X0.0074*%
%ADD34R,0.0001X0.0027*%
%ADD35R,0.0001X0.0076*%
%ADD36R,0.0001X0.0030*%
%ADD37R,0.0002X0.0081*%
%ADD38R,0.0002X0.0036*%
%ADD39R,0.0001X0.0086*%
%ADD40R,0.0001X0.0044*%
%ADD41R,0.0001X0.0091*%
%ADD42R,0.0001X0.0046*%
%ADD43R,0.0001X0.0094*%
%ADD44R,0.0001X0.0096*%
%ADD45R,0.0001X0.0053*%
%ADD46R,0.0001X0.0099*%
%ADD47R,0.0001X0.0056*%
%ADD48R,0.0001X0.0104*%
%ADD49R,0.0001X0.0060*%
%ADD50R,0.0001X0.0108*%
%ADD51R,0.0001X0.0112*%
%ADD52R,0.0001X0.0117*%
%ADD53R,0.0001X0.0072*%
%ADD54R,0.0002X0.0120*%
%ADD55R,0.0002X0.0075*%
%ADD56R,0.0001X0.0123*%
%ADD57R,0.0001X0.0078*%
%ADD58R,0.0001X0.0126*%
%ADD59R,0.0001X0.0081*%
%ADD60R,0.0001X0.0131*%
%ADD61R,0.0001X0.0136*%
%ADD62R,0.0001X0.0090*%
%ADD63R,0.0001X0.0139*%
%ADD64R,0.0001X0.0144*%
%ADD65R,0.0001X0.0147*%
%ADD66R,0.0001X0.0101*%
%ADD67R,0.0001X0.0150*%
%ADD68R,0.0001X0.0102*%
%ADD69R,0.0001X0.0153*%
%ADD70R,0.0001X0.0106*%
%ADD71R,0.0002X0.0158*%
%ADD72R,0.0002X0.0109*%
%ADD73R,0.0001X0.0164*%
%ADD74R,0.0001X0.0115*%
%ADD75R,0.0001X0.0168*%
%ADD76R,0.0001X0.0120*%
%ADD77R,0.0001X0.0171*%
%ADD78R,0.0001X0.0123*%
%ADD79R,0.0001X0.0172*%
%ADD80R,0.0001X0.0125*%
%ADD81R,0.0001X0.0175*%
%ADD82R,0.0001X0.0128*%
%ADD83R,0.0001X0.0180*%
%ADD84R,0.0001X0.0132*%
%ADD85R,0.0001X0.0186*%
%ADD86R,0.0001X0.0191*%
%ADD87R,0.0001X0.0141*%
%ADD88R,0.0001X0.0194*%
%ADD89R,0.0001X0.0145*%
%ADD90R,0.0002X0.0196*%
%ADD91R,0.0002X0.0149*%
%ADD92R,0.0001X0.0199*%
%ADD93R,0.0001X0.0151*%
%ADD94R,0.0001X0.0204*%
%ADD95R,0.0001X0.0153*%
%ADD96R,0.0001X0.0207*%
%ADD97R,0.0001X0.0158*%
%ADD98R,0.0001X0.0211*%
%ADD99R,0.0001X0.0162*%
%ADD100R,0.0001X0.0216*%
%ADD101R,0.0001X0.0166*%
%ADD102R,0.0001X0.0219*%
%ADD103R,0.0001X0.0007*%
%ADD104R,0.0001X0.0169*%
%ADD105R,0.0001X0.0222*%
%ADD106R,0.0001X0.0011*%
%ADD107R,0.0001X0.0224*%
%ADD108R,0.0001X0.0014*%
%ADD109R,0.0001X0.0176*%
%ADD110R,0.0001X0.0228*%
%ADD111R,0.0001X0.0018*%
%ADD112R,0.0001X0.0179*%
%ADD113R,0.0002X0.0234*%
%ADD114R,0.0002X0.0024*%
%ADD115R,0.0002X0.0183*%
%ADD116R,0.0001X0.0239*%
%ADD117R,0.0001X0.0189*%
%ADD118R,0.0001X0.0241*%
%ADD119R,0.0001X0.0033*%
%ADD120R,0.0001X0.0012*%
%ADD121R,0.0001X0.0192*%
%ADD122R,0.0001X0.0243*%
%ADD123R,0.0001X0.0038*%
%ADD124R,0.0001X0.0246*%
%ADD125R,0.0001X0.0041*%
%ADD126R,0.0001X0.0019*%
%ADD127R,0.0001X0.0196*%
%ADD128R,0.0001X0.0250*%
%ADD129R,0.0001X0.0021*%
%ADD130R,0.0001X0.0201*%
%ADD131R,0.0001X0.0254*%
%ADD132R,0.0001X0.0048*%
%ADD133R,0.0001X0.0258*%
%ADD134R,0.0001X0.0054*%
%ADD135R,0.0001X0.0209*%
%ADD136R,0.0001X0.0263*%
%ADD137R,0.0001X0.0213*%
%ADD138R,0.0001X0.0267*%
%ADD139R,0.0001X0.0063*%
%ADD140R,0.0002X0.0270*%
%ADD141R,0.0002X0.0066*%
%ADD142R,0.0002X0.0045*%
%ADD143R,0.0002X0.0219*%
%ADD144R,0.0001X0.0271*%
%ADD145R,0.0001X0.0220*%
%ADD146R,0.0001X0.0274*%
%ADD147R,0.0001X0.0051*%
%ADD148R,0.0001X0.0223*%
%ADD149R,0.0001X0.0278*%
%ADD150R,0.0001X0.0282*%
%ADD151R,0.0001X0.0231*%
%ADD152R,0.0001X0.0288*%
%ADD153R,0.0001X0.0085*%
%ADD154R,0.0001X0.0236*%
%ADD155R,0.0001X0.0289*%
%ADD156R,0.0001X0.0087*%
%ADD157R,0.0001X0.0066*%
%ADD158R,0.0001X0.0292*%
%ADD159R,0.0001X0.0069*%
%ADD160R,0.0001X0.0297*%
%ADD161R,0.0001X0.0300*%
%ADD162R,0.0001X0.0075*%
%ADD163R,0.0002X0.0305*%
%ADD164R,0.0002X0.0101*%
%ADD165R,0.0002X0.0078*%
%ADD166R,0.0002X0.0251*%
%ADD167R,0.0001X0.0309*%
%ADD168R,0.0001X0.0105*%
%ADD169R,0.0001X0.0083*%
%ADD170R,0.0001X0.0255*%
%ADD171R,0.0001X0.0314*%
%ADD172R,0.0001X0.0110*%
%ADD173R,0.0001X0.0087*%
%ADD174R,0.0001X0.0316*%
%ADD175R,0.0001X0.0113*%
%ADD176R,0.0001X0.0262*%
%ADD177R,0.0001X0.0319*%
%ADD178R,0.0001X0.0114*%
%ADD179R,0.0001X0.0093*%
%ADD180R,0.0001X0.0266*%
%ADD181R,0.0001X0.0321*%
%ADD182R,0.0001X0.0096*%
%ADD183R,0.0001X0.0324*%
%ADD184R,0.0001X0.0270*%
%ADD185R,0.0001X0.0329*%
%ADD186R,0.0001X0.0124*%
%ADD187R,0.0001X0.0275*%
%ADD188R,0.0001X0.0333*%
%ADD189R,0.0001X0.0279*%
%ADD190R,0.0001X0.0336*%
%ADD191R,0.0001X0.0111*%
%ADD192R,0.0001X0.0284*%
%ADD193R,0.0002X0.0339*%
%ADD194R,0.0002X0.0134*%
%ADD195R,0.0002X0.0114*%
%ADD196R,0.0002X0.0286*%
%ADD197R,0.0001X0.0342*%
%ADD198R,0.0001X0.0116*%
%ADD199R,0.0001X0.0491*%
%ADD200R,0.0001X0.0492*%
%ADD201R,0.0001X0.0294*%
%ADD202R,0.0001X0.0495*%
%ADD203R,0.0001X0.0299*%
%ADD204R,0.0001X0.0496*%
%ADD205R,0.0001X0.0127*%
%ADD206R,0.0001X0.0301*%
%ADD207R,0.0001X0.0498*%
%ADD208R,0.0001X0.0304*%
%ADD209R,0.0001X0.0501*%
%ADD210R,0.0001X0.0134*%
%ADD211R,0.0001X0.0308*%
%ADD212R,0.0001X0.0135*%
%ADD213R,0.0001X0.0311*%
%ADD214R,0.0001X0.0504*%
%ADD215R,0.0001X0.0138*%
%ADD216R,0.0002X0.0504*%
%ADD217R,0.0002X0.0141*%
%ADD218R,0.0002X0.0318*%
%ADD219R,0.0001X0.0507*%
%ADD220R,0.0001X0.0323*%
%ADD221R,0.0001X0.0326*%
%ADD222R,0.0001X0.0508*%
%ADD223R,0.0001X0.0152*%
%ADD224R,0.0001X0.0330*%
%ADD225R,0.0001X0.0510*%
%ADD226R,0.0001X0.0494*%
%ADD227R,0.0001X0.0512*%
%ADD228R,0.0001X0.0500*%
%ADD229R,0.0001X0.0513*%
%ADD230R,0.0001X0.0501*%
%ADD231R,0.0002X0.0513*%
%ADD232R,0.0002X0.0501*%
%ADD233R,0.0001X0.0503*%
%ADD234R,0.0001X0.0504*%
%ADD235R,0.0001X0.0506*%
%ADD236R,0.0001X0.0513*%
%ADD237R,0.0001X0.0509*%
%ADD238R,0.0001X0.0511*%
%ADD239R,0.0001X0.0514*%
%ADD240R,0.0001X0.0516*%
%ADD241R,0.0002X0.0513*%
%ADD242R,0.0002X0.0519*%
%ADD243R,0.0001X0.0519*%
%ADD244R,0.0001X0.0520*%
%ADD245R,0.0001X0.0522*%
%ADD246R,0.0001X0.0507*%
%ADD247R,0.0002X0.0509*%
%ADD248R,0.0002X0.0520*%
%ADD249R,0.0001X0.0522*%
%ADD250R,0.0001X0.0505*%
%ADD251R,0.0001X0.0502*%
%ADD252R,0.0001X0.0521*%
%ADD253R,0.0002X0.0503*%
%ADD254R,0.0002X0.0519*%
%ADD255R,0.0001X0.0519*%
%ADD256R,0.0001X0.0499*%
%ADD257R,0.0001X0.0517*%
%ADD258R,0.0002X0.0495*%
%ADD259R,0.0002X0.0514*%
%ADD260R,0.0001X0.0515*%
%ADD261R,0.0001X0.0492*%
%ADD262R,0.0001X0.0490*%
%ADD263R,0.0002X0.0490*%
%ADD264R,0.0002X0.0511*%
%ADD265R,0.0001X0.0489*%
%ADD266R,0.0001X0.0489*%
%ADD267R,0.0001X0.0488*%
%ADD268R,0.0001X0.0485*%
%ADD269R,0.0001X0.0483*%
%ADD270R,0.0002X0.0483*%
%ADD271R,0.0002X0.0507*%
%ADD272R,0.0001X0.0483*%
%ADD273R,0.0001X0.0481*%
%ADD274R,0.0001X0.0480*%
%ADD275R,0.0002X0.0480*%
%ADD276R,0.0002X0.0501*%
%ADD277R,0.0001X0.0479*%
%ADD278R,0.0001X0.0477*%
%ADD279R,0.0001X0.0477*%
%ADD280R,0.0001X0.0475*%
%ADD281R,0.0001X0.0474*%
%ADD282R,0.0001X0.0472*%
%ADD283R,0.0002X0.0472*%
%ADD284R,0.0002X0.0498*%
%ADD285R,0.0001X0.0471*%
%ADD286R,0.0001X0.0473*%
%ADD287R,0.0001X0.0471*%
%ADD288R,0.0001X0.0470*%
%ADD289R,0.0001X0.0468*%
%ADD290R,0.0001X0.0469*%
%ADD291R,0.0002X0.0468*%
%ADD292R,0.0002X0.0491*%
%ADD293R,0.0001X0.0466*%
%ADD294R,0.0001X0.0465*%
%ADD295R,0.0001X0.0464*%
%ADD296R,0.0001X0.0462*%
%ADD297R,0.0002X0.0462*%
%ADD298R,0.0002X0.0489*%
%ADD299R,0.0001X0.0461*%
%ADD300R,0.0001X0.0460*%
%ADD301R,0.0001X0.0459*%
%ADD302R,0.0001X0.0484*%
%ADD303R,0.0001X0.0457*%
%ADD304R,0.0001X0.0459*%
%ADD305R,0.0002X0.0458*%
%ADD306R,0.0002X0.0484*%
%ADD307R,0.0001X0.0456*%
%ADD308R,0.0001X0.0455*%
%ADD309R,0.0001X0.0453*%
%ADD310R,0.0001X0.0451*%
%ADD311R,0.0001X0.0453*%
%ADD312R,0.0001X0.0450*%
%ADD313R,0.0002X0.0451*%
%ADD314R,0.0001X0.0478*%
%ADD315R,0.0001X0.0449*%
%ADD316R,0.0001X0.0476*%
%ADD317R,0.0001X0.0447*%
%ADD318R,0.0001X0.0474*%
%ADD319R,0.0002X0.0449*%
%ADD320R,0.0002X0.0476*%
%ADD321R,0.0001X0.0454*%
%ADD322R,0.0002X0.0469*%
%ADD323R,0.0001X0.0468*%
%ADD324R,0.0001X0.0467*%
%ADD325R,0.0002X0.0473*%
%ADD326R,0.0002X0.0468*%
%ADD327R,0.0002X0.0486*%
%ADD328R,0.0002X0.0474*%
%ADD329R,0.0001X0.0487*%
%ADD330R,0.0001X0.0497*%
%ADD331R,0.0001X0.0486*%
%ADD332R,0.0002X0.0500*%
%ADD333R,0.0002X0.0487*%
%ADD334R,0.0001X0.0498*%
%ADD335R,0.0002X0.0524*%
%ADD336R,0.0001X0.0524*%
%ADD337R,0.0001X0.0525*%
%ADD338R,0.0001X0.0528*%
%ADD339R,0.0001X0.0529*%
%ADD340R,0.0001X0.0533*%
%ADD341R,0.0001X0.0534*%
%ADD342R,0.0001X0.0523*%
%ADD343R,0.0001X0.0536*%
%ADD344R,0.0002X0.0537*%
%ADD345R,0.0002X0.0527*%
%ADD346R,0.0001X0.0537*%
%ADD347R,0.0001X0.0528*%
%ADD348R,0.0001X0.0539*%
%ADD349R,0.0001X0.0530*%
%ADD350R,0.0001X0.0540*%
%ADD351R,0.0001X0.0541*%
%ADD352R,0.0001X0.0531*%
%ADD353R,0.0001X0.0543*%
%ADD354R,0.0001X0.0544*%
%ADD355R,0.0002X0.0546*%
%ADD356R,0.0002X0.0536*%
%ADD357R,0.0001X0.0547*%
%ADD358R,0.0001X0.0551*%
%ADD359R,0.0001X0.0552*%
%ADD360R,0.0001X0.0554*%
%ADD361R,0.0001X0.0555*%
%ADD362R,0.0002X0.0555*%
%ADD363R,0.0002X0.0547*%
%ADD364R,0.0001X0.0549*%
%ADD365R,0.0001X0.0548*%
%ADD366R,0.0001X0.0538*%
%ADD367R,0.0001X0.0537*%
%ADD368R,0.0002X0.0533*%
%ADD369R,0.0001X0.0531*%
%ADD370R,0.0001X0.0526*%
%ADD371R,0.0001X0.0518*%
%ADD372R,0.0002X0.0498*%
%ADD373R,0.0002X0.0496*%
%ADD374R,0.0001X0.0486*%
%ADD375R,0.0002X0.0485*%
%ADD376R,0.0001X0.0482*%
%ADD377R,0.0002X0.0477*%
%ADD378R,0.0002X0.0530*%
%ADD379R,0.0002X0.0464*%
%ADD380R,0.0001X0.0561*%
%ADD381R,0.0001X0.0570*%
%ADD382R,0.0001X0.0576*%
%ADD383R,0.0001X0.0581*%
%ADD384R,0.0001X0.0585*%
%ADD385R,0.0001X0.0589*%
%ADD386R,0.0002X0.0600*%
%ADD387R,0.0001X0.0614*%
%ADD388R,0.0001X0.0623*%
%ADD389R,0.0001X0.0630*%
%ADD390R,0.0001X0.0633*%
%ADD391R,0.0001X0.0638*%
%ADD392R,0.0001X0.0645*%
%ADD393R,0.0001X0.0657*%
%ADD394R,0.0001X0.0556*%
%ADD395R,0.0001X0.0669*%
%ADD396R,0.0001X0.0674*%
%ADD397R,0.0001X0.0579*%
%ADD398R,0.0002X0.0676*%
%ADD399R,0.0002X0.0585*%
%ADD400R,0.0001X0.0678*%
%ADD401R,0.0001X0.0590*%
%ADD402R,0.0001X0.0679*%
%ADD403R,0.0001X0.0596*%
%ADD404R,0.0001X0.0681*%
%ADD405R,0.0001X0.0606*%
%ADD406R,0.0001X0.0620*%
%ADD407R,0.0001X0.0682*%
%ADD408R,0.0001X0.0633*%
%ADD409R,0.0001X0.0684*%
%ADD410R,0.0001X0.0639*%
%ADD411R,0.0001X0.0649*%
%ADD412R,0.0001X0.0684*%
%ADD413R,0.0001X0.0655*%
%ADD414R,0.0002X0.0683*%
%ADD415R,0.0002X0.0664*%
%ADD416R,0.0001X0.0683*%
%ADD417R,0.0001X0.0670*%
%ADD418R,0.0001X0.0671*%
%ADD419R,0.0001X0.0681*%
%ADD420R,0.0001X0.0672*%
%ADD421R,0.0001X0.0680*%
%ADD422R,0.0001X0.0675*%
%ADD423R,0.0001X0.0676*%
%ADD424R,0.0002X0.0680*%
%ADD425R,0.0002X0.0678*%
%ADD426R,0.0001X0.0678*%
%ADD427R,0.0002X0.0675*%
%ADD428R,0.0002X0.0672*%
%ADD429R,0.0001X0.0672*%
%ADD430R,0.0002X0.0671*%
%ADD431R,0.0002X0.0670*%
%ADD432R,0.0001X0.0669*%
%ADD433R,0.0001X0.0667*%
%ADD434R,0.0002X0.0669*%
%ADD435R,0.0002X0.0667*%
%ADD436R,0.0001X0.0668*%
%ADD437R,0.0001X0.0666*%
%ADD438R,0.0002X0.0668*%
%ADD439R,0.0002X0.0666*%
%ADD440R,0.0001X0.0666*%
%ADD441R,0.0001X0.0664*%
%ADD442R,0.0001X0.0663*%
%ADD443R,0.0002X0.0666*%
%ADD444R,0.0002X0.0663*%
%ADD445R,0.0001X0.0665*%
%ADD446R,0.0002X0.0674*%
%ADD447R,0.0001X0.0677*%
%ADD448R,0.0002X0.0678*%
%ADD449R,0.0002X0.0682*%
%ADD450R,0.0001X0.0686*%
%ADD451R,0.0002X0.0686*%
%ADD452R,0.0001X0.0687*%
%ADD453R,0.0001X0.0689*%
%ADD454R,0.0001X0.0653*%
%ADD455R,0.0001X0.0641*%
%ADD456R,0.0001X0.0626*%
%ADD457R,0.0001X0.0616*%
%ADD458R,0.0001X0.0687*%
%ADD459R,0.0001X0.0612*%
%ADD460R,0.0001X0.0688*%
%ADD461R,0.0001X0.0606*%
%ADD462R,0.0001X0.0601*%
%ADD463R,0.0002X0.0591*%
%ADD464R,0.0001X0.0567*%
%ADD465R,0.0001X0.0560*%
%ADD466R,0.0001X0.0659*%
%ADD467R,0.0001X0.0516*%
%ADD468R,0.0001X0.0639*%
%ADD469R,0.0002X0.0502*%
%ADD470R,0.0002X0.0633*%
%ADD471R,0.0001X0.0608*%
%ADD472R,0.0001X0.0582*%
%ADD473R,0.0001X0.0577*%
%ADD474R,0.0002X0.0569*%
%ADD475R,0.0001X0.0546*%
%ADD476R,0.0002X0.0486*%
%ADD477R,0.0001X0.0493*%
%ADD478R,0.0002X0.0516*%
%ADD479R,0.0001X0.0532*%
%ADD480R,0.0002X0.0534*%
%ADD481R,0.0002X0.0535*%
%ADD482R,0.0001X0.0543*%
%ADD483R,0.0001X0.0553*%
%ADD484R,0.0001X0.0559*%
%ADD485R,0.0001X0.0564*%
%ADD486R,0.0001X0.0564*%
%ADD487R,0.0001X0.0567*%
%ADD488R,0.0001X0.0569*%
%ADD489R,0.0002X0.0570*%
%ADD490R,0.0002X0.0571*%
%ADD491R,0.0001X0.0571*%
%ADD492R,0.0001X0.0573*%
%ADD493R,0.0001X0.0574*%
%ADD494R,0.0001X0.0576*%
%ADD495R,0.0001X0.0600*%
%ADD496R,0.0001X0.0611*%
%ADD497R,0.0001X0.0618*%
%ADD498R,0.0001X0.0621*%
%ADD499R,0.0001X0.1269*%
%ADD500R,0.0001X0.1267*%
%ADD501R,0.0001X0.1266*%
%ADD502R,0.0002X0.1266*%
%ADD503R,0.0001X0.1264*%
%ADD504R,0.0001X0.1261*%
%ADD505R,0.0001X0.1260*%
%ADD506R,0.0001X0.1259*%
%ADD507R,0.0001X0.1256*%
%ADD508R,0.0001X0.1254*%
%ADD509R,0.0001X0.1253*%
%ADD510R,0.0001X0.1251*%
%ADD511R,0.0002X0.1251*%
%ADD512R,0.0001X0.1248*%
%ADD513R,0.0001X0.1245*%
%ADD514R,0.0001X0.1244*%
%ADD515R,0.0001X0.1242*%
%ADD516R,0.0001X0.1239*%
%ADD517R,0.0001X0.1237*%
%ADD518R,0.0002X0.1236*%
%ADD519R,0.0001X0.1233*%
%ADD520R,0.0001X0.1230*%
%ADD521R,0.0001X0.1229*%
%ADD522R,0.0001X0.1227*%
%ADD523R,0.0001X0.1226*%
%ADD524R,0.0001X0.1224*%
%ADD525R,0.0002X0.1223*%
%ADD526R,0.0001X0.1219*%
%ADD527R,0.0001X0.1216*%
%ADD528R,0.0001X0.1215*%
%ADD529R,0.0001X0.1214*%
%ADD530R,0.0001X0.1212*%
%ADD531R,0.0001X0.1209*%
%ADD532R,0.0002X0.1207*%
%ADD533R,0.0001X0.1206*%
%ADD534R,0.0001X0.1204*%
%ADD535R,0.0001X0.1201*%
%ADD536R,0.0001X0.1200*%
%ADD537R,0.0001X0.1199*%
%ADD538R,0.0001X0.1196*%
%ADD539R,0.0001X0.1194*%
%ADD540R,0.0001X0.1193*%
%ADD541R,0.0001X0.1191*%
%ADD542R,0.0002X0.1191*%
%ADD543R,0.0001X0.1188*%
%ADD544R,0.0001X0.1185*%
%ADD545R,0.0001X0.1184*%
%ADD546R,0.0001X0.1181*%
%ADD547R,0.0001X0.1177*%
%ADD548R,0.0001X0.1176*%
%ADD549R,0.0001X0.1174*%
%ADD550R,0.0001X0.1173*%
%ADD551R,0.0002X0.1170*%
%ADD552R,0.0001X0.1170*%
%ADD553R,0.0001X0.1169*%
%ADD554R,0.0001X0.1166*%
%ADD555R,0.0001X0.1164*%
%ADD556R,0.0001X0.1163*%
%ADD557R,0.0002X0.1163*%
%ADD558R,0.0001X0.1167*%
%ADD559R,0.0001X0.1171*%
%ADD560R,0.0001X0.1179*%
%ADD561R,0.0001X0.1182*%
%ADD562R,0.0002X0.1182*%
%ADD563R,0.0001X0.1188*%
%ADD564R,0.0001X0.1190*%
%ADD565R,0.0001X0.1197*%
%ADD566R,0.0002X0.1204*%
%ADD567R,0.0001X0.1207*%
%ADD568R,0.0001X0.1210*%
%ADD569R,0.0001X0.1213*%
%ADD570R,0.0001X0.1217*%
%ADD571R,0.0001X0.1218*%
%ADD572R,0.0001X0.1220*%
%ADD573R,0.0001X0.1221*%
%ADD574R,0.0001X0.1223*%
%ADD575R,0.0002X0.1226*%
%ADD576R,0.0001X0.1236*%
%ADD577R,0.0001X0.1239*%
%ADD578R,0.0001X0.1240*%
%ADD579R,0.0001X0.1243*%
%ADD580R,0.0002X0.1248*%
%ADD581R,0.0001X0.1248*%
%ADD582R,0.0001X0.1251*%
%ADD583R,0.0001X0.1257*%
%ADD584R,0.0001X0.1263*%
%ADD585R,0.0002X0.1267*%
%ADD586R,0.0001X0.1270*%
%ADD587R,0.0001X0.1274*%
%ADD588R,0.0001X0.1275*%
%ADD589R,0.0001X0.1278*%
%ADD590R,0.0001X0.1280*%
%ADD591R,0.0001X0.1281*%
%ADD592R,0.0001X0.1284*%
%ADD593R,0.0001X0.1286*%
%ADD594R,0.0001X0.1289*%
%ADD595R,0.0002X0.1290*%
%ADD596R,0.0001X0.1291*%
%ADD597R,0.0001X0.1294*%
%ADD598R,0.0001X0.1296*%
%ADD599R,0.0001X0.1299*%
%ADD600R,0.0001X0.1300*%
%ADD601R,0.0001X0.1302*%
%ADD602R,0.0001X0.1304*%
%ADD603R,0.0001X0.1306*%
%ADD604R,0.0001X0.1308*%
%ADD605R,0.0002X0.1311*%
%ADD606R,0.0001X0.1313*%
%ADD607R,0.0001X0.1316*%
%ADD608R,0.0001X0.1317*%
%ADD609R,0.0001X0.1320*%
%ADD610R,0.0001X0.1323*%
%ADD611R,0.0001X0.1326*%
%ADD612R,0.0001X0.1329*%
%ADD613R,0.0002X0.1332*%
%ADD614R,0.0001X0.1335*%
%ADD615R,0.0001X0.1336*%
%ADD616R,0.0001X0.1340*%
%ADD617R,0.0001X0.1343*%
%ADD618R,0.0001X0.1346*%
%ADD619R,0.0001X0.1347*%
%ADD620R,0.0001X0.1350*%
%ADD621R,0.0002X0.1353*%
%ADD622R,0.0001X0.1356*%
%ADD623R,0.0001X0.1357*%
%ADD624R,0.0001X0.1360*%
%ADD625R,0.0001X0.1364*%
%ADD626R,0.0001X0.1365*%
%ADD627R,0.0001X0.1368*%
%ADD628R,0.0001X0.1369*%
%ADD629R,0.0001X0.1373*%
%ADD630R,0.0002X0.1374*%
%ADD631R,0.0001X0.1377*%
%ADD632R,0.0001X0.1379*%
%ADD633R,0.0001X0.1380*%
%ADD634R,0.0001X0.1383*%
%ADD635R,0.0001X0.1386*%
%ADD636R,0.0001X0.1387*%
%ADD637R,0.0001X0.1391*%
%ADD638R,0.0001X0.1394*%
%ADD639R,0.0002X0.1395*%
%ADD640R,0.0001X0.1398*%
%ADD641R,0.0001X0.1401*%
%ADD642R,0.0001X0.1403*%
%ADD643R,0.0001X0.1406*%
%ADD644R,0.0001X0.1407*%
%ADD645R,0.0001X0.1409*%
%ADD646R,0.0001X0.1411*%
%ADD647R,0.0001X0.1414*%
%ADD648R,0.0002X0.1416*%
%ADD649R,0.0001X0.1419*%
%ADD650R,0.0001X0.1421*%
%ADD651R,0.0001X0.1422*%
%ADD652R,0.0001X0.1424*%
%ADD653R,0.0001X0.1426*%
%ADD654R,0.0001X0.1428*%
%ADD655R,0.0002X0.1429*%
%ADD656R,0.0001X0.1429*%
%ADD657R,0.0001X0.1425*%
%ADD658R,0.0002X0.1421*%
%ADD659R,0.0001X0.1418*%
%ADD660R,0.0001X0.1416*%
%ADD661R,0.0001X0.1413*%
%ADD662R,0.0001X0.1410*%
%ADD663R,0.0001X0.1404*%
%ADD664R,0.0001X0.1401*%
%ADD665R,0.0001X0.0346*%
%ADD666R,0.0001X0.1044*%
%ADD667R,0.0002X0.0342*%
%ADD668R,0.0002X0.1040*%
%ADD669R,0.0001X0.0337*%
%ADD670R,0.0001X0.1034*%
%ADD671R,0.0001X0.0357*%
%ADD672R,0.0001X0.0660*%
%ADD673R,0.0001X0.0353*%
%ADD674R,0.0001X0.0327*%
%ADD675R,0.0001X0.0349*%
%ADD676R,0.0001X0.0321*%
%ADD677R,0.0001X0.0648*%
%ADD678R,0.0001X0.0344*%
%ADD679R,0.0001X0.0317*%
%ADD680R,0.0001X0.0339*%
%ADD681R,0.0001X0.0312*%
%ADD682R,0.0001X0.0631*%
%ADD683R,0.0001X0.0334*%
%ADD684R,0.0001X0.0309*%
%ADD685R,0.0002X0.0307*%
%ADD686R,0.0002X0.0623*%
%ADD687R,0.0002X0.0327*%
%ADD688R,0.0001X0.0618*%
%ADD689R,0.0001X0.0297*%
%ADD690R,0.0001X0.0607*%
%ADD691R,0.0001X0.0320*%
%ADD692R,0.0001X0.0293*%
%ADD693R,0.0001X0.0599*%
%ADD694R,0.0001X0.0313*%
%ADD695R,0.0001X0.0285*%
%ADD696R,0.0001X0.0584*%
%ADD697R,0.0001X0.0303*%
%ADD698R,0.0001X0.0281*%
%ADD699R,0.0002X0.0273*%
%ADD700R,0.0002X0.0563*%
%ADD701R,0.0002X0.0293*%
%ADD702R,0.0001X0.0264*%
%ADD703R,0.0001X0.0259*%
%ADD704R,0.0001X0.0256*%
%ADD705R,0.0001X0.0276*%
%ADD706R,0.0001X0.0252*%
%ADD707R,0.0001X0.0273*%
%ADD708R,0.0001X0.0248*%
%ADD709R,0.0001X0.0269*%
%ADD710R,0.0001X0.0245*%
%ADD711R,0.0001X0.0240*%
%ADD712R,0.0002X0.0237*%
%ADD713R,0.0002X0.0256*%
%ADD714R,0.0001X0.0234*%
%ADD715R,0.0001X0.0232*%
%ADD716R,0.0001X0.0251*%
%ADD717R,0.0001X0.0228*%
%ADD718R,0.0001X0.0246*%
%ADD719R,0.0001X0.0456*%
%ADD720R,0.0001X0.0219*%
%ADD721R,0.0001X0.0444*%
%ADD722R,0.0001X0.0237*%
%ADD723R,0.0001X0.0214*%
%ADD724R,0.0001X0.0436*%
%ADD725R,0.0001X0.0432*%
%ADD726R,0.0001X0.0231*%
%ADD727R,0.0001X0.0210*%
%ADD728R,0.0001X0.0426*%
%ADD729R,0.0001X0.0420*%
%ADD730R,0.0001X0.0226*%
%ADD731R,0.0002X0.0204*%
%ADD732R,0.0002X0.0409*%
%ADD733R,0.0002X0.0222*%
%ADD734R,0.0001X0.0391*%
%ADD735R,0.0001X0.0217*%
%ADD736R,0.0001X0.0376*%
%ADD737R,0.0001X0.0368*%
%ADD738R,0.0001X0.0189*%
%ADD739R,0.0001X0.0361*%
%ADD740R,0.0001X0.0206*%
%ADD741R,0.0001X0.0186*%
%ADD742R,0.0001X0.0356*%
%ADD743R,0.0001X0.0181*%
%ADD744R,0.0001X0.0345*%
%ADD745R,0.0001X0.0173*%
%ADD746R,0.0001X0.0331*%
%ADD747R,0.0001X0.0190*%
%ADD748R,0.0001X0.0168*%
%ADD749R,0.0002X0.0165*%
%ADD750R,0.0001X0.0162*%
%ADD751R,0.0001X0.0159*%
%ADD752R,0.0001X0.0177*%
%ADD753R,0.0001X0.0156*%
%ADD754R,0.0001X0.0324*%
%ADD755R,0.0001X0.0174*%
%ADD756R,0.0001X0.0167*%
%ADD757R,0.0001X0.0146*%
%ADD758R,0.0001X0.0163*%
%ADD759R,0.0001X0.0141*%
%ADD760R,0.0001X0.0140*%
%ADD761R,0.0001X0.0137*%
%ADD762R,0.0001X0.0133*%
%ADD763R,0.0002X0.0129*%
%ADD764R,0.0002X0.0321*%
%ADD765R,0.0002X0.0146*%
%ADD766R,0.0001X0.0119*%
%ADD767R,0.0001X0.0129*%
%ADD768R,0.0001X0.0111*%
%ADD769R,0.0001X0.0126*%
%ADD770R,0.0001X0.0318*%
%ADD771R,0.0001X0.0097*%
%ADD772R,0.0001X0.0315*%
%ADD773R,0.0002X0.0089*%
%ADD774R,0.0002X0.0315*%
%ADD775R,0.0002X0.0105*%
%ADD776R,0.0001X0.0079*%
%ADD777R,0.0001X0.0089*%
%ADD778R,0.0001X0.0069*%
%ADD779R,0.0001X0.0084*%
%ADD780R,0.0001X0.0057*%
%ADD781R,0.0002X0.0052*%
%ADD782R,0.0002X0.0311*%
%ADD783R,0.0002X0.0066*%
%ADD784R,0.0001X0.0061*%
%ADD785R,0.0001X0.0042*%
%ADD786R,0.0001X0.0055*%
%ADD787R,0.0001X0.0039*%
%ADD788R,0.0001X0.0052*%
%ADD789R,0.0001X0.0036*%
%ADD790R,0.0001X0.0049*%
%ADD791R,0.0001X0.0307*%
%ADD792R,0.0001X0.0045*%
%ADD793R,0.0001X0.0022*%
%ADD794R,0.0001X0.0035*%
%ADD795R,0.0002X0.0025*%
%ADD796R,0.0001X0.0306*%
%ADD797R,0.0001X0.0018*%
%ADD798R,0.0001X0.0008*%
%ADD799R,0.0002X0.0300*%
%ADD800R,0.0001X0.0296*%
%ADD801R,0.0002X0.0294*%
%ADD802R,0.0001X0.0294*%
%ADD803R,0.0001X0.0291*%
%ADD804R,0.0002X0.0291*%
%ADD805R,0.0001X0.0286*%
%ADD806R,0.0002X0.0281*%
%ADD807R,0.0001X0.0277*%
%ADD808R,0.0001X0.0276*%
%ADD809R,0.0002X0.0266*%
%ADD810R,0.0001X0.0264*%
%ADD811R,0.0001X0.0261*%
%ADD812R,0.0002X0.0259*%
%ADD813R,0.0002X0.0254*%
%ADD814R,0.0002X0.0248*%
%ADD815R,0.0002X0.0218*%
%ADD816R,0.0001X0.0157*%
%ADD817C,0.0050*%
%ADD818C,0.0100*%
%ADD819C,0.0070*%
%ADD820C,0.0090*%
%ADD821R,0.0900X0.0250*%
%ADD822C,0.0240*%
%ADD823C,0.0020*%
%ADD824R,0.0079X0.0551*%
%ADD825C,0.0030*%
%ADD826R,0.0500X0.0350*%
%ADD827R,0.0400X0.6200*%
%ADD828R,0.0200X0.0400*%
%ADD829R,0.0200X0.0850*%
%ADD830C,0.0217*%
%ADD831R,0.0197X0.3150*%
%ADD832R,0.0225X0.0300*%
%ADD833C,0.0080*%
%ADD834R,0.1800X0.0300*%
%ADD835C,0.0120*%
%ADD836R,0.0750X0.4500*%
%ADD837R,0.0327X0.0299*%
%ADD838R,0.0358X0.0299*%
D10*
X007862Y010277D02*
X008362Y010277D01*
X008862Y010277D01*
X008862Y010627D02*
X008362Y010627D01*
X007862Y010627D01*
X026422Y005927D02*
X029422Y005927D01*
X027922Y008427D01*
X026422Y005927D01*
X027799Y006220D02*
X027915Y006220D01*
X027822Y006177D02*
X028072Y006927D01*
X027572Y006927D01*
X027822Y007677D01*
X027802Y007646D02*
X027982Y007646D01*
X028022Y007727D02*
X027622Y006927D01*
X027822Y007727D01*
X028022Y007727D01*
X027902Y007488D02*
X027762Y007488D01*
X027723Y007329D02*
X027823Y007329D01*
X027744Y007171D02*
X027683Y007171D01*
X027665Y007012D02*
X027643Y007012D01*
X027722Y006527D02*
X028122Y006427D01*
X027822Y006127D01*
X027722Y006527D01*
X027759Y006378D02*
X028073Y006378D01*
X030137Y016052D02*
X030637Y016052D01*
X031137Y016052D01*
X031137Y016402D02*
X030637Y016402D01*
X030137Y016402D01*
D11*
X030637Y016402D02*
X030637Y016602D01*
X030637Y016052D02*
X030637Y014502D01*
X031537Y013502D02*
X031554Y013504D01*
X031571Y013508D01*
X031587Y013515D01*
X031601Y013525D01*
X031614Y013538D01*
X031624Y013552D01*
X031631Y013568D01*
X031635Y013585D01*
X031637Y013602D01*
X031637Y017502D01*
X031635Y017519D01*
X031631Y017536D01*
X031624Y017552D01*
X031614Y017566D01*
X031601Y017579D01*
X031587Y017589D01*
X031571Y017596D01*
X031554Y017600D01*
X031537Y017602D01*
X029737Y017602D01*
X029720Y017600D01*
X029703Y017596D01*
X029687Y017589D01*
X029673Y017579D01*
X029660Y017566D01*
X029650Y017552D01*
X029643Y017536D01*
X029639Y017519D01*
X029637Y017502D01*
X029637Y013602D01*
X029639Y013585D01*
X029643Y013568D01*
X029650Y013552D01*
X029660Y013538D01*
X029673Y013525D01*
X029687Y013515D01*
X029703Y013508D01*
X029720Y013504D01*
X029737Y013502D01*
X031537Y013502D01*
X032225Y009138D02*
X032225Y008777D01*
X032225Y008597D02*
X032225Y008507D01*
X032033Y008507D02*
X032033Y009048D01*
X031673Y009048D02*
X032033Y008507D01*
X031673Y008507D02*
X031673Y009048D01*
X031481Y008958D02*
X031391Y009048D01*
X031211Y009048D01*
X031120Y008958D01*
X031120Y008597D01*
X031211Y008507D01*
X031391Y008507D01*
X031481Y008597D01*
X031481Y008958D01*
X030932Y009048D02*
X030752Y009048D01*
X030842Y009048D02*
X030842Y008507D01*
X030752Y008507D02*
X030932Y008507D01*
X030380Y008507D02*
X030380Y009048D01*
X030200Y009048D02*
X030560Y009048D01*
X030008Y009048D02*
X030008Y008597D01*
X029917Y008507D01*
X029737Y008507D01*
X029647Y008597D01*
X029647Y009048D01*
X029455Y008867D02*
X029455Y008507D01*
X029455Y008777D02*
X029095Y008777D01*
X029095Y008867D02*
X029275Y009048D01*
X029455Y008867D01*
X029095Y008867D02*
X029095Y008507D01*
X028903Y008597D02*
X028813Y008507D01*
X028632Y008507D01*
X028542Y008597D01*
X028542Y008958D01*
X028632Y009048D01*
X028813Y009048D01*
X028903Y008958D01*
X027398Y008362D02*
X027398Y012362D01*
X025198Y012362D01*
X025198Y008362D01*
X027398Y008362D01*
X026298Y009362D02*
X026298Y011362D01*
X025923Y010487D02*
X026048Y010362D01*
X026548Y010362D01*
X026673Y010237D01*
X025092Y008362D02*
X025092Y012362D01*
X022892Y012362D01*
X022892Y008362D01*
X025092Y008362D01*
X023992Y009362D02*
X023992Y011362D01*
X023617Y010487D02*
X023742Y010362D01*
X024242Y010362D01*
X024367Y010237D01*
X020219Y009277D02*
X020219Y009057D01*
X020219Y009277D02*
X020146Y009351D01*
X019999Y009351D01*
X019926Y009277D01*
X019766Y009351D02*
X019619Y009351D01*
X019692Y009424D02*
X019692Y009131D01*
X019766Y009057D01*
X019926Y009057D02*
X019926Y009498D01*
X019455Y009351D02*
X019382Y009351D01*
X019235Y009204D01*
X019235Y009057D02*
X019235Y009351D01*
X019068Y009277D02*
X019068Y009057D01*
X018848Y009057D01*
X018775Y009131D01*
X018848Y009204D01*
X019068Y009204D01*
X019068Y009277D02*
X018995Y009351D01*
X018848Y009351D01*
X018608Y009498D02*
X018314Y009498D01*
X018314Y009057D01*
X018608Y009057D01*
X018461Y009277D02*
X018314Y009277D01*
X017694Y009351D02*
X017547Y009351D01*
X017620Y009424D02*
X017620Y009131D01*
X017694Y009057D01*
X017380Y009057D02*
X017380Y009351D01*
X017087Y009351D02*
X017087Y009131D01*
X017160Y009057D01*
X017380Y009057D01*
X016920Y009131D02*
X016920Y009277D01*
X016846Y009351D01*
X016700Y009351D01*
X016626Y009277D01*
X016626Y009131D01*
X016700Y009057D01*
X016846Y009057D01*
X016920Y009131D01*
X016459Y009057D02*
X016166Y009057D01*
X016166Y009498D01*
X015545Y009351D02*
X015398Y009351D01*
X015472Y009424D02*
X015472Y009131D01*
X015545Y009057D01*
X015232Y009057D02*
X015232Y009351D01*
X015232Y009057D02*
X015011Y009057D01*
X014938Y009131D01*
X014938Y009351D01*
X014771Y009277D02*
X014698Y009351D01*
X014551Y009351D01*
X014478Y009277D01*
X014478Y009131D01*
X014551Y009057D01*
X014698Y009057D01*
X014771Y009131D01*
X014771Y009277D01*
X014311Y009057D02*
X014311Y009498D01*
X014017Y009498D02*
X014017Y009057D01*
X014311Y009057D02*
X014017Y009498D01*
X013127Y009277D02*
X013127Y009057D01*
X013127Y009277D02*
X013053Y009351D01*
X012833Y009351D01*
X012833Y009057D01*
X012673Y009057D02*
X012526Y009057D01*
X012600Y009057D02*
X012600Y009351D01*
X012526Y009351D01*
X012600Y009498D02*
X012600Y009571D01*
X012359Y009057D02*
X012066Y009057D01*
X012066Y009498D01*
X010978Y009277D02*
X010978Y009057D01*
X010978Y009277D02*
X010905Y009351D01*
X010685Y009351D01*
X010685Y009057D01*
X010524Y009057D02*
X010378Y009057D01*
X010451Y009057D02*
X010451Y009351D01*
X010378Y009351D01*
X010451Y009498D02*
X010451Y009571D01*
X010211Y009498D02*
X010211Y009057D01*
X009917Y009498D01*
X009917Y009057D01*
X009562Y009127D02*
X009562Y013927D01*
X009560Y013953D01*
X009555Y013979D01*
X009547Y014004D01*
X009535Y014027D01*
X009521Y014049D01*
X009503Y014068D01*
X009484Y014086D01*
X009462Y014100D01*
X009439Y014112D01*
X009414Y014120D01*
X009388Y014125D01*
X009362Y014127D01*
X007362Y014127D01*
X007336Y014125D01*
X007310Y014120D01*
X007285Y014112D01*
X007262Y014100D01*
X007240Y014086D01*
X007221Y014068D01*
X007203Y014049D01*
X007189Y014027D01*
X007177Y014004D01*
X007169Y013979D01*
X007164Y013953D01*
X007162Y013927D01*
X007162Y009127D01*
X007164Y009101D01*
X007169Y009075D01*
X007177Y009050D01*
X007189Y009027D01*
X007203Y009005D01*
X007221Y008986D01*
X007240Y008968D01*
X007262Y008954D01*
X007285Y008942D01*
X007310Y008934D01*
X007336Y008929D01*
X007362Y008927D01*
X009362Y008927D01*
X009388Y008929D01*
X009414Y008934D01*
X009439Y008942D01*
X009462Y008954D01*
X009484Y008968D01*
X009503Y008986D01*
X009521Y009005D01*
X009535Y009027D01*
X009547Y009050D01*
X009555Y009075D01*
X009560Y009101D01*
X009562Y009127D01*
X008362Y010027D02*
X008362Y010277D01*
X008362Y010627D02*
X008362Y013027D01*
X008037Y017002D02*
X007387Y017652D01*
X007387Y017002D01*
X009987Y017002D01*
X009987Y018022D01*
X009987Y018582D02*
X009987Y019602D01*
X007387Y019602D01*
X007387Y018582D01*
X007297Y018802D02*
X006997Y018802D01*
X007147Y018952D02*
X007147Y018652D01*
X007387Y018952D02*
X008037Y019602D01*
X006987Y019702D02*
X010387Y019702D01*
X010387Y016902D01*
X006987Y016902D01*
X006987Y019702D01*
X007387Y018022D02*
X007387Y017652D01*
X008337Y036252D02*
X008012Y036502D01*
X008337Y036727D01*
X008337Y036252D01*
X008337Y036257D02*
X008331Y036257D01*
X008337Y036315D02*
X008255Y036315D01*
X008179Y036374D02*
X008337Y036374D01*
X008337Y036432D02*
X008103Y036432D01*
X008027Y036491D02*
X008337Y036491D01*
X008337Y036549D02*
X008080Y036549D01*
X008165Y036608D02*
X008337Y036608D01*
X008337Y036666D02*
X008249Y036666D01*
X008334Y036725D02*
X008337Y036725D01*
X008387Y038477D02*
X007587Y038477D01*
X007487Y038577D01*
X007487Y039377D01*
X007587Y039477D01*
X008387Y039477D01*
X008487Y039377D01*
X008587Y039477D01*
X009387Y039477D01*
X009487Y039377D01*
X009487Y038577D01*
X009387Y038477D01*
X008587Y038477D01*
X008487Y038577D01*
X008387Y038477D01*
X020382Y038012D02*
X020382Y037422D01*
X020403Y037420D01*
X020423Y037415D01*
X020442Y037406D01*
X020459Y037394D01*
X020474Y037379D01*
X020486Y037362D01*
X020495Y037343D01*
X020500Y037323D01*
X020502Y037302D01*
X020500Y037281D01*
X020495Y037261D01*
X020486Y037242D01*
X020474Y037225D01*
X020459Y037210D01*
X020442Y037198D01*
X020423Y037189D01*
X020403Y037184D01*
X020382Y037182D01*
X020382Y036592D01*
X022342Y036592D02*
X022342Y038012D01*
X020912Y039927D02*
X020587Y040177D01*
X020912Y040402D01*
X020912Y039927D01*
X020912Y039942D02*
X020893Y039942D01*
X020912Y040001D02*
X020817Y040001D01*
X020740Y040059D02*
X020912Y040059D01*
X020912Y040118D02*
X020664Y040118D01*
X020588Y040176D02*
X020912Y040176D01*
X020912Y040235D02*
X020671Y040235D01*
X020755Y040293D02*
X020912Y040293D01*
X020912Y040352D02*
X020840Y040352D01*
X025746Y036029D02*
X029189Y036029D01*
X029189Y033525D01*
X025746Y033525D01*
X025746Y035826D01*
X029149Y035826D01*
X029646Y035826D02*
X033049Y035826D01*
X033089Y036029D02*
X033089Y033525D01*
X029646Y033525D01*
X029646Y035826D01*
X029646Y036029D01*
X033089Y036029D01*
X026947Y039628D02*
X026947Y039878D01*
X026497Y039878D01*
X026047Y039878D01*
X026047Y039628D01*
X026947Y039628D01*
X024497Y039528D02*
X024499Y039626D01*
X024507Y039724D01*
X024519Y039821D01*
X024535Y039918D01*
X024557Y040014D01*
X024583Y040109D01*
X024614Y040202D01*
X024649Y040293D01*
X024689Y040383D01*
X024733Y040471D01*
X024782Y040556D01*
X024834Y040639D01*
X024891Y040719D01*
X024951Y040797D01*
X025015Y040871D01*
X025083Y040942D01*
X025154Y041010D01*
X025228Y041074D01*
X025306Y041134D01*
X025386Y041191D01*
X025469Y041243D01*
X025554Y041292D01*
X025642Y041336D01*
X025732Y041376D01*
X025823Y041411D01*
X025916Y041442D01*
X026011Y041468D01*
X026107Y041490D01*
X026204Y041506D01*
X026301Y041518D01*
X026399Y041526D01*
X026497Y041528D01*
X026595Y041526D01*
X026693Y041518D01*
X026790Y041506D01*
X026887Y041490D01*
X026983Y041468D01*
X027078Y041442D01*
X027171Y041411D01*
X027262Y041376D01*
X027352Y041336D01*
X027440Y041292D01*
X027525Y041243D01*
X027608Y041191D01*
X027688Y041134D01*
X027766Y041074D01*
X027840Y041010D01*
X027911Y040942D01*
X027979Y040871D01*
X028043Y040797D01*
X028103Y040719D01*
X028160Y040639D01*
X028212Y040556D01*
X028261Y040471D01*
X028305Y040383D01*
X028345Y040293D01*
X028380Y040202D01*
X028411Y040109D01*
X028437Y040014D01*
X028459Y039918D01*
X028475Y039821D01*
X028487Y039724D01*
X028495Y039626D01*
X028497Y039528D01*
X028495Y039430D01*
X028487Y039332D01*
X028475Y039235D01*
X028459Y039138D01*
X028437Y039042D01*
X028411Y038947D01*
X028380Y038854D01*
X028345Y038763D01*
X028305Y038673D01*
X028261Y038585D01*
X028212Y038500D01*
X028160Y038417D01*
X028103Y038337D01*
X028043Y038259D01*
X027979Y038185D01*
X027911Y038114D01*
X027840Y038046D01*
X027766Y037982D01*
X027688Y037922D01*
X027608Y037865D01*
X027525Y037813D01*
X027440Y037764D01*
X027352Y037720D01*
X027262Y037680D01*
X027171Y037645D01*
X027078Y037614D01*
X026983Y037588D01*
X026887Y037566D01*
X026790Y037550D01*
X026693Y037538D01*
X026595Y037530D01*
X026497Y037528D01*
X026399Y037530D01*
X026301Y037538D01*
X026204Y037550D01*
X026107Y037566D01*
X026011Y037588D01*
X025916Y037614D01*
X025823Y037645D01*
X025732Y037680D01*
X025642Y037720D01*
X025554Y037764D01*
X025469Y037813D01*
X025386Y037865D01*
X025306Y037922D01*
X025228Y037982D01*
X025154Y038046D01*
X025083Y038114D01*
X025015Y038185D01*
X024951Y038259D01*
X024891Y038337D01*
X024834Y038417D01*
X024782Y038500D01*
X024733Y038585D01*
X024689Y038673D01*
X024649Y038763D01*
X024614Y038854D01*
X024583Y038947D01*
X024557Y039042D01*
X024535Y039138D01*
X024519Y039235D01*
X024507Y039332D01*
X024499Y039430D01*
X024497Y039528D01*
X026497Y039278D02*
X026497Y039078D01*
X026497Y039878D02*
X026497Y039978D01*
X026997Y040878D02*
X026997Y041178D01*
X027147Y041028D02*
X026847Y041028D01*
X025746Y036029D02*
X025746Y035826D01*
X026362Y026452D02*
X027612Y026502D01*
X026362Y026452D02*
X026212Y026302D01*
X026212Y020802D01*
X026362Y020652D01*
X027612Y020602D01*
X030012Y020602D02*
X031262Y020652D01*
X031412Y020802D01*
X031412Y026302D01*
X031262Y026452D01*
X030012Y026502D01*
D12*
X033359Y005427D02*
X006588Y005427D01*
X006588Y044797D01*
X033359Y044797D01*
X033359Y005427D01*
D13*
X020902Y013207D02*
X020662Y013207D01*
X020782Y013207D02*
X020782Y013567D01*
X020662Y013447D01*
X020534Y013387D02*
X020474Y013327D01*
X020294Y013327D01*
X020294Y013207D02*
X020294Y013567D01*
X020474Y013567D01*
X020534Y013507D01*
X020534Y013387D01*
X020414Y013327D02*
X020534Y013207D01*
X020166Y013207D02*
X020166Y013447D01*
X020046Y013567D01*
X019926Y013447D01*
X019926Y013207D01*
X019797Y013267D02*
X019737Y013207D01*
X019617Y013207D01*
X019557Y013267D01*
X019617Y013387D02*
X019737Y013387D01*
X019797Y013327D01*
X019797Y013267D01*
X019926Y013387D02*
X020166Y013387D01*
X019797Y013507D02*
X019737Y013567D01*
X019617Y013567D01*
X019557Y013507D01*
X019557Y013447D01*
X019617Y013387D01*
X008556Y023197D02*
X008556Y023557D01*
X008376Y023377D01*
X008616Y023377D01*
X008247Y023197D02*
X008007Y023557D01*
X008247Y023557D02*
X008007Y023197D01*
X015335Y032578D02*
X015455Y032578D01*
X015515Y032638D01*
X015515Y032758D01*
X015395Y032758D01*
X015275Y032638D02*
X015335Y032578D01*
X015275Y032638D02*
X015275Y032879D01*
X015335Y032939D01*
X015455Y032939D01*
X015515Y032879D01*
X015643Y032818D02*
X015823Y032818D01*
X015883Y032758D01*
X015883Y032578D01*
X016011Y032638D02*
X016011Y032758D01*
X016071Y032818D01*
X016251Y032818D01*
X016251Y032939D02*
X016251Y032578D01*
X016071Y032578D01*
X016011Y032638D01*
X015643Y032578D02*
X015643Y032818D01*
X015763Y033408D02*
X015823Y033408D01*
X015883Y033468D01*
X015883Y033768D01*
X016011Y033768D02*
X016191Y033768D01*
X016251Y033708D01*
X016251Y033528D01*
X016380Y033588D02*
X016440Y033528D01*
X016620Y033528D01*
X016620Y033768D02*
X016440Y033768D01*
X016380Y033708D01*
X016380Y033588D01*
X016011Y033528D02*
X016011Y033768D01*
X015883Y033528D02*
X015703Y033528D01*
X015643Y033588D01*
X015643Y033768D01*
X015515Y033829D02*
X015455Y033889D01*
X015335Y033889D01*
X015275Y033829D01*
X015275Y033768D01*
X015335Y033708D01*
X015455Y033708D01*
X015515Y033648D01*
X015515Y033588D01*
X015455Y033528D01*
X015335Y033528D01*
X015275Y033588D01*
X015370Y034488D02*
X015370Y034729D01*
X015250Y034608D02*
X015490Y034608D01*
X015618Y034608D02*
X015738Y034668D01*
X015798Y034668D01*
X015858Y034608D01*
X015858Y034488D01*
X015798Y034428D01*
X015678Y034428D01*
X015618Y034488D01*
X015618Y034608D02*
X015618Y034789D01*
X015858Y034789D01*
X015986Y034789D02*
X015986Y034548D01*
X016106Y034428D01*
X016226Y034548D01*
X016226Y034789D01*
X018346Y033832D02*
X018526Y033832D01*
X018586Y033772D01*
X018586Y033652D01*
X018526Y033592D01*
X018346Y033592D01*
X018466Y033592D02*
X018586Y033472D01*
X018714Y033472D02*
X018714Y033532D01*
X018954Y033772D01*
X018954Y033832D01*
X018714Y033832D01*
X018346Y033832D02*
X018346Y033472D01*
X018346Y033082D02*
X018526Y033082D01*
X018586Y033022D01*
X018586Y032902D01*
X018526Y032842D01*
X018346Y032842D01*
X018466Y032842D02*
X018586Y032722D01*
X018714Y032782D02*
X018714Y032842D01*
X018774Y032902D01*
X018894Y032902D01*
X018954Y032842D01*
X018954Y032782D01*
X018894Y032722D01*
X018774Y032722D01*
X018714Y032782D01*
X018774Y032902D02*
X018714Y032962D01*
X018714Y033022D01*
X018774Y033082D01*
X018894Y033082D01*
X018954Y033022D01*
X018954Y032962D01*
X018894Y032902D01*
X018346Y032722D02*
X018346Y033082D01*
X019467Y035397D02*
X019407Y035457D01*
X019407Y035697D01*
X019467Y035757D01*
X019587Y035757D01*
X019647Y035697D01*
X019776Y035577D02*
X020016Y035577D01*
X019956Y035397D02*
X019956Y035757D01*
X019776Y035577D01*
X019647Y035457D02*
X019587Y035397D01*
X019467Y035397D01*
X019542Y037422D02*
X019662Y037422D01*
X019722Y037482D01*
X019851Y037482D02*
X019851Y037542D01*
X019911Y037602D01*
X020031Y037602D01*
X020091Y037542D01*
X020091Y037482D01*
X020031Y037422D01*
X019911Y037422D01*
X019851Y037482D01*
X019911Y037602D02*
X019851Y037662D01*
X019851Y037722D01*
X019911Y037782D01*
X020031Y037782D01*
X020091Y037722D01*
X020091Y037662D01*
X020031Y037602D01*
X019722Y037722D02*
X019662Y037782D01*
X019542Y037782D01*
X019482Y037722D01*
X019482Y037482D01*
X019542Y037422D01*
X020467Y039397D02*
X020587Y039397D01*
X020647Y039457D01*
X020776Y039457D02*
X020836Y039397D01*
X020956Y039397D01*
X021016Y039457D01*
X021016Y039517D01*
X020956Y039577D01*
X020896Y039577D01*
X020956Y039577D02*
X021016Y039637D01*
X021016Y039697D01*
X020956Y039757D01*
X020836Y039757D01*
X020776Y039697D01*
X020647Y039697D02*
X020587Y039757D01*
X020467Y039757D01*
X020407Y039697D01*
X020407Y039457D01*
X020467Y039397D01*
X019466Y040307D02*
X019466Y040367D01*
X019406Y040427D01*
X019226Y040427D01*
X019226Y040307D01*
X019286Y040247D01*
X019406Y040247D01*
X019466Y040307D01*
X019346Y040547D02*
X019226Y040427D01*
X019346Y040547D02*
X019466Y040607D01*
X019097Y040547D02*
X019037Y040607D01*
X018917Y040607D01*
X018857Y040547D01*
X018857Y040307D01*
X018917Y040247D01*
X019037Y040247D01*
X019097Y040307D01*
X021267Y039242D02*
X021387Y039242D01*
X021327Y039242D02*
X021327Y038882D01*
X021267Y038882D02*
X021387Y038882D01*
X021513Y038942D02*
X021573Y038882D01*
X021693Y038882D01*
X021753Y038942D01*
X021881Y038882D02*
X022121Y038882D01*
X022001Y038882D02*
X022001Y039242D01*
X021881Y039122D01*
X021753Y039182D02*
X021693Y039242D01*
X021573Y039242D01*
X021513Y039182D01*
X021513Y038942D01*
X022932Y039432D02*
X022992Y039372D01*
X023112Y039372D01*
X023172Y039432D01*
X023301Y039432D02*
X023301Y039372D01*
X023301Y039432D02*
X023541Y039672D01*
X023541Y039732D01*
X023301Y039732D01*
X023172Y039672D02*
X023112Y039732D01*
X022992Y039732D01*
X022932Y039672D01*
X022932Y039432D01*
X022581Y040847D02*
X022461Y040847D01*
X022401Y040907D01*
X022461Y041027D02*
X022641Y041027D01*
X022641Y040907D02*
X022641Y041147D01*
X022581Y041207D01*
X022461Y041207D01*
X022401Y041147D01*
X022401Y041087D01*
X022461Y041027D01*
X022272Y041027D02*
X022212Y040967D01*
X022032Y040967D01*
X022032Y040847D02*
X022032Y041207D01*
X022212Y041207D01*
X022272Y041147D01*
X022272Y041027D01*
X022152Y040967D02*
X022272Y040847D01*
X022581Y040847D02*
X022641Y040907D01*
X024330Y040922D02*
X024483Y040922D01*
X024406Y040922D02*
X024406Y041383D01*
X024330Y041383D02*
X024483Y041383D01*
X024636Y041306D02*
X024636Y040999D01*
X024713Y040922D01*
X024867Y040922D01*
X024943Y040999D01*
X025097Y040922D02*
X025404Y041229D01*
X025404Y041306D01*
X025327Y041383D01*
X025174Y041383D01*
X025097Y041306D01*
X024943Y041306D02*
X024867Y041383D01*
X024713Y041383D01*
X024636Y041306D01*
X025097Y040922D02*
X025404Y040922D01*
X024607Y038284D02*
X024607Y038044D01*
X024607Y038164D02*
X024247Y038164D01*
X024367Y038044D01*
X024607Y037916D02*
X024607Y037675D01*
X024607Y037796D02*
X024247Y037796D01*
X024367Y037675D01*
X024307Y037547D02*
X024427Y037547D01*
X024487Y037487D01*
X024487Y037307D01*
X024487Y037427D02*
X024607Y037547D01*
X024607Y037307D02*
X024247Y037307D01*
X024247Y037487D01*
X024307Y037547D01*
X023305Y036907D02*
X023305Y036597D01*
X023202Y036597D02*
X023409Y036597D01*
X023202Y036804D02*
X023305Y036907D01*
X022983Y036907D02*
X022983Y036597D01*
X022880Y036597D02*
X023086Y036597D01*
X022880Y036804D02*
X022983Y036907D01*
X022764Y036856D02*
X022712Y036907D01*
X022609Y036907D01*
X022557Y036856D01*
X022557Y036649D01*
X022609Y036597D01*
X022712Y036597D01*
X022764Y036649D01*
X022467Y035784D02*
X022527Y035724D01*
X022527Y035604D01*
X022467Y035544D01*
X022527Y035416D02*
X022527Y035176D01*
X022527Y035296D02*
X022167Y035296D01*
X022287Y035176D01*
X022227Y035047D02*
X022347Y035047D01*
X022407Y034987D01*
X022407Y034807D01*
X022527Y034807D02*
X022167Y034807D01*
X022167Y034987D01*
X022227Y035047D01*
X022407Y034927D02*
X022527Y035047D01*
X022227Y035544D02*
X022167Y035604D01*
X022167Y035724D01*
X022227Y035784D01*
X022287Y035784D01*
X022347Y035724D01*
X022407Y035784D01*
X022467Y035784D01*
X022347Y035724D02*
X022347Y035664D01*
X022267Y033934D02*
X022207Y033934D01*
X022147Y033874D01*
X022147Y033754D01*
X022207Y033694D01*
X022267Y033934D02*
X022507Y033694D01*
X022507Y033934D01*
X022507Y033566D02*
X022507Y033325D01*
X022507Y033446D02*
X022147Y033446D01*
X022267Y033325D01*
X022207Y033197D02*
X022327Y033197D01*
X022387Y033137D01*
X022387Y032957D01*
X022387Y033077D02*
X022507Y033197D01*
X022507Y032957D02*
X022147Y032957D01*
X022147Y033137D01*
X022207Y033197D01*
X024232Y033177D02*
X024232Y033057D01*
X024292Y032997D01*
X024532Y032997D01*
X024592Y033057D01*
X024592Y033177D01*
X024532Y033237D01*
X024592Y033365D02*
X024592Y033606D01*
X024592Y033486D02*
X024232Y033486D01*
X024352Y033365D01*
X024292Y033237D02*
X024232Y033177D01*
X024292Y033734D02*
X024232Y033794D01*
X024232Y033914D01*
X024292Y033974D01*
X024352Y033974D01*
X024412Y033914D01*
X024472Y033974D01*
X024532Y033974D01*
X024592Y033914D01*
X024592Y033794D01*
X024532Y033734D01*
X024412Y033854D02*
X024412Y033914D01*
X024402Y034472D02*
X024462Y034532D01*
X024402Y034472D02*
X024282Y034472D01*
X024222Y034532D01*
X024222Y034772D01*
X024282Y034832D01*
X024402Y034832D01*
X024462Y034772D01*
X024591Y034712D02*
X024711Y034832D01*
X024711Y034472D01*
X024591Y034472D02*
X024831Y034472D01*
X024959Y034472D02*
X025199Y034712D01*
X025199Y034772D01*
X025139Y034832D01*
X025019Y034832D01*
X024959Y034772D01*
X024959Y034472D02*
X025199Y034472D01*
X024607Y035357D02*
X024257Y035357D01*
X024257Y035532D01*
X024315Y035591D01*
X024432Y035591D01*
X024491Y035532D01*
X024491Y035357D01*
X024491Y035474D02*
X024607Y035591D01*
X024607Y035716D02*
X024607Y035950D01*
X024607Y035833D02*
X024257Y035833D01*
X024374Y035716D01*
X024315Y036075D02*
X024257Y036134D01*
X024257Y036251D01*
X024315Y036309D01*
X024549Y036075D01*
X024607Y036134D01*
X024607Y036251D01*
X024549Y036309D01*
X024315Y036309D01*
X024315Y036075D02*
X024549Y036075D01*
X028657Y037922D02*
X028657Y038282D01*
X028837Y038282D01*
X028897Y038222D01*
X028897Y038102D01*
X028837Y038042D01*
X028657Y038042D01*
X028777Y038042D02*
X028897Y037922D01*
X029026Y037982D02*
X029086Y037922D01*
X029206Y037922D01*
X029266Y037982D01*
X029266Y038042D01*
X029206Y038102D01*
X029026Y038102D01*
X029026Y037982D01*
X029026Y038102D02*
X029146Y038222D01*
X029266Y038282D01*
X030457Y038282D02*
X030457Y037922D01*
X030457Y038042D02*
X030637Y038042D01*
X030697Y038102D01*
X030697Y038222D01*
X030637Y038282D01*
X030457Y038282D01*
X030577Y038042D02*
X030697Y037922D01*
X030826Y038102D02*
X031066Y038102D01*
X031006Y037922D02*
X031006Y038282D01*
X030826Y038102D01*
X030228Y039027D02*
X030228Y039244D01*
X031576Y039289D02*
X031592Y039286D01*
X031606Y039280D01*
X031619Y039271D01*
X031630Y039259D01*
X031638Y039246D01*
X031643Y039231D01*
X031645Y039215D01*
X031643Y039199D01*
X031638Y039184D01*
X031630Y039171D01*
X031619Y039159D01*
X031606Y039150D01*
X031592Y039144D01*
X031576Y039141D01*
X031576Y039142D02*
X031560Y039139D01*
X031546Y039133D01*
X031533Y039124D01*
X031522Y039112D01*
X031514Y039099D01*
X031509Y039084D01*
X031507Y039068D01*
X031509Y039052D01*
X031514Y039037D01*
X031522Y039024D01*
X031533Y039012D01*
X031546Y039003D01*
X031560Y038997D01*
X031576Y038994D01*
X031576Y040765D02*
X031560Y040768D01*
X031546Y040774D01*
X031533Y040783D01*
X031522Y040795D01*
X031514Y040808D01*
X031509Y040823D01*
X031507Y040839D01*
X031509Y040855D01*
X031514Y040870D01*
X031522Y040883D01*
X031533Y040895D01*
X031546Y040904D01*
X031560Y040910D01*
X031576Y040913D01*
X031592Y040916D01*
X031606Y040922D01*
X031619Y040931D01*
X031630Y040943D01*
X031638Y040956D01*
X031643Y040971D01*
X031645Y040987D01*
X031643Y041003D01*
X031638Y041018D01*
X031630Y041031D01*
X031619Y041043D01*
X031606Y041052D01*
X031592Y041058D01*
X031576Y041061D01*
X030336Y040923D02*
X030129Y040923D01*
X030228Y041031D02*
X030228Y040815D01*
X013567Y040564D02*
X013567Y040444D01*
X013507Y040384D01*
X013267Y040624D01*
X013507Y040624D01*
X013567Y040564D01*
X013507Y040384D02*
X013267Y040384D01*
X013207Y040444D01*
X013207Y040564D01*
X013267Y040624D01*
X013567Y040256D02*
X013567Y040015D01*
X013567Y040136D02*
X013207Y040136D01*
X013327Y040015D01*
X013267Y039887D02*
X013207Y039827D01*
X013207Y039707D01*
X013267Y039647D01*
X013507Y039647D01*
X013567Y039707D01*
X013567Y039827D01*
X013507Y039887D01*
X013507Y039031D02*
X013267Y039031D01*
X013207Y038971D01*
X013207Y038851D01*
X013267Y038790D01*
X013327Y038790D01*
X013387Y038851D01*
X013387Y039031D01*
X013507Y039031D02*
X013567Y038971D01*
X013567Y038851D01*
X013507Y038790D01*
X013507Y038662D02*
X013567Y038602D01*
X013567Y038482D01*
X013507Y038422D01*
X013267Y038422D01*
X013207Y038482D01*
X013207Y038602D01*
X013267Y038662D01*
X013181Y035757D02*
X013061Y035757D01*
X013001Y035697D01*
X012872Y035757D02*
X012632Y035397D01*
X012872Y035397D02*
X012632Y035757D01*
X013001Y035457D02*
X013061Y035397D01*
X013181Y035397D01*
X013241Y035457D01*
X013241Y035517D01*
X013181Y035577D01*
X013121Y035577D01*
X013181Y035577D02*
X013241Y035637D01*
X013241Y035697D01*
X013181Y035757D01*
X011267Y035681D02*
X011267Y035440D01*
X011267Y035561D02*
X010907Y035561D01*
X011027Y035440D01*
X010967Y035312D02*
X011087Y035312D01*
X011147Y035252D01*
X011147Y035072D01*
X011147Y035192D02*
X011267Y035312D01*
X011267Y035072D02*
X010907Y035072D01*
X010907Y035252D01*
X010967Y035312D01*
X010492Y035312D02*
X010372Y035192D01*
X010372Y035252D02*
X010372Y035072D01*
X010492Y035072D02*
X010132Y035072D01*
X010132Y035252D01*
X010192Y035312D01*
X010312Y035312D01*
X010372Y035252D01*
X010252Y035440D02*
X010132Y035561D01*
X010492Y035561D01*
X010492Y035681D02*
X010492Y035440D01*
X010432Y035809D02*
X010312Y035809D01*
X010312Y035989D01*
X010372Y036049D01*
X010432Y036049D01*
X010492Y035989D01*
X010492Y035869D01*
X010432Y035809D01*
X010312Y035809D02*
X010192Y035929D01*
X010132Y036049D01*
X010907Y036049D02*
X010907Y035809D01*
X011087Y035809D01*
X011027Y035929D01*
X011027Y035989D01*
X011087Y036049D01*
X011207Y036049D01*
X011267Y035989D01*
X011267Y035869D01*
X011207Y035809D01*
X009649Y037772D02*
X009529Y037772D01*
X009469Y037832D01*
X009469Y037952D02*
X009589Y038012D01*
X009649Y038012D01*
X009709Y037952D01*
X009709Y037832D01*
X009649Y037772D01*
X009469Y037952D02*
X009469Y038132D01*
X009709Y038132D01*
X009607Y038392D02*
X009607Y038572D01*
X009667Y038632D01*
X009787Y038632D01*
X009847Y038572D01*
X009847Y038392D01*
X009967Y038392D02*
X009607Y038392D01*
X009847Y038512D02*
X009967Y038632D01*
X009967Y038761D02*
X009967Y039001D01*
X009967Y038881D02*
X009607Y038881D01*
X009727Y038761D01*
X009787Y039129D02*
X009607Y039309D01*
X009967Y039309D01*
X009787Y039369D02*
X009787Y039129D01*
X009221Y038132D02*
X009221Y037772D01*
X009101Y037772D02*
X009341Y037772D01*
X009101Y038012D02*
X009221Y038132D01*
X008972Y038072D02*
X008912Y038132D01*
X008792Y038132D01*
X008732Y038072D01*
X008732Y037832D01*
X008792Y037772D01*
X008912Y037772D01*
X008972Y037832D01*
X008233Y037241D02*
X008173Y037301D01*
X008053Y037301D01*
X007993Y037241D01*
X007864Y037241D02*
X007804Y037301D01*
X007624Y037301D01*
X007624Y036941D01*
X007804Y036941D01*
X007864Y037001D01*
X007864Y037241D01*
X007993Y036941D02*
X008233Y037181D01*
X008233Y037241D01*
X008233Y036941D02*
X007993Y036941D01*
X007977Y040047D02*
X007977Y040407D01*
X008157Y040407D01*
X008218Y040347D01*
X008218Y040227D01*
X008157Y040167D01*
X007977Y040167D01*
X008097Y040167D02*
X008218Y040047D01*
X008346Y040047D02*
X008586Y040047D01*
X008466Y040047D02*
X008466Y040407D01*
X008346Y040287D01*
X008714Y040287D02*
X008714Y040347D01*
X008774Y040407D01*
X008894Y040407D01*
X008954Y040347D01*
X008954Y040287D01*
X008894Y040227D01*
X008774Y040227D01*
X008714Y040287D01*
X008774Y040227D02*
X008714Y040167D01*
X008714Y040107D01*
X008774Y040047D01*
X008894Y040047D01*
X008954Y040107D01*
X008954Y040167D01*
X008894Y040227D01*
X008714Y040772D02*
X008714Y040832D01*
X008954Y041072D01*
X008954Y041132D01*
X008714Y041132D01*
X008466Y041132D02*
X008466Y040772D01*
X008346Y040772D02*
X008586Y040772D01*
X008346Y041012D02*
X008466Y041132D01*
X008218Y041072D02*
X008218Y040952D01*
X008157Y040892D01*
X007977Y040892D01*
X007977Y040772D02*
X007977Y041132D01*
X008157Y041132D01*
X008218Y041072D01*
X008097Y040892D02*
X008218Y040772D01*
D14*
X008755Y029310D03*
D15*
X009326Y029021D03*
X009239Y029842D03*
D16*
X009325Y029021D03*
D17*
X009323Y029021D03*
D18*
X009322Y029021D03*
D19*
X009320Y029021D03*
X007882Y029030D03*
D20*
X009319Y029021D03*
X009230Y029846D03*
D21*
X009229Y029848D03*
X009317Y029021D03*
D22*
X009316Y029021D03*
D23*
X009314Y029021D03*
D24*
X009313Y029021D03*
X009296Y030160D03*
D25*
X009311Y029022D03*
D26*
X009310Y029023D03*
X009229Y029324D03*
X009220Y029855D03*
D27*
X009218Y029857D03*
X009290Y030158D03*
X009308Y029023D03*
D28*
X009236Y029841D03*
X009308Y030160D03*
D29*
X009289Y030158D03*
X009224Y029321D03*
X009307Y029023D03*
D30*
X009307Y030160D03*
D31*
X009214Y029860D03*
X009223Y029320D03*
X009305Y029023D03*
D32*
X009305Y030160D03*
D33*
X009304Y029023D03*
D34*
X009232Y029844D03*
X009304Y030160D03*
D35*
X009221Y029318D03*
X009302Y029023D03*
D36*
X009239Y029334D03*
X009302Y030160D03*
X007877Y030123D03*
D37*
X009301Y029023D03*
D38*
X009301Y030160D03*
D39*
X009281Y030157D03*
X009299Y029024D03*
D40*
X009233Y029330D03*
X009227Y029849D03*
X009299Y030160D03*
D41*
X009206Y029866D03*
X009214Y029312D03*
X009298Y029024D03*
X007907Y029033D03*
D42*
X007889Y029032D03*
X009298Y030160D03*
D43*
X009278Y030157D03*
X009212Y029311D03*
X009296Y029024D03*
X007901Y030121D03*
X007690Y029563D03*
D44*
X009295Y029025D03*
D45*
X009295Y030160D03*
D46*
X009277Y030156D03*
X009202Y029868D03*
X009293Y029025D03*
X007903Y030120D03*
D47*
X009293Y030160D03*
D48*
X009292Y029026D03*
D49*
X009292Y030159D03*
X007894Y029032D03*
D50*
X007907Y030120D03*
X009199Y029871D03*
X009290Y029025D03*
D51*
X009289Y029026D03*
D52*
X009287Y029026D03*
X009203Y029304D03*
X009193Y029874D03*
X007910Y030118D03*
D53*
X007892Y030121D03*
X009287Y030157D03*
D54*
X009286Y029026D03*
D55*
X009286Y030157D03*
D56*
X009284Y029026D03*
X007919Y029035D03*
X007912Y030118D03*
D57*
X007895Y030121D03*
X009284Y030157D03*
D58*
X009283Y029026D03*
D59*
X009220Y029316D03*
X009283Y030157D03*
X007897Y030121D03*
D60*
X009187Y029879D03*
X009281Y029027D03*
D61*
X009280Y029027D03*
X009194Y029297D03*
X009260Y030154D03*
D62*
X009280Y030156D03*
X009215Y029313D03*
D63*
X009278Y029027D03*
D64*
X009277Y029028D03*
D65*
X009275Y029028D03*
X009178Y029883D03*
D66*
X009275Y030155D03*
D67*
X009274Y029028D03*
X007930Y029037D03*
X007922Y030117D03*
D68*
X007904Y030120D03*
X007910Y029034D03*
X009274Y030156D03*
D69*
X009272Y029028D03*
D70*
X009272Y030155D03*
D71*
X009271Y029029D03*
D72*
X009271Y030155D03*
D73*
X009269Y029029D03*
D74*
X009269Y030155D03*
D75*
X009268Y029029D03*
D76*
X009202Y029304D03*
X009191Y029875D03*
X009268Y030154D03*
D77*
X009266Y029029D03*
D78*
X009266Y030154D03*
D79*
X009245Y030151D03*
X009265Y029030D03*
D80*
X009265Y030154D03*
D81*
X009263Y029030D03*
D82*
X009199Y029300D03*
X009263Y030154D03*
D83*
X009262Y029029D03*
X007934Y030115D03*
D84*
X007916Y030118D03*
X009262Y030153D03*
X009197Y029299D03*
D85*
X009260Y029031D03*
D86*
X009259Y029032D03*
X007946Y029039D03*
D87*
X009259Y030153D03*
D88*
X009236Y030149D03*
X009257Y029032D03*
X007948Y029039D03*
X007693Y029581D03*
D89*
X009179Y029882D03*
X009257Y030152D03*
D90*
X009256Y029032D03*
D91*
X009256Y030152D03*
D92*
X009254Y029032D03*
X007949Y029039D03*
D93*
X009254Y030152D03*
D94*
X009232Y030148D03*
X009253Y029032D03*
X007943Y030114D03*
D95*
X007924Y030117D03*
X009253Y030151D03*
D96*
X009251Y029032D03*
X007952Y029040D03*
D97*
X009251Y030152D03*
D98*
X009250Y029033D03*
D99*
X009250Y030151D03*
D100*
X009227Y030147D03*
X009248Y029034D03*
D101*
X009248Y030151D03*
D102*
X009247Y029034D03*
D103*
X009247Y029339D03*
D104*
X009247Y030151D03*
D105*
X009245Y029034D03*
D106*
X009245Y029339D03*
D107*
X009244Y029035D03*
X007960Y029041D03*
X007697Y029582D03*
D108*
X009244Y029339D03*
D109*
X009244Y030151D03*
D110*
X009221Y030145D03*
X009242Y029035D03*
D111*
X009242Y029337D03*
D112*
X009242Y030151D03*
X007940Y029038D03*
D113*
X009241Y029035D03*
D114*
X009241Y029335D03*
D115*
X009241Y030150D03*
X007936Y030115D03*
D116*
X009217Y030145D03*
X009239Y029036D03*
D117*
X009239Y030150D03*
D118*
X009215Y030145D03*
X009238Y029036D03*
X007960Y030110D03*
D119*
X007883Y029031D03*
X009238Y029332D03*
D120*
X009238Y029841D03*
X007879Y029031D03*
D121*
X009238Y030150D03*
D122*
X009214Y030144D03*
X009236Y029037D03*
X007705Y029581D03*
D123*
X009236Y029332D03*
D124*
X009235Y029037D03*
X009212Y030144D03*
D125*
X009235Y029332D03*
D126*
X009235Y029842D03*
D127*
X009235Y030149D03*
X007940Y030115D03*
D128*
X009233Y029038D03*
D129*
X009233Y029842D03*
D130*
X009233Y030148D03*
X007942Y030114D03*
D131*
X007964Y030109D03*
X007730Y029581D03*
X007729Y029581D03*
X007727Y029581D03*
X007724Y029581D03*
X009232Y029038D03*
D132*
X009232Y029329D03*
X009224Y029850D03*
X007883Y030123D03*
D133*
X007967Y030108D03*
X007738Y029581D03*
X009208Y030142D03*
X009230Y029038D03*
D134*
X009230Y029326D03*
X009221Y029853D03*
D135*
X009230Y030148D03*
X007946Y030113D03*
D136*
X009229Y029039D03*
D137*
X009229Y030147D03*
X007948Y030112D03*
X007955Y029040D03*
D138*
X007979Y029046D03*
X007759Y029580D03*
X007757Y029580D03*
X009203Y030141D03*
X009227Y029040D03*
D139*
X009227Y029323D03*
X007895Y029032D03*
D140*
X007771Y029580D03*
X009226Y029040D03*
D141*
X009226Y029322D03*
D142*
X009226Y029850D03*
D143*
X009226Y030147D03*
D144*
X009224Y029041D03*
X007781Y029581D03*
X007780Y029581D03*
X007778Y029581D03*
X007777Y029581D03*
X007775Y029581D03*
D145*
X009224Y030146D03*
D146*
X009223Y029041D03*
X007789Y029581D03*
D147*
X009223Y029851D03*
D148*
X009223Y030146D03*
D149*
X009221Y029041D03*
X007982Y029047D03*
X007975Y030106D03*
D150*
X007805Y029580D03*
X007804Y029580D03*
X007985Y029047D03*
X009220Y029041D03*
D151*
X009220Y030145D03*
D152*
X009194Y030139D03*
X009218Y029041D03*
X007988Y029047D03*
X007826Y029580D03*
X007825Y029580D03*
X007823Y029580D03*
X007822Y029580D03*
X007820Y029580D03*
X007819Y029580D03*
X007817Y029580D03*
X007979Y030105D03*
D153*
X009218Y029314D03*
D154*
X009218Y030145D03*
D155*
X009193Y030139D03*
X009217Y029042D03*
D156*
X009217Y029313D03*
D157*
X009217Y029857D03*
X007897Y029032D03*
D158*
X009215Y029042D03*
D159*
X009215Y029859D03*
D160*
X009214Y029043D03*
D161*
X009212Y029043D03*
X007862Y029578D03*
X007859Y029578D03*
X007858Y029578D03*
X007984Y030103D03*
D162*
X007894Y030121D03*
X007900Y029032D03*
X009212Y029860D03*
D163*
X009211Y029044D03*
D164*
X009211Y029309D03*
D165*
X009211Y029862D03*
D166*
X009211Y030143D03*
D167*
X009209Y029044D03*
X007886Y029580D03*
X007885Y029580D03*
X007883Y029580D03*
D168*
X007912Y029034D03*
X009209Y029307D03*
X009200Y029869D03*
D169*
X009209Y029864D03*
X007903Y029033D03*
D170*
X007732Y029581D03*
X009209Y030142D03*
D171*
X009182Y030136D03*
X009208Y029045D03*
X007903Y029579D03*
X007901Y029579D03*
X007900Y029579D03*
X007898Y029579D03*
X007897Y029579D03*
D172*
X009208Y029306D03*
D173*
X009208Y029865D03*
X007904Y029032D03*
D174*
X007909Y029578D03*
X007910Y029578D03*
X009206Y029045D03*
D175*
X009206Y029306D03*
X007915Y029035D03*
X007909Y030119D03*
D176*
X007969Y030107D03*
X007748Y029581D03*
X007747Y029581D03*
X007745Y029581D03*
X007976Y029045D03*
X009206Y030142D03*
D177*
X009205Y029045D03*
D178*
X009205Y029305D03*
D179*
X009205Y029866D03*
D180*
X009205Y030142D03*
X007754Y029581D03*
X007753Y029581D03*
X007751Y029581D03*
D181*
X009203Y029046D03*
D182*
X009203Y029866D03*
D183*
X009202Y029046D03*
D184*
X009202Y030141D03*
X007774Y029580D03*
X007772Y029580D03*
X007769Y029580D03*
X007768Y029580D03*
D185*
X007937Y029579D03*
X009200Y029047D03*
D186*
X009200Y029302D03*
X009190Y029876D03*
D187*
X009200Y030140D03*
D188*
X009199Y029047D03*
X008008Y029052D03*
D189*
X007799Y029580D03*
X007798Y029580D03*
X009199Y030139D03*
D190*
X009197Y029047D03*
X007940Y029580D03*
D191*
X009197Y029872D03*
D192*
X009197Y030139D03*
X007978Y030106D03*
X007808Y029579D03*
X007807Y029579D03*
D193*
X009196Y029047D03*
D194*
X009196Y029299D03*
D195*
X009196Y029872D03*
D196*
X009196Y030139D03*
X007816Y029579D03*
D197*
X009194Y029047D03*
D198*
X009194Y029873D03*
X007916Y029035D03*
D199*
X008753Y029138D03*
X008780Y029162D03*
X009088Y029159D03*
X009193Y029120D03*
X009019Y029992D03*
X009022Y029993D03*
X009175Y030053D03*
D200*
X009037Y030001D03*
X009034Y030000D03*
X009032Y030000D03*
X009029Y029998D03*
X008786Y029994D03*
X008410Y029992D03*
X008408Y029991D03*
X008407Y029989D03*
X008443Y029137D03*
X008782Y029163D03*
X008783Y029164D03*
X009095Y029154D03*
X009098Y029152D03*
X009101Y029151D03*
X009191Y029119D03*
D201*
X009191Y030138D03*
D202*
X009172Y030054D03*
X009040Y030003D03*
X008900Y029950D03*
X008404Y029988D03*
X008405Y029172D03*
X008786Y029166D03*
X008788Y029167D03*
X008917Y029217D03*
X008918Y029217D03*
X009104Y029149D03*
X009190Y029119D03*
D203*
X009190Y030137D03*
X007856Y029579D03*
D204*
X008402Y029174D03*
X008404Y029173D03*
X008752Y029134D03*
X009107Y029147D03*
X009109Y029147D03*
X009188Y029119D03*
X008899Y029950D03*
X009041Y030004D03*
X009043Y030005D03*
X009170Y030055D03*
X008402Y029986D03*
D205*
X009188Y029878D03*
D206*
X009188Y030136D03*
X007993Y029050D03*
D207*
X008444Y029134D03*
X008789Y029169D03*
X009110Y029146D03*
X009113Y029145D03*
X009187Y029118D03*
X009044Y030006D03*
X009047Y030007D03*
X009049Y030007D03*
X009050Y030009D03*
D208*
X009187Y030136D03*
X007987Y030103D03*
X007871Y029579D03*
X007870Y029579D03*
X007868Y029579D03*
X007994Y029050D03*
D209*
X008398Y029176D03*
X009184Y029118D03*
X009185Y029118D03*
X009064Y030016D03*
X008795Y029986D03*
D210*
X009185Y029879D03*
D211*
X009185Y030136D03*
D212*
X009184Y029880D03*
X007918Y030118D03*
D213*
X007895Y029579D03*
X007894Y029579D03*
X007892Y029579D03*
X007889Y029579D03*
X007888Y029579D03*
X009184Y030136D03*
D214*
X009070Y030019D03*
X009068Y030018D03*
X009128Y029136D03*
X009130Y029136D03*
X009131Y029134D03*
X009182Y029118D03*
X008396Y029178D03*
X008395Y029179D03*
D215*
X009182Y029880D03*
D216*
X009181Y029118D03*
D217*
X009181Y029881D03*
D218*
X009181Y030135D03*
D219*
X009134Y029133D03*
X009178Y029118D03*
X009179Y029118D03*
D220*
X009179Y030134D03*
X007993Y030101D03*
X007927Y029578D03*
X007925Y029578D03*
X007924Y029578D03*
X007922Y029578D03*
D221*
X007933Y029578D03*
X008003Y029051D03*
X009178Y030133D03*
D222*
X009176Y029119D03*
X008801Y029179D03*
D223*
X009176Y029884D03*
D224*
X009176Y030132D03*
X007997Y030100D03*
X008006Y029052D03*
D225*
X008389Y029974D03*
X008804Y029980D03*
X008882Y029950D03*
X008884Y029950D03*
X008885Y029950D03*
X008887Y029950D03*
X009088Y030030D03*
X009089Y030030D03*
X009092Y030031D03*
X008897Y029215D03*
X008803Y029179D03*
X009140Y029130D03*
X009142Y029130D03*
X009143Y029128D03*
X009145Y029128D03*
X009173Y029118D03*
X009175Y029118D03*
D226*
X009103Y029150D03*
X009100Y029152D03*
X009097Y029153D03*
X008785Y029165D03*
X008902Y029950D03*
X008789Y029992D03*
X008788Y029993D03*
X009035Y030001D03*
X009038Y030002D03*
X009173Y030053D03*
X008414Y029999D03*
X008405Y029989D03*
X007967Y029579D03*
D227*
X009169Y029119D03*
X009170Y029119D03*
X009172Y029119D03*
D228*
X008912Y029216D03*
X008909Y029216D03*
X009052Y030010D03*
X009053Y030011D03*
X009055Y030013D03*
X009056Y030013D03*
X009169Y030055D03*
D229*
X009098Y030034D03*
X009097Y030033D03*
X009161Y029119D03*
X009163Y029119D03*
X009164Y029119D03*
X009167Y029119D03*
X008387Y029973D03*
D230*
X009058Y030013D03*
X009167Y030055D03*
X008908Y029215D03*
X008906Y029215D03*
X008792Y029172D03*
X009118Y029143D03*
X009119Y029142D03*
D231*
X009166Y029119D03*
D232*
X008896Y029950D03*
X009166Y030055D03*
D233*
X009164Y030056D03*
X008398Y029983D03*
X008396Y029981D03*
X007969Y029579D03*
X008794Y029173D03*
X008795Y029174D03*
X008797Y029174D03*
X008905Y029216D03*
X009122Y029140D03*
D234*
X009124Y029139D03*
X009125Y029137D03*
X008903Y029215D03*
X008902Y029215D03*
X008894Y029950D03*
X008893Y029950D03*
X008800Y029983D03*
X008798Y029985D03*
X009163Y030055D03*
X008395Y029980D03*
D235*
X008393Y029980D03*
X008392Y029978D03*
X008419Y030010D03*
X009074Y030022D03*
X009077Y030023D03*
X009079Y030025D03*
X009161Y030056D03*
X008798Y029176D03*
D236*
X008807Y029182D03*
X008894Y029215D03*
X009149Y029125D03*
X009154Y029122D03*
X009157Y029121D03*
X009158Y029121D03*
X009160Y029121D03*
X008879Y029950D03*
X008878Y029950D03*
X008389Y029185D03*
D237*
X008390Y029183D03*
X008447Y029126D03*
X009139Y029131D03*
X009085Y030028D03*
X009086Y030029D03*
X009083Y030028D03*
X009160Y030058D03*
X008803Y029981D03*
X008729Y030050D03*
X008390Y029977D03*
D238*
X008807Y029978D03*
X009094Y030032D03*
X009095Y030032D03*
X009157Y030058D03*
X009158Y030058D03*
X009146Y029128D03*
X009148Y029126D03*
X008804Y029180D03*
D239*
X008809Y029183D03*
X009152Y029123D03*
X009155Y029122D03*
X008876Y029951D03*
X008809Y029977D03*
X009101Y030037D03*
X009104Y030038D03*
X009107Y030040D03*
X009109Y030041D03*
X009155Y030058D03*
X008384Y029971D03*
X008383Y029969D03*
X007970Y029579D03*
X008387Y029188D03*
D240*
X008384Y029190D03*
X008891Y029215D03*
X008893Y029215D03*
X008875Y029950D03*
X009103Y030037D03*
X009110Y030042D03*
X009152Y030057D03*
X009154Y030057D03*
D241*
X008896Y029215D03*
X008806Y029181D03*
X009151Y029124D03*
X008386Y029971D03*
D242*
X009151Y030057D03*
D243*
X009149Y030057D03*
X009148Y030057D03*
X008888Y029215D03*
X008887Y029215D03*
X008810Y029185D03*
D244*
X008884Y029215D03*
X008885Y029215D03*
X008872Y029951D03*
X008728Y030056D03*
X009142Y030056D03*
X009143Y030056D03*
X009145Y030056D03*
X009146Y030056D03*
D245*
X009140Y030055D03*
X009139Y030055D03*
X009137Y030055D03*
X008870Y029950D03*
X008380Y029965D03*
X008812Y029187D03*
X008882Y029215D03*
D246*
X008899Y029215D03*
X008900Y029215D03*
X008750Y029127D03*
X008392Y029181D03*
X009137Y029131D03*
X008891Y029950D03*
X008890Y029950D03*
X008888Y029950D03*
X008801Y029982D03*
X009073Y030021D03*
X009080Y030025D03*
X009082Y030027D03*
D247*
X009136Y029132D03*
D248*
X009136Y030055D03*
D249*
X009134Y030054D03*
X009133Y030054D03*
X009131Y030052D03*
X009130Y030052D03*
X009128Y030051D03*
X009127Y030049D03*
X009124Y030048D03*
X008813Y029971D03*
X008812Y029973D03*
X008380Y029194D03*
D250*
X008393Y029180D03*
X008800Y029177D03*
X009133Y029134D03*
X009071Y030020D03*
D251*
X009067Y030017D03*
X009065Y030017D03*
X009062Y030016D03*
X008797Y029986D03*
X009127Y029137D03*
D252*
X009119Y030046D03*
X009122Y030047D03*
X009125Y030049D03*
D253*
X009121Y029141D03*
D254*
X009121Y030046D03*
D255*
X009118Y030045D03*
X009116Y030045D03*
X008420Y030018D03*
X008381Y029193D03*
X008749Y029119D03*
D256*
X008399Y029176D03*
X009112Y029146D03*
X009115Y029144D03*
X009116Y029144D03*
X009059Y030014D03*
X008794Y029987D03*
X008792Y029989D03*
X008417Y030005D03*
X008399Y029984D03*
D257*
X008381Y029968D03*
X008873Y029951D03*
X009112Y030043D03*
X009113Y030044D03*
X009115Y030044D03*
X008890Y029215D03*
D258*
X009106Y029149D03*
X008731Y030042D03*
X008416Y030001D03*
D259*
X009106Y030040D03*
D260*
X009100Y030035D03*
D261*
X008905Y029950D03*
X008903Y029950D03*
X008785Y029995D03*
X008920Y029217D03*
X009094Y029155D03*
X008408Y029170D03*
D262*
X008410Y029170D03*
X008921Y029218D03*
X009092Y029156D03*
X008908Y029950D03*
X008906Y029950D03*
X009023Y029995D03*
X009025Y029995D03*
X009026Y029996D03*
X009028Y029998D03*
X008783Y029996D03*
X008782Y029998D03*
X008413Y029996D03*
X008411Y029995D03*
D263*
X009091Y029158D03*
D264*
X008881Y029951D03*
X008806Y029980D03*
X009091Y030031D03*
D265*
X008909Y029950D03*
X008780Y029998D03*
X009089Y029158D03*
D266*
X009086Y029160D03*
X009085Y029160D03*
X009082Y029161D03*
X008779Y029161D03*
X008411Y029167D03*
X009014Y029989D03*
X009017Y029991D03*
X009020Y029992D03*
D267*
X009013Y029989D03*
X009011Y029989D03*
X009080Y029162D03*
X009083Y029161D03*
X008777Y029161D03*
X008413Y029167D03*
D268*
X008417Y029164D03*
X009079Y029164D03*
X009010Y029987D03*
D269*
X008774Y030003D03*
X009077Y029164D03*
X008419Y029163D03*
D270*
X009076Y029164D03*
D271*
X009076Y030022D03*
D272*
X009008Y029986D03*
X009005Y029985D03*
X009002Y029983D03*
X008999Y029982D03*
X008998Y029980D03*
X008915Y029949D03*
X008732Y030036D03*
X008929Y029217D03*
X008930Y029217D03*
X009070Y029167D03*
X009073Y029166D03*
X009074Y029166D03*
X008771Y029157D03*
X008756Y029143D03*
X008420Y029161D03*
X007964Y029580D03*
D273*
X008770Y029156D03*
X009065Y029171D03*
X009067Y029170D03*
X009068Y029168D03*
X009071Y029167D03*
X008918Y029948D03*
X008917Y029948D03*
X008992Y029977D03*
X008993Y029978D03*
X008995Y029978D03*
X008996Y029980D03*
D274*
X008990Y029976D03*
X008989Y029976D03*
X008771Y030004D03*
X008770Y030004D03*
X008932Y029217D03*
X008933Y029217D03*
X009058Y029175D03*
X009062Y029173D03*
X009064Y029172D03*
X008768Y029155D03*
X008765Y029154D03*
X008758Y029146D03*
X008423Y029158D03*
X008422Y029160D03*
D275*
X009061Y029173D03*
X008986Y029974D03*
D276*
X009061Y030015D03*
D277*
X008987Y029975D03*
X008920Y029948D03*
X008768Y030005D03*
X008767Y030007D03*
X008765Y030007D03*
X008935Y029218D03*
X009055Y029176D03*
X009056Y029176D03*
X009059Y029174D03*
X008767Y029155D03*
X008764Y029153D03*
X008428Y029156D03*
X008426Y029158D03*
X008425Y029158D03*
D278*
X008429Y029155D03*
X008762Y029152D03*
X008936Y029218D03*
X009053Y029176D03*
X008921Y029949D03*
X008764Y030007D03*
X007963Y029580D03*
D279*
X008981Y029973D03*
X009052Y029178D03*
D280*
X009050Y029179D03*
X008440Y029149D03*
X008734Y030032D03*
D281*
X009049Y029179D03*
D282*
X009047Y029180D03*
X009044Y029182D03*
X008438Y029150D03*
X008437Y029152D03*
X008963Y029962D03*
X008965Y029962D03*
D283*
X009046Y029182D03*
D284*
X008401Y029175D03*
X008401Y029985D03*
X009046Y030006D03*
D285*
X008962Y029961D03*
X008960Y029961D03*
X008957Y029959D03*
X008942Y029220D03*
X009043Y029182D03*
D286*
X009041Y029183D03*
X008966Y029963D03*
X008759Y030010D03*
D287*
X008758Y030010D03*
X008756Y030012D03*
X008755Y030012D03*
X008735Y030028D03*
X008927Y029949D03*
X008929Y029949D03*
X009038Y029185D03*
X009040Y029184D03*
D288*
X009037Y029186D03*
X009035Y029188D03*
X008753Y030013D03*
D289*
X008752Y030013D03*
X008932Y029949D03*
X008933Y029949D03*
X008936Y029949D03*
X008950Y029955D03*
X008954Y029958D03*
X008948Y029220D03*
X008947Y029220D03*
X008945Y029220D03*
X009028Y029191D03*
X009029Y029190D03*
X009034Y029188D03*
D290*
X009032Y029189D03*
X008944Y029219D03*
X008930Y029948D03*
X008953Y029957D03*
X008959Y029960D03*
X007961Y029581D03*
D291*
X009031Y029190D03*
D292*
X009031Y029999D03*
D293*
X008951Y029956D03*
X008948Y029954D03*
X008947Y029953D03*
X008939Y029950D03*
X008938Y029950D03*
X008935Y029948D03*
X008750Y030014D03*
X008749Y030016D03*
X009025Y029192D03*
X009026Y029192D03*
D294*
X009023Y029193D03*
X008951Y029220D03*
X008950Y029220D03*
X008747Y030016D03*
X008744Y030018D03*
X008743Y030019D03*
X008741Y030021D03*
X008740Y030022D03*
X008738Y030024D03*
D295*
X009020Y029195D03*
X009022Y029194D03*
D296*
X009019Y029196D03*
X009017Y029196D03*
X009014Y029197D03*
X008953Y029220D03*
D297*
X009016Y029197D03*
D298*
X009016Y029991D03*
D299*
X009013Y029198D03*
D300*
X009011Y029200D03*
X009010Y029201D03*
D301*
X009008Y029202D03*
X009007Y029203D03*
X009005Y029203D03*
D302*
X008927Y029218D03*
X008773Y029158D03*
X008441Y029143D03*
X009004Y029984D03*
X009007Y029986D03*
D303*
X009004Y029204D03*
D304*
X009002Y029205D03*
X008954Y029220D03*
D305*
X008956Y029221D03*
X009001Y029206D03*
D306*
X009001Y029983D03*
D307*
X008998Y029208D03*
X008999Y029206D03*
D308*
X008996Y029209D03*
D309*
X008995Y029209D03*
X008993Y029209D03*
D310*
X008992Y029210D03*
X008989Y029212D03*
X008963Y029221D03*
X008962Y029221D03*
D311*
X008960Y029221D03*
X008990Y029211D03*
D312*
X008987Y029212D03*
X008984Y029214D03*
X008983Y029215D03*
X008966Y029221D03*
X008965Y029221D03*
D313*
X008986Y029213D03*
D314*
X008759Y029149D03*
X008983Y029974D03*
X008984Y029974D03*
D315*
X008972Y029221D03*
X008969Y029221D03*
X008968Y029221D03*
X008975Y029219D03*
X008977Y029219D03*
X008980Y029218D03*
X008981Y029216D03*
D316*
X008434Y029153D03*
X008432Y029155D03*
X008762Y030008D03*
X008923Y029948D03*
X008969Y029965D03*
X008974Y029968D03*
X008977Y029969D03*
X008978Y029971D03*
X008980Y029971D03*
D317*
X008974Y029220D03*
X008978Y029218D03*
D318*
X008939Y029218D03*
X008938Y029218D03*
X008435Y029152D03*
X008924Y029949D03*
X008968Y029964D03*
X008972Y029967D03*
X008975Y029968D03*
D319*
X008971Y029221D03*
D320*
X008971Y029966D03*
D321*
X008959Y029221D03*
X008957Y029221D03*
D322*
X008956Y029959D03*
D323*
X008945Y029952D03*
D324*
X008944Y029951D03*
X008942Y029951D03*
X008737Y030026D03*
D325*
X008941Y029219D03*
D326*
X008941Y029950D03*
D327*
X008926Y029217D03*
X008776Y029160D03*
D328*
X008926Y029949D03*
X008761Y030009D03*
D329*
X008912Y029950D03*
X008923Y029218D03*
X008924Y029218D03*
D330*
X008915Y029216D03*
X008914Y029216D03*
D331*
X008774Y029158D03*
X008755Y029142D03*
X008914Y029949D03*
X008779Y030000D03*
D332*
X008911Y029216D03*
D333*
X008911Y029950D03*
X007966Y029579D03*
D334*
X008897Y029950D03*
D335*
X008881Y029215D03*
D336*
X008879Y029215D03*
X007972Y029579D03*
D337*
X008747Y029115D03*
X008813Y029188D03*
X008878Y029214D03*
X008867Y029950D03*
X008815Y029970D03*
D338*
X008377Y029962D03*
X008377Y029199D03*
X008816Y029191D03*
X008875Y029214D03*
X008876Y029214D03*
D339*
X008873Y029213D03*
X008818Y029192D03*
X008375Y029960D03*
X007973Y029579D03*
D340*
X008372Y029201D03*
X008870Y029213D03*
X008872Y029213D03*
X008855Y029951D03*
X008854Y029951D03*
X008423Y030029D03*
D341*
X008852Y029950D03*
X008869Y029214D03*
D342*
X008869Y029951D03*
D343*
X008849Y029951D03*
X008723Y030067D03*
X008867Y029213D03*
X008744Y029108D03*
X007975Y029579D03*
D344*
X008866Y029214D03*
D345*
X008866Y029951D03*
D346*
X008822Y029961D03*
X008864Y029214D03*
X008822Y029199D03*
D347*
X008863Y029950D03*
X008864Y029950D03*
D348*
X008848Y029951D03*
X008369Y029954D03*
X007976Y029579D03*
X008743Y029105D03*
X008861Y029215D03*
X008863Y029215D03*
D349*
X008375Y029200D03*
X008819Y029966D03*
X008860Y029951D03*
X008861Y029951D03*
D350*
X008846Y029952D03*
X008827Y029956D03*
X008860Y029214D03*
X008827Y029203D03*
X008825Y029202D03*
X008824Y029200D03*
X008369Y029206D03*
D351*
X008452Y029105D03*
X008857Y029215D03*
X008858Y029215D03*
X008845Y029951D03*
X008828Y029956D03*
X008426Y030035D03*
X008368Y029953D03*
D352*
X008857Y029950D03*
X008858Y029950D03*
X008374Y029200D03*
X008450Y029112D03*
D353*
X008828Y029205D03*
X008854Y029214D03*
X008855Y029214D03*
D354*
X008852Y029213D03*
X008843Y029951D03*
X008842Y029951D03*
X008830Y029954D03*
X008722Y030071D03*
X008366Y029951D03*
X007978Y029579D03*
D355*
X008851Y029214D03*
D356*
X008821Y029197D03*
X008851Y029951D03*
D357*
X008840Y029951D03*
X008839Y029951D03*
X008837Y029951D03*
X008834Y029951D03*
X008831Y029953D03*
X008848Y029213D03*
X008849Y029213D03*
D358*
X008846Y029213D03*
X008845Y029213D03*
X008831Y029210D03*
X008453Y029101D03*
X008363Y029213D03*
D359*
X007979Y029580D03*
X008362Y029944D03*
X008833Y029211D03*
X008842Y029212D03*
X008843Y029212D03*
D360*
X008840Y029213D03*
X008839Y029213D03*
X008834Y029212D03*
D361*
X008837Y029212D03*
X008455Y029097D03*
D362*
X008836Y029212D03*
D363*
X008836Y029951D03*
D364*
X008833Y029952D03*
D365*
X008363Y029947D03*
X008365Y029212D03*
X008366Y029210D03*
X008741Y029101D03*
X008830Y029207D03*
D366*
X008825Y029959D03*
D367*
X008824Y029959D03*
X008425Y030033D03*
D368*
X008821Y029963D03*
D369*
X008725Y030063D03*
X008374Y029959D03*
X008819Y029194D03*
D370*
X008815Y029191D03*
X008378Y029197D03*
X008378Y029963D03*
X008422Y030025D03*
X008726Y030061D03*
X008816Y029969D03*
X008818Y029968D03*
D371*
X008810Y029975D03*
X008383Y029191D03*
D372*
X008791Y029170D03*
D373*
X008791Y029990D03*
D374*
X008777Y030001D03*
X008414Y029166D03*
D375*
X008776Y030002D03*
D376*
X008773Y030004D03*
D377*
X008761Y029151D03*
X008431Y029155D03*
D378*
X008746Y029111D03*
D379*
X008746Y030017D03*
D380*
X008740Y029092D03*
D381*
X008738Y029086D03*
X008719Y030087D03*
D382*
X007984Y029580D03*
X008459Y029083D03*
X008737Y029082D03*
D383*
X008735Y029078D03*
X007985Y029579D03*
D384*
X008435Y030064D03*
X008734Y029076D03*
D385*
X008732Y029072D03*
X008437Y030068D03*
X007988Y029579D03*
D386*
X008731Y029067D03*
D387*
X008729Y029059D03*
X007993Y029579D03*
D388*
X008728Y029054D03*
D389*
X008726Y029050D03*
X008347Y029899D03*
X008444Y030094D03*
D390*
X008725Y029047D03*
D391*
X008723Y029045D03*
D392*
X008722Y029040D03*
X008705Y030130D03*
X008449Y030105D03*
D393*
X008005Y029578D03*
X008720Y029032D03*
D394*
X008360Y029941D03*
X008429Y030044D03*
X008720Y030079D03*
D395*
X008008Y029580D03*
X008540Y029001D03*
X008542Y029001D03*
X008543Y029001D03*
X008545Y029001D03*
X008546Y029001D03*
X008548Y029001D03*
X008557Y028999D03*
X008558Y028999D03*
X008560Y028999D03*
X008635Y028999D03*
X008636Y028999D03*
X008638Y028999D03*
X008639Y028999D03*
X008642Y028999D03*
X008644Y028999D03*
X008645Y028999D03*
X008647Y028999D03*
X008648Y028999D03*
X008719Y029026D03*
D396*
X008717Y029023D03*
X008668Y029002D03*
X008666Y029002D03*
X008665Y029002D03*
X008528Y029003D03*
X008527Y029003D03*
X008477Y029024D03*
X008518Y030155D03*
X008522Y030157D03*
X008672Y030158D03*
X008674Y030158D03*
X008693Y030152D03*
X008695Y030151D03*
D397*
X008717Y030093D03*
D398*
X008716Y029020D03*
X008521Y029005D03*
D399*
X008716Y030096D03*
D400*
X008689Y030154D03*
X008687Y030154D03*
X008684Y030156D03*
X008683Y030156D03*
X008681Y030156D03*
X008494Y030148D03*
X008455Y030126D03*
X008480Y029019D03*
X008714Y029019D03*
D401*
X008714Y030100D03*
D402*
X008713Y029017D03*
X008498Y029009D03*
D403*
X008438Y030073D03*
X008713Y030103D03*
D404*
X008711Y029016D03*
X008710Y029014D03*
X008497Y029010D03*
X008488Y029014D03*
X008483Y029016D03*
X008482Y029017D03*
D405*
X008711Y030108D03*
D406*
X008710Y030116D03*
X008441Y030086D03*
D407*
X008485Y029015D03*
X008486Y029015D03*
X008489Y029014D03*
X008492Y029012D03*
X008494Y029012D03*
X008495Y029011D03*
X008708Y029014D03*
D408*
X008708Y030123D03*
D409*
X008707Y029013D03*
X008705Y029011D03*
X008704Y029011D03*
D410*
X008707Y030127D03*
D411*
X008704Y030134D03*
D412*
X008479Y030144D03*
X008458Y030130D03*
X008702Y029010D03*
D413*
X008702Y030139D03*
D414*
X008701Y029009D03*
D415*
X008701Y030145D03*
X008581Y030164D03*
X008566Y030163D03*
D416*
X008486Y030146D03*
X008485Y030146D03*
X008482Y030145D03*
X008480Y030145D03*
X008699Y029009D03*
X008698Y029008D03*
D417*
X008699Y030148D03*
X008666Y030160D03*
X008665Y030160D03*
X008663Y030160D03*
X008659Y030161D03*
X008657Y030161D03*
X008654Y030161D03*
X008653Y030161D03*
X008651Y030161D03*
X008537Y030160D03*
X008534Y030160D03*
X008533Y030160D03*
D418*
X008530Y030158D03*
X008528Y030158D03*
X008527Y030158D03*
X008698Y030149D03*
X008657Y029000D03*
X008654Y029000D03*
X008653Y029000D03*
X008651Y029000D03*
X008650Y029000D03*
X008539Y029002D03*
X008537Y029002D03*
X008534Y029002D03*
X008533Y029002D03*
D419*
X008500Y029008D03*
X008693Y029007D03*
X008695Y029007D03*
X008696Y029007D03*
X008456Y030129D03*
X008483Y030145D03*
X008488Y030147D03*
X008489Y030147D03*
D420*
X008524Y030157D03*
X008525Y030157D03*
X008668Y030159D03*
X008669Y030159D03*
X008696Y030150D03*
X008663Y029001D03*
X008662Y029001D03*
X008660Y029001D03*
X008659Y029001D03*
X008531Y029002D03*
X008530Y029002D03*
D421*
X008503Y029008D03*
X008501Y029008D03*
X008687Y029006D03*
X008689Y029006D03*
X008690Y029006D03*
X008692Y029006D03*
X008492Y030148D03*
D422*
X008500Y030151D03*
X008501Y030151D03*
X008503Y030151D03*
X008504Y030153D03*
X008507Y030153D03*
X008509Y030153D03*
X008510Y030153D03*
X008512Y030154D03*
X008513Y030154D03*
X008515Y030154D03*
X008516Y030154D03*
X008519Y030156D03*
X008453Y030123D03*
X008675Y030157D03*
X008677Y030157D03*
X008692Y030153D03*
X008674Y029004D03*
X008669Y029002D03*
X008525Y029004D03*
X008524Y029004D03*
X008519Y029005D03*
X008479Y029022D03*
D423*
X008522Y029005D03*
X008672Y029003D03*
X008675Y029005D03*
X008677Y029005D03*
X008678Y029005D03*
X008690Y030154D03*
X008680Y030157D03*
X008678Y030157D03*
X008498Y030151D03*
X008497Y030151D03*
X008495Y030149D03*
D424*
X008491Y030148D03*
X008686Y029006D03*
D425*
X008686Y030156D03*
D426*
X008684Y029005D03*
X008683Y029005D03*
X008681Y029005D03*
X008680Y029005D03*
X008510Y029007D03*
X008509Y029007D03*
X008507Y029007D03*
X008504Y029007D03*
D427*
X008671Y029002D03*
X008506Y030153D03*
D428*
X008671Y030159D03*
X008476Y029026D03*
D429*
X008660Y030160D03*
X008662Y030160D03*
D430*
X008656Y029000D03*
X008536Y029002D03*
D431*
X008536Y030160D03*
X008656Y030161D03*
D432*
X008650Y030162D03*
X008648Y030162D03*
X008647Y030162D03*
X008645Y030162D03*
X008644Y030162D03*
X008545Y030160D03*
X008543Y030160D03*
X008542Y030160D03*
X008540Y030160D03*
X008539Y030160D03*
X008531Y030159D03*
D433*
X008546Y030161D03*
X008548Y030161D03*
X008549Y030161D03*
X008552Y030161D03*
X008554Y030161D03*
X008633Y030163D03*
X008635Y030163D03*
X008636Y030163D03*
X008638Y030163D03*
X008639Y030163D03*
X008642Y030163D03*
X008452Y030119D03*
D434*
X008641Y028999D03*
D435*
X008641Y030163D03*
X008551Y030161D03*
D436*
X008474Y029029D03*
X008549Y029000D03*
X008552Y029000D03*
X008554Y029000D03*
X008555Y029000D03*
X008561Y028999D03*
X008563Y028999D03*
X008564Y028999D03*
X008567Y028999D03*
X008569Y028999D03*
X008570Y028999D03*
X008572Y028999D03*
X008624Y028999D03*
X008627Y028999D03*
X008629Y028999D03*
X008630Y028999D03*
X008632Y028999D03*
X008633Y028999D03*
D437*
X008632Y030163D03*
X008630Y030163D03*
X008629Y030163D03*
X008627Y030163D03*
X008624Y030163D03*
X008573Y030163D03*
X008572Y030163D03*
X008570Y030163D03*
X008564Y030162D03*
X008563Y030162D03*
X008561Y030162D03*
X008560Y030162D03*
X008558Y030162D03*
X008557Y030162D03*
X008555Y030162D03*
D438*
X008551Y029000D03*
X008566Y028999D03*
X008626Y028999D03*
D439*
X008626Y030163D03*
D440*
X008623Y028998D03*
X008621Y028998D03*
X008620Y028998D03*
X008618Y028998D03*
X008617Y028998D03*
X008615Y028998D03*
X008614Y028996D03*
X008612Y028996D03*
X008609Y028996D03*
X008608Y028996D03*
X008606Y028996D03*
X008605Y028996D03*
X008582Y028998D03*
X008579Y028998D03*
X008578Y028998D03*
X008576Y028998D03*
X008575Y028998D03*
X008573Y028998D03*
D441*
X008600Y028996D03*
X008602Y028996D03*
X008603Y028996D03*
X008569Y030163D03*
X008567Y030163D03*
X008575Y030164D03*
X008576Y030164D03*
X008578Y030164D03*
X008579Y030164D03*
X008582Y030164D03*
X008584Y030164D03*
X008614Y030164D03*
X008615Y030164D03*
X008617Y030164D03*
X008618Y030164D03*
X008620Y030164D03*
X008621Y030164D03*
X008623Y030164D03*
D442*
X008612Y030165D03*
X008609Y030165D03*
X008608Y030165D03*
X008606Y030165D03*
X008605Y030165D03*
X008603Y030165D03*
X008602Y030165D03*
X008600Y030165D03*
X008599Y030165D03*
X008597Y030165D03*
X008594Y030165D03*
X008593Y030165D03*
X008591Y030165D03*
X008590Y030165D03*
X008588Y030165D03*
X008587Y030165D03*
X008585Y030165D03*
X008473Y029032D03*
X008593Y028996D03*
X008594Y028996D03*
X008597Y028996D03*
X008599Y028996D03*
D443*
X008611Y028996D03*
X008581Y028998D03*
D444*
X008596Y028996D03*
X008596Y030165D03*
X008611Y030165D03*
D445*
X008591Y028997D03*
X008590Y028997D03*
X008588Y028997D03*
X008587Y028997D03*
X008585Y028997D03*
X008584Y028997D03*
D446*
X008521Y030157D03*
D447*
X008518Y029006D03*
X008516Y029006D03*
X008515Y029006D03*
X008513Y029006D03*
X008512Y029006D03*
D448*
X008506Y029007D03*
D449*
X008491Y029014D03*
D450*
X008459Y030133D03*
X008477Y030143D03*
D451*
X008476Y030143D03*
X008461Y030134D03*
D452*
X008462Y030136D03*
X008471Y030141D03*
X008474Y030142D03*
D453*
X008473Y030142D03*
X008470Y030140D03*
X008468Y030140D03*
D454*
X008003Y029579D03*
X008471Y029038D03*
D455*
X008470Y029045D03*
X008000Y029579D03*
D456*
X007997Y029579D03*
X008443Y030091D03*
X008468Y029053D03*
D457*
X008467Y029057D03*
D458*
X008464Y030138D03*
X008467Y030139D03*
D459*
X008465Y029061D03*
D460*
X008465Y030139D03*
D461*
X008464Y029064D03*
D462*
X008462Y029068D03*
D463*
X008461Y029074D03*
D464*
X008458Y029089D03*
D465*
X008456Y029095D03*
D466*
X008450Y030113D03*
D467*
X008449Y029121D03*
D468*
X008447Y030100D03*
D469*
X008446Y029131D03*
D470*
X008446Y030097D03*
D471*
X008440Y030079D03*
D472*
X008434Y030061D03*
X008351Y029925D03*
X008351Y029235D03*
D473*
X008432Y030058D03*
D474*
X008431Y030052D03*
D475*
X008428Y030039D03*
X008365Y029949D03*
D476*
X008416Y029164D03*
D477*
X008407Y029171D03*
D478*
X008386Y029188D03*
D479*
X008372Y029959D03*
D480*
X008371Y029203D03*
D481*
X008371Y029957D03*
D482*
X008368Y029208D03*
D483*
X008362Y029216D03*
D484*
X008360Y029219D03*
D485*
X008359Y029223D03*
D486*
X008359Y029935D03*
D487*
X008357Y029226D03*
D488*
X008357Y029933D03*
D489*
X008356Y029227D03*
D490*
X008356Y029932D03*
D491*
X007982Y029579D03*
X008354Y029230D03*
D492*
X008354Y029929D03*
D493*
X008353Y029231D03*
D494*
X008353Y029928D03*
D495*
X008350Y029916D03*
X008350Y029244D03*
D496*
X008348Y029251D03*
D497*
X008348Y029905D03*
D498*
X008347Y029256D03*
D499*
X008345Y029580D03*
D500*
X008344Y029579D03*
D501*
X008342Y029580D03*
X008162Y029577D03*
D502*
X008341Y029580D03*
D503*
X008339Y029579D03*
D504*
X008338Y029579D03*
X008165Y029576D03*
D505*
X008167Y029577D03*
X008336Y029578D03*
D506*
X008335Y029579D03*
X008168Y029576D03*
D507*
X008332Y029579D03*
X008333Y029579D03*
D508*
X008330Y029580D03*
X008171Y029577D03*
D509*
X008329Y029579D03*
D510*
X008327Y029580D03*
X008324Y029580D03*
D511*
X008326Y029580D03*
D512*
X008323Y029580D03*
X008321Y029580D03*
X008320Y029580D03*
D513*
X008318Y029580D03*
X008177Y029577D03*
D514*
X008317Y029579D03*
D515*
X008315Y029580D03*
D516*
X008314Y029580D03*
D517*
X008312Y029579D03*
X008183Y029576D03*
D518*
X008311Y029580D03*
D519*
X008309Y029580D03*
X008308Y029580D03*
X008186Y029577D03*
D520*
X008188Y029577D03*
X008303Y029580D03*
X008305Y029580D03*
X008306Y029580D03*
D521*
X008302Y029579D03*
X008189Y029576D03*
D522*
X008300Y029580D03*
D523*
X008299Y029579D03*
D524*
X008297Y029580D03*
D525*
X008296Y029579D03*
D526*
X008294Y029579D03*
X008293Y029579D03*
D527*
X008291Y029579D03*
D528*
X008290Y029580D03*
D529*
X008288Y029579D03*
D530*
X008287Y029580D03*
X008285Y029580D03*
D531*
X008284Y029580D03*
X008282Y029580D03*
D532*
X008281Y029579D03*
D533*
X008279Y029580D03*
D534*
X008278Y029579D03*
X008204Y029576D03*
D535*
X008207Y029576D03*
X008276Y029579D03*
D536*
X008275Y029578D03*
X008209Y029575D03*
D537*
X008210Y029576D03*
X008273Y029579D03*
D538*
X008272Y029579D03*
X008213Y029576D03*
D539*
X008270Y029580D03*
D540*
X008269Y029579D03*
X008215Y029576D03*
D541*
X008267Y029580D03*
D542*
X008266Y029580D03*
D543*
X008264Y029580D03*
X008263Y029580D03*
D544*
X008261Y029580D03*
X008219Y029575D03*
D545*
X008260Y029579D03*
D546*
X008258Y029579D03*
D547*
X008257Y029579D03*
D548*
X008255Y029580D03*
X008227Y029575D03*
D549*
X008228Y029576D03*
X008254Y029579D03*
D550*
X008252Y029580D03*
D551*
X008251Y029580D03*
D552*
X008249Y029580D03*
D553*
X008248Y029579D03*
X008246Y029579D03*
D554*
X008245Y029579D03*
X008243Y029579D03*
X008233Y029576D03*
D555*
X008234Y029575D03*
X008239Y029577D03*
X008240Y029577D03*
X008242Y029578D03*
D556*
X008237Y029576D03*
D557*
X008236Y029576D03*
D558*
X008231Y029575D03*
D559*
X008230Y029576D03*
D560*
X008225Y029575D03*
X008224Y029575D03*
D561*
X008222Y029575D03*
D562*
X008221Y029575D03*
D563*
X008218Y029575D03*
D564*
X008216Y029576D03*
D565*
X008212Y029575D03*
D566*
X008206Y029576D03*
D567*
X008203Y029576D03*
D568*
X008201Y029576D03*
D569*
X008200Y029576D03*
D570*
X008198Y029576D03*
D571*
X008197Y029575D03*
D572*
X008195Y029576D03*
D573*
X008194Y029575D03*
D574*
X008192Y029576D03*
D575*
X008191Y029576D03*
D576*
X008185Y029577D03*
D577*
X008182Y029577D03*
D578*
X008180Y029576D03*
D579*
X008179Y029576D03*
D580*
X008176Y029577D03*
D581*
X008174Y029577D03*
D582*
X008173Y029577D03*
D583*
X008170Y029577D03*
D584*
X008164Y029577D03*
D585*
X008161Y029578D03*
D586*
X008159Y029578D03*
D587*
X008158Y029578D03*
D588*
X008156Y029577D03*
D589*
X008155Y029577D03*
D590*
X008153Y029576D03*
D591*
X008152Y029577D03*
D592*
X008150Y029577D03*
D593*
X008149Y029578D03*
D594*
X008147Y029578D03*
D595*
X008146Y029578D03*
D596*
X008144Y029578D03*
D597*
X008143Y029578D03*
D598*
X008141Y029577D03*
D599*
X008140Y029577D03*
D600*
X008138Y029578D03*
D601*
X008137Y029577D03*
D602*
X008135Y029578D03*
D603*
X008134Y029578D03*
D604*
X008132Y029578D03*
D605*
X008131Y029578D03*
D606*
X008129Y029578D03*
D607*
X008128Y029578D03*
D608*
X008126Y029577D03*
D609*
X008125Y029577D03*
X008123Y029577D03*
D610*
X008122Y029577D03*
D611*
X008120Y029578D03*
D612*
X008119Y029578D03*
X008117Y029578D03*
D613*
X008116Y029578D03*
D614*
X008114Y029578D03*
D615*
X008113Y029578D03*
D616*
X008111Y029578D03*
X008110Y029578D03*
D617*
X008108Y029578D03*
D618*
X008107Y029578D03*
D619*
X008105Y029578D03*
D620*
X008104Y029578D03*
X008102Y029578D03*
D621*
X008101Y029578D03*
D622*
X008099Y029578D03*
D623*
X008098Y029578D03*
D624*
X008096Y029578D03*
X008095Y029578D03*
D625*
X008093Y029578D03*
D626*
X008092Y029578D03*
D627*
X008090Y029578D03*
D628*
X008089Y029579D03*
D629*
X008087Y029579D03*
D630*
X008086Y029578D03*
D631*
X008084Y029578D03*
D632*
X008083Y029578D03*
D633*
X008081Y029578D03*
D634*
X008080Y029578D03*
D635*
X008078Y029578D03*
D636*
X008077Y029579D03*
D637*
X008075Y029579D03*
X008074Y029579D03*
D638*
X008072Y029579D03*
D639*
X008071Y029578D03*
D640*
X008069Y029578D03*
D641*
X008068Y029578D03*
D642*
X008066Y029579D03*
D643*
X008065Y029579D03*
X008017Y029581D03*
D644*
X008063Y029580D03*
D645*
X008062Y029579D03*
X008018Y029581D03*
D646*
X008059Y029579D03*
X008060Y029579D03*
D647*
X008057Y029579D03*
D648*
X008056Y029578D03*
D649*
X008054Y029578D03*
D650*
X008053Y029579D03*
D651*
X008051Y029578D03*
X008027Y029580D03*
D652*
X008050Y029579D03*
D653*
X008048Y029579D03*
X008030Y029581D03*
D654*
X008032Y029580D03*
X008033Y029580D03*
X008042Y029580D03*
X008044Y029580D03*
X008045Y029580D03*
X008047Y029580D03*
D655*
X008041Y029581D03*
D656*
X008039Y029581D03*
X008038Y029581D03*
X008036Y029581D03*
X008035Y029581D03*
D657*
X008029Y029580D03*
D658*
X008026Y029581D03*
D659*
X008024Y029581D03*
D660*
X008023Y029580D03*
D661*
X008021Y029580D03*
D662*
X008020Y029580D03*
D663*
X008015Y029580D03*
D664*
X008014Y029580D03*
D665*
X008003Y030098D03*
X008012Y029054D03*
D666*
X008012Y029757D03*
D667*
X008011Y029053D03*
D668*
X008011Y029758D03*
D669*
X008009Y029053D03*
D670*
X008009Y029759D03*
D671*
X008008Y030096D03*
D672*
X008006Y029578D03*
D673*
X008006Y030098D03*
D674*
X007994Y030100D03*
X007934Y029578D03*
X008005Y029052D03*
D675*
X008005Y030098D03*
D676*
X008002Y029052D03*
D677*
X008002Y029578D03*
D678*
X008002Y030098D03*
D679*
X008000Y029051D03*
D680*
X008000Y030099D03*
D681*
X007999Y029050D03*
D682*
X007999Y029579D03*
D683*
X007999Y030100D03*
D684*
X007988Y030102D03*
X007997Y029050D03*
D685*
X007996Y029050D03*
X007876Y029579D03*
D686*
X007996Y029579D03*
D687*
X007936Y029578D03*
X007996Y030100D03*
D688*
X007994Y029578D03*
D689*
X007855Y029578D03*
X007853Y029578D03*
X007852Y029578D03*
X007982Y030103D03*
X007991Y029049D03*
D690*
X007991Y029579D03*
D691*
X007919Y029578D03*
X007918Y029578D03*
X007916Y029578D03*
X007915Y029578D03*
X007913Y029578D03*
X007991Y030101D03*
D692*
X007843Y029579D03*
X007841Y029579D03*
X007840Y029579D03*
X007990Y029048D03*
D693*
X007990Y029579D03*
D694*
X007990Y030101D03*
D695*
X007813Y029580D03*
X007811Y029580D03*
X007810Y029580D03*
X007987Y029047D03*
D696*
X007987Y029579D03*
D697*
X007867Y029578D03*
X007865Y029578D03*
X007864Y029578D03*
X007985Y030103D03*
D698*
X007976Y030106D03*
X007802Y029579D03*
X007984Y029047D03*
D699*
X007981Y029046D03*
X007786Y029580D03*
D700*
X007981Y029579D03*
D701*
X007981Y030104D03*
D702*
X007978Y029046D03*
D703*
X007975Y029045D03*
X007742Y029581D03*
X007739Y029581D03*
D704*
X007736Y029581D03*
X007735Y029581D03*
X007733Y029581D03*
X007973Y029045D03*
D705*
X007973Y030106D03*
D706*
X007723Y029581D03*
X007972Y029044D03*
D707*
X007787Y029580D03*
X007784Y029580D03*
X007783Y029580D03*
X007972Y030106D03*
D708*
X007709Y029581D03*
X007970Y029044D03*
D709*
X007766Y029581D03*
X007765Y029581D03*
X007763Y029581D03*
X007762Y029581D03*
X007760Y029581D03*
X007970Y030107D03*
D710*
X007969Y029044D03*
D711*
X007967Y029043D03*
X007703Y029581D03*
D712*
X007966Y029043D03*
D713*
X007966Y030109D03*
D714*
X007957Y030111D03*
X007964Y029043D03*
D715*
X007963Y029042D03*
X007700Y029581D03*
D716*
X007712Y029581D03*
X007714Y029581D03*
X007715Y029581D03*
X007717Y029581D03*
X007718Y029581D03*
X007720Y029581D03*
X007721Y029581D03*
X007963Y030109D03*
D717*
X007954Y030111D03*
X007699Y029581D03*
X007961Y029041D03*
D718*
X007708Y029581D03*
X007706Y029581D03*
X007961Y030109D03*
D719*
X007960Y029580D03*
D720*
X007958Y029041D03*
D721*
X007958Y029580D03*
D722*
X007702Y029581D03*
X007958Y030111D03*
D723*
X007957Y029041D03*
D724*
X007957Y029579D03*
D725*
X007955Y029580D03*
D726*
X007955Y030111D03*
D727*
X007694Y029583D03*
X007954Y029040D03*
D728*
X007954Y029580D03*
D729*
X007952Y029580D03*
D730*
X007952Y030112D03*
D731*
X007951Y029040D03*
D732*
X007951Y029579D03*
D733*
X007951Y030112D03*
D734*
X007949Y029581D03*
D735*
X007949Y030113D03*
D736*
X007948Y029581D03*
D737*
X007946Y029581D03*
D738*
X007945Y029038D03*
D739*
X007945Y029581D03*
D740*
X007945Y030113D03*
D741*
X007937Y030115D03*
X007943Y029038D03*
D742*
X007943Y029581D03*
D743*
X007942Y029038D03*
D744*
X007942Y029580D03*
D745*
X007939Y029038D03*
D746*
X007939Y029579D03*
D747*
X007939Y030115D03*
D748*
X007937Y029037D03*
D749*
X007936Y029037D03*
D750*
X007934Y029037D03*
D751*
X007933Y029037D03*
X007927Y030117D03*
D752*
X007933Y030115D03*
D753*
X007925Y030117D03*
X007931Y029037D03*
D754*
X007931Y029578D03*
X007930Y029578D03*
X007928Y029578D03*
D755*
X007931Y030115D03*
D756*
X007930Y030116D03*
D757*
X007928Y029036D03*
D758*
X007928Y030116D03*
D759*
X007927Y029035D03*
D760*
X007925Y029036D03*
X007919Y030118D03*
D761*
X007924Y029036D03*
D762*
X007922Y029036D03*
D763*
X007921Y029035D03*
D764*
X007921Y029577D03*
D765*
X007921Y030118D03*
D766*
X007918Y029035D03*
D767*
X007915Y030118D03*
D768*
X007913Y029034D03*
D769*
X007913Y030118D03*
D770*
X007912Y029578D03*
D771*
X007909Y029033D03*
D772*
X007907Y029578D03*
X007904Y029578D03*
D773*
X007906Y029033D03*
D774*
X007906Y029578D03*
D775*
X007906Y030120D03*
D776*
X007901Y029033D03*
D777*
X007900Y030121D03*
D778*
X007898Y029032D03*
D779*
X007898Y030121D03*
D780*
X007892Y029032D03*
D781*
X007891Y029032D03*
D782*
X007891Y029579D03*
D783*
X007891Y030121D03*
D784*
X007889Y030122D03*
D785*
X007888Y029031D03*
D786*
X007888Y030122D03*
D787*
X007880Y030123D03*
X007886Y029031D03*
D788*
X007886Y030122D03*
D789*
X007885Y029031D03*
D790*
X007885Y030122D03*
D791*
X007882Y029579D03*
X007880Y029579D03*
X007879Y029579D03*
X007877Y029579D03*
X007874Y029579D03*
D792*
X007882Y030123D03*
D793*
X007874Y030124D03*
X007880Y029030D03*
D794*
X007879Y030124D03*
D795*
X007876Y030124D03*
D796*
X007873Y029578D03*
D797*
X007873Y030124D03*
D798*
X007871Y030127D03*
D799*
X007861Y029578D03*
D800*
X007850Y029579D03*
X007849Y029579D03*
X007847Y029579D03*
D801*
X007846Y029580D03*
D802*
X007844Y029580D03*
D803*
X007838Y029580D03*
X007837Y029580D03*
X007835Y029580D03*
X007834Y029580D03*
X007832Y029580D03*
X007829Y029580D03*
X007828Y029580D03*
D804*
X007831Y029580D03*
D805*
X007814Y029579D03*
D806*
X007801Y029579D03*
D807*
X007796Y029579D03*
D808*
X007795Y029580D03*
X007793Y029580D03*
X007792Y029580D03*
X007790Y029580D03*
D809*
X007756Y029581D03*
D810*
X007750Y029580D03*
D811*
X007744Y029581D03*
D812*
X007741Y029581D03*
D813*
X007726Y029581D03*
D814*
X007711Y029581D03*
D815*
X007696Y029582D03*
D816*
X007691Y029573D03*
D817*
X008283Y028101D02*
X008358Y028101D01*
X008433Y028026D01*
X008508Y028101D01*
X008583Y028101D01*
X008658Y028026D01*
X008658Y027875D01*
X008583Y027800D01*
X008658Y027640D02*
X008658Y027340D01*
X008208Y027340D01*
X008283Y027800D02*
X008208Y027875D01*
X008208Y028026D01*
X008283Y028101D01*
X008433Y028026D02*
X008433Y027950D01*
X009881Y023016D02*
X010106Y023016D01*
X009881Y023016D02*
X009806Y022940D01*
X009806Y022715D01*
X010106Y022715D01*
X010106Y022555D02*
X009881Y022555D01*
X009806Y022480D01*
X009806Y022330D01*
X009956Y022330D02*
X009956Y022555D01*
X010106Y022555D02*
X010106Y022330D01*
X010031Y022255D01*
X009956Y022330D01*
X009656Y022095D02*
X009656Y021794D01*
X010106Y021794D01*
X009881Y021794D02*
X009881Y021945D01*
X010147Y021108D02*
X010147Y020808D01*
X009922Y021033D01*
X010372Y021033D01*
X010372Y020648D02*
X010372Y020348D01*
X010372Y020498D02*
X009922Y020498D01*
X010072Y020348D01*
X009997Y020187D02*
X009922Y020112D01*
X009922Y019962D01*
X009997Y019887D01*
X010297Y019887D01*
X010372Y019962D01*
X010372Y020112D01*
X010297Y020187D01*
X010469Y014061D02*
X010469Y012093D01*
X017556Y012093D01*
X017556Y014061D01*
X010469Y014061D01*
X010469Y012036D02*
X017556Y012036D01*
X017556Y010068D01*
X010469Y010068D01*
X010469Y012036D01*
X010331Y011941D02*
X010331Y011640D01*
X010331Y011791D02*
X009881Y011791D01*
X010031Y011640D01*
X009956Y011480D02*
X010106Y011480D01*
X010181Y011405D01*
X010181Y011180D01*
X010181Y011330D02*
X010331Y011480D01*
X010331Y011180D02*
X009881Y011180D01*
X009881Y011405D01*
X009956Y011480D01*
X010031Y011020D02*
X010331Y011020D01*
X010106Y011020D02*
X010106Y010720D01*
X010031Y010720D02*
X010331Y010720D01*
X010181Y010560D02*
X009881Y010560D01*
X010031Y010720D02*
X009881Y010870D01*
X010031Y011020D01*
X010181Y010560D02*
X010331Y010409D01*
X010181Y010259D01*
X009881Y010259D01*
X009856Y008802D02*
X012022Y008802D01*
X012022Y005456D01*
X009856Y005456D01*
X009856Y006018D01*
X020092Y006018D01*
X020092Y005456D01*
X017927Y005456D01*
X017927Y008802D01*
X019000Y009912D02*
X021362Y009912D01*
X021362Y013062D01*
X019000Y013062D01*
X019000Y009912D01*
X020092Y008802D02*
X020092Y006018D01*
X017927Y005456D02*
X015959Y005456D01*
X015959Y008802D01*
X020092Y008802D01*
X018006Y012359D02*
X017706Y012359D01*
X018006Y012359D02*
X018156Y012509D01*
X018006Y012660D01*
X017706Y012660D01*
X017856Y012820D02*
X017706Y012970D01*
X017856Y013120D01*
X018156Y013120D01*
X018156Y013280D02*
X017706Y013280D01*
X017706Y013505D01*
X017781Y013580D01*
X017931Y013580D01*
X018006Y013505D01*
X018006Y013280D01*
X018006Y013430D02*
X018156Y013580D01*
X018156Y013740D02*
X017856Y014041D01*
X017781Y014041D01*
X017706Y013966D01*
X017706Y013815D01*
X017781Y013740D01*
X017931Y013120D02*
X017931Y012820D01*
X017856Y012820D02*
X018156Y012820D01*
X018156Y013740D02*
X018156Y014041D01*
X015959Y008802D02*
X013990Y008802D01*
X013990Y005456D01*
X012022Y005456D01*
X013990Y005456D02*
X015959Y005456D01*
X013990Y008802D02*
X012022Y008802D01*
X009856Y008802D02*
X009856Y006018D01*
X009694Y008030D02*
X009243Y008331D01*
X009393Y008491D02*
X009243Y008641D01*
X009694Y008641D01*
X009694Y008491D02*
X009694Y008791D01*
X009694Y008331D02*
X009243Y008030D01*
X007998Y008352D02*
X007698Y008352D01*
X007998Y008652D01*
X007998Y008727D01*
X007923Y008803D01*
X007773Y008803D01*
X007698Y008727D01*
X007538Y008727D02*
X007462Y008803D01*
X007312Y008803D01*
X007237Y008727D01*
X007237Y008427D01*
X007312Y008352D01*
X007462Y008352D01*
X007538Y008427D01*
X022898Y012521D02*
X022898Y012822D01*
X022973Y012822D01*
X023273Y012521D01*
X023348Y012521D01*
X023348Y012822D01*
X023348Y012982D02*
X023348Y013207D01*
X023273Y013282D01*
X022973Y013282D01*
X022898Y013207D01*
X022898Y012982D01*
X023348Y012982D01*
X023348Y013442D02*
X023048Y013742D01*
X022973Y013742D01*
X022898Y013667D01*
X022898Y013517D01*
X022973Y013442D01*
X023348Y013442D02*
X023348Y013742D01*
X025231Y013567D02*
X025381Y013417D01*
X025306Y013257D02*
X025231Y013182D01*
X025231Y012957D01*
X025681Y012957D01*
X025681Y013182D01*
X025606Y013257D01*
X025306Y013257D01*
X025231Y013567D02*
X025681Y013567D01*
X025681Y013417D02*
X025681Y013717D01*
X025681Y012797D02*
X025681Y012496D01*
X025606Y012496D01*
X025306Y012797D01*
X025231Y012797D01*
X025231Y012496D01*
X026048Y010862D02*
X026548Y010862D01*
X026298Y010362D01*
X026048Y010862D01*
X026298Y010362D02*
X026548Y009862D01*
X026048Y009862D01*
X026298Y010362D01*
X024242Y009862D02*
X023992Y010362D01*
X024242Y010862D01*
X023742Y010862D01*
X023992Y010362D01*
X023742Y009862D01*
X024242Y009862D01*
X027237Y015477D02*
X027237Y015702D01*
X027312Y015777D01*
X027462Y015777D01*
X027537Y015702D01*
X027537Y015477D01*
X027687Y015477D02*
X027237Y015477D01*
X027537Y015627D02*
X027687Y015777D01*
X027687Y015938D02*
X027687Y016238D01*
X027687Y016088D02*
X027237Y016088D01*
X027387Y015938D01*
X031812Y015988D02*
X032262Y015988D01*
X032262Y015838D02*
X032262Y016138D01*
X031962Y015838D02*
X031812Y015988D01*
X031887Y015677D02*
X031812Y015602D01*
X031812Y015452D01*
X031887Y015377D01*
X032187Y015377D01*
X032262Y015452D01*
X032262Y015602D01*
X032187Y015677D01*
X032112Y023127D02*
X031812Y023127D01*
X031737Y023202D01*
X031737Y023352D01*
X031812Y023427D01*
X032112Y023427D01*
X032187Y023352D01*
X032187Y023202D01*
X032112Y023127D01*
X032037Y023277D02*
X032187Y023427D01*
X032187Y023588D02*
X031887Y023888D01*
X031812Y023888D01*
X031737Y023813D01*
X031737Y023663D01*
X031812Y023588D01*
X032187Y023588D02*
X032187Y023888D01*
X026912Y026752D02*
X026837Y026677D01*
X026537Y026677D01*
X026462Y026752D01*
X026462Y026902D01*
X026537Y026977D01*
X026837Y026977D01*
X026912Y026902D01*
X026912Y026752D01*
X026762Y026827D02*
X026912Y026977D01*
X026912Y027138D02*
X026912Y027438D01*
X026912Y027288D02*
X026462Y027288D01*
X026612Y027138D01*
X027412Y031802D02*
X027412Y032253D01*
X027637Y032253D01*
X027713Y032177D01*
X027713Y032027D01*
X027637Y031952D01*
X027412Y031952D01*
X027562Y031952D02*
X027713Y031802D01*
X027873Y031877D02*
X027948Y031802D01*
X028098Y031802D01*
X028173Y031877D01*
X028173Y032027D01*
X028098Y032102D01*
X028023Y032102D01*
X027873Y032027D01*
X027873Y032253D01*
X028173Y032253D01*
X031112Y032253D02*
X031112Y031802D01*
X031112Y031952D02*
X031337Y031952D01*
X031413Y032027D01*
X031413Y032177D01*
X031337Y032253D01*
X031112Y032253D01*
X031262Y031952D02*
X031413Y031802D01*
X031573Y031877D02*
X031648Y031802D01*
X031798Y031802D01*
X031873Y031877D01*
X031873Y031952D01*
X031798Y032027D01*
X031723Y032027D01*
X031798Y032027D02*
X031873Y032102D01*
X031873Y032177D01*
X031798Y032253D01*
X031648Y032253D01*
X031573Y032177D01*
X031862Y037052D02*
X032012Y037052D01*
X032088Y037127D01*
X032088Y037427D01*
X032012Y037503D01*
X031862Y037503D01*
X031787Y037427D01*
X031787Y037127D01*
X031862Y037052D01*
X032248Y037052D02*
X032248Y037503D01*
X032323Y037277D02*
X032548Y037052D01*
X032708Y037052D02*
X033008Y037052D01*
X032858Y037052D02*
X032858Y037503D01*
X032708Y037352D01*
X032548Y037503D02*
X032248Y037202D01*
X029473Y039712D02*
X029473Y039937D01*
X029398Y040012D01*
X029323Y040012D01*
X029247Y039937D01*
X029247Y039712D01*
X029022Y039712D02*
X029473Y039712D01*
X029247Y039937D02*
X029172Y040012D01*
X029097Y040012D01*
X029022Y039937D01*
X029022Y039712D01*
X029172Y040172D02*
X029022Y040322D01*
X029473Y040322D01*
X029473Y040172D02*
X029473Y040473D01*
X028329Y041421D02*
X028254Y041346D01*
X028104Y041346D01*
X028029Y041421D01*
X028029Y041571D02*
X028179Y041646D01*
X028254Y041646D01*
X028329Y041571D01*
X028329Y041421D01*
X028029Y041571D02*
X028029Y041796D01*
X028329Y041796D01*
X027869Y041721D02*
X027794Y041796D01*
X027644Y041796D01*
X027569Y041721D01*
X027569Y041421D01*
X027644Y041346D01*
X027794Y041346D01*
X027869Y041421D01*
X027908Y037503D02*
X027758Y037503D01*
X027683Y037427D01*
X027523Y037503D02*
X027223Y037202D01*
X027298Y037277D02*
X027523Y037052D01*
X027683Y037052D02*
X027983Y037352D01*
X027983Y037427D01*
X027908Y037503D01*
X027983Y037052D02*
X027683Y037052D01*
X027223Y037052D02*
X027223Y037503D01*
X027063Y037427D02*
X026987Y037503D01*
X026837Y037503D01*
X026762Y037427D01*
X026762Y037127D01*
X026837Y037052D01*
X026987Y037052D01*
X027063Y037127D01*
X027063Y037427D01*
X022623Y039977D02*
X022323Y039977D01*
X022473Y039977D02*
X022473Y040428D01*
X022323Y040277D01*
X022163Y040352D02*
X022087Y040428D01*
X021862Y040428D01*
X021862Y039977D01*
X022087Y039977D01*
X022163Y040052D01*
X022163Y040352D01*
X021392Y042652D02*
X021542Y042802D01*
X021542Y042952D01*
X021392Y043103D01*
X021232Y043103D02*
X021082Y043027D01*
X020932Y042877D01*
X021157Y042877D01*
X021232Y042802D01*
X021232Y042727D01*
X021157Y042652D01*
X021007Y042652D01*
X020932Y042727D01*
X020932Y042877D01*
X020771Y042652D02*
X020471Y042652D01*
X020621Y042652D02*
X020621Y043103D01*
X020471Y042952D01*
X020311Y043027D02*
X020311Y042727D01*
X020236Y042652D01*
X020086Y042652D01*
X020011Y042727D01*
X020311Y043027D01*
X020236Y043103D01*
X020086Y043103D01*
X020011Y043027D01*
X020011Y042727D01*
X019851Y042652D02*
X019550Y042652D01*
X019851Y042952D01*
X019851Y043027D01*
X019776Y043103D01*
X019625Y043103D01*
X019550Y043027D01*
X019390Y043103D02*
X019090Y042652D01*
X018930Y042727D02*
X018855Y042652D01*
X018705Y042652D01*
X018630Y042727D01*
X018630Y042877D02*
X018780Y042952D01*
X018855Y042952D01*
X018930Y042877D01*
X018930Y042727D01*
X018932Y042428D02*
X018706Y042428D01*
X018706Y041977D01*
X018932Y041977D01*
X019007Y042052D01*
X019007Y042127D01*
X018932Y042202D01*
X018706Y042202D01*
X018546Y042202D02*
X018246Y042202D01*
X018471Y042428D01*
X018471Y041977D01*
X018932Y042202D02*
X019007Y042277D01*
X019007Y042352D01*
X018932Y042428D01*
X019167Y042202D02*
X019467Y042202D01*
X019627Y042352D02*
X019702Y042428D01*
X019852Y042428D01*
X019927Y042352D01*
X019927Y042277D01*
X019627Y041977D01*
X019927Y041977D01*
X019392Y041977D02*
X019392Y042428D01*
X019167Y042202D01*
X018630Y042877D02*
X018630Y043103D01*
X018930Y043103D01*
X018783Y043327D02*
X019083Y043327D01*
X018783Y043327D02*
X018783Y043402D01*
X019083Y043702D01*
X019083Y043778D01*
X018783Y043778D01*
X018623Y043778D02*
X018323Y043778D01*
X018323Y043327D01*
X018623Y043327D01*
X018473Y043552D02*
X018323Y043552D01*
X018163Y043327D02*
X017862Y043327D01*
X017862Y043778D01*
X018163Y043778D01*
X018012Y043552D02*
X017862Y043552D01*
X017556Y043643D02*
X017481Y043568D01*
X017181Y043568D01*
X017256Y043493D02*
X017256Y043643D01*
X017256Y043800D02*
X017556Y043800D01*
X017406Y043800D02*
X017256Y043950D01*
X017256Y044025D01*
X017106Y044184D02*
X017106Y044259D01*
X017556Y044259D01*
X017556Y044184D02*
X017556Y044334D01*
X017556Y043333D02*
X017556Y043108D01*
X017481Y043033D01*
X017331Y043033D01*
X017256Y043108D01*
X017256Y043333D01*
X017331Y042872D02*
X017331Y042572D01*
X017256Y042415D02*
X017256Y042265D01*
X017181Y042340D02*
X017481Y042340D01*
X017556Y042415D01*
X017556Y042105D02*
X017256Y042105D01*
X017256Y041805D02*
X017481Y041805D01*
X017556Y041880D01*
X017556Y042105D01*
X017862Y042127D02*
X018012Y042277D01*
X018087Y042277D01*
X017862Y042277D02*
X017862Y041977D01*
X017481Y041645D02*
X017556Y041570D01*
X017556Y041420D01*
X017481Y041344D01*
X017181Y041344D01*
X017106Y041420D01*
X017106Y041570D01*
X017181Y041645D01*
X017481Y041645D01*
X017481Y042722D02*
X017181Y042722D01*
X017862Y042802D02*
X017862Y042952D01*
X018012Y043103D01*
X018169Y043027D02*
X018169Y042727D01*
X018469Y043027D01*
X018469Y042727D01*
X018394Y042652D01*
X018244Y042652D01*
X018169Y042727D01*
X018012Y042652D02*
X017862Y042802D01*
X018169Y043027D02*
X018244Y043103D01*
X018394Y043103D01*
X018469Y043027D01*
X019704Y043327D02*
X019704Y043627D01*
X019854Y043778D01*
X020004Y043627D01*
X020004Y043327D01*
X020164Y043402D02*
X020239Y043327D01*
X020389Y043327D01*
X020464Y043402D01*
X020464Y043778D01*
X020625Y043778D02*
X020925Y043327D01*
X020625Y043327D02*
X020925Y043778D01*
X021545Y043778D02*
X021545Y043327D01*
X021545Y043477D02*
X021771Y043477D01*
X021846Y043552D01*
X021846Y043702D01*
X021771Y043778D01*
X021545Y043778D01*
X022006Y043702D02*
X022006Y043627D01*
X022081Y043552D01*
X022231Y043552D01*
X022306Y043477D01*
X022306Y043402D01*
X022231Y043327D01*
X022081Y043327D01*
X022006Y043402D01*
X022006Y043702D02*
X022081Y043778D01*
X022231Y043778D01*
X022306Y043702D01*
X020164Y043778D02*
X020164Y043402D01*
X020004Y043552D02*
X019704Y043552D01*
X015275Y043996D02*
X014775Y043996D01*
X015025Y043746D01*
X015275Y043996D01*
X015263Y043985D02*
X014786Y043985D01*
X014835Y043936D02*
X015215Y043936D01*
X015166Y043888D02*
X014883Y043888D01*
X014932Y043839D02*
X015118Y043839D01*
X015069Y043791D02*
X014980Y043791D01*
X010957Y043200D02*
X010957Y042900D01*
X010656Y043200D01*
X010581Y043200D01*
X010506Y043125D01*
X010506Y042975D01*
X010581Y042900D01*
X010506Y042740D02*
X010957Y042440D01*
X010957Y042740D02*
X010506Y042440D01*
X008383Y038278D02*
X008383Y037827D01*
X008233Y037827D02*
X008533Y037827D01*
X008233Y038127D02*
X008383Y038278D01*
X008073Y038202D02*
X008073Y038052D01*
X007998Y037977D01*
X007773Y037977D01*
X007773Y037827D02*
X007773Y038278D01*
X007998Y038278D01*
X008073Y038202D01*
X007613Y038278D02*
X007462Y038278D01*
X007537Y038278D02*
X007537Y037902D01*
X007462Y037827D01*
X007387Y037827D01*
X007312Y037902D01*
X008737Y035448D02*
X008662Y035372D01*
X008662Y035072D01*
X008737Y034997D01*
X008887Y034997D01*
X008963Y035072D01*
X008963Y035372D01*
X008887Y035448D01*
X008737Y035448D01*
X008812Y035147D02*
X008963Y034997D01*
X009123Y035072D02*
X009198Y034997D01*
X009348Y034997D01*
X009423Y035072D01*
X009423Y035147D01*
X009348Y035222D01*
X009273Y035222D01*
X009348Y035222D02*
X009423Y035297D01*
X009423Y035372D01*
X009348Y035448D01*
X009198Y035448D01*
X009123Y035372D01*
X013229Y037373D02*
X013529Y037373D01*
X013689Y037373D02*
X013989Y037673D01*
X013989Y037748D01*
X013914Y037823D01*
X013764Y037823D01*
X013689Y037748D01*
X013689Y037373D02*
X013989Y037373D01*
X013229Y037373D02*
X013229Y037823D01*
X021087Y032703D02*
X021087Y032252D01*
X021388Y032252D01*
X021548Y032252D02*
X021848Y032252D01*
X021698Y032252D02*
X021698Y032703D01*
X021548Y032552D01*
D818*
X019098Y035857D02*
X019098Y039597D01*
X019096Y039636D01*
X019090Y039674D01*
X019081Y039711D01*
X019068Y039748D01*
X019051Y039783D01*
X019032Y039816D01*
X019009Y039847D01*
X018983Y039876D01*
X018954Y039902D01*
X018923Y039925D01*
X018890Y039944D01*
X018855Y039961D01*
X018818Y039974D01*
X018781Y039983D01*
X018743Y039989D01*
X018704Y039991D01*
X017943Y039991D01*
X015331Y039991D02*
X014570Y039991D01*
X014531Y039989D01*
X014493Y039983D01*
X014456Y039974D01*
X014419Y039961D01*
X014384Y039944D01*
X014351Y039925D01*
X014320Y039902D01*
X014291Y039876D01*
X014265Y039847D01*
X014242Y039816D01*
X014223Y039783D01*
X014206Y039748D01*
X014193Y039711D01*
X014184Y039674D01*
X014178Y039636D01*
X014176Y039597D01*
X014177Y039597D02*
X014177Y035857D01*
X014176Y035857D02*
X014178Y035818D01*
X014184Y035780D01*
X014193Y035743D01*
X014206Y035706D01*
X014223Y035671D01*
X014242Y035638D01*
X014265Y035607D01*
X014291Y035578D01*
X014320Y035552D01*
X014351Y035529D01*
X014384Y035510D01*
X014419Y035493D01*
X014456Y035480D01*
X014493Y035471D01*
X014531Y035465D01*
X014570Y035463D01*
X015331Y035463D01*
X015087Y035202D02*
X012587Y035202D01*
X012587Y032202D01*
X015087Y032202D01*
X015087Y035202D01*
X014337Y034327D02*
X014337Y034077D01*
X014337Y033327D02*
X014337Y033077D01*
X017943Y035463D02*
X018704Y035463D01*
X018743Y035465D01*
X018781Y035471D01*
X018818Y035480D01*
X018855Y035493D01*
X018890Y035510D01*
X018923Y035529D01*
X018954Y035552D01*
X018983Y035578D01*
X019009Y035607D01*
X019032Y035638D01*
X019051Y035671D01*
X019068Y035706D01*
X019081Y035743D01*
X019090Y035780D01*
X019096Y035818D01*
X019098Y035857D01*
X026421Y042965D02*
X027821Y043665D01*
X027821Y043200D01*
X027820Y043200D02*
X027821Y043182D01*
X027819Y043164D01*
X027813Y043147D01*
X027806Y043130D01*
X027795Y043115D01*
X028246Y043515D02*
X028277Y043487D01*
X028305Y043456D01*
X028331Y043423D01*
X028354Y043388D01*
X028374Y043351D01*
X028391Y043312D01*
X028404Y043273D01*
X028414Y043232D01*
X028421Y043190D01*
X027796Y043115D02*
X027782Y043073D01*
X027772Y043030D01*
X027766Y042986D01*
X027763Y042942D01*
X027764Y042898D01*
X027769Y042854D01*
X027777Y042811D01*
X027788Y042768D01*
X027804Y042727D01*
X027822Y042687D01*
X027844Y042648D01*
X027869Y042612D01*
X027897Y042578D01*
X027927Y042546D01*
X027960Y042517D01*
X027996Y042490D01*
X028146Y042715D02*
X028176Y042693D01*
X028204Y042668D01*
X028229Y042641D01*
X028252Y042612D01*
X028272Y042580D01*
X028289Y042547D01*
X028303Y042513D01*
X028313Y042477D01*
X028321Y042440D01*
X028721Y042440D01*
X028721Y042415D01*
X028721Y042440D02*
X028722Y042448D01*
X028726Y042455D01*
X028731Y042460D01*
X028738Y042464D01*
X028746Y042465D01*
X028796Y042465D01*
X028804Y042464D01*
X028811Y042460D01*
X028816Y042455D01*
X028820Y042448D01*
X028821Y042440D01*
X028771Y042365D02*
X028758Y042367D01*
X028746Y042372D01*
X028736Y042380D01*
X028728Y042390D01*
X028723Y042402D01*
X028721Y042415D01*
X028821Y042440D02*
X028819Y042417D01*
X028814Y042394D01*
X028805Y042372D01*
X028792Y042352D01*
X028777Y042334D01*
X028759Y042319D01*
X028739Y042306D01*
X028717Y042297D01*
X028694Y042292D01*
X028671Y042290D01*
X028246Y042290D01*
X028245Y042290D02*
X028223Y042292D01*
X028202Y042297D01*
X028182Y042305D01*
X028163Y042316D01*
X028146Y042330D01*
X028131Y042347D01*
X028120Y042365D01*
X027846Y042265D02*
X029221Y044365D01*
X028171Y043840D01*
X028171Y043715D01*
X028171Y043840D02*
X027821Y043665D01*
X028170Y043715D02*
X028169Y043687D01*
X028171Y043660D01*
X028176Y043633D01*
X028184Y043606D01*
X028195Y043581D01*
X028209Y043557D01*
X028226Y043535D01*
X028245Y043515D01*
X028495Y042965D02*
X028509Y042931D01*
X028526Y042899D01*
X028547Y042870D01*
X028571Y042842D01*
X028597Y042818D01*
X028626Y042796D01*
X028657Y042778D01*
X028690Y042763D01*
X028724Y042751D01*
X028759Y042743D01*
X028795Y042740D01*
X028796Y042725D02*
X028796Y042665D01*
X028790Y042652D01*
X028782Y042640D01*
X028771Y042629D01*
X028759Y042621D01*
X028746Y042615D01*
X028726Y042607D01*
X028705Y042602D01*
X028683Y042600D01*
X028661Y042602D01*
X028640Y042607D01*
X028620Y042615D01*
X028620Y042614D02*
X028580Y042635D01*
X028541Y042659D01*
X028505Y042686D01*
X028471Y042716D01*
X028440Y042749D01*
X028412Y042785D01*
X028387Y042822D01*
X028365Y042862D01*
X028346Y042903D01*
X028331Y042946D01*
X028320Y042990D01*
X027995Y042490D02*
X028025Y042470D01*
X028052Y042448D01*
X028078Y042422D01*
X028100Y042395D01*
X028120Y042365D01*
X029221Y041565D02*
X029221Y044365D01*
X028445Y043140D02*
X028460Y043081D01*
X028476Y043023D01*
X028495Y042965D01*
X029221Y041565D02*
X026421Y042965D01*
X029667Y041622D02*
X029667Y038433D01*
X032108Y038433D01*
X032108Y041622D01*
X029667Y041622D01*
X029988Y029286D02*
X032981Y029286D01*
X032981Y028695D01*
X030382Y028695D01*
X030382Y028617D01*
X030383Y028617D02*
X030382Y028556D01*
X030378Y028496D01*
X030369Y028436D01*
X030357Y028376D01*
X030342Y028318D01*
X030322Y028260D01*
X030299Y028204D01*
X030273Y028149D01*
X030243Y028097D01*
X030210Y028046D01*
X030174Y027997D01*
X030135Y027951D01*
X030093Y027907D01*
X030048Y027866D01*
X030001Y027828D01*
X029952Y027793D01*
X029900Y027761D01*
X029847Y027732D01*
X029791Y027707D01*
X029735Y027686D01*
X029677Y027667D01*
X029618Y027653D01*
X029558Y027642D01*
X029498Y027635D01*
X029438Y027632D01*
X029437Y027632D02*
X029437Y027120D01*
X032981Y027120D01*
X032981Y026628D01*
X029437Y026628D01*
X029437Y020526D01*
X032981Y020526D01*
X032981Y020034D01*
X029437Y020034D01*
X029437Y019522D01*
X029438Y019522D02*
X029498Y019519D01*
X029558Y019512D01*
X029618Y019501D01*
X029677Y019487D01*
X029735Y019468D01*
X029791Y019447D01*
X029847Y019422D01*
X029900Y019393D01*
X029952Y019361D01*
X030001Y019326D01*
X030048Y019288D01*
X030093Y019247D01*
X030135Y019203D01*
X030174Y019157D01*
X030210Y019108D01*
X030243Y019057D01*
X030273Y019005D01*
X030299Y018950D01*
X030322Y018894D01*
X030342Y018836D01*
X030357Y018778D01*
X030369Y018718D01*
X030378Y018658D01*
X030382Y018598D01*
X030383Y018537D01*
X030382Y018538D02*
X030382Y018459D01*
X032981Y018459D01*
X032981Y017869D01*
X029988Y017869D01*
X028886Y017869D02*
X028256Y017869D01*
X028256Y029286D01*
X028886Y029286D01*
X020387Y025427D02*
X019387Y025427D01*
X019387Y020927D01*
X020387Y020927D01*
X019387Y020927D02*
X018637Y020927D01*
X018637Y025427D01*
X019387Y025427D01*
X018137Y025427D02*
X018137Y020927D01*
X017887Y020927D02*
X017887Y025427D01*
X017387Y025427D02*
X016637Y025427D01*
X015637Y025427D01*
X016637Y025427D02*
X016637Y020927D01*
X015637Y020927D01*
X016637Y020927D02*
X017387Y020927D01*
X017387Y025427D01*
X010187Y016076D02*
X009191Y015080D01*
X009320Y015373D02*
X009320Y015774D01*
X009520Y015774D01*
X009587Y015707D01*
X009587Y015573D01*
X009520Y015507D01*
X009320Y015507D01*
X008989Y015578D02*
X008991Y015630D01*
X008997Y015682D01*
X009007Y015734D01*
X009020Y015784D01*
X009037Y015834D01*
X009058Y015882D01*
X009083Y015928D01*
X009111Y015972D01*
X009142Y016014D01*
X009176Y016054D01*
X009213Y016091D01*
X009253Y016125D01*
X009295Y016156D01*
X009339Y016184D01*
X009385Y016209D01*
X009433Y016230D01*
X009483Y016247D01*
X009533Y016260D01*
X009585Y016270D01*
X009637Y016276D01*
X009689Y016278D01*
X009741Y016276D01*
X009793Y016270D01*
X009845Y016260D01*
X009895Y016247D01*
X009945Y016230D01*
X009993Y016209D01*
X010039Y016184D01*
X010083Y016156D01*
X010125Y016125D01*
X010165Y016091D01*
X010202Y016054D01*
X010236Y016014D01*
X010267Y015972D01*
X010295Y015928D01*
X010320Y015882D01*
X010341Y015834D01*
X010358Y015784D01*
X010371Y015734D01*
X010381Y015682D01*
X010387Y015630D01*
X010389Y015578D01*
X010387Y015526D01*
X010381Y015474D01*
X010371Y015422D01*
X010358Y015372D01*
X010341Y015322D01*
X010320Y015274D01*
X010295Y015228D01*
X010267Y015184D01*
X010236Y015142D01*
X010202Y015102D01*
X010165Y015065D01*
X010125Y015031D01*
X010083Y015000D01*
X010039Y014972D01*
X009993Y014947D01*
X009945Y014926D01*
X009895Y014909D01*
X009845Y014896D01*
X009793Y014886D01*
X009741Y014880D01*
X009689Y014878D01*
X009637Y014880D01*
X009585Y014886D01*
X009533Y014896D01*
X009483Y014909D01*
X009433Y014926D01*
X009385Y014947D01*
X009339Y014972D01*
X009295Y015000D01*
X009253Y015031D01*
X009213Y015065D01*
X009176Y015102D01*
X009142Y015142D01*
X009111Y015184D01*
X009083Y015228D01*
X009058Y015274D01*
X009037Y015322D01*
X009020Y015372D01*
X009007Y015422D01*
X008997Y015474D01*
X008991Y015526D01*
X008989Y015578D01*
X008439Y016103D02*
X008339Y016103D01*
X007139Y014903D01*
X007539Y014903D02*
X007539Y015053D01*
X007439Y016303D01*
X007639Y016303D01*
X007639Y016603D01*
X007689Y016603D01*
X007689Y016303D01*
X008339Y016303D01*
X008269Y015213D01*
X008081Y015053D02*
X008083Y015078D01*
X008089Y015102D01*
X008098Y015125D01*
X008111Y015146D01*
X008127Y015165D01*
X008146Y015181D01*
X008167Y015194D01*
X008190Y015203D01*
X008214Y015209D01*
X008239Y015211D01*
X008264Y015209D01*
X008288Y015203D01*
X008311Y015194D01*
X008332Y015181D01*
X008351Y015165D01*
X008367Y015146D01*
X008380Y015125D01*
X008389Y015102D01*
X008395Y015078D01*
X008397Y015053D01*
X008395Y015028D01*
X008389Y015004D01*
X008380Y014981D01*
X008367Y014960D01*
X008351Y014941D01*
X008332Y014925D01*
X008311Y014912D01*
X008288Y014903D01*
X008264Y014897D01*
X008239Y014895D01*
X008214Y014897D01*
X008190Y014903D01*
X008167Y014912D01*
X008146Y014925D01*
X008127Y014941D01*
X008111Y014960D01*
X008098Y014981D01*
X008089Y015004D01*
X008083Y015028D01*
X008081Y015053D01*
X008079Y015053D02*
X007689Y015053D01*
X007689Y014903D01*
X007539Y014903D01*
X007539Y015053D02*
X007689Y015053D01*
X008229Y015053D02*
X008231Y015058D01*
X008235Y015062D01*
X008240Y015063D01*
X008246Y015061D01*
X008249Y015056D01*
X008249Y015050D01*
X008246Y015045D01*
X008240Y015043D01*
X008235Y015044D01*
X008231Y015048D01*
X008229Y015053D01*
X008639Y014903D02*
X007139Y016403D01*
X007389Y016303D02*
X007439Y016303D01*
X007639Y016303D02*
X007689Y016303D01*
X007839Y016053D02*
X008139Y016053D01*
X008139Y015953D01*
X007839Y015953D01*
X007839Y016053D01*
X007439Y016303D02*
X007460Y016340D01*
X007484Y016376D01*
X007511Y016409D01*
X007540Y016440D01*
X007572Y016469D01*
X007607Y016494D01*
X007643Y016517D01*
X007681Y016536D01*
X007721Y016552D01*
X007762Y016565D01*
X007804Y016574D01*
X007846Y016579D01*
X007889Y016581D01*
X007932Y016579D01*
X007974Y016574D01*
X008016Y016565D01*
X008057Y016552D01*
X008097Y016536D01*
X008135Y016517D01*
X008171Y016494D01*
X008206Y016469D01*
X008238Y016440D01*
X008267Y016409D01*
X008294Y016376D01*
X008318Y016340D01*
X008339Y016303D01*
X008389Y016303D01*
X008439Y016253D01*
X008439Y016103D01*
X008339Y016103D02*
X008639Y016403D01*
X008239Y016353D02*
X008241Y016366D01*
X008246Y016379D01*
X008255Y016390D01*
X008266Y016397D01*
X008279Y016402D01*
X008292Y016403D01*
X008306Y016400D01*
X008318Y016394D01*
X008328Y016385D01*
X008335Y016373D01*
X008339Y016360D01*
X008339Y016346D01*
X008335Y016333D01*
X008328Y016321D01*
X008318Y016312D01*
X008306Y016306D01*
X008292Y016303D01*
X008279Y016304D01*
X008266Y016309D01*
X008255Y016316D01*
X008246Y016327D01*
X008241Y016340D01*
X008239Y016353D01*
X007939Y016603D02*
X007939Y016703D01*
X007839Y016703D01*
X007839Y016603D01*
X007939Y016603D01*
X009780Y015774D02*
X009780Y015373D01*
X009980Y015373D01*
X010047Y015440D01*
X010047Y015573D01*
X009980Y015640D01*
X009780Y015640D01*
X009512Y020027D02*
X007012Y020027D01*
X007012Y023027D01*
X009512Y023027D01*
X009512Y020027D01*
X007762Y020902D02*
X007762Y021152D01*
X007762Y021902D02*
X007762Y022152D01*
X007857Y023995D02*
X007227Y023995D01*
X007201Y023997D01*
X007176Y024002D01*
X007152Y024010D01*
X007128Y024021D01*
X007107Y024036D01*
X007088Y024053D01*
X007071Y024072D01*
X007056Y024094D01*
X007045Y024117D01*
X007037Y024141D01*
X007032Y024166D01*
X007030Y024192D01*
X007031Y024192D02*
X007031Y026712D01*
X007030Y026712D02*
X007032Y026738D01*
X007037Y026763D01*
X007045Y026787D01*
X007056Y026811D01*
X007071Y026832D01*
X007088Y026851D01*
X007107Y026868D01*
X007128Y026883D01*
X007152Y026894D01*
X007176Y026902D01*
X007201Y026907D01*
X007227Y026909D01*
X007857Y026909D01*
X009117Y026909D02*
X009747Y026909D01*
X009773Y026907D01*
X009798Y026902D01*
X009822Y026894D01*
X009846Y026883D01*
X009867Y026868D01*
X009886Y026851D01*
X009903Y026832D01*
X009918Y026810D01*
X009929Y026787D01*
X009937Y026763D01*
X009942Y026738D01*
X009944Y026712D01*
X009944Y024192D01*
X009942Y024166D01*
X009937Y024141D01*
X009929Y024117D01*
X009918Y024093D01*
X009903Y024072D01*
X009886Y024053D01*
X009867Y024036D01*
X009845Y024021D01*
X009822Y024010D01*
X009798Y024002D01*
X009773Y023997D01*
X009747Y023995D01*
X009117Y023995D01*
X020739Y008678D02*
X021314Y008678D01*
X021864Y008678D01*
X021739Y008428D02*
X020864Y008428D01*
X020989Y008178D02*
X021614Y008178D01*
X020559Y008628D02*
X020561Y008682D01*
X020567Y008736D01*
X020577Y008789D01*
X020590Y008842D01*
X020607Y008893D01*
X020628Y008943D01*
X020653Y008991D01*
X020681Y009038D01*
X020712Y009082D01*
X020746Y009124D01*
X020783Y009163D01*
X020823Y009200D01*
X020866Y009233D01*
X020911Y009264D01*
X020958Y009291D01*
X021006Y009314D01*
X021057Y009334D01*
X021108Y009351D01*
X021161Y009363D01*
X021214Y009372D01*
X021268Y009377D01*
X021323Y009378D01*
X021377Y009375D01*
X021430Y009368D01*
X021483Y009357D01*
X021536Y009343D01*
X021587Y009325D01*
X021636Y009303D01*
X021684Y009278D01*
X021730Y009249D01*
X021774Y009217D01*
X021815Y009182D01*
X021853Y009144D01*
X021889Y009103D01*
X021922Y009060D01*
X021952Y009015D01*
X021978Y008967D01*
X022001Y008918D01*
X022020Y008867D01*
X022035Y008816D01*
X022047Y008763D01*
X022055Y008709D01*
X022059Y008655D01*
X022059Y008601D01*
X022055Y008547D01*
X022047Y008493D01*
X022035Y008440D01*
X022020Y008389D01*
X022001Y008338D01*
X021978Y008289D01*
X021952Y008241D01*
X021922Y008196D01*
X021889Y008153D01*
X021853Y008112D01*
X021815Y008074D01*
X021774Y008039D01*
X021730Y008007D01*
X021684Y007978D01*
X021636Y007953D01*
X021587Y007931D01*
X021536Y007913D01*
X021483Y007899D01*
X021430Y007888D01*
X021377Y007881D01*
X021323Y007878D01*
X021268Y007879D01*
X021214Y007884D01*
X021161Y007893D01*
X021108Y007905D01*
X021057Y007922D01*
X021006Y007942D01*
X020958Y007965D01*
X020911Y007992D01*
X020866Y008023D01*
X020823Y008056D01*
X020783Y008093D01*
X020746Y008132D01*
X020712Y008174D01*
X020681Y008218D01*
X020653Y008265D01*
X020628Y008313D01*
X020607Y008363D01*
X020590Y008414D01*
X020577Y008467D01*
X020567Y008520D01*
X020561Y008574D01*
X020559Y008628D01*
X021314Y008678D02*
X021314Y009178D01*
X027737Y009352D02*
X032837Y009352D01*
X032837Y013052D01*
X027737Y013052D01*
X027737Y009352D01*
D819*
X032177Y013287D02*
X032177Y013582D01*
X032275Y013681D01*
X032472Y013681D01*
X032570Y013582D01*
X032570Y013287D01*
X032570Y013484D02*
X032767Y013681D01*
X032767Y013895D02*
X032374Y014289D01*
X032275Y014289D01*
X032177Y014190D01*
X032177Y013993D01*
X032275Y013895D01*
X032767Y013895D02*
X032767Y014289D01*
X032767Y013287D02*
X032177Y013287D01*
X028023Y027537D02*
X027432Y027537D01*
X027727Y027636D02*
X028023Y027931D01*
X028023Y028145D02*
X027432Y028145D01*
X027432Y027931D02*
X027826Y027537D01*
X027826Y028145D02*
X027432Y028539D01*
X027629Y028753D02*
X027432Y028949D01*
X028023Y028949D01*
X028023Y028753D02*
X028023Y029146D01*
X028023Y028539D02*
X027727Y028243D01*
X020602Y023854D02*
X020602Y023644D01*
X020602Y023749D02*
X020182Y023749D01*
X020182Y023644D01*
X020182Y023422D02*
X020182Y023317D01*
X020392Y023107D01*
X020602Y023107D02*
X020182Y023107D01*
X020077Y022883D02*
X020287Y022883D01*
X020392Y022777D01*
X020392Y022462D01*
X020602Y022462D02*
X019972Y022462D01*
X019972Y022777D01*
X020077Y022883D01*
X019972Y023749D02*
X019867Y023749D01*
X015802Y023673D02*
X015802Y023988D01*
X015802Y023673D02*
X015697Y023568D01*
X015487Y023568D01*
X015382Y023673D01*
X015382Y023988D01*
X015487Y023343D02*
X015382Y023238D01*
X015382Y023028D01*
X015487Y022923D01*
X015697Y022923D01*
X015802Y023028D01*
X015802Y023238D01*
X015592Y023343D02*
X015592Y022923D01*
X015592Y022699D02*
X015697Y022699D01*
X015802Y022594D01*
X015802Y022384D01*
X015697Y022279D01*
X015487Y022384D02*
X015487Y022594D01*
X015592Y022699D01*
X015277Y022699D02*
X015172Y022594D01*
X015172Y022384D01*
X015277Y022279D01*
X015382Y022279D01*
X015487Y022384D01*
X015487Y023343D02*
X015592Y023343D01*
D820*
X010701Y029099D02*
X009930Y029099D01*
X009930Y028842D02*
X009930Y029356D01*
X009930Y029634D02*
X009930Y030019D01*
X010058Y030148D01*
X010315Y030148D01*
X010444Y030019D01*
X010444Y029634D01*
X010701Y029634D02*
X009930Y029634D01*
X010444Y029891D02*
X010701Y030148D01*
X010701Y030426D02*
X010701Y030939D01*
X010701Y030682D02*
X009930Y030682D01*
X010187Y030426D01*
D821*
X026497Y039303D03*
D822*
X024872Y039028D02*
X024899Y038949D01*
X024929Y038872D01*
X024963Y038796D01*
X025000Y038722D01*
X025042Y038649D01*
X025086Y038579D01*
X025134Y038511D01*
X025186Y038446D01*
X025240Y038383D01*
X025298Y038323D01*
X025358Y038266D01*
X025421Y038212D01*
X025487Y038161D01*
X025555Y038113D01*
X025625Y038068D01*
X025698Y038028D01*
X025772Y037990D01*
X025848Y037957D01*
X025926Y037927D01*
X026005Y037901D01*
X026085Y037879D01*
X026166Y037860D01*
X026248Y037846D01*
X026331Y037836D01*
X026414Y037830D01*
X026497Y037828D01*
X026580Y037830D01*
X026663Y037836D01*
X026746Y037846D01*
X026828Y037860D01*
X026909Y037879D01*
X026989Y037901D01*
X027068Y037927D01*
X027146Y037957D01*
X027222Y037990D01*
X027296Y038028D01*
X027369Y038068D01*
X027439Y038113D01*
X027507Y038161D01*
X027573Y038212D01*
X027636Y038266D01*
X027696Y038323D01*
X027754Y038383D01*
X027808Y038446D01*
X027860Y038511D01*
X027908Y038579D01*
X027952Y038649D01*
X027994Y038722D01*
X028031Y038796D01*
X028065Y038872D01*
X028095Y038949D01*
X028122Y039028D01*
D823*
X028110Y037839D02*
X028110Y037065D01*
X029664Y037065D01*
X029664Y037839D01*
X028110Y037839D01*
X030010Y037839D02*
X030010Y037065D01*
X031564Y037065D01*
X031564Y037839D01*
X030010Y037839D01*
X029898Y031708D02*
X029898Y030146D01*
X033026Y030146D01*
X033026Y031708D01*
X029898Y031708D01*
X029351Y031708D02*
X029351Y030146D01*
X026223Y030146D01*
X026223Y031708D01*
X029351Y031708D01*
X024149Y032675D02*
X023375Y032675D01*
X023375Y034229D01*
X024149Y034229D01*
X024149Y032675D01*
X023374Y032675D02*
X022600Y032675D01*
X022600Y034229D01*
X023374Y034229D01*
X023374Y032675D01*
X022600Y034240D02*
X022600Y035014D01*
X024154Y035014D01*
X024154Y034240D01*
X022600Y034240D01*
X022600Y035025D02*
X023374Y035025D01*
X023374Y036579D01*
X022600Y036579D01*
X022600Y035025D01*
X023375Y035025D02*
X023375Y036579D01*
X024149Y036579D01*
X024149Y035025D01*
X023375Y035025D01*
X023374Y036950D02*
X022600Y036950D01*
X022600Y038504D01*
X023374Y038504D01*
X023374Y036950D01*
X023375Y036950D02*
X024149Y036950D01*
X024149Y038504D01*
X023375Y038504D01*
X023375Y036950D01*
X024039Y038515D02*
X022485Y038515D01*
X022485Y039289D01*
X024039Y039289D01*
X024039Y038515D01*
X021936Y040665D02*
X021936Y041439D01*
X019989Y041439D01*
X019989Y040665D01*
X021936Y040665D01*
X020349Y039779D02*
X020349Y038225D01*
X019575Y038225D01*
X019575Y039779D01*
X020349Y039779D01*
X019939Y040665D02*
X019939Y041439D01*
X018385Y041439D01*
X018385Y040665D01*
X019939Y040665D01*
X020124Y037354D02*
X019350Y037354D01*
X019350Y035800D01*
X020124Y035800D01*
X020124Y037354D01*
X020686Y035386D02*
X018739Y035386D01*
X018739Y034118D01*
X020686Y034118D01*
X020686Y035386D01*
X020564Y034064D02*
X020564Y033290D01*
X019010Y033290D01*
X019010Y034064D01*
X020564Y034064D01*
X020564Y033289D02*
X020564Y032515D01*
X019010Y032515D01*
X019010Y033289D01*
X020564Y033289D01*
X013136Y037993D02*
X013136Y039261D01*
X011189Y039261D01*
X011189Y037993D01*
X013136Y037993D01*
X013136Y039368D02*
X013136Y040636D01*
X011189Y040636D01*
X011189Y039368D01*
X013136Y039368D01*
X011449Y037679D02*
X011449Y036125D01*
X010675Y036125D01*
X010675Y037679D01*
X011449Y037679D01*
X010824Y037800D02*
X010050Y037800D01*
X010050Y039354D01*
X010824Y039354D01*
X010824Y037800D01*
X010674Y037679D02*
X010674Y036125D01*
X009900Y036125D01*
X009900Y037679D01*
X010674Y037679D01*
X009889Y037664D02*
X009889Y036890D01*
X008335Y036890D01*
X008335Y037664D01*
X009889Y037664D01*
X010589Y039815D02*
X009035Y039815D01*
X009035Y040589D01*
X010589Y040589D01*
X010589Y039815D01*
X010589Y040590D02*
X010589Y041364D01*
X009035Y041364D01*
X009035Y040590D01*
X010589Y040590D01*
X010355Y034867D02*
X007620Y034867D01*
X007620Y031337D01*
X010355Y031337D01*
X010355Y034867D01*
X027782Y017391D02*
X027782Y014263D01*
X029343Y014263D01*
X029343Y017391D01*
X027782Y017391D01*
D824*
X020526Y040177D03*
X007951Y036502D03*
D825*
X012727Y034597D02*
X013097Y034597D01*
X013097Y034474D02*
X013097Y034721D01*
X012850Y034474D02*
X012727Y034597D01*
X009372Y020664D02*
X009372Y020417D01*
X009372Y020541D02*
X009002Y020541D01*
X009125Y020417D01*
D826*
X023992Y012537D03*
X026298Y012537D03*
X026298Y008187D03*
X023992Y008187D03*
D827*
X028012Y023552D03*
X029612Y023552D03*
D828*
X029912Y026452D03*
X027712Y026452D03*
X027712Y020652D03*
X029912Y020652D03*
D829*
X029912Y022477D03*
X029912Y024627D03*
X027712Y024627D03*
X027712Y022477D03*
D830*
X028840Y035565D03*
X032740Y035565D03*
D831*
X021263Y011487D03*
X019098Y011487D03*
D832*
X018900Y011487D03*
X021475Y011487D03*
D833*
X022681Y028924D02*
X023134Y028924D01*
X023361Y029151D01*
X023134Y029378D01*
X022681Y029378D01*
X022681Y029624D02*
X022681Y029964D01*
X022794Y030077D01*
X023021Y030077D01*
X023134Y029964D01*
X023134Y029624D01*
X023361Y029624D02*
X022681Y029624D01*
X022681Y030323D02*
X022681Y030664D01*
X022794Y030777D01*
X023021Y030777D01*
X023134Y030664D01*
X023134Y030323D01*
X023361Y030323D02*
X022681Y030323D01*
X024806Y030323D02*
X024806Y030777D01*
X024919Y030777D01*
X025373Y030323D01*
X025486Y030323D01*
X025486Y030777D01*
X025486Y030077D02*
X025486Y029624D01*
X024806Y029624D01*
X024806Y030077D01*
X025146Y029851D02*
X025146Y029624D01*
X024806Y029378D02*
X024806Y028924D01*
X024806Y029151D02*
X025486Y029151D01*
X016962Y041093D02*
X016962Y044400D01*
X014766Y044400D01*
X013283Y044400D01*
X013283Y043790D01*
X014766Y043790D01*
X014766Y044400D01*
X014766Y044036D02*
X016519Y044036D01*
X016519Y041457D01*
X011531Y041457D01*
X011531Y044036D01*
X013283Y044036D01*
X013283Y044400D02*
X012269Y044400D01*
X012269Y044282D01*
X011687Y044282D01*
X011687Y044400D01*
X011088Y044400D01*
X011088Y041093D01*
X016962Y041093D01*
X023059Y041607D02*
X023059Y041687D01*
X023059Y041607D02*
X025460Y041607D01*
X025460Y044197D01*
X023059Y044197D01*
X023059Y044118D01*
X010277Y033802D02*
X010277Y032402D01*
X007697Y032402D01*
X007697Y033802D01*
X010277Y033802D01*
D834*
X007889Y014453D03*
D835*
X010907Y014319D02*
X025868Y014319D01*
X025868Y032035D01*
X010907Y032035D01*
X010907Y014319D01*
X010962Y015027D02*
X011388Y015027D01*
X011782Y015027D02*
X012208Y015027D01*
X012602Y015027D02*
X013028Y015027D01*
X013422Y015027D02*
X013848Y015027D01*
X014242Y015027D02*
X014668Y015027D01*
X015062Y015027D02*
X015488Y015027D01*
X015882Y015027D02*
X016308Y015027D01*
X016702Y015027D02*
X017128Y015027D01*
X017522Y015027D02*
X017948Y015027D01*
X018342Y015027D02*
X018768Y015027D01*
X019161Y015027D02*
X019588Y015027D01*
X019981Y015027D02*
X020408Y015027D01*
X020801Y015027D02*
X021228Y015027D01*
X021621Y015027D02*
X022047Y015027D01*
X022441Y015027D02*
X022867Y015027D01*
X023261Y015027D02*
X023687Y015027D01*
X023687Y015573D01*
X023687Y015967D02*
X023687Y016513D01*
X023687Y016906D02*
X023687Y017452D01*
X023687Y018902D02*
X023687Y019310D01*
X023687Y019704D02*
X023687Y020112D01*
X023687Y020506D02*
X023687Y020914D01*
X023687Y021307D02*
X023687Y021715D01*
X023687Y022109D02*
X023687Y022517D01*
X023687Y022911D02*
X023687Y023319D01*
X023687Y023712D02*
X023687Y024120D01*
X023687Y024514D02*
X023687Y024922D01*
X023687Y025316D02*
X023687Y025724D01*
X023687Y026117D02*
X023687Y026525D01*
X023687Y026919D02*
X023687Y027327D01*
X023687Y028902D02*
X023687Y029448D01*
X023687Y029842D02*
X023687Y030388D01*
X023687Y030781D02*
X023687Y031327D01*
X023261Y031327D01*
X022867Y031327D02*
X022441Y031327D01*
X022047Y031327D02*
X021621Y031327D01*
X021228Y031327D02*
X020801Y031327D01*
X020408Y031327D02*
X019981Y031327D01*
X019588Y031327D02*
X019161Y031327D01*
X018768Y031327D02*
X018342Y031327D01*
X017948Y031327D02*
X017522Y031327D01*
X017128Y031327D02*
X016702Y031327D01*
X016308Y031327D02*
X015882Y031327D01*
X015488Y031327D02*
X015062Y031327D01*
X014668Y031327D02*
X014242Y031327D01*
X013848Y031327D02*
X013422Y031327D01*
X013028Y031327D02*
X012602Y031327D01*
X012208Y031327D02*
X011782Y031327D01*
X011388Y031327D02*
X010962Y031327D01*
D836*
X017012Y023177D03*
X019012Y023177D03*
D837*
X025624Y042902D03*
D838*
X025640Y042003D03*
X025640Y043802D03*
M02*
