G75*
G70*
%OFA0B0*%
%FSLAX24Y24*%
%IPPOS*%
%LPD*%
%AMOC8*
5,1,8,0,0,1.08239X$1,22.5*
%
%ADD10C,0.1100*%
%ADD11OC8,0.1100*%
%ADD12C,0.1100*%
%ADD13OC8,0.0973*%
%ADD14C,0.0907*%
%ADD15OC8,0.0640*%
%ADD16OC8,0.0840*%
%ADD17C,0.1653*%
%ADD18C,0.0674*%
%ADD19C,0.0674*%
%ADD20C,0.0640*%
%ADD21C,0.1436*%
%ADD22OC8,0.0674*%
%ADD23R,0.0674X0.0674*%
%ADD24C,0.1039*%
%ADD25C,0.1386*%
%ADD26OC8,0.0680*%
%ADD27C,0.2562*%
%ADD28C,0.1650*%
%ADD29OC8,0.0516*%
%ADD30C,0.2365*%
D10*
X009384Y017787D03*
X013321Y017787D03*
X013622Y021853D03*
X011672Y021853D03*
X012420Y025790D03*
X014370Y025790D03*
X039047Y011812D03*
D11*
X041047Y011812D03*
X028742Y014976D03*
X027821Y016147D03*
X025821Y016147D03*
X021821Y016147D03*
X019821Y016147D03*
X018900Y014976D03*
X018900Y024818D03*
X019821Y026147D03*
X020868Y024818D03*
X021821Y026147D03*
X023821Y024818D03*
X025821Y026147D03*
X026774Y024818D03*
X027821Y026147D03*
X028742Y024818D03*
D12*
X008328Y023906D02*
X007328Y023906D01*
X007328Y025874D02*
X008328Y025874D01*
X008328Y027843D02*
X007328Y027843D01*
X007328Y021937D02*
X008328Y021937D01*
X008328Y019969D02*
X007328Y019969D01*
D13*
X008006Y014292D03*
X008006Y011986D03*
X014006Y011986D03*
X014006Y014292D03*
D14*
X022046Y011734D02*
X022046Y010909D01*
X024196Y010909D02*
X024196Y011734D01*
X026346Y011734D02*
X026346Y010909D01*
X026346Y008034D02*
X026346Y007209D01*
X024196Y007209D02*
X024196Y008034D01*
X022046Y008034D02*
X022046Y007209D01*
D15*
X012821Y006847D03*
X012821Y009847D03*
D16*
X015896Y009322D03*
X015896Y007322D03*
D17*
X019221Y008847D03*
X029221Y008847D03*
D18*
X046224Y020347D02*
X046818Y020347D01*
X046818Y021347D02*
X046224Y021347D01*
X046224Y022347D02*
X046818Y022347D01*
D19*
X046640Y025259D03*
X045640Y025259D03*
X045640Y026259D03*
X046640Y026259D03*
X046640Y027259D03*
X045640Y027259D03*
X045640Y028259D03*
X046640Y028259D03*
X046640Y029259D03*
X045640Y029259D03*
X020966Y027903D03*
X019966Y027903D03*
X016986Y027903D03*
X015986Y027903D03*
X017226Y032021D03*
X018226Y032021D03*
X019226Y032021D03*
X019726Y033021D03*
X018726Y033021D03*
X017726Y033021D03*
X016726Y033021D03*
D20*
X027920Y030658D03*
X028904Y030658D03*
X028904Y029398D03*
X027920Y029398D03*
D21*
X026042Y029595D03*
X030782Y029595D03*
D22*
X031271Y033022D03*
X032271Y033022D03*
X033271Y033022D03*
X034271Y033022D03*
X035271Y033022D03*
X037371Y033022D03*
X038371Y033022D03*
X039371Y033022D03*
X040371Y033022D03*
X041371Y033022D03*
X029271Y033022D03*
X028271Y033022D03*
X027271Y033022D03*
X026271Y033022D03*
X025271Y033022D03*
X024271Y033022D03*
X023271Y033022D03*
X022271Y033022D03*
D23*
X020226Y032021D03*
D24*
X021576Y031052D03*
X015375Y031052D03*
D25*
X016226Y029521D03*
X020726Y029521D03*
D26*
X013321Y030422D03*
X009321Y030422D03*
D27*
X007646Y007803D03*
X007646Y032606D03*
X043866Y032606D03*
X043866Y007803D03*
D28*
X014021Y032647D03*
X007521Y017747D03*
X007521Y015997D03*
D29*
X039171Y005747D03*
X041171Y005747D03*
D30*
X023788Y030637D03*
M02*
