G75*
G70*
%OFA0B0*%
%FSLAX24Y24*%
%IPPOS*%
%LPD*%
%AMOC8*
5,1,8,0,0,1.08239X$1,22.5*
%
%ADD10C,0.0060*%
%ADD11C,0.1000*%
%ADD12OC8,0.1000*%
%ADD13C,0.0600*%
%ADD14OC8,0.0600*%
%ADD15OC8,0.1181*%
%ADD16OC8,0.0660*%
%ADD17C,0.0594*%
%ADD18OC8,0.1250*%
%ADD19OC8,0.0860*%
%ADD20C,0.1000*%
%ADD21OC8,0.0885*%
%ADD22C,0.0100*%
%ADD23C,0.0010*%
%ADD24C,0.0825*%
%ADD25OC8,0.0560*%
%ADD26OC8,0.0760*%
%ADD27C,0.1502*%
%ADD28C,0.1200*%
%ADD29R,0.0436X0.0436*%
%ADD30OC8,0.0396*%
%ADD31C,0.0120*%
%ADD32C,0.0320*%
%ADD33R,0.0396X0.0396*%
%ADD34C,0.2362*%
%ADD35C,0.0240*%
%ADD36C,0.1500*%
D10*
X006708Y017064D02*
X007208Y017064D01*
X007208Y017314D01*
X007125Y017397D01*
X006958Y017397D01*
X006875Y017314D01*
X006875Y017064D01*
X006791Y017579D02*
X006708Y017663D01*
X006708Y017829D01*
X006791Y017913D01*
X006875Y017913D01*
X006958Y017829D01*
X006958Y017663D01*
X007042Y017579D01*
X007125Y017579D01*
X007208Y017663D01*
X007208Y017829D01*
X007125Y017913D01*
X007208Y018095D02*
X006791Y018095D01*
X006708Y018178D01*
X006708Y018345D01*
X006791Y018428D01*
X007208Y018428D01*
X007042Y019126D02*
X006708Y019126D01*
X006958Y019126D02*
X006958Y019460D01*
X007042Y019460D02*
X006708Y019460D01*
X006791Y019642D02*
X006708Y019725D01*
X006708Y019892D01*
X006791Y019975D01*
X007208Y019975D01*
X007208Y020157D02*
X006708Y020491D01*
X006708Y020157D02*
X007208Y020491D01*
X007208Y021189D02*
X006708Y021189D01*
X006708Y021439D01*
X006791Y021522D01*
X006958Y021522D01*
X007042Y021439D01*
X007042Y021189D01*
X006958Y021704D02*
X006791Y021704D01*
X006708Y021788D01*
X006708Y021954D01*
X006791Y022038D01*
X006958Y022038D01*
X007042Y021954D01*
X007042Y021788D01*
X006958Y021704D01*
X006791Y022220D02*
X006875Y022303D01*
X006875Y022554D01*
X006958Y022554D02*
X006708Y022554D01*
X006708Y022303D01*
X006791Y022220D01*
X007042Y022303D02*
X007042Y022470D01*
X006958Y022554D01*
X006875Y022736D02*
X007042Y022902D01*
X007042Y022986D01*
X006958Y023165D02*
X007042Y023249D01*
X007042Y023499D01*
X007208Y023499D02*
X006708Y023499D01*
X006708Y023249D01*
X006791Y023165D01*
X006958Y023165D01*
X007042Y022736D02*
X006708Y022736D01*
X006875Y024197D02*
X007042Y024197D01*
X007208Y024363D01*
X007125Y024540D02*
X007208Y024624D01*
X007208Y024791D01*
X007125Y024874D01*
X006791Y024540D01*
X006708Y024624D01*
X006708Y024791D01*
X006791Y024874D01*
X007125Y024874D01*
X007042Y025056D02*
X007208Y025223D01*
X006708Y025223D01*
X006708Y025056D02*
X006708Y025390D01*
X006708Y025572D02*
X007208Y025905D01*
X007125Y026087D02*
X007208Y026171D01*
X007208Y026337D01*
X007125Y026421D01*
X007042Y026421D01*
X006708Y026087D01*
X006708Y026421D01*
X006791Y026603D02*
X007125Y026936D01*
X006791Y026936D01*
X006708Y026853D01*
X006708Y026686D01*
X006791Y026603D01*
X007125Y026603D01*
X007208Y026686D01*
X007208Y026853D01*
X007125Y026936D01*
X007042Y027118D02*
X007208Y027285D01*
X006708Y027285D01*
X006708Y027118D02*
X006708Y027452D01*
X006791Y027634D02*
X006708Y027718D01*
X006708Y027884D01*
X006791Y027968D01*
X006875Y027968D01*
X006958Y027884D01*
X006958Y027634D01*
X006791Y027634D01*
X006958Y027634D02*
X007125Y027801D01*
X007208Y027968D01*
X007042Y028665D02*
X006708Y028665D01*
X006875Y028665D02*
X007042Y028832D01*
X007042Y028916D01*
X006958Y029095D02*
X006958Y029429D01*
X006958Y029611D02*
X006958Y029861D01*
X006875Y029944D01*
X006791Y029944D01*
X006708Y029861D01*
X006708Y029611D01*
X007208Y029611D01*
X007208Y029861D01*
X007125Y029944D01*
X007042Y029944D01*
X006958Y029861D01*
X006958Y030126D02*
X006958Y030460D01*
X006791Y030642D02*
X007125Y030976D01*
X006791Y030976D01*
X006708Y030892D01*
X006708Y030725D01*
X006791Y030642D01*
X007125Y030642D01*
X007208Y030725D01*
X007208Y030892D01*
X007125Y030976D01*
X007208Y031158D02*
X007042Y031324D01*
X006875Y031324D01*
X006708Y031158D01*
X006708Y030377D02*
X007208Y030377D01*
X006958Y030126D01*
X006708Y029345D02*
X007208Y029345D01*
X006958Y029095D01*
X006791Y024540D02*
X007125Y024540D01*
X006875Y024197D02*
X006708Y024363D01*
X006791Y019642D02*
X007208Y019642D01*
X007042Y019460D02*
X007208Y019293D01*
X007042Y019126D01*
D11*
X008079Y014230D03*
X008079Y010293D03*
X011503Y011596D03*
X011498Y013975D03*
X015435Y013109D03*
X015440Y010730D03*
X022284Y041005D03*
D12*
X022284Y043005D03*
D13*
X025069Y039355D03*
D14*
X025069Y041355D03*
X027069Y041355D03*
X027069Y039355D03*
D15*
X017369Y039355D03*
D16*
X020960Y014780D03*
X022928Y014780D03*
D17*
X013694Y035133D02*
X013694Y035727D01*
X012694Y035727D02*
X012694Y035133D01*
X011694Y035133D02*
X011694Y035727D01*
X008541Y036130D02*
X007947Y036130D01*
X007947Y035130D02*
X008541Y035130D01*
X008541Y034130D02*
X007947Y034130D01*
X007947Y037130D02*
X008541Y037130D01*
X008541Y038130D02*
X007947Y038130D01*
X007947Y039130D02*
X008541Y039130D01*
D18*
X009273Y029502D03*
X009273Y027533D03*
X010257Y027533D03*
X010257Y025565D03*
X010257Y023596D03*
X010257Y021628D03*
X009273Y021628D03*
X009273Y019659D03*
X019115Y019659D03*
X019115Y021628D03*
X020099Y021628D03*
X020099Y023596D03*
X020099Y027533D03*
X019115Y027533D03*
X019115Y029502D03*
X020099Y029502D03*
D19*
X009273Y024580D03*
D20*
X018644Y014505D02*
X018694Y014455D01*
X019529Y007712D02*
X019529Y006712D01*
X021497Y006712D02*
X021497Y007712D01*
X017560Y007712D02*
X017560Y006712D01*
X015592Y006712D02*
X015592Y007712D01*
X013623Y007712D02*
X013623Y006712D01*
X026069Y019330D02*
X025294Y020105D01*
X025294Y023230D01*
X024894Y023630D01*
X023419Y023630D01*
X026069Y019330D02*
X025869Y019130D01*
X026069Y019330D02*
X027119Y019330D01*
X027119Y021480D02*
X027944Y021480D01*
X028944Y020480D01*
X028944Y011930D01*
X028069Y010955D01*
X027344Y010955D01*
D21*
X024629Y010545D03*
X024629Y012801D03*
X018629Y012801D03*
X018629Y010545D03*
D22*
X014466Y018666D02*
X014466Y019453D01*
X014269Y019453D02*
X014269Y018666D01*
X013268Y019059D02*
X013270Y019125D01*
X013276Y019190D01*
X013286Y019255D01*
X013299Y019320D01*
X013317Y019383D01*
X013338Y019446D01*
X013363Y019506D01*
X013392Y019566D01*
X013424Y019623D01*
X013459Y019679D01*
X013498Y019732D01*
X013540Y019783D01*
X013584Y019831D01*
X013632Y019876D01*
X013682Y019919D01*
X013735Y019958D01*
X013790Y019995D01*
X013847Y020028D01*
X013906Y020057D01*
X013966Y020083D01*
X014028Y020105D01*
X014091Y020124D01*
X014155Y020138D01*
X014220Y020149D01*
X014286Y020156D01*
X014352Y020159D01*
X014417Y020158D01*
X014483Y020153D01*
X014548Y020144D01*
X014613Y020131D01*
X014676Y020115D01*
X014739Y020095D01*
X014800Y020070D01*
X014860Y020043D01*
X014918Y020012D01*
X014974Y019977D01*
X015028Y019939D01*
X015079Y019898D01*
X015128Y019854D01*
X015174Y019807D01*
X015218Y019758D01*
X015258Y019706D01*
X015295Y019651D01*
X015329Y019595D01*
X015359Y019536D01*
X015386Y019476D01*
X015409Y019415D01*
X015428Y019352D01*
X015444Y019288D01*
X015456Y019223D01*
X015464Y019158D01*
X015468Y019092D01*
X015468Y019026D01*
X015464Y018960D01*
X015456Y018895D01*
X015444Y018830D01*
X015428Y018766D01*
X015409Y018703D01*
X015386Y018642D01*
X015359Y018582D01*
X015329Y018523D01*
X015295Y018467D01*
X015258Y018412D01*
X015218Y018360D01*
X015174Y018311D01*
X015128Y018264D01*
X015079Y018220D01*
X015028Y018179D01*
X014974Y018141D01*
X014918Y018106D01*
X014860Y018075D01*
X014800Y018048D01*
X014739Y018023D01*
X014676Y018003D01*
X014613Y017987D01*
X014548Y017974D01*
X014483Y017965D01*
X014417Y017960D01*
X014352Y017959D01*
X014286Y017962D01*
X014220Y017969D01*
X014155Y017980D01*
X014091Y017994D01*
X014028Y018013D01*
X013966Y018035D01*
X013906Y018061D01*
X013847Y018090D01*
X013790Y018123D01*
X013735Y018160D01*
X013682Y018199D01*
X013632Y018242D01*
X013584Y018287D01*
X013540Y018335D01*
X013498Y018386D01*
X013459Y018439D01*
X013424Y018495D01*
X013392Y018552D01*
X013363Y018612D01*
X013338Y018672D01*
X013317Y018735D01*
X013299Y018798D01*
X013286Y018863D01*
X013276Y018928D01*
X013270Y018993D01*
X013268Y019059D01*
X013954Y018981D02*
X014781Y018981D01*
X014781Y019138D02*
X013954Y019138D01*
X017527Y033580D02*
X006668Y033580D01*
X006668Y042372D01*
X006762Y042209D01*
X007013Y041958D01*
X007321Y041780D01*
X007665Y041688D01*
X008021Y041688D01*
X008364Y041780D01*
X008672Y041958D01*
X008924Y042209D01*
X009102Y042517D01*
X009194Y042861D01*
X009194Y043217D01*
X009102Y043560D01*
X008924Y043869D01*
X008672Y044120D01*
X008510Y044214D01*
X009699Y044214D01*
X009699Y040664D01*
X009828Y040535D01*
X014568Y040535D01*
X014658Y040534D01*
X014659Y040535D01*
X014660Y040535D01*
X014724Y040599D01*
X015784Y041635D01*
X015785Y041635D01*
X015849Y041699D01*
X015913Y041762D01*
X015913Y041763D01*
X015914Y041764D01*
X015914Y041854D01*
X015915Y041944D01*
X015914Y041945D01*
X015914Y044214D01*
X027648Y044214D01*
X027486Y044120D01*
X027234Y043869D01*
X027056Y043560D01*
X026964Y043217D01*
X026964Y042861D01*
X027056Y042517D01*
X027234Y042209D01*
X027486Y041958D01*
X027794Y041780D01*
X028137Y041688D01*
X028493Y041688D01*
X028837Y041780D01*
X029145Y041958D01*
X029396Y042209D01*
X029490Y042372D01*
X029490Y035955D01*
X022219Y035955D01*
X021394Y035130D01*
X021394Y033580D01*
X019536Y033580D01*
X022506Y036550D01*
X025160Y036550D01*
X025281Y036601D01*
X027349Y038669D01*
X027399Y038790D01*
X027399Y039021D01*
X027539Y039161D01*
X027539Y039550D01*
X027264Y039825D01*
X026874Y039825D01*
X026599Y039550D01*
X026599Y039161D01*
X026739Y039021D01*
X026739Y038992D01*
X024957Y037210D01*
X022303Y037210D01*
X022182Y037160D01*
X018602Y033580D01*
X018461Y033580D01*
X025256Y040376D01*
X025349Y040469D01*
X025399Y040590D01*
X025399Y041021D01*
X025539Y041161D01*
X025539Y041550D01*
X025264Y041825D01*
X024874Y041825D01*
X024599Y041550D01*
X024599Y041161D01*
X024739Y041021D01*
X024739Y040792D01*
X017527Y033580D01*
X017545Y033598D02*
X006668Y033598D01*
X006668Y033697D02*
X007774Y033697D01*
X007854Y033663D02*
X008634Y033663D01*
X008805Y033735D01*
X008821Y033750D01*
X017035Y033750D01*
X017156Y033801D01*
X017493Y034137D01*
X017546Y034137D01*
X017762Y034353D01*
X017762Y034658D01*
X017546Y034873D01*
X017241Y034873D01*
X017026Y034658D01*
X017026Y034604D01*
X016832Y034410D01*
X008921Y034410D01*
X008805Y034526D01*
X008634Y034597D01*
X007854Y034597D01*
X007683Y034526D01*
X007551Y034395D01*
X007480Y034223D01*
X007480Y034037D01*
X007551Y033866D01*
X007683Y033735D01*
X007854Y033663D01*
X007622Y033795D02*
X006668Y033795D01*
X006668Y033894D02*
X007540Y033894D01*
X007499Y033992D02*
X006668Y033992D01*
X006668Y034091D02*
X007480Y034091D01*
X007480Y034189D02*
X006668Y034189D01*
X006668Y034288D02*
X007507Y034288D01*
X007548Y034386D02*
X006668Y034386D01*
X006668Y034485D02*
X007641Y034485D01*
X007821Y034583D02*
X006668Y034583D01*
X006668Y034682D02*
X011564Y034682D01*
X011601Y034667D02*
X011787Y034667D01*
X011958Y034738D01*
X012090Y034869D01*
X012161Y035041D01*
X012161Y035820D01*
X012090Y035992D01*
X011958Y036123D01*
X011787Y036194D01*
X011601Y036194D01*
X011430Y036123D01*
X011298Y035992D01*
X011227Y035820D01*
X011227Y035041D01*
X011298Y034869D01*
X011430Y034738D01*
X011601Y034667D01*
X011824Y034682D02*
X012564Y034682D01*
X012601Y034667D02*
X012787Y034667D01*
X012958Y034738D01*
X013090Y034869D01*
X013161Y035041D01*
X013161Y035820D01*
X013090Y035992D01*
X012958Y036123D01*
X012787Y036194D01*
X012601Y036194D01*
X012430Y036123D01*
X012298Y035992D01*
X012227Y035820D01*
X012227Y035041D01*
X012298Y034869D01*
X012430Y034738D01*
X012601Y034667D01*
X012824Y034682D02*
X017050Y034682D01*
X017005Y034583D02*
X008667Y034583D01*
X008645Y034694D02*
X008712Y034716D01*
X008775Y034748D01*
X008832Y034789D01*
X008882Y034839D01*
X008923Y034896D01*
X008955Y034959D01*
X008977Y035026D01*
X008986Y035082D01*
X008292Y035082D01*
X008292Y034683D01*
X008576Y034683D01*
X008645Y034694D01*
X008819Y034780D02*
X011387Y034780D01*
X011294Y034879D02*
X008910Y034879D01*
X008961Y034977D02*
X011253Y034977D01*
X011227Y035076D02*
X008985Y035076D01*
X008986Y035179D02*
X008977Y035235D01*
X008955Y035302D01*
X008923Y035365D01*
X008882Y035421D01*
X008832Y035471D01*
X008775Y035512D01*
X008712Y035544D01*
X008645Y035566D01*
X008576Y035577D01*
X008292Y035577D01*
X008292Y035179D01*
X008196Y035179D01*
X008196Y035577D01*
X007912Y035577D01*
X007842Y035566D01*
X007776Y035544D01*
X007713Y035512D01*
X007656Y035471D01*
X007606Y035421D01*
X007565Y035365D01*
X007533Y035302D01*
X007511Y035235D01*
X007502Y035179D01*
X008196Y035179D01*
X008196Y035082D01*
X008292Y035082D01*
X008292Y035179D01*
X008986Y035179D01*
X008964Y035273D02*
X011227Y035273D01*
X011227Y035371D02*
X008918Y035371D01*
X008833Y035470D02*
X011227Y035470D01*
X011227Y035568D02*
X008631Y035568D01*
X008634Y035663D02*
X008805Y035735D01*
X008937Y035866D01*
X009008Y036037D01*
X009008Y036223D01*
X008937Y036395D01*
X008805Y036526D01*
X008634Y036597D01*
X007854Y036597D01*
X007683Y036526D01*
X007551Y036395D01*
X007480Y036223D01*
X007480Y036037D01*
X007551Y035866D01*
X007683Y035735D01*
X007854Y035663D01*
X008634Y035663D01*
X008642Y035667D02*
X011227Y035667D01*
X011227Y035765D02*
X008836Y035765D01*
X008935Y035864D02*
X011245Y035864D01*
X011286Y035962D02*
X008977Y035962D01*
X009008Y036061D02*
X011367Y036061D01*
X011518Y036159D02*
X009008Y036159D01*
X008993Y036258D02*
X020205Y036258D01*
X020303Y036356D02*
X008952Y036356D01*
X008876Y036455D02*
X020402Y036455D01*
X020500Y036553D02*
X008739Y036553D01*
X008634Y036663D02*
X008805Y036735D01*
X008937Y036866D01*
X009008Y037037D01*
X009008Y037223D01*
X008937Y037395D01*
X008805Y037526D01*
X008634Y037597D01*
X007854Y037597D01*
X007683Y037526D01*
X007551Y037395D01*
X007480Y037223D01*
X007480Y037037D01*
X007551Y036866D01*
X007683Y036735D01*
X007854Y036663D01*
X008634Y036663D01*
X008821Y036750D02*
X020697Y036750D01*
X020599Y036652D02*
X006668Y036652D01*
X006668Y036750D02*
X007667Y036750D01*
X007568Y036849D02*
X006668Y036849D01*
X006668Y036947D02*
X007518Y036947D01*
X007480Y037046D02*
X006668Y037046D01*
X006668Y037144D02*
X007480Y037144D01*
X007488Y037243D02*
X006668Y037243D01*
X006668Y037341D02*
X007529Y037341D01*
X007596Y037440D02*
X006668Y037440D01*
X006668Y037538D02*
X007712Y037538D01*
X007776Y037716D02*
X007842Y037694D01*
X007912Y037683D01*
X008196Y037683D01*
X008196Y038082D01*
X008292Y038082D01*
X008292Y037683D01*
X008576Y037683D01*
X008645Y037694D01*
X008712Y037716D01*
X008775Y037748D01*
X008832Y037789D01*
X008882Y037839D01*
X008923Y037896D01*
X008955Y037959D01*
X008977Y038026D01*
X008986Y038082D01*
X008292Y038082D01*
X008292Y038179D01*
X008196Y038179D01*
X008196Y038577D01*
X007912Y038577D01*
X007842Y038566D01*
X007776Y038544D01*
X007713Y038512D01*
X007656Y038471D01*
X007606Y038421D01*
X007565Y038365D01*
X007533Y038302D01*
X007511Y038235D01*
X007502Y038179D01*
X008196Y038179D01*
X008196Y038082D01*
X007502Y038082D01*
X007511Y038026D01*
X007533Y037959D01*
X007565Y037896D01*
X007606Y037839D01*
X007656Y037789D01*
X007713Y037748D01*
X007776Y037716D01*
X007738Y037735D02*
X006668Y037735D01*
X006668Y037637D02*
X021584Y037637D01*
X021682Y037735D02*
X008750Y037735D01*
X008876Y037834D02*
X021781Y037834D01*
X021879Y037932D02*
X008941Y037932D01*
X008977Y038031D02*
X021978Y038031D01*
X022076Y038129D02*
X008292Y038129D01*
X008292Y038179D02*
X008986Y038179D01*
X008977Y038235D01*
X008955Y038302D01*
X008923Y038365D01*
X008882Y038421D01*
X008832Y038471D01*
X008775Y038512D01*
X008712Y038544D01*
X008645Y038566D01*
X008576Y038577D01*
X008292Y038577D01*
X008292Y038179D01*
X008292Y038228D02*
X008196Y038228D01*
X008196Y038326D02*
X008292Y038326D01*
X008292Y038425D02*
X008196Y038425D01*
X008196Y038523D02*
X008292Y038523D01*
X008634Y038663D02*
X008805Y038735D01*
X008937Y038866D01*
X009008Y039037D01*
X009008Y039223D01*
X008937Y039395D01*
X008805Y039526D01*
X008634Y039597D01*
X007854Y039597D01*
X007683Y039526D01*
X007551Y039395D01*
X007480Y039223D01*
X007480Y039037D01*
X007551Y038866D01*
X007683Y038735D01*
X007854Y038663D01*
X008634Y038663D01*
X008771Y038720D02*
X013808Y038720D01*
X013726Y038803D02*
X013941Y038587D01*
X014246Y038587D01*
X014462Y038803D01*
X014462Y038998D01*
X016639Y041175D01*
X017603Y041175D01*
X017766Y041012D01*
X018071Y041012D01*
X018287Y041228D01*
X018287Y041533D01*
X018071Y041748D01*
X017766Y041748D01*
X017653Y041635D01*
X016449Y041635D01*
X016314Y041501D01*
X014137Y039323D01*
X013941Y039323D01*
X013726Y039108D01*
X013726Y038803D01*
X013726Y038819D02*
X008890Y038819D01*
X008958Y038917D02*
X013726Y038917D01*
X013726Y039016D02*
X008999Y039016D01*
X009008Y039114D02*
X013732Y039114D01*
X013831Y039213D02*
X009008Y039213D01*
X008971Y039311D02*
X013929Y039311D01*
X014223Y039410D02*
X008921Y039410D01*
X008823Y039508D02*
X014322Y039508D01*
X014420Y039607D02*
X006668Y039607D01*
X006668Y039705D02*
X014519Y039705D01*
X014617Y039804D02*
X006668Y039804D01*
X006668Y039902D02*
X014716Y039902D01*
X014814Y040001D02*
X006668Y040001D01*
X006668Y040099D02*
X014913Y040099D01*
X015011Y040198D02*
X006668Y040198D01*
X006668Y040296D02*
X015110Y040296D01*
X015208Y040395D02*
X006668Y040395D01*
X006668Y040493D02*
X015307Y040493D01*
X015405Y040592D02*
X014717Y040592D01*
X014817Y040690D02*
X015504Y040690D01*
X015602Y040789D02*
X014918Y040789D01*
X015019Y040887D02*
X015701Y040887D01*
X015799Y040986D02*
X015119Y040986D01*
X015220Y041084D02*
X015898Y041084D01*
X015996Y041183D02*
X015321Y041183D01*
X015422Y041281D02*
X016095Y041281D01*
X016193Y041380D02*
X015522Y041380D01*
X015623Y041478D02*
X016292Y041478D01*
X016390Y041577D02*
X015724Y041577D01*
X015825Y041675D02*
X017693Y041675D01*
X018144Y041675D02*
X024725Y041675D01*
X024823Y041774D02*
X015914Y041774D01*
X015914Y041872D02*
X027634Y041872D01*
X027473Y041971D02*
X015914Y041971D01*
X015914Y042069D02*
X027374Y042069D01*
X027276Y042168D02*
X015914Y042168D01*
X015914Y042266D02*
X027201Y042266D01*
X027144Y042365D02*
X022564Y042365D01*
X022554Y042355D02*
X022934Y042735D01*
X022934Y042955D01*
X022334Y042955D01*
X022334Y043055D01*
X022234Y043055D01*
X022234Y043655D01*
X022015Y043655D01*
X021634Y043274D01*
X021634Y043055D01*
X022234Y043055D01*
X022234Y042955D01*
X021634Y042955D01*
X021634Y042735D01*
X022015Y042355D01*
X022234Y042355D01*
X022234Y042955D01*
X022334Y042955D01*
X022334Y042355D01*
X022554Y042355D01*
X022662Y042463D02*
X027087Y042463D01*
X027044Y042562D02*
X022761Y042562D01*
X022859Y042660D02*
X027018Y042660D01*
X026992Y042759D02*
X022934Y042759D01*
X022934Y042857D02*
X026965Y042857D01*
X026964Y042956D02*
X022334Y042956D01*
X022334Y043054D02*
X026964Y043054D01*
X026964Y043153D02*
X022934Y043153D01*
X022934Y043251D02*
X026973Y043251D01*
X027000Y043350D02*
X022858Y043350D01*
X022934Y043274D02*
X022554Y043655D01*
X022334Y043655D01*
X022334Y043055D01*
X022934Y043055D01*
X022934Y043274D01*
X022760Y043448D02*
X027026Y043448D01*
X027053Y043547D02*
X022661Y043547D01*
X022563Y043645D02*
X027105Y043645D01*
X027162Y043744D02*
X015914Y043744D01*
X015914Y043842D02*
X027219Y043842D01*
X027306Y043941D02*
X015914Y043941D01*
X015914Y044039D02*
X027405Y044039D01*
X027516Y044138D02*
X015914Y044138D01*
X015694Y044138D02*
X009919Y044138D01*
X009919Y044205D02*
X015694Y044205D01*
X015694Y041855D01*
X014569Y040755D01*
X009919Y040755D01*
X009919Y044205D01*
X009919Y044039D02*
X015694Y044039D01*
X015694Y043941D02*
X009919Y043941D01*
X009919Y043842D02*
X015694Y043842D01*
X015694Y043744D02*
X009919Y043744D01*
X009919Y043645D02*
X015694Y043645D01*
X015694Y043547D02*
X009919Y043547D01*
X009919Y043448D02*
X015694Y043448D01*
X015694Y043350D02*
X009919Y043350D01*
X009919Y043251D02*
X015694Y043251D01*
X015694Y043153D02*
X009919Y043153D01*
X009919Y043054D02*
X015694Y043054D01*
X015694Y042956D02*
X009919Y042956D01*
X009919Y042857D02*
X015694Y042857D01*
X015694Y042759D02*
X009919Y042759D01*
X009919Y042660D02*
X015694Y042660D01*
X015694Y042562D02*
X009919Y042562D01*
X009919Y042463D02*
X015694Y042463D01*
X015694Y042365D02*
X009919Y042365D01*
X009919Y042266D02*
X015694Y042266D01*
X015694Y042168D02*
X009919Y042168D01*
X009919Y042069D02*
X015694Y042069D01*
X015694Y041971D02*
X009919Y041971D01*
X009919Y041872D02*
X015694Y041872D01*
X015611Y041774D02*
X009919Y041774D01*
X009919Y041675D02*
X015510Y041675D01*
X015409Y041577D02*
X009919Y041577D01*
X009919Y041478D02*
X015308Y041478D01*
X015208Y041380D02*
X009919Y041380D01*
X009919Y041281D02*
X015107Y041281D01*
X015006Y041183D02*
X009919Y041183D01*
X009919Y041084D02*
X014906Y041084D01*
X014805Y040986D02*
X009919Y040986D01*
X009919Y040887D02*
X014704Y040887D01*
X014603Y040789D02*
X009919Y040789D01*
X009699Y040789D02*
X006668Y040789D01*
X006668Y040887D02*
X009699Y040887D01*
X009699Y040986D02*
X006668Y040986D01*
X006668Y041084D02*
X009699Y041084D01*
X009699Y041183D02*
X006668Y041183D01*
X006668Y041281D02*
X009699Y041281D01*
X009699Y041380D02*
X006668Y041380D01*
X006668Y041478D02*
X009699Y041478D01*
X009699Y041577D02*
X006668Y041577D01*
X006668Y041675D02*
X009699Y041675D01*
X009699Y041774D02*
X008342Y041774D01*
X008524Y041872D02*
X009699Y041872D01*
X009699Y041971D02*
X008685Y041971D01*
X008784Y042069D02*
X009699Y042069D01*
X009699Y042168D02*
X008882Y042168D01*
X008957Y042266D02*
X009699Y042266D01*
X009699Y042365D02*
X009014Y042365D01*
X009071Y042463D02*
X009699Y042463D01*
X009699Y042562D02*
X009114Y042562D01*
X009140Y042660D02*
X009699Y042660D01*
X009699Y042759D02*
X009166Y042759D01*
X009193Y042857D02*
X009699Y042857D01*
X009699Y042956D02*
X009194Y042956D01*
X009194Y043054D02*
X009699Y043054D01*
X009699Y043153D02*
X009194Y043153D01*
X009185Y043251D02*
X009699Y043251D01*
X009699Y043350D02*
X009158Y043350D01*
X009132Y043448D02*
X009699Y043448D01*
X009699Y043547D02*
X009105Y043547D01*
X009053Y043645D02*
X009699Y043645D01*
X009699Y043744D02*
X008996Y043744D01*
X008939Y043842D02*
X009699Y043842D01*
X009699Y043941D02*
X008852Y043941D01*
X008753Y044039D02*
X009699Y044039D01*
X009699Y044138D02*
X008642Y044138D01*
X007344Y041774D02*
X006668Y041774D01*
X006668Y041872D02*
X007161Y041872D01*
X007000Y041971D02*
X006668Y041971D01*
X006668Y042069D02*
X006902Y042069D01*
X006803Y042168D02*
X006668Y042168D01*
X006668Y042266D02*
X006729Y042266D01*
X006672Y042365D02*
X006668Y042365D01*
X006668Y040690D02*
X009699Y040690D01*
X009771Y040592D02*
X006668Y040592D01*
X006668Y039508D02*
X007665Y039508D01*
X007566Y039410D02*
X006668Y039410D01*
X006668Y039311D02*
X007517Y039311D01*
X007480Y039213D02*
X006668Y039213D01*
X006668Y039114D02*
X007480Y039114D01*
X007489Y039016D02*
X006668Y039016D01*
X006668Y038917D02*
X007530Y038917D01*
X007598Y038819D02*
X006668Y038819D01*
X006668Y038720D02*
X007717Y038720D01*
X007734Y038523D02*
X006668Y038523D01*
X006668Y038425D02*
X007610Y038425D01*
X007546Y038326D02*
X006668Y038326D01*
X006668Y038228D02*
X007510Y038228D01*
X007510Y038031D02*
X006668Y038031D01*
X006668Y038129D02*
X008196Y038129D01*
X008196Y038031D02*
X008292Y038031D01*
X008292Y037932D02*
X008196Y037932D01*
X008196Y037834D02*
X008292Y037834D01*
X008292Y037735D02*
X008196Y037735D01*
X007612Y037834D02*
X006668Y037834D01*
X006668Y037932D02*
X007546Y037932D01*
X006668Y038622D02*
X013907Y038622D01*
X014281Y038622D02*
X022569Y038622D01*
X022667Y038720D02*
X014380Y038720D01*
X014462Y038819D02*
X022766Y038819D01*
X022864Y038917D02*
X014462Y038917D01*
X014480Y039016D02*
X022963Y039016D01*
X023061Y039114D02*
X014578Y039114D01*
X014677Y039213D02*
X023160Y039213D01*
X023258Y039311D02*
X014775Y039311D01*
X014874Y039410D02*
X023357Y039410D01*
X023455Y039508D02*
X014972Y039508D01*
X015071Y039607D02*
X023554Y039607D01*
X023652Y039705D02*
X015169Y039705D01*
X015268Y039804D02*
X023751Y039804D01*
X023849Y039902D02*
X015366Y039902D01*
X015465Y040001D02*
X023948Y040001D01*
X024046Y040099D02*
X015563Y040099D01*
X015662Y040198D02*
X024145Y040198D01*
X024243Y040296D02*
X015760Y040296D01*
X015859Y040395D02*
X022005Y040395D01*
X021905Y040437D02*
X022151Y040335D01*
X022418Y040335D01*
X022664Y040437D01*
X022852Y040625D01*
X022954Y040871D01*
X022954Y041138D01*
X022852Y041384D01*
X022664Y041573D01*
X022418Y041675D01*
X022151Y041675D01*
X021905Y041573D01*
X021716Y041384D01*
X021614Y041138D01*
X021614Y040871D01*
X021716Y040625D01*
X021905Y040437D01*
X021848Y040493D02*
X015957Y040493D01*
X016056Y040592D02*
X021749Y040592D01*
X021689Y040690D02*
X016154Y040690D01*
X016253Y040789D02*
X021648Y040789D01*
X021614Y040887D02*
X016351Y040887D01*
X016450Y040986D02*
X021614Y040986D01*
X021614Y041084D02*
X018144Y041084D01*
X018242Y041183D02*
X021633Y041183D01*
X021674Y041281D02*
X018287Y041281D01*
X018287Y041380D02*
X021715Y041380D01*
X021811Y041478D02*
X018287Y041478D01*
X018243Y041577D02*
X021915Y041577D01*
X022653Y041577D02*
X024626Y041577D01*
X024599Y041478D02*
X022758Y041478D01*
X022854Y041380D02*
X024599Y041380D01*
X024599Y041281D02*
X022895Y041281D01*
X022936Y041183D02*
X024599Y041183D01*
X024675Y041084D02*
X022954Y041084D01*
X022954Y040986D02*
X024739Y040986D01*
X024739Y040887D02*
X022954Y040887D01*
X022920Y040789D02*
X024736Y040789D01*
X024637Y040690D02*
X022879Y040690D01*
X022819Y040592D02*
X024539Y040592D01*
X024440Y040493D02*
X022721Y040493D01*
X022563Y040395D02*
X024342Y040395D01*
X024783Y039902D02*
X029490Y039902D01*
X029490Y039804D02*
X027285Y039804D01*
X027384Y039705D02*
X029490Y039705D01*
X029490Y039607D02*
X027482Y039607D01*
X027539Y039508D02*
X029490Y039508D01*
X029490Y039410D02*
X027539Y039410D01*
X027539Y039311D02*
X029490Y039311D01*
X029490Y039213D02*
X027539Y039213D01*
X027493Y039114D02*
X029490Y039114D01*
X029490Y039016D02*
X027399Y039016D01*
X027399Y038917D02*
X029490Y038917D01*
X029490Y038819D02*
X027399Y038819D01*
X027370Y038720D02*
X029490Y038720D01*
X029490Y038622D02*
X027302Y038622D01*
X027204Y038523D02*
X029490Y038523D01*
X029490Y038425D02*
X027105Y038425D01*
X027007Y038326D02*
X029490Y038326D01*
X029490Y038228D02*
X026908Y038228D01*
X026810Y038129D02*
X029490Y038129D01*
X029490Y038031D02*
X026711Y038031D01*
X026613Y037932D02*
X029490Y037932D01*
X029490Y037834D02*
X026514Y037834D01*
X026416Y037735D02*
X029490Y037735D01*
X029490Y037637D02*
X026317Y037637D01*
X026219Y037538D02*
X029490Y037538D01*
X029490Y037440D02*
X026120Y037440D01*
X026022Y037341D02*
X029490Y037341D01*
X029490Y037243D02*
X025923Y037243D01*
X025825Y037144D02*
X029490Y037144D01*
X029490Y037046D02*
X025726Y037046D01*
X025628Y036947D02*
X029490Y036947D01*
X029490Y036849D02*
X025529Y036849D01*
X025431Y036750D02*
X029490Y036750D01*
X029490Y036652D02*
X025332Y036652D01*
X025167Y036553D02*
X029490Y036553D01*
X029490Y036455D02*
X022410Y036455D01*
X022312Y036356D02*
X029490Y036356D01*
X029490Y036258D02*
X022213Y036258D01*
X022115Y036159D02*
X029490Y036159D01*
X029490Y036061D02*
X022016Y036061D01*
X021918Y035962D02*
X029490Y035962D01*
X026664Y038917D02*
X025240Y038917D01*
X025163Y038885D02*
X025335Y038957D01*
X025468Y039089D01*
X025539Y039262D01*
X025539Y039449D01*
X025468Y039622D01*
X025335Y039754D01*
X025163Y039825D01*
X024976Y039825D01*
X024803Y039754D01*
X024671Y039622D01*
X024599Y039449D01*
X024599Y039262D01*
X024671Y039089D01*
X024803Y038957D01*
X024976Y038885D01*
X025163Y038885D01*
X025394Y039016D02*
X026739Y039016D01*
X026645Y039114D02*
X025478Y039114D01*
X025519Y039213D02*
X026599Y039213D01*
X026599Y039311D02*
X025539Y039311D01*
X025539Y039410D02*
X026599Y039410D01*
X026599Y039508D02*
X025514Y039508D01*
X025474Y039607D02*
X026656Y039607D01*
X026755Y039705D02*
X025384Y039705D01*
X025214Y039804D02*
X026853Y039804D01*
X026566Y038819D02*
X023699Y038819D01*
X023601Y038720D02*
X024488Y038720D01*
X024566Y038798D02*
X024351Y038583D01*
X024351Y038278D01*
X024489Y038140D01*
X024489Y037971D01*
X024351Y037833D01*
X024351Y037528D01*
X024566Y037312D01*
X024871Y037312D01*
X025087Y037528D01*
X025087Y037833D01*
X024949Y037971D01*
X024949Y038140D01*
X025087Y038278D01*
X025087Y038583D01*
X024871Y038798D01*
X024566Y038798D01*
X024390Y038622D02*
X023502Y038622D01*
X023404Y038523D02*
X024351Y038523D01*
X024351Y038425D02*
X023305Y038425D01*
X023207Y038326D02*
X024351Y038326D01*
X024401Y038228D02*
X023108Y038228D01*
X023010Y038129D02*
X024489Y038129D01*
X024489Y038031D02*
X022911Y038031D01*
X022813Y037932D02*
X024450Y037932D01*
X024352Y037834D02*
X022714Y037834D01*
X022616Y037735D02*
X024351Y037735D01*
X024351Y037637D02*
X022517Y037637D01*
X022419Y037538D02*
X024351Y037538D01*
X024439Y037440D02*
X022320Y037440D01*
X022222Y037341D02*
X024537Y037341D01*
X024901Y037341D02*
X025088Y037341D01*
X024999Y037440D02*
X025187Y037440D01*
X025285Y037538D02*
X025087Y037538D01*
X025087Y037637D02*
X025384Y037637D01*
X025482Y037735D02*
X025087Y037735D01*
X025086Y037834D02*
X025581Y037834D01*
X025679Y037932D02*
X024987Y037932D01*
X024949Y038031D02*
X025778Y038031D01*
X025876Y038129D02*
X024949Y038129D01*
X025037Y038228D02*
X025975Y038228D01*
X026073Y038326D02*
X025087Y038326D01*
X025087Y038425D02*
X026172Y038425D01*
X026270Y038523D02*
X025087Y038523D01*
X025048Y038622D02*
X026369Y038622D01*
X026467Y038720D02*
X024949Y038720D01*
X024898Y038917D02*
X023798Y038917D01*
X023896Y039016D02*
X024744Y039016D01*
X024660Y039114D02*
X023995Y039114D01*
X024093Y039213D02*
X024619Y039213D01*
X024599Y039311D02*
X024192Y039311D01*
X024290Y039410D02*
X024599Y039410D01*
X024624Y039508D02*
X024389Y039508D01*
X024487Y039607D02*
X024665Y039607D01*
X024586Y039705D02*
X024755Y039705D01*
X024684Y039804D02*
X024924Y039804D01*
X024881Y040001D02*
X029490Y040001D01*
X029490Y040099D02*
X024980Y040099D01*
X025078Y040198D02*
X029490Y040198D01*
X029490Y040296D02*
X025177Y040296D01*
X025275Y040395D02*
X029490Y040395D01*
X029490Y040493D02*
X025359Y040493D01*
X025399Y040592D02*
X029490Y040592D01*
X029490Y040690D02*
X025399Y040690D01*
X025399Y040789D02*
X029490Y040789D01*
X029490Y040887D02*
X025399Y040887D01*
X025399Y040986D02*
X026802Y040986D01*
X026883Y040905D02*
X026619Y041169D01*
X026619Y041305D01*
X027019Y041305D01*
X027119Y041305D01*
X027119Y040905D01*
X027256Y040905D01*
X027519Y041169D01*
X027519Y041305D01*
X027119Y041305D01*
X027119Y041405D01*
X027519Y041405D01*
X027519Y041542D01*
X027256Y041805D01*
X027119Y041805D01*
X027119Y041405D01*
X027019Y041405D01*
X027019Y041305D01*
X027019Y040905D01*
X026883Y040905D01*
X027019Y040986D02*
X027119Y040986D01*
X027119Y041084D02*
X027019Y041084D01*
X027019Y041183D02*
X027119Y041183D01*
X027119Y041281D02*
X027019Y041281D01*
X027019Y041380D02*
X025539Y041380D01*
X025539Y041478D02*
X026619Y041478D01*
X026619Y041542D02*
X026619Y041405D01*
X027019Y041405D01*
X027019Y041805D01*
X026883Y041805D01*
X026619Y041542D01*
X026654Y041577D02*
X025512Y041577D01*
X025414Y041675D02*
X026753Y041675D01*
X026851Y041774D02*
X025315Y041774D01*
X025539Y041281D02*
X026619Y041281D01*
X026619Y041183D02*
X025539Y041183D01*
X025463Y041084D02*
X026704Y041084D01*
X027019Y041478D02*
X027119Y041478D01*
X027119Y041380D02*
X029490Y041380D01*
X029490Y041478D02*
X027519Y041478D01*
X027484Y041577D02*
X029490Y041577D01*
X029490Y041675D02*
X027385Y041675D01*
X027287Y041774D02*
X027816Y041774D01*
X027519Y041281D02*
X029490Y041281D01*
X029490Y041183D02*
X027519Y041183D01*
X027435Y041084D02*
X029490Y041084D01*
X029490Y040986D02*
X027336Y040986D01*
X027119Y041577D02*
X027019Y041577D01*
X027019Y041675D02*
X027119Y041675D01*
X027119Y041774D02*
X027019Y041774D01*
X028814Y041774D02*
X029490Y041774D01*
X029490Y041872D02*
X028997Y041872D01*
X029158Y041971D02*
X029490Y041971D01*
X029490Y042069D02*
X029256Y042069D01*
X029355Y042168D02*
X029490Y042168D01*
X029490Y042266D02*
X029429Y042266D01*
X029486Y042365D02*
X029490Y042365D01*
X024990Y037243D02*
X022123Y037243D01*
X022166Y037144D02*
X022025Y037144D01*
X022068Y037046D02*
X021926Y037046D01*
X021969Y036947D02*
X021828Y036947D01*
X021871Y036849D02*
X021729Y036849D01*
X021772Y036750D02*
X021631Y036750D01*
X021674Y036652D02*
X021532Y036652D01*
X021575Y036553D02*
X021434Y036553D01*
X021477Y036455D02*
X021335Y036455D01*
X021378Y036356D02*
X021237Y036356D01*
X021280Y036258D02*
X021138Y036258D01*
X021181Y036159D02*
X021040Y036159D01*
X021083Y036061D02*
X020941Y036061D01*
X020984Y035962D02*
X020843Y035962D01*
X020886Y035864D02*
X020744Y035864D01*
X020787Y035765D02*
X020646Y035765D01*
X020689Y035667D02*
X020547Y035667D01*
X020590Y035568D02*
X020449Y035568D01*
X020492Y035470D02*
X020350Y035470D01*
X020393Y035371D02*
X020252Y035371D01*
X020295Y035273D02*
X020153Y035273D01*
X020196Y035174D02*
X020055Y035174D01*
X020098Y035076D02*
X019956Y035076D01*
X019999Y034977D02*
X019858Y034977D01*
X019901Y034879D02*
X019759Y034879D01*
X019802Y034780D02*
X019661Y034780D01*
X019704Y034682D02*
X019562Y034682D01*
X019605Y034583D02*
X019464Y034583D01*
X019507Y034485D02*
X019365Y034485D01*
X019408Y034386D02*
X019267Y034386D01*
X019310Y034288D02*
X019168Y034288D01*
X019211Y034189D02*
X019070Y034189D01*
X019113Y034091D02*
X018971Y034091D01*
X019014Y033992D02*
X018873Y033992D01*
X018916Y033894D02*
X018774Y033894D01*
X018817Y033795D02*
X018676Y033795D01*
X018719Y033697D02*
X018577Y033697D01*
X018620Y033598D02*
X018479Y033598D01*
X018136Y034189D02*
X017599Y034189D01*
X017697Y034288D02*
X018235Y034288D01*
X018333Y034386D02*
X017762Y034386D01*
X017762Y034485D02*
X018432Y034485D01*
X018530Y034583D02*
X017762Y034583D01*
X017738Y034682D02*
X018629Y034682D01*
X018727Y034780D02*
X017639Y034780D01*
X017148Y034780D02*
X013968Y034780D01*
X013985Y034793D02*
X014035Y034842D01*
X014076Y034899D01*
X014108Y034962D01*
X014130Y035029D01*
X014141Y035098D01*
X014141Y035382D01*
X013742Y035382D01*
X013742Y034689D01*
X013799Y034698D01*
X013865Y034719D01*
X013928Y034751D01*
X013985Y034793D01*
X014061Y034879D02*
X018826Y034879D01*
X018924Y034977D02*
X014113Y034977D01*
X014137Y035076D02*
X019023Y035076D01*
X019121Y035174D02*
X014141Y035174D01*
X014141Y035273D02*
X019220Y035273D01*
X019318Y035371D02*
X014141Y035371D01*
X014141Y035479D02*
X014141Y035762D01*
X014130Y035832D01*
X014108Y035899D01*
X014076Y035961D01*
X014035Y036018D01*
X013985Y036068D01*
X013928Y036109D01*
X013865Y036141D01*
X013799Y036163D01*
X013742Y036172D01*
X013742Y035479D01*
X013646Y035479D01*
X013646Y036172D01*
X013589Y036163D01*
X013522Y036141D01*
X013460Y036109D01*
X013403Y036068D01*
X013353Y036018D01*
X013312Y035961D01*
X013280Y035899D01*
X013258Y035832D01*
X013247Y035762D01*
X013247Y035479D01*
X013646Y035479D01*
X013646Y035382D01*
X013742Y035382D01*
X013742Y035479D01*
X014141Y035479D01*
X014141Y035568D02*
X019515Y035568D01*
X019417Y035470D02*
X013742Y035470D01*
X013646Y035470D02*
X013161Y035470D01*
X013161Y035568D02*
X013247Y035568D01*
X013247Y035667D02*
X013161Y035667D01*
X013161Y035765D02*
X013248Y035765D01*
X013269Y035864D02*
X013143Y035864D01*
X013102Y035962D02*
X013313Y035962D01*
X013396Y036061D02*
X013020Y036061D01*
X012870Y036159D02*
X013578Y036159D01*
X013646Y036159D02*
X013742Y036159D01*
X013810Y036159D02*
X020106Y036159D01*
X020008Y036061D02*
X013992Y036061D01*
X014075Y035962D02*
X019909Y035962D01*
X019811Y035864D02*
X014119Y035864D01*
X014140Y035765D02*
X019712Y035765D01*
X019614Y035667D02*
X014141Y035667D01*
X013742Y035667D02*
X013646Y035667D01*
X013646Y035765D02*
X013742Y035765D01*
X013742Y035864D02*
X013646Y035864D01*
X013646Y035962D02*
X013742Y035962D01*
X013742Y036061D02*
X013646Y036061D01*
X013646Y035568D02*
X013742Y035568D01*
X013742Y035371D02*
X013646Y035371D01*
X013646Y035382D02*
X013646Y034689D01*
X013589Y034698D01*
X013522Y034719D01*
X013460Y034751D01*
X013403Y034793D01*
X013353Y034842D01*
X013312Y034899D01*
X013280Y034962D01*
X013258Y035029D01*
X013247Y035098D01*
X013247Y035382D01*
X013646Y035382D01*
X013646Y035273D02*
X013742Y035273D01*
X013742Y035174D02*
X013646Y035174D01*
X013646Y035076D02*
X013742Y035076D01*
X013742Y034977D02*
X013646Y034977D01*
X013646Y034879D02*
X013742Y034879D01*
X013742Y034780D02*
X013646Y034780D01*
X013420Y034780D02*
X013001Y034780D01*
X013094Y034879D02*
X013327Y034879D01*
X013275Y034977D02*
X013135Y034977D01*
X013161Y035076D02*
X013251Y035076D01*
X013247Y035174D02*
X013161Y035174D01*
X013161Y035273D02*
X013247Y035273D01*
X013247Y035371D02*
X013161Y035371D01*
X012387Y034780D02*
X012001Y034780D01*
X012094Y034879D02*
X012294Y034879D01*
X012253Y034977D02*
X012135Y034977D01*
X012161Y035076D02*
X012227Y035076D01*
X012227Y035174D02*
X012161Y035174D01*
X012161Y035273D02*
X012227Y035273D01*
X012227Y035371D02*
X012161Y035371D01*
X012161Y035470D02*
X012227Y035470D01*
X012227Y035568D02*
X012161Y035568D01*
X012161Y035667D02*
X012227Y035667D01*
X012227Y035765D02*
X012161Y035765D01*
X012143Y035864D02*
X012245Y035864D01*
X012286Y035962D02*
X012102Y035962D01*
X012020Y036061D02*
X012367Y036061D01*
X012518Y036159D02*
X011870Y036159D01*
X011227Y035174D02*
X008292Y035174D01*
X008196Y035174D02*
X006668Y035174D01*
X006668Y035076D02*
X007503Y035076D01*
X007502Y035082D02*
X007511Y035026D01*
X007533Y034959D01*
X007565Y034896D01*
X007606Y034839D01*
X007656Y034789D01*
X007713Y034748D01*
X007776Y034716D01*
X007842Y034694D01*
X007912Y034683D01*
X008196Y034683D01*
X008196Y035082D01*
X007502Y035082D01*
X007527Y034977D02*
X006668Y034977D01*
X006668Y034879D02*
X007577Y034879D01*
X007669Y034780D02*
X006668Y034780D01*
X006668Y035273D02*
X007524Y035273D01*
X007570Y035371D02*
X006668Y035371D01*
X006668Y035470D02*
X007655Y035470D01*
X007857Y035568D02*
X006668Y035568D01*
X006668Y035667D02*
X007846Y035667D01*
X007652Y035765D02*
X006668Y035765D01*
X006668Y035864D02*
X007553Y035864D01*
X007511Y035962D02*
X006668Y035962D01*
X006668Y036061D02*
X007480Y036061D01*
X007480Y036159D02*
X006668Y036159D01*
X006668Y036258D02*
X007495Y036258D01*
X007535Y036356D02*
X006668Y036356D01*
X006668Y036455D02*
X007611Y036455D01*
X007749Y036553D02*
X006668Y036553D01*
X008196Y035568D02*
X008292Y035568D01*
X008292Y035470D02*
X008196Y035470D01*
X008196Y035371D02*
X008292Y035371D01*
X008292Y035273D02*
X008196Y035273D01*
X008196Y035076D02*
X008292Y035076D01*
X008292Y034977D02*
X008196Y034977D01*
X008196Y034879D02*
X008292Y034879D01*
X008292Y034780D02*
X008196Y034780D01*
X008846Y034485D02*
X016907Y034485D01*
X017446Y034091D02*
X018038Y034091D01*
X017939Y033992D02*
X017348Y033992D01*
X017249Y033894D02*
X017841Y033894D01*
X017742Y033795D02*
X017143Y033795D01*
X017644Y033697D02*
X008714Y033697D01*
X008920Y036849D02*
X020796Y036849D01*
X020894Y036947D02*
X008970Y036947D01*
X009008Y037046D02*
X020993Y037046D01*
X021091Y037144D02*
X009008Y037144D01*
X008999Y037243D02*
X021190Y037243D01*
X021288Y037341D02*
X008959Y037341D01*
X008891Y037440D02*
X021387Y037440D01*
X021485Y037538D02*
X008776Y037538D01*
X008978Y038228D02*
X022175Y038228D01*
X022273Y038326D02*
X008942Y038326D01*
X008878Y038425D02*
X022372Y038425D01*
X022470Y038523D02*
X008754Y038523D01*
X015914Y042365D02*
X022005Y042365D01*
X021906Y042463D02*
X015914Y042463D01*
X015914Y042562D02*
X021808Y042562D01*
X021709Y042660D02*
X015914Y042660D01*
X015914Y042759D02*
X021634Y042759D01*
X021634Y042857D02*
X015914Y042857D01*
X015914Y042956D02*
X022234Y042956D01*
X022234Y043054D02*
X015914Y043054D01*
X015914Y043153D02*
X021634Y043153D01*
X021634Y043251D02*
X015914Y043251D01*
X015914Y043350D02*
X021710Y043350D01*
X021809Y043448D02*
X015914Y043448D01*
X015914Y043547D02*
X021907Y043547D01*
X022006Y043645D02*
X015914Y043645D01*
X016548Y041084D02*
X017694Y041084D01*
X021524Y035568D02*
X021832Y035568D01*
X021734Y035470D02*
X021425Y035470D01*
X021327Y035371D02*
X021635Y035371D01*
X021537Y035273D02*
X021228Y035273D01*
X021130Y035174D02*
X021438Y035174D01*
X021394Y035076D02*
X021031Y035076D01*
X020933Y034977D02*
X021394Y034977D01*
X021394Y034879D02*
X020834Y034879D01*
X020736Y034780D02*
X021394Y034780D01*
X021394Y034682D02*
X020637Y034682D01*
X020539Y034583D02*
X021394Y034583D01*
X021394Y034485D02*
X020440Y034485D01*
X020342Y034386D02*
X021394Y034386D01*
X021394Y034288D02*
X020243Y034288D01*
X020145Y034189D02*
X021394Y034189D01*
X021394Y034091D02*
X020046Y034091D01*
X019948Y033992D02*
X021394Y033992D01*
X021394Y033894D02*
X019849Y033894D01*
X019751Y033795D02*
X021394Y033795D01*
X021394Y033697D02*
X019652Y033697D01*
X019554Y033598D02*
X021394Y033598D01*
X021622Y035667D02*
X021931Y035667D01*
X022029Y035765D02*
X021721Y035765D01*
X021819Y035864D02*
X022128Y035864D01*
X022234Y042365D02*
X022334Y042365D01*
X022334Y042463D02*
X022234Y042463D01*
X022234Y042562D02*
X022334Y042562D01*
X022334Y042660D02*
X022234Y042660D01*
X022234Y042759D02*
X022334Y042759D01*
X022334Y042857D02*
X022234Y042857D01*
X022234Y043153D02*
X022334Y043153D01*
X022334Y043251D02*
X022234Y043251D01*
X022234Y043350D02*
X022334Y043350D01*
X022334Y043448D02*
X022234Y043448D01*
X022234Y043547D02*
X022334Y043547D01*
X022334Y043645D02*
X022234Y043645D01*
D23*
X014785Y019094D02*
X014788Y019184D01*
X014788Y019183D02*
X014821Y019185D01*
X014853Y019190D01*
X014885Y019199D01*
X014916Y019212D01*
X014944Y019229D01*
X014971Y019249D01*
X014995Y019271D01*
X015016Y019297D01*
X015034Y019325D01*
X015049Y019354D01*
X015060Y019385D01*
X015067Y019418D01*
X015071Y019451D01*
X015070Y019484D01*
X015066Y019517D01*
X015058Y019549D01*
X015045Y019580D01*
X015030Y019609D01*
X015011Y019636D01*
X014989Y019661D01*
X014964Y019683D01*
X014937Y019702D01*
X014908Y019717D01*
X014877Y019730D01*
X014845Y019738D01*
X014812Y019742D01*
X014779Y019743D01*
X014746Y019739D01*
X014713Y019732D01*
X014682Y019721D01*
X014653Y019706D01*
X014625Y019688D01*
X014599Y019667D01*
X014577Y019643D01*
X014557Y019616D01*
X014540Y019588D01*
X014527Y019557D01*
X014518Y019525D01*
X014513Y019493D01*
X014511Y019460D01*
X014422Y019457D01*
X014421Y019457D01*
X014422Y019494D01*
X014427Y019531D01*
X014436Y019567D01*
X014448Y019603D01*
X014464Y019637D01*
X014483Y019669D01*
X014506Y019699D01*
X014531Y019726D01*
X014559Y019751D01*
X014589Y019773D01*
X014621Y019792D01*
X014655Y019807D01*
X014691Y019819D01*
X014727Y019827D01*
X014764Y019832D01*
X014801Y019833D01*
X014839Y019830D01*
X014875Y019823D01*
X014911Y019813D01*
X014946Y019799D01*
X014979Y019782D01*
X015010Y019761D01*
X015039Y019737D01*
X015065Y019711D01*
X015089Y019682D01*
X015110Y019651D01*
X015127Y019618D01*
X015141Y019583D01*
X015151Y019547D01*
X015158Y019511D01*
X015161Y019473D01*
X015160Y019436D01*
X015155Y019399D01*
X015147Y019363D01*
X015135Y019327D01*
X015120Y019293D01*
X015101Y019261D01*
X015079Y019231D01*
X015054Y019203D01*
X015027Y019178D01*
X014997Y019155D01*
X014965Y019136D01*
X014931Y019120D01*
X014895Y019108D01*
X014859Y019099D01*
X014822Y019094D01*
X014785Y019093D01*
X014785Y019102D01*
X014822Y019103D01*
X014859Y019108D01*
X014895Y019117D01*
X014930Y019130D01*
X014964Y019146D01*
X014996Y019166D01*
X015025Y019188D01*
X015052Y019214D01*
X015076Y019242D01*
X015098Y019273D01*
X015116Y019305D01*
X015130Y019339D01*
X015141Y019375D01*
X015148Y019412D01*
X015152Y019449D01*
X015151Y019486D01*
X015147Y019523D01*
X015139Y019559D01*
X015127Y019594D01*
X015112Y019628D01*
X015093Y019661D01*
X015071Y019691D01*
X015046Y019718D01*
X015019Y019743D01*
X014989Y019765D01*
X014956Y019784D01*
X014922Y019799D01*
X014887Y019811D01*
X014851Y019819D01*
X014814Y019823D01*
X014777Y019824D01*
X014740Y019820D01*
X014703Y019813D01*
X014667Y019802D01*
X014633Y019788D01*
X014601Y019770D01*
X014570Y019748D01*
X014542Y019724D01*
X014516Y019697D01*
X014494Y019668D01*
X014474Y019636D01*
X014458Y019602D01*
X014445Y019567D01*
X014436Y019531D01*
X014431Y019494D01*
X014430Y019457D01*
X014439Y019457D01*
X014440Y019494D01*
X014446Y019531D01*
X014455Y019567D01*
X014468Y019602D01*
X014484Y019635D01*
X014504Y019667D01*
X014527Y019696D01*
X014553Y019722D01*
X014581Y019746D01*
X014612Y019766D01*
X014645Y019783D01*
X014680Y019797D01*
X014715Y019807D01*
X014752Y019813D01*
X014789Y019815D01*
X014826Y019813D01*
X014863Y019808D01*
X014899Y019798D01*
X014933Y019785D01*
X014966Y019768D01*
X014998Y019748D01*
X015026Y019725D01*
X015053Y019698D01*
X015076Y019670D01*
X015096Y019638D01*
X015113Y019605D01*
X015126Y019571D01*
X015136Y019535D01*
X015141Y019498D01*
X015143Y019461D01*
X015141Y019424D01*
X015135Y019387D01*
X015125Y019352D01*
X015111Y019317D01*
X015094Y019284D01*
X015074Y019253D01*
X015050Y019225D01*
X015024Y019199D01*
X014995Y019176D01*
X014963Y019156D01*
X014930Y019140D01*
X014895Y019127D01*
X014859Y019118D01*
X014822Y019112D01*
X014785Y019111D01*
X014786Y019120D01*
X014822Y019121D01*
X014858Y019127D01*
X014893Y019135D01*
X014926Y019148D01*
X014959Y019164D01*
X014989Y019183D01*
X015018Y019206D01*
X015044Y019231D01*
X015067Y019259D01*
X015087Y019289D01*
X015103Y019321D01*
X015116Y019355D01*
X015126Y019389D01*
X015132Y019425D01*
X015134Y019461D01*
X015132Y019497D01*
X015127Y019533D01*
X015118Y019568D01*
X015105Y019602D01*
X015088Y019634D01*
X015069Y019664D01*
X015046Y019692D01*
X015020Y019718D01*
X014992Y019741D01*
X014962Y019760D01*
X014930Y019777D01*
X014896Y019790D01*
X014861Y019799D01*
X014825Y019804D01*
X014789Y019806D01*
X014753Y019804D01*
X014717Y019798D01*
X014683Y019788D01*
X014649Y019775D01*
X014617Y019759D01*
X014587Y019739D01*
X014559Y019716D01*
X014534Y019690D01*
X014511Y019661D01*
X014492Y019631D01*
X014476Y019598D01*
X014463Y019565D01*
X014455Y019530D01*
X014449Y019494D01*
X014448Y019458D01*
X014457Y019458D01*
X014458Y019494D01*
X014464Y019529D01*
X014473Y019564D01*
X014485Y019598D01*
X014502Y019630D01*
X014521Y019660D01*
X014544Y019688D01*
X014570Y019713D01*
X014598Y019736D01*
X014628Y019755D01*
X014661Y019771D01*
X014695Y019783D01*
X014730Y019791D01*
X014765Y019796D01*
X014801Y019797D01*
X014837Y019794D01*
X014872Y019787D01*
X014907Y019776D01*
X014940Y019762D01*
X014971Y019744D01*
X015000Y019723D01*
X015027Y019699D01*
X015051Y019672D01*
X015072Y019643D01*
X015090Y019612D01*
X015104Y019579D01*
X015115Y019544D01*
X015122Y019509D01*
X015125Y019473D01*
X015124Y019437D01*
X015119Y019402D01*
X015111Y019367D01*
X015099Y019333D01*
X015083Y019300D01*
X015064Y019270D01*
X015041Y019242D01*
X015016Y019216D01*
X014988Y019193D01*
X014958Y019174D01*
X014926Y019157D01*
X014892Y019145D01*
X014857Y019136D01*
X014822Y019130D01*
X014786Y019129D01*
X014786Y019138D01*
X014821Y019139D01*
X014856Y019145D01*
X014890Y019153D01*
X014922Y019166D01*
X014954Y019182D01*
X014983Y019201D01*
X015010Y019223D01*
X015035Y019248D01*
X015056Y019275D01*
X015075Y019305D01*
X015090Y019336D01*
X015102Y019369D01*
X015110Y019403D01*
X015115Y019438D01*
X015116Y019473D01*
X015113Y019508D01*
X015106Y019542D01*
X015096Y019576D01*
X015082Y019608D01*
X015065Y019638D01*
X015044Y019667D01*
X015021Y019693D01*
X014995Y019716D01*
X014966Y019737D01*
X014936Y019754D01*
X014904Y019768D01*
X014870Y019778D01*
X014836Y019785D01*
X014801Y019788D01*
X014766Y019787D01*
X014731Y019782D01*
X014697Y019774D01*
X014664Y019762D01*
X014633Y019747D01*
X014603Y019728D01*
X014576Y019707D01*
X014551Y019682D01*
X014529Y019655D01*
X014510Y019626D01*
X014494Y019594D01*
X014481Y019562D01*
X014473Y019528D01*
X014467Y019493D01*
X014466Y019458D01*
X014475Y019458D01*
X014476Y019493D01*
X014482Y019528D01*
X014491Y019561D01*
X014503Y019594D01*
X014519Y019625D01*
X014539Y019654D01*
X014561Y019680D01*
X014587Y019704D01*
X014614Y019725D01*
X014644Y019743D01*
X014676Y019757D01*
X014709Y019768D01*
X014743Y019775D01*
X014778Y019779D01*
X014813Y019778D01*
X014847Y019774D01*
X014881Y019766D01*
X014914Y019754D01*
X014945Y019739D01*
X014975Y019720D01*
X015002Y019698D01*
X015026Y019674D01*
X015048Y019647D01*
X015067Y019617D01*
X015082Y019586D01*
X015094Y019553D01*
X015102Y019519D01*
X015106Y019485D01*
X015107Y019450D01*
X015103Y019415D01*
X015096Y019381D01*
X015085Y019348D01*
X015071Y019316D01*
X015053Y019286D01*
X015032Y019259D01*
X015008Y019233D01*
X014982Y019211D01*
X014953Y019191D01*
X014922Y019175D01*
X014889Y019163D01*
X014856Y019154D01*
X014821Y019148D01*
X014786Y019147D01*
X014787Y019156D01*
X014820Y019157D01*
X014854Y019163D01*
X014887Y019171D01*
X014918Y019184D01*
X014948Y019199D01*
X014976Y019218D01*
X015002Y019240D01*
X015025Y019265D01*
X015046Y019292D01*
X015063Y019321D01*
X015077Y019351D01*
X015088Y019384D01*
X015094Y019417D01*
X015098Y019450D01*
X015097Y019484D01*
X015093Y019518D01*
X015085Y019551D01*
X015074Y019582D01*
X015059Y019613D01*
X015041Y019641D01*
X015020Y019668D01*
X014996Y019692D01*
X014969Y019713D01*
X014941Y019731D01*
X014910Y019746D01*
X014879Y019757D01*
X014846Y019765D01*
X014812Y019769D01*
X014778Y019770D01*
X014745Y019766D01*
X014712Y019760D01*
X014679Y019749D01*
X014649Y019735D01*
X014620Y019718D01*
X014593Y019697D01*
X014568Y019674D01*
X014546Y019648D01*
X014527Y019620D01*
X014512Y019590D01*
X014499Y019559D01*
X014491Y019526D01*
X014485Y019492D01*
X014484Y019459D01*
X014493Y019459D01*
X014494Y019493D01*
X014500Y019526D01*
X014509Y019558D01*
X014521Y019589D01*
X014537Y019619D01*
X014556Y019647D01*
X014578Y019672D01*
X014603Y019694D01*
X014631Y019714D01*
X014660Y019731D01*
X014691Y019744D01*
X014723Y019753D01*
X014756Y019759D01*
X014790Y019761D01*
X014823Y019759D01*
X014856Y019754D01*
X014889Y019745D01*
X014920Y019732D01*
X014949Y019716D01*
X014977Y019696D01*
X015002Y019674D01*
X015024Y019649D01*
X015044Y019621D01*
X015060Y019592D01*
X015073Y019561D01*
X015082Y019528D01*
X015087Y019495D01*
X015089Y019462D01*
X015087Y019428D01*
X015081Y019395D01*
X015072Y019363D01*
X015059Y019332D01*
X015042Y019303D01*
X015022Y019275D01*
X015000Y019250D01*
X014975Y019228D01*
X014947Y019209D01*
X014917Y019193D01*
X014886Y019181D01*
X014854Y019172D01*
X014821Y019166D01*
X014787Y019165D01*
X014787Y019174D01*
X014821Y019176D01*
X014854Y019181D01*
X014886Y019190D01*
X014917Y019203D01*
X014946Y019219D01*
X014973Y019238D01*
X014998Y019261D01*
X015019Y019286D01*
X015038Y019314D01*
X015054Y019343D01*
X015066Y019374D01*
X015074Y019406D01*
X015079Y019440D01*
X015080Y019473D01*
X015077Y019506D01*
X015070Y019539D01*
X015059Y019570D01*
X015045Y019601D01*
X015028Y019629D01*
X015007Y019655D01*
X014983Y019679D01*
X014957Y019700D01*
X014929Y019717D01*
X014898Y019731D01*
X014867Y019742D01*
X014834Y019749D01*
X014801Y019752D01*
X014768Y019751D01*
X014734Y019746D01*
X014702Y019738D01*
X014671Y019726D01*
X014642Y019710D01*
X014614Y019691D01*
X014589Y019670D01*
X014566Y019645D01*
X014547Y019618D01*
X014531Y019589D01*
X014518Y019558D01*
X014509Y019526D01*
X014504Y019493D01*
X014502Y019459D01*
X014314Y019457D02*
X014224Y019460D01*
X014225Y019460D02*
X014223Y019493D01*
X014218Y019525D01*
X014209Y019557D01*
X014196Y019588D01*
X014179Y019616D01*
X014159Y019643D01*
X014137Y019667D01*
X014111Y019688D01*
X014083Y019706D01*
X014054Y019721D01*
X014023Y019732D01*
X013990Y019739D01*
X013957Y019743D01*
X013924Y019742D01*
X013891Y019738D01*
X013859Y019730D01*
X013828Y019717D01*
X013799Y019702D01*
X013772Y019683D01*
X013747Y019661D01*
X013725Y019636D01*
X013706Y019609D01*
X013691Y019580D01*
X013678Y019549D01*
X013670Y019517D01*
X013666Y019484D01*
X013665Y019451D01*
X013669Y019418D01*
X013676Y019385D01*
X013687Y019354D01*
X013702Y019325D01*
X013720Y019297D01*
X013741Y019271D01*
X013765Y019249D01*
X013792Y019229D01*
X013820Y019212D01*
X013851Y019199D01*
X013883Y019190D01*
X013915Y019185D01*
X013948Y019183D01*
X013951Y019094D01*
X013951Y019093D01*
X013914Y019094D01*
X013877Y019099D01*
X013841Y019108D01*
X013805Y019120D01*
X013771Y019136D01*
X013739Y019155D01*
X013709Y019178D01*
X013682Y019203D01*
X013657Y019231D01*
X013635Y019261D01*
X013616Y019293D01*
X013601Y019327D01*
X013589Y019363D01*
X013581Y019399D01*
X013576Y019436D01*
X013575Y019473D01*
X013578Y019511D01*
X013585Y019547D01*
X013595Y019583D01*
X013609Y019618D01*
X013626Y019651D01*
X013647Y019682D01*
X013671Y019711D01*
X013697Y019737D01*
X013726Y019761D01*
X013757Y019782D01*
X013790Y019799D01*
X013825Y019813D01*
X013861Y019823D01*
X013897Y019830D01*
X013935Y019833D01*
X013972Y019832D01*
X014009Y019827D01*
X014045Y019819D01*
X014081Y019807D01*
X014115Y019792D01*
X014147Y019773D01*
X014177Y019751D01*
X014205Y019726D01*
X014230Y019699D01*
X014253Y019669D01*
X014272Y019637D01*
X014288Y019603D01*
X014300Y019567D01*
X014309Y019531D01*
X014314Y019494D01*
X014315Y019457D01*
X014306Y019457D01*
X014305Y019494D01*
X014300Y019531D01*
X014291Y019567D01*
X014278Y019602D01*
X014262Y019636D01*
X014242Y019668D01*
X014220Y019697D01*
X014194Y019724D01*
X014166Y019748D01*
X014135Y019770D01*
X014103Y019788D01*
X014069Y019802D01*
X014033Y019813D01*
X013996Y019820D01*
X013959Y019824D01*
X013922Y019823D01*
X013885Y019819D01*
X013849Y019811D01*
X013814Y019799D01*
X013780Y019784D01*
X013747Y019765D01*
X013717Y019743D01*
X013690Y019718D01*
X013665Y019691D01*
X013643Y019661D01*
X013624Y019628D01*
X013609Y019594D01*
X013597Y019559D01*
X013589Y019523D01*
X013585Y019486D01*
X013584Y019449D01*
X013588Y019412D01*
X013595Y019375D01*
X013606Y019339D01*
X013620Y019305D01*
X013638Y019273D01*
X013660Y019242D01*
X013684Y019214D01*
X013711Y019188D01*
X013740Y019166D01*
X013772Y019146D01*
X013806Y019130D01*
X013841Y019117D01*
X013877Y019108D01*
X013914Y019103D01*
X013951Y019102D01*
X013951Y019111D01*
X013914Y019112D01*
X013877Y019118D01*
X013841Y019127D01*
X013806Y019140D01*
X013773Y019156D01*
X013741Y019176D01*
X013712Y019199D01*
X013686Y019225D01*
X013662Y019253D01*
X013642Y019284D01*
X013625Y019317D01*
X013611Y019352D01*
X013601Y019387D01*
X013595Y019424D01*
X013593Y019461D01*
X013595Y019498D01*
X013600Y019535D01*
X013610Y019571D01*
X013623Y019605D01*
X013640Y019638D01*
X013660Y019670D01*
X013683Y019698D01*
X013710Y019725D01*
X013738Y019748D01*
X013770Y019768D01*
X013803Y019785D01*
X013837Y019798D01*
X013873Y019808D01*
X013910Y019813D01*
X013947Y019815D01*
X013984Y019813D01*
X014021Y019807D01*
X014056Y019797D01*
X014091Y019783D01*
X014124Y019766D01*
X014155Y019746D01*
X014183Y019722D01*
X014209Y019696D01*
X014232Y019667D01*
X014252Y019635D01*
X014268Y019602D01*
X014281Y019567D01*
X014290Y019531D01*
X014296Y019494D01*
X014297Y019457D01*
X014288Y019458D01*
X014287Y019494D01*
X014281Y019530D01*
X014273Y019565D01*
X014260Y019598D01*
X014244Y019631D01*
X014225Y019661D01*
X014202Y019690D01*
X014177Y019716D01*
X014149Y019739D01*
X014119Y019759D01*
X014087Y019775D01*
X014053Y019788D01*
X014019Y019798D01*
X013983Y019804D01*
X013947Y019806D01*
X013911Y019804D01*
X013875Y019799D01*
X013840Y019790D01*
X013806Y019777D01*
X013774Y019760D01*
X013744Y019741D01*
X013716Y019718D01*
X013690Y019692D01*
X013667Y019664D01*
X013648Y019634D01*
X013631Y019602D01*
X013618Y019568D01*
X013609Y019533D01*
X013604Y019497D01*
X013602Y019461D01*
X013604Y019425D01*
X013610Y019389D01*
X013620Y019355D01*
X013633Y019321D01*
X013649Y019289D01*
X013669Y019259D01*
X013692Y019231D01*
X013718Y019206D01*
X013747Y019183D01*
X013777Y019164D01*
X013810Y019148D01*
X013843Y019135D01*
X013878Y019127D01*
X013914Y019121D01*
X013950Y019120D01*
X013950Y019129D01*
X013914Y019130D01*
X013879Y019136D01*
X013844Y019145D01*
X013810Y019157D01*
X013778Y019174D01*
X013748Y019193D01*
X013720Y019216D01*
X013695Y019242D01*
X013672Y019270D01*
X013653Y019300D01*
X013637Y019333D01*
X013625Y019367D01*
X013617Y019402D01*
X013612Y019437D01*
X013611Y019473D01*
X013614Y019509D01*
X013621Y019544D01*
X013632Y019579D01*
X013646Y019612D01*
X013664Y019643D01*
X013685Y019672D01*
X013709Y019699D01*
X013736Y019723D01*
X013765Y019744D01*
X013796Y019762D01*
X013829Y019776D01*
X013864Y019787D01*
X013899Y019794D01*
X013935Y019797D01*
X013971Y019796D01*
X014006Y019791D01*
X014041Y019783D01*
X014075Y019771D01*
X014108Y019755D01*
X014138Y019736D01*
X014166Y019713D01*
X014192Y019688D01*
X014215Y019660D01*
X014234Y019630D01*
X014251Y019598D01*
X014263Y019564D01*
X014272Y019529D01*
X014278Y019494D01*
X014279Y019458D01*
X014270Y019458D01*
X014269Y019493D01*
X014263Y019528D01*
X014255Y019562D01*
X014242Y019594D01*
X014226Y019626D01*
X014207Y019655D01*
X014185Y019682D01*
X014160Y019707D01*
X014133Y019728D01*
X014103Y019747D01*
X014072Y019762D01*
X014039Y019774D01*
X014005Y019782D01*
X013970Y019787D01*
X013935Y019788D01*
X013900Y019785D01*
X013866Y019778D01*
X013832Y019768D01*
X013800Y019754D01*
X013770Y019737D01*
X013741Y019716D01*
X013715Y019693D01*
X013692Y019667D01*
X013671Y019638D01*
X013654Y019608D01*
X013640Y019576D01*
X013630Y019542D01*
X013623Y019508D01*
X013620Y019473D01*
X013621Y019438D01*
X013626Y019403D01*
X013634Y019369D01*
X013646Y019336D01*
X013661Y019305D01*
X013680Y019275D01*
X013701Y019248D01*
X013726Y019223D01*
X013753Y019201D01*
X013782Y019182D01*
X013814Y019166D01*
X013846Y019153D01*
X013880Y019145D01*
X013915Y019139D01*
X013950Y019138D01*
X013950Y019147D01*
X013915Y019148D01*
X013880Y019154D01*
X013847Y019163D01*
X013814Y019175D01*
X013783Y019191D01*
X013754Y019211D01*
X013728Y019233D01*
X013704Y019259D01*
X013683Y019286D01*
X013665Y019316D01*
X013651Y019348D01*
X013640Y019381D01*
X013633Y019415D01*
X013629Y019450D01*
X013630Y019485D01*
X013634Y019519D01*
X013642Y019553D01*
X013654Y019586D01*
X013669Y019617D01*
X013688Y019647D01*
X013710Y019674D01*
X013734Y019698D01*
X013761Y019720D01*
X013791Y019739D01*
X013822Y019754D01*
X013855Y019766D01*
X013889Y019774D01*
X013923Y019778D01*
X013958Y019779D01*
X013993Y019775D01*
X014027Y019768D01*
X014060Y019757D01*
X014092Y019743D01*
X014122Y019725D01*
X014149Y019704D01*
X014175Y019680D01*
X014197Y019654D01*
X014217Y019625D01*
X014233Y019594D01*
X014245Y019561D01*
X014254Y019528D01*
X014260Y019493D01*
X014261Y019458D01*
X014252Y019459D01*
X014251Y019492D01*
X014245Y019526D01*
X014237Y019559D01*
X014224Y019590D01*
X014209Y019620D01*
X014190Y019648D01*
X014168Y019674D01*
X014143Y019697D01*
X014116Y019718D01*
X014087Y019735D01*
X014057Y019749D01*
X014024Y019760D01*
X013991Y019766D01*
X013958Y019770D01*
X013924Y019769D01*
X013890Y019765D01*
X013857Y019757D01*
X013826Y019746D01*
X013795Y019731D01*
X013767Y019713D01*
X013740Y019692D01*
X013716Y019668D01*
X013695Y019641D01*
X013677Y019613D01*
X013662Y019582D01*
X013651Y019551D01*
X013643Y019518D01*
X013639Y019484D01*
X013638Y019450D01*
X013642Y019417D01*
X013648Y019384D01*
X013659Y019351D01*
X013673Y019321D01*
X013690Y019292D01*
X013711Y019265D01*
X013734Y019240D01*
X013760Y019218D01*
X013788Y019199D01*
X013818Y019184D01*
X013849Y019171D01*
X013882Y019163D01*
X013916Y019157D01*
X013949Y019156D01*
X013949Y019165D01*
X013915Y019166D01*
X013882Y019172D01*
X013850Y019181D01*
X013819Y019193D01*
X013789Y019209D01*
X013761Y019228D01*
X013736Y019250D01*
X013714Y019275D01*
X013694Y019303D01*
X013677Y019332D01*
X013664Y019363D01*
X013655Y019395D01*
X013649Y019428D01*
X013647Y019462D01*
X013649Y019495D01*
X013654Y019528D01*
X013663Y019561D01*
X013676Y019592D01*
X013692Y019621D01*
X013712Y019649D01*
X013734Y019674D01*
X013759Y019696D01*
X013787Y019716D01*
X013816Y019732D01*
X013847Y019745D01*
X013880Y019754D01*
X013913Y019759D01*
X013946Y019761D01*
X013980Y019759D01*
X014013Y019753D01*
X014045Y019744D01*
X014076Y019731D01*
X014105Y019714D01*
X014133Y019694D01*
X014158Y019672D01*
X014180Y019647D01*
X014199Y019619D01*
X014215Y019589D01*
X014227Y019558D01*
X014236Y019526D01*
X014242Y019493D01*
X014243Y019459D01*
X014234Y019459D01*
X014232Y019493D01*
X014227Y019526D01*
X014218Y019558D01*
X014205Y019589D01*
X014189Y019618D01*
X014170Y019645D01*
X014147Y019670D01*
X014122Y019691D01*
X014094Y019710D01*
X014065Y019726D01*
X014034Y019738D01*
X014002Y019746D01*
X013968Y019751D01*
X013935Y019752D01*
X013902Y019749D01*
X013869Y019742D01*
X013838Y019731D01*
X013807Y019717D01*
X013779Y019700D01*
X013753Y019679D01*
X013729Y019655D01*
X013708Y019629D01*
X013691Y019601D01*
X013677Y019570D01*
X013666Y019539D01*
X013659Y019506D01*
X013656Y019473D01*
X013657Y019440D01*
X013662Y019406D01*
X013670Y019374D01*
X013682Y019343D01*
X013698Y019314D01*
X013717Y019286D01*
X013738Y019261D01*
X013763Y019238D01*
X013790Y019219D01*
X013819Y019203D01*
X013850Y019190D01*
X013882Y019181D01*
X013915Y019176D01*
X013949Y019174D01*
X013951Y019025D02*
X013948Y018935D01*
X013948Y018936D02*
X013915Y018934D01*
X013883Y018929D01*
X013851Y018920D01*
X013820Y018907D01*
X013792Y018890D01*
X013765Y018870D01*
X013741Y018848D01*
X013720Y018822D01*
X013702Y018794D01*
X013687Y018765D01*
X013676Y018734D01*
X013669Y018701D01*
X013665Y018668D01*
X013666Y018635D01*
X013670Y018602D01*
X013678Y018570D01*
X013691Y018539D01*
X013706Y018510D01*
X013725Y018483D01*
X013747Y018458D01*
X013772Y018436D01*
X013799Y018417D01*
X013828Y018402D01*
X013859Y018389D01*
X013891Y018381D01*
X013924Y018377D01*
X013957Y018376D01*
X013990Y018380D01*
X014023Y018387D01*
X014054Y018398D01*
X014083Y018413D01*
X014111Y018431D01*
X014137Y018452D01*
X014159Y018476D01*
X014179Y018503D01*
X014196Y018531D01*
X014209Y018562D01*
X014218Y018594D01*
X014223Y018626D01*
X014225Y018659D01*
X014314Y018662D01*
X014315Y018662D01*
X014314Y018625D01*
X014309Y018588D01*
X014300Y018552D01*
X014288Y018516D01*
X014272Y018482D01*
X014253Y018450D01*
X014230Y018420D01*
X014205Y018393D01*
X014177Y018368D01*
X014147Y018346D01*
X014115Y018327D01*
X014081Y018312D01*
X014045Y018300D01*
X014009Y018292D01*
X013972Y018287D01*
X013935Y018286D01*
X013897Y018289D01*
X013861Y018296D01*
X013825Y018306D01*
X013790Y018320D01*
X013757Y018337D01*
X013726Y018358D01*
X013697Y018382D01*
X013671Y018408D01*
X013647Y018437D01*
X013626Y018468D01*
X013609Y018501D01*
X013595Y018536D01*
X013585Y018572D01*
X013578Y018608D01*
X013575Y018646D01*
X013576Y018683D01*
X013581Y018720D01*
X013589Y018756D01*
X013601Y018792D01*
X013616Y018826D01*
X013635Y018858D01*
X013657Y018888D01*
X013682Y018916D01*
X013709Y018941D01*
X013739Y018964D01*
X013771Y018983D01*
X013805Y018999D01*
X013841Y019011D01*
X013877Y019020D01*
X013914Y019025D01*
X013951Y019026D01*
X013951Y019017D01*
X013914Y019016D01*
X013877Y019011D01*
X013841Y019002D01*
X013806Y018989D01*
X013772Y018973D01*
X013740Y018953D01*
X013711Y018931D01*
X013684Y018905D01*
X013660Y018877D01*
X013638Y018846D01*
X013620Y018814D01*
X013606Y018780D01*
X013595Y018744D01*
X013588Y018707D01*
X013584Y018670D01*
X013585Y018633D01*
X013589Y018596D01*
X013597Y018560D01*
X013609Y018525D01*
X013624Y018491D01*
X013643Y018458D01*
X013665Y018428D01*
X013690Y018401D01*
X013717Y018376D01*
X013747Y018354D01*
X013780Y018335D01*
X013814Y018320D01*
X013849Y018308D01*
X013885Y018300D01*
X013922Y018296D01*
X013959Y018295D01*
X013996Y018299D01*
X014033Y018306D01*
X014069Y018317D01*
X014103Y018331D01*
X014135Y018349D01*
X014166Y018371D01*
X014194Y018395D01*
X014220Y018422D01*
X014242Y018451D01*
X014262Y018483D01*
X014278Y018517D01*
X014291Y018552D01*
X014300Y018588D01*
X014305Y018625D01*
X014306Y018662D01*
X014297Y018662D01*
X014296Y018625D01*
X014290Y018588D01*
X014281Y018552D01*
X014268Y018517D01*
X014252Y018484D01*
X014232Y018452D01*
X014209Y018423D01*
X014183Y018397D01*
X014155Y018373D01*
X014124Y018353D01*
X014091Y018336D01*
X014056Y018322D01*
X014021Y018312D01*
X013984Y018306D01*
X013947Y018304D01*
X013910Y018306D01*
X013873Y018311D01*
X013837Y018321D01*
X013803Y018334D01*
X013770Y018351D01*
X013738Y018371D01*
X013710Y018394D01*
X013683Y018421D01*
X013660Y018449D01*
X013640Y018481D01*
X013623Y018514D01*
X013610Y018548D01*
X013600Y018584D01*
X013595Y018621D01*
X013593Y018658D01*
X013595Y018695D01*
X013601Y018732D01*
X013611Y018767D01*
X013625Y018802D01*
X013642Y018835D01*
X013662Y018866D01*
X013686Y018894D01*
X013712Y018920D01*
X013741Y018943D01*
X013773Y018963D01*
X013806Y018979D01*
X013841Y018992D01*
X013877Y019001D01*
X013914Y019007D01*
X013951Y019008D01*
X013950Y018999D01*
X013914Y018998D01*
X013878Y018992D01*
X013843Y018984D01*
X013810Y018971D01*
X013777Y018955D01*
X013747Y018936D01*
X013718Y018913D01*
X013692Y018888D01*
X013669Y018860D01*
X013649Y018830D01*
X013633Y018798D01*
X013620Y018764D01*
X013610Y018730D01*
X013604Y018694D01*
X013602Y018658D01*
X013604Y018622D01*
X013609Y018586D01*
X013618Y018551D01*
X013631Y018517D01*
X013648Y018485D01*
X013667Y018455D01*
X013690Y018427D01*
X013716Y018401D01*
X013744Y018378D01*
X013774Y018359D01*
X013806Y018342D01*
X013840Y018329D01*
X013875Y018320D01*
X013911Y018315D01*
X013947Y018313D01*
X013983Y018315D01*
X014019Y018321D01*
X014053Y018331D01*
X014087Y018344D01*
X014119Y018360D01*
X014149Y018380D01*
X014177Y018403D01*
X014202Y018429D01*
X014225Y018458D01*
X014244Y018488D01*
X014260Y018521D01*
X014273Y018554D01*
X014281Y018589D01*
X014287Y018625D01*
X014288Y018661D01*
X014279Y018661D01*
X014278Y018625D01*
X014272Y018590D01*
X014263Y018555D01*
X014251Y018521D01*
X014234Y018489D01*
X014215Y018459D01*
X014192Y018431D01*
X014166Y018406D01*
X014138Y018383D01*
X014108Y018364D01*
X014075Y018348D01*
X014041Y018336D01*
X014006Y018328D01*
X013971Y018323D01*
X013935Y018322D01*
X013899Y018325D01*
X013864Y018332D01*
X013829Y018343D01*
X013796Y018357D01*
X013765Y018375D01*
X013736Y018396D01*
X013709Y018420D01*
X013685Y018447D01*
X013664Y018476D01*
X013646Y018507D01*
X013632Y018540D01*
X013621Y018575D01*
X013614Y018610D01*
X013611Y018646D01*
X013612Y018682D01*
X013617Y018717D01*
X013625Y018752D01*
X013637Y018786D01*
X013653Y018819D01*
X013672Y018849D01*
X013695Y018877D01*
X013720Y018903D01*
X013748Y018926D01*
X013778Y018945D01*
X013810Y018962D01*
X013844Y018974D01*
X013879Y018983D01*
X013914Y018989D01*
X013950Y018990D01*
X013950Y018981D01*
X013915Y018980D01*
X013880Y018974D01*
X013846Y018966D01*
X013814Y018953D01*
X013782Y018937D01*
X013753Y018918D01*
X013726Y018896D01*
X013701Y018871D01*
X013680Y018844D01*
X013661Y018814D01*
X013646Y018783D01*
X013634Y018750D01*
X013626Y018716D01*
X013621Y018681D01*
X013620Y018646D01*
X013623Y018611D01*
X013630Y018577D01*
X013640Y018543D01*
X013654Y018511D01*
X013671Y018481D01*
X013692Y018452D01*
X013715Y018426D01*
X013741Y018403D01*
X013770Y018382D01*
X013800Y018365D01*
X013832Y018351D01*
X013866Y018341D01*
X013900Y018334D01*
X013935Y018331D01*
X013970Y018332D01*
X014005Y018337D01*
X014039Y018345D01*
X014072Y018357D01*
X014103Y018372D01*
X014133Y018391D01*
X014160Y018412D01*
X014185Y018437D01*
X014207Y018464D01*
X014226Y018493D01*
X014242Y018525D01*
X014255Y018557D01*
X014263Y018591D01*
X014269Y018626D01*
X014270Y018661D01*
X014261Y018661D01*
X014260Y018626D01*
X014254Y018591D01*
X014245Y018558D01*
X014233Y018525D01*
X014217Y018494D01*
X014197Y018465D01*
X014175Y018439D01*
X014149Y018415D01*
X014122Y018394D01*
X014092Y018376D01*
X014060Y018362D01*
X014027Y018351D01*
X013993Y018344D01*
X013958Y018340D01*
X013923Y018341D01*
X013889Y018345D01*
X013855Y018353D01*
X013822Y018365D01*
X013791Y018380D01*
X013761Y018399D01*
X013734Y018421D01*
X013710Y018445D01*
X013688Y018472D01*
X013669Y018502D01*
X013654Y018533D01*
X013642Y018566D01*
X013634Y018600D01*
X013630Y018634D01*
X013629Y018669D01*
X013633Y018704D01*
X013640Y018738D01*
X013651Y018771D01*
X013665Y018803D01*
X013683Y018833D01*
X013704Y018860D01*
X013728Y018886D01*
X013754Y018908D01*
X013783Y018928D01*
X013814Y018944D01*
X013847Y018956D01*
X013880Y018965D01*
X013915Y018971D01*
X013950Y018972D01*
X013949Y018963D01*
X013916Y018962D01*
X013882Y018956D01*
X013849Y018948D01*
X013818Y018935D01*
X013788Y018920D01*
X013760Y018901D01*
X013734Y018879D01*
X013711Y018854D01*
X013690Y018827D01*
X013673Y018798D01*
X013659Y018768D01*
X013648Y018735D01*
X013642Y018702D01*
X013638Y018669D01*
X013639Y018635D01*
X013643Y018601D01*
X013651Y018568D01*
X013662Y018537D01*
X013677Y018506D01*
X013695Y018478D01*
X013716Y018451D01*
X013740Y018427D01*
X013767Y018406D01*
X013795Y018388D01*
X013826Y018373D01*
X013857Y018362D01*
X013890Y018354D01*
X013924Y018350D01*
X013958Y018349D01*
X013991Y018353D01*
X014024Y018359D01*
X014057Y018370D01*
X014087Y018384D01*
X014116Y018401D01*
X014143Y018422D01*
X014168Y018445D01*
X014190Y018471D01*
X014209Y018499D01*
X014224Y018529D01*
X014237Y018560D01*
X014245Y018593D01*
X014251Y018627D01*
X014252Y018660D01*
X014243Y018660D01*
X014242Y018626D01*
X014236Y018593D01*
X014227Y018561D01*
X014215Y018530D01*
X014199Y018500D01*
X014180Y018472D01*
X014158Y018447D01*
X014133Y018425D01*
X014105Y018405D01*
X014076Y018388D01*
X014045Y018375D01*
X014013Y018366D01*
X013980Y018360D01*
X013946Y018358D01*
X013913Y018360D01*
X013880Y018365D01*
X013847Y018374D01*
X013816Y018387D01*
X013787Y018403D01*
X013759Y018423D01*
X013734Y018445D01*
X013712Y018470D01*
X013692Y018498D01*
X013676Y018527D01*
X013663Y018558D01*
X013654Y018591D01*
X013649Y018624D01*
X013647Y018657D01*
X013649Y018691D01*
X013655Y018724D01*
X013664Y018756D01*
X013677Y018787D01*
X013694Y018816D01*
X013714Y018844D01*
X013736Y018869D01*
X013761Y018891D01*
X013789Y018910D01*
X013819Y018926D01*
X013850Y018938D01*
X013882Y018947D01*
X013915Y018953D01*
X013949Y018954D01*
X013949Y018945D01*
X013915Y018943D01*
X013882Y018938D01*
X013850Y018929D01*
X013819Y018916D01*
X013790Y018900D01*
X013763Y018881D01*
X013738Y018858D01*
X013717Y018833D01*
X013698Y018805D01*
X013682Y018776D01*
X013670Y018745D01*
X013662Y018713D01*
X013657Y018679D01*
X013656Y018646D01*
X013659Y018613D01*
X013666Y018580D01*
X013677Y018549D01*
X013691Y018518D01*
X013708Y018490D01*
X013729Y018464D01*
X013753Y018440D01*
X013779Y018419D01*
X013807Y018402D01*
X013838Y018388D01*
X013869Y018377D01*
X013902Y018370D01*
X013935Y018367D01*
X013968Y018368D01*
X014002Y018373D01*
X014034Y018381D01*
X014065Y018393D01*
X014094Y018409D01*
X014122Y018428D01*
X014147Y018449D01*
X014170Y018474D01*
X014189Y018501D01*
X014205Y018530D01*
X014218Y018561D01*
X014227Y018593D01*
X014232Y018626D01*
X014234Y018660D01*
X014422Y018662D02*
X014512Y018659D01*
X014511Y018659D02*
X014513Y018626D01*
X014518Y018594D01*
X014527Y018562D01*
X014540Y018531D01*
X014557Y018503D01*
X014577Y018476D01*
X014599Y018452D01*
X014625Y018431D01*
X014653Y018413D01*
X014682Y018398D01*
X014713Y018387D01*
X014746Y018380D01*
X014779Y018376D01*
X014812Y018377D01*
X014845Y018381D01*
X014877Y018389D01*
X014908Y018402D01*
X014937Y018417D01*
X014964Y018436D01*
X014989Y018458D01*
X015011Y018483D01*
X015030Y018510D01*
X015045Y018539D01*
X015058Y018570D01*
X015066Y018602D01*
X015070Y018635D01*
X015071Y018668D01*
X015067Y018701D01*
X015060Y018734D01*
X015049Y018765D01*
X015034Y018794D01*
X015016Y018822D01*
X014995Y018848D01*
X014971Y018870D01*
X014944Y018890D01*
X014916Y018907D01*
X014885Y018920D01*
X014853Y018929D01*
X014821Y018934D01*
X014788Y018936D01*
X014785Y019025D01*
X014785Y019026D01*
X014822Y019025D01*
X014859Y019020D01*
X014895Y019011D01*
X014931Y018999D01*
X014965Y018983D01*
X014997Y018964D01*
X015027Y018941D01*
X015054Y018916D01*
X015079Y018888D01*
X015101Y018858D01*
X015120Y018826D01*
X015135Y018792D01*
X015147Y018756D01*
X015155Y018720D01*
X015160Y018683D01*
X015161Y018646D01*
X015158Y018608D01*
X015151Y018572D01*
X015141Y018536D01*
X015127Y018501D01*
X015110Y018468D01*
X015089Y018437D01*
X015065Y018408D01*
X015039Y018382D01*
X015010Y018358D01*
X014979Y018337D01*
X014946Y018320D01*
X014911Y018306D01*
X014875Y018296D01*
X014839Y018289D01*
X014801Y018286D01*
X014764Y018287D01*
X014727Y018292D01*
X014691Y018300D01*
X014655Y018312D01*
X014621Y018327D01*
X014589Y018346D01*
X014559Y018368D01*
X014531Y018393D01*
X014506Y018420D01*
X014483Y018450D01*
X014464Y018482D01*
X014448Y018516D01*
X014436Y018552D01*
X014427Y018588D01*
X014422Y018625D01*
X014421Y018662D01*
X014430Y018662D01*
X014431Y018625D01*
X014436Y018588D01*
X014445Y018552D01*
X014458Y018517D01*
X014474Y018483D01*
X014494Y018451D01*
X014516Y018422D01*
X014542Y018395D01*
X014570Y018371D01*
X014601Y018349D01*
X014633Y018331D01*
X014667Y018317D01*
X014703Y018306D01*
X014740Y018299D01*
X014777Y018295D01*
X014814Y018296D01*
X014851Y018300D01*
X014887Y018308D01*
X014922Y018320D01*
X014956Y018335D01*
X014989Y018354D01*
X015019Y018376D01*
X015046Y018401D01*
X015071Y018428D01*
X015093Y018458D01*
X015112Y018491D01*
X015127Y018525D01*
X015139Y018560D01*
X015147Y018596D01*
X015151Y018633D01*
X015152Y018670D01*
X015148Y018707D01*
X015141Y018744D01*
X015130Y018780D01*
X015116Y018814D01*
X015098Y018846D01*
X015076Y018877D01*
X015052Y018905D01*
X015025Y018931D01*
X014996Y018953D01*
X014964Y018973D01*
X014930Y018989D01*
X014895Y019002D01*
X014859Y019011D01*
X014822Y019016D01*
X014785Y019017D01*
X014785Y019008D01*
X014822Y019007D01*
X014859Y019001D01*
X014895Y018992D01*
X014930Y018979D01*
X014963Y018963D01*
X014995Y018943D01*
X015024Y018920D01*
X015050Y018894D01*
X015074Y018866D01*
X015094Y018835D01*
X015111Y018802D01*
X015125Y018767D01*
X015135Y018732D01*
X015141Y018695D01*
X015143Y018658D01*
X015141Y018621D01*
X015136Y018584D01*
X015126Y018548D01*
X015113Y018514D01*
X015096Y018481D01*
X015076Y018449D01*
X015053Y018421D01*
X015026Y018394D01*
X014998Y018371D01*
X014966Y018351D01*
X014933Y018334D01*
X014899Y018321D01*
X014863Y018311D01*
X014826Y018306D01*
X014789Y018304D01*
X014752Y018306D01*
X014715Y018312D01*
X014680Y018322D01*
X014645Y018336D01*
X014612Y018353D01*
X014581Y018373D01*
X014553Y018397D01*
X014527Y018423D01*
X014504Y018452D01*
X014484Y018484D01*
X014468Y018517D01*
X014455Y018552D01*
X014446Y018588D01*
X014440Y018625D01*
X014439Y018662D01*
X014448Y018661D01*
X014449Y018625D01*
X014455Y018589D01*
X014463Y018554D01*
X014476Y018521D01*
X014492Y018488D01*
X014511Y018458D01*
X014534Y018429D01*
X014559Y018403D01*
X014587Y018380D01*
X014617Y018360D01*
X014649Y018344D01*
X014683Y018331D01*
X014717Y018321D01*
X014753Y018315D01*
X014789Y018313D01*
X014825Y018315D01*
X014861Y018320D01*
X014896Y018329D01*
X014930Y018342D01*
X014962Y018359D01*
X014992Y018378D01*
X015020Y018401D01*
X015046Y018427D01*
X015069Y018455D01*
X015088Y018485D01*
X015105Y018517D01*
X015118Y018551D01*
X015127Y018586D01*
X015132Y018622D01*
X015134Y018658D01*
X015132Y018694D01*
X015126Y018730D01*
X015116Y018764D01*
X015103Y018798D01*
X015087Y018830D01*
X015067Y018860D01*
X015044Y018888D01*
X015018Y018913D01*
X014989Y018936D01*
X014959Y018955D01*
X014926Y018971D01*
X014893Y018984D01*
X014858Y018992D01*
X014822Y018998D01*
X014786Y018999D01*
X014786Y018990D01*
X014822Y018989D01*
X014857Y018983D01*
X014892Y018974D01*
X014926Y018962D01*
X014958Y018945D01*
X014988Y018926D01*
X015016Y018903D01*
X015041Y018877D01*
X015064Y018849D01*
X015083Y018819D01*
X015099Y018786D01*
X015111Y018752D01*
X015119Y018717D01*
X015124Y018682D01*
X015125Y018646D01*
X015122Y018610D01*
X015115Y018575D01*
X015104Y018540D01*
X015090Y018507D01*
X015072Y018476D01*
X015051Y018447D01*
X015027Y018420D01*
X015000Y018396D01*
X014971Y018375D01*
X014940Y018357D01*
X014907Y018343D01*
X014872Y018332D01*
X014837Y018325D01*
X014801Y018322D01*
X014765Y018323D01*
X014730Y018328D01*
X014695Y018336D01*
X014661Y018348D01*
X014628Y018364D01*
X014598Y018383D01*
X014570Y018406D01*
X014544Y018431D01*
X014521Y018459D01*
X014502Y018489D01*
X014485Y018521D01*
X014473Y018555D01*
X014464Y018590D01*
X014458Y018625D01*
X014457Y018661D01*
X014466Y018661D01*
X014467Y018626D01*
X014473Y018591D01*
X014481Y018557D01*
X014494Y018525D01*
X014510Y018493D01*
X014529Y018464D01*
X014551Y018437D01*
X014576Y018412D01*
X014603Y018391D01*
X014633Y018372D01*
X014664Y018357D01*
X014697Y018345D01*
X014731Y018337D01*
X014766Y018332D01*
X014801Y018331D01*
X014836Y018334D01*
X014870Y018341D01*
X014904Y018351D01*
X014936Y018365D01*
X014966Y018382D01*
X014995Y018403D01*
X015021Y018426D01*
X015044Y018452D01*
X015065Y018481D01*
X015082Y018511D01*
X015096Y018543D01*
X015106Y018577D01*
X015113Y018611D01*
X015116Y018646D01*
X015115Y018681D01*
X015110Y018716D01*
X015102Y018750D01*
X015090Y018783D01*
X015075Y018814D01*
X015056Y018844D01*
X015035Y018871D01*
X015010Y018896D01*
X014983Y018918D01*
X014954Y018937D01*
X014922Y018953D01*
X014890Y018966D01*
X014856Y018974D01*
X014821Y018980D01*
X014786Y018981D01*
X014786Y018972D01*
X014821Y018971D01*
X014856Y018965D01*
X014889Y018956D01*
X014922Y018944D01*
X014953Y018928D01*
X014982Y018908D01*
X015008Y018886D01*
X015032Y018860D01*
X015053Y018833D01*
X015071Y018803D01*
X015085Y018771D01*
X015096Y018738D01*
X015103Y018704D01*
X015107Y018669D01*
X015106Y018634D01*
X015102Y018600D01*
X015094Y018566D01*
X015082Y018533D01*
X015067Y018502D01*
X015048Y018472D01*
X015026Y018445D01*
X015002Y018421D01*
X014975Y018399D01*
X014945Y018380D01*
X014914Y018365D01*
X014881Y018353D01*
X014847Y018345D01*
X014813Y018341D01*
X014778Y018340D01*
X014743Y018344D01*
X014709Y018351D01*
X014676Y018362D01*
X014644Y018376D01*
X014614Y018394D01*
X014587Y018415D01*
X014561Y018439D01*
X014539Y018465D01*
X014519Y018494D01*
X014503Y018525D01*
X014491Y018558D01*
X014482Y018591D01*
X014476Y018626D01*
X014475Y018661D01*
X014484Y018660D01*
X014485Y018627D01*
X014491Y018593D01*
X014499Y018560D01*
X014512Y018529D01*
X014527Y018499D01*
X014546Y018471D01*
X014568Y018445D01*
X014593Y018422D01*
X014620Y018401D01*
X014649Y018384D01*
X014679Y018370D01*
X014712Y018359D01*
X014745Y018353D01*
X014778Y018349D01*
X014812Y018350D01*
X014846Y018354D01*
X014879Y018362D01*
X014910Y018373D01*
X014941Y018388D01*
X014969Y018406D01*
X014996Y018427D01*
X015020Y018451D01*
X015041Y018478D01*
X015059Y018506D01*
X015074Y018537D01*
X015085Y018568D01*
X015093Y018601D01*
X015097Y018635D01*
X015098Y018669D01*
X015094Y018702D01*
X015088Y018735D01*
X015077Y018768D01*
X015063Y018798D01*
X015046Y018827D01*
X015025Y018854D01*
X015002Y018879D01*
X014976Y018901D01*
X014948Y018920D01*
X014918Y018935D01*
X014887Y018948D01*
X014854Y018956D01*
X014820Y018962D01*
X014787Y018963D01*
X014787Y018954D01*
X014821Y018953D01*
X014854Y018947D01*
X014886Y018938D01*
X014917Y018926D01*
X014947Y018910D01*
X014975Y018891D01*
X015000Y018869D01*
X015022Y018844D01*
X015042Y018816D01*
X015059Y018787D01*
X015072Y018756D01*
X015081Y018724D01*
X015087Y018691D01*
X015089Y018657D01*
X015087Y018624D01*
X015082Y018591D01*
X015073Y018558D01*
X015060Y018527D01*
X015044Y018498D01*
X015024Y018470D01*
X015002Y018445D01*
X014977Y018423D01*
X014949Y018403D01*
X014920Y018387D01*
X014889Y018374D01*
X014856Y018365D01*
X014823Y018360D01*
X014790Y018358D01*
X014756Y018360D01*
X014723Y018366D01*
X014691Y018375D01*
X014660Y018388D01*
X014631Y018405D01*
X014603Y018425D01*
X014578Y018447D01*
X014556Y018472D01*
X014537Y018500D01*
X014521Y018530D01*
X014509Y018561D01*
X014500Y018593D01*
X014494Y018626D01*
X014493Y018660D01*
X014502Y018660D01*
X014504Y018626D01*
X014509Y018593D01*
X014518Y018561D01*
X014531Y018530D01*
X014547Y018501D01*
X014566Y018474D01*
X014589Y018449D01*
X014614Y018428D01*
X014642Y018409D01*
X014671Y018393D01*
X014702Y018381D01*
X014734Y018373D01*
X014768Y018368D01*
X014801Y018367D01*
X014834Y018370D01*
X014867Y018377D01*
X014898Y018388D01*
X014929Y018402D01*
X014957Y018419D01*
X014983Y018440D01*
X015007Y018464D01*
X015028Y018490D01*
X015045Y018518D01*
X015059Y018549D01*
X015070Y018580D01*
X015077Y018613D01*
X015080Y018646D01*
X015079Y018679D01*
X015074Y018713D01*
X015066Y018745D01*
X015054Y018776D01*
X015038Y018805D01*
X015019Y018833D01*
X014998Y018858D01*
X014973Y018881D01*
X014946Y018900D01*
X014917Y018916D01*
X014886Y018929D01*
X014854Y018938D01*
X014821Y018943D01*
X014787Y018945D01*
D24*
X023006Y019330D02*
X023831Y019330D01*
X023831Y021480D02*
X023006Y021480D01*
X023006Y023630D02*
X023831Y023630D01*
X026706Y023630D02*
X027531Y023630D01*
X027531Y021480D02*
X026706Y021480D01*
X026706Y019330D02*
X027531Y019330D01*
D25*
X028844Y028455D03*
X025844Y028455D03*
D26*
X027344Y012955D03*
X027344Y010955D03*
D27*
X025894Y016480D03*
X025894Y026480D03*
D28*
X025869Y019130D02*
X024469Y017730D01*
X021869Y017730D01*
X018644Y014505D01*
X018694Y014455D02*
X019244Y014455D01*
X020844Y012855D01*
X020919Y012805D02*
X024624Y012805D01*
X024629Y012801D01*
X024629Y010545D02*
X023659Y010545D01*
X022219Y009105D01*
X021494Y009105D01*
X021497Y009102D01*
X021497Y007212D01*
X021494Y009105D02*
X017569Y009105D01*
X017560Y007212D01*
X017569Y009105D02*
X017144Y009105D01*
X015520Y010730D01*
X015440Y010730D01*
X013569Y010130D02*
X015592Y008107D01*
X015592Y007212D01*
X013623Y007212D02*
X011287Y007212D01*
X011244Y007180D01*
X011192Y007180D01*
X008079Y010293D01*
X008079Y014230D02*
X011265Y014234D01*
X011519Y013980D01*
X011503Y013970D02*
X011498Y013975D01*
X011503Y013970D02*
X011503Y011596D01*
X013569Y011780D02*
X013569Y010130D01*
X013569Y011780D02*
X016244Y014455D01*
X018694Y014455D01*
D29*
X013544Y042955D03*
X012969Y042955D03*
X012394Y042955D03*
X011819Y042955D03*
X011244Y042955D03*
D30*
X014094Y038955D03*
X015269Y038955D03*
X017919Y041380D03*
X017394Y034505D03*
X016294Y034555D03*
X024719Y037680D03*
X024719Y038430D03*
X028819Y032155D03*
X021569Y022230D03*
D31*
X024719Y037680D02*
X024719Y038430D01*
X017919Y041380D02*
X017894Y041405D01*
X016544Y041405D01*
X014094Y038955D01*
D32*
X017394Y034505D02*
X016969Y034080D01*
X008294Y034080D01*
X008244Y034130D01*
X012176Y032405D02*
X009273Y029502D01*
X010257Y028743D02*
X010257Y027533D01*
X010257Y025565D01*
X011310Y025565D01*
X011869Y025005D01*
X011869Y021130D01*
X010394Y019655D01*
X009269Y019655D01*
X009273Y019659D02*
X009276Y019655D01*
X010594Y021291D02*
X010257Y021628D01*
X009273Y021628D01*
X009273Y027533D02*
X010257Y027533D01*
X010257Y028743D02*
X013244Y031730D01*
X017219Y031730D01*
X022369Y036880D01*
X025094Y036880D01*
X027069Y038856D01*
X027069Y039355D01*
X025069Y040656D02*
X025069Y041355D01*
X025069Y040656D02*
X016819Y032405D01*
X012176Y032405D01*
X019115Y029502D02*
X019115Y027533D01*
X020099Y027533D01*
X020099Y023596D02*
X020099Y021628D01*
X019115Y021628D01*
X019115Y019659D01*
X019940Y019659D01*
X021869Y017730D01*
X016244Y014455D02*
X016169Y014455D01*
X015129Y013415D01*
X015435Y013109D01*
D33*
X010569Y034580D03*
X010194Y034580D03*
X009244Y040205D03*
X009244Y040580D03*
X014669Y036930D03*
X014669Y036555D03*
X016719Y038960D03*
X016719Y039355D03*
X016719Y039750D03*
X018069Y039750D03*
X018069Y039355D03*
D34*
X007843Y006819D03*
X028315Y006819D03*
X028315Y043039D03*
X007843Y043039D03*
D35*
X021569Y022230D02*
X021569Y021180D01*
X023419Y019330D01*
X027119Y023630D02*
X027944Y024455D01*
X027944Y031305D01*
X028794Y032155D01*
X028819Y032155D01*
X020844Y012855D02*
X020894Y012805D01*
X020919Y012805D01*
D36*
X011244Y007180D03*
M02*
