G75*
G70*
%OFA0B0*%
%FSLAX24Y24*%
%IPPOS*%
%LPD*%
%AMOC8*
5,1,8,0,0,1.08239X$1,22.5*
%
%ADD10C,0.0040*%
%ADD11C,0.0100*%
%ADD12C,0.0060*%
%ADD13C,0.0080*%
%ADD14C,0.0020*%
D10*
X061908Y014598D02*
X061908Y014718D01*
X061968Y014778D01*
X062088Y014778D01*
X062088Y014658D01*
X062208Y014778D02*
X062268Y014718D01*
X062268Y014598D01*
X062208Y014538D01*
X061968Y014538D01*
X061908Y014598D01*
X061908Y014906D02*
X062148Y014906D01*
X062148Y015086D01*
X062088Y015146D01*
X061908Y015146D01*
X061968Y015275D02*
X062088Y015275D01*
X062148Y015335D01*
X062148Y015515D01*
X062268Y015515D02*
X061908Y015515D01*
X061908Y015335D01*
X061968Y015275D01*
X062508Y015335D02*
X062508Y015515D01*
X062508Y015335D02*
X062568Y015275D01*
X062688Y015275D01*
X062748Y015335D01*
X062748Y015515D01*
X063108Y015515D02*
X063108Y015275D01*
X063468Y015275D01*
X063468Y015515D01*
X063288Y015395D02*
X063288Y015275D01*
X063228Y015146D02*
X063168Y015146D01*
X063108Y015086D01*
X063108Y014966D01*
X063168Y014906D01*
X063288Y014966D02*
X063288Y015086D01*
X063228Y015146D01*
X063408Y015146D02*
X063468Y015086D01*
X063468Y014966D01*
X063408Y014906D01*
X063348Y014906D01*
X063288Y014966D01*
X063108Y014778D02*
X063468Y014778D01*
X063708Y014778D02*
X063708Y014538D01*
X064068Y014538D01*
X064068Y014778D01*
X064008Y014906D02*
X063768Y014906D01*
X063708Y014966D01*
X063708Y015086D01*
X063768Y015146D01*
X064008Y015146D02*
X064068Y015086D01*
X064068Y014966D01*
X064008Y014906D01*
X063888Y014658D02*
X063888Y014538D01*
X063888Y014410D02*
X063828Y014350D01*
X063828Y014170D01*
X063828Y014290D02*
X063708Y014410D01*
X063888Y014410D02*
X064008Y014410D01*
X064068Y014350D01*
X064068Y014170D01*
X063708Y014170D01*
X063708Y014044D02*
X063708Y013924D01*
X063708Y013984D02*
X064068Y013984D01*
X064068Y013924D02*
X064068Y014044D01*
X064008Y013796D02*
X064068Y013736D01*
X064068Y013556D01*
X063708Y013556D01*
X063708Y013736D01*
X063768Y013796D01*
X064008Y013796D01*
X063648Y013428D02*
X063648Y013187D01*
X063708Y013059D02*
X063828Y012939D01*
X063828Y012999D02*
X063828Y012819D01*
X063708Y012819D02*
X064068Y012819D01*
X064068Y012999D01*
X064008Y013059D01*
X063888Y013059D01*
X063828Y012999D01*
X063708Y012691D02*
X064068Y012691D01*
X064068Y012451D02*
X063708Y012451D01*
X063828Y012571D01*
X063708Y012691D01*
X063468Y012568D02*
X063468Y012328D01*
X063108Y012328D01*
X063288Y012328D02*
X063288Y012448D01*
X063288Y012696D02*
X063288Y012937D01*
X063348Y012937D02*
X063108Y012937D01*
X063108Y013065D02*
X063468Y013065D01*
X063108Y013305D01*
X063468Y013305D01*
X063348Y012937D02*
X063468Y012816D01*
X063348Y012696D01*
X063108Y012696D01*
X063828Y012263D02*
X063828Y012082D01*
X063708Y012082D02*
X064068Y012082D01*
X064068Y012263D01*
X064008Y012323D01*
X063888Y012323D01*
X063828Y012263D01*
X063048Y013433D02*
X063048Y013673D01*
X063168Y013801D02*
X063108Y013861D01*
X063108Y013981D01*
X063168Y014041D01*
X063228Y014041D01*
X063288Y013981D01*
X063288Y013861D01*
X063348Y013801D01*
X063408Y013801D01*
X063468Y013861D01*
X063468Y013981D01*
X063408Y014041D01*
X063468Y014170D02*
X063108Y014170D01*
X063108Y014410D01*
X063108Y014538D02*
X063468Y014538D01*
X063108Y014778D01*
X062748Y014778D02*
X062448Y014778D01*
X062388Y014718D01*
X062388Y014658D01*
X062508Y014598D02*
X062508Y014778D01*
X062508Y014906D02*
X062748Y014906D01*
X062748Y015086D01*
X062688Y015146D01*
X062508Y015146D01*
X062508Y014598D02*
X062568Y014538D01*
X062748Y014538D01*
X062808Y014410D02*
X062868Y014350D01*
X062868Y014230D01*
X062808Y014170D01*
X062748Y014170D01*
X062688Y014230D01*
X062688Y014350D01*
X062628Y014410D01*
X062568Y014410D01*
X062508Y014350D01*
X062508Y014230D01*
X062568Y014170D01*
X063288Y014170D02*
X063288Y014290D01*
X063468Y014410D02*
X063468Y014170D01*
X064308Y014598D02*
X064308Y014718D01*
X064368Y014778D01*
X064488Y014778D01*
X064488Y014658D01*
X064608Y014778D02*
X064668Y014718D01*
X064668Y014598D01*
X064608Y014538D01*
X064368Y014538D01*
X064308Y014598D01*
X064308Y014906D02*
X064548Y014906D01*
X064548Y015086D01*
X064488Y015146D01*
X064308Y015146D01*
X064368Y015275D02*
X064488Y015275D01*
X064548Y015335D01*
X064548Y015515D01*
X064668Y015515D02*
X064308Y015515D01*
X064308Y015335D01*
X064368Y015275D01*
X064068Y015275D02*
X064068Y015515D01*
X064068Y015395D02*
X063708Y015395D01*
X065183Y015679D02*
X065543Y015679D01*
X065543Y015860D01*
X065483Y015920D01*
X065363Y015920D01*
X065303Y015860D01*
X065303Y015679D01*
X065363Y016048D02*
X065243Y016048D01*
X065183Y016108D01*
X065183Y016228D01*
X065243Y016288D01*
X065363Y016288D01*
X065423Y016228D01*
X065423Y016108D01*
X065363Y016048D01*
X065423Y016416D02*
X065243Y016416D01*
X065183Y016476D01*
X065243Y016536D01*
X065183Y016596D01*
X065243Y016656D01*
X065423Y016656D01*
X065363Y016784D02*
X065423Y016844D01*
X065423Y016965D01*
X065363Y017025D01*
X065303Y017025D01*
X065303Y016784D01*
X065243Y016784D02*
X065363Y016784D01*
X065243Y016784D02*
X065183Y016844D01*
X065183Y016965D01*
X065183Y017153D02*
X065423Y017153D01*
X065423Y017273D02*
X065423Y017333D01*
X065423Y017273D02*
X065303Y017153D01*
X065183Y017828D02*
X065543Y018068D01*
X065483Y018196D02*
X065543Y018256D01*
X065543Y018376D01*
X065483Y018436D01*
X065423Y018436D01*
X065183Y018196D01*
X065183Y018436D01*
X065183Y018068D02*
X065543Y017828D01*
X064768Y017939D02*
X064708Y017879D01*
X064768Y017939D02*
X064768Y018060D01*
X064708Y018120D01*
X064648Y018120D01*
X064408Y017879D01*
X064408Y018120D01*
X064168Y018060D02*
X063988Y017879D01*
X063988Y018120D01*
X063808Y018060D02*
X064168Y018060D01*
X064168Y018616D02*
X063808Y018616D01*
X063928Y018616D02*
X063928Y018796D01*
X063988Y018856D01*
X064108Y018856D01*
X064168Y018796D01*
X064168Y018616D01*
X064408Y018676D02*
X064408Y018796D01*
X064468Y018856D01*
X064588Y018856D01*
X064588Y018736D01*
X064708Y018616D02*
X064468Y018616D01*
X064408Y018676D01*
X064708Y018616D02*
X064768Y018676D01*
X064768Y018796D01*
X064708Y018856D01*
X064648Y018984D02*
X064648Y019165D01*
X064588Y019225D01*
X064408Y019225D01*
X064468Y019353D02*
X064588Y019353D01*
X064648Y019413D01*
X064648Y019593D01*
X064768Y019593D02*
X064408Y019593D01*
X064408Y019413D01*
X064468Y019353D01*
X064168Y019353D02*
X064168Y019533D01*
X064108Y019593D01*
X063988Y019593D01*
X063928Y019533D01*
X063928Y019353D01*
X063928Y019473D02*
X063808Y019593D01*
X063748Y019721D02*
X063748Y019961D01*
X063868Y020089D02*
X063808Y020149D01*
X063808Y020269D01*
X063868Y020330D01*
X063928Y020330D01*
X063988Y020269D01*
X063988Y020149D01*
X064048Y020089D01*
X064108Y020089D01*
X064168Y020149D01*
X064168Y020269D01*
X064108Y020330D01*
X064108Y020458D02*
X064048Y020458D01*
X063988Y020518D01*
X063988Y020638D01*
X063928Y020698D01*
X063868Y020698D01*
X063808Y020638D01*
X063808Y020518D01*
X063868Y020458D01*
X064108Y020458D02*
X064168Y020518D01*
X064168Y020638D01*
X064108Y020698D01*
X064168Y020826D02*
X064168Y021066D01*
X064168Y020946D02*
X063808Y020946D01*
X063808Y021194D02*
X064048Y021194D01*
X064168Y021314D01*
X064048Y021434D01*
X063808Y021434D01*
X063808Y021563D02*
X064168Y021563D01*
X064168Y021743D01*
X064108Y021803D01*
X063988Y021803D01*
X063928Y021743D01*
X063928Y021563D01*
X063928Y021683D02*
X063808Y021803D01*
X063808Y022051D02*
X064168Y022051D01*
X064168Y021931D02*
X064168Y022171D01*
X063988Y021434D02*
X063988Y021194D01*
X063568Y021066D02*
X063208Y021066D01*
X063208Y020826D02*
X063568Y020826D01*
X063448Y020946D01*
X063568Y021066D01*
X063568Y020698D02*
X063208Y020698D01*
X063328Y020578D01*
X063208Y020458D01*
X063568Y020458D01*
X063508Y020330D02*
X063388Y020330D01*
X063328Y020269D01*
X063328Y020089D01*
X063208Y020089D02*
X063568Y020089D01*
X063568Y020269D01*
X063508Y020330D01*
X063148Y019961D02*
X063148Y019721D01*
X063208Y019593D02*
X063568Y019593D01*
X063568Y019353D02*
X063208Y019593D01*
X062968Y019593D02*
X062728Y019593D01*
X062608Y019473D01*
X062728Y019353D01*
X062968Y019353D01*
X062968Y019225D02*
X062968Y018984D01*
X062788Y018984D01*
X062848Y019104D01*
X062848Y019165D01*
X062788Y019225D01*
X062668Y019225D01*
X062608Y019165D01*
X062608Y019044D01*
X062668Y018984D01*
X062788Y018856D02*
X062788Y018616D01*
X062908Y018736D02*
X062668Y018736D01*
X062368Y018428D02*
X062308Y018488D01*
X062068Y018248D01*
X062008Y018308D01*
X062008Y018428D01*
X062068Y018488D01*
X062308Y018488D01*
X062368Y018428D02*
X062368Y018308D01*
X062308Y018248D01*
X062068Y018248D01*
X062008Y018120D02*
X062008Y017879D01*
X062008Y018000D02*
X062368Y018000D01*
X062248Y017879D01*
X062608Y017939D02*
X062668Y017879D01*
X062728Y017879D01*
X062788Y017939D01*
X062788Y018060D01*
X062728Y018120D01*
X062668Y018120D01*
X062608Y018060D01*
X062608Y017939D01*
X062788Y017939D02*
X062848Y017879D01*
X062908Y017879D01*
X062968Y017939D01*
X062968Y018060D01*
X062908Y018120D01*
X062848Y018120D01*
X062788Y018060D01*
X063208Y018060D02*
X063268Y018120D01*
X063328Y018120D01*
X063388Y018060D01*
X063388Y017879D01*
X063268Y017879D01*
X063208Y017939D01*
X063208Y018060D01*
X063388Y017879D02*
X063508Y018000D01*
X063568Y018120D01*
X063568Y018616D02*
X063568Y018856D01*
X063448Y018984D02*
X063568Y019104D01*
X063448Y019225D01*
X063208Y019225D01*
X063208Y019353D02*
X063568Y019353D01*
X063388Y019225D02*
X063388Y018984D01*
X063448Y018984D02*
X063208Y018984D01*
X063388Y018736D02*
X063388Y018616D01*
X063208Y018616D02*
X063568Y018616D01*
X063808Y018984D02*
X063928Y019104D01*
X063808Y019225D01*
X064168Y019225D01*
X064168Y019353D02*
X063808Y019353D01*
X063808Y018984D02*
X064168Y018984D01*
X064408Y018984D02*
X064648Y018984D01*
X062368Y019353D02*
X062368Y019593D01*
X062368Y019721D02*
X062128Y019721D01*
X062008Y019841D01*
X062128Y019961D01*
X062368Y019961D01*
X062188Y019593D02*
X062068Y019593D01*
X062008Y019533D01*
X062008Y019413D01*
X062068Y019353D01*
X062188Y019353D02*
X062248Y019473D01*
X062248Y019533D01*
X062188Y019593D01*
X062188Y019353D02*
X062368Y019353D01*
X062188Y019225D02*
X062188Y018984D01*
X062308Y019104D02*
X062068Y019104D01*
X062088Y016251D02*
X062088Y016071D01*
X062148Y016011D01*
X062208Y016011D01*
X062268Y016071D01*
X062268Y016191D01*
X062208Y016251D01*
X061968Y016251D01*
X061908Y016191D01*
X061908Y016071D01*
X061968Y016011D01*
X062508Y016011D02*
X062568Y016011D01*
X062808Y016251D01*
X062868Y016251D01*
X062868Y016011D01*
X063108Y016071D02*
X063168Y016011D01*
X063108Y016071D02*
X063108Y016191D01*
X063168Y016251D01*
X063288Y016251D01*
X063348Y016191D01*
X063348Y016131D01*
X063288Y016011D01*
X063468Y016011D01*
X063468Y016251D01*
X063708Y016191D02*
X063708Y016071D01*
X063768Y016011D01*
X063888Y016131D02*
X063888Y016191D01*
X063828Y016251D01*
X063768Y016251D01*
X063708Y016191D01*
X063888Y016191D02*
X063948Y016251D01*
X064008Y016251D01*
X064068Y016191D01*
X064068Y016071D01*
X064008Y016011D01*
X064308Y016011D02*
X064308Y016251D01*
X064308Y016131D02*
X064668Y016131D01*
X064548Y016011D01*
X065243Y023079D02*
X065183Y023139D01*
X065183Y023260D01*
X065243Y023320D01*
X065543Y023320D01*
X065483Y023448D02*
X065423Y023448D01*
X065363Y023508D01*
X065363Y023628D01*
X065303Y023688D01*
X065243Y023688D01*
X065183Y023628D01*
X065183Y023508D01*
X065243Y023448D01*
X065483Y023448D02*
X065543Y023508D01*
X065543Y023628D01*
X065483Y023688D01*
X065543Y023816D02*
X065183Y023816D01*
X065183Y023996D01*
X065243Y024056D01*
X065303Y024056D01*
X065363Y023996D01*
X065363Y023816D01*
X065543Y023816D02*
X065543Y023996D01*
X065483Y024056D01*
X065423Y024056D01*
X065363Y023996D01*
X065423Y024553D02*
X065543Y024673D01*
X065423Y024553D02*
X065303Y024553D01*
X065183Y024673D01*
X065183Y024798D02*
X065423Y024798D01*
X065423Y024978D01*
X065363Y025038D01*
X065183Y025038D01*
X065243Y025167D02*
X065183Y025227D01*
X065183Y025347D01*
X065243Y025407D01*
X065363Y025407D01*
X065423Y025347D01*
X065423Y025227D01*
X065363Y025167D01*
X065243Y025167D01*
X065183Y025535D02*
X065423Y025535D01*
X065423Y025715D01*
X065363Y025775D01*
X065183Y025775D01*
X065363Y025903D02*
X065363Y026143D01*
X065423Y026272D02*
X065423Y026332D01*
X065183Y026332D01*
X065183Y026272D02*
X065183Y026392D01*
X065183Y026517D02*
X065183Y026697D01*
X065243Y026757D01*
X065303Y026697D01*
X065303Y026577D01*
X065363Y026517D01*
X065423Y026577D01*
X065423Y026757D01*
X065363Y026885D02*
X065243Y026885D01*
X065183Y026945D01*
X065183Y027066D01*
X065243Y027126D01*
X065363Y027126D01*
X065423Y027066D01*
X065423Y026945D01*
X065363Y026885D01*
X065543Y027254D02*
X065543Y027314D01*
X065183Y027314D01*
X065183Y027254D02*
X065183Y027374D01*
X065243Y027499D02*
X065183Y027559D01*
X065183Y027739D01*
X065363Y027739D01*
X065423Y027679D01*
X065423Y027559D01*
X065303Y027559D02*
X065303Y027739D01*
X065423Y027868D02*
X065423Y027988D01*
X065483Y027928D02*
X065243Y027928D01*
X065183Y027988D01*
X065243Y028113D02*
X065183Y028173D01*
X065183Y028293D01*
X065303Y028353D02*
X065303Y028113D01*
X065363Y028113D02*
X065423Y028173D01*
X065423Y028293D01*
X065363Y028353D01*
X065303Y028353D01*
X065363Y028481D02*
X065423Y028541D01*
X065423Y028722D01*
X065543Y028722D02*
X065183Y028722D01*
X065183Y028541D01*
X065243Y028481D01*
X065363Y028481D01*
X065363Y028113D02*
X065243Y028113D01*
X065303Y027559D02*
X065243Y027499D01*
X064668Y027131D02*
X064308Y027131D01*
X064308Y027011D02*
X064308Y027251D01*
X064068Y027191D02*
X064068Y027071D01*
X064008Y027011D01*
X064068Y027191D02*
X064008Y027251D01*
X063948Y027251D01*
X063708Y027011D01*
X063708Y027251D01*
X063468Y027191D02*
X063408Y027251D01*
X063348Y027251D01*
X063288Y027191D01*
X063228Y027251D01*
X063168Y027251D01*
X063108Y027191D01*
X063108Y027071D01*
X063168Y027011D01*
X063288Y027131D02*
X063288Y027191D01*
X063468Y027191D02*
X063468Y027071D01*
X063408Y027011D01*
X063288Y026515D02*
X063288Y026275D01*
X063288Y026146D02*
X063108Y026146D01*
X063108Y025966D01*
X063168Y025906D01*
X063228Y025966D01*
X063228Y026146D01*
X063288Y026146D02*
X063348Y026086D01*
X063348Y025966D01*
X063348Y025781D02*
X063348Y025661D01*
X063408Y025721D02*
X063168Y025721D01*
X063108Y025781D01*
X062868Y025718D02*
X062868Y025598D01*
X062808Y025538D01*
X062568Y025538D01*
X062508Y025598D01*
X062508Y025718D01*
X062568Y025778D01*
X062688Y025778D01*
X062688Y025658D01*
X062808Y025778D02*
X062868Y025718D01*
X062748Y025906D02*
X062748Y026086D01*
X062688Y026146D01*
X062508Y026146D01*
X062568Y026275D02*
X062688Y026275D01*
X062748Y026335D01*
X062748Y026515D01*
X062868Y026515D02*
X062508Y026515D01*
X062508Y026335D01*
X062568Y026275D01*
X062268Y026089D02*
X061908Y026089D01*
X061908Y026029D02*
X061908Y026149D01*
X061968Y026275D02*
X062088Y026275D01*
X062148Y026335D01*
X062148Y026515D01*
X062268Y026515D02*
X061908Y026515D01*
X061908Y026335D01*
X061968Y026275D01*
X062268Y026089D02*
X062268Y026029D01*
X062088Y025901D02*
X062028Y025901D01*
X062028Y025661D01*
X062088Y025661D02*
X062148Y025721D01*
X062148Y025841D01*
X062088Y025901D01*
X061908Y025841D02*
X061908Y025721D01*
X061968Y025661D01*
X062088Y025661D01*
X062148Y025475D02*
X061908Y025475D01*
X061908Y025415D02*
X061908Y025535D01*
X062148Y025475D02*
X062148Y025415D01*
X062268Y025475D02*
X062328Y025475D01*
X062088Y025287D02*
X061908Y025287D01*
X062088Y025287D02*
X062148Y025227D01*
X062148Y025107D01*
X062088Y025047D01*
X062028Y024919D02*
X061968Y024919D01*
X061908Y024859D01*
X061908Y024739D01*
X061968Y024678D01*
X062088Y024739D02*
X062088Y024859D01*
X062028Y024919D01*
X061908Y025047D02*
X062268Y025047D01*
X062208Y024919D02*
X062268Y024859D01*
X062268Y024739D01*
X062208Y024678D01*
X062148Y024678D01*
X062088Y024739D01*
X063108Y024924D02*
X063108Y025104D01*
X063168Y025164D01*
X063408Y025164D01*
X063468Y025104D01*
X063468Y024924D01*
X063108Y024924D01*
X063168Y025292D02*
X063228Y025352D01*
X063228Y025533D01*
X063288Y025533D02*
X063108Y025533D01*
X063108Y025352D01*
X063168Y025292D01*
X063348Y025352D02*
X063348Y025472D01*
X063288Y025533D01*
X063708Y025533D02*
X063708Y025352D01*
X063768Y025292D01*
X063828Y025352D01*
X063828Y025533D01*
X063888Y025533D02*
X063708Y025533D01*
X063888Y025533D02*
X063948Y025472D01*
X063948Y025352D01*
X064008Y025164D02*
X064068Y025104D01*
X064068Y024924D01*
X063708Y024924D01*
X063708Y025104D01*
X063768Y025164D01*
X064008Y025164D01*
X064368Y025290D02*
X064608Y025290D01*
X064488Y025170D02*
X064488Y025410D01*
X064428Y025538D02*
X064308Y025658D01*
X064428Y025778D01*
X064668Y025778D01*
X064488Y025906D02*
X064368Y025906D01*
X064308Y025966D01*
X064308Y026146D01*
X064368Y026275D02*
X064308Y026335D01*
X064308Y026515D01*
X064548Y026515D02*
X064548Y026335D01*
X064488Y026275D01*
X064368Y026275D01*
X064548Y026146D02*
X064548Y025966D01*
X064488Y025906D01*
X064428Y025538D02*
X064668Y025538D01*
X064008Y025721D02*
X063768Y025721D01*
X063708Y025781D01*
X063768Y025906D02*
X063828Y025966D01*
X063828Y026146D01*
X063888Y026146D02*
X063708Y026146D01*
X063708Y025966D01*
X063768Y025906D01*
X063948Y025966D02*
X063948Y026086D01*
X063888Y026146D01*
X063888Y026275D02*
X063888Y026515D01*
X063408Y026395D02*
X063168Y026395D01*
X062748Y025906D02*
X062508Y025906D01*
X063948Y025781D02*
X063948Y025661D01*
X065543Y026332D02*
X065603Y026332D01*
X064668Y027131D02*
X064548Y027011D01*
X062868Y027191D02*
X062688Y027011D01*
X062688Y027251D01*
X062508Y027191D02*
X062868Y027191D01*
X062268Y027251D02*
X062268Y027011D01*
X062088Y027011D01*
X062148Y027131D01*
X062148Y027191D01*
X062088Y027251D01*
X061968Y027251D01*
X061908Y027191D01*
X061908Y027071D01*
X061968Y027011D01*
X060923Y027052D02*
X060863Y027112D01*
X060803Y027112D01*
X060803Y026872D01*
X060863Y026872D02*
X060923Y026932D01*
X060923Y027052D01*
X060923Y027240D02*
X060683Y027240D01*
X060803Y027240D02*
X060923Y027360D01*
X060923Y027420D01*
X060923Y027547D02*
X060923Y027727D01*
X060863Y027787D01*
X060683Y027787D01*
X060743Y027915D02*
X060863Y027915D01*
X060923Y027975D01*
X060923Y028095D01*
X060863Y028155D01*
X060803Y028155D01*
X060803Y027915D01*
X060743Y027915D02*
X060683Y027975D01*
X060683Y028095D01*
X060743Y028343D02*
X060683Y028403D01*
X060743Y028343D02*
X060983Y028343D01*
X060923Y028283D02*
X060923Y028403D01*
X061043Y028897D02*
X060683Y029137D01*
X060743Y029266D02*
X060683Y029326D01*
X060683Y029446D01*
X060743Y029506D01*
X060863Y029506D01*
X060923Y029446D01*
X060923Y029386D01*
X060863Y029266D01*
X061043Y029266D01*
X061043Y029506D01*
X061043Y029137D02*
X060683Y028897D01*
X065183Y028850D02*
X065303Y028970D01*
X065423Y028970D01*
X065543Y028850D01*
X065543Y029464D02*
X065183Y029704D01*
X065243Y029832D02*
X065183Y029892D01*
X065183Y030012D01*
X065243Y030072D01*
X065303Y030072D01*
X065363Y030012D01*
X065363Y029832D01*
X065243Y029832D01*
X065363Y029832D02*
X065483Y029952D01*
X065543Y030072D01*
X065543Y029704D02*
X065183Y029464D01*
X060923Y027547D02*
X060683Y027547D01*
X060683Y027052D02*
X060683Y026932D01*
X060743Y026872D01*
X060863Y026872D01*
X060863Y026743D02*
X060683Y026743D01*
X060863Y026743D02*
X060923Y026683D01*
X060923Y026563D01*
X060863Y026503D01*
X060923Y026378D02*
X060923Y026258D01*
X060983Y026318D02*
X060743Y026318D01*
X060683Y026378D01*
X060683Y026503D02*
X061043Y026503D01*
X061043Y026130D02*
X061043Y025889D01*
X060683Y025889D01*
X060683Y026130D01*
X060863Y026009D02*
X060863Y025889D01*
X060863Y025393D02*
X060743Y025393D01*
X060683Y025333D01*
X060683Y025213D01*
X060743Y025153D01*
X060863Y025153D02*
X060923Y025273D01*
X060923Y025333D01*
X060863Y025393D01*
X061043Y025393D02*
X061043Y025153D01*
X060863Y025153D01*
X060863Y025025D02*
X060863Y024784D01*
X061043Y024965D01*
X060683Y024965D01*
X060863Y024656D02*
X060863Y024416D01*
X061043Y024288D02*
X061043Y024168D01*
X061043Y024228D02*
X060743Y024228D01*
X060683Y024168D01*
X060683Y024108D01*
X060743Y024048D01*
X060683Y023920D02*
X060803Y023800D01*
X060803Y023860D02*
X060803Y023679D01*
X060683Y023679D02*
X061043Y023679D01*
X061043Y023860D01*
X060983Y023920D01*
X060863Y023920D01*
X060803Y023860D01*
X060168Y023880D02*
X059808Y023880D01*
X059808Y024121D01*
X059808Y024249D02*
X059808Y024489D01*
X059808Y024617D02*
X059808Y024797D01*
X059868Y024857D01*
X060108Y024857D01*
X060168Y024797D01*
X060168Y024617D01*
X059808Y024617D01*
X059568Y024799D02*
X059448Y024919D01*
X059208Y024919D01*
X059268Y025047D02*
X059208Y025107D01*
X059208Y025287D01*
X059268Y025475D02*
X059208Y025535D01*
X059268Y025475D02*
X059508Y025475D01*
X059448Y025415D02*
X059448Y025535D01*
X059448Y025661D02*
X059448Y025721D01*
X059208Y025721D01*
X059208Y025661D02*
X059208Y025781D01*
X059208Y026026D02*
X059448Y026146D01*
X059388Y026275D02*
X059448Y026335D01*
X059448Y026455D01*
X059388Y026515D01*
X059328Y026515D01*
X059328Y026275D01*
X059268Y026275D02*
X059388Y026275D01*
X059268Y026275D02*
X059208Y026335D01*
X059208Y026455D01*
X058968Y026515D02*
X058608Y026515D01*
X058608Y026335D01*
X058668Y026275D01*
X058788Y026275D01*
X058848Y026335D01*
X058848Y026515D01*
X058608Y026149D02*
X058608Y026029D01*
X058608Y026089D02*
X058968Y026089D01*
X058968Y026029D01*
X058788Y025901D02*
X058728Y025901D01*
X058728Y025661D01*
X058788Y025661D02*
X058848Y025721D01*
X058848Y025841D01*
X058788Y025901D01*
X058608Y025841D02*
X058608Y025721D01*
X058668Y025661D01*
X058788Y025661D01*
X058848Y025475D02*
X058608Y025475D01*
X058608Y025415D02*
X058608Y025535D01*
X058368Y025538D02*
X058368Y025718D01*
X058308Y025778D01*
X058188Y025778D01*
X058128Y025718D01*
X058128Y025538D01*
X058128Y025658D02*
X058008Y025778D01*
X058008Y025906D02*
X058368Y026146D01*
X058188Y026275D02*
X058188Y026515D01*
X058308Y026395D02*
X058068Y026395D01*
X058008Y026146D02*
X058368Y025906D01*
X058368Y025538D02*
X058008Y025538D01*
X057768Y025538D02*
X057768Y025718D01*
X057708Y025778D01*
X057588Y025778D01*
X057528Y025718D01*
X057528Y025538D01*
X057528Y025658D02*
X057408Y025778D01*
X057408Y025906D02*
X057768Y026146D01*
X057588Y026275D02*
X057588Y026515D01*
X057408Y026146D02*
X057768Y025906D01*
X057768Y025538D02*
X057408Y025538D01*
X057168Y025538D02*
X057168Y025778D01*
X057168Y025658D02*
X056808Y025658D01*
X056568Y025658D02*
X056208Y025658D01*
X056208Y025906D02*
X056568Y026146D01*
X056388Y026275D02*
X056388Y026515D01*
X056208Y026146D02*
X056568Y025906D01*
X056568Y025778D02*
X056568Y025538D01*
X056808Y025906D02*
X057168Y026146D01*
X056988Y026275D02*
X056988Y026515D01*
X057108Y026395D02*
X056868Y026395D01*
X056808Y026146D02*
X057168Y025906D01*
X055968Y025966D02*
X055968Y026086D01*
X055908Y026146D01*
X055848Y026146D01*
X055788Y026086D01*
X055728Y026146D01*
X055668Y026146D01*
X055608Y026086D01*
X055608Y025966D01*
X055668Y025906D01*
X055668Y025782D02*
X055608Y025782D01*
X055608Y025722D01*
X055668Y025722D01*
X055668Y025782D01*
X055668Y025594D02*
X055608Y025534D01*
X055608Y025414D01*
X055668Y025354D01*
X055788Y025474D02*
X055788Y025534D01*
X055728Y025594D01*
X055668Y025594D01*
X055788Y025534D02*
X055848Y025594D01*
X055908Y025594D01*
X055968Y025534D01*
X055968Y025414D01*
X055908Y025354D01*
X055788Y025226D02*
X055788Y024985D01*
X055908Y025106D02*
X055668Y025106D01*
X055908Y025906D02*
X055968Y025966D01*
X055788Y026026D02*
X055788Y026086D01*
X055728Y026275D02*
X055608Y026395D01*
X055728Y026515D01*
X055968Y026515D01*
X055968Y026275D02*
X055728Y026275D01*
X055728Y027011D02*
X055788Y027071D01*
X055788Y027191D01*
X055728Y027251D01*
X055668Y027251D01*
X055608Y027191D01*
X055608Y027071D01*
X055668Y027011D01*
X055728Y027011D01*
X055788Y027071D02*
X055848Y027011D01*
X055908Y027011D01*
X055968Y027071D01*
X055968Y027191D01*
X055908Y027251D01*
X055848Y027251D01*
X055788Y027191D01*
X056208Y027011D02*
X056268Y027011D01*
X056508Y027251D01*
X056568Y027251D01*
X056568Y027011D01*
X056808Y027071D02*
X056808Y027191D01*
X056868Y027251D01*
X056928Y027251D01*
X056988Y027191D01*
X056988Y027011D01*
X056868Y027011D01*
X056808Y027071D01*
X056988Y027011D02*
X057108Y027131D01*
X057168Y027251D01*
X057408Y027191D02*
X057408Y027071D01*
X057468Y027011D01*
X057588Y027011D02*
X057648Y027131D01*
X057648Y027191D01*
X057588Y027251D01*
X057468Y027251D01*
X057408Y027191D01*
X057588Y027011D02*
X057768Y027011D01*
X057768Y027251D01*
X058008Y027191D02*
X058368Y027191D01*
X058188Y027011D01*
X058188Y027251D01*
X058608Y027191D02*
X058608Y027071D01*
X058668Y027011D01*
X058788Y027131D02*
X058788Y027191D01*
X058728Y027251D01*
X058668Y027251D01*
X058608Y027191D01*
X058788Y027191D02*
X058848Y027251D01*
X058908Y027251D01*
X058968Y027191D01*
X058968Y027071D01*
X058908Y027011D01*
X059208Y027011D02*
X059448Y027251D01*
X059508Y027251D01*
X059568Y027191D01*
X059568Y027071D01*
X059508Y027011D01*
X059808Y027011D02*
X059808Y027251D01*
X059808Y027131D02*
X060168Y027131D01*
X060048Y027011D01*
X060048Y026516D02*
X059928Y026336D01*
X059808Y026516D01*
X059808Y026336D02*
X060168Y026336D01*
X059988Y026208D02*
X059808Y026208D01*
X059988Y026208D02*
X060048Y026148D01*
X060048Y025968D01*
X059808Y025968D01*
X059808Y025842D02*
X059808Y025722D01*
X059808Y025782D02*
X060048Y025782D01*
X060048Y025722D01*
X060168Y025782D02*
X060228Y025782D01*
X060168Y025354D02*
X059808Y025354D01*
X059808Y025594D01*
X059628Y025721D02*
X059568Y025721D01*
X059448Y025906D02*
X059208Y026026D01*
X059028Y025475D02*
X058968Y025475D01*
X058848Y025475D02*
X058848Y025415D01*
X058788Y025287D02*
X058608Y025287D01*
X058788Y025287D02*
X058848Y025227D01*
X058848Y025107D01*
X058788Y025047D01*
X058728Y024919D02*
X058668Y024919D01*
X058608Y024859D01*
X058608Y024739D01*
X058668Y024678D01*
X058788Y024739D02*
X058788Y024859D01*
X058728Y024919D01*
X058608Y025047D02*
X058968Y025047D01*
X058908Y024919D02*
X058968Y024859D01*
X058968Y024739D01*
X058908Y024678D01*
X058848Y024678D01*
X058788Y024739D01*
X059208Y024678D02*
X059448Y024678D01*
X059568Y024799D01*
X059388Y024678D02*
X059388Y024919D01*
X059388Y025047D02*
X059268Y025047D01*
X059388Y025047D02*
X059448Y025107D01*
X059448Y025287D01*
X059988Y024369D02*
X059988Y024249D01*
X060168Y024249D02*
X059808Y024249D01*
X059568Y024122D02*
X059508Y024182D01*
X059268Y024182D01*
X059208Y024122D01*
X059208Y023942D01*
X059568Y023942D01*
X059568Y024122D01*
X059568Y023814D02*
X059568Y023574D01*
X059208Y023574D01*
X059208Y023814D01*
X059388Y023694D02*
X059388Y023574D01*
X059208Y023445D02*
X059208Y023205D01*
X059568Y023205D01*
X060168Y024249D02*
X060168Y024489D01*
X065243Y023079D02*
X065543Y023079D01*
X059208Y027011D02*
X059208Y027251D01*
X050336Y026811D02*
X050029Y026351D01*
X049875Y026427D02*
X049875Y026504D01*
X049799Y026581D01*
X049645Y026581D01*
X049568Y026504D01*
X049568Y026427D01*
X049645Y026351D01*
X049799Y026351D01*
X049875Y026427D01*
X049799Y026581D02*
X049875Y026657D01*
X049875Y026734D01*
X049799Y026811D01*
X049645Y026811D01*
X049568Y026734D01*
X049568Y026657D01*
X049645Y026581D01*
X050029Y026811D02*
X050336Y026351D01*
D11*
X055738Y027859D02*
X055740Y027872D01*
X055745Y027885D01*
X055754Y027896D01*
X055765Y027903D01*
X055778Y027908D01*
X055791Y027909D01*
X055805Y027906D01*
X055817Y027900D01*
X055827Y027891D01*
X055834Y027879D01*
X055838Y027866D01*
X055838Y027852D01*
X055834Y027839D01*
X055827Y027827D01*
X055817Y027818D01*
X055805Y027812D01*
X055791Y027809D01*
X055778Y027810D01*
X055765Y027815D01*
X055754Y027822D01*
X055745Y027833D01*
X055740Y027846D01*
X055738Y027859D01*
X056338Y027859D02*
X056340Y027872D01*
X056345Y027885D01*
X056354Y027896D01*
X056365Y027903D01*
X056378Y027908D01*
X056391Y027909D01*
X056405Y027906D01*
X056417Y027900D01*
X056427Y027891D01*
X056434Y027879D01*
X056438Y027866D01*
X056438Y027852D01*
X056434Y027839D01*
X056427Y027827D01*
X056417Y027818D01*
X056405Y027812D01*
X056391Y027809D01*
X056378Y027810D01*
X056365Y027815D01*
X056354Y027822D01*
X056345Y027833D01*
X056340Y027846D01*
X056338Y027859D01*
X056938Y027859D02*
X056940Y027872D01*
X056945Y027885D01*
X056954Y027896D01*
X056965Y027903D01*
X056978Y027908D01*
X056991Y027909D01*
X057005Y027906D01*
X057017Y027900D01*
X057027Y027891D01*
X057034Y027879D01*
X057038Y027866D01*
X057038Y027852D01*
X057034Y027839D01*
X057027Y027827D01*
X057017Y027818D01*
X057005Y027812D01*
X056991Y027809D01*
X056978Y027810D01*
X056965Y027815D01*
X056954Y027822D01*
X056945Y027833D01*
X056940Y027846D01*
X056938Y027859D01*
X057538Y027859D02*
X057540Y027872D01*
X057545Y027885D01*
X057554Y027896D01*
X057565Y027903D01*
X057578Y027908D01*
X057591Y027909D01*
X057605Y027906D01*
X057617Y027900D01*
X057627Y027891D01*
X057634Y027879D01*
X057638Y027866D01*
X057638Y027852D01*
X057634Y027839D01*
X057627Y027827D01*
X057617Y027818D01*
X057605Y027812D01*
X057591Y027809D01*
X057578Y027810D01*
X057565Y027815D01*
X057554Y027822D01*
X057545Y027833D01*
X057540Y027846D01*
X057538Y027859D01*
X058138Y027859D02*
X058140Y027872D01*
X058145Y027885D01*
X058154Y027896D01*
X058165Y027903D01*
X058178Y027908D01*
X058191Y027909D01*
X058205Y027906D01*
X058217Y027900D01*
X058227Y027891D01*
X058234Y027879D01*
X058238Y027866D01*
X058238Y027852D01*
X058234Y027839D01*
X058227Y027827D01*
X058217Y027818D01*
X058205Y027812D01*
X058191Y027809D01*
X058178Y027810D01*
X058165Y027815D01*
X058154Y027822D01*
X058145Y027833D01*
X058140Y027846D01*
X058138Y027859D01*
X058738Y027859D02*
X058740Y027872D01*
X058745Y027885D01*
X058754Y027896D01*
X058765Y027903D01*
X058778Y027908D01*
X058791Y027909D01*
X058805Y027906D01*
X058817Y027900D01*
X058827Y027891D01*
X058834Y027879D01*
X058838Y027866D01*
X058838Y027852D01*
X058834Y027839D01*
X058827Y027827D01*
X058817Y027818D01*
X058805Y027812D01*
X058791Y027809D01*
X058778Y027810D01*
X058765Y027815D01*
X058754Y027822D01*
X058745Y027833D01*
X058740Y027846D01*
X058738Y027859D01*
X059338Y027859D02*
X059340Y027872D01*
X059345Y027885D01*
X059354Y027896D01*
X059365Y027903D01*
X059378Y027908D01*
X059391Y027909D01*
X059405Y027906D01*
X059417Y027900D01*
X059427Y027891D01*
X059434Y027879D01*
X059438Y027866D01*
X059438Y027852D01*
X059434Y027839D01*
X059427Y027827D01*
X059417Y027818D01*
X059405Y027812D01*
X059391Y027809D01*
X059378Y027810D01*
X059365Y027815D01*
X059354Y027822D01*
X059345Y027833D01*
X059340Y027846D01*
X059338Y027859D01*
X059938Y027859D02*
X059940Y027872D01*
X059945Y027885D01*
X059954Y027896D01*
X059965Y027903D01*
X059978Y027908D01*
X059991Y027909D01*
X060005Y027906D01*
X060017Y027900D01*
X060027Y027891D01*
X060034Y027879D01*
X060038Y027866D01*
X060038Y027852D01*
X060034Y027839D01*
X060027Y027827D01*
X060017Y027818D01*
X060005Y027812D01*
X059991Y027809D01*
X059978Y027810D01*
X059965Y027815D01*
X059954Y027822D01*
X059945Y027833D01*
X059940Y027846D01*
X059938Y027859D01*
X062038Y027859D02*
X062040Y027872D01*
X062045Y027885D01*
X062054Y027896D01*
X062065Y027903D01*
X062078Y027908D01*
X062091Y027909D01*
X062105Y027906D01*
X062117Y027900D01*
X062127Y027891D01*
X062134Y027879D01*
X062138Y027866D01*
X062138Y027852D01*
X062134Y027839D01*
X062127Y027827D01*
X062117Y027818D01*
X062105Y027812D01*
X062091Y027809D01*
X062078Y027810D01*
X062065Y027815D01*
X062054Y027822D01*
X062045Y027833D01*
X062040Y027846D01*
X062038Y027859D01*
X062638Y027859D02*
X062640Y027872D01*
X062645Y027885D01*
X062654Y027896D01*
X062665Y027903D01*
X062678Y027908D01*
X062691Y027909D01*
X062705Y027906D01*
X062717Y027900D01*
X062727Y027891D01*
X062734Y027879D01*
X062738Y027866D01*
X062738Y027852D01*
X062734Y027839D01*
X062727Y027827D01*
X062717Y027818D01*
X062705Y027812D01*
X062691Y027809D01*
X062678Y027810D01*
X062665Y027815D01*
X062654Y027822D01*
X062645Y027833D01*
X062640Y027846D01*
X062638Y027859D01*
X063238Y027859D02*
X063240Y027872D01*
X063245Y027885D01*
X063254Y027896D01*
X063265Y027903D01*
X063278Y027908D01*
X063291Y027909D01*
X063305Y027906D01*
X063317Y027900D01*
X063327Y027891D01*
X063334Y027879D01*
X063338Y027866D01*
X063338Y027852D01*
X063334Y027839D01*
X063327Y027827D01*
X063317Y027818D01*
X063305Y027812D01*
X063291Y027809D01*
X063278Y027810D01*
X063265Y027815D01*
X063254Y027822D01*
X063245Y027833D01*
X063240Y027846D01*
X063238Y027859D01*
X063838Y027859D02*
X063840Y027872D01*
X063845Y027885D01*
X063854Y027896D01*
X063865Y027903D01*
X063878Y027908D01*
X063891Y027909D01*
X063905Y027906D01*
X063917Y027900D01*
X063927Y027891D01*
X063934Y027879D01*
X063938Y027866D01*
X063938Y027852D01*
X063934Y027839D01*
X063927Y027827D01*
X063917Y027818D01*
X063905Y027812D01*
X063891Y027809D01*
X063878Y027810D01*
X063865Y027815D01*
X063854Y027822D01*
X063845Y027833D01*
X063840Y027846D01*
X063838Y027859D01*
X064438Y027859D02*
X064440Y027872D01*
X064445Y027885D01*
X064454Y027896D01*
X064465Y027903D01*
X064478Y027908D01*
X064491Y027909D01*
X064505Y027906D01*
X064517Y027900D01*
X064527Y027891D01*
X064534Y027879D01*
X064538Y027866D01*
X064538Y027852D01*
X064534Y027839D01*
X064527Y027827D01*
X064517Y027818D01*
X064505Y027812D01*
X064491Y027809D01*
X064478Y027810D01*
X064465Y027815D01*
X064454Y027822D01*
X064445Y027833D01*
X064440Y027846D01*
X064438Y027859D01*
X064438Y017359D02*
X064440Y017372D01*
X064445Y017385D01*
X064454Y017396D01*
X064465Y017403D01*
X064478Y017408D01*
X064491Y017409D01*
X064505Y017406D01*
X064517Y017400D01*
X064527Y017391D01*
X064534Y017379D01*
X064538Y017366D01*
X064538Y017352D01*
X064534Y017339D01*
X064527Y017327D01*
X064517Y017318D01*
X064505Y017312D01*
X064491Y017309D01*
X064478Y017310D01*
X064465Y017315D01*
X064454Y017322D01*
X064445Y017333D01*
X064440Y017346D01*
X064438Y017359D01*
X064438Y016859D02*
X064440Y016872D01*
X064445Y016885D01*
X064454Y016896D01*
X064465Y016903D01*
X064478Y016908D01*
X064491Y016909D01*
X064505Y016906D01*
X064517Y016900D01*
X064527Y016891D01*
X064534Y016879D01*
X064538Y016866D01*
X064538Y016852D01*
X064534Y016839D01*
X064527Y016827D01*
X064517Y016818D01*
X064505Y016812D01*
X064491Y016809D01*
X064478Y016810D01*
X064465Y016815D01*
X064454Y016822D01*
X064445Y016833D01*
X064440Y016846D01*
X064438Y016859D01*
X063838Y016859D02*
X063840Y016872D01*
X063845Y016885D01*
X063854Y016896D01*
X063865Y016903D01*
X063878Y016908D01*
X063891Y016909D01*
X063905Y016906D01*
X063917Y016900D01*
X063927Y016891D01*
X063934Y016879D01*
X063938Y016866D01*
X063938Y016852D01*
X063934Y016839D01*
X063927Y016827D01*
X063917Y016818D01*
X063905Y016812D01*
X063891Y016809D01*
X063878Y016810D01*
X063865Y016815D01*
X063854Y016822D01*
X063845Y016833D01*
X063840Y016846D01*
X063838Y016859D01*
X063838Y017359D02*
X063840Y017372D01*
X063845Y017385D01*
X063854Y017396D01*
X063865Y017403D01*
X063878Y017408D01*
X063891Y017409D01*
X063905Y017406D01*
X063917Y017400D01*
X063927Y017391D01*
X063934Y017379D01*
X063938Y017366D01*
X063938Y017352D01*
X063934Y017339D01*
X063927Y017327D01*
X063917Y017318D01*
X063905Y017312D01*
X063891Y017309D01*
X063878Y017310D01*
X063865Y017315D01*
X063854Y017322D01*
X063845Y017333D01*
X063840Y017346D01*
X063838Y017359D01*
X063238Y017359D02*
X063240Y017372D01*
X063245Y017385D01*
X063254Y017396D01*
X063265Y017403D01*
X063278Y017408D01*
X063291Y017409D01*
X063305Y017406D01*
X063317Y017400D01*
X063327Y017391D01*
X063334Y017379D01*
X063338Y017366D01*
X063338Y017352D01*
X063334Y017339D01*
X063327Y017327D01*
X063317Y017318D01*
X063305Y017312D01*
X063291Y017309D01*
X063278Y017310D01*
X063265Y017315D01*
X063254Y017322D01*
X063245Y017333D01*
X063240Y017346D01*
X063238Y017359D01*
X063238Y016859D02*
X063240Y016872D01*
X063245Y016885D01*
X063254Y016896D01*
X063265Y016903D01*
X063278Y016908D01*
X063291Y016909D01*
X063305Y016906D01*
X063317Y016900D01*
X063327Y016891D01*
X063334Y016879D01*
X063338Y016866D01*
X063338Y016852D01*
X063334Y016839D01*
X063327Y016827D01*
X063317Y016818D01*
X063305Y016812D01*
X063291Y016809D01*
X063278Y016810D01*
X063265Y016815D01*
X063254Y016822D01*
X063245Y016833D01*
X063240Y016846D01*
X063238Y016859D01*
X062638Y016859D02*
X062640Y016872D01*
X062645Y016885D01*
X062654Y016896D01*
X062665Y016903D01*
X062678Y016908D01*
X062691Y016909D01*
X062705Y016906D01*
X062717Y016900D01*
X062727Y016891D01*
X062734Y016879D01*
X062738Y016866D01*
X062738Y016852D01*
X062734Y016839D01*
X062727Y016827D01*
X062717Y016818D01*
X062705Y016812D01*
X062691Y016809D01*
X062678Y016810D01*
X062665Y016815D01*
X062654Y016822D01*
X062645Y016833D01*
X062640Y016846D01*
X062638Y016859D01*
X062638Y017359D02*
X062640Y017372D01*
X062645Y017385D01*
X062654Y017396D01*
X062665Y017403D01*
X062678Y017408D01*
X062691Y017409D01*
X062705Y017406D01*
X062717Y017400D01*
X062727Y017391D01*
X062734Y017379D01*
X062738Y017366D01*
X062738Y017352D01*
X062734Y017339D01*
X062727Y017327D01*
X062717Y017318D01*
X062705Y017312D01*
X062691Y017309D01*
X062678Y017310D01*
X062665Y017315D01*
X062654Y017322D01*
X062645Y017333D01*
X062640Y017346D01*
X062638Y017359D01*
X062038Y017359D02*
X062040Y017372D01*
X062045Y017385D01*
X062054Y017396D01*
X062065Y017403D01*
X062078Y017408D01*
X062091Y017409D01*
X062105Y017406D01*
X062117Y017400D01*
X062127Y017391D01*
X062134Y017379D01*
X062138Y017366D01*
X062138Y017352D01*
X062134Y017339D01*
X062127Y017327D01*
X062117Y017318D01*
X062105Y017312D01*
X062091Y017309D01*
X062078Y017310D01*
X062065Y017315D01*
X062054Y017322D01*
X062045Y017333D01*
X062040Y017346D01*
X062038Y017359D01*
X062038Y016859D02*
X062040Y016872D01*
X062045Y016885D01*
X062054Y016896D01*
X062065Y016903D01*
X062078Y016908D01*
X062091Y016909D01*
X062105Y016906D01*
X062117Y016900D01*
X062127Y016891D01*
X062134Y016879D01*
X062138Y016866D01*
X062138Y016852D01*
X062134Y016839D01*
X062127Y016827D01*
X062117Y016818D01*
X062105Y016812D01*
X062091Y016809D01*
X062078Y016810D01*
X062065Y016815D01*
X062054Y016822D01*
X062045Y016833D01*
X062040Y016846D01*
X062038Y016859D01*
D12*
X031739Y005215D02*
X031739Y004964D01*
X031739Y005215D02*
X031823Y005298D01*
X032073Y005298D01*
X032073Y004964D01*
X032255Y005131D02*
X032589Y005131D01*
X032589Y005048D02*
X032589Y005215D01*
X032505Y005298D01*
X032338Y005298D01*
X032255Y005215D01*
X032255Y005131D01*
X032338Y004964D02*
X032505Y004964D01*
X032589Y005048D01*
X032771Y005048D02*
X032854Y004964D01*
X033104Y004964D01*
X033104Y004798D02*
X033104Y005298D01*
X032854Y005298D01*
X032771Y005215D01*
X032771Y005048D01*
X033286Y005048D02*
X033286Y005215D01*
X033370Y005298D01*
X033536Y005298D01*
X033620Y005215D01*
X033620Y005048D01*
X033536Y004964D01*
X033370Y004964D01*
X033286Y005048D01*
X033802Y005215D02*
X034135Y005215D01*
X034317Y005298D02*
X034651Y004964D01*
X034317Y004964D01*
X034317Y005298D02*
X034651Y005298D01*
X034833Y005215D02*
X034833Y005131D01*
X035167Y005131D01*
X035167Y005048D02*
X035167Y005215D01*
X035083Y005298D01*
X034917Y005298D01*
X034833Y005215D01*
X034917Y004964D02*
X035083Y004964D01*
X035167Y005048D01*
X035349Y005131D02*
X035682Y005131D01*
X035682Y005048D02*
X035682Y005215D01*
X035599Y005298D01*
X035432Y005298D01*
X035349Y005215D01*
X035349Y005131D01*
X035432Y004964D02*
X035599Y004964D01*
X035682Y005048D01*
X035864Y005465D02*
X036198Y004964D01*
X036380Y004964D02*
X036380Y005215D01*
X036463Y005298D01*
X036547Y005215D01*
X036547Y004964D01*
X036714Y004964D02*
X036714Y005298D01*
X036630Y005298D01*
X036547Y005215D01*
X036896Y005215D02*
X036896Y005048D01*
X036979Y004964D01*
X037146Y004964D01*
X037229Y005048D01*
X037229Y005215D01*
X037146Y005298D01*
X036979Y005298D01*
X036896Y005215D01*
X037411Y005298D02*
X037662Y005298D01*
X037745Y005215D01*
X037745Y005048D01*
X037662Y004964D01*
X037411Y004964D01*
X037919Y004964D02*
X038003Y004964D01*
X038003Y005048D01*
X037919Y005048D01*
X037919Y004964D01*
X038185Y005048D02*
X038185Y005215D01*
X038268Y005298D01*
X038518Y005298D01*
X038518Y005465D02*
X038518Y004964D01*
X038268Y004964D01*
X038185Y005048D01*
X038700Y004964D02*
X038700Y005298D01*
X038700Y004964D02*
X038951Y004964D01*
X039034Y005048D01*
X039034Y005298D01*
X039216Y005215D02*
X039216Y004964D01*
X039216Y005215D02*
X039299Y005298D01*
X039466Y005298D01*
X039550Y005215D01*
X039727Y005298D02*
X039893Y005298D01*
X039810Y005381D02*
X039810Y005048D01*
X039727Y004964D01*
X039550Y004964D02*
X039550Y005465D01*
X040154Y005465D02*
X040154Y005548D01*
X040154Y005298D02*
X040154Y004964D01*
X040237Y004964D02*
X040070Y004964D01*
X040154Y005298D02*
X040237Y005298D01*
X040419Y005298D02*
X040669Y005298D01*
X040753Y005215D01*
X040753Y005048D01*
X040669Y004964D01*
X040419Y004964D01*
X040419Y004881D02*
X040419Y005298D01*
X040419Y004881D02*
X040503Y004798D01*
X040586Y004798D01*
X041443Y004964D02*
X041526Y004964D01*
X041526Y005048D01*
X041443Y005048D01*
X041443Y004964D01*
X041443Y005215D02*
X041526Y005215D01*
X041526Y005298D01*
X041443Y005298D01*
X041443Y005215D01*
X041708Y005215D02*
X041708Y005131D01*
X042042Y005131D01*
X042042Y005048D02*
X042042Y005215D01*
X041959Y005298D01*
X041792Y005298D01*
X041708Y005215D01*
X041792Y004964D02*
X041959Y004964D01*
X042042Y005048D01*
X042224Y004964D02*
X042474Y004964D01*
X042558Y005048D01*
X042558Y005215D01*
X042474Y005298D01*
X042224Y005298D01*
X042224Y005465D02*
X042224Y004964D01*
X042740Y005048D02*
X042740Y005215D01*
X042823Y005298D01*
X042990Y005298D01*
X043073Y005215D01*
X043073Y005048D01*
X042990Y004964D01*
X042823Y004964D01*
X042740Y005048D01*
X043255Y004964D02*
X043505Y004964D01*
X043589Y005048D01*
X043589Y005215D01*
X043505Y005298D01*
X043255Y005298D01*
X044286Y005215D02*
X044286Y005131D01*
X044620Y005131D01*
X044620Y005048D02*
X044620Y005215D01*
X044537Y005298D01*
X044370Y005298D01*
X044286Y005215D01*
X044370Y004964D02*
X044537Y004964D01*
X044620Y005048D01*
X044802Y004964D02*
X045052Y004964D01*
X045136Y005048D01*
X045136Y005215D01*
X045052Y005298D01*
X044802Y005298D01*
X045315Y005298D02*
X045399Y005298D01*
X045565Y005131D01*
X045565Y004964D02*
X045565Y005298D01*
X045747Y005298D02*
X045747Y004964D01*
X045998Y004964D01*
X046081Y005048D01*
X046081Y005298D01*
X046263Y005215D02*
X046347Y005298D01*
X046513Y005298D01*
X046597Y005215D01*
X046597Y005048D01*
X046513Y004964D01*
X046347Y004964D01*
X046263Y005048D01*
X046263Y005215D01*
X046779Y005298D02*
X047029Y005298D01*
X047112Y005215D01*
X047029Y005131D01*
X046862Y005131D01*
X046779Y005048D01*
X046862Y004964D01*
X047112Y004964D01*
X047805Y004964D02*
X047888Y005048D01*
X047888Y005381D01*
X047805Y005298D02*
X047972Y005298D01*
X048154Y005298D02*
X048404Y005298D01*
X048487Y005215D01*
X048487Y005048D01*
X048404Y004964D01*
X048154Y004964D01*
X048669Y005131D02*
X049003Y005131D01*
X049003Y005048D02*
X049003Y005215D01*
X048920Y005298D01*
X048753Y005298D01*
X048669Y005215D01*
X048669Y005131D01*
X048753Y004964D02*
X048920Y004964D01*
X049003Y005048D01*
X049180Y004881D02*
X049180Y005298D01*
X049180Y005465D02*
X049180Y005548D01*
X049529Y005215D02*
X049612Y005298D01*
X049779Y005298D01*
X049862Y005215D01*
X049862Y005048D01*
X049779Y004964D01*
X049612Y004964D01*
X049529Y005048D01*
X049529Y005215D01*
X049347Y004798D02*
X049263Y004798D01*
X049180Y004881D01*
X050042Y005298D02*
X050125Y005298D01*
X050292Y005131D01*
X050292Y004964D02*
X050292Y005298D01*
X050474Y005215D02*
X050558Y005131D01*
X050808Y005131D01*
X050808Y004964D02*
X050808Y005465D01*
X050558Y005465D01*
X050474Y005381D01*
X050474Y005215D01*
X061763Y016559D02*
X064788Y016559D01*
X064788Y017659D01*
X061763Y017659D01*
X061763Y016559D01*
X040452Y025588D02*
X040025Y026229D01*
X039807Y025909D02*
X039487Y026229D01*
X039487Y025588D01*
X039380Y025909D02*
X039807Y025909D01*
X040025Y025588D02*
X040452Y026229D01*
X055463Y027559D02*
X060288Y027559D01*
X060288Y028159D01*
X055463Y028159D01*
X055463Y027559D01*
X061763Y027559D02*
X064788Y027559D01*
X064788Y028159D01*
X061763Y028159D01*
X061763Y027559D01*
D13*
X052161Y027059D02*
X047496Y027059D01*
X047496Y031429D01*
X052161Y031429D01*
X052161Y027059D01*
X051554Y027499D02*
X048103Y027499D01*
X048143Y027658D02*
X051514Y027658D01*
X051554Y027499D02*
X051587Y027501D01*
X051620Y027506D01*
X051652Y027516D01*
X051683Y027529D01*
X051713Y027545D01*
X051740Y027564D01*
X051765Y027586D01*
X051787Y027611D01*
X051806Y027638D01*
X051822Y027668D01*
X051835Y027699D01*
X051845Y027731D01*
X051850Y027764D01*
X051852Y027797D01*
X051852Y028213D01*
X051871Y028219D01*
X051888Y028228D01*
X051903Y028240D01*
X051915Y028256D01*
X051924Y028273D01*
X051930Y028292D01*
X051932Y028311D01*
X051930Y028331D01*
X051924Y028349D01*
X051915Y028367D01*
X051903Y028382D01*
X051888Y028394D01*
X051870Y028403D01*
X051851Y028409D01*
X051832Y028411D01*
X051832Y028412D02*
X051574Y028412D01*
X051574Y029661D01*
X051693Y029661D01*
X051693Y030355D01*
X051852Y030296D02*
X051852Y029879D01*
X051870Y029874D01*
X051888Y029866D01*
X051903Y029855D01*
X051917Y029841D01*
X051928Y029826D01*
X051936Y029808D01*
X051940Y029790D01*
X051942Y029771D01*
X051940Y029752D01*
X051935Y029733D01*
X051927Y029716D01*
X051916Y029700D01*
X051903Y029687D01*
X051887Y029676D01*
X051870Y029668D01*
X051851Y029663D01*
X051832Y029661D01*
X051713Y029661D01*
X051693Y030355D02*
X051691Y030386D01*
X051686Y030416D01*
X051678Y030446D01*
X051667Y030475D01*
X051653Y030502D01*
X051636Y030528D01*
X051616Y030552D01*
X051594Y030573D01*
X051594Y030574D02*
X051157Y031010D01*
X051257Y031129D02*
X051693Y030692D01*
X051692Y030692D02*
X051722Y030660D01*
X051749Y030625D01*
X051773Y030589D01*
X051794Y030550D01*
X051812Y030510D01*
X051827Y030469D01*
X051838Y030427D01*
X051846Y030383D01*
X051850Y030340D01*
X051851Y030296D01*
X050900Y029959D02*
X050681Y029800D01*
X050681Y028947D01*
X050900Y028788D01*
X050900Y029959D01*
X048956Y029800D02*
X048956Y028947D01*
X048738Y028788D01*
X048738Y029959D01*
X048956Y029800D01*
X047806Y030296D02*
X047807Y030340D01*
X047811Y030383D01*
X047819Y030427D01*
X047830Y030469D01*
X047845Y030510D01*
X047863Y030550D01*
X047884Y030589D01*
X047908Y030625D01*
X047935Y030660D01*
X047965Y030692D01*
X047964Y030692D02*
X048401Y031129D01*
X048500Y031010D02*
X048063Y030574D01*
X047964Y030355D02*
X047964Y029661D01*
X048083Y029661D01*
X048083Y028412D01*
X047825Y028412D01*
X047825Y028411D02*
X047806Y028409D01*
X047787Y028403D01*
X047769Y028394D01*
X047754Y028382D01*
X047742Y028367D01*
X047733Y028349D01*
X047727Y028331D01*
X047725Y028311D01*
X047727Y028292D01*
X047733Y028273D01*
X047742Y028256D01*
X047754Y028240D01*
X047769Y028228D01*
X047786Y028219D01*
X047805Y028213D01*
X047806Y028213D02*
X047806Y027797D01*
X047964Y027836D02*
X047964Y028392D01*
X047964Y027836D02*
X047966Y027811D01*
X047971Y027786D01*
X047980Y027762D01*
X047992Y027739D01*
X048008Y027719D01*
X048026Y027701D01*
X048046Y027685D01*
X048069Y027673D01*
X048093Y027664D01*
X048118Y027659D01*
X048143Y027657D01*
X048103Y027499D02*
X048070Y027501D01*
X048037Y027506D01*
X048005Y027516D01*
X047974Y027529D01*
X047944Y027545D01*
X047917Y027564D01*
X047892Y027586D01*
X047870Y027611D01*
X047851Y027638D01*
X047835Y027668D01*
X047822Y027699D01*
X047812Y027731D01*
X047807Y027764D01*
X047805Y027797D01*
X051514Y027657D02*
X051539Y027659D01*
X051564Y027664D01*
X051588Y027673D01*
X051611Y027685D01*
X051631Y027701D01*
X051649Y027719D01*
X051665Y027739D01*
X051677Y027762D01*
X051686Y027786D01*
X051691Y027811D01*
X051693Y027836D01*
X051693Y028392D01*
X047944Y029661D02*
X047825Y029661D01*
X047806Y029663D01*
X047787Y029668D01*
X047770Y029676D01*
X047754Y029687D01*
X047741Y029700D01*
X047730Y029716D01*
X047722Y029733D01*
X047717Y029752D01*
X047715Y029771D01*
X047717Y029790D01*
X047721Y029808D01*
X047729Y029826D01*
X047740Y029841D01*
X047754Y029855D01*
X047769Y029866D01*
X047787Y029874D01*
X047805Y029879D01*
X047806Y029879D02*
X047806Y030296D01*
X047964Y030355D02*
X047966Y030386D01*
X047971Y030416D01*
X047979Y030446D01*
X047990Y030475D01*
X048004Y030502D01*
X048021Y030528D01*
X048041Y030552D01*
X048063Y030573D01*
X048499Y031010D02*
X048519Y031029D01*
X048541Y031047D01*
X048564Y031061D01*
X048589Y031073D01*
X048615Y031082D01*
X048643Y031087D01*
X048670Y031090D01*
X048698Y031089D01*
X050959Y031089D01*
X050959Y031248D02*
X048698Y031248D01*
X048657Y031246D01*
X048616Y031240D01*
X048577Y031231D01*
X048538Y031217D01*
X048501Y031200D01*
X048465Y031180D01*
X048432Y031156D01*
X048401Y031129D01*
X050959Y031248D02*
X051000Y031246D01*
X051041Y031240D01*
X051080Y031231D01*
X051119Y031217D01*
X051156Y031200D01*
X051192Y031180D01*
X051225Y031156D01*
X051256Y031129D01*
X051158Y031010D02*
X051138Y031029D01*
X051116Y031047D01*
X051093Y031061D01*
X051068Y031073D01*
X051042Y031082D01*
X051014Y031087D01*
X050987Y031090D01*
X050959Y031089D01*
X043121Y030980D02*
X043121Y033093D01*
X036664Y033093D01*
X036664Y030992D01*
X036664Y029750D02*
X036664Y026499D01*
X043121Y026499D01*
X043121Y029750D01*
D14*
X049081Y029508D02*
X049228Y029508D01*
X049155Y029508D02*
X049155Y029728D01*
X049228Y029655D01*
X049512Y029236D02*
X049622Y029126D01*
X049475Y029126D01*
X049512Y029016D02*
X049512Y029236D01*
X050065Y029508D02*
X050212Y029508D01*
X050065Y029655D01*
X050065Y029692D01*
X050102Y029728D01*
X050176Y029728D01*
X050212Y029692D01*
X050397Y029236D02*
X050361Y029199D01*
X050361Y029163D01*
X050397Y029126D01*
X050361Y029089D01*
X050361Y029053D01*
X050397Y029016D01*
X050471Y029016D01*
X050508Y029053D01*
X050434Y029126D02*
X050397Y029126D01*
X050397Y029236D02*
X050471Y029236D01*
X050508Y029199D01*
M02*
