G75*
G70*
%OFA0B0*%
%FSLAX24Y24*%
%IPPOS*%
%LPD*%
%AMOC8*
5,1,8,0,0,1.08239X$1,22.5*
%
%ADD10C,0.0120*%
%ADD11C,0.0140*%
%ADD12C,0.1100*%
%ADD13OC8,0.1100*%
%ADD14R,0.0671X0.0749*%
%ADD15R,0.0592X0.0671*%
%ADD16R,0.0671X0.0592*%
%ADD17R,0.0631X0.0631*%
%ADD18R,0.0640X0.0220*%
%ADD19R,0.0880X0.0880*%
%ADD20OC8,0.1299*%
%ADD21R,0.1143X0.0710*%
%ADD22R,0.2165X0.2362*%
%ADD23R,0.0710X0.1143*%
%ADD24C,0.1100*%
%ADD25OC8,0.0973*%
%ADD26R,0.0790X0.0710*%
%ADD27C,0.0907*%
%ADD28R,0.1340X0.0789*%
%ADD29OC8,0.0640*%
%ADD30OC8,0.0840*%
%ADD31C,0.1653*%
%ADD32R,0.0678X0.0781*%
%ADD33R,0.0789X0.1064*%
%ADD34C,0.0674*%
%ADD35C,0.0674*%
%ADD36R,0.0960X0.0560*%
%ADD37R,0.0953X0.1504*%
%ADD38C,0.0640*%
%ADD39C,0.1436*%
%ADD40OC8,0.0674*%
%ADD41R,0.0674X0.0674*%
%ADD42C,0.1039*%
%ADD43C,0.1386*%
%ADD44R,0.0474X0.0513*%
%ADD45R,0.0380X0.1360*%
%ADD46R,0.0520X0.0180*%
%ADD47R,0.0520X0.0200*%
%ADD48R,0.0600X0.0450*%
%ADD49R,0.0700X0.0300*%
%ADD50OC8,0.0680*%
%ADD51R,0.2444X0.2365*%
%ADD52R,0.0749X0.0592*%
%ADD53R,0.0860X0.0300*%
%ADD54C,0.2562*%
%ADD55C,0.1650*%
%ADD56OC8,0.0516*%
%ADD57C,0.2365*%
D10*
X056713Y017559D02*
X058088Y017559D01*
D11*
X060463Y017584D02*
X061413Y017584D01*
X061413Y017834D02*
X060488Y017834D01*
D12*
X060464Y011125D03*
X034738Y017099D03*
X030801Y017099D03*
X033089Y021166D03*
X035039Y021166D03*
X035787Y025103D03*
X033837Y025103D03*
D13*
X040317Y024131D03*
X042285Y024131D03*
X045238Y024131D03*
X048191Y024131D03*
X050159Y024131D03*
X049238Y025459D03*
X047238Y025459D03*
X043238Y025459D03*
X041238Y025459D03*
X041238Y015459D03*
X043238Y015459D03*
X040317Y014288D03*
X047238Y015459D03*
X049238Y015459D03*
X050159Y014288D03*
X062464Y011125D03*
D14*
X063092Y008481D03*
X061084Y008481D03*
X061084Y004938D03*
X063092Y004938D03*
D15*
X063589Y013134D03*
X064337Y013134D03*
X060237Y014784D03*
X059489Y014784D03*
X058312Y014784D03*
X057564Y014784D03*
X057564Y015559D03*
X058312Y015559D03*
X059489Y015559D03*
X060237Y015559D03*
X055962Y015559D03*
X055214Y015559D03*
X055214Y014784D03*
X055962Y014784D03*
X060764Y018584D03*
X061512Y018584D03*
X059087Y018809D03*
X058339Y018809D03*
X055212Y027584D03*
X054464Y027584D03*
X054464Y028359D03*
X055212Y028359D03*
D16*
X064513Y028685D03*
X065288Y028685D03*
X065288Y029433D03*
X064513Y029433D03*
X065313Y024033D03*
X065313Y023285D03*
X063188Y019758D03*
X063188Y019010D03*
X055813Y019133D03*
X055813Y018385D03*
X055813Y019935D03*
X055813Y020683D03*
X061038Y015658D03*
X061038Y014910D03*
X063513Y014683D03*
X064338Y014683D03*
X064338Y013935D03*
X063513Y013935D03*
X058913Y012933D03*
X058913Y012185D03*
X056763Y014795D03*
X056763Y015543D03*
X059513Y007183D03*
X059513Y006435D03*
D17*
X062313Y017136D03*
X062313Y018632D03*
X066440Y018359D03*
X067936Y018359D03*
D18*
X060558Y018084D03*
X060558Y017824D03*
X060558Y017564D03*
X060558Y017314D03*
X060558Y017054D03*
X060558Y016804D03*
X060558Y016544D03*
X060558Y016284D03*
X058318Y016284D03*
X058318Y016544D03*
X058318Y016804D03*
X058318Y017054D03*
X058318Y017314D03*
X058318Y017564D03*
X058318Y017824D03*
X058318Y018084D03*
D19*
X059438Y017184D03*
D20*
X059438Y017184D03*
D21*
X056888Y018283D03*
X056888Y019386D03*
D22*
X058190Y021909D03*
X061536Y021909D03*
D23*
X056189Y023009D03*
X055087Y023009D03*
X055087Y024384D03*
X056189Y024384D03*
X056389Y017159D03*
X055287Y017159D03*
D24*
X029745Y019281D02*
X028745Y019281D01*
X028745Y021250D02*
X029745Y021250D01*
X029745Y023218D02*
X028745Y023218D01*
X028745Y025187D02*
X029745Y025187D01*
X029745Y027155D02*
X028745Y027155D01*
D25*
X029423Y013605D03*
X029423Y011299D03*
X035423Y011299D03*
X035423Y013605D03*
D26*
X063188Y017025D03*
X063188Y018144D03*
D27*
X047763Y011047D02*
X047763Y010222D01*
X045613Y010222D02*
X045613Y011047D01*
X043463Y011047D02*
X043463Y010222D01*
X043463Y007347D02*
X043463Y006522D01*
X045613Y006522D02*
X045613Y007347D01*
X047763Y007347D02*
X047763Y006522D01*
D28*
X052988Y007237D03*
X052988Y008707D03*
X052988Y010912D03*
X052988Y005032D03*
X032213Y006207D03*
X032213Y008412D03*
D29*
X034238Y009159D03*
X034238Y006159D03*
D30*
X037313Y006634D03*
X037313Y008634D03*
D31*
X040638Y008159D03*
X050638Y008159D03*
D32*
X055009Y007234D03*
X055009Y006234D03*
X055009Y005234D03*
X058667Y005234D03*
X058667Y006234D03*
X058667Y007234D03*
X058667Y009134D03*
X058667Y010134D03*
X058667Y011134D03*
X055009Y011134D03*
X055009Y010134D03*
X055009Y009134D03*
D33*
X066130Y016359D03*
X068846Y016359D03*
D34*
X068235Y019659D02*
X067641Y019659D01*
X067641Y020659D02*
X068235Y020659D01*
X068235Y021659D02*
X067641Y021659D01*
D35*
X068057Y024572D03*
X067057Y024572D03*
X067057Y025572D03*
X068057Y025572D03*
X068057Y026572D03*
X067057Y026572D03*
X067057Y027572D03*
X068057Y027572D03*
X068057Y028572D03*
X067057Y028572D03*
X042383Y027215D03*
X041383Y027215D03*
X038402Y027215D03*
X037402Y027215D03*
X038643Y031333D03*
X039643Y031333D03*
X040643Y031333D03*
X041143Y032333D03*
X040143Y032333D03*
X039143Y032333D03*
X038143Y032333D03*
D36*
X065443Y014269D03*
X065443Y013359D03*
X065443Y012450D03*
D37*
X067883Y013359D03*
D38*
X050321Y028711D03*
X049336Y028711D03*
X049336Y029970D03*
X050321Y029970D03*
D39*
X052199Y028907D03*
X047458Y028907D03*
D40*
X047688Y032334D03*
X048688Y032334D03*
X049688Y032334D03*
X050688Y032334D03*
X052688Y032334D03*
X053688Y032334D03*
X054688Y032334D03*
X055688Y032334D03*
X056688Y032334D03*
X058788Y032334D03*
X059788Y032334D03*
X060788Y032334D03*
X061788Y032334D03*
X062788Y032334D03*
X046688Y032334D03*
X045688Y032334D03*
X044688Y032334D03*
X043688Y032334D03*
D41*
X041643Y031333D03*
D42*
X042993Y030365D03*
X036792Y030365D03*
D43*
X037643Y028833D03*
X042143Y028833D03*
D44*
X042103Y032384D03*
X042772Y032384D03*
X051688Y031269D03*
X052903Y030834D03*
X053572Y030834D03*
X051688Y030600D03*
X054538Y030169D03*
X055313Y030175D03*
X055313Y030844D03*
X054538Y029500D03*
X060963Y030175D03*
X061738Y030194D03*
X061738Y029525D03*
X060963Y030844D03*
X055397Y026759D03*
X054728Y026759D03*
D45*
X065138Y021559D03*
X065138Y019659D03*
D46*
X040928Y029859D03*
X040928Y030059D03*
X040928Y030259D03*
D47*
X039848Y030259D03*
X039848Y029859D03*
D48*
X049963Y031309D03*
D49*
X050713Y031389D03*
X050713Y030629D03*
X049963Y030629D03*
D50*
X034738Y029734D03*
X030738Y029734D03*
D51*
X065989Y010009D03*
D52*
X068524Y009110D03*
X068524Y010909D03*
D53*
X060013Y027209D03*
X060013Y027709D03*
X060013Y028209D03*
X060013Y028709D03*
X060013Y029209D03*
X060013Y029709D03*
X060013Y030209D03*
X060013Y030709D03*
X056313Y030709D03*
X056313Y030209D03*
X056313Y029709D03*
X056313Y029209D03*
X056313Y028709D03*
X056313Y028209D03*
X056313Y027709D03*
X056313Y027209D03*
D54*
X029063Y007015D03*
X065283Y007015D03*
X065283Y031819D03*
X029063Y031819D03*
D55*
X035438Y031959D03*
X028938Y017059D03*
X028938Y015309D03*
D56*
X060588Y005059D03*
X062588Y005059D03*
D57*
X045204Y029850D03*
M02*
