%
M48
M72
T01C0.0236
T02C0.0354
T03C0.0360
T04C0.0394
T05C0.0400
T06C0.0433
T07C0.0472
T08C0.0550
T09C0.0590
T10C0.0630
T11C0.0787
T12C0.0906
T13C0.1102
T14C0.1181
T15C0.1260
%
T01
X39493Y8375
X39493Y8750
X57168Y14550
X59293Y16525
X57568Y17375
X61663Y17400
X62138Y17400
X62613Y17400
X62613Y17925
X62143Y17925
X61673Y17925
X61668Y16875
X62138Y16875
X62613Y16875
X64168Y16775
X64693Y16050
X66643Y16050
X67168Y16100
X64693Y14800
X63143Y12775
X66743Y12725
X66343Y10700
X66343Y9475
X70143Y9350
X59793Y8725
X59793Y10225
X58418Y7700
X66643Y18900
X62893Y19450
X61743Y19250
X59718Y20025
X59343Y20025
X58968Y20775
X57293Y22950
X57293Y23325
X57318Y24325
X57318Y24700
X65668Y24000
X65668Y23450
X65668Y22900
X65668Y22300
X65668Y21700
X66643Y21700
X65668Y21100
X65668Y20500
X68268Y22650
X66643Y23950
X68418Y28675
X65293Y29250
X53623Y29895
X44768Y31325
X43068Y27700
T02
X53502Y27930
X54487Y27930
X54487Y29190
X53502Y29190
T03
X36693Y8825
X36693Y5825
T04
X70168Y17775
X70168Y18775
X70168Y19775
X70362Y22588
X69362Y22588
X69362Y23588
X70362Y23588
X70362Y24588
X69362Y24588
X69362Y25588
X70362Y25588
X70362Y26588
X69362Y26588
X66249Y26006
X65249Y26006
X62268Y26006
X61268Y26006
X62509Y30124
X63509Y30124
X64509Y30124
X65509Y30124
X65009Y31124
X64009Y31124
X63009Y31124
X62009Y31124
X62468Y32850
X61468Y32850
X60468Y32850
X63468Y32850
X64468Y32850
X65468Y32850
X66468Y32850
X67468Y32850
X53693Y32850
X52693Y32850
X51693Y32850
X50693Y32850
X49693Y32850
X46318Y32850
X45318Y32850
X44318Y32850
X43318Y32850
X42318Y32850
T05
X40193Y28100
X40193Y24100
X43343Y10400
X43343Y8400
T06
X39893Y15665
X35956Y15665
T07
X41662Y18001
X37725Y18749
X41662Y19976
X37725Y20724
X47850Y24262
X51787Y24262
X53755Y16388
X45881Y16388
T08
X49243Y12575
X51393Y12575
X53543Y12575
X53543Y8875
X51393Y8875
X49243Y8875
T09
X40153Y10640
X40128Y12820
X34128Y12820
X34153Y10640
T10
X33843Y17900
X33843Y19650
X60658Y29156
X66859Y29156
T11
X37668Y29150
X37668Y27496
X37668Y25843
X37668Y24189
X37668Y22536
T12
X51624Y28127
X56365Y28127
T13
X56418Y10100
X46418Y10100
T14
X34794Y22536
X34794Y29150
T15
X34024Y7606
X70244Y7606
X66009Y27624
X61509Y27624
X58433Y29456
X70244Y32409
X34024Y32409
M30
