G75*
G70*
%OFA0B0*%
%FSLAX24Y24*%
%IPPOS*%
%LPD*%
%AMOC8*
5,1,8,0,0,1.08239X$1,22.5*
%
%ADD10C,0.1100*%
%ADD11OC8,0.1100*%
%ADD12C,0.1100*%
%ADD13OC8,0.0973*%
%ADD14C,0.0907*%
%ADD15OC8,0.0640*%
%ADD16OC8,0.0840*%
%ADD17C,0.1653*%
%ADD18C,0.0674*%
%ADD19C,0.0674*%
%ADD20C,0.0640*%
%ADD21C,0.1436*%
%ADD22OC8,0.0674*%
%ADD23R,0.0674X0.0674*%
%ADD24C,0.1039*%
%ADD25C,0.1386*%
%ADD26OC8,0.0680*%
%ADD27C,0.2562*%
%ADD28C,0.1650*%
%ADD29OC8,0.0516*%
%ADD30C,0.2365*%
D10*
X034581Y017787D03*
X038518Y017787D03*
X038819Y021853D03*
X036869Y021853D03*
X037617Y025790D03*
X039567Y025790D03*
X064244Y011812D03*
D11*
X066244Y011812D03*
X053939Y014976D03*
X053018Y016147D03*
X051018Y016147D03*
X047018Y016147D03*
X045018Y016147D03*
X044097Y014976D03*
X044097Y024818D03*
X046065Y024818D03*
X047018Y026147D03*
X045018Y026147D03*
X049018Y024818D03*
X051971Y024818D03*
X053939Y024818D03*
X053018Y026147D03*
X051018Y026147D03*
D12*
X033525Y025874D02*
X032525Y025874D01*
X032525Y023906D02*
X033525Y023906D01*
X033525Y021937D02*
X032525Y021937D01*
X032525Y019969D02*
X033525Y019969D01*
X033525Y027843D02*
X032525Y027843D01*
D13*
X033203Y014292D03*
X033203Y011986D03*
X039203Y011986D03*
X039203Y014292D03*
D14*
X047243Y011734D02*
X047243Y010909D01*
X049393Y010909D02*
X049393Y011734D01*
X051543Y011734D02*
X051543Y010909D01*
X051543Y008034D02*
X051543Y007209D01*
X049393Y007209D02*
X049393Y008034D01*
X047243Y008034D02*
X047243Y007209D01*
D15*
X038018Y006847D03*
X038018Y009847D03*
D16*
X041093Y009322D03*
X041093Y007322D03*
D17*
X044418Y008847D03*
X054418Y008847D03*
D18*
X071421Y020347D02*
X072015Y020347D01*
X072015Y021347D02*
X071421Y021347D01*
X071421Y022347D02*
X072015Y022347D01*
D19*
X071837Y025259D03*
X070837Y025259D03*
X070837Y026259D03*
X071837Y026259D03*
X071837Y027259D03*
X070837Y027259D03*
X070837Y028259D03*
X071837Y028259D03*
X071837Y029259D03*
X070837Y029259D03*
X046163Y027903D03*
X045163Y027903D03*
X042183Y027903D03*
X041183Y027903D03*
X042423Y032021D03*
X043423Y032021D03*
X044423Y032021D03*
X044923Y033021D03*
X043923Y033021D03*
X042923Y033021D03*
X041923Y033021D03*
D20*
X053117Y030658D03*
X054101Y030658D03*
X054101Y029398D03*
X053117Y029398D03*
D21*
X051239Y029595D03*
X055979Y029595D03*
D22*
X056468Y033022D03*
X057468Y033022D03*
X058468Y033022D03*
X059468Y033022D03*
X060468Y033022D03*
X062568Y033022D03*
X063568Y033022D03*
X064568Y033022D03*
X065568Y033022D03*
X066568Y033022D03*
X054468Y033022D03*
X053468Y033022D03*
X052468Y033022D03*
X051468Y033022D03*
X050468Y033022D03*
X049468Y033022D03*
X048468Y033022D03*
X047468Y033022D03*
D23*
X045423Y032021D03*
D24*
X046773Y031052D03*
X040572Y031052D03*
D25*
X041423Y029521D03*
X045923Y029521D03*
D26*
X038518Y030422D03*
X034518Y030422D03*
D27*
X032843Y007803D03*
X069063Y007803D03*
X069063Y032606D03*
X032843Y032606D03*
D28*
X039218Y032647D03*
X032718Y017747D03*
X032718Y015997D03*
D29*
X064368Y005747D03*
X066368Y005747D03*
D30*
X048985Y030637D03*
M02*
