G75*
G70*
%OFA0B0*%
%FSLAX24Y24*%
%IPPOS*%
%LPD*%
%AMOC8*
5,1,8,0,0,1.08239X$1,22.5*
%
%ADD10C,0.0039*%
%ADD11C,0.0000*%
D10*
X006662Y005047D02*
X047607Y005047D01*
X047607Y005046D02*
X047653Y005048D01*
X047699Y005053D01*
X047745Y005062D01*
X047790Y005075D01*
X047833Y005091D01*
X047875Y005110D01*
X047916Y005133D01*
X047954Y005159D01*
X047991Y005188D01*
X048025Y005219D01*
X048056Y005253D01*
X048085Y005290D01*
X048111Y005328D01*
X048134Y005369D01*
X048153Y005411D01*
X048169Y005454D01*
X048182Y005499D01*
X048191Y005545D01*
X048196Y005591D01*
X048198Y005637D01*
X048197Y005637D02*
X048197Y033590D01*
X048198Y033590D02*
X048196Y033636D01*
X048191Y033682D01*
X048182Y033728D01*
X048169Y033773D01*
X048153Y033816D01*
X048134Y033858D01*
X048111Y033899D01*
X048085Y033937D01*
X048056Y033974D01*
X048025Y034008D01*
X047991Y034039D01*
X047954Y034068D01*
X047916Y034094D01*
X047875Y034117D01*
X047833Y034136D01*
X047790Y034152D01*
X047745Y034165D01*
X047699Y034174D01*
X047653Y034179D01*
X047607Y034181D01*
X006662Y034181D01*
X006616Y034179D01*
X006570Y034174D01*
X006524Y034165D01*
X006479Y034152D01*
X006436Y034136D01*
X006394Y034117D01*
X006353Y034094D01*
X006315Y034068D01*
X006278Y034039D01*
X006244Y034008D01*
X006213Y033974D01*
X006184Y033937D01*
X006158Y033899D01*
X006135Y033858D01*
X006116Y033816D01*
X006100Y033773D01*
X006087Y033728D01*
X006078Y033682D01*
X006073Y033636D01*
X006071Y033590D01*
X006071Y005637D01*
X006073Y005591D01*
X006078Y005545D01*
X006087Y005499D01*
X006100Y005454D01*
X006116Y005411D01*
X006135Y005369D01*
X006158Y005328D01*
X006184Y005290D01*
X006213Y005253D01*
X006244Y005219D01*
X006278Y005188D01*
X006315Y005159D01*
X006353Y005133D01*
X006394Y005110D01*
X006436Y005091D01*
X006479Y005075D01*
X006524Y005062D01*
X006570Y005053D01*
X006616Y005048D01*
X006662Y005046D01*
D11*
X015596Y029521D02*
X015598Y029571D01*
X015604Y029621D01*
X015614Y029670D01*
X015628Y029718D01*
X015645Y029765D01*
X015666Y029810D01*
X015691Y029854D01*
X015719Y029895D01*
X015751Y029934D01*
X015785Y029971D01*
X015822Y030005D01*
X015862Y030035D01*
X015904Y030062D01*
X015948Y030086D01*
X015994Y030107D01*
X016041Y030123D01*
X016089Y030136D01*
X016139Y030145D01*
X016188Y030150D01*
X016239Y030151D01*
X016289Y030148D01*
X016338Y030141D01*
X016387Y030130D01*
X016435Y030115D01*
X016481Y030097D01*
X016526Y030075D01*
X016569Y030049D01*
X016610Y030020D01*
X016649Y029988D01*
X016685Y029953D01*
X016717Y029915D01*
X016747Y029875D01*
X016774Y029832D01*
X016797Y029788D01*
X016816Y029742D01*
X016832Y029694D01*
X016844Y029645D01*
X016852Y029596D01*
X016856Y029546D01*
X016856Y029496D01*
X016852Y029446D01*
X016844Y029397D01*
X016832Y029348D01*
X016816Y029300D01*
X016797Y029254D01*
X016774Y029210D01*
X016747Y029167D01*
X016717Y029127D01*
X016685Y029089D01*
X016649Y029054D01*
X016610Y029022D01*
X016569Y028993D01*
X016526Y028967D01*
X016481Y028945D01*
X016435Y028927D01*
X016387Y028912D01*
X016338Y028901D01*
X016289Y028894D01*
X016239Y028891D01*
X016188Y028892D01*
X016139Y028897D01*
X016089Y028906D01*
X016041Y028919D01*
X015994Y028935D01*
X015948Y028956D01*
X015904Y028980D01*
X015862Y029007D01*
X015822Y029037D01*
X015785Y029071D01*
X015751Y029108D01*
X015719Y029147D01*
X015691Y029188D01*
X015666Y029232D01*
X015645Y029277D01*
X015628Y029324D01*
X015614Y029372D01*
X015604Y029421D01*
X015598Y029471D01*
X015596Y029521D01*
X020096Y029521D02*
X020098Y029571D01*
X020104Y029621D01*
X020114Y029670D01*
X020128Y029718D01*
X020145Y029765D01*
X020166Y029810D01*
X020191Y029854D01*
X020219Y029895D01*
X020251Y029934D01*
X020285Y029971D01*
X020322Y030005D01*
X020362Y030035D01*
X020404Y030062D01*
X020448Y030086D01*
X020494Y030107D01*
X020541Y030123D01*
X020589Y030136D01*
X020639Y030145D01*
X020688Y030150D01*
X020739Y030151D01*
X020789Y030148D01*
X020838Y030141D01*
X020887Y030130D01*
X020935Y030115D01*
X020981Y030097D01*
X021026Y030075D01*
X021069Y030049D01*
X021110Y030020D01*
X021149Y029988D01*
X021185Y029953D01*
X021217Y029915D01*
X021247Y029875D01*
X021274Y029832D01*
X021297Y029788D01*
X021316Y029742D01*
X021332Y029694D01*
X021344Y029645D01*
X021352Y029596D01*
X021356Y029546D01*
X021356Y029496D01*
X021352Y029446D01*
X021344Y029397D01*
X021332Y029348D01*
X021316Y029300D01*
X021297Y029254D01*
X021274Y029210D01*
X021247Y029167D01*
X021217Y029127D01*
X021185Y029089D01*
X021149Y029054D01*
X021110Y029022D01*
X021069Y028993D01*
X021026Y028967D01*
X020981Y028945D01*
X020935Y028927D01*
X020887Y028912D01*
X020838Y028901D01*
X020789Y028894D01*
X020739Y028891D01*
X020688Y028892D01*
X020639Y028897D01*
X020589Y028906D01*
X020541Y028919D01*
X020494Y028935D01*
X020448Y028956D01*
X020404Y028980D01*
X020362Y029007D01*
X020322Y029037D01*
X020285Y029071D01*
X020251Y029108D01*
X020219Y029147D01*
X020191Y029188D01*
X020166Y029232D01*
X020145Y029277D01*
X020128Y029324D01*
X020114Y029372D01*
X020104Y029421D01*
X020098Y029471D01*
X020096Y029521D01*
M02*
