G75*
G70*
%OFA0B0*%
%FSLAX24Y24*%
%IPPOS*%
%LPD*%
%AMOC8*
5,1,8,0,0,1.08239X$1,22.5*
%
%ADD10C,0.0060*%
%ADD11C,0.1000*%
%ADD12OC8,0.1000*%
%ADD13C,0.0600*%
%ADD14OC8,0.0600*%
%ADD15C,0.0700*%
%ADD16OC8,0.1181*%
%ADD17OC8,0.0660*%
%ADD18C,0.0594*%
%ADD19OC8,0.1250*%
%ADD20OC8,0.0860*%
%ADD21C,0.1000*%
%ADD22OC8,0.0885*%
%ADD23C,0.0100*%
%ADD24C,0.0010*%
%ADD25C,0.0825*%
%ADD26OC8,0.0560*%
%ADD27OC8,0.0760*%
%ADD28C,0.1500*%
%ADD29C,0.1200*%
%ADD30R,0.0436X0.0436*%
%ADD31OC8,0.0396*%
%ADD32C,0.0120*%
%ADD33C,0.0320*%
%ADD34R,0.0396X0.0396*%
%ADD35C,0.2362*%
%ADD36C,0.0240*%
D10*
X006708Y017751D02*
X007208Y017751D01*
X007208Y018001D01*
X007125Y018085D01*
X006958Y018085D01*
X006875Y018001D01*
X006875Y017751D01*
X006791Y018267D02*
X006708Y018350D01*
X006708Y018517D01*
X006791Y018600D01*
X006875Y018600D01*
X006958Y018517D01*
X006958Y018350D01*
X007042Y018267D01*
X007125Y018267D01*
X007208Y018350D01*
X007208Y018517D01*
X007125Y018600D01*
X007208Y018782D02*
X006791Y018782D01*
X006708Y018866D01*
X006708Y019033D01*
X006791Y019116D01*
X007208Y019116D01*
X007042Y019814D02*
X006708Y019814D01*
X006958Y019814D02*
X006958Y020147D01*
X007042Y020147D02*
X006708Y020147D01*
X006791Y020329D02*
X006708Y020413D01*
X006708Y020579D01*
X006791Y020663D01*
X007208Y020663D01*
X007208Y020845D02*
X006708Y021178D01*
X006708Y020845D02*
X007208Y021178D01*
X007208Y021876D02*
X006708Y021876D01*
X006708Y022126D01*
X006791Y022210D01*
X006958Y022210D01*
X007042Y022126D01*
X007042Y021876D01*
X006958Y022392D02*
X006791Y022392D01*
X006708Y022475D01*
X006708Y022642D01*
X006791Y022725D01*
X006958Y022725D01*
X007042Y022642D01*
X007042Y022475D01*
X006958Y022392D01*
X006791Y022907D02*
X006875Y022991D01*
X006875Y023241D01*
X006958Y023241D02*
X006708Y023241D01*
X006708Y022991D01*
X006791Y022907D01*
X007042Y022991D02*
X007042Y023158D01*
X006958Y023241D01*
X006875Y023423D02*
X007042Y023590D01*
X007042Y023673D01*
X006958Y023853D02*
X007042Y023936D01*
X007042Y024186D01*
X007208Y024186D02*
X006708Y024186D01*
X006708Y023936D01*
X006791Y023853D01*
X006958Y023853D01*
X007042Y023423D02*
X006708Y023423D01*
X006708Y024884D02*
X006708Y025218D01*
X006708Y025051D02*
X007208Y025051D01*
X007042Y024884D01*
X007042Y025400D02*
X007208Y025567D01*
X006708Y025567D01*
X006708Y025733D02*
X006708Y025400D01*
X006708Y025915D02*
X007208Y026249D01*
X007125Y026431D02*
X007208Y026514D01*
X007208Y026681D01*
X007125Y026765D01*
X007042Y026765D01*
X006708Y026431D01*
X006708Y026765D01*
X006791Y026947D02*
X007125Y027280D01*
X006791Y027280D01*
X006708Y027197D01*
X006708Y027030D01*
X006791Y026947D01*
X007125Y026947D01*
X007208Y027030D01*
X007208Y027197D01*
X007125Y027280D01*
X007042Y027462D02*
X007208Y027629D01*
X006708Y027629D01*
X006708Y027462D02*
X006708Y027796D01*
X006791Y027978D02*
X006708Y028061D01*
X006708Y028228D01*
X006791Y028312D01*
X006958Y028312D01*
X007042Y028228D01*
X007042Y028145D01*
X006958Y027978D01*
X007208Y027978D01*
X007208Y028312D01*
X007042Y029009D02*
X006708Y029009D01*
X006875Y029009D02*
X007042Y029176D01*
X007042Y029259D01*
X006958Y029439D02*
X006958Y029772D01*
X006958Y029955D02*
X006958Y030205D01*
X006875Y030288D01*
X006791Y030288D01*
X006708Y030205D01*
X006708Y029955D01*
X007208Y029955D01*
X007208Y030205D01*
X007125Y030288D01*
X007042Y030288D01*
X006958Y030205D01*
X006791Y030470D02*
X006708Y030554D01*
X006708Y030720D01*
X006791Y030804D01*
X006875Y030804D01*
X006958Y030720D01*
X006958Y030637D01*
X006958Y030720D02*
X007042Y030804D01*
X007125Y030804D01*
X007208Y030720D01*
X007208Y030554D01*
X007125Y030470D01*
X007125Y030986D02*
X007042Y030986D01*
X006958Y031069D01*
X006958Y031319D01*
X006791Y031319D02*
X007125Y031319D01*
X007208Y031236D01*
X007208Y031069D01*
X007125Y030986D01*
X006791Y030986D02*
X006708Y031069D01*
X006708Y031236D01*
X006791Y031319D01*
X006708Y029689D02*
X007208Y029689D01*
X006958Y029439D01*
X006791Y020329D02*
X007208Y020329D01*
X007042Y020147D02*
X007208Y019980D01*
X007042Y019814D01*
D11*
X008079Y014230D03*
X008079Y010293D03*
X011503Y011596D03*
X011498Y013975D03*
X015435Y013109D03*
X015440Y010730D03*
X022284Y041005D03*
D12*
X022284Y043005D03*
D13*
X025069Y039355D03*
D14*
X025069Y041355D03*
X027069Y041355D03*
X027069Y039355D03*
D15*
X018319Y042305D03*
X015319Y042305D03*
D16*
X017369Y039355D03*
D17*
X020960Y014780D03*
X022928Y014780D03*
D18*
X013694Y035133D02*
X013694Y035727D01*
X012694Y035727D02*
X012694Y035133D01*
X011694Y035133D02*
X011694Y035727D01*
X008541Y036130D02*
X007947Y036130D01*
X007947Y035130D02*
X008541Y035130D01*
X008541Y034130D02*
X007947Y034130D01*
X007947Y037130D02*
X008541Y037130D01*
X008541Y038130D02*
X007947Y038130D01*
X007947Y039130D02*
X008541Y039130D01*
D19*
X009023Y029502D03*
X009023Y027533D03*
X008038Y027533D03*
X008038Y025565D03*
X008038Y021628D03*
X009023Y021628D03*
X009023Y019659D03*
X008038Y019659D03*
X017881Y021628D03*
X018865Y021628D03*
X017881Y023596D03*
X017881Y025565D03*
X017881Y027533D03*
X018865Y027533D03*
X018865Y029502D03*
X018865Y019659D03*
D20*
X018865Y024580D03*
D21*
X019529Y007712D02*
X019529Y006712D01*
X021497Y006712D02*
X021497Y007712D01*
X017560Y007712D02*
X017560Y006712D01*
X015592Y006712D02*
X015592Y007712D01*
X013623Y007712D02*
X013623Y006712D01*
D22*
X018629Y010545D03*
X018629Y012801D03*
X024629Y012801D03*
X024629Y010545D03*
D23*
X013866Y029716D02*
X013866Y030503D01*
X013669Y030503D02*
X013669Y029716D01*
X012668Y030109D02*
X012670Y030175D01*
X012676Y030240D01*
X012686Y030305D01*
X012699Y030370D01*
X012717Y030433D01*
X012738Y030496D01*
X012763Y030556D01*
X012792Y030616D01*
X012824Y030673D01*
X012859Y030729D01*
X012898Y030782D01*
X012940Y030833D01*
X012984Y030881D01*
X013032Y030926D01*
X013082Y030969D01*
X013135Y031008D01*
X013190Y031045D01*
X013247Y031078D01*
X013306Y031107D01*
X013366Y031133D01*
X013428Y031155D01*
X013491Y031174D01*
X013555Y031188D01*
X013620Y031199D01*
X013686Y031206D01*
X013752Y031209D01*
X013817Y031208D01*
X013883Y031203D01*
X013948Y031194D01*
X014013Y031181D01*
X014076Y031165D01*
X014139Y031145D01*
X014200Y031120D01*
X014260Y031093D01*
X014318Y031062D01*
X014374Y031027D01*
X014428Y030989D01*
X014479Y030948D01*
X014528Y030904D01*
X014574Y030857D01*
X014618Y030808D01*
X014658Y030756D01*
X014695Y030701D01*
X014729Y030645D01*
X014759Y030586D01*
X014786Y030526D01*
X014809Y030465D01*
X014828Y030402D01*
X014844Y030338D01*
X014856Y030273D01*
X014864Y030208D01*
X014868Y030142D01*
X014868Y030076D01*
X014864Y030010D01*
X014856Y029945D01*
X014844Y029880D01*
X014828Y029816D01*
X014809Y029753D01*
X014786Y029692D01*
X014759Y029632D01*
X014729Y029573D01*
X014695Y029517D01*
X014658Y029462D01*
X014618Y029410D01*
X014574Y029361D01*
X014528Y029314D01*
X014479Y029270D01*
X014428Y029229D01*
X014374Y029191D01*
X014318Y029156D01*
X014260Y029125D01*
X014200Y029098D01*
X014139Y029073D01*
X014076Y029053D01*
X014013Y029037D01*
X013948Y029024D01*
X013883Y029015D01*
X013817Y029010D01*
X013752Y029009D01*
X013686Y029012D01*
X013620Y029019D01*
X013555Y029030D01*
X013491Y029044D01*
X013428Y029063D01*
X013366Y029085D01*
X013306Y029111D01*
X013247Y029140D01*
X013190Y029173D01*
X013135Y029210D01*
X013082Y029249D01*
X013032Y029292D01*
X012984Y029337D01*
X012940Y029385D01*
X012898Y029436D01*
X012859Y029489D01*
X012824Y029545D01*
X012792Y029602D01*
X012763Y029662D01*
X012738Y029722D01*
X012717Y029785D01*
X012699Y029848D01*
X012686Y029913D01*
X012676Y029978D01*
X012670Y030043D01*
X012668Y030109D01*
X013354Y030031D02*
X014181Y030031D01*
X014181Y030188D02*
X013354Y030188D01*
X016357Y034410D02*
X008921Y034410D01*
X008805Y034526D01*
X008634Y034597D01*
X007854Y034597D01*
X007683Y034526D01*
X007551Y034395D01*
X007480Y034223D01*
X007480Y034037D01*
X007551Y033866D01*
X007683Y033735D01*
X007854Y033663D01*
X008634Y033663D01*
X008805Y033735D01*
X008821Y033750D01*
X016560Y033750D01*
X016681Y033801D01*
X016774Y033893D01*
X017056Y034175D01*
X017203Y034175D01*
X017241Y034137D01*
X017546Y034137D01*
X017762Y034353D01*
X017762Y034658D01*
X017546Y034873D01*
X017241Y034873D01*
X017203Y034835D01*
X016853Y034835D01*
X016732Y034785D01*
X016357Y034410D01*
X016432Y034485D02*
X008846Y034485D01*
X008667Y034583D02*
X016530Y034583D01*
X016629Y034682D02*
X012824Y034682D01*
X012787Y034667D02*
X012958Y034738D01*
X013090Y034869D01*
X013161Y035041D01*
X013161Y035820D01*
X013090Y035992D01*
X012958Y036123D01*
X012787Y036194D01*
X012601Y036194D01*
X012430Y036123D01*
X012298Y035992D01*
X012227Y035820D01*
X012227Y035041D01*
X012298Y034869D01*
X012430Y034738D01*
X012601Y034667D01*
X012787Y034667D01*
X012564Y034682D02*
X011824Y034682D01*
X011787Y034667D02*
X011958Y034738D01*
X012090Y034869D01*
X012161Y035041D01*
X012161Y035820D01*
X012090Y035992D01*
X011958Y036123D01*
X011787Y036194D01*
X011601Y036194D01*
X011430Y036123D01*
X011298Y035992D01*
X011227Y035820D01*
X011227Y035041D01*
X011298Y034869D01*
X011430Y034738D01*
X011601Y034667D01*
X011787Y034667D01*
X011564Y034682D02*
X006668Y034682D01*
X006668Y034780D02*
X007669Y034780D01*
X007656Y034789D02*
X007713Y034748D01*
X007776Y034716D01*
X007842Y034694D01*
X007912Y034683D01*
X008196Y034683D01*
X008196Y035082D01*
X008292Y035082D01*
X008292Y034683D01*
X008576Y034683D01*
X008645Y034694D01*
X008712Y034716D01*
X008775Y034748D01*
X008832Y034789D01*
X008882Y034839D01*
X008923Y034896D01*
X008955Y034959D01*
X008977Y035026D01*
X008986Y035082D01*
X008292Y035082D01*
X008292Y035179D01*
X008196Y035179D01*
X008196Y035577D01*
X007912Y035577D01*
X007842Y035566D01*
X007776Y035544D01*
X007713Y035512D01*
X007656Y035471D01*
X007606Y035421D01*
X007565Y035365D01*
X007533Y035302D01*
X007511Y035235D01*
X007502Y035179D01*
X008196Y035179D01*
X008196Y035082D01*
X007502Y035082D01*
X007511Y035026D01*
X007533Y034959D01*
X007565Y034896D01*
X007606Y034839D01*
X007656Y034789D01*
X007577Y034879D02*
X006668Y034879D01*
X006668Y034977D02*
X007527Y034977D01*
X007503Y035076D02*
X006668Y035076D01*
X006668Y035174D02*
X008196Y035174D01*
X008292Y035174D02*
X011227Y035174D01*
X011227Y035076D02*
X008985Y035076D01*
X008961Y034977D02*
X011253Y034977D01*
X011294Y034879D02*
X008910Y034879D01*
X008819Y034780D02*
X011387Y034780D01*
X011227Y035273D02*
X008964Y035273D01*
X008955Y035302D02*
X008923Y035365D01*
X008882Y035421D01*
X008832Y035471D01*
X008775Y035512D01*
X008712Y035544D01*
X008645Y035566D01*
X008576Y035577D01*
X008292Y035577D01*
X008292Y035179D01*
X008986Y035179D01*
X008977Y035235D01*
X008955Y035302D01*
X008918Y035371D02*
X011227Y035371D01*
X011227Y035470D02*
X008833Y035470D01*
X008631Y035568D02*
X011227Y035568D01*
X011227Y035667D02*
X008642Y035667D01*
X008634Y035663D02*
X008805Y035735D01*
X008937Y035866D01*
X009008Y036037D01*
X009008Y036223D01*
X008937Y036395D01*
X008805Y036526D01*
X008634Y036597D01*
X007854Y036597D01*
X007683Y036526D01*
X007551Y036395D01*
X007480Y036223D01*
X007480Y036037D01*
X007551Y035866D01*
X007683Y035735D01*
X007854Y035663D01*
X008634Y035663D01*
X008836Y035765D02*
X011227Y035765D01*
X011245Y035864D02*
X008935Y035864D01*
X008977Y035962D02*
X011286Y035962D01*
X011367Y036061D02*
X009008Y036061D01*
X009008Y036159D02*
X011518Y036159D01*
X011870Y036159D02*
X012518Y036159D01*
X012367Y036061D02*
X012020Y036061D01*
X012102Y035962D02*
X012286Y035962D01*
X012245Y035864D02*
X012143Y035864D01*
X012161Y035765D02*
X012227Y035765D01*
X012227Y035667D02*
X012161Y035667D01*
X012161Y035568D02*
X012227Y035568D01*
X012227Y035470D02*
X012161Y035470D01*
X012161Y035371D02*
X012227Y035371D01*
X012227Y035273D02*
X012161Y035273D01*
X012161Y035174D02*
X012227Y035174D01*
X012227Y035076D02*
X012161Y035076D01*
X012135Y034977D02*
X012253Y034977D01*
X012294Y034879D02*
X012094Y034879D01*
X012001Y034780D02*
X012387Y034780D01*
X013001Y034780D02*
X013420Y034780D01*
X013403Y034793D02*
X013460Y034751D01*
X013522Y034719D01*
X013589Y034698D01*
X013646Y034689D01*
X013646Y035382D01*
X013742Y035382D01*
X013742Y034689D01*
X013799Y034698D01*
X013865Y034719D01*
X013928Y034751D01*
X013985Y034793D01*
X014035Y034842D01*
X014076Y034899D01*
X014108Y034962D01*
X014130Y035029D01*
X014141Y035098D01*
X014141Y035382D01*
X013742Y035382D01*
X013742Y035479D01*
X013646Y035479D01*
X013646Y036172D01*
X013589Y036163D01*
X013522Y036141D01*
X013460Y036109D01*
X013403Y036068D01*
X013353Y036018D01*
X013312Y035961D01*
X013280Y035899D01*
X013258Y035832D01*
X013247Y035762D01*
X013247Y035479D01*
X013646Y035479D01*
X013646Y035382D01*
X013247Y035382D01*
X013247Y035098D01*
X013258Y035029D01*
X013280Y034962D01*
X013312Y034899D01*
X013353Y034842D01*
X013403Y034793D01*
X013327Y034879D02*
X013094Y034879D01*
X013135Y034977D02*
X013275Y034977D01*
X013251Y035076D02*
X013161Y035076D01*
X013161Y035174D02*
X013247Y035174D01*
X013247Y035273D02*
X013161Y035273D01*
X013161Y035371D02*
X013247Y035371D01*
X013161Y035470D02*
X013646Y035470D01*
X013742Y035470D02*
X019564Y035470D01*
X019564Y035546D02*
X019564Y034567D01*
X018577Y033580D01*
X006668Y033580D01*
X006668Y042372D01*
X006762Y042209D01*
X007013Y041958D01*
X007321Y041780D01*
X007665Y041688D01*
X008021Y041688D01*
X008364Y041780D01*
X008672Y041958D01*
X008924Y042209D01*
X009102Y042517D01*
X009194Y042861D01*
X009194Y043217D01*
X009102Y043560D01*
X008924Y043869D01*
X008672Y044120D01*
X008510Y044214D01*
X009699Y044214D01*
X009699Y040781D01*
X009698Y040690D01*
X009699Y040690D01*
X009699Y040689D01*
X009763Y040625D01*
X009827Y040561D01*
X009828Y040560D01*
X009918Y040560D01*
X014567Y040535D01*
X014658Y040534D01*
X014658Y040535D01*
X014659Y040535D01*
X014723Y040598D01*
X015784Y041635D01*
X015785Y041635D01*
X015849Y041699D01*
X015913Y041762D01*
X015913Y041763D01*
X015914Y041764D01*
X015914Y041854D01*
X015915Y041944D01*
X015914Y041945D01*
X015914Y044214D01*
X027648Y044214D01*
X027486Y044120D01*
X027234Y043869D01*
X027056Y043560D01*
X026964Y043217D01*
X026964Y042861D01*
X027056Y042517D01*
X027234Y042209D01*
X027486Y041958D01*
X027794Y041780D01*
X028137Y041688D01*
X028493Y041688D01*
X028837Y041780D01*
X029145Y041958D01*
X029396Y042209D01*
X029490Y042372D01*
X029490Y035955D01*
X022219Y035955D01*
X021394Y035130D01*
X021394Y033580D01*
X020511Y033580D01*
X020849Y033918D01*
X020899Y034040D01*
X020899Y034944D01*
X022831Y036875D01*
X025085Y036875D01*
X025206Y036926D01*
X025299Y037018D01*
X027166Y038885D01*
X027264Y038885D01*
X027539Y039161D01*
X027539Y039550D01*
X027264Y039825D01*
X026874Y039825D01*
X026599Y039550D01*
X026599Y039252D01*
X025087Y037740D01*
X025087Y037833D01*
X024949Y037971D01*
X024949Y038140D01*
X025087Y038278D01*
X025087Y038583D01*
X024871Y038798D01*
X024566Y038798D01*
X024351Y038583D01*
X024351Y038278D01*
X024489Y038140D01*
X024489Y037971D01*
X024351Y037833D01*
X024351Y037535D01*
X022628Y037535D01*
X022507Y037485D01*
X020382Y035360D01*
X020289Y035267D01*
X020239Y035146D01*
X020239Y034242D01*
X019577Y033580D01*
X019511Y033580D01*
X020174Y034243D01*
X020224Y034365D01*
X020224Y035344D01*
X023949Y039068D01*
X023999Y039190D01*
X023999Y040094D01*
X024833Y040927D01*
X024874Y040885D01*
X025264Y040885D01*
X025539Y041161D01*
X025539Y041550D01*
X025264Y041825D01*
X024874Y041825D01*
X024734Y041685D01*
X024728Y041685D01*
X024607Y041635D01*
X023482Y040510D01*
X023389Y040417D01*
X023339Y040296D01*
X023339Y039392D01*
X019707Y035760D01*
X019614Y035667D01*
X014141Y035667D01*
X014141Y035762D02*
X014130Y035832D01*
X014108Y035899D01*
X014076Y035961D01*
X014035Y036018D01*
X013985Y036068D01*
X013928Y036109D01*
X013865Y036141D01*
X013799Y036163D01*
X013742Y036172D01*
X013742Y035479D01*
X014141Y035479D01*
X014141Y035762D01*
X014140Y035765D02*
X019712Y035765D01*
X019614Y035667D02*
X019564Y035546D01*
X019573Y035568D02*
X014141Y035568D01*
X014141Y035371D02*
X019564Y035371D01*
X019564Y035273D02*
X014141Y035273D01*
X014141Y035174D02*
X019564Y035174D01*
X019564Y035076D02*
X014137Y035076D01*
X014113Y034977D02*
X019564Y034977D01*
X019564Y034879D02*
X014061Y034879D01*
X013968Y034780D02*
X016727Y034780D01*
X016971Y034091D02*
X019088Y034091D01*
X019186Y034189D02*
X017599Y034189D01*
X017697Y034288D02*
X019285Y034288D01*
X019383Y034386D02*
X017762Y034386D01*
X017762Y034485D02*
X019482Y034485D01*
X019564Y034583D02*
X017762Y034583D01*
X017738Y034682D02*
X019564Y034682D01*
X019564Y034780D02*
X017639Y034780D01*
X016873Y033992D02*
X018989Y033992D01*
X018891Y033894D02*
X016774Y033894D01*
X016774Y033893D02*
X016774Y033893D01*
X016668Y033795D02*
X018792Y033795D01*
X018694Y033697D02*
X008714Y033697D01*
X008292Y034780D02*
X008196Y034780D01*
X008196Y034879D02*
X008292Y034879D01*
X008292Y034977D02*
X008196Y034977D01*
X008196Y035076D02*
X008292Y035076D01*
X008292Y035273D02*
X008196Y035273D01*
X008196Y035371D02*
X008292Y035371D01*
X008292Y035470D02*
X008196Y035470D01*
X008196Y035568D02*
X008292Y035568D01*
X007857Y035568D02*
X006668Y035568D01*
X006668Y035470D02*
X007655Y035470D01*
X007570Y035371D02*
X006668Y035371D01*
X006668Y035273D02*
X007524Y035273D01*
X007652Y035765D02*
X006668Y035765D01*
X006668Y035667D02*
X007846Y035667D01*
X007553Y035864D02*
X006668Y035864D01*
X006668Y035962D02*
X007511Y035962D01*
X007480Y036061D02*
X006668Y036061D01*
X006668Y036159D02*
X007480Y036159D01*
X007495Y036258D02*
X006668Y036258D01*
X006668Y036356D02*
X007535Y036356D01*
X007611Y036455D02*
X006668Y036455D01*
X006668Y036553D02*
X007749Y036553D01*
X007854Y036663D02*
X008634Y036663D01*
X008805Y036735D01*
X008937Y036866D01*
X009008Y037037D01*
X009008Y037223D01*
X008937Y037395D01*
X008805Y037526D01*
X008634Y037597D01*
X007854Y037597D01*
X007683Y037526D01*
X007551Y037395D01*
X007480Y037223D01*
X007480Y037037D01*
X007551Y036866D01*
X007683Y036735D01*
X007854Y036663D01*
X007667Y036750D02*
X006668Y036750D01*
X006668Y036652D02*
X020599Y036652D01*
X020697Y036750D02*
X008821Y036750D01*
X008920Y036849D02*
X020796Y036849D01*
X020894Y036947D02*
X008970Y036947D01*
X009008Y037046D02*
X020993Y037046D01*
X021091Y037144D02*
X009008Y037144D01*
X008999Y037243D02*
X021190Y037243D01*
X021288Y037341D02*
X008959Y037341D01*
X008891Y037440D02*
X021387Y037440D01*
X021485Y037538D02*
X008776Y037538D01*
X008712Y037716D02*
X008775Y037748D01*
X008832Y037789D01*
X008882Y037839D01*
X008923Y037896D01*
X008955Y037959D01*
X008977Y038026D01*
X008986Y038082D01*
X008292Y038082D01*
X008292Y037683D01*
X008576Y037683D01*
X008645Y037694D01*
X008712Y037716D01*
X008750Y037735D02*
X021682Y037735D01*
X021584Y037637D02*
X006668Y037637D01*
X006668Y037735D02*
X007738Y037735D01*
X007713Y037748D02*
X007776Y037716D01*
X007842Y037694D01*
X007912Y037683D01*
X008196Y037683D01*
X008196Y038082D01*
X008292Y038082D01*
X008292Y038179D01*
X008196Y038179D01*
X008196Y038577D01*
X007912Y038577D01*
X007842Y038566D01*
X007776Y038544D01*
X007713Y038512D01*
X007656Y038471D01*
X007606Y038421D01*
X007565Y038365D01*
X007533Y038302D01*
X007511Y038235D01*
X007502Y038179D01*
X008196Y038179D01*
X008196Y038082D01*
X007502Y038082D01*
X007511Y038026D01*
X007533Y037959D01*
X007565Y037896D01*
X007606Y037839D01*
X007656Y037789D01*
X007713Y037748D01*
X007612Y037834D02*
X006668Y037834D01*
X006668Y037932D02*
X007546Y037932D01*
X007510Y038031D02*
X006668Y038031D01*
X006668Y038129D02*
X008196Y038129D01*
X008292Y038129D02*
X022076Y038129D01*
X021978Y038031D02*
X008977Y038031D01*
X008941Y037932D02*
X021879Y037932D01*
X021781Y037834D02*
X008876Y037834D01*
X008986Y038179D02*
X008292Y038179D01*
X008292Y038577D01*
X008576Y038577D01*
X008645Y038566D01*
X008712Y038544D01*
X008775Y038512D01*
X008832Y038471D01*
X008882Y038421D01*
X008923Y038365D01*
X008955Y038302D01*
X008977Y038235D01*
X008986Y038179D01*
X008978Y038228D02*
X022175Y038228D01*
X022273Y038326D02*
X008942Y038326D01*
X008878Y038425D02*
X022372Y038425D01*
X022470Y038523D02*
X008754Y038523D01*
X008634Y038663D02*
X008805Y038735D01*
X008937Y038866D01*
X009008Y039037D01*
X009008Y039223D01*
X008937Y039395D01*
X008805Y039526D01*
X008634Y039597D01*
X007854Y039597D01*
X007683Y039526D01*
X007551Y039395D01*
X007480Y039223D01*
X007480Y039037D01*
X007551Y038866D01*
X007683Y038735D01*
X007854Y038663D01*
X008634Y038663D01*
X008771Y038720D02*
X013808Y038720D01*
X013726Y038803D02*
X013941Y038587D01*
X014246Y038587D01*
X014462Y038803D01*
X014462Y038998D01*
X016639Y041175D01*
X017603Y041175D01*
X017766Y041012D01*
X018071Y041012D01*
X018287Y041228D01*
X018287Y041533D01*
X018071Y041748D01*
X017766Y041748D01*
X017653Y041635D01*
X016449Y041635D01*
X016314Y041501D01*
X014137Y039323D01*
X013941Y039323D01*
X013726Y039108D01*
X013726Y038803D01*
X013726Y038819D02*
X008890Y038819D01*
X008958Y038917D02*
X013726Y038917D01*
X013726Y039016D02*
X008999Y039016D01*
X009008Y039114D02*
X013732Y039114D01*
X013831Y039213D02*
X009008Y039213D01*
X008971Y039311D02*
X013929Y039311D01*
X014223Y039410D02*
X008921Y039410D01*
X008823Y039508D02*
X014322Y039508D01*
X014420Y039607D02*
X006668Y039607D01*
X006668Y039705D02*
X014519Y039705D01*
X014617Y039804D02*
X006668Y039804D01*
X006668Y039902D02*
X014716Y039902D01*
X014814Y040001D02*
X006668Y040001D01*
X006668Y040099D02*
X014913Y040099D01*
X015011Y040198D02*
X006668Y040198D01*
X006668Y040296D02*
X015110Y040296D01*
X015208Y040395D02*
X006668Y040395D01*
X006668Y040493D02*
X015307Y040493D01*
X015405Y040592D02*
X014717Y040592D01*
X014817Y040690D02*
X015504Y040690D01*
X015602Y040789D02*
X014918Y040789D01*
X015019Y040887D02*
X015701Y040887D01*
X015799Y040986D02*
X015119Y040986D01*
X015220Y041084D02*
X015898Y041084D01*
X015996Y041183D02*
X015321Y041183D01*
X015422Y041281D02*
X016095Y041281D01*
X016193Y041380D02*
X015522Y041380D01*
X015623Y041478D02*
X016292Y041478D01*
X016390Y041577D02*
X015724Y041577D01*
X015825Y041675D02*
X017693Y041675D01*
X017918Y041971D02*
X015914Y041971D01*
X015914Y042069D02*
X017854Y042069D01*
X017878Y042011D02*
X018024Y041864D01*
X018216Y041785D01*
X018422Y041785D01*
X018614Y041864D01*
X018760Y042011D01*
X018839Y042202D01*
X018839Y042409D01*
X018760Y042600D01*
X018614Y042746D01*
X018422Y042825D01*
X018216Y042825D01*
X018024Y042746D01*
X017878Y042600D01*
X017799Y042409D01*
X017799Y042202D01*
X017878Y042011D01*
X017813Y042168D02*
X015914Y042168D01*
X015914Y042266D02*
X017799Y042266D01*
X017799Y042365D02*
X015914Y042365D01*
X015914Y042463D02*
X017822Y042463D01*
X017862Y042562D02*
X015914Y042562D01*
X015914Y042660D02*
X017939Y042660D01*
X018055Y042759D02*
X015914Y042759D01*
X015914Y042857D02*
X021634Y042857D01*
X021634Y042955D02*
X021634Y042735D01*
X022015Y042355D01*
X022234Y042355D01*
X022234Y042955D01*
X021634Y042955D01*
X021634Y043055D02*
X022234Y043055D01*
X022234Y043655D01*
X022015Y043655D01*
X021634Y043274D01*
X021634Y043055D01*
X021634Y043153D02*
X015914Y043153D01*
X015914Y043251D02*
X021634Y043251D01*
X021710Y043350D02*
X015914Y043350D01*
X015914Y043448D02*
X021809Y043448D01*
X021907Y043547D02*
X015914Y043547D01*
X015914Y043645D02*
X022006Y043645D01*
X022234Y043645D02*
X022334Y043645D01*
X022334Y043655D02*
X022334Y043055D01*
X022234Y043055D01*
X022234Y042955D01*
X022334Y042955D01*
X022334Y043055D01*
X022934Y043055D01*
X022934Y043274D01*
X022554Y043655D01*
X022334Y043655D01*
X022334Y043547D02*
X022234Y043547D01*
X022234Y043448D02*
X022334Y043448D01*
X022334Y043350D02*
X022234Y043350D01*
X022234Y043251D02*
X022334Y043251D01*
X022334Y043153D02*
X022234Y043153D01*
X022234Y043054D02*
X015914Y043054D01*
X015914Y042956D02*
X022234Y042956D01*
X022234Y042857D02*
X022334Y042857D01*
X022334Y042955D02*
X022334Y042355D01*
X022554Y042355D01*
X022934Y042735D01*
X022934Y042955D01*
X022334Y042955D01*
X022334Y042956D02*
X026964Y042956D01*
X026964Y043054D02*
X022334Y043054D01*
X022334Y042759D02*
X022234Y042759D01*
X022234Y042660D02*
X022334Y042660D01*
X022334Y042562D02*
X022234Y042562D01*
X022234Y042463D02*
X022334Y042463D01*
X022334Y042365D02*
X022234Y042365D01*
X022005Y042365D02*
X018839Y042365D01*
X018839Y042266D02*
X027201Y042266D01*
X027144Y042365D02*
X022564Y042365D01*
X022662Y042463D02*
X027087Y042463D01*
X027044Y042562D02*
X022761Y042562D01*
X022859Y042660D02*
X027018Y042660D01*
X026992Y042759D02*
X022934Y042759D01*
X022934Y042857D02*
X026965Y042857D01*
X026964Y043153D02*
X022934Y043153D01*
X022934Y043251D02*
X026973Y043251D01*
X027000Y043350D02*
X022858Y043350D01*
X022760Y043448D02*
X027026Y043448D01*
X027053Y043547D02*
X022661Y043547D01*
X022563Y043645D02*
X027105Y043645D01*
X027162Y043744D02*
X015914Y043744D01*
X015914Y043842D02*
X027219Y043842D01*
X027306Y043941D02*
X015914Y043941D01*
X015914Y044039D02*
X027405Y044039D01*
X027516Y044138D02*
X015914Y044138D01*
X015694Y044138D02*
X009919Y044138D01*
X009919Y044205D02*
X015694Y044205D01*
X015694Y041855D01*
X014569Y040755D01*
X009919Y040780D01*
X009919Y044205D01*
X009919Y044039D02*
X015694Y044039D01*
X015694Y043941D02*
X009919Y043941D01*
X009919Y043842D02*
X015694Y043842D01*
X015694Y043744D02*
X009919Y043744D01*
X009919Y043645D02*
X015694Y043645D01*
X015694Y043547D02*
X009919Y043547D01*
X009919Y043448D02*
X015694Y043448D01*
X015694Y043350D02*
X009919Y043350D01*
X009919Y043251D02*
X015694Y043251D01*
X015694Y043153D02*
X009919Y043153D01*
X009919Y043054D02*
X015694Y043054D01*
X015694Y042956D02*
X009919Y042956D01*
X009919Y042857D02*
X015694Y042857D01*
X015694Y042759D02*
X009919Y042759D01*
X009919Y042660D02*
X015694Y042660D01*
X015694Y042562D02*
X009919Y042562D01*
X009919Y042463D02*
X015694Y042463D01*
X015694Y042365D02*
X009919Y042365D01*
X009919Y042266D02*
X015694Y042266D01*
X015694Y042168D02*
X009919Y042168D01*
X009919Y042069D02*
X015694Y042069D01*
X015694Y041971D02*
X009919Y041971D01*
X009919Y041872D02*
X015694Y041872D01*
X015611Y041774D02*
X009919Y041774D01*
X009919Y041675D02*
X015510Y041675D01*
X015409Y041577D02*
X009919Y041577D01*
X009919Y041478D02*
X015308Y041478D01*
X015208Y041380D02*
X009919Y041380D01*
X009919Y041281D02*
X015107Y041281D01*
X015006Y041183D02*
X009919Y041183D01*
X009919Y041084D02*
X014906Y041084D01*
X014805Y040986D02*
X009919Y040986D01*
X009919Y040887D02*
X014704Y040887D01*
X014603Y040789D02*
X009919Y040789D01*
X009699Y040789D02*
X006668Y040789D01*
X006668Y040887D02*
X009699Y040887D01*
X009699Y040986D02*
X006668Y040986D01*
X006668Y041084D02*
X009699Y041084D01*
X009699Y041183D02*
X006668Y041183D01*
X006668Y041281D02*
X009699Y041281D01*
X009699Y041380D02*
X006668Y041380D01*
X006668Y041478D02*
X009699Y041478D01*
X009699Y041577D02*
X006668Y041577D01*
X006668Y041675D02*
X009699Y041675D01*
X009699Y041774D02*
X008342Y041774D01*
X008524Y041872D02*
X009699Y041872D01*
X009699Y041971D02*
X008685Y041971D01*
X008784Y042069D02*
X009699Y042069D01*
X009699Y042168D02*
X008882Y042168D01*
X008957Y042266D02*
X009699Y042266D01*
X009699Y042365D02*
X009014Y042365D01*
X009071Y042463D02*
X009699Y042463D01*
X009699Y042562D02*
X009114Y042562D01*
X009140Y042660D02*
X009699Y042660D01*
X009699Y042759D02*
X009166Y042759D01*
X009193Y042857D02*
X009699Y042857D01*
X009699Y042956D02*
X009194Y042956D01*
X009194Y043054D02*
X009699Y043054D01*
X009699Y043153D02*
X009194Y043153D01*
X009185Y043251D02*
X009699Y043251D01*
X009699Y043350D02*
X009158Y043350D01*
X009132Y043448D02*
X009699Y043448D01*
X009699Y043547D02*
X009105Y043547D01*
X009053Y043645D02*
X009699Y043645D01*
X009699Y043744D02*
X008996Y043744D01*
X008939Y043842D02*
X009699Y043842D01*
X009699Y043941D02*
X008852Y043941D01*
X008753Y044039D02*
X009699Y044039D01*
X009699Y044138D02*
X008642Y044138D01*
X007344Y041774D02*
X006668Y041774D01*
X006668Y041872D02*
X007161Y041872D01*
X007000Y041971D02*
X006668Y041971D01*
X006668Y042069D02*
X006902Y042069D01*
X006803Y042168D02*
X006668Y042168D01*
X006668Y042266D02*
X006729Y042266D01*
X006672Y042365D02*
X006668Y042365D01*
X006668Y040690D02*
X009698Y040690D01*
X009796Y040592D02*
X006668Y040592D01*
X006668Y039508D02*
X007665Y039508D01*
X007566Y039410D02*
X006668Y039410D01*
X006668Y039311D02*
X007517Y039311D01*
X007480Y039213D02*
X006668Y039213D01*
X006668Y039114D02*
X007480Y039114D01*
X007489Y039016D02*
X006668Y039016D01*
X006668Y038917D02*
X007530Y038917D01*
X007598Y038819D02*
X006668Y038819D01*
X006668Y038720D02*
X007717Y038720D01*
X007734Y038523D02*
X006668Y038523D01*
X006668Y038425D02*
X007610Y038425D01*
X007546Y038326D02*
X006668Y038326D01*
X006668Y038228D02*
X007510Y038228D01*
X008196Y038228D02*
X008292Y038228D01*
X008292Y038326D02*
X008196Y038326D01*
X008196Y038425D02*
X008292Y038425D01*
X008292Y038523D02*
X008196Y038523D01*
X008196Y038031D02*
X008292Y038031D01*
X008292Y037932D02*
X008196Y037932D01*
X008196Y037834D02*
X008292Y037834D01*
X008292Y037735D02*
X008196Y037735D01*
X007712Y037538D02*
X006668Y037538D01*
X006668Y037440D02*
X007596Y037440D01*
X007529Y037341D02*
X006668Y037341D01*
X006668Y037243D02*
X007488Y037243D01*
X007480Y037144D02*
X006668Y037144D01*
X006668Y037046D02*
X007480Y037046D01*
X007518Y036947D02*
X006668Y036947D01*
X006668Y036849D02*
X007568Y036849D01*
X008739Y036553D02*
X020500Y036553D01*
X020402Y036455D02*
X008876Y036455D01*
X008952Y036356D02*
X020303Y036356D01*
X020205Y036258D02*
X008993Y036258D01*
X007821Y034583D02*
X006668Y034583D01*
X006668Y034485D02*
X007641Y034485D01*
X007548Y034386D02*
X006668Y034386D01*
X006668Y034288D02*
X007507Y034288D01*
X007480Y034189D02*
X006668Y034189D01*
X006668Y034091D02*
X007480Y034091D01*
X007499Y033992D02*
X006668Y033992D01*
X006668Y033894D02*
X007540Y033894D01*
X007622Y033795D02*
X006668Y033795D01*
X006668Y033697D02*
X007774Y033697D01*
X006668Y033598D02*
X018595Y033598D01*
X019529Y033598D02*
X019595Y033598D01*
X019627Y033697D02*
X019694Y033697D01*
X019726Y033795D02*
X019792Y033795D01*
X019824Y033894D02*
X019891Y033894D01*
X019923Y033992D02*
X019989Y033992D01*
X020021Y034091D02*
X020088Y034091D01*
X020120Y034189D02*
X020186Y034189D01*
X020192Y034288D02*
X020239Y034288D01*
X020239Y034386D02*
X020224Y034386D01*
X020224Y034485D02*
X020239Y034485D01*
X020239Y034583D02*
X020224Y034583D01*
X020224Y034682D02*
X020239Y034682D01*
X020239Y034780D02*
X020224Y034780D01*
X020224Y034879D02*
X020239Y034879D01*
X020239Y034977D02*
X020224Y034977D01*
X020224Y035076D02*
X020239Y035076D01*
X020251Y035174D02*
X020224Y035174D01*
X020224Y035273D02*
X020295Y035273D01*
X020252Y035371D02*
X020393Y035371D01*
X020350Y035470D02*
X020492Y035470D01*
X020449Y035568D02*
X020590Y035568D01*
X020547Y035667D02*
X020689Y035667D01*
X020646Y035765D02*
X020787Y035765D01*
X020744Y035864D02*
X020886Y035864D01*
X020843Y035962D02*
X020984Y035962D01*
X020941Y036061D02*
X021083Y036061D01*
X021040Y036159D02*
X021181Y036159D01*
X021138Y036258D02*
X021280Y036258D01*
X021237Y036356D02*
X021378Y036356D01*
X021335Y036455D02*
X021477Y036455D01*
X021434Y036553D02*
X021575Y036553D01*
X021532Y036652D02*
X021674Y036652D01*
X021631Y036750D02*
X021772Y036750D01*
X021729Y036849D02*
X021871Y036849D01*
X021828Y036947D02*
X021969Y036947D01*
X021926Y037046D02*
X022068Y037046D01*
X022025Y037144D02*
X022166Y037144D01*
X022123Y037243D02*
X022265Y037243D01*
X022222Y037341D02*
X022363Y037341D01*
X022320Y037440D02*
X022462Y037440D01*
X022419Y037538D02*
X024351Y037538D01*
X024351Y037637D02*
X022517Y037637D01*
X022616Y037735D02*
X024351Y037735D01*
X024352Y037834D02*
X022714Y037834D01*
X022813Y037932D02*
X024450Y037932D01*
X024489Y038031D02*
X022911Y038031D01*
X023010Y038129D02*
X024489Y038129D01*
X024401Y038228D02*
X023108Y038228D01*
X023207Y038326D02*
X024351Y038326D01*
X024351Y038425D02*
X023305Y038425D01*
X023404Y038523D02*
X024351Y038523D01*
X024390Y038622D02*
X023502Y038622D01*
X023601Y038720D02*
X024488Y038720D01*
X024744Y039016D02*
X023896Y039016D01*
X023968Y039114D02*
X024660Y039114D01*
X024671Y039089D02*
X024803Y038957D01*
X024976Y038885D01*
X025163Y038885D01*
X025335Y038957D01*
X025468Y039089D01*
X025539Y039262D01*
X025539Y039449D01*
X025468Y039622D01*
X025335Y039754D01*
X025163Y039825D01*
X024976Y039825D01*
X024803Y039754D01*
X024671Y039622D01*
X024599Y039449D01*
X024599Y039262D01*
X024671Y039089D01*
X024619Y039213D02*
X023999Y039213D01*
X023999Y039311D02*
X024599Y039311D01*
X024599Y039410D02*
X023999Y039410D01*
X023999Y039508D02*
X024624Y039508D01*
X024665Y039607D02*
X023999Y039607D01*
X023999Y039705D02*
X024755Y039705D01*
X024924Y039804D02*
X023999Y039804D01*
X023999Y039902D02*
X029490Y039902D01*
X029490Y039804D02*
X027285Y039804D01*
X027384Y039705D02*
X029490Y039705D01*
X029490Y039607D02*
X027482Y039607D01*
X027539Y039508D02*
X029490Y039508D01*
X029490Y039410D02*
X027539Y039410D01*
X027539Y039311D02*
X029490Y039311D01*
X029490Y039213D02*
X027539Y039213D01*
X027493Y039114D02*
X029490Y039114D01*
X029490Y039016D02*
X027394Y039016D01*
X027296Y038917D02*
X029490Y038917D01*
X029490Y038819D02*
X027099Y038819D01*
X027001Y038720D02*
X029490Y038720D01*
X029490Y038622D02*
X026902Y038622D01*
X026804Y038523D02*
X029490Y038523D01*
X029490Y038425D02*
X026705Y038425D01*
X026607Y038326D02*
X029490Y038326D01*
X029490Y038228D02*
X026508Y038228D01*
X026410Y038129D02*
X029490Y038129D01*
X029490Y038031D02*
X026311Y038031D01*
X026213Y037932D02*
X029490Y037932D01*
X029490Y037834D02*
X026114Y037834D01*
X026016Y037735D02*
X029490Y037735D01*
X029490Y037637D02*
X025917Y037637D01*
X025819Y037538D02*
X029490Y037538D01*
X029490Y037440D02*
X025720Y037440D01*
X025622Y037341D02*
X029490Y037341D01*
X029490Y037243D02*
X025523Y037243D01*
X025425Y037144D02*
X029490Y037144D01*
X029490Y037046D02*
X025326Y037046D01*
X025228Y036947D02*
X029490Y036947D01*
X029490Y036849D02*
X022804Y036849D01*
X022706Y036750D02*
X029490Y036750D01*
X029490Y036652D02*
X022607Y036652D01*
X022509Y036553D02*
X029490Y036553D01*
X029490Y036455D02*
X022410Y036455D01*
X022312Y036356D02*
X029490Y036356D01*
X029490Y036258D02*
X022213Y036258D01*
X022115Y036159D02*
X029490Y036159D01*
X029490Y036061D02*
X022016Y036061D01*
X021918Y035962D02*
X029490Y035962D01*
X026656Y039607D02*
X025474Y039607D01*
X025514Y039508D02*
X026599Y039508D01*
X026599Y039410D02*
X025539Y039410D01*
X025539Y039311D02*
X026599Y039311D01*
X026560Y039213D02*
X025519Y039213D01*
X025478Y039114D02*
X026461Y039114D01*
X026363Y039016D02*
X025394Y039016D01*
X025240Y038917D02*
X026264Y038917D01*
X026166Y038819D02*
X023699Y038819D01*
X023798Y038917D02*
X024898Y038917D01*
X024949Y038720D02*
X026067Y038720D01*
X025969Y038622D02*
X025048Y038622D01*
X025087Y038523D02*
X025870Y038523D01*
X025772Y038425D02*
X025087Y038425D01*
X025087Y038326D02*
X025673Y038326D01*
X025575Y038228D02*
X025037Y038228D01*
X024949Y038129D02*
X025476Y038129D01*
X025378Y038031D02*
X024949Y038031D01*
X024987Y037932D02*
X025279Y037932D01*
X025181Y037834D02*
X025086Y037834D01*
X025384Y039705D02*
X026755Y039705D01*
X026853Y039804D02*
X025214Y039804D01*
X024497Y040592D02*
X029490Y040592D01*
X029490Y040690D02*
X024596Y040690D01*
X024694Y040789D02*
X029490Y040789D01*
X029490Y040887D02*
X025266Y040887D01*
X025364Y040986D02*
X026802Y040986D01*
X026883Y040905D02*
X026619Y041169D01*
X026619Y041305D01*
X027019Y041305D01*
X027119Y041305D01*
X027119Y040905D01*
X027256Y040905D01*
X027519Y041169D01*
X027519Y041305D01*
X027119Y041305D01*
X027119Y041405D01*
X027519Y041405D01*
X027519Y041542D01*
X027256Y041805D01*
X027119Y041805D01*
X027119Y041405D01*
X027019Y041405D01*
X027019Y041305D01*
X027019Y040905D01*
X026883Y040905D01*
X027019Y040986D02*
X027119Y040986D01*
X027119Y041084D02*
X027019Y041084D01*
X027019Y041183D02*
X027119Y041183D01*
X027119Y041281D02*
X027019Y041281D01*
X027019Y041380D02*
X025539Y041380D01*
X025539Y041478D02*
X026619Y041478D01*
X026619Y041542D02*
X026619Y041405D01*
X027019Y041405D01*
X027019Y041805D01*
X026883Y041805D01*
X026619Y041542D01*
X026654Y041577D02*
X025512Y041577D01*
X025414Y041675D02*
X026753Y041675D01*
X026851Y041774D02*
X025315Y041774D01*
X024823Y041774D02*
X015914Y041774D01*
X015914Y041872D02*
X018016Y041872D01*
X018144Y041675D02*
X024704Y041675D01*
X024549Y041577D02*
X022653Y041577D01*
X022664Y041573D02*
X022418Y041675D01*
X022151Y041675D01*
X021905Y041573D01*
X021716Y041384D01*
X021614Y041138D01*
X021614Y040871D01*
X021716Y040625D01*
X021905Y040437D01*
X022151Y040335D01*
X022418Y040335D01*
X022664Y040437D01*
X022852Y040625D01*
X022954Y040871D01*
X022954Y041138D01*
X022852Y041384D01*
X022664Y041573D01*
X022758Y041478D02*
X024450Y041478D01*
X024352Y041380D02*
X022854Y041380D01*
X022895Y041281D02*
X024253Y041281D01*
X024155Y041183D02*
X022936Y041183D01*
X022954Y041084D02*
X024056Y041084D01*
X023958Y040986D02*
X022954Y040986D01*
X022954Y040887D02*
X023859Y040887D01*
X023761Y040789D02*
X022920Y040789D01*
X022879Y040690D02*
X023662Y040690D01*
X023564Y040592D02*
X022819Y040592D01*
X022721Y040493D02*
X023465Y040493D01*
X023380Y040395D02*
X022563Y040395D01*
X022005Y040395D02*
X015859Y040395D01*
X015957Y040493D02*
X021848Y040493D01*
X021749Y040592D02*
X016056Y040592D01*
X016154Y040690D02*
X021689Y040690D01*
X021648Y040789D02*
X016253Y040789D01*
X016351Y040887D02*
X021614Y040887D01*
X021614Y040986D02*
X016450Y040986D01*
X016548Y041084D02*
X017694Y041084D01*
X018144Y041084D02*
X021614Y041084D01*
X021633Y041183D02*
X018242Y041183D01*
X018287Y041281D02*
X021674Y041281D01*
X021715Y041380D02*
X018287Y041380D01*
X018287Y041478D02*
X021811Y041478D01*
X021915Y041577D02*
X018243Y041577D01*
X018621Y041872D02*
X027634Y041872D01*
X027473Y041971D02*
X018720Y041971D01*
X018784Y042069D02*
X027374Y042069D01*
X027276Y042168D02*
X018825Y042168D01*
X018816Y042463D02*
X021906Y042463D01*
X021808Y042562D02*
X018776Y042562D01*
X018699Y042660D02*
X021709Y042660D01*
X021634Y042759D02*
X018583Y042759D01*
X015760Y040296D02*
X023339Y040296D01*
X023339Y040198D02*
X015662Y040198D01*
X015563Y040099D02*
X023339Y040099D01*
X023339Y040001D02*
X015465Y040001D01*
X015366Y039902D02*
X023339Y039902D01*
X023339Y039804D02*
X015268Y039804D01*
X015169Y039705D02*
X023339Y039705D01*
X023339Y039607D02*
X015071Y039607D01*
X014972Y039508D02*
X023339Y039508D01*
X023339Y039410D02*
X014874Y039410D01*
X014775Y039311D02*
X023258Y039311D01*
X023160Y039213D02*
X014677Y039213D01*
X014578Y039114D02*
X023061Y039114D01*
X022963Y039016D02*
X014480Y039016D01*
X014462Y038917D02*
X022864Y038917D01*
X022766Y038819D02*
X014462Y038819D01*
X014380Y038720D02*
X022667Y038720D01*
X022569Y038622D02*
X014281Y038622D01*
X013907Y038622D02*
X006668Y038622D01*
X009827Y040561D02*
X009827Y040561D01*
X012870Y036159D02*
X013578Y036159D01*
X013646Y036159D02*
X013742Y036159D01*
X013810Y036159D02*
X020106Y036159D01*
X020008Y036061D02*
X013992Y036061D01*
X014075Y035962D02*
X019909Y035962D01*
X019811Y035864D02*
X014119Y035864D01*
X013742Y035864D02*
X013646Y035864D01*
X013646Y035962D02*
X013742Y035962D01*
X013742Y036061D02*
X013646Y036061D01*
X013396Y036061D02*
X013020Y036061D01*
X013102Y035962D02*
X013313Y035962D01*
X013269Y035864D02*
X013143Y035864D01*
X013161Y035765D02*
X013248Y035765D01*
X013247Y035667D02*
X013161Y035667D01*
X013161Y035568D02*
X013247Y035568D01*
X013646Y035568D02*
X013742Y035568D01*
X013742Y035667D02*
X013646Y035667D01*
X013646Y035765D02*
X013742Y035765D01*
X013742Y035371D02*
X013646Y035371D01*
X013646Y035273D02*
X013742Y035273D01*
X013742Y035174D02*
X013646Y035174D01*
X013646Y035076D02*
X013742Y035076D01*
X013742Y034977D02*
X013646Y034977D01*
X013646Y034879D02*
X013742Y034879D01*
X013742Y034780D02*
X013646Y034780D01*
X020529Y033598D02*
X021394Y033598D01*
X021394Y033697D02*
X020627Y033697D01*
X020726Y033795D02*
X021394Y033795D01*
X021394Y033894D02*
X020824Y033894D01*
X020879Y033992D02*
X021394Y033992D01*
X021394Y034091D02*
X020899Y034091D01*
X020899Y034189D02*
X021394Y034189D01*
X021394Y034288D02*
X020899Y034288D01*
X020899Y034386D02*
X021394Y034386D01*
X021394Y034485D02*
X020899Y034485D01*
X020899Y034583D02*
X021394Y034583D01*
X021394Y034682D02*
X020899Y034682D01*
X020899Y034780D02*
X021394Y034780D01*
X021394Y034879D02*
X020899Y034879D01*
X020933Y034977D02*
X021394Y034977D01*
X021394Y035076D02*
X021031Y035076D01*
X021130Y035174D02*
X021438Y035174D01*
X021537Y035273D02*
X021228Y035273D01*
X021327Y035371D02*
X021635Y035371D01*
X021734Y035470D02*
X021425Y035470D01*
X021524Y035568D02*
X021832Y035568D01*
X021931Y035667D02*
X021622Y035667D01*
X021721Y035765D02*
X022029Y035765D01*
X022128Y035864D02*
X021819Y035864D01*
X023999Y040001D02*
X029490Y040001D01*
X029490Y040099D02*
X024005Y040099D01*
X024103Y040198D02*
X029490Y040198D01*
X029490Y040296D02*
X024202Y040296D01*
X024300Y040395D02*
X029490Y040395D01*
X029490Y040493D02*
X024399Y040493D01*
X024793Y040887D02*
X024872Y040887D01*
X025463Y041084D02*
X026704Y041084D01*
X026619Y041183D02*
X025539Y041183D01*
X025539Y041281D02*
X026619Y041281D01*
X027019Y041478D02*
X027119Y041478D01*
X027119Y041380D02*
X029490Y041380D01*
X029490Y041478D02*
X027519Y041478D01*
X027484Y041577D02*
X029490Y041577D01*
X029490Y041675D02*
X027385Y041675D01*
X027287Y041774D02*
X027816Y041774D01*
X027519Y041281D02*
X029490Y041281D01*
X029490Y041183D02*
X027519Y041183D01*
X027435Y041084D02*
X029490Y041084D01*
X029490Y040986D02*
X027336Y040986D01*
X027119Y041577D02*
X027019Y041577D01*
X027019Y041675D02*
X027119Y041675D01*
X027119Y041774D02*
X027019Y041774D01*
X028814Y041774D02*
X029490Y041774D01*
X029490Y041872D02*
X028997Y041872D01*
X029158Y041971D02*
X029490Y041971D01*
X029490Y042069D02*
X029256Y042069D01*
X029355Y042168D02*
X029490Y042168D01*
X029490Y042266D02*
X029429Y042266D01*
X029486Y042365D02*
X029490Y042365D01*
D24*
X014185Y030144D02*
X014188Y030234D01*
X014188Y030233D02*
X014221Y030235D01*
X014253Y030240D01*
X014285Y030249D01*
X014316Y030262D01*
X014344Y030279D01*
X014371Y030299D01*
X014395Y030321D01*
X014416Y030347D01*
X014434Y030375D01*
X014449Y030404D01*
X014460Y030435D01*
X014467Y030468D01*
X014471Y030501D01*
X014470Y030534D01*
X014466Y030567D01*
X014458Y030599D01*
X014445Y030630D01*
X014430Y030659D01*
X014411Y030686D01*
X014389Y030711D01*
X014364Y030733D01*
X014337Y030752D01*
X014308Y030767D01*
X014277Y030780D01*
X014245Y030788D01*
X014212Y030792D01*
X014179Y030793D01*
X014146Y030789D01*
X014113Y030782D01*
X014082Y030771D01*
X014053Y030756D01*
X014025Y030738D01*
X013999Y030717D01*
X013977Y030693D01*
X013957Y030666D01*
X013940Y030638D01*
X013927Y030607D01*
X013918Y030575D01*
X013913Y030543D01*
X013911Y030510D01*
X013822Y030507D01*
X013821Y030507D01*
X013822Y030544D01*
X013827Y030581D01*
X013836Y030617D01*
X013848Y030653D01*
X013864Y030687D01*
X013883Y030719D01*
X013906Y030749D01*
X013931Y030776D01*
X013959Y030801D01*
X013989Y030823D01*
X014021Y030842D01*
X014055Y030857D01*
X014091Y030869D01*
X014127Y030877D01*
X014164Y030882D01*
X014201Y030883D01*
X014239Y030880D01*
X014275Y030873D01*
X014311Y030863D01*
X014346Y030849D01*
X014379Y030832D01*
X014410Y030811D01*
X014439Y030787D01*
X014465Y030761D01*
X014489Y030732D01*
X014510Y030701D01*
X014527Y030668D01*
X014541Y030633D01*
X014551Y030597D01*
X014558Y030561D01*
X014561Y030523D01*
X014560Y030486D01*
X014555Y030449D01*
X014547Y030413D01*
X014535Y030377D01*
X014520Y030343D01*
X014501Y030311D01*
X014479Y030281D01*
X014454Y030253D01*
X014427Y030228D01*
X014397Y030205D01*
X014365Y030186D01*
X014331Y030170D01*
X014295Y030158D01*
X014259Y030149D01*
X014222Y030144D01*
X014185Y030143D01*
X014185Y030152D01*
X014222Y030153D01*
X014259Y030158D01*
X014295Y030167D01*
X014330Y030180D01*
X014364Y030196D01*
X014396Y030216D01*
X014425Y030238D01*
X014452Y030264D01*
X014476Y030292D01*
X014498Y030323D01*
X014516Y030355D01*
X014530Y030389D01*
X014541Y030425D01*
X014548Y030462D01*
X014552Y030499D01*
X014551Y030536D01*
X014547Y030573D01*
X014539Y030609D01*
X014527Y030644D01*
X014512Y030678D01*
X014493Y030711D01*
X014471Y030741D01*
X014446Y030768D01*
X014419Y030793D01*
X014389Y030815D01*
X014356Y030834D01*
X014322Y030849D01*
X014287Y030861D01*
X014251Y030869D01*
X014214Y030873D01*
X014177Y030874D01*
X014140Y030870D01*
X014103Y030863D01*
X014067Y030852D01*
X014033Y030838D01*
X014001Y030820D01*
X013970Y030798D01*
X013942Y030774D01*
X013916Y030747D01*
X013894Y030718D01*
X013874Y030686D01*
X013858Y030652D01*
X013845Y030617D01*
X013836Y030581D01*
X013831Y030544D01*
X013830Y030507D01*
X013839Y030507D01*
X013840Y030544D01*
X013846Y030581D01*
X013855Y030617D01*
X013868Y030652D01*
X013884Y030685D01*
X013904Y030717D01*
X013927Y030746D01*
X013953Y030772D01*
X013981Y030796D01*
X014012Y030816D01*
X014045Y030833D01*
X014080Y030847D01*
X014115Y030857D01*
X014152Y030863D01*
X014189Y030865D01*
X014226Y030863D01*
X014263Y030858D01*
X014299Y030848D01*
X014333Y030835D01*
X014366Y030818D01*
X014398Y030798D01*
X014426Y030775D01*
X014453Y030748D01*
X014476Y030720D01*
X014496Y030688D01*
X014513Y030655D01*
X014526Y030621D01*
X014536Y030585D01*
X014541Y030548D01*
X014543Y030511D01*
X014541Y030474D01*
X014535Y030437D01*
X014525Y030402D01*
X014511Y030367D01*
X014494Y030334D01*
X014474Y030303D01*
X014450Y030275D01*
X014424Y030249D01*
X014395Y030226D01*
X014363Y030206D01*
X014330Y030190D01*
X014295Y030177D01*
X014259Y030168D01*
X014222Y030162D01*
X014185Y030161D01*
X014186Y030170D01*
X014222Y030171D01*
X014258Y030177D01*
X014293Y030185D01*
X014326Y030198D01*
X014359Y030214D01*
X014389Y030233D01*
X014418Y030256D01*
X014444Y030281D01*
X014467Y030309D01*
X014487Y030339D01*
X014503Y030371D01*
X014516Y030405D01*
X014526Y030439D01*
X014532Y030475D01*
X014534Y030511D01*
X014532Y030547D01*
X014527Y030583D01*
X014518Y030618D01*
X014505Y030652D01*
X014488Y030684D01*
X014469Y030714D01*
X014446Y030742D01*
X014420Y030768D01*
X014392Y030791D01*
X014362Y030810D01*
X014330Y030827D01*
X014296Y030840D01*
X014261Y030849D01*
X014225Y030854D01*
X014189Y030856D01*
X014153Y030854D01*
X014117Y030848D01*
X014083Y030838D01*
X014049Y030825D01*
X014017Y030809D01*
X013987Y030789D01*
X013959Y030766D01*
X013934Y030740D01*
X013911Y030711D01*
X013892Y030681D01*
X013876Y030648D01*
X013863Y030615D01*
X013855Y030580D01*
X013849Y030544D01*
X013848Y030508D01*
X013857Y030508D01*
X013858Y030544D01*
X013864Y030579D01*
X013873Y030614D01*
X013885Y030648D01*
X013902Y030680D01*
X013921Y030710D01*
X013944Y030738D01*
X013970Y030763D01*
X013998Y030786D01*
X014028Y030805D01*
X014061Y030821D01*
X014095Y030833D01*
X014130Y030841D01*
X014165Y030846D01*
X014201Y030847D01*
X014237Y030844D01*
X014272Y030837D01*
X014307Y030826D01*
X014340Y030812D01*
X014371Y030794D01*
X014400Y030773D01*
X014427Y030749D01*
X014451Y030722D01*
X014472Y030693D01*
X014490Y030662D01*
X014504Y030629D01*
X014515Y030594D01*
X014522Y030559D01*
X014525Y030523D01*
X014524Y030487D01*
X014519Y030452D01*
X014511Y030417D01*
X014499Y030383D01*
X014483Y030350D01*
X014464Y030320D01*
X014441Y030292D01*
X014416Y030266D01*
X014388Y030243D01*
X014358Y030224D01*
X014326Y030207D01*
X014292Y030195D01*
X014257Y030186D01*
X014222Y030180D01*
X014186Y030179D01*
X014186Y030188D01*
X014221Y030189D01*
X014256Y030195D01*
X014290Y030203D01*
X014322Y030216D01*
X014354Y030232D01*
X014383Y030251D01*
X014410Y030273D01*
X014435Y030298D01*
X014456Y030325D01*
X014475Y030355D01*
X014490Y030386D01*
X014502Y030419D01*
X014510Y030453D01*
X014515Y030488D01*
X014516Y030523D01*
X014513Y030558D01*
X014506Y030592D01*
X014496Y030626D01*
X014482Y030658D01*
X014465Y030688D01*
X014444Y030717D01*
X014421Y030743D01*
X014395Y030766D01*
X014366Y030787D01*
X014336Y030804D01*
X014304Y030818D01*
X014270Y030828D01*
X014236Y030835D01*
X014201Y030838D01*
X014166Y030837D01*
X014131Y030832D01*
X014097Y030824D01*
X014064Y030812D01*
X014033Y030797D01*
X014003Y030778D01*
X013976Y030757D01*
X013951Y030732D01*
X013929Y030705D01*
X013910Y030676D01*
X013894Y030644D01*
X013881Y030612D01*
X013873Y030578D01*
X013867Y030543D01*
X013866Y030508D01*
X013875Y030508D01*
X013876Y030543D01*
X013882Y030578D01*
X013891Y030611D01*
X013903Y030644D01*
X013919Y030675D01*
X013939Y030704D01*
X013961Y030730D01*
X013987Y030754D01*
X014014Y030775D01*
X014044Y030793D01*
X014076Y030807D01*
X014109Y030818D01*
X014143Y030825D01*
X014178Y030829D01*
X014213Y030828D01*
X014247Y030824D01*
X014281Y030816D01*
X014314Y030804D01*
X014345Y030789D01*
X014375Y030770D01*
X014402Y030748D01*
X014426Y030724D01*
X014448Y030697D01*
X014467Y030667D01*
X014482Y030636D01*
X014494Y030603D01*
X014502Y030569D01*
X014506Y030535D01*
X014507Y030500D01*
X014503Y030465D01*
X014496Y030431D01*
X014485Y030398D01*
X014471Y030366D01*
X014453Y030336D01*
X014432Y030309D01*
X014408Y030283D01*
X014382Y030261D01*
X014353Y030241D01*
X014322Y030225D01*
X014289Y030213D01*
X014256Y030204D01*
X014221Y030198D01*
X014186Y030197D01*
X014187Y030206D01*
X014220Y030207D01*
X014254Y030213D01*
X014287Y030221D01*
X014318Y030234D01*
X014348Y030249D01*
X014376Y030268D01*
X014402Y030290D01*
X014425Y030315D01*
X014446Y030342D01*
X014463Y030371D01*
X014477Y030401D01*
X014488Y030434D01*
X014494Y030467D01*
X014498Y030500D01*
X014497Y030534D01*
X014493Y030568D01*
X014485Y030601D01*
X014474Y030632D01*
X014459Y030663D01*
X014441Y030691D01*
X014420Y030718D01*
X014396Y030742D01*
X014369Y030763D01*
X014341Y030781D01*
X014310Y030796D01*
X014279Y030807D01*
X014246Y030815D01*
X014212Y030819D01*
X014178Y030820D01*
X014145Y030816D01*
X014112Y030810D01*
X014079Y030799D01*
X014049Y030785D01*
X014020Y030768D01*
X013993Y030747D01*
X013968Y030724D01*
X013946Y030698D01*
X013927Y030670D01*
X013912Y030640D01*
X013899Y030609D01*
X013891Y030576D01*
X013885Y030542D01*
X013884Y030509D01*
X013893Y030509D01*
X013894Y030543D01*
X013900Y030576D01*
X013909Y030608D01*
X013921Y030639D01*
X013937Y030669D01*
X013956Y030697D01*
X013978Y030722D01*
X014003Y030744D01*
X014031Y030764D01*
X014060Y030781D01*
X014091Y030794D01*
X014123Y030803D01*
X014156Y030809D01*
X014190Y030811D01*
X014223Y030809D01*
X014256Y030804D01*
X014289Y030795D01*
X014320Y030782D01*
X014349Y030766D01*
X014377Y030746D01*
X014402Y030724D01*
X014424Y030699D01*
X014444Y030671D01*
X014460Y030642D01*
X014473Y030611D01*
X014482Y030578D01*
X014487Y030545D01*
X014489Y030512D01*
X014487Y030478D01*
X014481Y030445D01*
X014472Y030413D01*
X014459Y030382D01*
X014442Y030353D01*
X014422Y030325D01*
X014400Y030300D01*
X014375Y030278D01*
X014347Y030259D01*
X014317Y030243D01*
X014286Y030231D01*
X014254Y030222D01*
X014221Y030216D01*
X014187Y030215D01*
X014187Y030224D01*
X014221Y030226D01*
X014254Y030231D01*
X014286Y030240D01*
X014317Y030253D01*
X014346Y030269D01*
X014373Y030288D01*
X014398Y030311D01*
X014419Y030336D01*
X014438Y030364D01*
X014454Y030393D01*
X014466Y030424D01*
X014474Y030456D01*
X014479Y030490D01*
X014480Y030523D01*
X014477Y030556D01*
X014470Y030589D01*
X014459Y030620D01*
X014445Y030651D01*
X014428Y030679D01*
X014407Y030705D01*
X014383Y030729D01*
X014357Y030750D01*
X014329Y030767D01*
X014298Y030781D01*
X014267Y030792D01*
X014234Y030799D01*
X014201Y030802D01*
X014168Y030801D01*
X014134Y030796D01*
X014102Y030788D01*
X014071Y030776D01*
X014042Y030760D01*
X014014Y030741D01*
X013989Y030720D01*
X013966Y030695D01*
X013947Y030668D01*
X013931Y030639D01*
X013918Y030608D01*
X013909Y030576D01*
X013904Y030543D01*
X013902Y030509D01*
X013714Y030507D02*
X013624Y030510D01*
X013625Y030510D02*
X013623Y030543D01*
X013618Y030575D01*
X013609Y030607D01*
X013596Y030638D01*
X013579Y030666D01*
X013559Y030693D01*
X013537Y030717D01*
X013511Y030738D01*
X013483Y030756D01*
X013454Y030771D01*
X013423Y030782D01*
X013390Y030789D01*
X013357Y030793D01*
X013324Y030792D01*
X013291Y030788D01*
X013259Y030780D01*
X013228Y030767D01*
X013199Y030752D01*
X013172Y030733D01*
X013147Y030711D01*
X013125Y030686D01*
X013106Y030659D01*
X013091Y030630D01*
X013078Y030599D01*
X013070Y030567D01*
X013066Y030534D01*
X013065Y030501D01*
X013069Y030468D01*
X013076Y030435D01*
X013087Y030404D01*
X013102Y030375D01*
X013120Y030347D01*
X013141Y030321D01*
X013165Y030299D01*
X013192Y030279D01*
X013220Y030262D01*
X013251Y030249D01*
X013283Y030240D01*
X013315Y030235D01*
X013348Y030233D01*
X013351Y030144D01*
X013351Y030143D01*
X013314Y030144D01*
X013277Y030149D01*
X013241Y030158D01*
X013205Y030170D01*
X013171Y030186D01*
X013139Y030205D01*
X013109Y030228D01*
X013082Y030253D01*
X013057Y030281D01*
X013035Y030311D01*
X013016Y030343D01*
X013001Y030377D01*
X012989Y030413D01*
X012981Y030449D01*
X012976Y030486D01*
X012975Y030523D01*
X012978Y030561D01*
X012985Y030597D01*
X012995Y030633D01*
X013009Y030668D01*
X013026Y030701D01*
X013047Y030732D01*
X013071Y030761D01*
X013097Y030787D01*
X013126Y030811D01*
X013157Y030832D01*
X013190Y030849D01*
X013225Y030863D01*
X013261Y030873D01*
X013297Y030880D01*
X013335Y030883D01*
X013372Y030882D01*
X013409Y030877D01*
X013445Y030869D01*
X013481Y030857D01*
X013515Y030842D01*
X013547Y030823D01*
X013577Y030801D01*
X013605Y030776D01*
X013630Y030749D01*
X013653Y030719D01*
X013672Y030687D01*
X013688Y030653D01*
X013700Y030617D01*
X013709Y030581D01*
X013714Y030544D01*
X013715Y030507D01*
X013706Y030507D01*
X013705Y030544D01*
X013700Y030581D01*
X013691Y030617D01*
X013678Y030652D01*
X013662Y030686D01*
X013642Y030718D01*
X013620Y030747D01*
X013594Y030774D01*
X013566Y030798D01*
X013535Y030820D01*
X013503Y030838D01*
X013469Y030852D01*
X013433Y030863D01*
X013396Y030870D01*
X013359Y030874D01*
X013322Y030873D01*
X013285Y030869D01*
X013249Y030861D01*
X013214Y030849D01*
X013180Y030834D01*
X013147Y030815D01*
X013117Y030793D01*
X013090Y030768D01*
X013065Y030741D01*
X013043Y030711D01*
X013024Y030678D01*
X013009Y030644D01*
X012997Y030609D01*
X012989Y030573D01*
X012985Y030536D01*
X012984Y030499D01*
X012988Y030462D01*
X012995Y030425D01*
X013006Y030389D01*
X013020Y030355D01*
X013038Y030323D01*
X013060Y030292D01*
X013084Y030264D01*
X013111Y030238D01*
X013140Y030216D01*
X013172Y030196D01*
X013206Y030180D01*
X013241Y030167D01*
X013277Y030158D01*
X013314Y030153D01*
X013351Y030152D01*
X013351Y030161D01*
X013314Y030162D01*
X013277Y030168D01*
X013241Y030177D01*
X013206Y030190D01*
X013173Y030206D01*
X013141Y030226D01*
X013112Y030249D01*
X013086Y030275D01*
X013062Y030303D01*
X013042Y030334D01*
X013025Y030367D01*
X013011Y030402D01*
X013001Y030437D01*
X012995Y030474D01*
X012993Y030511D01*
X012995Y030548D01*
X013000Y030585D01*
X013010Y030621D01*
X013023Y030655D01*
X013040Y030688D01*
X013060Y030720D01*
X013083Y030748D01*
X013110Y030775D01*
X013138Y030798D01*
X013170Y030818D01*
X013203Y030835D01*
X013237Y030848D01*
X013273Y030858D01*
X013310Y030863D01*
X013347Y030865D01*
X013384Y030863D01*
X013421Y030857D01*
X013456Y030847D01*
X013491Y030833D01*
X013524Y030816D01*
X013555Y030796D01*
X013583Y030772D01*
X013609Y030746D01*
X013632Y030717D01*
X013652Y030685D01*
X013668Y030652D01*
X013681Y030617D01*
X013690Y030581D01*
X013696Y030544D01*
X013697Y030507D01*
X013688Y030508D01*
X013687Y030544D01*
X013681Y030580D01*
X013673Y030615D01*
X013660Y030648D01*
X013644Y030681D01*
X013625Y030711D01*
X013602Y030740D01*
X013577Y030766D01*
X013549Y030789D01*
X013519Y030809D01*
X013487Y030825D01*
X013453Y030838D01*
X013419Y030848D01*
X013383Y030854D01*
X013347Y030856D01*
X013311Y030854D01*
X013275Y030849D01*
X013240Y030840D01*
X013206Y030827D01*
X013174Y030810D01*
X013144Y030791D01*
X013116Y030768D01*
X013090Y030742D01*
X013067Y030714D01*
X013048Y030684D01*
X013031Y030652D01*
X013018Y030618D01*
X013009Y030583D01*
X013004Y030547D01*
X013002Y030511D01*
X013004Y030475D01*
X013010Y030439D01*
X013020Y030405D01*
X013033Y030371D01*
X013049Y030339D01*
X013069Y030309D01*
X013092Y030281D01*
X013118Y030256D01*
X013147Y030233D01*
X013177Y030214D01*
X013210Y030198D01*
X013243Y030185D01*
X013278Y030177D01*
X013314Y030171D01*
X013350Y030170D01*
X013350Y030179D01*
X013314Y030180D01*
X013279Y030186D01*
X013244Y030195D01*
X013210Y030207D01*
X013178Y030224D01*
X013148Y030243D01*
X013120Y030266D01*
X013095Y030292D01*
X013072Y030320D01*
X013053Y030350D01*
X013037Y030383D01*
X013025Y030417D01*
X013017Y030452D01*
X013012Y030487D01*
X013011Y030523D01*
X013014Y030559D01*
X013021Y030594D01*
X013032Y030629D01*
X013046Y030662D01*
X013064Y030693D01*
X013085Y030722D01*
X013109Y030749D01*
X013136Y030773D01*
X013165Y030794D01*
X013196Y030812D01*
X013229Y030826D01*
X013264Y030837D01*
X013299Y030844D01*
X013335Y030847D01*
X013371Y030846D01*
X013406Y030841D01*
X013441Y030833D01*
X013475Y030821D01*
X013508Y030805D01*
X013538Y030786D01*
X013566Y030763D01*
X013592Y030738D01*
X013615Y030710D01*
X013634Y030680D01*
X013651Y030648D01*
X013663Y030614D01*
X013672Y030579D01*
X013678Y030544D01*
X013679Y030508D01*
X013670Y030508D01*
X013669Y030543D01*
X013663Y030578D01*
X013655Y030612D01*
X013642Y030644D01*
X013626Y030676D01*
X013607Y030705D01*
X013585Y030732D01*
X013560Y030757D01*
X013533Y030778D01*
X013503Y030797D01*
X013472Y030812D01*
X013439Y030824D01*
X013405Y030832D01*
X013370Y030837D01*
X013335Y030838D01*
X013300Y030835D01*
X013266Y030828D01*
X013232Y030818D01*
X013200Y030804D01*
X013170Y030787D01*
X013141Y030766D01*
X013115Y030743D01*
X013092Y030717D01*
X013071Y030688D01*
X013054Y030658D01*
X013040Y030626D01*
X013030Y030592D01*
X013023Y030558D01*
X013020Y030523D01*
X013021Y030488D01*
X013026Y030453D01*
X013034Y030419D01*
X013046Y030386D01*
X013061Y030355D01*
X013080Y030325D01*
X013101Y030298D01*
X013126Y030273D01*
X013153Y030251D01*
X013182Y030232D01*
X013214Y030216D01*
X013246Y030203D01*
X013280Y030195D01*
X013315Y030189D01*
X013350Y030188D01*
X013350Y030197D01*
X013315Y030198D01*
X013280Y030204D01*
X013247Y030213D01*
X013214Y030225D01*
X013183Y030241D01*
X013154Y030261D01*
X013128Y030283D01*
X013104Y030309D01*
X013083Y030336D01*
X013065Y030366D01*
X013051Y030398D01*
X013040Y030431D01*
X013033Y030465D01*
X013029Y030500D01*
X013030Y030535D01*
X013034Y030569D01*
X013042Y030603D01*
X013054Y030636D01*
X013069Y030667D01*
X013088Y030697D01*
X013110Y030724D01*
X013134Y030748D01*
X013161Y030770D01*
X013191Y030789D01*
X013222Y030804D01*
X013255Y030816D01*
X013289Y030824D01*
X013323Y030828D01*
X013358Y030829D01*
X013393Y030825D01*
X013427Y030818D01*
X013460Y030807D01*
X013492Y030793D01*
X013522Y030775D01*
X013549Y030754D01*
X013575Y030730D01*
X013597Y030704D01*
X013617Y030675D01*
X013633Y030644D01*
X013645Y030611D01*
X013654Y030578D01*
X013660Y030543D01*
X013661Y030508D01*
X013652Y030509D01*
X013651Y030542D01*
X013645Y030576D01*
X013637Y030609D01*
X013624Y030640D01*
X013609Y030670D01*
X013590Y030698D01*
X013568Y030724D01*
X013543Y030747D01*
X013516Y030768D01*
X013487Y030785D01*
X013457Y030799D01*
X013424Y030810D01*
X013391Y030816D01*
X013358Y030820D01*
X013324Y030819D01*
X013290Y030815D01*
X013257Y030807D01*
X013226Y030796D01*
X013195Y030781D01*
X013167Y030763D01*
X013140Y030742D01*
X013116Y030718D01*
X013095Y030691D01*
X013077Y030663D01*
X013062Y030632D01*
X013051Y030601D01*
X013043Y030568D01*
X013039Y030534D01*
X013038Y030500D01*
X013042Y030467D01*
X013048Y030434D01*
X013059Y030401D01*
X013073Y030371D01*
X013090Y030342D01*
X013111Y030315D01*
X013134Y030290D01*
X013160Y030268D01*
X013188Y030249D01*
X013218Y030234D01*
X013249Y030221D01*
X013282Y030213D01*
X013316Y030207D01*
X013349Y030206D01*
X013349Y030215D01*
X013315Y030216D01*
X013282Y030222D01*
X013250Y030231D01*
X013219Y030243D01*
X013189Y030259D01*
X013161Y030278D01*
X013136Y030300D01*
X013114Y030325D01*
X013094Y030353D01*
X013077Y030382D01*
X013064Y030413D01*
X013055Y030445D01*
X013049Y030478D01*
X013047Y030512D01*
X013049Y030545D01*
X013054Y030578D01*
X013063Y030611D01*
X013076Y030642D01*
X013092Y030671D01*
X013112Y030699D01*
X013134Y030724D01*
X013159Y030746D01*
X013187Y030766D01*
X013216Y030782D01*
X013247Y030795D01*
X013280Y030804D01*
X013313Y030809D01*
X013346Y030811D01*
X013380Y030809D01*
X013413Y030803D01*
X013445Y030794D01*
X013476Y030781D01*
X013505Y030764D01*
X013533Y030744D01*
X013558Y030722D01*
X013580Y030697D01*
X013599Y030669D01*
X013615Y030639D01*
X013627Y030608D01*
X013636Y030576D01*
X013642Y030543D01*
X013643Y030509D01*
X013634Y030509D01*
X013632Y030543D01*
X013627Y030576D01*
X013618Y030608D01*
X013605Y030639D01*
X013589Y030668D01*
X013570Y030695D01*
X013547Y030720D01*
X013522Y030741D01*
X013494Y030760D01*
X013465Y030776D01*
X013434Y030788D01*
X013402Y030796D01*
X013368Y030801D01*
X013335Y030802D01*
X013302Y030799D01*
X013269Y030792D01*
X013238Y030781D01*
X013207Y030767D01*
X013179Y030750D01*
X013153Y030729D01*
X013129Y030705D01*
X013108Y030679D01*
X013091Y030651D01*
X013077Y030620D01*
X013066Y030589D01*
X013059Y030556D01*
X013056Y030523D01*
X013057Y030490D01*
X013062Y030456D01*
X013070Y030424D01*
X013082Y030393D01*
X013098Y030364D01*
X013117Y030336D01*
X013138Y030311D01*
X013163Y030288D01*
X013190Y030269D01*
X013219Y030253D01*
X013250Y030240D01*
X013282Y030231D01*
X013315Y030226D01*
X013349Y030224D01*
X013351Y030075D02*
X013348Y029985D01*
X013348Y029986D02*
X013315Y029984D01*
X013283Y029979D01*
X013251Y029970D01*
X013220Y029957D01*
X013192Y029940D01*
X013165Y029920D01*
X013141Y029898D01*
X013120Y029872D01*
X013102Y029844D01*
X013087Y029815D01*
X013076Y029784D01*
X013069Y029751D01*
X013065Y029718D01*
X013066Y029685D01*
X013070Y029652D01*
X013078Y029620D01*
X013091Y029589D01*
X013106Y029560D01*
X013125Y029533D01*
X013147Y029508D01*
X013172Y029486D01*
X013199Y029467D01*
X013228Y029452D01*
X013259Y029439D01*
X013291Y029431D01*
X013324Y029427D01*
X013357Y029426D01*
X013390Y029430D01*
X013423Y029437D01*
X013454Y029448D01*
X013483Y029463D01*
X013511Y029481D01*
X013537Y029502D01*
X013559Y029526D01*
X013579Y029553D01*
X013596Y029581D01*
X013609Y029612D01*
X013618Y029644D01*
X013623Y029676D01*
X013625Y029709D01*
X013714Y029712D01*
X013715Y029712D01*
X013714Y029675D01*
X013709Y029638D01*
X013700Y029602D01*
X013688Y029566D01*
X013672Y029532D01*
X013653Y029500D01*
X013630Y029470D01*
X013605Y029443D01*
X013577Y029418D01*
X013547Y029396D01*
X013515Y029377D01*
X013481Y029362D01*
X013445Y029350D01*
X013409Y029342D01*
X013372Y029337D01*
X013335Y029336D01*
X013297Y029339D01*
X013261Y029346D01*
X013225Y029356D01*
X013190Y029370D01*
X013157Y029387D01*
X013126Y029408D01*
X013097Y029432D01*
X013071Y029458D01*
X013047Y029487D01*
X013026Y029518D01*
X013009Y029551D01*
X012995Y029586D01*
X012985Y029622D01*
X012978Y029658D01*
X012975Y029696D01*
X012976Y029733D01*
X012981Y029770D01*
X012989Y029806D01*
X013001Y029842D01*
X013016Y029876D01*
X013035Y029908D01*
X013057Y029938D01*
X013082Y029966D01*
X013109Y029991D01*
X013139Y030014D01*
X013171Y030033D01*
X013205Y030049D01*
X013241Y030061D01*
X013277Y030070D01*
X013314Y030075D01*
X013351Y030076D01*
X013351Y030067D01*
X013314Y030066D01*
X013277Y030061D01*
X013241Y030052D01*
X013206Y030039D01*
X013172Y030023D01*
X013140Y030003D01*
X013111Y029981D01*
X013084Y029955D01*
X013060Y029927D01*
X013038Y029896D01*
X013020Y029864D01*
X013006Y029830D01*
X012995Y029794D01*
X012988Y029757D01*
X012984Y029720D01*
X012985Y029683D01*
X012989Y029646D01*
X012997Y029610D01*
X013009Y029575D01*
X013024Y029541D01*
X013043Y029508D01*
X013065Y029478D01*
X013090Y029451D01*
X013117Y029426D01*
X013147Y029404D01*
X013180Y029385D01*
X013214Y029370D01*
X013249Y029358D01*
X013285Y029350D01*
X013322Y029346D01*
X013359Y029345D01*
X013396Y029349D01*
X013433Y029356D01*
X013469Y029367D01*
X013503Y029381D01*
X013535Y029399D01*
X013566Y029421D01*
X013594Y029445D01*
X013620Y029472D01*
X013642Y029501D01*
X013662Y029533D01*
X013678Y029567D01*
X013691Y029602D01*
X013700Y029638D01*
X013705Y029675D01*
X013706Y029712D01*
X013697Y029712D01*
X013696Y029675D01*
X013690Y029638D01*
X013681Y029602D01*
X013668Y029567D01*
X013652Y029534D01*
X013632Y029502D01*
X013609Y029473D01*
X013583Y029447D01*
X013555Y029423D01*
X013524Y029403D01*
X013491Y029386D01*
X013456Y029372D01*
X013421Y029362D01*
X013384Y029356D01*
X013347Y029354D01*
X013310Y029356D01*
X013273Y029361D01*
X013237Y029371D01*
X013203Y029384D01*
X013170Y029401D01*
X013138Y029421D01*
X013110Y029444D01*
X013083Y029471D01*
X013060Y029499D01*
X013040Y029531D01*
X013023Y029564D01*
X013010Y029598D01*
X013000Y029634D01*
X012995Y029671D01*
X012993Y029708D01*
X012995Y029745D01*
X013001Y029782D01*
X013011Y029817D01*
X013025Y029852D01*
X013042Y029885D01*
X013062Y029916D01*
X013086Y029944D01*
X013112Y029970D01*
X013141Y029993D01*
X013173Y030013D01*
X013206Y030029D01*
X013241Y030042D01*
X013277Y030051D01*
X013314Y030057D01*
X013351Y030058D01*
X013350Y030049D01*
X013314Y030048D01*
X013278Y030042D01*
X013243Y030034D01*
X013210Y030021D01*
X013177Y030005D01*
X013147Y029986D01*
X013118Y029963D01*
X013092Y029938D01*
X013069Y029910D01*
X013049Y029880D01*
X013033Y029848D01*
X013020Y029814D01*
X013010Y029780D01*
X013004Y029744D01*
X013002Y029708D01*
X013004Y029672D01*
X013009Y029636D01*
X013018Y029601D01*
X013031Y029567D01*
X013048Y029535D01*
X013067Y029505D01*
X013090Y029477D01*
X013116Y029451D01*
X013144Y029428D01*
X013174Y029409D01*
X013206Y029392D01*
X013240Y029379D01*
X013275Y029370D01*
X013311Y029365D01*
X013347Y029363D01*
X013383Y029365D01*
X013419Y029371D01*
X013453Y029381D01*
X013487Y029394D01*
X013519Y029410D01*
X013549Y029430D01*
X013577Y029453D01*
X013602Y029479D01*
X013625Y029508D01*
X013644Y029538D01*
X013660Y029571D01*
X013673Y029604D01*
X013681Y029639D01*
X013687Y029675D01*
X013688Y029711D01*
X013679Y029711D01*
X013678Y029675D01*
X013672Y029640D01*
X013663Y029605D01*
X013651Y029571D01*
X013634Y029539D01*
X013615Y029509D01*
X013592Y029481D01*
X013566Y029456D01*
X013538Y029433D01*
X013508Y029414D01*
X013475Y029398D01*
X013441Y029386D01*
X013406Y029378D01*
X013371Y029373D01*
X013335Y029372D01*
X013299Y029375D01*
X013264Y029382D01*
X013229Y029393D01*
X013196Y029407D01*
X013165Y029425D01*
X013136Y029446D01*
X013109Y029470D01*
X013085Y029497D01*
X013064Y029526D01*
X013046Y029557D01*
X013032Y029590D01*
X013021Y029625D01*
X013014Y029660D01*
X013011Y029696D01*
X013012Y029732D01*
X013017Y029767D01*
X013025Y029802D01*
X013037Y029836D01*
X013053Y029869D01*
X013072Y029899D01*
X013095Y029927D01*
X013120Y029953D01*
X013148Y029976D01*
X013178Y029995D01*
X013210Y030012D01*
X013244Y030024D01*
X013279Y030033D01*
X013314Y030039D01*
X013350Y030040D01*
X013350Y030031D01*
X013315Y030030D01*
X013280Y030024D01*
X013246Y030016D01*
X013214Y030003D01*
X013182Y029987D01*
X013153Y029968D01*
X013126Y029946D01*
X013101Y029921D01*
X013080Y029894D01*
X013061Y029864D01*
X013046Y029833D01*
X013034Y029800D01*
X013026Y029766D01*
X013021Y029731D01*
X013020Y029696D01*
X013023Y029661D01*
X013030Y029627D01*
X013040Y029593D01*
X013054Y029561D01*
X013071Y029531D01*
X013092Y029502D01*
X013115Y029476D01*
X013141Y029453D01*
X013170Y029432D01*
X013200Y029415D01*
X013232Y029401D01*
X013266Y029391D01*
X013300Y029384D01*
X013335Y029381D01*
X013370Y029382D01*
X013405Y029387D01*
X013439Y029395D01*
X013472Y029407D01*
X013503Y029422D01*
X013533Y029441D01*
X013560Y029462D01*
X013585Y029487D01*
X013607Y029514D01*
X013626Y029543D01*
X013642Y029575D01*
X013655Y029607D01*
X013663Y029641D01*
X013669Y029676D01*
X013670Y029711D01*
X013661Y029711D01*
X013660Y029676D01*
X013654Y029641D01*
X013645Y029608D01*
X013633Y029575D01*
X013617Y029544D01*
X013597Y029515D01*
X013575Y029489D01*
X013549Y029465D01*
X013522Y029444D01*
X013492Y029426D01*
X013460Y029412D01*
X013427Y029401D01*
X013393Y029394D01*
X013358Y029390D01*
X013323Y029391D01*
X013289Y029395D01*
X013255Y029403D01*
X013222Y029415D01*
X013191Y029430D01*
X013161Y029449D01*
X013134Y029471D01*
X013110Y029495D01*
X013088Y029522D01*
X013069Y029552D01*
X013054Y029583D01*
X013042Y029616D01*
X013034Y029650D01*
X013030Y029684D01*
X013029Y029719D01*
X013033Y029754D01*
X013040Y029788D01*
X013051Y029821D01*
X013065Y029853D01*
X013083Y029883D01*
X013104Y029910D01*
X013128Y029936D01*
X013154Y029958D01*
X013183Y029978D01*
X013214Y029994D01*
X013247Y030006D01*
X013280Y030015D01*
X013315Y030021D01*
X013350Y030022D01*
X013349Y030013D01*
X013316Y030012D01*
X013282Y030006D01*
X013249Y029998D01*
X013218Y029985D01*
X013188Y029970D01*
X013160Y029951D01*
X013134Y029929D01*
X013111Y029904D01*
X013090Y029877D01*
X013073Y029848D01*
X013059Y029818D01*
X013048Y029785D01*
X013042Y029752D01*
X013038Y029719D01*
X013039Y029685D01*
X013043Y029651D01*
X013051Y029618D01*
X013062Y029587D01*
X013077Y029556D01*
X013095Y029528D01*
X013116Y029501D01*
X013140Y029477D01*
X013167Y029456D01*
X013195Y029438D01*
X013226Y029423D01*
X013257Y029412D01*
X013290Y029404D01*
X013324Y029400D01*
X013358Y029399D01*
X013391Y029403D01*
X013424Y029409D01*
X013457Y029420D01*
X013487Y029434D01*
X013516Y029451D01*
X013543Y029472D01*
X013568Y029495D01*
X013590Y029521D01*
X013609Y029549D01*
X013624Y029579D01*
X013637Y029610D01*
X013645Y029643D01*
X013651Y029677D01*
X013652Y029710D01*
X013643Y029710D01*
X013642Y029676D01*
X013636Y029643D01*
X013627Y029611D01*
X013615Y029580D01*
X013599Y029550D01*
X013580Y029522D01*
X013558Y029497D01*
X013533Y029475D01*
X013505Y029455D01*
X013476Y029438D01*
X013445Y029425D01*
X013413Y029416D01*
X013380Y029410D01*
X013346Y029408D01*
X013313Y029410D01*
X013280Y029415D01*
X013247Y029424D01*
X013216Y029437D01*
X013187Y029453D01*
X013159Y029473D01*
X013134Y029495D01*
X013112Y029520D01*
X013092Y029548D01*
X013076Y029577D01*
X013063Y029608D01*
X013054Y029641D01*
X013049Y029674D01*
X013047Y029707D01*
X013049Y029741D01*
X013055Y029774D01*
X013064Y029806D01*
X013077Y029837D01*
X013094Y029866D01*
X013114Y029894D01*
X013136Y029919D01*
X013161Y029941D01*
X013189Y029960D01*
X013219Y029976D01*
X013250Y029988D01*
X013282Y029997D01*
X013315Y030003D01*
X013349Y030004D01*
X013349Y029995D01*
X013315Y029993D01*
X013282Y029988D01*
X013250Y029979D01*
X013219Y029966D01*
X013190Y029950D01*
X013163Y029931D01*
X013138Y029908D01*
X013117Y029883D01*
X013098Y029855D01*
X013082Y029826D01*
X013070Y029795D01*
X013062Y029763D01*
X013057Y029729D01*
X013056Y029696D01*
X013059Y029663D01*
X013066Y029630D01*
X013077Y029599D01*
X013091Y029568D01*
X013108Y029540D01*
X013129Y029514D01*
X013153Y029490D01*
X013179Y029469D01*
X013207Y029452D01*
X013238Y029438D01*
X013269Y029427D01*
X013302Y029420D01*
X013335Y029417D01*
X013368Y029418D01*
X013402Y029423D01*
X013434Y029431D01*
X013465Y029443D01*
X013494Y029459D01*
X013522Y029478D01*
X013547Y029499D01*
X013570Y029524D01*
X013589Y029551D01*
X013605Y029580D01*
X013618Y029611D01*
X013627Y029643D01*
X013632Y029676D01*
X013634Y029710D01*
X013822Y029712D02*
X013912Y029709D01*
X013911Y029709D02*
X013913Y029676D01*
X013918Y029644D01*
X013927Y029612D01*
X013940Y029581D01*
X013957Y029553D01*
X013977Y029526D01*
X013999Y029502D01*
X014025Y029481D01*
X014053Y029463D01*
X014082Y029448D01*
X014113Y029437D01*
X014146Y029430D01*
X014179Y029426D01*
X014212Y029427D01*
X014245Y029431D01*
X014277Y029439D01*
X014308Y029452D01*
X014337Y029467D01*
X014364Y029486D01*
X014389Y029508D01*
X014411Y029533D01*
X014430Y029560D01*
X014445Y029589D01*
X014458Y029620D01*
X014466Y029652D01*
X014470Y029685D01*
X014471Y029718D01*
X014467Y029751D01*
X014460Y029784D01*
X014449Y029815D01*
X014434Y029844D01*
X014416Y029872D01*
X014395Y029898D01*
X014371Y029920D01*
X014344Y029940D01*
X014316Y029957D01*
X014285Y029970D01*
X014253Y029979D01*
X014221Y029984D01*
X014188Y029986D01*
X014185Y030075D01*
X014185Y030076D01*
X014222Y030075D01*
X014259Y030070D01*
X014295Y030061D01*
X014331Y030049D01*
X014365Y030033D01*
X014397Y030014D01*
X014427Y029991D01*
X014454Y029966D01*
X014479Y029938D01*
X014501Y029908D01*
X014520Y029876D01*
X014535Y029842D01*
X014547Y029806D01*
X014555Y029770D01*
X014560Y029733D01*
X014561Y029696D01*
X014558Y029658D01*
X014551Y029622D01*
X014541Y029586D01*
X014527Y029551D01*
X014510Y029518D01*
X014489Y029487D01*
X014465Y029458D01*
X014439Y029432D01*
X014410Y029408D01*
X014379Y029387D01*
X014346Y029370D01*
X014311Y029356D01*
X014275Y029346D01*
X014239Y029339D01*
X014201Y029336D01*
X014164Y029337D01*
X014127Y029342D01*
X014091Y029350D01*
X014055Y029362D01*
X014021Y029377D01*
X013989Y029396D01*
X013959Y029418D01*
X013931Y029443D01*
X013906Y029470D01*
X013883Y029500D01*
X013864Y029532D01*
X013848Y029566D01*
X013836Y029602D01*
X013827Y029638D01*
X013822Y029675D01*
X013821Y029712D01*
X013830Y029712D01*
X013831Y029675D01*
X013836Y029638D01*
X013845Y029602D01*
X013858Y029567D01*
X013874Y029533D01*
X013894Y029501D01*
X013916Y029472D01*
X013942Y029445D01*
X013970Y029421D01*
X014001Y029399D01*
X014033Y029381D01*
X014067Y029367D01*
X014103Y029356D01*
X014140Y029349D01*
X014177Y029345D01*
X014214Y029346D01*
X014251Y029350D01*
X014287Y029358D01*
X014322Y029370D01*
X014356Y029385D01*
X014389Y029404D01*
X014419Y029426D01*
X014446Y029451D01*
X014471Y029478D01*
X014493Y029508D01*
X014512Y029541D01*
X014527Y029575D01*
X014539Y029610D01*
X014547Y029646D01*
X014551Y029683D01*
X014552Y029720D01*
X014548Y029757D01*
X014541Y029794D01*
X014530Y029830D01*
X014516Y029864D01*
X014498Y029896D01*
X014476Y029927D01*
X014452Y029955D01*
X014425Y029981D01*
X014396Y030003D01*
X014364Y030023D01*
X014330Y030039D01*
X014295Y030052D01*
X014259Y030061D01*
X014222Y030066D01*
X014185Y030067D01*
X014185Y030058D01*
X014222Y030057D01*
X014259Y030051D01*
X014295Y030042D01*
X014330Y030029D01*
X014363Y030013D01*
X014395Y029993D01*
X014424Y029970D01*
X014450Y029944D01*
X014474Y029916D01*
X014494Y029885D01*
X014511Y029852D01*
X014525Y029817D01*
X014535Y029782D01*
X014541Y029745D01*
X014543Y029708D01*
X014541Y029671D01*
X014536Y029634D01*
X014526Y029598D01*
X014513Y029564D01*
X014496Y029531D01*
X014476Y029499D01*
X014453Y029471D01*
X014426Y029444D01*
X014398Y029421D01*
X014366Y029401D01*
X014333Y029384D01*
X014299Y029371D01*
X014263Y029361D01*
X014226Y029356D01*
X014189Y029354D01*
X014152Y029356D01*
X014115Y029362D01*
X014080Y029372D01*
X014045Y029386D01*
X014012Y029403D01*
X013981Y029423D01*
X013953Y029447D01*
X013927Y029473D01*
X013904Y029502D01*
X013884Y029534D01*
X013868Y029567D01*
X013855Y029602D01*
X013846Y029638D01*
X013840Y029675D01*
X013839Y029712D01*
X013848Y029711D01*
X013849Y029675D01*
X013855Y029639D01*
X013863Y029604D01*
X013876Y029571D01*
X013892Y029538D01*
X013911Y029508D01*
X013934Y029479D01*
X013959Y029453D01*
X013987Y029430D01*
X014017Y029410D01*
X014049Y029394D01*
X014083Y029381D01*
X014117Y029371D01*
X014153Y029365D01*
X014189Y029363D01*
X014225Y029365D01*
X014261Y029370D01*
X014296Y029379D01*
X014330Y029392D01*
X014362Y029409D01*
X014392Y029428D01*
X014420Y029451D01*
X014446Y029477D01*
X014469Y029505D01*
X014488Y029535D01*
X014505Y029567D01*
X014518Y029601D01*
X014527Y029636D01*
X014532Y029672D01*
X014534Y029708D01*
X014532Y029744D01*
X014526Y029780D01*
X014516Y029814D01*
X014503Y029848D01*
X014487Y029880D01*
X014467Y029910D01*
X014444Y029938D01*
X014418Y029963D01*
X014389Y029986D01*
X014359Y030005D01*
X014326Y030021D01*
X014293Y030034D01*
X014258Y030042D01*
X014222Y030048D01*
X014186Y030049D01*
X014186Y030040D01*
X014222Y030039D01*
X014257Y030033D01*
X014292Y030024D01*
X014326Y030012D01*
X014358Y029995D01*
X014388Y029976D01*
X014416Y029953D01*
X014441Y029927D01*
X014464Y029899D01*
X014483Y029869D01*
X014499Y029836D01*
X014511Y029802D01*
X014519Y029767D01*
X014524Y029732D01*
X014525Y029696D01*
X014522Y029660D01*
X014515Y029625D01*
X014504Y029590D01*
X014490Y029557D01*
X014472Y029526D01*
X014451Y029497D01*
X014427Y029470D01*
X014400Y029446D01*
X014371Y029425D01*
X014340Y029407D01*
X014307Y029393D01*
X014272Y029382D01*
X014237Y029375D01*
X014201Y029372D01*
X014165Y029373D01*
X014130Y029378D01*
X014095Y029386D01*
X014061Y029398D01*
X014028Y029414D01*
X013998Y029433D01*
X013970Y029456D01*
X013944Y029481D01*
X013921Y029509D01*
X013902Y029539D01*
X013885Y029571D01*
X013873Y029605D01*
X013864Y029640D01*
X013858Y029675D01*
X013857Y029711D01*
X013866Y029711D01*
X013867Y029676D01*
X013873Y029641D01*
X013881Y029607D01*
X013894Y029575D01*
X013910Y029543D01*
X013929Y029514D01*
X013951Y029487D01*
X013976Y029462D01*
X014003Y029441D01*
X014033Y029422D01*
X014064Y029407D01*
X014097Y029395D01*
X014131Y029387D01*
X014166Y029382D01*
X014201Y029381D01*
X014236Y029384D01*
X014270Y029391D01*
X014304Y029401D01*
X014336Y029415D01*
X014366Y029432D01*
X014395Y029453D01*
X014421Y029476D01*
X014444Y029502D01*
X014465Y029531D01*
X014482Y029561D01*
X014496Y029593D01*
X014506Y029627D01*
X014513Y029661D01*
X014516Y029696D01*
X014515Y029731D01*
X014510Y029766D01*
X014502Y029800D01*
X014490Y029833D01*
X014475Y029864D01*
X014456Y029894D01*
X014435Y029921D01*
X014410Y029946D01*
X014383Y029968D01*
X014354Y029987D01*
X014322Y030003D01*
X014290Y030016D01*
X014256Y030024D01*
X014221Y030030D01*
X014186Y030031D01*
X014186Y030022D01*
X014221Y030021D01*
X014256Y030015D01*
X014289Y030006D01*
X014322Y029994D01*
X014353Y029978D01*
X014382Y029958D01*
X014408Y029936D01*
X014432Y029910D01*
X014453Y029883D01*
X014471Y029853D01*
X014485Y029821D01*
X014496Y029788D01*
X014503Y029754D01*
X014507Y029719D01*
X014506Y029684D01*
X014502Y029650D01*
X014494Y029616D01*
X014482Y029583D01*
X014467Y029552D01*
X014448Y029522D01*
X014426Y029495D01*
X014402Y029471D01*
X014375Y029449D01*
X014345Y029430D01*
X014314Y029415D01*
X014281Y029403D01*
X014247Y029395D01*
X014213Y029391D01*
X014178Y029390D01*
X014143Y029394D01*
X014109Y029401D01*
X014076Y029412D01*
X014044Y029426D01*
X014014Y029444D01*
X013987Y029465D01*
X013961Y029489D01*
X013939Y029515D01*
X013919Y029544D01*
X013903Y029575D01*
X013891Y029608D01*
X013882Y029641D01*
X013876Y029676D01*
X013875Y029711D01*
X013884Y029710D01*
X013885Y029677D01*
X013891Y029643D01*
X013899Y029610D01*
X013912Y029579D01*
X013927Y029549D01*
X013946Y029521D01*
X013968Y029495D01*
X013993Y029472D01*
X014020Y029451D01*
X014049Y029434D01*
X014079Y029420D01*
X014112Y029409D01*
X014145Y029403D01*
X014178Y029399D01*
X014212Y029400D01*
X014246Y029404D01*
X014279Y029412D01*
X014310Y029423D01*
X014341Y029438D01*
X014369Y029456D01*
X014396Y029477D01*
X014420Y029501D01*
X014441Y029528D01*
X014459Y029556D01*
X014474Y029587D01*
X014485Y029618D01*
X014493Y029651D01*
X014497Y029685D01*
X014498Y029719D01*
X014494Y029752D01*
X014488Y029785D01*
X014477Y029818D01*
X014463Y029848D01*
X014446Y029877D01*
X014425Y029904D01*
X014402Y029929D01*
X014376Y029951D01*
X014348Y029970D01*
X014318Y029985D01*
X014287Y029998D01*
X014254Y030006D01*
X014220Y030012D01*
X014187Y030013D01*
X014187Y030004D01*
X014221Y030003D01*
X014254Y029997D01*
X014286Y029988D01*
X014317Y029976D01*
X014347Y029960D01*
X014375Y029941D01*
X014400Y029919D01*
X014422Y029894D01*
X014442Y029866D01*
X014459Y029837D01*
X014472Y029806D01*
X014481Y029774D01*
X014487Y029741D01*
X014489Y029707D01*
X014487Y029674D01*
X014482Y029641D01*
X014473Y029608D01*
X014460Y029577D01*
X014444Y029548D01*
X014424Y029520D01*
X014402Y029495D01*
X014377Y029473D01*
X014349Y029453D01*
X014320Y029437D01*
X014289Y029424D01*
X014256Y029415D01*
X014223Y029410D01*
X014190Y029408D01*
X014156Y029410D01*
X014123Y029416D01*
X014091Y029425D01*
X014060Y029438D01*
X014031Y029455D01*
X014003Y029475D01*
X013978Y029497D01*
X013956Y029522D01*
X013937Y029550D01*
X013921Y029580D01*
X013909Y029611D01*
X013900Y029643D01*
X013894Y029676D01*
X013893Y029710D01*
X013902Y029710D01*
X013904Y029676D01*
X013909Y029643D01*
X013918Y029611D01*
X013931Y029580D01*
X013947Y029551D01*
X013966Y029524D01*
X013989Y029499D01*
X014014Y029478D01*
X014042Y029459D01*
X014071Y029443D01*
X014102Y029431D01*
X014134Y029423D01*
X014168Y029418D01*
X014201Y029417D01*
X014234Y029420D01*
X014267Y029427D01*
X014298Y029438D01*
X014329Y029452D01*
X014357Y029469D01*
X014383Y029490D01*
X014407Y029514D01*
X014428Y029540D01*
X014445Y029568D01*
X014459Y029599D01*
X014470Y029630D01*
X014477Y029663D01*
X014480Y029696D01*
X014479Y029729D01*
X014474Y029763D01*
X014466Y029795D01*
X014454Y029826D01*
X014438Y029855D01*
X014419Y029883D01*
X014398Y029908D01*
X014373Y029931D01*
X014346Y029950D01*
X014317Y029966D01*
X014286Y029979D01*
X014254Y029988D01*
X014221Y029993D01*
X014187Y029995D01*
D25*
X024406Y023580D02*
X025231Y023580D01*
X025231Y021430D02*
X024406Y021430D01*
X024406Y019280D02*
X025231Y019280D01*
X028081Y019355D02*
X028906Y019355D01*
X028906Y021505D02*
X028081Y021505D01*
X028081Y023655D02*
X028906Y023655D01*
D26*
X022794Y026130D03*
X022794Y029130D03*
D27*
X027344Y012955D03*
X027344Y010955D03*
D28*
X026649Y016505D03*
X026649Y026505D03*
X011244Y007180D03*
D29*
X011192Y007180D01*
X008079Y010293D01*
X008079Y014230D02*
X011265Y014234D01*
X011519Y013980D01*
X011503Y013970D02*
X011498Y013975D01*
X011503Y013970D02*
X011503Y011596D01*
X013569Y011780D02*
X013569Y010130D01*
X015592Y008107D01*
X015592Y007212D01*
X017144Y009105D02*
X015520Y010730D01*
X015440Y010730D01*
X013569Y011780D02*
X016244Y014455D01*
X019244Y014455D01*
X019269Y014430D01*
X020844Y012855D01*
X020919Y012805D02*
X024624Y012805D01*
X024629Y012801D01*
X024629Y010545D02*
X023659Y010545D01*
X022219Y009105D01*
X021494Y009105D01*
X021497Y009102D01*
X021497Y007212D01*
X021494Y009105D02*
X017569Y009105D01*
X017560Y007212D01*
X017569Y009105D02*
X017144Y009105D01*
X013623Y007212D02*
X011287Y007212D01*
X011244Y007180D01*
X019269Y014430D02*
X019269Y015330D01*
X022369Y018430D01*
X022369Y020105D01*
X023769Y021505D01*
X023844Y021505D01*
X028494Y021505D01*
X028494Y019155D02*
X028494Y014580D01*
X028819Y014255D01*
X028819Y011705D01*
X028069Y010955D01*
X027344Y010955D01*
X027344Y012955D02*
X027319Y012955D01*
X024819Y015455D01*
X024819Y019105D01*
D30*
X013544Y042955D03*
X012969Y042955D03*
X012394Y042955D03*
X011819Y042955D03*
X011244Y042955D03*
D31*
X014094Y038955D03*
X015269Y038955D03*
X017919Y041380D03*
X017394Y034505D03*
X016294Y034555D03*
X022919Y032155D03*
X024719Y037680D03*
X024719Y038430D03*
X028819Y032155D03*
D32*
X024719Y037680D02*
X024719Y038430D01*
X017919Y041380D02*
X017894Y041405D01*
X016544Y041405D01*
X014094Y038955D01*
D33*
X016919Y034505D02*
X016494Y034080D01*
X008294Y034080D01*
X008244Y034130D01*
X009023Y029502D02*
X009023Y027533D01*
X008038Y027533D01*
X008038Y025565D01*
X008069Y025580D02*
X011869Y021780D01*
X011869Y016675D01*
X015435Y013109D01*
X015129Y013415D01*
X016169Y014455D01*
X016244Y014455D01*
X017290Y019659D02*
X016219Y020730D01*
X016219Y025871D01*
X017881Y027533D01*
X017544Y027870D01*
X017544Y032080D01*
X019894Y034430D01*
X019894Y035480D01*
X023669Y039255D01*
X023669Y040230D01*
X024794Y041355D01*
X025069Y041355D01*
X027069Y039355D02*
X027069Y039256D01*
X025019Y037205D01*
X022694Y037205D01*
X020569Y035080D01*
X020569Y034105D01*
X018865Y032402D01*
X018865Y029502D01*
X018861Y029505D01*
X018865Y027533D02*
X017881Y027533D01*
X017881Y021628D02*
X018865Y021628D01*
X018865Y019659D02*
X017290Y019659D01*
X009023Y019659D02*
X009023Y021628D01*
X008038Y021628D01*
X016919Y034505D02*
X017394Y034505D01*
D34*
X014669Y036555D03*
X014669Y036930D03*
X016719Y038960D03*
X016719Y039355D03*
X016719Y039750D03*
X018069Y039750D03*
X018069Y039355D03*
X010569Y034580D03*
X010194Y034580D03*
X009244Y040205D03*
X009244Y040580D03*
D35*
X007843Y006819D03*
X028315Y006819D03*
X028315Y043039D03*
X007843Y043039D03*
D36*
X021944Y028280D02*
X021944Y023755D01*
X023769Y021930D01*
X023769Y021505D01*
X023844Y021505D02*
X023919Y021430D01*
X024819Y021430D01*
X024819Y019280D02*
X024819Y019105D01*
X024819Y023580D02*
X024819Y030255D01*
X022919Y032155D01*
X022794Y029130D02*
X021944Y028280D01*
X028494Y023655D02*
X028819Y023980D01*
X028819Y032155D01*
X028494Y019355D02*
X028494Y019155D01*
M02*
