G75*
G70*
%OFA0B0*%
%FSLAX24Y24*%
%IPPOS*%
%LPD*%
%AMOC8*
5,1,8,0,0,1.08239X$1,22.5*
%
%ADD10C,0.1000*%
%ADD11C,0.0973*%
%ADD12C,0.2759*%
%ADD13R,0.0674X0.0674*%
%ADD14OC8,0.0674*%
%ADD15C,0.1360*%
%ADD16OC8,0.1360*%
%ADD17C,0.1100*%
%ADD18OC8,0.0640*%
%ADD19OC8,0.0946*%
%ADD20R,0.0516X0.0516*%
%ADD21OC8,0.0600*%
%ADD22C,0.1100*%
%ADD23R,0.0516X0.0516*%
%ADD24C,0.2365*%
D10*
X023210Y008534D02*
X023210Y009934D01*
X023210Y008534D02*
X023810Y007934D01*
X028960Y007934D01*
X034110Y013084D01*
X034110Y013859D01*
X032410Y013709D02*
X032410Y020684D01*
X034160Y018034D02*
X034160Y041209D01*
X029560Y045809D01*
X027610Y045809D01*
X027585Y045784D01*
X027410Y045934D02*
X027410Y045959D01*
X027410Y045934D02*
X026160Y047184D01*
X023310Y047184D01*
X022910Y047584D01*
X022910Y053134D01*
X023360Y053584D01*
X023360Y061384D01*
X022785Y061959D01*
X021835Y061959D01*
X021060Y052084D02*
X021060Y044284D01*
X021760Y043584D01*
X021885Y043584D01*
X027710Y036934D02*
X027085Y036309D01*
X027085Y034209D01*
X027985Y033309D01*
X028960Y033309D01*
X029060Y035009D02*
X030560Y035009D01*
X032460Y033109D01*
X032460Y027084D01*
X028085Y036934D02*
X027710Y036934D01*
X032410Y013709D02*
X028535Y009834D01*
X026110Y009834D01*
D11*
X028647Y030997D02*
X029532Y030997D01*
X029532Y033197D02*
X028647Y033197D01*
X028647Y035397D02*
X029532Y035397D01*
D12*
X021489Y033197D03*
D13*
X014674Y009323D03*
D14*
X014674Y010323D03*
X015674Y010323D03*
X015674Y009323D03*
X016674Y009323D03*
X016674Y010323D03*
X017674Y010323D03*
X017674Y009323D03*
X018674Y009323D03*
X018674Y010323D03*
X019674Y010323D03*
X019674Y009323D03*
X020674Y009323D03*
X020674Y010323D03*
X021674Y010323D03*
X021674Y009323D03*
X022674Y009323D03*
X022674Y010323D03*
X023674Y010323D03*
X023674Y009323D03*
X024674Y009323D03*
X024674Y010323D03*
X025674Y010323D03*
X025674Y009323D03*
X026674Y009323D03*
X026674Y010323D03*
D15*
X021535Y059183D03*
X014385Y059208D03*
D16*
X014385Y062161D03*
X021535Y062136D03*
D17*
X029985Y061809D02*
X029985Y062809D01*
X031953Y062809D02*
X031953Y061809D01*
X033922Y061809D02*
X033922Y062809D01*
X009428Y062809D02*
X009428Y061809D01*
X007460Y061809D02*
X007460Y062809D01*
D18*
X018435Y052084D03*
X030735Y026859D03*
X032510Y026859D03*
X032510Y020859D03*
X030735Y020859D03*
D19*
X026610Y011884D03*
X031785Y036459D03*
D20*
X033785Y036459D03*
X028610Y011884D03*
D21*
X018435Y050084D03*
D22*
X020098Y057524D03*
X020098Y062445D03*
X027972Y062445D03*
X027972Y057524D03*
D23*
X022335Y043684D03*
X022335Y043284D03*
X022335Y042884D03*
X021910Y042884D03*
X021910Y043284D03*
X021910Y043684D03*
X021485Y043684D03*
X021485Y043284D03*
X021485Y042884D03*
X027860Y037434D03*
X027860Y037009D03*
X027860Y036584D03*
X028285Y036584D03*
X028710Y036584D03*
X028710Y037009D03*
X028285Y037009D03*
X028285Y037434D03*
X028710Y037434D03*
X032085Y026884D03*
X032085Y026459D03*
X032510Y026459D03*
X032935Y026459D03*
X032935Y026884D03*
X032935Y021259D03*
X032935Y020834D03*
X032510Y021259D03*
X032085Y021259D03*
X032085Y020834D03*
X033610Y017984D03*
X033985Y017984D03*
X034360Y017984D03*
X034360Y017559D03*
X033985Y017559D03*
X033610Y017559D03*
X033610Y014259D03*
X033985Y014259D03*
X034360Y014259D03*
X034360Y013834D03*
X033985Y013834D03*
X033610Y013834D03*
D24*
X007710Y009575D03*
X007710Y048945D03*
X033694Y053669D03*
X033694Y009575D03*
M02*
