G75*
G70*
%OFA0B0*%
%FSLAX24Y24*%
%IPPOS*%
%LPD*%
%AMOC8*
5,1,8,0,0,1.08239X$1,22.5*
%
%ADD10C,0.1100*%
%ADD11OC8,0.1100*%
%ADD12OC8,0.1299*%
%ADD13C,0.0674*%
%ADD14C,0.1100*%
%ADD15OC8,0.0973*%
%ADD16C,0.0907*%
%ADD17OC8,0.0640*%
%ADD18OC8,0.0840*%
%ADD19C,0.1653*%
%ADD20C,0.0674*%
%ADD21C,0.0640*%
%ADD22C,0.1436*%
%ADD23OC8,0.0674*%
%ADD24R,0.0674X0.0674*%
%ADD25C,0.1039*%
%ADD26C,0.1386*%
%ADD27OC8,0.0680*%
%ADD28C,0.2562*%
%ADD29C,0.1650*%
%ADD30OC8,0.0516*%
%ADD31C,0.2365*%
D10*
X015587Y011426D03*
X015587Y013451D03*
X019524Y012703D03*
X019524Y010678D03*
X021756Y011487D03*
X025693Y011487D03*
X030015Y040403D03*
D11*
X030015Y038403D03*
X026852Y028098D03*
X025681Y027177D03*
X025681Y025177D03*
X025681Y021177D03*
X025681Y019177D03*
X026852Y018256D03*
X017009Y018256D03*
X015681Y019177D03*
X017009Y020224D03*
X015681Y021177D03*
X017009Y023177D03*
X015681Y025177D03*
X017009Y026130D03*
X015681Y027177D03*
X017009Y028098D03*
D12*
X024906Y037302D03*
D13*
X017677Y034702D02*
X017084Y034702D01*
X017084Y033702D02*
X017677Y033702D01*
X017677Y032702D02*
X017084Y032702D01*
X013406Y042855D02*
X013406Y043449D01*
X012406Y043449D02*
X012406Y042855D01*
X011406Y042855D02*
X011406Y043449D01*
D14*
X013985Y007734D02*
X013985Y006734D01*
X015953Y006734D02*
X015953Y007734D01*
X017922Y007734D02*
X017922Y006734D01*
X019890Y006734D02*
X019890Y007734D01*
X021859Y007734D02*
X021859Y006734D01*
D15*
X027535Y007362D03*
X029841Y007362D03*
X029841Y013362D03*
X027535Y013362D03*
D16*
X030093Y021402D02*
X030918Y021402D01*
X030918Y023552D02*
X030093Y023552D01*
X030093Y025702D02*
X030918Y025702D01*
X033793Y025702D02*
X034618Y025702D01*
X034618Y023552D02*
X033793Y023552D01*
X033793Y021402D02*
X034618Y021402D01*
D17*
X034181Y017052D03*
X034181Y014052D03*
D18*
X034381Y011202D03*
X032381Y011202D03*
D19*
X032981Y018577D03*
X032981Y028577D03*
D20*
X018568Y042246D03*
X017568Y042246D03*
X017568Y043246D03*
X018568Y043246D03*
X016568Y043246D03*
X016568Y042246D03*
X013925Y020322D03*
X013925Y019322D03*
X013925Y016342D03*
X013925Y015342D03*
X009807Y016582D03*
X009807Y017582D03*
X009807Y018582D03*
X008807Y019082D03*
X008807Y018082D03*
X008807Y017082D03*
X008807Y016082D03*
D21*
X011170Y027276D03*
X011170Y028260D03*
X012429Y028260D03*
X012429Y027276D03*
D22*
X012233Y025398D03*
X012233Y030138D03*
D23*
X008806Y030652D03*
X008806Y031652D03*
X008806Y032652D03*
X008806Y033652D03*
X008806Y034652D03*
X008806Y028627D03*
X008806Y027627D03*
X008806Y026627D03*
X008806Y025627D03*
X008806Y024627D03*
X008806Y023627D03*
X008806Y022627D03*
X008806Y021627D03*
D24*
X009807Y019582D03*
D25*
X010775Y020932D03*
X010775Y014731D03*
D26*
X012307Y015582D03*
X012307Y020082D03*
D27*
X011406Y012677D03*
X011406Y008677D03*
D28*
X009344Y007002D03*
X034147Y007002D03*
X034147Y043222D03*
X009344Y043222D03*
D29*
X009181Y013377D03*
X024081Y006877D03*
X025681Y006877D03*
D30*
X035881Y038552D03*
X035881Y040527D03*
D31*
X011312Y023144D03*
M02*
