G75*
G70*
%OFA0B0*%
%FSLAX24Y24*%
%IPPOS*%
%LPD*%
%AMOC8*
5,1,8,0,0,1.08239X$1,22.5*
%
%ADD10C,0.1100*%
%ADD11OC8,0.1100*%
%ADD12OC8,0.1299*%
%ADD13C,0.0674*%
%ADD14C,0.1100*%
%ADD15OC8,0.0973*%
%ADD16C,0.0907*%
%ADD17OC8,0.0640*%
%ADD18OC8,0.0840*%
%ADD19C,0.1653*%
%ADD20C,0.0674*%
%ADD21C,0.0640*%
%ADD22C,0.1436*%
%ADD23OC8,0.0674*%
%ADD24R,0.0674X0.0674*%
%ADD25C,0.1039*%
%ADD26C,0.1386*%
%ADD27OC8,0.0680*%
%ADD28C,0.2562*%
%ADD29C,0.1650*%
%ADD30OC8,0.0516*%
D10*
X013619Y011426D03*
X013619Y013451D03*
X017556Y012703D03*
X017556Y010678D03*
X019787Y011487D03*
X023724Y011487D03*
X028072Y040528D03*
D11*
X028072Y038528D03*
X024883Y028098D03*
X023712Y027177D03*
X023712Y025177D03*
X023712Y021177D03*
X023712Y019177D03*
X024883Y018256D03*
X015041Y018256D03*
X013712Y019177D03*
X015041Y020224D03*
X013712Y021177D03*
X015041Y023177D03*
X013712Y025177D03*
X015041Y026130D03*
X013712Y027177D03*
X015041Y028098D03*
D12*
X022937Y037302D03*
D13*
X015709Y034702D02*
X015115Y034702D01*
X015115Y033702D02*
X015709Y033702D01*
X015709Y032702D02*
X015115Y032702D01*
X011437Y042855D02*
X011437Y043449D01*
X010437Y043449D02*
X010437Y042855D01*
X009437Y042855D02*
X009437Y043449D01*
D14*
X012016Y007734D02*
X012016Y006734D01*
X013985Y006734D02*
X013985Y007734D01*
X015953Y007734D02*
X015953Y006734D01*
X017922Y006734D02*
X017922Y007734D01*
X019890Y007734D02*
X019890Y006734D01*
D15*
X025567Y007362D03*
X027873Y007362D03*
X027873Y013362D03*
X025567Y013362D03*
D16*
X028125Y021402D02*
X028950Y021402D01*
X028950Y023552D02*
X028125Y023552D01*
X028125Y025702D02*
X028950Y025702D01*
X031825Y025702D02*
X032650Y025702D01*
X032650Y023552D02*
X031825Y023552D01*
X031825Y021402D02*
X032650Y021402D01*
D17*
X032212Y017052D03*
X032212Y014052D03*
D18*
X032412Y011202D03*
X030412Y011202D03*
D19*
X031012Y018577D03*
X031012Y028577D03*
D20*
X016599Y042246D03*
X015599Y042246D03*
X015599Y043246D03*
X016599Y043246D03*
X014599Y043246D03*
X014599Y042246D03*
X011956Y020322D03*
X011956Y019322D03*
X011956Y016342D03*
X011956Y015342D03*
X007838Y016582D03*
X007838Y017582D03*
X007838Y018582D03*
X006838Y019082D03*
X006838Y018082D03*
X006838Y017082D03*
X006838Y016082D03*
D21*
X009201Y027276D03*
X009201Y028260D03*
X010461Y028260D03*
X010461Y027276D03*
D22*
X010264Y025398D03*
X010264Y030138D03*
D23*
X006837Y030652D03*
X006837Y031652D03*
X006837Y032652D03*
X006837Y033652D03*
X006837Y034652D03*
X006837Y028627D03*
X006837Y027627D03*
X006837Y026627D03*
X006837Y025627D03*
X006837Y024627D03*
X006837Y023627D03*
X006837Y022627D03*
X006837Y021627D03*
D24*
X007838Y019582D03*
D25*
X008807Y020932D03*
X008807Y014731D03*
D26*
X010338Y015582D03*
X010338Y020082D03*
D27*
X009437Y012677D03*
X009437Y008677D03*
D28*
X007375Y007002D03*
X032178Y007002D03*
X032178Y043222D03*
X007375Y043222D03*
D29*
X007212Y013377D03*
X022112Y006877D03*
X023712Y006877D03*
D30*
X033912Y038552D03*
X033912Y040527D03*
M02*
