%
M48
M72
T01C0.0236
T02C0.0276
T03C0.0354
T04C0.0360
T05C0.0394
T06C0.0400
T07C0.0433
T08C0.0472
T09C0.0531
T10C0.0550
T11C0.0590
T12C0.0630
T13C0.0787
T14C0.0906
T15C0.1102
T16C0.1260
%
T01
X11106Y17227
X10531Y18102
X11306Y18327
X8656Y19752
X10406Y26677
X10831Y29077
X11806Y33752
X13031Y33752
X13156Y36577
X14656Y38427
X14656Y38802
X14681Y39802
X14681Y40177
X13706Y40102
X12931Y40127
X14806Y41202
X18131Y40827
X18731Y40827
X19331Y40827
X19931Y40827
X20531Y40827
X21131Y40827
X21731Y40827
X24131Y37697
X24131Y37302
X24131Y36907
X22806Y36902
X21631Y36902
X22206Y34877
X22206Y34502
X23706Y32427
X25681Y37377
X25681Y37747
X25456Y39327
X26206Y42102
X26206Y42502
X26206Y42902
X26206Y43302
X28206Y43302
X28206Y42902
X28206Y42502
X28206Y42102
X33281Y40427
X33981Y40802
X35906Y32352
X28931Y24327
X10831Y42052
T02
X35881Y40527
X35881Y38552
T03
X12429Y28260
X12429Y27276
X11170Y27276
X11170Y28260
T04
X34181Y17052
X34181Y14052
T05
X17381Y32702
X17381Y33702
X17381Y34702
X17568Y42246
X18568Y42246
X18568Y43246
X17568Y43246
X16568Y43246
X16568Y42246
X13406Y43152
X12406Y43152
X11406Y43152
X8806Y34652
X8806Y33652
X8806Y32652
X8806Y31652
X8806Y30652
X8806Y28627
X8806Y27627
X8806Y26627
X8806Y25627
X8806Y24627
X8806Y23627
X8806Y22627
X8806Y21627
X9807Y19582
X9807Y18582
X9807Y17582
X9807Y16582
X8807Y17082
X8807Y16082
X8807Y18082
X8807Y19082
X13925Y19322
X13925Y20322
X13925Y16342
X13925Y15342
T06
X11406Y12677
X11406Y8677
X32381Y11202
X34381Y11202
X30040Y38528
X30040Y40528
T07
X25693Y11487
X21756Y11487
T08
X19524Y10678
X19524Y12703
X15587Y13451
X15587Y11426
X17009Y18256
X15681Y19177
X17009Y20224
X15681Y21177
X17009Y23177
X15681Y25177
X17009Y26130
X15681Y27177
X17009Y28098
X25681Y27177
X26852Y28098
X25681Y25177
X25681Y21177
X25681Y19177
X26852Y18256
T09
X21859Y7234
X19890Y7234
X17922Y7234
X15953Y7234
X13985Y7234
T10
X30506Y21402
X30506Y23552
X30506Y25702
X34206Y25702
X34206Y23552
X34206Y21402
T11
X29841Y13362
X27535Y13362
X27535Y7362
X29841Y7362
T12
X25681Y6877
X24081Y6877
X10775Y14731
X9181Y13377
X10775Y20932
T13
X24906Y37302
T14
X12233Y30138
X12233Y25398
T15
X32981Y28577
X32981Y18577
T16
X9344Y7002
X12307Y15582
X12307Y20082
X11312Y23144
X9344Y43222
X34147Y43222
X34147Y7002
M30
