G75*
G70*
%OFA0B0*%
%FSLAX24Y24*%
%IPPOS*%
%LPD*%
%AMOC8*
5,1,8,0,0,1.08239X$1,22.5*
%
%ADD10C,0.0160*%
%ADD11C,0.0060*%
%ADD12C,0.0100*%
%ADD13C,0.0040*%
%ADD14R,0.0149X0.0001*%
%ADD15R,0.0004X0.0001*%
%ADD16R,0.0010X0.0001*%
%ADD17R,0.0017X0.0001*%
%ADD18R,0.0023X0.0001*%
%ADD19R,0.0029X0.0001*%
%ADD20R,0.0034X0.0001*%
%ADD21R,0.0040X0.0001*%
%ADD22R,0.0043X0.0002*%
%ADD23R,0.0047X0.0001*%
%ADD24R,0.0050X0.0001*%
%ADD25R,0.0054X0.0001*%
%ADD26R,0.0059X0.0001*%
%ADD27R,0.0064X0.0001*%
%ADD28R,0.0015X0.0001*%
%ADD29R,0.0067X0.0001*%
%ADD30R,0.0020X0.0001*%
%ADD31R,0.0070X0.0001*%
%ADD32R,0.0024X0.0001*%
%ADD33R,0.0074X0.0001*%
%ADD34R,0.0027X0.0001*%
%ADD35R,0.0076X0.0001*%
%ADD36R,0.0030X0.0001*%
%ADD37R,0.0081X0.0002*%
%ADD38R,0.0036X0.0002*%
%ADD39R,0.0086X0.0001*%
%ADD40R,0.0044X0.0001*%
%ADD41R,0.0091X0.0001*%
%ADD42R,0.0046X0.0001*%
%ADD43R,0.0094X0.0001*%
%ADD44R,0.0096X0.0001*%
%ADD45R,0.0053X0.0001*%
%ADD46R,0.0099X0.0001*%
%ADD47R,0.0056X0.0001*%
%ADD48R,0.0104X0.0001*%
%ADD49R,0.0060X0.0001*%
%ADD50R,0.0108X0.0001*%
%ADD51R,0.0112X0.0001*%
%ADD52R,0.0117X0.0001*%
%ADD53R,0.0072X0.0001*%
%ADD54R,0.0120X0.0002*%
%ADD55R,0.0075X0.0002*%
%ADD56R,0.0123X0.0001*%
%ADD57R,0.0078X0.0001*%
%ADD58R,0.0126X0.0001*%
%ADD59R,0.0081X0.0001*%
%ADD60R,0.0131X0.0001*%
%ADD61R,0.0136X0.0001*%
%ADD62R,0.0090X0.0001*%
%ADD63R,0.0139X0.0001*%
%ADD64R,0.0144X0.0001*%
%ADD65R,0.0147X0.0001*%
%ADD66R,0.0101X0.0001*%
%ADD67R,0.0150X0.0001*%
%ADD68R,0.0102X0.0001*%
%ADD69R,0.0153X0.0001*%
%ADD70R,0.0106X0.0001*%
%ADD71R,0.0158X0.0002*%
%ADD72R,0.0109X0.0002*%
%ADD73R,0.0164X0.0001*%
%ADD74R,0.0115X0.0001*%
%ADD75R,0.0168X0.0001*%
%ADD76R,0.0120X0.0001*%
%ADD77R,0.0171X0.0001*%
%ADD78R,0.0123X0.0001*%
%ADD79R,0.0172X0.0001*%
%ADD80R,0.0125X0.0001*%
%ADD81R,0.0175X0.0001*%
%ADD82R,0.0128X0.0001*%
%ADD83R,0.0180X0.0001*%
%ADD84R,0.0132X0.0001*%
%ADD85R,0.0186X0.0001*%
%ADD86R,0.0191X0.0001*%
%ADD87R,0.0141X0.0001*%
%ADD88R,0.0194X0.0001*%
%ADD89R,0.0145X0.0001*%
%ADD90R,0.0196X0.0002*%
%ADD91R,0.0149X0.0002*%
%ADD92R,0.0199X0.0001*%
%ADD93R,0.0151X0.0001*%
%ADD94R,0.0204X0.0001*%
%ADD95R,0.0153X0.0001*%
%ADD96R,0.0207X0.0001*%
%ADD97R,0.0158X0.0001*%
%ADD98R,0.0211X0.0001*%
%ADD99R,0.0162X0.0001*%
%ADD100R,0.0216X0.0001*%
%ADD101R,0.0166X0.0001*%
%ADD102R,0.0219X0.0001*%
%ADD103R,0.0007X0.0001*%
%ADD104R,0.0169X0.0001*%
%ADD105R,0.0222X0.0001*%
%ADD106R,0.0011X0.0001*%
%ADD107R,0.0224X0.0001*%
%ADD108R,0.0014X0.0001*%
%ADD109R,0.0176X0.0001*%
%ADD110R,0.0228X0.0001*%
%ADD111R,0.0018X0.0001*%
%ADD112R,0.0179X0.0001*%
%ADD113R,0.0234X0.0002*%
%ADD114R,0.0024X0.0002*%
%ADD115R,0.0183X0.0002*%
%ADD116R,0.0239X0.0001*%
%ADD117R,0.0189X0.0001*%
%ADD118R,0.0241X0.0001*%
%ADD119R,0.0033X0.0001*%
%ADD120R,0.0012X0.0001*%
%ADD121R,0.0192X0.0001*%
%ADD122R,0.0243X0.0001*%
%ADD123R,0.0038X0.0001*%
%ADD124R,0.0246X0.0001*%
%ADD125R,0.0041X0.0001*%
%ADD126R,0.0019X0.0001*%
%ADD127R,0.0196X0.0001*%
%ADD128R,0.0250X0.0001*%
%ADD129R,0.0021X0.0001*%
%ADD130R,0.0201X0.0001*%
%ADD131R,0.0254X0.0001*%
%ADD132R,0.0048X0.0001*%
%ADD133R,0.0258X0.0001*%
%ADD134R,0.0054X0.0001*%
%ADD135R,0.0209X0.0001*%
%ADD136R,0.0263X0.0001*%
%ADD137R,0.0213X0.0001*%
%ADD138R,0.0267X0.0001*%
%ADD139R,0.0063X0.0001*%
%ADD140R,0.0270X0.0002*%
%ADD141R,0.0066X0.0002*%
%ADD142R,0.0045X0.0002*%
%ADD143R,0.0219X0.0002*%
%ADD144R,0.0271X0.0001*%
%ADD145R,0.0220X0.0001*%
%ADD146R,0.0274X0.0001*%
%ADD147R,0.0051X0.0001*%
%ADD148R,0.0223X0.0001*%
%ADD149R,0.0278X0.0001*%
%ADD150R,0.0282X0.0001*%
%ADD151R,0.0231X0.0001*%
%ADD152R,0.0288X0.0001*%
%ADD153R,0.0085X0.0001*%
%ADD154R,0.0236X0.0001*%
%ADD155R,0.0289X0.0001*%
%ADD156R,0.0087X0.0001*%
%ADD157R,0.0066X0.0001*%
%ADD158R,0.0292X0.0001*%
%ADD159R,0.0069X0.0001*%
%ADD160R,0.0297X0.0001*%
%ADD161R,0.0300X0.0001*%
%ADD162R,0.0075X0.0001*%
%ADD163R,0.0305X0.0002*%
%ADD164R,0.0101X0.0002*%
%ADD165R,0.0078X0.0002*%
%ADD166R,0.0251X0.0002*%
%ADD167R,0.0309X0.0001*%
%ADD168R,0.0105X0.0001*%
%ADD169R,0.0083X0.0001*%
%ADD170R,0.0255X0.0001*%
%ADD171R,0.0314X0.0001*%
%ADD172R,0.0110X0.0001*%
%ADD173R,0.0087X0.0001*%
%ADD174R,0.0316X0.0001*%
%ADD175R,0.0113X0.0001*%
%ADD176R,0.0262X0.0001*%
%ADD177R,0.0319X0.0001*%
%ADD178R,0.0114X0.0001*%
%ADD179R,0.0093X0.0001*%
%ADD180R,0.0266X0.0001*%
%ADD181R,0.0321X0.0001*%
%ADD182R,0.0096X0.0001*%
%ADD183R,0.0324X0.0001*%
%ADD184R,0.0270X0.0001*%
%ADD185R,0.0329X0.0001*%
%ADD186R,0.0124X0.0001*%
%ADD187R,0.0275X0.0001*%
%ADD188R,0.0333X0.0001*%
%ADD189R,0.0279X0.0001*%
%ADD190R,0.0336X0.0001*%
%ADD191R,0.0111X0.0001*%
%ADD192R,0.0284X0.0001*%
%ADD193R,0.0339X0.0002*%
%ADD194R,0.0134X0.0002*%
%ADD195R,0.0114X0.0002*%
%ADD196R,0.0286X0.0002*%
%ADD197R,0.0342X0.0001*%
%ADD198R,0.0116X0.0001*%
%ADD199R,0.0491X0.0001*%
%ADD200R,0.0492X0.0001*%
%ADD201R,0.0294X0.0001*%
%ADD202R,0.0495X0.0001*%
%ADD203R,0.0299X0.0001*%
%ADD204R,0.0496X0.0001*%
%ADD205R,0.0127X0.0001*%
%ADD206R,0.0301X0.0001*%
%ADD207R,0.0498X0.0001*%
%ADD208R,0.0304X0.0001*%
%ADD209R,0.0501X0.0001*%
%ADD210R,0.0134X0.0001*%
%ADD211R,0.0308X0.0001*%
%ADD212R,0.0135X0.0001*%
%ADD213R,0.0311X0.0001*%
%ADD214R,0.0504X0.0001*%
%ADD215R,0.0138X0.0001*%
%ADD216R,0.0504X0.0002*%
%ADD217R,0.0141X0.0002*%
%ADD218R,0.0318X0.0002*%
%ADD219R,0.0507X0.0001*%
%ADD220R,0.0323X0.0001*%
%ADD221R,0.0326X0.0001*%
%ADD222R,0.0508X0.0001*%
%ADD223R,0.0152X0.0001*%
%ADD224R,0.0330X0.0001*%
%ADD225R,0.0510X0.0001*%
%ADD226R,0.0494X0.0001*%
%ADD227R,0.0512X0.0001*%
%ADD228R,0.0500X0.0001*%
%ADD229R,0.0513X0.0001*%
%ADD230R,0.0501X0.0001*%
%ADD231R,0.0513X0.0002*%
%ADD232R,0.0501X0.0002*%
%ADD233R,0.0503X0.0001*%
%ADD234R,0.0504X0.0001*%
%ADD235R,0.0506X0.0001*%
%ADD236R,0.0513X0.0001*%
%ADD237R,0.0509X0.0001*%
%ADD238R,0.0511X0.0001*%
%ADD239R,0.0514X0.0001*%
%ADD240R,0.0516X0.0001*%
%ADD241R,0.0513X0.0002*%
%ADD242R,0.0519X0.0002*%
%ADD243R,0.0519X0.0001*%
%ADD244R,0.0520X0.0001*%
%ADD245R,0.0522X0.0001*%
%ADD246R,0.0507X0.0001*%
%ADD247R,0.0509X0.0002*%
%ADD248R,0.0520X0.0002*%
%ADD249R,0.0522X0.0001*%
%ADD250R,0.0505X0.0001*%
%ADD251R,0.0502X0.0001*%
%ADD252R,0.0521X0.0001*%
%ADD253R,0.0503X0.0002*%
%ADD254R,0.0519X0.0002*%
%ADD255R,0.0519X0.0001*%
%ADD256R,0.0499X0.0001*%
%ADD257R,0.0517X0.0001*%
%ADD258R,0.0495X0.0002*%
%ADD259R,0.0514X0.0002*%
%ADD260R,0.0515X0.0001*%
%ADD261R,0.0492X0.0001*%
%ADD262R,0.0490X0.0001*%
%ADD263R,0.0490X0.0002*%
%ADD264R,0.0511X0.0002*%
%ADD265R,0.0489X0.0001*%
%ADD266R,0.0489X0.0001*%
%ADD267R,0.0488X0.0001*%
%ADD268R,0.0485X0.0001*%
%ADD269R,0.0483X0.0001*%
%ADD270R,0.0483X0.0002*%
%ADD271R,0.0507X0.0002*%
%ADD272R,0.0483X0.0001*%
%ADD273R,0.0481X0.0001*%
%ADD274R,0.0480X0.0001*%
%ADD275R,0.0480X0.0002*%
%ADD276R,0.0501X0.0002*%
%ADD277R,0.0479X0.0001*%
%ADD278R,0.0477X0.0001*%
%ADD279R,0.0477X0.0001*%
%ADD280R,0.0475X0.0001*%
%ADD281R,0.0474X0.0001*%
%ADD282R,0.0472X0.0001*%
%ADD283R,0.0472X0.0002*%
%ADD284R,0.0498X0.0002*%
%ADD285R,0.0471X0.0001*%
%ADD286R,0.0473X0.0001*%
%ADD287R,0.0471X0.0001*%
%ADD288R,0.0470X0.0001*%
%ADD289R,0.0468X0.0001*%
%ADD290R,0.0469X0.0001*%
%ADD291R,0.0468X0.0002*%
%ADD292R,0.0491X0.0002*%
%ADD293R,0.0466X0.0001*%
%ADD294R,0.0465X0.0001*%
%ADD295R,0.0464X0.0001*%
%ADD296R,0.0462X0.0001*%
%ADD297R,0.0462X0.0002*%
%ADD298R,0.0489X0.0002*%
%ADD299R,0.0461X0.0001*%
%ADD300R,0.0460X0.0001*%
%ADD301R,0.0459X0.0001*%
%ADD302R,0.0484X0.0001*%
%ADD303R,0.0457X0.0001*%
%ADD304R,0.0459X0.0001*%
%ADD305R,0.0458X0.0002*%
%ADD306R,0.0484X0.0002*%
%ADD307R,0.0456X0.0001*%
%ADD308R,0.0455X0.0001*%
%ADD309R,0.0453X0.0001*%
%ADD310R,0.0451X0.0001*%
%ADD311R,0.0453X0.0001*%
%ADD312R,0.0450X0.0001*%
%ADD313R,0.0451X0.0002*%
%ADD314R,0.0478X0.0001*%
%ADD315R,0.0449X0.0001*%
%ADD316R,0.0476X0.0001*%
%ADD317R,0.0447X0.0001*%
%ADD318R,0.0474X0.0001*%
%ADD319R,0.0449X0.0002*%
%ADD320R,0.0476X0.0002*%
%ADD321R,0.0454X0.0001*%
%ADD322R,0.0469X0.0002*%
%ADD323R,0.0468X0.0001*%
%ADD324R,0.0467X0.0001*%
%ADD325R,0.0473X0.0002*%
%ADD326R,0.0468X0.0002*%
%ADD327R,0.0486X0.0002*%
%ADD328R,0.0474X0.0002*%
%ADD329R,0.0487X0.0001*%
%ADD330R,0.0497X0.0001*%
%ADD331R,0.0486X0.0001*%
%ADD332R,0.0500X0.0002*%
%ADD333R,0.0487X0.0002*%
%ADD334R,0.0498X0.0001*%
%ADD335R,0.0524X0.0002*%
%ADD336R,0.0524X0.0001*%
%ADD337R,0.0525X0.0001*%
%ADD338R,0.0528X0.0001*%
%ADD339R,0.0529X0.0001*%
%ADD340R,0.0533X0.0001*%
%ADD341R,0.0534X0.0001*%
%ADD342R,0.0523X0.0001*%
%ADD343R,0.0536X0.0001*%
%ADD344R,0.0537X0.0002*%
%ADD345R,0.0527X0.0002*%
%ADD346R,0.0537X0.0001*%
%ADD347R,0.0528X0.0001*%
%ADD348R,0.0539X0.0001*%
%ADD349R,0.0530X0.0001*%
%ADD350R,0.0540X0.0001*%
%ADD351R,0.0541X0.0001*%
%ADD352R,0.0531X0.0001*%
%ADD353R,0.0543X0.0001*%
%ADD354R,0.0544X0.0001*%
%ADD355R,0.0546X0.0002*%
%ADD356R,0.0536X0.0002*%
%ADD357R,0.0547X0.0001*%
%ADD358R,0.0551X0.0001*%
%ADD359R,0.0552X0.0001*%
%ADD360R,0.0554X0.0001*%
%ADD361R,0.0555X0.0001*%
%ADD362R,0.0555X0.0002*%
%ADD363R,0.0547X0.0002*%
%ADD364R,0.0549X0.0001*%
%ADD365R,0.0548X0.0001*%
%ADD366R,0.0538X0.0001*%
%ADD367R,0.0537X0.0001*%
%ADD368R,0.0533X0.0002*%
%ADD369R,0.0531X0.0001*%
%ADD370R,0.0526X0.0001*%
%ADD371R,0.0518X0.0001*%
%ADD372R,0.0498X0.0002*%
%ADD373R,0.0496X0.0002*%
%ADD374R,0.0486X0.0001*%
%ADD375R,0.0485X0.0002*%
%ADD376R,0.0482X0.0001*%
%ADD377R,0.0477X0.0002*%
%ADD378R,0.0530X0.0002*%
%ADD379R,0.0464X0.0002*%
%ADD380R,0.0561X0.0001*%
%ADD381R,0.0570X0.0001*%
%ADD382R,0.0576X0.0001*%
%ADD383R,0.0581X0.0001*%
%ADD384R,0.0585X0.0001*%
%ADD385R,0.0589X0.0001*%
%ADD386R,0.0600X0.0002*%
%ADD387R,0.0614X0.0001*%
%ADD388R,0.0623X0.0001*%
%ADD389R,0.0630X0.0001*%
%ADD390R,0.0633X0.0001*%
%ADD391R,0.0638X0.0001*%
%ADD392R,0.0645X0.0001*%
%ADD393R,0.0657X0.0001*%
%ADD394R,0.0556X0.0001*%
%ADD395R,0.0669X0.0001*%
%ADD396R,0.0674X0.0001*%
%ADD397R,0.0579X0.0001*%
%ADD398R,0.0676X0.0002*%
%ADD399R,0.0585X0.0002*%
%ADD400R,0.0678X0.0001*%
%ADD401R,0.0590X0.0001*%
%ADD402R,0.0679X0.0001*%
%ADD403R,0.0596X0.0001*%
%ADD404R,0.0681X0.0001*%
%ADD405R,0.0606X0.0001*%
%ADD406R,0.0620X0.0001*%
%ADD407R,0.0682X0.0001*%
%ADD408R,0.0633X0.0001*%
%ADD409R,0.0684X0.0001*%
%ADD410R,0.0639X0.0001*%
%ADD411R,0.0649X0.0001*%
%ADD412R,0.0684X0.0001*%
%ADD413R,0.0655X0.0001*%
%ADD414R,0.0683X0.0002*%
%ADD415R,0.0664X0.0002*%
%ADD416R,0.0683X0.0001*%
%ADD417R,0.0670X0.0001*%
%ADD418R,0.0671X0.0001*%
%ADD419R,0.0681X0.0001*%
%ADD420R,0.0672X0.0001*%
%ADD421R,0.0680X0.0001*%
%ADD422R,0.0675X0.0001*%
%ADD423R,0.0676X0.0001*%
%ADD424R,0.0680X0.0002*%
%ADD425R,0.0678X0.0002*%
%ADD426R,0.0678X0.0001*%
%ADD427R,0.0675X0.0002*%
%ADD428R,0.0672X0.0002*%
%ADD429R,0.0672X0.0001*%
%ADD430R,0.0671X0.0002*%
%ADD431R,0.0670X0.0002*%
%ADD432R,0.0669X0.0001*%
%ADD433R,0.0667X0.0001*%
%ADD434R,0.0669X0.0002*%
%ADD435R,0.0667X0.0002*%
%ADD436R,0.0668X0.0001*%
%ADD437R,0.0666X0.0001*%
%ADD438R,0.0668X0.0002*%
%ADD439R,0.0666X0.0002*%
%ADD440R,0.0666X0.0001*%
%ADD441R,0.0664X0.0001*%
%ADD442R,0.0663X0.0001*%
%ADD443R,0.0666X0.0002*%
%ADD444R,0.0663X0.0002*%
%ADD445R,0.0665X0.0001*%
%ADD446R,0.0674X0.0002*%
%ADD447R,0.0677X0.0001*%
%ADD448R,0.0678X0.0002*%
%ADD449R,0.0682X0.0002*%
%ADD450R,0.0686X0.0001*%
%ADD451R,0.0686X0.0002*%
%ADD452R,0.0687X0.0001*%
%ADD453R,0.0689X0.0001*%
%ADD454R,0.0653X0.0001*%
%ADD455R,0.0641X0.0001*%
%ADD456R,0.0626X0.0001*%
%ADD457R,0.0616X0.0001*%
%ADD458R,0.0687X0.0001*%
%ADD459R,0.0612X0.0001*%
%ADD460R,0.0688X0.0001*%
%ADD461R,0.0606X0.0001*%
%ADD462R,0.0601X0.0001*%
%ADD463R,0.0591X0.0002*%
%ADD464R,0.0567X0.0001*%
%ADD465R,0.0560X0.0001*%
%ADD466R,0.0659X0.0001*%
%ADD467R,0.0516X0.0001*%
%ADD468R,0.0639X0.0001*%
%ADD469R,0.0502X0.0002*%
%ADD470R,0.0633X0.0002*%
%ADD471R,0.0608X0.0001*%
%ADD472R,0.0582X0.0001*%
%ADD473R,0.0577X0.0001*%
%ADD474R,0.0569X0.0002*%
%ADD475R,0.0546X0.0001*%
%ADD476R,0.0486X0.0002*%
%ADD477R,0.0493X0.0001*%
%ADD478R,0.0516X0.0002*%
%ADD479R,0.0532X0.0001*%
%ADD480R,0.0534X0.0002*%
%ADD481R,0.0535X0.0002*%
%ADD482R,0.0543X0.0001*%
%ADD483R,0.0553X0.0001*%
%ADD484R,0.0559X0.0001*%
%ADD485R,0.0564X0.0001*%
%ADD486R,0.0564X0.0001*%
%ADD487R,0.0567X0.0001*%
%ADD488R,0.0569X0.0001*%
%ADD489R,0.0570X0.0002*%
%ADD490R,0.0571X0.0002*%
%ADD491R,0.0571X0.0001*%
%ADD492R,0.0573X0.0001*%
%ADD493R,0.0574X0.0001*%
%ADD494R,0.0576X0.0001*%
%ADD495R,0.0600X0.0001*%
%ADD496R,0.0611X0.0001*%
%ADD497R,0.0618X0.0001*%
%ADD498R,0.0621X0.0001*%
%ADD499R,0.1269X0.0001*%
%ADD500R,0.1267X0.0001*%
%ADD501R,0.1266X0.0001*%
%ADD502R,0.1266X0.0002*%
%ADD503R,0.1264X0.0001*%
%ADD504R,0.1261X0.0001*%
%ADD505R,0.1260X0.0001*%
%ADD506R,0.1259X0.0001*%
%ADD507R,0.1256X0.0001*%
%ADD508R,0.1254X0.0001*%
%ADD509R,0.1253X0.0001*%
%ADD510R,0.1251X0.0001*%
%ADD511R,0.1251X0.0002*%
%ADD512R,0.1248X0.0001*%
%ADD513R,0.1245X0.0001*%
%ADD514R,0.1244X0.0001*%
%ADD515R,0.1242X0.0001*%
%ADD516R,0.1239X0.0001*%
%ADD517R,0.1237X0.0001*%
%ADD518R,0.1236X0.0002*%
%ADD519R,0.1233X0.0001*%
%ADD520R,0.1230X0.0001*%
%ADD521R,0.1229X0.0001*%
%ADD522R,0.1227X0.0001*%
%ADD523R,0.1226X0.0001*%
%ADD524R,0.1224X0.0001*%
%ADD525R,0.1223X0.0002*%
%ADD526R,0.1219X0.0001*%
%ADD527R,0.1216X0.0001*%
%ADD528R,0.1215X0.0001*%
%ADD529R,0.1214X0.0001*%
%ADD530R,0.1212X0.0001*%
%ADD531R,0.1209X0.0001*%
%ADD532R,0.1207X0.0002*%
%ADD533R,0.1206X0.0001*%
%ADD534R,0.1204X0.0001*%
%ADD535R,0.1201X0.0001*%
%ADD536R,0.1200X0.0001*%
%ADD537R,0.1199X0.0001*%
%ADD538R,0.1196X0.0001*%
%ADD539R,0.1194X0.0001*%
%ADD540R,0.1193X0.0001*%
%ADD541R,0.1191X0.0001*%
%ADD542R,0.1191X0.0002*%
%ADD543R,0.1188X0.0001*%
%ADD544R,0.1185X0.0001*%
%ADD545R,0.1184X0.0001*%
%ADD546R,0.1181X0.0001*%
%ADD547R,0.1177X0.0001*%
%ADD548R,0.1176X0.0001*%
%ADD549R,0.1174X0.0001*%
%ADD550R,0.1173X0.0001*%
%ADD551R,0.1170X0.0002*%
%ADD552R,0.1170X0.0001*%
%ADD553R,0.1169X0.0001*%
%ADD554R,0.1166X0.0001*%
%ADD555R,0.1164X0.0001*%
%ADD556R,0.1163X0.0001*%
%ADD557R,0.1163X0.0002*%
%ADD558R,0.1167X0.0001*%
%ADD559R,0.1171X0.0001*%
%ADD560R,0.1179X0.0001*%
%ADD561R,0.1182X0.0001*%
%ADD562R,0.1182X0.0002*%
%ADD563R,0.1188X0.0001*%
%ADD564R,0.1190X0.0001*%
%ADD565R,0.1197X0.0001*%
%ADD566R,0.1204X0.0002*%
%ADD567R,0.1207X0.0001*%
%ADD568R,0.1210X0.0001*%
%ADD569R,0.1213X0.0001*%
%ADD570R,0.1217X0.0001*%
%ADD571R,0.1218X0.0001*%
%ADD572R,0.1220X0.0001*%
%ADD573R,0.1221X0.0001*%
%ADD574R,0.1223X0.0001*%
%ADD575R,0.1226X0.0002*%
%ADD576R,0.1236X0.0001*%
%ADD577R,0.1239X0.0001*%
%ADD578R,0.1240X0.0001*%
%ADD579R,0.1243X0.0001*%
%ADD580R,0.1248X0.0002*%
%ADD581R,0.1248X0.0001*%
%ADD582R,0.1251X0.0001*%
%ADD583R,0.1257X0.0001*%
%ADD584R,0.1263X0.0001*%
%ADD585R,0.1267X0.0002*%
%ADD586R,0.1270X0.0001*%
%ADD587R,0.1274X0.0001*%
%ADD588R,0.1275X0.0001*%
%ADD589R,0.1278X0.0001*%
%ADD590R,0.1280X0.0001*%
%ADD591R,0.1281X0.0001*%
%ADD592R,0.1284X0.0001*%
%ADD593R,0.1286X0.0001*%
%ADD594R,0.1289X0.0001*%
%ADD595R,0.1290X0.0002*%
%ADD596R,0.1291X0.0001*%
%ADD597R,0.1294X0.0001*%
%ADD598R,0.1296X0.0001*%
%ADD599R,0.1299X0.0001*%
%ADD600R,0.1300X0.0001*%
%ADD601R,0.1302X0.0001*%
%ADD602R,0.1304X0.0001*%
%ADD603R,0.1306X0.0001*%
%ADD604R,0.1308X0.0001*%
%ADD605R,0.1311X0.0002*%
%ADD606R,0.1313X0.0001*%
%ADD607R,0.1316X0.0001*%
%ADD608R,0.1317X0.0001*%
%ADD609R,0.1320X0.0001*%
%ADD610R,0.1323X0.0001*%
%ADD611R,0.1326X0.0001*%
%ADD612R,0.1329X0.0001*%
%ADD613R,0.1332X0.0002*%
%ADD614R,0.1335X0.0001*%
%ADD615R,0.1336X0.0001*%
%ADD616R,0.1340X0.0001*%
%ADD617R,0.1343X0.0001*%
%ADD618R,0.1346X0.0001*%
%ADD619R,0.1347X0.0001*%
%ADD620R,0.1350X0.0001*%
%ADD621R,0.1353X0.0002*%
%ADD622R,0.1356X0.0001*%
%ADD623R,0.1357X0.0001*%
%ADD624R,0.1360X0.0001*%
%ADD625R,0.1364X0.0001*%
%ADD626R,0.1365X0.0001*%
%ADD627R,0.1368X0.0001*%
%ADD628R,0.1369X0.0001*%
%ADD629R,0.1373X0.0001*%
%ADD630R,0.1374X0.0002*%
%ADD631R,0.1377X0.0001*%
%ADD632R,0.1379X0.0001*%
%ADD633R,0.1380X0.0001*%
%ADD634R,0.1383X0.0001*%
%ADD635R,0.1386X0.0001*%
%ADD636R,0.1387X0.0001*%
%ADD637R,0.1391X0.0001*%
%ADD638R,0.1394X0.0001*%
%ADD639R,0.1395X0.0002*%
%ADD640R,0.1398X0.0001*%
%ADD641R,0.1401X0.0001*%
%ADD642R,0.1403X0.0001*%
%ADD643R,0.1406X0.0001*%
%ADD644R,0.1407X0.0001*%
%ADD645R,0.1409X0.0001*%
%ADD646R,0.1411X0.0001*%
%ADD647R,0.1414X0.0001*%
%ADD648R,0.1416X0.0002*%
%ADD649R,0.1419X0.0001*%
%ADD650R,0.1421X0.0001*%
%ADD651R,0.1422X0.0001*%
%ADD652R,0.1424X0.0001*%
%ADD653R,0.1426X0.0001*%
%ADD654R,0.1428X0.0001*%
%ADD655R,0.1429X0.0002*%
%ADD656R,0.1429X0.0001*%
%ADD657R,0.1425X0.0001*%
%ADD658R,0.1421X0.0002*%
%ADD659R,0.1418X0.0001*%
%ADD660R,0.1416X0.0001*%
%ADD661R,0.1413X0.0001*%
%ADD662R,0.1410X0.0001*%
%ADD663R,0.1404X0.0001*%
%ADD664R,0.1401X0.0001*%
%ADD665R,0.0346X0.0001*%
%ADD666R,0.1044X0.0001*%
%ADD667R,0.0342X0.0002*%
%ADD668R,0.1040X0.0002*%
%ADD669R,0.0337X0.0001*%
%ADD670R,0.1034X0.0001*%
%ADD671R,0.0357X0.0001*%
%ADD672R,0.0660X0.0001*%
%ADD673R,0.0353X0.0001*%
%ADD674R,0.0327X0.0001*%
%ADD675R,0.0349X0.0001*%
%ADD676R,0.0321X0.0001*%
%ADD677R,0.0648X0.0001*%
%ADD678R,0.0344X0.0001*%
%ADD679R,0.0317X0.0001*%
%ADD680R,0.0339X0.0001*%
%ADD681R,0.0312X0.0001*%
%ADD682R,0.0631X0.0001*%
%ADD683R,0.0334X0.0001*%
%ADD684R,0.0309X0.0001*%
%ADD685R,0.0307X0.0002*%
%ADD686R,0.0623X0.0002*%
%ADD687R,0.0327X0.0002*%
%ADD688R,0.0618X0.0001*%
%ADD689R,0.0297X0.0001*%
%ADD690R,0.0607X0.0001*%
%ADD691R,0.0320X0.0001*%
%ADD692R,0.0293X0.0001*%
%ADD693R,0.0599X0.0001*%
%ADD694R,0.0313X0.0001*%
%ADD695R,0.0285X0.0001*%
%ADD696R,0.0584X0.0001*%
%ADD697R,0.0303X0.0001*%
%ADD698R,0.0281X0.0001*%
%ADD699R,0.0273X0.0002*%
%ADD700R,0.0563X0.0002*%
%ADD701R,0.0293X0.0002*%
%ADD702R,0.0264X0.0001*%
%ADD703R,0.0259X0.0001*%
%ADD704R,0.0256X0.0001*%
%ADD705R,0.0276X0.0001*%
%ADD706R,0.0252X0.0001*%
%ADD707R,0.0273X0.0001*%
%ADD708R,0.0248X0.0001*%
%ADD709R,0.0269X0.0001*%
%ADD710R,0.0245X0.0001*%
%ADD711R,0.0240X0.0001*%
%ADD712R,0.0237X0.0002*%
%ADD713R,0.0256X0.0002*%
%ADD714R,0.0234X0.0001*%
%ADD715R,0.0232X0.0001*%
%ADD716R,0.0251X0.0001*%
%ADD717R,0.0228X0.0001*%
%ADD718R,0.0246X0.0001*%
%ADD719R,0.0456X0.0001*%
%ADD720R,0.0219X0.0001*%
%ADD721R,0.0444X0.0001*%
%ADD722R,0.0237X0.0001*%
%ADD723R,0.0214X0.0001*%
%ADD724R,0.0436X0.0001*%
%ADD725R,0.0432X0.0001*%
%ADD726R,0.0231X0.0001*%
%ADD727R,0.0210X0.0001*%
%ADD728R,0.0426X0.0001*%
%ADD729R,0.0420X0.0001*%
%ADD730R,0.0226X0.0001*%
%ADD731R,0.0204X0.0002*%
%ADD732R,0.0409X0.0002*%
%ADD733R,0.0222X0.0002*%
%ADD734R,0.0391X0.0001*%
%ADD735R,0.0217X0.0001*%
%ADD736R,0.0376X0.0001*%
%ADD737R,0.0368X0.0001*%
%ADD738R,0.0189X0.0001*%
%ADD739R,0.0361X0.0001*%
%ADD740R,0.0206X0.0001*%
%ADD741R,0.0186X0.0001*%
%ADD742R,0.0356X0.0001*%
%ADD743R,0.0181X0.0001*%
%ADD744R,0.0345X0.0001*%
%ADD745R,0.0173X0.0001*%
%ADD746R,0.0331X0.0001*%
%ADD747R,0.0190X0.0001*%
%ADD748R,0.0168X0.0001*%
%ADD749R,0.0165X0.0002*%
%ADD750R,0.0162X0.0001*%
%ADD751R,0.0159X0.0001*%
%ADD752R,0.0177X0.0001*%
%ADD753R,0.0156X0.0001*%
%ADD754R,0.0324X0.0001*%
%ADD755R,0.0174X0.0001*%
%ADD756R,0.0167X0.0001*%
%ADD757R,0.0146X0.0001*%
%ADD758R,0.0163X0.0001*%
%ADD759R,0.0141X0.0001*%
%ADD760R,0.0140X0.0001*%
%ADD761R,0.0137X0.0001*%
%ADD762R,0.0133X0.0001*%
%ADD763R,0.0129X0.0002*%
%ADD764R,0.0321X0.0002*%
%ADD765R,0.0146X0.0002*%
%ADD766R,0.0119X0.0001*%
%ADD767R,0.0129X0.0001*%
%ADD768R,0.0111X0.0001*%
%ADD769R,0.0126X0.0001*%
%ADD770R,0.0318X0.0001*%
%ADD771R,0.0097X0.0001*%
%ADD772R,0.0315X0.0001*%
%ADD773R,0.0089X0.0002*%
%ADD774R,0.0315X0.0002*%
%ADD775R,0.0105X0.0002*%
%ADD776R,0.0079X0.0001*%
%ADD777R,0.0089X0.0001*%
%ADD778R,0.0069X0.0001*%
%ADD779R,0.0084X0.0001*%
%ADD780R,0.0057X0.0001*%
%ADD781R,0.0052X0.0002*%
%ADD782R,0.0311X0.0002*%
%ADD783R,0.0066X0.0002*%
%ADD784R,0.0061X0.0001*%
%ADD785R,0.0042X0.0001*%
%ADD786R,0.0055X0.0001*%
%ADD787R,0.0039X0.0001*%
%ADD788R,0.0052X0.0001*%
%ADD789R,0.0036X0.0001*%
%ADD790R,0.0049X0.0001*%
%ADD791R,0.0307X0.0001*%
%ADD792R,0.0045X0.0001*%
%ADD793R,0.0022X0.0001*%
%ADD794R,0.0035X0.0001*%
%ADD795R,0.0025X0.0002*%
%ADD796R,0.0306X0.0001*%
%ADD797R,0.0018X0.0001*%
%ADD798R,0.0008X0.0001*%
%ADD799R,0.0300X0.0002*%
%ADD800R,0.0296X0.0001*%
%ADD801R,0.0294X0.0002*%
%ADD802R,0.0294X0.0001*%
%ADD803R,0.0291X0.0001*%
%ADD804R,0.0291X0.0002*%
%ADD805R,0.0286X0.0001*%
%ADD806R,0.0281X0.0002*%
%ADD807R,0.0277X0.0001*%
%ADD808R,0.0276X0.0001*%
%ADD809R,0.0266X0.0002*%
%ADD810R,0.0264X0.0001*%
%ADD811R,0.0261X0.0001*%
%ADD812R,0.0259X0.0002*%
%ADD813R,0.0254X0.0002*%
%ADD814R,0.0248X0.0002*%
%ADD815R,0.0218X0.0002*%
%ADD816R,0.0157X0.0001*%
%ADD817C,0.0050*%
%ADD818C,0.0070*%
%ADD819C,0.0090*%
%ADD820R,0.0900X0.0250*%
%ADD821C,0.0240*%
%ADD822C,0.0020*%
%ADD823R,0.0079X0.0551*%
%ADD824C,0.0030*%
%ADD825R,0.0500X0.0350*%
%ADD826R,0.0400X0.6200*%
%ADD827R,0.0200X0.0400*%
%ADD828R,0.0200X0.0850*%
%ADD829C,0.0217*%
%ADD830R,0.0197X0.3150*%
%ADD831R,0.0225X0.0300*%
%ADD832R,0.0551X0.0079*%
%ADD833C,0.0080*%
%ADD834C,0.0000*%
%ADD835R,0.1800X0.0300*%
%ADD836C,0.0120*%
%ADD837R,0.0750X0.4500*%
D10*
X010906Y009427D02*
X011406Y009427D01*
X011906Y009427D01*
X011906Y009777D02*
X011406Y009777D01*
X010906Y009777D01*
X029965Y005927D02*
X032965Y005927D01*
X031465Y008427D01*
X029965Y005927D01*
X031303Y006378D02*
X031616Y006378D01*
X031665Y006427D02*
X031365Y006127D01*
X031265Y006527D01*
X031665Y006427D01*
X031458Y006220D02*
X031342Y006220D01*
X031365Y006177D02*
X031615Y006927D01*
X031115Y006927D01*
X031365Y007677D01*
X031345Y007646D02*
X031525Y007646D01*
X031565Y007727D02*
X031165Y006927D01*
X031365Y007727D01*
X031565Y007727D01*
X031446Y007488D02*
X031306Y007488D01*
X031266Y007329D02*
X031366Y007329D01*
X031287Y007171D02*
X031226Y007171D01*
X031208Y007012D02*
X031187Y007012D01*
X033681Y016052D02*
X034181Y016052D01*
X034681Y016052D01*
X034681Y016402D02*
X034181Y016402D01*
X033681Y016402D01*
D11*
X034181Y016402D02*
X034181Y016602D01*
X034181Y016052D02*
X034181Y014502D01*
X033181Y013602D02*
X033183Y013585D01*
X033187Y013568D01*
X033194Y013552D01*
X033204Y013538D01*
X033217Y013525D01*
X033231Y013515D01*
X033247Y013508D01*
X033264Y013504D01*
X033281Y013502D01*
X035081Y013502D01*
X035098Y013504D01*
X035115Y013508D01*
X035131Y013515D01*
X035145Y013525D01*
X035158Y013538D01*
X035168Y013552D01*
X035175Y013568D01*
X035179Y013585D01*
X035181Y013602D01*
X035181Y017502D01*
X035179Y017519D01*
X035175Y017536D01*
X035168Y017552D01*
X035158Y017566D01*
X035145Y017579D01*
X035131Y017589D01*
X035115Y017596D01*
X035098Y017600D01*
X035081Y017602D01*
X033281Y017602D01*
X033264Y017600D01*
X033247Y017596D01*
X033231Y017589D01*
X033217Y017579D01*
X033204Y017566D01*
X033194Y017552D01*
X033187Y017536D01*
X033183Y017519D01*
X033181Y017502D01*
X033181Y013602D01*
X030941Y012362D02*
X030941Y008362D01*
X028741Y008362D01*
X028741Y012362D01*
X030941Y012362D01*
X029841Y011362D02*
X029841Y009362D01*
X030216Y010237D02*
X030091Y010362D01*
X029591Y010362D01*
X029466Y010487D01*
X027910Y010237D02*
X027785Y010362D01*
X027285Y010362D01*
X027160Y010487D01*
X027535Y011362D02*
X027535Y009362D01*
X026435Y008362D02*
X026435Y012362D01*
X028635Y012362D01*
X028635Y008362D01*
X026435Y008362D01*
X023138Y009057D02*
X023138Y009277D01*
X023064Y009351D01*
X022917Y009351D01*
X022844Y009277D01*
X022684Y009351D02*
X022537Y009351D01*
X022610Y009424D02*
X022610Y009131D01*
X022684Y009057D01*
X022844Y009057D02*
X022844Y009498D01*
X022374Y009351D02*
X022300Y009351D01*
X022153Y009204D01*
X022153Y009057D02*
X022153Y009351D01*
X021987Y009277D02*
X021987Y009057D01*
X021766Y009057D01*
X021693Y009131D01*
X021766Y009204D01*
X021987Y009204D01*
X021987Y009277D02*
X021913Y009351D01*
X021766Y009351D01*
X021526Y009498D02*
X021233Y009498D01*
X021233Y009057D01*
X021526Y009057D01*
X021379Y009277D02*
X021233Y009277D01*
X020612Y009351D02*
X020465Y009351D01*
X020539Y009424D02*
X020539Y009131D01*
X020612Y009057D01*
X020298Y009057D02*
X020298Y009351D01*
X020005Y009351D02*
X020005Y009131D01*
X020078Y009057D01*
X020298Y009057D01*
X019838Y009131D02*
X019838Y009277D01*
X019765Y009351D01*
X019618Y009351D01*
X019544Y009277D01*
X019544Y009131D01*
X019618Y009057D01*
X019765Y009057D01*
X019838Y009131D01*
X019378Y009057D02*
X019084Y009057D01*
X019084Y009498D01*
X018464Y009351D02*
X018317Y009351D01*
X018390Y009424D02*
X018390Y009131D01*
X018464Y009057D01*
X018150Y009057D02*
X018150Y009351D01*
X017856Y009351D02*
X017856Y009131D01*
X017930Y009057D01*
X018150Y009057D01*
X017690Y009131D02*
X017690Y009277D01*
X017616Y009351D01*
X017469Y009351D01*
X017396Y009277D01*
X017396Y009131D01*
X017469Y009057D01*
X017616Y009057D01*
X017690Y009131D01*
X017229Y009057D02*
X017229Y009498D01*
X016936Y009498D02*
X016936Y009057D01*
X017229Y009057D02*
X016936Y009498D01*
X016020Y009277D02*
X016020Y009057D01*
X016020Y009277D02*
X015947Y009351D01*
X015726Y009351D01*
X015726Y009057D01*
X015566Y009057D02*
X015419Y009057D01*
X015493Y009057D02*
X015493Y009351D01*
X015419Y009351D01*
X015493Y009498D02*
X015493Y009571D01*
X014959Y009498D02*
X014959Y009057D01*
X015253Y009057D01*
X013871Y009057D02*
X013871Y009277D01*
X013798Y009351D01*
X013578Y009351D01*
X013578Y009057D01*
X013418Y009057D02*
X013271Y009057D01*
X013344Y009057D02*
X013344Y009351D01*
X013271Y009351D01*
X013344Y009498D02*
X013344Y009571D01*
X013104Y009498D02*
X013104Y009057D01*
X012811Y009498D01*
X012811Y009057D01*
X012606Y008277D02*
X012606Y013077D01*
X012604Y013103D01*
X012599Y013129D01*
X012591Y013154D01*
X012579Y013177D01*
X012565Y013199D01*
X012547Y013218D01*
X012528Y013236D01*
X012506Y013250D01*
X012483Y013262D01*
X012458Y013270D01*
X012432Y013275D01*
X012406Y013277D01*
X010406Y013277D01*
X010380Y013275D01*
X010354Y013270D01*
X010329Y013262D01*
X010306Y013250D01*
X010284Y013236D01*
X010265Y013218D01*
X010247Y013199D01*
X010233Y013177D01*
X010221Y013154D01*
X010213Y013129D01*
X010208Y013103D01*
X010206Y013077D01*
X010206Y008277D01*
X010208Y008251D01*
X010213Y008225D01*
X010221Y008200D01*
X010233Y008177D01*
X010247Y008155D01*
X010265Y008136D01*
X010284Y008118D01*
X010306Y008104D01*
X010329Y008092D01*
X010354Y008084D01*
X010380Y008079D01*
X010406Y008077D01*
X012406Y008077D01*
X012432Y008079D01*
X012458Y008084D01*
X012483Y008092D01*
X012506Y008104D01*
X012528Y008118D01*
X012547Y008136D01*
X012565Y008155D01*
X012579Y008177D01*
X012591Y008200D01*
X012599Y008225D01*
X012604Y008251D01*
X012606Y008277D01*
X011406Y009177D02*
X011406Y009427D01*
X011406Y009777D02*
X011406Y012177D01*
X011411Y018107D02*
X011411Y018207D01*
X011390Y018209D01*
X011370Y018214D01*
X011351Y018223D01*
X011334Y018235D01*
X011319Y018250D01*
X011307Y018267D01*
X011298Y018286D01*
X011293Y018306D01*
X011291Y018327D01*
X011293Y018348D01*
X011298Y018368D01*
X011307Y018387D01*
X011319Y018404D01*
X011334Y018419D01*
X011351Y018431D01*
X011370Y018440D01*
X011390Y018445D01*
X011411Y018447D01*
X011411Y018557D01*
X011411Y018447D02*
X011390Y018445D01*
X011370Y018440D01*
X011351Y018431D01*
X011334Y018419D01*
X011319Y018404D01*
X011307Y018387D01*
X011298Y018368D01*
X011293Y018348D01*
X011291Y018327D01*
X011293Y018306D01*
X011298Y018286D01*
X011307Y018267D01*
X011319Y018250D01*
X011334Y018235D01*
X011351Y018223D01*
X011370Y018214D01*
X011390Y018209D01*
X011411Y018207D01*
X010751Y018107D02*
X010751Y018557D01*
X010296Y028322D02*
X010016Y028322D01*
X010016Y028882D02*
X010146Y028882D01*
X010606Y038552D02*
X011256Y039202D01*
X011346Y039352D02*
X011646Y039352D01*
X011856Y039327D02*
X012106Y039652D01*
X012331Y039327D01*
X011856Y039327D01*
X011879Y039357D02*
X012310Y039357D01*
X012269Y039416D02*
X011924Y039416D01*
X011969Y039474D02*
X012229Y039474D01*
X012188Y039533D02*
X012014Y039533D01*
X012059Y039591D02*
X012148Y039591D01*
X012107Y039650D02*
X012104Y039650D01*
X011496Y039502D02*
X011496Y039202D01*
X011256Y039572D02*
X011256Y038552D01*
X008656Y038552D01*
X008656Y039572D01*
X008656Y040132D02*
X008656Y041152D01*
X011256Y041152D01*
X011256Y040502D01*
X010606Y041152D01*
X011256Y040502D02*
X011256Y040132D01*
X011656Y041252D02*
X011656Y038452D01*
X008256Y038452D01*
X008256Y041252D01*
X011656Y041252D01*
X024131Y040177D02*
X024456Y039927D01*
X024456Y040402D01*
X024131Y040177D01*
X024132Y040176D02*
X024456Y040176D01*
X024456Y040118D02*
X024208Y040118D01*
X024284Y040059D02*
X024456Y040059D01*
X024456Y040001D02*
X024360Y040001D01*
X024436Y039942D02*
X024456Y039942D01*
X024456Y040235D02*
X024214Y040235D01*
X024298Y040293D02*
X024456Y040293D01*
X024456Y040352D02*
X024383Y040352D01*
X023926Y038012D02*
X023926Y037422D01*
X023947Y037420D01*
X023967Y037415D01*
X023986Y037406D01*
X024003Y037394D01*
X024018Y037379D01*
X024030Y037362D01*
X024039Y037343D01*
X024044Y037323D01*
X024046Y037302D01*
X024044Y037281D01*
X024039Y037261D01*
X024030Y037242D01*
X024018Y037225D01*
X024003Y037210D01*
X023986Y037198D01*
X023967Y037189D01*
X023947Y037184D01*
X023926Y037182D01*
X023926Y036592D01*
X025886Y036592D02*
X025886Y038012D01*
X027451Y041557D02*
X027451Y041777D01*
X027451Y041557D02*
X028911Y041557D01*
X028911Y044197D01*
X027451Y044197D01*
X027451Y043977D01*
X030390Y041028D02*
X030690Y041028D01*
X030540Y040878D02*
X030540Y041178D01*
X030040Y039978D02*
X030040Y039878D01*
X030490Y039878D01*
X030490Y039628D01*
X029590Y039628D01*
X029590Y039878D01*
X030040Y039878D01*
X028040Y039528D02*
X028042Y039626D01*
X028050Y039724D01*
X028062Y039821D01*
X028078Y039918D01*
X028100Y040014D01*
X028126Y040109D01*
X028157Y040202D01*
X028192Y040293D01*
X028232Y040383D01*
X028276Y040471D01*
X028325Y040556D01*
X028377Y040639D01*
X028434Y040719D01*
X028494Y040797D01*
X028558Y040871D01*
X028626Y040942D01*
X028697Y041010D01*
X028771Y041074D01*
X028849Y041134D01*
X028929Y041191D01*
X029012Y041243D01*
X029097Y041292D01*
X029185Y041336D01*
X029275Y041376D01*
X029366Y041411D01*
X029459Y041442D01*
X029554Y041468D01*
X029650Y041490D01*
X029747Y041506D01*
X029844Y041518D01*
X029942Y041526D01*
X030040Y041528D01*
X030138Y041526D01*
X030236Y041518D01*
X030333Y041506D01*
X030430Y041490D01*
X030526Y041468D01*
X030621Y041442D01*
X030714Y041411D01*
X030805Y041376D01*
X030895Y041336D01*
X030983Y041292D01*
X031068Y041243D01*
X031151Y041191D01*
X031231Y041134D01*
X031309Y041074D01*
X031383Y041010D01*
X031454Y040942D01*
X031522Y040871D01*
X031586Y040797D01*
X031646Y040719D01*
X031703Y040639D01*
X031755Y040556D01*
X031804Y040471D01*
X031848Y040383D01*
X031888Y040293D01*
X031923Y040202D01*
X031954Y040109D01*
X031980Y040014D01*
X032002Y039918D01*
X032018Y039821D01*
X032030Y039724D01*
X032038Y039626D01*
X032040Y039528D01*
X032038Y039430D01*
X032030Y039332D01*
X032018Y039235D01*
X032002Y039138D01*
X031980Y039042D01*
X031954Y038947D01*
X031923Y038854D01*
X031888Y038763D01*
X031848Y038673D01*
X031804Y038585D01*
X031755Y038500D01*
X031703Y038417D01*
X031646Y038337D01*
X031586Y038259D01*
X031522Y038185D01*
X031454Y038114D01*
X031383Y038046D01*
X031309Y037982D01*
X031231Y037922D01*
X031151Y037865D01*
X031068Y037813D01*
X030983Y037764D01*
X030895Y037720D01*
X030805Y037680D01*
X030714Y037645D01*
X030621Y037614D01*
X030526Y037588D01*
X030430Y037566D01*
X030333Y037550D01*
X030236Y037538D01*
X030138Y037530D01*
X030040Y037528D01*
X029942Y037530D01*
X029844Y037538D01*
X029747Y037550D01*
X029650Y037566D01*
X029554Y037588D01*
X029459Y037614D01*
X029366Y037645D01*
X029275Y037680D01*
X029185Y037720D01*
X029097Y037764D01*
X029012Y037813D01*
X028929Y037865D01*
X028849Y037922D01*
X028771Y037982D01*
X028697Y038046D01*
X028626Y038114D01*
X028558Y038185D01*
X028494Y038259D01*
X028434Y038337D01*
X028377Y038417D01*
X028325Y038500D01*
X028276Y038585D01*
X028232Y038673D01*
X028192Y038763D01*
X028157Y038854D01*
X028126Y038947D01*
X028100Y039042D01*
X028078Y039138D01*
X028062Y039235D01*
X028050Y039332D01*
X028042Y039430D01*
X028040Y039528D01*
X030040Y039278D02*
X030040Y039078D01*
X029289Y036029D02*
X032732Y036029D01*
X032732Y033525D01*
X029289Y033525D01*
X029289Y035826D01*
X032693Y035826D01*
X033189Y035826D02*
X036593Y035826D01*
X036632Y036029D02*
X036632Y033525D01*
X033189Y033525D01*
X033189Y035826D01*
X033189Y036029D01*
X036632Y036029D01*
X029289Y036029D02*
X029289Y035826D01*
X029906Y026452D02*
X029756Y026302D01*
X029756Y020802D01*
X029906Y020652D01*
X031156Y020602D01*
X033556Y020602D02*
X034806Y020652D01*
X034956Y020802D01*
X034956Y026302D01*
X034806Y026452D01*
X033556Y026502D01*
X031156Y026502D02*
X029906Y026452D01*
X032176Y009048D02*
X032086Y008958D01*
X032086Y008597D01*
X032176Y008507D01*
X032356Y008507D01*
X032446Y008597D01*
X032638Y008507D02*
X032638Y008867D01*
X032818Y009048D01*
X032998Y008867D01*
X032998Y008507D01*
X033191Y008597D02*
X033281Y008507D01*
X033461Y008507D01*
X033551Y008597D01*
X033551Y009048D01*
X033743Y009048D02*
X034103Y009048D01*
X033923Y009048D02*
X033923Y008507D01*
X034295Y008507D02*
X034476Y008507D01*
X034386Y008507D02*
X034386Y009048D01*
X034476Y009048D02*
X034295Y009048D01*
X034664Y008958D02*
X034664Y008597D01*
X034754Y008507D01*
X034934Y008507D01*
X035024Y008597D01*
X035024Y008958D01*
X034934Y009048D01*
X034754Y009048D01*
X034664Y008958D01*
X035216Y009048D02*
X035216Y008507D01*
X035577Y008507D02*
X035577Y009048D01*
X035769Y009138D02*
X035769Y008777D01*
X035769Y008597D02*
X035769Y008507D01*
X035577Y008507D02*
X035216Y009048D01*
X033191Y009048D02*
X033191Y008597D01*
X032998Y008777D02*
X032638Y008777D01*
X032446Y008958D02*
X032356Y009048D01*
X032176Y009048D01*
D12*
X036903Y005427D02*
X007769Y005427D01*
X007769Y044797D01*
X036903Y044797D01*
X036903Y005427D01*
X036381Y009352D02*
X031281Y009352D01*
X031281Y013052D01*
X036381Y013052D01*
X036381Y009352D01*
X036524Y017869D02*
X033532Y017869D01*
X033925Y018459D02*
X033925Y018538D01*
X033925Y018459D02*
X036524Y018459D01*
X036524Y017869D01*
X036524Y020034D02*
X036524Y020526D01*
X032981Y020526D01*
X032981Y026628D01*
X036524Y026628D01*
X036524Y027120D01*
X032981Y027120D01*
X032981Y027632D01*
X033041Y027635D01*
X033101Y027642D01*
X033161Y027653D01*
X033220Y027667D01*
X033278Y027686D01*
X033334Y027707D01*
X033390Y027732D01*
X033443Y027761D01*
X033495Y027793D01*
X033544Y027828D01*
X033591Y027866D01*
X033636Y027907D01*
X033678Y027951D01*
X033717Y027997D01*
X033753Y028046D01*
X033786Y028097D01*
X033816Y028149D01*
X033842Y028204D01*
X033865Y028260D01*
X033885Y028318D01*
X033900Y028376D01*
X033912Y028436D01*
X033921Y028496D01*
X033925Y028556D01*
X033926Y028617D01*
X033925Y028617D02*
X033925Y028695D01*
X036524Y028695D01*
X036524Y029286D01*
X033532Y029286D01*
X032429Y029286D02*
X031799Y029286D01*
X031799Y017869D01*
X032429Y017869D01*
X033926Y018537D02*
X033925Y018598D01*
X033921Y018658D01*
X033912Y018718D01*
X033900Y018778D01*
X033885Y018836D01*
X033865Y018894D01*
X033842Y018950D01*
X033816Y019005D01*
X033786Y019057D01*
X033753Y019108D01*
X033717Y019157D01*
X033678Y019203D01*
X033636Y019247D01*
X033591Y019288D01*
X033544Y019326D01*
X033495Y019361D01*
X033443Y019393D01*
X033390Y019422D01*
X033334Y019447D01*
X033278Y019468D01*
X033220Y019487D01*
X033161Y019501D01*
X033101Y019512D01*
X033041Y019519D01*
X032981Y019522D01*
X032981Y020034D01*
X036524Y020034D01*
X025407Y008678D02*
X024857Y008678D01*
X024282Y008678D01*
X024407Y008428D02*
X025282Y008428D01*
X025157Y008178D02*
X024532Y008178D01*
X024102Y008628D02*
X024104Y008682D01*
X024110Y008736D01*
X024120Y008789D01*
X024133Y008842D01*
X024150Y008893D01*
X024171Y008943D01*
X024196Y008991D01*
X024224Y009038D01*
X024255Y009082D01*
X024289Y009124D01*
X024326Y009163D01*
X024366Y009200D01*
X024409Y009233D01*
X024454Y009264D01*
X024501Y009291D01*
X024549Y009314D01*
X024600Y009334D01*
X024651Y009351D01*
X024704Y009363D01*
X024757Y009372D01*
X024811Y009377D01*
X024866Y009378D01*
X024920Y009375D01*
X024973Y009368D01*
X025026Y009357D01*
X025079Y009343D01*
X025130Y009325D01*
X025179Y009303D01*
X025227Y009278D01*
X025273Y009249D01*
X025317Y009217D01*
X025358Y009182D01*
X025396Y009144D01*
X025432Y009103D01*
X025465Y009060D01*
X025495Y009015D01*
X025521Y008967D01*
X025544Y008918D01*
X025563Y008867D01*
X025578Y008816D01*
X025590Y008763D01*
X025598Y008709D01*
X025602Y008655D01*
X025602Y008601D01*
X025598Y008547D01*
X025590Y008493D01*
X025578Y008440D01*
X025563Y008389D01*
X025544Y008338D01*
X025521Y008289D01*
X025495Y008241D01*
X025465Y008196D01*
X025432Y008153D01*
X025396Y008112D01*
X025358Y008074D01*
X025317Y008039D01*
X025273Y008007D01*
X025227Y007978D01*
X025179Y007953D01*
X025130Y007931D01*
X025079Y007913D01*
X025026Y007899D01*
X024973Y007888D01*
X024920Y007881D01*
X024866Y007878D01*
X024811Y007879D01*
X024757Y007884D01*
X024704Y007893D01*
X024651Y007905D01*
X024600Y007922D01*
X024549Y007942D01*
X024501Y007965D01*
X024454Y007992D01*
X024409Y008023D01*
X024366Y008056D01*
X024326Y008093D01*
X024289Y008132D01*
X024255Y008174D01*
X024224Y008218D01*
X024196Y008265D01*
X024171Y008313D01*
X024150Y008363D01*
X024133Y008414D01*
X024120Y008467D01*
X024110Y008520D01*
X024104Y008574D01*
X024102Y008628D01*
X024857Y008678D02*
X024857Y009178D01*
X023931Y020927D02*
X022931Y020927D01*
X022931Y025427D01*
X023931Y025427D01*
X022931Y025427D02*
X022181Y025427D01*
X022181Y020927D01*
X022931Y020927D01*
X021681Y020927D02*
X021681Y025427D01*
X021431Y025427D02*
X021431Y020927D01*
X020931Y020927D02*
X020181Y020927D01*
X019181Y020927D01*
X020181Y020927D02*
X020181Y025427D01*
X019181Y025427D01*
X020181Y025427D02*
X020931Y025427D01*
X020931Y020927D01*
X014232Y021628D02*
X012732Y023128D01*
X012982Y023028D02*
X013032Y023028D01*
X013232Y023028D01*
X013232Y023328D01*
X013282Y023328D01*
X013282Y023028D01*
X013932Y023028D01*
X013862Y021938D01*
X013674Y021778D02*
X013676Y021803D01*
X013682Y021827D01*
X013691Y021850D01*
X013704Y021871D01*
X013720Y021890D01*
X013739Y021906D01*
X013760Y021919D01*
X013783Y021928D01*
X013807Y021934D01*
X013832Y021936D01*
X013857Y021934D01*
X013881Y021928D01*
X013904Y021919D01*
X013925Y021906D01*
X013944Y021890D01*
X013960Y021871D01*
X013973Y021850D01*
X013982Y021827D01*
X013988Y021803D01*
X013990Y021778D01*
X013988Y021753D01*
X013982Y021729D01*
X013973Y021706D01*
X013960Y021685D01*
X013944Y021666D01*
X013925Y021650D01*
X013904Y021637D01*
X013881Y021628D01*
X013857Y021622D01*
X013832Y021620D01*
X013807Y021622D01*
X013783Y021628D01*
X013760Y021637D01*
X013739Y021650D01*
X013720Y021666D01*
X013704Y021685D01*
X013691Y021706D01*
X013682Y021729D01*
X013676Y021753D01*
X013674Y021778D01*
X013672Y021778D02*
X013282Y021778D01*
X013282Y021628D01*
X013132Y021628D01*
X013132Y021778D01*
X013032Y023028D01*
X013232Y023028D02*
X013282Y023028D01*
X013432Y022778D02*
X013732Y022778D01*
X013732Y022678D01*
X013432Y022678D01*
X013432Y022778D01*
X013032Y023028D02*
X013053Y023065D01*
X013077Y023101D01*
X013104Y023134D01*
X013133Y023165D01*
X013165Y023194D01*
X013200Y023219D01*
X013236Y023242D01*
X013274Y023261D01*
X013314Y023277D01*
X013355Y023290D01*
X013397Y023299D01*
X013439Y023304D01*
X013482Y023306D01*
X013525Y023304D01*
X013567Y023299D01*
X013609Y023290D01*
X013650Y023277D01*
X013690Y023261D01*
X013728Y023242D01*
X013764Y023219D01*
X013799Y023194D01*
X013831Y023165D01*
X013860Y023134D01*
X013887Y023101D01*
X013911Y023065D01*
X013932Y023028D01*
X013982Y023028D01*
X014032Y022978D01*
X014032Y022828D01*
X013932Y022828D01*
X012732Y021628D01*
X013132Y021778D02*
X013282Y021778D01*
X013822Y021778D02*
X013824Y021783D01*
X013828Y021787D01*
X013833Y021788D01*
X013839Y021786D01*
X013842Y021781D01*
X013842Y021775D01*
X013839Y021770D01*
X013833Y021768D01*
X013828Y021769D01*
X013824Y021773D01*
X013822Y021778D01*
X013932Y022828D02*
X014232Y023128D01*
X013832Y023078D02*
X013834Y023091D01*
X013839Y023104D01*
X013848Y023115D01*
X013859Y023122D01*
X013872Y023127D01*
X013885Y023128D01*
X013899Y023125D01*
X013911Y023119D01*
X013921Y023110D01*
X013928Y023098D01*
X013932Y023085D01*
X013932Y023071D01*
X013928Y023058D01*
X013921Y023046D01*
X013911Y023037D01*
X013899Y023031D01*
X013885Y023028D01*
X013872Y023029D01*
X013859Y023034D01*
X013848Y023041D01*
X013839Y023052D01*
X013834Y023065D01*
X013832Y023078D01*
X013532Y023328D02*
X013532Y023428D01*
X013432Y023428D01*
X013432Y023328D01*
X013532Y023328D01*
X012984Y023855D02*
X013980Y024851D01*
X013774Y024415D02*
X013840Y024348D01*
X013840Y024215D01*
X013774Y024148D01*
X013573Y024148D01*
X013573Y024549D01*
X013573Y024415D02*
X013774Y024415D01*
X012782Y024353D02*
X012784Y024405D01*
X012790Y024457D01*
X012800Y024509D01*
X012813Y024559D01*
X012830Y024609D01*
X012851Y024657D01*
X012876Y024703D01*
X012904Y024747D01*
X012935Y024789D01*
X012969Y024829D01*
X013006Y024866D01*
X013046Y024900D01*
X013088Y024931D01*
X013132Y024959D01*
X013178Y024984D01*
X013226Y025005D01*
X013276Y025022D01*
X013326Y025035D01*
X013378Y025045D01*
X013430Y025051D01*
X013482Y025053D01*
X013534Y025051D01*
X013586Y025045D01*
X013638Y025035D01*
X013688Y025022D01*
X013738Y025005D01*
X013786Y024984D01*
X013832Y024959D01*
X013876Y024931D01*
X013918Y024900D01*
X013958Y024866D01*
X013995Y024829D01*
X014029Y024789D01*
X014060Y024747D01*
X014088Y024703D01*
X014113Y024657D01*
X014134Y024609D01*
X014151Y024559D01*
X014164Y024509D01*
X014174Y024457D01*
X014180Y024405D01*
X014182Y024353D01*
X014180Y024301D01*
X014174Y024249D01*
X014164Y024197D01*
X014151Y024147D01*
X014134Y024097D01*
X014113Y024049D01*
X014088Y024003D01*
X014060Y023959D01*
X014029Y023917D01*
X013995Y023877D01*
X013958Y023840D01*
X013918Y023806D01*
X013876Y023775D01*
X013832Y023747D01*
X013786Y023722D01*
X013738Y023701D01*
X013688Y023684D01*
X013638Y023671D01*
X013586Y023661D01*
X013534Y023655D01*
X013482Y023653D01*
X013430Y023655D01*
X013378Y023661D01*
X013326Y023671D01*
X013276Y023684D01*
X013226Y023701D01*
X013178Y023722D01*
X013132Y023747D01*
X013088Y023775D01*
X013046Y023806D01*
X013006Y023840D01*
X012969Y023877D01*
X012935Y023917D01*
X012904Y023959D01*
X012876Y024003D01*
X012851Y024049D01*
X012830Y024097D01*
X012813Y024147D01*
X012800Y024197D01*
X012790Y024249D01*
X012784Y024301D01*
X012782Y024353D01*
X013113Y024282D02*
X013313Y024282D01*
X013380Y024348D01*
X013380Y024482D01*
X013313Y024549D01*
X013113Y024549D01*
X013113Y024148D01*
X016131Y032202D02*
X016131Y035202D01*
X018631Y035202D01*
X018631Y032202D01*
X016131Y032202D01*
X017881Y033077D02*
X017881Y033327D01*
X017881Y034077D02*
X017881Y034327D01*
X018114Y035463D02*
X018874Y035463D01*
X018114Y035463D02*
X018075Y035465D01*
X018037Y035471D01*
X018000Y035480D01*
X017963Y035493D01*
X017928Y035510D01*
X017895Y035529D01*
X017864Y035552D01*
X017835Y035578D01*
X017809Y035607D01*
X017786Y035638D01*
X017767Y035671D01*
X017750Y035706D01*
X017737Y035743D01*
X017728Y035780D01*
X017722Y035818D01*
X017720Y035857D01*
X017720Y039597D01*
X017722Y039636D01*
X017728Y039674D01*
X017737Y039711D01*
X017750Y039748D01*
X017767Y039783D01*
X017786Y039816D01*
X017809Y039847D01*
X017835Y039876D01*
X017864Y039902D01*
X017895Y039925D01*
X017928Y039944D01*
X017963Y039961D01*
X018000Y039974D01*
X018037Y039983D01*
X018075Y039989D01*
X018114Y039991D01*
X018874Y039991D01*
X021487Y039991D02*
X022248Y039991D01*
X022287Y039989D01*
X022325Y039983D01*
X022362Y039974D01*
X022399Y039961D01*
X022434Y039944D01*
X022467Y039925D01*
X022498Y039902D01*
X022527Y039876D01*
X022553Y039847D01*
X022576Y039816D01*
X022595Y039783D01*
X022612Y039748D01*
X022625Y039711D01*
X022634Y039674D01*
X022640Y039636D01*
X022642Y039597D01*
X022641Y039597D02*
X022641Y035857D01*
X022642Y035857D02*
X022640Y035818D01*
X022634Y035780D01*
X022625Y035743D01*
X022612Y035706D01*
X022595Y035671D01*
X022576Y035638D01*
X022553Y035607D01*
X022527Y035578D01*
X022498Y035552D01*
X022467Y035529D01*
X022434Y035510D01*
X022399Y035493D01*
X022362Y035480D01*
X022325Y035471D01*
X022287Y035465D01*
X022248Y035463D01*
X021487Y035463D01*
X013906Y041902D02*
X013906Y044402D01*
X010906Y044402D01*
X010906Y041902D01*
X013906Y041902D01*
X013031Y043652D02*
X012781Y043652D01*
X012031Y043652D02*
X011781Y043652D01*
X011390Y038309D02*
X008871Y038309D01*
X008845Y038307D01*
X008820Y038302D01*
X008796Y038294D01*
X008772Y038283D01*
X008751Y038268D01*
X008732Y038251D01*
X008715Y038232D01*
X008700Y038211D01*
X008689Y038187D01*
X008681Y038163D01*
X008676Y038138D01*
X008674Y038112D01*
X008674Y037482D01*
X008674Y036222D02*
X008674Y035592D01*
X008676Y035566D01*
X008681Y035541D01*
X008689Y035517D01*
X008700Y035494D01*
X008715Y035472D01*
X008732Y035453D01*
X008751Y035436D01*
X008772Y035421D01*
X008796Y035410D01*
X008820Y035402D01*
X008845Y035397D01*
X008871Y035395D01*
X011390Y035395D01*
X011416Y035397D01*
X011441Y035402D01*
X011465Y035410D01*
X011488Y035421D01*
X011510Y035436D01*
X011529Y035453D01*
X011546Y035472D01*
X011561Y035493D01*
X011572Y035517D01*
X011580Y035541D01*
X011585Y035566D01*
X011587Y035592D01*
X011587Y036222D01*
X011587Y037482D02*
X011587Y038112D01*
X011585Y038138D01*
X011580Y038163D01*
X011572Y038187D01*
X011561Y038210D01*
X011546Y038232D01*
X011529Y038251D01*
X011510Y038268D01*
X011489Y038283D01*
X011465Y038294D01*
X011441Y038302D01*
X011416Y038307D01*
X011390Y038309D01*
X029964Y042965D02*
X031364Y043665D01*
X031364Y043200D01*
X031363Y043200D02*
X031364Y043182D01*
X031362Y043164D01*
X031356Y043147D01*
X031349Y043130D01*
X031338Y043115D01*
X031789Y043515D02*
X031820Y043487D01*
X031848Y043456D01*
X031874Y043423D01*
X031897Y043388D01*
X031917Y043351D01*
X031934Y043312D01*
X031947Y043273D01*
X031957Y043232D01*
X031964Y043190D01*
X031340Y043115D02*
X031326Y043073D01*
X031316Y043030D01*
X031310Y042986D01*
X031307Y042942D01*
X031308Y042898D01*
X031313Y042854D01*
X031321Y042811D01*
X031332Y042768D01*
X031348Y042727D01*
X031366Y042687D01*
X031388Y042648D01*
X031413Y042612D01*
X031441Y042578D01*
X031471Y042546D01*
X031504Y042517D01*
X031540Y042490D01*
X031689Y042715D02*
X031719Y042693D01*
X031747Y042668D01*
X031772Y042641D01*
X031795Y042612D01*
X031815Y042580D01*
X031832Y042547D01*
X031846Y042513D01*
X031856Y042477D01*
X031864Y042440D01*
X032264Y042440D01*
X032264Y042415D01*
X032264Y042440D02*
X032265Y042448D01*
X032269Y042455D01*
X032274Y042460D01*
X032281Y042464D01*
X032289Y042465D01*
X032339Y042465D01*
X032347Y042464D01*
X032354Y042460D01*
X032359Y042455D01*
X032363Y042448D01*
X032364Y042440D01*
X032314Y042365D02*
X032301Y042367D01*
X032289Y042372D01*
X032279Y042380D01*
X032271Y042390D01*
X032266Y042402D01*
X032264Y042415D01*
X032364Y042440D02*
X032362Y042417D01*
X032357Y042394D01*
X032348Y042372D01*
X032335Y042352D01*
X032320Y042334D01*
X032302Y042319D01*
X032282Y042306D01*
X032260Y042297D01*
X032237Y042292D01*
X032214Y042290D01*
X031789Y042290D01*
X031767Y042292D01*
X031746Y042297D01*
X031726Y042305D01*
X031707Y042316D01*
X031690Y042330D01*
X031675Y042347D01*
X031664Y042365D01*
X031389Y042265D02*
X032764Y044365D01*
X031714Y043840D01*
X031714Y043715D01*
X031714Y043840D02*
X031364Y043665D01*
X031713Y043715D02*
X031712Y043687D01*
X031714Y043660D01*
X031719Y043633D01*
X031727Y043606D01*
X031738Y043581D01*
X031752Y043557D01*
X031769Y043535D01*
X031788Y043515D01*
X032039Y042965D02*
X032053Y042931D01*
X032070Y042899D01*
X032091Y042870D01*
X032115Y042842D01*
X032141Y042818D01*
X032170Y042796D01*
X032201Y042778D01*
X032234Y042763D01*
X032268Y042751D01*
X032303Y042743D01*
X032339Y042740D01*
X032339Y042725D02*
X032339Y042665D01*
X032333Y042652D01*
X032325Y042640D01*
X032314Y042629D01*
X032302Y042621D01*
X032289Y042615D01*
X032269Y042607D01*
X032248Y042602D01*
X032226Y042600D01*
X032204Y042602D01*
X032183Y042607D01*
X032163Y042615D01*
X032164Y042614D02*
X032124Y042635D01*
X032085Y042659D01*
X032049Y042686D01*
X032015Y042716D01*
X031984Y042749D01*
X031956Y042785D01*
X031931Y042822D01*
X031909Y042862D01*
X031890Y042903D01*
X031875Y042946D01*
X031864Y042990D01*
X031538Y042490D02*
X031568Y042470D01*
X031595Y042448D01*
X031621Y042422D01*
X031643Y042395D01*
X031663Y042365D01*
X032764Y041565D02*
X032764Y044365D01*
X031989Y043140D02*
X032004Y043081D01*
X032020Y043023D01*
X032039Y042965D01*
X032764Y041565D02*
X029964Y042965D01*
X033210Y041622D02*
X035651Y041622D01*
X035651Y038433D01*
X033210Y038433D01*
X033210Y041622D01*
X009082Y012178D02*
X009082Y011678D01*
X009632Y011678D01*
X009507Y011428D02*
X008632Y011428D01*
X008507Y011678D02*
X009082Y011678D01*
X008327Y011628D02*
X008329Y011682D01*
X008335Y011736D01*
X008345Y011789D01*
X008358Y011842D01*
X008375Y011893D01*
X008396Y011943D01*
X008421Y011991D01*
X008449Y012038D01*
X008480Y012082D01*
X008514Y012124D01*
X008551Y012163D01*
X008591Y012200D01*
X008634Y012233D01*
X008679Y012264D01*
X008726Y012291D01*
X008774Y012314D01*
X008825Y012334D01*
X008876Y012351D01*
X008929Y012363D01*
X008982Y012372D01*
X009036Y012377D01*
X009091Y012378D01*
X009145Y012375D01*
X009198Y012368D01*
X009251Y012357D01*
X009304Y012343D01*
X009355Y012325D01*
X009404Y012303D01*
X009452Y012278D01*
X009498Y012249D01*
X009542Y012217D01*
X009583Y012182D01*
X009621Y012144D01*
X009657Y012103D01*
X009690Y012060D01*
X009720Y012015D01*
X009746Y011967D01*
X009769Y011918D01*
X009788Y011867D01*
X009803Y011816D01*
X009815Y011763D01*
X009823Y011709D01*
X009827Y011655D01*
X009827Y011601D01*
X009823Y011547D01*
X009815Y011493D01*
X009803Y011440D01*
X009788Y011389D01*
X009769Y011338D01*
X009746Y011289D01*
X009720Y011241D01*
X009690Y011196D01*
X009657Y011153D01*
X009621Y011112D01*
X009583Y011074D01*
X009542Y011039D01*
X009498Y011007D01*
X009452Y010978D01*
X009404Y010953D01*
X009355Y010931D01*
X009304Y010913D01*
X009251Y010899D01*
X009198Y010888D01*
X009145Y010881D01*
X009091Y010878D01*
X009036Y010879D01*
X008982Y010884D01*
X008929Y010893D01*
X008876Y010905D01*
X008825Y010922D01*
X008774Y010942D01*
X008726Y010965D01*
X008679Y010992D01*
X008634Y011023D01*
X008591Y011056D01*
X008551Y011093D01*
X008514Y011132D01*
X008480Y011174D01*
X008449Y011218D01*
X008421Y011265D01*
X008396Y011313D01*
X008375Y011363D01*
X008358Y011414D01*
X008345Y011467D01*
X008335Y011520D01*
X008329Y011574D01*
X008327Y011628D01*
X008757Y011178D02*
X009382Y011178D01*
D13*
X009518Y020124D02*
X009158Y020124D01*
X009518Y020124D02*
X009518Y020364D01*
X009458Y020492D02*
X009518Y020553D01*
X009518Y020673D01*
X009458Y020733D01*
X009398Y020733D01*
X009338Y020673D01*
X009338Y020613D01*
X009338Y020673D02*
X009278Y020733D01*
X009218Y020733D01*
X009158Y020673D01*
X009158Y020553D01*
X009218Y020492D01*
X009375Y024751D02*
X009836Y025058D01*
X009759Y025212D02*
X009836Y025289D01*
X009836Y025442D01*
X009759Y025519D01*
X009682Y025519D01*
X009605Y025442D01*
X009605Y025212D01*
X009759Y025212D01*
X009605Y025212D02*
X009452Y025365D01*
X009375Y025519D01*
X009375Y025058D02*
X009836Y024751D01*
X010501Y033497D02*
X010501Y033857D01*
X010681Y033857D01*
X010741Y033797D01*
X010741Y033677D01*
X010681Y033617D01*
X010501Y033617D01*
X010621Y033617D02*
X010741Y033497D01*
X010869Y033497D02*
X011109Y033497D01*
X010989Y033497D02*
X010989Y033857D01*
X010869Y033737D01*
X011237Y033737D02*
X011297Y033677D01*
X011477Y033677D01*
X011477Y033557D02*
X011477Y033797D01*
X011417Y033857D01*
X011297Y033857D01*
X011237Y033797D01*
X011237Y033737D01*
X011237Y033557D02*
X011297Y033497D01*
X011417Y033497D01*
X011477Y033557D01*
X012011Y036172D02*
X012131Y036172D01*
X012191Y036232D01*
X012319Y036172D02*
X012559Y036172D01*
X012439Y036172D02*
X012439Y036532D01*
X012319Y036412D01*
X012191Y036472D02*
X012131Y036532D01*
X012011Y036532D01*
X011951Y036472D01*
X011951Y036232D01*
X012011Y036172D01*
X012687Y036232D02*
X012747Y036172D01*
X012867Y036172D01*
X012927Y036232D01*
X012927Y036352D01*
X012867Y036412D01*
X012807Y036412D01*
X012687Y036352D01*
X012687Y036532D01*
X012927Y036532D01*
X013001Y036532D02*
X013181Y036532D01*
X013241Y036472D01*
X013241Y036352D01*
X013181Y036292D01*
X013001Y036292D01*
X013121Y036292D02*
X013241Y036172D01*
X013369Y036172D02*
X013609Y036172D01*
X013489Y036172D02*
X013489Y036532D01*
X013369Y036412D01*
X013737Y036352D02*
X013917Y036352D01*
X013977Y036292D01*
X013977Y036232D01*
X013917Y036172D01*
X013797Y036172D01*
X013737Y036232D01*
X013737Y036352D01*
X013857Y036472D01*
X013977Y036532D01*
X014400Y036922D02*
X014400Y037102D01*
X014460Y037162D01*
X014580Y037162D01*
X014640Y037102D01*
X014640Y036922D01*
X014640Y037042D02*
X014761Y037162D01*
X014761Y037290D02*
X014761Y037531D01*
X014761Y037411D02*
X014400Y037411D01*
X014520Y037290D01*
X014580Y037659D02*
X014520Y037779D01*
X014520Y037839D01*
X014580Y037899D01*
X014701Y037899D01*
X014761Y037839D01*
X014761Y037719D01*
X014701Y037659D01*
X014580Y037659D02*
X014400Y037659D01*
X014400Y037899D01*
X014400Y036922D02*
X014761Y036922D01*
X013486Y038392D02*
X013125Y038392D01*
X013125Y038572D01*
X013185Y038632D01*
X013305Y038632D01*
X013365Y038572D01*
X013365Y038392D01*
X013365Y038512D02*
X013486Y038632D01*
X013486Y038761D02*
X013486Y039001D01*
X013486Y038881D02*
X013125Y038881D01*
X013245Y038761D01*
X013305Y039129D02*
X013305Y039369D01*
X013125Y039309D02*
X013305Y039129D01*
X013125Y039309D02*
X013486Y039309D01*
X012842Y039394D02*
X012842Y039214D01*
X012482Y039214D01*
X012482Y039394D01*
X012542Y039454D01*
X012782Y039454D01*
X012842Y039394D01*
X012842Y039582D02*
X012602Y039823D01*
X012542Y039823D01*
X012482Y039763D01*
X012482Y039642D01*
X012542Y039582D01*
X012842Y039582D02*
X012842Y039823D01*
X012461Y040742D02*
X012100Y040742D01*
X012100Y040922D01*
X012160Y040982D01*
X012280Y040982D01*
X012340Y040922D01*
X012340Y040742D01*
X012340Y040862D02*
X012461Y040982D01*
X012461Y041111D02*
X012461Y041351D01*
X012461Y041231D02*
X012100Y041231D01*
X012220Y041111D01*
X012220Y041479D02*
X012160Y041479D01*
X012100Y041539D01*
X012100Y041659D01*
X012160Y041719D01*
X012220Y041719D01*
X012280Y041659D01*
X012280Y041539D01*
X012220Y041479D01*
X012280Y041539D02*
X012340Y041479D01*
X012401Y041479D01*
X012461Y041539D01*
X012461Y041659D01*
X012401Y041719D01*
X012340Y041719D01*
X012280Y041659D01*
X011509Y041602D02*
X011269Y041602D01*
X011449Y041782D01*
X011449Y041422D01*
X011141Y041422D02*
X010901Y041782D01*
X011141Y041782D02*
X010901Y041422D01*
X014175Y040969D02*
X014235Y040969D01*
X014476Y040729D01*
X014536Y040729D01*
X014536Y040601D02*
X014536Y040361D01*
X014536Y040481D02*
X014175Y040481D01*
X014295Y040361D01*
X014235Y040232D02*
X014355Y040232D01*
X014415Y040172D01*
X014415Y039992D01*
X014415Y040112D02*
X014536Y040232D01*
X014536Y039992D02*
X014175Y039992D01*
X014175Y040172D01*
X014235Y040232D01*
X014175Y040729D02*
X014175Y040969D01*
X016750Y040564D02*
X016810Y040624D01*
X017051Y040384D01*
X017111Y040444D01*
X017111Y040564D01*
X017051Y040624D01*
X016810Y040624D01*
X016750Y040564D02*
X016750Y040444D01*
X016810Y040384D01*
X017051Y040384D01*
X017111Y040256D02*
X017111Y040015D01*
X017111Y040136D02*
X016750Y040136D01*
X016870Y040015D01*
X016810Y039887D02*
X016750Y039827D01*
X016750Y039707D01*
X016810Y039647D01*
X017051Y039647D01*
X017111Y039707D01*
X017111Y039827D01*
X017051Y039887D01*
X017051Y039031D02*
X016810Y039031D01*
X016750Y038971D01*
X016750Y038851D01*
X016810Y038790D01*
X016870Y038790D01*
X016930Y038851D01*
X016930Y039031D01*
X017051Y039031D02*
X017111Y038971D01*
X017111Y038851D01*
X017051Y038790D01*
X017051Y038662D02*
X017111Y038602D01*
X017111Y038482D01*
X017051Y038422D01*
X016810Y038422D01*
X016750Y038482D01*
X016750Y038602D01*
X016810Y038662D01*
X016724Y035757D02*
X016784Y035697D01*
X016784Y035637D01*
X016724Y035577D01*
X016784Y035517D01*
X016784Y035457D01*
X016724Y035397D01*
X016604Y035397D01*
X016544Y035457D01*
X016416Y035397D02*
X016176Y035757D01*
X016416Y035757D02*
X016176Y035397D01*
X016544Y035697D02*
X016604Y035757D01*
X016724Y035757D01*
X016724Y035577D02*
X016664Y035577D01*
X018793Y034608D02*
X019033Y034608D01*
X019161Y034608D02*
X019281Y034668D01*
X019341Y034668D01*
X019401Y034608D01*
X019401Y034488D01*
X019341Y034428D01*
X019221Y034428D01*
X019161Y034488D01*
X019161Y034608D02*
X019161Y034789D01*
X019401Y034789D01*
X019530Y034789D02*
X019530Y034548D01*
X019650Y034428D01*
X019770Y034548D01*
X019770Y034789D01*
X018913Y034729D02*
X018913Y034488D01*
X018878Y033889D02*
X018818Y033829D01*
X018818Y033768D01*
X018878Y033708D01*
X018998Y033708D01*
X019058Y033648D01*
X019058Y033588D01*
X018998Y033528D01*
X018878Y033528D01*
X018818Y033588D01*
X018878Y033889D02*
X018998Y033889D01*
X019058Y033829D01*
X019186Y033768D02*
X019186Y033588D01*
X019246Y033528D01*
X019426Y033528D01*
X019426Y033468D02*
X019366Y033408D01*
X019306Y033408D01*
X019426Y033468D02*
X019426Y033768D01*
X019555Y033768D02*
X019735Y033768D01*
X019795Y033708D01*
X019795Y033528D01*
X019923Y033588D02*
X019983Y033528D01*
X020163Y033528D01*
X020163Y033768D02*
X019983Y033768D01*
X019923Y033708D01*
X019923Y033588D01*
X019555Y033528D02*
X019555Y033768D01*
X019795Y032939D02*
X019795Y032578D01*
X019615Y032578D01*
X019555Y032638D01*
X019555Y032758D01*
X019615Y032818D01*
X019795Y032818D01*
X019426Y032758D02*
X019426Y032578D01*
X019426Y032758D02*
X019366Y032818D01*
X019186Y032818D01*
X019186Y032578D01*
X019058Y032638D02*
X019058Y032758D01*
X018938Y032758D01*
X018818Y032638D02*
X018878Y032578D01*
X018998Y032578D01*
X019058Y032638D01*
X018818Y032638D02*
X018818Y032879D01*
X018878Y032939D01*
X018998Y032939D01*
X019058Y032879D01*
X021889Y032842D02*
X022069Y032842D01*
X022129Y032902D01*
X022129Y033022D01*
X022069Y033082D01*
X021889Y033082D01*
X021889Y032722D01*
X022009Y032842D02*
X022129Y032722D01*
X022257Y032782D02*
X022257Y032842D01*
X022317Y032902D01*
X022437Y032902D01*
X022497Y032842D01*
X022497Y032782D01*
X022437Y032722D01*
X022317Y032722D01*
X022257Y032782D01*
X022317Y032902D02*
X022257Y032962D01*
X022257Y033022D01*
X022317Y033082D01*
X022437Y033082D01*
X022497Y033022D01*
X022497Y032962D01*
X022437Y032902D01*
X022257Y033472D02*
X022257Y033532D01*
X022497Y033772D01*
X022497Y033832D01*
X022257Y033832D01*
X022129Y033772D02*
X022129Y033652D01*
X022069Y033592D01*
X021889Y033592D01*
X021889Y033472D02*
X021889Y033832D01*
X022069Y033832D01*
X022129Y033772D01*
X022009Y033592D02*
X022129Y033472D01*
X023011Y035397D02*
X023131Y035397D01*
X023191Y035457D01*
X023319Y035577D02*
X023559Y035577D01*
X023499Y035397D02*
X023499Y035757D01*
X023319Y035577D01*
X023191Y035697D02*
X023131Y035757D01*
X023011Y035757D01*
X022951Y035697D01*
X022951Y035457D01*
X023011Y035397D01*
X023086Y037422D02*
X023206Y037422D01*
X023266Y037482D01*
X023394Y037482D02*
X023394Y037542D01*
X023454Y037602D01*
X023574Y037602D01*
X023634Y037542D01*
X023634Y037482D01*
X023574Y037422D01*
X023454Y037422D01*
X023394Y037482D01*
X023454Y037602D02*
X023394Y037662D01*
X023394Y037722D01*
X023454Y037782D01*
X023574Y037782D01*
X023634Y037722D01*
X023634Y037662D01*
X023574Y037602D01*
X023266Y037722D02*
X023206Y037782D01*
X023086Y037782D01*
X023026Y037722D01*
X023026Y037482D01*
X023086Y037422D01*
X024011Y039397D02*
X024131Y039397D01*
X024191Y039457D01*
X024319Y039457D02*
X024379Y039397D01*
X024499Y039397D01*
X024559Y039457D01*
X024559Y039517D01*
X024499Y039577D01*
X024439Y039577D01*
X024499Y039577D02*
X024559Y039637D01*
X024559Y039697D01*
X024499Y039757D01*
X024379Y039757D01*
X024319Y039697D01*
X024191Y039697D02*
X024131Y039757D01*
X024011Y039757D01*
X023951Y039697D01*
X023951Y039457D01*
X024011Y039397D01*
X024811Y039242D02*
X024931Y039242D01*
X024871Y039242D02*
X024871Y038882D01*
X024811Y038882D02*
X024931Y038882D01*
X025056Y038942D02*
X025116Y038882D01*
X025236Y038882D01*
X025296Y038942D01*
X025424Y038882D02*
X025665Y038882D01*
X025545Y038882D02*
X025545Y039242D01*
X025424Y039122D01*
X025296Y039182D02*
X025236Y039242D01*
X025116Y039242D01*
X025056Y039182D01*
X025056Y038942D01*
X026476Y039432D02*
X026536Y039372D01*
X026656Y039372D01*
X026716Y039432D01*
X026844Y039432D02*
X026844Y039372D01*
X026844Y039432D02*
X027084Y039672D01*
X027084Y039732D01*
X026844Y039732D01*
X026716Y039672D02*
X026656Y039732D01*
X026536Y039732D01*
X026476Y039672D01*
X026476Y039432D01*
X026124Y040847D02*
X026004Y040847D01*
X025944Y040907D01*
X026004Y041027D02*
X026184Y041027D01*
X026184Y040907D02*
X026184Y041147D01*
X026124Y041207D01*
X026004Y041207D01*
X025944Y041147D01*
X025944Y041087D01*
X026004Y041027D01*
X025816Y041027D02*
X025756Y040967D01*
X025576Y040967D01*
X025696Y040967D02*
X025816Y040847D01*
X025816Y041027D02*
X025816Y041147D01*
X025756Y041207D01*
X025576Y041207D01*
X025576Y040847D01*
X026124Y040847D02*
X026184Y040907D01*
X027790Y038164D02*
X028151Y038164D01*
X028151Y038044D02*
X028151Y038284D01*
X027910Y038044D02*
X027790Y038164D01*
X027790Y037796D02*
X028151Y037796D01*
X028151Y037916D02*
X028151Y037675D01*
X028151Y037547D02*
X028030Y037427D01*
X028030Y037487D02*
X028030Y037307D01*
X028151Y037307D02*
X027790Y037307D01*
X027790Y037487D01*
X027850Y037547D01*
X027970Y037547D01*
X028030Y037487D01*
X027910Y037675D02*
X027790Y037796D01*
X026849Y036907D02*
X026849Y036597D01*
X026952Y036597D02*
X026745Y036597D01*
X026630Y036597D02*
X026423Y036597D01*
X026526Y036597D02*
X026526Y036907D01*
X026423Y036804D01*
X026307Y036856D02*
X026256Y036907D01*
X026152Y036907D01*
X026101Y036856D01*
X026101Y036649D01*
X026152Y036597D01*
X026256Y036597D01*
X026307Y036649D01*
X026745Y036804D02*
X026849Y036907D01*
X026011Y035784D02*
X026071Y035724D01*
X026071Y035604D01*
X026011Y035544D01*
X026071Y035416D02*
X026071Y035176D01*
X026071Y035296D02*
X025710Y035296D01*
X025830Y035176D01*
X025770Y035047D02*
X025890Y035047D01*
X025950Y034987D01*
X025950Y034807D01*
X025950Y034927D02*
X026071Y035047D01*
X026071Y034807D02*
X025710Y034807D01*
X025710Y034987D01*
X025770Y035047D01*
X025770Y035544D02*
X025710Y035604D01*
X025710Y035724D01*
X025770Y035784D01*
X025830Y035784D01*
X025890Y035724D01*
X025950Y035784D01*
X026011Y035784D01*
X025890Y035724D02*
X025890Y035664D01*
X025810Y033934D02*
X025750Y033934D01*
X025690Y033874D01*
X025690Y033754D01*
X025750Y033694D01*
X025810Y033934D02*
X026051Y033694D01*
X026051Y033934D01*
X026051Y033566D02*
X026051Y033325D01*
X026051Y033446D02*
X025690Y033446D01*
X025810Y033325D01*
X025750Y033197D02*
X025870Y033197D01*
X025930Y033137D01*
X025930Y032957D01*
X025930Y033077D02*
X026051Y033197D01*
X026051Y032957D02*
X025690Y032957D01*
X025690Y033137D01*
X025750Y033197D01*
X027775Y033177D02*
X027775Y033057D01*
X027835Y032997D01*
X028076Y032997D01*
X028136Y033057D01*
X028136Y033177D01*
X028076Y033237D01*
X028136Y033365D02*
X028136Y033606D01*
X028136Y033486D02*
X027775Y033486D01*
X027895Y033365D01*
X027835Y033237D02*
X027775Y033177D01*
X027835Y033734D02*
X027775Y033794D01*
X027775Y033914D01*
X027835Y033974D01*
X027895Y033974D01*
X027955Y033914D01*
X028015Y033974D01*
X028076Y033974D01*
X028136Y033914D01*
X028136Y033794D01*
X028076Y033734D01*
X027955Y033854D02*
X027955Y033914D01*
X027946Y034472D02*
X028006Y034532D01*
X027946Y034472D02*
X027826Y034472D01*
X027766Y034532D01*
X027766Y034772D01*
X027826Y034832D01*
X027946Y034832D01*
X028006Y034772D01*
X028134Y034712D02*
X028254Y034832D01*
X028254Y034472D01*
X028134Y034472D02*
X028374Y034472D01*
X028502Y034472D02*
X028742Y034712D01*
X028742Y034772D01*
X028682Y034832D01*
X028562Y034832D01*
X028502Y034772D01*
X028502Y034472D02*
X028742Y034472D01*
X028151Y035357D02*
X027800Y035357D01*
X027800Y035532D01*
X027859Y035591D01*
X027975Y035591D01*
X028034Y035532D01*
X028034Y035357D01*
X028034Y035474D02*
X028151Y035591D01*
X028151Y035716D02*
X028151Y035950D01*
X028151Y035833D02*
X027800Y035833D01*
X027917Y035716D01*
X027859Y036075D02*
X027800Y036134D01*
X027800Y036251D01*
X027859Y036309D01*
X028092Y036075D01*
X028151Y036134D01*
X028151Y036251D01*
X028092Y036309D01*
X027859Y036309D01*
X027859Y036075D02*
X028092Y036075D01*
X032201Y037922D02*
X032201Y038282D01*
X032381Y038282D01*
X032441Y038222D01*
X032441Y038102D01*
X032381Y038042D01*
X032201Y038042D01*
X032321Y038042D02*
X032441Y037922D01*
X032569Y037982D02*
X032629Y037922D01*
X032749Y037922D01*
X032809Y037982D01*
X032809Y038042D01*
X032749Y038102D01*
X032569Y038102D01*
X032569Y037982D01*
X032569Y038102D02*
X032689Y038222D01*
X032809Y038282D01*
X033771Y039027D02*
X033771Y039244D01*
X034001Y038282D02*
X034181Y038282D01*
X034241Y038222D01*
X034241Y038102D01*
X034181Y038042D01*
X034001Y038042D01*
X034121Y038042D02*
X034241Y037922D01*
X034369Y038102D02*
X034609Y038102D01*
X034549Y037922D02*
X034549Y038282D01*
X034369Y038102D01*
X034001Y037922D02*
X034001Y038282D01*
X035119Y038994D02*
X035103Y038997D01*
X035089Y039003D01*
X035076Y039012D01*
X035065Y039024D01*
X035057Y039037D01*
X035052Y039052D01*
X035050Y039068D01*
X035052Y039084D01*
X035057Y039099D01*
X035065Y039112D01*
X035076Y039124D01*
X035089Y039133D01*
X035103Y039139D01*
X035119Y039142D01*
X035120Y039141D02*
X035136Y039144D01*
X035150Y039150D01*
X035163Y039159D01*
X035174Y039171D01*
X035182Y039184D01*
X035187Y039199D01*
X035189Y039215D01*
X035187Y039231D01*
X035182Y039246D01*
X035174Y039259D01*
X035163Y039271D01*
X035150Y039280D01*
X035136Y039286D01*
X035120Y039289D01*
X035119Y040765D02*
X035103Y040768D01*
X035089Y040774D01*
X035076Y040783D01*
X035065Y040795D01*
X035057Y040808D01*
X035052Y040823D01*
X035050Y040839D01*
X035052Y040855D01*
X035057Y040870D01*
X035065Y040883D01*
X035076Y040895D01*
X035089Y040904D01*
X035103Y040910D01*
X035119Y040913D01*
X035120Y040913D02*
X035136Y040916D01*
X035150Y040922D01*
X035163Y040931D01*
X035174Y040943D01*
X035182Y040956D01*
X035187Y040971D01*
X035189Y040987D01*
X035187Y041003D01*
X035182Y041018D01*
X035174Y041031D01*
X035163Y041043D01*
X035150Y041052D01*
X035136Y041058D01*
X035120Y041061D01*
X033879Y040923D02*
X033673Y040923D01*
X033771Y041031D02*
X033771Y040815D01*
X023009Y040607D02*
X022889Y040547D01*
X022769Y040427D01*
X022949Y040427D01*
X023009Y040367D01*
X023009Y040307D01*
X022949Y040247D01*
X022829Y040247D01*
X022769Y040307D01*
X022769Y040427D01*
X022641Y040307D02*
X022581Y040247D01*
X022461Y040247D01*
X022401Y040307D01*
X022401Y040547D01*
X022461Y040607D01*
X022581Y040607D01*
X022641Y040547D01*
X013001Y036532D02*
X013001Y036172D01*
X023161Y013567D02*
X023101Y013507D01*
X023101Y013447D01*
X023161Y013387D01*
X023281Y013387D01*
X023341Y013327D01*
X023341Y013267D01*
X023281Y013207D01*
X023161Y013207D01*
X023101Y013267D01*
X023161Y013567D02*
X023281Y013567D01*
X023341Y013507D01*
X023469Y013447D02*
X023589Y013567D01*
X023709Y013447D01*
X023709Y013207D01*
X023837Y013207D02*
X023837Y013567D01*
X024017Y013567D01*
X024077Y013507D01*
X024077Y013387D01*
X024017Y013327D01*
X023837Y013327D01*
X023957Y013327D02*
X024077Y013207D01*
X024206Y013207D02*
X024446Y013207D01*
X024326Y013207D02*
X024326Y013567D01*
X024206Y013447D01*
X023709Y013387D02*
X023469Y013387D01*
X023469Y013447D02*
X023469Y013207D01*
D14*
X010714Y031984D03*
D15*
X010425Y031413D03*
X011245Y031500D03*
D16*
X010425Y031415D03*
D17*
X010425Y031416D03*
D18*
X010425Y031418D03*
D19*
X010425Y031419D03*
X010434Y032858D03*
D20*
X010425Y031421D03*
X011250Y031509D03*
D21*
X011251Y031511D03*
X010425Y031422D03*
D22*
X010425Y031424D03*
D23*
X010425Y031425D03*
D24*
X010425Y031427D03*
X011563Y031443D03*
D25*
X010425Y031428D03*
D26*
X010426Y031430D03*
X010728Y031511D03*
X011259Y031520D03*
D27*
X011260Y031521D03*
X011562Y031449D03*
X010426Y031431D03*
D28*
X011244Y031503D03*
X011564Y031431D03*
D29*
X011562Y031451D03*
X010725Y031515D03*
X010426Y031433D03*
D30*
X011563Y031433D03*
D31*
X011263Y031526D03*
X010723Y031517D03*
X010426Y031434D03*
D32*
X011564Y031434D03*
D33*
X010426Y031436D03*
D34*
X011247Y031508D03*
X011564Y031436D03*
D35*
X010722Y031518D03*
X010426Y031437D03*
D36*
X010737Y031500D03*
X011564Y031437D03*
X011526Y032862D03*
D37*
X010427Y031439D03*
D38*
X011564Y031439D03*
D39*
X011560Y031458D03*
X010428Y031440D03*
D40*
X010734Y031506D03*
X011253Y031512D03*
X011563Y031440D03*
D41*
X011269Y031533D03*
X010716Y031526D03*
X010428Y031442D03*
X010437Y032832D03*
D42*
X010435Y032850D03*
X011563Y031442D03*
D43*
X011560Y031461D03*
X010714Y031527D03*
X010428Y031443D03*
X011524Y032838D03*
X010966Y033050D03*
D44*
X010428Y031445D03*
D45*
X011563Y031445D03*
D46*
X011559Y031463D03*
X011271Y031538D03*
X010428Y031446D03*
X011523Y032837D03*
D47*
X011563Y031446D03*
D48*
X010429Y031448D03*
D49*
X011562Y031448D03*
X010436Y032846D03*
D50*
X011523Y032832D03*
X011274Y031541D03*
X010428Y031449D03*
D51*
X010429Y031451D03*
D52*
X010430Y031452D03*
X010707Y031536D03*
X011277Y031547D03*
X011522Y032829D03*
D53*
X011525Y032847D03*
X011561Y031452D03*
D54*
X010430Y031454D03*
D55*
X011561Y031454D03*
D56*
X010430Y031455D03*
X010439Y032820D03*
X011522Y032828D03*
D57*
X011525Y032844D03*
X011561Y031455D03*
D58*
X010430Y031457D03*
D59*
X010719Y031520D03*
X011561Y031457D03*
X011525Y032843D03*
D60*
X011283Y031553D03*
X010431Y031458D03*
D61*
X010431Y031460D03*
X010701Y031545D03*
X011557Y031479D03*
D62*
X011559Y031460D03*
X010716Y031524D03*
D63*
X010431Y031461D03*
D64*
X010431Y031463D03*
D65*
X010431Y031464D03*
X011286Y031562D03*
D66*
X011559Y031464D03*
D67*
X010431Y031466D03*
X010440Y032810D03*
X011520Y032817D03*
D68*
X011523Y032835D03*
X010437Y032829D03*
X011559Y031466D03*
D69*
X010431Y031467D03*
D70*
X011559Y031467D03*
D71*
X010432Y031469D03*
D72*
X011559Y031469D03*
D73*
X010432Y031470D03*
D74*
X011559Y031470D03*
D75*
X010433Y031472D03*
D76*
X010707Y031538D03*
X011279Y031548D03*
X011558Y031472D03*
D77*
X010433Y031473D03*
D78*
X011558Y031473D03*
D79*
X011554Y031494D03*
X010434Y031475D03*
D80*
X011557Y031475D03*
D81*
X010434Y031476D03*
D82*
X010704Y031541D03*
X011557Y031476D03*
D83*
X010433Y031478D03*
X011519Y032805D03*
D84*
X011522Y032823D03*
X011556Y031478D03*
X010703Y031542D03*
D85*
X010434Y031479D03*
D86*
X010435Y031481D03*
X010443Y032793D03*
D87*
X011556Y031481D03*
D88*
X011553Y031503D03*
X010435Y031482D03*
X010443Y032792D03*
X010984Y033047D03*
D89*
X011286Y031560D03*
X011556Y031482D03*
D90*
X010435Y031484D03*
D91*
X011556Y031484D03*
D92*
X010435Y031485D03*
X010443Y032790D03*
D93*
X011556Y031485D03*
D94*
X011552Y031508D03*
X010436Y031487D03*
X011517Y032796D03*
D95*
X011520Y032816D03*
X011555Y031487D03*
D96*
X010436Y031488D03*
X010443Y032787D03*
D97*
X011556Y031488D03*
D98*
X010437Y031490D03*
D99*
X011555Y031490D03*
D100*
X011550Y031512D03*
X010437Y031491D03*
D101*
X011554Y031491D03*
D102*
X010437Y031493D03*
D103*
X010743Y031493D03*
D104*
X011554Y031493D03*
D105*
X010437Y031494D03*
D106*
X010743Y031494D03*
D107*
X010438Y031496D03*
X010444Y032780D03*
X010986Y033042D03*
D108*
X010743Y031496D03*
D109*
X011554Y031496D03*
D110*
X011549Y031518D03*
X010439Y031497D03*
D111*
X010740Y031497D03*
D112*
X011554Y031497D03*
X010441Y032799D03*
D113*
X010439Y031499D03*
D114*
X010739Y031499D03*
D115*
X011553Y031499D03*
X011519Y032804D03*
D116*
X011548Y031523D03*
X010440Y031500D03*
D117*
X011553Y031500D03*
D118*
X011548Y031524D03*
X010440Y031502D03*
X011514Y032780D03*
D119*
X010434Y032856D03*
X010736Y031502D03*
D120*
X011244Y031502D03*
X010434Y032861D03*
D121*
X011553Y031502D03*
D122*
X011547Y031526D03*
X010440Y031503D03*
X010985Y033035D03*
D123*
X010735Y031503D03*
D124*
X010440Y031505D03*
X011547Y031527D03*
D125*
X010735Y031505D03*
D126*
X011245Y031505D03*
D127*
X011553Y031505D03*
X011518Y032799D03*
D128*
X010441Y031506D03*
D129*
X011246Y031506D03*
D130*
X011552Y031506D03*
X011517Y032798D03*
D131*
X011512Y032775D03*
X010984Y033009D03*
X010984Y033011D03*
X010984Y033012D03*
X010984Y033015D03*
X010441Y031508D03*
D132*
X010733Y031508D03*
X011253Y031515D03*
X011526Y032856D03*
D133*
X011511Y032772D03*
X010985Y033002D03*
X011546Y031532D03*
X010442Y031509D03*
D134*
X010730Y031509D03*
X011256Y031518D03*
D135*
X011551Y031509D03*
X011517Y032793D03*
D136*
X010443Y031511D03*
D137*
X011550Y031511D03*
X011516Y032792D03*
X010443Y032784D03*
D138*
X010449Y032760D03*
X010983Y032981D03*
X010983Y032982D03*
X011544Y031536D03*
X010443Y031512D03*
D139*
X010727Y031512D03*
X010436Y032844D03*
D140*
X010983Y032969D03*
X010443Y031514D03*
D141*
X010725Y031514D03*
D142*
X011253Y031514D03*
D143*
X011550Y031514D03*
D144*
X010444Y031515D03*
X010984Y032958D03*
X010984Y032960D03*
X010984Y032961D03*
X010984Y032963D03*
X010984Y032964D03*
D145*
X011550Y031515D03*
D146*
X010444Y031517D03*
X010984Y032951D03*
D147*
X011255Y031517D03*
D148*
X011550Y031517D03*
D149*
X010444Y031518D03*
X010450Y032757D03*
X011509Y032765D03*
D150*
X010983Y032934D03*
X010983Y032936D03*
X010451Y032754D03*
X010445Y031520D03*
D151*
X011549Y031520D03*
D152*
X011543Y031545D03*
X010445Y031521D03*
X010451Y032751D03*
X010983Y032913D03*
X010983Y032915D03*
X010983Y032916D03*
X010983Y032918D03*
X010983Y032919D03*
X010983Y032921D03*
X010983Y032922D03*
X011508Y032760D03*
D153*
X010717Y031521D03*
D154*
X011548Y031521D03*
D155*
X011542Y031547D03*
X010446Y031523D03*
D156*
X010716Y031523D03*
D157*
X011261Y031523D03*
X010436Y032843D03*
D158*
X010446Y031524D03*
D159*
X011262Y031524D03*
D160*
X010446Y031526D03*
D161*
X010446Y031527D03*
X010982Y032877D03*
X010982Y032880D03*
X010982Y032882D03*
X011507Y032756D03*
D162*
X011525Y032846D03*
X010436Y032840D03*
X011264Y031527D03*
D163*
X010447Y031529D03*
D164*
X010713Y031529D03*
D165*
X011265Y031529D03*
D166*
X011547Y031529D03*
D167*
X010448Y031530D03*
X010983Y032853D03*
X010983Y032855D03*
X010983Y032856D03*
D168*
X010437Y032828D03*
X010710Y031530D03*
X011273Y031539D03*
D169*
X011268Y031530D03*
X010437Y032837D03*
D170*
X010985Y033008D03*
X011546Y031530D03*
D171*
X011539Y031557D03*
X010449Y031532D03*
X010983Y032837D03*
X010983Y032838D03*
X010983Y032840D03*
X010983Y032841D03*
X010983Y032843D03*
D172*
X010710Y031532D03*
D173*
X011268Y031532D03*
X010436Y032835D03*
D174*
X010981Y032831D03*
X010981Y032829D03*
X010449Y031533D03*
D175*
X010710Y031533D03*
X010438Y032825D03*
X011523Y032831D03*
D176*
X011511Y032771D03*
X010984Y032991D03*
X010984Y032993D03*
X010984Y032994D03*
X010449Y032763D03*
X011545Y031533D03*
D177*
X010449Y031535D03*
D178*
X010709Y031535D03*
D179*
X011270Y031535D03*
D180*
X011545Y031535D03*
X010984Y032985D03*
X010984Y032987D03*
X010984Y032988D03*
D181*
X010449Y031536D03*
D182*
X011270Y031536D03*
D183*
X010449Y031538D03*
D184*
X011544Y031538D03*
X010983Y032966D03*
X010983Y032967D03*
X010983Y032970D03*
X010983Y032972D03*
D185*
X010983Y032802D03*
X010450Y031539D03*
D186*
X010705Y031539D03*
X011280Y031550D03*
D187*
X011544Y031539D03*
D188*
X010451Y031541D03*
X010455Y032732D03*
D189*
X010983Y032940D03*
X010983Y032942D03*
X011543Y031541D03*
D190*
X010451Y031542D03*
X010983Y032799D03*
D191*
X011276Y031542D03*
D192*
X011542Y031542D03*
X011509Y032762D03*
X010983Y032931D03*
X010983Y032933D03*
D193*
X010451Y031544D03*
D194*
X010702Y031544D03*
D195*
X011276Y031544D03*
D196*
X011542Y031544D03*
X010983Y032924D03*
D197*
X010451Y031545D03*
D198*
X011277Y031545D03*
X010438Y032823D03*
D199*
X010542Y031986D03*
X010566Y031959D03*
X010563Y031652D03*
X010524Y031547D03*
X011395Y031721D03*
X011397Y031718D03*
X011457Y031565D03*
D200*
X011405Y031703D03*
X011403Y031706D03*
X011403Y031707D03*
X011402Y031710D03*
X011397Y031953D03*
X011396Y032330D03*
X011394Y032331D03*
X011393Y032333D03*
X010541Y032297D03*
X010566Y031958D03*
X010568Y031956D03*
X010557Y031644D03*
X010556Y031641D03*
X010554Y031638D03*
X010523Y031548D03*
D201*
X011541Y031548D03*
D202*
X011457Y031568D03*
X011406Y031700D03*
X011354Y031839D03*
X011391Y032336D03*
X010575Y032334D03*
X010569Y031953D03*
X010571Y031952D03*
X010620Y031823D03*
X010620Y031821D03*
X010553Y031635D03*
X010523Y031550D03*
D203*
X011541Y031550D03*
X010983Y032883D03*
D204*
X010578Y032337D03*
X010576Y032336D03*
X010537Y031988D03*
X010551Y031632D03*
X010551Y031631D03*
X010522Y031551D03*
X011353Y031841D03*
X011407Y031698D03*
X011409Y031697D03*
X011458Y031569D03*
X011389Y032337D03*
D205*
X011281Y031551D03*
D206*
X011539Y031551D03*
X010453Y032747D03*
D207*
X010538Y032295D03*
X010572Y031950D03*
X010550Y031629D03*
X010548Y031626D03*
X010521Y031553D03*
X011409Y031695D03*
X011411Y031692D03*
X011411Y031691D03*
X011412Y031689D03*
D208*
X011539Y031553D03*
X011506Y032753D03*
X010983Y032868D03*
X010983Y032870D03*
X010983Y032871D03*
X010453Y032745D03*
D209*
X010580Y032342D03*
X010521Y031556D03*
X010521Y031554D03*
X011420Y031676D03*
X011390Y031944D03*
D210*
X011283Y031554D03*
D211*
X011539Y031554D03*
D212*
X011283Y031556D03*
X011522Y032822D03*
D213*
X010983Y032844D03*
X010983Y032846D03*
X010983Y032847D03*
X010983Y032850D03*
X010983Y032852D03*
X011539Y031556D03*
D214*
X011423Y031670D03*
X011421Y031671D03*
X010539Y031611D03*
X010539Y031610D03*
X010538Y031608D03*
X010521Y031557D03*
X010581Y032343D03*
X010583Y032345D03*
D215*
X011283Y031557D03*
D216*
X010521Y031559D03*
D217*
X011285Y031559D03*
D218*
X011538Y031559D03*
D219*
X010536Y031605D03*
X010521Y031562D03*
X010521Y031560D03*
D220*
X011538Y031560D03*
X011505Y032747D03*
X010981Y032813D03*
X010981Y032814D03*
X010981Y032816D03*
X010981Y032817D03*
D221*
X010981Y032807D03*
X010455Y032736D03*
X011536Y031562D03*
D222*
X010522Y031563D03*
X010582Y031938D03*
D223*
X011287Y031563D03*
D224*
X011535Y031563D03*
X011504Y032742D03*
X010455Y032733D03*
D225*
X010583Y031937D03*
X010619Y031842D03*
X010533Y031599D03*
X010533Y031598D03*
X010532Y031596D03*
X010532Y031595D03*
X010521Y031566D03*
X010521Y031565D03*
X011354Y031853D03*
X011354Y031854D03*
X011354Y031856D03*
X011354Y031857D03*
X011384Y031935D03*
X011433Y031652D03*
X011433Y031650D03*
X011435Y031647D03*
X011378Y032351D03*
D226*
X011392Y032334D03*
X011403Y032325D03*
X011397Y031952D03*
X011395Y031950D03*
X011353Y031838D03*
X011404Y031704D03*
X011406Y031701D03*
X011457Y031566D03*
X010557Y031643D03*
X010555Y031640D03*
X010554Y031637D03*
X010569Y031955D03*
X010983Y032772D03*
D227*
X010522Y031571D03*
X010522Y031569D03*
X010522Y031568D03*
D228*
X010620Y031827D03*
X010620Y031830D03*
X011413Y031688D03*
X011415Y031686D03*
X011416Y031685D03*
X011416Y031683D03*
X011458Y031571D03*
D229*
X011438Y031641D03*
X011436Y031643D03*
X011376Y032352D03*
X010523Y031578D03*
X010523Y031577D03*
X010523Y031575D03*
X010523Y031572D03*
D230*
X010545Y031620D03*
X010547Y031622D03*
X010619Y031832D03*
X010619Y031833D03*
X010575Y031947D03*
X011417Y031682D03*
X011459Y031572D03*
D231*
X010523Y031574D03*
D232*
X011354Y031844D03*
X011459Y031574D03*
D233*
X011460Y031575D03*
X011386Y032342D03*
X011385Y032343D03*
X010983Y032771D03*
X010576Y031946D03*
X010578Y031944D03*
X010578Y031943D03*
X010620Y031835D03*
X010543Y031617D03*
D234*
X010542Y031616D03*
X010541Y031614D03*
X010619Y031836D03*
X010619Y031838D03*
X011354Y031845D03*
X011354Y031847D03*
X011387Y031940D03*
X011388Y031941D03*
X011459Y031577D03*
X011384Y032345D03*
D235*
X011383Y032346D03*
X011382Y032348D03*
X011413Y032321D03*
X011425Y031665D03*
X011427Y031662D03*
X011428Y031661D03*
X011460Y031578D03*
X010579Y031941D03*
D236*
X010586Y031932D03*
X010619Y031845D03*
X010529Y031590D03*
X010526Y031586D03*
X010524Y031583D03*
X010524Y031581D03*
X010524Y031580D03*
X010589Y032351D03*
X011354Y031862D03*
X011354Y031860D03*
D237*
X011385Y031937D03*
X011454Y032010D03*
X011380Y032349D03*
X011431Y031656D03*
X011431Y031655D03*
X011433Y031653D03*
X011461Y031580D03*
X010534Y031601D03*
X010530Y032292D03*
X010587Y032349D03*
D238*
X010584Y031935D03*
X010531Y031593D03*
X010530Y031592D03*
X011436Y031644D03*
X011436Y031646D03*
X011461Y031583D03*
X011461Y031581D03*
X011382Y031932D03*
D239*
X011380Y031931D03*
X011355Y031863D03*
X011440Y031638D03*
X011442Y031635D03*
X011443Y031632D03*
X011445Y031631D03*
X011461Y031584D03*
X011374Y032355D03*
X011373Y032357D03*
X010983Y032769D03*
X010591Y032352D03*
X010587Y031931D03*
X010527Y031587D03*
X010525Y031584D03*
D240*
X010619Y031847D03*
X010619Y031848D03*
X010593Y032355D03*
X011354Y031865D03*
X011441Y031637D03*
X011445Y031629D03*
X011460Y031587D03*
X011460Y031586D03*
D241*
X011375Y032354D03*
X010584Y031934D03*
X010619Y031844D03*
X010527Y031589D03*
D242*
X011460Y031589D03*
D243*
X011460Y031590D03*
X011460Y031592D03*
X010619Y031851D03*
X010619Y031853D03*
X010589Y031929D03*
D244*
X010618Y031856D03*
X010618Y031854D03*
X011355Y031868D03*
X011460Y032012D03*
X011460Y031598D03*
X011460Y031596D03*
X011460Y031595D03*
X011460Y031593D03*
D245*
X011459Y031599D03*
X011459Y031601D03*
X011459Y031602D03*
X011354Y031869D03*
X011369Y032360D03*
X010590Y031928D03*
X010619Y031857D03*
D246*
X010619Y031841D03*
X010619Y031839D03*
X010530Y031989D03*
X010584Y032348D03*
X010535Y031602D03*
X011354Y031848D03*
X011354Y031850D03*
X011354Y031851D03*
X011385Y031938D03*
X011424Y031667D03*
X011429Y031659D03*
X011430Y031658D03*
D247*
X010536Y031604D03*
D248*
X011458Y031604D03*
D249*
X011457Y031605D03*
X011457Y031607D03*
X011456Y031608D03*
X011456Y031610D03*
X011454Y031611D03*
X011453Y031613D03*
X011451Y031616D03*
X011375Y031926D03*
X011376Y031928D03*
X010598Y032360D03*
D250*
X010584Y032346D03*
X010581Y031940D03*
X010537Y031607D03*
X011424Y031668D03*
D251*
X011421Y031673D03*
X011421Y031674D03*
X011419Y031677D03*
X011389Y031943D03*
X010540Y031613D03*
D252*
X011449Y031620D03*
X011451Y031617D03*
X011452Y031614D03*
D253*
X010545Y031619D03*
D254*
X011450Y031619D03*
D255*
X011448Y031622D03*
X011448Y031623D03*
X011421Y032319D03*
X010596Y032358D03*
X010523Y031991D03*
D256*
X010579Y032340D03*
X010549Y031628D03*
X010548Y031625D03*
X010548Y031623D03*
X011418Y031680D03*
X011391Y031946D03*
X011392Y031947D03*
X011409Y032322D03*
X011388Y032340D03*
D257*
X011371Y032358D03*
X011355Y031866D03*
X011446Y031628D03*
X011448Y031626D03*
X011448Y031625D03*
X010618Y031850D03*
D258*
X010553Y031634D03*
X011445Y032009D03*
X011405Y032324D03*
D259*
X011443Y031634D03*
D260*
X011439Y031640D03*
D261*
X011354Y031835D03*
X011354Y031836D03*
X011399Y031955D03*
X010620Y031820D03*
X010559Y031646D03*
X010574Y032331D03*
D262*
X010573Y032330D03*
X010621Y031818D03*
X010560Y031647D03*
X011353Y031832D03*
X011353Y031833D03*
X011398Y031716D03*
X011398Y031715D03*
X011400Y031713D03*
X011401Y031712D03*
X011400Y031956D03*
X011401Y031958D03*
X011400Y032327D03*
X011398Y032328D03*
D263*
X010561Y031649D03*
D264*
X011355Y031859D03*
X011383Y031934D03*
X011434Y031649D03*
D265*
X011354Y031830D03*
X011402Y031959D03*
X010562Y031650D03*
D266*
X010563Y031653D03*
X010563Y031655D03*
X010565Y031658D03*
X010565Y031961D03*
X010571Y032328D03*
X011393Y031725D03*
X011394Y031722D03*
X011396Y031719D03*
D267*
X011392Y031727D03*
X011392Y031728D03*
X010566Y031659D03*
X010564Y031656D03*
X010564Y031962D03*
X010570Y032327D03*
D268*
X010567Y032322D03*
X010567Y031661D03*
X011391Y031730D03*
D269*
X011406Y031965D03*
X010568Y031662D03*
X010566Y032321D03*
D270*
X010568Y031664D03*
D271*
X011426Y031664D03*
D272*
X011390Y031731D03*
X011388Y031734D03*
X011387Y031737D03*
X011385Y031740D03*
X011384Y031742D03*
X011352Y031824D03*
X011439Y032007D03*
X010620Y031811D03*
X010620Y031809D03*
X010571Y031670D03*
X010569Y031667D03*
X010569Y031665D03*
X010560Y031968D03*
X010547Y031983D03*
X010565Y032319D03*
X010983Y032775D03*
D273*
X010560Y031970D03*
X010575Y031674D03*
X010573Y031673D03*
X010572Y031671D03*
X010570Y031668D03*
X011352Y031821D03*
X011352Y031823D03*
X011380Y031748D03*
X011382Y031746D03*
X011382Y031745D03*
X011383Y031743D03*
D274*
X011379Y031749D03*
X011379Y031751D03*
X011408Y031968D03*
X011408Y031970D03*
X010620Y031808D03*
X010620Y031806D03*
X010578Y031682D03*
X010577Y031677D03*
X010575Y031676D03*
X010559Y031971D03*
X010557Y031974D03*
X010550Y031982D03*
X010562Y032316D03*
X010563Y032318D03*
D275*
X010577Y031679D03*
X011378Y031754D03*
D276*
X011418Y031679D03*
D277*
X011379Y031752D03*
X011352Y031820D03*
X011409Y031971D03*
X011410Y031973D03*
X011410Y031974D03*
X010621Y031805D03*
X010579Y031685D03*
X010579Y031683D03*
X010578Y031680D03*
X010558Y031973D03*
X010557Y031976D03*
X010560Y032312D03*
X010561Y032313D03*
X010561Y032315D03*
D278*
X010559Y032310D03*
X010556Y031977D03*
X010622Y031803D03*
X010580Y031686D03*
X011352Y031818D03*
X011411Y031976D03*
X010983Y032777D03*
D279*
X011376Y031758D03*
X010581Y031688D03*
D280*
X010582Y031689D03*
X010552Y032300D03*
X011436Y032006D03*
D281*
X010583Y031691D03*
D282*
X010584Y031692D03*
X010585Y031695D03*
X010554Y032301D03*
X010555Y032303D03*
X011365Y031776D03*
X011365Y031775D03*
D283*
X010585Y031694D03*
D284*
X010578Y032339D03*
X011388Y032339D03*
X011409Y031694D03*
D285*
X011364Y031778D03*
X011364Y031779D03*
X011363Y031782D03*
X010623Y031797D03*
X010586Y031697D03*
D286*
X010587Y031698D03*
X011367Y031773D03*
X011413Y031980D03*
D287*
X011414Y031982D03*
X011415Y031983D03*
X011415Y031985D03*
X011432Y032004D03*
X011352Y031812D03*
X011352Y031811D03*
X010589Y031701D03*
X010587Y031700D03*
D288*
X010590Y031703D03*
X010591Y031704D03*
X011416Y031986D03*
D289*
X011417Y031988D03*
X011352Y031808D03*
X011352Y031806D03*
X011352Y031803D03*
X011358Y031790D03*
X011361Y031785D03*
X010623Y031791D03*
X010623Y031793D03*
X010623Y031794D03*
X010595Y031712D03*
X010593Y031710D03*
X010592Y031706D03*
D290*
X010593Y031707D03*
X010623Y031796D03*
X011352Y031809D03*
X011361Y031787D03*
X011364Y031781D03*
X010984Y032778D03*
D291*
X010593Y031709D03*
D292*
X011403Y031709D03*
D293*
X011359Y031788D03*
X011358Y031791D03*
X011356Y031793D03*
X011353Y031800D03*
X011353Y031802D03*
X011352Y031805D03*
X011418Y031989D03*
X011419Y031991D03*
X010596Y031715D03*
X010596Y031713D03*
D294*
X010596Y031716D03*
X010623Y031788D03*
X010623Y031790D03*
X011420Y031992D03*
X011421Y031995D03*
X011423Y031997D03*
X011424Y031998D03*
X011426Y032000D03*
X011427Y032001D03*
D295*
X010599Y031719D03*
X010597Y031718D03*
D296*
X010599Y031721D03*
X010599Y031722D03*
X010601Y031725D03*
X010623Y031787D03*
D297*
X010601Y031724D03*
D298*
X011394Y031724D03*
D299*
X010602Y031727D03*
D300*
X010603Y031728D03*
X010605Y031730D03*
D301*
X010605Y031731D03*
X010607Y031733D03*
X010607Y031734D03*
D302*
X010621Y031812D03*
X010561Y031967D03*
X010546Y032298D03*
X011388Y031736D03*
X011389Y031733D03*
D303*
X010608Y031736D03*
D304*
X010608Y031737D03*
X010623Y031785D03*
D305*
X010624Y031784D03*
X010609Y031739D03*
D306*
X011386Y031739D03*
D307*
X010611Y031742D03*
X010610Y031740D03*
D308*
X010612Y031743D03*
D309*
X010613Y031745D03*
X010613Y031746D03*
D310*
X010614Y031748D03*
X010615Y031751D03*
X010624Y031776D03*
X010624Y031778D03*
D311*
X010625Y031779D03*
X010614Y031749D03*
D312*
X010616Y031752D03*
X010617Y031755D03*
X010619Y031757D03*
X010625Y031773D03*
X010625Y031775D03*
D313*
X010617Y031754D03*
D314*
X010552Y031980D03*
X011377Y031757D03*
X011377Y031755D03*
D315*
X010624Y031767D03*
X010623Y031764D03*
X010623Y031763D03*
X010621Y031760D03*
X010620Y031758D03*
X010624Y031770D03*
X010624Y031772D03*
D316*
X010557Y032306D03*
X010558Y032307D03*
X011412Y031977D03*
X011352Y031817D03*
X011368Y031770D03*
X011371Y031766D03*
X011373Y031763D03*
X011374Y031761D03*
X011374Y031760D03*
D317*
X010623Y031766D03*
X010622Y031761D03*
D318*
X010622Y031800D03*
X010622Y031802D03*
X010556Y032304D03*
X011352Y031815D03*
X011367Y031772D03*
X011370Y031767D03*
X011372Y031764D03*
D319*
X010624Y031769D03*
D320*
X011370Y031769D03*
D321*
X010624Y031781D03*
X010624Y031782D03*
D322*
X011362Y031784D03*
D323*
X011355Y031794D03*
D324*
X011355Y031796D03*
X011355Y031797D03*
X011430Y032003D03*
D325*
X010623Y031799D03*
D326*
X011354Y031799D03*
D327*
X010620Y031814D03*
X010563Y031964D03*
D328*
X011352Y031814D03*
X011412Y031979D03*
D329*
X011353Y031827D03*
X010621Y031817D03*
X010621Y031815D03*
D330*
X010620Y031824D03*
X010620Y031826D03*
D331*
X010562Y031965D03*
X010545Y031985D03*
X011352Y031826D03*
X011403Y031961D03*
D332*
X010620Y031829D03*
D333*
X011353Y031829D03*
X010983Y032774D03*
D334*
X011354Y031842D03*
D335*
X010618Y031859D03*
D336*
X010618Y031860D03*
X010983Y032768D03*
D337*
X010518Y031992D03*
X010592Y031926D03*
X010617Y031862D03*
X011354Y031872D03*
X011373Y031925D03*
D338*
X011366Y032363D03*
X010602Y032363D03*
X010595Y031923D03*
X010617Y031865D03*
X010617Y031863D03*
D339*
X010617Y031866D03*
X010596Y031922D03*
X011364Y032364D03*
X010983Y032766D03*
D340*
X010605Y032367D03*
X010617Y031869D03*
X010617Y031868D03*
X011355Y031884D03*
X011355Y031886D03*
X011433Y032316D03*
D341*
X011354Y031887D03*
X010617Y031871D03*
D342*
X011355Y031871D03*
D343*
X011355Y031890D03*
X011470Y032016D03*
X010617Y031872D03*
X010512Y031995D03*
X010983Y032765D03*
D344*
X010617Y031874D03*
D345*
X011355Y031874D03*
D346*
X011364Y031917D03*
X010617Y031875D03*
X010602Y031917D03*
D347*
X011354Y031877D03*
X011354Y031875D03*
D348*
X011355Y031892D03*
X011358Y032370D03*
X010983Y032763D03*
X010509Y031997D03*
X010618Y031878D03*
X010618Y031877D03*
D349*
X010603Y032364D03*
X011370Y031920D03*
X011355Y031880D03*
X011355Y031878D03*
D350*
X011355Y031893D03*
X011360Y031913D03*
X010617Y031880D03*
X010607Y031913D03*
X010605Y031914D03*
X010604Y031916D03*
X010610Y032370D03*
D351*
X010509Y032288D03*
X010618Y031883D03*
X010618Y031881D03*
X011355Y031895D03*
X011359Y031911D03*
X011439Y032313D03*
X011356Y032372D03*
D352*
X011354Y031883D03*
X011354Y031881D03*
X010604Y032366D03*
X010515Y032289D03*
D353*
X010608Y031911D03*
X010617Y031886D03*
X010617Y031884D03*
D354*
X010617Y031887D03*
X011355Y031896D03*
X011355Y031898D03*
X011358Y031910D03*
X011475Y032018D03*
X011355Y032373D03*
X010983Y032762D03*
D355*
X010617Y031889D03*
D356*
X010600Y031919D03*
X011355Y031889D03*
D357*
X011355Y031899D03*
X011355Y031901D03*
X011355Y031902D03*
X011355Y031905D03*
X011356Y031908D03*
X010617Y031892D03*
X010617Y031890D03*
D358*
X010617Y031893D03*
X010617Y031895D03*
X010614Y031908D03*
X010504Y032286D03*
X010617Y032376D03*
D359*
X010614Y031907D03*
X010616Y031898D03*
X010616Y031896D03*
X011348Y032378D03*
X010983Y032760D03*
D360*
X010615Y031905D03*
X010617Y031901D03*
X010617Y031899D03*
D361*
X010616Y031902D03*
X010500Y032285D03*
D362*
X010616Y031904D03*
D363*
X011355Y031904D03*
D364*
X011355Y031907D03*
D365*
X011350Y032376D03*
X010615Y032375D03*
X010614Y032373D03*
X010504Y031998D03*
X010611Y031910D03*
D366*
X011362Y031914D03*
D367*
X011363Y031916D03*
X011436Y032315D03*
D368*
X011367Y031919D03*
D369*
X011466Y032015D03*
X011363Y032366D03*
X010598Y031920D03*
D370*
X010594Y031925D03*
X010600Y032361D03*
X011367Y032361D03*
X011428Y032318D03*
X011464Y032013D03*
X011373Y031923D03*
X011371Y031922D03*
D371*
X011379Y031929D03*
X010594Y032357D03*
D372*
X010574Y031949D03*
D373*
X011394Y031949D03*
D374*
X011405Y031962D03*
X010569Y032325D03*
D375*
X011406Y031964D03*
D376*
X011407Y031967D03*
D377*
X010554Y031979D03*
X010559Y032309D03*
D378*
X010515Y031994D03*
D379*
X011421Y031994D03*
D380*
X010496Y032000D03*
D381*
X010490Y032001D03*
X011490Y032021D03*
D382*
X010983Y032756D03*
X010487Y032280D03*
X010485Y032003D03*
D383*
X010482Y032004D03*
X010983Y032754D03*
D384*
X011468Y032304D03*
X010479Y032006D03*
D385*
X010476Y032007D03*
X010983Y032751D03*
X011472Y032303D03*
D386*
X010470Y032009D03*
D387*
X010462Y032010D03*
X010983Y032747D03*
D388*
X010458Y032012D03*
D389*
X010454Y032013D03*
X011303Y032393D03*
X011498Y032295D03*
D390*
X010451Y032015D03*
D391*
X010449Y032016D03*
D392*
X010443Y032018D03*
X011534Y032034D03*
X011508Y032291D03*
D393*
X010982Y032735D03*
X010436Y032019D03*
D394*
X011344Y032379D03*
X011448Y032310D03*
X011482Y032019D03*
D395*
X010983Y032732D03*
X010404Y032199D03*
X010404Y032198D03*
X010404Y032196D03*
X010404Y032195D03*
X010404Y032193D03*
X010404Y032192D03*
X010403Y032183D03*
X010403Y032181D03*
X010403Y032180D03*
X010403Y032105D03*
X010403Y032103D03*
X010403Y032102D03*
X010403Y032100D03*
X010403Y032097D03*
X010403Y032096D03*
X010403Y032094D03*
X010403Y032093D03*
X010403Y032091D03*
X010430Y032021D03*
D396*
X010426Y032022D03*
X010405Y032072D03*
X010405Y032073D03*
X010405Y032075D03*
X010407Y032211D03*
X010407Y032213D03*
X010428Y032262D03*
X011559Y032222D03*
X011560Y032217D03*
X011562Y032067D03*
X011562Y032066D03*
X011556Y032046D03*
X011554Y032045D03*
D397*
X011496Y032022D03*
D398*
X010423Y032024D03*
X010408Y032219D03*
D399*
X011499Y032024D03*
D400*
X011558Y032051D03*
X011558Y032052D03*
X011559Y032055D03*
X011559Y032057D03*
X011559Y032058D03*
X011552Y032246D03*
X011529Y032285D03*
X010422Y032259D03*
X010422Y032025D03*
D401*
X011503Y032025D03*
D402*
X010420Y032027D03*
X010413Y032241D03*
D403*
X011476Y032301D03*
X011506Y032027D03*
D404*
X010419Y032028D03*
X010418Y032030D03*
X010413Y032243D03*
X010418Y032252D03*
X010419Y032256D03*
X010421Y032258D03*
D405*
X011511Y032028D03*
D406*
X011520Y032030D03*
X011490Y032298D03*
D407*
X010419Y032255D03*
X010419Y032253D03*
X010417Y032250D03*
X010416Y032247D03*
X010416Y032246D03*
X010414Y032244D03*
X010417Y032031D03*
D408*
X011526Y032031D03*
D409*
X010416Y032033D03*
X010415Y032034D03*
X010415Y032036D03*
D410*
X011531Y032033D03*
D411*
X011538Y032036D03*
D412*
X011547Y032261D03*
X011534Y032282D03*
X010413Y032037D03*
D413*
X011542Y032037D03*
D414*
X010413Y032039D03*
D415*
X011548Y032039D03*
X011568Y032159D03*
X011566Y032174D03*
D416*
X011550Y032253D03*
X011550Y032255D03*
X011548Y032258D03*
X011548Y032259D03*
X010413Y032040D03*
X010411Y032042D03*
D417*
X011551Y032040D03*
X011563Y032073D03*
X011563Y032075D03*
X011563Y032076D03*
X011565Y032081D03*
X011565Y032082D03*
X011565Y032085D03*
X011565Y032087D03*
X011565Y032088D03*
X011563Y032202D03*
X011563Y032205D03*
X011563Y032207D03*
D418*
X011562Y032210D03*
X011562Y032211D03*
X011562Y032213D03*
X011553Y032042D03*
X010404Y032082D03*
X010404Y032085D03*
X010404Y032087D03*
X010404Y032088D03*
X010404Y032090D03*
X010405Y032201D03*
X010405Y032202D03*
X010405Y032205D03*
X010405Y032207D03*
D419*
X010412Y032240D03*
X010410Y032046D03*
X010410Y032045D03*
X010410Y032043D03*
X011532Y032283D03*
X011549Y032256D03*
X011550Y032252D03*
X011550Y032250D03*
D420*
X011561Y032216D03*
X011561Y032214D03*
X011562Y032072D03*
X011562Y032070D03*
X011553Y032043D03*
X010404Y032076D03*
X010404Y032078D03*
X010404Y032079D03*
X010404Y032081D03*
X010406Y032208D03*
X010406Y032210D03*
D421*
X010411Y032237D03*
X010411Y032238D03*
X010410Y032052D03*
X010410Y032051D03*
X010410Y032049D03*
X010410Y032048D03*
X011551Y032247D03*
D422*
X011555Y032240D03*
X011555Y032238D03*
X011555Y032237D03*
X011556Y032235D03*
X011556Y032232D03*
X011556Y032231D03*
X011556Y032229D03*
X011558Y032228D03*
X011558Y032226D03*
X011558Y032225D03*
X011558Y032223D03*
X011559Y032220D03*
X011526Y032286D03*
X011561Y032064D03*
X011561Y032063D03*
X011556Y032048D03*
X010407Y032066D03*
X010406Y032070D03*
X010407Y032214D03*
X010407Y032216D03*
X010409Y032220D03*
X010425Y032261D03*
D423*
X010408Y032217D03*
X010407Y032067D03*
X010408Y032064D03*
X010408Y032063D03*
X010408Y032061D03*
X011557Y032049D03*
X011560Y032060D03*
X011560Y032061D03*
X011554Y032241D03*
X011554Y032243D03*
X011553Y032244D03*
D424*
X011551Y032249D03*
X010410Y032054D03*
D425*
X011559Y032054D03*
D426*
X010409Y032055D03*
X010409Y032057D03*
X010409Y032058D03*
X010409Y032060D03*
X010410Y032229D03*
X010410Y032231D03*
X010410Y032232D03*
X010410Y032235D03*
D427*
X010406Y032069D03*
X011556Y032234D03*
D428*
X011562Y032069D03*
X010430Y032264D03*
D429*
X011564Y032079D03*
X011564Y032078D03*
D430*
X010404Y032084D03*
X010405Y032204D03*
D431*
X011563Y032204D03*
X011565Y032084D03*
D432*
X011565Y032090D03*
X011565Y032091D03*
X011565Y032093D03*
X011565Y032094D03*
X011565Y032096D03*
X011564Y032195D03*
X011564Y032196D03*
X011564Y032198D03*
X011564Y032199D03*
X011564Y032201D03*
X011562Y032208D03*
D433*
X011565Y032193D03*
X011565Y032192D03*
X011565Y032190D03*
X011565Y032187D03*
X011565Y032186D03*
X011566Y032106D03*
X011566Y032105D03*
X011566Y032103D03*
X011566Y032102D03*
X011566Y032100D03*
X011566Y032097D03*
X011523Y032288D03*
D434*
X010403Y032099D03*
D435*
X011565Y032189D03*
X011566Y032099D03*
D436*
X010432Y032265D03*
X010404Y032190D03*
X010404Y032187D03*
X010404Y032186D03*
X010404Y032184D03*
X010402Y032178D03*
X010402Y032177D03*
X010402Y032175D03*
X010402Y032172D03*
X010402Y032171D03*
X010402Y032169D03*
X010402Y032168D03*
X010402Y032115D03*
X010402Y032112D03*
X010402Y032111D03*
X010402Y032109D03*
X010402Y032108D03*
X010402Y032106D03*
D437*
X011567Y032108D03*
X011567Y032109D03*
X011567Y032111D03*
X011567Y032112D03*
X011567Y032115D03*
X011567Y032166D03*
X011567Y032168D03*
X011567Y032169D03*
X011565Y032175D03*
X011565Y032177D03*
X011565Y032178D03*
X011565Y032180D03*
X011565Y032181D03*
X011565Y032183D03*
X011565Y032184D03*
D438*
X010404Y032189D03*
X010402Y032174D03*
X010402Y032114D03*
D439*
X011567Y032114D03*
D440*
X010401Y032117D03*
X010401Y032118D03*
X010401Y032120D03*
X010401Y032121D03*
X010401Y032123D03*
X010401Y032124D03*
X010400Y032126D03*
X010400Y032127D03*
X010400Y032130D03*
X010400Y032132D03*
X010400Y032133D03*
X010400Y032135D03*
X010401Y032157D03*
X010401Y032160D03*
X010401Y032162D03*
X010401Y032163D03*
X010401Y032165D03*
X010401Y032166D03*
D441*
X010399Y032139D03*
X010399Y032138D03*
X010399Y032136D03*
X011566Y032171D03*
X011566Y032172D03*
X011568Y032165D03*
X011568Y032163D03*
X011568Y032162D03*
X011568Y032160D03*
X011568Y032157D03*
X011568Y032156D03*
X011568Y032126D03*
X011568Y032124D03*
X011568Y032123D03*
X011568Y032121D03*
X011568Y032120D03*
X011568Y032118D03*
X011568Y032117D03*
D442*
X011568Y032127D03*
X011568Y032130D03*
X011568Y032132D03*
X011568Y032133D03*
X011568Y032135D03*
X011568Y032136D03*
X011568Y032138D03*
X011568Y032139D03*
X011568Y032141D03*
X011568Y032142D03*
X011568Y032145D03*
X011568Y032147D03*
X011568Y032148D03*
X011568Y032150D03*
X011568Y032151D03*
X011568Y032153D03*
X011568Y032154D03*
X010436Y032267D03*
X010400Y032147D03*
X010400Y032145D03*
X010400Y032142D03*
X010400Y032141D03*
D443*
X010400Y032129D03*
X010401Y032159D03*
D444*
X010400Y032144D03*
X011568Y032144D03*
X011568Y032129D03*
D445*
X010401Y032148D03*
X010401Y032150D03*
X010401Y032151D03*
X010401Y032153D03*
X010401Y032154D03*
X010401Y032156D03*
D446*
X011560Y032219D03*
D447*
X010410Y032222D03*
X010410Y032223D03*
X010410Y032225D03*
X010410Y032226D03*
X010410Y032228D03*
D448*
X010410Y032234D03*
D449*
X010417Y032249D03*
D450*
X011536Y032280D03*
X011547Y032262D03*
D451*
X011547Y032264D03*
X011538Y032279D03*
D452*
X011540Y032277D03*
X011544Y032268D03*
X011546Y032265D03*
D453*
X011545Y032267D03*
X011544Y032270D03*
X011544Y032271D03*
D454*
X010983Y032736D03*
X010441Y032268D03*
D455*
X010449Y032270D03*
X010983Y032739D03*
D456*
X010983Y032742D03*
X011494Y032297D03*
X010456Y032271D03*
D457*
X010461Y032273D03*
D458*
X011541Y032276D03*
X011543Y032273D03*
D459*
X010464Y032274D03*
D460*
X011542Y032274D03*
D461*
X010467Y032276D03*
D462*
X010471Y032277D03*
D463*
X010478Y032279D03*
D464*
X010493Y032282D03*
D465*
X010498Y032283D03*
D466*
X011517Y032289D03*
D467*
X010524Y032291D03*
D468*
X011504Y032292D03*
D469*
X010534Y032294D03*
D470*
X011501Y032294D03*
D471*
X011482Y032300D03*
D472*
X011465Y032306D03*
X011328Y032388D03*
X010638Y032388D03*
D473*
X011461Y032307D03*
D474*
X011455Y032309D03*
D475*
X011442Y032312D03*
X011352Y032375D03*
D476*
X010568Y032324D03*
D477*
X010575Y032333D03*
D478*
X010592Y032354D03*
D479*
X011362Y032367D03*
D480*
X010607Y032369D03*
D481*
X011361Y032369D03*
D482*
X010611Y032372D03*
D483*
X010620Y032378D03*
D484*
X010623Y032379D03*
D485*
X010626Y032381D03*
D486*
X011339Y032381D03*
D487*
X010629Y032382D03*
D488*
X011337Y032382D03*
D489*
X010631Y032384D03*
D490*
X011335Y032384D03*
D491*
X010983Y032757D03*
X010633Y032385D03*
D492*
X011333Y032385D03*
D493*
X010635Y032387D03*
D494*
X011331Y032387D03*
D495*
X011319Y032390D03*
X010647Y032390D03*
D496*
X010654Y032391D03*
D497*
X011309Y032391D03*
D498*
X010659Y032393D03*
D499*
X010983Y032394D03*
D500*
X010983Y032396D03*
D501*
X010983Y032397D03*
X010980Y032577D03*
D502*
X010983Y032399D03*
D503*
X010983Y032400D03*
D504*
X010983Y032402D03*
X010980Y032574D03*
D505*
X010980Y032573D03*
X010982Y032403D03*
D506*
X010983Y032405D03*
X010980Y032571D03*
D507*
X010983Y032408D03*
X010983Y032406D03*
D508*
X010983Y032409D03*
X010980Y032568D03*
D509*
X010983Y032411D03*
D510*
X010983Y032412D03*
X010983Y032415D03*
D511*
X010983Y032414D03*
D512*
X010983Y032417D03*
X010983Y032418D03*
X010983Y032420D03*
D513*
X010983Y032421D03*
X010980Y032562D03*
D514*
X010983Y032423D03*
D515*
X010983Y032424D03*
D516*
X010983Y032426D03*
D517*
X010983Y032427D03*
X010980Y032556D03*
D518*
X010983Y032429D03*
D519*
X010983Y032430D03*
X010983Y032432D03*
X010980Y032553D03*
D520*
X010980Y032552D03*
X010983Y032436D03*
X010983Y032435D03*
X010983Y032433D03*
D521*
X010983Y032438D03*
X010980Y032550D03*
D522*
X010983Y032439D03*
D523*
X010983Y032441D03*
D524*
X010983Y032442D03*
D525*
X010983Y032444D03*
D526*
X010983Y032445D03*
X010983Y032447D03*
D527*
X010983Y032448D03*
D528*
X010983Y032450D03*
D529*
X010983Y032451D03*
D530*
X010983Y032453D03*
X010983Y032454D03*
D531*
X010983Y032456D03*
X010983Y032457D03*
D532*
X010983Y032459D03*
D533*
X010983Y032460D03*
D534*
X010983Y032462D03*
X010980Y032535D03*
D535*
X010980Y032532D03*
X010983Y032463D03*
D536*
X010982Y032465D03*
X010979Y032531D03*
D537*
X010980Y032529D03*
X010983Y032466D03*
D538*
X010983Y032468D03*
X010980Y032526D03*
D539*
X010983Y032469D03*
D540*
X010983Y032471D03*
X010980Y032525D03*
D541*
X010983Y032472D03*
D542*
X010983Y032474D03*
D543*
X010983Y032475D03*
X010983Y032477D03*
D544*
X010983Y032478D03*
X010979Y032520D03*
D545*
X010983Y032480D03*
D546*
X010983Y032481D03*
D547*
X010983Y032483D03*
D548*
X010983Y032484D03*
X010979Y032513D03*
D549*
X010980Y032511D03*
X010983Y032486D03*
D550*
X010983Y032487D03*
D551*
X010983Y032489D03*
D552*
X010983Y032490D03*
D553*
X010983Y032492D03*
X010983Y032493D03*
D554*
X010983Y032495D03*
X010983Y032496D03*
X010980Y032507D03*
D555*
X010979Y032505D03*
X010980Y032501D03*
X010980Y032499D03*
X010982Y032498D03*
D556*
X010980Y032502D03*
D557*
X010980Y032504D03*
D558*
X010979Y032508D03*
D559*
X010980Y032510D03*
D560*
X010979Y032514D03*
X010979Y032516D03*
D561*
X010979Y032517D03*
D562*
X010979Y032519D03*
D563*
X010979Y032522D03*
D564*
X010980Y032523D03*
D565*
X010979Y032528D03*
D566*
X010980Y032534D03*
D567*
X010980Y032537D03*
D568*
X010980Y032538D03*
D569*
X010980Y032540D03*
D570*
X010980Y032541D03*
D571*
X010979Y032543D03*
D572*
X010980Y032544D03*
D573*
X010979Y032546D03*
D574*
X010980Y032547D03*
D575*
X010980Y032549D03*
D576*
X010980Y032555D03*
D577*
X010980Y032558D03*
D578*
X010980Y032559D03*
D579*
X010980Y032561D03*
D580*
X010980Y032564D03*
D581*
X010980Y032565D03*
D582*
X010980Y032567D03*
D583*
X010980Y032570D03*
D584*
X010980Y032576D03*
D585*
X010981Y032579D03*
D586*
X010981Y032580D03*
D587*
X010981Y032582D03*
D588*
X010980Y032583D03*
D589*
X010980Y032585D03*
D590*
X010980Y032586D03*
D591*
X010980Y032588D03*
D592*
X010980Y032589D03*
D593*
X010981Y032591D03*
D594*
X010981Y032592D03*
D595*
X010982Y032594D03*
D596*
X010981Y032595D03*
D597*
X010981Y032597D03*
D598*
X010980Y032598D03*
D599*
X010980Y032600D03*
D600*
X010981Y032601D03*
D601*
X010980Y032603D03*
D602*
X010981Y032604D03*
D603*
X010981Y032606D03*
D604*
X010982Y032607D03*
D605*
X010982Y032609D03*
D606*
X010981Y032610D03*
D607*
X010981Y032612D03*
D608*
X010980Y032613D03*
D609*
X010980Y032615D03*
X010980Y032616D03*
D610*
X010980Y032618D03*
D611*
X010982Y032619D03*
D612*
X010982Y032621D03*
X010982Y032622D03*
D613*
X010982Y032624D03*
D614*
X010982Y032625D03*
D615*
X010981Y032627D03*
D616*
X010981Y032628D03*
X010981Y032630D03*
D617*
X010981Y032631D03*
D618*
X010981Y032633D03*
D619*
X010982Y032634D03*
D620*
X010982Y032636D03*
X010982Y032637D03*
D621*
X010982Y032639D03*
D622*
X010982Y032640D03*
D623*
X010981Y032642D03*
D624*
X010981Y032643D03*
X010981Y032645D03*
D625*
X010981Y032646D03*
D626*
X010982Y032648D03*
D627*
X010982Y032649D03*
D628*
X010983Y032651D03*
D629*
X010983Y032652D03*
D630*
X010982Y032654D03*
D631*
X010982Y032655D03*
D632*
X010981Y032657D03*
D633*
X010982Y032658D03*
D634*
X010982Y032660D03*
D635*
X010982Y032661D03*
D636*
X010983Y032663D03*
D637*
X010983Y032664D03*
X010983Y032666D03*
D638*
X010983Y032667D03*
D639*
X010982Y032669D03*
D640*
X010982Y032670D03*
D641*
X010982Y032672D03*
D642*
X010983Y032673D03*
D643*
X010983Y032675D03*
X010984Y032723D03*
D644*
X010983Y032676D03*
D645*
X010983Y032678D03*
X010984Y032721D03*
D646*
X010983Y032681D03*
X010983Y032679D03*
D647*
X010983Y032682D03*
D648*
X010982Y032684D03*
D649*
X010982Y032685D03*
D650*
X010983Y032687D03*
D651*
X010982Y032688D03*
X010983Y032712D03*
D652*
X010983Y032690D03*
D653*
X010983Y032691D03*
X010984Y032709D03*
D654*
X010983Y032708D03*
X010983Y032706D03*
X010983Y032697D03*
X010983Y032696D03*
X010983Y032694D03*
X010983Y032693D03*
D655*
X010984Y032699D03*
D656*
X010984Y032700D03*
X010984Y032702D03*
X010984Y032703D03*
X010984Y032705D03*
D657*
X010983Y032711D03*
D658*
X010984Y032714D03*
D659*
X010984Y032715D03*
D660*
X010983Y032717D03*
D661*
X010983Y032718D03*
D662*
X010983Y032720D03*
D663*
X010983Y032724D03*
D664*
X010983Y032726D03*
D665*
X011502Y032736D03*
X010458Y032727D03*
D666*
X011160Y032727D03*
D667*
X010457Y032729D03*
D668*
X011161Y032729D03*
D669*
X010456Y032730D03*
D670*
X011163Y032730D03*
D671*
X011499Y032732D03*
D672*
X010982Y032733D03*
D673*
X011502Y032733D03*
D674*
X011504Y032745D03*
X010982Y032805D03*
X010455Y032735D03*
D675*
X011502Y032735D03*
D676*
X010455Y032738D03*
D677*
X010982Y032738D03*
D678*
X011502Y032738D03*
D679*
X010455Y032739D03*
D680*
X011502Y032739D03*
D681*
X010454Y032741D03*
D682*
X010983Y032741D03*
D683*
X011503Y032741D03*
D684*
X011505Y032751D03*
X010454Y032742D03*
D685*
X010453Y032744D03*
X010983Y032864D03*
D686*
X010983Y032744D03*
D687*
X010982Y032804D03*
X011504Y032744D03*
D688*
X010982Y032745D03*
D689*
X010982Y032885D03*
X010982Y032886D03*
X010982Y032888D03*
X011507Y032757D03*
X010452Y032748D03*
D690*
X010983Y032748D03*
D691*
X010981Y032820D03*
X010981Y032822D03*
X010981Y032823D03*
X010981Y032825D03*
X010981Y032826D03*
X011505Y032748D03*
D692*
X010983Y032897D03*
X010983Y032898D03*
X010983Y032900D03*
X010452Y032750D03*
D693*
X010983Y032750D03*
D694*
X011505Y032750D03*
D695*
X010983Y032927D03*
X010983Y032928D03*
X010983Y032930D03*
X010451Y032753D03*
D696*
X010983Y032753D03*
D697*
X010982Y032873D03*
X010982Y032874D03*
X010982Y032876D03*
X011507Y032754D03*
D698*
X011509Y032763D03*
X010983Y032937D03*
X010450Y032756D03*
D699*
X010449Y032759D03*
X010983Y032954D03*
D700*
X010983Y032759D03*
D701*
X011508Y032759D03*
D702*
X010449Y032762D03*
D703*
X010449Y032765D03*
X010984Y032997D03*
X010984Y033000D03*
D704*
X010984Y033003D03*
X010984Y033005D03*
X010984Y033006D03*
X010449Y032766D03*
D705*
X011510Y032766D03*
D706*
X010985Y033017D03*
X010448Y032768D03*
D707*
X010983Y032952D03*
X010983Y032955D03*
X010983Y032957D03*
X011510Y032768D03*
D708*
X010984Y033030D03*
X010447Y032769D03*
D709*
X010984Y032973D03*
X010984Y032975D03*
X010984Y032976D03*
X010984Y032978D03*
X010984Y032979D03*
X011511Y032769D03*
D710*
X010447Y032771D03*
D711*
X010446Y032772D03*
X010985Y033036D03*
D712*
X010446Y032774D03*
D713*
X011512Y032774D03*
D714*
X011514Y032783D03*
X010446Y032775D03*
D715*
X010446Y032777D03*
X010984Y033039D03*
D716*
X010984Y033027D03*
X010984Y033026D03*
X010984Y033024D03*
X010984Y033023D03*
X010984Y033021D03*
X010984Y033020D03*
X010984Y033018D03*
X011512Y032777D03*
D717*
X011514Y032786D03*
X010985Y033041D03*
X010445Y032778D03*
D718*
X010985Y033032D03*
X010985Y033033D03*
X011513Y032778D03*
D719*
X010983Y032780D03*
D720*
X010445Y032781D03*
D721*
X010983Y032781D03*
D722*
X010985Y033038D03*
X011514Y032781D03*
D723*
X010444Y032783D03*
D724*
X010983Y032783D03*
D725*
X010983Y032784D03*
D726*
X011514Y032784D03*
D727*
X010986Y033045D03*
X010443Y032786D03*
D728*
X010983Y032786D03*
D729*
X010983Y032787D03*
D730*
X011515Y032787D03*
D731*
X010443Y032789D03*
D732*
X010983Y032789D03*
D733*
X011516Y032789D03*
D734*
X010984Y032790D03*
D735*
X011517Y032790D03*
D736*
X010984Y032792D03*
D737*
X010984Y032793D03*
D738*
X010442Y032795D03*
D739*
X010984Y032795D03*
D740*
X011517Y032795D03*
D741*
X011519Y032802D03*
X010442Y032796D03*
D742*
X010984Y032796D03*
D743*
X010441Y032798D03*
D744*
X010983Y032798D03*
D745*
X010441Y032801D03*
D746*
X010983Y032801D03*
D747*
X011518Y032801D03*
D748*
X010440Y032802D03*
D749*
X010440Y032804D03*
D750*
X010440Y032805D03*
D751*
X010440Y032807D03*
X011520Y032813D03*
D752*
X011519Y032807D03*
D753*
X011520Y032814D03*
X010440Y032808D03*
D754*
X010982Y032808D03*
X010982Y032810D03*
X010982Y032811D03*
D755*
X011519Y032808D03*
D756*
X011520Y032810D03*
D757*
X010440Y032811D03*
D758*
X011520Y032811D03*
D759*
X010439Y032813D03*
D760*
X010440Y032814D03*
X011521Y032820D03*
D761*
X010440Y032816D03*
D762*
X010440Y032817D03*
D763*
X010439Y032819D03*
D764*
X010980Y032819D03*
D765*
X011521Y032819D03*
D766*
X010438Y032822D03*
D767*
X011522Y032825D03*
D768*
X010437Y032826D03*
D769*
X011522Y032826D03*
D770*
X010982Y032828D03*
D771*
X010437Y032831D03*
D772*
X010982Y032832D03*
X010982Y032835D03*
D773*
X010437Y032834D03*
D774*
X010982Y032834D03*
D775*
X011523Y032834D03*
D776*
X010437Y032838D03*
D777*
X011524Y032840D03*
D778*
X010436Y032841D03*
D779*
X011525Y032841D03*
D780*
X010436Y032847D03*
D781*
X010435Y032849D03*
D782*
X010983Y032849D03*
D783*
X011525Y032849D03*
D784*
X011526Y032850D03*
D785*
X010434Y032852D03*
D786*
X011526Y032852D03*
D787*
X011526Y032859D03*
X010434Y032853D03*
D788*
X011526Y032853D03*
D789*
X010434Y032855D03*
D790*
X011526Y032855D03*
D791*
X010983Y032858D03*
X010983Y032859D03*
X010983Y032861D03*
X010983Y032862D03*
X010983Y032865D03*
D792*
X011526Y032858D03*
D793*
X011527Y032865D03*
X010434Y032859D03*
D794*
X011527Y032861D03*
D795*
X011527Y032864D03*
D796*
X010982Y032867D03*
D797*
X011528Y032867D03*
D798*
X011530Y032868D03*
D799*
X010982Y032879D03*
D800*
X010983Y032889D03*
X010983Y032891D03*
X010983Y032892D03*
D801*
X010983Y032894D03*
D802*
X010983Y032895D03*
D803*
X010983Y032901D03*
X010983Y032903D03*
X010983Y032904D03*
X010983Y032906D03*
X010983Y032907D03*
X010983Y032910D03*
X010983Y032912D03*
D804*
X010983Y032909D03*
D805*
X010983Y032925D03*
D806*
X010983Y032939D03*
D807*
X010983Y032943D03*
D808*
X010983Y032945D03*
X010983Y032946D03*
X010983Y032948D03*
X010983Y032949D03*
D809*
X010984Y032984D03*
D810*
X010983Y032990D03*
D811*
X010985Y032996D03*
D812*
X010984Y032999D03*
D813*
X010984Y033014D03*
D814*
X010984Y033029D03*
D815*
X010986Y033044D03*
D816*
X010977Y033048D03*
D817*
X009841Y032683D02*
X009766Y032683D01*
X009465Y032983D01*
X009390Y032983D01*
X009390Y032683D01*
X009390Y032522D02*
X009841Y032222D01*
X009841Y032522D02*
X009390Y032222D01*
X008850Y029922D02*
X008892Y029907D01*
X008930Y029884D01*
X008962Y029852D01*
X008986Y029814D01*
X009001Y029772D01*
X009006Y029727D01*
X009001Y029683D01*
X008986Y029640D01*
X008962Y029602D01*
X008930Y029571D01*
X008892Y029547D01*
X008850Y029532D01*
X008806Y029527D01*
X008761Y029532D01*
X008719Y029547D01*
X008681Y029571D01*
X008649Y029602D01*
X008625Y029640D01*
X008611Y029683D01*
X008606Y029727D01*
X008611Y029772D01*
X008625Y029814D01*
X008649Y029852D01*
X008681Y029884D01*
X008719Y029907D01*
X008761Y029922D01*
X008806Y029927D01*
X008850Y029922D01*
X008857Y029920D02*
X008754Y029920D01*
X008669Y029871D02*
X008943Y029871D01*
X008980Y029823D02*
X008631Y029823D01*
X008612Y029774D02*
X009000Y029774D01*
X009005Y029726D02*
X008606Y029726D01*
X008612Y029677D02*
X008999Y029677D01*
X008978Y029629D02*
X008633Y029629D01*
X008671Y029580D02*
X008940Y029580D01*
X008847Y029532D02*
X008765Y029532D01*
X009671Y029402D02*
X009821Y029402D01*
X009746Y029402D02*
X009746Y029853D01*
X009671Y029853D02*
X009821Y029853D01*
X009978Y029777D02*
X010053Y029853D01*
X010203Y029853D01*
X010278Y029777D01*
X010438Y029627D02*
X010738Y029627D01*
X010663Y029402D02*
X010663Y029853D01*
X010438Y029627D01*
X010278Y029477D02*
X010203Y029402D01*
X010053Y029402D01*
X009978Y029477D01*
X009978Y029777D01*
X013009Y028045D02*
X013009Y027895D01*
X013084Y027820D01*
X013159Y027820D01*
X013234Y027895D01*
X013234Y028045D01*
X013309Y028120D01*
X013384Y028120D01*
X013460Y028045D01*
X013460Y027895D01*
X013384Y027820D01*
X013309Y027820D01*
X013234Y027895D01*
X013234Y028045D02*
X013159Y028120D01*
X013084Y028120D01*
X013009Y028045D01*
X013009Y027660D02*
X013460Y027359D01*
X013460Y027660D02*
X013009Y027359D01*
X011377Y025828D02*
X011226Y025752D01*
X011076Y025602D01*
X011302Y025602D01*
X011377Y025527D01*
X011377Y025452D01*
X011302Y025377D01*
X011151Y025377D01*
X011076Y025452D01*
X011076Y025602D01*
X010916Y025377D02*
X010616Y025377D01*
X010766Y025377D02*
X010766Y025828D01*
X010616Y025677D01*
X010456Y025752D02*
X010381Y025828D01*
X010231Y025828D01*
X010156Y025752D01*
X010156Y025452D01*
X010231Y025377D01*
X010381Y025377D01*
X010456Y025452D01*
X009085Y020896D02*
X009085Y019883D01*
X008426Y019858D02*
X008426Y020896D01*
X011546Y019028D02*
X011696Y019028D01*
X011621Y019028D02*
X011621Y018577D01*
X011546Y018577D02*
X011696Y018577D01*
X011853Y018652D02*
X011928Y018577D01*
X012078Y018577D01*
X012153Y018652D01*
X012313Y018652D02*
X012388Y018577D01*
X012538Y018577D01*
X012613Y018652D01*
X012613Y018727D01*
X012538Y018802D01*
X012463Y018802D01*
X012538Y018802D02*
X012613Y018877D01*
X012613Y018952D01*
X012538Y019028D01*
X012388Y019028D01*
X012313Y018952D01*
X012153Y018952D02*
X012078Y019028D01*
X011928Y019028D01*
X011853Y018952D01*
X011853Y018652D01*
X014012Y014061D02*
X014012Y012093D01*
X021099Y012093D01*
X021099Y014061D01*
X014012Y014061D01*
X014012Y012036D02*
X021099Y012036D01*
X021099Y010068D01*
X014012Y010068D01*
X014012Y012036D01*
X013874Y011941D02*
X013874Y011640D01*
X013874Y011791D02*
X013424Y011791D01*
X013574Y011640D01*
X013499Y011480D02*
X013649Y011480D01*
X013724Y011405D01*
X013724Y011180D01*
X013724Y011330D02*
X013874Y011480D01*
X013874Y011180D02*
X013424Y011180D01*
X013424Y011405D01*
X013499Y011480D01*
X013574Y011020D02*
X013424Y010870D01*
X013574Y010720D01*
X013874Y010720D01*
X013724Y010560D02*
X013874Y010409D01*
X013724Y010259D01*
X013424Y010259D01*
X013424Y010560D02*
X013724Y010560D01*
X013649Y010720D02*
X013649Y011020D01*
X013574Y011020D02*
X013874Y011020D01*
X012804Y008809D02*
X014969Y008809D01*
X014969Y005462D01*
X012804Y005462D01*
X012804Y006025D01*
X023040Y006025D01*
X023040Y005462D01*
X020875Y005462D01*
X020875Y008809D01*
X018906Y008809D02*
X018906Y005462D01*
X016938Y005462D01*
X016938Y008809D01*
X018906Y008809D01*
X023040Y008809D01*
X023040Y006025D01*
X020875Y005462D02*
X018906Y005462D01*
X016938Y005462D02*
X014969Y005462D01*
X012804Y006025D02*
X012804Y008809D01*
X012591Y006898D02*
X012591Y006598D01*
X012591Y006748D02*
X012141Y006748D01*
X012291Y006598D01*
X012141Y006437D02*
X012591Y006137D01*
X012591Y006437D02*
X012141Y006137D01*
X009956Y008527D02*
X010031Y008602D01*
X010031Y008752D01*
X009956Y008827D01*
X010031Y008988D02*
X009730Y009288D01*
X009655Y009288D01*
X009580Y009213D01*
X009580Y009063D01*
X009655Y008988D01*
X009655Y008827D02*
X009580Y008752D01*
X009580Y008602D01*
X009655Y008527D01*
X009956Y008527D01*
X010031Y008988D02*
X010031Y009288D01*
X014969Y008809D02*
X016938Y008809D01*
X021249Y012359D02*
X021549Y012359D01*
X021699Y012509D01*
X021549Y012660D01*
X021249Y012660D01*
X021399Y012820D02*
X021249Y012970D01*
X021399Y013120D01*
X021699Y013120D01*
X021699Y013280D02*
X021249Y013280D01*
X021249Y013505D01*
X021324Y013580D01*
X021474Y013580D01*
X021549Y013505D01*
X021549Y013280D01*
X021549Y013430D02*
X021699Y013580D01*
X021699Y013740D02*
X021399Y014041D01*
X021324Y014041D01*
X021249Y013966D01*
X021249Y013815D01*
X021324Y013740D01*
X021699Y013740D02*
X021699Y014041D01*
X021474Y013120D02*
X021474Y012820D01*
X021399Y012820D02*
X021699Y012820D01*
X022543Y013062D02*
X022543Y009912D01*
X024905Y009912D01*
X024905Y013062D01*
X022543Y013062D01*
X026441Y012982D02*
X026441Y013207D01*
X026516Y013282D01*
X026816Y013282D01*
X026891Y013207D01*
X026891Y012982D01*
X026441Y012982D01*
X026441Y012822D02*
X026516Y012822D01*
X026816Y012521D01*
X026891Y012521D01*
X026891Y012822D01*
X026891Y013442D02*
X026591Y013742D01*
X026516Y013742D01*
X026441Y013667D01*
X026441Y013517D01*
X026516Y013442D01*
X026891Y013442D02*
X026891Y013742D01*
X026441Y012822D02*
X026441Y012521D01*
X027285Y010862D02*
X027785Y010862D01*
X027535Y010362D01*
X027285Y010862D01*
X027535Y010362D02*
X027785Y009862D01*
X027285Y009862D01*
X027535Y010362D01*
X028774Y012496D02*
X028774Y012797D01*
X028849Y012797D01*
X029149Y012496D01*
X029224Y012496D01*
X029224Y012797D01*
X029224Y012957D02*
X029224Y013182D01*
X029149Y013257D01*
X028849Y013257D01*
X028774Y013182D01*
X028774Y012957D01*
X029224Y012957D01*
X029224Y013417D02*
X029224Y013717D01*
X029224Y013567D02*
X028774Y013567D01*
X028924Y013417D01*
X029591Y010862D02*
X030091Y010862D01*
X029841Y010362D01*
X029591Y010862D01*
X029841Y010362D02*
X030091Y009862D01*
X029591Y009862D01*
X029841Y010362D01*
X030780Y015477D02*
X030780Y015702D01*
X030855Y015777D01*
X031005Y015777D01*
X031080Y015702D01*
X031080Y015477D01*
X031080Y015627D02*
X031231Y015777D01*
X031231Y015938D02*
X031231Y016238D01*
X031231Y016088D02*
X030780Y016088D01*
X030930Y015938D01*
X030780Y015477D02*
X031231Y015477D01*
X035355Y015452D02*
X035430Y015377D01*
X035731Y015377D01*
X035806Y015452D01*
X035806Y015602D01*
X035731Y015677D01*
X035806Y015838D02*
X035806Y016138D01*
X035806Y015988D02*
X035355Y015988D01*
X035505Y015838D01*
X035430Y015677D02*
X035355Y015602D01*
X035355Y015452D01*
X035355Y023127D02*
X035280Y023202D01*
X035280Y023352D01*
X035355Y023427D01*
X035656Y023427D01*
X035731Y023352D01*
X035731Y023202D01*
X035656Y023127D01*
X035355Y023127D01*
X035580Y023277D02*
X035731Y023427D01*
X035731Y023588D02*
X035430Y023888D01*
X035355Y023888D01*
X035280Y023813D01*
X035280Y023663D01*
X035355Y023588D01*
X035731Y023588D02*
X035731Y023888D01*
X030456Y026752D02*
X030381Y026677D01*
X030080Y026677D01*
X030005Y026752D01*
X030005Y026902D01*
X030080Y026977D01*
X030381Y026977D01*
X030456Y026902D01*
X030456Y026752D01*
X030305Y026827D02*
X030456Y026977D01*
X030456Y027138D02*
X030456Y027438D01*
X030456Y027288D02*
X030005Y027288D01*
X030155Y027138D01*
X030956Y031802D02*
X030956Y032253D01*
X031181Y032253D01*
X031256Y032177D01*
X031256Y032027D01*
X031181Y031952D01*
X030956Y031952D01*
X031106Y031952D02*
X031256Y031802D01*
X031416Y031877D02*
X031491Y031802D01*
X031641Y031802D01*
X031716Y031877D01*
X031716Y032027D01*
X031641Y032102D01*
X031566Y032102D01*
X031416Y032027D01*
X031416Y032253D01*
X031716Y032253D01*
X034656Y032253D02*
X034656Y031802D01*
X034656Y031952D02*
X034881Y031952D01*
X034956Y032027D01*
X034956Y032177D01*
X034881Y032253D01*
X034656Y032253D01*
X034806Y031952D02*
X034956Y031802D01*
X035116Y031877D02*
X035191Y031802D01*
X035341Y031802D01*
X035416Y031877D01*
X035416Y031952D01*
X035341Y032027D01*
X035266Y032027D01*
X035341Y032027D02*
X035416Y032102D01*
X035416Y032177D01*
X035341Y032253D01*
X035191Y032253D01*
X035116Y032177D01*
X035406Y037052D02*
X035556Y037052D01*
X035631Y037127D01*
X035631Y037427D01*
X035556Y037503D01*
X035406Y037503D01*
X035331Y037427D01*
X035331Y037127D01*
X035406Y037052D01*
X035791Y037052D02*
X035791Y037503D01*
X035866Y037277D02*
X036091Y037052D01*
X036251Y037052D02*
X036552Y037052D01*
X036401Y037052D02*
X036401Y037503D01*
X036251Y037352D01*
X036091Y037503D02*
X035791Y037202D01*
X033016Y039712D02*
X033016Y039937D01*
X032941Y040012D01*
X032866Y040012D01*
X032791Y039937D01*
X032791Y039712D01*
X033016Y039712D02*
X032566Y039712D01*
X032566Y039937D01*
X032641Y040012D01*
X032716Y040012D01*
X032791Y039937D01*
X032716Y040172D02*
X032566Y040322D01*
X033016Y040322D01*
X033016Y040172D02*
X033016Y040473D01*
X031873Y041421D02*
X031797Y041346D01*
X031647Y041346D01*
X031572Y041421D01*
X031572Y041571D02*
X031722Y041646D01*
X031797Y041646D01*
X031873Y041571D01*
X031873Y041421D01*
X031572Y041571D02*
X031572Y041796D01*
X031873Y041796D01*
X031412Y041721D02*
X031337Y041796D01*
X031187Y041796D01*
X031112Y041721D01*
X031112Y041421D01*
X031187Y041346D01*
X031337Y041346D01*
X031412Y041421D01*
X028133Y041352D02*
X028058Y041428D01*
X027908Y041428D01*
X027833Y041352D01*
X027673Y041352D02*
X027598Y041428D01*
X027448Y041428D01*
X027373Y041352D01*
X027373Y041052D01*
X027448Y040977D01*
X027598Y040977D01*
X027673Y041052D01*
X027833Y040977D02*
X028133Y041277D01*
X028133Y041352D01*
X028133Y040977D02*
X027833Y040977D01*
X027216Y040977D02*
X027066Y040977D01*
X027141Y040977D02*
X027141Y041428D01*
X027066Y041428D02*
X027216Y041428D01*
X026016Y040428D02*
X026016Y039977D01*
X025866Y039977D02*
X026166Y039977D01*
X025866Y040277D02*
X026016Y040428D01*
X025706Y040352D02*
X025706Y040052D01*
X025631Y039977D01*
X025406Y039977D01*
X025406Y040428D01*
X025631Y040428D01*
X025706Y040352D01*
X025110Y042677D02*
X025260Y042827D01*
X025260Y042977D01*
X025110Y043128D01*
X024950Y043128D02*
X024800Y043052D01*
X024650Y042902D01*
X024875Y042902D01*
X024950Y042827D01*
X024950Y042752D01*
X024875Y042677D01*
X024725Y042677D01*
X024650Y042752D01*
X024650Y042902D01*
X024490Y042677D02*
X024189Y042677D01*
X024340Y042677D02*
X024340Y043128D01*
X024189Y042977D01*
X024029Y043052D02*
X023729Y042752D01*
X023804Y042677D01*
X023954Y042677D01*
X024029Y042752D01*
X024029Y043052D01*
X023954Y043128D01*
X023804Y043128D01*
X023729Y043052D01*
X023729Y042752D01*
X023569Y042677D02*
X023269Y042677D01*
X023569Y042977D01*
X023569Y043052D01*
X023494Y043128D01*
X023344Y043128D01*
X023269Y043052D01*
X023109Y043128D02*
X022808Y042677D01*
X022573Y042677D02*
X022573Y043128D01*
X022348Y042902D01*
X022648Y042902D01*
X022650Y042453D02*
X022725Y042377D01*
X022725Y042302D01*
X022650Y042227D01*
X022425Y042227D01*
X022264Y042227D02*
X022264Y042077D01*
X022189Y042002D01*
X022039Y042002D01*
X021964Y042077D01*
X021964Y042227D02*
X022114Y042302D01*
X022189Y042302D01*
X022264Y042227D01*
X022264Y042453D02*
X021964Y042453D01*
X021964Y042227D01*
X021806Y042302D02*
X021731Y042302D01*
X021581Y042152D01*
X021581Y042002D02*
X021581Y042302D01*
X021731Y042677D02*
X021581Y042827D01*
X021581Y042977D01*
X021731Y043128D01*
X021888Y043052D02*
X021963Y043128D01*
X022113Y043128D01*
X022188Y043052D01*
X021888Y042752D01*
X021963Y042677D01*
X022113Y042677D01*
X022188Y042752D01*
X022188Y043052D01*
X021888Y043052D02*
X021888Y042752D01*
X021881Y043352D02*
X021581Y043352D01*
X021581Y043803D01*
X021881Y043803D01*
X022041Y043803D02*
X022041Y043352D01*
X022341Y043352D01*
X022501Y043352D02*
X022501Y043427D01*
X022802Y043727D01*
X022802Y043803D01*
X022501Y043803D01*
X022341Y043803D02*
X022041Y043803D01*
X022041Y043577D02*
X022191Y043577D01*
X022501Y043352D02*
X022802Y043352D01*
X023422Y043352D02*
X023422Y043652D01*
X023572Y043803D01*
X023722Y043652D01*
X023722Y043352D01*
X023883Y043427D02*
X023958Y043352D01*
X024108Y043352D01*
X024183Y043427D01*
X024183Y043803D01*
X024343Y043803D02*
X024643Y043352D01*
X024343Y043352D02*
X024643Y043803D01*
X025264Y043803D02*
X025264Y043352D01*
X025264Y043502D02*
X025489Y043502D01*
X025564Y043577D01*
X025564Y043727D01*
X025489Y043803D01*
X025264Y043803D01*
X025724Y043727D02*
X025724Y043652D01*
X025799Y043577D01*
X025949Y043577D01*
X026024Y043502D01*
X026024Y043427D01*
X025949Y043352D01*
X025799Y043352D01*
X025724Y043427D01*
X025724Y043727D02*
X025799Y043803D01*
X025949Y043803D01*
X026024Y043727D01*
X023883Y043803D02*
X023883Y043427D01*
X023722Y043577D02*
X023422Y043577D01*
X023185Y042453D02*
X023035Y042377D01*
X022885Y042227D01*
X023110Y042227D01*
X023185Y042152D01*
X023185Y042077D01*
X023110Y042002D01*
X022960Y042002D01*
X022885Y042077D01*
X022885Y042227D01*
X022725Y042152D02*
X022725Y042077D01*
X022650Y042002D01*
X022425Y042002D01*
X022425Y042453D01*
X022650Y042453D01*
X022650Y042227D02*
X022725Y042152D01*
X023345Y042077D02*
X023420Y042002D01*
X023646Y042002D01*
X023646Y042227D01*
X023571Y042302D01*
X023420Y042302D01*
X023420Y042152D02*
X023646Y042152D01*
X023420Y042152D02*
X023345Y042077D01*
X021731Y043577D02*
X021581Y043577D01*
X020962Y043499D02*
X020662Y043499D01*
X020662Y043724D01*
X020737Y043799D01*
X020962Y043799D01*
X021037Y043960D02*
X020737Y043960D01*
X020662Y044035D01*
X020662Y044185D01*
X020737Y044260D01*
X021037Y044260D01*
X021112Y044185D01*
X021112Y044035D01*
X021037Y043960D01*
X020962Y043339D02*
X020962Y043189D01*
X021037Y043264D02*
X020737Y043264D01*
X020662Y043189D01*
X020887Y043032D02*
X020887Y042732D01*
X020887Y042572D02*
X020737Y042572D01*
X020662Y042497D01*
X020662Y042271D01*
X020737Y042036D02*
X020662Y041961D01*
X020737Y042036D02*
X021037Y042036D01*
X020962Y042111D02*
X020962Y041961D01*
X020962Y041804D02*
X020662Y041804D01*
X020812Y041804D02*
X020962Y041654D01*
X020962Y041579D01*
X021112Y041421D02*
X021112Y041346D01*
X020662Y041346D01*
X020662Y041421D02*
X020662Y041271D01*
X020962Y042271D02*
X020962Y042497D01*
X020887Y042572D01*
X021037Y042882D02*
X020737Y042882D01*
X018818Y043996D02*
X018318Y043996D01*
X018568Y043746D01*
X018818Y043996D01*
X018806Y043985D02*
X018330Y043985D01*
X018378Y043936D02*
X018758Y043936D01*
X018709Y043888D02*
X018427Y043888D01*
X018475Y043839D02*
X018661Y043839D01*
X018612Y043791D02*
X018524Y043791D01*
X017579Y040983D02*
X017429Y040983D01*
X017354Y040908D01*
X017193Y040983D02*
X016893Y040533D01*
X017193Y040533D02*
X016893Y040983D01*
X017354Y040533D02*
X017654Y040833D01*
X017654Y040908D01*
X017579Y040983D01*
X017654Y040533D02*
X017354Y040533D01*
X017307Y037823D02*
X017232Y037748D01*
X017307Y037823D02*
X017458Y037823D01*
X017533Y037748D01*
X017533Y037673D01*
X017232Y037373D01*
X017533Y037373D01*
X017072Y037373D02*
X016772Y037373D01*
X016772Y037823D01*
X013891Y033173D02*
X013741Y033173D01*
X013666Y033097D01*
X013506Y033097D02*
X013506Y032797D01*
X013431Y032722D01*
X013281Y032722D01*
X013206Y032797D01*
X013206Y033097D01*
X013281Y033173D01*
X013431Y033173D01*
X013506Y033097D01*
X013356Y032872D02*
X013506Y032722D01*
X013666Y032797D02*
X013741Y032722D01*
X013891Y032722D01*
X013966Y032797D01*
X013966Y032872D01*
X013891Y032947D01*
X013816Y032947D01*
X013891Y032947D02*
X013966Y033022D01*
X013966Y033097D01*
X013891Y033173D01*
X011404Y034781D02*
X011404Y035232D01*
X011179Y035007D01*
X011479Y035007D01*
X011019Y034781D02*
X010718Y034781D01*
X010718Y035232D01*
X009387Y041367D02*
X009387Y041818D01*
X009161Y041592D01*
X009462Y041592D01*
X009001Y041367D02*
X008701Y041367D01*
X008851Y041367D02*
X008851Y041818D01*
X008701Y041667D01*
X008541Y041742D02*
X008466Y041818D01*
X008316Y041818D01*
X008241Y041742D01*
X008241Y041442D01*
X008316Y041367D01*
X008466Y041367D01*
X008541Y041442D01*
X014062Y043089D02*
X014287Y043089D01*
X014362Y043164D01*
X014362Y043389D01*
X014062Y043389D01*
X014062Y043549D02*
X014062Y043774D01*
X014137Y043849D01*
X014212Y043774D01*
X014212Y043549D01*
X014287Y043549D02*
X014062Y043549D01*
X014287Y043549D02*
X014362Y043624D01*
X014362Y043774D01*
X014512Y044010D02*
X014512Y044310D01*
X014062Y044310D01*
X014287Y044310D02*
X014287Y044160D01*
X024631Y032703D02*
X024631Y032252D01*
X024931Y032252D01*
X025091Y032252D02*
X025391Y032252D01*
X025241Y032252D02*
X025241Y032703D01*
X025091Y032552D01*
X030306Y037127D02*
X030381Y037052D01*
X030531Y037052D01*
X030606Y037127D01*
X030606Y037427D01*
X030531Y037503D01*
X030381Y037503D01*
X030306Y037427D01*
X030306Y037127D01*
X030766Y037052D02*
X030766Y037503D01*
X030841Y037277D02*
X031066Y037052D01*
X031226Y037052D02*
X031527Y037352D01*
X031527Y037427D01*
X031452Y037503D01*
X031301Y037503D01*
X031226Y037427D01*
X031066Y037503D02*
X030766Y037202D01*
X031226Y037052D02*
X031527Y037052D01*
D818*
X031566Y029146D02*
X031566Y028753D01*
X031566Y028949D02*
X030975Y028949D01*
X031172Y028753D01*
X030975Y028539D02*
X031369Y028145D01*
X031271Y028243D02*
X031566Y028539D01*
X031566Y028145D02*
X030975Y028145D01*
X030975Y027931D02*
X031369Y027537D01*
X031271Y027636D02*
X031566Y027931D01*
X031566Y027537D02*
X030975Y027537D01*
X024146Y023854D02*
X024146Y023644D01*
X024146Y023749D02*
X023725Y023749D01*
X023725Y023644D01*
X023725Y023422D02*
X023725Y023317D01*
X023935Y023107D01*
X023725Y023107D02*
X024146Y023107D01*
X023830Y022883D02*
X023935Y022777D01*
X023935Y022462D01*
X024146Y022462D02*
X023515Y022462D01*
X023515Y022777D01*
X023620Y022883D01*
X023830Y022883D01*
X023515Y023749D02*
X023410Y023749D01*
X019346Y023673D02*
X019346Y023988D01*
X019346Y023673D02*
X019240Y023568D01*
X019030Y023568D01*
X018925Y023673D01*
X018925Y023988D01*
X019030Y023343D02*
X018925Y023238D01*
X018925Y023028D01*
X019030Y022923D01*
X019240Y022923D01*
X019346Y023028D01*
X019346Y023238D01*
X019135Y023343D02*
X019135Y022923D01*
X019135Y022699D02*
X019240Y022699D01*
X019346Y022594D01*
X019346Y022384D01*
X019240Y022279D01*
X019030Y022384D02*
X019030Y022594D01*
X019135Y022699D01*
X018820Y022699D02*
X018715Y022594D01*
X018715Y022384D01*
X018820Y022279D01*
X018925Y022279D01*
X019030Y022384D01*
X019030Y023343D02*
X019135Y023343D01*
X014020Y018377D02*
X014020Y018167D01*
X013915Y018061D01*
X013704Y018061D02*
X013599Y018272D01*
X013599Y018377D01*
X013704Y018482D01*
X013915Y018482D01*
X014020Y018377D01*
X013704Y018061D02*
X013389Y018061D01*
X013389Y018482D01*
X013389Y017837D02*
X014020Y017417D01*
X014020Y017837D02*
X013389Y017417D01*
X035720Y014190D02*
X035720Y013993D01*
X035818Y013895D01*
X035818Y013681D02*
X036015Y013681D01*
X036114Y013582D01*
X036114Y013287D01*
X036311Y013287D02*
X035720Y013287D01*
X035720Y013582D01*
X035818Y013681D01*
X036114Y013484D02*
X036311Y013681D01*
X036311Y013895D02*
X035917Y014289D01*
X035818Y014289D01*
X035720Y014190D01*
X036311Y014289D02*
X036311Y013895D01*
D819*
X014194Y030199D02*
X013423Y030199D01*
X013423Y029942D02*
X013423Y030456D01*
X013423Y030734D02*
X013423Y031119D01*
X013552Y031248D01*
X013809Y031248D01*
X013937Y031119D01*
X013937Y030734D01*
X013937Y030991D02*
X014194Y031248D01*
X014194Y031526D02*
X014194Y032039D01*
X014194Y031782D02*
X013423Y031782D01*
X013680Y031526D01*
X013423Y030734D02*
X014194Y030734D01*
D820*
X030040Y039303D03*
D821*
X028415Y039028D02*
X028442Y038949D01*
X028472Y038872D01*
X028506Y038796D01*
X028543Y038722D01*
X028585Y038649D01*
X028629Y038579D01*
X028677Y038511D01*
X028729Y038446D01*
X028783Y038383D01*
X028841Y038323D01*
X028901Y038266D01*
X028964Y038212D01*
X029030Y038161D01*
X029098Y038113D01*
X029168Y038068D01*
X029241Y038028D01*
X029315Y037990D01*
X029391Y037957D01*
X029469Y037927D01*
X029548Y037901D01*
X029628Y037879D01*
X029709Y037860D01*
X029791Y037846D01*
X029874Y037836D01*
X029957Y037830D01*
X030040Y037828D01*
X030123Y037830D01*
X030206Y037836D01*
X030289Y037846D01*
X030371Y037860D01*
X030452Y037879D01*
X030532Y037901D01*
X030611Y037927D01*
X030689Y037957D01*
X030765Y037990D01*
X030839Y038028D01*
X030912Y038068D01*
X030982Y038113D01*
X031050Y038161D01*
X031116Y038212D01*
X031179Y038266D01*
X031239Y038323D01*
X031297Y038383D01*
X031351Y038446D01*
X031403Y038511D01*
X031451Y038579D01*
X031495Y038649D01*
X031537Y038722D01*
X031574Y038796D01*
X031608Y038872D01*
X031638Y038949D01*
X031665Y039028D01*
D822*
X031654Y037839D02*
X031654Y037065D01*
X033207Y037065D01*
X033207Y037839D01*
X031654Y037839D01*
X033554Y037839D02*
X033554Y037065D01*
X035107Y037065D01*
X035107Y037839D01*
X033554Y037839D01*
X033441Y031708D02*
X033441Y030146D01*
X036570Y030146D01*
X036570Y031708D01*
X033441Y031708D01*
X032895Y031708D02*
X032895Y030146D01*
X029766Y030146D01*
X029766Y031708D01*
X032895Y031708D01*
X027693Y032675D02*
X026919Y032675D01*
X026919Y034229D01*
X027693Y034229D01*
X027693Y032675D01*
X026918Y032675D02*
X026144Y032675D01*
X026144Y034229D01*
X026918Y034229D01*
X026918Y032675D01*
X026144Y034240D02*
X026144Y035014D01*
X027697Y035014D01*
X027697Y034240D01*
X026144Y034240D01*
X026144Y035025D02*
X026918Y035025D01*
X026918Y036579D01*
X026144Y036579D01*
X026144Y035025D01*
X026919Y035025D02*
X026919Y036579D01*
X027693Y036579D01*
X027693Y035025D01*
X026919Y035025D01*
X026918Y036950D02*
X026144Y036950D01*
X026144Y038504D01*
X026918Y038504D01*
X026918Y036950D01*
X026919Y036950D02*
X027693Y036950D01*
X027693Y038504D01*
X026919Y038504D01*
X026919Y036950D01*
X027582Y038515D02*
X026029Y038515D01*
X026029Y039289D01*
X027582Y039289D01*
X027582Y038515D01*
X025479Y040665D02*
X025479Y041439D01*
X023532Y041439D01*
X023532Y040665D01*
X025479Y040665D01*
X023893Y039779D02*
X023119Y039779D01*
X023119Y038225D01*
X023893Y038225D01*
X023893Y039779D01*
X023482Y040665D02*
X023482Y041439D01*
X021929Y041439D01*
X021929Y040665D01*
X023482Y040665D01*
X023668Y037354D02*
X022894Y037354D01*
X022894Y035800D01*
X023668Y035800D01*
X023668Y037354D01*
X024229Y035386D02*
X022282Y035386D01*
X022282Y034118D01*
X024229Y034118D01*
X024229Y035386D01*
X024107Y034064D02*
X024107Y033290D01*
X022554Y033290D01*
X022554Y034064D01*
X024107Y034064D01*
X024107Y033289D02*
X024107Y032515D01*
X022554Y032515D01*
X022554Y033289D01*
X024107Y033289D01*
X016679Y037993D02*
X016679Y039261D01*
X014732Y039261D01*
X014732Y037993D01*
X016679Y037993D01*
X016679Y039368D02*
X016679Y040636D01*
X014732Y040636D01*
X014732Y039368D01*
X016679Y039368D01*
X014343Y039704D02*
X014343Y038150D01*
X013569Y038150D01*
X013569Y039704D01*
X014343Y039704D01*
X014093Y040150D02*
X013319Y040150D01*
X013319Y041704D01*
X014093Y041704D01*
X014093Y040150D01*
X013318Y040150D02*
X012544Y040150D01*
X012544Y041704D01*
X013318Y041704D01*
X013318Y040150D01*
X013568Y038154D02*
X012794Y038154D01*
X012794Y036600D01*
X013568Y036600D01*
X013568Y038154D01*
X013569Y038154D02*
X014343Y038154D01*
X014343Y036600D01*
X013569Y036600D01*
X013569Y038154D01*
X012793Y038154D02*
X012019Y038154D01*
X012019Y036600D01*
X012793Y036600D01*
X012793Y038154D01*
X011891Y036044D02*
X015421Y036044D01*
X015421Y033310D01*
X011891Y033310D01*
X011891Y036044D01*
X010418Y035004D02*
X010418Y033450D01*
X009644Y033450D01*
X009644Y035004D01*
X010418Y035004D01*
X010004Y026664D02*
X010004Y025890D01*
X011557Y025890D01*
X011557Y026664D01*
X010004Y026664D01*
X031325Y017391D02*
X031325Y014263D01*
X032886Y014263D01*
X032886Y017391D01*
X031325Y017391D01*
D823*
X024069Y040177D03*
D824*
X016641Y034721D02*
X016641Y034474D01*
X016641Y034597D02*
X016270Y034597D01*
X016394Y034474D01*
X011542Y042042D02*
X011296Y042042D01*
X011419Y042042D02*
X011419Y042412D01*
X011296Y042289D01*
D825*
X027535Y012537D03*
X029841Y012537D03*
X029841Y008187D03*
X027535Y008187D03*
D826*
X031556Y023552D03*
X033156Y023552D03*
D827*
X033456Y026452D03*
X031256Y026452D03*
X031256Y020652D03*
X033456Y020652D03*
D828*
X033456Y022477D03*
X033456Y024627D03*
X031256Y024627D03*
X031256Y022477D03*
D829*
X032384Y035565D03*
X036284Y035565D03*
D830*
X024807Y011487D03*
X022641Y011487D03*
D831*
X022443Y011487D03*
X025018Y011487D03*
D832*
X012106Y039713D03*
D833*
X014631Y041093D02*
X014631Y044400D01*
X015230Y044400D01*
X015230Y044282D01*
X015812Y044282D01*
X015812Y044400D01*
X016827Y044400D01*
X018309Y044400D01*
X020505Y044400D01*
X020505Y041093D01*
X014631Y041093D01*
X015074Y041457D02*
X015074Y044036D01*
X016827Y044036D01*
X016827Y043790D02*
X018309Y043790D01*
X018309Y044400D01*
X018309Y044036D02*
X020062Y044036D01*
X020062Y041457D01*
X015074Y041457D01*
X016827Y043790D02*
X016827Y044400D01*
X014356Y035967D02*
X012956Y035967D01*
X012956Y033387D01*
X014356Y033387D01*
X014356Y035967D01*
X009260Y035203D02*
X009260Y031161D01*
X008351Y031161D01*
X008351Y035203D01*
X009260Y035203D01*
X009260Y031161D02*
X009260Y030101D01*
X008351Y030101D01*
X008351Y031161D01*
X008351Y029178D02*
X009260Y029178D01*
X009260Y028128D01*
X008351Y028128D01*
X008351Y029178D01*
X008351Y028128D02*
X008351Y021076D01*
X009260Y021076D01*
X009260Y028128D01*
X026224Y028924D02*
X026678Y028924D01*
X026905Y029151D01*
X026678Y029378D01*
X026224Y029378D01*
X026224Y029624D02*
X026224Y029964D01*
X026337Y030077D01*
X026564Y030077D01*
X026678Y029964D01*
X026678Y029624D01*
X026905Y029624D02*
X026224Y029624D01*
X026224Y030323D02*
X026224Y030664D01*
X026337Y030777D01*
X026564Y030777D01*
X026678Y030664D01*
X026678Y030323D01*
X026905Y030323D02*
X026224Y030323D01*
X028349Y030323D02*
X028349Y030777D01*
X028462Y030777D01*
X028916Y030323D01*
X029030Y030323D01*
X029030Y030777D01*
X029030Y030077D02*
X029030Y029624D01*
X028349Y029624D01*
X028349Y030077D01*
X028689Y029851D02*
X028689Y029624D01*
X028349Y029378D02*
X028349Y028924D01*
X028349Y029151D02*
X029030Y029151D01*
D834*
X011677Y020082D02*
X011679Y020132D01*
X011685Y020182D01*
X011695Y020231D01*
X011709Y020279D01*
X011726Y020326D01*
X011747Y020371D01*
X011772Y020415D01*
X011800Y020456D01*
X011832Y020495D01*
X011866Y020532D01*
X011903Y020566D01*
X011943Y020596D01*
X011985Y020623D01*
X012029Y020647D01*
X012075Y020668D01*
X012122Y020684D01*
X012170Y020697D01*
X012220Y020706D01*
X012269Y020711D01*
X012320Y020712D01*
X012370Y020709D01*
X012419Y020702D01*
X012468Y020691D01*
X012516Y020676D01*
X012562Y020658D01*
X012607Y020636D01*
X012650Y020610D01*
X012691Y020581D01*
X012730Y020549D01*
X012766Y020514D01*
X012798Y020476D01*
X012828Y020436D01*
X012855Y020393D01*
X012878Y020349D01*
X012897Y020303D01*
X012913Y020255D01*
X012925Y020206D01*
X012933Y020157D01*
X012937Y020107D01*
X012937Y020057D01*
X012933Y020007D01*
X012925Y019958D01*
X012913Y019909D01*
X012897Y019861D01*
X012878Y019815D01*
X012855Y019771D01*
X012828Y019728D01*
X012798Y019688D01*
X012766Y019650D01*
X012730Y019615D01*
X012691Y019583D01*
X012650Y019554D01*
X012607Y019528D01*
X012562Y019506D01*
X012516Y019488D01*
X012468Y019473D01*
X012419Y019462D01*
X012370Y019455D01*
X012320Y019452D01*
X012269Y019453D01*
X012220Y019458D01*
X012170Y019467D01*
X012122Y019480D01*
X012075Y019496D01*
X012029Y019517D01*
X011985Y019541D01*
X011943Y019568D01*
X011903Y019598D01*
X011866Y019632D01*
X011832Y019669D01*
X011800Y019708D01*
X011772Y019749D01*
X011747Y019793D01*
X011726Y019838D01*
X011709Y019885D01*
X011695Y019933D01*
X011685Y019982D01*
X011679Y020032D01*
X011677Y020082D01*
X011677Y015582D02*
X011679Y015632D01*
X011685Y015682D01*
X011695Y015731D01*
X011709Y015779D01*
X011726Y015826D01*
X011747Y015871D01*
X011772Y015915D01*
X011800Y015956D01*
X011832Y015995D01*
X011866Y016032D01*
X011903Y016066D01*
X011943Y016096D01*
X011985Y016123D01*
X012029Y016147D01*
X012075Y016168D01*
X012122Y016184D01*
X012170Y016197D01*
X012220Y016206D01*
X012269Y016211D01*
X012320Y016212D01*
X012370Y016209D01*
X012419Y016202D01*
X012468Y016191D01*
X012516Y016176D01*
X012562Y016158D01*
X012607Y016136D01*
X012650Y016110D01*
X012691Y016081D01*
X012730Y016049D01*
X012766Y016014D01*
X012798Y015976D01*
X012828Y015936D01*
X012855Y015893D01*
X012878Y015849D01*
X012897Y015803D01*
X012913Y015755D01*
X012925Y015706D01*
X012933Y015657D01*
X012937Y015607D01*
X012937Y015557D01*
X012933Y015507D01*
X012925Y015458D01*
X012913Y015409D01*
X012897Y015361D01*
X012878Y015315D01*
X012855Y015271D01*
X012828Y015228D01*
X012798Y015188D01*
X012766Y015150D01*
X012730Y015115D01*
X012691Y015083D01*
X012650Y015054D01*
X012607Y015028D01*
X012562Y015006D01*
X012516Y014988D01*
X012468Y014973D01*
X012419Y014962D01*
X012370Y014955D01*
X012320Y014952D01*
X012269Y014953D01*
X012220Y014958D01*
X012170Y014967D01*
X012122Y014980D01*
X012075Y014996D01*
X012029Y015017D01*
X011985Y015041D01*
X011943Y015068D01*
X011903Y015098D01*
X011866Y015132D01*
X011832Y015169D01*
X011800Y015208D01*
X011772Y015249D01*
X011747Y015293D01*
X011726Y015338D01*
X011709Y015385D01*
X011695Y015433D01*
X011685Y015482D01*
X011679Y015532D01*
X011677Y015582D01*
D835*
X013482Y021178D03*
D836*
X014506Y015027D02*
X014932Y015027D01*
X015325Y015027D02*
X015752Y015027D01*
X016145Y015027D02*
X016572Y015027D01*
X016965Y015027D02*
X017392Y015027D01*
X017785Y015027D02*
X018211Y015027D01*
X018605Y015027D02*
X019031Y015027D01*
X019425Y015027D02*
X019851Y015027D01*
X020245Y015027D02*
X020671Y015027D01*
X021065Y015027D02*
X021491Y015027D01*
X021885Y015027D02*
X022311Y015027D01*
X022705Y015027D02*
X023131Y015027D01*
X023525Y015027D02*
X023951Y015027D01*
X024345Y015027D02*
X024771Y015027D01*
X025165Y015027D02*
X025591Y015027D01*
X025984Y015027D02*
X026411Y015027D01*
X026804Y015027D02*
X027231Y015027D01*
X027231Y015573D01*
X027231Y015967D02*
X027231Y016513D01*
X027231Y016906D02*
X027231Y017452D01*
X027231Y018902D02*
X027231Y019310D01*
X027231Y019704D02*
X027231Y020112D01*
X027231Y020506D02*
X027231Y020914D01*
X027231Y021307D02*
X027231Y021715D01*
X027231Y022109D02*
X027231Y022517D01*
X027231Y022911D02*
X027231Y023319D01*
X027231Y023712D02*
X027231Y024120D01*
X027231Y024514D02*
X027231Y024922D01*
X027231Y025316D02*
X027231Y025724D01*
X027231Y026117D02*
X027231Y026525D01*
X027231Y026919D02*
X027231Y027327D01*
X027231Y028902D02*
X027231Y029448D01*
X027231Y029842D02*
X027231Y030388D01*
X027231Y030781D02*
X027231Y031327D01*
X026804Y031327D01*
X026411Y031327D02*
X025984Y031327D01*
X025591Y031327D02*
X025165Y031327D01*
X024771Y031327D02*
X024345Y031327D01*
X023951Y031327D02*
X023525Y031327D01*
X023131Y031327D02*
X022705Y031327D01*
X022311Y031327D02*
X021885Y031327D01*
X021491Y031327D02*
X021065Y031327D01*
X020671Y031327D02*
X020245Y031327D01*
X019851Y031327D02*
X019425Y031327D01*
X019031Y031327D02*
X018605Y031327D01*
X018211Y031327D02*
X017785Y031327D01*
X017392Y031327D02*
X016965Y031327D01*
X016572Y031327D02*
X016145Y031327D01*
X015752Y031327D02*
X015325Y031327D01*
X014932Y031327D02*
X014506Y031327D01*
X014450Y032035D02*
X014450Y014319D01*
X029411Y014319D01*
X029411Y032035D01*
X014450Y032035D01*
D837*
X020556Y023177D03*
X022556Y023177D03*
M02*
