G75*
G70*
%OFA0B0*%
%FSLAX24Y24*%
%IPPOS*%
%LPD*%
%AMOC8*
5,1,8,0,0,1.08239X$1,22.5*
%
%ADD10C,0.0860*%
%ADD11R,0.0472X0.0866*%
%ADD12R,0.0567X0.0685*%
%ADD13R,0.0685X0.0567*%
%ADD14R,0.0264X0.0644*%
%ADD15R,0.0835X0.0756*%
%ADD16R,0.0658X0.0168*%
%ADD17R,0.0693X0.0614*%
%ADD18R,0.0614X0.0693*%
%ADD19R,0.0564X0.0264*%
%ADD20R,0.0264X0.0564*%
%ADD21R,0.0803X0.0843*%
%ADD22C,0.0712*%
%ADD23R,0.1008X0.0850*%
%ADD24C,0.4885*%
%ADD25C,0.0618*%
%ADD26R,0.0618X0.0618*%
%ADD27C,0.1460*%
%ADD28C,0.0672*%
%ADD29R,0.2483X0.2641*%
%ADD30R,0.0756X0.1307*%
%ADD31R,0.1190X0.0360*%
%ADD32R,0.0472X0.0512*%
%ADD33C,0.0712*%
%ADD34R,0.0288X0.0658*%
%ADD35R,0.0283X0.0657*%
%ADD36C,0.0476*%
%ADD37R,0.0824X0.0264*%
%ADD38R,0.0512X0.0472*%
%ADD39R,0.0168X0.0608*%
%ADD40R,0.0204X0.0684*%
%ADD41R,0.1929X0.0945*%
%ADD42OC8,0.0780*%
%ADD43R,0.0644X0.0264*%
%ADD44C,0.0840*%
%ADD45OC8,0.0840*%
%ADD46R,0.0488X0.0168*%
%ADD47R,0.0712X0.0712*%
%ADD48C,0.1480*%
%ADD49C,0.1263*%
%ADD50R,0.0756X0.0835*%
%ADD51OC8,0.0756*%
%ADD52C,0.0756*%
%ADD53R,0.0661X0.1528*%
%ADD54R,0.0898X0.1488*%
%ADD55R,0.1488X0.0898*%
%ADD56R,0.0684X0.0204*%
%ADD57R,0.0360X0.1190*%
%ADD58R,0.1528X0.0661*%
%ADD59C,0.1032*%
%ADD60OC8,0.1032*%
%ADD61OC8,0.0665*%
%ADD62OC8,0.0720*%
%ADD63C,0.0665*%
%ADD64C,0.1200*%
%ADD65R,0.0630X0.0472*%
%ADD66R,0.0756X0.0836*%
%ADD67R,0.0544X0.0264*%
%ADD68R,0.0661X0.0819*%
%ADD69R,0.0843X0.0803*%
%ADD70C,0.1381*%
%ADD71C,0.0921*%
%ADD72OC8,0.0523*%
%ADD73C,0.2562*%
D10*
X070359Y006611D02*
X077634Y006611D01*
D11*
X035834Y017944D03*
X034834Y017944D03*
X033834Y017944D03*
X032834Y017944D03*
X032834Y020778D03*
X033834Y020778D03*
X034834Y020778D03*
X035834Y020778D03*
X027334Y038719D03*
X026334Y038719D03*
X025334Y038719D03*
X024334Y038719D03*
X024334Y041553D03*
X025334Y041553D03*
X026334Y041553D03*
X027334Y041553D03*
D12*
X023346Y040730D03*
X023346Y039589D03*
X042109Y027307D03*
X042109Y026165D03*
X036684Y020132D03*
X036684Y018990D03*
D13*
X023030Y019236D03*
X021888Y019236D03*
X020455Y019211D03*
X019313Y019211D03*
X078013Y025611D03*
X079155Y025611D03*
D14*
X028809Y020711D03*
X028009Y020711D03*
X028409Y019861D03*
D15*
X043035Y019736D03*
X043035Y018634D03*
X029310Y011838D03*
X029310Y010736D03*
X021809Y010735D03*
X021809Y011837D03*
X075909Y032260D03*
X075909Y033362D03*
X068809Y041460D03*
X068809Y042562D03*
X071984Y044835D03*
X071984Y045937D03*
X029331Y040787D03*
X029331Y039684D03*
X021809Y039685D03*
X021809Y040787D03*
D16*
X042908Y023340D03*
X042908Y023080D03*
X042908Y022840D03*
X042908Y022580D03*
X042908Y022340D03*
X042908Y022080D03*
X042908Y021840D03*
X042908Y021580D03*
X042908Y021340D03*
X042908Y021080D03*
X042908Y020840D03*
X042908Y020580D03*
X045008Y020580D03*
X045008Y020840D03*
X045008Y021080D03*
X045008Y021340D03*
X045008Y021580D03*
X045008Y021840D03*
X045008Y022080D03*
X045008Y022340D03*
X045008Y022580D03*
X045008Y022840D03*
X045008Y023080D03*
X045008Y023340D03*
D17*
X038984Y023710D03*
X038984Y022962D03*
X039234Y019910D03*
X039234Y019162D03*
X045110Y019039D03*
X045110Y019787D03*
X046259Y015585D03*
X046259Y014837D03*
X046284Y013235D03*
X046284Y012487D03*
X050559Y011010D03*
X050559Y010262D03*
X052859Y010287D03*
X052859Y011035D03*
X040009Y009585D03*
X040009Y008837D03*
X035734Y009612D03*
X035734Y010360D03*
X031709Y020112D03*
X031709Y020860D03*
X044909Y031462D03*
X044909Y032210D03*
X045759Y038637D03*
X045759Y039385D03*
X045759Y040612D03*
X045759Y041360D03*
X048359Y040987D03*
X048359Y041735D03*
X048359Y039560D03*
X048359Y038812D03*
X039759Y040712D03*
X039759Y041460D03*
X035584Y041437D03*
X035584Y042185D03*
X027234Y042812D03*
X027234Y043560D03*
X030634Y032860D03*
X030634Y032112D03*
X071084Y032987D03*
X071084Y033735D03*
X071084Y034537D03*
X071084Y035285D03*
X074384Y035210D03*
X074384Y034462D03*
X073009Y039637D03*
X073009Y040385D03*
X073009Y041262D03*
X073009Y042010D03*
X073009Y043437D03*
X073009Y044185D03*
X073009Y045012D03*
X073009Y045760D03*
X080084Y025610D03*
X080084Y024862D03*
X075409Y021035D03*
X075409Y020287D03*
X075409Y019285D03*
X075409Y018537D03*
D18*
X078360Y024736D03*
X079108Y024736D03*
X075608Y026111D03*
X074860Y026111D03*
X074058Y026111D03*
X073310Y026111D03*
X076435Y037986D03*
X077183Y037986D03*
X078335Y037986D03*
X079083Y037986D03*
X043558Y036511D03*
X042810Y036511D03*
X042958Y033911D03*
X042210Y033911D03*
X027833Y029311D03*
X027085Y029311D03*
X026783Y021586D03*
X026035Y021586D03*
X028060Y021571D03*
X028808Y021571D03*
X047385Y015786D03*
X048133Y015786D03*
X048133Y013461D03*
X047385Y013461D03*
X050010Y007186D03*
X050758Y007186D03*
X063785Y007161D03*
X064533Y007161D03*
X067590Y012861D03*
X068259Y012861D03*
X068928Y012861D03*
D19*
X049764Y011006D03*
X048904Y010636D03*
X049764Y010266D03*
X038389Y019166D03*
X038389Y019906D03*
X037529Y019536D03*
X038014Y022966D03*
X037154Y023336D03*
X038014Y023706D03*
X026039Y042866D03*
X026039Y043606D03*
X025179Y043236D03*
D20*
X026014Y020741D03*
X026754Y020741D03*
X026384Y019881D03*
D21*
X017134Y019679D03*
X017134Y021293D03*
X017134Y023929D03*
X017134Y025543D03*
X017134Y029529D03*
X017134Y031143D03*
X017134Y033329D03*
X017134Y034943D03*
D22*
X033337Y040536D02*
X033931Y040536D01*
X033931Y041536D02*
X033337Y041536D01*
X033337Y042536D02*
X033931Y042536D01*
X079311Y015386D02*
X079905Y015386D01*
X079905Y014386D02*
X079311Y014386D01*
X079311Y013386D02*
X079905Y013386D01*
X079905Y012386D02*
X079311Y012386D01*
X079312Y010511D02*
X079906Y010511D01*
X079906Y009511D02*
X079312Y009511D01*
X051184Y012989D02*
X051184Y013583D01*
X050184Y013583D02*
X050184Y012989D01*
X033931Y010211D02*
X033337Y010211D01*
X033337Y009211D02*
X033931Y009211D01*
X033931Y008211D02*
X033337Y008211D01*
D23*
X077185Y013332D03*
X077185Y015340D03*
D24*
X015520Y011248D03*
X021819Y015185D03*
X029319Y015185D03*
X029319Y036051D03*
X021819Y036051D03*
D25*
X049784Y009086D03*
X050784Y009086D03*
X051784Y009086D03*
X052784Y009086D03*
X053784Y009086D03*
X054784Y009086D03*
X055784Y009086D03*
X056784Y009086D03*
X057784Y009086D03*
X058784Y009086D03*
X059784Y009086D03*
X060784Y009086D03*
X061784Y009086D03*
X062784Y009086D03*
X063784Y009086D03*
X064784Y009086D03*
X065784Y009086D03*
X066784Y009086D03*
X067784Y009086D03*
X068784Y009086D03*
X067784Y008086D03*
X066784Y008086D03*
X065784Y008086D03*
X064784Y008086D03*
X063784Y008086D03*
X062784Y008086D03*
X061784Y008086D03*
X060784Y008086D03*
X059784Y008086D03*
X058784Y008086D03*
X057784Y008086D03*
X056784Y008086D03*
X055784Y008086D03*
X054784Y008086D03*
X053784Y008086D03*
X052784Y008086D03*
X051784Y008086D03*
X050784Y008086D03*
X049784Y008086D03*
D26*
X068784Y008086D03*
D27*
X070847Y009661D03*
X047619Y009661D03*
X047619Y043125D03*
X070847Y043125D03*
D28*
X078954Y023336D02*
X079514Y023336D01*
X079514Y022336D02*
X078954Y022336D01*
X069134Y015416D02*
X069134Y014856D01*
X068134Y014856D02*
X068134Y015416D01*
X067134Y015416D02*
X067134Y014856D01*
X052634Y015306D02*
X052634Y015866D01*
X051634Y015866D02*
X051634Y015306D01*
D29*
X074159Y009099D03*
D30*
X073261Y011926D03*
X075057Y011926D03*
D31*
X071739Y012011D03*
X070179Y012011D03*
D32*
X058334Y019301D03*
X058334Y019970D03*
X058259Y022151D03*
X058259Y022820D03*
X056259Y031406D03*
X056259Y032075D03*
X056284Y033771D03*
X056284Y034440D03*
X057734Y034495D03*
X057734Y033826D03*
X061834Y033826D03*
X061834Y034495D03*
X059384Y039551D03*
X059384Y040220D03*
X057084Y040220D03*
X057084Y039551D03*
X057059Y041551D03*
X057059Y042220D03*
X059384Y042220D03*
X059384Y041551D03*
X067059Y041551D03*
X067059Y042220D03*
X070149Y041761D03*
X070819Y041761D03*
X067059Y040220D03*
X067059Y039551D03*
X049284Y039551D03*
X049284Y040220D03*
X049384Y041551D03*
X049384Y042220D03*
X044919Y037461D03*
X044249Y037461D03*
X045734Y034245D03*
X045734Y033576D03*
X075684Y029545D03*
X075684Y028876D03*
X080059Y027345D03*
X080059Y026676D03*
X051959Y010995D03*
X051959Y010326D03*
D33*
X080059Y039696D03*
X079390Y040696D03*
X075559Y041436D03*
X074559Y041936D03*
X074559Y040936D03*
X075559Y042436D03*
X074559Y042936D03*
X075559Y043436D03*
X074559Y043936D03*
X079390Y044676D03*
X080059Y043676D03*
X065384Y044436D03*
X065384Y045436D03*
X064384Y045436D03*
X063384Y045436D03*
X062384Y045436D03*
X061384Y045436D03*
X061384Y044436D03*
X062384Y044436D03*
X063384Y044436D03*
X064384Y044436D03*
X055384Y044436D03*
X055384Y045436D03*
X054384Y045436D03*
X053384Y045436D03*
X052384Y045436D03*
X051384Y045436D03*
X051384Y044436D03*
X052384Y044436D03*
X053384Y044436D03*
X054384Y044436D03*
D34*
X053509Y041671D03*
X053009Y041671D03*
X052509Y041671D03*
X052009Y041671D03*
X051509Y041671D03*
X051009Y041671D03*
X050509Y041671D03*
X050009Y041671D03*
X050009Y039551D03*
X050509Y039551D03*
X051009Y039551D03*
X051509Y039551D03*
X052009Y039551D03*
X052509Y039551D03*
X053009Y039551D03*
X053509Y039551D03*
X060109Y039551D03*
X060609Y039551D03*
X061109Y039551D03*
X061609Y039551D03*
X062109Y039551D03*
X062609Y039551D03*
X063109Y039551D03*
X063609Y039551D03*
X063609Y041671D03*
X063109Y041671D03*
X062609Y041671D03*
X062109Y041671D03*
X061609Y041671D03*
X061109Y041671D03*
X060609Y041671D03*
X060109Y041671D03*
D35*
X056357Y041674D03*
X055857Y041674D03*
X055357Y041674D03*
X054857Y041674D03*
X054857Y039548D03*
X055357Y039548D03*
X055857Y039548D03*
X056357Y039548D03*
X064857Y039548D03*
X065357Y039548D03*
X065857Y039548D03*
X066357Y039548D03*
X066357Y041674D03*
X065857Y041674D03*
X065357Y041674D03*
X064857Y041674D03*
D36*
X079259Y029686D03*
X079810Y029686D03*
D37*
X065304Y023736D03*
X065304Y023236D03*
X065304Y022736D03*
X065304Y022236D03*
X063364Y022236D03*
X063364Y022736D03*
X063364Y023236D03*
X063364Y023736D03*
X038754Y009961D03*
X038754Y009461D03*
X038754Y008961D03*
X038754Y008461D03*
X036814Y008461D03*
X036814Y008961D03*
X036814Y009461D03*
X036814Y009961D03*
X036664Y040311D03*
X036664Y040811D03*
X036664Y041311D03*
X036664Y041811D03*
X038604Y041811D03*
X038604Y041311D03*
X038604Y040811D03*
X038604Y040311D03*
D38*
X037894Y042586D03*
X037224Y042586D03*
X061224Y032136D03*
X061894Y032136D03*
X062524Y029036D03*
X063194Y029036D03*
X064899Y029011D03*
X065569Y029011D03*
X065819Y024386D03*
X065149Y024386D03*
X056094Y027336D03*
X055424Y027336D03*
X052969Y027286D03*
X052299Y027286D03*
X051844Y019236D03*
X051174Y019236D03*
X054274Y019236D03*
X054944Y019236D03*
X038094Y010761D03*
X037424Y010761D03*
D39*
X077789Y026676D03*
X078049Y026676D03*
X078299Y026676D03*
X078559Y026676D03*
X078819Y026676D03*
X079069Y026676D03*
X079329Y026676D03*
X079329Y028896D03*
X079069Y028896D03*
X078819Y028896D03*
X078559Y028896D03*
X078299Y028896D03*
X078049Y028896D03*
X077789Y028896D03*
X059954Y032151D03*
X059694Y032151D03*
X059444Y032151D03*
X059184Y032151D03*
X058924Y032151D03*
X058674Y032151D03*
X058414Y032151D03*
X058414Y034371D03*
X058674Y034371D03*
X058924Y034371D03*
X059184Y034371D03*
X059444Y034371D03*
X059694Y034371D03*
X059954Y034371D03*
D40*
X062599Y034441D03*
X062859Y034441D03*
X063109Y034441D03*
X063369Y034441D03*
X063629Y034441D03*
X063879Y034441D03*
X064139Y034441D03*
X064389Y034441D03*
X064649Y034441D03*
X064909Y034441D03*
X065159Y034441D03*
X065419Y034441D03*
X065419Y031581D03*
X065159Y031581D03*
X064909Y031581D03*
X064649Y031581D03*
X064389Y031581D03*
X064139Y031581D03*
X063879Y031581D03*
X063629Y031581D03*
X063369Y031581D03*
X063109Y031581D03*
X062859Y031581D03*
X062599Y031581D03*
X055494Y031806D03*
X055234Y031806D03*
X054984Y031806D03*
X054724Y031806D03*
X054464Y031806D03*
X054214Y031806D03*
X053954Y031806D03*
X053704Y031806D03*
X053444Y031806D03*
X053184Y031806D03*
X052934Y031806D03*
X052674Y031806D03*
X052674Y034666D03*
X052934Y034666D03*
X053184Y034666D03*
X053444Y034666D03*
X053704Y034666D03*
X053954Y034666D03*
X054214Y034666D03*
X054464Y034666D03*
X054724Y034666D03*
X054984Y034666D03*
X055234Y034666D03*
X055494Y034666D03*
X071574Y032216D03*
X071824Y032216D03*
X072084Y032216D03*
X072334Y032216D03*
X072594Y032216D03*
X072854Y032216D03*
X073104Y032216D03*
X073364Y032216D03*
X073614Y032216D03*
X073874Y032216D03*
X074134Y032216D03*
X074384Y032216D03*
X074644Y032216D03*
X074894Y032216D03*
X074894Y029356D03*
X074644Y029356D03*
X074384Y029356D03*
X074134Y029356D03*
X073874Y029356D03*
X073614Y029356D03*
X073364Y029356D03*
X073104Y029356D03*
X072854Y029356D03*
X072594Y029356D03*
X072334Y029356D03*
X072084Y029356D03*
X071824Y029356D03*
X071574Y029356D03*
X061894Y022491D03*
X061634Y022491D03*
X061384Y022491D03*
X061124Y022491D03*
X060864Y022491D03*
X060614Y022491D03*
X060354Y022491D03*
X060104Y022491D03*
X059844Y022491D03*
X059584Y022491D03*
X059334Y022491D03*
X059074Y022491D03*
X059074Y019631D03*
X059334Y019631D03*
X059584Y019631D03*
X059844Y019631D03*
X060104Y019631D03*
X060354Y019631D03*
X060614Y019631D03*
X060864Y019631D03*
X061124Y019631D03*
X061384Y019631D03*
X061634Y019631D03*
X061894Y019631D03*
D41*
X071986Y027586D03*
X075332Y027586D03*
D42*
X077409Y024536D03*
D43*
X076334Y021036D03*
X076334Y020236D03*
X077184Y020636D03*
X076334Y019311D03*
X076334Y018511D03*
X077184Y018911D03*
X048134Y015136D03*
X047284Y014736D03*
X048134Y014336D03*
X048134Y012711D03*
X047284Y012311D03*
X048134Y011911D03*
X075259Y034461D03*
X076109Y034861D03*
X075259Y035261D03*
X047509Y038886D03*
X047509Y039686D03*
X046659Y039286D03*
X047534Y040811D03*
X046684Y041211D03*
X047534Y041611D03*
D44*
X071159Y039386D03*
X071409Y039386D03*
D45*
X069659Y039386D03*
X069409Y039386D03*
D46*
X039554Y042901D03*
X039554Y043161D03*
X039554Y043421D03*
X038814Y043421D03*
X038814Y043161D03*
X038814Y042901D03*
X039364Y011071D03*
X039364Y010811D03*
X039364Y010551D03*
X040104Y010551D03*
X040104Y010811D03*
X040104Y011071D03*
D47*
X075559Y040436D03*
D48*
X078059Y039936D03*
X078059Y044436D03*
D49*
X076858Y045237D03*
X076858Y039135D03*
D50*
X075435Y038061D03*
X074333Y038061D03*
D51*
X026384Y032486D03*
X025359Y028436D03*
D52*
X025359Y027436D03*
X025384Y032486D03*
D53*
X025359Y028920D03*
X025359Y026912D03*
D54*
X028191Y032486D03*
X029727Y032486D03*
D55*
X027459Y028404D03*
X027459Y026868D03*
D56*
X051579Y022696D03*
X051579Y022436D03*
X051579Y022186D03*
X051579Y021926D03*
X051579Y021666D03*
X051579Y021416D03*
X051579Y021156D03*
X051579Y020906D03*
X051579Y020646D03*
X051579Y020386D03*
X051579Y020136D03*
X051579Y019876D03*
X054439Y019876D03*
X054439Y020136D03*
X054439Y020386D03*
X054439Y020646D03*
X054439Y020906D03*
X054439Y021156D03*
X054439Y021416D03*
X054439Y021666D03*
X054439Y021926D03*
X054439Y022186D03*
X054439Y022436D03*
X054439Y022696D03*
X062929Y025526D03*
X062929Y025786D03*
X062929Y026036D03*
X062929Y026296D03*
X062929Y026556D03*
X062929Y026806D03*
X062929Y027066D03*
X062929Y027316D03*
X062929Y027576D03*
X062929Y027836D03*
X062929Y028086D03*
X062929Y028346D03*
X065789Y028346D03*
X065789Y028086D03*
X065789Y027836D03*
X065789Y027576D03*
X065789Y027316D03*
X065789Y027066D03*
X065789Y026806D03*
X065789Y026556D03*
X065789Y026296D03*
X065789Y026036D03*
X065789Y025786D03*
X065789Y025526D03*
X055414Y027926D03*
X055414Y028186D03*
X055414Y028436D03*
X055414Y028696D03*
X055414Y028956D03*
X055414Y029206D03*
X055414Y029466D03*
X055414Y029716D03*
X055414Y029976D03*
X055414Y030236D03*
X055414Y030486D03*
X055414Y030746D03*
X052554Y030746D03*
X052554Y030486D03*
X052554Y030236D03*
X052554Y029976D03*
X052554Y029716D03*
X052554Y029466D03*
X052554Y029206D03*
X052554Y028956D03*
X052554Y028696D03*
X052554Y028436D03*
X052554Y028186D03*
X052554Y027926D03*
D57*
X075109Y015366D03*
X075109Y013806D03*
D58*
X026868Y032486D03*
X024860Y032486D03*
D59*
X070409Y018656D03*
D60*
X070409Y026526D03*
D61*
X060634Y026311D03*
X060634Y027311D03*
X059634Y027311D03*
X059634Y028311D03*
X060634Y028311D03*
X048634Y028311D03*
X048634Y029311D03*
X047634Y029311D03*
X047634Y028311D03*
X047634Y027311D03*
X048634Y027311D03*
X048634Y026311D03*
X047634Y026311D03*
X047634Y025311D03*
X048634Y025311D03*
X048634Y024311D03*
X047634Y024311D03*
X047634Y023311D03*
X048634Y023311D03*
X048634Y022311D03*
X047634Y022311D03*
X047634Y021311D03*
X048634Y021311D03*
X048634Y020311D03*
X047634Y020311D03*
X047634Y019311D03*
X048634Y019311D03*
X049634Y017311D03*
X050634Y017311D03*
X051634Y017311D03*
X052634Y017311D03*
X053634Y017311D03*
X054634Y017311D03*
X055634Y017311D03*
X056634Y017311D03*
X058634Y017311D03*
X059634Y017311D03*
X060634Y017311D03*
X061634Y017311D03*
X062634Y017311D03*
X063634Y017311D03*
X064634Y017311D03*
X065634Y017311D03*
X067634Y017311D03*
X068634Y017311D03*
X069634Y017311D03*
X070634Y017311D03*
X071634Y017311D03*
X072634Y017311D03*
X048634Y030311D03*
X047634Y030311D03*
X047634Y031311D03*
X048634Y031311D03*
X048634Y032311D03*
X048634Y033311D03*
X047634Y033311D03*
X047634Y032311D03*
X047634Y034311D03*
X048634Y034311D03*
X048634Y035311D03*
X047634Y035311D03*
X047634Y036311D03*
X048634Y036311D03*
X051634Y036311D03*
X052634Y036311D03*
X053634Y036311D03*
X054634Y036311D03*
X055634Y036311D03*
X056634Y036311D03*
X057634Y036311D03*
X058634Y036311D03*
X060634Y036311D03*
X061634Y036311D03*
X062634Y036311D03*
X063634Y036311D03*
X064634Y036311D03*
X065634Y036311D03*
X066634Y036311D03*
X067634Y036311D03*
X069234Y036311D03*
X070234Y036311D03*
X071234Y036311D03*
X072234Y036311D03*
X073234Y036311D03*
X074234Y036311D03*
X075234Y036311D03*
X076234Y036311D03*
D62*
X059634Y026311D03*
D63*
X038734Y034611D03*
X037734Y034611D03*
X036734Y034611D03*
X035734Y034611D03*
X034734Y034611D03*
X033734Y034611D03*
X033734Y036611D03*
X034734Y036611D03*
X035734Y036611D03*
X036734Y036611D03*
X037734Y036611D03*
X038734Y036611D03*
X038734Y015761D03*
X037734Y015761D03*
X036734Y015761D03*
X035734Y015761D03*
X034734Y015761D03*
X033734Y015761D03*
X033734Y013761D03*
X034734Y013761D03*
X035734Y013761D03*
X036734Y013761D03*
X037734Y013761D03*
X038734Y013761D03*
D64*
X015134Y019705D02*
X014134Y019705D01*
X014134Y021674D02*
X015134Y021674D01*
X015134Y023642D02*
X014134Y023642D01*
X014134Y025611D02*
X015134Y025611D01*
X015134Y029305D02*
X014134Y029305D01*
X014134Y031274D02*
X015134Y031274D01*
X015134Y033242D02*
X014134Y033242D01*
X014134Y035211D02*
X015134Y035211D01*
D65*
X041326Y035161D03*
X042192Y035535D03*
X042192Y034787D03*
D66*
X041294Y033911D03*
X040174Y033911D03*
D67*
X043924Y033911D03*
X043924Y034281D03*
X043924Y033541D03*
X044944Y033541D03*
X044944Y034281D03*
D68*
X044253Y035561D03*
X042915Y035561D03*
D69*
X044477Y036511D03*
X046091Y036511D03*
D70*
X034592Y028299D03*
X032608Y028299D03*
X030623Y028299D03*
X030623Y025323D03*
X032608Y025323D03*
X034592Y025323D03*
X022872Y026578D03*
X019896Y026578D03*
X019896Y028562D03*
X022872Y028562D03*
X022872Y030546D03*
X019896Y030546D03*
D71*
X019896Y020625D03*
X022872Y020625D03*
X040545Y025323D03*
X040545Y028299D03*
D72*
X059084Y031261D03*
X062009Y031311D03*
X063659Y029411D03*
X068209Y029511D03*
X068784Y029011D03*
X068209Y027411D03*
X068209Y026161D03*
X066959Y022261D03*
X066409Y021811D03*
X076484Y026711D03*
X068784Y031786D03*
X068209Y034386D03*
X068784Y034811D03*
X067709Y040336D03*
X046459Y018111D03*
X046459Y011311D03*
X068159Y011461D03*
X072509Y010261D03*
X072509Y009686D03*
X072509Y009111D03*
X072509Y008536D03*
X072509Y007961D03*
X075809Y007961D03*
X075809Y008536D03*
X075809Y009111D03*
X075809Y009686D03*
X075809Y010261D03*
X074384Y011936D03*
D73*
X079693Y007311D03*
X013945Y045500D03*
M02*
