G75*
G70*
%OFA0B0*%
%FSLAX24Y24*%
%IPPOS*%
%LPD*%
%AMOC8*
5,1,8,0,0,1.08239X$1,22.5*
%
%ADD10C,0.1000*%
%ADD11R,0.0867X0.0474*%
%ADD12R,0.0671X0.0552*%
%ADD13R,0.0789X0.0710*%
%ADD14R,0.0220X0.0710*%
%ADD15R,0.0592X0.0671*%
%ADD16R,0.0710X0.0789*%
%ADD17R,0.0671X0.0592*%
%ADD18R,0.0600X0.0300*%
%ADD19R,0.0946X0.0789*%
%ADD20R,0.0300X0.0600*%
%ADD21R,0.2641X0.2483*%
%ADD22R,0.1261X0.0710*%
%ADD23R,0.1210X0.0380*%
%ADD24R,0.0513X0.0474*%
%ADD25R,0.0474X0.0513*%
%ADD26C,0.0477*%
%ADD27R,0.0860X0.0300*%
%ADD28R,0.0660X0.0220*%
%ADD29R,0.0867X0.1852*%
%ADD30R,0.0552X0.0671*%
%ADD31R,0.0680X0.0300*%
%ADD32C,0.0780*%
%ADD33OC8,0.0780*%
%ADD34C,0.0674*%
%ADD35R,0.0540X0.0220*%
%ADD36R,0.0300X0.0680*%
%ADD37OC8,0.0710*%
%ADD38C,0.0710*%
%ADD39R,0.0631X0.1497*%
%ADD40R,0.1419X0.0828*%
%ADD41R,0.0380X0.1210*%
%ADD42C,0.0640*%
%ADD43C,0.0946*%
%ADD44OC8,0.0946*%
%ADD45OC8,0.0634*%
%ADD46OC8,0.0680*%
%ADD47R,0.0320X0.0690*%
%ADD48R,0.0749X0.0789*%
%ADD49C,0.1299*%
%ADD50C,0.0848*%
%ADD51C,0.4885*%
%ADD52C,0.1172*%
%ADD53R,0.0690X0.0320*%
%ADD54OC8,0.0674*%
%ADD55R,0.0430X0.0580*%
%ADD56C,0.0595*%
%ADD57R,0.0595X0.0595*%
%ADD58C,0.1386*%
%ADD59C,0.0674*%
%ADD60R,0.0631X0.0474*%
%ADD61R,0.0710X0.0790*%
%ADD62R,0.0580X0.0300*%
%ADD63R,0.0631X0.0789*%
%ADD64R,0.0789X0.0749*%
%ADD65C,0.0634*%
%ADD66C,0.0103*%
%ADD67R,0.0277X0.0336*%
%ADD68R,0.0220X0.0600*%
%ADD69R,0.0516X0.0516*%
D10*
X019133Y008760D02*
X021983Y011610D01*
X026658Y011610D01*
X028283Y013235D01*
X028283Y014210D01*
X032058Y015635D02*
X034908Y015635D01*
X035758Y014785D01*
X035758Y013835D01*
X036133Y013460D01*
X037683Y013460D01*
X035008Y011760D02*
X033608Y011760D01*
X028358Y017010D01*
X028333Y017060D02*
X028258Y017060D01*
X026283Y017160D02*
X026233Y017110D01*
X026283Y017160D02*
X026283Y020610D01*
X028758Y023085D01*
X030483Y023085D01*
X031583Y021635D02*
X032358Y022410D01*
X032358Y023160D01*
X031583Y021635D02*
X029633Y021635D01*
X028783Y020785D01*
X028783Y018910D01*
X032058Y015635D01*
X035533Y017385D02*
X036508Y016410D01*
X037508Y016410D01*
X035533Y017385D02*
X035533Y018960D01*
X034458Y020035D01*
X035008Y011760D02*
X036583Y010185D01*
X039208Y010185D01*
X040758Y008635D01*
X040933Y008635D01*
D11*
X044166Y012435D03*
X044166Y013435D03*
X044166Y014435D03*
X047000Y014435D03*
X047000Y013435D03*
X047000Y012435D03*
X047000Y015435D03*
X044166Y015435D03*
X014600Y021335D03*
X014600Y022335D03*
X014600Y023335D03*
X014600Y024335D03*
X011766Y024335D03*
X011766Y023335D03*
X011766Y022335D03*
X011766Y021335D03*
D12*
X012687Y025285D03*
X013829Y025285D03*
X024812Y024660D03*
X025954Y024660D03*
X029662Y012635D03*
X030804Y012635D03*
X044389Y011546D03*
X045530Y011546D03*
D13*
X015583Y005933D03*
X015583Y007036D03*
X023158Y007036D03*
X023158Y005933D03*
X030758Y005933D03*
X030758Y007036D03*
X037908Y007036D03*
X037908Y005933D03*
D14*
X035163Y027785D03*
X034903Y027785D03*
X034663Y027785D03*
X034403Y027785D03*
X034163Y027785D03*
X033903Y027785D03*
X033663Y027785D03*
X033403Y027785D03*
X033163Y027785D03*
X032903Y027785D03*
X032663Y027785D03*
X032403Y027785D03*
X032403Y029885D03*
X032663Y029885D03*
X032903Y029885D03*
X033163Y029885D03*
X033403Y029885D03*
X033663Y029885D03*
X033903Y029885D03*
X034163Y029885D03*
X034403Y029885D03*
X034663Y029885D03*
X034903Y029885D03*
X035163Y029885D03*
D15*
X031532Y030335D03*
X030784Y030335D03*
X039584Y029910D03*
X040332Y029910D03*
X046584Y030460D03*
X047332Y030460D03*
X047657Y028635D03*
X046909Y028635D03*
X042732Y025360D03*
X041984Y025360D03*
X041984Y024585D03*
X042732Y024585D03*
X047284Y024335D03*
X048032Y024335D03*
X069584Y015885D03*
X070332Y015885D03*
X075534Y017010D03*
X076282Y017010D03*
X077609Y017010D03*
X078357Y017010D03*
X079509Y017785D03*
X080257Y017785D03*
X087934Y016410D03*
X088682Y016410D03*
X088682Y015335D03*
X087934Y015335D03*
X055632Y008410D03*
X054884Y008410D03*
X052007Y009535D03*
X051259Y009535D03*
X051259Y010310D03*
X052007Y010310D03*
X052007Y011085D03*
X051259Y011085D03*
X051259Y011860D03*
X052007Y011860D03*
X052007Y012635D03*
X051259Y012635D03*
X051259Y013410D03*
X052007Y013410D03*
X047082Y009810D03*
X046334Y009810D03*
X053059Y006760D03*
X053807Y006760D03*
X053807Y005985D03*
X053059Y005985D03*
X040282Y015235D03*
X039534Y015235D03*
X019232Y021935D03*
X018484Y021935D03*
X081959Y028985D03*
X082707Y028985D03*
D16*
X081259Y030635D03*
X080157Y030635D03*
X031434Y029085D03*
X030332Y029085D03*
X054882Y006635D03*
X055984Y006635D03*
D17*
X059258Y006286D03*
X060033Y006286D03*
X060033Y007034D03*
X059258Y007034D03*
X068608Y015111D03*
X068608Y015859D03*
X063183Y016136D03*
X062408Y016136D03*
X061633Y016136D03*
X060458Y016136D03*
X059683Y016136D03*
X058908Y016136D03*
X058908Y016884D03*
X059683Y016884D03*
X060458Y016884D03*
X061633Y016884D03*
X062408Y016884D03*
X063183Y016884D03*
X074583Y015859D03*
X074583Y015111D03*
X084133Y015865D03*
X084133Y016535D03*
X084133Y017204D03*
X084133Y018190D03*
X084133Y018860D03*
X084133Y019529D03*
X084133Y020665D03*
X084133Y021335D03*
X084133Y022004D03*
X084283Y023761D03*
X084283Y024509D03*
X087633Y024734D03*
X087633Y023986D03*
X087408Y027265D03*
X087408Y027935D03*
X087408Y028604D03*
X088308Y012534D03*
X088308Y011786D03*
X043533Y030311D03*
X043533Y031059D03*
X029183Y027009D03*
X029183Y026261D03*
X012283Y030811D03*
X012283Y031559D03*
X029858Y011715D03*
X029858Y010967D03*
D18*
X030953Y011090D03*
X030953Y011830D03*
X031813Y011460D03*
X028288Y026215D03*
X027428Y026585D03*
X028288Y026955D03*
X014063Y031185D03*
X013203Y031555D03*
X013203Y030815D03*
D19*
X086509Y007864D03*
X086509Y005856D03*
D20*
X088308Y013630D03*
X087938Y014490D03*
X088678Y014490D03*
X047078Y010630D03*
X046338Y010630D03*
X046708Y011490D03*
D21*
X074996Y010910D03*
D22*
X077823Y011807D03*
X077823Y010012D03*
D23*
X069338Y010510D03*
X067778Y010510D03*
D24*
X063243Y012210D03*
X062573Y012210D03*
X055643Y010235D03*
X054973Y010235D03*
X053668Y010010D03*
X052998Y010010D03*
X054973Y009185D03*
X055643Y009185D03*
X055743Y007585D03*
X055073Y007585D03*
X062698Y006160D03*
X063368Y006160D03*
X053643Y011185D03*
X052973Y011185D03*
X052793Y015660D03*
X052123Y015660D03*
X049643Y015660D03*
X048973Y015660D03*
X049198Y020935D03*
X049868Y020935D03*
X051273Y020935D03*
X051943Y020935D03*
X043143Y023635D03*
X042473Y023635D03*
X026668Y030335D03*
X025998Y030335D03*
X020168Y031485D03*
X019498Y031485D03*
X044598Y031385D03*
X045268Y031385D03*
X065498Y024235D03*
X066168Y024235D03*
X072773Y024860D03*
X073443Y024860D03*
X088723Y025585D03*
X089393Y025585D03*
X088668Y017285D03*
X087998Y017285D03*
X070143Y015110D03*
X069473Y015110D03*
D25*
X067833Y015175D03*
X067833Y015844D03*
X072633Y015819D03*
X073808Y015819D03*
X073808Y015150D03*
X072633Y015150D03*
X082458Y016100D03*
X082458Y016769D03*
X060933Y008744D03*
X060933Y008075D03*
X058408Y006944D03*
X058408Y006275D03*
X057633Y006275D03*
X057633Y006944D03*
X056858Y006944D03*
X056858Y006275D03*
X025958Y027275D03*
X025958Y027944D03*
X019533Y028450D03*
X019533Y029119D03*
X036473Y030810D03*
X037143Y030810D03*
X048758Y028469D03*
X048758Y027800D03*
D26*
X070708Y024560D03*
X071259Y024560D03*
D27*
X066278Y023510D03*
X066278Y023010D03*
X066278Y022510D03*
X066278Y022010D03*
X064338Y022010D03*
X064338Y022510D03*
X064338Y023010D03*
X064338Y023510D03*
X079563Y017010D03*
X079563Y016510D03*
X079563Y016010D03*
X079563Y015510D03*
X081503Y015510D03*
X081503Y016010D03*
X081503Y016510D03*
X081503Y017010D03*
X046078Y023710D03*
X046078Y024210D03*
X046078Y024710D03*
X046078Y025210D03*
X044138Y025210D03*
X044138Y024710D03*
X044138Y024210D03*
X044138Y023710D03*
D28*
X071223Y023645D03*
X071223Y023895D03*
X071223Y024155D03*
X071223Y023385D03*
X071223Y023125D03*
X071223Y022875D03*
X071223Y022615D03*
X073443Y022615D03*
X073443Y022875D03*
X073443Y023125D03*
X073443Y023385D03*
X073443Y023645D03*
X073443Y023895D03*
X073443Y024155D03*
D29*
X062683Y010858D03*
X062683Y007511D03*
D30*
X074208Y023589D03*
X074208Y024731D03*
D31*
X080833Y028485D03*
X079983Y028885D03*
X080833Y029285D03*
D32*
X076883Y030035D03*
X076633Y030035D03*
D33*
X078383Y030035D03*
X078633Y030035D03*
D34*
X072308Y006731D02*
X072308Y006138D01*
X071308Y006138D02*
X071308Y006731D01*
X070308Y006731D02*
X070308Y006138D01*
X069308Y006138D02*
X069308Y006731D01*
X068308Y006731D02*
X068308Y006138D01*
X067308Y006138D02*
X067308Y006731D01*
D35*
X040978Y024125D03*
X040978Y024385D03*
X040978Y024645D03*
X040238Y024645D03*
X040238Y024385D03*
X040238Y024125D03*
D36*
X075483Y016110D03*
X076283Y016110D03*
X077583Y016160D03*
X078383Y016160D03*
X077983Y015310D03*
X075883Y015260D03*
D37*
X042108Y014535D03*
X016658Y022660D03*
D38*
X016658Y023660D03*
X042108Y013535D03*
D39*
X042108Y013011D03*
X042108Y015019D03*
X016658Y022175D03*
X016658Y024183D03*
D40*
X018858Y024377D03*
X018858Y022842D03*
X039908Y014352D03*
X039908Y012817D03*
D41*
X082333Y011565D03*
X082333Y010005D03*
D42*
X054958Y032505D02*
X054958Y033065D01*
X053958Y033065D02*
X053958Y032505D01*
D43*
X075053Y024085D03*
D44*
X082923Y024085D03*
X037390Y008541D03*
X022546Y008485D03*
D45*
X056654Y015900D03*
X057654Y015900D03*
X057654Y016900D03*
X056654Y016900D03*
X056654Y017900D03*
X057654Y017900D03*
X057654Y018900D03*
X056654Y018900D03*
X056654Y019900D03*
X057654Y019900D03*
X057654Y020900D03*
X056654Y020900D03*
X056654Y021900D03*
X057654Y021900D03*
X057654Y022900D03*
X056654Y022900D03*
X056654Y023900D03*
X057654Y023900D03*
X057654Y024900D03*
X056654Y024900D03*
X056654Y025900D03*
X057654Y025900D03*
X057654Y026900D03*
X056654Y026900D03*
X056654Y027900D03*
X057654Y027900D03*
X057654Y028900D03*
X056654Y028900D03*
X056654Y029900D03*
X057654Y029900D03*
X057654Y030900D03*
X056654Y030900D03*
X056654Y031900D03*
X057654Y031900D03*
X057654Y032900D03*
X056654Y032900D03*
X060654Y032900D03*
X061654Y032900D03*
X062654Y032900D03*
X063654Y032900D03*
X064654Y032900D03*
X065654Y032900D03*
X066654Y032900D03*
X067654Y032900D03*
X069654Y032900D03*
X070654Y032900D03*
X071654Y032900D03*
X072654Y032900D03*
X073654Y032900D03*
X074654Y032900D03*
X075654Y032900D03*
X076654Y032900D03*
X078254Y032900D03*
X079254Y032900D03*
X080254Y032900D03*
X081254Y032900D03*
X082254Y032900D03*
X083254Y032900D03*
X084254Y032900D03*
X085254Y032900D03*
X069654Y024900D03*
X068654Y024900D03*
X068654Y023900D03*
X069654Y023900D03*
X069654Y022900D03*
X069654Y013900D03*
X070654Y013900D03*
X071654Y013900D03*
X072654Y013900D03*
X073654Y013900D03*
X074654Y013900D03*
X076654Y013900D03*
X077654Y013900D03*
X078654Y013900D03*
X079654Y013900D03*
X080654Y013900D03*
X081654Y013900D03*
X068654Y013900D03*
X067654Y013900D03*
X065654Y013900D03*
X064654Y013900D03*
X063654Y013900D03*
X062654Y013900D03*
X061654Y013900D03*
X060654Y013900D03*
X059654Y013900D03*
X058654Y013900D03*
D46*
X068654Y022900D03*
D47*
X025333Y027950D03*
X024833Y027950D03*
X024333Y027950D03*
X023833Y027950D03*
X023333Y027950D03*
X022833Y027950D03*
X022333Y027950D03*
X021833Y027950D03*
X018908Y029350D03*
X018408Y029350D03*
X017908Y029350D03*
X017408Y029350D03*
X016908Y029350D03*
X016408Y029350D03*
X015908Y029350D03*
X015408Y029350D03*
X015408Y031470D03*
X015908Y031470D03*
X016408Y031470D03*
X016908Y031470D03*
X017408Y031470D03*
X017908Y031470D03*
X018408Y031470D03*
X018908Y031470D03*
X021833Y030070D03*
X022333Y030070D03*
X022833Y030070D03*
X023333Y030070D03*
X023833Y030070D03*
X024333Y030070D03*
X024833Y030070D03*
X025333Y030070D03*
D48*
X020233Y024360D03*
X020233Y022746D03*
X035783Y016817D03*
X035783Y015203D03*
D49*
X028279Y014146D03*
X026294Y014146D03*
X024310Y014146D03*
X024310Y017123D03*
X026294Y017123D03*
X028279Y017123D03*
X030488Y020071D03*
X032472Y020071D03*
X034456Y020071D03*
X034456Y023048D03*
X032472Y023048D03*
X030488Y023048D03*
D50*
X024535Y023048D03*
X024535Y020071D03*
X034231Y017123D03*
X034231Y014146D03*
D51*
X033689Y008309D03*
X026189Y008309D03*
X018689Y008309D03*
X012370Y008309D03*
X041189Y008309D03*
D52*
X088216Y008703D02*
X089281Y008703D01*
X089281Y006853D02*
X088216Y006853D01*
X088216Y010553D02*
X089281Y010553D01*
D53*
X052218Y016285D03*
X052218Y016785D03*
X052218Y017285D03*
X052218Y017785D03*
X052218Y018285D03*
X052218Y018785D03*
X052218Y019285D03*
X052218Y019785D03*
X050098Y019785D03*
X050098Y019285D03*
X050098Y018785D03*
X050098Y018285D03*
X050098Y017785D03*
X050098Y017285D03*
X050098Y016785D03*
X050098Y016285D03*
X049348Y021610D03*
X049348Y022110D03*
X049348Y022610D03*
X049348Y023110D03*
X049348Y023610D03*
X049348Y024110D03*
X049348Y024610D03*
X049348Y025110D03*
X051468Y025110D03*
X051468Y024610D03*
X051468Y024110D03*
X051468Y023610D03*
X051468Y023110D03*
X051468Y022610D03*
X051468Y022110D03*
X051468Y021610D03*
D54*
X037961Y021935D03*
X036961Y021935D03*
X036961Y022935D03*
X037961Y022935D03*
X037961Y023935D03*
X036961Y023935D03*
X036961Y024935D03*
X037961Y024935D03*
X037961Y020935D03*
X036961Y020935D03*
X036961Y019935D03*
X037961Y019935D03*
X037961Y018935D03*
X036961Y018935D03*
X036961Y017935D03*
X037961Y017935D03*
X037961Y016935D03*
X036961Y016935D03*
X036961Y015935D03*
X037961Y015935D03*
X037961Y014935D03*
X036961Y014935D03*
X036961Y013935D03*
X037961Y013935D03*
X037961Y012935D03*
X036961Y012935D03*
X048958Y013010D03*
X048958Y014010D03*
X048958Y012010D03*
X048958Y011010D03*
X048958Y010010D03*
X048958Y009010D03*
X048958Y008010D03*
X048958Y007010D03*
X064608Y008010D03*
X065608Y008010D03*
X065608Y009010D03*
X064608Y009010D03*
X064608Y010010D03*
X065608Y010010D03*
X065608Y011010D03*
X064608Y011010D03*
X064608Y012010D03*
X065608Y012010D03*
X088458Y026585D03*
X089458Y026585D03*
X089458Y027585D03*
X088458Y027585D03*
X088458Y028585D03*
X089458Y028585D03*
X089458Y029585D03*
X088458Y029585D03*
X022819Y025337D03*
X021819Y025337D03*
X021819Y024337D03*
X022819Y024337D03*
X022819Y023337D03*
X021819Y023337D03*
X021819Y022337D03*
X022819Y022337D03*
X022819Y021337D03*
X021819Y021337D03*
X021819Y020337D03*
X022819Y020337D03*
X022819Y019337D03*
X021819Y019337D03*
X021819Y018337D03*
X022819Y018337D03*
X022819Y017337D03*
X021819Y017337D03*
X021819Y016337D03*
X022819Y016337D03*
X022819Y015337D03*
X021819Y015337D03*
X021819Y014337D03*
X022819Y014337D03*
X022819Y013337D03*
X021819Y013337D03*
D55*
X046883Y025360D03*
X047883Y025360D03*
X047883Y027860D03*
X046883Y027860D03*
D56*
X085386Y027884D03*
X086386Y027884D03*
X086386Y026884D03*
X085386Y026884D03*
X085386Y025884D03*
X086386Y025884D03*
X086386Y024884D03*
X085386Y024884D03*
X085386Y023884D03*
X086386Y023884D03*
X086386Y022884D03*
X085386Y022884D03*
X085386Y021884D03*
X086386Y021884D03*
X086386Y020884D03*
X085386Y020884D03*
X085386Y019884D03*
X086386Y019884D03*
X086386Y018884D03*
X085386Y018884D03*
X085386Y017884D03*
X086386Y017884D03*
X086386Y016884D03*
X085386Y016884D03*
X085386Y015884D03*
X086386Y015884D03*
X086386Y014884D03*
X085386Y014884D03*
X085386Y013884D03*
X086386Y013884D03*
X086386Y012884D03*
X085386Y012884D03*
X085386Y011884D03*
X086386Y011884D03*
X086386Y010884D03*
X085386Y010884D03*
X085386Y009884D03*
X086386Y009884D03*
X085386Y028884D03*
D57*
X086386Y028884D03*
D58*
X084811Y030947D03*
X051347Y030947D03*
X051347Y007719D03*
X084811Y007719D03*
D59*
X080333Y007335D03*
X079333Y007335D03*
X078333Y007335D03*
X077333Y007335D03*
X076333Y007335D03*
X076333Y006335D03*
X077333Y006335D03*
X078333Y006335D03*
X079333Y006335D03*
X080333Y006335D03*
D60*
X042441Y029486D03*
X042441Y030234D03*
X041575Y029860D03*
D61*
X041518Y020985D03*
X040398Y020985D03*
D62*
X044623Y029940D03*
X044623Y030310D03*
X044623Y030680D03*
X045643Y030680D03*
X045643Y029940D03*
D63*
X040827Y030810D03*
X039489Y030810D03*
D64*
X038090Y029910D03*
X036476Y029910D03*
X045626Y017235D03*
X047240Y017235D03*
X018996Y017135D03*
X017382Y017135D03*
D65*
X017748Y018152D03*
X016748Y018152D03*
X015748Y018152D03*
X014748Y018152D03*
X013748Y018152D03*
X013748Y020152D03*
X014748Y020152D03*
X015748Y020152D03*
X016748Y020152D03*
X017748Y020152D03*
X018748Y020152D03*
X018748Y018152D03*
X040520Y018152D03*
X041520Y018152D03*
X042520Y018152D03*
X043520Y018152D03*
X044520Y018152D03*
X045520Y018152D03*
X046520Y018152D03*
X047520Y018152D03*
X047520Y020152D03*
X046520Y020152D03*
X045520Y020152D03*
X044520Y020152D03*
X043520Y020152D03*
X042520Y020152D03*
X041520Y020152D03*
X040520Y020152D03*
D66*
X057352Y011324D02*
X057352Y011012D01*
X057248Y011012D01*
X057248Y011324D01*
X057352Y011324D01*
X057352Y011114D02*
X057248Y011114D01*
X057248Y011216D02*
X057352Y011216D01*
X057352Y011318D02*
X057248Y011318D01*
X057549Y011324D02*
X057549Y011012D01*
X057445Y011012D01*
X057445Y011324D01*
X057549Y011324D01*
X057549Y011114D02*
X057445Y011114D01*
X057445Y011216D02*
X057549Y011216D01*
X057549Y011318D02*
X057445Y011318D01*
X057746Y011324D02*
X057746Y011012D01*
X057642Y011012D01*
X057642Y011324D01*
X057746Y011324D01*
X057746Y011114D02*
X057642Y011114D01*
X057642Y011216D02*
X057746Y011216D01*
X057746Y011318D02*
X057642Y011318D01*
X057943Y011324D02*
X057943Y011012D01*
X057839Y011012D01*
X057839Y011324D01*
X057943Y011324D01*
X057943Y011114D02*
X057839Y011114D01*
X057839Y011216D02*
X057943Y011216D01*
X057943Y011318D02*
X057839Y011318D01*
X058140Y011324D02*
X058140Y011012D01*
X058036Y011012D01*
X058036Y011324D01*
X058140Y011324D01*
X058140Y011114D02*
X058036Y011114D01*
X058036Y011216D02*
X058140Y011216D01*
X058140Y011318D02*
X058036Y011318D01*
X058337Y011324D02*
X058337Y011012D01*
X058233Y011012D01*
X058233Y011324D01*
X058337Y011324D01*
X058337Y011114D02*
X058233Y011114D01*
X058233Y011216D02*
X058337Y011216D01*
X058337Y011318D02*
X058233Y011318D01*
X058534Y011324D02*
X058534Y011012D01*
X058430Y011012D01*
X058430Y011324D01*
X058534Y011324D01*
X058534Y011114D02*
X058430Y011114D01*
X058430Y011216D02*
X058534Y011216D01*
X058534Y011318D02*
X058430Y011318D01*
X058730Y011324D02*
X058730Y011012D01*
X058626Y011012D01*
X058626Y011324D01*
X058730Y011324D01*
X058730Y011114D02*
X058626Y011114D01*
X058626Y011216D02*
X058730Y011216D01*
X058730Y011318D02*
X058626Y011318D01*
X058927Y011324D02*
X058927Y011012D01*
X058823Y011012D01*
X058823Y011324D01*
X058927Y011324D01*
X058927Y011114D02*
X058823Y011114D01*
X058823Y011216D02*
X058927Y011216D01*
X058927Y011318D02*
X058823Y011318D01*
X059124Y011324D02*
X059124Y011012D01*
X059020Y011012D01*
X059020Y011324D01*
X059124Y011324D01*
X059124Y011114D02*
X059020Y011114D01*
X059020Y011216D02*
X059124Y011216D01*
X059124Y011318D02*
X059020Y011318D01*
X059321Y011324D02*
X059321Y011012D01*
X059217Y011012D01*
X059217Y011324D01*
X059321Y011324D01*
X059321Y011114D02*
X059217Y011114D01*
X059217Y011216D02*
X059321Y011216D01*
X059321Y011318D02*
X059217Y011318D01*
X059518Y011324D02*
X059518Y011012D01*
X059414Y011012D01*
X059414Y011324D01*
X059518Y011324D01*
X059518Y011114D02*
X059414Y011114D01*
X059414Y011216D02*
X059518Y011216D01*
X059518Y011318D02*
X059414Y011318D01*
X059910Y010515D02*
X060222Y010515D01*
X059910Y010515D02*
X059910Y010619D01*
X060222Y010619D01*
X060222Y010515D01*
X060222Y010617D02*
X059910Y010617D01*
X059910Y010318D02*
X060222Y010318D01*
X059910Y010318D02*
X059910Y010422D01*
X060222Y010422D01*
X060222Y010318D01*
X060222Y010420D02*
X059910Y010420D01*
X059910Y010122D02*
X060222Y010122D01*
X059910Y010122D02*
X059910Y010226D01*
X060222Y010226D01*
X060222Y010122D01*
X060222Y010224D02*
X059910Y010224D01*
X059910Y009925D02*
X060222Y009925D01*
X059910Y009925D02*
X059910Y010029D01*
X060222Y010029D01*
X060222Y009925D01*
X060222Y010027D02*
X059910Y010027D01*
X059910Y009728D02*
X060222Y009728D01*
X059910Y009728D02*
X059910Y009832D01*
X060222Y009832D01*
X060222Y009728D01*
X060222Y009830D02*
X059910Y009830D01*
X059910Y009531D02*
X060222Y009531D01*
X059910Y009531D02*
X059910Y009635D01*
X060222Y009635D01*
X060222Y009531D01*
X060222Y009633D02*
X059910Y009633D01*
X059910Y009334D02*
X060222Y009334D01*
X059910Y009334D02*
X059910Y009438D01*
X060222Y009438D01*
X060222Y009334D01*
X060222Y009436D02*
X059910Y009436D01*
X059910Y009137D02*
X060222Y009137D01*
X059910Y009137D02*
X059910Y009241D01*
X060222Y009241D01*
X060222Y009137D01*
X060222Y009239D02*
X059910Y009239D01*
X059910Y008941D02*
X060222Y008941D01*
X059910Y008941D02*
X059910Y009045D01*
X060222Y009045D01*
X060222Y008941D01*
X060222Y009043D02*
X059910Y009043D01*
X059910Y008744D02*
X060222Y008744D01*
X059910Y008744D02*
X059910Y008848D01*
X060222Y008848D01*
X060222Y008744D01*
X060222Y008846D02*
X059910Y008846D01*
X059910Y008547D02*
X060222Y008547D01*
X059910Y008547D02*
X059910Y008651D01*
X060222Y008651D01*
X060222Y008547D01*
X060222Y008649D02*
X059910Y008649D01*
X059910Y008350D02*
X060222Y008350D01*
X059910Y008350D02*
X059910Y008454D01*
X060222Y008454D01*
X060222Y008350D01*
X060222Y008452D02*
X059910Y008452D01*
X059518Y007958D02*
X059518Y007646D01*
X059414Y007646D01*
X059414Y007958D01*
X059518Y007958D01*
X059518Y007748D02*
X059414Y007748D01*
X059414Y007850D02*
X059518Y007850D01*
X059518Y007952D02*
X059414Y007952D01*
X059321Y007958D02*
X059321Y007646D01*
X059217Y007646D01*
X059217Y007958D01*
X059321Y007958D01*
X059321Y007748D02*
X059217Y007748D01*
X059217Y007850D02*
X059321Y007850D01*
X059321Y007952D02*
X059217Y007952D01*
X059124Y007958D02*
X059124Y007646D01*
X059020Y007646D01*
X059020Y007958D01*
X059124Y007958D01*
X059124Y007748D02*
X059020Y007748D01*
X059020Y007850D02*
X059124Y007850D01*
X059124Y007952D02*
X059020Y007952D01*
X058927Y007958D02*
X058927Y007646D01*
X058823Y007646D01*
X058823Y007958D01*
X058927Y007958D01*
X058927Y007748D02*
X058823Y007748D01*
X058823Y007850D02*
X058927Y007850D01*
X058927Y007952D02*
X058823Y007952D01*
X058730Y007958D02*
X058730Y007646D01*
X058626Y007646D01*
X058626Y007958D01*
X058730Y007958D01*
X058730Y007748D02*
X058626Y007748D01*
X058626Y007850D02*
X058730Y007850D01*
X058730Y007952D02*
X058626Y007952D01*
X058534Y007958D02*
X058534Y007646D01*
X058430Y007646D01*
X058430Y007958D01*
X058534Y007958D01*
X058534Y007748D02*
X058430Y007748D01*
X058430Y007850D02*
X058534Y007850D01*
X058534Y007952D02*
X058430Y007952D01*
X058337Y007958D02*
X058337Y007646D01*
X058233Y007646D01*
X058233Y007958D01*
X058337Y007958D01*
X058337Y007748D02*
X058233Y007748D01*
X058233Y007850D02*
X058337Y007850D01*
X058337Y007952D02*
X058233Y007952D01*
X058140Y007958D02*
X058140Y007646D01*
X058036Y007646D01*
X058036Y007958D01*
X058140Y007958D01*
X058140Y007748D02*
X058036Y007748D01*
X058036Y007850D02*
X058140Y007850D01*
X058140Y007952D02*
X058036Y007952D01*
X057943Y007958D02*
X057943Y007646D01*
X057839Y007646D01*
X057839Y007958D01*
X057943Y007958D01*
X057943Y007748D02*
X057839Y007748D01*
X057839Y007850D02*
X057943Y007850D01*
X057943Y007952D02*
X057839Y007952D01*
X057746Y007958D02*
X057746Y007646D01*
X057642Y007646D01*
X057642Y007958D01*
X057746Y007958D01*
X057746Y007748D02*
X057642Y007748D01*
X057642Y007850D02*
X057746Y007850D01*
X057746Y007952D02*
X057642Y007952D01*
X057549Y007958D02*
X057549Y007646D01*
X057445Y007646D01*
X057445Y007958D01*
X057549Y007958D01*
X057549Y007748D02*
X057445Y007748D01*
X057445Y007850D02*
X057549Y007850D01*
X057549Y007952D02*
X057445Y007952D01*
X057352Y007958D02*
X057352Y007646D01*
X057248Y007646D01*
X057248Y007958D01*
X057352Y007958D01*
X057352Y007748D02*
X057248Y007748D01*
X057248Y007850D02*
X057352Y007850D01*
X057352Y007952D02*
X057248Y007952D01*
X056856Y008350D02*
X056544Y008350D01*
X056544Y008454D01*
X056856Y008454D01*
X056856Y008350D01*
X056856Y008452D02*
X056544Y008452D01*
X056544Y008547D02*
X056856Y008547D01*
X056544Y008547D02*
X056544Y008651D01*
X056856Y008651D01*
X056856Y008547D01*
X056856Y008649D02*
X056544Y008649D01*
X056544Y008744D02*
X056856Y008744D01*
X056544Y008744D02*
X056544Y008848D01*
X056856Y008848D01*
X056856Y008744D01*
X056856Y008846D02*
X056544Y008846D01*
X056544Y008941D02*
X056856Y008941D01*
X056544Y008941D02*
X056544Y009045D01*
X056856Y009045D01*
X056856Y008941D01*
X056856Y009043D02*
X056544Y009043D01*
X056544Y009137D02*
X056856Y009137D01*
X056544Y009137D02*
X056544Y009241D01*
X056856Y009241D01*
X056856Y009137D01*
X056856Y009239D02*
X056544Y009239D01*
X056544Y009334D02*
X056856Y009334D01*
X056544Y009334D02*
X056544Y009438D01*
X056856Y009438D01*
X056856Y009334D01*
X056856Y009436D02*
X056544Y009436D01*
X056544Y009531D02*
X056856Y009531D01*
X056544Y009531D02*
X056544Y009635D01*
X056856Y009635D01*
X056856Y009531D01*
X056856Y009633D02*
X056544Y009633D01*
X056544Y009728D02*
X056856Y009728D01*
X056544Y009728D02*
X056544Y009832D01*
X056856Y009832D01*
X056856Y009728D01*
X056856Y009830D02*
X056544Y009830D01*
X056544Y009925D02*
X056856Y009925D01*
X056544Y009925D02*
X056544Y010029D01*
X056856Y010029D01*
X056856Y009925D01*
X056856Y010027D02*
X056544Y010027D01*
X056544Y010122D02*
X056856Y010122D01*
X056544Y010122D02*
X056544Y010226D01*
X056856Y010226D01*
X056856Y010122D01*
X056856Y010224D02*
X056544Y010224D01*
X056544Y010318D02*
X056856Y010318D01*
X056544Y010318D02*
X056544Y010422D01*
X056856Y010422D01*
X056856Y010318D01*
X056856Y010420D02*
X056544Y010420D01*
X056544Y010515D02*
X056856Y010515D01*
X056544Y010515D02*
X056544Y010619D01*
X056856Y010619D01*
X056856Y010515D01*
X056856Y010617D02*
X056544Y010617D01*
D67*
X057411Y011944D03*
X057726Y011944D03*
X058041Y011944D03*
X058356Y011944D03*
X058786Y011944D03*
X059101Y011944D03*
X059416Y011944D03*
X059731Y011944D03*
X059731Y012475D03*
X059416Y012475D03*
X059101Y012475D03*
X058786Y012475D03*
X058356Y012475D03*
X058041Y012475D03*
X057726Y012475D03*
X057411Y012475D03*
D68*
X071128Y015915D03*
X071378Y015915D03*
X071638Y015915D03*
X071888Y015915D03*
X071888Y017355D03*
X071638Y017355D03*
X071378Y017355D03*
X071128Y017355D03*
X050238Y027565D03*
X049988Y027565D03*
X049728Y027565D03*
X049478Y027565D03*
X049478Y029005D03*
X049728Y029005D03*
X049988Y029005D03*
X050238Y029005D03*
D69*
X035390Y008541D03*
X020546Y008485D03*
M02*
