%
M48
M72
T01C0.0197
T02C0.0236
T03C0.0315
T04C0.0320
T05C0.0354
T06C0.0360
T07C0.0394
T08C0.0400
T09C0.0433
T10C0.0512
T11C0.0710
T12C0.1260
T13C0.2165
%
T01
X65295Y22853
X65846Y22853
T02
X67371Y22653
X66421Y21553
X66796Y21178
X66421Y20803
X67371Y20403
X68146Y20653
X68871Y21003
X69896Y21528
X70821Y21353
X71196Y21703
X71721Y22228
X71196Y22453
X72496Y22028
X73271Y21078
X71846Y20728
X71846Y19678
X70021Y19903
X69346Y19203
X68746Y18753
X67996Y18878
X68021Y18303
X66171Y18728
X64896Y19028
X67746Y19603
X71846Y17978
X75821Y16603
X76546Y16478
X76896Y16103
X75996Y15728
X74971Y14828
X75346Y14303
X76896Y13878
X77921Y14153
X76071Y13128
X77596Y11978
X76571Y11103
X74946Y10778
X76346Y9453
X76946Y8778
X78221Y9678
X82069Y11327
X82146Y12853
X84371Y12853
X81696Y13703
X81821Y14728
X78296Y15503
X82171Y16953
X77821Y17753
X77296Y17903
X76446Y18753
X75371Y19903
X76671Y20278
X75171Y20728
X81446Y19703
X83471Y20228
X82596Y20678
X75421Y23878
X74971Y24278
X75996Y24703
X77271Y24953
X78921Y24578
X79446Y24803
X80546Y25628
X78396Y25778
X78021Y26328
X77646Y25878
X77296Y25478
X75746Y26103
X75571Y27178
X74771Y27728
X73546Y27653
X74246Y28228
X72446Y29078
X72821Y29428
X73846Y29878
X75821Y29878
X76471Y28978
X78046Y27728
X77821Y27178
X78996Y26978
X76546Y27403
X71496Y25728
X70971Y25203
X71421Y24828
X70546Y24553
X72146Y23878
X73071Y24303
X69371Y26678
X68121Y26403
X66421Y26928
X64746Y26678
X63146Y26403
X61446Y26678
X58721Y26678
X57221Y26953
X53646Y26678
X50846Y27678
X49221Y27053
X50671Y26703
X49221Y26303
X46921Y25253
X47496Y24728
X46021Y25753
X45446Y25778
X46596Y26303
X44896Y26703
X44071Y26378
X42821Y26803
X41971Y26153
X40796Y26703
X40296Y26378
X40421Y25778
X38746Y26028
X38196Y26203
X38596Y26553
X36146Y27678
X37646Y29353
X40246Y29653
X41871Y29803
X43696Y30078
X43771Y28878
X42946Y28353
X46396Y27653
X47246Y27853
X48346Y27653
X48946Y28053
X48221Y28703
X47321Y28803
X48821Y29453
X49671Y29678
X50521Y29203
X51596Y29678
X49221Y29078
X49971Y28703
X52896Y28303
X53646Y29003
X55746Y29003
X58721Y29003
X60246Y29628
X62396Y29853
X64746Y29628
X64746Y28628
X63146Y28153
X62621Y28153
X66196Y28378
X68221Y28628
X69696Y28828
X70671Y28878
X71246Y30028
X66971Y29628
X75471Y31678
X81521Y29953
X82846Y30478
X84671Y30353
X84521Y25403
X61871Y23403
X59996Y23053
X59421Y23178
X59046Y22828
X57746Y22178
X56621Y21928
X56621Y21403
X57021Y21053
X58346Y21303
X59771Y20753
X61221Y19853
X61871Y19028
X58946Y18878
X57321Y18753
X56121Y18428
X55496Y18903
X55021Y18203
X54496Y18028
X53771Y17753
X53246Y17903
X53021Y17053
X52846Y16328
X50096Y16078
X48871Y15703
X47221Y15078
X47796Y13953
X46196Y13953
X44621Y13953
X43571Y14453
X42921Y15128
X43646Y15578
X43971Y16003
X42821Y17128
X44196Y17578
X43121Y17803
X44446Y18728
X45371Y19278
X46921Y19228
X48471Y19753
X49071Y19253
X50096Y18278
X47796Y17578
X46171Y18078
X45271Y18078
X43446Y19378
X42421Y20103
X42821Y20453
X41621Y19353
X37921Y19353
X37321Y19353
X34021Y19353
X34171Y21028
X33796Y22303
X35496Y22178
X36246Y22253
X36746Y21928
X36596Y22953
X34846Y23203
X34021Y23178
X31071Y23178
X31871Y24728
X29396Y24953
X28971Y25428
X26596Y26078
X26021Y26353
X27096Y27053
X28746Y27503
X29671Y27503
X30121Y28178
X31871Y28528
X32546Y29278
X33221Y29828
X29271Y28828
X28746Y28828
X27996Y28903
X27646Y29278
X24921Y30053
X24171Y29228
X24846Y28478
X22771Y27878
X21321Y29303
X20596Y29228
X21996Y29878
X22721Y30053
X17921Y30228
X16471Y30628
X15996Y30128
X15221Y29778
X14071Y29228
X10496Y29278
X9546Y29753
X8646Y29778
X8346Y30453
X10971Y31003
X11971Y31628
X13371Y30928
X12971Y30553
X9496Y28578
X7846Y27628
X5871Y26628
X6221Y26253
X6596Y25903
X6971Y25553
X7321Y25178
X7846Y25303
X6546Y24078
X5921Y23203
X8221Y22953
X8746Y23553
X9496Y23628
X12446Y23628
X15071Y24303
X16896Y24303
X18246Y24828
X18721Y24303
X22096Y24128
X24221Y24578
X26021Y24753
X22046Y26278
X20471Y26478
X16921Y26878
X16396Y26903
X14446Y26528
X12971Y25628
X13746Y25303
X11071Y25303
X4721Y25703
X4696Y25178
X6171Y28803
X14121Y27903
X28096Y31053
X28621Y31053
X39871Y25253
X39321Y24728
X42021Y24728
X42821Y25253
X43321Y24103
X43921Y23828
X42871Y23653
X43446Y22903
X45421Y23403
X48696Y22853
X50646Y23203
X51596Y23678
X51596Y22703
X50646Y22078
X51571Y21678
X50646Y21203
X48921Y20678
X51596Y19703
X52921Y19828
X53446Y20303
X52871Y21028
X53446Y21503
X54171Y22103
X53871Y22553
X52996Y22703
X53146Y23253
X55746Y22953
X56621Y22953
X55871Y21853
X54871Y20078
X56621Y19853
X57321Y20153
X53446Y18703
X49621Y17053
X55871Y16328
X57321Y16878
X58646Y16903
X59396Y17228
X60421Y17128
X60696Y16553
X62646Y16403
X63721Y16028
X62746Y15653
X65246Y16403
X66746Y16503
X66746Y17228
X68321Y15803
X65796Y14928
X67521Y14203
X66721Y13503
X69546Y13478
X70546Y13503
X71596Y13803
X71071Y16128
X61221Y14453
X59771Y13978
X58021Y14003
X55671Y14428
X58621Y15178
X61221Y13103
X61096Y11178
X57996Y9978
X56296Y9778
X56296Y9253
X55396Y8628
X56296Y8228
X54196Y7478
X53196Y6903
X51796Y7903
X50546Y7503
X49071Y7478
X50546Y8503
X49071Y8853
X49546Y9203
X49846Y9653
X51546Y10053
X50546Y10603
X49071Y11453
X48371Y12153
X46596Y12128
X45471Y11728
X45471Y10903
X45471Y10153
X47546Y9853
X45471Y9353
X47571Y8678
X45046Y7078
X41671Y7503
X38771Y6828
X42896Y8803
X40721Y9153
X39321Y10703
X37971Y12228
X37496Y13178
X38746Y14103
X39896Y13728
X42621Y13303
X43971Y12878
X44521Y12628
X46846Y12928
X47796Y13103
X50546Y13103
X52021Y12278
X54921Y13103
X55121Y10728
X54496Y9778
X55921Y6903
X55846Y5853
X55521Y5453
X55246Y4928
X55271Y4403
X52596Y4153
X49471Y4278
X48796Y4278
X48396Y5528
X49171Y5878
X50796Y6028
X43946Y4353
X42371Y4103
X41671Y4353
X29977Y6835
X23971Y9353
X26396Y10078
X24271Y11453
X24221Y12278
X28671Y11403
X32471Y9828
X33421Y11928
X33421Y13778
X33796Y15103
X37796Y15653
X39721Y22003
X41346Y22153
X39721Y23503
X50646Y24678
X53646Y25303
X55746Y25303
X56846Y25278
X57371Y25503
X61221Y22503
X55771Y30703
X54196Y30478
X53646Y30478
X47321Y31453
X46796Y31653
X45721Y31078
X13871Y21153
X11896Y21503
X13871Y19778
X12971Y19278
X7871Y17753
X6546Y17003
X5521Y16353
X5896Y15703
X5896Y15153
X8346Y15303
X8996Y14828
X9371Y14428
X9921Y14228
X11296Y15378
X13871Y16053
X11946Y17153
X5921Y19003
X18496Y17753
X13871Y13228
X13871Y11753
X15133Y6778
X23846Y4303
X57996Y5053
X60546Y3953
X61096Y4053
X62046Y6503
X61696Y7303
X62371Y8353
X62371Y9253
X64796Y11378
X68071Y10203
X68071Y9803
X68071Y9403
X68071Y9003
X68071Y8603
X68071Y8203
X70696Y8203
X70696Y8603
X70696Y9003
X70696Y9403
X70696Y9803
X70696Y10203
X68796Y11353
X72421Y8953
X73321Y8303
X75371Y7403
X76921Y6903
X81446Y6878
X76296Y4678
X71396Y4103
X83346Y3953
X84371Y9778
T03
X81071Y10196
X80071Y10196
X80071Y9196
X81071Y9196
X81071Y8196
X80071Y8196
X80071Y11196
X81071Y11196
X81071Y12196
X80071Y12196
X80071Y13196
X81071Y13196
X81071Y14196
X80071Y14196
X80071Y15196
X81071Y15196
X81071Y16196
X80071Y16196
X80071Y17196
X81071Y17196
X81071Y18196
X80071Y18196
X80071Y19196
X81071Y19196
X81071Y20196
X80071Y20196
X80071Y21196
X81071Y21196
X81071Y22196
X80071Y22196
X80071Y23196
X81071Y23196
X81071Y24196
X80071Y24196
X80071Y25196
X81071Y25196
X81071Y26196
X80071Y26196
X80071Y27196
X81071Y27196
X73008Y28328
X71433Y28328
T04
X36121Y12828
X36121Y11828
X11246Y20953
X11246Y21953
T05
X11433Y18464
X10433Y18464
X9433Y18464
X8433Y18464
X12433Y18464
X13433Y18464
X13433Y16464
X12433Y16464
X11433Y16464
X10433Y16464
X9433Y16464
X8433Y16464
X35205Y16464
X36205Y16464
X37205Y16464
X38205Y16464
X39205Y16464
X40205Y16464
X41205Y16464
X42205Y16464
X42205Y18464
X41205Y18464
X40205Y18464
X39205Y18464
X38205Y18464
X37205Y18464
X36205Y18464
X35205Y18464
X51241Y18193
X52241Y18193
X52241Y17193
X51241Y17193
X51241Y16193
X52241Y16193
X52241Y15193
X51241Y15193
X51241Y14193
X52241Y14193
X53241Y12193
X54241Y12193
X55241Y12193
X56241Y12193
X57241Y12193
X58241Y12193
X59241Y12193
X60241Y12193
X62241Y12193
X63241Y12193
X64241Y12193
X65241Y12193
X66241Y12193
X67241Y12193
X68241Y12193
X69241Y12193
X71241Y12193
X72241Y12193
X73241Y12193
X74241Y12193
X75241Y12193
X76241Y12193
X64241Y21193
X64241Y22193
X63241Y22193
X63241Y23193
X64241Y23193
X52241Y23193
X51241Y23193
X51241Y22193
X52241Y22193
X52241Y21193
X51241Y21193
X51241Y20193
X52241Y20193
X52241Y19193
X51241Y19193
X51241Y24193
X52241Y24193
X52241Y25193
X51241Y25193
X51241Y26193
X52241Y26193
X52241Y27193
X51241Y27193
X51241Y28193
X52241Y28193
X52241Y29193
X51241Y29193
X51241Y30193
X52241Y30193
X52241Y31193
X51241Y31193
X55241Y31193
X56241Y31193
X57241Y31193
X58241Y31193
X59241Y31193
X60241Y31193
X61241Y31193
X62241Y31193
X64241Y31193
X65241Y31193
X66241Y31193
X67241Y31193
X68241Y31193
X69241Y31193
X70241Y31193
X71241Y31193
X72841Y31193
X73841Y31193
X74841Y31193
X75841Y31193
X76841Y31193
X77841Y31193
X78841Y31193
X79841Y31193
T06
X49546Y31078
X48546Y31078
T07
X32548Y23673
X31548Y23673
X31548Y22673
X32548Y22673
X32548Y21673
X31548Y21673
X31548Y20673
X32548Y20673
X32548Y19673
X31548Y19673
X31548Y18673
X32548Y18673
X32548Y17673
X31548Y17673
X31548Y16673
X32548Y16673
X32548Y15673
X31548Y15673
X31548Y14673
X32548Y14673
X32548Y13673
X31548Y13673
X31548Y12673
X32548Y12673
X32548Y11673
X31548Y11673
X43446Y11303
X43446Y10303
X43446Y9303
X43446Y8303
X43446Y7303
X43446Y6303
X43446Y5303
X59196Y6303
X60196Y6303
X60196Y7303
X59196Y7303
X59196Y8303
X60196Y8303
X60196Y9303
X59196Y9303
X59196Y10303
X60196Y10303
X70921Y5628
X71921Y5628
X72921Y5628
X73921Y5628
X74921Y5628
X74921Y4628
X73921Y4628
X72921Y4628
X71921Y4628
X70921Y4628
X66896Y4728
X65896Y4728
X64896Y4728
X63896Y4728
X62896Y4728
X61896Y4728
X43446Y12303
X17407Y12618
X16407Y12618
X16407Y13618
X17407Y13618
X17407Y14618
X16407Y14618
X16407Y15618
X17407Y15618
X17407Y16618
X16407Y16618
X16407Y17618
X17407Y17618
X17407Y18618
X16407Y18618
X16407Y19618
X17407Y19618
X17407Y20618
X16407Y20618
X16407Y21618
X17407Y21618
X17407Y22618
X16407Y22618
X16407Y23618
X17407Y23618
X17407Y11618
X16407Y11618
X83046Y24878
X84046Y24878
X84046Y25878
X83046Y25878
X83046Y26878
X84046Y26878
X84046Y27878
X83046Y27878
T08
X63241Y21193
T09
X31977Y6835
X17133Y6778
T10
X18898Y12440
X20882Y12440
X22866Y12440
X28819Y12440
X28819Y15417
X22866Y15417
X20882Y15417
X18898Y15417
X19123Y18365
X25075Y18365
X27060Y18365
X29044Y18365
X29044Y21342
X27060Y21342
X25075Y21342
X19123Y21342
X69641Y22378
X77511Y22378
T11
X83433Y8865
X83433Y7015
X83433Y5165
T12
X79496Y6031
X46032Y6031
X46032Y29259
X79496Y29259
T13
X7055Y6622
X13374Y6622
X20874Y6622
X28374Y6622
X35874Y6622
M30
