G75*
G70*
%OFA0B0*%
%FSLAX24Y24*%
%IPPOS*%
%LPD*%
%AMOC8*
5,1,8,0,0,1.08239X$1,22.5*
%
%ADD10R,0.0044X0.0001*%
%ADD11C,0.0040*%
%ADD12C,0.0100*%
%ADD13C,0.0060*%
%ADD14C,0.0070*%
%ADD15C,0.0050*%
%ADD16R,0.0079X0.0079*%
%ADD17C,0.0020*%
D10*
X032821Y000101D03*
D11*
X022395Y010937D02*
X022154Y010937D01*
X022026Y011057D02*
X021966Y010997D01*
X021846Y010997D01*
X021786Y011057D01*
X021786Y011298D01*
X021846Y011358D01*
X021966Y011358D01*
X022026Y011298D01*
X022026Y011057D01*
X021658Y010997D02*
X021418Y011238D01*
X021418Y011298D01*
X021478Y011358D01*
X021598Y011358D01*
X021658Y011298D01*
X021658Y010997D02*
X021418Y010997D01*
X022523Y011057D02*
X022523Y011298D01*
X022583Y011358D01*
X022763Y011358D01*
X022763Y010997D01*
X022583Y010997D01*
X022523Y011057D01*
X022891Y010997D02*
X023131Y010997D01*
X023131Y011358D01*
X022891Y011358D01*
X023011Y011178D02*
X023131Y011178D01*
X023259Y010997D02*
X023500Y010997D01*
X023500Y011358D01*
X019204Y012205D02*
X019204Y012565D01*
X019024Y012565D01*
X018964Y012505D01*
X018964Y012385D01*
X019024Y012325D01*
X019204Y012325D01*
X018836Y012325D02*
X018716Y012445D01*
X018655Y012445D01*
X018529Y012385D02*
X018529Y012265D01*
X018469Y012205D01*
X018349Y012205D01*
X018288Y012265D01*
X018288Y012385D01*
X018349Y012445D01*
X018469Y012445D01*
X018529Y012385D01*
X018836Y012445D02*
X018836Y012205D01*
X018160Y012445D02*
X018040Y012445D01*
X018100Y012505D02*
X018100Y012265D01*
X018040Y012205D01*
X017915Y012265D02*
X017915Y012385D01*
X017855Y012445D01*
X017735Y012445D01*
X017675Y012385D01*
X017675Y012325D01*
X017915Y012325D01*
X017915Y012265D02*
X017855Y012205D01*
X017735Y012205D01*
X017547Y012265D02*
X017547Y012385D01*
X017486Y012445D01*
X017306Y012445D01*
X017178Y012445D02*
X017058Y012445D01*
X017118Y012505D02*
X017118Y012265D01*
X017058Y012205D01*
X016933Y012205D02*
X016813Y012205D01*
X016873Y012205D02*
X016873Y012445D01*
X016933Y012445D01*
X016873Y012565D02*
X016873Y012625D01*
X016811Y012805D02*
X016871Y012865D01*
X016871Y012985D01*
X016811Y013045D01*
X016691Y013045D01*
X016631Y012985D01*
X016631Y012925D01*
X016871Y012925D01*
X016811Y012805D02*
X016691Y012805D01*
X016997Y012805D02*
X017057Y012865D01*
X017057Y013105D01*
X017117Y013045D02*
X016997Y013045D01*
X017245Y012985D02*
X017305Y013045D01*
X017425Y013045D01*
X017485Y012985D01*
X017485Y012865D01*
X017425Y012805D01*
X017305Y012805D01*
X017245Y012865D01*
X017245Y012985D01*
X017613Y012985D02*
X017613Y012805D01*
X017733Y012805D02*
X017733Y012985D01*
X017673Y013045D01*
X017613Y012985D01*
X017733Y012985D02*
X017793Y013045D01*
X017853Y013045D01*
X017853Y012805D01*
X017982Y012925D02*
X018222Y012925D01*
X018222Y012985D02*
X018162Y013045D01*
X018042Y013045D01*
X017982Y012985D01*
X017982Y012925D01*
X018042Y012805D02*
X018162Y012805D01*
X018222Y012865D01*
X018222Y012985D01*
X018350Y012985D02*
X018410Y012925D01*
X018590Y012925D01*
X018470Y012925D02*
X018350Y012805D01*
X018350Y012985D02*
X018350Y013105D01*
X018410Y013165D01*
X018590Y013165D01*
X018590Y012805D01*
X018590Y013405D02*
X018590Y013765D01*
X018410Y013765D01*
X018350Y013705D01*
X018350Y013585D01*
X018410Y013525D01*
X018590Y013525D01*
X018470Y013525D02*
X018350Y013405D01*
X018222Y013465D02*
X018222Y013585D01*
X018162Y013645D01*
X018042Y013645D01*
X017982Y013585D01*
X017982Y013525D01*
X018222Y013525D01*
X018222Y013465D02*
X018162Y013405D01*
X018042Y013405D01*
X017853Y013405D02*
X017853Y013645D01*
X017793Y013645D01*
X017733Y013585D01*
X017673Y013645D01*
X017613Y013585D01*
X017613Y013405D01*
X017733Y013405D02*
X017733Y013585D01*
X017485Y013585D02*
X017425Y013645D01*
X017305Y013645D01*
X017245Y013585D01*
X017245Y013465D01*
X017305Y013405D01*
X017425Y013405D01*
X017485Y013465D01*
X017485Y013585D01*
X017117Y013645D02*
X016997Y013645D01*
X017057Y013705D02*
X017057Y013465D01*
X016997Y013405D01*
X016871Y013465D02*
X016871Y013585D01*
X016811Y013645D01*
X016691Y013645D01*
X016631Y013585D01*
X016631Y013525D01*
X016871Y013525D01*
X016871Y013465D02*
X016811Y013405D01*
X016691Y013405D01*
X016135Y013405D02*
X015955Y013405D01*
X015894Y013465D01*
X015955Y013525D01*
X016075Y013525D01*
X016135Y013585D01*
X016075Y013645D01*
X015894Y013645D01*
X015766Y013585D02*
X015706Y013645D01*
X015586Y013645D01*
X015526Y013585D01*
X015526Y013525D01*
X015766Y013525D01*
X015766Y013465D02*
X015766Y013585D01*
X015766Y013465D02*
X015706Y013405D01*
X015586Y013405D01*
X015398Y013405D02*
X015398Y013645D01*
X015218Y013645D01*
X015158Y013585D01*
X015158Y013405D01*
X015030Y013405D02*
X014850Y013405D01*
X014790Y013465D01*
X014850Y013525D01*
X014970Y013525D01*
X015030Y013585D01*
X014970Y013645D01*
X014790Y013645D01*
X014661Y013585D02*
X014601Y013645D01*
X014481Y013645D01*
X014421Y013585D01*
X014421Y013525D01*
X014661Y013525D01*
X014661Y013465D02*
X014661Y013585D01*
X014661Y013465D02*
X014601Y013405D01*
X014481Y013405D01*
X014293Y013585D02*
X014053Y013585D01*
X014173Y013705D02*
X014173Y013465D01*
X014293Y012985D02*
X014053Y012985D01*
X014421Y012985D02*
X014421Y012925D01*
X014661Y012925D01*
X014661Y012985D02*
X014601Y013045D01*
X014481Y013045D01*
X014421Y012985D01*
X014481Y012805D02*
X014601Y012805D01*
X014661Y012865D01*
X014661Y012985D01*
X014790Y013045D02*
X014970Y013045D01*
X015030Y012985D01*
X014970Y012925D01*
X014850Y012925D01*
X014790Y012865D01*
X014850Y012805D01*
X015030Y012805D01*
X015158Y012805D02*
X015158Y012985D01*
X015218Y013045D01*
X015398Y013045D01*
X015398Y012805D01*
X015526Y012925D02*
X015766Y012925D01*
X015766Y012985D02*
X015706Y013045D01*
X015586Y013045D01*
X015526Y012985D01*
X015526Y012925D01*
X015586Y012805D02*
X015706Y012805D01*
X015766Y012865D01*
X015766Y012985D01*
X015894Y013045D02*
X016075Y013045D01*
X016135Y012985D01*
X016075Y012925D01*
X015955Y012925D01*
X015894Y012865D01*
X015955Y012805D01*
X016135Y012805D01*
X016139Y012445D02*
X016079Y012385D01*
X016079Y012325D01*
X016319Y012325D01*
X016319Y012385D02*
X016259Y012445D01*
X016139Y012445D01*
X016319Y012385D02*
X016319Y012265D01*
X016259Y012205D01*
X016139Y012205D01*
X016447Y012445D02*
X016567Y012205D01*
X016687Y012445D01*
X017306Y012205D02*
X017486Y012205D01*
X017547Y012265D01*
X015582Y012265D02*
X015582Y012385D01*
X015522Y012445D01*
X015402Y012445D01*
X015342Y012385D01*
X015342Y012325D01*
X015582Y012325D01*
X015582Y012265D02*
X015522Y012205D01*
X015402Y012205D01*
X015214Y012265D02*
X015154Y012325D01*
X014974Y012325D01*
X014974Y012385D02*
X014974Y012205D01*
X015154Y012205D01*
X015214Y012265D01*
X015154Y012445D02*
X015034Y012445D01*
X014974Y012385D01*
X014846Y012445D02*
X014846Y012205D01*
X014846Y012325D02*
X014725Y012445D01*
X014665Y012445D01*
X014539Y012445D02*
X014419Y012445D01*
X014479Y012505D02*
X014479Y012265D01*
X014419Y012205D01*
X014293Y012205D02*
X014293Y012565D01*
X014233Y012445D02*
X014113Y012445D01*
X014053Y012385D01*
X014053Y012205D01*
X014293Y012385D02*
X014233Y012445D01*
X013556Y012385D02*
X013556Y012265D01*
X013496Y012205D01*
X013376Y012205D01*
X013316Y012265D01*
X013316Y012325D01*
X013376Y012385D01*
X013556Y012385D01*
X013436Y012505D01*
X013316Y012565D01*
X013376Y012805D02*
X013496Y012805D01*
X013556Y012865D01*
X013556Y012985D02*
X013436Y013045D01*
X013376Y013045D01*
X013316Y012985D01*
X013316Y012865D01*
X013376Y012805D01*
X013556Y012985D02*
X013556Y013165D01*
X013316Y013165D01*
X013376Y013405D02*
X013376Y013765D01*
X013556Y013585D01*
X013316Y013585D01*
X013376Y014005D02*
X013496Y014005D01*
X013556Y014065D01*
X013436Y014185D02*
X013376Y014185D01*
X013316Y014125D01*
X013316Y014065D01*
X013376Y014005D01*
X013376Y014185D02*
X013316Y014245D01*
X013316Y014305D01*
X013376Y014365D01*
X013496Y014365D01*
X013556Y014305D01*
X013556Y014605D02*
X013316Y014845D01*
X013316Y014905D01*
X013376Y014965D01*
X013496Y014965D01*
X013556Y014905D01*
X013556Y015205D02*
X013316Y015205D01*
X013436Y015205D02*
X013436Y015565D01*
X013556Y015445D01*
X014053Y015445D02*
X014233Y015445D01*
X014293Y015385D01*
X014293Y015265D01*
X014233Y015205D01*
X014053Y015205D01*
X014053Y015145D02*
X014053Y015445D01*
X014053Y015145D02*
X014113Y015085D01*
X014173Y015085D01*
X014053Y014965D02*
X014053Y014605D01*
X014233Y014605D01*
X014293Y014665D01*
X014293Y014785D01*
X014233Y014845D01*
X014053Y014845D01*
X014421Y014785D02*
X014421Y014605D01*
X014421Y014785D02*
X014481Y014845D01*
X014661Y014845D01*
X014661Y014605D01*
X014790Y014605D02*
X014790Y014845D01*
X015030Y014845D02*
X015030Y014665D01*
X014970Y014605D01*
X014790Y014605D01*
X014790Y014365D02*
X014790Y014005D01*
X015030Y014365D01*
X015030Y014005D01*
X014661Y014005D02*
X014601Y014005D01*
X014601Y014065D01*
X014661Y014065D01*
X014661Y014005D01*
X014477Y014065D02*
X014417Y014005D01*
X014297Y014005D01*
X014237Y014065D01*
X014109Y014065D02*
X014109Y014005D01*
X014049Y014005D01*
X014049Y014065D01*
X014109Y014065D01*
X014237Y014305D02*
X014297Y014365D01*
X014417Y014365D01*
X014477Y014305D01*
X014477Y014065D01*
X015158Y014665D02*
X015158Y014785D01*
X015218Y014845D01*
X015338Y014845D01*
X015398Y014785D01*
X015398Y014665D01*
X015338Y014605D01*
X015218Y014605D01*
X015158Y014665D01*
X015525Y014845D02*
X015585Y014845D01*
X015705Y014725D01*
X015705Y014605D02*
X015705Y014845D01*
X015833Y014845D02*
X016013Y014845D01*
X016073Y014785D01*
X016073Y014665D01*
X016013Y014605D01*
X015833Y014605D01*
X015833Y014545D02*
X015833Y014845D01*
X015833Y014545D02*
X015893Y014485D01*
X015953Y014485D01*
X016567Y014605D02*
X016687Y014605D01*
X016627Y014605D02*
X016627Y014965D01*
X016687Y014965D01*
X016567Y015085D02*
X016507Y015085D01*
X016447Y015145D01*
X016447Y015445D01*
X016627Y015445D01*
X016687Y015385D01*
X016687Y015265D01*
X016627Y015205D01*
X016447Y015205D01*
X016319Y015205D02*
X016319Y015445D01*
X016319Y015325D02*
X016199Y015445D01*
X016139Y015445D01*
X015952Y015445D02*
X015832Y015445D01*
X015772Y015385D01*
X015772Y015205D01*
X015952Y015205D01*
X016012Y015265D01*
X015952Y015325D01*
X015772Y015325D01*
X015644Y015205D02*
X015644Y015445D01*
X015584Y015445D01*
X015523Y015385D01*
X015463Y015445D01*
X015403Y015385D01*
X015403Y015205D01*
X015523Y015205D02*
X015523Y015385D01*
X015275Y015445D02*
X015275Y015205D01*
X015155Y015205D02*
X015155Y015385D01*
X015095Y015445D01*
X015035Y015385D01*
X015035Y015205D01*
X014907Y015205D02*
X014787Y015205D01*
X014847Y015205D02*
X014847Y015445D01*
X014907Y015445D01*
X014847Y015565D02*
X014847Y015625D01*
X014661Y015445D02*
X014481Y015445D01*
X014421Y015385D01*
X014421Y015205D01*
X014661Y015205D02*
X014661Y015445D01*
X015155Y015385D02*
X015215Y015445D01*
X015275Y015445D01*
X015543Y016080D02*
X015783Y016080D01*
X015543Y016320D01*
X015543Y016380D01*
X015603Y016440D01*
X015723Y016440D01*
X015783Y016380D01*
X015911Y016320D02*
X015971Y016320D01*
X016152Y016320D01*
X016152Y016200D02*
X015911Y016200D01*
X015971Y016080D02*
X015971Y016440D01*
X016091Y016440D02*
X016091Y016080D01*
X016280Y016080D02*
X016280Y016260D01*
X016340Y016320D01*
X016460Y016320D01*
X016520Y016260D01*
X016648Y016380D02*
X016708Y016440D01*
X016828Y016440D01*
X016888Y016380D01*
X016888Y016140D01*
X016828Y016080D01*
X016708Y016080D01*
X016648Y016140D01*
X016520Y016080D02*
X016520Y016440D01*
X015047Y016260D02*
X015047Y016140D01*
X014987Y016080D01*
X014806Y016080D01*
X014678Y016140D02*
X014618Y016080D01*
X014498Y016080D01*
X014438Y016140D01*
X014438Y016260D01*
X014498Y016320D01*
X014618Y016320D01*
X014678Y016260D01*
X014678Y016140D01*
X014806Y016320D02*
X014987Y016320D01*
X015047Y016260D01*
X014310Y016320D02*
X014130Y016320D01*
X014070Y016260D01*
X014070Y016080D01*
X013882Y016140D02*
X013822Y016080D01*
X013882Y016140D02*
X013882Y016380D01*
X013942Y016320D02*
X013822Y016320D01*
X013696Y016320D02*
X013696Y016080D01*
X013696Y016200D02*
X013576Y016320D01*
X013516Y016320D01*
X013389Y016260D02*
X013389Y016140D01*
X013329Y016080D01*
X013209Y016080D01*
X013149Y016140D01*
X013149Y016260D01*
X013209Y016320D01*
X013329Y016320D01*
X013389Y016260D01*
X013021Y016440D02*
X012961Y016440D01*
X012961Y016080D01*
X013021Y016080D02*
X012901Y016080D01*
X012407Y016080D02*
X012167Y016440D01*
X012039Y016380D02*
X011979Y016440D01*
X011859Y016440D01*
X011798Y016380D01*
X011798Y016320D01*
X011859Y016260D01*
X011798Y016200D01*
X011798Y016140D01*
X011859Y016080D01*
X011979Y016080D01*
X012039Y016140D01*
X012167Y016080D02*
X012407Y016440D01*
X011919Y016260D02*
X011859Y016260D01*
X014310Y016320D02*
X014310Y016080D01*
X016815Y015385D02*
X016815Y015265D01*
X016875Y015205D01*
X016995Y015205D01*
X017055Y015265D01*
X017055Y015385D01*
X016995Y015445D01*
X016875Y015445D01*
X016815Y015385D01*
X017182Y015445D02*
X017242Y015445D01*
X017362Y015325D01*
X017362Y015205D02*
X017362Y015445D01*
X017490Y015385D02*
X017490Y015265D01*
X017551Y015205D01*
X017731Y015205D01*
X017731Y015085D02*
X017731Y015445D01*
X017551Y015445D01*
X017490Y015385D01*
X018227Y015385D02*
X018227Y015325D01*
X018467Y015325D01*
X018467Y015265D02*
X018467Y015385D01*
X018407Y015445D01*
X018287Y015445D01*
X018227Y015385D01*
X018287Y015205D02*
X018407Y015205D01*
X018467Y015265D01*
X018593Y015205D02*
X018653Y015265D01*
X018653Y015505D01*
X018713Y015445D02*
X018593Y015445D01*
X018841Y015385D02*
X018901Y015445D01*
X019021Y015445D01*
X019081Y015385D01*
X019081Y015265D01*
X019021Y015205D01*
X018901Y015205D01*
X018841Y015265D01*
X018841Y015385D01*
X019209Y015385D02*
X019209Y015205D01*
X019329Y015205D02*
X019329Y015385D01*
X019269Y015445D01*
X019209Y015385D01*
X019329Y015385D02*
X019389Y015445D01*
X019449Y015445D01*
X019449Y015205D01*
X019578Y015325D02*
X019818Y015325D01*
X019818Y015265D02*
X019818Y015385D01*
X019758Y015445D01*
X019638Y015445D01*
X019578Y015385D01*
X019578Y015325D01*
X019638Y015205D02*
X019758Y015205D01*
X019818Y015265D01*
X019946Y015205D02*
X020066Y015325D01*
X020006Y015325D02*
X020186Y015325D01*
X020186Y015205D02*
X020186Y015565D01*
X020006Y015565D01*
X019946Y015505D01*
X019946Y015385D01*
X020006Y015325D01*
X018897Y014905D02*
X018897Y014665D01*
X018837Y014605D01*
X018717Y014605D01*
X018657Y014665D01*
X018529Y014605D02*
X018529Y014965D01*
X018469Y014845D02*
X018349Y014845D01*
X018288Y014785D01*
X018288Y014605D01*
X018160Y014665D02*
X018100Y014725D01*
X017920Y014725D01*
X017920Y014785D02*
X017920Y014605D01*
X018100Y014605D01*
X018160Y014665D01*
X018100Y014845D02*
X017980Y014845D01*
X017920Y014785D01*
X017792Y014845D02*
X017612Y014845D01*
X017552Y014785D01*
X017552Y014605D01*
X017424Y014605D02*
X017424Y014845D01*
X017244Y014845D01*
X017184Y014785D01*
X017184Y014605D01*
X017055Y014665D02*
X017055Y014785D01*
X016995Y014845D01*
X016875Y014845D01*
X016815Y014785D01*
X016815Y014725D01*
X017055Y014725D01*
X017055Y014665D02*
X016995Y014605D01*
X016875Y014605D01*
X017792Y014605D02*
X017792Y014845D01*
X018469Y014845D02*
X018529Y014785D01*
X018657Y014905D02*
X018717Y014965D01*
X018837Y014965D01*
X018897Y014905D01*
X013556Y014605D02*
X013316Y014605D01*
X028773Y011323D02*
X028773Y011203D01*
X028833Y011142D01*
X029013Y011142D01*
X029013Y011022D02*
X029013Y011383D01*
X028833Y011383D01*
X028773Y011323D01*
X029141Y011323D02*
X029202Y011383D01*
X029322Y011383D01*
X029382Y011323D01*
X029382Y011263D01*
X029322Y011203D01*
X029202Y011203D01*
X029141Y011142D01*
X029141Y011082D01*
X029202Y011022D01*
X029322Y011022D01*
X029382Y011082D01*
X029510Y010962D02*
X029750Y010962D01*
X029878Y011082D02*
X029878Y011323D01*
X029938Y011383D01*
X030118Y011383D01*
X030118Y011022D01*
X029938Y011022D01*
X029878Y011082D01*
X030246Y011022D02*
X030487Y011022D01*
X030487Y011383D01*
X030246Y011383D01*
X030366Y011203D02*
X030487Y011203D01*
X030615Y011022D02*
X030855Y011022D01*
X030855Y011383D01*
X036269Y011022D02*
X036509Y011022D01*
X036389Y011022D02*
X036389Y011383D01*
X036509Y011263D01*
X036637Y011323D02*
X036697Y011383D01*
X036817Y011383D01*
X036877Y011323D01*
X036877Y011082D01*
X036817Y011022D01*
X036697Y011022D01*
X036637Y011082D01*
X036637Y011323D01*
X037005Y010962D02*
X037245Y010962D01*
X037374Y011082D02*
X037374Y011323D01*
X037434Y011383D01*
X037614Y011383D01*
X037614Y011022D01*
X037434Y011022D01*
X037374Y011082D01*
X037742Y011022D02*
X037982Y011022D01*
X037982Y011383D01*
X037742Y011383D01*
X037862Y011203D02*
X037982Y011203D01*
X038110Y011022D02*
X038350Y011022D01*
X038350Y011383D01*
X050362Y014880D02*
X050602Y014640D01*
X050602Y014580D01*
X050730Y014580D02*
X050970Y014940D01*
X050730Y014940D02*
X050970Y014580D01*
X051464Y014580D02*
X051524Y014640D01*
X051524Y014880D01*
X051584Y014820D02*
X051464Y014820D01*
X051712Y014760D02*
X051712Y014700D01*
X051953Y014700D01*
X051953Y014760D02*
X051892Y014820D01*
X051772Y014820D01*
X051712Y014760D01*
X051772Y014580D02*
X051892Y014580D01*
X051953Y014640D01*
X051953Y014760D01*
X052081Y014760D02*
X052081Y014580D01*
X052081Y014760D02*
X052141Y014820D01*
X052321Y014820D01*
X052321Y014580D01*
X052448Y014820D02*
X052508Y014820D01*
X052628Y014700D01*
X052628Y014580D02*
X052628Y014820D01*
X052756Y014760D02*
X052756Y014700D01*
X052996Y014700D01*
X052996Y014760D02*
X052936Y014820D01*
X052816Y014820D01*
X052756Y014760D01*
X052816Y014580D02*
X052936Y014580D01*
X052996Y014640D01*
X052996Y014760D01*
X053124Y014760D02*
X053124Y014580D01*
X053124Y014760D02*
X053184Y014820D01*
X053304Y014820D01*
X053364Y014760D01*
X053490Y014820D02*
X053610Y014820D01*
X053550Y014880D02*
X053550Y014640D01*
X053490Y014580D01*
X053364Y014580D02*
X053364Y014940D01*
X053738Y014940D02*
X053978Y014940D01*
X053978Y014580D01*
X053738Y014580D01*
X053858Y014760D02*
X053978Y014760D01*
X054475Y014760D02*
X054475Y014640D01*
X054535Y014580D01*
X054655Y014580D01*
X054715Y014640D01*
X054715Y014760D02*
X054595Y014820D01*
X054535Y014820D01*
X054475Y014760D01*
X054475Y014940D02*
X054715Y014940D01*
X054715Y014760D01*
X054843Y014760D02*
X055083Y014760D01*
X054903Y014940D01*
X054903Y014580D01*
X055211Y014760D02*
X055452Y014760D01*
X055580Y014940D02*
X055700Y014940D01*
X055640Y014940D02*
X055640Y014640D01*
X055700Y014580D01*
X055760Y014580D01*
X055820Y014640D01*
X055948Y014580D02*
X056068Y014700D01*
X056008Y014700D02*
X056188Y014700D01*
X056188Y014580D02*
X056188Y014940D01*
X056008Y014940D01*
X055948Y014880D01*
X055948Y014760D01*
X056008Y014700D01*
X055987Y014065D02*
X055987Y013705D01*
X055747Y013705D01*
X055619Y013705D02*
X055379Y013705D01*
X055250Y013705D02*
X055070Y013705D01*
X055010Y013765D01*
X055010Y014005D01*
X055070Y014065D01*
X055250Y014065D01*
X055250Y013705D01*
X055069Y013465D02*
X054949Y013345D01*
X054949Y013105D01*
X054821Y013165D02*
X054761Y013105D01*
X054581Y013105D01*
X054392Y013165D02*
X054332Y013105D01*
X054392Y013165D02*
X054392Y013405D01*
X054452Y013345D02*
X054332Y013345D01*
X054207Y013345D02*
X054147Y013345D01*
X054147Y013105D01*
X054207Y013105D02*
X054087Y013105D01*
X053841Y013105D02*
X053721Y013345D01*
X053593Y013285D02*
X053533Y013345D01*
X053413Y013345D01*
X053353Y013285D01*
X053353Y013225D01*
X053593Y013225D01*
X053593Y013165D02*
X053593Y013285D01*
X053593Y013165D02*
X053533Y013105D01*
X053413Y013105D01*
X053353Y012865D02*
X053353Y012505D01*
X053533Y012505D01*
X053593Y012565D01*
X053593Y012685D01*
X053533Y012745D01*
X053353Y012745D01*
X053719Y012505D02*
X053839Y012505D01*
X053779Y012505D02*
X053779Y012865D01*
X053839Y012865D01*
X053967Y012685D02*
X054027Y012745D01*
X054147Y012745D01*
X054207Y012685D01*
X054207Y012565D01*
X054147Y012505D01*
X054027Y012505D01*
X053967Y012625D02*
X054207Y012625D01*
X054332Y012505D02*
X054452Y012505D01*
X054392Y012505D02*
X054392Y012745D01*
X054452Y012745D01*
X054392Y012865D02*
X054392Y012925D01*
X054581Y012685D02*
X054641Y012745D01*
X054761Y012745D01*
X054821Y012685D01*
X054949Y012625D02*
X054949Y012565D01*
X055009Y012505D01*
X055129Y012505D01*
X055189Y012565D01*
X055129Y012685D02*
X055009Y012685D01*
X054949Y012625D01*
X054821Y012505D02*
X054821Y012865D01*
X054949Y012805D02*
X055009Y012865D01*
X055129Y012865D01*
X055189Y012805D01*
X055189Y012745D01*
X055129Y012685D01*
X055189Y013105D02*
X055189Y013345D01*
X055069Y013465D01*
X055189Y013285D02*
X054949Y013285D01*
X054821Y013285D02*
X054821Y013165D01*
X054821Y013285D02*
X054761Y013345D01*
X054581Y013345D01*
X054514Y013705D02*
X054274Y013705D01*
X054146Y013705D02*
X054025Y013705D01*
X054086Y013705D02*
X054086Y013945D01*
X054146Y013945D01*
X054086Y014065D02*
X054086Y014125D01*
X053900Y013945D02*
X053720Y013945D01*
X053660Y013885D01*
X053660Y013705D01*
X053532Y013705D02*
X053532Y014065D01*
X053352Y013945D02*
X053532Y013825D01*
X053352Y013705D01*
X052856Y013705D02*
X052616Y013705D01*
X052736Y013705D02*
X052736Y014065D01*
X052856Y013945D01*
X052796Y013465D02*
X052856Y013405D01*
X052796Y013465D02*
X052676Y013465D01*
X052616Y013405D01*
X052616Y013345D01*
X052856Y013105D01*
X052616Y013105D01*
X052676Y012865D02*
X052616Y012805D01*
X052616Y012745D01*
X052676Y012685D01*
X052616Y012625D01*
X052616Y012565D01*
X052676Y012505D01*
X052796Y012505D01*
X052856Y012565D01*
X052736Y012685D02*
X052676Y012685D01*
X052676Y012865D02*
X052796Y012865D01*
X052856Y012805D01*
X053841Y013105D02*
X053961Y013345D01*
X054147Y013465D02*
X054147Y013525D01*
X053900Y013705D02*
X053900Y013945D01*
X054514Y014065D02*
X054514Y013705D01*
X055379Y014065D02*
X055619Y014065D01*
X055619Y013705D01*
X055619Y013885D02*
X055499Y013885D01*
X055746Y013465D02*
X055926Y013465D01*
X055926Y013105D01*
X055746Y013105D01*
X055686Y013165D01*
X055686Y013405D01*
X055746Y013465D01*
X056054Y013465D02*
X056294Y013465D01*
X056294Y013105D01*
X056054Y013105D01*
X056174Y013285D02*
X056294Y013285D01*
X056422Y013105D02*
X056662Y013105D01*
X056662Y013465D01*
X054581Y012685D02*
X054581Y012505D01*
X054330Y012265D02*
X054150Y012265D01*
X054090Y012205D01*
X054090Y012085D01*
X054150Y012025D01*
X054330Y012025D01*
X054330Y011905D02*
X054330Y012265D01*
X054210Y012025D02*
X054090Y011905D01*
X053961Y011905D02*
X053721Y012265D01*
X053593Y012085D02*
X053353Y012085D01*
X053473Y012205D02*
X053473Y011965D01*
X053721Y011905D02*
X053961Y012265D01*
X053967Y012625D02*
X053967Y012685D01*
X052856Y012085D02*
X052616Y012085D01*
X052676Y012265D02*
X052856Y012085D01*
X052676Y011905D02*
X052676Y012265D01*
X052616Y011665D02*
X052856Y011665D01*
X052856Y011485D01*
X052736Y011545D01*
X052676Y011545D01*
X052616Y011485D01*
X052616Y011365D01*
X052676Y011305D01*
X052796Y011305D01*
X052856Y011365D01*
X052736Y011005D02*
X052856Y010885D01*
X052676Y010885D01*
X052616Y010825D01*
X052616Y010765D01*
X052676Y010705D01*
X052796Y010705D01*
X052856Y010765D01*
X052856Y010885D01*
X052736Y011005D02*
X052616Y011065D01*
X053353Y010885D02*
X053593Y010885D01*
X053473Y011005D02*
X053473Y010765D01*
X053721Y010705D02*
X053961Y011065D01*
X054090Y011065D02*
X054330Y011065D01*
X054210Y011065D02*
X054210Y010705D01*
X054210Y010465D02*
X054210Y010105D01*
X053961Y010105D02*
X053721Y010465D01*
X053593Y010285D02*
X053353Y010285D01*
X053721Y010105D02*
X053961Y010465D01*
X054090Y010465D02*
X054330Y010465D01*
X053961Y010705D02*
X053721Y011065D01*
X053721Y011305D02*
X053961Y011665D01*
X054090Y011605D02*
X054090Y011485D01*
X054150Y011425D01*
X054330Y011425D01*
X054330Y011305D02*
X054330Y011665D01*
X054150Y011665D01*
X054090Y011605D01*
X054210Y011425D02*
X054090Y011305D01*
X053961Y011305D02*
X053721Y011665D01*
X053593Y011485D02*
X053353Y011485D01*
X052856Y010465D02*
X052616Y010465D01*
X052616Y010405D01*
X052856Y010165D01*
X052856Y010105D01*
X052796Y009865D02*
X052676Y009865D01*
X052616Y009805D01*
X052616Y009745D01*
X052676Y009685D01*
X052796Y009685D01*
X052856Y009745D01*
X052856Y009805D01*
X052796Y009865D01*
X052796Y009685D02*
X052856Y009625D01*
X052856Y009565D01*
X052796Y009505D01*
X052676Y009505D01*
X052616Y009565D01*
X052616Y009625D01*
X052676Y009685D01*
X053353Y009625D02*
X053353Y009865D01*
X053593Y009865D02*
X053593Y009625D01*
X053473Y009505D01*
X053353Y009625D01*
X053721Y009625D02*
X053721Y009565D01*
X053781Y009505D01*
X053901Y009505D01*
X053961Y009565D01*
X054086Y009565D02*
X054086Y009505D01*
X054146Y009505D01*
X054146Y009565D01*
X054086Y009565D01*
X054274Y009565D02*
X054334Y009505D01*
X054454Y009505D01*
X054514Y009565D01*
X054394Y009685D02*
X054334Y009685D01*
X054274Y009625D01*
X054274Y009565D01*
X054334Y009685D02*
X054274Y009745D01*
X054274Y009805D01*
X054334Y009865D01*
X054454Y009865D01*
X054514Y009805D01*
X054642Y009685D02*
X054882Y009685D01*
X054762Y009805D02*
X054762Y009565D01*
X053961Y009805D02*
X053901Y009865D01*
X053781Y009865D01*
X053721Y009805D01*
X053721Y009745D01*
X053781Y009685D01*
X053721Y009625D01*
X053781Y009685D02*
X053841Y009685D01*
X057466Y008539D02*
X057526Y008599D01*
X057646Y008599D01*
X057706Y008539D01*
X057835Y008419D02*
X058075Y008419D01*
X057895Y008599D01*
X057895Y008239D01*
X057706Y008239D02*
X057466Y008479D01*
X057466Y008539D01*
X057466Y008239D02*
X057706Y008239D01*
X058203Y008299D02*
X058263Y008239D01*
X058383Y008239D01*
X058443Y008299D01*
X058443Y008539D01*
X058383Y008599D01*
X058263Y008599D01*
X058203Y008539D01*
X068594Y011640D02*
X068655Y011580D01*
X068775Y011580D01*
X068835Y011640D01*
X068835Y011700D01*
X068775Y011760D01*
X068655Y011760D01*
X068594Y011700D01*
X068594Y011640D01*
X068655Y011760D02*
X068594Y011820D01*
X068594Y011880D01*
X068655Y011940D01*
X068775Y011940D01*
X068835Y011880D01*
X068835Y011820D01*
X068775Y011760D01*
X068963Y011940D02*
X069203Y011580D01*
X068963Y011580D02*
X069203Y011940D01*
X069698Y011820D02*
X069758Y011820D01*
X069878Y011700D01*
X069878Y011580D02*
X069878Y011820D01*
X070006Y011760D02*
X070006Y011700D01*
X070247Y011700D01*
X070247Y011760D02*
X070187Y011820D01*
X070066Y011820D01*
X070006Y011760D01*
X070066Y011580D02*
X070187Y011580D01*
X070247Y011640D01*
X070247Y011760D01*
X070375Y011820D02*
X070555Y011820D01*
X070615Y011760D01*
X070615Y011640D01*
X070555Y011580D01*
X070375Y011580D01*
X070375Y011940D01*
X070743Y011760D02*
X070803Y011820D01*
X070923Y011820D01*
X070983Y011760D01*
X070983Y011640D01*
X070923Y011580D01*
X070803Y011580D01*
X070743Y011640D01*
X070743Y011760D01*
X071111Y011820D02*
X071291Y011820D01*
X071352Y011760D01*
X071352Y011640D01*
X071291Y011580D01*
X071111Y011580D01*
X071480Y011580D02*
X071480Y011760D01*
X071540Y011820D01*
X071720Y011820D01*
X071720Y011580D01*
X071848Y011580D02*
X072088Y011580D01*
X072088Y011940D01*
X071848Y011940D01*
X071968Y011760D02*
X072088Y011760D01*
X071862Y011005D02*
X071862Y010765D01*
X071982Y010885D02*
X071742Y010885D01*
X071614Y011005D02*
X071554Y011065D01*
X071434Y011065D01*
X071374Y011005D01*
X071374Y010945D01*
X071434Y010885D01*
X071374Y010825D01*
X071374Y010765D01*
X071434Y010705D01*
X071554Y010705D01*
X071614Y010765D01*
X071494Y010885D02*
X071434Y010885D01*
X071246Y010765D02*
X071186Y010765D01*
X071186Y010705D01*
X071246Y010705D01*
X071246Y010765D01*
X071061Y010765D02*
X071001Y010705D01*
X070881Y010705D01*
X070821Y010765D01*
X070821Y010825D01*
X070881Y010885D01*
X070941Y010885D01*
X070881Y010885D02*
X070821Y010945D01*
X070821Y011005D01*
X070881Y011065D01*
X071001Y011065D01*
X071061Y011005D01*
X070693Y011065D02*
X070693Y010825D01*
X070573Y010705D01*
X070453Y010825D01*
X070453Y011065D01*
X069956Y010945D02*
X069836Y011065D01*
X069836Y010705D01*
X069956Y010705D02*
X069716Y010705D01*
X069776Y010465D02*
X069716Y010405D01*
X069716Y010345D01*
X069956Y010105D01*
X069716Y010105D01*
X069776Y009865D02*
X069716Y009805D01*
X069716Y009745D01*
X069776Y009685D01*
X069716Y009625D01*
X069716Y009565D01*
X069776Y009505D01*
X069896Y009505D01*
X069956Y009565D01*
X069836Y009685D02*
X069776Y009685D01*
X069776Y009865D02*
X069896Y009865D01*
X069956Y009805D01*
X070510Y009865D02*
X070510Y009505D01*
X070570Y009505D02*
X070450Y009505D01*
X070453Y009265D02*
X070453Y008905D01*
X070633Y008905D01*
X070693Y008965D01*
X070693Y009085D01*
X070633Y009145D01*
X070453Y009145D01*
X070821Y009085D02*
X070821Y008905D01*
X070821Y009085D02*
X070881Y009145D01*
X071061Y009145D01*
X071061Y008905D01*
X071190Y008965D02*
X071190Y009085D01*
X071310Y009085D01*
X071430Y009205D02*
X071430Y008965D01*
X071370Y008905D01*
X071250Y008905D01*
X071190Y008965D01*
X071190Y009205D02*
X071250Y009265D01*
X071370Y009265D01*
X071430Y009205D01*
X071495Y009385D02*
X071435Y009445D01*
X071435Y009745D01*
X071615Y009745D01*
X071675Y009685D01*
X071675Y009565D01*
X071615Y009505D01*
X071435Y009505D01*
X071307Y009505D02*
X071307Y009745D01*
X071127Y009745D01*
X071067Y009685D01*
X071067Y009505D01*
X070939Y009565D02*
X070879Y009625D01*
X070698Y009625D01*
X070698Y009685D02*
X070698Y009505D01*
X070879Y009505D01*
X070939Y009565D01*
X070879Y009745D02*
X070758Y009745D01*
X070698Y009685D01*
X070570Y009865D02*
X070510Y009865D01*
X070510Y010105D02*
X070510Y010465D01*
X070570Y010465D01*
X070698Y010285D02*
X070698Y010105D01*
X070879Y010105D01*
X070939Y010165D01*
X070879Y010225D01*
X070698Y010225D01*
X070698Y010285D02*
X070758Y010345D01*
X070879Y010345D01*
X071067Y010285D02*
X071067Y010105D01*
X071067Y010285D02*
X071127Y010345D01*
X071307Y010345D01*
X071307Y010105D01*
X071435Y010105D02*
X071615Y010105D01*
X071675Y010165D01*
X071675Y010285D01*
X071615Y010345D01*
X071435Y010345D01*
X071435Y010045D01*
X071495Y009985D01*
X071555Y009985D01*
X071801Y010105D02*
X071921Y010105D01*
X071861Y010105D02*
X071861Y010345D01*
X071921Y010345D01*
X072049Y010345D02*
X072229Y010345D01*
X072289Y010285D01*
X072229Y010225D01*
X072109Y010225D01*
X072049Y010165D01*
X072109Y010105D01*
X072289Y010105D01*
X072229Y009745D02*
X072049Y009745D01*
X071921Y009745D02*
X071861Y009745D01*
X071861Y009505D01*
X071921Y009505D02*
X071801Y009505D01*
X072049Y009565D02*
X072109Y009625D01*
X072229Y009625D01*
X072289Y009685D01*
X072229Y009745D01*
X072289Y009505D02*
X072109Y009505D01*
X072049Y009565D01*
X071861Y009865D02*
X071861Y009925D01*
X071861Y010465D02*
X071861Y010525D01*
X072786Y010345D02*
X072786Y010105D01*
X072786Y010285D02*
X073026Y010285D01*
X073026Y010345D02*
X072906Y010465D01*
X072786Y010345D01*
X073026Y010345D02*
X073026Y010105D01*
X073026Y009865D02*
X072846Y009865D01*
X072786Y009805D01*
X072786Y009745D01*
X072846Y009685D01*
X073026Y009685D01*
X073026Y009505D02*
X073026Y009865D01*
X072846Y009685D02*
X072786Y009625D01*
X072786Y009565D01*
X072846Y009505D01*
X073026Y009505D01*
X071555Y009385D02*
X071495Y009385D01*
X069956Y009085D02*
X069716Y009085D01*
X069776Y009265D02*
X069956Y009085D01*
X069776Y008905D02*
X069776Y009265D01*
X070450Y010105D02*
X070570Y010105D01*
X069956Y010405D02*
X069896Y010465D01*
X069776Y010465D01*
X074196Y011165D02*
X074437Y011165D01*
X074317Y011165D02*
X074317Y010805D01*
X074565Y010805D02*
X074685Y010925D01*
X074625Y010925D02*
X074805Y010925D01*
X074805Y010805D02*
X074805Y011165D01*
X074625Y011165D01*
X074565Y011105D01*
X074565Y010985D01*
X074625Y010925D01*
X074933Y010985D02*
X075173Y010985D01*
X075173Y011045D02*
X075053Y011165D01*
X074933Y011045D01*
X074933Y010805D01*
X075173Y010805D02*
X075173Y011045D01*
X075301Y011165D02*
X075542Y011165D01*
X075422Y011165D02*
X075422Y010805D01*
X075670Y010865D02*
X075730Y010805D01*
X075850Y010805D01*
X075910Y010865D01*
X076038Y010865D02*
X076098Y010805D01*
X076218Y010805D01*
X076278Y010865D01*
X076218Y010985D02*
X076098Y010985D01*
X076038Y010925D01*
X076038Y010865D01*
X076218Y010985D02*
X076278Y011045D01*
X076278Y011105D01*
X076218Y011165D01*
X076098Y011165D01*
X076038Y011105D01*
X075910Y011105D02*
X075910Y011045D01*
X075850Y010985D01*
X075730Y010985D01*
X075670Y010925D01*
X075670Y010865D01*
X075670Y011105D02*
X075730Y011165D01*
X075850Y011165D01*
X075910Y011105D01*
X075910Y010565D02*
X075910Y010205D01*
X075790Y010325D01*
X075670Y010205D01*
X075670Y010565D01*
X075542Y010565D02*
X075422Y010445D01*
X075301Y010565D01*
X075301Y010205D01*
X075542Y010205D02*
X075542Y010565D01*
X076038Y010505D02*
X076038Y010385D01*
X076098Y010325D01*
X076278Y010325D01*
X076278Y010205D02*
X076278Y010565D01*
X076098Y010565D01*
X076038Y010505D01*
X076406Y010745D02*
X076647Y010745D01*
X076775Y010805D02*
X076895Y010925D01*
X076835Y010925D02*
X077015Y010925D01*
X077015Y010805D02*
X077015Y011165D01*
X076835Y011165D01*
X076775Y011105D01*
X076775Y010985D01*
X076835Y010925D01*
X077143Y010805D02*
X077143Y011165D01*
X077143Y011405D02*
X077143Y011585D01*
X077203Y011645D01*
X077383Y011645D01*
X077383Y011405D01*
X077511Y011465D02*
X077511Y011585D01*
X077631Y011585D01*
X077511Y011705D02*
X077571Y011765D01*
X077691Y011765D01*
X077752Y011705D01*
X077752Y011465D01*
X077691Y011405D01*
X077571Y011405D01*
X077511Y011465D01*
X077571Y011165D02*
X077511Y011105D01*
X077511Y010985D01*
X077571Y010925D01*
X077752Y010925D01*
X077752Y010805D02*
X077752Y011165D01*
X077571Y011165D01*
X077383Y011165D02*
X077383Y010805D01*
X077263Y010925D01*
X077143Y010805D01*
X077263Y010565D02*
X077143Y010445D01*
X077143Y010205D01*
X077015Y010205D02*
X077015Y010565D01*
X076775Y010205D01*
X076775Y010565D01*
X077143Y010385D02*
X077383Y010385D01*
X077383Y010445D02*
X077263Y010565D01*
X077383Y010445D02*
X077383Y010205D01*
X077383Y009965D02*
X077383Y009785D01*
X077263Y009845D01*
X077203Y009845D01*
X077143Y009785D01*
X077143Y009665D01*
X077203Y009605D01*
X077323Y009605D01*
X077383Y009665D01*
X077511Y009785D02*
X077752Y009785D01*
X077631Y009905D02*
X077631Y009665D01*
X077383Y009965D02*
X077143Y009965D01*
X077015Y009965D02*
X077015Y009725D01*
X076895Y009605D01*
X076775Y009725D01*
X076775Y009965D01*
X076647Y010145D02*
X076406Y010145D01*
X077511Y010565D02*
X077752Y010565D01*
X077752Y010205D01*
X077752Y010385D02*
X077631Y010385D01*
X078248Y010325D02*
X078308Y010385D01*
X078488Y010385D01*
X078488Y010265D01*
X078428Y010205D01*
X078308Y010205D01*
X078248Y010265D01*
X078248Y010325D01*
X078368Y010505D02*
X078488Y010385D01*
X078368Y010505D02*
X078248Y010565D01*
X078308Y010805D02*
X078308Y011165D01*
X078488Y010985D01*
X078248Y010985D01*
X078248Y011405D02*
X078488Y011405D01*
X078248Y011645D01*
X078248Y011705D01*
X078308Y011765D01*
X078428Y011765D01*
X078488Y011705D01*
X078540Y012180D02*
X078299Y012540D01*
X078171Y012540D02*
X078171Y012360D01*
X078051Y012420D01*
X077991Y012420D01*
X077931Y012360D01*
X077931Y012240D01*
X077991Y012180D01*
X078111Y012180D01*
X078171Y012240D01*
X078299Y012180D02*
X078540Y012540D01*
X078171Y012540D02*
X077931Y012540D01*
X079035Y012420D02*
X079095Y012420D01*
X079215Y012300D01*
X079215Y012180D02*
X079215Y012420D01*
X079343Y012360D02*
X079343Y012300D01*
X079583Y012300D01*
X079583Y012360D02*
X079523Y012420D01*
X079403Y012420D01*
X079343Y012360D01*
X079403Y012180D02*
X079523Y012180D01*
X079583Y012240D01*
X079583Y012360D01*
X079711Y012420D02*
X079711Y012240D01*
X079771Y012180D01*
X079831Y012240D01*
X079891Y012180D01*
X079952Y012240D01*
X079952Y012420D01*
X080080Y012360D02*
X080140Y012420D01*
X080260Y012420D01*
X080320Y012360D01*
X080320Y012240D01*
X080260Y012180D01*
X080140Y012180D01*
X080080Y012240D01*
X080080Y012360D01*
X080448Y012360D02*
X080508Y012300D01*
X080688Y012300D01*
X080688Y012180D02*
X080688Y012540D01*
X080508Y012540D01*
X080448Y012480D01*
X080448Y012360D01*
X080236Y011665D02*
X080236Y011305D01*
X080356Y011305D02*
X080116Y011305D01*
X080176Y011065D02*
X080116Y011005D01*
X080116Y010945D01*
X080176Y010885D01*
X080116Y010825D01*
X080116Y010765D01*
X080176Y010705D01*
X080296Y010705D01*
X080356Y010765D01*
X080236Y010885D02*
X080176Y010885D01*
X080176Y011065D02*
X080296Y011065D01*
X080356Y011005D01*
X080853Y011065D02*
X081093Y011065D01*
X080973Y011065D02*
X080973Y010705D01*
X081221Y010765D02*
X081281Y010705D01*
X081401Y010705D01*
X081461Y010765D01*
X081461Y011005D01*
X081401Y011065D01*
X081281Y011065D01*
X081221Y011005D01*
X081221Y011305D02*
X081221Y011485D01*
X081281Y011545D01*
X081461Y011545D01*
X081461Y011305D01*
X081590Y011365D02*
X081590Y011485D01*
X081710Y011485D01*
X081830Y011605D02*
X081830Y011365D01*
X081770Y011305D01*
X081650Y011305D01*
X081590Y011365D01*
X081590Y011605D02*
X081650Y011665D01*
X081770Y011665D01*
X081830Y011605D01*
X081830Y011065D02*
X081830Y010705D01*
X081590Y010705D01*
X081710Y010885D02*
X081830Y010885D01*
X081958Y010885D02*
X082018Y010825D01*
X082198Y010825D01*
X082078Y010825D02*
X081958Y010705D01*
X081958Y010885D02*
X081958Y011005D01*
X082018Y011065D01*
X082198Y011065D01*
X082198Y010705D01*
X082323Y010705D02*
X082444Y010705D01*
X082384Y010705D02*
X082384Y011065D01*
X082444Y011065D02*
X082323Y011065D01*
X082572Y011005D02*
X082632Y011065D01*
X082812Y011065D01*
X082812Y010705D01*
X082632Y010705D01*
X082572Y010765D01*
X082572Y011005D01*
X082940Y010645D02*
X083180Y010645D01*
X083308Y010705D02*
X083428Y010825D01*
X083368Y010825D02*
X083549Y010825D01*
X083549Y010705D02*
X083549Y011065D01*
X083368Y011065D01*
X083308Y011005D01*
X083308Y010885D01*
X083368Y010825D01*
X083677Y010705D02*
X083677Y011065D01*
X083917Y011065D02*
X083917Y010705D01*
X083797Y010825D01*
X083677Y010705D01*
X083799Y010465D02*
X084040Y010465D01*
X084040Y010105D01*
X084040Y010285D02*
X083919Y010285D01*
X083671Y010285D02*
X083431Y010285D01*
X083431Y010345D02*
X083431Y010105D01*
X083303Y010105D02*
X083303Y010465D01*
X083063Y010105D01*
X083063Y010465D01*
X083431Y010345D02*
X083551Y010465D01*
X083671Y010345D01*
X083671Y010105D01*
X082935Y010045D02*
X082694Y010045D01*
X082566Y010165D02*
X082506Y010105D01*
X082386Y010105D01*
X082326Y010165D01*
X082326Y010225D01*
X082386Y010285D01*
X082506Y010285D01*
X082566Y010345D01*
X082566Y010405D01*
X082506Y010465D01*
X082386Y010465D01*
X082326Y010405D01*
X082198Y010465D02*
X082198Y010105D01*
X081958Y010105D01*
X081830Y010105D02*
X081830Y010465D01*
X081590Y010105D01*
X081590Y010465D01*
X081461Y010405D02*
X081461Y010345D01*
X081401Y010285D01*
X081281Y010285D01*
X081221Y010225D01*
X081221Y010165D01*
X081281Y010105D01*
X081401Y010105D01*
X081461Y010165D01*
X081461Y010405D02*
X081401Y010465D01*
X081281Y010465D01*
X081221Y010405D01*
X081093Y010465D02*
X081093Y010105D01*
X080853Y010105D01*
X080973Y010285D02*
X081093Y010285D01*
X081093Y010465D02*
X080853Y010465D01*
X080356Y010465D02*
X080356Y010285D01*
X080236Y010345D01*
X080176Y010345D01*
X080116Y010285D01*
X080116Y010165D01*
X080176Y010105D01*
X080296Y010105D01*
X080356Y010165D01*
X080356Y010465D02*
X080116Y010465D01*
X080116Y009865D02*
X080116Y009805D01*
X080356Y009565D01*
X080356Y009505D01*
X080296Y009265D02*
X080356Y009205D01*
X080356Y009145D01*
X080296Y009085D01*
X080116Y009085D01*
X080116Y008965D02*
X080116Y009205D01*
X080176Y009265D01*
X080296Y009265D01*
X080356Y008965D02*
X080296Y008905D01*
X080176Y008905D01*
X080116Y008965D01*
X080853Y008905D02*
X080853Y009265D01*
X080853Y009145D02*
X081033Y009145D01*
X081093Y009085D01*
X081093Y008965D01*
X081033Y008905D01*
X080853Y008905D01*
X081221Y008905D02*
X081221Y009085D01*
X081281Y009145D01*
X081461Y009145D01*
X081461Y008905D01*
X081590Y008965D02*
X081590Y009085D01*
X081710Y009085D01*
X081830Y009205D02*
X081830Y008965D01*
X081770Y008905D01*
X081650Y008905D01*
X081590Y008965D01*
X081590Y009205D02*
X081650Y009265D01*
X081770Y009265D01*
X081830Y009205D01*
X081710Y009385D02*
X081650Y009385D01*
X081590Y009445D01*
X081590Y009745D01*
X081461Y009745D02*
X081461Y009505D01*
X081590Y009505D02*
X081770Y009505D01*
X081830Y009565D01*
X081830Y009745D01*
X081958Y009805D02*
X082018Y009865D01*
X082138Y009865D01*
X082198Y009805D01*
X082198Y009745D01*
X082138Y009685D01*
X082018Y009685D01*
X081958Y009625D01*
X081958Y009565D01*
X082018Y009505D01*
X082138Y009505D01*
X082198Y009565D01*
X081461Y009745D02*
X081281Y009745D01*
X081221Y009685D01*
X081221Y009505D01*
X081093Y009565D02*
X081033Y009505D01*
X080853Y009505D01*
X080853Y009745D02*
X081033Y009745D01*
X081093Y009685D01*
X081093Y009565D01*
X080356Y009865D02*
X080116Y009865D01*
X078488Y009845D02*
X078488Y009905D01*
X078428Y009965D01*
X078308Y009965D01*
X078248Y009905D01*
X078248Y009845D01*
X078308Y009785D01*
X078428Y009785D01*
X078488Y009845D01*
X078428Y009785D02*
X078488Y009725D01*
X078488Y009665D01*
X078428Y009605D01*
X078308Y009605D01*
X078248Y009665D01*
X078248Y009725D01*
X078308Y009785D01*
X078368Y009365D02*
X078368Y009005D01*
X078488Y009005D02*
X078248Y009005D01*
X078120Y009065D02*
X077880Y009305D01*
X077880Y009065D01*
X077940Y009005D01*
X078060Y009005D01*
X078120Y009065D01*
X078120Y009305D01*
X078060Y009365D01*
X077940Y009365D01*
X077880Y009305D01*
X078368Y009365D02*
X078488Y009245D01*
X077383Y009185D02*
X077143Y009185D01*
X077015Y009185D02*
X076895Y009245D01*
X076835Y009245D01*
X076775Y009185D01*
X076775Y009065D01*
X076835Y009005D01*
X076955Y009005D01*
X077015Y009065D01*
X077015Y009185D02*
X077015Y009365D01*
X076775Y009365D01*
X076647Y009365D02*
X076647Y009125D01*
X076526Y009005D01*
X076406Y009125D01*
X076406Y009365D01*
X077263Y009305D02*
X077263Y009065D01*
X081958Y010465D02*
X082198Y010465D01*
X082198Y010285D02*
X082078Y010285D01*
X081830Y011065D02*
X081590Y011065D01*
X081093Y011365D02*
X081093Y011485D01*
X081033Y011545D01*
X080853Y011545D01*
X080853Y011665D02*
X080853Y011305D01*
X081033Y011305D01*
X081093Y011365D01*
X080356Y011545D02*
X080236Y011665D01*
X077015Y011585D02*
X076955Y011645D01*
X076775Y011645D01*
X076775Y011765D02*
X076775Y011405D01*
X076955Y011405D01*
X077015Y011465D01*
X077015Y011585D01*
X084045Y011005D02*
X084045Y010885D01*
X084105Y010825D01*
X084285Y010825D01*
X084285Y010705D02*
X084285Y011065D01*
X084105Y011065D01*
X084045Y011005D01*
X087537Y012146D02*
X087657Y012266D01*
X087597Y012266D02*
X087777Y012266D01*
X087777Y012146D02*
X087777Y012507D01*
X087597Y012507D01*
X087537Y012447D01*
X087537Y012327D01*
X087597Y012266D01*
X087905Y012146D02*
X087905Y012507D01*
X088146Y012507D02*
X088146Y012146D01*
X088026Y012266D01*
X087905Y012146D01*
X088274Y012327D02*
X088334Y012266D01*
X088514Y012266D01*
X088514Y012146D02*
X088514Y012507D01*
X088334Y012507D01*
X088274Y012447D01*
X088274Y012327D01*
X088642Y012086D02*
X088882Y012086D01*
X089010Y012206D02*
X089010Y012447D01*
X089070Y012507D01*
X089251Y012507D01*
X089251Y012146D01*
X089070Y012146D01*
X089010Y012206D01*
X089379Y012146D02*
X089619Y012146D01*
X089619Y012507D01*
X089379Y012507D01*
X089499Y012327D02*
X089619Y012327D01*
X089747Y012146D02*
X089987Y012146D01*
X089987Y012507D01*
X089083Y017105D02*
X088963Y017105D01*
X088903Y017165D01*
X088775Y017285D02*
X088535Y017285D01*
X088406Y017345D02*
X088346Y017285D01*
X088166Y017285D01*
X088166Y017405D02*
X088226Y017465D01*
X088346Y017465D01*
X088406Y017405D01*
X088406Y017345D01*
X088406Y017165D02*
X088346Y017105D01*
X088226Y017105D01*
X088166Y017165D01*
X088166Y017405D01*
X088595Y017465D02*
X088775Y017285D01*
X088903Y017405D02*
X088963Y017465D01*
X089083Y017465D01*
X089143Y017405D01*
X089143Y017165D01*
X089083Y017105D01*
X088595Y017105D02*
X088595Y017465D01*
X088531Y020605D02*
X088291Y020845D01*
X088291Y020905D01*
X088351Y020965D01*
X088471Y020965D01*
X088531Y020905D01*
X088660Y020965D02*
X088660Y020605D01*
X088780Y020725D01*
X088900Y020605D01*
X088900Y020965D01*
X089028Y020905D02*
X089088Y020965D01*
X089208Y020965D01*
X089268Y020905D01*
X089268Y020845D01*
X089208Y020785D01*
X089088Y020785D01*
X089028Y020725D01*
X089028Y020665D01*
X089088Y020605D01*
X089208Y020605D01*
X089268Y020665D01*
X088531Y020605D02*
X088291Y020605D01*
X073898Y027265D02*
X073838Y027205D01*
X073718Y027205D01*
X073658Y027265D01*
X073658Y027325D01*
X073718Y027385D01*
X073838Y027385D01*
X073898Y027445D01*
X073898Y027505D01*
X073838Y027565D01*
X073718Y027565D01*
X073658Y027505D01*
X073530Y027505D02*
X073530Y027265D01*
X073470Y027205D01*
X073350Y027205D01*
X073290Y027265D01*
X073161Y027205D02*
X072921Y027205D01*
X072793Y027205D02*
X072793Y027565D01*
X072733Y027385D02*
X072553Y027205D01*
X072793Y027325D02*
X072553Y027565D01*
X072673Y027805D02*
X072673Y028165D01*
X072793Y028165D02*
X072553Y028165D01*
X072445Y028245D02*
X076128Y028245D01*
X076108Y028165D02*
X076108Y027805D01*
X075868Y027805D01*
X075988Y027985D02*
X076108Y027985D01*
X076108Y028165D02*
X075868Y028165D01*
X075740Y028165D02*
X075499Y028165D01*
X075619Y028165D02*
X075619Y027805D01*
X075371Y027805D02*
X075371Y028165D01*
X075371Y027985D02*
X075131Y027985D01*
X075131Y028165D02*
X075131Y027805D01*
X075003Y027745D02*
X074763Y027745D01*
X074635Y027865D02*
X074575Y027805D01*
X074455Y027805D01*
X074394Y027865D01*
X074394Y027925D01*
X074455Y027985D01*
X074575Y027985D01*
X074635Y028045D01*
X074635Y028105D01*
X074575Y028165D01*
X074455Y028165D01*
X074394Y028105D01*
X074266Y028165D02*
X074266Y027805D01*
X074026Y027805D01*
X073898Y027805D02*
X073658Y027805D01*
X073530Y027805D02*
X073290Y027805D01*
X073161Y027865D02*
X073161Y028105D01*
X073101Y028165D01*
X072981Y028165D01*
X072921Y028105D01*
X072921Y027865D02*
X072981Y027805D01*
X073101Y027805D01*
X073161Y027865D01*
X073410Y027985D02*
X073530Y027985D01*
X073530Y028165D02*
X073530Y027805D01*
X073470Y027565D02*
X073530Y027505D01*
X073470Y027565D02*
X073350Y027565D01*
X073290Y027505D01*
X073161Y027565D02*
X073161Y027205D01*
X073898Y027805D02*
X073898Y028165D01*
X074026Y028165D02*
X074266Y028165D01*
X074266Y027985D02*
X074146Y027985D01*
X073775Y028405D02*
X073775Y028765D01*
X073655Y028645D01*
X073535Y028765D01*
X073535Y028405D01*
X073407Y028465D02*
X073347Y028405D01*
X073227Y028405D01*
X073167Y028465D01*
X073167Y028705D01*
X073227Y028765D01*
X073347Y028765D01*
X073407Y028705D01*
X073407Y028465D01*
X073290Y028165D02*
X073530Y028165D01*
X073039Y028465D02*
X072979Y028405D01*
X072858Y028405D01*
X072798Y028465D01*
X072798Y028525D01*
X072858Y028585D01*
X072979Y028585D01*
X073039Y028645D01*
X073039Y028705D01*
X072979Y028765D01*
X072858Y028765D01*
X072798Y028705D01*
X072670Y028765D02*
X072550Y028765D01*
X072610Y028765D02*
X072610Y028405D01*
X072670Y028405D02*
X072550Y028405D01*
X072056Y028465D02*
X071996Y028405D01*
X071876Y028405D01*
X071816Y028465D01*
X071816Y028585D01*
X071876Y028645D01*
X071936Y028645D01*
X072056Y028585D01*
X072056Y028765D01*
X071816Y028765D01*
X071876Y029005D02*
X071996Y029005D01*
X072056Y029065D01*
X071936Y029185D02*
X071876Y029185D01*
X071816Y029125D01*
X071816Y029065D01*
X071876Y029005D01*
X071876Y029185D02*
X071816Y029245D01*
X071816Y029305D01*
X071876Y029365D01*
X071996Y029365D01*
X072056Y029305D01*
X072056Y029605D02*
X071816Y029605D01*
X071936Y029605D02*
X071936Y029965D01*
X072056Y029845D01*
X072549Y029665D02*
X072549Y029605D01*
X072609Y029605D01*
X072609Y029665D01*
X072549Y029665D01*
X072737Y029665D02*
X072797Y029605D01*
X072917Y029605D01*
X072977Y029665D01*
X072977Y029905D01*
X072917Y029965D01*
X072797Y029965D01*
X072737Y029905D01*
X073101Y029665D02*
X073101Y029605D01*
X073161Y029605D01*
X073161Y029665D01*
X073101Y029665D01*
X073290Y029605D02*
X073290Y029965D01*
X073530Y029965D02*
X073290Y029605D01*
X073530Y029605D02*
X073530Y029965D01*
X073588Y030480D02*
X073348Y030480D01*
X073160Y030540D02*
X073160Y030780D01*
X073220Y030720D02*
X073100Y030720D01*
X072974Y030660D02*
X072914Y030720D01*
X072794Y030720D01*
X072734Y030660D01*
X072734Y030480D01*
X072606Y030540D02*
X072606Y030660D01*
X072546Y030720D01*
X072426Y030720D01*
X072366Y030660D01*
X072366Y030600D01*
X072606Y030600D01*
X072606Y030540D02*
X072546Y030480D01*
X072426Y030480D01*
X072238Y030480D02*
X072238Y030720D01*
X072238Y030600D02*
X072118Y030720D01*
X072057Y030720D01*
X071931Y030720D02*
X071751Y030720D01*
X071691Y030660D01*
X071691Y030480D01*
X071562Y030540D02*
X071562Y030660D01*
X071502Y030720D01*
X071382Y030720D01*
X071322Y030660D01*
X071322Y030600D01*
X071562Y030600D01*
X071562Y030540D02*
X071502Y030480D01*
X071382Y030480D01*
X071134Y030540D02*
X071074Y030480D01*
X071134Y030540D02*
X071134Y030780D01*
X071194Y030720D02*
X071074Y030720D01*
X070580Y030720D02*
X070580Y030480D01*
X070460Y030480D02*
X070460Y030660D01*
X070400Y030720D01*
X070340Y030660D01*
X070340Y030480D01*
X070212Y030540D02*
X070152Y030480D01*
X070032Y030480D01*
X069972Y030540D01*
X069972Y030660D01*
X070032Y030720D01*
X070152Y030720D01*
X070212Y030660D01*
X070212Y030540D01*
X070460Y030660D02*
X070520Y030720D01*
X070580Y030720D01*
X070520Y031260D02*
X070520Y031620D01*
X070340Y031620D01*
X070280Y031560D01*
X070280Y031440D01*
X070340Y031380D01*
X070520Y031380D01*
X070648Y031440D02*
X070648Y031680D01*
X070708Y031740D01*
X070828Y031740D01*
X070888Y031680D01*
X070888Y031440D01*
X070828Y031380D01*
X070708Y031380D01*
X070648Y031440D01*
X070152Y031620D02*
X070031Y031620D01*
X070091Y031680D02*
X070091Y031440D01*
X070031Y031380D01*
X069906Y031380D02*
X069786Y031380D01*
X069846Y031380D02*
X069846Y031620D01*
X069906Y031620D01*
X069846Y031740D02*
X069846Y031800D01*
X069660Y031560D02*
X069660Y031440D01*
X069600Y031380D01*
X069480Y031380D01*
X069420Y031440D01*
X069420Y031560D01*
X069480Y031620D01*
X069600Y031620D01*
X069660Y031560D01*
X069292Y031620D02*
X069112Y031620D01*
X069052Y031560D01*
X069052Y031380D01*
X068924Y031440D02*
X068864Y031500D01*
X068684Y031500D01*
X068684Y031560D02*
X068684Y031380D01*
X068864Y031380D01*
X068924Y031440D01*
X068864Y031620D02*
X068744Y031620D01*
X068684Y031560D01*
X068555Y031740D02*
X068495Y031740D01*
X068495Y031380D01*
X068555Y031380D02*
X068435Y031380D01*
X067942Y031440D02*
X067882Y031380D01*
X067701Y031380D01*
X067573Y031440D02*
X067513Y031380D01*
X067393Y031380D01*
X067333Y031440D01*
X067333Y031560D01*
X067393Y031620D01*
X067513Y031620D01*
X067573Y031560D01*
X067573Y031440D01*
X067701Y031620D02*
X067882Y031620D01*
X067942Y031560D01*
X067942Y031440D01*
X067885Y030840D02*
X068125Y030480D01*
X067885Y030480D02*
X068125Y030840D01*
X067756Y030780D02*
X067756Y030720D01*
X067696Y030660D01*
X067516Y030660D01*
X067516Y030540D02*
X067516Y030780D01*
X067576Y030840D01*
X067696Y030840D01*
X067756Y030780D01*
X067756Y030540D02*
X067696Y030480D01*
X067576Y030480D01*
X067516Y030540D01*
X068475Y030065D02*
X068475Y029825D01*
X068595Y029705D01*
X068715Y029825D01*
X068715Y030065D01*
X068843Y030065D02*
X069083Y030065D01*
X069083Y029885D01*
X068963Y029945D01*
X068903Y029945D01*
X068843Y029885D01*
X068843Y029765D01*
X068903Y029705D01*
X069023Y029705D01*
X069083Y029765D01*
X069211Y029885D02*
X069452Y029885D01*
X069331Y030005D02*
X069331Y029765D01*
X069271Y029465D02*
X069391Y029465D01*
X069452Y029405D01*
X069452Y029165D01*
X069391Y029105D01*
X069271Y029105D01*
X069211Y029165D01*
X069211Y029285D01*
X069331Y029285D01*
X069211Y029405D02*
X069271Y029465D01*
X069083Y029345D02*
X068903Y029345D01*
X068843Y029285D01*
X068843Y029105D01*
X068715Y029165D02*
X068715Y029285D01*
X068655Y029345D01*
X068475Y029345D01*
X068475Y029465D02*
X068475Y029105D01*
X068655Y029105D01*
X068715Y029165D01*
X068655Y028865D02*
X068535Y028865D01*
X068475Y028805D01*
X068535Y028685D02*
X068475Y028625D01*
X068475Y028565D01*
X068535Y028505D01*
X068655Y028505D01*
X068715Y028565D01*
X068655Y028685D02*
X068535Y028685D01*
X068655Y028685D02*
X068715Y028745D01*
X068715Y028805D01*
X068655Y028865D01*
X068843Y028865D02*
X069083Y028865D01*
X069083Y028505D01*
X068843Y028505D01*
X068963Y028685D02*
X069083Y028685D01*
X069211Y028685D02*
X069271Y028625D01*
X069452Y028625D01*
X069452Y028505D02*
X069452Y028865D01*
X069271Y028865D01*
X069211Y028805D01*
X069211Y028685D01*
X069331Y028625D02*
X069211Y028505D01*
X069211Y028265D02*
X069452Y028265D01*
X069452Y027905D01*
X069211Y027905D01*
X069331Y028085D02*
X069452Y028085D01*
X069472Y028345D02*
X067016Y028345D01*
X067124Y028205D02*
X067124Y027965D01*
X067184Y027905D01*
X067304Y027905D01*
X067364Y027965D01*
X067364Y028205D01*
X067304Y028265D01*
X067184Y028265D01*
X067124Y028205D01*
X067244Y028025D02*
X067124Y027905D01*
X067493Y027905D02*
X067613Y028025D01*
X067553Y028025D02*
X067733Y028025D01*
X067733Y027905D02*
X067733Y028265D01*
X067553Y028265D01*
X067493Y028205D01*
X067493Y028085D01*
X067553Y028025D01*
X067858Y027905D02*
X067978Y027905D01*
X067918Y027905D02*
X067918Y028265D01*
X067978Y028265D02*
X067858Y028265D01*
X067858Y028505D02*
X067858Y028865D01*
X067978Y028865D02*
X067738Y028865D01*
X067630Y028945D02*
X069472Y028945D01*
X069083Y029105D02*
X069083Y029345D01*
X069948Y029285D02*
X070188Y029285D01*
X070008Y029465D01*
X070008Y029105D01*
X069948Y028865D02*
X070068Y028805D01*
X070188Y028685D01*
X070008Y028685D01*
X069948Y028625D01*
X069948Y028565D01*
X070008Y028505D01*
X070128Y028505D01*
X070188Y028565D01*
X070188Y028685D01*
X070128Y028265D02*
X070008Y028265D01*
X069948Y028205D01*
X069948Y028145D01*
X070008Y028085D01*
X070128Y028085D01*
X070188Y028145D01*
X070188Y028205D01*
X070128Y028265D01*
X070128Y028085D02*
X070188Y028025D01*
X070188Y027965D01*
X070128Y027905D01*
X070008Y027905D01*
X069948Y027965D01*
X069948Y028025D01*
X070008Y028085D01*
X070068Y027665D02*
X070068Y027305D01*
X070188Y027305D02*
X069948Y027305D01*
X069820Y027365D02*
X069580Y027605D01*
X069580Y027365D01*
X069640Y027305D01*
X069760Y027305D01*
X069820Y027365D01*
X069820Y027605D01*
X069760Y027665D01*
X069640Y027665D01*
X069580Y027605D01*
X070068Y027665D02*
X070188Y027545D01*
X069083Y027665D02*
X068843Y027305D01*
X068843Y027665D01*
X069083Y027665D02*
X069083Y027305D01*
X068715Y027305D02*
X068655Y027305D01*
X068655Y027365D01*
X068715Y027365D01*
X068715Y027305D01*
X068531Y027365D02*
X068471Y027305D01*
X068351Y027305D01*
X068291Y027365D01*
X068162Y027365D02*
X068102Y027365D01*
X068102Y027305D01*
X068162Y027305D01*
X068162Y027365D01*
X068291Y027605D02*
X068351Y027665D01*
X068471Y027665D01*
X068531Y027605D01*
X068531Y027365D01*
X068347Y027845D02*
X068106Y027845D01*
X068475Y027905D02*
X068475Y028265D01*
X068475Y028085D02*
X068715Y028085D01*
X068715Y027905D02*
X068715Y028265D01*
X068843Y028265D02*
X069083Y028265D01*
X068963Y028265D02*
X068963Y027905D01*
X068347Y028505D02*
X068106Y028505D01*
X068226Y028685D02*
X068347Y028685D01*
X068347Y028865D02*
X068347Y028505D01*
X068347Y028865D02*
X068106Y028865D01*
X069948Y029705D02*
X070188Y029705D01*
X069948Y029945D01*
X069948Y030005D01*
X070008Y030065D01*
X070128Y030065D01*
X070188Y030005D01*
X069784Y030480D02*
X069603Y030480D01*
X069603Y030840D01*
X069603Y030720D02*
X069784Y030720D01*
X069844Y030660D01*
X069844Y030540D01*
X069784Y030480D01*
X069475Y030540D02*
X069475Y030720D01*
X069475Y030540D02*
X069415Y030480D01*
X069235Y030480D01*
X069235Y030720D01*
X069107Y030840D02*
X069047Y030840D01*
X069047Y030480D01*
X069107Y030480D02*
X068987Y030480D01*
X068861Y030540D02*
X068861Y030660D01*
X068801Y030720D01*
X068681Y030720D01*
X068621Y030660D01*
X068621Y030600D01*
X068861Y030600D01*
X068861Y030540D02*
X068801Y030480D01*
X068681Y030480D01*
X069292Y031380D02*
X069292Y031620D01*
X067205Y031620D02*
X067205Y031380D01*
X067205Y031620D02*
X067025Y031620D01*
X066965Y031560D01*
X066965Y031380D01*
X066837Y031380D02*
X066837Y031620D01*
X066657Y031620D01*
X066596Y031560D01*
X066596Y031380D01*
X066468Y031440D02*
X066468Y031560D01*
X066408Y031620D01*
X066288Y031620D01*
X066228Y031560D01*
X066228Y031500D01*
X066468Y031500D01*
X066468Y031440D02*
X066408Y031380D01*
X066288Y031380D01*
X066100Y031440D02*
X066100Y031560D01*
X066040Y031620D01*
X065860Y031620D01*
X065732Y031620D02*
X065612Y031620D01*
X065672Y031680D02*
X065672Y031440D01*
X065612Y031380D01*
X065486Y031440D02*
X065426Y031380D01*
X065306Y031380D01*
X065246Y031440D01*
X065246Y031560D01*
X065306Y031620D01*
X065426Y031620D01*
X065486Y031560D01*
X065486Y031440D01*
X065118Y031500D02*
X064998Y031620D01*
X064938Y031620D01*
X064811Y031560D02*
X064751Y031620D01*
X064571Y031620D01*
X064631Y031500D02*
X064751Y031500D01*
X064811Y031560D01*
X064811Y031380D02*
X064631Y031380D01*
X064571Y031440D01*
X064631Y031500D01*
X065118Y031380D02*
X065118Y031620D01*
X065860Y031380D02*
X066040Y031380D01*
X066100Y031440D01*
X064188Y030840D02*
X064188Y030480D01*
X064068Y030600D01*
X063948Y030480D01*
X063948Y030840D01*
X063820Y030840D02*
X063700Y030840D01*
X063760Y030840D02*
X063760Y030480D01*
X063820Y030480D02*
X063700Y030480D01*
X063574Y030480D02*
X063574Y030840D01*
X063334Y030840D01*
X063206Y030840D02*
X063086Y030840D01*
X063146Y030840D02*
X063146Y030480D01*
X063206Y030480D02*
X063086Y030480D01*
X063454Y030660D02*
X063574Y030660D01*
X063436Y029965D02*
X063436Y029605D01*
X063556Y029605D02*
X063316Y029605D01*
X063376Y029365D02*
X063316Y029305D01*
X063316Y029245D01*
X063376Y029185D01*
X063316Y029125D01*
X063316Y029065D01*
X063376Y029005D01*
X063496Y029005D01*
X063556Y029065D01*
X063436Y029185D02*
X063376Y029185D01*
X063376Y029365D02*
X063496Y029365D01*
X063556Y029305D01*
X064053Y029365D02*
X064293Y029365D01*
X064293Y029005D01*
X064053Y029005D01*
X064173Y029185D02*
X064293Y029185D01*
X064421Y029305D02*
X064481Y029365D01*
X064601Y029365D01*
X064661Y029305D01*
X064661Y029065D01*
X064601Y029005D01*
X064481Y029005D01*
X064421Y029065D01*
X064293Y028765D02*
X064293Y028405D01*
X064293Y028525D02*
X064053Y028765D01*
X064233Y028585D02*
X064053Y028405D01*
X064113Y028165D02*
X064053Y028105D01*
X064053Y027865D01*
X064113Y027805D01*
X064233Y027805D01*
X064293Y027865D01*
X064293Y028105D01*
X064233Y028165D01*
X064113Y028165D01*
X064421Y028105D02*
X064481Y028165D01*
X064601Y028165D01*
X064661Y028105D01*
X064661Y028045D01*
X064601Y027985D01*
X064481Y027985D01*
X064421Y027925D01*
X064421Y027865D01*
X064481Y027805D01*
X064601Y027805D01*
X064661Y027865D01*
X064787Y027805D02*
X064907Y027805D01*
X064847Y027805D02*
X064847Y028165D01*
X064907Y028165D02*
X064787Y028165D01*
X064850Y028405D02*
X064790Y028465D01*
X064850Y028405D02*
X064970Y028405D01*
X065030Y028465D01*
X065030Y028705D01*
X064970Y028765D01*
X064850Y028765D01*
X064790Y028705D01*
X064661Y028765D02*
X064661Y028405D01*
X064421Y028405D01*
X065035Y028165D02*
X065035Y027805D01*
X065275Y027805D02*
X065275Y028165D01*
X065155Y028045D01*
X065035Y028165D01*
X065218Y028405D02*
X065338Y028405D01*
X065398Y028465D01*
X065338Y028585D02*
X065218Y028585D01*
X065158Y028525D01*
X065158Y028465D01*
X065218Y028405D01*
X065338Y028585D02*
X065398Y028645D01*
X065398Y028705D01*
X065338Y028765D01*
X065218Y028765D01*
X065158Y028705D01*
X064970Y029605D02*
X064850Y029605D01*
X064790Y029665D01*
X064790Y029785D01*
X064910Y029785D01*
X065030Y029905D02*
X064970Y029965D01*
X064850Y029965D01*
X064790Y029905D01*
X064661Y029845D02*
X064481Y029845D01*
X064421Y029785D01*
X064421Y029605D01*
X064293Y029665D02*
X064293Y029785D01*
X064233Y029845D01*
X064053Y029845D01*
X064053Y029965D02*
X064053Y029605D01*
X064233Y029605D01*
X064293Y029665D01*
X064661Y029605D02*
X064661Y029845D01*
X065030Y029905D02*
X065030Y029665D01*
X064970Y029605D01*
X063556Y029845D02*
X063436Y029965D01*
X062592Y030480D02*
X062592Y030720D01*
X062532Y030720D01*
X062472Y030660D01*
X062412Y030720D01*
X062352Y030660D01*
X062352Y030480D01*
X062472Y030480D02*
X062472Y030660D01*
X062224Y030660D02*
X062224Y030540D01*
X062164Y030480D01*
X062044Y030480D01*
X061984Y030540D01*
X061984Y030660D01*
X062044Y030720D01*
X062164Y030720D01*
X062224Y030660D01*
X061855Y030660D02*
X061795Y030720D01*
X061615Y030720D01*
X061615Y030840D02*
X061615Y030480D01*
X061795Y030480D01*
X061855Y030540D01*
X061855Y030660D01*
X061487Y030720D02*
X061487Y030540D01*
X061427Y030480D01*
X061247Y030480D01*
X061247Y030720D01*
X061119Y030840D02*
X061059Y030840D01*
X061059Y030480D01*
X061119Y030480D02*
X060999Y030480D01*
X060873Y030540D02*
X060873Y030660D01*
X060813Y030720D01*
X060693Y030720D01*
X060633Y030660D01*
X060633Y030600D01*
X060873Y030600D01*
X060873Y030540D02*
X060813Y030480D01*
X060693Y030480D01*
X060523Y030065D02*
X060403Y030065D01*
X060343Y030005D01*
X060343Y029945D01*
X060403Y029885D01*
X060343Y029825D01*
X060343Y029765D01*
X060403Y029705D01*
X060523Y029705D01*
X060583Y029765D01*
X060463Y029885D02*
X060403Y029885D01*
X060583Y030005D02*
X060523Y030065D01*
X060711Y029885D02*
X060952Y029885D01*
X060831Y030005D02*
X060831Y029765D01*
X060771Y029465D02*
X060891Y029465D01*
X060952Y029405D01*
X060952Y029165D01*
X060891Y029105D01*
X060771Y029105D01*
X060711Y029165D01*
X060583Y029165D02*
X060523Y029105D01*
X060403Y029105D01*
X060343Y029165D01*
X060343Y029225D01*
X060403Y029285D01*
X060523Y029285D01*
X060583Y029345D01*
X060583Y029405D01*
X060523Y029465D01*
X060403Y029465D01*
X060343Y029405D01*
X060215Y029465D02*
X059975Y029105D01*
X059975Y029465D01*
X059971Y029705D02*
X060031Y029765D01*
X059971Y029705D02*
X059851Y029705D01*
X059791Y029765D01*
X059791Y029825D01*
X059851Y029885D01*
X059911Y029885D01*
X059851Y029885D02*
X059791Y029945D01*
X059791Y030005D01*
X059851Y030065D01*
X059971Y030065D01*
X060031Y030005D01*
X060155Y029765D02*
X060155Y029705D01*
X060215Y029705D01*
X060215Y029765D01*
X060155Y029765D01*
X060215Y029465D02*
X060215Y029105D01*
X060155Y028865D02*
X060215Y028805D01*
X060215Y028745D01*
X060155Y028685D01*
X060035Y028685D01*
X059975Y028625D01*
X059975Y028565D01*
X060035Y028505D01*
X060155Y028505D01*
X060215Y028565D01*
X060343Y028565D02*
X060343Y028805D01*
X060403Y028865D01*
X060523Y028865D01*
X060583Y028805D01*
X060583Y028565D01*
X060523Y028505D01*
X060403Y028505D01*
X060343Y028565D01*
X060278Y028265D02*
X060157Y028265D01*
X060097Y028205D01*
X060097Y027965D01*
X060157Y027905D01*
X060278Y027905D01*
X060338Y027965D01*
X060338Y028205D01*
X060278Y028265D01*
X060466Y028205D02*
X060466Y028085D01*
X060526Y028025D01*
X060706Y028025D01*
X060586Y028025D02*
X060466Y027905D01*
X060706Y027905D02*
X060706Y028265D01*
X060526Y028265D01*
X060466Y028205D01*
X060218Y028025D02*
X060097Y027905D01*
X060831Y027905D02*
X060952Y027905D01*
X060891Y027905D02*
X060891Y028265D01*
X060831Y028265D02*
X060952Y028265D01*
X060952Y028505D02*
X060952Y028865D01*
X060831Y028745D01*
X060711Y028865D01*
X060711Y028505D01*
X060155Y028865D02*
X060035Y028865D01*
X059975Y028805D01*
X059847Y028865D02*
X059726Y028865D01*
X059787Y028865D02*
X059787Y028505D01*
X059847Y028505D02*
X059726Y028505D01*
X061448Y028565D02*
X061448Y028625D01*
X061508Y028685D01*
X061688Y028685D01*
X061688Y028565D01*
X061628Y028505D01*
X061508Y028505D01*
X061448Y028565D01*
X061568Y028805D02*
X061448Y028865D01*
X061568Y028805D02*
X061688Y028685D01*
X061628Y028265D02*
X061508Y028265D01*
X061448Y028205D01*
X061448Y028145D01*
X061508Y028085D01*
X061628Y028085D01*
X061688Y028145D01*
X061688Y028205D01*
X061628Y028265D01*
X061628Y028085D02*
X061688Y028025D01*
X061688Y027965D01*
X061628Y027905D01*
X061508Y027905D01*
X061448Y027965D01*
X061448Y028025D01*
X061508Y028085D01*
X063316Y028105D02*
X063556Y027865D01*
X063556Y027805D01*
X063556Y028165D02*
X063316Y028165D01*
X063316Y028105D01*
X063376Y028405D02*
X063496Y028405D01*
X063556Y028465D01*
X063556Y028585D02*
X063436Y028645D01*
X063376Y028645D01*
X063316Y028585D01*
X063316Y028465D01*
X063376Y028405D01*
X063556Y028585D02*
X063556Y028765D01*
X063316Y028765D01*
X061688Y029285D02*
X061448Y029285D01*
X061508Y029465D02*
X061688Y029285D01*
X061508Y029105D02*
X061508Y029465D01*
X061448Y029705D02*
X061688Y029705D01*
X061448Y029945D01*
X061448Y030005D01*
X061508Y030065D01*
X061628Y030065D01*
X061688Y030005D01*
X060771Y029465D02*
X060711Y029405D01*
X059662Y029825D02*
X059542Y029705D01*
X059422Y029825D01*
X059422Y030065D01*
X059662Y030065D02*
X059662Y029825D01*
X071816Y028165D02*
X071816Y028105D01*
X072056Y027865D01*
X072056Y027805D01*
X071996Y027565D02*
X072056Y027505D01*
X072056Y027445D01*
X071996Y027385D01*
X071816Y027385D01*
X071816Y027505D02*
X071876Y027565D01*
X071996Y027565D01*
X071816Y027505D02*
X071816Y027265D01*
X071876Y027205D01*
X071996Y027205D01*
X072056Y027265D01*
X072056Y028165D02*
X071816Y028165D01*
X072613Y029005D02*
X072553Y029065D01*
X072553Y029305D01*
X072613Y029365D01*
X072733Y029365D01*
X072793Y029305D01*
X072793Y029065D01*
X072733Y029005D01*
X072613Y029005D01*
X072921Y029065D02*
X072981Y029005D01*
X073101Y029005D01*
X073161Y029065D01*
X073101Y029185D02*
X072981Y029185D01*
X072921Y029125D01*
X072921Y029065D01*
X073101Y029185D02*
X073161Y029245D01*
X073161Y029305D01*
X073101Y029365D01*
X072981Y029365D01*
X072921Y029305D01*
X073287Y029365D02*
X073407Y029365D01*
X073347Y029365D02*
X073347Y029005D01*
X073407Y029005D02*
X073287Y029005D01*
X073535Y029005D02*
X073535Y029365D01*
X073655Y029245D01*
X073775Y029365D01*
X073775Y029005D01*
X073588Y030480D02*
X073588Y030840D01*
X073348Y030840D01*
X073468Y030660D02*
X073588Y030660D01*
X073160Y030540D02*
X073100Y030480D01*
X072974Y030480D02*
X072974Y030840D01*
X071931Y030720D02*
X071931Y030480D01*
X054688Y022680D02*
X054688Y022440D01*
X054628Y022380D01*
X054508Y022380D01*
X054448Y022440D01*
X054320Y022380D02*
X054320Y022740D01*
X054260Y022620D02*
X054140Y022620D01*
X054080Y022560D01*
X054080Y022380D01*
X053952Y022500D02*
X053711Y022500D01*
X053711Y022620D02*
X053771Y022620D01*
X053952Y022620D01*
X053891Y022740D02*
X053891Y022380D01*
X053771Y022380D02*
X053771Y022740D01*
X053583Y022620D02*
X053463Y022740D01*
X053463Y022380D01*
X053583Y022380D02*
X053343Y022380D01*
X052847Y022440D02*
X052787Y022380D01*
X052606Y022380D01*
X052478Y022440D02*
X052418Y022380D01*
X052298Y022380D01*
X052238Y022440D01*
X052238Y022560D01*
X052298Y022620D01*
X052418Y022620D01*
X052478Y022560D01*
X052478Y022440D01*
X052606Y022620D02*
X052787Y022620D01*
X052847Y022560D01*
X052847Y022440D01*
X052110Y022380D02*
X052110Y022620D01*
X051930Y022620D01*
X051870Y022560D01*
X051870Y022380D01*
X051682Y022440D02*
X051622Y022380D01*
X051682Y022440D02*
X051682Y022680D01*
X051742Y022620D02*
X051622Y022620D01*
X051496Y022620D02*
X051496Y022380D01*
X051496Y022500D02*
X051376Y022620D01*
X051316Y022620D01*
X051189Y022560D02*
X051189Y022440D01*
X051129Y022380D01*
X051009Y022380D01*
X050949Y022440D01*
X050949Y022560D01*
X051009Y022620D01*
X051129Y022620D01*
X051189Y022560D01*
X050821Y022740D02*
X050761Y022740D01*
X050761Y022380D01*
X050821Y022380D02*
X050701Y022380D01*
X050207Y022380D02*
X049967Y022740D01*
X049839Y022620D02*
X049719Y022740D01*
X049719Y022380D01*
X049839Y022380D02*
X049598Y022380D01*
X049967Y022380D02*
X050207Y022740D01*
X048696Y022767D02*
X048696Y022406D01*
X048456Y022406D01*
X048328Y022406D02*
X048088Y022406D01*
X047960Y022406D02*
X047780Y022406D01*
X047720Y022466D01*
X047720Y022707D01*
X047780Y022767D01*
X047960Y022767D01*
X047960Y022406D01*
X048208Y022587D02*
X048328Y022587D01*
X048328Y022767D02*
X048328Y022406D01*
X048328Y022767D02*
X048088Y022767D01*
X047592Y022346D02*
X047351Y022346D01*
X047223Y022406D02*
X047223Y022767D01*
X047043Y022767D01*
X046983Y022707D01*
X046983Y022587D01*
X047043Y022527D01*
X047223Y022527D01*
X046855Y022527D02*
X046675Y022527D01*
X046615Y022587D01*
X046615Y022707D01*
X046675Y022767D01*
X046855Y022767D01*
X046855Y022406D01*
X046735Y022527D02*
X046615Y022406D01*
X046487Y022466D02*
X046427Y022406D01*
X046306Y022406D01*
X046246Y022466D01*
X046246Y022707D01*
X046306Y022767D01*
X046427Y022767D01*
X046487Y022707D01*
X046487Y022466D01*
X046118Y022466D02*
X046058Y022406D01*
X045938Y022406D01*
X045878Y022466D01*
X045878Y022587D01*
X045998Y022587D01*
X045878Y022707D02*
X045938Y022767D01*
X046058Y022767D01*
X046118Y022707D01*
X046118Y022466D01*
X045750Y022406D02*
X045510Y022406D01*
X045630Y022406D02*
X045630Y022767D01*
X045750Y022647D01*
X045038Y022767D02*
X045038Y022406D01*
X044798Y022406D01*
X044670Y022406D02*
X044429Y022406D01*
X044301Y022406D02*
X044121Y022406D01*
X044061Y022466D01*
X044061Y022707D01*
X044121Y022767D01*
X044301Y022767D01*
X044301Y022406D01*
X044550Y022587D02*
X044670Y022587D01*
X044670Y022767D02*
X044670Y022406D01*
X044670Y022767D02*
X044429Y022767D01*
X043933Y022346D02*
X043693Y022346D01*
X043565Y022466D02*
X043505Y022406D01*
X043385Y022406D01*
X043325Y022466D01*
X043325Y022527D01*
X043385Y022587D01*
X043505Y022587D01*
X043565Y022647D01*
X043565Y022707D01*
X043505Y022767D01*
X043385Y022767D01*
X043325Y022707D01*
X043196Y022647D02*
X043076Y022767D01*
X043076Y022406D01*
X043196Y022406D02*
X042956Y022406D01*
X043013Y025171D02*
X043013Y025531D01*
X043133Y025411D01*
X043261Y025471D02*
X043322Y025531D01*
X043442Y025531D01*
X043502Y025471D01*
X043502Y025231D01*
X043442Y025171D01*
X043322Y025171D01*
X043261Y025231D01*
X043133Y025171D02*
X042893Y025171D01*
X043630Y025231D02*
X043690Y025171D01*
X043810Y025171D01*
X043870Y025231D01*
X043870Y025471D01*
X043810Y025531D01*
X043690Y025531D01*
X043630Y025471D01*
X043998Y025111D02*
X044238Y025111D01*
X044366Y025231D02*
X044366Y025471D01*
X044426Y025531D01*
X044607Y025531D01*
X044607Y025171D01*
X044426Y025171D01*
X044366Y025231D01*
X044735Y025171D02*
X044975Y025171D01*
X044975Y025531D01*
X044735Y025531D01*
X044855Y025351D02*
X044975Y025351D01*
X045103Y025171D02*
X045343Y025171D01*
X045343Y025531D01*
X045368Y027926D02*
X045128Y027926D01*
X045000Y027926D02*
X044760Y027926D01*
X044632Y027926D02*
X044451Y027926D01*
X044391Y027987D01*
X044391Y028227D01*
X044451Y028287D01*
X044632Y028287D01*
X044632Y027926D01*
X044880Y028107D02*
X045000Y028107D01*
X045000Y028287D02*
X045000Y027926D01*
X045000Y028287D02*
X044760Y028287D01*
X045368Y028287D02*
X045368Y027926D01*
X044263Y027866D02*
X044023Y027866D01*
X043895Y027987D02*
X043835Y027926D01*
X043715Y027926D01*
X043655Y027987D01*
X043527Y028047D02*
X043407Y027926D01*
X043286Y028047D01*
X043286Y028287D01*
X043158Y028227D02*
X043098Y028287D01*
X042978Y028287D01*
X042918Y028227D01*
X042918Y028167D01*
X043158Y027926D01*
X042918Y027926D01*
X043527Y028047D02*
X043527Y028287D01*
X043655Y028227D02*
X043715Y028287D01*
X043835Y028287D01*
X043895Y028227D01*
X043895Y027987D01*
X034615Y028740D02*
X034374Y028740D01*
X034494Y028740D02*
X034494Y028380D01*
X034246Y028380D02*
X034246Y028740D01*
X034006Y028740D01*
X033878Y028740D02*
X033758Y028620D01*
X033638Y028740D01*
X033638Y028380D01*
X033510Y028380D02*
X033510Y028740D01*
X033330Y028740D01*
X033269Y028680D01*
X033269Y028560D01*
X033330Y028500D01*
X033510Y028500D01*
X033510Y028140D02*
X033510Y027840D01*
X033450Y027780D01*
X033330Y027780D01*
X033269Y027840D01*
X033269Y028140D01*
X033141Y028320D02*
X032901Y028320D01*
X032773Y028380D02*
X032773Y028740D01*
X032533Y028380D01*
X032533Y028740D01*
X032405Y028740D02*
X032165Y028740D01*
X032285Y028740D02*
X032285Y028380D01*
X032345Y028140D02*
X032405Y028080D01*
X032405Y027840D01*
X032345Y027780D01*
X032225Y027780D01*
X032165Y027840D01*
X032036Y027840D02*
X031976Y027780D01*
X031856Y027780D01*
X031796Y027840D01*
X031796Y028080D02*
X031856Y028140D01*
X031976Y028140D01*
X032036Y028080D01*
X032036Y027840D01*
X032165Y028080D02*
X032225Y028140D01*
X032345Y028140D01*
X032533Y028140D02*
X032533Y027900D01*
X032653Y027780D01*
X032773Y027900D01*
X032773Y028140D01*
X032901Y027720D02*
X033141Y027720D01*
X033019Y027540D02*
X033019Y027300D01*
X032898Y027180D01*
X032778Y027300D01*
X032778Y027540D01*
X032650Y027360D02*
X032650Y027240D01*
X032590Y027180D01*
X032470Y027180D01*
X032410Y027240D01*
X032410Y027360D01*
X032470Y027420D01*
X032590Y027420D01*
X032650Y027360D01*
X032282Y027420D02*
X032282Y027240D01*
X032222Y027180D01*
X032042Y027180D01*
X032042Y027420D01*
X031914Y027420D02*
X031794Y027420D01*
X031854Y027480D02*
X031854Y027240D01*
X031794Y027180D01*
X031854Y026880D02*
X031854Y026640D01*
X031794Y026580D01*
X031794Y026820D02*
X031914Y026820D01*
X032042Y026820D02*
X032042Y026580D01*
X032222Y026580D01*
X032282Y026640D01*
X032282Y026820D01*
X032410Y026760D02*
X032470Y026820D01*
X032590Y026820D01*
X032650Y026760D01*
X032650Y026640D01*
X032590Y026580D01*
X032470Y026580D01*
X032410Y026640D01*
X032410Y026760D01*
X032778Y026700D02*
X032778Y026940D01*
X032778Y026700D02*
X032898Y026580D01*
X033019Y026700D01*
X033019Y026940D01*
X033147Y026760D02*
X033387Y026760D01*
X033698Y026340D02*
X033818Y026340D01*
X033878Y026280D01*
X033878Y026220D01*
X033818Y026160D01*
X033698Y026160D01*
X033638Y026100D01*
X033638Y026040D01*
X033698Y025980D01*
X033818Y025980D01*
X033878Y026040D01*
X033638Y026280D02*
X033698Y026340D01*
X033510Y026160D02*
X033450Y026220D01*
X033330Y026220D01*
X033269Y026160D01*
X033269Y026100D01*
X033510Y026100D01*
X033510Y026040D02*
X033510Y026160D01*
X033510Y026040D02*
X033450Y025980D01*
X033330Y025980D01*
X033141Y025980D02*
X033141Y026220D01*
X032961Y026220D01*
X032901Y026160D01*
X032901Y025980D01*
X032773Y025980D02*
X032593Y025980D01*
X032533Y026040D01*
X032593Y026100D01*
X032713Y026100D01*
X032773Y026160D01*
X032713Y026220D01*
X032533Y026220D01*
X032405Y026160D02*
X032345Y026220D01*
X032225Y026220D01*
X032165Y026160D01*
X032165Y026100D01*
X032405Y026100D01*
X032405Y026040D02*
X032405Y026160D01*
X032405Y026040D02*
X032345Y025980D01*
X032225Y025980D01*
X032036Y026160D02*
X031796Y026160D01*
X031854Y025680D02*
X031854Y025440D01*
X031794Y025380D01*
X031794Y025620D02*
X031914Y025620D01*
X032042Y025620D02*
X032042Y025380D01*
X032222Y025380D01*
X032282Y025440D01*
X032282Y025620D01*
X032410Y025560D02*
X032470Y025620D01*
X032590Y025620D01*
X032650Y025560D01*
X032650Y025440D01*
X032590Y025380D01*
X032470Y025380D01*
X032410Y025440D01*
X032410Y025560D01*
X032778Y025500D02*
X032778Y025740D01*
X032778Y025500D02*
X032898Y025380D01*
X033019Y025500D01*
X033019Y025740D01*
X033147Y025560D02*
X033387Y025560D01*
X033267Y025680D02*
X033267Y025440D01*
X033267Y025080D02*
X033267Y024840D01*
X033387Y024960D02*
X033147Y024960D01*
X033019Y024900D02*
X033019Y025140D01*
X033019Y024900D02*
X032898Y024780D01*
X032778Y024900D01*
X032778Y025140D01*
X032650Y024960D02*
X032590Y025020D01*
X032470Y025020D01*
X032410Y024960D01*
X032410Y024840D01*
X032470Y024780D01*
X032590Y024780D01*
X032650Y024840D01*
X032650Y024960D01*
X032282Y025020D02*
X032282Y024840D01*
X032222Y024780D01*
X032042Y024780D01*
X032042Y025020D01*
X031914Y025020D02*
X031794Y025020D01*
X031854Y025080D02*
X031854Y024840D01*
X031794Y024780D01*
X031300Y024780D02*
X031060Y025020D01*
X031060Y025080D01*
X031120Y025140D01*
X031240Y025140D01*
X031300Y025080D01*
X031300Y025380D02*
X031060Y025620D01*
X031060Y025680D01*
X031120Y025740D01*
X031240Y025740D01*
X031300Y025680D01*
X031300Y025980D02*
X031060Y026220D01*
X031060Y026280D01*
X031120Y026340D01*
X031240Y026340D01*
X031300Y026280D01*
X031300Y026580D02*
X031060Y026580D01*
X031180Y026580D02*
X031180Y026940D01*
X031300Y026820D01*
X031300Y027180D02*
X031060Y027180D01*
X031180Y027180D02*
X031180Y027540D01*
X031300Y027420D01*
X031300Y027780D02*
X031060Y027780D01*
X031180Y027780D02*
X031180Y028140D01*
X031300Y028020D01*
X031300Y028380D02*
X031060Y028380D01*
X031180Y028380D02*
X031180Y028740D01*
X031300Y028620D01*
X031300Y028980D02*
X031060Y028980D01*
X031180Y028980D02*
X031180Y029340D01*
X031300Y029220D01*
X030931Y029220D02*
X030811Y029340D01*
X030811Y028980D01*
X030931Y028980D02*
X030691Y028980D01*
X030751Y028740D02*
X030691Y028680D01*
X030691Y028620D01*
X030751Y028560D01*
X030691Y028500D01*
X030691Y028440D01*
X030751Y028380D01*
X030871Y028380D01*
X030931Y028440D01*
X030811Y028560D02*
X030751Y028560D01*
X030751Y028740D02*
X030871Y028740D01*
X030931Y028680D01*
X030931Y028140D02*
X030691Y028140D01*
X030751Y028020D02*
X030691Y027960D01*
X030691Y027840D01*
X030751Y027780D01*
X030871Y027780D01*
X030931Y027840D01*
X030931Y027960D02*
X030811Y028020D01*
X030751Y028020D01*
X030931Y027960D02*
X030931Y028140D01*
X031796Y028440D02*
X031856Y028380D01*
X031976Y028380D01*
X032036Y028440D01*
X032036Y028680D01*
X031976Y028740D01*
X031856Y028740D01*
X031796Y028680D01*
X031916Y028980D02*
X031916Y029340D01*
X032036Y029340D02*
X031796Y029340D01*
X031856Y029580D02*
X031976Y029580D01*
X032036Y029640D01*
X031976Y029760D02*
X031856Y029760D01*
X031796Y029700D01*
X031796Y029640D01*
X031856Y029580D01*
X031668Y029640D02*
X031608Y029580D01*
X031488Y029580D01*
X031428Y029640D01*
X031428Y029880D01*
X031488Y029940D01*
X031608Y029940D01*
X031668Y029880D01*
X031668Y029640D01*
X031796Y029880D02*
X031856Y029940D01*
X031976Y029940D01*
X032036Y029880D01*
X032036Y029820D01*
X031976Y029760D01*
X032162Y029940D02*
X032282Y029940D01*
X032222Y029940D02*
X032222Y029580D01*
X032282Y029580D02*
X032162Y029580D01*
X032165Y029340D02*
X032405Y029340D01*
X032405Y028980D01*
X032165Y028980D01*
X032285Y029160D02*
X032405Y029160D01*
X032533Y029100D02*
X032533Y029040D01*
X032593Y028980D01*
X032713Y028980D01*
X032773Y029040D01*
X032901Y029040D02*
X032901Y029340D01*
X032773Y029280D02*
X032773Y029220D01*
X032713Y029160D01*
X032593Y029160D01*
X032533Y029100D01*
X032533Y029280D02*
X032593Y029340D01*
X032713Y029340D01*
X032773Y029280D01*
X032901Y029040D02*
X032961Y028980D01*
X033081Y028980D01*
X033141Y029040D01*
X033141Y029340D01*
X033269Y028920D02*
X033510Y028920D01*
X033638Y028980D02*
X033878Y029340D01*
X034006Y029340D02*
X034006Y029040D01*
X034066Y028980D01*
X034186Y028980D01*
X034246Y029040D01*
X034246Y029340D01*
X034374Y029220D02*
X034374Y028980D01*
X034374Y029160D02*
X034615Y029160D01*
X034615Y029220D02*
X034494Y029340D01*
X034374Y029220D01*
X034615Y029220D02*
X034615Y028980D01*
X034246Y028560D02*
X034126Y028560D01*
X034246Y028380D02*
X034006Y028380D01*
X033878Y028380D02*
X033878Y028740D01*
X033878Y028980D02*
X033638Y029340D01*
X032650Y029580D02*
X032650Y029940D01*
X032530Y029820D01*
X032410Y029940D01*
X032410Y029580D01*
X032345Y030180D02*
X032225Y030180D01*
X032165Y030240D01*
X032036Y030180D02*
X031796Y030180D01*
X031668Y030180D02*
X031668Y030540D01*
X031608Y030360D02*
X031428Y030180D01*
X031668Y030300D02*
X031428Y030540D01*
X031548Y030780D02*
X031548Y031140D01*
X031668Y031140D02*
X031428Y031140D01*
X031320Y031220D02*
X033161Y031220D01*
X033141Y031140D02*
X032961Y031140D01*
X032901Y031080D01*
X032901Y030960D01*
X032961Y030900D01*
X033141Y030900D01*
X033021Y030900D02*
X032901Y030780D01*
X032773Y030780D02*
X032533Y030780D01*
X032405Y030840D02*
X032345Y030780D01*
X032225Y030780D01*
X032165Y030840D01*
X032165Y030900D01*
X032225Y030960D01*
X032345Y030960D01*
X032405Y031020D01*
X032405Y031080D01*
X032345Y031140D01*
X032225Y031140D01*
X032165Y031080D01*
X032036Y031140D02*
X032036Y030780D01*
X031796Y030780D01*
X031916Y030960D02*
X032036Y030960D01*
X032036Y031140D02*
X031796Y031140D01*
X031796Y031380D02*
X032036Y031740D01*
X032165Y031740D02*
X032405Y031740D01*
X032405Y031380D01*
X032165Y031380D01*
X032036Y031380D02*
X031796Y031740D01*
X031668Y031740D02*
X031488Y031740D01*
X031428Y031680D01*
X031428Y031560D01*
X031488Y031500D01*
X031668Y031500D01*
X031668Y031380D02*
X031668Y031740D01*
X031733Y031980D02*
X031854Y031980D01*
X031914Y032040D01*
X032042Y032040D02*
X032102Y031980D01*
X032222Y031980D01*
X032282Y032040D01*
X032282Y032280D01*
X032222Y032340D01*
X032102Y032340D01*
X032042Y032280D01*
X032042Y032040D01*
X031914Y032220D02*
X031854Y032160D01*
X031733Y032160D01*
X031673Y032100D01*
X031673Y032040D01*
X031733Y031980D01*
X031545Y031980D02*
X031425Y031980D01*
X031485Y031980D02*
X031485Y032340D01*
X031545Y032340D02*
X031425Y032340D01*
X031673Y032280D02*
X031733Y032340D01*
X031854Y032340D01*
X031914Y032280D01*
X031914Y032220D01*
X032410Y032340D02*
X032410Y031980D01*
X032650Y031980D02*
X032650Y032340D01*
X032530Y032220D01*
X032410Y032340D01*
X032463Y032855D02*
X032463Y033215D01*
X032283Y033215D01*
X032223Y033155D01*
X032223Y033035D01*
X032283Y032975D01*
X032463Y032975D01*
X032095Y033035D02*
X032095Y032915D01*
X032035Y032855D01*
X031915Y032855D01*
X031855Y032915D01*
X031855Y033035D01*
X031915Y033095D01*
X032035Y033095D01*
X032095Y033035D01*
X031727Y033095D02*
X031727Y032915D01*
X031666Y032855D01*
X031606Y032915D01*
X031546Y032855D01*
X031486Y032915D01*
X031486Y033095D01*
X031358Y033035D02*
X031298Y033095D01*
X031178Y033095D01*
X031118Y033035D01*
X031118Y032975D01*
X031358Y032975D01*
X031358Y032915D02*
X031358Y033035D01*
X031358Y032915D02*
X031298Y032855D01*
X031178Y032855D01*
X030990Y032855D02*
X030990Y033095D01*
X030870Y033095D02*
X030810Y033095D01*
X030870Y033095D02*
X030990Y032975D01*
X030315Y032855D02*
X030315Y033095D01*
X030255Y033095D01*
X030195Y033035D01*
X030134Y033095D01*
X030074Y033035D01*
X030074Y032855D01*
X030195Y032855D02*
X030195Y033035D01*
X029946Y033035D02*
X029946Y032915D01*
X029886Y032855D01*
X029766Y032855D01*
X029706Y032915D01*
X029706Y033035D01*
X029766Y033095D01*
X029886Y033095D01*
X029946Y033035D01*
X029578Y033035D02*
X029518Y033095D01*
X029338Y033095D01*
X029338Y033215D02*
X029338Y032855D01*
X029518Y032855D01*
X029578Y032915D01*
X029578Y033035D01*
X029210Y033095D02*
X029210Y032915D01*
X029150Y032855D01*
X028969Y032855D01*
X028969Y033095D01*
X028841Y033215D02*
X028781Y033215D01*
X028781Y032855D01*
X028841Y032855D02*
X028721Y032855D01*
X028596Y032915D02*
X028536Y032855D01*
X028416Y032855D01*
X028356Y032975D02*
X028596Y032975D01*
X028596Y033035D02*
X028536Y033095D01*
X028416Y033095D01*
X028356Y033035D01*
X028356Y032975D01*
X028596Y032915D02*
X028596Y033035D01*
X028327Y032440D02*
X028327Y032200D01*
X028206Y032080D01*
X028086Y032200D01*
X028086Y032440D01*
X027958Y032260D02*
X027898Y032320D01*
X027718Y032320D01*
X027718Y032440D02*
X027718Y032080D01*
X027898Y032080D01*
X027958Y032140D01*
X027958Y032260D01*
X027590Y032260D02*
X027530Y032320D01*
X027350Y032320D01*
X027350Y032440D02*
X027350Y032080D01*
X027530Y032080D01*
X027590Y032140D01*
X027590Y032260D01*
X027778Y031840D02*
X027898Y031840D01*
X027958Y031780D01*
X027958Y031720D01*
X027898Y031660D01*
X027778Y031660D01*
X027718Y031600D01*
X027718Y031540D01*
X027778Y031480D01*
X027898Y031480D01*
X027958Y031540D01*
X028086Y031540D02*
X028146Y031480D01*
X028266Y031480D01*
X028327Y031540D01*
X028327Y031780D01*
X028266Y031840D01*
X028146Y031840D01*
X028086Y031780D01*
X027778Y031840D02*
X027718Y031780D01*
X027590Y031420D02*
X027350Y031420D01*
X027222Y031480D02*
X027041Y031480D01*
X026981Y031540D01*
X026981Y031780D01*
X027041Y031840D01*
X027222Y031840D01*
X027222Y031480D01*
X027101Y031240D02*
X026981Y031120D01*
X026981Y030880D01*
X026853Y030880D02*
X026673Y030880D01*
X026613Y030940D01*
X026613Y031180D01*
X026673Y031240D01*
X026853Y031240D01*
X026853Y030880D01*
X026981Y031060D02*
X027222Y031060D01*
X027222Y031120D02*
X027101Y031240D01*
X027222Y031120D02*
X027222Y030880D01*
X027350Y030820D02*
X027590Y030820D01*
X027718Y030940D02*
X027778Y030880D01*
X027898Y030880D01*
X027958Y030940D01*
X028086Y030940D02*
X028146Y030880D01*
X028266Y030880D01*
X028327Y030940D01*
X028327Y031180D01*
X028266Y031240D01*
X028146Y031240D01*
X028086Y031180D01*
X027958Y031180D02*
X027958Y031120D01*
X027898Y031060D01*
X027778Y031060D01*
X027718Y031000D01*
X027718Y030940D01*
X027718Y031180D02*
X027778Y031240D01*
X027898Y031240D01*
X027958Y031180D01*
X028347Y030720D02*
X027364Y030720D01*
X027472Y030640D02*
X027713Y030640D01*
X027593Y030640D02*
X027593Y030280D01*
X027841Y030280D02*
X027841Y030640D01*
X028081Y030640D02*
X027841Y030280D01*
X028081Y030280D02*
X028081Y030640D01*
X028206Y030640D02*
X028327Y030640D01*
X028266Y030640D02*
X028266Y030280D01*
X028206Y030280D02*
X028327Y030280D01*
X028515Y030040D02*
X028455Y029980D01*
X028695Y029740D01*
X028635Y029680D01*
X028515Y029680D01*
X028455Y029740D01*
X028455Y029980D01*
X028515Y030040D02*
X028635Y030040D01*
X028695Y029980D01*
X028695Y029740D01*
X028823Y029680D02*
X029063Y029680D01*
X028943Y029680D02*
X028943Y030040D01*
X029063Y029920D01*
X029003Y030280D02*
X029063Y030340D01*
X029063Y030400D01*
X029003Y030460D01*
X028883Y030460D01*
X028823Y030400D01*
X028823Y030340D01*
X028883Y030280D01*
X029003Y030280D01*
X029003Y030460D02*
X029063Y030520D01*
X029063Y030580D01*
X029003Y030640D01*
X028883Y030640D01*
X028823Y030580D01*
X028823Y030520D01*
X028883Y030460D01*
X028883Y030880D02*
X028823Y030940D01*
X028823Y031000D01*
X028883Y031060D01*
X029063Y031060D01*
X029063Y030940D01*
X029003Y030880D01*
X028883Y030880D01*
X029063Y031060D02*
X028943Y031180D01*
X028823Y031240D01*
X028883Y031480D02*
X028883Y031840D01*
X029063Y031660D01*
X028823Y031660D01*
X028823Y032080D02*
X029063Y032080D01*
X028823Y032320D01*
X028823Y032380D01*
X028883Y032440D01*
X029003Y032440D01*
X029063Y032380D01*
X027859Y032855D02*
X027619Y033215D01*
X027491Y033155D02*
X027431Y033215D01*
X027311Y033215D01*
X027251Y033155D01*
X027251Y033095D01*
X027491Y032855D01*
X027251Y032855D01*
X027123Y032735D02*
X027002Y032855D01*
X027063Y032855D01*
X027063Y032915D01*
X027002Y032915D01*
X027002Y032855D01*
X026877Y032855D02*
X026637Y033215D01*
X026509Y033035D02*
X026269Y033035D01*
X026329Y033215D02*
X026509Y033035D01*
X026637Y032855D02*
X026877Y033215D01*
X026329Y033215D02*
X026329Y032855D01*
X027619Y032855D02*
X027859Y033215D01*
X026733Y031840D02*
X026613Y031720D01*
X026613Y031480D01*
X026485Y031540D02*
X026425Y031480D01*
X026305Y031480D01*
X026245Y031540D01*
X026245Y031780D02*
X026305Y031840D01*
X026425Y031840D01*
X026485Y031780D01*
X026485Y031540D01*
X026613Y031660D02*
X026853Y031660D01*
X026853Y031720D02*
X026733Y031840D01*
X026853Y031720D02*
X026853Y031480D01*
X026485Y031180D02*
X026485Y030940D01*
X026425Y030880D01*
X026305Y030880D01*
X026245Y030940D01*
X026245Y031180D02*
X026305Y031240D01*
X026425Y031240D01*
X026485Y031180D01*
X026981Y030040D02*
X026981Y029680D01*
X027162Y029680D01*
X027222Y029740D01*
X027222Y029860D01*
X027162Y029920D01*
X026981Y029920D01*
X027350Y029860D02*
X027350Y029680D01*
X027350Y029860D02*
X027410Y029920D01*
X027590Y029920D01*
X027590Y029680D01*
X027718Y029740D02*
X027718Y029860D01*
X027838Y029860D01*
X027718Y029980D02*
X027778Y030040D01*
X027898Y030040D01*
X027958Y029980D01*
X027958Y029740D01*
X027898Y029680D01*
X027778Y029680D01*
X027718Y029740D01*
X027778Y029440D02*
X027898Y029440D01*
X027958Y029380D01*
X027958Y029140D01*
X027898Y029080D01*
X027778Y029080D01*
X027718Y029140D01*
X027718Y029260D01*
X027838Y029260D01*
X027718Y029380D02*
X027778Y029440D01*
X027590Y029320D02*
X027410Y029320D01*
X027350Y029260D01*
X027350Y029080D01*
X027222Y029140D02*
X027222Y029260D01*
X027162Y029320D01*
X026981Y029320D01*
X026981Y029440D02*
X026981Y029080D01*
X027162Y029080D01*
X027222Y029140D01*
X027590Y029080D02*
X027590Y029320D01*
X027778Y028840D02*
X027898Y028840D01*
X027958Y028780D01*
X027958Y028540D01*
X027898Y028480D01*
X027778Y028480D01*
X027718Y028540D01*
X027718Y028660D01*
X027838Y028660D01*
X027718Y028780D02*
X027778Y028840D01*
X027590Y028720D02*
X027410Y028720D01*
X027350Y028660D01*
X027350Y028480D01*
X027222Y028540D02*
X027222Y028660D01*
X027162Y028720D01*
X026981Y028720D01*
X026981Y028840D02*
X026981Y028480D01*
X027162Y028480D01*
X027222Y028540D01*
X027590Y028480D02*
X027590Y028720D01*
X027778Y028240D02*
X027898Y028240D01*
X027958Y028180D01*
X027958Y027940D01*
X027898Y027880D01*
X027778Y027880D01*
X027718Y027940D01*
X027718Y028060D01*
X027838Y028060D01*
X027718Y028180D02*
X027778Y028240D01*
X027590Y028120D02*
X027410Y028120D01*
X027350Y028060D01*
X027350Y027880D01*
X027222Y027940D02*
X027222Y028060D01*
X027162Y028120D01*
X026981Y028120D01*
X026981Y028240D02*
X026981Y027880D01*
X027162Y027880D01*
X027222Y027940D01*
X027350Y027640D02*
X027350Y027400D01*
X027470Y027280D01*
X027590Y027400D01*
X027590Y027640D01*
X027718Y027460D02*
X027958Y027460D01*
X028455Y027520D02*
X028515Y027460D01*
X028635Y027460D01*
X028695Y027520D01*
X028695Y027580D01*
X028635Y027640D01*
X028515Y027640D01*
X028455Y027580D01*
X028455Y027520D01*
X028515Y027460D02*
X028455Y027400D01*
X028455Y027340D01*
X028515Y027280D01*
X028635Y027280D01*
X028695Y027340D01*
X028695Y027400D01*
X028635Y027460D01*
X028823Y027280D02*
X029063Y027280D01*
X028943Y027280D02*
X028943Y027640D01*
X029063Y027520D01*
X029063Y027880D02*
X028823Y027880D01*
X028943Y027880D02*
X028943Y028240D01*
X029063Y028120D01*
X029063Y028480D02*
X028823Y028480D01*
X028943Y028480D02*
X028943Y028840D01*
X029063Y028720D01*
X029063Y029080D02*
X028823Y029080D01*
X028943Y029080D02*
X028943Y029440D01*
X029063Y029320D01*
X028695Y029380D02*
X028635Y029440D01*
X028515Y029440D01*
X028455Y029380D01*
X028455Y029320D01*
X028695Y029080D01*
X028455Y029080D01*
X028515Y028840D02*
X028695Y028660D01*
X028455Y028660D01*
X028515Y028480D02*
X028515Y028840D01*
X028455Y028240D02*
X028575Y028180D01*
X028695Y028060D01*
X028515Y028060D01*
X028455Y028000D01*
X028455Y027940D01*
X028515Y027880D01*
X028635Y027880D01*
X028695Y027940D01*
X028695Y028060D01*
X027590Y028120D02*
X027590Y027880D01*
X027222Y027460D02*
X027162Y027520D01*
X027041Y027520D01*
X026981Y027460D01*
X026981Y027340D01*
X027041Y027280D01*
X027162Y027280D01*
X027222Y027340D01*
X027222Y027460D01*
X026853Y027520D02*
X026853Y027340D01*
X026793Y027280D01*
X026613Y027280D01*
X026613Y027520D01*
X026485Y027520D02*
X026365Y027520D01*
X026425Y027580D02*
X026425Y027340D01*
X026365Y027280D01*
X026425Y026980D02*
X026425Y026740D01*
X026365Y026680D01*
X026365Y026920D02*
X026485Y026920D01*
X026613Y026920D02*
X026613Y026680D01*
X026793Y026680D01*
X026853Y026740D01*
X026853Y026920D01*
X026981Y026860D02*
X027041Y026920D01*
X027162Y026920D01*
X027222Y026860D01*
X027222Y026740D01*
X027162Y026680D01*
X027041Y026680D01*
X026981Y026740D01*
X026981Y026860D01*
X027350Y026800D02*
X027470Y026680D01*
X027590Y026800D01*
X027590Y027040D01*
X027718Y026860D02*
X027958Y026860D01*
X027898Y026440D02*
X027958Y026380D01*
X027958Y026320D01*
X027898Y026260D01*
X027778Y026260D01*
X027718Y026200D01*
X027718Y026140D01*
X027778Y026080D01*
X027898Y026080D01*
X027958Y026140D01*
X027898Y026440D02*
X027778Y026440D01*
X027718Y026380D01*
X027590Y026260D02*
X027530Y026320D01*
X027410Y026320D01*
X027350Y026260D01*
X027350Y026200D01*
X027590Y026200D01*
X027590Y026140D02*
X027590Y026260D01*
X027590Y026140D02*
X027530Y026080D01*
X027410Y026080D01*
X027222Y026080D02*
X027222Y026320D01*
X027041Y026320D01*
X026981Y026260D01*
X026981Y026080D01*
X026853Y026080D02*
X026673Y026080D01*
X026613Y026140D01*
X026673Y026200D01*
X026793Y026200D01*
X026853Y026260D01*
X026793Y026320D01*
X026613Y026320D01*
X026485Y026260D02*
X026425Y026320D01*
X026305Y026320D01*
X026245Y026260D01*
X026245Y026200D01*
X026485Y026200D01*
X026485Y026140D02*
X026485Y026260D01*
X026485Y026140D02*
X026425Y026080D01*
X026305Y026080D01*
X026117Y026260D02*
X025876Y026260D01*
X025997Y026380D02*
X025997Y026140D01*
X026365Y025720D02*
X026485Y025720D01*
X026425Y025780D02*
X026425Y025540D01*
X026365Y025480D01*
X026613Y025480D02*
X026613Y025720D01*
X026853Y025720D02*
X026853Y025540D01*
X026793Y025480D01*
X026613Y025480D01*
X026425Y025180D02*
X026425Y024940D01*
X026365Y024880D01*
X026365Y025120D02*
X026485Y025120D01*
X026613Y025120D02*
X026613Y024880D01*
X026793Y024880D01*
X026853Y024940D01*
X026853Y025120D01*
X026981Y025060D02*
X027041Y025120D01*
X027162Y025120D01*
X027222Y025060D01*
X027222Y024940D01*
X027162Y024880D01*
X027041Y024880D01*
X026981Y024940D01*
X026981Y025060D01*
X027350Y025000D02*
X027470Y024880D01*
X027590Y025000D01*
X027590Y025240D01*
X027718Y025060D02*
X027958Y025060D01*
X027838Y025180D02*
X027838Y024940D01*
X027350Y025000D02*
X027350Y025240D01*
X027470Y025480D02*
X027350Y025600D01*
X027350Y025840D01*
X027222Y025660D02*
X027222Y025540D01*
X027162Y025480D01*
X027041Y025480D01*
X026981Y025540D01*
X026981Y025660D01*
X027041Y025720D01*
X027162Y025720D01*
X027222Y025660D01*
X027470Y025480D02*
X027590Y025600D01*
X027590Y025840D01*
X027718Y025660D02*
X027958Y025660D01*
X027838Y025780D02*
X027838Y025540D01*
X028455Y025660D02*
X028695Y025660D01*
X028515Y025840D01*
X028515Y025480D01*
X028455Y025240D02*
X028575Y025180D01*
X028695Y025060D01*
X028515Y025060D01*
X028455Y025000D01*
X028455Y024940D01*
X028515Y024880D01*
X028635Y024880D01*
X028695Y024940D01*
X028695Y025060D01*
X028823Y025120D02*
X028823Y025180D01*
X028883Y025240D01*
X029003Y025240D01*
X029063Y025180D01*
X028823Y025120D02*
X029063Y024880D01*
X028823Y024880D01*
X030691Y024840D02*
X030751Y024780D01*
X030871Y024780D01*
X030931Y024840D01*
X030931Y024960D02*
X030811Y025020D01*
X030751Y025020D01*
X030691Y024960D01*
X030691Y024840D01*
X030931Y024960D02*
X030931Y025140D01*
X030691Y025140D01*
X030751Y025380D02*
X030691Y025440D01*
X030691Y025500D01*
X030751Y025560D01*
X030811Y025560D01*
X030751Y025560D02*
X030691Y025620D01*
X030691Y025680D01*
X030751Y025740D01*
X030871Y025740D01*
X030931Y025680D01*
X030931Y025440D02*
X030871Y025380D01*
X030751Y025380D01*
X031060Y025380D02*
X031300Y025380D01*
X031300Y024780D02*
X031060Y024780D01*
X029063Y025480D02*
X028823Y025720D01*
X028823Y025780D01*
X028883Y025840D01*
X029003Y025840D01*
X029063Y025780D01*
X029063Y026080D02*
X028823Y026320D01*
X028823Y026380D01*
X028883Y026440D01*
X029003Y026440D01*
X029063Y026380D01*
X029063Y026680D02*
X028823Y026920D01*
X028823Y026980D01*
X028883Y027040D01*
X029003Y027040D01*
X029063Y026980D01*
X029063Y026680D02*
X028823Y026680D01*
X028695Y026740D02*
X028635Y026680D01*
X028515Y026680D01*
X028455Y026740D01*
X028455Y026980D01*
X028695Y026740D01*
X028695Y026980D01*
X028635Y027040D01*
X028515Y027040D01*
X028455Y026980D01*
X028515Y026440D02*
X028635Y026440D01*
X028695Y026380D01*
X028515Y026440D02*
X028455Y026380D01*
X028455Y026320D01*
X028695Y026080D01*
X028455Y026080D01*
X028823Y026080D02*
X029063Y026080D01*
X029063Y025480D02*
X028823Y025480D01*
X030691Y025980D02*
X030931Y025980D01*
X030811Y025980D02*
X030811Y026340D01*
X030931Y026220D01*
X031060Y025980D02*
X031300Y025980D01*
X030871Y026580D02*
X030751Y026580D01*
X030691Y026640D01*
X030691Y026880D01*
X030751Y026940D01*
X030871Y026940D01*
X030931Y026880D01*
X030931Y026820D01*
X030871Y026760D01*
X030691Y026760D01*
X030871Y026580D02*
X030931Y026640D01*
X030931Y027180D02*
X030931Y027240D01*
X030691Y027480D01*
X030691Y027540D01*
X030931Y027540D01*
X033147Y027360D02*
X033387Y027360D01*
X033698Y027780D02*
X033638Y027840D01*
X033698Y027780D02*
X033818Y027780D01*
X033878Y027840D01*
X033878Y028080D01*
X033818Y028140D01*
X033698Y028140D01*
X033638Y028080D01*
X034006Y028140D02*
X034006Y027780D01*
X034246Y027780D02*
X034246Y028140D01*
X034126Y028020D01*
X034006Y028140D01*
X030931Y029640D02*
X030871Y029580D01*
X030751Y029580D01*
X030691Y029640D01*
X030691Y029880D01*
X030751Y029940D01*
X030871Y029940D01*
X030931Y029880D01*
X030931Y029820D01*
X030871Y029760D01*
X030691Y029760D01*
X030931Y030180D02*
X030931Y030240D01*
X030691Y030480D01*
X030691Y030540D01*
X030931Y030540D01*
X030871Y030780D02*
X030931Y030840D01*
X030871Y030780D02*
X030751Y030780D01*
X030691Y030840D01*
X030691Y030960D01*
X030751Y031020D01*
X030811Y031020D01*
X030931Y030960D01*
X030931Y031140D01*
X030691Y031140D01*
X030751Y031380D02*
X030691Y031440D01*
X030691Y031500D01*
X030751Y031560D01*
X030811Y031560D01*
X030751Y031560D02*
X030691Y031620D01*
X030691Y031680D01*
X030751Y031740D01*
X030871Y031740D01*
X030931Y031680D01*
X030931Y031440D02*
X030871Y031380D01*
X030751Y031380D01*
X030691Y031980D02*
X030931Y031980D01*
X030811Y031980D02*
X030811Y032340D01*
X030931Y032220D01*
X032285Y031560D02*
X032405Y031560D01*
X032533Y031320D02*
X032773Y031320D01*
X032901Y031440D02*
X032961Y031380D01*
X033081Y031380D01*
X033141Y031440D01*
X033269Y031440D02*
X033330Y031380D01*
X033450Y031380D01*
X033510Y031440D01*
X033510Y031680D01*
X033450Y031740D01*
X033330Y031740D01*
X033269Y031680D01*
X033141Y031680D02*
X033141Y031620D01*
X033081Y031560D01*
X032961Y031560D01*
X032901Y031500D01*
X032901Y031440D01*
X032901Y031680D02*
X032961Y031740D01*
X033081Y031740D01*
X033141Y031680D01*
X033141Y031140D02*
X033141Y030780D01*
X032773Y030780D02*
X032773Y031140D01*
X032533Y031140D01*
X032653Y030960D02*
X032773Y030960D01*
X032713Y030540D02*
X032773Y030480D01*
X032773Y030420D01*
X032713Y030360D01*
X032593Y030360D01*
X032533Y030300D01*
X032533Y030240D01*
X032593Y030180D01*
X032713Y030180D01*
X032773Y030240D01*
X032713Y030540D02*
X032593Y030540D01*
X032533Y030480D01*
X032405Y030480D02*
X032405Y030240D01*
X032345Y030180D01*
X032405Y030480D02*
X032345Y030540D01*
X032225Y030540D01*
X032165Y030480D01*
X032036Y030540D02*
X032036Y030180D01*
X027350Y027040D02*
X027350Y026800D01*
X016631Y025506D02*
X016631Y025146D01*
X016391Y025146D01*
X016263Y025146D02*
X016023Y025146D01*
X015895Y025146D02*
X015715Y025146D01*
X015654Y025206D01*
X015654Y025446D01*
X015715Y025506D01*
X015895Y025506D01*
X015895Y025146D01*
X016143Y025326D02*
X016263Y025326D01*
X016263Y025506D02*
X016263Y025146D01*
X016263Y025506D02*
X016023Y025506D01*
X015526Y025086D02*
X015286Y025086D01*
X015158Y025206D02*
X015098Y025146D01*
X014978Y025146D01*
X014918Y025206D01*
X014790Y025206D02*
X014730Y025146D01*
X014610Y025146D01*
X014550Y025206D01*
X014421Y025146D02*
X014181Y025386D01*
X014181Y025446D01*
X014241Y025506D01*
X014361Y025506D01*
X014421Y025446D01*
X014550Y025446D02*
X014610Y025506D01*
X014730Y025506D01*
X014790Y025446D01*
X014790Y025206D01*
X014918Y025446D02*
X014978Y025506D01*
X015098Y025506D01*
X015158Y025446D01*
X015158Y025206D01*
X014421Y025146D02*
X014181Y025146D01*
X014291Y022750D02*
X014411Y022750D01*
X014471Y022690D01*
X014600Y022690D02*
X014660Y022750D01*
X014780Y022750D01*
X014840Y022690D01*
X014840Y022630D01*
X014780Y022570D01*
X014660Y022570D01*
X014600Y022510D01*
X014600Y022450D01*
X014660Y022390D01*
X014780Y022390D01*
X014840Y022450D01*
X014968Y022330D02*
X015208Y022330D01*
X015336Y022450D02*
X015336Y022690D01*
X015396Y022750D01*
X015576Y022750D01*
X015576Y022390D01*
X015396Y022390D01*
X015336Y022450D01*
X015704Y022390D02*
X015945Y022390D01*
X015945Y022750D01*
X015704Y022750D01*
X015825Y022570D02*
X015945Y022570D01*
X016073Y022390D02*
X016313Y022390D01*
X016313Y022750D01*
X016809Y022690D02*
X016869Y022750D01*
X016989Y022750D01*
X017049Y022690D01*
X017177Y022690D02*
X017237Y022750D01*
X017357Y022750D01*
X017417Y022690D01*
X017417Y022450D01*
X017357Y022390D01*
X017237Y022390D01*
X017177Y022450D01*
X017177Y022570D01*
X017297Y022570D01*
X017546Y022690D02*
X017606Y022750D01*
X017726Y022750D01*
X017786Y022690D01*
X017786Y022450D01*
X017726Y022390D01*
X017606Y022390D01*
X017546Y022450D01*
X017546Y022690D01*
X017914Y022690D02*
X017914Y022570D01*
X017974Y022510D01*
X018154Y022510D01*
X018034Y022510D02*
X017914Y022390D01*
X018154Y022390D02*
X018154Y022750D01*
X017974Y022750D01*
X017914Y022690D01*
X018282Y022690D02*
X018282Y022570D01*
X018342Y022510D01*
X018522Y022510D01*
X018522Y022390D02*
X018522Y022750D01*
X018342Y022750D01*
X018282Y022690D01*
X018651Y022330D02*
X018891Y022330D01*
X019019Y022450D02*
X019019Y022690D01*
X019079Y022750D01*
X019259Y022750D01*
X019259Y022390D01*
X019079Y022390D01*
X019019Y022450D01*
X019387Y022390D02*
X019627Y022390D01*
X019627Y022750D01*
X019387Y022750D01*
X019507Y022570D02*
X019627Y022570D01*
X019755Y022390D02*
X019996Y022390D01*
X019996Y022750D01*
X017049Y022390D02*
X016809Y022630D01*
X016809Y022690D01*
X016809Y022390D02*
X017049Y022390D01*
X014471Y022390D02*
X014231Y022630D01*
X014231Y022690D01*
X014291Y022750D01*
X014231Y022390D02*
X014471Y022390D01*
X015236Y027841D02*
X015476Y027841D01*
X015604Y027962D02*
X015604Y028202D01*
X015665Y028262D01*
X015845Y028262D01*
X015845Y027901D01*
X015665Y027901D01*
X015604Y027962D01*
X015973Y027901D02*
X016213Y027901D01*
X016213Y028262D01*
X015973Y028262D01*
X016093Y028082D02*
X016213Y028082D01*
X016341Y027901D02*
X016581Y027901D01*
X016581Y028262D01*
X015108Y028202D02*
X015108Y027962D01*
X015048Y027901D01*
X014928Y027901D01*
X014868Y027962D01*
X014740Y028022D02*
X014620Y027901D01*
X014500Y028022D01*
X014500Y028262D01*
X014371Y028142D02*
X014251Y028262D01*
X014251Y027901D01*
X014371Y027901D02*
X014131Y027901D01*
X014740Y028022D02*
X014740Y028262D01*
X014868Y028202D02*
X014928Y028262D01*
X015048Y028262D01*
X015108Y028202D01*
X049916Y021505D02*
X050156Y021505D01*
X050036Y021505D02*
X050036Y021865D01*
X050156Y021745D01*
X050096Y021265D02*
X050156Y021205D01*
X050096Y021265D02*
X049976Y021265D01*
X049916Y021205D01*
X049916Y021145D01*
X050156Y020905D01*
X049916Y020905D01*
X049976Y020665D02*
X049916Y020605D01*
X049916Y020545D01*
X049976Y020485D01*
X049916Y020425D01*
X049916Y020365D01*
X049976Y020305D01*
X050096Y020305D01*
X050156Y020365D01*
X050036Y020485D02*
X049976Y020485D01*
X049976Y020665D02*
X050096Y020665D01*
X050156Y020605D01*
X050653Y020605D02*
X050713Y020665D01*
X050833Y020665D01*
X050893Y020605D01*
X050893Y020365D01*
X050833Y020305D01*
X050713Y020305D01*
X050653Y020365D01*
X050773Y020005D02*
X050773Y019765D01*
X050893Y019885D02*
X050653Y019885D01*
X051021Y019885D02*
X051021Y019825D01*
X051261Y019825D01*
X051261Y019885D02*
X051201Y019945D01*
X051081Y019945D01*
X051021Y019885D01*
X051081Y019705D02*
X051201Y019705D01*
X051261Y019765D01*
X051261Y019885D01*
X051390Y019945D02*
X051570Y019945D01*
X051630Y019885D01*
X051570Y019825D01*
X051450Y019825D01*
X051390Y019765D01*
X051450Y019705D01*
X051630Y019705D01*
X051758Y019705D02*
X051758Y019885D01*
X051818Y019945D01*
X051998Y019945D01*
X051998Y019705D01*
X052126Y019825D02*
X052366Y019825D01*
X052366Y019885D02*
X052306Y019945D01*
X052186Y019945D01*
X052126Y019885D01*
X052126Y019825D01*
X052186Y019705D02*
X052306Y019705D01*
X052366Y019765D01*
X052366Y019885D01*
X052494Y019945D02*
X052675Y019945D01*
X052735Y019885D01*
X052675Y019825D01*
X052555Y019825D01*
X052494Y019765D01*
X052555Y019705D01*
X052735Y019705D01*
X052675Y019345D02*
X052494Y019345D01*
X052555Y019225D02*
X052675Y019225D01*
X052735Y019285D01*
X052675Y019345D01*
X052555Y019225D02*
X052494Y019165D01*
X052555Y019105D01*
X052735Y019105D01*
X052739Y018745D02*
X052679Y018685D01*
X052679Y018625D01*
X052919Y018625D01*
X052919Y018685D02*
X052859Y018745D01*
X052739Y018745D01*
X052919Y018685D02*
X052919Y018565D01*
X052859Y018505D01*
X052739Y018505D01*
X052675Y018205D02*
X052675Y017965D01*
X052615Y017905D01*
X052489Y017905D02*
X052489Y018145D01*
X052369Y018145D02*
X052309Y018145D01*
X052369Y018145D02*
X052489Y018025D01*
X052615Y018145D02*
X052735Y018145D01*
X053228Y017905D02*
X053349Y017905D01*
X053288Y017905D02*
X053288Y018265D01*
X053349Y018265D01*
X053477Y018085D02*
X053477Y017905D01*
X053657Y017905D01*
X053717Y017965D01*
X053657Y018025D01*
X053477Y018025D01*
X053477Y018085D02*
X053537Y018145D01*
X053657Y018145D01*
X053845Y018085D02*
X053845Y017905D01*
X053845Y018085D02*
X053905Y018145D01*
X054085Y018145D01*
X054085Y017905D01*
X054086Y017725D02*
X054086Y017665D01*
X054086Y017545D02*
X054086Y017305D01*
X054026Y017305D02*
X054147Y017305D01*
X054275Y017305D02*
X054455Y017305D01*
X054515Y017365D01*
X054515Y017485D01*
X054455Y017545D01*
X054275Y017545D01*
X054275Y017245D01*
X054335Y017185D01*
X054395Y017185D01*
X054640Y017305D02*
X054760Y017305D01*
X054700Y017305D02*
X054700Y017545D01*
X054760Y017545D01*
X054700Y017665D02*
X054700Y017725D01*
X054700Y017905D02*
X054760Y017965D01*
X054760Y018085D01*
X054700Y018145D01*
X054580Y018145D01*
X054520Y018085D01*
X054520Y018025D01*
X054760Y018025D01*
X054700Y017905D02*
X054580Y017905D01*
X054392Y017905D02*
X054392Y018145D01*
X054392Y018025D02*
X054272Y018145D01*
X054212Y018145D01*
X054335Y018505D02*
X054455Y018505D01*
X054515Y018565D01*
X054515Y018685D01*
X054455Y018745D01*
X054335Y018745D01*
X054275Y018685D01*
X054275Y018625D01*
X054515Y018625D01*
X054640Y018745D02*
X054760Y018745D01*
X054700Y018805D02*
X054700Y018565D01*
X054640Y018505D01*
X054888Y018565D02*
X054888Y018685D01*
X054949Y018745D01*
X055069Y018745D01*
X055129Y018685D01*
X055129Y018565D01*
X055069Y018505D01*
X054949Y018505D01*
X054888Y018565D01*
X054946Y018205D02*
X054946Y017965D01*
X054886Y017905D01*
X054886Y018145D02*
X055006Y018145D01*
X055134Y018145D02*
X055374Y017905D01*
X055502Y017905D02*
X055743Y017905D01*
X055743Y018265D01*
X055502Y018265D01*
X055374Y018145D02*
X055134Y017905D01*
X055129Y017665D02*
X054949Y017665D01*
X054888Y017605D01*
X054888Y017365D01*
X054949Y017305D01*
X055129Y017305D01*
X055129Y017665D01*
X055622Y018085D02*
X055743Y018085D01*
X055804Y018505D02*
X055804Y018865D01*
X055624Y018865D01*
X055564Y018805D01*
X055564Y018685D01*
X055624Y018625D01*
X055804Y018625D01*
X055436Y018625D02*
X055316Y018745D01*
X055255Y018745D01*
X055436Y018745D02*
X055436Y018505D01*
X055190Y019105D02*
X055190Y019465D01*
X055010Y019465D01*
X054950Y019405D01*
X054950Y019285D01*
X055010Y019225D01*
X055190Y019225D01*
X055070Y019225D02*
X054950Y019105D01*
X054822Y019165D02*
X054822Y019285D01*
X054762Y019345D01*
X054642Y019345D01*
X054582Y019285D01*
X054582Y019225D01*
X054822Y019225D01*
X054822Y019165D02*
X054762Y019105D01*
X054642Y019105D01*
X054453Y019105D02*
X054453Y019345D01*
X054393Y019345D01*
X054333Y019285D01*
X054273Y019345D01*
X054213Y019285D01*
X054213Y019105D01*
X054333Y019105D02*
X054333Y019285D01*
X054085Y019285D02*
X054085Y019165D01*
X054025Y019105D01*
X053905Y019105D01*
X053845Y019165D01*
X053845Y019285D01*
X053905Y019345D01*
X054025Y019345D01*
X054085Y019285D01*
X053717Y019345D02*
X053597Y019345D01*
X053657Y019405D02*
X053657Y019165D01*
X053597Y019105D01*
X053471Y019165D02*
X053471Y019285D01*
X053411Y019345D01*
X053291Y019345D01*
X053231Y019285D01*
X053231Y019225D01*
X053471Y019225D01*
X053471Y019165D02*
X053411Y019105D01*
X053291Y019105D01*
X053473Y018925D02*
X053473Y018865D01*
X053473Y018745D02*
X053473Y018505D01*
X053533Y018505D02*
X053413Y018505D01*
X053658Y018505D02*
X053718Y018565D01*
X053718Y018805D01*
X053778Y018745D02*
X053658Y018745D01*
X053533Y018745D02*
X053473Y018745D01*
X053287Y018745D02*
X053167Y018505D01*
X053047Y018745D01*
X052366Y019165D02*
X052366Y019285D01*
X052306Y019345D01*
X052186Y019345D01*
X052126Y019285D01*
X052126Y019225D01*
X052366Y019225D01*
X052366Y019165D02*
X052306Y019105D01*
X052186Y019105D01*
X051998Y019105D02*
X051998Y019345D01*
X051818Y019345D01*
X051758Y019285D01*
X051758Y019105D01*
X051630Y019105D02*
X051450Y019105D01*
X051390Y019165D01*
X051450Y019225D01*
X051570Y019225D01*
X051630Y019285D01*
X051570Y019345D01*
X051390Y019345D01*
X051261Y019285D02*
X051201Y019345D01*
X051081Y019345D01*
X051021Y019285D01*
X051021Y019225D01*
X051261Y019225D01*
X051261Y019165D02*
X051261Y019285D01*
X051261Y019165D02*
X051201Y019105D01*
X051081Y019105D01*
X050893Y019285D02*
X050653Y019285D01*
X050893Y018865D02*
X050893Y018505D01*
X051019Y018505D02*
X051079Y018565D01*
X051079Y018805D01*
X051139Y018745D02*
X051019Y018745D01*
X050893Y018685D02*
X050833Y018745D01*
X050713Y018745D01*
X050653Y018685D01*
X050653Y018505D01*
X050652Y018145D02*
X050712Y018145D01*
X050832Y018025D01*
X050832Y017905D02*
X050832Y018145D01*
X050960Y018085D02*
X050960Y018025D01*
X051200Y018025D01*
X051200Y018085D02*
X051140Y018145D01*
X051020Y018145D01*
X050960Y018085D01*
X051020Y017905D02*
X051140Y017905D01*
X051200Y017965D01*
X051200Y018085D01*
X051328Y018145D02*
X051508Y018145D01*
X051568Y018085D01*
X051568Y017965D01*
X051508Y017905D01*
X051328Y017905D01*
X051328Y017845D02*
X051328Y018145D01*
X051328Y017845D02*
X051388Y017785D01*
X051448Y017785D01*
X051390Y017545D02*
X051390Y017305D01*
X051570Y017305D01*
X051630Y017365D01*
X051630Y017545D01*
X051758Y017485D02*
X051818Y017545D01*
X051938Y017545D01*
X051998Y017485D01*
X051998Y017365D01*
X051938Y017305D01*
X051818Y017305D01*
X051758Y017365D01*
X051758Y017485D01*
X051756Y017785D02*
X051696Y017845D01*
X051696Y018145D01*
X051877Y018145D01*
X051937Y018085D01*
X051937Y017965D01*
X051877Y017905D01*
X051696Y017905D01*
X051756Y017785D02*
X051817Y017785D01*
X052062Y017905D02*
X052182Y017905D01*
X052122Y017905D02*
X052122Y018145D01*
X052182Y018145D01*
X052122Y018265D02*
X052122Y018325D01*
X052122Y018505D02*
X052002Y018505D01*
X052122Y018505D02*
X052182Y018565D01*
X052182Y018685D01*
X052122Y018745D01*
X052002Y018745D01*
X051942Y018685D01*
X051942Y018625D01*
X052182Y018625D01*
X051814Y018565D02*
X051754Y018625D01*
X051574Y018625D01*
X051574Y018685D02*
X051574Y018505D01*
X051754Y018505D01*
X051814Y018565D01*
X051754Y018745D02*
X051634Y018745D01*
X051574Y018685D01*
X051446Y018745D02*
X051446Y018505D01*
X051446Y018625D02*
X051325Y018745D01*
X051265Y018745D01*
X050156Y018685D02*
X049976Y018685D01*
X049916Y018625D01*
X049916Y018565D01*
X049976Y018505D01*
X050096Y018505D01*
X050156Y018565D01*
X050156Y018685D01*
X050036Y018805D01*
X049916Y018865D01*
X049976Y019105D02*
X050096Y019105D01*
X050156Y019165D01*
X050156Y019285D02*
X050036Y019345D01*
X049976Y019345D01*
X049916Y019285D01*
X049916Y019165D01*
X049976Y019105D01*
X050156Y019285D02*
X050156Y019465D01*
X049916Y019465D01*
X049976Y019705D02*
X049976Y020065D01*
X050156Y019885D01*
X049916Y019885D01*
X051141Y020305D02*
X051141Y020665D01*
X051261Y020665D02*
X051021Y020665D01*
X051021Y020905D02*
X051021Y021085D01*
X051081Y021145D01*
X051261Y021145D01*
X051261Y020905D01*
X051390Y020905D02*
X051390Y021145D01*
X051630Y021145D02*
X051630Y020965D01*
X051570Y020905D01*
X051390Y020905D01*
X051390Y020665D02*
X051390Y020305D01*
X051630Y020665D01*
X051630Y020305D01*
X051818Y020905D02*
X051758Y020965D01*
X051758Y021085D01*
X051818Y021145D01*
X051938Y021145D01*
X051998Y021085D01*
X051998Y020965D01*
X051938Y020905D01*
X051818Y020905D01*
X052125Y021145D02*
X052185Y021145D01*
X052305Y021025D01*
X052305Y020905D02*
X052305Y021145D01*
X052433Y021145D02*
X052613Y021145D01*
X052673Y021085D01*
X052673Y020965D01*
X052613Y020905D01*
X052433Y020905D01*
X052433Y020845D02*
X052433Y021145D01*
X052433Y020845D02*
X052493Y020785D01*
X052553Y020785D01*
X053167Y020905D02*
X053287Y020905D01*
X053227Y020905D02*
X053227Y021265D01*
X053287Y021265D01*
X053415Y021085D02*
X053415Y021025D01*
X053655Y021025D01*
X053655Y020965D02*
X053655Y021085D01*
X053595Y021145D01*
X053475Y021145D01*
X053415Y021085D01*
X053475Y020905D02*
X053595Y020905D01*
X053655Y020965D01*
X053784Y020905D02*
X053784Y021085D01*
X053844Y021145D01*
X054024Y021145D01*
X054024Y020905D01*
X054152Y020905D02*
X054152Y021085D01*
X054212Y021145D01*
X054392Y021145D01*
X054392Y020905D01*
X054520Y020905D02*
X054700Y020905D01*
X054760Y020965D01*
X054700Y021025D01*
X054520Y021025D01*
X054520Y021085D02*
X054520Y020905D01*
X054520Y021085D02*
X054580Y021145D01*
X054700Y021145D01*
X054888Y021085D02*
X054888Y020905D01*
X054888Y021085D02*
X054949Y021145D01*
X055069Y021145D01*
X055129Y021085D01*
X055257Y021205D02*
X055317Y021265D01*
X055437Y021265D01*
X055497Y021205D01*
X055497Y020965D01*
X055437Y020905D01*
X055317Y020905D01*
X055257Y020965D01*
X055129Y020905D02*
X055129Y021265D01*
X054576Y021505D02*
X054576Y021865D01*
X054396Y021865D01*
X054336Y021805D01*
X054336Y021685D01*
X054396Y021625D01*
X054576Y021625D01*
X054456Y021625D02*
X054336Y021505D01*
X054208Y021565D02*
X054208Y021685D01*
X054148Y021745D01*
X054028Y021745D01*
X053968Y021685D01*
X053968Y021625D01*
X054208Y021625D01*
X054208Y021565D02*
X054148Y021505D01*
X054028Y021505D01*
X053840Y021505D02*
X053840Y021745D01*
X053780Y021745D01*
X053719Y021685D01*
X053659Y021745D01*
X053599Y021685D01*
X053599Y021505D01*
X053719Y021505D02*
X053719Y021685D01*
X053471Y021685D02*
X053471Y021565D01*
X053411Y021505D01*
X053291Y021505D01*
X053231Y021565D01*
X053231Y021685D01*
X053291Y021745D01*
X053411Y021745D01*
X053471Y021685D01*
X053103Y021745D02*
X052983Y021745D01*
X053043Y021805D02*
X053043Y021565D01*
X052983Y021505D01*
X052857Y021565D02*
X052857Y021685D01*
X052797Y021745D01*
X052677Y021745D01*
X052617Y021685D01*
X052617Y021625D01*
X052857Y021625D01*
X052857Y021565D02*
X052797Y021505D01*
X052677Y021505D01*
X052121Y021505D02*
X051941Y021505D01*
X051881Y021565D01*
X051881Y021685D01*
X051941Y021745D01*
X052121Y021745D01*
X052121Y021385D01*
X051752Y021505D02*
X051752Y021745D01*
X051632Y021745D02*
X051572Y021745D01*
X051632Y021745D02*
X051752Y021625D01*
X051446Y021685D02*
X051446Y021565D01*
X051386Y021505D01*
X051265Y021505D01*
X051205Y021565D01*
X051205Y021685D01*
X051265Y021745D01*
X051386Y021745D01*
X051446Y021685D01*
X051077Y021685D02*
X051077Y021565D01*
X051017Y021505D01*
X050837Y021505D01*
X050837Y021445D02*
X050837Y021745D01*
X051017Y021745D01*
X051077Y021685D01*
X050957Y021385D02*
X050897Y021385D01*
X050837Y021445D01*
X050709Y021505D02*
X050649Y021505D01*
X050649Y021565D01*
X050709Y021565D01*
X050709Y021505D01*
X050653Y021265D02*
X050653Y020905D01*
X050833Y020905D01*
X050893Y020965D01*
X050893Y021085D01*
X050833Y021145D01*
X050653Y021145D01*
X053231Y019885D02*
X053231Y019825D01*
X053471Y019825D01*
X053471Y019885D02*
X053411Y019945D01*
X053291Y019945D01*
X053231Y019885D01*
X053291Y019705D02*
X053411Y019705D01*
X053471Y019765D01*
X053471Y019885D01*
X053597Y019945D02*
X053717Y019945D01*
X053657Y020005D02*
X053657Y019765D01*
X053597Y019705D01*
X053845Y019765D02*
X053905Y019705D01*
X054025Y019705D01*
X054085Y019765D01*
X054085Y019885D01*
X054025Y019945D01*
X053905Y019945D01*
X053845Y019885D01*
X053845Y019765D01*
X054213Y019705D02*
X054213Y019885D01*
X054273Y019945D01*
X054333Y019885D01*
X054333Y019705D01*
X054453Y019705D02*
X054453Y019945D01*
X054393Y019945D01*
X054333Y019885D01*
X054582Y019885D02*
X054582Y019825D01*
X054822Y019825D01*
X054822Y019885D02*
X054762Y019945D01*
X054642Y019945D01*
X054582Y019885D01*
X054642Y019705D02*
X054762Y019705D01*
X054822Y019765D01*
X054822Y019885D01*
X054950Y019885D02*
X055010Y019825D01*
X055190Y019825D01*
X055070Y019825D02*
X054950Y019705D01*
X054950Y019885D02*
X054950Y020005D01*
X055010Y020065D01*
X055190Y020065D01*
X055190Y019705D01*
X054147Y018685D02*
X054147Y018565D01*
X054086Y018505D01*
X053906Y018505D01*
X053906Y018745D02*
X054086Y018745D01*
X054147Y018685D01*
X053841Y017605D02*
X053841Y017365D01*
X053781Y017305D01*
X053655Y017365D02*
X053595Y017425D01*
X053415Y017425D01*
X053415Y017485D02*
X053415Y017305D01*
X053595Y017305D01*
X053655Y017365D01*
X053595Y017545D02*
X053475Y017545D01*
X053415Y017485D01*
X053287Y017665D02*
X053227Y017665D01*
X053227Y017305D01*
X053287Y017305D02*
X053167Y017305D01*
X052673Y017365D02*
X052613Y017305D01*
X052433Y017305D01*
X052433Y017245D02*
X052433Y017545D01*
X052613Y017545D01*
X052673Y017485D01*
X052673Y017365D01*
X052553Y017185D02*
X052493Y017185D01*
X052433Y017245D01*
X052305Y017305D02*
X052305Y017545D01*
X052185Y017545D02*
X052125Y017545D01*
X052185Y017545D02*
X052305Y017425D01*
X051261Y017545D02*
X051081Y017545D01*
X051021Y017485D01*
X051021Y017305D01*
X050893Y017365D02*
X050893Y017485D01*
X050833Y017545D01*
X050653Y017545D01*
X050653Y017665D02*
X050653Y017305D01*
X050833Y017305D01*
X050893Y017365D01*
X051261Y017305D02*
X051261Y017545D01*
X050156Y017545D02*
X050096Y017485D01*
X049976Y017485D01*
X049916Y017425D01*
X049916Y017365D01*
X049976Y017305D01*
X050096Y017305D01*
X050156Y017365D01*
X050156Y017425D01*
X050096Y017485D01*
X050156Y017545D02*
X050156Y017605D01*
X050096Y017665D01*
X049976Y017665D01*
X049916Y017605D01*
X049916Y017545D01*
X049976Y017485D01*
X050156Y017905D02*
X050156Y017965D01*
X049916Y018205D01*
X049916Y018265D01*
X050156Y018265D01*
X053781Y017545D02*
X053901Y017545D01*
X054086Y017545D02*
X054147Y017545D01*
X050602Y014940D02*
X050362Y014940D01*
X050362Y014880D01*
X054320Y022560D02*
X054260Y022620D01*
X054448Y022680D02*
X054508Y022740D01*
X054628Y022740D01*
X054688Y022680D01*
D12*
X049258Y021685D02*
X049260Y021698D01*
X049265Y021711D01*
X049274Y021722D01*
X049285Y021729D01*
X049298Y021734D01*
X049311Y021735D01*
X049325Y021732D01*
X049337Y021726D01*
X049347Y021717D01*
X049354Y021705D01*
X049358Y021692D01*
X049358Y021678D01*
X049354Y021665D01*
X049347Y021653D01*
X049337Y021644D01*
X049325Y021638D01*
X049311Y021635D01*
X049298Y021636D01*
X049285Y021641D01*
X049274Y021648D01*
X049265Y021659D01*
X049260Y021672D01*
X049258Y021685D01*
X049258Y021085D02*
X049260Y021098D01*
X049265Y021111D01*
X049274Y021122D01*
X049285Y021129D01*
X049298Y021134D01*
X049311Y021135D01*
X049325Y021132D01*
X049337Y021126D01*
X049347Y021117D01*
X049354Y021105D01*
X049358Y021092D01*
X049358Y021078D01*
X049354Y021065D01*
X049347Y021053D01*
X049337Y021044D01*
X049325Y021038D01*
X049311Y021035D01*
X049298Y021036D01*
X049285Y021041D01*
X049274Y021048D01*
X049265Y021059D01*
X049260Y021072D01*
X049258Y021085D01*
X049258Y020485D02*
X049260Y020498D01*
X049265Y020511D01*
X049274Y020522D01*
X049285Y020529D01*
X049298Y020534D01*
X049311Y020535D01*
X049325Y020532D01*
X049337Y020526D01*
X049347Y020517D01*
X049354Y020505D01*
X049358Y020492D01*
X049358Y020478D01*
X049354Y020465D01*
X049347Y020453D01*
X049337Y020444D01*
X049325Y020438D01*
X049311Y020435D01*
X049298Y020436D01*
X049285Y020441D01*
X049274Y020448D01*
X049265Y020459D01*
X049260Y020472D01*
X049258Y020485D01*
X049258Y019885D02*
X049260Y019898D01*
X049265Y019911D01*
X049274Y019922D01*
X049285Y019929D01*
X049298Y019934D01*
X049311Y019935D01*
X049325Y019932D01*
X049337Y019926D01*
X049347Y019917D01*
X049354Y019905D01*
X049358Y019892D01*
X049358Y019878D01*
X049354Y019865D01*
X049347Y019853D01*
X049337Y019844D01*
X049325Y019838D01*
X049311Y019835D01*
X049298Y019836D01*
X049285Y019841D01*
X049274Y019848D01*
X049265Y019859D01*
X049260Y019872D01*
X049258Y019885D01*
X049258Y019285D02*
X049260Y019298D01*
X049265Y019311D01*
X049274Y019322D01*
X049285Y019329D01*
X049298Y019334D01*
X049311Y019335D01*
X049325Y019332D01*
X049337Y019326D01*
X049347Y019317D01*
X049354Y019305D01*
X049358Y019292D01*
X049358Y019278D01*
X049354Y019265D01*
X049347Y019253D01*
X049337Y019244D01*
X049325Y019238D01*
X049311Y019235D01*
X049298Y019236D01*
X049285Y019241D01*
X049274Y019248D01*
X049265Y019259D01*
X049260Y019272D01*
X049258Y019285D01*
X049258Y018685D02*
X049260Y018698D01*
X049265Y018711D01*
X049274Y018722D01*
X049285Y018729D01*
X049298Y018734D01*
X049311Y018735D01*
X049325Y018732D01*
X049337Y018726D01*
X049347Y018717D01*
X049354Y018705D01*
X049358Y018692D01*
X049358Y018678D01*
X049354Y018665D01*
X049347Y018653D01*
X049337Y018644D01*
X049325Y018638D01*
X049311Y018635D01*
X049298Y018636D01*
X049285Y018641D01*
X049274Y018648D01*
X049265Y018659D01*
X049260Y018672D01*
X049258Y018685D01*
X049258Y018085D02*
X049260Y018098D01*
X049265Y018111D01*
X049274Y018122D01*
X049285Y018129D01*
X049298Y018134D01*
X049311Y018135D01*
X049325Y018132D01*
X049337Y018126D01*
X049347Y018117D01*
X049354Y018105D01*
X049358Y018092D01*
X049358Y018078D01*
X049354Y018065D01*
X049347Y018053D01*
X049337Y018044D01*
X049325Y018038D01*
X049311Y018035D01*
X049298Y018036D01*
X049285Y018041D01*
X049274Y018048D01*
X049265Y018059D01*
X049260Y018072D01*
X049258Y018085D01*
X049258Y017485D02*
X049260Y017498D01*
X049265Y017511D01*
X049274Y017522D01*
X049285Y017529D01*
X049298Y017534D01*
X049311Y017535D01*
X049325Y017532D01*
X049337Y017526D01*
X049347Y017517D01*
X049354Y017505D01*
X049358Y017492D01*
X049358Y017478D01*
X049354Y017465D01*
X049347Y017453D01*
X049337Y017444D01*
X049325Y017438D01*
X049311Y017435D01*
X049298Y017436D01*
X049285Y017441D01*
X049274Y017448D01*
X049265Y017459D01*
X049260Y017472D01*
X049258Y017485D01*
X051958Y013885D02*
X051960Y013898D01*
X051965Y013911D01*
X051974Y013922D01*
X051985Y013929D01*
X051998Y013934D01*
X052011Y013935D01*
X052025Y013932D01*
X052037Y013926D01*
X052047Y013917D01*
X052054Y013905D01*
X052058Y013892D01*
X052058Y013878D01*
X052054Y013865D01*
X052047Y013853D01*
X052037Y013844D01*
X052025Y013838D01*
X052011Y013835D01*
X051998Y013836D01*
X051985Y013841D01*
X051974Y013848D01*
X051965Y013859D01*
X051960Y013872D01*
X051958Y013885D01*
X051958Y013285D02*
X051960Y013298D01*
X051965Y013311D01*
X051974Y013322D01*
X051985Y013329D01*
X051998Y013334D01*
X052011Y013335D01*
X052025Y013332D01*
X052037Y013326D01*
X052047Y013317D01*
X052054Y013305D01*
X052058Y013292D01*
X052058Y013278D01*
X052054Y013265D01*
X052047Y013253D01*
X052037Y013244D01*
X052025Y013238D01*
X052011Y013235D01*
X051998Y013236D01*
X051985Y013241D01*
X051974Y013248D01*
X051965Y013259D01*
X051960Y013272D01*
X051958Y013285D01*
X051958Y012685D02*
X051960Y012698D01*
X051965Y012711D01*
X051974Y012722D01*
X051985Y012729D01*
X051998Y012734D01*
X052011Y012735D01*
X052025Y012732D01*
X052037Y012726D01*
X052047Y012717D01*
X052054Y012705D01*
X052058Y012692D01*
X052058Y012678D01*
X052054Y012665D01*
X052047Y012653D01*
X052037Y012644D01*
X052025Y012638D01*
X052011Y012635D01*
X051998Y012636D01*
X051985Y012641D01*
X051974Y012648D01*
X051965Y012659D01*
X051960Y012672D01*
X051958Y012685D01*
X051958Y012085D02*
X051960Y012098D01*
X051965Y012111D01*
X051974Y012122D01*
X051985Y012129D01*
X051998Y012134D01*
X052011Y012135D01*
X052025Y012132D01*
X052037Y012126D01*
X052047Y012117D01*
X052054Y012105D01*
X052058Y012092D01*
X052058Y012078D01*
X052054Y012065D01*
X052047Y012053D01*
X052037Y012044D01*
X052025Y012038D01*
X052011Y012035D01*
X051998Y012036D01*
X051985Y012041D01*
X051974Y012048D01*
X051965Y012059D01*
X051960Y012072D01*
X051958Y012085D01*
X051958Y011485D02*
X051960Y011498D01*
X051965Y011511D01*
X051974Y011522D01*
X051985Y011529D01*
X051998Y011534D01*
X052011Y011535D01*
X052025Y011532D01*
X052037Y011526D01*
X052047Y011517D01*
X052054Y011505D01*
X052058Y011492D01*
X052058Y011478D01*
X052054Y011465D01*
X052047Y011453D01*
X052037Y011444D01*
X052025Y011438D01*
X052011Y011435D01*
X051998Y011436D01*
X051985Y011441D01*
X051974Y011448D01*
X051965Y011459D01*
X051960Y011472D01*
X051958Y011485D01*
X051958Y010885D02*
X051960Y010898D01*
X051965Y010911D01*
X051974Y010922D01*
X051985Y010929D01*
X051998Y010934D01*
X052011Y010935D01*
X052025Y010932D01*
X052037Y010926D01*
X052047Y010917D01*
X052054Y010905D01*
X052058Y010892D01*
X052058Y010878D01*
X052054Y010865D01*
X052047Y010853D01*
X052037Y010844D01*
X052025Y010838D01*
X052011Y010835D01*
X051998Y010836D01*
X051985Y010841D01*
X051974Y010848D01*
X051965Y010859D01*
X051960Y010872D01*
X051958Y010885D01*
X051958Y010285D02*
X051960Y010298D01*
X051965Y010311D01*
X051974Y010322D01*
X051985Y010329D01*
X051998Y010334D01*
X052011Y010335D01*
X052025Y010332D01*
X052037Y010326D01*
X052047Y010317D01*
X052054Y010305D01*
X052058Y010292D01*
X052058Y010278D01*
X052054Y010265D01*
X052047Y010253D01*
X052037Y010244D01*
X052025Y010238D01*
X052011Y010235D01*
X051998Y010236D01*
X051985Y010241D01*
X051974Y010248D01*
X051965Y010259D01*
X051960Y010272D01*
X051958Y010285D01*
X051958Y009685D02*
X051960Y009698D01*
X051965Y009711D01*
X051974Y009722D01*
X051985Y009729D01*
X051998Y009734D01*
X052011Y009735D01*
X052025Y009732D01*
X052037Y009726D01*
X052047Y009717D01*
X052054Y009705D01*
X052058Y009692D01*
X052058Y009678D01*
X052054Y009665D01*
X052047Y009653D01*
X052037Y009644D01*
X052025Y009638D01*
X052011Y009635D01*
X051998Y009636D01*
X051985Y009641D01*
X051974Y009648D01*
X051965Y009659D01*
X051960Y009672D01*
X051958Y009685D01*
X069058Y009685D02*
X069060Y009698D01*
X069065Y009711D01*
X069074Y009722D01*
X069085Y009729D01*
X069098Y009734D01*
X069111Y009735D01*
X069125Y009732D01*
X069137Y009726D01*
X069147Y009717D01*
X069154Y009705D01*
X069158Y009692D01*
X069158Y009678D01*
X069154Y009665D01*
X069147Y009653D01*
X069137Y009644D01*
X069125Y009638D01*
X069111Y009635D01*
X069098Y009636D01*
X069085Y009641D01*
X069074Y009648D01*
X069065Y009659D01*
X069060Y009672D01*
X069058Y009685D01*
X069058Y010285D02*
X069060Y010298D01*
X069065Y010311D01*
X069074Y010322D01*
X069085Y010329D01*
X069098Y010334D01*
X069111Y010335D01*
X069125Y010332D01*
X069137Y010326D01*
X069147Y010317D01*
X069154Y010305D01*
X069158Y010292D01*
X069158Y010278D01*
X069154Y010265D01*
X069147Y010253D01*
X069137Y010244D01*
X069125Y010238D01*
X069111Y010235D01*
X069098Y010236D01*
X069085Y010241D01*
X069074Y010248D01*
X069065Y010259D01*
X069060Y010272D01*
X069058Y010285D01*
X069058Y010885D02*
X069060Y010898D01*
X069065Y010911D01*
X069074Y010922D01*
X069085Y010929D01*
X069098Y010934D01*
X069111Y010935D01*
X069125Y010932D01*
X069137Y010926D01*
X069147Y010917D01*
X069154Y010905D01*
X069158Y010892D01*
X069158Y010878D01*
X069154Y010865D01*
X069147Y010853D01*
X069137Y010844D01*
X069125Y010838D01*
X069111Y010835D01*
X069098Y010836D01*
X069085Y010841D01*
X069074Y010848D01*
X069065Y010859D01*
X069060Y010872D01*
X069058Y010885D01*
X069058Y009085D02*
X069060Y009098D01*
X069065Y009111D01*
X069074Y009122D01*
X069085Y009129D01*
X069098Y009134D01*
X069111Y009135D01*
X069125Y009132D01*
X069137Y009126D01*
X069147Y009117D01*
X069154Y009105D01*
X069158Y009092D01*
X069158Y009078D01*
X069154Y009065D01*
X069147Y009053D01*
X069137Y009044D01*
X069125Y009038D01*
X069111Y009035D01*
X069098Y009036D01*
X069085Y009041D01*
X069074Y009048D01*
X069065Y009059D01*
X069060Y009072D01*
X069058Y009085D01*
X078958Y009085D02*
X078960Y009098D01*
X078965Y009111D01*
X078974Y009122D01*
X078985Y009129D01*
X078998Y009134D01*
X079011Y009135D01*
X079025Y009132D01*
X079037Y009126D01*
X079047Y009117D01*
X079054Y009105D01*
X079058Y009092D01*
X079058Y009078D01*
X079054Y009065D01*
X079047Y009053D01*
X079037Y009044D01*
X079025Y009038D01*
X079011Y009035D01*
X078998Y009036D01*
X078985Y009041D01*
X078974Y009048D01*
X078965Y009059D01*
X078960Y009072D01*
X078958Y009085D01*
X079458Y009085D02*
X079460Y009098D01*
X079465Y009111D01*
X079474Y009122D01*
X079485Y009129D01*
X079498Y009134D01*
X079511Y009135D01*
X079525Y009132D01*
X079537Y009126D01*
X079547Y009117D01*
X079554Y009105D01*
X079558Y009092D01*
X079558Y009078D01*
X079554Y009065D01*
X079547Y009053D01*
X079537Y009044D01*
X079525Y009038D01*
X079511Y009035D01*
X079498Y009036D01*
X079485Y009041D01*
X079474Y009048D01*
X079465Y009059D01*
X079460Y009072D01*
X079458Y009085D01*
X079458Y009685D02*
X079460Y009698D01*
X079465Y009711D01*
X079474Y009722D01*
X079485Y009729D01*
X079498Y009734D01*
X079511Y009735D01*
X079525Y009732D01*
X079537Y009726D01*
X079547Y009717D01*
X079554Y009705D01*
X079558Y009692D01*
X079558Y009678D01*
X079554Y009665D01*
X079547Y009653D01*
X079537Y009644D01*
X079525Y009638D01*
X079511Y009635D01*
X079498Y009636D01*
X079485Y009641D01*
X079474Y009648D01*
X079465Y009659D01*
X079460Y009672D01*
X079458Y009685D01*
X078958Y009685D02*
X078960Y009698D01*
X078965Y009711D01*
X078974Y009722D01*
X078985Y009729D01*
X078998Y009734D01*
X079011Y009735D01*
X079025Y009732D01*
X079037Y009726D01*
X079047Y009717D01*
X079054Y009705D01*
X079058Y009692D01*
X079058Y009678D01*
X079054Y009665D01*
X079047Y009653D01*
X079037Y009644D01*
X079025Y009638D01*
X079011Y009635D01*
X078998Y009636D01*
X078985Y009641D01*
X078974Y009648D01*
X078965Y009659D01*
X078960Y009672D01*
X078958Y009685D01*
X078958Y010285D02*
X078960Y010298D01*
X078965Y010311D01*
X078974Y010322D01*
X078985Y010329D01*
X078998Y010334D01*
X079011Y010335D01*
X079025Y010332D01*
X079037Y010326D01*
X079047Y010317D01*
X079054Y010305D01*
X079058Y010292D01*
X079058Y010278D01*
X079054Y010265D01*
X079047Y010253D01*
X079037Y010244D01*
X079025Y010238D01*
X079011Y010235D01*
X078998Y010236D01*
X078985Y010241D01*
X078974Y010248D01*
X078965Y010259D01*
X078960Y010272D01*
X078958Y010285D01*
X079458Y010285D02*
X079460Y010298D01*
X079465Y010311D01*
X079474Y010322D01*
X079485Y010329D01*
X079498Y010334D01*
X079511Y010335D01*
X079525Y010332D01*
X079537Y010326D01*
X079547Y010317D01*
X079554Y010305D01*
X079558Y010292D01*
X079558Y010278D01*
X079554Y010265D01*
X079547Y010253D01*
X079537Y010244D01*
X079525Y010238D01*
X079511Y010235D01*
X079498Y010236D01*
X079485Y010241D01*
X079474Y010248D01*
X079465Y010259D01*
X079460Y010272D01*
X079458Y010285D01*
X079458Y010885D02*
X079460Y010898D01*
X079465Y010911D01*
X079474Y010922D01*
X079485Y010929D01*
X079498Y010934D01*
X079511Y010935D01*
X079525Y010932D01*
X079537Y010926D01*
X079547Y010917D01*
X079554Y010905D01*
X079558Y010892D01*
X079558Y010878D01*
X079554Y010865D01*
X079547Y010853D01*
X079537Y010844D01*
X079525Y010838D01*
X079511Y010835D01*
X079498Y010836D01*
X079485Y010841D01*
X079474Y010848D01*
X079465Y010859D01*
X079460Y010872D01*
X079458Y010885D01*
X078958Y010885D02*
X078960Y010898D01*
X078965Y010911D01*
X078974Y010922D01*
X078985Y010929D01*
X078998Y010934D01*
X079011Y010935D01*
X079025Y010932D01*
X079037Y010926D01*
X079047Y010917D01*
X079054Y010905D01*
X079058Y010892D01*
X079058Y010878D01*
X079054Y010865D01*
X079047Y010853D01*
X079037Y010844D01*
X079025Y010838D01*
X079011Y010835D01*
X078998Y010836D01*
X078985Y010841D01*
X078974Y010848D01*
X078965Y010859D01*
X078960Y010872D01*
X078958Y010885D01*
X078958Y011485D02*
X078960Y011498D01*
X078965Y011511D01*
X078974Y011522D01*
X078985Y011529D01*
X078998Y011534D01*
X079011Y011535D01*
X079025Y011532D01*
X079037Y011526D01*
X079047Y011517D01*
X079054Y011505D01*
X079058Y011492D01*
X079058Y011478D01*
X079054Y011465D01*
X079047Y011453D01*
X079037Y011444D01*
X079025Y011438D01*
X079011Y011435D01*
X078998Y011436D01*
X078985Y011441D01*
X078974Y011448D01*
X078965Y011459D01*
X078960Y011472D01*
X078958Y011485D01*
X079458Y011485D02*
X079460Y011498D01*
X079465Y011511D01*
X079474Y011522D01*
X079485Y011529D01*
X079498Y011534D01*
X079511Y011535D01*
X079525Y011532D01*
X079537Y011526D01*
X079547Y011517D01*
X079554Y011505D01*
X079558Y011492D01*
X079558Y011478D01*
X079554Y011465D01*
X079547Y011453D01*
X079537Y011444D01*
X079525Y011438D01*
X079511Y011435D01*
X079498Y011436D01*
X079485Y011441D01*
X079474Y011448D01*
X079465Y011459D01*
X079460Y011472D01*
X079458Y011485D01*
X071158Y027385D02*
X071160Y027398D01*
X071165Y027411D01*
X071174Y027422D01*
X071185Y027429D01*
X071198Y027434D01*
X071211Y027435D01*
X071225Y027432D01*
X071237Y027426D01*
X071247Y027417D01*
X071254Y027405D01*
X071258Y027392D01*
X071258Y027378D01*
X071254Y027365D01*
X071247Y027353D01*
X071237Y027344D01*
X071225Y027338D01*
X071211Y027335D01*
X071198Y027336D01*
X071185Y027341D01*
X071174Y027348D01*
X071165Y027359D01*
X071160Y027372D01*
X071158Y027385D01*
X070658Y027385D02*
X070660Y027398D01*
X070665Y027411D01*
X070674Y027422D01*
X070685Y027429D01*
X070698Y027434D01*
X070711Y027435D01*
X070725Y027432D01*
X070737Y027426D01*
X070747Y027417D01*
X070754Y027405D01*
X070758Y027392D01*
X070758Y027378D01*
X070754Y027365D01*
X070747Y027353D01*
X070737Y027344D01*
X070725Y027338D01*
X070711Y027335D01*
X070698Y027336D01*
X070685Y027341D01*
X070674Y027348D01*
X070665Y027359D01*
X070660Y027372D01*
X070658Y027385D01*
X070658Y027985D02*
X070660Y027998D01*
X070665Y028011D01*
X070674Y028022D01*
X070685Y028029D01*
X070698Y028034D01*
X070711Y028035D01*
X070725Y028032D01*
X070737Y028026D01*
X070747Y028017D01*
X070754Y028005D01*
X070758Y027992D01*
X070758Y027978D01*
X070754Y027965D01*
X070747Y027953D01*
X070737Y027944D01*
X070725Y027938D01*
X070711Y027935D01*
X070698Y027936D01*
X070685Y027941D01*
X070674Y027948D01*
X070665Y027959D01*
X070660Y027972D01*
X070658Y027985D01*
X071158Y027985D02*
X071160Y027998D01*
X071165Y028011D01*
X071174Y028022D01*
X071185Y028029D01*
X071198Y028034D01*
X071211Y028035D01*
X071225Y028032D01*
X071237Y028026D01*
X071247Y028017D01*
X071254Y028005D01*
X071258Y027992D01*
X071258Y027978D01*
X071254Y027965D01*
X071247Y027953D01*
X071237Y027944D01*
X071225Y027938D01*
X071211Y027935D01*
X071198Y027936D01*
X071185Y027941D01*
X071174Y027948D01*
X071165Y027959D01*
X071160Y027972D01*
X071158Y027985D01*
X071158Y028585D02*
X071160Y028598D01*
X071165Y028611D01*
X071174Y028622D01*
X071185Y028629D01*
X071198Y028634D01*
X071211Y028635D01*
X071225Y028632D01*
X071237Y028626D01*
X071247Y028617D01*
X071254Y028605D01*
X071258Y028592D01*
X071258Y028578D01*
X071254Y028565D01*
X071247Y028553D01*
X071237Y028544D01*
X071225Y028538D01*
X071211Y028535D01*
X071198Y028536D01*
X071185Y028541D01*
X071174Y028548D01*
X071165Y028559D01*
X071160Y028572D01*
X071158Y028585D01*
X070658Y028585D02*
X070660Y028598D01*
X070665Y028611D01*
X070674Y028622D01*
X070685Y028629D01*
X070698Y028634D01*
X070711Y028635D01*
X070725Y028632D01*
X070737Y028626D01*
X070747Y028617D01*
X070754Y028605D01*
X070758Y028592D01*
X070758Y028578D01*
X070754Y028565D01*
X070747Y028553D01*
X070737Y028544D01*
X070725Y028538D01*
X070711Y028535D01*
X070698Y028536D01*
X070685Y028541D01*
X070674Y028548D01*
X070665Y028559D01*
X070660Y028572D01*
X070658Y028585D01*
X070658Y029185D02*
X070660Y029198D01*
X070665Y029211D01*
X070674Y029222D01*
X070685Y029229D01*
X070698Y029234D01*
X070711Y029235D01*
X070725Y029232D01*
X070737Y029226D01*
X070747Y029217D01*
X070754Y029205D01*
X070758Y029192D01*
X070758Y029178D01*
X070754Y029165D01*
X070747Y029153D01*
X070737Y029144D01*
X070725Y029138D01*
X070711Y029135D01*
X070698Y029136D01*
X070685Y029141D01*
X070674Y029148D01*
X070665Y029159D01*
X070660Y029172D01*
X070658Y029185D01*
X071158Y029185D02*
X071160Y029198D01*
X071165Y029211D01*
X071174Y029222D01*
X071185Y029229D01*
X071198Y029234D01*
X071211Y029235D01*
X071225Y029232D01*
X071237Y029226D01*
X071247Y029217D01*
X071254Y029205D01*
X071258Y029192D01*
X071258Y029178D01*
X071254Y029165D01*
X071247Y029153D01*
X071237Y029144D01*
X071225Y029138D01*
X071211Y029135D01*
X071198Y029136D01*
X071185Y029141D01*
X071174Y029148D01*
X071165Y029159D01*
X071160Y029172D01*
X071158Y029185D01*
X071158Y029785D02*
X071160Y029798D01*
X071165Y029811D01*
X071174Y029822D01*
X071185Y029829D01*
X071198Y029834D01*
X071211Y029835D01*
X071225Y029832D01*
X071237Y029826D01*
X071247Y029817D01*
X071254Y029805D01*
X071258Y029792D01*
X071258Y029778D01*
X071254Y029765D01*
X071247Y029753D01*
X071237Y029744D01*
X071225Y029738D01*
X071211Y029735D01*
X071198Y029736D01*
X071185Y029741D01*
X071174Y029748D01*
X071165Y029759D01*
X071160Y029772D01*
X071158Y029785D01*
X070658Y029785D02*
X070660Y029798D01*
X070665Y029811D01*
X070674Y029822D01*
X070685Y029829D01*
X070698Y029834D01*
X070711Y029835D01*
X070725Y029832D01*
X070737Y029826D01*
X070747Y029817D01*
X070754Y029805D01*
X070758Y029792D01*
X070758Y029778D01*
X070754Y029765D01*
X070747Y029753D01*
X070737Y029744D01*
X070725Y029738D01*
X070711Y029735D01*
X070698Y029736D01*
X070685Y029741D01*
X070674Y029748D01*
X070665Y029759D01*
X070660Y029772D01*
X070658Y029785D01*
X062658Y029785D02*
X062660Y029798D01*
X062665Y029811D01*
X062674Y029822D01*
X062685Y029829D01*
X062698Y029834D01*
X062711Y029835D01*
X062725Y029832D01*
X062737Y029826D01*
X062747Y029817D01*
X062754Y029805D01*
X062758Y029792D01*
X062758Y029778D01*
X062754Y029765D01*
X062747Y029753D01*
X062737Y029744D01*
X062725Y029738D01*
X062711Y029735D01*
X062698Y029736D01*
X062685Y029741D01*
X062674Y029748D01*
X062665Y029759D01*
X062660Y029772D01*
X062658Y029785D01*
X062158Y029785D02*
X062160Y029798D01*
X062165Y029811D01*
X062174Y029822D01*
X062185Y029829D01*
X062198Y029834D01*
X062211Y029835D01*
X062225Y029832D01*
X062237Y029826D01*
X062247Y029817D01*
X062254Y029805D01*
X062258Y029792D01*
X062258Y029778D01*
X062254Y029765D01*
X062247Y029753D01*
X062237Y029744D01*
X062225Y029738D01*
X062211Y029735D01*
X062198Y029736D01*
X062185Y029741D01*
X062174Y029748D01*
X062165Y029759D01*
X062160Y029772D01*
X062158Y029785D01*
X062158Y029185D02*
X062160Y029198D01*
X062165Y029211D01*
X062174Y029222D01*
X062185Y029229D01*
X062198Y029234D01*
X062211Y029235D01*
X062225Y029232D01*
X062237Y029226D01*
X062247Y029217D01*
X062254Y029205D01*
X062258Y029192D01*
X062258Y029178D01*
X062254Y029165D01*
X062247Y029153D01*
X062237Y029144D01*
X062225Y029138D01*
X062211Y029135D01*
X062198Y029136D01*
X062185Y029141D01*
X062174Y029148D01*
X062165Y029159D01*
X062160Y029172D01*
X062158Y029185D01*
X062658Y029185D02*
X062660Y029198D01*
X062665Y029211D01*
X062674Y029222D01*
X062685Y029229D01*
X062698Y029234D01*
X062711Y029235D01*
X062725Y029232D01*
X062737Y029226D01*
X062747Y029217D01*
X062754Y029205D01*
X062758Y029192D01*
X062758Y029178D01*
X062754Y029165D01*
X062747Y029153D01*
X062737Y029144D01*
X062725Y029138D01*
X062711Y029135D01*
X062698Y029136D01*
X062685Y029141D01*
X062674Y029148D01*
X062665Y029159D01*
X062660Y029172D01*
X062658Y029185D01*
X062658Y028585D02*
X062660Y028598D01*
X062665Y028611D01*
X062674Y028622D01*
X062685Y028629D01*
X062698Y028634D01*
X062711Y028635D01*
X062725Y028632D01*
X062737Y028626D01*
X062747Y028617D01*
X062754Y028605D01*
X062758Y028592D01*
X062758Y028578D01*
X062754Y028565D01*
X062747Y028553D01*
X062737Y028544D01*
X062725Y028538D01*
X062711Y028535D01*
X062698Y028536D01*
X062685Y028541D01*
X062674Y028548D01*
X062665Y028559D01*
X062660Y028572D01*
X062658Y028585D01*
X062158Y028585D02*
X062160Y028598D01*
X062165Y028611D01*
X062174Y028622D01*
X062185Y028629D01*
X062198Y028634D01*
X062211Y028635D01*
X062225Y028632D01*
X062237Y028626D01*
X062247Y028617D01*
X062254Y028605D01*
X062258Y028592D01*
X062258Y028578D01*
X062254Y028565D01*
X062247Y028553D01*
X062237Y028544D01*
X062225Y028538D01*
X062211Y028535D01*
X062198Y028536D01*
X062185Y028541D01*
X062174Y028548D01*
X062165Y028559D01*
X062160Y028572D01*
X062158Y028585D01*
X062158Y027985D02*
X062160Y027998D01*
X062165Y028011D01*
X062174Y028022D01*
X062185Y028029D01*
X062198Y028034D01*
X062211Y028035D01*
X062225Y028032D01*
X062237Y028026D01*
X062247Y028017D01*
X062254Y028005D01*
X062258Y027992D01*
X062258Y027978D01*
X062254Y027965D01*
X062247Y027953D01*
X062237Y027944D01*
X062225Y027938D01*
X062211Y027935D01*
X062198Y027936D01*
X062185Y027941D01*
X062174Y027948D01*
X062165Y027959D01*
X062160Y027972D01*
X062158Y027985D01*
X062658Y027985D02*
X062660Y027998D01*
X062665Y028011D01*
X062674Y028022D01*
X062685Y028029D01*
X062698Y028034D01*
X062711Y028035D01*
X062725Y028032D01*
X062737Y028026D01*
X062747Y028017D01*
X062754Y028005D01*
X062758Y027992D01*
X062758Y027978D01*
X062754Y027965D01*
X062747Y027953D01*
X062737Y027944D01*
X062725Y027938D01*
X062711Y027935D01*
X062698Y027936D01*
X062685Y027941D01*
X062674Y027948D01*
X062665Y027959D01*
X062660Y027972D01*
X062658Y027985D01*
X030033Y027960D02*
X030035Y027973D01*
X030040Y027986D01*
X030049Y027997D01*
X030060Y028004D01*
X030073Y028009D01*
X030086Y028010D01*
X030100Y028007D01*
X030112Y028001D01*
X030122Y027992D01*
X030129Y027980D01*
X030133Y027967D01*
X030133Y027953D01*
X030129Y027940D01*
X030122Y027928D01*
X030112Y027919D01*
X030100Y027913D01*
X030086Y027910D01*
X030073Y027911D01*
X030060Y027916D01*
X030049Y027923D01*
X030040Y027934D01*
X030035Y027947D01*
X030033Y027960D01*
X029533Y027960D02*
X029535Y027973D01*
X029540Y027986D01*
X029549Y027997D01*
X029560Y028004D01*
X029573Y028009D01*
X029586Y028010D01*
X029600Y028007D01*
X029612Y028001D01*
X029622Y027992D01*
X029629Y027980D01*
X029633Y027967D01*
X029633Y027953D01*
X029629Y027940D01*
X029622Y027928D01*
X029612Y027919D01*
X029600Y027913D01*
X029586Y027910D01*
X029573Y027911D01*
X029560Y027916D01*
X029549Y027923D01*
X029540Y027934D01*
X029535Y027947D01*
X029533Y027960D01*
X029533Y027360D02*
X029535Y027373D01*
X029540Y027386D01*
X029549Y027397D01*
X029560Y027404D01*
X029573Y027409D01*
X029586Y027410D01*
X029600Y027407D01*
X029612Y027401D01*
X029622Y027392D01*
X029629Y027380D01*
X029633Y027367D01*
X029633Y027353D01*
X029629Y027340D01*
X029622Y027328D01*
X029612Y027319D01*
X029600Y027313D01*
X029586Y027310D01*
X029573Y027311D01*
X029560Y027316D01*
X029549Y027323D01*
X029540Y027334D01*
X029535Y027347D01*
X029533Y027360D01*
X030033Y027360D02*
X030035Y027373D01*
X030040Y027386D01*
X030049Y027397D01*
X030060Y027404D01*
X030073Y027409D01*
X030086Y027410D01*
X030100Y027407D01*
X030112Y027401D01*
X030122Y027392D01*
X030129Y027380D01*
X030133Y027367D01*
X030133Y027353D01*
X030129Y027340D01*
X030122Y027328D01*
X030112Y027319D01*
X030100Y027313D01*
X030086Y027310D01*
X030073Y027311D01*
X030060Y027316D01*
X030049Y027323D01*
X030040Y027334D01*
X030035Y027347D01*
X030033Y027360D01*
X030033Y026760D02*
X030035Y026773D01*
X030040Y026786D01*
X030049Y026797D01*
X030060Y026804D01*
X030073Y026809D01*
X030086Y026810D01*
X030100Y026807D01*
X030112Y026801D01*
X030122Y026792D01*
X030129Y026780D01*
X030133Y026767D01*
X030133Y026753D01*
X030129Y026740D01*
X030122Y026728D01*
X030112Y026719D01*
X030100Y026713D01*
X030086Y026710D01*
X030073Y026711D01*
X030060Y026716D01*
X030049Y026723D01*
X030040Y026734D01*
X030035Y026747D01*
X030033Y026760D01*
X029533Y026760D02*
X029535Y026773D01*
X029540Y026786D01*
X029549Y026797D01*
X029560Y026804D01*
X029573Y026809D01*
X029586Y026810D01*
X029600Y026807D01*
X029612Y026801D01*
X029622Y026792D01*
X029629Y026780D01*
X029633Y026767D01*
X029633Y026753D01*
X029629Y026740D01*
X029622Y026728D01*
X029612Y026719D01*
X029600Y026713D01*
X029586Y026710D01*
X029573Y026711D01*
X029560Y026716D01*
X029549Y026723D01*
X029540Y026734D01*
X029535Y026747D01*
X029533Y026760D01*
X029533Y026160D02*
X029535Y026173D01*
X029540Y026186D01*
X029549Y026197D01*
X029560Y026204D01*
X029573Y026209D01*
X029586Y026210D01*
X029600Y026207D01*
X029612Y026201D01*
X029622Y026192D01*
X029629Y026180D01*
X029633Y026167D01*
X029633Y026153D01*
X029629Y026140D01*
X029622Y026128D01*
X029612Y026119D01*
X029600Y026113D01*
X029586Y026110D01*
X029573Y026111D01*
X029560Y026116D01*
X029549Y026123D01*
X029540Y026134D01*
X029535Y026147D01*
X029533Y026160D01*
X030033Y026160D02*
X030035Y026173D01*
X030040Y026186D01*
X030049Y026197D01*
X030060Y026204D01*
X030073Y026209D01*
X030086Y026210D01*
X030100Y026207D01*
X030112Y026201D01*
X030122Y026192D01*
X030129Y026180D01*
X030133Y026167D01*
X030133Y026153D01*
X030129Y026140D01*
X030122Y026128D01*
X030112Y026119D01*
X030100Y026113D01*
X030086Y026110D01*
X030073Y026111D01*
X030060Y026116D01*
X030049Y026123D01*
X030040Y026134D01*
X030035Y026147D01*
X030033Y026160D01*
X030033Y025560D02*
X030035Y025573D01*
X030040Y025586D01*
X030049Y025597D01*
X030060Y025604D01*
X030073Y025609D01*
X030086Y025610D01*
X030100Y025607D01*
X030112Y025601D01*
X030122Y025592D01*
X030129Y025580D01*
X030133Y025567D01*
X030133Y025553D01*
X030129Y025540D01*
X030122Y025528D01*
X030112Y025519D01*
X030100Y025513D01*
X030086Y025510D01*
X030073Y025511D01*
X030060Y025516D01*
X030049Y025523D01*
X030040Y025534D01*
X030035Y025547D01*
X030033Y025560D01*
X029533Y025560D02*
X029535Y025573D01*
X029540Y025586D01*
X029549Y025597D01*
X029560Y025604D01*
X029573Y025609D01*
X029586Y025610D01*
X029600Y025607D01*
X029612Y025601D01*
X029622Y025592D01*
X029629Y025580D01*
X029633Y025567D01*
X029633Y025553D01*
X029629Y025540D01*
X029622Y025528D01*
X029612Y025519D01*
X029600Y025513D01*
X029586Y025510D01*
X029573Y025511D01*
X029560Y025516D01*
X029549Y025523D01*
X029540Y025534D01*
X029535Y025547D01*
X029533Y025560D01*
X029533Y024960D02*
X029535Y024973D01*
X029540Y024986D01*
X029549Y024997D01*
X029560Y025004D01*
X029573Y025009D01*
X029586Y025010D01*
X029600Y025007D01*
X029612Y025001D01*
X029622Y024992D01*
X029629Y024980D01*
X029633Y024967D01*
X029633Y024953D01*
X029629Y024940D01*
X029622Y024928D01*
X029612Y024919D01*
X029600Y024913D01*
X029586Y024910D01*
X029573Y024911D01*
X029560Y024916D01*
X029549Y024923D01*
X029540Y024934D01*
X029535Y024947D01*
X029533Y024960D01*
X030033Y024960D02*
X030035Y024973D01*
X030040Y024986D01*
X030049Y024997D01*
X030060Y025004D01*
X030073Y025009D01*
X030086Y025010D01*
X030100Y025007D01*
X030112Y025001D01*
X030122Y024992D01*
X030129Y024980D01*
X030133Y024967D01*
X030133Y024953D01*
X030129Y024940D01*
X030122Y024928D01*
X030112Y024919D01*
X030100Y024913D01*
X030086Y024910D01*
X030073Y024911D01*
X030060Y024916D01*
X030049Y024923D01*
X030040Y024934D01*
X030035Y024947D01*
X030033Y024960D01*
X030033Y028560D02*
X030035Y028573D01*
X030040Y028586D01*
X030049Y028597D01*
X030060Y028604D01*
X030073Y028609D01*
X030086Y028610D01*
X030100Y028607D01*
X030112Y028601D01*
X030122Y028592D01*
X030129Y028580D01*
X030133Y028567D01*
X030133Y028553D01*
X030129Y028540D01*
X030122Y028528D01*
X030112Y028519D01*
X030100Y028513D01*
X030086Y028510D01*
X030073Y028511D01*
X030060Y028516D01*
X030049Y028523D01*
X030040Y028534D01*
X030035Y028547D01*
X030033Y028560D01*
X029533Y028560D02*
X029535Y028573D01*
X029540Y028586D01*
X029549Y028597D01*
X029560Y028604D01*
X029573Y028609D01*
X029586Y028610D01*
X029600Y028607D01*
X029612Y028601D01*
X029622Y028592D01*
X029629Y028580D01*
X029633Y028567D01*
X029633Y028553D01*
X029629Y028540D01*
X029622Y028528D01*
X029612Y028519D01*
X029600Y028513D01*
X029586Y028510D01*
X029573Y028511D01*
X029560Y028516D01*
X029549Y028523D01*
X029540Y028534D01*
X029535Y028547D01*
X029533Y028560D01*
X029533Y029160D02*
X029535Y029173D01*
X029540Y029186D01*
X029549Y029197D01*
X029560Y029204D01*
X029573Y029209D01*
X029586Y029210D01*
X029600Y029207D01*
X029612Y029201D01*
X029622Y029192D01*
X029629Y029180D01*
X029633Y029167D01*
X029633Y029153D01*
X029629Y029140D01*
X029622Y029128D01*
X029612Y029119D01*
X029600Y029113D01*
X029586Y029110D01*
X029573Y029111D01*
X029560Y029116D01*
X029549Y029123D01*
X029540Y029134D01*
X029535Y029147D01*
X029533Y029160D01*
X030033Y029160D02*
X030035Y029173D01*
X030040Y029186D01*
X030049Y029197D01*
X030060Y029204D01*
X030073Y029209D01*
X030086Y029210D01*
X030100Y029207D01*
X030112Y029201D01*
X030122Y029192D01*
X030129Y029180D01*
X030133Y029167D01*
X030133Y029153D01*
X030129Y029140D01*
X030122Y029128D01*
X030112Y029119D01*
X030100Y029113D01*
X030086Y029110D01*
X030073Y029111D01*
X030060Y029116D01*
X030049Y029123D01*
X030040Y029134D01*
X030035Y029147D01*
X030033Y029160D01*
X030033Y029760D02*
X030035Y029773D01*
X030040Y029786D01*
X030049Y029797D01*
X030060Y029804D01*
X030073Y029809D01*
X030086Y029810D01*
X030100Y029807D01*
X030112Y029801D01*
X030122Y029792D01*
X030129Y029780D01*
X030133Y029767D01*
X030133Y029753D01*
X030129Y029740D01*
X030122Y029728D01*
X030112Y029719D01*
X030100Y029713D01*
X030086Y029710D01*
X030073Y029711D01*
X030060Y029716D01*
X030049Y029723D01*
X030040Y029734D01*
X030035Y029747D01*
X030033Y029760D01*
X029533Y029760D02*
X029535Y029773D01*
X029540Y029786D01*
X029549Y029797D01*
X029560Y029804D01*
X029573Y029809D01*
X029586Y029810D01*
X029600Y029807D01*
X029612Y029801D01*
X029622Y029792D01*
X029629Y029780D01*
X029633Y029767D01*
X029633Y029753D01*
X029629Y029740D01*
X029622Y029728D01*
X029612Y029719D01*
X029600Y029713D01*
X029586Y029710D01*
X029573Y029711D01*
X029560Y029716D01*
X029549Y029723D01*
X029540Y029734D01*
X029535Y029747D01*
X029533Y029760D01*
X029533Y030360D02*
X029535Y030373D01*
X029540Y030386D01*
X029549Y030397D01*
X029560Y030404D01*
X029573Y030409D01*
X029586Y030410D01*
X029600Y030407D01*
X029612Y030401D01*
X029622Y030392D01*
X029629Y030380D01*
X029633Y030367D01*
X029633Y030353D01*
X029629Y030340D01*
X029622Y030328D01*
X029612Y030319D01*
X029600Y030313D01*
X029586Y030310D01*
X029573Y030311D01*
X029560Y030316D01*
X029549Y030323D01*
X029540Y030334D01*
X029535Y030347D01*
X029533Y030360D01*
X030033Y030360D02*
X030035Y030373D01*
X030040Y030386D01*
X030049Y030397D01*
X030060Y030404D01*
X030073Y030409D01*
X030086Y030410D01*
X030100Y030407D01*
X030112Y030401D01*
X030122Y030392D01*
X030129Y030380D01*
X030133Y030367D01*
X030133Y030353D01*
X030129Y030340D01*
X030122Y030328D01*
X030112Y030319D01*
X030100Y030313D01*
X030086Y030310D01*
X030073Y030311D01*
X030060Y030316D01*
X030049Y030323D01*
X030040Y030334D01*
X030035Y030347D01*
X030033Y030360D01*
X030033Y030960D02*
X030035Y030973D01*
X030040Y030986D01*
X030049Y030997D01*
X030060Y031004D01*
X030073Y031009D01*
X030086Y031010D01*
X030100Y031007D01*
X030112Y031001D01*
X030122Y030992D01*
X030129Y030980D01*
X030133Y030967D01*
X030133Y030953D01*
X030129Y030940D01*
X030122Y030928D01*
X030112Y030919D01*
X030100Y030913D01*
X030086Y030910D01*
X030073Y030911D01*
X030060Y030916D01*
X030049Y030923D01*
X030040Y030934D01*
X030035Y030947D01*
X030033Y030960D01*
X029533Y030960D02*
X029535Y030973D01*
X029540Y030986D01*
X029549Y030997D01*
X029560Y031004D01*
X029573Y031009D01*
X029586Y031010D01*
X029600Y031007D01*
X029612Y031001D01*
X029622Y030992D01*
X029629Y030980D01*
X029633Y030967D01*
X029633Y030953D01*
X029629Y030940D01*
X029622Y030928D01*
X029612Y030919D01*
X029600Y030913D01*
X029586Y030910D01*
X029573Y030911D01*
X029560Y030916D01*
X029549Y030923D01*
X029540Y030934D01*
X029535Y030947D01*
X029533Y030960D01*
X029533Y031560D02*
X029535Y031573D01*
X029540Y031586D01*
X029549Y031597D01*
X029560Y031604D01*
X029573Y031609D01*
X029586Y031610D01*
X029600Y031607D01*
X029612Y031601D01*
X029622Y031592D01*
X029629Y031580D01*
X029633Y031567D01*
X029633Y031553D01*
X029629Y031540D01*
X029622Y031528D01*
X029612Y031519D01*
X029600Y031513D01*
X029586Y031510D01*
X029573Y031511D01*
X029560Y031516D01*
X029549Y031523D01*
X029540Y031534D01*
X029535Y031547D01*
X029533Y031560D01*
X030033Y031560D02*
X030035Y031573D01*
X030040Y031586D01*
X030049Y031597D01*
X030060Y031604D01*
X030073Y031609D01*
X030086Y031610D01*
X030100Y031607D01*
X030112Y031601D01*
X030122Y031592D01*
X030129Y031580D01*
X030133Y031567D01*
X030133Y031553D01*
X030129Y031540D01*
X030122Y031528D01*
X030112Y031519D01*
X030100Y031513D01*
X030086Y031510D01*
X030073Y031511D01*
X030060Y031516D01*
X030049Y031523D01*
X030040Y031534D01*
X030035Y031547D01*
X030033Y031560D01*
X030033Y032160D02*
X030035Y032173D01*
X030040Y032186D01*
X030049Y032197D01*
X030060Y032204D01*
X030073Y032209D01*
X030086Y032210D01*
X030100Y032207D01*
X030112Y032201D01*
X030122Y032192D01*
X030129Y032180D01*
X030133Y032167D01*
X030133Y032153D01*
X030129Y032140D01*
X030122Y032128D01*
X030112Y032119D01*
X030100Y032113D01*
X030086Y032110D01*
X030073Y032111D01*
X030060Y032116D01*
X030049Y032123D01*
X030040Y032134D01*
X030035Y032147D01*
X030033Y032160D01*
X029533Y032160D02*
X029535Y032173D01*
X029540Y032186D01*
X029549Y032197D01*
X029560Y032204D01*
X029573Y032209D01*
X029586Y032210D01*
X029600Y032207D01*
X029612Y032201D01*
X029622Y032192D01*
X029629Y032180D01*
X029633Y032167D01*
X029633Y032153D01*
X029629Y032140D01*
X029622Y032128D01*
X029612Y032119D01*
X029600Y032113D01*
X029586Y032110D01*
X029573Y032111D01*
X029560Y032116D01*
X029549Y032123D01*
X029540Y032134D01*
X029535Y032147D01*
X029533Y032160D01*
X012658Y015385D02*
X012660Y015398D01*
X012665Y015411D01*
X012674Y015422D01*
X012685Y015429D01*
X012698Y015434D01*
X012711Y015435D01*
X012725Y015432D01*
X012737Y015426D01*
X012747Y015417D01*
X012754Y015405D01*
X012758Y015392D01*
X012758Y015378D01*
X012754Y015365D01*
X012747Y015353D01*
X012737Y015344D01*
X012725Y015338D01*
X012711Y015335D01*
X012698Y015336D01*
X012685Y015341D01*
X012674Y015348D01*
X012665Y015359D01*
X012660Y015372D01*
X012658Y015385D01*
X012658Y014785D02*
X012660Y014798D01*
X012665Y014811D01*
X012674Y014822D01*
X012685Y014829D01*
X012698Y014834D01*
X012711Y014835D01*
X012725Y014832D01*
X012737Y014826D01*
X012747Y014817D01*
X012754Y014805D01*
X012758Y014792D01*
X012758Y014778D01*
X012754Y014765D01*
X012747Y014753D01*
X012737Y014744D01*
X012725Y014738D01*
X012711Y014735D01*
X012698Y014736D01*
X012685Y014741D01*
X012674Y014748D01*
X012665Y014759D01*
X012660Y014772D01*
X012658Y014785D01*
X012658Y014185D02*
X012660Y014198D01*
X012665Y014211D01*
X012674Y014222D01*
X012685Y014229D01*
X012698Y014234D01*
X012711Y014235D01*
X012725Y014232D01*
X012737Y014226D01*
X012747Y014217D01*
X012754Y014205D01*
X012758Y014192D01*
X012758Y014178D01*
X012754Y014165D01*
X012747Y014153D01*
X012737Y014144D01*
X012725Y014138D01*
X012711Y014135D01*
X012698Y014136D01*
X012685Y014141D01*
X012674Y014148D01*
X012665Y014159D01*
X012660Y014172D01*
X012658Y014185D01*
X012658Y013585D02*
X012660Y013598D01*
X012665Y013611D01*
X012674Y013622D01*
X012685Y013629D01*
X012698Y013634D01*
X012711Y013635D01*
X012725Y013632D01*
X012737Y013626D01*
X012747Y013617D01*
X012754Y013605D01*
X012758Y013592D01*
X012758Y013578D01*
X012754Y013565D01*
X012747Y013553D01*
X012737Y013544D01*
X012725Y013538D01*
X012711Y013535D01*
X012698Y013536D01*
X012685Y013541D01*
X012674Y013548D01*
X012665Y013559D01*
X012660Y013572D01*
X012658Y013585D01*
X012658Y012985D02*
X012660Y012998D01*
X012665Y013011D01*
X012674Y013022D01*
X012685Y013029D01*
X012698Y013034D01*
X012711Y013035D01*
X012725Y013032D01*
X012737Y013026D01*
X012747Y013017D01*
X012754Y013005D01*
X012758Y012992D01*
X012758Y012978D01*
X012754Y012965D01*
X012747Y012953D01*
X012737Y012944D01*
X012725Y012938D01*
X012711Y012935D01*
X012698Y012936D01*
X012685Y012941D01*
X012674Y012948D01*
X012665Y012959D01*
X012660Y012972D01*
X012658Y012985D01*
X012658Y012385D02*
X012660Y012398D01*
X012665Y012411D01*
X012674Y012422D01*
X012685Y012429D01*
X012698Y012434D01*
X012711Y012435D01*
X012725Y012432D01*
X012737Y012426D01*
X012747Y012417D01*
X012754Y012405D01*
X012758Y012392D01*
X012758Y012378D01*
X012754Y012365D01*
X012747Y012353D01*
X012737Y012344D01*
X012725Y012338D01*
X012711Y012335D01*
X012698Y012336D01*
X012685Y012341D01*
X012674Y012348D01*
X012665Y012359D01*
X012660Y012372D01*
X012658Y012385D01*
D13*
X012408Y012060D02*
X012408Y015685D01*
X013008Y015685D01*
X013008Y012060D01*
X012408Y012060D01*
X045492Y005715D02*
X045492Y005465D01*
X045492Y005715D02*
X045576Y005798D01*
X045826Y005798D01*
X045826Y005465D01*
X046008Y005631D02*
X046342Y005631D01*
X046342Y005548D02*
X046342Y005715D01*
X046258Y005798D01*
X046091Y005798D01*
X046008Y005715D01*
X046008Y005631D01*
X046091Y005465D02*
X046258Y005465D01*
X046342Y005548D01*
X046524Y005548D02*
X046607Y005465D01*
X046857Y005465D01*
X046857Y005298D02*
X046857Y005798D01*
X046607Y005798D01*
X046524Y005715D01*
X046524Y005548D01*
X047039Y005548D02*
X047039Y005715D01*
X047123Y005798D01*
X047290Y005798D01*
X047373Y005715D01*
X047373Y005548D01*
X047290Y005465D01*
X047123Y005465D01*
X047039Y005548D01*
X047555Y005715D02*
X047889Y005715D01*
X048071Y005798D02*
X048404Y005465D01*
X048071Y005465D01*
X048071Y005798D02*
X048404Y005798D01*
X048586Y005715D02*
X048586Y005631D01*
X048920Y005631D01*
X048920Y005548D02*
X048920Y005715D01*
X048836Y005798D01*
X048670Y005798D01*
X048586Y005715D01*
X048670Y005465D02*
X048836Y005465D01*
X048920Y005548D01*
X049102Y005631D02*
X049435Y005631D01*
X049435Y005548D02*
X049435Y005715D01*
X049352Y005798D01*
X049185Y005798D01*
X049102Y005715D01*
X049102Y005631D01*
X049185Y005465D02*
X049352Y005465D01*
X049435Y005548D01*
X049618Y005965D02*
X049951Y005465D01*
X050133Y005465D02*
X050133Y005715D01*
X050217Y005798D01*
X050300Y005715D01*
X050300Y005465D01*
X050467Y005465D02*
X050467Y005798D01*
X050383Y005798D01*
X050300Y005715D01*
X050649Y005715D02*
X050732Y005798D01*
X050899Y005798D01*
X050982Y005715D01*
X050982Y005548D01*
X050899Y005465D01*
X050732Y005465D01*
X050649Y005548D01*
X050649Y005715D01*
X051164Y005798D02*
X051415Y005798D01*
X051498Y005715D01*
X051498Y005548D01*
X051415Y005465D01*
X051164Y005465D01*
X051672Y005465D02*
X051756Y005465D01*
X051756Y005548D01*
X051672Y005548D01*
X051672Y005465D01*
X051938Y005548D02*
X051938Y005715D01*
X052021Y005798D01*
X052272Y005798D01*
X052272Y005965D02*
X052272Y005465D01*
X052021Y005465D01*
X051938Y005548D01*
X052454Y005465D02*
X052454Y005798D01*
X052787Y005798D02*
X052787Y005548D01*
X052704Y005465D01*
X052454Y005465D01*
X052969Y005465D02*
X052969Y005715D01*
X053053Y005798D01*
X053219Y005798D01*
X053303Y005715D01*
X053480Y005798D02*
X053647Y005798D01*
X053563Y005882D02*
X053563Y005548D01*
X053480Y005465D01*
X053303Y005465D02*
X053303Y005965D01*
X053907Y005965D02*
X053907Y006048D01*
X053907Y005798D02*
X053907Y005465D01*
X053990Y005465D02*
X053823Y005465D01*
X053907Y005798D02*
X053990Y005798D01*
X054172Y005798D02*
X054423Y005798D01*
X054506Y005715D01*
X054506Y005548D01*
X054423Y005465D01*
X054172Y005465D01*
X054172Y005381D02*
X054172Y005798D01*
X054172Y005381D02*
X054256Y005298D01*
X054339Y005298D01*
X055199Y005465D02*
X055282Y005548D01*
X055282Y005882D01*
X055365Y005798D02*
X055199Y005798D01*
X055547Y005715D02*
X055547Y005465D01*
X055798Y005465D01*
X055881Y005548D01*
X055798Y005631D01*
X055547Y005631D01*
X055547Y005715D02*
X055631Y005798D01*
X055798Y005798D01*
X056579Y005715D02*
X056579Y005631D01*
X056912Y005631D01*
X056912Y005548D02*
X056912Y005715D01*
X056829Y005798D01*
X056662Y005798D01*
X056579Y005715D01*
X056662Y005465D02*
X056829Y005465D01*
X056912Y005548D01*
X057094Y005465D02*
X057344Y005465D01*
X057428Y005548D01*
X057428Y005715D01*
X057344Y005798D01*
X057094Y005798D01*
X057094Y005965D02*
X057094Y005465D01*
X057610Y005548D02*
X057610Y005715D01*
X057693Y005798D01*
X057860Y005798D01*
X057944Y005715D01*
X057944Y005548D01*
X057860Y005465D01*
X057693Y005465D01*
X057610Y005548D01*
X058126Y005465D02*
X058376Y005465D01*
X058459Y005548D01*
X058459Y005715D01*
X058376Y005798D01*
X058126Y005798D01*
X059157Y005715D02*
X059157Y005631D01*
X059490Y005631D01*
X059490Y005548D02*
X059490Y005715D01*
X059407Y005798D01*
X059240Y005798D01*
X059157Y005715D01*
X059240Y005465D02*
X059407Y005465D01*
X059490Y005548D01*
X059672Y005465D02*
X059923Y005465D01*
X060006Y005548D01*
X060006Y005715D01*
X059923Y005798D01*
X059672Y005798D01*
X060186Y005798D02*
X060269Y005798D01*
X060436Y005631D01*
X060436Y005465D02*
X060436Y005798D01*
X060618Y005798D02*
X060618Y005465D01*
X060868Y005465D01*
X060951Y005548D01*
X060951Y005798D01*
X061133Y005715D02*
X061217Y005798D01*
X061384Y005798D01*
X061467Y005715D01*
X061467Y005548D01*
X061384Y005465D01*
X061217Y005465D01*
X061133Y005548D01*
X061133Y005715D01*
X061649Y005798D02*
X061899Y005798D01*
X061983Y005715D01*
X061899Y005631D01*
X061733Y005631D01*
X061649Y005548D01*
X061733Y005465D01*
X061983Y005465D01*
X062675Y005465D02*
X062759Y005548D01*
X062759Y005882D01*
X062842Y005798D02*
X062675Y005798D01*
X063024Y005798D02*
X063274Y005798D01*
X063358Y005715D01*
X063358Y005548D01*
X063274Y005465D01*
X063024Y005465D01*
X063540Y005631D02*
X063873Y005631D01*
X063873Y005548D02*
X063873Y005715D01*
X063790Y005798D01*
X063623Y005798D01*
X063540Y005715D01*
X063540Y005631D01*
X063623Y005465D02*
X063790Y005465D01*
X063873Y005548D01*
X064050Y005381D02*
X064050Y005798D01*
X064050Y005965D02*
X064050Y006048D01*
X064399Y005715D02*
X064483Y005798D01*
X064649Y005798D01*
X064733Y005715D01*
X064733Y005548D01*
X064649Y005465D01*
X064483Y005465D01*
X064399Y005548D01*
X064399Y005715D01*
X064217Y005298D02*
X064134Y005298D01*
X064050Y005381D01*
X064912Y005798D02*
X064996Y005798D01*
X065162Y005631D01*
X065162Y005465D02*
X065162Y005798D01*
X065345Y005715D02*
X065428Y005631D01*
X065678Y005631D01*
X065678Y005465D02*
X065678Y005965D01*
X065428Y005965D01*
X065345Y005882D01*
X065345Y005715D01*
X068808Y008760D02*
X068808Y011185D01*
X069408Y011185D01*
X069408Y008760D01*
X068808Y008760D01*
X078708Y008760D02*
X078708Y011785D01*
X079808Y011785D01*
X079808Y008760D01*
X078708Y008760D01*
X087048Y009603D02*
X087048Y007803D01*
X087168Y007723D01*
X087168Y006323D01*
X087418Y006073D01*
X090078Y006073D01*
X090328Y006323D01*
X090328Y007723D01*
X090448Y007803D01*
X090448Y009603D01*
X090318Y009683D01*
X090318Y011083D01*
X090068Y011333D01*
X087428Y011333D01*
X087178Y011083D01*
X087178Y009693D01*
X087048Y009603D01*
X052308Y009360D02*
X052308Y014185D01*
X051708Y014185D01*
X051708Y009360D01*
X052308Y009360D01*
X049608Y017160D02*
X049608Y021985D01*
X049008Y021985D01*
X049008Y017160D01*
X049608Y017160D01*
X030383Y024660D02*
X029283Y024660D01*
X029283Y032460D01*
X030383Y032460D01*
X030383Y024660D01*
X058908Y026685D02*
X058908Y031485D01*
X064308Y031485D01*
X063008Y030085D02*
X061908Y030085D01*
X061908Y027660D01*
X063008Y027660D01*
X063008Y030085D01*
X070408Y030085D02*
X070408Y027085D01*
X071508Y027085D01*
X071508Y030085D01*
X070408Y030085D01*
X071208Y031485D02*
X076608Y031485D01*
X076608Y026685D01*
X058908Y026685D01*
D14*
X088164Y005818D02*
X088164Y005188D01*
X088374Y005188D02*
X087954Y005188D01*
X088374Y005608D02*
X088164Y005818D01*
X088598Y005818D02*
X088598Y005188D01*
X088809Y005398D01*
X089019Y005188D01*
X089019Y005818D01*
X089243Y005713D02*
X089348Y005818D01*
X089558Y005818D01*
X089663Y005713D01*
X089663Y005608D01*
X089558Y005503D01*
X089348Y005503D01*
X089243Y005398D01*
X089243Y005293D01*
X089348Y005188D01*
X089558Y005188D01*
X089663Y005293D01*
D15*
X089498Y012658D02*
X087998Y012658D01*
X087998Y013408D01*
X089498Y013408D01*
X089498Y012658D01*
X089786Y018211D02*
X087711Y018211D01*
X087711Y018939D01*
X087632Y018939D01*
X087632Y019726D01*
X087711Y019726D01*
X087711Y020355D01*
X088551Y020355D01*
X088551Y020453D01*
X088945Y020453D01*
X088945Y020355D01*
X089786Y020355D01*
X089786Y019726D01*
X089864Y019726D01*
X089864Y018939D01*
X089786Y018939D01*
X089786Y018211D01*
X089786Y018939D02*
X089707Y018939D01*
X089707Y019726D01*
X089786Y019726D01*
X088276Y019333D02*
X088278Y019376D01*
X088284Y019418D01*
X088294Y019460D01*
X088307Y019501D01*
X088324Y019541D01*
X088345Y019578D01*
X088369Y019614D01*
X088396Y019647D01*
X088426Y019678D01*
X088459Y019706D01*
X088494Y019731D01*
X088531Y019752D01*
X088570Y019770D01*
X088610Y019784D01*
X088652Y019795D01*
X088694Y019802D01*
X088737Y019805D01*
X088780Y019804D01*
X088823Y019799D01*
X088865Y019790D01*
X088906Y019778D01*
X088946Y019762D01*
X088984Y019742D01*
X089020Y019719D01*
X089054Y019692D01*
X089086Y019663D01*
X089114Y019631D01*
X089140Y019596D01*
X089162Y019560D01*
X089181Y019521D01*
X089196Y019481D01*
X089208Y019440D01*
X089216Y019397D01*
X089220Y019354D01*
X089220Y019312D01*
X089216Y019269D01*
X089208Y019226D01*
X089196Y019185D01*
X089181Y019145D01*
X089162Y019106D01*
X089140Y019070D01*
X089114Y019035D01*
X089086Y019003D01*
X089054Y018974D01*
X089020Y018947D01*
X088984Y018924D01*
X088946Y018904D01*
X088906Y018888D01*
X088865Y018876D01*
X088823Y018867D01*
X088780Y018862D01*
X088737Y018861D01*
X088694Y018864D01*
X088652Y018871D01*
X088610Y018882D01*
X088570Y018896D01*
X088531Y018914D01*
X088494Y018935D01*
X088459Y018960D01*
X088426Y018988D01*
X088396Y019019D01*
X088369Y019052D01*
X088345Y019088D01*
X088324Y019125D01*
X088307Y019165D01*
X088294Y019206D01*
X088284Y019248D01*
X088278Y019290D01*
X088276Y019333D01*
X088157Y019333D02*
X088159Y019381D01*
X088165Y019429D01*
X088175Y019476D01*
X088188Y019522D01*
X088206Y019567D01*
X088226Y019611D01*
X088251Y019653D01*
X088279Y019692D01*
X088309Y019729D01*
X088343Y019763D01*
X088380Y019795D01*
X088418Y019824D01*
X088459Y019849D01*
X088502Y019871D01*
X088547Y019889D01*
X088593Y019903D01*
X088640Y019914D01*
X088688Y019921D01*
X088736Y019924D01*
X088784Y019923D01*
X088832Y019918D01*
X088880Y019909D01*
X088926Y019897D01*
X088971Y019880D01*
X089015Y019860D01*
X089057Y019837D01*
X089097Y019810D01*
X089135Y019780D01*
X089170Y019747D01*
X089202Y019711D01*
X089232Y019673D01*
X089258Y019632D01*
X089280Y019589D01*
X089300Y019545D01*
X089315Y019500D01*
X089327Y019453D01*
X089335Y019405D01*
X089339Y019357D01*
X089339Y019309D01*
X089335Y019261D01*
X089327Y019213D01*
X089315Y019166D01*
X089300Y019121D01*
X089280Y019077D01*
X089258Y019034D01*
X089232Y018993D01*
X089202Y018955D01*
X089170Y018919D01*
X089135Y018886D01*
X089097Y018856D01*
X089057Y018829D01*
X089015Y018806D01*
X088971Y018786D01*
X088926Y018769D01*
X088880Y018757D01*
X088832Y018748D01*
X088784Y018743D01*
X088736Y018742D01*
X088688Y018745D01*
X088640Y018752D01*
X088593Y018763D01*
X088547Y018777D01*
X088502Y018795D01*
X088459Y018817D01*
X088418Y018842D01*
X088380Y018871D01*
X088343Y018903D01*
X088309Y018937D01*
X088279Y018974D01*
X088251Y019013D01*
X088226Y019055D01*
X088206Y019099D01*
X088188Y019144D01*
X088175Y019190D01*
X088165Y019237D01*
X088159Y019285D01*
X088157Y019333D01*
X087790Y019726D02*
X087790Y018939D01*
X087711Y018939D01*
X087711Y019726D02*
X087790Y019726D01*
X088155Y030235D02*
X088305Y030235D01*
X088230Y030235D02*
X088230Y030685D01*
X088305Y030685D02*
X088155Y030685D01*
X088466Y030685D02*
X088766Y030685D01*
X088766Y030235D01*
X088923Y030235D02*
X089073Y030235D01*
X088998Y030235D02*
X088998Y030685D01*
X089073Y030685D02*
X088923Y030685D01*
X088766Y030460D02*
X088616Y030460D01*
X089233Y030235D02*
X089233Y030685D01*
X089533Y030685D02*
X089533Y030235D01*
X089383Y030385D01*
X089233Y030235D01*
X048020Y022252D02*
X048020Y021352D01*
X047589Y021352D01*
X047195Y021352D02*
X046765Y021352D01*
X046371Y021352D02*
X045940Y021352D01*
X045547Y021352D02*
X045116Y021352D01*
X044722Y021352D02*
X044291Y021352D01*
X043898Y021352D02*
X043467Y021352D01*
X043073Y021352D02*
X042642Y021352D01*
X042249Y021352D02*
X041818Y021352D01*
X041424Y021352D02*
X040993Y021352D01*
X040600Y021352D02*
X040169Y021352D01*
X039775Y021352D02*
X039344Y021352D01*
X038951Y021352D02*
X038520Y021352D01*
X038520Y022252D01*
X048020Y022252D01*
X047766Y022895D02*
X046266Y022895D01*
X046266Y023645D01*
X047766Y023645D01*
X047766Y022895D01*
X044813Y022895D02*
X044813Y023645D01*
X043313Y023645D01*
X043313Y022895D01*
X044813Y022895D01*
X048020Y021352D02*
X048020Y016952D01*
X038520Y016952D01*
X038520Y021352D01*
X038511Y022377D02*
X038811Y022377D01*
X038661Y022377D02*
X038661Y022827D01*
X038811Y022677D01*
X038971Y022827D02*
X039271Y022377D01*
X038971Y022377D02*
X039271Y022827D01*
X043313Y025651D02*
X044813Y025651D01*
X044813Y026401D01*
X043313Y026401D01*
X043313Y025651D01*
X043313Y028406D02*
X044813Y028406D01*
X044813Y029156D01*
X043313Y029156D01*
X043313Y028406D01*
X019026Y023645D02*
X019026Y022895D01*
X017526Y022895D01*
X017526Y023645D01*
X019026Y023645D01*
X019248Y022252D02*
X011748Y022252D01*
X011748Y021352D01*
X011748Y016952D01*
X019248Y016952D01*
X019248Y021352D01*
X018853Y021352D01*
X018459Y021352D02*
X018063Y021352D01*
X017670Y021352D02*
X017274Y021352D01*
X016880Y021352D02*
X016485Y021352D01*
X016091Y021352D02*
X015695Y021352D01*
X015301Y021352D02*
X014906Y021352D01*
X014512Y021352D02*
X014116Y021352D01*
X013723Y021352D02*
X013327Y021352D01*
X012933Y021352D02*
X012538Y021352D01*
X012144Y021352D02*
X011748Y021352D01*
X011857Y022352D02*
X012008Y022352D01*
X012083Y022427D01*
X012243Y022352D02*
X012543Y022802D01*
X012243Y022802D02*
X012543Y022352D01*
X012083Y022727D02*
X012008Y022802D01*
X011857Y022802D01*
X011782Y022727D01*
X011782Y022652D01*
X011857Y022577D01*
X011782Y022502D01*
X011782Y022427D01*
X011857Y022352D01*
X011857Y022577D02*
X011932Y022577D01*
X014573Y022895D02*
X014573Y023645D01*
X016073Y023645D01*
X016073Y022895D01*
X014573Y022895D01*
X019248Y022252D02*
X019248Y021352D01*
X016073Y025651D02*
X014573Y025651D01*
X014573Y026401D01*
X016073Y026401D01*
X016073Y025651D01*
X016073Y028406D02*
X014573Y028406D01*
X014573Y029156D01*
X016073Y029156D01*
X016073Y028406D01*
X021660Y012227D02*
X021660Y011477D01*
X023160Y011477D01*
X023160Y012227D01*
X021660Y012227D01*
X029140Y012227D02*
X029140Y011477D01*
X030640Y011477D01*
X030640Y012227D01*
X029140Y012227D01*
X036620Y012227D02*
X036620Y011477D01*
X038120Y011477D01*
X038120Y012227D01*
X036620Y012227D01*
X058958Y009110D02*
X059208Y009110D01*
X059083Y009235D02*
X059083Y008985D01*
D16*
X037331Y011852D03*
X029929Y011852D03*
X022449Y011852D03*
X018315Y023270D03*
X015362Y023270D03*
X015362Y026026D03*
X015362Y028781D03*
X044024Y028781D03*
X044024Y026026D03*
X044024Y023270D03*
X046977Y023270D03*
X088709Y013033D03*
D17*
X089310Y016223D02*
X087756Y016223D01*
X087756Y016997D01*
X089310Y016997D01*
X089310Y016223D01*
X058907Y009547D02*
X058907Y008673D01*
X056960Y008673D01*
X056960Y009547D01*
X058907Y009547D01*
M02*
