G75*
G70*
%OFA0B0*%
%FSLAX24Y24*%
%IPPOS*%
%LPD*%
%AMOC8*
5,1,8,0,0,1.08239X$1,22.5*
%
%ADD10C,0.0039*%
%ADD11C,0.0000*%
%ADD12C,0.0004*%
D10*
X012370Y005736D02*
X081268Y005736D01*
X081268Y047074D01*
X012370Y047074D01*
X012370Y005736D01*
D11*
X046989Y009661D02*
X046991Y009711D01*
X046997Y009761D01*
X047007Y009810D01*
X047021Y009858D01*
X047038Y009905D01*
X047059Y009950D01*
X047084Y009994D01*
X047112Y010035D01*
X047144Y010074D01*
X047178Y010111D01*
X047215Y010145D01*
X047255Y010175D01*
X047297Y010202D01*
X047341Y010226D01*
X047387Y010247D01*
X047434Y010263D01*
X047482Y010276D01*
X047532Y010285D01*
X047581Y010290D01*
X047632Y010291D01*
X047682Y010288D01*
X047731Y010281D01*
X047780Y010270D01*
X047828Y010255D01*
X047874Y010237D01*
X047919Y010215D01*
X047962Y010189D01*
X048003Y010160D01*
X048042Y010128D01*
X048078Y010093D01*
X048110Y010055D01*
X048140Y010015D01*
X048167Y009972D01*
X048190Y009928D01*
X048209Y009882D01*
X048225Y009834D01*
X048237Y009785D01*
X048245Y009736D01*
X048249Y009686D01*
X048249Y009636D01*
X048245Y009586D01*
X048237Y009537D01*
X048225Y009488D01*
X048209Y009440D01*
X048190Y009394D01*
X048167Y009350D01*
X048140Y009307D01*
X048110Y009267D01*
X048078Y009229D01*
X048042Y009194D01*
X048003Y009162D01*
X047962Y009133D01*
X047919Y009107D01*
X047874Y009085D01*
X047828Y009067D01*
X047780Y009052D01*
X047731Y009041D01*
X047682Y009034D01*
X047632Y009031D01*
X047581Y009032D01*
X047532Y009037D01*
X047482Y009046D01*
X047434Y009059D01*
X047387Y009075D01*
X047341Y009096D01*
X047297Y009120D01*
X047255Y009147D01*
X047215Y009177D01*
X047178Y009211D01*
X047144Y009248D01*
X047112Y009287D01*
X047084Y009328D01*
X047059Y009372D01*
X047038Y009417D01*
X047021Y009464D01*
X047007Y009512D01*
X046997Y009561D01*
X046991Y009611D01*
X046989Y009661D01*
X070217Y009661D02*
X070219Y009711D01*
X070225Y009761D01*
X070235Y009810D01*
X070249Y009858D01*
X070266Y009905D01*
X070287Y009950D01*
X070312Y009994D01*
X070340Y010035D01*
X070372Y010074D01*
X070406Y010111D01*
X070443Y010145D01*
X070483Y010175D01*
X070525Y010202D01*
X070569Y010226D01*
X070615Y010247D01*
X070662Y010263D01*
X070710Y010276D01*
X070760Y010285D01*
X070809Y010290D01*
X070860Y010291D01*
X070910Y010288D01*
X070959Y010281D01*
X071008Y010270D01*
X071056Y010255D01*
X071102Y010237D01*
X071147Y010215D01*
X071190Y010189D01*
X071231Y010160D01*
X071270Y010128D01*
X071306Y010093D01*
X071338Y010055D01*
X071368Y010015D01*
X071395Y009972D01*
X071418Y009928D01*
X071437Y009882D01*
X071453Y009834D01*
X071465Y009785D01*
X071473Y009736D01*
X071477Y009686D01*
X071477Y009636D01*
X071473Y009586D01*
X071465Y009537D01*
X071453Y009488D01*
X071437Y009440D01*
X071418Y009394D01*
X071395Y009350D01*
X071368Y009307D01*
X071338Y009267D01*
X071306Y009229D01*
X071270Y009194D01*
X071231Y009162D01*
X071190Y009133D01*
X071147Y009107D01*
X071102Y009085D01*
X071056Y009067D01*
X071008Y009052D01*
X070959Y009041D01*
X070910Y009034D01*
X070860Y009031D01*
X070809Y009032D01*
X070760Y009037D01*
X070710Y009046D01*
X070662Y009059D01*
X070615Y009075D01*
X070569Y009096D01*
X070525Y009120D01*
X070483Y009147D01*
X070443Y009177D01*
X070406Y009211D01*
X070372Y009248D01*
X070340Y009287D01*
X070312Y009328D01*
X070287Y009372D01*
X070266Y009417D01*
X070249Y009464D01*
X070235Y009512D01*
X070225Y009561D01*
X070219Y009611D01*
X070217Y009661D01*
X077419Y039936D02*
X077421Y039986D01*
X077427Y040036D01*
X077437Y040085D01*
X077450Y040134D01*
X077468Y040181D01*
X077489Y040227D01*
X077513Y040270D01*
X077541Y040312D01*
X077572Y040352D01*
X077606Y040389D01*
X077643Y040423D01*
X077683Y040454D01*
X077725Y040482D01*
X077768Y040506D01*
X077814Y040527D01*
X077861Y040545D01*
X077910Y040558D01*
X077959Y040568D01*
X078009Y040574D01*
X078059Y040576D01*
X078109Y040574D01*
X078159Y040568D01*
X078208Y040558D01*
X078257Y040545D01*
X078304Y040527D01*
X078350Y040506D01*
X078393Y040482D01*
X078435Y040454D01*
X078475Y040423D01*
X078512Y040389D01*
X078546Y040352D01*
X078577Y040312D01*
X078605Y040270D01*
X078629Y040227D01*
X078650Y040181D01*
X078668Y040134D01*
X078681Y040085D01*
X078691Y040036D01*
X078697Y039986D01*
X078699Y039936D01*
X078697Y039886D01*
X078691Y039836D01*
X078681Y039787D01*
X078668Y039738D01*
X078650Y039691D01*
X078629Y039645D01*
X078605Y039602D01*
X078577Y039560D01*
X078546Y039520D01*
X078512Y039483D01*
X078475Y039449D01*
X078435Y039418D01*
X078393Y039390D01*
X078350Y039366D01*
X078304Y039345D01*
X078257Y039327D01*
X078208Y039314D01*
X078159Y039304D01*
X078109Y039298D01*
X078059Y039296D01*
X078009Y039298D01*
X077959Y039304D01*
X077910Y039314D01*
X077861Y039327D01*
X077814Y039345D01*
X077768Y039366D01*
X077725Y039390D01*
X077683Y039418D01*
X077643Y039449D01*
X077606Y039483D01*
X077572Y039520D01*
X077541Y039560D01*
X077513Y039602D01*
X077489Y039645D01*
X077468Y039691D01*
X077450Y039738D01*
X077437Y039787D01*
X077427Y039836D01*
X077421Y039886D01*
X077419Y039936D01*
X070217Y043125D02*
X070219Y043175D01*
X070225Y043225D01*
X070235Y043274D01*
X070249Y043322D01*
X070266Y043369D01*
X070287Y043414D01*
X070312Y043458D01*
X070340Y043499D01*
X070372Y043538D01*
X070406Y043575D01*
X070443Y043609D01*
X070483Y043639D01*
X070525Y043666D01*
X070569Y043690D01*
X070615Y043711D01*
X070662Y043727D01*
X070710Y043740D01*
X070760Y043749D01*
X070809Y043754D01*
X070860Y043755D01*
X070910Y043752D01*
X070959Y043745D01*
X071008Y043734D01*
X071056Y043719D01*
X071102Y043701D01*
X071147Y043679D01*
X071190Y043653D01*
X071231Y043624D01*
X071270Y043592D01*
X071306Y043557D01*
X071338Y043519D01*
X071368Y043479D01*
X071395Y043436D01*
X071418Y043392D01*
X071437Y043346D01*
X071453Y043298D01*
X071465Y043249D01*
X071473Y043200D01*
X071477Y043150D01*
X071477Y043100D01*
X071473Y043050D01*
X071465Y043001D01*
X071453Y042952D01*
X071437Y042904D01*
X071418Y042858D01*
X071395Y042814D01*
X071368Y042771D01*
X071338Y042731D01*
X071306Y042693D01*
X071270Y042658D01*
X071231Y042626D01*
X071190Y042597D01*
X071147Y042571D01*
X071102Y042549D01*
X071056Y042531D01*
X071008Y042516D01*
X070959Y042505D01*
X070910Y042498D01*
X070860Y042495D01*
X070809Y042496D01*
X070760Y042501D01*
X070710Y042510D01*
X070662Y042523D01*
X070615Y042539D01*
X070569Y042560D01*
X070525Y042584D01*
X070483Y042611D01*
X070443Y042641D01*
X070406Y042675D01*
X070372Y042712D01*
X070340Y042751D01*
X070312Y042792D01*
X070287Y042836D01*
X070266Y042881D01*
X070249Y042928D01*
X070235Y042976D01*
X070225Y043025D01*
X070219Y043075D01*
X070217Y043125D01*
X077419Y044436D02*
X077421Y044486D01*
X077427Y044536D01*
X077437Y044585D01*
X077450Y044634D01*
X077468Y044681D01*
X077489Y044727D01*
X077513Y044770D01*
X077541Y044812D01*
X077572Y044852D01*
X077606Y044889D01*
X077643Y044923D01*
X077683Y044954D01*
X077725Y044982D01*
X077768Y045006D01*
X077814Y045027D01*
X077861Y045045D01*
X077910Y045058D01*
X077959Y045068D01*
X078009Y045074D01*
X078059Y045076D01*
X078109Y045074D01*
X078159Y045068D01*
X078208Y045058D01*
X078257Y045045D01*
X078304Y045027D01*
X078350Y045006D01*
X078393Y044982D01*
X078435Y044954D01*
X078475Y044923D01*
X078512Y044889D01*
X078546Y044852D01*
X078577Y044812D01*
X078605Y044770D01*
X078629Y044727D01*
X078650Y044681D01*
X078668Y044634D01*
X078681Y044585D01*
X078691Y044536D01*
X078697Y044486D01*
X078699Y044436D01*
X078697Y044386D01*
X078691Y044336D01*
X078681Y044287D01*
X078668Y044238D01*
X078650Y044191D01*
X078629Y044145D01*
X078605Y044102D01*
X078577Y044060D01*
X078546Y044020D01*
X078512Y043983D01*
X078475Y043949D01*
X078435Y043918D01*
X078393Y043890D01*
X078350Y043866D01*
X078304Y043845D01*
X078257Y043827D01*
X078208Y043814D01*
X078159Y043804D01*
X078109Y043798D01*
X078059Y043796D01*
X078009Y043798D01*
X077959Y043804D01*
X077910Y043814D01*
X077861Y043827D01*
X077814Y043845D01*
X077768Y043866D01*
X077725Y043890D01*
X077683Y043918D01*
X077643Y043949D01*
X077606Y043983D01*
X077572Y044020D01*
X077541Y044060D01*
X077513Y044102D01*
X077489Y044145D01*
X077468Y044191D01*
X077450Y044238D01*
X077437Y044287D01*
X077427Y044336D01*
X077421Y044386D01*
X077419Y044436D01*
X046989Y043125D02*
X046991Y043175D01*
X046997Y043225D01*
X047007Y043274D01*
X047021Y043322D01*
X047038Y043369D01*
X047059Y043414D01*
X047084Y043458D01*
X047112Y043499D01*
X047144Y043538D01*
X047178Y043575D01*
X047215Y043609D01*
X047255Y043639D01*
X047297Y043666D01*
X047341Y043690D01*
X047387Y043711D01*
X047434Y043727D01*
X047482Y043740D01*
X047532Y043749D01*
X047581Y043754D01*
X047632Y043755D01*
X047682Y043752D01*
X047731Y043745D01*
X047780Y043734D01*
X047828Y043719D01*
X047874Y043701D01*
X047919Y043679D01*
X047962Y043653D01*
X048003Y043624D01*
X048042Y043592D01*
X048078Y043557D01*
X048110Y043519D01*
X048140Y043479D01*
X048167Y043436D01*
X048190Y043392D01*
X048209Y043346D01*
X048225Y043298D01*
X048237Y043249D01*
X048245Y043200D01*
X048249Y043150D01*
X048249Y043100D01*
X048245Y043050D01*
X048237Y043001D01*
X048225Y042952D01*
X048209Y042904D01*
X048190Y042858D01*
X048167Y042814D01*
X048140Y042771D01*
X048110Y042731D01*
X048078Y042693D01*
X048042Y042658D01*
X048003Y042626D01*
X047962Y042597D01*
X047919Y042571D01*
X047874Y042549D01*
X047828Y042531D01*
X047780Y042516D01*
X047731Y042505D01*
X047682Y042498D01*
X047632Y042495D01*
X047581Y042496D01*
X047532Y042501D01*
X047482Y042510D01*
X047434Y042523D01*
X047387Y042539D01*
X047341Y042560D01*
X047297Y042584D01*
X047255Y042611D01*
X047215Y042641D01*
X047178Y042675D01*
X047144Y042712D01*
X047112Y042751D01*
X047084Y042792D01*
X047059Y042836D01*
X047038Y042881D01*
X047021Y042928D01*
X047007Y042976D01*
X046997Y043025D01*
X046991Y043075D01*
X046989Y043125D01*
D12*
X081280Y046011D02*
X081280Y038361D01*
M02*
