%
M48
M72
T01C0.0197
T02C0.0236
T03C0.0276
T04C0.0315
T05C0.0320
T06C0.0354
T07C0.0360
T08C0.0394
T09C0.0400
T10C0.0433
T11C0.0512
T12C0.0531
T13C0.0590
T14C0.0709
T15C0.1260
T16C0.1280
T17C0.2165
%
T01
X87133Y29653
X87684Y29653
T02
X85308Y30078
X85283Y28853
X85533Y28228
X84758Y27753
X85508Y27153
X86558Y27303
X87433Y27303
X85383Y25578
X85408Y23703
X85408Y22778
X85408Y21803
X85408Y19828
X85383Y17603
X85408Y16003
X83433Y15253
X82358Y15253
X85408Y14203
X85408Y11803
X78058Y12428
X74308Y13403
X74058Y14128
X73683Y14528
X72533Y16478
X71658Y16478
X70658Y16053
X67958Y16028
X67408Y16153
X66608Y16528
X67908Y15453
X67608Y15003
X64533Y14003
X63908Y14728
X63708Y16553
X59758Y14503
X62383Y12953
X61758Y12428
X62858Y12153
X61433Y11103
X61758Y10578
X59333Y10953
X60608Y12203
X65008Y9728
X65758Y10078
X66258Y10678
X66233Y11278
X66408Y11853
X67608Y11178
X67958Y11603
X69183Y11478
X70008Y11603
X71033Y11285
X72033Y11585
X73658Y11978
X76683Y9928
X71108Y7603
X69033Y10178
X67033Y10628
X58158Y8528
X53233Y8353
X47458Y11678
X47458Y13603
X50908Y18003
X52258Y20553
X53908Y20428
X54758Y21778
X57758Y21253
X58658Y20678
X58508Y19578
X57458Y19903
X58508Y18503
X59708Y18828
X61333Y18603
X62158Y18778
X63208Y19203
X60858Y20178
X61658Y20978
X60158Y22128
X60158Y22653
X58383Y23828
X57383Y25053
X55133Y23778
X53908Y25653
X51183Y25528
X50708Y23778
X46608Y23178
X46183Y23478
X46183Y22803
X44833Y21978
X45808Y21778
X46608Y20753
X46458Y19903
X44858Y18728
X42533Y19928
X41158Y19153
X40358Y20153
X43183Y21153
X50133Y21403
X46083Y25728
X50633Y28253
X49208Y29328
X49708Y29778
X49183Y30178
X48758Y30653
X49233Y31553
X49698Y31053
X50283Y31753
X53908Y30503
X57408Y31303
X60433Y31128
X61433Y30053
X61858Y29353
X61808Y28503
X61908Y27778
X62783Y27353
X63958Y28228
X64508Y27953
X64758Y28478
X65158Y28828
X65533Y28453
X65933Y29128
X65533Y29553
X66258Y29853
X64908Y30678
X64633Y31378
X63283Y31128
X61858Y32578
X61458Y33053
X61083Y32653
X60683Y33053
X60558Y34003
X62808Y33553
X63008Y33028
X63658Y33803
X64533Y34453
X65283Y34453
X66008Y33803
X66558Y33278
X67358Y32928
X67458Y33703
X68358Y33978
X68458Y33403
X68983Y33978
X69008Y34928
X69633Y34928
X68258Y34928
X67358Y34978
X66808Y34928
X66933Y35803
X67833Y37353
X68483Y37228
X69533Y37603
X70108Y37903
X69983Y39028
X70983Y39028
X72083Y39528
X73233Y38628
X72633Y37903
X72608Y36903
X71808Y36828
X71008Y36653
X72858Y35428
X74058Y36703
X75008Y36653
X74633Y35353
X75383Y35303
X73233Y33603
X72383Y32878
X71658Y32503
X70908Y32278
X70183Y32203
X71508Y30903
X70633Y30078
X71133Y29803
X70008Y30078
X68908Y30453
X68608Y28903
X69958Y29003
X71758Y28728
X71908Y27903
X71508Y27178
X72283Y26503
X74333Y26903
X74408Y27628
X72783Y28528
X73858Y29003
X74408Y30753
X73758Y31303
X73158Y30928
X73658Y32203
X70308Y33753
X68208Y32103
X65908Y32103
X63733Y34828
X65408Y37778
X65958Y37628
X66508Y37453
X67083Y37453
X67858Y38728
X68483Y39028
X66858Y40353
X65333Y40353
X63733Y38703
X63233Y38228
X62733Y38628
X60883Y38928
X59883Y38953
X59958Y37528
X58383Y38903
X57143Y38903
X55383Y38528
X54008Y36703
X51083Y38428
X49608Y37753
X50208Y35653
X49658Y35278
X48158Y35053
X57408Y35103
X64408Y38453
X57958Y40353
X55388Y40458
X53208Y44378
X43508Y45228
X42658Y43878
X33533Y44378
X32008Y40653
X31358Y40178
X31058Y39003
X31958Y39053
X29158Y40478
X33158Y33428
X32808Y32953
X31058Y32353
X30283Y29353
X29708Y29028
X31058Y21878
X32133Y22053
X32283Y19003
X33833Y19378
X31316Y18112
X30166Y18112
X29358Y19078
X26883Y18553
X22408Y18603
X58058Y22003
X63058Y22253
X64108Y22353
X64108Y21453
X66533Y22628
X68258Y20803
X68783Y20778
X69183Y20453
X68408Y20278
X66833Y20278
X66433Y18753
X67083Y18503
X67758Y18178
X68783Y18153
X69283Y17953
X70408Y18128
X71583Y18953
X71033Y19453
X70183Y19403
X70158Y19928
X72208Y18503
X73533Y18053
X73733Y18603
X76733Y19253
X77308Y19928
X76708Y20603
X73133Y21053
X71883Y21753
X70233Y21953
X69908Y21478
X70283Y22578
X70558Y23703
X71433Y24128
X71983Y24303
X72358Y24703
X73033Y24853
X73658Y25103
X74583Y25378
X76333Y24428
X77958Y22928
X70158Y25378
X70133Y25903
X69383Y25378
X69408Y26553
X69958Y27128
X69533Y27428
X69358Y27953
X66683Y28078
X66883Y25653
X64108Y25903
X63233Y25453
X60983Y26353
X59558Y27278
X59758Y28153
X78183Y29203
X80858Y30453
X81633Y30228
X80983Y31203
X80233Y31253
X79683Y31528
X81883Y31428
X82008Y32803
X82683Y32878
X81483Y33253
X81508Y34603
X79283Y37378
X78358Y37703
X80383Y38728
X80958Y38703
X81908Y38678
X82533Y39603
X83308Y38778
X81308Y37978
X81658Y40353
X81708Y41978
X79583Y41728
X75508Y39553
X74358Y40353
X74233Y42403
X76858Y44503
X77708Y45403
X79308Y45928
X64233Y42403
X86908Y34603
X83533Y28278
X81108Y28678
T03
X84358Y26678
X76658Y28978
X76083Y29478
X76083Y27378
X76083Y26128
X71533Y29378
X69883Y31278
X66958Y31228
X76083Y34353
X76658Y34778
X77608Y34053
X76658Y31753
X75583Y40303
X50683Y24453
X54333Y18078
X54333Y11278
X74283Y21778
X74833Y22228
X82258Y11903
X83683Y10228
X83683Y9653
X83683Y9078
X83683Y8503
X83683Y7928
X80383Y7928
X80383Y8503
X80383Y9078
X80383Y9653
X80383Y10228
X76033Y11428
T04
X75658Y9060
X75658Y8060
X74658Y8060
X73658Y8060
X72658Y8060
X71658Y8060
X70658Y8060
X69658Y8060
X68658Y8060
X67658Y8060
X66658Y8060
X65658Y8060
X64658Y8060
X63658Y8060
X62658Y8060
X61658Y8060
X60658Y8060
X59658Y8060
X58658Y8060
X57658Y8060
X57658Y9060
X58658Y9060
X59658Y9060
X60658Y9060
X61658Y9060
X62658Y9060
X63658Y9060
X64658Y9060
X65658Y9060
X66658Y9060
X67658Y9060
X68658Y9060
X69658Y9060
X70658Y9060
X71658Y9060
X72658Y9060
X73658Y9060
X74658Y9060
X76658Y9060
X76658Y8060
X77283Y39353
X77533Y39353
X79033Y39353
X79283Y39353
X43138Y40530
X43138Y41530
X43138Y42530
X20638Y42530
X20638Y41530
X20638Y40530
T05
X27638Y41530
X28638Y41530
X35138Y41530
X36138Y41530
X51634Y37987
X52634Y37987
X52634Y34050
X51634Y34050
X37983Y31878
X37983Y30878
X20183Y23953
X19183Y23953
X20138Y20664
X21138Y20664
X27638Y20664
X28638Y20664
X35138Y20664
X36138Y20664
X42638Y20664
X43638Y20664
X51634Y17121
X52634Y17121
X52634Y13184
X51634Y13184
X52134Y44967
X52134Y45967
T06
X55508Y36278
X56508Y36278
X56508Y35278
X55508Y35278
X55508Y34278
X56508Y34278
X56508Y33278
X56508Y32278
X55508Y32278
X55508Y33278
X55508Y31278
X56508Y31278
X56508Y30278
X55508Y30278
X55508Y29278
X55508Y28278
X56508Y28278
X56508Y29278
X56508Y27278
X55508Y27278
X55508Y26278
X56508Y26278
X56508Y25278
X56508Y24278
X55508Y24278
X55508Y25278
X55508Y23278
X56508Y23278
X56508Y22278
X55508Y22278
X55508Y21278
X55508Y20278
X56508Y20278
X56508Y21278
X56508Y19278
X55508Y19278
X57508Y17278
X58508Y17278
X59508Y17278
X60508Y17278
X61508Y17278
X62508Y17278
X63508Y17278
X64508Y17278
X66508Y17278
X67508Y17278
X68508Y17278
X69508Y17278
X70508Y17278
X71508Y17278
X72508Y17278
X73508Y17278
X75508Y17278
X76508Y17278
X77508Y17278
X78508Y17278
X79508Y17278
X80508Y17278
X68508Y26278
X68508Y27278
X67508Y27278
X67508Y28278
X68508Y28278
X68508Y36278
X69508Y36278
X70508Y36278
X71508Y36278
X72508Y36278
X73508Y36278
X74508Y36278
X75508Y36278
X77108Y36278
X78108Y36278
X79108Y36278
X80108Y36278
X81108Y36278
X82108Y36278
X83108Y36278
X84108Y36278
X66508Y36278
X65508Y36278
X64508Y36278
X63508Y36278
X62508Y36278
X61508Y36278
X60508Y36278
X59508Y36278
T07
X87108Y23303
X87108Y22303
X77008Y15103
X76008Y15103
X75008Y15103
X60508Y15553
X59508Y15553
T08
X59058Y13253
X58058Y13253
X51483Y10703
X51483Y9703
X51483Y8703
X45941Y9640
X44941Y9640
X44941Y30506
X45941Y30506
X51483Y39828
X51483Y40828
X51483Y41828
X59258Y44403
X60258Y44403
X61258Y44403
X62258Y44403
X63258Y44403
X63258Y45403
X62258Y45403
X61258Y45403
X60258Y45403
X59258Y45403
X69258Y45403
X69258Y44403
X70258Y44403
X71258Y44403
X72258Y44403
X73258Y44403
X73258Y45403
X72258Y45403
X71258Y45403
X70258Y45403
X82433Y43903
X83433Y43403
X82433Y42903
X83433Y42403
X82433Y41903
X82433Y40903
X83433Y40403
X83433Y41403
X87264Y40663
X87933Y39663
X87933Y43644
X87264Y44644
X87482Y15353
X87482Y14353
X87482Y13353
X87482Y12353
X87483Y10478
X87483Y9478
T09
X67508Y26278
X40609Y40400
X38108Y40407
X39008Y43407
X41509Y43400
X26183Y44653
X23883Y44653
X22983Y41653
X25283Y41653
X22932Y11028
X25932Y10128
X22932Y8378
X25932Y7478
X37657Y8028
X40657Y7128
X40632Y10028
X37632Y10928
T10
X19633Y10726
X19633Y6789
X85283Y24503
X20418Y44103
X16481Y44103
T11
X23270Y30414
X26246Y30414
X26246Y28430
X23270Y28430
X23270Y26445
X26246Y26445
X31223Y25290
X33207Y25290
X35191Y25290
X35191Y28267
X33207Y28267
X31223Y28267
X41144Y28267
X41144Y25290
X26246Y20493
X23270Y20493
X78283Y18623
X78283Y26493
T12
X16383Y27698
X16383Y29666
X16383Y31635
X16383Y33603
X16383Y24003
X16383Y22035
X16383Y20066
X16383Y18098
T13
X28232Y10578
X28232Y7878
X34232Y7878
X34232Y10578
X15708Y35954
X15708Y41954
X29257Y45303
X35257Y45303
T14
X84732Y45205
X84732Y39102
T15
X78721Y43100
X55493Y43100
X11977Y45467
X55493Y9635
X78721Y9635
X87567Y7278
T16
X85933Y39903
X85933Y44403
T17
X14339Y9640
X20638Y15152
X28138Y15152
X35658Y15152
X43138Y15152
X43138Y36018
X35638Y36018
X28138Y36018
X20638Y36018
M30
