%
M48
M72
T01C0.0197
T02C0.0236
T03C0.0315
T04C0.0320
T05C0.0354
T06C0.0360
T07C0.0394
T08C0.0400
T09C0.0433
T10C0.0512
T11C0.0710
T12C0.1260
T13C0.2165
%
T01
X70708Y24560
X71259Y24560
T02
X72783Y24360
X71833Y23260
X72208Y22885
X71833Y22510
X72783Y22110
X73558Y22360
X74283Y22710
X75308Y23235
X76233Y23060
X76608Y23410
X77133Y23935
X76608Y24160
X77908Y23735
X78683Y22785
X77258Y22435
X75433Y21610
X74758Y20910
X74158Y20460
X73408Y20585
X73433Y20010
X72158Y18935
X70658Y18110
X69133Y17735
X68158Y17360
X68058Y18110
X66108Y18260
X65833Y18835
X64808Y18935
X64058Y18610
X62733Y18585
X61283Y18035
X58433Y18760
X58258Y18035
X58658Y19610
X59183Y19460
X59908Y19735
X60433Y19910
X61533Y20135
X62733Y20460
X64358Y20585
X67283Y20735
X66633Y21560
X65183Y22460
X63758Y23010
X62433Y22760
X62033Y23110
X62033Y23635
X61283Y23560
X59583Y23810
X59283Y24260
X58408Y24410
X58558Y24960
X57008Y25385
X56058Y24910
X57008Y24410
X56058Y23785
X56983Y23385
X56058Y22910
X54333Y22385
X53883Y21460
X54483Y20960
X55508Y19985
X53208Y19285
X55033Y18760
X55508Y17785
X54283Y17410
X52633Y16785
X53208Y15660
X53208Y14810
X52258Y14635
X52008Y13835
X50833Y13435
X50833Y12610
X50833Y11860
X52958Y11560
X50833Y11060
X52983Y10385
X54483Y10560
X54958Y10910
X55258Y11360
X55958Y10210
X55958Y9210
X57208Y9610
X58608Y8610
X59608Y9185
X61333Y8610
X61258Y7560
X60933Y7160
X60658Y6635
X60683Y6110
X58008Y5860
X54883Y5985
X54208Y5985
X52208Y6685
X53808Y7235
X54583Y7585
X56208Y7735
X54483Y9185
X60808Y10335
X61708Y9935
X61708Y10960
X61708Y11485
X63408Y11685
X60533Y12435
X59908Y11485
X56958Y11760
X55958Y12310
X54483Y13160
X53783Y13860
X55958Y14810
X57433Y13985
X58908Y14810
X58908Y15635
X59558Y15635
X61058Y15610
X63658Y16185
X61058Y16885
X63658Y14810
X66633Y14810
X66508Y12885
X70208Y13085
X73483Y11910
X73483Y11510
X73483Y11110
X73483Y10710
X73483Y10310
X73483Y9910
X76108Y9910
X76108Y10310
X76108Y10710
X76108Y11110
X76108Y11510
X76108Y11910
X74208Y13060
X75883Y14785
X77683Y15410
X80433Y16335
X82308Y15585
X83333Y15860
X83708Y17210
X82133Y17810
X81733Y18485
X80808Y18735
X78908Y18035
X77258Y17785
X77258Y19685
X77258Y21385
X80433Y22435
X82083Y21985
X80783Y21610
X81858Y20460
X82708Y19610
X83233Y19460
X87458Y18485
X87058Y16410
X87108Y15410
X87558Y14485
X89783Y14485
X87482Y13033
X89783Y11485
X83633Y11385
X81758Y11160
X81833Y10085
X82808Y10085
X82333Y9010
X80358Y9535
X78733Y10010
X77833Y10660
X81833Y12410
X81158Y12810
X83008Y13685
X81833Y14735
X73008Y15835
X71083Y16785
X72133Y17260
X72483Y17960
X71583Y20435
X70308Y20735
X73158Y21310
X66633Y24210
X65408Y24760
X64833Y24885
X64458Y24535
X63158Y23885
X62033Y24660
X61158Y24660
X58858Y23210
X58283Y22735
X58858Y22010
X58333Y21535
X57008Y21410
X58858Y20410
X60908Y20610
X60283Y21785
X62033Y21560
X62733Y21860
X67283Y25110
X62258Y26985
X62783Y27210
X61158Y27010
X59058Y27010
X56058Y26385
X54633Y28010
X56083Y28410
X54633Y28760
X53758Y29360
X54358Y29760
X52658Y29560
X51808Y29360
X50308Y28410
X49483Y28085
X48233Y28510
X46208Y28410
X45708Y28085
X44158Y27735
X44008Y28260
X43608Y27910
X45283Y26960
X45833Y27485
X44733Y26435
X45133Y25210
X45133Y23710
X46783Y23810
X48733Y24610
X49333Y25535
X48733Y25810
X47433Y26435
X48233Y26960
X47383Y27860
X50858Y27485
X51433Y27460
X52008Y28010
X52333Y26960
X52908Y26435
X50833Y25110
X54108Y24560
X48108Y22160
X47758Y21785
X48733Y21085
X50783Y20985
X49858Y20435
X50683Y19785
X51583Y19785
X52333Y20935
X49608Y19285
X48233Y18835
X49383Y17710
X49058Y17285
X48333Y16835
X48983Y16160
X50033Y15660
X51608Y15660
X49933Y14335
X48033Y15010
X45308Y15435
X44158Y15835
X42908Y14885
X43383Y13935
X44733Y12410
X46033Y10860
X47083Y9210
X44183Y8535
X47083Y6060
X47783Y5810
X49358Y6060
X63408Y6760
X65958Y5660
X66508Y5760
X67458Y7910
X67108Y9010
X67783Y10060
X67783Y10960
X76808Y5810
X81708Y6385
X86858Y8585
X88758Y5660
X47133Y20910
X46533Y20960
X42558Y20935
X39808Y20985
X39583Y22735
X42058Y23635
X41658Y23960
X40908Y23885
X39208Y23885
X40258Y24910
X41408Y25360
X40258Y25835
X37283Y26435
X34808Y26660
X34383Y27135
X32008Y27785
X31433Y28410
X32433Y28685
X34483Y29210
X35008Y29210
X35458Y29885
X34683Y30535
X34158Y30535
X33408Y30610
X33058Y30985
X32108Y30985
X32558Y31760
X33508Y32760
X34033Y32760
X37958Y30985
X38633Y31535
X37283Y30235
X41533Y29310
X43083Y31060
X45658Y31360
X47283Y31510
X49108Y31785
X51133Y32785
X52733Y33160
X52208Y33360
X54233Y31160
X54633Y30785
X55083Y31385
X55933Y30910
X55383Y30410
X53633Y30410
X52733Y30510
X49183Y30585
X48358Y30060
X56258Y29385
X58308Y30010
X59058Y30710
X57008Y31385
X59058Y32185
X59608Y32185
X61183Y32410
X61158Y30710
X64133Y30710
X65658Y31335
X67808Y31560
X70158Y31335
X70158Y30335
X71608Y30085
X73633Y30335
X75108Y30535
X76083Y30585
X78233Y31135
X78708Y30810
X80183Y31360
X79258Y31585
X81233Y31585
X83233Y31210
X81883Y30635
X81858Y29410
X80833Y28910
X81158Y27810
X82708Y27185
X83058Y27585
X83433Y28035
X83808Y27485
X82683Y26660
X81408Y26410
X80433Y25810
X78908Y26235
X78483Y25935
X77408Y25885
X76833Y26535
X76383Y26910
X76908Y27435
X74783Y28385
X73533Y28110
X71833Y28635
X70158Y28385
X68558Y28110
X66858Y28385
X64133Y28385
X62633Y28660
X59058Y28385
X68033Y29860
X68558Y29860
X72383Y31335
X76658Y31735
X79658Y29935
X84408Y28685
X85883Y27235
X84858Y26510
X84333Y26285
X89933Y27110
X87908Y22385
X88883Y21935
X75958Y26260
X86933Y31660
X88258Y32185
X89533Y33110
X80883Y33385
X43208Y17360
X38833Y15385
X38833Y13510
X37783Y11535
X34133Y12885
X31808Y11785
X29383Y11060
X29683Y13160
X29633Y13985
X35390Y8541
X29258Y6010
X20546Y8485
X10308Y15760
X11308Y16860
X11308Y17410
X10933Y18060
X11958Y18710
X13283Y19460
X17283Y18860
X19433Y20085
X17633Y21785
X15733Y22210
X13658Y22185
X13633Y24660
X14158Y25260
X14908Y25335
X11958Y25785
X12758Y26885
X12408Y27260
X12033Y27610
X11658Y27960
X11308Y28335
X10133Y27410
X10108Y26885
X13258Y29335
X14908Y30360
X15908Y30985
X14958Y31460
X14058Y31485
X13758Y32235
X16433Y32710
X18383Y32260
X18858Y32710
X20633Y31485
X19483Y30935
X21808Y30685
X23333Y30635
X24958Y30985
X23933Y31785
X21958Y32185
X26658Y29835
X26008Y29560
X28433Y29310
X30333Y29735
X28983Y30035
X29583Y30935
X26908Y28135
X25583Y27210
X25933Y26735
X27508Y25835
X29633Y26285
X31433Y26460
X23408Y26160
X20558Y27010
X19683Y27285
X21408Y27935
X22333Y27210
X19533Y29610
X11583Y30785
X17858Y25335
X23908Y20535
X14408Y16535
X14783Y16135
X15333Y15935
X13758Y17010
T03
X76633Y30035
X76883Y30035
X78383Y30035
X78633Y30035
X85386Y28884
X86386Y28884
X86386Y27884
X85386Y27884
X85386Y26884
X86386Y26884
X86386Y25884
X85386Y25884
X85386Y24884
X86386Y24884
X86386Y23884
X85386Y23884
X85386Y22884
X86386Y22884
X86386Y21884
X85386Y21884
X85386Y20884
X86386Y20884
X86386Y19884
X85386Y19884
X85386Y18884
X86386Y18884
X86386Y17884
X85386Y17884
X85386Y16884
X86386Y16884
X86386Y15884
X85386Y15884
X85386Y14884
X86386Y14884
X86386Y13884
X85386Y13884
X85386Y12884
X86386Y12884
X86386Y11884
X85386Y11884
X85386Y10884
X86386Y10884
X86386Y9884
X85386Y9884
T04
X42108Y13535
X42108Y14535
X16658Y22660
X16658Y23660
T05
X16748Y20152
X15748Y20152
X14748Y20152
X13748Y20152
X13748Y18152
X14748Y18152
X15748Y18152
X16748Y18152
X17748Y18152
X18748Y18152
X18748Y20152
X17748Y20152
X40520Y20152
X41520Y20152
X42520Y20152
X43520Y20152
X44520Y20152
X45520Y20152
X46520Y20152
X47520Y20152
X47520Y18152
X46520Y18152
X45520Y18152
X44520Y18152
X43520Y18152
X42520Y18152
X41520Y18152
X40520Y18152
X56654Y17900
X57654Y17900
X57654Y16900
X56654Y16900
X56654Y15900
X57654Y15900
X58654Y13900
X59654Y13900
X60654Y13900
X61654Y13900
X62654Y13900
X63654Y13900
X64654Y13900
X65654Y13900
X67654Y13900
X68654Y13900
X69654Y13900
X70654Y13900
X71654Y13900
X72654Y13900
X73654Y13900
X74654Y13900
X76654Y13900
X77654Y13900
X78654Y13900
X79654Y13900
X80654Y13900
X81654Y13900
X69654Y22900
X69654Y23900
X68654Y23900
X68654Y24900
X69654Y24900
X57654Y24900
X56654Y24900
X56654Y23900
X57654Y23900
X57654Y22900
X56654Y22900
X56654Y21900
X57654Y21900
X57654Y20900
X56654Y20900
X56654Y19900
X57654Y19900
X57654Y18900
X56654Y18900
X56654Y25900
X57654Y25900
X57654Y26900
X56654Y26900
X56654Y27900
X57654Y27900
X57654Y28900
X56654Y28900
X56654Y29900
X57654Y29900
X57654Y30900
X56654Y30900
X56654Y31900
X57654Y31900
X57654Y32900
X56654Y32900
X60654Y32900
X61654Y32900
X62654Y32900
X63654Y32900
X64654Y32900
X65654Y32900
X66654Y32900
X67654Y32900
X69654Y32900
X70654Y32900
X71654Y32900
X72654Y32900
X73654Y32900
X74654Y32900
X75654Y32900
X76654Y32900
X78254Y32900
X79254Y32900
X80254Y32900
X81254Y32900
X82254Y32900
X83254Y32900
X84254Y32900
X85254Y32900
T06
X54958Y32785
X53958Y32785
T07
X37961Y24935
X36961Y24935
X36961Y23935
X37961Y23935
X37961Y22935
X36961Y22935
X36961Y21935
X37961Y21935
X37961Y20935
X36961Y20935
X36961Y19935
X37961Y19935
X37961Y18935
X36961Y18935
X36961Y17935
X37961Y17935
X37961Y16935
X36961Y16935
X36961Y15935
X37961Y15935
X37961Y14935
X36961Y14935
X36961Y13935
X37961Y13935
X37961Y12935
X36961Y12935
X48958Y13010
X48958Y14010
X48958Y12010
X48958Y11010
X48958Y10010
X48958Y9010
X48958Y8010
X48958Y7010
X64608Y8010
X65608Y8010
X65608Y9010
X64608Y9010
X64608Y10010
X65608Y10010
X65608Y11010
X64608Y11010
X64608Y12010
X65608Y12010
X76333Y7335
X77333Y7335
X78333Y7335
X79333Y7335
X80333Y7335
X80333Y6335
X79333Y6335
X78333Y6335
X77333Y6335
X76333Y6335
X72308Y6435
X71308Y6435
X70308Y6435
X69308Y6435
X68308Y6435
X67308Y6435
X22819Y13337
X21819Y13337
X21819Y14337
X22819Y14337
X22819Y15337
X21819Y15337
X21819Y16337
X22819Y16337
X22819Y17337
X21819Y17337
X21819Y18337
X22819Y18337
X22819Y19337
X21819Y19337
X21819Y20337
X22819Y20337
X22819Y21337
X21819Y21337
X21819Y22337
X22819Y22337
X22819Y23337
X21819Y23337
X21819Y24337
X22819Y24337
X22819Y25337
X21819Y25337
X88458Y26585
X89458Y26585
X89458Y27585
X88458Y27585
X88458Y28585
X89458Y28585
X89458Y29585
X88458Y29585
T08
X68654Y22900
T09
X37390Y8541
X22546Y8485
T10
X24310Y14146
X26294Y14146
X28279Y14146
X34231Y14146
X34231Y17123
X28279Y17123
X26294Y17123
X24310Y17123
X24535Y20071
X30488Y20071
X32472Y20071
X34456Y20071
X34456Y23048
X32472Y23048
X30488Y23048
X24535Y23048
X75053Y24085
X82923Y24085
T11
X88748Y10553
X88748Y8703
X88748Y6853
T12
X84811Y7719
X51347Y7719
X51347Y30947
X84811Y30947
T13
X12370Y8309
X18689Y8309
X26189Y8309
X33689Y8309
X41189Y8309
M30
