G75*
G70*
%OFA0B0*%
%FSLAX24Y24*%
%IPPOS*%
%LPD*%
%AMOC8*
5,1,8,0,0,1.08239X$1,22.5*
%
%ADD10C,0.4885*%
%ADD11C,0.0618*%
%ADD12R,0.0618X0.0618*%
%ADD13C,0.1460*%
%ADD14R,0.0567X0.0567*%
%ADD15C,0.0672*%
%ADD16C,0.0712*%
%ADD17C,0.0476*%
%ADD18OC8,0.0780*%
%ADD19C,0.0840*%
%ADD20OC8,0.0840*%
%ADD21C,0.0712*%
%ADD22C,0.0099*%
%ADD23OC8,0.0756*%
%ADD24C,0.0756*%
%ADD25C,0.1032*%
%ADD26OC8,0.1032*%
%ADD27OC8,0.0665*%
%ADD28OC8,0.0720*%
%ADD29C,0.0665*%
%ADD30R,0.0760X0.0543*%
%ADD31C,0.1200*%
%ADD32C,0.1381*%
%ADD33C,0.0921*%
%ADD34R,0.0712X0.0712*%
%ADD35C,0.1204*%
%ADD36OC8,0.0523*%
%ADD37C,0.2562*%
D10*
X015520Y011248D03*
X021819Y015185D03*
X029319Y015185D03*
X029319Y036051D03*
X021819Y036051D03*
D11*
X049784Y009086D03*
X050784Y009086D03*
X051784Y009086D03*
X052784Y009086D03*
X053784Y009086D03*
X054784Y009086D03*
X055784Y009086D03*
X056784Y009086D03*
X057784Y009086D03*
X058784Y009086D03*
X059784Y009086D03*
X060784Y009086D03*
X061784Y009086D03*
X062784Y009086D03*
X063784Y009086D03*
X064784Y009086D03*
X065784Y009086D03*
X066784Y009086D03*
X067784Y009086D03*
X068784Y009086D03*
X067784Y008086D03*
X066784Y008086D03*
X065784Y008086D03*
X064784Y008086D03*
X063784Y008086D03*
X062784Y008086D03*
X061784Y008086D03*
X060784Y008086D03*
X059784Y008086D03*
X058784Y008086D03*
X057784Y008086D03*
X056784Y008086D03*
X055784Y008086D03*
X054784Y008086D03*
X053784Y008086D03*
X052784Y008086D03*
X051784Y008086D03*
X050784Y008086D03*
X049784Y008086D03*
D12*
X068784Y008086D03*
D13*
X070847Y009661D03*
X047619Y009661D03*
X078059Y039936D03*
X070847Y043125D03*
X078059Y044436D03*
X047619Y043125D03*
D14*
X045048Y045086D03*
X045048Y045913D03*
X045048Y039220D03*
X045048Y038393D03*
X045048Y035283D03*
X045048Y034456D03*
X035303Y038393D03*
X035303Y039220D03*
X029319Y021110D03*
X029319Y020283D03*
X035303Y018354D03*
X035303Y017527D03*
X045048Y017527D03*
X045048Y018354D03*
X045048Y014417D03*
X045048Y013590D03*
X021819Y020283D03*
X021819Y021110D03*
D15*
X051634Y015866D02*
X051634Y015306D01*
X052634Y015306D02*
X052634Y015866D01*
X067134Y015416D02*
X067134Y014856D01*
X068134Y014856D02*
X068134Y015416D01*
X069134Y015416D02*
X069134Y014856D01*
X078954Y022336D02*
X079514Y022336D01*
X079514Y023336D02*
X078954Y023336D01*
D16*
X078734Y014061D03*
X079734Y014061D03*
X079734Y013061D03*
X078734Y013061D03*
X078734Y012061D03*
X079734Y012061D03*
X080059Y039696D03*
X079390Y040696D03*
X075559Y041436D03*
X074559Y041936D03*
X074559Y040936D03*
X075559Y042436D03*
X074559Y042936D03*
X075559Y043436D03*
X074559Y043936D03*
X079390Y044676D03*
X080059Y043676D03*
X065384Y044436D03*
X065384Y045436D03*
X064384Y045436D03*
X063384Y045436D03*
X062384Y045436D03*
X061384Y045436D03*
X061384Y044436D03*
X062384Y044436D03*
X063384Y044436D03*
X064384Y044436D03*
X055384Y044436D03*
X055384Y045436D03*
X054384Y045436D03*
X053384Y045436D03*
X052384Y045436D03*
X051384Y045436D03*
X051384Y044436D03*
X052384Y044436D03*
X053384Y044436D03*
X054384Y044436D03*
D17*
X079259Y029686D03*
X079810Y029686D03*
D18*
X077409Y024536D03*
D19*
X071409Y039386D03*
X071159Y039386D03*
D20*
X069659Y039386D03*
X069409Y039386D03*
D21*
X033931Y041036D02*
X033337Y041036D01*
X033337Y042036D02*
X033931Y042036D01*
X050184Y013583D02*
X050184Y012989D01*
X051184Y012989D02*
X051184Y013583D01*
X033931Y009711D02*
X033337Y009711D01*
X033337Y008711D02*
X033931Y008711D01*
D22*
X075151Y012325D02*
X075151Y013163D01*
X075151Y012325D02*
X074589Y012325D01*
X074589Y013163D01*
X075151Y013163D01*
X075151Y012423D02*
X074589Y012423D01*
X074589Y012521D02*
X075151Y012521D01*
X075151Y012619D02*
X074589Y012619D01*
X074589Y012717D02*
X075151Y012717D01*
X075151Y012815D02*
X074589Y012815D01*
X074589Y012913D02*
X075151Y012913D01*
X075151Y013011D02*
X074589Y013011D01*
X074589Y013109D02*
X075151Y013109D01*
X076037Y013163D02*
X076037Y012325D01*
X075475Y012325D01*
X075475Y013163D01*
X076037Y013163D01*
X076037Y012423D02*
X075475Y012423D01*
X075475Y012521D02*
X076037Y012521D01*
X076037Y012619D02*
X075475Y012619D01*
X075475Y012717D02*
X076037Y012717D01*
X076037Y012815D02*
X075475Y012815D01*
X075475Y012913D02*
X076037Y012913D01*
X076037Y013011D02*
X075475Y013011D01*
X075475Y013109D02*
X076037Y013109D01*
X076923Y013163D02*
X076923Y012325D01*
X076361Y012325D01*
X076361Y013163D01*
X076923Y013163D01*
X076923Y012423D02*
X076361Y012423D01*
X076361Y012521D02*
X076923Y012521D01*
X076923Y012619D02*
X076361Y012619D01*
X076361Y012717D02*
X076923Y012717D01*
X076923Y012815D02*
X076361Y012815D01*
X076361Y012913D02*
X076923Y012913D01*
X076923Y013011D02*
X076361Y013011D01*
X076361Y013109D02*
X076923Y013109D01*
X076923Y015632D02*
X076923Y016470D01*
X076923Y015632D02*
X076361Y015632D01*
X076361Y016470D01*
X076923Y016470D01*
X076923Y015730D02*
X076361Y015730D01*
X076361Y015828D02*
X076923Y015828D01*
X076923Y015926D02*
X076361Y015926D01*
X076361Y016024D02*
X076923Y016024D01*
X076923Y016122D02*
X076361Y016122D01*
X076361Y016220D02*
X076923Y016220D01*
X076923Y016318D02*
X076361Y016318D01*
X076361Y016416D02*
X076923Y016416D01*
X075151Y016470D02*
X075151Y015632D01*
X074589Y015632D01*
X074589Y016470D01*
X075151Y016470D01*
X075151Y015730D02*
X074589Y015730D01*
X074589Y015828D02*
X075151Y015828D01*
X075151Y015926D02*
X074589Y015926D01*
X074589Y016024D02*
X075151Y016024D01*
X075151Y016122D02*
X074589Y016122D01*
X074589Y016220D02*
X075151Y016220D01*
X075151Y016318D02*
X074589Y016318D01*
X074589Y016416D02*
X075151Y016416D01*
D23*
X026384Y032486D03*
X025359Y028436D03*
D24*
X025359Y027436D03*
X025384Y032486D03*
D25*
X070409Y018656D03*
D26*
X070409Y026526D03*
D27*
X060634Y026311D03*
X060634Y027311D03*
X059634Y027311D03*
X059634Y028311D03*
X060634Y028311D03*
X048634Y028311D03*
X048634Y029311D03*
X047634Y029311D03*
X047634Y028311D03*
X047634Y027311D03*
X048634Y027311D03*
X048634Y026311D03*
X047634Y026311D03*
X047634Y025311D03*
X048634Y025311D03*
X048634Y024311D03*
X047634Y024311D03*
X047634Y023311D03*
X048634Y023311D03*
X048634Y022311D03*
X047634Y022311D03*
X047634Y021311D03*
X048634Y021311D03*
X048634Y020311D03*
X047634Y020311D03*
X047634Y019311D03*
X048634Y019311D03*
X049634Y017311D03*
X050634Y017311D03*
X051634Y017311D03*
X052634Y017311D03*
X053634Y017311D03*
X054634Y017311D03*
X055634Y017311D03*
X056634Y017311D03*
X058634Y017311D03*
X059634Y017311D03*
X060634Y017311D03*
X061634Y017311D03*
X062634Y017311D03*
X063634Y017311D03*
X064634Y017311D03*
X065634Y017311D03*
X067634Y017311D03*
X068634Y017311D03*
X069634Y017311D03*
X070634Y017311D03*
X071634Y017311D03*
X072634Y017311D03*
X048634Y030311D03*
X047634Y030311D03*
X047634Y031311D03*
X048634Y031311D03*
X048634Y032311D03*
X048634Y033311D03*
X047634Y033311D03*
X047634Y032311D03*
X047634Y034311D03*
X048634Y034311D03*
X048634Y035311D03*
X047634Y035311D03*
X047634Y036311D03*
X048634Y036311D03*
X051634Y036311D03*
X052634Y036311D03*
X053634Y036311D03*
X054634Y036311D03*
X055634Y036311D03*
X056634Y036311D03*
X057634Y036311D03*
X058634Y036311D03*
X060634Y036311D03*
X061634Y036311D03*
X062634Y036311D03*
X063634Y036311D03*
X064634Y036311D03*
X065634Y036311D03*
X066634Y036311D03*
X067634Y036311D03*
X069234Y036311D03*
X070234Y036311D03*
X071234Y036311D03*
X072234Y036311D03*
X073234Y036311D03*
X074234Y036311D03*
X075234Y036311D03*
X076234Y036311D03*
D28*
X059634Y026311D03*
D29*
X038734Y034611D03*
X037734Y034611D03*
X036734Y034611D03*
X035734Y034611D03*
X034734Y034611D03*
X033734Y034611D03*
X033734Y036611D03*
X034734Y036611D03*
X035734Y036611D03*
X036734Y036611D03*
X037734Y036611D03*
X038734Y036611D03*
X038734Y015761D03*
X037734Y015761D03*
X036734Y015761D03*
X035734Y015761D03*
X034734Y015761D03*
X033734Y015761D03*
X033734Y013761D03*
X034734Y013761D03*
X035734Y013761D03*
X036734Y013761D03*
X037734Y013761D03*
X038734Y013761D03*
D30*
X029851Y041218D03*
X029851Y041907D03*
X028788Y041907D03*
X028788Y041218D03*
X022351Y041218D03*
X022351Y041907D03*
X021288Y041907D03*
X021288Y041218D03*
D31*
X015134Y035211D02*
X014134Y035211D01*
X014134Y033242D02*
X015134Y033242D01*
X015134Y031274D02*
X014134Y031274D01*
X014134Y029305D02*
X015134Y029305D01*
X015134Y025611D02*
X014134Y025611D01*
X014134Y023642D02*
X015134Y023642D01*
X015134Y021674D02*
X014134Y021674D01*
X014134Y019705D02*
X015134Y019705D01*
D32*
X019896Y026578D03*
X022872Y026578D03*
X022872Y028562D03*
X019896Y028562D03*
X019896Y030546D03*
X022872Y030546D03*
X030623Y028299D03*
X032608Y028299D03*
X034592Y028299D03*
X034592Y025323D03*
X032608Y025323D03*
X030623Y025323D03*
D33*
X022872Y020625D03*
X019896Y020625D03*
X040545Y025323D03*
X040545Y028299D03*
D34*
X075559Y040436D03*
D35*
X076858Y039135D03*
X076858Y045237D03*
D36*
X067709Y040336D03*
X068784Y034811D03*
X068209Y034386D03*
X068784Y031786D03*
X068209Y029511D03*
X068784Y029011D03*
X068209Y027411D03*
X068209Y026161D03*
X063659Y029411D03*
X062109Y031311D03*
X059084Y031261D03*
X076484Y026711D03*
X066959Y022261D03*
X066409Y021811D03*
X074384Y011936D03*
X075809Y010261D03*
X075809Y009686D03*
X075809Y009111D03*
X075809Y008536D03*
X075809Y007961D03*
X072509Y007961D03*
X072509Y008536D03*
X072509Y009111D03*
X072509Y009686D03*
X072509Y010261D03*
X068159Y011461D03*
X046459Y010836D03*
X046459Y018111D03*
D37*
X079693Y007311D03*
X013945Y045500D03*
M02*
