G75*
G70*
%OFA0B0*%
%FSLAX24Y24*%
%IPPOS*%
%LPD*%
%AMOC8*
5,1,8,0,0,1.08239X$1,22.5*
%
%ADD10C,0.1000*%
%ADD11C,0.0477*%
%ADD12C,0.0674*%
%ADD13OC8,0.0710*%
%ADD14C,0.0710*%
%ADD15C,0.0640*%
%ADD16C,0.0946*%
%ADD17OC8,0.0946*%
%ADD18OC8,0.0634*%
%ADD19OC8,0.0680*%
%ADD20C,0.1299*%
%ADD21C,0.0848*%
%ADD22C,0.4885*%
%ADD23R,0.0552X0.0552*%
%ADD24C,0.1172*%
%ADD25R,0.0674X0.0674*%
%ADD26OC8,0.0674*%
%ADD27C,0.0595*%
%ADD28R,0.0595X0.0595*%
%ADD29C,0.1386*%
%ADD30C,0.0674*%
%ADD31C,0.0634*%
%ADD32R,0.0710X0.0789*%
%ADD33R,0.0516X0.0516*%
%ADD34R,0.0592X0.0671*%
%ADD35C,0.0095*%
%ADD36C,0.0050*%
%ADD37C,0.0780*%
%ADD38OC8,0.0780*%
D10*
X015146Y009828D02*
X017721Y007253D01*
X019846Y007253D01*
X015146Y009828D02*
X015146Y022553D01*
X015646Y023053D01*
X027096Y023053D01*
X027196Y023053D02*
X027921Y023053D01*
X029046Y021928D01*
X029046Y021403D01*
X027121Y018753D02*
X025946Y019928D01*
X018146Y019928D01*
X017946Y020128D01*
X016871Y020128D01*
X024946Y018303D02*
X024946Y015128D01*
X023696Y013878D01*
X021446Y013878D01*
X020946Y013378D01*
X020946Y012453D01*
X018971Y012553D02*
X018971Y015353D01*
X027121Y018453D02*
X027121Y018753D01*
X030771Y015078D02*
X030221Y014528D01*
X030221Y008703D01*
X028796Y007278D01*
X030771Y015078D02*
X032271Y015078D01*
D11*
X065295Y022853D03*
X065846Y022853D03*
D12*
X065896Y005025D02*
X065896Y004431D01*
X066896Y004431D02*
X066896Y005025D01*
X064896Y005025D02*
X064896Y004431D01*
X063896Y004431D02*
X063896Y005025D01*
X062896Y005025D02*
X062896Y004431D01*
X061896Y004431D02*
X061896Y005025D01*
D13*
X036121Y012828D03*
X011246Y020953D03*
D14*
X011246Y021953D03*
X036121Y011828D03*
D15*
X048546Y030798D02*
X048546Y031358D01*
X049546Y031358D02*
X049546Y030798D01*
D16*
X069641Y022378D03*
D17*
X077511Y022378D03*
X031977Y006835D03*
X017133Y006778D03*
D18*
X051241Y014193D03*
X052241Y014193D03*
X052241Y015193D03*
X051241Y015193D03*
X051241Y016193D03*
X052241Y016193D03*
X052241Y017193D03*
X051241Y017193D03*
X051241Y018193D03*
X052241Y018193D03*
X052241Y019193D03*
X051241Y019193D03*
X051241Y020193D03*
X052241Y020193D03*
X052241Y021193D03*
X051241Y021193D03*
X051241Y022193D03*
X052241Y022193D03*
X052241Y023193D03*
X051241Y023193D03*
X051241Y024193D03*
X052241Y024193D03*
X052241Y025193D03*
X051241Y025193D03*
X051241Y026193D03*
X052241Y026193D03*
X052241Y027193D03*
X051241Y027193D03*
X051241Y028193D03*
X052241Y028193D03*
X052241Y029193D03*
X051241Y029193D03*
X051241Y030193D03*
X052241Y030193D03*
X052241Y031193D03*
X051241Y031193D03*
X055241Y031193D03*
X056241Y031193D03*
X057241Y031193D03*
X058241Y031193D03*
X059241Y031193D03*
X060241Y031193D03*
X061241Y031193D03*
X062241Y031193D03*
X064241Y031193D03*
X065241Y031193D03*
X066241Y031193D03*
X067241Y031193D03*
X068241Y031193D03*
X069241Y031193D03*
X070241Y031193D03*
X071241Y031193D03*
X072841Y031193D03*
X073841Y031193D03*
X074841Y031193D03*
X075841Y031193D03*
X076841Y031193D03*
X077841Y031193D03*
X078841Y031193D03*
X079841Y031193D03*
X064241Y023193D03*
X063241Y023193D03*
X063241Y022193D03*
X064241Y022193D03*
X064241Y021193D03*
X064241Y012193D03*
X063241Y012193D03*
X062241Y012193D03*
X060241Y012193D03*
X059241Y012193D03*
X058241Y012193D03*
X057241Y012193D03*
X056241Y012193D03*
X055241Y012193D03*
X054241Y012193D03*
X053241Y012193D03*
X065241Y012193D03*
X066241Y012193D03*
X067241Y012193D03*
X068241Y012193D03*
X069241Y012193D03*
X071241Y012193D03*
X072241Y012193D03*
X073241Y012193D03*
X074241Y012193D03*
X075241Y012193D03*
X076241Y012193D03*
D19*
X063241Y021193D03*
D20*
X029044Y021342D03*
X027060Y021342D03*
X025075Y021342D03*
X025075Y018365D03*
X027060Y018365D03*
X029044Y018365D03*
X022866Y015417D03*
X020882Y015417D03*
X018898Y015417D03*
X018898Y012440D03*
X020882Y012440D03*
X022866Y012440D03*
D21*
X028819Y012440D03*
X028819Y015417D03*
X019123Y018365D03*
X019123Y021342D03*
D22*
X020874Y006622D03*
X013374Y006622D03*
X007055Y006622D03*
X028374Y006622D03*
X035874Y006622D03*
D23*
X032469Y010165D03*
X031642Y010165D03*
X024988Y010165D03*
X024162Y010165D03*
X017508Y010165D03*
X016681Y010165D03*
X013374Y021582D03*
X012548Y021582D03*
X010422Y021582D03*
X009595Y021582D03*
X009595Y024338D03*
X010422Y024338D03*
X010422Y027094D03*
X009595Y027094D03*
X038335Y027094D03*
X039162Y027094D03*
X039162Y024338D03*
X038335Y024338D03*
X038335Y021582D03*
X039162Y021582D03*
X041288Y021582D03*
X042114Y021582D03*
X083020Y011346D03*
X083847Y011346D03*
D24*
X083966Y008865D02*
X082901Y008865D01*
X082901Y007015D02*
X083966Y007015D01*
X083966Y005165D02*
X082901Y005165D01*
D25*
X060196Y006303D03*
X016407Y011618D03*
X032548Y023673D03*
X083046Y024878D03*
D26*
X084046Y024878D03*
X084046Y025878D03*
X083046Y025878D03*
X083046Y026878D03*
X084046Y026878D03*
X084046Y027878D03*
X083046Y027878D03*
X043446Y012303D03*
X043446Y011303D03*
X043446Y010303D03*
X043446Y009303D03*
X043446Y008303D03*
X043446Y007303D03*
X043446Y006303D03*
X043446Y005303D03*
X059196Y006303D03*
X059196Y007303D03*
X060196Y007303D03*
X060196Y008303D03*
X059196Y008303D03*
X059196Y009303D03*
X060196Y009303D03*
X060196Y010303D03*
X059196Y010303D03*
X032548Y011673D03*
X031548Y011673D03*
X031548Y012673D03*
X032548Y012673D03*
X032548Y013673D03*
X031548Y013673D03*
X031548Y014673D03*
X032548Y014673D03*
X032548Y015673D03*
X031548Y015673D03*
X031548Y016673D03*
X032548Y016673D03*
X032548Y017673D03*
X031548Y017673D03*
X031548Y018673D03*
X032548Y018673D03*
X032548Y019673D03*
X031548Y019673D03*
X031548Y020673D03*
X032548Y020673D03*
X032548Y021673D03*
X031548Y021673D03*
X031548Y022673D03*
X032548Y022673D03*
X031548Y023673D03*
X017407Y023618D03*
X016407Y023618D03*
X016407Y022618D03*
X017407Y022618D03*
X017407Y021618D03*
X016407Y021618D03*
X016407Y020618D03*
X017407Y020618D03*
X017407Y019618D03*
X016407Y019618D03*
X016407Y018618D03*
X017407Y018618D03*
X017407Y017618D03*
X016407Y017618D03*
X016407Y016618D03*
X017407Y016618D03*
X017407Y015618D03*
X016407Y015618D03*
X016407Y014618D03*
X017407Y014618D03*
X017407Y013618D03*
X016407Y013618D03*
X016407Y012618D03*
X017407Y012618D03*
X017407Y011618D03*
D27*
X080071Y011196D03*
X081071Y011196D03*
X081071Y010196D03*
X080071Y010196D03*
X080071Y009196D03*
X081071Y009196D03*
X081071Y008196D03*
X080071Y008196D03*
X080071Y012196D03*
X081071Y012196D03*
X081071Y013196D03*
X080071Y013196D03*
X080071Y014196D03*
X081071Y014196D03*
X081071Y015196D03*
X080071Y015196D03*
X080071Y016196D03*
X081071Y016196D03*
X081071Y017196D03*
X080071Y017196D03*
X080071Y018196D03*
X081071Y018196D03*
X081071Y019196D03*
X080071Y019196D03*
X080071Y020196D03*
X081071Y020196D03*
X081071Y021196D03*
X080071Y021196D03*
X080071Y022196D03*
X081071Y022196D03*
X081071Y023196D03*
X080071Y023196D03*
X080071Y024196D03*
X081071Y024196D03*
X081071Y025196D03*
X080071Y025196D03*
X080071Y026196D03*
X081071Y026196D03*
X080071Y027196D03*
D28*
X081071Y027196D03*
D29*
X079496Y029259D03*
X046032Y029259D03*
X046032Y006031D03*
X079496Y006031D03*
D30*
X074921Y005628D03*
X073921Y005628D03*
X072921Y005628D03*
X071921Y005628D03*
X070921Y005628D03*
X070921Y004628D03*
X071921Y004628D03*
X072921Y004628D03*
X073921Y004628D03*
X074921Y004628D03*
D31*
X042205Y016464D03*
X041205Y016464D03*
X040205Y016464D03*
X039205Y016464D03*
X038205Y016464D03*
X037205Y016464D03*
X036205Y016464D03*
X035205Y016464D03*
X035205Y018464D03*
X036205Y018464D03*
X037205Y018464D03*
X038205Y018464D03*
X039205Y018464D03*
X040205Y018464D03*
X041205Y018464D03*
X042205Y018464D03*
X013433Y018464D03*
X012433Y018464D03*
X011433Y018464D03*
X010433Y018464D03*
X009433Y018464D03*
X008433Y018464D03*
X008433Y016464D03*
X009433Y016464D03*
X010433Y016464D03*
X011433Y016464D03*
X012433Y016464D03*
X013433Y016464D03*
D32*
X051969Y007403D03*
X053072Y007403D03*
D33*
X029977Y006835D03*
X015133Y006778D03*
D34*
X082747Y014903D03*
X083495Y014903D03*
D35*
X084051Y015586D02*
X084051Y016398D01*
X084587Y016398D01*
X084587Y015586D01*
X084051Y015586D01*
X084051Y015680D02*
X084587Y015680D01*
X084587Y015774D02*
X084051Y015774D01*
X084051Y015868D02*
X084587Y015868D01*
X084587Y015962D02*
X084051Y015962D01*
X084051Y016056D02*
X084587Y016056D01*
X084587Y016150D02*
X084051Y016150D01*
X084051Y016244D02*
X084587Y016244D01*
X084587Y016338D02*
X084051Y016338D01*
X082280Y016398D02*
X082280Y015586D01*
X082280Y016398D02*
X082816Y016398D01*
X082816Y015586D01*
X082280Y015586D01*
X082280Y015680D02*
X082816Y015680D01*
X082816Y015774D02*
X082280Y015774D01*
X082280Y015868D02*
X082816Y015868D01*
X082816Y015962D02*
X082280Y015962D01*
X082280Y016056D02*
X082816Y016056D01*
X082816Y016150D02*
X082280Y016150D01*
X082280Y016244D02*
X082816Y016244D01*
X082816Y016338D02*
X082280Y016338D01*
X082280Y018893D02*
X082280Y019705D01*
X082816Y019705D01*
X082816Y018893D01*
X082280Y018893D01*
X082280Y018987D02*
X082816Y018987D01*
X082816Y019081D02*
X082280Y019081D01*
X082280Y019175D02*
X082816Y019175D01*
X082816Y019269D02*
X082280Y019269D01*
X082280Y019363D02*
X082816Y019363D01*
X082816Y019457D02*
X082280Y019457D01*
X082280Y019551D02*
X082816Y019551D01*
X082816Y019645D02*
X082280Y019645D01*
X083165Y019705D02*
X083165Y018893D01*
X083165Y019705D02*
X083701Y019705D01*
X083701Y018893D01*
X083165Y018893D01*
X083165Y018987D02*
X083701Y018987D01*
X083701Y019081D02*
X083165Y019081D01*
X083165Y019175D02*
X083701Y019175D01*
X083701Y019269D02*
X083165Y019269D01*
X083165Y019363D02*
X083701Y019363D01*
X083701Y019457D02*
X083165Y019457D01*
X083165Y019551D02*
X083701Y019551D01*
X083701Y019645D02*
X083165Y019645D01*
X084051Y019705D02*
X084051Y018893D01*
X084051Y019705D02*
X084587Y019705D01*
X084587Y018893D01*
X084051Y018893D01*
X084051Y018987D02*
X084587Y018987D01*
X084587Y019081D02*
X084051Y019081D01*
X084051Y019175D02*
X084587Y019175D01*
X084587Y019269D02*
X084051Y019269D01*
X084051Y019363D02*
X084587Y019363D01*
X084587Y019457D02*
X084051Y019457D01*
X084051Y019551D02*
X084587Y019551D01*
X084587Y019645D02*
X084051Y019645D01*
D36*
X004313Y003607D02*
X004263Y003678D01*
X004226Y003757D01*
X004203Y003842D01*
X004196Y003928D01*
X004203Y004015D01*
X004226Y004099D01*
X004263Y004178D01*
X004313Y004250D01*
X004374Y004311D01*
X004446Y004361D01*
X004525Y004398D01*
X004609Y004421D01*
X004696Y004428D01*
X004782Y004421D01*
X004867Y004398D01*
X004946Y004361D01*
X005017Y004311D01*
X005079Y004250D01*
X005129Y004178D01*
X005165Y004099D01*
X005188Y004015D01*
X005196Y003928D01*
X005188Y003842D01*
X005165Y003757D01*
X005129Y003678D01*
X005079Y003607D01*
X005017Y003545D01*
X004946Y003495D01*
X004867Y003459D01*
X004782Y003436D01*
X004696Y003428D01*
X004609Y003436D01*
X004525Y003459D01*
X004446Y003495D01*
X004374Y003545D01*
X004313Y003607D01*
X004309Y003612D02*
X005082Y003612D01*
X005116Y003660D02*
X004275Y003660D01*
X004248Y003709D02*
X005143Y003709D01*
X005165Y003757D02*
X004226Y003757D01*
X004213Y003806D02*
X005178Y003806D01*
X005189Y003854D02*
X004202Y003854D01*
X004198Y003903D02*
X005193Y003903D01*
X005194Y003951D02*
X004198Y003951D01*
X004202Y004000D02*
X005189Y004000D01*
X005179Y004048D02*
X004212Y004048D01*
X004225Y004097D02*
X005166Y004097D01*
X005144Y004145D02*
X004247Y004145D01*
X004273Y004194D02*
X005118Y004194D01*
X005084Y004242D02*
X004307Y004242D01*
X004354Y004291D02*
X005037Y004291D01*
X004977Y004339D02*
X004414Y004339D01*
X004502Y004388D02*
X004889Y004388D01*
X005035Y003563D02*
X004356Y003563D01*
X004418Y003515D02*
X004973Y003515D01*
X004883Y003466D02*
X004508Y003466D01*
X083726Y031107D02*
X083703Y031192D01*
X083696Y031278D01*
X083703Y031365D01*
X083726Y031449D01*
X083763Y031528D01*
X083813Y031600D01*
X083874Y031661D01*
X083946Y031711D01*
X084025Y031748D01*
X084109Y031771D01*
X084196Y031778D01*
X084282Y031771D01*
X084367Y031748D01*
X084446Y031711D01*
X084517Y031661D01*
X084579Y031600D01*
X084629Y031528D01*
X084665Y031449D01*
X084688Y031365D01*
X084696Y031278D01*
X084688Y031192D01*
X084665Y031107D01*
X084629Y031028D01*
X084579Y030957D01*
X084517Y030895D01*
X084446Y030845D01*
X084367Y030809D01*
X084282Y030786D01*
X084196Y030778D01*
X084109Y030786D01*
X084025Y030809D01*
X083946Y030845D01*
X083874Y030895D01*
X083813Y030957D01*
X083763Y031028D01*
X083726Y031107D01*
X083725Y031111D02*
X084666Y031111D01*
X084679Y031160D02*
X083712Y031160D01*
X083702Y031208D02*
X084689Y031208D01*
X084694Y031257D02*
X083697Y031257D01*
X083698Y031305D02*
X084693Y031305D01*
X084689Y031354D02*
X083702Y031354D01*
X083713Y031402D02*
X084678Y031402D01*
X084665Y031451D02*
X083726Y031451D01*
X083749Y031499D02*
X084642Y031499D01*
X084615Y031548D02*
X083776Y031548D01*
X083810Y031596D02*
X084581Y031596D01*
X084533Y031645D02*
X083858Y031645D01*
X083920Y031693D02*
X084471Y031693D01*
X084380Y031742D02*
X084011Y031742D01*
X083746Y031063D02*
X084645Y031063D01*
X084619Y031014D02*
X083772Y031014D01*
X083806Y030966D02*
X084585Y030966D01*
X084539Y030917D02*
X083852Y030917D01*
X083912Y030869D02*
X084479Y030869D01*
X084392Y030820D02*
X083999Y030820D01*
D37*
X071433Y028328D03*
D38*
X073008Y028328D03*
M02*
