G75*
G70*
%OFA0B0*%
%FSLAX24Y24*%
%IPPOS*%
%LPD*%
%AMOC8*
5,1,8,0,0,1.08239X$1,22.5*
%
%ADD10C,0.0039*%
%ADD11C,0.0000*%
D10*
X004299Y003078D02*
X084614Y003078D01*
X084660Y003080D01*
X084706Y003085D01*
X084752Y003094D01*
X084797Y003107D01*
X084840Y003123D01*
X084882Y003142D01*
X084923Y003165D01*
X084961Y003191D01*
X084998Y003220D01*
X085032Y003251D01*
X085063Y003285D01*
X085092Y003322D01*
X085118Y003360D01*
X085141Y003401D01*
X085160Y003443D01*
X085176Y003486D01*
X085189Y003531D01*
X085198Y003577D01*
X085203Y003623D01*
X085205Y003669D01*
X085205Y031622D01*
X085203Y031668D01*
X085198Y031714D01*
X085189Y031760D01*
X085176Y031805D01*
X085160Y031848D01*
X085141Y031890D01*
X085118Y031931D01*
X085092Y031969D01*
X085063Y032006D01*
X085032Y032040D01*
X084998Y032071D01*
X084961Y032100D01*
X084923Y032126D01*
X084882Y032149D01*
X084840Y032168D01*
X084797Y032184D01*
X084752Y032197D01*
X084706Y032206D01*
X084660Y032211D01*
X084614Y032213D01*
X084614Y032212D02*
X004299Y032212D01*
X004299Y032213D02*
X004253Y032211D01*
X004207Y032206D01*
X004161Y032197D01*
X004116Y032184D01*
X004073Y032168D01*
X004031Y032149D01*
X003990Y032126D01*
X003952Y032100D01*
X003915Y032071D01*
X003881Y032040D01*
X003850Y032006D01*
X003821Y031969D01*
X003795Y031931D01*
X003772Y031890D01*
X003753Y031848D01*
X003737Y031805D01*
X003724Y031760D01*
X003715Y031714D01*
X003710Y031668D01*
X003708Y031622D01*
X003709Y031622D02*
X003709Y003669D01*
X003708Y003669D02*
X003710Y003623D01*
X003715Y003577D01*
X003724Y003531D01*
X003737Y003486D01*
X003753Y003443D01*
X003772Y003401D01*
X003795Y003360D01*
X003821Y003322D01*
X003850Y003285D01*
X003881Y003251D01*
X003915Y003220D01*
X003952Y003191D01*
X003990Y003165D01*
X004031Y003142D01*
X004073Y003123D01*
X004116Y003107D01*
X004161Y003094D01*
X004207Y003085D01*
X004253Y003080D01*
X004299Y003078D01*
D11*
X045402Y006031D02*
X045404Y006081D01*
X045410Y006131D01*
X045420Y006180D01*
X045434Y006228D01*
X045451Y006275D01*
X045472Y006320D01*
X045497Y006364D01*
X045525Y006405D01*
X045557Y006444D01*
X045591Y006481D01*
X045628Y006515D01*
X045668Y006545D01*
X045710Y006572D01*
X045754Y006596D01*
X045800Y006617D01*
X045847Y006633D01*
X045895Y006646D01*
X045945Y006655D01*
X045994Y006660D01*
X046045Y006661D01*
X046095Y006658D01*
X046144Y006651D01*
X046193Y006640D01*
X046241Y006625D01*
X046287Y006607D01*
X046332Y006585D01*
X046375Y006559D01*
X046416Y006530D01*
X046455Y006498D01*
X046491Y006463D01*
X046523Y006425D01*
X046553Y006385D01*
X046580Y006342D01*
X046603Y006298D01*
X046622Y006252D01*
X046638Y006204D01*
X046650Y006155D01*
X046658Y006106D01*
X046662Y006056D01*
X046662Y006006D01*
X046658Y005956D01*
X046650Y005907D01*
X046638Y005858D01*
X046622Y005810D01*
X046603Y005764D01*
X046580Y005720D01*
X046553Y005677D01*
X046523Y005637D01*
X046491Y005599D01*
X046455Y005564D01*
X046416Y005532D01*
X046375Y005503D01*
X046332Y005477D01*
X046287Y005455D01*
X046241Y005437D01*
X046193Y005422D01*
X046144Y005411D01*
X046095Y005404D01*
X046045Y005401D01*
X045994Y005402D01*
X045945Y005407D01*
X045895Y005416D01*
X045847Y005429D01*
X045800Y005445D01*
X045754Y005466D01*
X045710Y005490D01*
X045668Y005517D01*
X045628Y005547D01*
X045591Y005581D01*
X045557Y005618D01*
X045525Y005657D01*
X045497Y005698D01*
X045472Y005742D01*
X045451Y005787D01*
X045434Y005834D01*
X045420Y005882D01*
X045410Y005931D01*
X045404Y005981D01*
X045402Y006031D01*
X078866Y006031D02*
X078868Y006081D01*
X078874Y006131D01*
X078884Y006180D01*
X078898Y006228D01*
X078915Y006275D01*
X078936Y006320D01*
X078961Y006364D01*
X078989Y006405D01*
X079021Y006444D01*
X079055Y006481D01*
X079092Y006515D01*
X079132Y006545D01*
X079174Y006572D01*
X079218Y006596D01*
X079264Y006617D01*
X079311Y006633D01*
X079359Y006646D01*
X079409Y006655D01*
X079458Y006660D01*
X079509Y006661D01*
X079559Y006658D01*
X079608Y006651D01*
X079657Y006640D01*
X079705Y006625D01*
X079751Y006607D01*
X079796Y006585D01*
X079839Y006559D01*
X079880Y006530D01*
X079919Y006498D01*
X079955Y006463D01*
X079987Y006425D01*
X080017Y006385D01*
X080044Y006342D01*
X080067Y006298D01*
X080086Y006252D01*
X080102Y006204D01*
X080114Y006155D01*
X080122Y006106D01*
X080126Y006056D01*
X080126Y006006D01*
X080122Y005956D01*
X080114Y005907D01*
X080102Y005858D01*
X080086Y005810D01*
X080067Y005764D01*
X080044Y005720D01*
X080017Y005677D01*
X079987Y005637D01*
X079955Y005599D01*
X079919Y005564D01*
X079880Y005532D01*
X079839Y005503D01*
X079796Y005477D01*
X079751Y005455D01*
X079705Y005437D01*
X079657Y005422D01*
X079608Y005411D01*
X079559Y005404D01*
X079509Y005401D01*
X079458Y005402D01*
X079409Y005407D01*
X079359Y005416D01*
X079311Y005429D01*
X079264Y005445D01*
X079218Y005466D01*
X079174Y005490D01*
X079132Y005517D01*
X079092Y005547D01*
X079055Y005581D01*
X079021Y005618D01*
X078989Y005657D01*
X078961Y005698D01*
X078936Y005742D01*
X078915Y005787D01*
X078898Y005834D01*
X078884Y005882D01*
X078874Y005931D01*
X078868Y005981D01*
X078866Y006031D01*
X078866Y029259D02*
X078868Y029309D01*
X078874Y029359D01*
X078884Y029408D01*
X078898Y029456D01*
X078915Y029503D01*
X078936Y029548D01*
X078961Y029592D01*
X078989Y029633D01*
X079021Y029672D01*
X079055Y029709D01*
X079092Y029743D01*
X079132Y029773D01*
X079174Y029800D01*
X079218Y029824D01*
X079264Y029845D01*
X079311Y029861D01*
X079359Y029874D01*
X079409Y029883D01*
X079458Y029888D01*
X079509Y029889D01*
X079559Y029886D01*
X079608Y029879D01*
X079657Y029868D01*
X079705Y029853D01*
X079751Y029835D01*
X079796Y029813D01*
X079839Y029787D01*
X079880Y029758D01*
X079919Y029726D01*
X079955Y029691D01*
X079987Y029653D01*
X080017Y029613D01*
X080044Y029570D01*
X080067Y029526D01*
X080086Y029480D01*
X080102Y029432D01*
X080114Y029383D01*
X080122Y029334D01*
X080126Y029284D01*
X080126Y029234D01*
X080122Y029184D01*
X080114Y029135D01*
X080102Y029086D01*
X080086Y029038D01*
X080067Y028992D01*
X080044Y028948D01*
X080017Y028905D01*
X079987Y028865D01*
X079955Y028827D01*
X079919Y028792D01*
X079880Y028760D01*
X079839Y028731D01*
X079796Y028705D01*
X079751Y028683D01*
X079705Y028665D01*
X079657Y028650D01*
X079608Y028639D01*
X079559Y028632D01*
X079509Y028629D01*
X079458Y028630D01*
X079409Y028635D01*
X079359Y028644D01*
X079311Y028657D01*
X079264Y028673D01*
X079218Y028694D01*
X079174Y028718D01*
X079132Y028745D01*
X079092Y028775D01*
X079055Y028809D01*
X079021Y028846D01*
X078989Y028885D01*
X078961Y028926D01*
X078936Y028970D01*
X078915Y029015D01*
X078898Y029062D01*
X078884Y029110D01*
X078874Y029159D01*
X078868Y029209D01*
X078866Y029259D01*
X045402Y029259D02*
X045404Y029309D01*
X045410Y029359D01*
X045420Y029408D01*
X045434Y029456D01*
X045451Y029503D01*
X045472Y029548D01*
X045497Y029592D01*
X045525Y029633D01*
X045557Y029672D01*
X045591Y029709D01*
X045628Y029743D01*
X045668Y029773D01*
X045710Y029800D01*
X045754Y029824D01*
X045800Y029845D01*
X045847Y029861D01*
X045895Y029874D01*
X045945Y029883D01*
X045994Y029888D01*
X046045Y029889D01*
X046095Y029886D01*
X046144Y029879D01*
X046193Y029868D01*
X046241Y029853D01*
X046287Y029835D01*
X046332Y029813D01*
X046375Y029787D01*
X046416Y029758D01*
X046455Y029726D01*
X046491Y029691D01*
X046523Y029653D01*
X046553Y029613D01*
X046580Y029570D01*
X046603Y029526D01*
X046622Y029480D01*
X046638Y029432D01*
X046650Y029383D01*
X046658Y029334D01*
X046662Y029284D01*
X046662Y029234D01*
X046658Y029184D01*
X046650Y029135D01*
X046638Y029086D01*
X046622Y029038D01*
X046603Y028992D01*
X046580Y028948D01*
X046553Y028905D01*
X046523Y028865D01*
X046491Y028827D01*
X046455Y028792D01*
X046416Y028760D01*
X046375Y028731D01*
X046332Y028705D01*
X046287Y028683D01*
X046241Y028665D01*
X046193Y028650D01*
X046144Y028639D01*
X046095Y028632D01*
X046045Y028629D01*
X045994Y028630D01*
X045945Y028635D01*
X045895Y028644D01*
X045847Y028657D01*
X045800Y028673D01*
X045754Y028694D01*
X045710Y028718D01*
X045668Y028745D01*
X045628Y028775D01*
X045591Y028809D01*
X045557Y028846D01*
X045525Y028885D01*
X045497Y028926D01*
X045472Y028970D01*
X045451Y029015D01*
X045434Y029062D01*
X045420Y029110D01*
X045410Y029159D01*
X045404Y029209D01*
X045402Y029259D01*
M02*
