%
M48
M72
T01C0.0197
T02C0.0236
T03C0.0315
T04C0.0320
T05C0.0354
T06C0.0360
T07C0.0394
T08C0.0400
T09C0.0433
T10C0.0512
T11C0.0710
T12C0.1260
T13C0.2165
%
T01
X70807Y24822
X71358Y24822
T02
X72882Y24622
X71932Y23522
X72307Y23147
X71932Y22772
X72882Y22372
X73657Y22622
X74382Y22972
X75407Y23497
X76332Y23322
X76707Y23672
X77232Y24197
X76707Y24422
X78007Y23997
X78782Y23047
X77357Y22697
X77357Y21647
X75532Y21872
X74857Y21172
X73507Y20847
X74257Y20722
X73532Y20272
X72257Y19197
X72257Y18472
X70757Y18372
X69232Y17997
X68257Y17622
X68157Y18372
X66207Y18522
X65932Y19097
X64907Y19197
X64157Y18872
X62832Y18847
X61382Y18297
X64132Y17147
X66732Y16422
X65282Y15947
X66732Y15072
X63532Y15972
X61182Y16397
X60432Y15072
X57532Y14247
X54582Y13422
X53882Y14122
X52357Y14897
X53307Y15072
X53307Y15922
X51707Y15922
X52732Y17047
X54382Y17672
X55607Y18047
X55132Y19022
X53307Y19547
X51682Y20047
X50782Y20047
X49957Y20697
X50882Y21247
X52432Y21197
X53982Y21722
X54582Y21222
X57107Y21672
X58432Y21797
X58957Y22272
X60382Y22047
X62132Y21822
X62832Y22122
X62532Y23022
X62132Y23372
X62132Y23897
X61382Y23822
X63257Y24147
X64557Y24797
X64932Y25147
X65507Y25022
X66732Y24472
X67382Y25372
X63857Y23272
X65282Y22722
X66732Y21822
X67382Y20997
X70407Y20997
X71682Y20697
X73257Y21572
X77357Y19947
X81957Y20722
X82807Y19872
X83332Y19722
X82057Y18447
X82407Y18072
X81507Y17697
X81332Y18572
X83807Y17472
X83432Y16122
X82407Y15847
X81582Y15097
X80857Y16272
X80482Y16797
X77107Y15772
X76057Y15472
X75057Y15447
X73032Y16172
X72232Y15472
X71307Y16897
X73832Y17772
X76582Y18097
X80882Y21872
X82182Y22247
X80682Y22697
X86957Y21672
X88982Y22197
X88107Y22647
X80932Y25847
X80482Y26247
X81507Y26672
X82782Y26922
X82807Y27447
X83157Y27847
X83532Y28297
X83907Y27747
X86057Y27597
X84957Y26772
X84432Y26547
X81257Y28072
X81082Y29147
X80282Y29697
X79057Y29622
X79757Y30197
X77957Y31047
X78332Y31397
X79357Y31847
X81332Y31847
X81982Y30947
X82057Y29372
X83332Y29147
X83557Y29697
X84507Y28947
X90032Y27372
X78582Y26272
X77657Y25847
X76932Y26797
X76482Y27172
X76057Y26522
X77007Y27697
X74882Y28647
X73632Y28372
X71932Y28897
X70257Y28647
X68657Y28372
X66957Y28647
X64232Y28647
X62732Y28922
X59157Y28647
X56357Y29647
X56182Y28672
X54732Y29022
X53857Y29622
X54457Y30022
X52757Y29822
X51907Y29622
X50407Y28672
X49582Y28347
X48332Y28772
X47482Y28122
X46307Y28672
X45807Y28347
X45932Y27747
X44257Y27997
X43707Y28172
X44107Y28522
X41657Y29647
X43157Y31322
X45757Y31622
X47382Y31772
X49207Y32047
X49282Y30847
X48457Y30322
X52832Y30772
X53732Y30672
X54732Y31047
X54332Y31422
X55182Y31647
X56032Y31172
X55482Y30672
X57107Y31647
X59157Y30972
X58407Y30272
X61257Y30972
X64232Y30972
X65757Y31597
X67907Y31822
X70257Y31597
X70257Y30597
X71707Y30347
X73732Y30597
X75207Y30797
X76182Y30847
X76757Y31997
X72482Y31597
X68657Y30122
X68132Y30122
X62882Y27472
X62357Y27247
X61257Y27272
X59157Y27272
X57107Y25647
X56157Y25172
X57107Y24672
X56157Y24047
X57082Y23647
X56157Y23172
X54432Y22647
X58382Y22997
X58957Y23472
X59682Y24072
X59382Y24522
X58507Y24672
X58657Y25222
X61257Y24922
X62132Y24922
X56157Y26647
X53007Y26697
X52432Y27222
X51532Y27722
X50957Y27747
X52107Y28272
X54732Y28272
X48832Y26072
X49432Y25797
X48382Y25622
X48957Y24872
X50932Y25372
X54207Y24822
X48332Y22422
X47932Y22072
X47132Y21322
X48957Y21347
X48632Y19772
X49707Y19547
X48332Y19097
X49482Y17972
X49157Y17547
X48432Y17097
X49082Y16422
X50132Y15922
X48132Y15272
X49482Y14847
X50032Y14597
X50982Y13697
X52107Y14097
X50982Y12872
X50982Y12122
X50982Y11322
X53057Y11822
X55057Y11172
X55357Y11622
X57057Y12022
X56057Y12572
X54582Y10822
X53082Y10647
X56057Y10472
X57307Y9872
X56057Y9472
X54582Y9447
X50557Y9047
X47182Y9472
X44282Y8797
X48407Y10772
X46232Y11122
X44832Y12672
X43482Y14197
X43007Y15147
X44257Y16072
X45407Y15697
X43307Y17622
X39307Y17072
X38932Y15747
X38932Y13897
X34182Y13372
X31907Y12047
X29482Y11322
X29782Y13422
X29732Y14247
X37982Y11797
X35489Y8803
X29357Y6272
X20645Y8747
X19382Y13722
X19382Y15197
X15432Y16197
X14882Y16397
X14507Y16797
X13857Y17272
X11407Y17122
X11407Y17672
X11032Y18322
X12057Y18972
X13382Y19722
X11432Y20972
X17457Y19122
X19382Y18022
X16807Y17347
X24007Y19722
X18482Y21247
X19382Y21747
X19382Y23122
X17407Y23472
X13732Y24922
X14257Y25522
X15007Y25597
X17957Y25597
X20582Y26272
X19257Y27272
X18482Y27597
X16582Y27272
X13357Y27272
X12832Y27147
X12482Y27522
X12107Y27872
X11732Y28222
X11382Y28597
X13357Y29597
X15007Y30547
X16007Y31247
X15057Y31722
X14157Y31747
X13857Y32422
X16482Y32972
X17482Y33597
X18882Y32897
X18482Y32522
X20732Y31747
X21507Y32097
X21982Y32597
X23432Y32197
X26107Y31197
X26832Y31272
X27507Y31847
X28232Y32022
X30432Y32022
X29682Y31197
X30357Y30447
X28282Y29847
X32607Y29022
X34257Y29472
X35182Y29472
X35632Y30147
X34782Y30797
X34257Y30797
X33507Y30872
X33157Y31247
X37382Y30497
X38057Y31247
X38732Y31797
X34132Y33022
X33607Y33022
X22432Y28847
X21907Y28872
X19957Y28497
X19632Y29872
X19582Y31197
X11682Y30772
X10232Y27672
X10207Y27147
X12057Y26047
X11432Y25172
X22407Y26272
X23757Y26797
X24232Y26272
X27607Y26097
X29732Y26547
X31532Y26722
X32107Y28047
X31532Y28322
X34482Y27397
X34907Y26922
X37382Y26697
X36582Y25147
X39307Y24272
X41007Y24147
X41757Y24222
X42257Y23897
X39682Y22997
X39532Y21322
X42832Y21322
X43432Y21322
X45232Y23972
X46857Y24122
X45232Y25472
X42107Y24922
X40357Y25172
X39532Y25147
X44832Y26697
X45382Y27222
X47532Y26697
X48332Y27222
X59157Y32447
X59707Y32447
X61282Y32672
X52832Y33422
X52307Y33622
X51232Y33047
X27557Y28247
X25982Y28447
X55607Y20247
X58757Y19872
X59282Y19722
X60007Y19997
X60532Y20172
X61632Y20397
X61007Y20872
X58957Y20672
X62832Y20722
X64457Y20847
X58532Y19022
X58357Y18297
X56057Y15072
X60632Y12697
X63507Y11947
X61807Y11747
X61807Y11222
X60907Y10597
X61807Y10197
X59707Y9447
X58707Y8872
X56307Y7997
X54682Y7847
X53907Y7497
X54307Y6247
X54982Y6247
X58107Y6122
X60782Y6372
X60757Y6897
X61032Y7422
X61357Y7822
X61432Y8872
X63507Y7022
X66057Y5922
X66607Y6022
X67557Y8472
X67207Y9272
X67882Y10322
X67882Y11222
X66607Y13147
X70307Y13347
X73582Y12172
X73582Y11772
X73582Y11372
X73582Y10972
X73582Y10572
X73582Y10172
X76207Y10172
X76207Y10572
X76207Y10972
X76207Y11372
X76207Y11772
X76207Y12172
X77932Y10922
X78832Y10272
X80882Y9372
X82432Y8872
X86957Y8847
X82457Y10747
X81857Y11422
X83732Y11647
X80457Y12747
X82057Y13072
X83107Y13947
X87207Y15672
X87657Y14822
X89882Y14822
X87581Y13296
X89882Y11747
X81807Y6647
X76907Y6072
X88857Y5922
X74307Y13322
X87332Y16697
X87682Y18922
X60007Y11747
X49457Y6322
X47882Y6072
X47182Y6322
X87032Y31922
X88357Y32447
X90182Y32322
X80982Y33647
T03
X78520Y30297
X76945Y30297
X85583Y29165
X86583Y29165
X86583Y28165
X85583Y28165
X85583Y27165
X86583Y27165
X86583Y26165
X85583Y26165
X85583Y25165
X86583Y25165
X86583Y24165
X85583Y24165
X85583Y23165
X86583Y23165
X86583Y22165
X85583Y22165
X85583Y21165
X86583Y21165
X86583Y20165
X85583Y20165
X85583Y19165
X86583Y19165
X86583Y18165
X85583Y18165
X85583Y17165
X86583Y17165
X86583Y16165
X85583Y16165
X85583Y15165
X86583Y15165
X86583Y14165
X85583Y14165
X85583Y13165
X86583Y13165
X86583Y12165
X85583Y12165
X85583Y11165
X86583Y11165
X86583Y10165
X85583Y10165
T04
X41632Y13797
X41632Y14797
X16757Y22922
X16757Y23922
T05
X16945Y20433
X15945Y20433
X14945Y20433
X13945Y20433
X17945Y20433
X18945Y20433
X18945Y18433
X17945Y18433
X16945Y18433
X15945Y18433
X14945Y18433
X13945Y18433
X40717Y18433
X41717Y18433
X42717Y18433
X43717Y18433
X44717Y18433
X45717Y18433
X46717Y18433
X47717Y18433
X47717Y20433
X46717Y20433
X45717Y20433
X44717Y20433
X43717Y20433
X42717Y20433
X41717Y20433
X40717Y20433
X56753Y20162
X57753Y20162
X57753Y21162
X56753Y21162
X56753Y22162
X57753Y22162
X57753Y23162
X56753Y23162
X56753Y24162
X57753Y24162
X57753Y25162
X56753Y25162
X56753Y26162
X57753Y26162
X57753Y27162
X56753Y27162
X56753Y28162
X57753Y28162
X57753Y29162
X56753Y29162
X56753Y30162
X57753Y30162
X57753Y31162
X56753Y31162
X56753Y32162
X57753Y32162
X57753Y33162
X56753Y33162
X60753Y33162
X61753Y33162
X62753Y33162
X63753Y33162
X64753Y33162
X65753Y33162
X66753Y33162
X67753Y33162
X69753Y33162
X70753Y33162
X71753Y33162
X72753Y33162
X73753Y33162
X74753Y33162
X75753Y33162
X76753Y33162
X78353Y33162
X79353Y33162
X80353Y33162
X81353Y33162
X82353Y33162
X83353Y33162
X84353Y33162
X85353Y33162
X69753Y25162
X68753Y25162
X68753Y24162
X69753Y24162
X69753Y23162
X57753Y19162
X56753Y19162
X56753Y18162
X57753Y18162
X57753Y17162
X56753Y17162
X56753Y16162
X57753Y16162
X58753Y14162
X59753Y14162
X60753Y14162
X61753Y14162
X62753Y14162
X63753Y14162
X64753Y14162
X65753Y14162
X67753Y14162
X68753Y14162
X69753Y14162
X70753Y14162
X71753Y14162
X72753Y14162
X73753Y14162
X74753Y14162
X76753Y14162
X77753Y14162
X78753Y14162
X79753Y14162
X80753Y14162
X81753Y14162
T06
X55057Y33047
X54057Y33047
T07
X38060Y25641
X37060Y25641
X37060Y24641
X38060Y24641
X38060Y23641
X37060Y23641
X37060Y22641
X38060Y22641
X38060Y21641
X37060Y21641
X37060Y20641
X38060Y20641
X38060Y19641
X37060Y19641
X37060Y18641
X38060Y18641
X38060Y17641
X37060Y17641
X37060Y16641
X38060Y16641
X38060Y15641
X37060Y15641
X37060Y14641
X38060Y14641
X38060Y13641
X37060Y13641
X48957Y13272
X48957Y12272
X48957Y11272
X48957Y10272
X48957Y9272
X48957Y8272
X48957Y7272
X64707Y8272
X65707Y8272
X65707Y9272
X64707Y9272
X64707Y10272
X65707Y10272
X65707Y11272
X64707Y11272
X64707Y12272
X65707Y12272
X76432Y7597
X77432Y7597
X78432Y7597
X79432Y7597
X80432Y7597
X80432Y6597
X79432Y6597
X78432Y6597
X77432Y6597
X76432Y6597
X72407Y6697
X71407Y6697
X70407Y6697
X69407Y6697
X68407Y6697
X67407Y6697
X48957Y14272
X22918Y14586
X21918Y14586
X21918Y13586
X22918Y13586
X22918Y15586
X21918Y15586
X21918Y16586
X22918Y16586
X22918Y17586
X21918Y17586
X21918Y18586
X22918Y18586
X22918Y19586
X21918Y19586
X21918Y20586
X22918Y20586
X22918Y21586
X21918Y21586
X21918Y22586
X22918Y22586
X22918Y23586
X21918Y23586
X21918Y24586
X22918Y24586
X22918Y25586
X21918Y25586
X88557Y26847
X89557Y26847
X89557Y27847
X88557Y27847
X88557Y28847
X89557Y28847
X89557Y29847
X88557Y29847
T08
X68753Y23162
T09
X37489Y8803
X22645Y8747
T10
X24409Y14409
X26394Y14409
X28378Y14409
X34331Y14409
X34331Y17385
X28378Y17385
X26394Y17385
X24409Y17385
X24634Y20334
X30587Y20334
X32571Y20334
X34556Y20334
X34556Y23310
X32571Y23310
X30587Y23310
X24634Y23310
X75152Y24347
X83022Y24347
T11
X88945Y10834
X88945Y8984
X88945Y7134
T12
X85008Y8000
X51544Y8000
X51544Y31228
X85008Y31228
T13
X12567Y8590
X18886Y8590
X26386Y8590
X33886Y8590
X41386Y8590
M30
