G75*
G70*
%OFA0B0*%
%FSLAX24Y24*%
%IPPOS*%
%LPD*%
%AMOC8*
5,1,8,0,0,1.08239X$1,22.5*
%
%ADD10C,0.1000*%
%ADD11R,0.0867X0.0474*%
%ADD12R,0.0671X0.0552*%
%ADD13R,0.0789X0.0710*%
%ADD14R,0.0220X0.0710*%
%ADD15R,0.0592X0.0671*%
%ADD16R,0.0710X0.0789*%
%ADD17R,0.0671X0.0592*%
%ADD18R,0.0600X0.0300*%
%ADD19R,0.0946X0.0789*%
%ADD20R,0.0300X0.0600*%
%ADD21R,0.2641X0.2483*%
%ADD22R,0.1261X0.0710*%
%ADD23R,0.1210X0.0380*%
%ADD24R,0.0513X0.0474*%
%ADD25R,0.0474X0.0513*%
%ADD26C,0.0477*%
%ADD27R,0.0860X0.0300*%
%ADD28R,0.0660X0.0220*%
%ADD29R,0.0867X0.1852*%
%ADD30R,0.0552X0.0671*%
%ADD31R,0.0680X0.0300*%
%ADD32C,0.0780*%
%ADD33OC8,0.0780*%
%ADD34C,0.0674*%
%ADD35R,0.0540X0.0220*%
%ADD36R,0.0300X0.0680*%
%ADD37OC8,0.0710*%
%ADD38C,0.0710*%
%ADD39R,0.0631X0.1497*%
%ADD40R,0.1419X0.0828*%
%ADD41R,0.0380X0.1210*%
%ADD42C,0.0640*%
%ADD43C,0.0946*%
%ADD44OC8,0.0946*%
%ADD45OC8,0.0634*%
%ADD46OC8,0.0680*%
%ADD47R,0.0320X0.0690*%
%ADD48R,0.0749X0.0789*%
%ADD49C,0.1299*%
%ADD50C,0.0848*%
%ADD51C,0.4885*%
%ADD52C,0.1172*%
%ADD53R,0.0690X0.0320*%
%ADD54OC8,0.0674*%
%ADD55R,0.0430X0.0580*%
%ADD56C,0.0595*%
%ADD57R,0.0595X0.0595*%
%ADD58C,0.1386*%
%ADD59C,0.0674*%
%ADD60R,0.0631X0.0474*%
%ADD61R,0.0710X0.0790*%
%ADD62R,0.0580X0.0300*%
%ADD63R,0.0631X0.0789*%
%ADD64R,0.0789X0.0749*%
%ADD65C,0.0634*%
%ADD66C,0.0103*%
%ADD67R,0.0277X0.0336*%
%ADD68R,0.0220X0.0600*%
%ADD69R,0.0674X0.0674*%
%ADD70R,0.0516X0.0516*%
D10*
X019133Y007887D02*
X021983Y010737D01*
X026658Y010737D01*
X028283Y012362D01*
X028283Y013337D01*
X032058Y014762D02*
X034908Y014762D01*
X035758Y013912D01*
X035758Y012962D01*
X036133Y012587D01*
X037683Y012587D01*
X035008Y010887D02*
X033608Y010887D01*
X028358Y016137D01*
X028333Y016187D02*
X028258Y016187D01*
X026283Y016287D02*
X026233Y016237D01*
X026283Y016287D02*
X026283Y019737D01*
X028758Y022212D01*
X030483Y022212D01*
X031583Y020762D02*
X032358Y021537D01*
X032358Y022287D01*
X031583Y020762D02*
X029633Y020762D01*
X028783Y019912D01*
X028783Y018037D01*
X032058Y014762D01*
X035533Y016512D02*
X036508Y015537D01*
X037508Y015537D01*
X035533Y016512D02*
X035533Y018087D01*
X034458Y019162D01*
X035008Y010887D02*
X036583Y009312D01*
X039208Y009312D01*
X040758Y007762D01*
X040933Y007762D01*
D11*
X044166Y011562D03*
X047000Y011562D03*
X047000Y012562D03*
X047000Y013562D03*
X047000Y014562D03*
X044166Y014562D03*
X044166Y013562D03*
X044166Y012562D03*
X014600Y020462D03*
X014600Y021462D03*
X014600Y022462D03*
X014600Y023462D03*
X011766Y023462D03*
X011766Y022462D03*
X011766Y021462D03*
X011766Y020462D03*
D12*
X012687Y024412D03*
X013829Y024412D03*
X024812Y023787D03*
X025954Y023787D03*
X029662Y011762D03*
X030804Y011762D03*
X044389Y010674D03*
X045530Y010674D03*
D13*
X015583Y005061D03*
X015583Y006164D03*
X023158Y006164D03*
X023158Y005061D03*
X030758Y005061D03*
X030758Y006164D03*
X037908Y006164D03*
X037908Y005061D03*
D14*
X035163Y026912D03*
X034903Y026912D03*
X034663Y026912D03*
X034403Y026912D03*
X034163Y026912D03*
X033903Y026912D03*
X033663Y026912D03*
X033403Y026912D03*
X033163Y026912D03*
X032903Y026912D03*
X032663Y026912D03*
X032403Y026912D03*
X032403Y029012D03*
X032663Y029012D03*
X032903Y029012D03*
X033163Y029012D03*
X033403Y029012D03*
X033663Y029012D03*
X033903Y029012D03*
X034163Y029012D03*
X034403Y029012D03*
X034663Y029012D03*
X034903Y029012D03*
X035163Y029012D03*
D15*
X031532Y029462D03*
X030784Y029462D03*
X039584Y029037D03*
X040332Y029037D03*
X046584Y029587D03*
X047332Y029587D03*
X047657Y027762D03*
X046909Y027762D03*
X042732Y024487D03*
X041984Y024487D03*
X041984Y023712D03*
X042732Y023712D03*
X047284Y023462D03*
X048032Y023462D03*
X069584Y015012D03*
X070332Y015012D03*
X075534Y016137D03*
X076282Y016137D03*
X077609Y016137D03*
X078357Y016137D03*
X079509Y016912D03*
X080257Y016912D03*
X087934Y015537D03*
X088682Y015537D03*
X088682Y014462D03*
X087934Y014462D03*
X063407Y011337D03*
X062659Y011337D03*
X055632Y007537D03*
X054884Y007537D03*
X052007Y008662D03*
X051259Y008662D03*
X051259Y009437D03*
X052007Y009437D03*
X052007Y010212D03*
X051259Y010212D03*
X051259Y010987D03*
X052007Y010987D03*
X052007Y011762D03*
X051259Y011762D03*
X051259Y012537D03*
X052007Y012537D03*
X047082Y008937D03*
X046334Y008937D03*
X053059Y005887D03*
X053807Y005887D03*
X053807Y005112D03*
X053059Y005112D03*
X062659Y005287D03*
X063407Y005287D03*
X040282Y014362D03*
X039534Y014362D03*
X019232Y021062D03*
X018484Y021062D03*
X081959Y028112D03*
X082707Y028112D03*
D16*
X081259Y029762D03*
X080157Y029762D03*
X031434Y028212D03*
X030332Y028212D03*
X054882Y005762D03*
X055984Y005762D03*
D17*
X059258Y005413D03*
X060033Y005413D03*
X060033Y006161D03*
X059258Y006161D03*
X068608Y014238D03*
X068608Y014986D03*
X063183Y015263D03*
X062408Y015263D03*
X061633Y015263D03*
X060458Y015263D03*
X059683Y015263D03*
X058908Y015263D03*
X058908Y016011D03*
X059683Y016011D03*
X060458Y016011D03*
X061633Y016011D03*
X062408Y016011D03*
X063183Y016011D03*
X074583Y014986D03*
X074583Y014238D03*
X084133Y014993D03*
X084133Y015662D03*
X084133Y016332D03*
X084133Y017318D03*
X084133Y017987D03*
X084133Y018657D03*
X084133Y019793D03*
X084133Y020462D03*
X084133Y021132D03*
X084283Y022888D03*
X084283Y023636D03*
X087633Y023861D03*
X087633Y023113D03*
X087408Y026393D03*
X087408Y027062D03*
X087408Y027732D03*
X088308Y011661D03*
X088308Y010913D03*
X043533Y029438D03*
X043533Y030186D03*
X029183Y026136D03*
X029183Y025388D03*
X012283Y029938D03*
X012283Y030686D03*
X029858Y010843D03*
X029858Y010094D03*
D18*
X030953Y010217D03*
X031813Y010587D03*
X030953Y010957D03*
X028288Y025342D03*
X027428Y025712D03*
X028288Y026082D03*
X014063Y030312D03*
X013203Y029942D03*
X013203Y030682D03*
D19*
X086509Y006991D03*
X086509Y004983D03*
D20*
X088308Y012757D03*
X087938Y013617D03*
X088678Y013617D03*
X047078Y009757D03*
X046338Y009757D03*
X046708Y010617D03*
D21*
X074996Y010037D03*
D22*
X077823Y009140D03*
X077823Y010935D03*
D23*
X069338Y009637D03*
X067778Y009637D03*
D24*
X055643Y009362D03*
X054973Y009362D03*
X053668Y009137D03*
X052998Y009137D03*
X054973Y008312D03*
X055643Y008312D03*
X055743Y006712D03*
X055073Y006712D03*
X053643Y010312D03*
X052973Y010312D03*
X052793Y014787D03*
X052123Y014787D03*
X049643Y014787D03*
X048973Y014787D03*
X049198Y020062D03*
X049868Y020062D03*
X051273Y020062D03*
X051943Y020062D03*
X043143Y022762D03*
X042473Y022762D03*
X026668Y029462D03*
X025998Y029462D03*
X020168Y030612D03*
X019498Y030612D03*
X044598Y030512D03*
X045268Y030512D03*
X065498Y023362D03*
X066168Y023362D03*
X072773Y023987D03*
X073443Y023987D03*
X088723Y024712D03*
X089393Y024712D03*
X088668Y016412D03*
X087998Y016412D03*
X070143Y014237D03*
X069473Y014237D03*
D25*
X067833Y014303D03*
X067833Y014972D03*
X072633Y014947D03*
X072633Y014278D03*
X073808Y014278D03*
X073808Y014947D03*
X082458Y015228D03*
X082458Y015897D03*
X060933Y007872D03*
X060933Y007203D03*
X058408Y006072D03*
X057633Y006072D03*
X056858Y006072D03*
X056858Y005403D03*
X057633Y005403D03*
X058408Y005403D03*
X025958Y026403D03*
X025958Y027072D03*
X019533Y027578D03*
X019533Y028247D03*
X036473Y029937D03*
X037143Y029937D03*
X048758Y027597D03*
X048758Y026928D03*
D26*
X070708Y023687D03*
X071259Y023687D03*
D27*
X066278Y022637D03*
X066278Y022137D03*
X066278Y021637D03*
X066278Y021137D03*
X064338Y021137D03*
X064338Y021637D03*
X064338Y022137D03*
X064338Y022637D03*
X079563Y016137D03*
X079563Y015637D03*
X079563Y015137D03*
X079563Y014637D03*
X081503Y014637D03*
X081503Y015137D03*
X081503Y015637D03*
X081503Y016137D03*
X046078Y022837D03*
X046078Y023337D03*
X046078Y023837D03*
X046078Y024337D03*
X044138Y024337D03*
X044138Y023837D03*
X044138Y023337D03*
X044138Y022837D03*
D28*
X071223Y022772D03*
X071223Y023022D03*
X071223Y023282D03*
X071223Y022512D03*
X071223Y022252D03*
X071223Y022002D03*
X071223Y021742D03*
X073443Y021742D03*
X073443Y022002D03*
X073443Y022252D03*
X073443Y022512D03*
X073443Y022772D03*
X073443Y023022D03*
X073443Y023282D03*
D29*
X062683Y009986D03*
X062683Y006639D03*
D30*
X074208Y022717D03*
X074208Y023858D03*
D31*
X080833Y027612D03*
X079983Y028012D03*
X080833Y028412D03*
D32*
X076883Y029162D03*
X076633Y029162D03*
D33*
X078383Y029162D03*
X078633Y029162D03*
D34*
X072308Y005859D02*
X072308Y005266D01*
X071308Y005266D02*
X071308Y005859D01*
X070308Y005859D02*
X070308Y005266D01*
X069308Y005266D02*
X069308Y005859D01*
X068308Y005859D02*
X068308Y005266D01*
X067308Y005266D02*
X067308Y005859D01*
D35*
X040978Y023252D03*
X040978Y023512D03*
X040978Y023772D03*
X040238Y023772D03*
X040238Y023512D03*
X040238Y023252D03*
D36*
X075483Y015237D03*
X076283Y015237D03*
X077583Y015287D03*
X078383Y015287D03*
X077983Y014437D03*
X075883Y014387D03*
D37*
X042108Y013662D03*
X016658Y021787D03*
D38*
X016658Y022787D03*
X042108Y012662D03*
D39*
X042108Y012139D03*
X042108Y014147D03*
X016658Y021303D03*
X016658Y023311D03*
D40*
X018858Y023505D03*
X018858Y021970D03*
X039908Y013480D03*
X039908Y011945D03*
D41*
X082333Y010692D03*
X082333Y009132D03*
D42*
X054958Y031632D02*
X054958Y032192D01*
X053958Y032192D02*
X053958Y031632D01*
D43*
X075053Y023212D03*
D44*
X082923Y023212D03*
X037390Y007669D03*
X022546Y007612D03*
D45*
X056654Y015027D03*
X057654Y015027D03*
X057654Y016027D03*
X056654Y016027D03*
X056654Y017027D03*
X057654Y017027D03*
X057654Y018027D03*
X056654Y018027D03*
X056654Y019027D03*
X057654Y019027D03*
X057654Y020027D03*
X056654Y020027D03*
X056654Y021027D03*
X057654Y021027D03*
X057654Y022027D03*
X056654Y022027D03*
X056654Y023027D03*
X057654Y023027D03*
X057654Y024027D03*
X056654Y024027D03*
X056654Y025027D03*
X057654Y025027D03*
X057654Y026027D03*
X056654Y026027D03*
X056654Y027027D03*
X057654Y027027D03*
X057654Y028027D03*
X056654Y028027D03*
X056654Y029027D03*
X057654Y029027D03*
X057654Y030027D03*
X056654Y030027D03*
X056654Y031027D03*
X057654Y031027D03*
X057654Y032027D03*
X056654Y032027D03*
X060654Y032027D03*
X061654Y032027D03*
X062654Y032027D03*
X063654Y032027D03*
X064654Y032027D03*
X065654Y032027D03*
X066654Y032027D03*
X067654Y032027D03*
X069654Y032027D03*
X070654Y032027D03*
X071654Y032027D03*
X072654Y032027D03*
X073654Y032027D03*
X074654Y032027D03*
X075654Y032027D03*
X076654Y032027D03*
X078254Y032027D03*
X079254Y032027D03*
X080254Y032027D03*
X081254Y032027D03*
X082254Y032027D03*
X083254Y032027D03*
X084254Y032027D03*
X085254Y032027D03*
X069654Y024027D03*
X068654Y024027D03*
X068654Y023027D03*
X069654Y023027D03*
X069654Y022027D03*
X069654Y013027D03*
X070654Y013027D03*
X071654Y013027D03*
X072654Y013027D03*
X073654Y013027D03*
X074654Y013027D03*
X076654Y013027D03*
X077654Y013027D03*
X078654Y013027D03*
X079654Y013027D03*
X080654Y013027D03*
X081654Y013027D03*
X068654Y013027D03*
X067654Y013027D03*
X065654Y013027D03*
X064654Y013027D03*
X063654Y013027D03*
X062654Y013027D03*
X061654Y013027D03*
X060654Y013027D03*
X059654Y013027D03*
X058654Y013027D03*
D46*
X068654Y022027D03*
D47*
X025333Y027077D03*
X024833Y027077D03*
X024333Y027077D03*
X023833Y027077D03*
X023333Y027077D03*
X022833Y027077D03*
X022333Y027077D03*
X021833Y027077D03*
X018908Y028477D03*
X018408Y028477D03*
X017908Y028477D03*
X017408Y028477D03*
X016908Y028477D03*
X016408Y028477D03*
X015908Y028477D03*
X015408Y028477D03*
X015408Y030597D03*
X015908Y030597D03*
X016408Y030597D03*
X016908Y030597D03*
X017408Y030597D03*
X017908Y030597D03*
X018408Y030597D03*
X018908Y030597D03*
X021833Y029197D03*
X022333Y029197D03*
X022833Y029197D03*
X023333Y029197D03*
X023833Y029197D03*
X024333Y029197D03*
X024833Y029197D03*
X025333Y029197D03*
D48*
X020233Y023488D03*
X020233Y021873D03*
X035783Y015944D03*
X035783Y014330D03*
D49*
X028279Y013274D03*
X026294Y013274D03*
X024310Y013274D03*
X024310Y016251D03*
X026294Y016251D03*
X028279Y016251D03*
X030488Y019199D03*
X032472Y019199D03*
X034456Y019199D03*
X034456Y022176D03*
X032472Y022176D03*
X030488Y022176D03*
D50*
X024535Y022176D03*
X024535Y019199D03*
X034231Y016251D03*
X034231Y013274D03*
D51*
X033689Y007437D03*
X026189Y007437D03*
X018689Y007437D03*
X012370Y007437D03*
X041189Y007437D03*
D52*
X088216Y007831D02*
X089281Y007831D01*
X089281Y009681D02*
X088216Y009681D01*
X088216Y005981D02*
X089281Y005981D01*
D53*
X052218Y015412D03*
X052218Y015912D03*
X052218Y016412D03*
X052218Y016912D03*
X052218Y017412D03*
X052218Y017912D03*
X052218Y018412D03*
X052218Y018912D03*
X050098Y018912D03*
X050098Y018412D03*
X050098Y017912D03*
X050098Y017412D03*
X050098Y016912D03*
X050098Y016412D03*
X050098Y015912D03*
X050098Y015412D03*
X049348Y020737D03*
X049348Y021237D03*
X049348Y021737D03*
X049348Y022237D03*
X049348Y022737D03*
X049348Y023237D03*
X049348Y023737D03*
X049348Y024237D03*
X051468Y024237D03*
X051468Y023737D03*
X051468Y023237D03*
X051468Y022737D03*
X051468Y022237D03*
X051468Y021737D03*
X051468Y021237D03*
X051468Y020737D03*
D54*
X037961Y021063D03*
X036961Y021063D03*
X036961Y022063D03*
X037961Y022063D03*
X037961Y023063D03*
X036961Y023063D03*
X036961Y024063D03*
X037961Y024063D03*
X037961Y020063D03*
X036961Y020063D03*
X036961Y019063D03*
X037961Y019063D03*
X037961Y018063D03*
X036961Y018063D03*
X036961Y017063D03*
X037961Y017063D03*
X037961Y016063D03*
X036961Y016063D03*
X036961Y015063D03*
X037961Y015063D03*
X037961Y014063D03*
X036961Y014063D03*
X036961Y013063D03*
X037961Y013063D03*
X037961Y012063D03*
X036961Y012063D03*
X048958Y012137D03*
X048958Y013137D03*
X048958Y011137D03*
X048958Y010137D03*
X048958Y009137D03*
X048958Y008137D03*
X048958Y007137D03*
X048958Y006137D03*
X064608Y007137D03*
X064608Y008137D03*
X065608Y008137D03*
X065608Y009137D03*
X064608Y009137D03*
X064608Y010137D03*
X065608Y010137D03*
X065608Y011137D03*
X064608Y011137D03*
X089458Y025712D03*
X089458Y026712D03*
X088458Y026712D03*
X088458Y027712D03*
X089458Y027712D03*
X089458Y028712D03*
X088458Y028712D03*
X022819Y024464D03*
X021819Y024464D03*
X021819Y023464D03*
X022819Y023464D03*
X022819Y022464D03*
X021819Y022464D03*
X021819Y021464D03*
X022819Y021464D03*
X022819Y020464D03*
X021819Y020464D03*
X021819Y019464D03*
X022819Y019464D03*
X022819Y018464D03*
X021819Y018464D03*
X021819Y017464D03*
X022819Y017464D03*
X022819Y016464D03*
X021819Y016464D03*
X021819Y015464D03*
X022819Y015464D03*
X022819Y014464D03*
X021819Y014464D03*
X021819Y013464D03*
X022819Y013464D03*
X022819Y012464D03*
X021819Y012464D03*
D55*
X046883Y024487D03*
X047883Y024487D03*
X047883Y026987D03*
X046883Y026987D03*
D56*
X085386Y027012D03*
X086386Y027012D03*
X086386Y026012D03*
X085386Y026012D03*
X085386Y025012D03*
X086386Y025012D03*
X086386Y024012D03*
X085386Y024012D03*
X085386Y023012D03*
X086386Y023012D03*
X086386Y022012D03*
X085386Y022012D03*
X085386Y021012D03*
X086386Y021012D03*
X086386Y020012D03*
X085386Y020012D03*
X085386Y019012D03*
X086386Y019012D03*
X086386Y018012D03*
X085386Y018012D03*
X085386Y017012D03*
X086386Y017012D03*
X086386Y016012D03*
X085386Y016012D03*
X085386Y015012D03*
X086386Y015012D03*
X086386Y014012D03*
X085386Y014012D03*
X085386Y013012D03*
X086386Y013012D03*
X086386Y012012D03*
X085386Y012012D03*
X085386Y011012D03*
X086386Y011012D03*
X086386Y010012D03*
X085386Y010012D03*
X085386Y009012D03*
X086386Y009012D03*
X085386Y028012D03*
D57*
X086386Y028012D03*
D58*
X084811Y030075D03*
X051347Y030075D03*
X051347Y006846D03*
X084811Y006846D03*
D59*
X080333Y006462D03*
X079333Y006462D03*
X078333Y006462D03*
X077333Y006462D03*
X076333Y006462D03*
X076333Y005462D03*
X077333Y005462D03*
X078333Y005462D03*
X079333Y005462D03*
X080333Y005462D03*
D60*
X042441Y028613D03*
X041575Y028987D03*
X042441Y029361D03*
D61*
X041518Y020112D03*
X040398Y020112D03*
D62*
X044623Y029067D03*
X044623Y029437D03*
X044623Y029807D03*
X045643Y029807D03*
X045643Y029067D03*
D63*
X040827Y029937D03*
X039489Y029937D03*
D64*
X038090Y029037D03*
X036476Y029037D03*
X045626Y016362D03*
X047240Y016362D03*
X018996Y016262D03*
X017382Y016262D03*
D65*
X017748Y017279D03*
X016748Y017279D03*
X015748Y017279D03*
X014748Y017279D03*
X013748Y017279D03*
X013748Y019279D03*
X014748Y019279D03*
X015748Y019279D03*
X016748Y019279D03*
X017748Y019279D03*
X018748Y019279D03*
X018748Y017279D03*
X040520Y017279D03*
X041520Y017279D03*
X042520Y017279D03*
X043520Y017279D03*
X044520Y017279D03*
X045520Y017279D03*
X046520Y017279D03*
X047520Y017279D03*
X047520Y019279D03*
X046520Y019279D03*
X045520Y019279D03*
X044520Y019279D03*
X043520Y019279D03*
X042520Y019279D03*
X041520Y019279D03*
X040520Y019279D03*
D66*
X057352Y010451D02*
X057352Y010139D01*
X057248Y010139D01*
X057248Y010451D01*
X057352Y010451D01*
X057352Y010241D02*
X057248Y010241D01*
X057248Y010343D02*
X057352Y010343D01*
X057352Y010445D02*
X057248Y010445D01*
X057549Y010451D02*
X057549Y010139D01*
X057445Y010139D01*
X057445Y010451D01*
X057549Y010451D01*
X057549Y010241D02*
X057445Y010241D01*
X057445Y010343D02*
X057549Y010343D01*
X057549Y010445D02*
X057445Y010445D01*
X057746Y010451D02*
X057746Y010139D01*
X057642Y010139D01*
X057642Y010451D01*
X057746Y010451D01*
X057746Y010241D02*
X057642Y010241D01*
X057642Y010343D02*
X057746Y010343D01*
X057746Y010445D02*
X057642Y010445D01*
X057943Y010451D02*
X057943Y010139D01*
X057839Y010139D01*
X057839Y010451D01*
X057943Y010451D01*
X057943Y010241D02*
X057839Y010241D01*
X057839Y010343D02*
X057943Y010343D01*
X057943Y010445D02*
X057839Y010445D01*
X058140Y010451D02*
X058140Y010139D01*
X058036Y010139D01*
X058036Y010451D01*
X058140Y010451D01*
X058140Y010241D02*
X058036Y010241D01*
X058036Y010343D02*
X058140Y010343D01*
X058140Y010445D02*
X058036Y010445D01*
X058337Y010451D02*
X058337Y010139D01*
X058233Y010139D01*
X058233Y010451D01*
X058337Y010451D01*
X058337Y010241D02*
X058233Y010241D01*
X058233Y010343D02*
X058337Y010343D01*
X058337Y010445D02*
X058233Y010445D01*
X058534Y010451D02*
X058534Y010139D01*
X058430Y010139D01*
X058430Y010451D01*
X058534Y010451D01*
X058534Y010241D02*
X058430Y010241D01*
X058430Y010343D02*
X058534Y010343D01*
X058534Y010445D02*
X058430Y010445D01*
X058730Y010451D02*
X058730Y010139D01*
X058626Y010139D01*
X058626Y010451D01*
X058730Y010451D01*
X058730Y010241D02*
X058626Y010241D01*
X058626Y010343D02*
X058730Y010343D01*
X058730Y010445D02*
X058626Y010445D01*
X058927Y010451D02*
X058927Y010139D01*
X058823Y010139D01*
X058823Y010451D01*
X058927Y010451D01*
X058927Y010241D02*
X058823Y010241D01*
X058823Y010343D02*
X058927Y010343D01*
X058927Y010445D02*
X058823Y010445D01*
X059124Y010451D02*
X059124Y010139D01*
X059020Y010139D01*
X059020Y010451D01*
X059124Y010451D01*
X059124Y010241D02*
X059020Y010241D01*
X059020Y010343D02*
X059124Y010343D01*
X059124Y010445D02*
X059020Y010445D01*
X059321Y010451D02*
X059321Y010139D01*
X059217Y010139D01*
X059217Y010451D01*
X059321Y010451D01*
X059321Y010241D02*
X059217Y010241D01*
X059217Y010343D02*
X059321Y010343D01*
X059321Y010445D02*
X059217Y010445D01*
X059518Y010451D02*
X059518Y010139D01*
X059414Y010139D01*
X059414Y010451D01*
X059518Y010451D01*
X059518Y010241D02*
X059414Y010241D01*
X059414Y010343D02*
X059518Y010343D01*
X059518Y010445D02*
X059414Y010445D01*
X059910Y009643D02*
X060222Y009643D01*
X059910Y009643D02*
X059910Y009747D01*
X060222Y009747D01*
X060222Y009643D01*
X060222Y009745D02*
X059910Y009745D01*
X059910Y009446D02*
X060222Y009446D01*
X059910Y009446D02*
X059910Y009550D01*
X060222Y009550D01*
X060222Y009446D01*
X060222Y009548D02*
X059910Y009548D01*
X059910Y009249D02*
X060222Y009249D01*
X059910Y009249D02*
X059910Y009353D01*
X060222Y009353D01*
X060222Y009249D01*
X060222Y009351D02*
X059910Y009351D01*
X059910Y009053D02*
X060222Y009053D01*
X059910Y009053D02*
X059910Y009157D01*
X060222Y009157D01*
X060222Y009053D01*
X060222Y009155D02*
X059910Y009155D01*
X059910Y008856D02*
X060222Y008856D01*
X059910Y008856D02*
X059910Y008960D01*
X060222Y008960D01*
X060222Y008856D01*
X060222Y008958D02*
X059910Y008958D01*
X059910Y008659D02*
X060222Y008659D01*
X059910Y008659D02*
X059910Y008763D01*
X060222Y008763D01*
X060222Y008659D01*
X060222Y008761D02*
X059910Y008761D01*
X059910Y008462D02*
X060222Y008462D01*
X059910Y008462D02*
X059910Y008566D01*
X060222Y008566D01*
X060222Y008462D01*
X060222Y008564D02*
X059910Y008564D01*
X059910Y008265D02*
X060222Y008265D01*
X059910Y008265D02*
X059910Y008369D01*
X060222Y008369D01*
X060222Y008265D01*
X060222Y008367D02*
X059910Y008367D01*
X059910Y008068D02*
X060222Y008068D01*
X059910Y008068D02*
X059910Y008172D01*
X060222Y008172D01*
X060222Y008068D01*
X060222Y008170D02*
X059910Y008170D01*
X059910Y007871D02*
X060222Y007871D01*
X059910Y007871D02*
X059910Y007975D01*
X060222Y007975D01*
X060222Y007871D01*
X060222Y007973D02*
X059910Y007973D01*
X059910Y007675D02*
X060222Y007675D01*
X059910Y007675D02*
X059910Y007779D01*
X060222Y007779D01*
X060222Y007675D01*
X060222Y007777D02*
X059910Y007777D01*
X059910Y007478D02*
X060222Y007478D01*
X059910Y007478D02*
X059910Y007582D01*
X060222Y007582D01*
X060222Y007478D01*
X060222Y007580D02*
X059910Y007580D01*
X059518Y007085D02*
X059518Y006773D01*
X059414Y006773D01*
X059414Y007085D01*
X059518Y007085D01*
X059518Y006875D02*
X059414Y006875D01*
X059414Y006977D02*
X059518Y006977D01*
X059518Y007079D02*
X059414Y007079D01*
X059321Y007085D02*
X059321Y006773D01*
X059217Y006773D01*
X059217Y007085D01*
X059321Y007085D01*
X059321Y006875D02*
X059217Y006875D01*
X059217Y006977D02*
X059321Y006977D01*
X059321Y007079D02*
X059217Y007079D01*
X059124Y007085D02*
X059124Y006773D01*
X059020Y006773D01*
X059020Y007085D01*
X059124Y007085D01*
X059124Y006875D02*
X059020Y006875D01*
X059020Y006977D02*
X059124Y006977D01*
X059124Y007079D02*
X059020Y007079D01*
X058927Y007085D02*
X058927Y006773D01*
X058823Y006773D01*
X058823Y007085D01*
X058927Y007085D01*
X058927Y006875D02*
X058823Y006875D01*
X058823Y006977D02*
X058927Y006977D01*
X058927Y007079D02*
X058823Y007079D01*
X058730Y007085D02*
X058730Y006773D01*
X058626Y006773D01*
X058626Y007085D01*
X058730Y007085D01*
X058730Y006875D02*
X058626Y006875D01*
X058626Y006977D02*
X058730Y006977D01*
X058730Y007079D02*
X058626Y007079D01*
X058534Y007085D02*
X058534Y006773D01*
X058430Y006773D01*
X058430Y007085D01*
X058534Y007085D01*
X058534Y006875D02*
X058430Y006875D01*
X058430Y006977D02*
X058534Y006977D01*
X058534Y007079D02*
X058430Y007079D01*
X058337Y007085D02*
X058337Y006773D01*
X058233Y006773D01*
X058233Y007085D01*
X058337Y007085D01*
X058337Y006875D02*
X058233Y006875D01*
X058233Y006977D02*
X058337Y006977D01*
X058337Y007079D02*
X058233Y007079D01*
X058140Y007085D02*
X058140Y006773D01*
X058036Y006773D01*
X058036Y007085D01*
X058140Y007085D01*
X058140Y006875D02*
X058036Y006875D01*
X058036Y006977D02*
X058140Y006977D01*
X058140Y007079D02*
X058036Y007079D01*
X057943Y007085D02*
X057943Y006773D01*
X057839Y006773D01*
X057839Y007085D01*
X057943Y007085D01*
X057943Y006875D02*
X057839Y006875D01*
X057839Y006977D02*
X057943Y006977D01*
X057943Y007079D02*
X057839Y007079D01*
X057746Y007085D02*
X057746Y006773D01*
X057642Y006773D01*
X057642Y007085D01*
X057746Y007085D01*
X057746Y006875D02*
X057642Y006875D01*
X057642Y006977D02*
X057746Y006977D01*
X057746Y007079D02*
X057642Y007079D01*
X057549Y007085D02*
X057549Y006773D01*
X057445Y006773D01*
X057445Y007085D01*
X057549Y007085D01*
X057549Y006875D02*
X057445Y006875D01*
X057445Y006977D02*
X057549Y006977D01*
X057549Y007079D02*
X057445Y007079D01*
X057352Y007085D02*
X057352Y006773D01*
X057248Y006773D01*
X057248Y007085D01*
X057352Y007085D01*
X057352Y006875D02*
X057248Y006875D01*
X057248Y006977D02*
X057352Y006977D01*
X057352Y007079D02*
X057248Y007079D01*
X056856Y007478D02*
X056544Y007478D01*
X056544Y007582D01*
X056856Y007582D01*
X056856Y007478D01*
X056856Y007580D02*
X056544Y007580D01*
X056544Y007675D02*
X056856Y007675D01*
X056544Y007675D02*
X056544Y007779D01*
X056856Y007779D01*
X056856Y007675D01*
X056856Y007777D02*
X056544Y007777D01*
X056544Y007871D02*
X056856Y007871D01*
X056544Y007871D02*
X056544Y007975D01*
X056856Y007975D01*
X056856Y007871D01*
X056856Y007973D02*
X056544Y007973D01*
X056544Y008068D02*
X056856Y008068D01*
X056544Y008068D02*
X056544Y008172D01*
X056856Y008172D01*
X056856Y008068D01*
X056856Y008170D02*
X056544Y008170D01*
X056544Y008265D02*
X056856Y008265D01*
X056544Y008265D02*
X056544Y008369D01*
X056856Y008369D01*
X056856Y008265D01*
X056856Y008367D02*
X056544Y008367D01*
X056544Y008462D02*
X056856Y008462D01*
X056544Y008462D02*
X056544Y008566D01*
X056856Y008566D01*
X056856Y008462D01*
X056856Y008564D02*
X056544Y008564D01*
X056544Y008659D02*
X056856Y008659D01*
X056544Y008659D02*
X056544Y008763D01*
X056856Y008763D01*
X056856Y008659D01*
X056856Y008761D02*
X056544Y008761D01*
X056544Y008856D02*
X056856Y008856D01*
X056544Y008856D02*
X056544Y008960D01*
X056856Y008960D01*
X056856Y008856D01*
X056856Y008958D02*
X056544Y008958D01*
X056544Y009053D02*
X056856Y009053D01*
X056544Y009053D02*
X056544Y009157D01*
X056856Y009157D01*
X056856Y009053D01*
X056856Y009155D02*
X056544Y009155D01*
X056544Y009249D02*
X056856Y009249D01*
X056544Y009249D02*
X056544Y009353D01*
X056856Y009353D01*
X056856Y009249D01*
X056856Y009351D02*
X056544Y009351D01*
X056544Y009446D02*
X056856Y009446D01*
X056544Y009446D02*
X056544Y009550D01*
X056856Y009550D01*
X056856Y009446D01*
X056856Y009548D02*
X056544Y009548D01*
X056544Y009643D02*
X056856Y009643D01*
X056544Y009643D02*
X056544Y009747D01*
X056856Y009747D01*
X056856Y009643D01*
X056856Y009745D02*
X056544Y009745D01*
D67*
X057411Y011072D03*
X057726Y011072D03*
X058041Y011072D03*
X058356Y011072D03*
X058786Y011072D03*
X059101Y011072D03*
X059416Y011072D03*
X059731Y011072D03*
X059731Y011603D03*
X059416Y011603D03*
X059101Y011603D03*
X058786Y011603D03*
X058356Y011603D03*
X058041Y011603D03*
X057726Y011603D03*
X057411Y011603D03*
D68*
X071128Y015042D03*
X071378Y015042D03*
X071638Y015042D03*
X071888Y015042D03*
X071888Y016482D03*
X071638Y016482D03*
X071378Y016482D03*
X071128Y016482D03*
X050238Y026692D03*
X049988Y026692D03*
X049728Y026692D03*
X049478Y026692D03*
X049478Y028132D03*
X049728Y028132D03*
X049988Y028132D03*
X050238Y028132D03*
D69*
X088458Y025712D03*
X065608Y007137D03*
D70*
X035390Y007669D03*
X020546Y007612D03*
M02*
