G75*
G70*
%OFA0B0*%
%FSLAX24Y24*%
%IPPOS*%
%LPD*%
%AMOC8*
5,1,8,0,0,1.08239X$1,22.5*
%
%ADD10C,0.0039*%
%ADD11C,0.0000*%
D10*
X012370Y005736D02*
X081268Y005736D01*
X081268Y047074D01*
X012370Y047074D01*
X012370Y005736D01*
D11*
X046989Y009661D02*
X046991Y009711D01*
X046997Y009761D01*
X047007Y009810D01*
X047021Y009858D01*
X047038Y009905D01*
X047059Y009950D01*
X047084Y009994D01*
X047112Y010035D01*
X047144Y010074D01*
X047178Y010111D01*
X047215Y010145D01*
X047255Y010175D01*
X047297Y010202D01*
X047341Y010226D01*
X047387Y010247D01*
X047434Y010263D01*
X047482Y010276D01*
X047532Y010285D01*
X047581Y010290D01*
X047632Y010291D01*
X047682Y010288D01*
X047731Y010281D01*
X047780Y010270D01*
X047828Y010255D01*
X047874Y010237D01*
X047919Y010215D01*
X047962Y010189D01*
X048003Y010160D01*
X048042Y010128D01*
X048078Y010093D01*
X048110Y010055D01*
X048140Y010015D01*
X048167Y009972D01*
X048190Y009928D01*
X048209Y009882D01*
X048225Y009834D01*
X048237Y009785D01*
X048245Y009736D01*
X048249Y009686D01*
X048249Y009636D01*
X048245Y009586D01*
X048237Y009537D01*
X048225Y009488D01*
X048209Y009440D01*
X048190Y009394D01*
X048167Y009350D01*
X048140Y009307D01*
X048110Y009267D01*
X048078Y009229D01*
X048042Y009194D01*
X048003Y009162D01*
X047962Y009133D01*
X047919Y009107D01*
X047874Y009085D01*
X047828Y009067D01*
X047780Y009052D01*
X047731Y009041D01*
X047682Y009034D01*
X047632Y009031D01*
X047581Y009032D01*
X047532Y009037D01*
X047482Y009046D01*
X047434Y009059D01*
X047387Y009075D01*
X047341Y009096D01*
X047297Y009120D01*
X047255Y009147D01*
X047215Y009177D01*
X047178Y009211D01*
X047144Y009248D01*
X047112Y009287D01*
X047084Y009328D01*
X047059Y009372D01*
X047038Y009417D01*
X047021Y009464D01*
X047007Y009512D01*
X046997Y009561D01*
X046991Y009611D01*
X046989Y009661D01*
X070217Y009661D02*
X070219Y009711D01*
X070225Y009761D01*
X070235Y009810D01*
X070249Y009858D01*
X070266Y009905D01*
X070287Y009950D01*
X070312Y009994D01*
X070340Y010035D01*
X070372Y010074D01*
X070406Y010111D01*
X070443Y010145D01*
X070483Y010175D01*
X070525Y010202D01*
X070569Y010226D01*
X070615Y010247D01*
X070662Y010263D01*
X070710Y010276D01*
X070760Y010285D01*
X070809Y010290D01*
X070860Y010291D01*
X070910Y010288D01*
X070959Y010281D01*
X071008Y010270D01*
X071056Y010255D01*
X071102Y010237D01*
X071147Y010215D01*
X071190Y010189D01*
X071231Y010160D01*
X071270Y010128D01*
X071306Y010093D01*
X071338Y010055D01*
X071368Y010015D01*
X071395Y009972D01*
X071418Y009928D01*
X071437Y009882D01*
X071453Y009834D01*
X071465Y009785D01*
X071473Y009736D01*
X071477Y009686D01*
X071477Y009636D01*
X071473Y009586D01*
X071465Y009537D01*
X071453Y009488D01*
X071437Y009440D01*
X071418Y009394D01*
X071395Y009350D01*
X071368Y009307D01*
X071338Y009267D01*
X071306Y009229D01*
X071270Y009194D01*
X071231Y009162D01*
X071190Y009133D01*
X071147Y009107D01*
X071102Y009085D01*
X071056Y009067D01*
X071008Y009052D01*
X070959Y009041D01*
X070910Y009034D01*
X070860Y009031D01*
X070809Y009032D01*
X070760Y009037D01*
X070710Y009046D01*
X070662Y009059D01*
X070615Y009075D01*
X070569Y009096D01*
X070525Y009120D01*
X070483Y009147D01*
X070443Y009177D01*
X070406Y009211D01*
X070372Y009248D01*
X070340Y009287D01*
X070312Y009328D01*
X070287Y009372D01*
X070266Y009417D01*
X070249Y009464D01*
X070235Y009512D01*
X070225Y009561D01*
X070219Y009611D01*
X070217Y009661D01*
X077429Y039936D02*
X077431Y039986D01*
X077437Y040036D01*
X077447Y040085D01*
X077461Y040133D01*
X077478Y040180D01*
X077499Y040225D01*
X077524Y040269D01*
X077552Y040310D01*
X077584Y040349D01*
X077618Y040386D01*
X077655Y040420D01*
X077695Y040450D01*
X077737Y040477D01*
X077781Y040501D01*
X077827Y040522D01*
X077874Y040538D01*
X077922Y040551D01*
X077972Y040560D01*
X078021Y040565D01*
X078072Y040566D01*
X078122Y040563D01*
X078171Y040556D01*
X078220Y040545D01*
X078268Y040530D01*
X078314Y040512D01*
X078359Y040490D01*
X078402Y040464D01*
X078443Y040435D01*
X078482Y040403D01*
X078518Y040368D01*
X078550Y040330D01*
X078580Y040290D01*
X078607Y040247D01*
X078630Y040203D01*
X078649Y040157D01*
X078665Y040109D01*
X078677Y040060D01*
X078685Y040011D01*
X078689Y039961D01*
X078689Y039911D01*
X078685Y039861D01*
X078677Y039812D01*
X078665Y039763D01*
X078649Y039715D01*
X078630Y039669D01*
X078607Y039625D01*
X078580Y039582D01*
X078550Y039542D01*
X078518Y039504D01*
X078482Y039469D01*
X078443Y039437D01*
X078402Y039408D01*
X078359Y039382D01*
X078314Y039360D01*
X078268Y039342D01*
X078220Y039327D01*
X078171Y039316D01*
X078122Y039309D01*
X078072Y039306D01*
X078021Y039307D01*
X077972Y039312D01*
X077922Y039321D01*
X077874Y039334D01*
X077827Y039350D01*
X077781Y039371D01*
X077737Y039395D01*
X077695Y039422D01*
X077655Y039452D01*
X077618Y039486D01*
X077584Y039523D01*
X077552Y039562D01*
X077524Y039603D01*
X077499Y039647D01*
X077478Y039692D01*
X077461Y039739D01*
X077447Y039787D01*
X077437Y039836D01*
X077431Y039886D01*
X077429Y039936D01*
X070217Y043125D02*
X070219Y043175D01*
X070225Y043225D01*
X070235Y043274D01*
X070249Y043322D01*
X070266Y043369D01*
X070287Y043414D01*
X070312Y043458D01*
X070340Y043499D01*
X070372Y043538D01*
X070406Y043575D01*
X070443Y043609D01*
X070483Y043639D01*
X070525Y043666D01*
X070569Y043690D01*
X070615Y043711D01*
X070662Y043727D01*
X070710Y043740D01*
X070760Y043749D01*
X070809Y043754D01*
X070860Y043755D01*
X070910Y043752D01*
X070959Y043745D01*
X071008Y043734D01*
X071056Y043719D01*
X071102Y043701D01*
X071147Y043679D01*
X071190Y043653D01*
X071231Y043624D01*
X071270Y043592D01*
X071306Y043557D01*
X071338Y043519D01*
X071368Y043479D01*
X071395Y043436D01*
X071418Y043392D01*
X071437Y043346D01*
X071453Y043298D01*
X071465Y043249D01*
X071473Y043200D01*
X071477Y043150D01*
X071477Y043100D01*
X071473Y043050D01*
X071465Y043001D01*
X071453Y042952D01*
X071437Y042904D01*
X071418Y042858D01*
X071395Y042814D01*
X071368Y042771D01*
X071338Y042731D01*
X071306Y042693D01*
X071270Y042658D01*
X071231Y042626D01*
X071190Y042597D01*
X071147Y042571D01*
X071102Y042549D01*
X071056Y042531D01*
X071008Y042516D01*
X070959Y042505D01*
X070910Y042498D01*
X070860Y042495D01*
X070809Y042496D01*
X070760Y042501D01*
X070710Y042510D01*
X070662Y042523D01*
X070615Y042539D01*
X070569Y042560D01*
X070525Y042584D01*
X070483Y042611D01*
X070443Y042641D01*
X070406Y042675D01*
X070372Y042712D01*
X070340Y042751D01*
X070312Y042792D01*
X070287Y042836D01*
X070266Y042881D01*
X070249Y042928D01*
X070235Y042976D01*
X070225Y043025D01*
X070219Y043075D01*
X070217Y043125D01*
X077429Y044436D02*
X077431Y044486D01*
X077437Y044536D01*
X077447Y044585D01*
X077461Y044633D01*
X077478Y044680D01*
X077499Y044725D01*
X077524Y044769D01*
X077552Y044810D01*
X077584Y044849D01*
X077618Y044886D01*
X077655Y044920D01*
X077695Y044950D01*
X077737Y044977D01*
X077781Y045001D01*
X077827Y045022D01*
X077874Y045038D01*
X077922Y045051D01*
X077972Y045060D01*
X078021Y045065D01*
X078072Y045066D01*
X078122Y045063D01*
X078171Y045056D01*
X078220Y045045D01*
X078268Y045030D01*
X078314Y045012D01*
X078359Y044990D01*
X078402Y044964D01*
X078443Y044935D01*
X078482Y044903D01*
X078518Y044868D01*
X078550Y044830D01*
X078580Y044790D01*
X078607Y044747D01*
X078630Y044703D01*
X078649Y044657D01*
X078665Y044609D01*
X078677Y044560D01*
X078685Y044511D01*
X078689Y044461D01*
X078689Y044411D01*
X078685Y044361D01*
X078677Y044312D01*
X078665Y044263D01*
X078649Y044215D01*
X078630Y044169D01*
X078607Y044125D01*
X078580Y044082D01*
X078550Y044042D01*
X078518Y044004D01*
X078482Y043969D01*
X078443Y043937D01*
X078402Y043908D01*
X078359Y043882D01*
X078314Y043860D01*
X078268Y043842D01*
X078220Y043827D01*
X078171Y043816D01*
X078122Y043809D01*
X078072Y043806D01*
X078021Y043807D01*
X077972Y043812D01*
X077922Y043821D01*
X077874Y043834D01*
X077827Y043850D01*
X077781Y043871D01*
X077737Y043895D01*
X077695Y043922D01*
X077655Y043952D01*
X077618Y043986D01*
X077584Y044023D01*
X077552Y044062D01*
X077524Y044103D01*
X077499Y044147D01*
X077478Y044192D01*
X077461Y044239D01*
X077447Y044287D01*
X077437Y044336D01*
X077431Y044386D01*
X077429Y044436D01*
X046989Y043125D02*
X046991Y043175D01*
X046997Y043225D01*
X047007Y043274D01*
X047021Y043322D01*
X047038Y043369D01*
X047059Y043414D01*
X047084Y043458D01*
X047112Y043499D01*
X047144Y043538D01*
X047178Y043575D01*
X047215Y043609D01*
X047255Y043639D01*
X047297Y043666D01*
X047341Y043690D01*
X047387Y043711D01*
X047434Y043727D01*
X047482Y043740D01*
X047532Y043749D01*
X047581Y043754D01*
X047632Y043755D01*
X047682Y043752D01*
X047731Y043745D01*
X047780Y043734D01*
X047828Y043719D01*
X047874Y043701D01*
X047919Y043679D01*
X047962Y043653D01*
X048003Y043624D01*
X048042Y043592D01*
X048078Y043557D01*
X048110Y043519D01*
X048140Y043479D01*
X048167Y043436D01*
X048190Y043392D01*
X048209Y043346D01*
X048225Y043298D01*
X048237Y043249D01*
X048245Y043200D01*
X048249Y043150D01*
X048249Y043100D01*
X048245Y043050D01*
X048237Y043001D01*
X048225Y042952D01*
X048209Y042904D01*
X048190Y042858D01*
X048167Y042814D01*
X048140Y042771D01*
X048110Y042731D01*
X048078Y042693D01*
X048042Y042658D01*
X048003Y042626D01*
X047962Y042597D01*
X047919Y042571D01*
X047874Y042549D01*
X047828Y042531D01*
X047780Y042516D01*
X047731Y042505D01*
X047682Y042498D01*
X047632Y042495D01*
X047581Y042496D01*
X047532Y042501D01*
X047482Y042510D01*
X047434Y042523D01*
X047387Y042539D01*
X047341Y042560D01*
X047297Y042584D01*
X047255Y042611D01*
X047215Y042641D01*
X047178Y042675D01*
X047144Y042712D01*
X047112Y042751D01*
X047084Y042792D01*
X047059Y042836D01*
X047038Y042881D01*
X047021Y042928D01*
X047007Y042976D01*
X046997Y043025D01*
X046991Y043075D01*
X046989Y043125D01*
M02*
