G75*
G70*
%OFA0B0*%
%FSLAX24Y24*%
%IPPOS*%
%LPD*%
%AMOC8*
5,1,8,0,0,1.08239X$1,22.5*
%
%ADD10C,0.0039*%
D10*
X000890Y001937D02*
X039079Y001937D01*
X039125Y001939D01*
X039171Y001944D01*
X039217Y001953D01*
X039262Y001966D01*
X039305Y001982D01*
X039347Y002001D01*
X039388Y002024D01*
X039426Y002050D01*
X039463Y002079D01*
X039497Y002110D01*
X039528Y002144D01*
X039557Y002181D01*
X039583Y002219D01*
X039606Y002260D01*
X039625Y002302D01*
X039641Y002345D01*
X039654Y002390D01*
X039663Y002436D01*
X039668Y002482D01*
X039670Y002528D01*
X039670Y005874D01*
X040063Y006268D02*
X040102Y006266D01*
X040140Y006260D01*
X040177Y006251D01*
X040214Y006238D01*
X040249Y006221D01*
X040282Y006202D01*
X040313Y006179D01*
X040342Y006153D01*
X040368Y006124D01*
X040391Y006093D01*
X040410Y006060D01*
X040427Y006025D01*
X040440Y005988D01*
X040449Y005951D01*
X040455Y005913D01*
X040457Y005874D01*
X040457Y002528D01*
X040459Y002482D01*
X040464Y002436D01*
X040473Y002390D01*
X040486Y002345D01*
X040502Y002302D01*
X040521Y002260D01*
X040544Y002219D01*
X040570Y002181D01*
X040599Y002144D01*
X040630Y002110D01*
X040664Y002079D01*
X040701Y002050D01*
X040739Y002024D01*
X040780Y002001D01*
X040822Y001982D01*
X040865Y001966D01*
X040910Y001953D01*
X040956Y001944D01*
X041002Y001939D01*
X041048Y001937D01*
X121363Y001937D01*
X121409Y001939D01*
X121455Y001944D01*
X121501Y001953D01*
X121546Y001966D01*
X121589Y001982D01*
X121631Y002001D01*
X121672Y002024D01*
X121710Y002050D01*
X121747Y002079D01*
X121781Y002110D01*
X121812Y002144D01*
X121841Y002181D01*
X121867Y002219D01*
X121890Y002260D01*
X121909Y002302D01*
X121925Y002345D01*
X121938Y002390D01*
X121947Y002436D01*
X121952Y002482D01*
X121954Y002528D01*
X121953Y002528D02*
X121953Y030481D01*
X121954Y030481D02*
X121952Y030527D01*
X121947Y030573D01*
X121938Y030619D01*
X121925Y030664D01*
X121909Y030707D01*
X121890Y030749D01*
X121867Y030790D01*
X121841Y030828D01*
X121812Y030865D01*
X121781Y030899D01*
X121747Y030930D01*
X121710Y030959D01*
X121672Y030985D01*
X121631Y031008D01*
X121589Y031027D01*
X121546Y031043D01*
X121501Y031056D01*
X121455Y031065D01*
X121409Y031070D01*
X121363Y031072D01*
X121363Y031071D02*
X115260Y031071D01*
X114866Y031465D02*
X114868Y031504D01*
X114874Y031542D01*
X114883Y031579D01*
X114896Y031616D01*
X114913Y031651D01*
X114932Y031684D01*
X114955Y031715D01*
X114981Y031744D01*
X115010Y031770D01*
X115041Y031793D01*
X115074Y031812D01*
X115109Y031829D01*
X115146Y031842D01*
X115183Y031851D01*
X115221Y031857D01*
X115260Y031859D01*
X118607Y031859D01*
X118607Y031858D02*
X118653Y031860D01*
X118699Y031865D01*
X118745Y031874D01*
X118790Y031887D01*
X118833Y031903D01*
X118875Y031922D01*
X118916Y031945D01*
X118954Y031971D01*
X118991Y032000D01*
X119025Y032031D01*
X119056Y032065D01*
X119085Y032102D01*
X119111Y032140D01*
X119134Y032181D01*
X119153Y032223D01*
X119169Y032266D01*
X119182Y032311D01*
X119191Y032357D01*
X119196Y032403D01*
X119198Y032449D01*
X119197Y032449D02*
X119197Y060402D01*
X119198Y060402D02*
X119196Y060448D01*
X119191Y060494D01*
X119182Y060540D01*
X119169Y060585D01*
X119153Y060628D01*
X119134Y060670D01*
X119111Y060711D01*
X119085Y060749D01*
X119056Y060786D01*
X119025Y060820D01*
X118991Y060851D01*
X118954Y060880D01*
X118916Y060906D01*
X118875Y060929D01*
X118833Y060948D01*
X118790Y060964D01*
X118745Y060977D01*
X118699Y060986D01*
X118653Y060991D01*
X118607Y060993D01*
X118607Y060992D02*
X060733Y060992D01*
X060733Y060993D02*
X060687Y060991D01*
X060641Y060986D01*
X060595Y060977D01*
X060550Y060964D01*
X060507Y060948D01*
X060465Y060929D01*
X060424Y060906D01*
X060386Y060880D01*
X060349Y060851D01*
X060315Y060820D01*
X060284Y060786D01*
X060255Y060749D01*
X060229Y060711D01*
X060206Y060670D01*
X060187Y060628D01*
X060171Y060585D01*
X060158Y060540D01*
X060149Y060494D01*
X060144Y060448D01*
X060142Y060402D01*
X060142Y057055D01*
X059748Y056661D02*
X059709Y056663D01*
X059671Y056669D01*
X059634Y056678D01*
X059597Y056691D01*
X059562Y056708D01*
X059529Y056727D01*
X059498Y056750D01*
X059469Y056776D01*
X059443Y056805D01*
X059420Y056836D01*
X059401Y056869D01*
X059384Y056904D01*
X059371Y056941D01*
X059362Y056978D01*
X059356Y057016D01*
X059354Y057055D01*
X059355Y057055D02*
X059355Y060402D01*
X059353Y060448D01*
X059348Y060494D01*
X059339Y060540D01*
X059326Y060585D01*
X059310Y060628D01*
X059291Y060670D01*
X059268Y060711D01*
X059242Y060749D01*
X059213Y060786D01*
X059182Y060820D01*
X059148Y060851D01*
X059111Y060880D01*
X059073Y060906D01*
X059032Y060929D01*
X058990Y060948D01*
X058947Y060964D01*
X058902Y060977D01*
X058856Y060986D01*
X058810Y060991D01*
X058764Y060993D01*
X058764Y060992D02*
X000890Y060992D01*
X000890Y060993D02*
X000844Y060991D01*
X000798Y060986D01*
X000752Y060977D01*
X000707Y060964D01*
X000664Y060948D01*
X000622Y060929D01*
X000581Y060906D01*
X000543Y060880D01*
X000506Y060851D01*
X000472Y060820D01*
X000441Y060786D01*
X000412Y060749D01*
X000386Y060711D01*
X000363Y060670D01*
X000344Y060628D01*
X000328Y060585D01*
X000315Y060540D01*
X000306Y060494D01*
X000301Y060448D01*
X000299Y060402D01*
X000300Y060402D02*
X000300Y032449D01*
X000299Y032449D02*
X000301Y032403D01*
X000306Y032357D01*
X000315Y032311D01*
X000328Y032266D01*
X000344Y032223D01*
X000363Y032181D01*
X000386Y032140D01*
X000412Y032102D01*
X000441Y032065D01*
X000472Y032031D01*
X000506Y032000D01*
X000543Y031971D01*
X000581Y031945D01*
X000622Y031922D01*
X000664Y031903D01*
X000707Y031887D01*
X000752Y031874D01*
X000798Y031865D01*
X000844Y031860D01*
X000890Y031858D01*
X000890Y031859D02*
X004237Y031859D01*
X004631Y031465D02*
X004629Y031426D01*
X004623Y031388D01*
X004614Y031351D01*
X004601Y031314D01*
X004584Y031279D01*
X004565Y031246D01*
X004542Y031215D01*
X004516Y031186D01*
X004487Y031160D01*
X004456Y031137D01*
X004423Y031118D01*
X004388Y031101D01*
X004351Y031088D01*
X004314Y031079D01*
X004276Y031073D01*
X004237Y031071D01*
X000890Y031071D01*
X000890Y031072D02*
X000844Y031070D01*
X000798Y031065D01*
X000752Y031056D01*
X000707Y031043D01*
X000664Y031027D01*
X000622Y031008D01*
X000581Y030985D01*
X000543Y030959D01*
X000506Y030930D01*
X000472Y030899D01*
X000441Y030865D01*
X000412Y030828D01*
X000386Y030790D01*
X000363Y030749D01*
X000344Y030707D01*
X000328Y030664D01*
X000315Y030619D01*
X000306Y030573D01*
X000301Y030527D01*
X000299Y030481D01*
X000300Y030481D02*
X000300Y002528D01*
X000299Y002528D02*
X000301Y002482D01*
X000306Y002436D01*
X000315Y002390D01*
X000328Y002345D01*
X000344Y002302D01*
X000363Y002260D01*
X000386Y002219D01*
X000412Y002181D01*
X000441Y002144D01*
X000472Y002110D01*
X000506Y002079D01*
X000543Y002050D01*
X000581Y002024D01*
X000622Y002001D01*
X000664Y001982D01*
X000707Y001966D01*
X000752Y001953D01*
X000798Y001944D01*
X000844Y001939D01*
X000890Y001937D01*
X039670Y007055D02*
X039670Y025953D01*
X040063Y026347D02*
X040102Y026345D01*
X040140Y026339D01*
X040177Y026330D01*
X040214Y026317D01*
X040249Y026300D01*
X040282Y026281D01*
X040313Y026258D01*
X040342Y026232D01*
X040368Y026203D01*
X040391Y026172D01*
X040410Y026139D01*
X040427Y026104D01*
X040440Y026067D01*
X040449Y026030D01*
X040455Y025992D01*
X040457Y025953D01*
X040457Y007055D01*
X040063Y006661D02*
X040024Y006663D01*
X039986Y006669D01*
X039949Y006678D01*
X039912Y006691D01*
X039877Y006708D01*
X039844Y006727D01*
X039813Y006750D01*
X039784Y006776D01*
X039758Y006805D01*
X039735Y006836D01*
X039716Y006869D01*
X039699Y006904D01*
X039686Y006941D01*
X039677Y006978D01*
X039671Y007016D01*
X039669Y007055D01*
X040063Y006661D02*
X040102Y006663D01*
X040140Y006669D01*
X040177Y006678D01*
X040214Y006691D01*
X040249Y006708D01*
X040282Y006727D01*
X040313Y006750D01*
X040342Y006776D01*
X040368Y006805D01*
X040391Y006836D01*
X040410Y006869D01*
X040427Y006904D01*
X040440Y006941D01*
X040449Y006978D01*
X040455Y007016D01*
X040457Y007055D01*
X040063Y006268D02*
X040024Y006266D01*
X039986Y006260D01*
X039949Y006251D01*
X039912Y006238D01*
X039877Y006221D01*
X039844Y006202D01*
X039813Y006179D01*
X039784Y006153D01*
X039758Y006124D01*
X039735Y006093D01*
X039716Y006060D01*
X039699Y006025D01*
X039686Y005988D01*
X039677Y005951D01*
X039671Y005913D01*
X039669Y005874D01*
X039669Y025953D02*
X039671Y025992D01*
X039677Y026030D01*
X039686Y026067D01*
X039699Y026104D01*
X039716Y026139D01*
X039735Y026172D01*
X039758Y026203D01*
X039784Y026232D01*
X039813Y026258D01*
X039844Y026281D01*
X039877Y026300D01*
X039912Y026317D01*
X039949Y026330D01*
X039986Y026339D01*
X040024Y026345D01*
X040063Y026347D01*
X040063Y026740D02*
X040024Y026742D01*
X039986Y026748D01*
X039949Y026757D01*
X039912Y026770D01*
X039877Y026787D01*
X039844Y026806D01*
X039813Y026829D01*
X039784Y026855D01*
X039758Y026884D01*
X039735Y026915D01*
X039716Y026948D01*
X039699Y026983D01*
X039686Y027020D01*
X039677Y027057D01*
X039671Y027095D01*
X039669Y027134D01*
X039670Y027134D02*
X039670Y030481D01*
X039668Y030527D01*
X039663Y030573D01*
X039654Y030619D01*
X039641Y030664D01*
X039625Y030707D01*
X039606Y030749D01*
X039583Y030790D01*
X039557Y030828D01*
X039528Y030865D01*
X039497Y030899D01*
X039463Y030930D01*
X039426Y030959D01*
X039388Y030985D01*
X039347Y031008D01*
X039305Y031027D01*
X039262Y031043D01*
X039217Y031056D01*
X039171Y031065D01*
X039125Y031070D01*
X039079Y031072D01*
X039079Y031071D02*
X035733Y031071D01*
X035339Y031465D02*
X035341Y031504D01*
X035347Y031542D01*
X035356Y031579D01*
X035369Y031616D01*
X035386Y031651D01*
X035405Y031684D01*
X035428Y031715D01*
X035454Y031744D01*
X035483Y031770D01*
X035514Y031793D01*
X035547Y031812D01*
X035582Y031829D01*
X035619Y031842D01*
X035656Y031851D01*
X035694Y031857D01*
X035733Y031859D01*
X049709Y031859D01*
X050103Y031465D02*
X050101Y031426D01*
X050095Y031388D01*
X050086Y031351D01*
X050073Y031314D01*
X050056Y031279D01*
X050037Y031246D01*
X050014Y031215D01*
X049988Y031186D01*
X049959Y031160D01*
X049928Y031137D01*
X049895Y031118D01*
X049860Y031101D01*
X049823Y031088D01*
X049786Y031079D01*
X049748Y031073D01*
X049709Y031071D01*
X041048Y031071D01*
X041048Y031072D02*
X041002Y031070D01*
X040956Y031065D01*
X040910Y031056D01*
X040865Y031043D01*
X040822Y031027D01*
X040780Y031008D01*
X040739Y030985D01*
X040701Y030959D01*
X040664Y030930D01*
X040630Y030899D01*
X040599Y030865D01*
X040570Y030828D01*
X040544Y030790D01*
X040521Y030749D01*
X040502Y030707D01*
X040486Y030664D01*
X040473Y030619D01*
X040464Y030573D01*
X040459Y030527D01*
X040457Y030481D01*
X040457Y027134D01*
X040455Y027095D01*
X040449Y027057D01*
X040440Y027020D01*
X040427Y026983D01*
X040410Y026948D01*
X040391Y026915D01*
X040368Y026884D01*
X040342Y026855D01*
X040313Y026829D01*
X040282Y026806D01*
X040249Y026787D01*
X040214Y026770D01*
X040177Y026757D01*
X040140Y026748D01*
X040102Y026742D01*
X040063Y026740D01*
X034552Y031071D02*
X005418Y031071D01*
X005024Y031465D02*
X005026Y031504D01*
X005032Y031542D01*
X005041Y031579D01*
X005054Y031616D01*
X005071Y031651D01*
X005090Y031684D01*
X005113Y031715D01*
X005139Y031744D01*
X005168Y031770D01*
X005199Y031793D01*
X005232Y031812D01*
X005267Y031829D01*
X005304Y031842D01*
X005341Y031851D01*
X005379Y031857D01*
X005418Y031859D01*
X034552Y031859D01*
X034946Y031465D02*
X034944Y031426D01*
X034938Y031388D01*
X034929Y031351D01*
X034916Y031314D01*
X034899Y031279D01*
X034880Y031246D01*
X034857Y031215D01*
X034831Y031186D01*
X034802Y031160D01*
X034771Y031137D01*
X034738Y031118D01*
X034703Y031101D01*
X034666Y031088D01*
X034629Y031079D01*
X034591Y031073D01*
X034552Y031071D01*
X034946Y031465D02*
X034944Y031504D01*
X034938Y031542D01*
X034929Y031579D01*
X034916Y031616D01*
X034899Y031651D01*
X034880Y031684D01*
X034857Y031715D01*
X034831Y031744D01*
X034802Y031770D01*
X034771Y031793D01*
X034738Y031812D01*
X034703Y031829D01*
X034666Y031842D01*
X034629Y031851D01*
X034591Y031857D01*
X034552Y031859D01*
X035339Y031465D02*
X035341Y031426D01*
X035347Y031388D01*
X035356Y031351D01*
X035369Y031314D01*
X035386Y031279D01*
X035405Y031246D01*
X035428Y031215D01*
X035454Y031186D01*
X035483Y031160D01*
X035514Y031137D01*
X035547Y031118D01*
X035582Y031101D01*
X035619Y031088D01*
X035656Y031079D01*
X035694Y031073D01*
X035733Y031071D01*
X049709Y031859D02*
X049748Y031857D01*
X049786Y031851D01*
X049823Y031842D01*
X049860Y031829D01*
X049895Y031812D01*
X049928Y031793D01*
X049959Y031770D01*
X049988Y031744D01*
X050014Y031715D01*
X050037Y031684D01*
X050056Y031651D01*
X050073Y031616D01*
X050086Y031579D01*
X050095Y031542D01*
X050101Y031504D01*
X050103Y031465D01*
X050496Y031465D02*
X050498Y031504D01*
X050504Y031542D01*
X050513Y031579D01*
X050526Y031616D01*
X050543Y031651D01*
X050562Y031684D01*
X050585Y031715D01*
X050611Y031744D01*
X050640Y031770D01*
X050671Y031793D01*
X050704Y031812D01*
X050739Y031829D01*
X050776Y031842D01*
X050813Y031851D01*
X050851Y031857D01*
X050890Y031859D01*
X058764Y031859D01*
X058764Y031858D02*
X058810Y031860D01*
X058856Y031865D01*
X058902Y031874D01*
X058947Y031887D01*
X058990Y031903D01*
X059032Y031922D01*
X059073Y031945D01*
X059111Y031971D01*
X059148Y032000D01*
X059182Y032031D01*
X059213Y032065D01*
X059242Y032102D01*
X059268Y032140D01*
X059291Y032181D01*
X059310Y032223D01*
X059326Y032266D01*
X059339Y032311D01*
X059348Y032357D01*
X059353Y032403D01*
X059355Y032449D01*
X059355Y035796D01*
X059748Y036190D02*
X059787Y036188D01*
X059825Y036182D01*
X059862Y036173D01*
X059899Y036160D01*
X059934Y036143D01*
X059967Y036124D01*
X059998Y036101D01*
X060027Y036075D01*
X060053Y036046D01*
X060076Y036015D01*
X060095Y035982D01*
X060112Y035947D01*
X060125Y035910D01*
X060134Y035873D01*
X060140Y035835D01*
X060142Y035796D01*
X060142Y032449D01*
X060144Y032403D01*
X060149Y032357D01*
X060158Y032311D01*
X060171Y032266D01*
X060187Y032223D01*
X060206Y032181D01*
X060229Y032140D01*
X060255Y032102D01*
X060284Y032065D01*
X060315Y032031D01*
X060349Y032000D01*
X060386Y031971D01*
X060424Y031945D01*
X060465Y031922D01*
X060507Y031903D01*
X060550Y031887D01*
X060595Y031874D01*
X060641Y031865D01*
X060687Y031860D01*
X060733Y031858D01*
X060733Y031859D02*
X064079Y031859D01*
X064473Y031465D02*
X064471Y031426D01*
X064465Y031388D01*
X064456Y031351D01*
X064443Y031314D01*
X064426Y031279D01*
X064407Y031246D01*
X064384Y031215D01*
X064358Y031186D01*
X064329Y031160D01*
X064298Y031137D01*
X064265Y031118D01*
X064230Y031101D01*
X064193Y031088D01*
X064156Y031079D01*
X064118Y031073D01*
X064079Y031071D01*
X050890Y031071D01*
X050851Y031073D01*
X050813Y031079D01*
X050776Y031088D01*
X050739Y031101D01*
X050704Y031118D01*
X050671Y031137D01*
X050640Y031160D01*
X050611Y031186D01*
X050585Y031215D01*
X050562Y031246D01*
X050543Y031279D01*
X050526Y031314D01*
X050513Y031351D01*
X050504Y031388D01*
X050498Y031426D01*
X050496Y031465D01*
X059354Y035796D02*
X059356Y035835D01*
X059362Y035873D01*
X059371Y035910D01*
X059384Y035947D01*
X059401Y035982D01*
X059420Y036015D01*
X059443Y036046D01*
X059469Y036075D01*
X059498Y036101D01*
X059529Y036124D01*
X059562Y036143D01*
X059597Y036160D01*
X059634Y036173D01*
X059671Y036182D01*
X059709Y036188D01*
X059748Y036190D01*
X059748Y036583D02*
X059709Y036585D01*
X059671Y036591D01*
X059634Y036600D01*
X059597Y036613D01*
X059562Y036630D01*
X059529Y036649D01*
X059498Y036672D01*
X059469Y036698D01*
X059443Y036727D01*
X059420Y036758D01*
X059401Y036791D01*
X059384Y036826D01*
X059371Y036863D01*
X059362Y036900D01*
X059356Y036938D01*
X059354Y036977D01*
X059355Y036977D02*
X059355Y055874D01*
X059748Y056268D02*
X059787Y056266D01*
X059825Y056260D01*
X059862Y056251D01*
X059899Y056238D01*
X059934Y056221D01*
X059967Y056202D01*
X059998Y056179D01*
X060027Y056153D01*
X060053Y056124D01*
X060076Y056093D01*
X060095Y056060D01*
X060112Y056025D01*
X060125Y055988D01*
X060134Y055951D01*
X060140Y055913D01*
X060142Y055874D01*
X060142Y036977D01*
X060140Y036938D01*
X060134Y036900D01*
X060125Y036863D01*
X060112Y036826D01*
X060095Y036791D01*
X060076Y036758D01*
X060053Y036727D01*
X060027Y036698D01*
X059998Y036672D01*
X059967Y036649D01*
X059934Y036630D01*
X059899Y036613D01*
X059862Y036600D01*
X059825Y036591D01*
X059787Y036585D01*
X059748Y036583D01*
X064079Y031859D02*
X064118Y031857D01*
X064156Y031851D01*
X064193Y031842D01*
X064230Y031829D01*
X064265Y031812D01*
X064298Y031793D01*
X064329Y031770D01*
X064358Y031744D01*
X064384Y031715D01*
X064407Y031684D01*
X064426Y031651D01*
X064443Y031616D01*
X064456Y031579D01*
X064465Y031542D01*
X064471Y031504D01*
X064473Y031465D01*
X064866Y031465D02*
X064868Y031504D01*
X064874Y031542D01*
X064883Y031579D01*
X064896Y031616D01*
X064913Y031651D01*
X064932Y031684D01*
X064955Y031715D01*
X064981Y031744D01*
X065010Y031770D01*
X065041Y031793D01*
X065074Y031812D01*
X065109Y031829D01*
X065146Y031842D01*
X065183Y031851D01*
X065221Y031857D01*
X065260Y031859D01*
X114079Y031859D01*
X114473Y031465D02*
X114471Y031426D01*
X114465Y031388D01*
X114456Y031351D01*
X114443Y031314D01*
X114426Y031279D01*
X114407Y031246D01*
X114384Y031215D01*
X114358Y031186D01*
X114329Y031160D01*
X114298Y031137D01*
X114265Y031118D01*
X114230Y031101D01*
X114193Y031088D01*
X114156Y031079D01*
X114118Y031073D01*
X114079Y031071D01*
X065260Y031071D01*
X065221Y031073D01*
X065183Y031079D01*
X065146Y031088D01*
X065109Y031101D01*
X065074Y031118D01*
X065041Y031137D01*
X065010Y031160D01*
X064981Y031186D01*
X064955Y031215D01*
X064932Y031246D01*
X064913Y031279D01*
X064896Y031314D01*
X064883Y031351D01*
X064874Y031388D01*
X064868Y031426D01*
X064866Y031465D01*
X114079Y031859D02*
X114118Y031857D01*
X114156Y031851D01*
X114193Y031842D01*
X114230Y031829D01*
X114265Y031812D01*
X114298Y031793D01*
X114329Y031770D01*
X114358Y031744D01*
X114384Y031715D01*
X114407Y031684D01*
X114426Y031651D01*
X114443Y031616D01*
X114456Y031579D01*
X114465Y031542D01*
X114471Y031504D01*
X114473Y031465D01*
X114866Y031465D02*
X114868Y031426D01*
X114874Y031388D01*
X114883Y031351D01*
X114896Y031314D01*
X114913Y031279D01*
X114932Y031246D01*
X114955Y031215D01*
X114981Y031186D01*
X115010Y031160D01*
X115041Y031137D01*
X115074Y031118D01*
X115109Y031101D01*
X115146Y031088D01*
X115183Y031079D01*
X115221Y031073D01*
X115260Y031071D01*
X059748Y056268D02*
X059709Y056266D01*
X059671Y056260D01*
X059634Y056251D01*
X059597Y056238D01*
X059562Y056221D01*
X059529Y056202D01*
X059498Y056179D01*
X059469Y056153D01*
X059443Y056124D01*
X059420Y056093D01*
X059401Y056060D01*
X059384Y056025D01*
X059371Y055988D01*
X059362Y055951D01*
X059356Y055913D01*
X059354Y055874D01*
X059748Y056661D02*
X059787Y056663D01*
X059825Y056669D01*
X059862Y056678D01*
X059899Y056691D01*
X059934Y056708D01*
X059967Y056727D01*
X059998Y056750D01*
X060027Y056776D01*
X060053Y056805D01*
X060076Y056836D01*
X060095Y056869D01*
X060112Y056904D01*
X060125Y056941D01*
X060134Y056978D01*
X060140Y057016D01*
X060142Y057055D01*
X005418Y031071D02*
X005379Y031073D01*
X005341Y031079D01*
X005304Y031088D01*
X005267Y031101D01*
X005232Y031118D01*
X005199Y031137D01*
X005168Y031160D01*
X005139Y031186D01*
X005113Y031215D01*
X005090Y031246D01*
X005071Y031279D01*
X005054Y031314D01*
X005041Y031351D01*
X005032Y031388D01*
X005026Y031426D01*
X005024Y031465D01*
X004631Y031465D02*
X004629Y031504D01*
X004623Y031542D01*
X004614Y031579D01*
X004601Y031616D01*
X004584Y031651D01*
X004565Y031684D01*
X004542Y031715D01*
X004516Y031744D01*
X004487Y031770D01*
X004456Y031793D01*
X004423Y031812D01*
X004388Y031829D01*
X004351Y031842D01*
X004314Y031851D01*
X004276Y031857D01*
X004237Y031859D01*
M02*
