G75*
G70*
%OFA0B0*%
%FSLAX24Y24*%
%IPPOS*%
%LPD*%
%AMOC8*
5,1,8,0,0,1.08239X$1,22.5*
%
%ADD10C,0.0039*%
D10*
X005087Y003472D02*
X043276Y003472D01*
X043322Y003474D01*
X043368Y003479D01*
X043414Y003488D01*
X043459Y003501D01*
X043502Y003517D01*
X043544Y003536D01*
X043585Y003559D01*
X043623Y003585D01*
X043660Y003614D01*
X043694Y003645D01*
X043725Y003679D01*
X043754Y003716D01*
X043780Y003754D01*
X043803Y003795D01*
X043822Y003837D01*
X043838Y003880D01*
X043851Y003925D01*
X043860Y003971D01*
X043865Y004017D01*
X043867Y004063D01*
X043866Y004063D02*
X043866Y007409D01*
X044260Y007803D02*
X044299Y007801D01*
X044337Y007795D01*
X044374Y007786D01*
X044411Y007773D01*
X044446Y007756D01*
X044479Y007737D01*
X044510Y007714D01*
X044539Y007688D01*
X044565Y007659D01*
X044588Y007628D01*
X044607Y007595D01*
X044624Y007560D01*
X044637Y007523D01*
X044646Y007486D01*
X044652Y007448D01*
X044654Y007409D01*
X044654Y004063D01*
X044653Y004063D02*
X044655Y004017D01*
X044660Y003971D01*
X044669Y003925D01*
X044682Y003880D01*
X044698Y003837D01*
X044717Y003795D01*
X044740Y003754D01*
X044766Y003716D01*
X044795Y003679D01*
X044826Y003645D01*
X044860Y003614D01*
X044897Y003585D01*
X044935Y003559D01*
X044976Y003536D01*
X045018Y003517D01*
X045061Y003501D01*
X045106Y003488D01*
X045152Y003479D01*
X045198Y003474D01*
X045244Y003472D01*
X125559Y003472D01*
X125605Y003474D01*
X125651Y003479D01*
X125697Y003488D01*
X125742Y003501D01*
X125785Y003517D01*
X125827Y003536D01*
X125868Y003559D01*
X125906Y003585D01*
X125943Y003614D01*
X125977Y003645D01*
X126008Y003679D01*
X126037Y003716D01*
X126063Y003754D01*
X126086Y003795D01*
X126105Y003837D01*
X126121Y003880D01*
X126134Y003925D01*
X126143Y003971D01*
X126148Y004017D01*
X126150Y004063D01*
X126150Y032015D01*
X126148Y032061D01*
X126143Y032107D01*
X126134Y032153D01*
X126121Y032198D01*
X126105Y032241D01*
X126086Y032283D01*
X126063Y032324D01*
X126037Y032362D01*
X126008Y032399D01*
X125977Y032433D01*
X125943Y032464D01*
X125906Y032493D01*
X125868Y032519D01*
X125827Y032542D01*
X125785Y032561D01*
X125742Y032577D01*
X125697Y032590D01*
X125651Y032599D01*
X125605Y032604D01*
X125559Y032606D01*
X119457Y032606D01*
X119063Y033000D02*
X119065Y033039D01*
X119071Y033077D01*
X119080Y033114D01*
X119093Y033151D01*
X119110Y033186D01*
X119129Y033219D01*
X119152Y033250D01*
X119178Y033279D01*
X119207Y033305D01*
X119238Y033328D01*
X119271Y033347D01*
X119306Y033364D01*
X119343Y033377D01*
X119380Y033386D01*
X119418Y033392D01*
X119457Y033394D01*
X119457Y033393D02*
X122803Y033393D01*
X122849Y033395D01*
X122895Y033400D01*
X122941Y033409D01*
X122986Y033422D01*
X123029Y033438D01*
X123071Y033457D01*
X123112Y033480D01*
X123150Y033506D01*
X123187Y033535D01*
X123221Y033566D01*
X123252Y033600D01*
X123281Y033637D01*
X123307Y033675D01*
X123330Y033716D01*
X123349Y033758D01*
X123365Y033801D01*
X123378Y033846D01*
X123387Y033892D01*
X123392Y033938D01*
X123394Y033984D01*
X123394Y061937D01*
X123392Y061983D01*
X123387Y062029D01*
X123378Y062075D01*
X123365Y062120D01*
X123349Y062163D01*
X123330Y062205D01*
X123307Y062246D01*
X123281Y062284D01*
X123252Y062321D01*
X123221Y062355D01*
X123187Y062386D01*
X123150Y062415D01*
X123112Y062441D01*
X123071Y062464D01*
X123029Y062483D01*
X122986Y062499D01*
X122941Y062512D01*
X122895Y062521D01*
X122849Y062526D01*
X122803Y062528D01*
X122803Y062527D02*
X064929Y062527D01*
X064929Y062528D02*
X064883Y062526D01*
X064837Y062521D01*
X064791Y062512D01*
X064746Y062499D01*
X064703Y062483D01*
X064661Y062464D01*
X064620Y062441D01*
X064582Y062415D01*
X064545Y062386D01*
X064511Y062355D01*
X064480Y062321D01*
X064451Y062284D01*
X064425Y062246D01*
X064402Y062205D01*
X064383Y062163D01*
X064367Y062120D01*
X064354Y062075D01*
X064345Y062029D01*
X064340Y061983D01*
X064338Y061937D01*
X064339Y061937D02*
X064339Y058590D01*
X063945Y058196D02*
X063906Y058198D01*
X063868Y058204D01*
X063831Y058213D01*
X063794Y058226D01*
X063759Y058243D01*
X063726Y058262D01*
X063695Y058285D01*
X063666Y058311D01*
X063640Y058340D01*
X063617Y058371D01*
X063598Y058404D01*
X063581Y058439D01*
X063568Y058476D01*
X063559Y058513D01*
X063553Y058551D01*
X063551Y058590D01*
X063551Y061937D01*
X063552Y061937D02*
X063550Y061983D01*
X063545Y062029D01*
X063536Y062075D01*
X063523Y062120D01*
X063507Y062163D01*
X063488Y062205D01*
X063465Y062246D01*
X063439Y062284D01*
X063410Y062321D01*
X063379Y062355D01*
X063345Y062386D01*
X063308Y062415D01*
X063270Y062441D01*
X063229Y062464D01*
X063187Y062483D01*
X063144Y062499D01*
X063099Y062512D01*
X063053Y062521D01*
X063007Y062526D01*
X062961Y062528D01*
X062961Y062527D02*
X005087Y062527D01*
X005087Y062528D02*
X005041Y062526D01*
X004995Y062521D01*
X004949Y062512D01*
X004904Y062499D01*
X004861Y062483D01*
X004819Y062464D01*
X004778Y062441D01*
X004740Y062415D01*
X004703Y062386D01*
X004669Y062355D01*
X004638Y062321D01*
X004609Y062284D01*
X004583Y062246D01*
X004560Y062205D01*
X004541Y062163D01*
X004525Y062120D01*
X004512Y062075D01*
X004503Y062029D01*
X004498Y061983D01*
X004496Y061937D01*
X004496Y033984D01*
X004498Y033938D01*
X004503Y033892D01*
X004512Y033846D01*
X004525Y033801D01*
X004541Y033758D01*
X004560Y033716D01*
X004583Y033675D01*
X004609Y033637D01*
X004638Y033600D01*
X004669Y033566D01*
X004703Y033535D01*
X004740Y033506D01*
X004778Y033480D01*
X004819Y033457D01*
X004861Y033438D01*
X004904Y033422D01*
X004949Y033409D01*
X004995Y033400D01*
X005041Y033395D01*
X005087Y033393D01*
X008433Y033393D01*
X008827Y033000D02*
X008825Y032961D01*
X008819Y032923D01*
X008810Y032886D01*
X008797Y032849D01*
X008780Y032814D01*
X008761Y032781D01*
X008738Y032750D01*
X008712Y032721D01*
X008683Y032695D01*
X008652Y032672D01*
X008619Y032653D01*
X008584Y032636D01*
X008547Y032623D01*
X008510Y032614D01*
X008472Y032608D01*
X008433Y032606D01*
X005087Y032606D01*
X005041Y032604D01*
X004995Y032599D01*
X004949Y032590D01*
X004904Y032577D01*
X004861Y032561D01*
X004819Y032542D01*
X004778Y032519D01*
X004740Y032493D01*
X004703Y032464D01*
X004669Y032433D01*
X004638Y032399D01*
X004609Y032362D01*
X004583Y032324D01*
X004560Y032283D01*
X004541Y032241D01*
X004525Y032198D01*
X004512Y032153D01*
X004503Y032107D01*
X004498Y032061D01*
X004496Y032015D01*
X004496Y004063D01*
X004498Y004017D01*
X004503Y003971D01*
X004512Y003925D01*
X004525Y003880D01*
X004541Y003837D01*
X004560Y003795D01*
X004583Y003754D01*
X004609Y003716D01*
X004638Y003679D01*
X004669Y003645D01*
X004703Y003614D01*
X004740Y003585D01*
X004778Y003559D01*
X004819Y003536D01*
X004861Y003517D01*
X004904Y003501D01*
X004949Y003488D01*
X004995Y003479D01*
X005041Y003474D01*
X005087Y003472D01*
X043866Y008590D02*
X043866Y027488D01*
X044260Y027882D02*
X044299Y027880D01*
X044337Y027874D01*
X044374Y027865D01*
X044411Y027852D01*
X044446Y027835D01*
X044479Y027816D01*
X044510Y027793D01*
X044539Y027767D01*
X044565Y027738D01*
X044588Y027707D01*
X044607Y027674D01*
X044624Y027639D01*
X044637Y027602D01*
X044646Y027565D01*
X044652Y027527D01*
X044654Y027488D01*
X044654Y008590D01*
X044260Y008196D02*
X044221Y008198D01*
X044183Y008204D01*
X044146Y008213D01*
X044109Y008226D01*
X044074Y008243D01*
X044041Y008262D01*
X044010Y008285D01*
X043981Y008311D01*
X043955Y008340D01*
X043932Y008371D01*
X043913Y008404D01*
X043896Y008439D01*
X043883Y008476D01*
X043874Y008513D01*
X043868Y008551D01*
X043866Y008590D01*
X044260Y008196D02*
X044299Y008198D01*
X044337Y008204D01*
X044374Y008213D01*
X044411Y008226D01*
X044446Y008243D01*
X044479Y008262D01*
X044510Y008285D01*
X044539Y008311D01*
X044565Y008340D01*
X044588Y008371D01*
X044607Y008404D01*
X044624Y008439D01*
X044637Y008476D01*
X044646Y008513D01*
X044652Y008551D01*
X044654Y008590D01*
X044260Y007803D02*
X044221Y007801D01*
X044183Y007795D01*
X044146Y007786D01*
X044109Y007773D01*
X044074Y007756D01*
X044041Y007737D01*
X044010Y007714D01*
X043981Y007688D01*
X043955Y007659D01*
X043932Y007628D01*
X043913Y007595D01*
X043896Y007560D01*
X043883Y007523D01*
X043874Y007486D01*
X043868Y007448D01*
X043866Y007409D01*
X043866Y027488D02*
X043868Y027527D01*
X043874Y027565D01*
X043883Y027602D01*
X043896Y027639D01*
X043913Y027674D01*
X043932Y027707D01*
X043955Y027738D01*
X043981Y027767D01*
X044010Y027793D01*
X044041Y027816D01*
X044074Y027835D01*
X044109Y027852D01*
X044146Y027865D01*
X044183Y027874D01*
X044221Y027880D01*
X044260Y027882D01*
X044260Y028275D02*
X044221Y028277D01*
X044183Y028283D01*
X044146Y028292D01*
X044109Y028305D01*
X044074Y028322D01*
X044041Y028341D01*
X044010Y028364D01*
X043981Y028390D01*
X043955Y028419D01*
X043932Y028450D01*
X043913Y028483D01*
X043896Y028518D01*
X043883Y028555D01*
X043874Y028592D01*
X043868Y028630D01*
X043866Y028669D01*
X043866Y032015D01*
X043867Y032015D02*
X043865Y032061D01*
X043860Y032107D01*
X043851Y032153D01*
X043838Y032198D01*
X043822Y032241D01*
X043803Y032283D01*
X043780Y032324D01*
X043754Y032362D01*
X043725Y032399D01*
X043694Y032433D01*
X043660Y032464D01*
X043623Y032493D01*
X043585Y032519D01*
X043544Y032542D01*
X043502Y032561D01*
X043459Y032577D01*
X043414Y032590D01*
X043368Y032599D01*
X043322Y032604D01*
X043276Y032606D01*
X039929Y032606D01*
X039535Y033000D02*
X039537Y033039D01*
X039543Y033077D01*
X039552Y033114D01*
X039565Y033151D01*
X039582Y033186D01*
X039601Y033219D01*
X039624Y033250D01*
X039650Y033279D01*
X039679Y033305D01*
X039710Y033328D01*
X039743Y033347D01*
X039778Y033364D01*
X039815Y033377D01*
X039852Y033386D01*
X039890Y033392D01*
X039929Y033394D01*
X039929Y033393D02*
X053906Y033393D01*
X054300Y033000D02*
X054298Y032961D01*
X054292Y032923D01*
X054283Y032886D01*
X054270Y032849D01*
X054253Y032814D01*
X054234Y032781D01*
X054211Y032750D01*
X054185Y032721D01*
X054156Y032695D01*
X054125Y032672D01*
X054092Y032653D01*
X054057Y032636D01*
X054020Y032623D01*
X053983Y032614D01*
X053945Y032608D01*
X053906Y032606D01*
X045244Y032606D01*
X045198Y032604D01*
X045152Y032599D01*
X045106Y032590D01*
X045061Y032577D01*
X045018Y032561D01*
X044976Y032542D01*
X044935Y032519D01*
X044897Y032493D01*
X044860Y032464D01*
X044826Y032433D01*
X044795Y032399D01*
X044766Y032362D01*
X044740Y032324D01*
X044717Y032283D01*
X044698Y032241D01*
X044682Y032198D01*
X044669Y032153D01*
X044660Y032107D01*
X044655Y032061D01*
X044653Y032015D01*
X044654Y032015D02*
X044654Y028669D01*
X044652Y028630D01*
X044646Y028592D01*
X044637Y028555D01*
X044624Y028518D01*
X044607Y028483D01*
X044588Y028450D01*
X044565Y028419D01*
X044539Y028390D01*
X044510Y028364D01*
X044479Y028341D01*
X044446Y028322D01*
X044411Y028305D01*
X044374Y028292D01*
X044337Y028283D01*
X044299Y028277D01*
X044260Y028275D01*
X038748Y032606D02*
X009614Y032606D01*
X009220Y033000D02*
X009222Y033039D01*
X009228Y033077D01*
X009237Y033114D01*
X009250Y033151D01*
X009267Y033186D01*
X009286Y033219D01*
X009309Y033250D01*
X009335Y033279D01*
X009364Y033305D01*
X009395Y033328D01*
X009428Y033347D01*
X009463Y033364D01*
X009500Y033377D01*
X009537Y033386D01*
X009575Y033392D01*
X009614Y033394D01*
X009614Y033393D02*
X038748Y033393D01*
X039142Y033000D02*
X039140Y032961D01*
X039134Y032923D01*
X039125Y032886D01*
X039112Y032849D01*
X039095Y032814D01*
X039076Y032781D01*
X039053Y032750D01*
X039027Y032721D01*
X038998Y032695D01*
X038967Y032672D01*
X038934Y032653D01*
X038899Y032636D01*
X038862Y032623D01*
X038825Y032614D01*
X038787Y032608D01*
X038748Y032606D01*
X039142Y033000D02*
X039140Y033039D01*
X039134Y033077D01*
X039125Y033114D01*
X039112Y033151D01*
X039095Y033186D01*
X039076Y033219D01*
X039053Y033250D01*
X039027Y033279D01*
X038998Y033305D01*
X038967Y033328D01*
X038934Y033347D01*
X038899Y033364D01*
X038862Y033377D01*
X038825Y033386D01*
X038787Y033392D01*
X038748Y033394D01*
X039535Y033000D02*
X039537Y032961D01*
X039543Y032923D01*
X039552Y032886D01*
X039565Y032849D01*
X039582Y032814D01*
X039601Y032781D01*
X039624Y032750D01*
X039650Y032721D01*
X039679Y032695D01*
X039710Y032672D01*
X039743Y032653D01*
X039778Y032636D01*
X039815Y032623D01*
X039852Y032614D01*
X039890Y032608D01*
X039929Y032606D01*
X053906Y033394D02*
X053945Y033392D01*
X053983Y033386D01*
X054020Y033377D01*
X054057Y033364D01*
X054092Y033347D01*
X054125Y033328D01*
X054156Y033305D01*
X054185Y033279D01*
X054211Y033250D01*
X054234Y033219D01*
X054253Y033186D01*
X054270Y033151D01*
X054283Y033114D01*
X054292Y033077D01*
X054298Y033039D01*
X054300Y033000D01*
X054693Y033000D02*
X054695Y033039D01*
X054701Y033077D01*
X054710Y033114D01*
X054723Y033151D01*
X054740Y033186D01*
X054759Y033219D01*
X054782Y033250D01*
X054808Y033279D01*
X054837Y033305D01*
X054868Y033328D01*
X054901Y033347D01*
X054936Y033364D01*
X054973Y033377D01*
X055010Y033386D01*
X055048Y033392D01*
X055087Y033394D01*
X055087Y033393D02*
X062961Y033393D01*
X063007Y033395D01*
X063053Y033400D01*
X063099Y033409D01*
X063144Y033422D01*
X063187Y033438D01*
X063229Y033457D01*
X063270Y033480D01*
X063308Y033506D01*
X063345Y033535D01*
X063379Y033566D01*
X063410Y033600D01*
X063439Y033637D01*
X063465Y033675D01*
X063488Y033716D01*
X063507Y033758D01*
X063523Y033801D01*
X063536Y033846D01*
X063545Y033892D01*
X063550Y033938D01*
X063552Y033984D01*
X063551Y033984D02*
X063551Y037330D01*
X063945Y037724D02*
X063984Y037722D01*
X064022Y037716D01*
X064059Y037707D01*
X064096Y037694D01*
X064131Y037677D01*
X064164Y037658D01*
X064195Y037635D01*
X064224Y037609D01*
X064250Y037580D01*
X064273Y037549D01*
X064292Y037516D01*
X064309Y037481D01*
X064322Y037444D01*
X064331Y037407D01*
X064337Y037369D01*
X064339Y037330D01*
X064339Y033984D01*
X064338Y033984D02*
X064340Y033938D01*
X064345Y033892D01*
X064354Y033846D01*
X064367Y033801D01*
X064383Y033758D01*
X064402Y033716D01*
X064425Y033675D01*
X064451Y033637D01*
X064480Y033600D01*
X064511Y033566D01*
X064545Y033535D01*
X064582Y033506D01*
X064620Y033480D01*
X064661Y033457D01*
X064703Y033438D01*
X064746Y033422D01*
X064791Y033409D01*
X064837Y033400D01*
X064883Y033395D01*
X064929Y033393D01*
X068276Y033393D01*
X068670Y033000D02*
X068668Y032961D01*
X068662Y032923D01*
X068653Y032886D01*
X068640Y032849D01*
X068623Y032814D01*
X068604Y032781D01*
X068581Y032750D01*
X068555Y032721D01*
X068526Y032695D01*
X068495Y032672D01*
X068462Y032653D01*
X068427Y032636D01*
X068390Y032623D01*
X068353Y032614D01*
X068315Y032608D01*
X068276Y032606D01*
X055087Y032606D01*
X055048Y032608D01*
X055010Y032614D01*
X054973Y032623D01*
X054936Y032636D01*
X054901Y032653D01*
X054868Y032672D01*
X054837Y032695D01*
X054808Y032721D01*
X054782Y032750D01*
X054759Y032781D01*
X054740Y032814D01*
X054723Y032849D01*
X054710Y032886D01*
X054701Y032923D01*
X054695Y032961D01*
X054693Y033000D01*
X063551Y037330D02*
X063553Y037369D01*
X063559Y037407D01*
X063568Y037444D01*
X063581Y037481D01*
X063598Y037516D01*
X063617Y037549D01*
X063640Y037580D01*
X063666Y037609D01*
X063695Y037635D01*
X063726Y037658D01*
X063759Y037677D01*
X063794Y037694D01*
X063831Y037707D01*
X063868Y037716D01*
X063906Y037722D01*
X063945Y037724D01*
X063945Y038117D02*
X063906Y038119D01*
X063868Y038125D01*
X063831Y038134D01*
X063794Y038147D01*
X063759Y038164D01*
X063726Y038183D01*
X063695Y038206D01*
X063666Y038232D01*
X063640Y038261D01*
X063617Y038292D01*
X063598Y038325D01*
X063581Y038360D01*
X063568Y038397D01*
X063559Y038434D01*
X063553Y038472D01*
X063551Y038511D01*
X063551Y057409D01*
X063945Y057803D02*
X063984Y057801D01*
X064022Y057795D01*
X064059Y057786D01*
X064096Y057773D01*
X064131Y057756D01*
X064164Y057737D01*
X064195Y057714D01*
X064224Y057688D01*
X064250Y057659D01*
X064273Y057628D01*
X064292Y057595D01*
X064309Y057560D01*
X064322Y057523D01*
X064331Y057486D01*
X064337Y057448D01*
X064339Y057409D01*
X064339Y038511D01*
X064337Y038472D01*
X064331Y038434D01*
X064322Y038397D01*
X064309Y038360D01*
X064292Y038325D01*
X064273Y038292D01*
X064250Y038261D01*
X064224Y038232D01*
X064195Y038206D01*
X064164Y038183D01*
X064131Y038164D01*
X064096Y038147D01*
X064059Y038134D01*
X064022Y038125D01*
X063984Y038119D01*
X063945Y038117D01*
X069457Y033393D02*
X118276Y033393D01*
X118670Y033000D02*
X118668Y032961D01*
X118662Y032923D01*
X118653Y032886D01*
X118640Y032849D01*
X118623Y032814D01*
X118604Y032781D01*
X118581Y032750D01*
X118555Y032721D01*
X118526Y032695D01*
X118495Y032672D01*
X118462Y032653D01*
X118427Y032636D01*
X118390Y032623D01*
X118353Y032614D01*
X118315Y032608D01*
X118276Y032606D01*
X069457Y032606D01*
X069063Y033000D02*
X069065Y033039D01*
X069071Y033077D01*
X069080Y033114D01*
X069093Y033151D01*
X069110Y033186D01*
X069129Y033219D01*
X069152Y033250D01*
X069178Y033279D01*
X069207Y033305D01*
X069238Y033328D01*
X069271Y033347D01*
X069306Y033364D01*
X069343Y033377D01*
X069380Y033386D01*
X069418Y033392D01*
X069457Y033394D01*
X069063Y033000D02*
X069065Y032961D01*
X069071Y032923D01*
X069080Y032886D01*
X069093Y032849D01*
X069110Y032814D01*
X069129Y032781D01*
X069152Y032750D01*
X069178Y032721D01*
X069207Y032695D01*
X069238Y032672D01*
X069271Y032653D01*
X069306Y032636D01*
X069343Y032623D01*
X069380Y032614D01*
X069418Y032608D01*
X069457Y032606D01*
X068670Y033000D02*
X068668Y033039D01*
X068662Y033077D01*
X068653Y033114D01*
X068640Y033151D01*
X068623Y033186D01*
X068604Y033219D01*
X068581Y033250D01*
X068555Y033279D01*
X068526Y033305D01*
X068495Y033328D01*
X068462Y033347D01*
X068427Y033364D01*
X068390Y033377D01*
X068353Y033386D01*
X068315Y033392D01*
X068276Y033394D01*
X086347Y029653D02*
X086349Y029703D01*
X086355Y029753D01*
X086365Y029802D01*
X086379Y029850D01*
X086396Y029897D01*
X086417Y029942D01*
X086442Y029986D01*
X086470Y030027D01*
X086502Y030066D01*
X086536Y030103D01*
X086573Y030137D01*
X086613Y030167D01*
X086655Y030194D01*
X086699Y030218D01*
X086745Y030239D01*
X086792Y030255D01*
X086840Y030268D01*
X086890Y030277D01*
X086939Y030282D01*
X086990Y030283D01*
X087040Y030280D01*
X087089Y030273D01*
X087138Y030262D01*
X087186Y030247D01*
X087232Y030229D01*
X087277Y030207D01*
X087320Y030181D01*
X087361Y030152D01*
X087400Y030120D01*
X087436Y030085D01*
X087468Y030047D01*
X087498Y030007D01*
X087525Y029964D01*
X087548Y029920D01*
X087567Y029874D01*
X087583Y029826D01*
X087595Y029777D01*
X087603Y029728D01*
X087607Y029678D01*
X087607Y029628D01*
X087603Y029578D01*
X087595Y029529D01*
X087583Y029480D01*
X087567Y029432D01*
X087548Y029386D01*
X087525Y029342D01*
X087498Y029299D01*
X087468Y029259D01*
X087436Y029221D01*
X087400Y029186D01*
X087361Y029154D01*
X087320Y029125D01*
X087277Y029099D01*
X087232Y029077D01*
X087186Y029059D01*
X087138Y029044D01*
X087089Y029033D01*
X087040Y029026D01*
X086990Y029023D01*
X086939Y029024D01*
X086890Y029029D01*
X086840Y029038D01*
X086792Y029051D01*
X086745Y029067D01*
X086699Y029088D01*
X086655Y029112D01*
X086613Y029139D01*
X086573Y029169D01*
X086536Y029203D01*
X086502Y029240D01*
X086470Y029279D01*
X086442Y029320D01*
X086417Y029364D01*
X086396Y029409D01*
X086379Y029456D01*
X086365Y029504D01*
X086355Y029553D01*
X086349Y029603D01*
X086347Y029653D01*
X118276Y033394D02*
X118315Y033392D01*
X118353Y033386D01*
X118390Y033377D01*
X118427Y033364D01*
X118462Y033347D01*
X118495Y033328D01*
X118526Y033305D01*
X118555Y033279D01*
X118581Y033250D01*
X118604Y033219D01*
X118623Y033186D01*
X118640Y033151D01*
X118653Y033114D01*
X118662Y033077D01*
X118668Y033039D01*
X118670Y033000D01*
X119063Y033000D02*
X119065Y032961D01*
X119071Y032923D01*
X119080Y032886D01*
X119093Y032849D01*
X119110Y032814D01*
X119129Y032781D01*
X119152Y032750D01*
X119178Y032721D01*
X119207Y032695D01*
X119238Y032672D01*
X119271Y032653D01*
X119306Y032636D01*
X119343Y032623D01*
X119380Y032614D01*
X119418Y032608D01*
X119457Y032606D01*
X119811Y029653D02*
X119813Y029703D01*
X119819Y029753D01*
X119829Y029802D01*
X119843Y029850D01*
X119860Y029897D01*
X119881Y029942D01*
X119906Y029986D01*
X119934Y030027D01*
X119966Y030066D01*
X120000Y030103D01*
X120037Y030137D01*
X120077Y030167D01*
X120119Y030194D01*
X120163Y030218D01*
X120209Y030239D01*
X120256Y030255D01*
X120304Y030268D01*
X120354Y030277D01*
X120403Y030282D01*
X120454Y030283D01*
X120504Y030280D01*
X120553Y030273D01*
X120602Y030262D01*
X120650Y030247D01*
X120696Y030229D01*
X120741Y030207D01*
X120784Y030181D01*
X120825Y030152D01*
X120864Y030120D01*
X120900Y030085D01*
X120932Y030047D01*
X120962Y030007D01*
X120989Y029964D01*
X121012Y029920D01*
X121031Y029874D01*
X121047Y029826D01*
X121059Y029777D01*
X121067Y029728D01*
X121071Y029678D01*
X121071Y029628D01*
X121067Y029578D01*
X121059Y029529D01*
X121047Y029480D01*
X121031Y029432D01*
X121012Y029386D01*
X120989Y029342D01*
X120962Y029299D01*
X120932Y029259D01*
X120900Y029221D01*
X120864Y029186D01*
X120825Y029154D01*
X120784Y029125D01*
X120741Y029099D01*
X120696Y029077D01*
X120650Y029059D01*
X120602Y029044D01*
X120553Y029033D01*
X120504Y029026D01*
X120454Y029023D01*
X120403Y029024D01*
X120354Y029029D01*
X120304Y029038D01*
X120256Y029051D01*
X120209Y029067D01*
X120163Y029088D01*
X120119Y029112D01*
X120077Y029139D01*
X120037Y029169D01*
X120000Y029203D01*
X119966Y029240D01*
X119934Y029279D01*
X119906Y029320D01*
X119881Y029364D01*
X119860Y029409D01*
X119843Y029456D01*
X119829Y029504D01*
X119819Y029553D01*
X119813Y029603D01*
X119811Y029653D01*
X119811Y006425D02*
X119813Y006475D01*
X119819Y006525D01*
X119829Y006574D01*
X119843Y006622D01*
X119860Y006669D01*
X119881Y006714D01*
X119906Y006758D01*
X119934Y006799D01*
X119966Y006838D01*
X120000Y006875D01*
X120037Y006909D01*
X120077Y006939D01*
X120119Y006966D01*
X120163Y006990D01*
X120209Y007011D01*
X120256Y007027D01*
X120304Y007040D01*
X120354Y007049D01*
X120403Y007054D01*
X120454Y007055D01*
X120504Y007052D01*
X120553Y007045D01*
X120602Y007034D01*
X120650Y007019D01*
X120696Y007001D01*
X120741Y006979D01*
X120784Y006953D01*
X120825Y006924D01*
X120864Y006892D01*
X120900Y006857D01*
X120932Y006819D01*
X120962Y006779D01*
X120989Y006736D01*
X121012Y006692D01*
X121031Y006646D01*
X121047Y006598D01*
X121059Y006549D01*
X121067Y006500D01*
X121071Y006450D01*
X121071Y006400D01*
X121067Y006350D01*
X121059Y006301D01*
X121047Y006252D01*
X121031Y006204D01*
X121012Y006158D01*
X120989Y006114D01*
X120962Y006071D01*
X120932Y006031D01*
X120900Y005993D01*
X120864Y005958D01*
X120825Y005926D01*
X120784Y005897D01*
X120741Y005871D01*
X120696Y005849D01*
X120650Y005831D01*
X120602Y005816D01*
X120553Y005805D01*
X120504Y005798D01*
X120454Y005795D01*
X120403Y005796D01*
X120354Y005801D01*
X120304Y005810D01*
X120256Y005823D01*
X120209Y005839D01*
X120163Y005860D01*
X120119Y005884D01*
X120077Y005911D01*
X120037Y005941D01*
X120000Y005975D01*
X119966Y006012D01*
X119934Y006051D01*
X119906Y006092D01*
X119881Y006136D01*
X119860Y006181D01*
X119843Y006228D01*
X119829Y006276D01*
X119819Y006325D01*
X119813Y006375D01*
X119811Y006425D01*
X086347Y006425D02*
X086349Y006475D01*
X086355Y006525D01*
X086365Y006574D01*
X086379Y006622D01*
X086396Y006669D01*
X086417Y006714D01*
X086442Y006758D01*
X086470Y006799D01*
X086502Y006838D01*
X086536Y006875D01*
X086573Y006909D01*
X086613Y006939D01*
X086655Y006966D01*
X086699Y006990D01*
X086745Y007011D01*
X086792Y007027D01*
X086840Y007040D01*
X086890Y007049D01*
X086939Y007054D01*
X086990Y007055D01*
X087040Y007052D01*
X087089Y007045D01*
X087138Y007034D01*
X087186Y007019D01*
X087232Y007001D01*
X087277Y006979D01*
X087320Y006953D01*
X087361Y006924D01*
X087400Y006892D01*
X087436Y006857D01*
X087468Y006819D01*
X087498Y006779D01*
X087525Y006736D01*
X087548Y006692D01*
X087567Y006646D01*
X087583Y006598D01*
X087595Y006549D01*
X087603Y006500D01*
X087607Y006450D01*
X087607Y006400D01*
X087603Y006350D01*
X087595Y006301D01*
X087583Y006252D01*
X087567Y006204D01*
X087548Y006158D01*
X087525Y006114D01*
X087498Y006071D01*
X087468Y006031D01*
X087436Y005993D01*
X087400Y005958D01*
X087361Y005926D01*
X087320Y005897D01*
X087277Y005871D01*
X087232Y005849D01*
X087186Y005831D01*
X087138Y005816D01*
X087089Y005805D01*
X087040Y005798D01*
X086990Y005795D01*
X086939Y005796D01*
X086890Y005801D01*
X086840Y005810D01*
X086792Y005823D01*
X086745Y005839D01*
X086699Y005860D01*
X086655Y005884D01*
X086613Y005911D01*
X086573Y005941D01*
X086536Y005975D01*
X086502Y006012D01*
X086470Y006051D01*
X086442Y006092D01*
X086417Y006136D01*
X086396Y006181D01*
X086379Y006228D01*
X086365Y006276D01*
X086355Y006325D01*
X086349Y006375D01*
X086347Y006425D01*
X018520Y027948D02*
X018522Y027998D01*
X018528Y028048D01*
X018538Y028097D01*
X018552Y028145D01*
X018569Y028192D01*
X018590Y028237D01*
X018615Y028281D01*
X018643Y028322D01*
X018675Y028361D01*
X018709Y028398D01*
X018746Y028432D01*
X018786Y028462D01*
X018828Y028489D01*
X018872Y028513D01*
X018918Y028534D01*
X018965Y028550D01*
X019013Y028563D01*
X019063Y028572D01*
X019112Y028577D01*
X019163Y028578D01*
X019213Y028575D01*
X019262Y028568D01*
X019311Y028557D01*
X019359Y028542D01*
X019405Y028524D01*
X019450Y028502D01*
X019493Y028476D01*
X019534Y028447D01*
X019573Y028415D01*
X019609Y028380D01*
X019641Y028342D01*
X019671Y028302D01*
X019698Y028259D01*
X019721Y028215D01*
X019740Y028169D01*
X019756Y028121D01*
X019768Y028072D01*
X019776Y028023D01*
X019780Y027973D01*
X019780Y027923D01*
X019776Y027873D01*
X019768Y027824D01*
X019756Y027775D01*
X019740Y027727D01*
X019721Y027681D01*
X019698Y027637D01*
X019671Y027594D01*
X019641Y027554D01*
X019609Y027516D01*
X019573Y027481D01*
X019534Y027449D01*
X019493Y027420D01*
X019450Y027394D01*
X019405Y027372D01*
X019359Y027354D01*
X019311Y027339D01*
X019262Y027328D01*
X019213Y027321D01*
X019163Y027318D01*
X019112Y027319D01*
X019063Y027324D01*
X019013Y027333D01*
X018965Y027346D01*
X018918Y027362D01*
X018872Y027383D01*
X018828Y027407D01*
X018786Y027434D01*
X018746Y027464D01*
X018709Y027498D01*
X018675Y027535D01*
X018643Y027574D01*
X018615Y027615D01*
X018590Y027659D01*
X018569Y027704D01*
X018552Y027751D01*
X018538Y027799D01*
X018528Y027848D01*
X018522Y027898D01*
X018520Y027948D01*
X014024Y027948D02*
X014026Y027998D01*
X014032Y028048D01*
X014042Y028097D01*
X014056Y028145D01*
X014073Y028192D01*
X014094Y028237D01*
X014119Y028281D01*
X014147Y028322D01*
X014179Y028361D01*
X014213Y028398D01*
X014250Y028432D01*
X014290Y028462D01*
X014332Y028489D01*
X014376Y028513D01*
X014422Y028534D01*
X014469Y028550D01*
X014517Y028563D01*
X014567Y028572D01*
X014616Y028577D01*
X014667Y028578D01*
X014717Y028575D01*
X014766Y028568D01*
X014815Y028557D01*
X014863Y028542D01*
X014909Y028524D01*
X014954Y028502D01*
X014997Y028476D01*
X015038Y028447D01*
X015077Y028415D01*
X015113Y028380D01*
X015145Y028342D01*
X015175Y028302D01*
X015202Y028259D01*
X015225Y028215D01*
X015244Y028169D01*
X015260Y028121D01*
X015272Y028072D01*
X015280Y028023D01*
X015284Y027973D01*
X015284Y027923D01*
X015280Y027873D01*
X015272Y027824D01*
X015260Y027775D01*
X015244Y027727D01*
X015225Y027681D01*
X015202Y027637D01*
X015175Y027594D01*
X015145Y027554D01*
X015113Y027516D01*
X015077Y027481D01*
X015038Y027449D01*
X014997Y027420D01*
X014954Y027394D01*
X014909Y027372D01*
X014863Y027354D01*
X014815Y027339D01*
X014766Y027328D01*
X014717Y027321D01*
X014667Y027318D01*
X014616Y027319D01*
X014567Y027324D01*
X014517Y027333D01*
X014469Y027346D01*
X014422Y027362D01*
X014376Y027383D01*
X014332Y027407D01*
X014290Y027434D01*
X014250Y027464D01*
X014213Y027498D01*
X014179Y027535D01*
X014147Y027574D01*
X014119Y027615D01*
X014094Y027659D01*
X014073Y027704D01*
X014056Y027751D01*
X014042Y027799D01*
X014032Y027848D01*
X014026Y027898D01*
X014024Y027948D01*
X009614Y032606D02*
X009575Y032608D01*
X009537Y032614D01*
X009500Y032623D01*
X009463Y032636D01*
X009428Y032653D01*
X009395Y032672D01*
X009364Y032695D01*
X009335Y032721D01*
X009309Y032750D01*
X009286Y032781D01*
X009267Y032814D01*
X009250Y032849D01*
X009237Y032886D01*
X009228Y032923D01*
X009222Y032961D01*
X009220Y033000D01*
X008827Y033000D02*
X008825Y033039D01*
X008819Y033077D01*
X008810Y033114D01*
X008797Y033151D01*
X008780Y033186D01*
X008761Y033219D01*
X008738Y033250D01*
X008712Y033279D01*
X008683Y033305D01*
X008652Y033328D01*
X008619Y033347D01*
X008584Y033364D01*
X008547Y033377D01*
X008510Y033386D01*
X008472Y033392D01*
X008433Y033394D01*
X030972Y047173D02*
X030974Y047244D01*
X030980Y047315D01*
X030990Y047386D01*
X031004Y047455D01*
X031021Y047524D01*
X031043Y047592D01*
X031068Y047659D01*
X031097Y047724D01*
X031129Y047787D01*
X031165Y047849D01*
X031204Y047908D01*
X031247Y047965D01*
X031292Y048020D01*
X031341Y048072D01*
X031392Y048121D01*
X031446Y048167D01*
X031503Y048211D01*
X031561Y048251D01*
X031622Y048287D01*
X031685Y048321D01*
X031750Y048350D01*
X031816Y048376D01*
X031884Y048399D01*
X031952Y048417D01*
X032022Y048432D01*
X032092Y048443D01*
X032163Y048450D01*
X032234Y048453D01*
X032305Y048452D01*
X032376Y048447D01*
X032447Y048438D01*
X032517Y048425D01*
X032586Y048409D01*
X032654Y048388D01*
X032721Y048364D01*
X032787Y048336D01*
X032850Y048304D01*
X032912Y048269D01*
X032972Y048231D01*
X033030Y048189D01*
X033085Y048145D01*
X033138Y048097D01*
X033188Y048046D01*
X033235Y047993D01*
X033279Y047937D01*
X033320Y047879D01*
X033358Y047818D01*
X033392Y047756D01*
X033422Y047691D01*
X033449Y047626D01*
X033473Y047558D01*
X033492Y047490D01*
X033508Y047421D01*
X033520Y047350D01*
X033528Y047280D01*
X033532Y047209D01*
X033532Y047137D01*
X033528Y047066D01*
X033520Y046996D01*
X033508Y046925D01*
X033492Y046856D01*
X033473Y046788D01*
X033449Y046720D01*
X033422Y046655D01*
X033392Y046590D01*
X033358Y046528D01*
X033320Y046467D01*
X033279Y046409D01*
X033235Y046353D01*
X033188Y046300D01*
X033138Y046249D01*
X033085Y046201D01*
X033030Y046157D01*
X032972Y046115D01*
X032912Y046077D01*
X032850Y046042D01*
X032787Y046010D01*
X032721Y045982D01*
X032654Y045958D01*
X032586Y045937D01*
X032517Y045921D01*
X032447Y045908D01*
X032376Y045899D01*
X032305Y045894D01*
X032234Y045893D01*
X032163Y045896D01*
X032092Y045903D01*
X032022Y045914D01*
X031952Y045929D01*
X031884Y045947D01*
X031816Y045970D01*
X031750Y045996D01*
X031685Y046025D01*
X031622Y046059D01*
X031561Y046095D01*
X031503Y046135D01*
X031446Y046179D01*
X031392Y046225D01*
X031341Y046274D01*
X031292Y046326D01*
X031247Y046381D01*
X031204Y046438D01*
X031165Y046497D01*
X031129Y046559D01*
X031097Y046622D01*
X031068Y046687D01*
X031043Y046754D01*
X031021Y046822D01*
X031004Y046891D01*
X030990Y046960D01*
X030980Y047031D01*
X030974Y047102D01*
X030972Y047173D01*
X063551Y057409D02*
X063553Y057448D01*
X063559Y057486D01*
X063568Y057523D01*
X063581Y057560D01*
X063598Y057595D01*
X063617Y057628D01*
X063640Y057659D01*
X063666Y057688D01*
X063695Y057714D01*
X063726Y057737D01*
X063759Y057756D01*
X063794Y057773D01*
X063831Y057786D01*
X063868Y057795D01*
X063906Y057801D01*
X063945Y057803D01*
X063945Y058196D02*
X063984Y058198D01*
X064022Y058204D01*
X064059Y058213D01*
X064096Y058226D01*
X064131Y058243D01*
X064164Y058262D01*
X064195Y058285D01*
X064224Y058311D01*
X064250Y058340D01*
X064273Y058371D01*
X064292Y058404D01*
X064309Y058439D01*
X064322Y058476D01*
X064331Y058513D01*
X064337Y058551D01*
X064339Y058590D01*
M02*
