G75*
G70*
%OFA0B0*%
%FSLAX24Y24*%
%IPPOS*%
%LPD*%
%AMOC8*
5,1,8,0,0,1.08239X$1,22.5*
%
%ADD10C,0.0039*%
D10*
X006662Y005047D02*
X047607Y005047D01*
X047607Y005046D02*
X047653Y005048D01*
X047699Y005053D01*
X047745Y005062D01*
X047790Y005075D01*
X047833Y005091D01*
X047875Y005110D01*
X047916Y005133D01*
X047954Y005159D01*
X047991Y005188D01*
X048025Y005219D01*
X048056Y005253D01*
X048085Y005290D01*
X048111Y005328D01*
X048134Y005369D01*
X048153Y005411D01*
X048169Y005454D01*
X048182Y005499D01*
X048191Y005545D01*
X048196Y005591D01*
X048198Y005637D01*
X048197Y005637D02*
X048197Y008984D01*
X048591Y009378D02*
X048630Y009376D01*
X048668Y009370D01*
X048705Y009361D01*
X048742Y009348D01*
X048777Y009331D01*
X048810Y009312D01*
X048841Y009289D01*
X048870Y009263D01*
X048896Y009234D01*
X048919Y009203D01*
X048938Y009170D01*
X048955Y009135D01*
X048968Y009098D01*
X048977Y009061D01*
X048983Y009023D01*
X048985Y008984D01*
X048985Y005637D01*
X048984Y005637D02*
X048986Y005591D01*
X048991Y005545D01*
X049000Y005499D01*
X049013Y005454D01*
X049029Y005411D01*
X049048Y005369D01*
X049071Y005328D01*
X049097Y005290D01*
X049126Y005253D01*
X049157Y005219D01*
X049191Y005188D01*
X049228Y005159D01*
X049266Y005133D01*
X049307Y005110D01*
X049349Y005091D01*
X049392Y005075D01*
X049437Y005062D01*
X049483Y005053D01*
X049529Y005048D01*
X049575Y005046D01*
X049575Y005047D02*
X129890Y005047D01*
X129890Y005046D02*
X129936Y005048D01*
X129982Y005053D01*
X130028Y005062D01*
X130073Y005075D01*
X130116Y005091D01*
X130158Y005110D01*
X130199Y005133D01*
X130237Y005159D01*
X130274Y005188D01*
X130308Y005219D01*
X130339Y005253D01*
X130368Y005290D01*
X130394Y005328D01*
X130417Y005369D01*
X130436Y005411D01*
X130452Y005454D01*
X130465Y005499D01*
X130474Y005545D01*
X130479Y005591D01*
X130481Y005637D01*
X130481Y033590D01*
X130479Y033636D01*
X130474Y033682D01*
X130465Y033728D01*
X130452Y033773D01*
X130436Y033816D01*
X130417Y033858D01*
X130394Y033899D01*
X130368Y033937D01*
X130339Y033974D01*
X130308Y034008D01*
X130274Y034039D01*
X130237Y034068D01*
X130199Y034094D01*
X130158Y034117D01*
X130116Y034136D01*
X130073Y034152D01*
X130028Y034165D01*
X129982Y034174D01*
X129936Y034179D01*
X129890Y034181D01*
X121032Y034181D01*
X120638Y034574D02*
X120640Y034613D01*
X120646Y034651D01*
X120655Y034688D01*
X120668Y034725D01*
X120685Y034760D01*
X120704Y034793D01*
X120727Y034824D01*
X120753Y034853D01*
X120782Y034879D01*
X120813Y034902D01*
X120846Y034921D01*
X120881Y034938D01*
X120918Y034951D01*
X120955Y034960D01*
X120993Y034966D01*
X121032Y034968D01*
X124378Y034968D01*
X124424Y034970D01*
X124470Y034975D01*
X124516Y034984D01*
X124561Y034997D01*
X124604Y035013D01*
X124646Y035032D01*
X124687Y035055D01*
X124725Y035081D01*
X124762Y035110D01*
X124796Y035141D01*
X124827Y035175D01*
X124856Y035212D01*
X124882Y035250D01*
X124905Y035291D01*
X124924Y035333D01*
X124940Y035376D01*
X124953Y035421D01*
X124962Y035467D01*
X124967Y035513D01*
X124969Y035559D01*
X124969Y063511D01*
X124967Y063557D01*
X124962Y063603D01*
X124953Y063649D01*
X124940Y063694D01*
X124924Y063737D01*
X124905Y063779D01*
X124882Y063820D01*
X124856Y063858D01*
X124827Y063895D01*
X124796Y063929D01*
X124762Y063960D01*
X124725Y063989D01*
X124687Y064015D01*
X124646Y064038D01*
X124604Y064057D01*
X124561Y064073D01*
X124516Y064086D01*
X124470Y064095D01*
X124424Y064100D01*
X124378Y064102D01*
X066504Y064102D01*
X066458Y064100D01*
X066412Y064095D01*
X066366Y064086D01*
X066321Y064073D01*
X066278Y064057D01*
X066236Y064038D01*
X066195Y064015D01*
X066157Y063989D01*
X066120Y063960D01*
X066086Y063929D01*
X066055Y063895D01*
X066026Y063858D01*
X066000Y063820D01*
X065977Y063779D01*
X065958Y063737D01*
X065942Y063694D01*
X065929Y063649D01*
X065920Y063603D01*
X065915Y063557D01*
X065913Y063511D01*
X065914Y063511D02*
X065914Y060165D01*
X065520Y059771D02*
X065481Y059773D01*
X065443Y059779D01*
X065406Y059788D01*
X065369Y059801D01*
X065334Y059818D01*
X065301Y059837D01*
X065270Y059860D01*
X065241Y059886D01*
X065215Y059915D01*
X065192Y059946D01*
X065173Y059979D01*
X065156Y060014D01*
X065143Y060051D01*
X065134Y060088D01*
X065128Y060126D01*
X065126Y060165D01*
X065126Y063511D01*
X065127Y063511D02*
X065125Y063557D01*
X065120Y063603D01*
X065111Y063649D01*
X065098Y063694D01*
X065082Y063737D01*
X065063Y063779D01*
X065040Y063820D01*
X065014Y063858D01*
X064985Y063895D01*
X064954Y063929D01*
X064920Y063960D01*
X064883Y063989D01*
X064845Y064015D01*
X064804Y064038D01*
X064762Y064057D01*
X064719Y064073D01*
X064674Y064086D01*
X064628Y064095D01*
X064582Y064100D01*
X064536Y064102D01*
X006662Y064102D01*
X006616Y064100D01*
X006570Y064095D01*
X006524Y064086D01*
X006479Y064073D01*
X006436Y064057D01*
X006394Y064038D01*
X006353Y064015D01*
X006315Y063989D01*
X006278Y063960D01*
X006244Y063929D01*
X006213Y063895D01*
X006184Y063858D01*
X006158Y063820D01*
X006135Y063779D01*
X006116Y063737D01*
X006100Y063694D01*
X006087Y063649D01*
X006078Y063603D01*
X006073Y063557D01*
X006071Y063511D01*
X006071Y035559D01*
X006073Y035513D01*
X006078Y035467D01*
X006087Y035421D01*
X006100Y035376D01*
X006116Y035333D01*
X006135Y035291D01*
X006158Y035250D01*
X006184Y035212D01*
X006213Y035175D01*
X006244Y035141D01*
X006278Y035110D01*
X006315Y035081D01*
X006353Y035055D01*
X006394Y035032D01*
X006436Y035013D01*
X006479Y034997D01*
X006524Y034984D01*
X006570Y034975D01*
X006616Y034970D01*
X006662Y034968D01*
X010008Y034968D01*
X010402Y034574D02*
X010400Y034535D01*
X010394Y034497D01*
X010385Y034460D01*
X010372Y034423D01*
X010355Y034388D01*
X010336Y034355D01*
X010313Y034324D01*
X010287Y034295D01*
X010258Y034269D01*
X010227Y034246D01*
X010194Y034227D01*
X010159Y034210D01*
X010122Y034197D01*
X010085Y034188D01*
X010047Y034182D01*
X010008Y034180D01*
X010008Y034181D02*
X006662Y034181D01*
X006616Y034179D01*
X006570Y034174D01*
X006524Y034165D01*
X006479Y034152D01*
X006436Y034136D01*
X006394Y034117D01*
X006353Y034094D01*
X006315Y034068D01*
X006278Y034039D01*
X006244Y034008D01*
X006213Y033974D01*
X006184Y033937D01*
X006158Y033899D01*
X006135Y033858D01*
X006116Y033816D01*
X006100Y033773D01*
X006087Y033728D01*
X006078Y033682D01*
X006073Y033636D01*
X006071Y033590D01*
X006071Y005637D01*
X006073Y005591D01*
X006078Y005545D01*
X006087Y005499D01*
X006100Y005454D01*
X006116Y005411D01*
X006135Y005369D01*
X006158Y005328D01*
X006184Y005290D01*
X006213Y005253D01*
X006244Y005219D01*
X006278Y005188D01*
X006315Y005159D01*
X006353Y005133D01*
X006394Y005110D01*
X006436Y005091D01*
X006479Y005075D01*
X006524Y005062D01*
X006570Y005053D01*
X006616Y005048D01*
X006662Y005046D01*
X048197Y010165D02*
X048197Y029063D01*
X048591Y029457D02*
X048630Y029455D01*
X048668Y029449D01*
X048705Y029440D01*
X048742Y029427D01*
X048777Y029410D01*
X048810Y029391D01*
X048841Y029368D01*
X048870Y029342D01*
X048896Y029313D01*
X048919Y029282D01*
X048938Y029249D01*
X048955Y029214D01*
X048968Y029177D01*
X048977Y029140D01*
X048983Y029102D01*
X048985Y029063D01*
X048985Y010165D01*
X048591Y009771D02*
X048552Y009773D01*
X048514Y009779D01*
X048477Y009788D01*
X048440Y009801D01*
X048405Y009818D01*
X048372Y009837D01*
X048341Y009860D01*
X048312Y009886D01*
X048286Y009915D01*
X048263Y009946D01*
X048244Y009979D01*
X048227Y010014D01*
X048214Y010051D01*
X048205Y010088D01*
X048199Y010126D01*
X048197Y010165D01*
X048591Y009771D02*
X048630Y009773D01*
X048668Y009779D01*
X048705Y009788D01*
X048742Y009801D01*
X048777Y009818D01*
X048810Y009837D01*
X048841Y009860D01*
X048870Y009886D01*
X048896Y009915D01*
X048919Y009946D01*
X048938Y009979D01*
X048955Y010014D01*
X048968Y010051D01*
X048977Y010088D01*
X048983Y010126D01*
X048985Y010165D01*
X048591Y009378D02*
X048552Y009376D01*
X048514Y009370D01*
X048477Y009361D01*
X048440Y009348D01*
X048405Y009331D01*
X048372Y009312D01*
X048341Y009289D01*
X048312Y009263D01*
X048286Y009234D01*
X048263Y009203D01*
X048244Y009170D01*
X048227Y009135D01*
X048214Y009098D01*
X048205Y009061D01*
X048199Y009023D01*
X048197Y008984D01*
X048197Y029063D02*
X048199Y029102D01*
X048205Y029140D01*
X048214Y029177D01*
X048227Y029214D01*
X048244Y029249D01*
X048263Y029282D01*
X048286Y029313D01*
X048312Y029342D01*
X048341Y029368D01*
X048372Y029391D01*
X048405Y029410D01*
X048440Y029427D01*
X048477Y029440D01*
X048514Y029449D01*
X048552Y029455D01*
X048591Y029457D01*
X048591Y029850D02*
X048552Y029852D01*
X048514Y029858D01*
X048477Y029867D01*
X048440Y029880D01*
X048405Y029897D01*
X048372Y029916D01*
X048341Y029939D01*
X048312Y029965D01*
X048286Y029994D01*
X048263Y030025D01*
X048244Y030058D01*
X048227Y030093D01*
X048214Y030130D01*
X048205Y030167D01*
X048199Y030205D01*
X048197Y030244D01*
X048197Y033590D01*
X048198Y033590D02*
X048196Y033636D01*
X048191Y033682D01*
X048182Y033728D01*
X048169Y033773D01*
X048153Y033816D01*
X048134Y033858D01*
X048111Y033899D01*
X048085Y033937D01*
X048056Y033974D01*
X048025Y034008D01*
X047991Y034039D01*
X047954Y034068D01*
X047916Y034094D01*
X047875Y034117D01*
X047833Y034136D01*
X047790Y034152D01*
X047745Y034165D01*
X047699Y034174D01*
X047653Y034179D01*
X047607Y034181D01*
X044260Y034181D01*
X043866Y034574D02*
X043868Y034613D01*
X043874Y034651D01*
X043883Y034688D01*
X043896Y034725D01*
X043913Y034760D01*
X043932Y034793D01*
X043955Y034824D01*
X043981Y034853D01*
X044010Y034879D01*
X044041Y034902D01*
X044074Y034921D01*
X044109Y034938D01*
X044146Y034951D01*
X044183Y034960D01*
X044221Y034966D01*
X044260Y034968D01*
X056662Y034968D01*
X057056Y034574D02*
X057054Y034535D01*
X057048Y034497D01*
X057039Y034460D01*
X057026Y034423D01*
X057009Y034388D01*
X056990Y034355D01*
X056967Y034324D01*
X056941Y034295D01*
X056912Y034269D01*
X056881Y034246D01*
X056848Y034227D01*
X056813Y034210D01*
X056776Y034197D01*
X056739Y034188D01*
X056701Y034182D01*
X056662Y034180D01*
X056662Y034181D02*
X049575Y034181D01*
X049529Y034179D01*
X049483Y034174D01*
X049437Y034165D01*
X049392Y034152D01*
X049349Y034136D01*
X049307Y034117D01*
X049266Y034094D01*
X049228Y034068D01*
X049191Y034039D01*
X049157Y034008D01*
X049126Y033974D01*
X049097Y033937D01*
X049071Y033899D01*
X049048Y033858D01*
X049029Y033816D01*
X049013Y033773D01*
X049000Y033728D01*
X048991Y033682D01*
X048986Y033636D01*
X048984Y033590D01*
X048985Y033590D02*
X048985Y030244D01*
X048983Y030205D01*
X048977Y030167D01*
X048968Y030130D01*
X048955Y030093D01*
X048938Y030058D01*
X048919Y030025D01*
X048896Y029994D01*
X048870Y029965D01*
X048841Y029939D01*
X048810Y029916D01*
X048777Y029897D01*
X048742Y029880D01*
X048705Y029867D01*
X048668Y029858D01*
X048630Y029852D01*
X048591Y029850D01*
X044260Y034180D02*
X044221Y034182D01*
X044183Y034188D01*
X044146Y034197D01*
X044109Y034210D01*
X044074Y034227D01*
X044041Y034246D01*
X044010Y034269D01*
X043981Y034295D01*
X043955Y034324D01*
X043932Y034355D01*
X043913Y034388D01*
X043896Y034423D01*
X043883Y034460D01*
X043874Y034497D01*
X043868Y034535D01*
X043866Y034574D01*
X043473Y034574D02*
X043471Y034535D01*
X043465Y034497D01*
X043456Y034460D01*
X043443Y034423D01*
X043426Y034388D01*
X043407Y034355D01*
X043384Y034324D01*
X043358Y034295D01*
X043329Y034269D01*
X043298Y034246D01*
X043265Y034227D01*
X043230Y034210D01*
X043193Y034197D01*
X043156Y034188D01*
X043118Y034182D01*
X043079Y034180D01*
X043079Y034181D02*
X011189Y034181D01*
X010795Y034574D02*
X010797Y034613D01*
X010803Y034651D01*
X010812Y034688D01*
X010825Y034725D01*
X010842Y034760D01*
X010861Y034793D01*
X010884Y034824D01*
X010910Y034853D01*
X010939Y034879D01*
X010970Y034902D01*
X011003Y034921D01*
X011038Y034938D01*
X011075Y034951D01*
X011112Y034960D01*
X011150Y034966D01*
X011189Y034968D01*
X043079Y034968D01*
X043118Y034966D01*
X043156Y034960D01*
X043193Y034951D01*
X043230Y034938D01*
X043265Y034921D01*
X043298Y034902D01*
X043329Y034879D01*
X043358Y034853D01*
X043384Y034824D01*
X043407Y034793D01*
X043426Y034760D01*
X043443Y034725D01*
X043456Y034688D01*
X043465Y034651D01*
X043471Y034613D01*
X043473Y034574D01*
X056662Y034968D02*
X056701Y034966D01*
X056739Y034960D01*
X056776Y034951D01*
X056813Y034938D01*
X056848Y034921D01*
X056881Y034902D01*
X056912Y034879D01*
X056941Y034853D01*
X056967Y034824D01*
X056990Y034793D01*
X057009Y034760D01*
X057026Y034725D01*
X057039Y034688D01*
X057048Y034651D01*
X057054Y034613D01*
X057056Y034574D01*
X057449Y034574D02*
X057451Y034613D01*
X057457Y034651D01*
X057466Y034688D01*
X057479Y034725D01*
X057496Y034760D01*
X057515Y034793D01*
X057538Y034824D01*
X057564Y034853D01*
X057593Y034879D01*
X057624Y034902D01*
X057657Y034921D01*
X057692Y034938D01*
X057729Y034951D01*
X057766Y034960D01*
X057804Y034966D01*
X057843Y034968D01*
X064536Y034968D01*
X064582Y034970D01*
X064628Y034975D01*
X064674Y034984D01*
X064719Y034997D01*
X064762Y035013D01*
X064804Y035032D01*
X064845Y035055D01*
X064883Y035081D01*
X064920Y035110D01*
X064954Y035141D01*
X064985Y035175D01*
X065014Y035212D01*
X065040Y035250D01*
X065063Y035291D01*
X065082Y035333D01*
X065098Y035376D01*
X065111Y035421D01*
X065120Y035467D01*
X065125Y035513D01*
X065127Y035559D01*
X065126Y035559D02*
X065126Y038905D01*
X065520Y039299D02*
X065559Y039297D01*
X065597Y039291D01*
X065634Y039282D01*
X065671Y039269D01*
X065706Y039252D01*
X065739Y039233D01*
X065770Y039210D01*
X065799Y039184D01*
X065825Y039155D01*
X065848Y039124D01*
X065867Y039091D01*
X065884Y039056D01*
X065897Y039019D01*
X065906Y038982D01*
X065912Y038944D01*
X065914Y038905D01*
X065914Y035559D01*
X065913Y035559D02*
X065915Y035513D01*
X065920Y035467D01*
X065929Y035421D01*
X065942Y035376D01*
X065958Y035333D01*
X065977Y035291D01*
X066000Y035250D01*
X066026Y035212D01*
X066055Y035175D01*
X066086Y035141D01*
X066120Y035110D01*
X066157Y035081D01*
X066195Y035055D01*
X066236Y035032D01*
X066278Y035013D01*
X066321Y034997D01*
X066366Y034984D01*
X066412Y034975D01*
X066458Y034970D01*
X066504Y034968D01*
X069851Y034968D01*
X070245Y034574D02*
X070243Y034535D01*
X070237Y034497D01*
X070228Y034460D01*
X070215Y034423D01*
X070198Y034388D01*
X070179Y034355D01*
X070156Y034324D01*
X070130Y034295D01*
X070101Y034269D01*
X070070Y034246D01*
X070037Y034227D01*
X070002Y034210D01*
X069965Y034197D01*
X069928Y034188D01*
X069890Y034182D01*
X069851Y034180D01*
X069851Y034181D02*
X057843Y034181D01*
X057843Y034180D02*
X057804Y034182D01*
X057766Y034188D01*
X057729Y034197D01*
X057692Y034210D01*
X057657Y034227D01*
X057624Y034246D01*
X057593Y034269D01*
X057564Y034295D01*
X057538Y034324D01*
X057515Y034355D01*
X057496Y034388D01*
X057479Y034423D01*
X057466Y034460D01*
X057457Y034497D01*
X057451Y034535D01*
X057449Y034574D01*
X065126Y038905D02*
X065128Y038944D01*
X065134Y038982D01*
X065143Y039019D01*
X065156Y039056D01*
X065173Y039091D01*
X065192Y039124D01*
X065215Y039155D01*
X065241Y039184D01*
X065270Y039210D01*
X065301Y039233D01*
X065334Y039252D01*
X065369Y039269D01*
X065406Y039282D01*
X065443Y039291D01*
X065481Y039297D01*
X065520Y039299D01*
X065520Y039692D02*
X065481Y039694D01*
X065443Y039700D01*
X065406Y039709D01*
X065369Y039722D01*
X065334Y039739D01*
X065301Y039758D01*
X065270Y039781D01*
X065241Y039807D01*
X065215Y039836D01*
X065192Y039867D01*
X065173Y039900D01*
X065156Y039935D01*
X065143Y039972D01*
X065134Y040009D01*
X065128Y040047D01*
X065126Y040086D01*
X065126Y058984D01*
X065520Y059378D02*
X065559Y059376D01*
X065597Y059370D01*
X065634Y059361D01*
X065671Y059348D01*
X065706Y059331D01*
X065739Y059312D01*
X065770Y059289D01*
X065799Y059263D01*
X065825Y059234D01*
X065848Y059203D01*
X065867Y059170D01*
X065884Y059135D01*
X065897Y059098D01*
X065906Y059061D01*
X065912Y059023D01*
X065914Y058984D01*
X065914Y040086D01*
X065912Y040047D01*
X065906Y040009D01*
X065897Y039972D01*
X065884Y039935D01*
X065867Y039900D01*
X065848Y039867D01*
X065825Y039836D01*
X065799Y039807D01*
X065770Y039781D01*
X065739Y039758D01*
X065706Y039739D01*
X065671Y039722D01*
X065634Y039709D01*
X065597Y039700D01*
X065559Y039694D01*
X065520Y039692D01*
X071032Y034968D02*
X119851Y034968D01*
X120245Y034574D02*
X120243Y034535D01*
X120237Y034497D01*
X120228Y034460D01*
X120215Y034423D01*
X120198Y034388D01*
X120179Y034355D01*
X120156Y034324D01*
X120130Y034295D01*
X120101Y034269D01*
X120070Y034246D01*
X120037Y034227D01*
X120002Y034210D01*
X119965Y034197D01*
X119928Y034188D01*
X119890Y034182D01*
X119851Y034180D01*
X119851Y034181D02*
X071032Y034181D01*
X070638Y034574D02*
X070640Y034613D01*
X070646Y034651D01*
X070655Y034688D01*
X070668Y034725D01*
X070685Y034760D01*
X070704Y034793D01*
X070727Y034824D01*
X070753Y034853D01*
X070782Y034879D01*
X070813Y034902D01*
X070846Y034921D01*
X070881Y034938D01*
X070918Y034951D01*
X070955Y034960D01*
X070993Y034966D01*
X071032Y034968D01*
X070638Y034574D02*
X070640Y034535D01*
X070646Y034497D01*
X070655Y034460D01*
X070668Y034423D01*
X070685Y034388D01*
X070704Y034355D01*
X070727Y034324D01*
X070753Y034295D01*
X070782Y034269D01*
X070813Y034246D01*
X070846Y034227D01*
X070881Y034210D01*
X070918Y034197D01*
X070955Y034188D01*
X070993Y034182D01*
X071032Y034180D01*
X070245Y034574D02*
X070243Y034613D01*
X070237Y034651D01*
X070228Y034688D01*
X070215Y034725D01*
X070198Y034760D01*
X070179Y034793D01*
X070156Y034824D01*
X070130Y034853D01*
X070101Y034879D01*
X070070Y034902D01*
X070037Y034921D01*
X070002Y034938D01*
X069965Y034951D01*
X069928Y034960D01*
X069890Y034966D01*
X069851Y034968D01*
X090677Y031228D02*
X090679Y031278D01*
X090685Y031328D01*
X090695Y031377D01*
X090709Y031425D01*
X090726Y031472D01*
X090747Y031517D01*
X090772Y031561D01*
X090800Y031602D01*
X090832Y031641D01*
X090866Y031678D01*
X090903Y031712D01*
X090943Y031742D01*
X090985Y031769D01*
X091029Y031793D01*
X091075Y031814D01*
X091122Y031830D01*
X091170Y031843D01*
X091220Y031852D01*
X091269Y031857D01*
X091320Y031858D01*
X091370Y031855D01*
X091419Y031848D01*
X091468Y031837D01*
X091516Y031822D01*
X091562Y031804D01*
X091607Y031782D01*
X091650Y031756D01*
X091691Y031727D01*
X091730Y031695D01*
X091766Y031660D01*
X091798Y031622D01*
X091828Y031582D01*
X091855Y031539D01*
X091878Y031495D01*
X091897Y031449D01*
X091913Y031401D01*
X091925Y031352D01*
X091933Y031303D01*
X091937Y031253D01*
X091937Y031203D01*
X091933Y031153D01*
X091925Y031104D01*
X091913Y031055D01*
X091897Y031007D01*
X091878Y030961D01*
X091855Y030917D01*
X091828Y030874D01*
X091798Y030834D01*
X091766Y030796D01*
X091730Y030761D01*
X091691Y030729D01*
X091650Y030700D01*
X091607Y030674D01*
X091562Y030652D01*
X091516Y030634D01*
X091468Y030619D01*
X091419Y030608D01*
X091370Y030601D01*
X091320Y030598D01*
X091269Y030599D01*
X091220Y030604D01*
X091170Y030613D01*
X091122Y030626D01*
X091075Y030642D01*
X091029Y030663D01*
X090985Y030687D01*
X090943Y030714D01*
X090903Y030744D01*
X090866Y030778D01*
X090832Y030815D01*
X090800Y030854D01*
X090772Y030895D01*
X090747Y030939D01*
X090726Y030984D01*
X090709Y031031D01*
X090695Y031079D01*
X090685Y031128D01*
X090679Y031178D01*
X090677Y031228D01*
X119851Y034968D02*
X119890Y034966D01*
X119928Y034960D01*
X119965Y034951D01*
X120002Y034938D01*
X120037Y034921D01*
X120070Y034902D01*
X120101Y034879D01*
X120130Y034853D01*
X120156Y034824D01*
X120179Y034793D01*
X120198Y034760D01*
X120215Y034725D01*
X120228Y034688D01*
X120237Y034651D01*
X120243Y034613D01*
X120245Y034574D01*
X120638Y034574D02*
X120640Y034535D01*
X120646Y034497D01*
X120655Y034460D01*
X120668Y034423D01*
X120685Y034388D01*
X120704Y034355D01*
X120727Y034324D01*
X120753Y034295D01*
X120782Y034269D01*
X120813Y034246D01*
X120846Y034227D01*
X120881Y034210D01*
X120918Y034197D01*
X120955Y034188D01*
X120993Y034182D01*
X121032Y034180D01*
X124142Y031228D02*
X124144Y031278D01*
X124150Y031328D01*
X124160Y031377D01*
X124174Y031425D01*
X124191Y031472D01*
X124212Y031517D01*
X124237Y031561D01*
X124265Y031602D01*
X124297Y031641D01*
X124331Y031678D01*
X124368Y031712D01*
X124408Y031742D01*
X124450Y031769D01*
X124494Y031793D01*
X124540Y031814D01*
X124587Y031830D01*
X124635Y031843D01*
X124685Y031852D01*
X124734Y031857D01*
X124785Y031858D01*
X124835Y031855D01*
X124884Y031848D01*
X124933Y031837D01*
X124981Y031822D01*
X125027Y031804D01*
X125072Y031782D01*
X125115Y031756D01*
X125156Y031727D01*
X125195Y031695D01*
X125231Y031660D01*
X125263Y031622D01*
X125293Y031582D01*
X125320Y031539D01*
X125343Y031495D01*
X125362Y031449D01*
X125378Y031401D01*
X125390Y031352D01*
X125398Y031303D01*
X125402Y031253D01*
X125402Y031203D01*
X125398Y031153D01*
X125390Y031104D01*
X125378Y031055D01*
X125362Y031007D01*
X125343Y030961D01*
X125320Y030917D01*
X125293Y030874D01*
X125263Y030834D01*
X125231Y030796D01*
X125195Y030761D01*
X125156Y030729D01*
X125115Y030700D01*
X125072Y030674D01*
X125027Y030652D01*
X124981Y030634D01*
X124933Y030619D01*
X124884Y030608D01*
X124835Y030601D01*
X124785Y030598D01*
X124734Y030599D01*
X124685Y030604D01*
X124635Y030613D01*
X124587Y030626D01*
X124540Y030642D01*
X124494Y030663D01*
X124450Y030687D01*
X124408Y030714D01*
X124368Y030744D01*
X124331Y030778D01*
X124297Y030815D01*
X124265Y030854D01*
X124237Y030895D01*
X124212Y030939D01*
X124191Y030984D01*
X124174Y031031D01*
X124160Y031079D01*
X124150Y031128D01*
X124144Y031178D01*
X124142Y031228D01*
X124142Y008000D02*
X124144Y008050D01*
X124150Y008100D01*
X124160Y008149D01*
X124174Y008197D01*
X124191Y008244D01*
X124212Y008289D01*
X124237Y008333D01*
X124265Y008374D01*
X124297Y008413D01*
X124331Y008450D01*
X124368Y008484D01*
X124408Y008514D01*
X124450Y008541D01*
X124494Y008565D01*
X124540Y008586D01*
X124587Y008602D01*
X124635Y008615D01*
X124685Y008624D01*
X124734Y008629D01*
X124785Y008630D01*
X124835Y008627D01*
X124884Y008620D01*
X124933Y008609D01*
X124981Y008594D01*
X125027Y008576D01*
X125072Y008554D01*
X125115Y008528D01*
X125156Y008499D01*
X125195Y008467D01*
X125231Y008432D01*
X125263Y008394D01*
X125293Y008354D01*
X125320Y008311D01*
X125343Y008267D01*
X125362Y008221D01*
X125378Y008173D01*
X125390Y008124D01*
X125398Y008075D01*
X125402Y008025D01*
X125402Y007975D01*
X125398Y007925D01*
X125390Y007876D01*
X125378Y007827D01*
X125362Y007779D01*
X125343Y007733D01*
X125320Y007689D01*
X125293Y007646D01*
X125263Y007606D01*
X125231Y007568D01*
X125195Y007533D01*
X125156Y007501D01*
X125115Y007472D01*
X125072Y007446D01*
X125027Y007424D01*
X124981Y007406D01*
X124933Y007391D01*
X124884Y007380D01*
X124835Y007373D01*
X124785Y007370D01*
X124734Y007371D01*
X124685Y007376D01*
X124635Y007385D01*
X124587Y007398D01*
X124540Y007414D01*
X124494Y007435D01*
X124450Y007459D01*
X124408Y007486D01*
X124368Y007516D01*
X124331Y007550D01*
X124297Y007587D01*
X124265Y007626D01*
X124237Y007667D01*
X124212Y007711D01*
X124191Y007756D01*
X124174Y007803D01*
X124160Y007851D01*
X124150Y007900D01*
X124144Y007950D01*
X124142Y008000D01*
X090677Y008000D02*
X090679Y008050D01*
X090685Y008100D01*
X090695Y008149D01*
X090709Y008197D01*
X090726Y008244D01*
X090747Y008289D01*
X090772Y008333D01*
X090800Y008374D01*
X090832Y008413D01*
X090866Y008450D01*
X090903Y008484D01*
X090943Y008514D01*
X090985Y008541D01*
X091029Y008565D01*
X091075Y008586D01*
X091122Y008602D01*
X091170Y008615D01*
X091220Y008624D01*
X091269Y008629D01*
X091320Y008630D01*
X091370Y008627D01*
X091419Y008620D01*
X091468Y008609D01*
X091516Y008594D01*
X091562Y008576D01*
X091607Y008554D01*
X091650Y008528D01*
X091691Y008499D01*
X091730Y008467D01*
X091766Y008432D01*
X091798Y008394D01*
X091828Y008354D01*
X091855Y008311D01*
X091878Y008267D01*
X091897Y008221D01*
X091913Y008173D01*
X091925Y008124D01*
X091933Y008075D01*
X091937Y008025D01*
X091937Y007975D01*
X091933Y007925D01*
X091925Y007876D01*
X091913Y007827D01*
X091897Y007779D01*
X091878Y007733D01*
X091855Y007689D01*
X091828Y007646D01*
X091798Y007606D01*
X091766Y007568D01*
X091730Y007533D01*
X091691Y007501D01*
X091650Y007472D01*
X091607Y007446D01*
X091562Y007424D01*
X091516Y007406D01*
X091468Y007391D01*
X091419Y007380D01*
X091370Y007373D01*
X091320Y007370D01*
X091269Y007371D01*
X091220Y007376D01*
X091170Y007385D01*
X091122Y007398D01*
X091075Y007414D01*
X091029Y007435D01*
X090985Y007459D01*
X090943Y007486D01*
X090903Y007516D01*
X090866Y007550D01*
X090832Y007587D01*
X090800Y007626D01*
X090772Y007667D01*
X090747Y007711D01*
X090726Y007756D01*
X090709Y007803D01*
X090695Y007851D01*
X090685Y007900D01*
X090679Y007950D01*
X090677Y008000D01*
X020095Y029523D02*
X020097Y029573D01*
X020103Y029623D01*
X020113Y029672D01*
X020127Y029720D01*
X020144Y029767D01*
X020165Y029812D01*
X020190Y029856D01*
X020218Y029897D01*
X020250Y029936D01*
X020284Y029973D01*
X020321Y030007D01*
X020361Y030037D01*
X020403Y030064D01*
X020447Y030088D01*
X020493Y030109D01*
X020540Y030125D01*
X020588Y030138D01*
X020638Y030147D01*
X020687Y030152D01*
X020738Y030153D01*
X020788Y030150D01*
X020837Y030143D01*
X020886Y030132D01*
X020934Y030117D01*
X020980Y030099D01*
X021025Y030077D01*
X021068Y030051D01*
X021109Y030022D01*
X021148Y029990D01*
X021184Y029955D01*
X021216Y029917D01*
X021246Y029877D01*
X021273Y029834D01*
X021296Y029790D01*
X021315Y029744D01*
X021331Y029696D01*
X021343Y029647D01*
X021351Y029598D01*
X021355Y029548D01*
X021355Y029498D01*
X021351Y029448D01*
X021343Y029399D01*
X021331Y029350D01*
X021315Y029302D01*
X021296Y029256D01*
X021273Y029212D01*
X021246Y029169D01*
X021216Y029129D01*
X021184Y029091D01*
X021148Y029056D01*
X021109Y029024D01*
X021068Y028995D01*
X021025Y028969D01*
X020980Y028947D01*
X020934Y028929D01*
X020886Y028914D01*
X020837Y028903D01*
X020788Y028896D01*
X020738Y028893D01*
X020687Y028894D01*
X020638Y028899D01*
X020588Y028908D01*
X020540Y028921D01*
X020493Y028937D01*
X020447Y028958D01*
X020403Y028982D01*
X020361Y029009D01*
X020321Y029039D01*
X020284Y029073D01*
X020250Y029110D01*
X020218Y029149D01*
X020190Y029190D01*
X020165Y029234D01*
X020144Y029279D01*
X020127Y029326D01*
X020113Y029374D01*
X020103Y029423D01*
X020097Y029473D01*
X020095Y029523D01*
X015599Y029523D02*
X015601Y029573D01*
X015607Y029623D01*
X015617Y029672D01*
X015631Y029720D01*
X015648Y029767D01*
X015669Y029812D01*
X015694Y029856D01*
X015722Y029897D01*
X015754Y029936D01*
X015788Y029973D01*
X015825Y030007D01*
X015865Y030037D01*
X015907Y030064D01*
X015951Y030088D01*
X015997Y030109D01*
X016044Y030125D01*
X016092Y030138D01*
X016142Y030147D01*
X016191Y030152D01*
X016242Y030153D01*
X016292Y030150D01*
X016341Y030143D01*
X016390Y030132D01*
X016438Y030117D01*
X016484Y030099D01*
X016529Y030077D01*
X016572Y030051D01*
X016613Y030022D01*
X016652Y029990D01*
X016688Y029955D01*
X016720Y029917D01*
X016750Y029877D01*
X016777Y029834D01*
X016800Y029790D01*
X016819Y029744D01*
X016835Y029696D01*
X016847Y029647D01*
X016855Y029598D01*
X016859Y029548D01*
X016859Y029498D01*
X016855Y029448D01*
X016847Y029399D01*
X016835Y029350D01*
X016819Y029302D01*
X016800Y029256D01*
X016777Y029212D01*
X016750Y029169D01*
X016720Y029129D01*
X016688Y029091D01*
X016652Y029056D01*
X016613Y029024D01*
X016572Y028995D01*
X016529Y028969D01*
X016484Y028947D01*
X016438Y028929D01*
X016390Y028914D01*
X016341Y028903D01*
X016292Y028896D01*
X016242Y028893D01*
X016191Y028894D01*
X016142Y028899D01*
X016092Y028908D01*
X016044Y028921D01*
X015997Y028937D01*
X015951Y028958D01*
X015907Y028982D01*
X015865Y029009D01*
X015825Y029039D01*
X015788Y029073D01*
X015754Y029110D01*
X015722Y029149D01*
X015694Y029190D01*
X015669Y029234D01*
X015648Y029279D01*
X015631Y029326D01*
X015617Y029374D01*
X015607Y029423D01*
X015601Y029473D01*
X015599Y029523D01*
X011189Y034180D02*
X011150Y034182D01*
X011112Y034188D01*
X011075Y034197D01*
X011038Y034210D01*
X011003Y034227D01*
X010970Y034246D01*
X010939Y034269D01*
X010910Y034295D01*
X010884Y034324D01*
X010861Y034355D01*
X010842Y034388D01*
X010825Y034423D01*
X010812Y034460D01*
X010803Y034497D01*
X010797Y034535D01*
X010795Y034574D01*
X010402Y034574D02*
X010400Y034613D01*
X010394Y034651D01*
X010385Y034688D01*
X010372Y034725D01*
X010355Y034760D01*
X010336Y034793D01*
X010313Y034824D01*
X010287Y034853D01*
X010258Y034879D01*
X010227Y034902D01*
X010194Y034921D01*
X010159Y034938D01*
X010122Y034951D01*
X010085Y034960D01*
X010047Y034966D01*
X010008Y034968D01*
X032547Y048748D02*
X032549Y048819D01*
X032555Y048890D01*
X032565Y048961D01*
X032579Y049030D01*
X032596Y049099D01*
X032618Y049167D01*
X032643Y049234D01*
X032672Y049299D01*
X032704Y049362D01*
X032740Y049424D01*
X032779Y049483D01*
X032822Y049540D01*
X032867Y049595D01*
X032916Y049647D01*
X032967Y049696D01*
X033021Y049742D01*
X033078Y049786D01*
X033136Y049826D01*
X033197Y049862D01*
X033260Y049896D01*
X033325Y049925D01*
X033391Y049951D01*
X033459Y049974D01*
X033527Y049992D01*
X033597Y050007D01*
X033667Y050018D01*
X033738Y050025D01*
X033809Y050028D01*
X033880Y050027D01*
X033951Y050022D01*
X034022Y050013D01*
X034092Y050000D01*
X034161Y049984D01*
X034229Y049963D01*
X034296Y049939D01*
X034362Y049911D01*
X034425Y049879D01*
X034487Y049844D01*
X034547Y049806D01*
X034605Y049764D01*
X034660Y049720D01*
X034713Y049672D01*
X034763Y049621D01*
X034810Y049568D01*
X034854Y049512D01*
X034895Y049454D01*
X034933Y049393D01*
X034967Y049331D01*
X034997Y049266D01*
X035024Y049201D01*
X035048Y049133D01*
X035067Y049065D01*
X035083Y048996D01*
X035095Y048925D01*
X035103Y048855D01*
X035107Y048784D01*
X035107Y048712D01*
X035103Y048641D01*
X035095Y048571D01*
X035083Y048500D01*
X035067Y048431D01*
X035048Y048363D01*
X035024Y048295D01*
X034997Y048230D01*
X034967Y048165D01*
X034933Y048103D01*
X034895Y048042D01*
X034854Y047984D01*
X034810Y047928D01*
X034763Y047875D01*
X034713Y047824D01*
X034660Y047776D01*
X034605Y047732D01*
X034547Y047690D01*
X034487Y047652D01*
X034425Y047617D01*
X034362Y047585D01*
X034296Y047557D01*
X034229Y047533D01*
X034161Y047512D01*
X034092Y047496D01*
X034022Y047483D01*
X033951Y047474D01*
X033880Y047469D01*
X033809Y047468D01*
X033738Y047471D01*
X033667Y047478D01*
X033597Y047489D01*
X033527Y047504D01*
X033459Y047522D01*
X033391Y047545D01*
X033325Y047571D01*
X033260Y047600D01*
X033197Y047634D01*
X033136Y047670D01*
X033078Y047710D01*
X033021Y047754D01*
X032967Y047800D01*
X032916Y047849D01*
X032867Y047901D01*
X032822Y047956D01*
X032779Y048013D01*
X032740Y048072D01*
X032704Y048134D01*
X032672Y048197D01*
X032643Y048262D01*
X032618Y048329D01*
X032596Y048397D01*
X032579Y048466D01*
X032565Y048535D01*
X032555Y048606D01*
X032549Y048677D01*
X032547Y048748D01*
X065126Y058984D02*
X065128Y059023D01*
X065134Y059061D01*
X065143Y059098D01*
X065156Y059135D01*
X065173Y059170D01*
X065192Y059203D01*
X065215Y059234D01*
X065241Y059263D01*
X065270Y059289D01*
X065301Y059312D01*
X065334Y059331D01*
X065369Y059348D01*
X065406Y059361D01*
X065443Y059370D01*
X065481Y059376D01*
X065520Y059378D01*
X065520Y059771D02*
X065559Y059773D01*
X065597Y059779D01*
X065634Y059788D01*
X065671Y059801D01*
X065706Y059818D01*
X065739Y059837D01*
X065770Y059860D01*
X065799Y059886D01*
X065825Y059915D01*
X065848Y059946D01*
X065867Y059979D01*
X065884Y060014D01*
X065897Y060051D01*
X065906Y060088D01*
X065912Y060126D01*
X065914Y060165D01*
M02*
