  0
SECTION
  2
HEADER
  9
$ACADVER
  1
AC1009
  9
$FILLMODE
 70
0
  9
$EXTMIN
 10
-8.2967
 20
-20.0150
 30
0.0000
  9
$EXTMAX
 10
185.0650
 20
70.0650
 30
0.0000
  0
ENDSEC
  0
SECTION
  2
TABLES
  0
TABLE
  2
LTYPE
 70
1
  0
LTYPE
  2
CONTINUOUS
 70
64
  3
Solid line
 72
65
 73
0
 40
0
  0
ENDTAB
  0
TABLE
  2
LAYER
 70
255
  0
LAYER
  2
20
 70
64
 62
7
  6
CONTINUOUS
  0
LAYER
  2
47
 70
64
 62
2
  6
CONTINUOUS
  0
ENDTAB
  0
ENDSEC
  0
SECTION
  2
BLOCKS
  0
BLOCK
  8
0
  2
RECT
 70
64
 10
0.0000
 20
0.0000
 30
0.0000
  3
RECT
  0
SOLID
  8
0
 10
-0.5000
 20
-0.5000
 30
0.0000
 11
0.5000
 21
-0.5000
 31
0.0000
 12
-0.5000
 22
0.5000
 32
0.0000
 13
0.5000
 23
0.5000
 33
0.0000
  0
ENDBLK
  8
0
  0
BLOCK
  8
0
  2
PIE
 70
64
 10
0.0000
 20
0.0000
 30
0.0000
  3
PIE
  0
CIRCLE
  8
0
 10
0.0000
 20
0.0000
 30
0.0000
 40
0.5000
  0
ENDBLK
  8
0
  0
BLOCK
  8
0
  2
OCTAGONP
 70
64
 10
0.0000
 20
0.0000
 30
0.0000
  3
OCTAGONP
  0
POLYLINE
  8
0
 66
1
 10
0.0000
 20
0.0000
 30
0.0000
 40
0.0000
 41
0.0000
 70
1
  0
VERTEX
  8
0
 10
-0.5000
 20
-0.2071
 30
0.0000
  0
VERTEX
  8
0
 10
-0.5000
 20
0.2071
 30
0.0000
  0
VERTEX
  8
0
 10
-0.2071
 20
0.5000
 30
0.0000
  0
VERTEX
  8
0
 10
0.2071
 20
0.5000
 30
0.0000
  0
VERTEX
  8
0
 10
0.5000
 20
0.2071
 30
0.0000
  0
VERTEX
  8
0
 10
0.5000
 20
-0.2071
 30
0.0000
  0
VERTEX
  8
0
 10
0.2071
 20
-0.5000
 30
0.0000
  0
VERTEX
  8
0
 10
-0.2071
 20
-0.5000
 30
0.0000
  0
SEQEND
  8
0
  0
ENDBLK
  8
0
  0
BLOCK
  8
0
  2
SQUAREP
 70
64
 10
0.0000
 20
0.0000
 30
0.0000
  3
SQUAREP
  0
SOLID
  8
0
 10
-0.5000
 20
-0.5000
 30
0.0000
 11
0.5000
 21
-0.5000
 31
0.0000
 12
-0.5000
 22
0.5000
 32
0.0000
 13
0.5000
 23
0.5000
 33
0.0000
  0
ENDBLK
  8
0
  0
BLOCK
  8
0
  2
ROUNDP
 70
64
 10
0.0000
 20
0.0000
 30
0.0000
  3
ROUNDP
  0
CIRCLE
  8
0
 10
0.0000
 20
0.0000
 30
0.0000
 40
0.5000
  0
ENDBLK
  8
0
  0
BLOCK
  8
0
  2
ANNULUSP
 70
64
 10
0.0000
 20
0.0000
 30
0.0000
  3
ANNULUSP
  0
CIRCLE
  8
0
 10
0.0000
 20
0.0000
 30
0.0000
 40
0.5000
  0
ENDBLK
  8
0
  0
BLOCK
  8
0
  2
THERMALP
 70
64
 10
0.0000
 20
0.0000
 30
0.0000
  3
THERMALP
  0
LINE
  8
0
 10
-0.2379
 20
0.4500
 30
0.0000
 11
0.2379
 21
0.4500
 31
0.0000
  0
LINE
  8
0
 10
0.4500
 20
0.2379
 30
0.0000
 11
0.4500
 21
-0.2379
 31
0.0000
  0
LINE
  8
0
 10
0.2379
 20
-0.4500
 30
0.0000
 11
-0.2379
 21
-0.4500
 31
0.0000
  0
LINE
  8
0
 10
-0.4500
 20
-0.2379
 30
0.0000
 11
-0.4500
 21
0.2379
 31
0.0000
  0
ENDBLK
  8
0
  0
BLOCK
  8
0
  2
OCTAGONV
 70
64
 10
0.0000
 20
0.0000
 30
0.0000
  3
OCTAGONV
  0
POLYLINE
  8
0
 66
1
 10
0.0000
 20
0.0000
 30
0.0000
 40
0.0000
 41
0.0000
 70
1
  0
VERTEX
  8
0
 10
-0.5000
 20
-0.2071
 30
0.0000
  0
VERTEX
  8
0
 10
-0.5000
 20
0.2071
 30
0.0000
  0
VERTEX
  8
0
 10
-0.2071
 20
0.5000
 30
0.0000
  0
VERTEX
  8
0
 10
0.2071
 20
0.5000
 30
0.0000
  0
VERTEX
  8
0
 10
0.5000
 20
0.2071
 30
0.0000
  0
VERTEX
  8
0
 10
0.5000
 20
-0.2071
 30
0.0000
  0
VERTEX
  8
0
 10
0.2071
 20
-0.5000
 30
0.0000
  0
VERTEX
  8
0
 10
-0.2071
 20
-0.5000
 30
0.0000
  0
SEQEND
  8
0
  0
ENDBLK
  8
0
  0
BLOCK
  8
0
  2
SQUAREV
 70
64
 10
0.0000
 20
0.0000
 30
0.0000
  3
SQUAREV
  0
SOLID
  8
0
 10
-0.5000
 20
-0.5000
 30
0.0000
 11
0.5000
 21
-0.5000
 31
0.0000
 12
-0.5000
 22
0.5000
 32
0.0000
 13
0.5000
 23
0.5000
 33
0.0000
  0
ENDBLK
  8
0
  0
BLOCK
  8
0
  2
ROUNDV
 70
64
 10
0.0000
 20
0.0000
 30
0.0000
  3
ROUNDV
  0
CIRCLE
  8
0
 10
0.0000
 20
0.0000
 30
0.0000
 40
0.5000
  0
ENDBLK
  8
0
  0
BLOCK
  8
0
  2
ANNULUSV
 70
64
 10
0.0000
 20
0.0000
 30
0.0000
  3
ANNULUSV
  0
CIRCLE
  8
0
 10
0.0000
 20
0.0000
 30
0.0000
 40
0.5000
  0
ENDBLK
  8
0
  0
BLOCK
  8
0
  2
THERMALV
 70
64
 10
0.0000
 20
0.0000
 30
0.0000
  3
THERMALV
  0
LINE
  8
0
 10
-0.2379
 20
0.4500
 30
0.0000
 11
0.2379
 21
0.4500
 31
0.0000
  0
LINE
  8
0
 10
0.4500
 20
0.2379
 30
0.0000
 11
0.4500
 21
-0.2379
 31
0.0000
  0
LINE
  8
0
 10
0.2379
 20
-0.4500
 30
0.0000
 11
-0.2379
 21
-0.4500
 31
0.0000
  0
LINE
  8
0
 10
-0.4500
 20
-0.2379
 30
0.0000
 11
-0.4500
 21
0.2379
 31
0.0000
  0
ENDBLK
  8
0
  0
ENDSEC
  0
SECTION
  2
ENTITIES
  0
LINE
  8
20
 10
0.0000
 20
70.0000
 30
0.0000
 11
185.0000
 21
70.0000
 31
0.0000
  0
LINE
  8
20
 10
185.0000
 20
70.0000
 30
0.0000
 11
185.0000
 21
0.0000
 31
0.0000
  0
LINE
  8
20
 10
185.0000
 20
0.0000
 30
0.0000
 11
0.0000
 21
0.0000
 31
0.0000
  0
LINE
  8
20
 10
0.0000
 20
0.0000
 30
0.0000
 11
0.0000
 21
70.0000
 31
0.0000
  0
LINE
  8
47
 10
67.8152
 20
61.6632
 30
0.0000
 11
67.8152
 21
66.3408
 31
0.0000
  0
LINE
  8
47
 10
67.8152
 20
66.3408
 30
0.0000
 11
70.1540
 21
66.3408
 31
0.0000
  0
LINE
  8
47
 10
70.1540
 20
66.3408
 30
0.0000
 11
70.9336
 21
65.5612
 31
0.0000
  0
LINE
  8
47
 10
70.9336
 20
65.5612
 30
0.0000
 11
70.9336
 21
64.7816
 31
0.0000
  0
LINE
  8
47
 10
70.9336
 20
64.7816
 30
0.0000
 11
70.1540
 21
64.0020
 31
0.0000
  0
LINE
  8
47
 10
70.1540
 20
64.0020
 30
0.0000
 11
70.9336
 21
63.2224
 31
0.0000
  0
LINE
  8
47
 10
70.9336
 20
63.2224
 30
0.0000
 11
70.9336
 21
62.4428
 31
0.0000
  0
LINE
  8
47
 10
70.9336
 20
62.4428
 30
0.0000
 11
70.1540
 21
61.6632
 31
0.0000
  0
LINE
  8
47
 10
70.1540
 20
61.6632
 30
0.0000
 11
67.8152
 21
61.6632
 31
0.0000
  0
LINE
  8
47
 10
67.8152
 20
64.0020
 30
0.0000
 11
70.1540
 21
64.0020
 31
0.0000
  0
LINE
  8
47
 10
73.2724
 20
61.6632
 30
0.0000
 11
74.8316
 21
61.6632
 31
0.0000
  0
LINE
  8
47
 10
74.8316
 20
61.6632
 30
0.0000
 11
75.6112
 21
62.4428
 31
0.0000
  0
LINE
  8
47
 10
75.6112
 20
62.4428
 30
0.0000
 11
75.6112
 21
64.0020
 31
0.0000
  0
LINE
  8
47
 10
75.6112
 20
64.0020
 30
0.0000
 11
74.8316
 21
64.7816
 31
0.0000
  0
LINE
  8
47
 10
74.8316
 20
64.7816
 30
0.0000
 11
73.2724
 21
64.7816
 31
0.0000
  0
LINE
  8
47
 10
73.2724
 20
64.7816
 30
0.0000
 11
72.4928
 21
64.0020
 31
0.0000
  0
LINE
  8
47
 10
72.4928
 20
64.0020
 30
0.0000
 11
72.4928
 21
62.4428
 31
0.0000
  0
LINE
  8
47
 10
72.4928
 20
62.4428
 30
0.0000
 11
73.2724
 21
61.6632
 31
0.0000
  0
LINE
  8
47
 10
77.9500
 20
65.5612
 30
0.0000
 11
77.9500
 21
62.4428
 31
0.0000
  0
LINE
  8
47
 10
77.9500
 20
62.4428
 30
0.0000
 11
78.7296
 21
61.6632
 31
0.0000
  0
LINE
  8
47
 10
77.1704
 20
64.7816
 30
0.0000
 11
78.7296
 21
64.7816
 31
0.0000
  0
LINE
  8
47
 10
81.0684
 20
65.5612
 30
0.0000
 11
81.0684
 21
62.4428
 31
0.0000
  0
LINE
  8
47
 10
81.0684
 20
62.4428
 30
0.0000
 11
81.8480
 21
61.6632
 31
0.0000
  0
LINE
  8
47
 10
80.2888
 20
64.7816
 30
0.0000
 11
81.8480
 21
64.7816
 31
0.0000
  0
LINE
  8
47
 10
84.1868
 20
61.6632
 30
0.0000
 11
85.7460
 21
61.6632
 31
0.0000
  0
LINE
  8
47
 10
85.7460
 20
61.6632
 30
0.0000
 11
86.5256
 21
62.4428
 31
0.0000
  0
LINE
  8
47
 10
86.5256
 20
62.4428
 30
0.0000
 11
86.5256
 21
64.0020
 31
0.0000
  0
LINE
  8
47
 10
86.5256
 20
64.0020
 30
0.0000
 11
85.7460
 21
64.7816
 31
0.0000
  0
LINE
  8
47
 10
85.7460
 20
64.7816
 30
0.0000
 11
84.1868
 21
64.7816
 31
0.0000
  0
LINE
  8
47
 10
84.1868
 20
64.7816
 30
0.0000
 11
83.4072
 21
64.0020
 31
0.0000
  0
LINE
  8
47
 10
83.4072
 20
64.0020
 30
0.0000
 11
83.4072
 21
62.4428
 31
0.0000
  0
LINE
  8
47
 10
83.4072
 20
62.4428
 30
0.0000
 11
84.1868
 21
61.6632
 31
0.0000
  0
LINE
  8
47
 10
88.0848
 20
61.6632
 30
0.0000
 11
88.0848
 21
64.7816
 31
0.0000
  0
LINE
  8
47
 10
88.0848
 20
64.7816
 30
0.0000
 11
88.8644
 21
64.7816
 31
0.0000
  0
LINE
  8
47
 10
88.8644
 20
64.7816
 30
0.0000
 11
89.6440
 21
64.0020
 31
0.0000
  0
LINE
  8
47
 10
89.6440
 20
64.0020
 30
0.0000
 11
89.6440
 21
61.6632
 31
0.0000
  0
LINE
  8
47
 10
89.6440
 20
64.0020
 30
0.0000
 11
90.4236
 21
64.7816
 31
0.0000
  0
LINE
  8
47
 10
90.4236
 20
64.7816
 30
0.0000
 11
91.2032
 21
64.0020
 31
0.0000
  0
LINE
  8
47
 10
91.2032
 20
64.0020
 30
0.0000
 11
91.2032
 21
61.6632
 31
0.0000
  0
LINE
  8
47
 10
97.4400
 20
64.7816
 30
0.0000
 11
98.9992
 21
61.6632
 31
0.0000
  0
LINE
  8
47
 10
98.9992
 20
61.6632
 30
0.0000
 11
100.5584
 21
64.7816
 31
0.0000
  0
LINE
  8
47
 10
102.1176
 20
64.7816
 30
0.0000
 11
102.8972
 21
64.7816
 31
0.0000
  0
LINE
  8
47
 10
102.8972
 20
64.7816
 30
0.0000
 11
102.8972
 21
61.6632
 31
0.0000
  0
LINE
  8
47
 10
102.1176
 20
61.6632
 30
0.0000
 11
103.6768
 21
61.6632
 31
0.0000
  0
LINE
  8
47
 10
102.8972
 20
67.1204
 30
0.0000
 11
102.8972
 21
66.3408
 31
0.0000
  0
LINE
  8
47
 10
107.5748
 20
61.6632
 30
0.0000
 11
106.0156
 21
61.6632
 31
0.0000
  0
LINE
  8
47
 10
106.0156
 20
61.6632
 30
0.0000
 11
105.2360
 21
62.4428
 31
0.0000
  0
LINE
  8
47
 10
105.2360
 20
62.4428
 30
0.0000
 11
105.2360
 21
64.0020
 31
0.0000
  0
LINE
  8
47
 10
105.2360
 20
64.0020
 30
0.0000
 11
106.0156
 21
64.7816
 31
0.0000
  0
LINE
  8
47
 10
106.0156
 20
64.7816
 30
0.0000
 11
107.5748
 21
64.7816
 31
0.0000
  0
LINE
  8
47
 10
107.5748
 20
64.7816
 30
0.0000
 11
108.3544
 21
64.0020
 31
0.0000
  0
LINE
  8
47
 10
108.3544
 20
64.0020
 30
0.0000
 11
108.3544
 21
63.2224
 31
0.0000
  0
LINE
  8
47
 10
108.3544
 20
63.2224
 30
0.0000
 11
105.2360
 21
63.2224
 31
0.0000
  0
LINE
  8
47
 10
109.9136
 20
64.7816
 30
0.0000
 11
109.9136
 21
62.4428
 31
0.0000
  0
LINE
  8
47
 10
109.9136
 20
62.4428
 30
0.0000
 11
110.6932
 21
61.6632
 31
0.0000
  0
LINE
  8
47
 10
110.6932
 20
61.6632
 30
0.0000
 11
111.4728
 21
62.4428
 31
0.0000
  0
LINE
  8
47
 10
111.4728
 20
62.4428
 30
0.0000
 11
112.2524
 21
61.6632
 31
0.0000
  0
LINE
  8
47
 10
112.2524
 20
61.6632
 30
0.0000
 11
113.0320
 21
62.4428
 31
0.0000
  0
LINE
  8
47
 10
113.0320
 20
62.4428
 30
0.0000
 11
113.0320
 21
64.7816
 31
0.0000
  0
LINE
  8
47
 10
0.0000
 20
0.0000
 30
0.0000
 11
0.0000
 21
-19.9500
 31
0.0000
  0
LINE
  8
47
 10
185.0000
 20
-2.0000
 30
0.0000
 11
185.0000
 21
-19.9500
 31
0.0000
  0
LINE
  8
47
 10
0.0650
 20
-18.0000
 30
0.0000
 11
184.9350
 21
-18.0000
 31
0.0000
  0
LINE
  8
47
 10
0.0650
 20
-18.0000
 30
0.0000
 11
2.6000
 21
-17.6808
 31
0.0000
  0
LINE
  8
47
 10
2.6000
 20
-17.6808
 30
0.0000
 11
2.6000
 21
-18.3192
 31
0.0000
  0
LINE
  8
47
 10
2.6000
 20
-18.3192
 30
0.0000
 11
0.0650
 21
-18.0000
 31
0.0000
  0
LINE
  8
47
 10
0.0650
 20
-18.0000
 30
0.0000
 11
2.6000
 21
-17.8700
 31
0.0000
  0
LINE
  8
47
 10
2.6000
 20
-18.1300
 30
0.0000
 11
0.0650
 21
-18.0000
 31
0.0000
  0
LINE
  8
47
 10
0.0650
 20
-18.0000
 30
0.0000
 11
2.6000
 21
-17.7400
 31
0.0000
  0
LINE
  8
47
 10
2.6000
 20
-18.2600
 30
0.0000
 11
0.0650
 21
-18.0000
 31
0.0000
  0
LINE
  8
47
 10
184.9350
 20
-18.0000
 30
0.0000
 11
182.4000
 21
-17.6808
 31
0.0000
  0
LINE
  8
47
 10
182.4000
 20
-17.6808
 30
0.0000
 11
182.4000
 21
-18.3192
 31
0.0000
  0
LINE
  8
47
 10
182.4000
 20
-18.3192
 30
0.0000
 11
184.9350
 21
-18.0000
 31
0.0000
  0
LINE
  8
47
 10
184.9350
 20
-18.0000
 30
0.0000
 11
182.4000
 21
-17.8700
 31
0.0000
  0
LINE
  8
47
 10
182.4000
 20
-18.1300
 30
0.0000
 11
184.9350
 21
-18.0000
 31
0.0000
  0
LINE
  8
47
 10
184.9350
 20
-18.0000
 30
0.0000
 11
182.4000
 21
-17.7400
 31
0.0000
  0
LINE
  8
47
 10
182.4000
 20
-18.2600
 30
0.0000
 11
184.9350
 21
-18.0000
 31
0.0000
  0
LINE
  8
47
 10
90.1885
 20
-16.0610
 30
0.0000
 11
90.8049
 21
-15.4446
 31
0.0000
  0
LINE
  8
47
 10
90.8049
 20
-15.4446
 30
0.0000
 11
90.8049
 21
-17.2938
 31
0.0000
  0
LINE
  8
47
 10
90.1885
 20
-17.2938
 30
0.0000
 11
91.4213
 21
-17.2938
 31
0.0000
  0
LINE
  8
47
 10
92.0301
 20
-15.7528
 30
0.0000
 11
92.3383
 21
-15.4446
 31
0.0000
  0
LINE
  8
47
 10
92.3383
 20
-15.4446
 30
0.0000
 11
92.9547
 21
-15.4446
 31
0.0000
  0
LINE
  8
47
 10
92.9547
 20
-15.4446
 30
0.0000
 11
93.2629
 21
-15.7528
 31
0.0000
  0
LINE
  8
47
 10
93.2629
 20
-15.7528
 30
0.0000
 11
93.2629
 21
-16.0610
 31
0.0000
  0
LINE
  8
47
 10
93.2629
 20
-16.0610
 30
0.0000
 11
92.9547
 21
-16.3692
 31
0.0000
  0
LINE
  8
47
 10
92.9547
 20
-16.3692
 30
0.0000
 11
93.2629
 21
-16.6774
 31
0.0000
  0
LINE
  8
47
 10
93.2629
 20
-16.6774
 30
0.0000
 11
93.2629
 21
-16.9856
 31
0.0000
  0
LINE
  8
47
 10
93.2629
 20
-16.9856
 30
0.0000
 11
92.9547
 21
-17.2938
 31
0.0000
  0
LINE
  8
47
 10
92.9547
 20
-17.2938
 30
0.0000
 11
92.3383
 21
-17.2938
 31
0.0000
  0
LINE
  8
47
 10
92.3383
 20
-17.2938
 30
0.0000
 11
92.0301
 21
-16.9856
 31
0.0000
  0
LINE
  8
47
 10
92.0301
 20
-16.9856
 30
0.0000
 11
92.0301
 21
-16.6774
 31
0.0000
  0
LINE
  8
47
 10
92.0301
 20
-16.6774
 30
0.0000
 11
92.3383
 21
-16.3692
 31
0.0000
  0
LINE
  8
47
 10
92.3383
 20
-16.3692
 30
0.0000
 11
92.0301
 21
-16.0610
 31
0.0000
  0
LINE
  8
47
 10
92.0301
 20
-16.0610
 30
0.0000
 11
92.0301
 21
-15.7528
 31
0.0000
  0
LINE
  8
47
 10
92.3383
 20
-16.3692
 30
0.0000
 11
92.9547
 21
-16.3692
 31
0.0000
  0
LINE
  8
47
 10
95.1045
 20
-15.4446
 30
0.0000
 11
93.8717
 21
-15.4446
 31
0.0000
  0
LINE
  8
47
 10
93.8717
 20
-15.4446
 30
0.0000
 11
93.8717
 21
-16.3692
 31
0.0000
  0
LINE
  8
47
 10
93.8717
 20
-16.3692
 30
0.0000
 11
94.4881
 21
-16.0610
 31
0.0000
  0
LINE
  8
47
 10
94.4881
 20
-16.0610
 30
0.0000
 11
94.7963
 21
-16.0610
 31
0.0000
  0
LINE
  8
47
 10
94.7963
 20
-16.0610
 30
0.0000
 11
95.1045
 21
-16.3692
 31
0.0000
  0
LINE
  8
47
 10
95.1045
 20
-16.3692
 30
0.0000
 11
95.1045
 21
-16.9856
 31
0.0000
  0
LINE
  8
47
 10
95.1045
 20
-16.9856
 30
0.0000
 11
94.7963
 21
-17.2938
 31
0.0000
  0
LINE
  8
47
 10
94.7963
 20
-17.2938
 30
0.0000
 11
94.1799
 21
-17.2938
 31
0.0000
  0
LINE
  8
47
 10
94.1799
 20
-17.2938
 30
0.0000
 11
93.8717
 21
-16.9856
 31
0.0000
  0
LINE
  8
47
 10
-1.0000
 20
70.0000
 30
0.0000
 11
-6.9500
 21
70.0000
 31
0.0000
  0
LINE
  8
47
 10
0.0000
 20
0.0000
 30
0.0000
 11
-6.9500
 21
0.0000
 31
0.0000
  0
LINE
  8
47
 10
-5.0000
 20
69.9350
 30
0.0000
 11
-5.0000
 21
0.0650
 31
0.0000
  0
LINE
  8
47
 10
-5.0000
 20
69.9350
 30
0.0000
 11
-5.3192
 21
67.4000
 31
0.0000
  0
LINE
  8
47
 10
-5.3192
 20
67.4000
 30
0.0000
 11
-4.6808
 21
67.4000
 31
0.0000
  0
LINE
  8
47
 10
-4.6808
 20
67.4000
 30
0.0000
 11
-5.0000
 21
69.9350
 31
0.0000
  0
LINE
  8
47
 10
-5.0000
 20
69.9350
 30
0.0000
 11
-5.1300
 21
67.4000
 31
0.0000
  0
LINE
  8
47
 10
-4.8700
 20
67.4000
 30
0.0000
 11
-5.0000
 21
69.9350
 31
0.0000
  0
LINE
  8
47
 10
-5.0000
 20
69.9350
 30
0.0000
 11
-5.2600
 21
67.4000
 31
0.0000
  0
LINE
  8
47
 10
-4.7400
 20
67.4000
 30
0.0000
 11
-5.0000
 21
69.9350
 31
0.0000
  0
LINE
  8
47
 10
-5.0000
 20
0.0650
 30
0.0000
 11
-5.3192
 21
2.6000
 31
0.0000
  0
LINE
  8
47
 10
-5.3192
 20
2.6000
 30
0.0000
 11
-4.6808
 21
2.6000
 31
0.0000
  0
LINE
  8
47
 10
-4.6808
 20
2.6000
 30
0.0000
 11
-5.0000
 21
0.0650
 31
0.0000
  0
LINE
  8
47
 10
-5.0000
 20
0.0650
 30
0.0000
 11
-5.1300
 21
2.6000
 31
0.0000
  0
LINE
  8
47
 10
-4.8700
 20
2.6000
 30
0.0000
 11
-5.0000
 21
0.0650
 31
0.0000
  0
LINE
  8
47
 10
-5.0000
 20
0.0650
 30
0.0000
 11
-5.2600
 21
2.6000
 31
0.0000
  0
LINE
  8
47
 10
-4.7400
 20
2.6000
 30
0.0000
 11
-5.0000
 21
0.0650
 31
0.0000
  0
LINE
  8
47
 10
-7.5554
 20
33.4829
 30
0.0000
 11
-7.5554
 21
34.7157
 31
0.0000
  0
LINE
  8
47
 10
-7.5554
 20
34.7157
 30
0.0000
 11
-7.2472
 21
34.7157
 31
0.0000
  0
LINE
  8
47
 10
-7.2472
 20
34.7157
 30
0.0000
 11
-6.0144
 21
33.4829
 31
0.0000
  0
LINE
  8
47
 10
-6.0144
 20
33.4829
 30
0.0000
 11
-5.7062
 21
33.4829
 31
0.0000
  0
LINE
  8
47
 10
-6.0144
 20
35.3245
 30
0.0000
 11
-7.2472
 21
35.3245
 31
0.0000
  0
LINE
  8
47
 10
-7.2472
 20
35.3245
 30
0.0000
 11
-7.5554
 21
35.6327
 31
0.0000
  0
LINE
  8
47
 10
-7.5554
 20
35.6327
 30
0.0000
 11
-7.5554
 21
36.2491
 31
0.0000
  0
LINE
  8
47
 10
-7.5554
 20
36.2491
 30
0.0000
 11
-7.2472
 21
36.5573
 31
0.0000
  0
LINE
  8
47
 10
-7.2472
 20
36.5573
 30
0.0000
 11
-6.0144
 21
36.5573
 31
0.0000
  0
LINE
  8
47
 10
-6.0144
 20
36.5573
 30
0.0000
 11
-5.7062
 21
36.2491
 31
0.0000
  0
LINE
  8
47
 10
-5.7062
 20
36.2491
 30
0.0000
 11
-5.7062
 21
35.6327
 31
0.0000
  0
LINE
  8
47
 10
-5.7062
 20
35.6327
 30
0.0000
 11
-6.0144
 21
35.3245
 31
0.0000
  0
LINE
  8
47
 10
-6.0144
 20
35.3245
 30
0.0000
 11
-7.2472
 21
36.5573
 31
0.0000
  0
LINE
  8
47
 10
31.5000
 20
61.0000
 30
0.0000
 11
31.5000
 21
53.0500
 31
0.0000
  0
LINE
  8
47
 10
28.5000
 20
61.0000
 30
0.0000
 11
28.5000
 21
53.0500
 31
0.0000
  0
LINE
  8
47
 10
28.4350
 20
55.0000
 30
0.0000
 11
23.3000
 21
55.0000
 31
0.0000
  0
LINE
  8
47
 10
31.5650
 20
55.0000
 30
0.0000
 11
35.6888
 21
55.0000
 31
0.0000
  0
LINE
  8
47
 10
31.5650
 20
55.0000
 30
0.0000
 11
34.1000
 21
55.3192
 31
0.0000
  0
LINE
  8
47
 10
34.1000
 20
55.3192
 30
0.0000
 11
34.1000
 21
54.6808
 31
0.0000
  0
LINE
  8
47
 10
34.1000
 20
54.6808
 30
0.0000
 11
31.5650
 21
55.0000
 31
0.0000
  0
LINE
  8
47
 10
31.5650
 20
55.0000
 30
0.0000
 11
34.1000
 21
55.1300
 31
0.0000
  0
LINE
  8
47
 10
34.1000
 20
54.8700
 30
0.0000
 11
31.5650
 21
55.0000
 31
0.0000
  0
LINE
  8
47
 10
31.5650
 20
55.0000
 30
0.0000
 11
34.1000
 21
55.2600
 31
0.0000
  0
LINE
  8
47
 10
34.1000
 20
54.7400
 30
0.0000
 11
31.5650
 21
55.0000
 31
0.0000
  0
LINE
  8
47
 10
28.4350
 20
55.0000
 30
0.0000
 11
25.9000
 21
55.3192
 31
0.0000
  0
LINE
  8
47
 10
25.9000
 20
55.3192
 30
0.0000
 11
25.9000
 21
54.6808
 31
0.0000
  0
LINE
  8
47
 10
25.9000
 20
54.6808
 30
0.0000
 11
28.4350
 21
55.0000
 31
0.0000
  0
LINE
  8
47
 10
28.4350
 20
55.0000
 30
0.0000
 11
25.9000
 21
55.1300
 31
0.0000
  0
LINE
  8
47
 10
25.9000
 20
54.8700
 30
0.0000
 11
28.4350
 21
55.0000
 31
0.0000
  0
LINE
  8
47
 10
28.4350
 20
55.0000
 30
0.0000
 11
25.9000
 21
55.2600
 31
0.0000
  0
LINE
  8
47
 10
25.9000
 20
54.7400
 30
0.0000
 11
28.4350
 21
55.0000
 31
0.0000
  0
LINE
  8
47
 10
30.0000
 20
60.6808
 30
0.0000
 11
30.0000
 21
61.3192
 31
0.0000
  0
LINE
  8
47
 10
29.6808
 20
61.0000
 30
0.0000
 11
30.3192
 21
61.0000
 31
0.0000
  0
LINE
  8
47
 10
34.1762
 20
57.2472
 30
0.0000
 11
34.4844
 21
57.5554
 31
0.0000
  0
LINE
  8
47
 10
34.4844
 20
57.5554
 30
0.0000
 11
35.1008
 21
57.5554
 31
0.0000
  0
LINE
  8
47
 10
35.1008
 20
57.5554
 30
0.0000
 11
35.4090
 21
57.2472
 31
0.0000
  0
LINE
  8
47
 10
35.4090
 20
57.2472
 30
0.0000
 11
35.4090
 21
56.9390
 31
0.0000
  0
LINE
  8
47
 10
35.4090
 20
56.9390
 30
0.0000
 11
35.1008
 21
56.6308
 31
0.0000
  0
LINE
  8
47
 10
35.1008
 20
56.6308
 30
0.0000
 11
34.7926
 21
56.6308
 31
0.0000
  0
LINE
  8
47
 10
35.1008
 20
56.6308
 30
0.0000
 11
35.4090
 21
56.3226
 31
0.0000
  0
LINE
  8
47
 10
35.4090
 20
56.3226
 30
0.0000
 11
35.4090
 21
56.0144
 31
0.0000
  0
LINE
  8
47
 10
35.4090
 20
56.0144
 30
0.0000
 11
35.1008
 21
55.7062
 31
0.0000
  0
LINE
  8
47
 10
35.1008
 20
55.7062
 30
0.0000
 11
34.4844
 21
55.7062
 31
0.0000
  0
LINE
  8
47
 10
34.4844
 20
55.7062
 30
0.0000
 11
34.1762
 21
56.0144
 31
0.0000
  0
LINE
  8
47
 10
123.5000
 20
9.0000
 30
0.0000
 11
123.5000
 21
1.0500
 31
0.0000
  0
LINE
  8
47
 10
120.5000
 20
9.0000
 30
0.0000
 11
120.5000
 21
1.0500
 31
0.0000
  0
LINE
  8
47
 10
120.4350
 20
3.0000
 30
0.0000
 11
115.3000
 21
3.0000
 31
0.0000
  0
LINE
  8
47
 10
123.5650
 20
3.0000
 30
0.0000
 11
127.6888
 21
3.0000
 31
0.0000
  0
LINE
  8
47
 10
123.5650
 20
3.0000
 30
0.0000
 11
126.1000
 21
3.3192
 31
0.0000
  0
LINE
  8
47
 10
126.1000
 20
3.3192
 30
0.0000
 11
126.1000
 21
2.6808
 31
0.0000
  0
LINE
  8
47
 10
126.1000
 20
2.6808
 30
0.0000
 11
123.5650
 21
3.0000
 31
0.0000
  0
LINE
  8
47
 10
123.5650
 20
3.0000
 30
0.0000
 11
126.1000
 21
3.1300
 31
0.0000
  0
LINE
  8
47
 10
126.1000
 20
2.8700
 30
0.0000
 11
123.5650
 21
3.0000
 31
0.0000
  0
LINE
  8
47
 10
123.5650
 20
3.0000
 30
0.0000
 11
126.1000
 21
3.2600
 31
0.0000
  0
LINE
  8
47
 10
126.1000
 20
2.7400
 30
0.0000
 11
123.5650
 21
3.0000
 31
0.0000
  0
LINE
  8
47
 10
120.4350
 20
3.0000
 30
0.0000
 11
117.9000
 21
3.3192
 31
0.0000
  0
LINE
  8
47
 10
117.9000
 20
3.3192
 30
0.0000
 11
117.9000
 21
2.6808
 31
0.0000
  0
LINE
  8
47
 10
117.9000
 20
2.6808
 30
0.0000
 11
120.4350
 21
3.0000
 31
0.0000
  0
LINE
  8
47
 10
120.4350
 20
3.0000
 30
0.0000
 11
117.9000
 21
3.1300
 31
0.0000
  0
LINE
  8
47
 10
117.9000
 20
2.8700
 30
0.0000
 11
120.4350
 21
3.0000
 31
0.0000
  0
LINE
  8
47
 10
120.4350
 20
3.0000
 30
0.0000
 11
117.9000
 21
3.2600
 31
0.0000
  0
LINE
  8
47
 10
117.9000
 20
2.7400
 30
0.0000
 11
120.4350
 21
3.0000
 31
0.0000
  0
LINE
  8
47
 10
122.0000
 20
8.6808
 30
0.0000
 11
122.0000
 21
9.3192
 31
0.0000
  0
LINE
  8
47
 10
121.6808
 20
9.0000
 30
0.0000
 11
122.3192
 21
9.0000
 31
0.0000
  0
LINE
  8
47
 10
126.1762
 20
5.2472
 30
0.0000
 11
126.4844
 21
5.5554
 31
0.0000
  0
LINE
  8
47
 10
126.4844
 20
5.5554
 30
0.0000
 11
127.1008
 21
5.5554
 31
0.0000
  0
LINE
  8
47
 10
127.1008
 20
5.5554
 30
0.0000
 11
127.4090
 21
5.2472
 31
0.0000
  0
LINE
  8
47
 10
127.4090
 20
5.2472
 30
0.0000
 11
127.4090
 21
4.9390
 31
0.0000
  0
LINE
  8
47
 10
127.4090
 20
4.9390
 30
0.0000
 11
127.1008
 21
4.6308
 31
0.0000
  0
LINE
  8
47
 10
127.1008
 20
4.6308
 30
0.0000
 11
126.7926
 21
4.6308
 31
0.0000
  0
LINE
  8
47
 10
127.1008
 20
4.6308
 30
0.0000
 11
127.4090
 21
4.3226
 31
0.0000
  0
LINE
  8
47
 10
127.4090
 20
4.3226
 30
0.0000
 11
127.4090
 21
4.0144
 31
0.0000
  0
LINE
  8
47
 10
127.4090
 20
4.0144
 30
0.0000
 11
127.1008
 21
3.7062
 31
0.0000
  0
LINE
  8
47
 10
127.1008
 20
3.7062
 30
0.0000
 11
126.4844
 21
3.7062
 31
0.0000
  0
LINE
  8
47
 10
126.4844
 20
3.7062
 30
0.0000
 11
126.1762
 21
4.0144
 31
0.0000
  0
LINE
  8
47
 10
30.0000
 20
64.0000
 30
0.0000
 11
30.0000
 21
-7.9500
 31
0.0000
  0
LINE
  8
47
 10
0.0000
 20
25.0000
 30
0.0000
 11
0.0000
 21
-7.9500
 31
0.0000
  0
LINE
  8
47
 10
29.9350
 20
-6.0000
 30
0.0000
 11
0.0650
 21
-6.0000
 31
0.0000
  0
LINE
  8
47
 10
29.9350
 20
-6.0000
 30
0.0000
 11
27.4000
 21
-5.6808
 31
0.0000
  0
LINE
  8
47
 10
27.4000
 20
-5.6808
 30
0.0000
 11
27.4000
 21
-6.3192
 31
0.0000
  0
LINE
  8
47
 10
27.4000
 20
-6.3192
 30
0.0000
 11
29.9350
 21
-6.0000
 31
0.0000
  0
LINE
  8
47
 10
29.9350
 20
-6.0000
 30
0.0000
 11
27.4000
 21
-5.8700
 31
0.0000
  0
LINE
  8
47
 10
27.4000
 20
-6.1300
 30
0.0000
 11
29.9350
 21
-6.0000
 31
0.0000
  0
LINE
  8
47
 10
29.9350
 20
-6.0000
 30
0.0000
 11
27.4000
 21
-5.7400
 31
0.0000
  0
LINE
  8
47
 10
27.4000
 20
-6.2600
 30
0.0000
 11
29.9350
 21
-6.0000
 31
0.0000
  0
LINE
  8
47
 10
0.0650
 20
-6.0000
 30
0.0000
 11
2.6000
 21
-5.6808
 31
0.0000
  0
LINE
  8
47
 10
2.6000
 20
-5.6808
 30
0.0000
 11
2.6000
 21
-6.3192
 31
0.0000
  0
LINE
  8
47
 10
2.6000
 20
-6.3192
 30
0.0000
 11
0.0650
 21
-6.0000
 31
0.0000
  0
LINE
  8
47
 10
0.0650
 20
-6.0000
 30
0.0000
 11
2.6000
 21
-5.8700
 31
0.0000
  0
LINE
  8
47
 10
2.6000
 20
-6.1300
 30
0.0000
 11
0.0650
 21
-6.0000
 31
0.0000
  0
LINE
  8
47
 10
0.0650
 20
-6.0000
 30
0.0000
 11
2.6000
 21
-5.7400
 31
0.0000
  0
LINE
  8
47
 10
2.6000
 20
-6.2600
 30
0.0000
 11
0.0650
 21
-6.0000
 31
0.0000
  0
LINE
  8
47
 10
13.4829
 20
-3.7528
 30
0.0000
 11
13.7911
 21
-3.4446
 31
0.0000
  0
LINE
  8
47
 10
13.7911
 20
-3.4446
 30
0.0000
 11
14.4075
 21
-3.4446
 31
0.0000
  0
LINE
  8
47
 10
14.4075
 20
-3.4446
 30
0.0000
 11
14.7157
 21
-3.7528
 31
0.0000
  0
LINE
  8
47
 10
14.7157
 20
-3.7528
 30
0.0000
 11
14.7157
 21
-4.0610
 31
0.0000
  0
LINE
  8
47
 10
14.7157
 20
-4.0610
 30
0.0000
 11
14.4075
 21
-4.3692
 31
0.0000
  0
LINE
  8
47
 10
14.4075
 20
-4.3692
 30
0.0000
 11
14.0993
 21
-4.3692
 31
0.0000
  0
LINE
  8
47
 10
14.4075
 20
-4.3692
 30
0.0000
 11
14.7157
 21
-4.6774
 31
0.0000
  0
LINE
  8
47
 10
14.7157
 20
-4.6774
 30
0.0000
 11
14.7157
 21
-4.9856
 31
0.0000
  0
LINE
  8
47
 10
14.7157
 20
-4.9856
 30
0.0000
 11
14.4075
 21
-5.2938
 31
0.0000
  0
LINE
  8
47
 10
14.4075
 20
-5.2938
 30
0.0000
 11
13.7911
 21
-5.2938
 31
0.0000
  0
LINE
  8
47
 10
13.7911
 20
-5.2938
 30
0.0000
 11
13.4829
 21
-4.9856
 31
0.0000
  0
LINE
  8
47
 10
15.3245
 20
-4.9856
 30
0.0000
 11
15.3245
 21
-3.7528
 31
0.0000
  0
LINE
  8
47
 10
15.3245
 20
-3.7528
 30
0.0000
 11
15.6327
 21
-3.4446
 31
0.0000
  0
LINE
  8
47
 10
15.6327
 20
-3.4446
 30
0.0000
 11
16.2491
 21
-3.4446
 31
0.0000
  0
LINE
  8
47
 10
16.2491
 20
-3.4446
 30
0.0000
 11
16.5573
 21
-3.7528
 31
0.0000
  0
LINE
  8
47
 10
16.5573
 20
-3.7528
 30
0.0000
 11
16.5573
 21
-4.9856
 31
0.0000
  0
LINE
  8
47
 10
16.5573
 20
-4.9856
 30
0.0000
 11
16.2491
 21
-5.2938
 31
0.0000
  0
LINE
  8
47
 10
16.2491
 20
-5.2938
 30
0.0000
 11
15.6327
 21
-5.2938
 31
0.0000
  0
LINE
  8
47
 10
15.6327
 20
-5.2938
 30
0.0000
 11
15.3245
 21
-4.9856
 31
0.0000
  0
LINE
  8
47
 10
15.3245
 20
-4.9856
 30
0.0000
 11
16.5573
 21
-3.7528
 31
0.0000
  0
LINE
  8
47
 10
34.0000
 20
9.0000
 30
0.0000
 11
20.0500
 21
9.0000
 31
0.0000
  0
LINE
  8
47
 10
20.0000
 20
0.0000
 30
0.0000
 11
23.9500
 21
0.0000
 31
0.0000
  0
LINE
  8
47
 10
22.0000
 20
8.9350
 30
0.0000
 11
22.0000
 21
0.0650
 31
0.0000
  0
LINE
  8
47
 10
22.0000
 20
8.9350
 30
0.0000
 11
21.6808
 21
6.4000
 31
0.0000
  0
LINE
  8
47
 10
21.6808
 20
6.4000
 30
0.0000
 11
22.3192
 21
6.4000
 31
0.0000
  0
LINE
  8
47
 10
22.3192
 20
6.4000
 30
0.0000
 11
22.0000
 21
8.9350
 31
0.0000
  0
LINE
  8
47
 10
22.0000
 20
8.9350
 30
0.0000
 11
21.8700
 21
6.4000
 31
0.0000
  0
LINE
  8
47
 10
22.1300
 20
6.4000
 30
0.0000
 11
22.0000
 21
8.9350
 31
0.0000
  0
LINE
  8
47
 10
22.0000
 20
8.9350
 30
0.0000
 11
21.7400
 21
6.4000
 31
0.0000
  0
LINE
  8
47
 10
22.2600
 20
6.4000
 30
0.0000
 11
22.0000
 21
8.9350
 31
0.0000
  0
LINE
  8
47
 10
22.0000
 20
0.0650
 30
0.0000
 11
21.6808
 21
2.6000
 31
0.0000
  0
LINE
  8
47
 10
21.6808
 20
2.6000
 30
0.0000
 11
22.3192
 21
2.6000
 31
0.0000
  0
LINE
  8
47
 10
22.3192
 20
2.6000
 30
0.0000
 11
22.0000
 21
0.0650
 31
0.0000
  0
LINE
  8
47
 10
22.0000
 20
0.0650
 30
0.0000
 11
21.8700
 21
2.6000
 31
0.0000
  0
LINE
  8
47
 10
22.1300
 20
2.6000
 30
0.0000
 11
22.0000
 21
0.0650
 31
0.0000
  0
LINE
  8
47
 10
22.0000
 20
0.0650
 30
0.0000
 11
21.7400
 21
2.6000
 31
0.0000
  0
LINE
  8
47
 10
22.2600
 20
2.6000
 30
0.0000
 11
22.0000
 21
0.0650
 31
0.0000
  0
LINE
  8
47
 10
20.9856
 20
3.7818
 30
0.0000
 11
21.2938
 21
4.0900
 31
0.0000
  0
LINE
  8
47
 10
21.2938
 20
4.0900
 30
0.0000
 11
21.2938
 21
4.7064
 31
0.0000
  0
LINE
  8
47
 10
21.2938
 20
4.7064
 30
0.0000
 11
20.9856
 21
5.0146
 31
0.0000
  0
LINE
  8
47
 10
20.9856
 20
5.0146
 30
0.0000
 11
19.7528
 21
5.0146
 31
0.0000
  0
LINE
  8
47
 10
19.7528
 20
5.0146
 30
0.0000
 11
19.4446
 21
4.7064
 31
0.0000
  0
LINE
  8
47
 10
19.4446
 20
4.7064
 30
0.0000
 11
19.4446
 21
4.0900
 31
0.0000
  0
LINE
  8
47
 10
19.4446
 20
4.0900
 30
0.0000
 11
19.7528
 21
3.7818
 31
0.0000
  0
LINE
  8
47
 10
19.7528
 20
3.7818
 30
0.0000
 11
20.0610
 21
3.7818
 31
0.0000
  0
LINE
  8
47
 10
20.0610
 20
3.7818
 30
0.0000
 11
20.3692
 21
4.0900
 31
0.0000
  0
LINE
  8
47
 10
20.3692
 20
4.0900
 30
0.0000
 11
20.3692
 21
5.0146
 31
0.0000
  0
LINE
  8
47
 10
122.0000
 20
66.0000
 30
0.0000
 11
122.0000
 21
-13.9500
 31
0.0000
  0
LINE
  8
47
 10
0.0000
 20
-9.0000
 30
0.0000
 11
0.0000
 21
-13.9500
 31
0.0000
  0
LINE
  8
47
 10
121.9350
 20
-12.0000
 30
0.0000
 11
0.0650
 21
-12.0000
 31
0.0000
  0
LINE
  8
47
 10
121.9350
 20
-12.0000
 30
0.0000
 11
119.4000
 21
-11.6808
 31
0.0000
  0
LINE
  8
47
 10
119.4000
 20
-11.6808
 30
0.0000
 11
119.4000
 21
-12.3192
 31
0.0000
  0
LINE
  8
47
 10
119.4000
 20
-12.3192
 30
0.0000
 11
121.9350
 21
-12.0000
 31
0.0000
  0
LINE
  8
47
 10
121.9350
 20
-12.0000
 30
0.0000
 11
119.4000
 21
-11.8700
 31
0.0000
  0
LINE
  8
47
 10
119.4000
 20
-12.1300
 30
0.0000
 11
121.9350
 21
-12.0000
 31
0.0000
  0
LINE
  8
47
 10
121.9350
 20
-12.0000
 30
0.0000
 11
119.4000
 21
-11.7400
 31
0.0000
  0
LINE
  8
47
 10
119.4000
 20
-12.2600
 30
0.0000
 11
121.9350
 21
-12.0000
 31
0.0000
  0
LINE
  8
47
 10
0.0650
 20
-12.0000
 30
0.0000
 11
2.6000
 21
-11.6808
 31
0.0000
  0
LINE
  8
47
 10
2.6000
 20
-11.6808
 30
0.0000
 11
2.6000
 21
-12.3192
 31
0.0000
  0
LINE
  8
47
 10
2.6000
 20
-12.3192
 30
0.0000
 11
0.0650
 21
-12.0000
 31
0.0000
  0
LINE
  8
47
 10
0.0650
 20
-12.0000
 30
0.0000
 11
2.6000
 21
-11.8700
 31
0.0000
  0
LINE
  8
47
 10
2.6000
 20
-12.1300
 30
0.0000
 11
0.0650
 21
-12.0000
 31
0.0000
  0
LINE
  8
47
 10
0.0650
 20
-12.0000
 30
0.0000
 11
2.6000
 21
-11.7400
 31
0.0000
  0
LINE
  8
47
 10
2.6000
 20
-12.2600
 30
0.0000
 11
0.0650
 21
-12.0000
 31
0.0000
  0
LINE
  8
47
 10
58.6885
 20
-10.0610
 30
0.0000
 11
59.3049
 21
-9.4446
 31
0.0000
  0
LINE
  8
47
 10
59.3049
 20
-9.4446
 30
0.0000
 11
59.3049
 21
-11.2938
 31
0.0000
  0
LINE
  8
47
 10
58.6885
 20
-11.2938
 30
0.0000
 11
59.9213
 21
-11.2938
 31
0.0000
  0
LINE
  8
47
 10
61.7629
 20
-11.2938
 30
0.0000
 11
60.5301
 21
-11.2938
 31
0.0000
  0
LINE
  8
47
 10
60.5301
 20
-11.2938
 30
0.0000
 11
61.7629
 21
-10.0610
 31
0.0000
  0
LINE
  8
47
 10
61.7629
 20
-10.0610
 30
0.0000
 11
61.7629
 21
-9.7528
 31
0.0000
  0
LINE
  8
47
 10
61.7629
 20
-9.7528
 30
0.0000
 11
61.4547
 21
-9.4446
 31
0.0000
  0
LINE
  8
47
 10
61.4547
 20
-9.4446
 30
0.0000
 11
60.8383
 21
-9.4446
 31
0.0000
  0
LINE
  8
47
 10
60.8383
 20
-9.4446
 30
0.0000
 11
60.5301
 21
-9.7528
 31
0.0000
  0
LINE
  8
47
 10
63.6045
 20
-11.2938
 30
0.0000
 11
62.3717
 21
-11.2938
 31
0.0000
  0
LINE
  8
47
 10
62.3717
 20
-11.2938
 30
0.0000
 11
63.6045
 21
-10.0610
 31
0.0000
  0
LINE
  8
47
 10
63.6045
 20
-10.0610
 30
0.0000
 11
63.6045
 21
-9.7528
 31
0.0000
  0
LINE
  8
47
 10
63.6045
 20
-9.7528
 30
0.0000
 11
63.2963
 21
-9.4446
 31
0.0000
  0
LINE
  8
47
 10
63.2963
 20
-9.4446
 30
0.0000
 11
62.6799
 21
-9.4446
 31
0.0000
  0
LINE
  8
47
 10
62.6799
 20
-9.4446
 30
0.0000
 11
62.3717
 21
-9.7528
 31
0.0000
  0
LINE
  8
47
 10
131.0000
 20
9.0000
 30
0.0000
 11
111.0500
 21
9.0000
 31
0.0000
  0
LINE
  8
47
 10
115.0000
 20
0.0000
 30
0.0000
 11
111.0500
 21
0.0000
 31
0.0000
  0
LINE
  8
47
 10
113.0000
 20
8.9350
 30
0.0000
 11
113.0000
 21
0.0650
 31
0.0000
  0
LINE
  8
47
 10
113.0000
 20
8.9350
 30
0.0000
 11
112.6808
 21
6.4000
 31
0.0000
  0
LINE
  8
47
 10
112.6808
 20
6.4000
 30
0.0000
 11
113.3192
 21
6.4000
 31
0.0000
  0
LINE
  8
47
 10
113.3192
 20
6.4000
 30
0.0000
 11
113.0000
 21
8.9350
 31
0.0000
  0
LINE
  8
47
 10
113.0000
 20
8.9350
 30
0.0000
 11
112.8700
 21
6.4000
 31
0.0000
  0
LINE
  8
47
 10
113.1300
 20
6.4000
 30
0.0000
 11
113.0000
 21
8.9350
 31
0.0000
  0
LINE
  8
47
 10
113.0000
 20
8.9350
 30
0.0000
 11
112.7400
 21
6.4000
 31
0.0000
  0
LINE
  8
47
 10
113.2600
 20
6.4000
 30
0.0000
 11
113.0000
 21
8.9350
 31
0.0000
  0
LINE
  8
47
 10
113.0000
 20
0.0650
 30
0.0000
 11
112.6808
 21
2.6000
 31
0.0000
  0
LINE
  8
47
 10
112.6808
 20
2.6000
 30
0.0000
 11
113.3192
 21
2.6000
 31
0.0000
  0
LINE
  8
47
 10
113.3192
 20
2.6000
 30
0.0000
 11
113.0000
 21
0.0650
 31
0.0000
  0
LINE
  8
47
 10
113.0000
 20
0.0650
 30
0.0000
 11
112.8700
 21
2.6000
 31
0.0000
  0
LINE
  8
47
 10
113.1300
 20
2.6000
 30
0.0000
 11
113.0000
 21
0.0650
 31
0.0000
  0
LINE
  8
47
 10
113.0000
 20
0.0650
 30
0.0000
 11
112.7400
 21
2.6000
 31
0.0000
  0
LINE
  8
47
 10
113.2600
 20
2.6000
 30
0.0000
 11
113.0000
 21
0.0650
 31
0.0000
  0
LINE
  8
47
 10
111.9856
 20
3.7818
 30
0.0000
 11
112.2938
 21
4.0900
 31
0.0000
  0
LINE
  8
47
 10
112.2938
 20
4.0900
 30
0.0000
 11
112.2938
 21
4.7064
 31
0.0000
  0
LINE
  8
47
 10
112.2938
 20
4.7064
 30
0.0000
 11
111.9856
 21
5.0146
 31
0.0000
  0
LINE
  8
47
 10
111.9856
 20
5.0146
 30
0.0000
 11
110.7528
 21
5.0146
 31
0.0000
  0
LINE
  8
47
 10
110.7528
 20
5.0146
 30
0.0000
 11
110.4446
 21
4.7064
 31
0.0000
  0
LINE
  8
47
 10
110.4446
 20
4.7064
 30
0.0000
 11
110.4446
 21
4.0900
 31
0.0000
  0
LINE
  8
47
 10
110.4446
 20
4.0900
 30
0.0000
 11
110.7528
 21
3.7818
 31
0.0000
  0
LINE
  8
47
 10
110.7528
 20
3.7818
 30
0.0000
 11
111.0610
 21
3.7818
 31
0.0000
  0
LINE
  8
47
 10
111.0610
 20
3.7818
 30
0.0000
 11
111.3692
 21
4.0900
 31
0.0000
  0
LINE
  8
47
 10
111.3692
 20
4.0900
 30
0.0000
 11
111.3692
 21
5.0146
 31
0.0000
  0
LINE
  8
47
 10
126.0000
 20
61.0000
 30
0.0000
 11
114.0500
 21
61.0000
 31
0.0000
  0
LINE
  8
47
 10
128.0000
 20
70.0000
 30
0.0000
 11
114.0500
 21
70.0000
 31
0.0000
  0
LINE
  8
47
 10
116.0000
 20
61.0650
 30
0.0000
 11
116.0000
 21
69.9350
 31
0.0000
  0
LINE
  8
47
 10
116.0000
 20
61.0650
 30
0.0000
 11
115.6808
 21
63.6000
 31
0.0000
  0
LINE
  8
47
 10
115.6808
 20
63.6000
 30
0.0000
 11
116.3192
 21
63.6000
 31
0.0000
  0
LINE
  8
47
 10
116.3192
 20
63.6000
 30
0.0000
 11
116.0000
 21
61.0650
 31
0.0000
  0
LINE
  8
47
 10
116.0000
 20
61.0650
 30
0.0000
 11
115.8700
 21
63.6000
 31
0.0000
  0
LINE
  8
47
 10
116.1300
 20
63.6000
 30
0.0000
 11
116.0000
 21
61.0650
 31
0.0000
  0
LINE
  8
47
 10
116.0000
 20
61.0650
 30
0.0000
 11
115.7400
 21
63.6000
 31
0.0000
  0
LINE
  8
47
 10
116.2600
 20
63.6000
 30
0.0000
 11
116.0000
 21
61.0650
 31
0.0000
  0
LINE
  8
47
 10
116.0000
 20
69.9350
 30
0.0000
 11
115.6808
 21
67.4000
 31
0.0000
  0
LINE
  8
47
 10
115.6808
 20
67.4000
 30
0.0000
 11
116.3192
 21
67.4000
 31
0.0000
  0
LINE
  8
47
 10
116.3192
 20
67.4000
 30
0.0000
 11
116.0000
 21
69.9350
 31
0.0000
  0
LINE
  8
47
 10
116.0000
 20
69.9350
 30
0.0000
 11
115.8700
 21
67.4000
 31
0.0000
  0
LINE
  8
47
 10
116.1300
 20
67.4000
 30
0.0000
 11
116.0000
 21
69.9350
 31
0.0000
  0
LINE
  8
47
 10
116.0000
 20
69.9350
 30
0.0000
 11
115.7400
 21
67.4000
 31
0.0000
  0
LINE
  8
47
 10
116.2600
 20
67.4000
 30
0.0000
 11
116.0000
 21
69.9350
 31
0.0000
  0
LINE
  8
47
 10
114.9856
 20
64.7818
 30
0.0000
 11
115.2938
 21
65.0900
 31
0.0000
  0
LINE
  8
47
 10
115.2938
 20
65.0900
 30
0.0000
 11
115.2938
 21
65.7064
 31
0.0000
  0
LINE
  8
47
 10
115.2938
 20
65.7064
 30
0.0000
 11
114.9856
 21
66.0146
 31
0.0000
  0
LINE
  8
47
 10
114.9856
 20
66.0146
 30
0.0000
 11
113.7528
 21
66.0146
 31
0.0000
  0
LINE
  8
47
 10
113.7528
 20
66.0146
 30
0.0000
 11
113.4446
 21
65.7064
 31
0.0000
  0
LINE
  8
47
 10
113.4446
 20
65.7064
 30
0.0000
 11
113.4446
 21
65.0900
 31
0.0000
  0
LINE
  8
47
 10
113.4446
 20
65.0900
 30
0.0000
 11
113.7528
 21
64.7818
 31
0.0000
  0
LINE
  8
47
 10
113.7528
 20
64.7818
 30
0.0000
 11
114.0610
 21
64.7818
 31
0.0000
  0
LINE
  8
47
 10
114.0610
 20
64.7818
 30
0.0000
 11
114.3692
 21
65.0900
 31
0.0000
  0
LINE
  8
47
 10
114.3692
 20
65.0900
 30
0.0000
 11
114.3692
 21
66.0146
 31
0.0000
  0
LINE
  8
47
 10
39.0000
 20
61.0000
 30
0.0000
 11
20.0500
 21
61.0000
 31
0.0000
  0
LINE
  8
47
 10
24.0000
 20
70.0000
 30
0.0000
 11
20.0500
 21
70.0000
 31
0.0000
  0
LINE
  8
47
 10
22.0000
 20
61.0650
 30
0.0000
 11
22.0000
 21
69.9350
 31
0.0000
  0
LINE
  8
47
 10
22.0000
 20
61.0650
 30
0.0000
 11
21.6808
 21
63.6000
 31
0.0000
  0
LINE
  8
47
 10
21.6808
 20
63.6000
 30
0.0000
 11
22.3192
 21
63.6000
 31
0.0000
  0
LINE
  8
47
 10
22.3192
 20
63.6000
 30
0.0000
 11
22.0000
 21
61.0650
 31
0.0000
  0
LINE
  8
47
 10
22.0000
 20
61.0650
 30
0.0000
 11
21.8700
 21
63.6000
 31
0.0000
  0
LINE
  8
47
 10
22.1300
 20
63.6000
 30
0.0000
 11
22.0000
 21
61.0650
 31
0.0000
  0
LINE
  8
47
 10
22.0000
 20
61.0650
 30
0.0000
 11
21.7400
 21
63.6000
 31
0.0000
  0
LINE
  8
47
 10
22.2600
 20
63.6000
 30
0.0000
 11
22.0000
 21
61.0650
 31
0.0000
  0
LINE
  8
47
 10
22.0000
 20
69.9350
 30
0.0000
 11
21.6808
 21
67.4000
 31
0.0000
  0
LINE
  8
47
 10
21.6808
 20
67.4000
 30
0.0000
 11
22.3192
 21
67.4000
 31
0.0000
  0
LINE
  8
47
 10
22.3192
 20
67.4000
 30
0.0000
 11
22.0000
 21
69.9350
 31
0.0000
  0
LINE
  8
47
 10
22.0000
 20
69.9350
 30
0.0000
 11
21.8700
 21
67.4000
 31
0.0000
  0
LINE
  8
47
 10
22.1300
 20
67.4000
 30
0.0000
 11
22.0000
 21
69.9350
 31
0.0000
  0
LINE
  8
47
 10
22.0000
 20
69.9350
 30
0.0000
 11
21.7400
 21
67.4000
 31
0.0000
  0
LINE
  8
47
 10
22.2600
 20
67.4000
 30
0.0000
 11
22.0000
 21
69.9350
 31
0.0000
  0
LINE
  8
47
 10
20.9856
 20
64.7818
 30
0.0000
 11
21.2938
 21
65.0900
 31
0.0000
  0
LINE
  8
47
 10
21.2938
 20
65.0900
 30
0.0000
 11
21.2938
 21
65.7064
 31
0.0000
  0
LINE
  8
47
 10
21.2938
 20
65.7064
 30
0.0000
 11
20.9856
 21
66.0146
 31
0.0000
  0
LINE
  8
47
 10
20.9856
 20
66.0146
 30
0.0000
 11
19.7528
 21
66.0146
 31
0.0000
  0
LINE
  8
47
 10
19.7528
 20
66.0146
 30
0.0000
 11
19.4446
 21
65.7064
 31
0.0000
  0
LINE
  8
47
 10
19.4446
 20
65.7064
 30
0.0000
 11
19.4446
 21
65.0900
 31
0.0000
  0
LINE
  8
47
 10
19.4446
 20
65.0900
 30
0.0000
 11
19.7528
 21
64.7818
 31
0.0000
  0
LINE
  8
47
 10
19.7528
 20
64.7818
 30
0.0000
 11
20.0610
 21
64.7818
 31
0.0000
  0
LINE
  8
47
 10
20.0610
 20
64.7818
 30
0.0000
 11
20.3692
 21
65.0900
 31
0.0000
  0
LINE
  8
47
 10
20.3692
 20
65.0900
 30
0.0000
 11
20.3692
 21
66.0146
 31
0.0000
  0
LINE
  8
47
 10
30.0000
 20
6.0000
 30
0.0000
 11
30.0000
 21
-7.9500
 31
0.0000
  0
LINE
  8
47
 10
122.0000
 20
12.0000
 30
0.0000
 11
122.0000
 21
-7.9500
 31
0.0000
  0
LINE
  8
47
 10
30.0650
 20
-6.0000
 30
0.0000
 11
121.9350
 21
-6.0000
 31
0.0000
  0
LINE
  8
47
 10
30.0650
 20
-6.0000
 30
0.0000
 11
32.6000
 21
-5.6808
 31
0.0000
  0
LINE
  8
47
 10
32.6000
 20
-5.6808
 30
0.0000
 11
32.6000
 21
-6.3192
 31
0.0000
  0
LINE
  8
47
 10
32.6000
 20
-6.3192
 30
0.0000
 11
30.0650
 21
-6.0000
 31
0.0000
  0
LINE
  8
47
 10
30.0650
 20
-6.0000
 30
0.0000
 11
32.6000
 21
-5.8700
 31
0.0000
  0
LINE
  8
47
 10
32.6000
 20
-6.1300
 30
0.0000
 11
30.0650
 21
-6.0000
 31
0.0000
  0
LINE
  8
47
 10
30.0650
 20
-6.0000
 30
0.0000
 11
32.6000
 21
-5.7400
 31
0.0000
  0
LINE
  8
47
 10
32.6000
 20
-6.2600
 30
0.0000
 11
30.0650
 21
-6.0000
 31
0.0000
  0
LINE
  8
47
 10
121.9350
 20
-6.0000
 30
0.0000
 11
119.4000
 21
-5.6808
 31
0.0000
  0
LINE
  8
47
 10
119.4000
 20
-5.6808
 30
0.0000
 11
119.4000
 21
-6.3192
 31
0.0000
  0
LINE
  8
47
 10
119.4000
 20
-6.3192
 30
0.0000
 11
121.9350
 21
-6.0000
 31
0.0000
  0
LINE
  8
47
 10
121.9350
 20
-6.0000
 30
0.0000
 11
119.4000
 21
-5.8700
 31
0.0000
  0
LINE
  8
47
 10
119.4000
 20
-6.1300
 30
0.0000
 11
121.9350
 21
-6.0000
 31
0.0000
  0
LINE
  8
47
 10
121.9350
 20
-6.0000
 30
0.0000
 11
119.4000
 21
-5.7400
 31
0.0000
  0
LINE
  8
47
 10
119.4000
 20
-6.2600
 30
0.0000
 11
121.9350
 21
-6.0000
 31
0.0000
  0
LINE
  8
47
 10
74.4829
 20
-4.9856
 30
0.0000
 11
74.7911
 21
-5.2938
 31
0.0000
  0
LINE
  8
47
 10
74.7911
 20
-5.2938
 30
0.0000
 11
75.4075
 21
-5.2938
 31
0.0000
  0
LINE
  8
47
 10
75.4075
 20
-5.2938
 30
0.0000
 11
75.7157
 21
-4.9856
 31
0.0000
  0
LINE
  8
47
 10
75.7157
 20
-4.9856
 30
0.0000
 11
75.7157
 21
-3.7528
 31
0.0000
  0
LINE
  8
47
 10
75.7157
 20
-3.7528
 30
0.0000
 11
75.4075
 21
-3.4446
 31
0.0000
  0
LINE
  8
47
 10
75.4075
 20
-3.4446
 30
0.0000
 11
74.7911
 21
-3.4446
 31
0.0000
  0
LINE
  8
47
 10
74.7911
 20
-3.4446
 30
0.0000
 11
74.4829
 21
-3.7528
 31
0.0000
  0
LINE
  8
47
 10
74.4829
 20
-3.7528
 30
0.0000
 11
74.4829
 21
-4.0610
 31
0.0000
  0
LINE
  8
47
 10
74.4829
 20
-4.0610
 30
0.0000
 11
74.7911
 21
-4.3692
 31
0.0000
  0
LINE
  8
47
 10
74.7911
 20
-4.3692
 30
0.0000
 11
75.7157
 21
-4.3692
 31
0.0000
  0
LINE
  8
47
 10
77.5573
 20
-5.2938
 30
0.0000
 11
76.3245
 21
-5.2938
 31
0.0000
  0
LINE
  8
47
 10
76.3245
 20
-5.2938
 30
0.0000
 11
77.5573
 21
-4.0610
 31
0.0000
  0
LINE
  8
47
 10
77.5573
 20
-4.0610
 30
0.0000
 11
77.5573
 21
-3.7528
 31
0.0000
  0
LINE
  8
47
 10
77.5573
 20
-3.7528
 30
0.0000
 11
77.2491
 21
-3.4446
 31
0.0000
  0
LINE
  8
47
 10
77.2491
 20
-3.4446
 30
0.0000
 11
76.6327
 21
-3.4446
 31
0.0000
  0
LINE
  8
47
 10
76.6327
 20
-3.4446
 30
0.0000
 11
76.3245
 21
-3.7528
 31
0.0000
  0
CIRCLE
  8
20
 10
30.0000
 20
9.0000
 30
0.0000
 40
1.5000
  0
CIRCLE
  8
20
 10
30.0000
 20
61.0000
 30
0.0000
 40
1.5000
  0
CIRCLE
  8
20
 10
122.0000
 20
9.0000
 30
0.0000
 40
1.5000
  0
CIRCLE
  8
20
 10
122.0000
 20
61.0000
 30
0.0000
 40
1.5000
  0
ENDSEC
  0
EOF
