  0
SECTION
  2
HEADER
  9
$ACADVER
  1
AC1009
  9
$FILLMODE
 70
0
  9
$EXTMIN
 10
-13.5500
 20
-8.0150
 30
0.0000
  9
$EXTMAX
 10
118.5500
 20
172.8333
 30
0.0000
  0
ENDSEC
  0
SECTION
  2
TABLES
  0
TABLE
  2
LTYPE
 70
1
  0
LTYPE
  2
CONTINUOUS
 70
64
  3
Solid line
 72
65
 73
0
 40
0
  0
ENDTAB
  0
TABLE
  2
LAYER
 70
255
  0
LAYER
  2
20
 70
64
 62
7
  6
CONTINUOUS
  0
LAYER
  2
47
 70
64
 62
2
  6
CONTINUOUS
  0
LAYER
  2
100
 70
64
 62
3
  6
CONTINUOUS
  0
ENDTAB
  0
ENDSEC
  0
SECTION
  2
BLOCKS
  0
BLOCK
  8
0
  2
RECT
 70
64
 10
0.0000
 20
0.0000
 30
0.0000
  3
RECT
  0
SOLID
  8
0
 10
-0.5000
 20
-0.5000
 30
0.0000
 11
0.5000
 21
-0.5000
 31
0.0000
 12
-0.5000
 22
0.5000
 32
0.0000
 13
0.5000
 23
0.5000
 33
0.0000
  0
ENDBLK
  8
0
  0
BLOCK
  8
0
  2
PIE
 70
64
 10
0.0000
 20
0.0000
 30
0.0000
  3
PIE
  0
CIRCLE
  8
0
 10
0.0000
 20
0.0000
 30
0.0000
 40
0.5000
  0
ENDBLK
  8
0
  0
BLOCK
  8
0
  2
OCTAGONP
 70
64
 10
0.0000
 20
0.0000
 30
0.0000
  3
OCTAGONP
  0
POLYLINE
  8
0
 66
1
 10
0.0000
 20
0.0000
 30
0.0000
 40
0.0000
 41
0.0000
 70
1
  0
VERTEX
  8
0
 10
-0.5000
 20
-0.2071
 30
0.0000
  0
VERTEX
  8
0
 10
-0.5000
 20
0.2071
 30
0.0000
  0
VERTEX
  8
0
 10
-0.2071
 20
0.5000
 30
0.0000
  0
VERTEX
  8
0
 10
0.2071
 20
0.5000
 30
0.0000
  0
VERTEX
  8
0
 10
0.5000
 20
0.2071
 30
0.0000
  0
VERTEX
  8
0
 10
0.5000
 20
-0.2071
 30
0.0000
  0
VERTEX
  8
0
 10
0.2071
 20
-0.5000
 30
0.0000
  0
VERTEX
  8
0
 10
-0.2071
 20
-0.5000
 30
0.0000
  0
SEQEND
  8
0
  0
ENDBLK
  8
0
  0
BLOCK
  8
0
  2
SQUAREP
 70
64
 10
0.0000
 20
0.0000
 30
0.0000
  3
SQUAREP
  0
SOLID
  8
0
 10
-0.5000
 20
-0.5000
 30
0.0000
 11
0.5000
 21
-0.5000
 31
0.0000
 12
-0.5000
 22
0.5000
 32
0.0000
 13
0.5000
 23
0.5000
 33
0.0000
  0
ENDBLK
  8
0
  0
BLOCK
  8
0
  2
ROUNDP
 70
64
 10
0.0000
 20
0.0000
 30
0.0000
  3
ROUNDP
  0
CIRCLE
  8
0
 10
0.0000
 20
0.0000
 30
0.0000
 40
0.5000
  0
ENDBLK
  8
0
  0
BLOCK
  8
0
  2
ANNULUSP
 70
64
 10
0.0000
 20
0.0000
 30
0.0000
  3
ANNULUSP
  0
CIRCLE
  8
0
 10
0.0000
 20
0.0000
 30
0.0000
 40
0.5000
  0
ENDBLK
  8
0
  0
BLOCK
  8
0
  2
THERMALP
 70
64
 10
0.0000
 20
0.0000
 30
0.0000
  3
THERMALP
  0
LINE
  8
0
 10
-0.2379
 20
0.4500
 30
0.0000
 11
0.2379
 21
0.4500
 31
0.0000
  0
LINE
  8
0
 10
0.4500
 20
0.2379
 30
0.0000
 11
0.4500
 21
-0.2379
 31
0.0000
  0
LINE
  8
0
 10
0.2379
 20
-0.4500
 30
0.0000
 11
-0.2379
 21
-0.4500
 31
0.0000
  0
LINE
  8
0
 10
-0.4500
 20
-0.2379
 30
0.0000
 11
-0.4500
 21
0.2379
 31
0.0000
  0
ENDBLK
  8
0
  0
BLOCK
  8
0
  2
OCTAGONV
 70
64
 10
0.0000
 20
0.0000
 30
0.0000
  3
OCTAGONV
  0
POLYLINE
  8
0
 66
1
 10
0.0000
 20
0.0000
 30
0.0000
 40
0.0000
 41
0.0000
 70
1
  0
VERTEX
  8
0
 10
-0.5000
 20
-0.2071
 30
0.0000
  0
VERTEX
  8
0
 10
-0.5000
 20
0.2071
 30
0.0000
  0
VERTEX
  8
0
 10
-0.2071
 20
0.5000
 30
0.0000
  0
VERTEX
  8
0
 10
0.2071
 20
0.5000
 30
0.0000
  0
VERTEX
  8
0
 10
0.5000
 20
0.2071
 30
0.0000
  0
VERTEX
  8
0
 10
0.5000
 20
-0.2071
 30
0.0000
  0
VERTEX
  8
0
 10
0.2071
 20
-0.5000
 30
0.0000
  0
VERTEX
  8
0
 10
-0.2071
 20
-0.5000
 30
0.0000
  0
SEQEND
  8
0
  0
ENDBLK
  8
0
  0
BLOCK
  8
0
  2
SQUAREV
 70
64
 10
0.0000
 20
0.0000
 30
0.0000
  3
SQUAREV
  0
SOLID
  8
0
 10
-0.5000
 20
-0.5000
 30
0.0000
 11
0.5000
 21
-0.5000
 31
0.0000
 12
-0.5000
 22
0.5000
 32
0.0000
 13
0.5000
 23
0.5000
 33
0.0000
  0
ENDBLK
  8
0
  0
BLOCK
  8
0
  2
ROUNDV
 70
64
 10
0.0000
 20
0.0000
 30
0.0000
  3
ROUNDV
  0
CIRCLE
  8
0
 10
0.0000
 20
0.0000
 30
0.0000
 40
0.5000
  0
ENDBLK
  8
0
  0
BLOCK
  8
0
  2
ANNULUSV
 70
64
 10
0.0000
 20
0.0000
 30
0.0000
  3
ANNULUSV
  0
CIRCLE
  8
0
 10
0.0000
 20
0.0000
 30
0.0000
 40
0.5000
  0
ENDBLK
  8
0
  0
BLOCK
  8
0
  2
THERMALV
 70
64
 10
0.0000
 20
0.0000
 30
0.0000
  3
THERMALV
  0
LINE
  8
0
 10
-0.2379
 20
0.4500
 30
0.0000
 11
0.2379
 21
0.4500
 31
0.0000
  0
LINE
  8
0
 10
0.4500
 20
0.2379
 30
0.0000
 11
0.4500
 21
-0.2379
 31
0.0000
  0
LINE
  8
0
 10
0.2379
 20
-0.4500
 30
0.0000
 11
-0.2379
 21
-0.4500
 31
0.0000
  0
LINE
  8
0
 10
-0.4500
 20
-0.2379
 30
0.0000
 11
-0.4500
 21
0.2379
 31
0.0000
  0
ENDBLK
  8
0
  0
ENDSEC
  0
SECTION
  2
ENTITIES
  0
LINE
  8
20
 10
105.0000
 20
158.5000
 30
0.0000
 11
0.0000
 21
158.5000
 31
0.0000
  0
LINE
  8
20
 10
0.0000
 20
158.5000
 30
0.0000
 11
0.0000
 21
23.5000
 31
0.0000
  0
LINE
  8
20
 10
105.0000
 20
158.5000
 30
0.0000
 11
105.0000
 21
23.5000
 31
0.0000
  0
LINE
  8
20
 10
0.0000
 20
23.5000
 30
0.0000
 11
105.0000
 21
23.5000
 31
0.0000
  0
LINE
  8
20
 10
0.0000
 20
0.0000
 30
0.0000
 11
4.4500
 21
0.0000
 31
0.0000
  0
LINE
  8
20
 10
4.4500
 20
0.0000
 30
0.0000
 11
7.6500
 21
0.0000
 31
0.0000
  0
LINE
  8
20
 10
7.6500
 20
0.0000
 30
0.0000
 11
40.0000
 21
0.0000
 31
0.0000
  0
LINE
  8
20
 10
0.0000
 20
1.5000
 30
0.0000
 11
4.4500
 21
1.5000
 31
0.0000
  0
LINE
  8
20
 10
4.4500
 20
1.5000
 30
0.0000
 11
7.6500
 21
1.5000
 31
0.0000
  0
LINE
  8
20
 10
7.6500
 20
1.5000
 30
0.0000
 11
39.5000
 21
1.5000
 31
0.0000
  0
LINE
  8
20
 10
0.0000
 20
0.0000
 30
0.0000
 11
0.0000
 21
1.5000
 31
0.0000
  0
LINE
  8
20
 10
46.0000
 20
5.0000
 30
0.0000
 11
49.3000
 21
5.0000
 31
0.0000
  0
LINE
  8
20
 10
49.3000
 20
5.0000
 30
0.0000
 11
55.7000
 21
5.0000
 31
0.0000
  0
LINE
  8
20
 10
45.5000
 20
6.5000
 30
0.0000
 11
49.3000
 21
6.5000
 31
0.0000
  0
LINE
  8
20
 10
49.3000
 20
6.5000
 30
0.0000
 11
55.7000
 21
6.5000
 31
0.0000
  0
LINE
  8
20
 10
49.3000
 20
5.0000
 30
0.0000
 11
49.3000
 21
6.5000
 31
0.0000
  0
LINE
  8
20
 10
55.7000
 20
5.0000
 30
0.0000
 11
55.7000
 21
6.5000
 31
0.0000
  0
LINE
  8
20
 10
40.0000
 20
0.0000
 30
0.0000
 11
46.0000
 21
5.0000
 31
0.0000
  0
LINE
  8
20
 10
39.5000
 20
1.5000
 30
0.0000
 11
45.5000
 21
6.5000
 31
0.0000
  0
LINE
  8
20
 10
4.4500
 20
0.0000
 30
0.0000
 11
4.4500
 21
1.5000
 31
0.0000
  0
LINE
  8
20
 10
105.0000
 20
0.0000
 30
0.0000
 11
100.5500
 21
0.0000
 31
0.0000
  0
LINE
  8
20
 10
100.5500
 20
0.0000
 30
0.0000
 11
97.3500
 21
0.0000
 31
0.0000
  0
LINE
  8
20
 10
97.3500
 20
0.0000
 30
0.0000
 11
65.0000
 21
0.0000
 31
0.0000
  0
LINE
  8
20
 10
105.0000
 20
1.5000
 30
0.0000
 11
100.5500
 21
1.5000
 31
0.0000
  0
LINE
  8
20
 10
100.5500
 20
1.5000
 30
0.0000
 11
97.3500
 21
1.5000
 31
0.0000
  0
LINE
  8
20
 10
97.3500
 20
1.5000
 30
0.0000
 11
65.5000
 21
1.5000
 31
0.0000
  0
LINE
  8
20
 10
105.0000
 20
0.0000
 30
0.0000
 11
105.0000
 21
1.5000
 31
0.0000
  0
LINE
  8
20
 10
59.0000
 20
5.0000
 30
0.0000
 11
55.7000
 21
5.0000
 31
0.0000
  0
LINE
  8
20
 10
59.5000
 20
6.5000
 30
0.0000
 11
55.7000
 21
6.5000
 31
0.0000
  0
LINE
  8
20
 10
65.0000
 20
0.0000
 30
0.0000
 11
59.0000
 21
5.0000
 31
0.0000
  0
LINE
  8
20
 10
65.5000
 20
1.5000
 30
0.0000
 11
59.5000
 21
6.5000
 31
0.0000
  0
LINE
  8
20
 10
100.5500
 20
0.0000
 30
0.0000
 11
100.5500
 21
1.5000
 31
0.0000
  0
LINE
  8
20
 10
7.6500
 20
0.0000
 30
0.0000
 11
7.6500
 21
1.5000
 31
0.0000
  0
LINE
  8
20
 10
97.3500
 20
0.0000
 30
0.0000
 11
97.3500
 21
1.5000
 31
0.0000
  0
LINE
  8
47
 10
0.0762
 20
8.5762
 30
0.0000
 11
0.0762
 21
9.6609
 31
0.0000
  0
LINE
  8
47
 10
0.0762
 20
9.6609
 30
0.0000
 11
0.6185
 21
10.2032
 31
0.0000
  0
LINE
  8
47
 10
0.6185
 20
10.2032
 30
0.0000
 11
1.1609
 21
9.6609
 31
0.0000
  0
LINE
  8
47
 10
1.1609
 20
9.6609
 30
0.0000
 11
1.1609
 21
8.5762
 31
0.0000
  0
LINE
  8
47
 10
0.0762
 20
9.3897
 30
0.0000
 11
1.1609
 21
9.3897
 31
0.0000
  0
LINE
  8
47
 10
1.7134
 20
8.0339
 30
0.0000
 11
1.7134
 21
9.6609
 31
0.0000
  0
LINE
  8
47
 10
1.7134
 20
9.6609
 30
0.0000
 11
2.5269
 21
9.6609
 31
0.0000
  0
LINE
  8
47
 10
2.5269
 20
9.6609
 30
0.0000
 11
2.7980
 21
9.3897
 31
0.0000
  0
LINE
  8
47
 10
2.7980
 20
9.3897
 30
0.0000
 11
2.7980
 21
8.8474
 31
0.0000
  0
LINE
  8
47
 10
2.7980
 20
8.8474
 30
0.0000
 11
2.5269
 21
8.5762
 31
0.0000
  0
LINE
  8
47
 10
2.5269
 20
8.5762
 30
0.0000
 11
1.7134
 21
8.5762
 31
0.0000
  0
LINE
  8
47
 10
3.3505
 20
8.0339
 30
0.0000
 11
3.3505
 21
9.6609
 31
0.0000
  0
LINE
  8
47
 10
3.3505
 20
9.6609
 30
0.0000
 11
4.1640
 21
9.6609
 31
0.0000
  0
LINE
  8
47
 10
4.1640
 20
9.6609
 30
0.0000
 11
4.4352
 21
9.3897
 31
0.0000
  0
LINE
  8
47
 10
4.4352
 20
9.3897
 30
0.0000
 11
4.4352
 21
8.8474
 31
0.0000
  0
LINE
  8
47
 10
4.4352
 20
8.8474
 30
0.0000
 11
4.1640
 21
8.5762
 31
0.0000
  0
LINE
  8
47
 10
4.1640
 20
8.5762
 30
0.0000
 11
3.3505
 21
8.5762
 31
0.0000
  0
LINE
  8
47
 10
4.9877
 20
8.5762
 30
0.0000
 11
4.9877
 21
9.6609
 31
0.0000
  0
LINE
  8
47
 10
4.9877
 20
9.1185
 30
0.0000
 11
5.5300
 21
9.6609
 31
0.0000
  0
LINE
  8
47
 10
5.5300
 20
9.6609
 30
0.0000
 11
5.8012
 21
9.6609
 31
0.0000
  0
LINE
  8
47
 10
6.6231
 20
8.5762
 30
0.0000
 11
7.1655
 21
8.5762
 31
0.0000
  0
LINE
  8
47
 10
7.1655
 20
8.5762
 30
0.0000
 11
7.4366
 21
8.8474
 31
0.0000
  0
LINE
  8
47
 10
7.4366
 20
8.8474
 30
0.0000
 11
7.4366
 21
9.3897
 31
0.0000
  0
LINE
  8
47
 10
7.4366
 20
9.3897
 30
0.0000
 11
7.1655
 21
9.6609
 31
0.0000
  0
LINE
  8
47
 10
7.1655
 20
9.6609
 30
0.0000
 11
6.6231
 21
9.6609
 31
0.0000
  0
LINE
  8
47
 10
6.6231
 20
9.6609
 30
0.0000
 11
6.3520
 21
9.3897
 31
0.0000
  0
LINE
  8
47
 10
6.3520
 20
9.3897
 30
0.0000
 11
6.3520
 21
8.8474
 31
0.0000
  0
LINE
  8
47
 10
6.3520
 20
8.8474
 30
0.0000
 11
6.6231
 21
8.5762
 31
0.0000
  0
LINE
  8
47
 10
7.9891
 20
9.6609
 30
0.0000
 11
9.0738
 21
8.5762
 31
0.0000
  0
LINE
  8
47
 10
7.9891
 20
8.5762
 30
0.0000
 11
9.0738
 21
9.6609
 31
0.0000
  0
LINE
  8
47
 10
9.6263
 20
8.5762
 30
0.0000
 11
9.6263
 21
8.8474
 31
0.0000
  0
LINE
  8
47
 10
9.6263
 20
8.8474
 30
0.0000
 11
9.8974
 21
8.8474
 31
0.0000
  0
LINE
  8
47
 10
9.8974
 20
8.8474
 30
0.0000
 11
9.8974
 21
8.5762
 31
0.0000
  0
LINE
  8
47
 10
9.8974
 20
8.5762
 30
0.0000
 11
9.6263
 21
8.5762
 31
0.0000
  0
LINE
  8
47
 10
12.0820
 20
8.0339
 30
0.0000
 11
12.0820
 21
9.6609
 31
0.0000
  0
LINE
  8
47
 10
12.0820
 20
9.6609
 30
0.0000
 11
12.8955
 21
9.6609
 31
0.0000
  0
LINE
  8
47
 10
12.8955
 20
9.6609
 30
0.0000
 11
13.1667
 21
9.3897
 31
0.0000
  0
LINE
  8
47
 10
13.1667
 20
9.3897
 30
0.0000
 11
13.1667
 21
8.8474
 31
0.0000
  0
LINE
  8
47
 10
13.1667
 20
8.8474
 30
0.0000
 11
12.8955
 21
8.5762
 31
0.0000
  0
LINE
  8
47
 10
12.8955
 20
8.5762
 30
0.0000
 11
12.0820
 21
8.5762
 31
0.0000
  0
LINE
  8
47
 10
13.7192
 20
10.2032
 30
0.0000
 11
13.9903
 21
10.2032
 31
0.0000
  0
LINE
  8
47
 10
13.9903
 20
10.2032
 30
0.0000
 11
13.9903
 21
8.5762
 31
0.0000
  0
LINE
  8
47
 10
13.7192
 20
8.5762
 30
0.0000
 11
14.2615
 21
8.5762
 31
0.0000
  0
LINE
  8
47
 10
15.0818
 20
9.6609
 30
0.0000
 11
15.6241
 21
9.6609
 31
0.0000
  0
LINE
  8
47
 10
15.6241
 20
9.6609
 30
0.0000
 11
15.8953
 21
9.3897
 31
0.0000
  0
LINE
  8
47
 10
15.8953
 20
9.3897
 30
0.0000
 11
15.8953
 21
8.5762
 31
0.0000
  0
LINE
  8
47
 10
15.8953
 20
8.5762
 30
0.0000
 11
15.0818
 21
8.5762
 31
0.0000
  0
LINE
  8
47
 10
15.0818
 20
8.5762
 30
0.0000
 11
14.8106
 21
8.8474
 31
0.0000
  0
LINE
  8
47
 10
14.8106
 20
8.8474
 30
0.0000
 11
15.0818
 21
9.1185
 31
0.0000
  0
LINE
  8
47
 10
15.0818
 20
9.1185
 30
0.0000
 11
15.8953
 21
9.1185
 31
0.0000
  0
LINE
  8
47
 10
16.7189
 20
9.9320
 30
0.0000
 11
16.7189
 21
8.8474
 31
0.0000
  0
LINE
  8
47
 10
16.7189
 20
8.8474
 30
0.0000
 11
16.9901
 21
8.5762
 31
0.0000
  0
LINE
  8
47
 10
16.4478
 20
9.6609
 30
0.0000
 11
16.9901
 21
9.6609
 31
0.0000
  0
LINE
  8
47
 10
18.3527
 20
8.5762
 30
0.0000
 11
17.8104
 21
8.5762
 31
0.0000
  0
LINE
  8
47
 10
17.8104
 20
8.5762
 30
0.0000
 11
17.5392
 21
8.8474
 31
0.0000
  0
LINE
  8
47
 10
17.5392
 20
8.8474
 30
0.0000
 11
17.5392
 21
9.3897
 31
0.0000
  0
LINE
  8
47
 10
17.5392
 20
9.3897
 30
0.0000
 11
17.8104
 21
9.6609
 31
0.0000
  0
LINE
  8
47
 10
17.8104
 20
9.6609
 30
0.0000
 11
18.3527
 21
9.6609
 31
0.0000
  0
LINE
  8
47
 10
18.3527
 20
9.6609
 30
0.0000
 11
18.6239
 21
9.3897
 31
0.0000
  0
LINE
  8
47
 10
18.6239
 20
9.3897
 30
0.0000
 11
18.6239
 21
9.1185
 31
0.0000
  0
LINE
  8
47
 10
18.6239
 20
9.1185
 30
0.0000
 11
17.5392
 21
9.1185
 31
0.0000
  0
LINE
  8
47
 10
20.8135
 20
10.2032
 30
0.0000
 11
20.8135
 21
8.5762
 31
0.0000
  0
LINE
  8
47
 10
20.8135
 20
8.5762
 30
0.0000
 11
21.6270
 21
8.5762
 31
0.0000
  0
LINE
  8
47
 10
21.6270
 20
8.5762
 30
0.0000
 11
21.8982
 21
8.8474
 31
0.0000
  0
LINE
  8
47
 10
21.8982
 20
8.8474
 30
0.0000
 11
21.8982
 21
9.3897
 31
0.0000
  0
LINE
  8
47
 10
21.8982
 20
9.3897
 30
0.0000
 11
21.6270
 21
9.6609
 31
0.0000
  0
LINE
  8
47
 10
21.6270
 20
9.6609
 30
0.0000
 11
20.8135
 21
9.6609
 31
0.0000
  0
LINE
  8
47
 10
23.2642
 20
8.5762
 30
0.0000
 11
22.7218
 21
8.5762
 31
0.0000
  0
LINE
  8
47
 10
22.7218
 20
8.5762
 30
0.0000
 11
22.4507
 21
8.8474
 31
0.0000
  0
LINE
  8
47
 10
22.4507
 20
8.8474
 30
0.0000
 11
22.4507
 21
9.3897
 31
0.0000
  0
LINE
  8
47
 10
22.4507
 20
9.3897
 30
0.0000
 11
22.7218
 21
9.6609
 31
0.0000
  0
LINE
  8
47
 10
22.7218
 20
9.6609
 30
0.0000
 11
23.2642
 21
9.6609
 31
0.0000
  0
LINE
  8
47
 10
23.2642
 20
9.6609
 30
0.0000
 11
23.5353
 21
9.3897
 31
0.0000
  0
LINE
  8
47
 10
23.5353
 20
9.3897
 30
0.0000
 11
23.5353
 21
9.1185
 31
0.0000
  0
LINE
  8
47
 10
23.5353
 20
9.1185
 30
0.0000
 11
22.4507
 21
9.1185
 31
0.0000
  0
LINE
  8
47
 10
24.0878
 20
8.5762
 30
0.0000
 11
24.0878
 21
9.6609
 31
0.0000
  0
LINE
  8
47
 10
24.0878
 20
9.6609
 30
0.0000
 11
24.9013
 21
9.6609
 31
0.0000
  0
LINE
  8
47
 10
24.9013
 20
9.6609
 30
0.0000
 11
25.1725
 21
9.3897
 31
0.0000
  0
LINE
  8
47
 10
25.1725
 20
9.3897
 30
0.0000
 11
25.1725
 21
8.5762
 31
0.0000
  0
LINE
  8
47
 10
26.8096
 20
10.2032
 30
0.0000
 11
26.8096
 21
8.5762
 31
0.0000
  0
LINE
  8
47
 10
26.8096
 20
8.5762
 30
0.0000
 11
25.9961
 21
8.5762
 31
0.0000
  0
LINE
  8
47
 10
25.9961
 20
8.5762
 30
0.0000
 11
25.7250
 21
8.8474
 31
0.0000
  0
LINE
  8
47
 10
25.7250
 20
8.8474
 30
0.0000
 11
25.7250
 21
9.3897
 31
0.0000
  0
LINE
  8
47
 10
25.7250
 20
9.3897
 30
0.0000
 11
25.9961
 21
9.6609
 31
0.0000
  0
LINE
  8
47
 10
25.9961
 20
9.6609
 30
0.0000
 11
26.8096
 21
9.6609
 31
0.0000
  0
LINE
  8
47
 10
27.3621
 20
9.6609
 30
0.0000
 11
27.6333
 21
9.6609
 31
0.0000
  0
LINE
  8
47
 10
27.6333
 20
9.6609
 30
0.0000
 11
27.6333
 21
8.5762
 31
0.0000
  0
LINE
  8
47
 10
27.3621
 20
8.5762
 30
0.0000
 11
27.9045
 21
8.5762
 31
0.0000
  0
LINE
  8
47
 10
27.6333
 20
10.4744
 30
0.0000
 11
27.6333
 21
10.2032
 31
0.0000
  0
LINE
  8
47
 10
28.4536
 20
8.5762
 30
0.0000
 11
28.4536
 21
9.6609
 31
0.0000
  0
LINE
  8
47
 10
28.4536
 20
9.6609
 30
0.0000
 11
29.2671
 21
9.6609
 31
0.0000
  0
LINE
  8
47
 10
29.2671
 20
9.6609
 30
0.0000
 11
29.5382
 21
9.3897
 31
0.0000
  0
LINE
  8
47
 10
29.5382
 20
9.3897
 30
0.0000
 11
29.5382
 21
8.5762
 31
0.0000
  0
LINE
  8
47
 10
30.6331
 20
8.0339
 30
0.0000
 11
30.9042
 21
8.0339
 31
0.0000
  0
LINE
  8
47
 10
30.9042
 20
8.0339
 30
0.0000
 11
31.1754
 21
8.3050
 31
0.0000
  0
LINE
  8
47
 10
31.1754
 20
8.3050
 30
0.0000
 11
31.1754
 21
9.6609
 31
0.0000
  0
LINE
  8
47
 10
31.1754
 20
9.6609
 30
0.0000
 11
30.3619
 21
9.6609
 31
0.0000
  0
LINE
  8
47
 10
30.3619
 20
9.6609
 30
0.0000
 11
30.0907
 21
9.3897
 31
0.0000
  0
LINE
  8
47
 10
30.0907
 20
9.3897
 30
0.0000
 11
30.0907
 21
8.8474
 31
0.0000
  0
LINE
  8
47
 10
30.0907
 20
8.8474
 30
0.0000
 11
30.3619
 21
8.5762
 31
0.0000
  0
LINE
  8
47
 10
30.3619
 20
8.5762
 30
0.0000
 11
31.1754
 21
8.5762
 31
0.0000
  0
LINE
  8
47
 10
33.6362
 20
9.6609
 30
0.0000
 11
34.1785
 21
9.6609
 31
0.0000
  0
LINE
  8
47
 10
34.1785
 20
9.6609
 30
0.0000
 11
34.4497
 21
9.3897
 31
0.0000
  0
LINE
  8
47
 10
34.4497
 20
9.3897
 30
0.0000
 11
34.4497
 21
8.5762
 31
0.0000
  0
LINE
  8
47
 10
34.4497
 20
8.5762
 30
0.0000
 11
33.6362
 21
8.5762
 31
0.0000
  0
LINE
  8
47
 10
33.6362
 20
8.5762
 30
0.0000
 11
33.3650
 21
8.8474
 31
0.0000
  0
LINE
  8
47
 10
33.3650
 20
8.8474
 30
0.0000
 11
33.6362
 21
9.1185
 31
0.0000
  0
LINE
  8
47
 10
33.6362
 20
9.1185
 30
0.0000
 11
34.4497
 21
9.1185
 31
0.0000
  0
LINE
  8
47
 10
35.0022
 20
8.5762
 30
0.0000
 11
35.0022
 21
9.6609
 31
0.0000
  0
LINE
  8
47
 10
35.0022
 20
9.1185
 30
0.0000
 11
35.5445
 21
9.6609
 31
0.0000
  0
LINE
  8
47
 10
35.5445
 20
9.6609
 30
0.0000
 11
35.8157
 21
9.6609
 31
0.0000
  0
LINE
  8
47
 10
36.6377
 20
8.5762
 30
0.0000
 11
37.1800
 21
8.5762
 31
0.0000
  0
LINE
  8
47
 10
37.1800
 20
8.5762
 30
0.0000
 11
37.4512
 21
8.8474
 31
0.0000
  0
LINE
  8
47
 10
37.4512
 20
8.8474
 30
0.0000
 11
37.4512
 21
9.3897
 31
0.0000
  0
LINE
  8
47
 10
37.4512
 20
9.3897
 30
0.0000
 11
37.1800
 21
9.6609
 31
0.0000
  0
LINE
  8
47
 10
37.1800
 20
9.6609
 30
0.0000
 11
36.6377
 21
9.6609
 31
0.0000
  0
LINE
  8
47
 10
36.6377
 20
9.6609
 30
0.0000
 11
36.3665
 21
9.3897
 31
0.0000
  0
LINE
  8
47
 10
36.3665
 20
9.3897
 30
0.0000
 11
36.3665
 21
8.8474
 31
0.0000
  0
LINE
  8
47
 10
36.3665
 20
8.8474
 30
0.0000
 11
36.6377
 21
8.5762
 31
0.0000
  0
LINE
  8
47
 10
38.0037
 20
9.6609
 30
0.0000
 11
38.0037
 21
8.8474
 31
0.0000
  0
LINE
  8
47
 10
38.0037
 20
8.8474
 30
0.0000
 11
38.2748
 21
8.5762
 31
0.0000
  0
LINE
  8
47
 10
38.2748
 20
8.5762
 30
0.0000
 11
39.0883
 21
8.5762
 31
0.0000
  0
LINE
  8
47
 10
39.0883
 20
8.5762
 30
0.0000
 11
39.0883
 21
9.6609
 31
0.0000
  0
LINE
  8
47
 10
39.6408
 20
8.5762
 30
0.0000
 11
39.6408
 21
9.6609
 31
0.0000
  0
LINE
  8
47
 10
39.6408
 20
9.6609
 30
0.0000
 11
40.4543
 21
9.6609
 31
0.0000
  0
LINE
  8
47
 10
40.4543
 20
9.6609
 30
0.0000
 11
40.7255
 21
9.3897
 31
0.0000
  0
LINE
  8
47
 10
40.7255
 20
9.3897
 30
0.0000
 11
40.7255
 21
8.5762
 31
0.0000
  0
LINE
  8
47
 10
42.3626
 20
10.2032
 30
0.0000
 11
42.3626
 21
8.5762
 31
0.0000
  0
LINE
  8
47
 10
42.3626
 20
8.5762
 30
0.0000
 11
41.5491
 21
8.5762
 31
0.0000
  0
LINE
  8
47
 10
41.5491
 20
8.5762
 30
0.0000
 11
41.2780
 21
8.8474
 31
0.0000
  0
LINE
  8
47
 10
41.2780
 20
8.8474
 30
0.0000
 11
41.2780
 21
9.3897
 31
0.0000
  0
LINE
  8
47
 10
41.2780
 20
9.3897
 30
0.0000
 11
41.5491
 21
9.6609
 31
0.0000
  0
LINE
  8
47
 10
41.5491
 20
9.6609
 30
0.0000
 11
42.3626
 21
9.6609
 31
0.0000
  0
LINE
  8
47
 10
45.6369
 20
9.6609
 30
0.0000
 11
44.8234
 21
9.6609
 31
0.0000
  0
LINE
  8
47
 10
44.8234
 20
9.6609
 30
0.0000
 11
44.5523
 21
9.3897
 31
0.0000
  0
LINE
  8
47
 10
44.5523
 20
9.3897
 30
0.0000
 11
44.5523
 21
8.8474
 31
0.0000
  0
LINE
  8
47
 10
44.5523
 20
8.8474
 30
0.0000
 11
44.8234
 21
8.5762
 31
0.0000
  0
LINE
  8
47
 10
44.8234
 20
8.5762
 30
0.0000
 11
45.6369
 21
8.5762
 31
0.0000
  0
LINE
  8
47
 10
47.0029
 20
8.5762
 30
0.0000
 11
46.4606
 21
8.5762
 31
0.0000
  0
LINE
  8
47
 10
46.4606
 20
8.5762
 30
0.0000
 11
46.1894
 21
8.8474
 31
0.0000
  0
LINE
  8
47
 10
46.1894
 20
8.8474
 30
0.0000
 11
46.1894
 21
9.3897
 31
0.0000
  0
LINE
  8
47
 10
46.1894
 20
9.3897
 30
0.0000
 11
46.4606
 21
9.6609
 31
0.0000
  0
LINE
  8
47
 10
46.4606
 20
9.6609
 30
0.0000
 11
47.0029
 21
9.6609
 31
0.0000
  0
LINE
  8
47
 10
47.0029
 20
9.6609
 30
0.0000
 11
47.2741
 21
9.3897
 31
0.0000
  0
LINE
  8
47
 10
47.2741
 20
9.3897
 30
0.0000
 11
47.2741
 21
9.1185
 31
0.0000
  0
LINE
  8
47
 10
47.2741
 20
9.1185
 30
0.0000
 11
46.1894
 21
9.1185
 31
0.0000
  0
LINE
  8
47
 10
47.8266
 20
8.5762
 30
0.0000
 11
47.8266
 21
9.6609
 31
0.0000
  0
LINE
  8
47
 10
47.8266
 20
9.6609
 30
0.0000
 11
48.6401
 21
9.6609
 31
0.0000
  0
LINE
  8
47
 10
48.6401
 20
9.6609
 30
0.0000
 11
48.9113
 21
9.3897
 31
0.0000
  0
LINE
  8
47
 10
48.9113
 20
9.3897
 30
0.0000
 11
48.9113
 21
8.5762
 31
0.0000
  0
LINE
  8
47
 10
49.7349
 20
9.9320
 30
0.0000
 11
49.7349
 21
8.8474
 31
0.0000
  0
LINE
  8
47
 10
49.7349
 20
8.8474
 30
0.0000
 11
50.0061
 21
8.5762
 31
0.0000
  0
LINE
  8
47
 10
49.4637
 20
9.6609
 30
0.0000
 11
50.0061
 21
9.6609
 31
0.0000
  0
LINE
  8
47
 10
50.5552
 20
8.5762
 30
0.0000
 11
50.5552
 21
9.6609
 31
0.0000
  0
LINE
  8
47
 10
50.5552
 20
9.1185
 30
0.0000
 11
51.0975
 21
9.6609
 31
0.0000
  0
LINE
  8
47
 10
51.0975
 20
9.6609
 30
0.0000
 11
51.3687
 21
9.6609
 31
0.0000
  0
LINE
  8
47
 10
52.1906
 20
9.6609
 30
0.0000
 11
52.7330
 21
9.6609
 31
0.0000
  0
LINE
  8
47
 10
52.7330
 20
9.6609
 30
0.0000
 11
53.0041
 21
9.3897
 31
0.0000
  0
LINE
  8
47
 10
53.0041
 20
9.3897
 30
0.0000
 11
53.0041
 21
8.5762
 31
0.0000
  0
LINE
  8
47
 10
53.0041
 20
8.5762
 30
0.0000
 11
52.1906
 21
8.5762
 31
0.0000
  0
LINE
  8
47
 10
52.1906
 20
8.5762
 30
0.0000
 11
51.9195
 21
8.8474
 31
0.0000
  0
LINE
  8
47
 10
51.9195
 20
8.8474
 30
0.0000
 11
52.1906
 21
9.1185
 31
0.0000
  0
LINE
  8
47
 10
52.1906
 20
9.1185
 30
0.0000
 11
53.0041
 21
9.1185
 31
0.0000
  0
LINE
  8
47
 10
53.5566
 20
10.2032
 30
0.0000
 11
53.8278
 21
10.2032
 31
0.0000
  0
LINE
  8
47
 10
53.8278
 20
10.2032
 30
0.0000
 11
53.8278
 21
8.5762
 31
0.0000
  0
LINE
  8
47
 10
53.5566
 20
8.5762
 30
0.0000
 11
54.0990
 21
8.5762
 31
0.0000
  0
LINE
  8
47
 10
56.2852
 20
10.2032
 30
0.0000
 11
56.2852
 21
8.5762
 31
0.0000
  0
LINE
  8
47
 10
56.2852
 20
9.3897
 30
0.0000
 11
56.5564
 21
9.6609
 31
0.0000
  0
LINE
  8
47
 10
56.5564
 20
9.6609
 30
0.0000
 11
57.0987
 21
9.6609
 31
0.0000
  0
LINE
  8
47
 10
57.0987
 20
9.6609
 30
0.0000
 11
57.3699
 21
9.3897
 31
0.0000
  0
LINE
  8
47
 10
57.3699
 20
9.3897
 30
0.0000
 11
57.3699
 21
8.5762
 31
0.0000
  0
LINE
  8
47
 10
58.1936
 20
8.5762
 30
0.0000
 11
58.7359
 21
8.5762
 31
0.0000
  0
LINE
  8
47
 10
58.7359
 20
8.5762
 30
0.0000
 11
59.0070
 21
8.8474
 31
0.0000
  0
LINE
  8
47
 10
59.0070
 20
8.8474
 30
0.0000
 11
59.0070
 21
9.3897
 31
0.0000
  0
LINE
  8
47
 10
59.0070
 20
9.3897
 30
0.0000
 11
58.7359
 21
9.6609
 31
0.0000
  0
LINE
  8
47
 10
58.7359
 20
9.6609
 30
0.0000
 11
58.1936
 21
9.6609
 31
0.0000
  0
LINE
  8
47
 10
58.1936
 20
9.6609
 30
0.0000
 11
57.9224
 21
9.3897
 31
0.0000
  0
LINE
  8
47
 10
57.9224
 20
9.3897
 30
0.0000
 11
57.9224
 21
8.8474
 31
0.0000
  0
LINE
  8
47
 10
57.9224
 20
8.8474
 30
0.0000
 11
58.1936
 21
8.5762
 31
0.0000
  0
LINE
  8
47
 10
59.5595
 20
10.2032
 30
0.0000
 11
59.8307
 21
10.2032
 31
0.0000
  0
LINE
  8
47
 10
59.8307
 20
10.2032
 30
0.0000
 11
59.8307
 21
8.5762
 31
0.0000
  0
LINE
  8
47
 10
59.5595
 20
8.5762
 30
0.0000
 11
60.1019
 21
8.5762
 31
0.0000
  0
LINE
  8
47
 10
61.4645
 20
8.5762
 30
0.0000
 11
60.9221
 21
8.5762
 31
0.0000
  0
LINE
  8
47
 10
60.9221
 20
8.5762
 30
0.0000
 11
60.6510
 21
8.8474
 31
0.0000
  0
LINE
  8
47
 10
60.6510
 20
8.8474
 30
0.0000
 11
60.6510
 21
9.3897
 31
0.0000
  0
LINE
  8
47
 10
60.6510
 20
9.3897
 30
0.0000
 11
60.9221
 21
9.6609
 31
0.0000
  0
LINE
  8
47
 10
60.9221
 20
9.6609
 30
0.0000
 11
61.4645
 21
9.6609
 31
0.0000
  0
LINE
  8
47
 10
61.4645
 20
9.6609
 30
0.0000
 11
61.7356
 21
9.3897
 31
0.0000
  0
LINE
  8
47
 10
61.7356
 20
9.3897
 30
0.0000
 11
61.7356
 21
9.1185
 31
0.0000
  0
LINE
  8
47
 10
61.7356
 20
9.1185
 30
0.0000
 11
60.6510
 21
9.1185
 31
0.0000
  0
LINE
  8
47
 10
0.1016
 20
169.6016
 30
0.0000
 11
0.1016
 21
171.9004
 31
0.0000
  0
LINE
  8
47
 10
0.1016
 20
171.9004
 30
0.0000
 11
0.8679
 21
171.1341
 31
0.0000
  0
LINE
  8
47
 10
0.8679
 20
171.1341
 30
0.0000
 11
1.6341
 21
171.9004
 31
0.0000
  0
LINE
  8
47
 10
1.6341
 20
171.9004
 30
0.0000
 11
1.6341
 21
169.6016
 31
0.0000
  0
LINE
  8
47
 10
2.7867
 20
171.1341
 30
0.0000
 11
3.5529
 21
171.1341
 31
0.0000
  0
LINE
  8
47
 10
3.5529
 20
171.1341
 30
0.0000
 11
3.9361
 21
170.7510
 31
0.0000
  0
LINE
  8
47
 10
3.9361
 20
170.7510
 30
0.0000
 11
3.9361
 21
169.6016
 31
0.0000
  0
LINE
  8
47
 10
3.9361
 20
169.6016
 30
0.0000
 11
2.7867
 21
169.6016
 31
0.0000
  0
LINE
  8
47
 10
2.7867
 20
169.6016
 30
0.0000
 11
2.4036
 21
169.9847
 31
0.0000
  0
LINE
  8
47
 10
2.4036
 20
169.9847
 30
0.0000
 11
2.7867
 21
170.3679
 31
0.0000
  0
LINE
  8
47
 10
2.7867
 20
170.3679
 30
0.0000
 11
3.9361
 21
170.3679
 31
0.0000
  0
LINE
  8
47
 10
4.7055
 20
171.1341
 30
0.0000
 11
5.0887
 21
171.1341
 31
0.0000
  0
LINE
  8
47
 10
5.0887
 20
171.1341
 30
0.0000
 11
5.0887
 21
169.6016
 31
0.0000
  0
LINE
  8
47
 10
4.7055
 20
169.6016
 30
0.0000
 11
5.4718
 21
169.6016
 31
0.0000
  0
LINE
  8
47
 10
5.0887
 20
172.2835
 30
0.0000
 11
5.0887
 21
171.9004
 31
0.0000
  0
LINE
  8
47
 10
6.2402
 20
169.6016
 30
0.0000
 11
6.2402
 21
171.1341
 31
0.0000
  0
LINE
  8
47
 10
6.2402
 20
171.1341
 30
0.0000
 11
7.3896
 21
171.1341
 31
0.0000
  0
LINE
  8
47
 10
7.3896
 20
171.1341
 30
0.0000
 11
7.7727
 21
170.7510
 31
0.0000
  0
LINE
  8
47
 10
7.7727
 20
170.7510
 30
0.0000
 11
7.7727
 21
169.6016
 31
0.0000
  0
LINE
  8
47
 10
8.5421
 20
169.6016
 30
0.0000
 11
9.6915
 21
169.6016
 31
0.0000
  0
LINE
  8
47
 10
9.6915
 20
169.6016
 30
0.0000
 11
10.0747
 21
169.9847
 31
0.0000
  0
LINE
  8
47
 10
10.0747
 20
169.9847
 30
0.0000
 11
9.6915
 21
170.3679
 31
0.0000
  0
LINE
  8
47
 10
9.6915
 20
170.3679
 30
0.0000
 11
8.9253
 21
170.3679
 31
0.0000
  0
LINE
  8
47
 10
8.9253
 20
170.3679
 30
0.0000
 11
8.5421
 21
170.7510
 31
0.0000
  0
LINE
  8
47
 10
8.5421
 20
170.7510
 30
0.0000
 11
8.9253
 21
171.1341
 31
0.0000
  0
LINE
  8
47
 10
8.9253
 20
171.1341
 30
0.0000
 11
10.0747
 21
171.1341
 31
0.0000
  0
LINE
  8
47
 10
13.5292
 20
171.5172
 30
0.0000
 11
13.5292
 21
169.9847
 31
0.0000
  0
LINE
  8
47
 10
13.5292
 20
169.9847
 30
0.0000
 11
13.9123
 21
169.6016
 31
0.0000
  0
LINE
  8
47
 10
13.1461
 20
171.1341
 30
0.0000
 11
13.9123
 21
171.1341
 31
0.0000
  0
LINE
  8
47
 10
14.6807
 20
169.6016
 30
0.0000
 11
14.6807
 21
171.1341
 31
0.0000
  0
LINE
  8
47
 10
14.6807
 20
170.3679
 30
0.0000
 11
15.4470
 21
171.1341
 31
0.0000
  0
LINE
  8
47
 10
15.4470
 20
171.1341
 30
0.0000
 11
15.8301
 21
171.1341
 31
0.0000
  0
LINE
  8
47
 10
16.9821
 20
171.1341
 30
0.0000
 11
17.7484
 21
171.1341
 31
0.0000
  0
LINE
  8
47
 10
17.7484
 20
171.1341
 30
0.0000
 11
18.1315
 21
170.7510
 31
0.0000
  0
LINE
  8
47
 10
18.1315
 20
170.7510
 30
0.0000
 11
18.1315
 21
169.6016
 31
0.0000
  0
LINE
  8
47
 10
18.1315
 20
169.6016
 30
0.0000
 11
16.9821
 21
169.6016
 31
0.0000
  0
LINE
  8
47
 10
16.9821
 20
169.6016
 30
0.0000
 11
16.5990
 21
169.9847
 31
0.0000
  0
LINE
  8
47
 10
16.5990
 20
169.9847
 30
0.0000
 11
16.9821
 21
170.3679
 31
0.0000
  0
LINE
  8
47
 10
16.9821
 20
170.3679
 30
0.0000
 11
18.1315
 21
170.3679
 31
0.0000
  0
LINE
  8
47
 10
18.9010
 20
169.6016
 30
0.0000
 11
18.9010
 21
171.1341
 31
0.0000
  0
LINE
  8
47
 10
18.9010
 20
171.1341
 30
0.0000
 11
20.0504
 21
171.1341
 31
0.0000
  0
LINE
  8
47
 10
20.0504
 20
171.1341
 30
0.0000
 11
20.4335
 21
170.7510
 31
0.0000
  0
LINE
  8
47
 10
20.4335
 20
170.7510
 30
0.0000
 11
20.4335
 21
169.6016
 31
0.0000
  0
LINE
  8
47
 10
21.2030
 20
169.6016
 30
0.0000
 11
22.3523
 21
169.6016
 31
0.0000
  0
LINE
  8
47
 10
22.3523
 20
169.6016
 30
0.0000
 11
22.7355
 21
169.9847
 31
0.0000
  0
LINE
  8
47
 10
22.7355
 20
169.9847
 30
0.0000
 11
22.3523
 21
170.3679
 31
0.0000
  0
LINE
  8
47
 10
22.3523
 20
170.3679
 30
0.0000
 11
21.5861
 21
170.3679
 31
0.0000
  0
LINE
  8
47
 10
21.5861
 20
170.3679
 30
0.0000
 11
21.2030
 21
170.7510
 31
0.0000
  0
LINE
  8
47
 10
21.2030
 20
170.7510
 30
0.0000
 11
21.5861
 21
171.1341
 31
0.0000
  0
LINE
  8
47
 10
21.5861
 20
171.1341
 30
0.0000
 11
22.7355
 21
171.1341
 31
0.0000
  0
LINE
  8
47
 10
23.8880
 20
169.6016
 30
0.0000
 11
23.8880
 21
171.5172
 31
0.0000
  0
LINE
  8
47
 10
23.8880
 20
171.5172
 30
0.0000
 11
24.2712
 21
171.9004
 31
0.0000
  0
LINE
  8
47
 10
23.5049
 20
170.7510
 30
0.0000
 11
24.2712
 21
170.7510
 31
0.0000
  0
LINE
  8
47
 10
25.4227
 20
169.6016
 30
0.0000
 11
26.1889
 21
169.6016
 31
0.0000
  0
LINE
  8
47
 10
26.1889
 20
169.6016
 30
0.0000
 11
26.5721
 21
169.9847
 31
0.0000
  0
LINE
  8
47
 10
26.5721
 20
169.9847
 30
0.0000
 11
26.5721
 21
170.7510
 31
0.0000
  0
LINE
  8
47
 10
26.5721
 20
170.7510
 30
0.0000
 11
26.1889
 21
171.1341
 31
0.0000
  0
LINE
  8
47
 10
26.1889
 20
171.1341
 30
0.0000
 11
25.4227
 21
171.1341
 31
0.0000
  0
LINE
  8
47
 10
25.4227
 20
171.1341
 30
0.0000
 11
25.0396
 21
170.7510
 31
0.0000
  0
LINE
  8
47
 10
25.0396
 20
170.7510
 30
0.0000
 11
25.0396
 21
169.9847
 31
0.0000
  0
LINE
  8
47
 10
25.0396
 20
169.9847
 30
0.0000
 11
25.4227
 21
169.6016
 31
0.0000
  0
LINE
  8
47
 10
27.3415
 20
169.6016
 30
0.0000
 11
27.3415
 21
171.1341
 31
0.0000
  0
LINE
  8
47
 10
27.3415
 20
170.3679
 30
0.0000
 11
28.1078
 21
171.1341
 31
0.0000
  0
LINE
  8
47
 10
28.1078
 20
171.1341
 30
0.0000
 11
28.4909
 21
171.1341
 31
0.0000
  0
LINE
  8
47
 10
29.2598
 20
169.6016
 30
0.0000
 11
29.2598
 21
171.1341
 31
0.0000
  0
LINE
  8
47
 10
29.2598
 20
171.1341
 30
0.0000
 11
29.6430
 21
171.1341
 31
0.0000
  0
LINE
  8
47
 10
29.6430
 20
171.1341
 30
0.0000
 11
30.0261
 21
170.7510
 31
0.0000
  0
LINE
  8
47
 10
30.0261
 20
170.7510
 30
0.0000
 11
30.0261
 21
169.6016
 31
0.0000
  0
LINE
  8
47
 10
30.0261
 20
170.7510
 30
0.0000
 11
30.4092
 21
171.1341
 31
0.0000
  0
LINE
  8
47
 10
30.4092
 20
171.1341
 30
0.0000
 11
30.7923
 21
170.7510
 31
0.0000
  0
LINE
  8
47
 10
30.7923
 20
170.7510
 30
0.0000
 11
30.7923
 21
169.6016
 31
0.0000
  0
LINE
  8
47
 10
32.7112
 20
169.6016
 30
0.0000
 11
31.9449
 21
169.6016
 31
0.0000
  0
LINE
  8
47
 10
31.9449
 20
169.6016
 30
0.0000
 11
31.5618
 21
169.9847
 31
0.0000
  0
LINE
  8
47
 10
31.5618
 20
169.9847
 30
0.0000
 11
31.5618
 21
170.7510
 31
0.0000
  0
LINE
  8
47
 10
31.5618
 20
170.7510
 30
0.0000
 11
31.9449
 21
171.1341
 31
0.0000
  0
LINE
  8
47
 10
31.9449
 20
171.1341
 30
0.0000
 11
32.7112
 21
171.1341
 31
0.0000
  0
LINE
  8
47
 10
32.7112
 20
171.1341
 30
0.0000
 11
33.0943
 21
170.7510
 31
0.0000
  0
LINE
  8
47
 10
33.0943
 20
170.7510
 30
0.0000
 11
33.0943
 21
170.3679
 31
0.0000
  0
LINE
  8
47
 10
33.0943
 20
170.3679
 30
0.0000
 11
31.5618
 21
170.3679
 31
0.0000
  0
LINE
  8
47
 10
33.8638
 20
169.6016
 30
0.0000
 11
33.8638
 21
171.1341
 31
0.0000
  0
LINE
  8
47
 10
33.8638
 20
170.3679
 30
0.0000
 11
34.6300
 21
171.1341
 31
0.0000
  0
LINE
  8
47
 10
34.6300
 20
171.1341
 30
0.0000
 11
35.0131
 21
171.1341
 31
0.0000
  0
LINE
  8
47
 10
38.0840
 20
171.9004
 30
0.0000
 11
38.0840
 21
169.6016
 31
0.0000
  0
LINE
  8
47
 10
38.0840
 20
169.6016
 30
0.0000
 11
39.2334
 21
169.6016
 31
0.0000
  0
LINE
  8
47
 10
39.2334
 20
169.6016
 30
0.0000
 11
39.6165
 21
169.9847
 31
0.0000
  0
LINE
  8
47
 10
39.6165
 20
169.9847
 30
0.0000
 11
39.6165
 21
170.7510
 31
0.0000
  0
LINE
  8
47
 10
39.6165
 20
170.7510
 30
0.0000
 11
39.2334
 21
171.1341
 31
0.0000
  0
LINE
  8
47
 10
39.2334
 20
171.1341
 30
0.0000
 11
38.0840
 21
171.1341
 31
0.0000
  0
LINE
  8
47
 10
40.7691
 20
171.1341
 30
0.0000
 11
41.5354
 21
171.1341
 31
0.0000
  0
LINE
  8
47
 10
41.5354
 20
171.1341
 30
0.0000
 11
41.9185
 21
170.7510
 31
0.0000
  0
LINE
  8
47
 10
41.9185
 20
170.7510
 30
0.0000
 11
41.9185
 21
169.6016
 31
0.0000
  0
LINE
  8
47
 10
41.9185
 20
169.6016
 30
0.0000
 11
40.7691
 21
169.6016
 31
0.0000
  0
LINE
  8
47
 10
40.7691
 20
169.6016
 30
0.0000
 11
40.3860
 21
169.9847
 31
0.0000
  0
LINE
  8
47
 10
40.3860
 20
169.9847
 30
0.0000
 11
40.7691
 21
170.3679
 31
0.0000
  0
LINE
  8
47
 10
40.7691
 20
170.3679
 30
0.0000
 11
41.9185
 21
170.3679
 31
0.0000
  0
LINE
  8
47
 10
42.6880
 20
169.6016
 30
0.0000
 11
43.8373
 21
169.6016
 31
0.0000
  0
LINE
  8
47
 10
43.8373
 20
169.6016
 30
0.0000
 11
44.2205
 21
169.9847
 31
0.0000
  0
LINE
  8
47
 10
44.2205
 20
169.9847
 30
0.0000
 11
43.8373
 21
170.3679
 31
0.0000
  0
LINE
  8
47
 10
43.8373
 20
170.3679
 30
0.0000
 11
43.0711
 21
170.3679
 31
0.0000
  0
LINE
  8
47
 10
43.0711
 20
170.3679
 30
0.0000
 11
42.6880
 21
170.7510
 31
0.0000
  0
LINE
  8
47
 10
42.6880
 20
170.7510
 30
0.0000
 11
43.0711
 21
171.1341
 31
0.0000
  0
LINE
  8
47
 10
43.0711
 20
171.1341
 30
0.0000
 11
44.2205
 21
171.1341
 31
0.0000
  0
LINE
  8
47
 10
46.1393
 20
169.6016
 30
0.0000
 11
45.3730
 21
169.6016
 31
0.0000
  0
LINE
  8
47
 10
45.3730
 20
169.6016
 30
0.0000
 11
44.9899
 21
169.9847
 31
0.0000
  0
LINE
  8
47
 10
44.9899
 20
169.9847
 30
0.0000
 11
44.9899
 21
170.7510
 31
0.0000
  0
LINE
  8
47
 10
44.9899
 20
170.7510
 30
0.0000
 11
45.3730
 21
171.1341
 31
0.0000
  0
LINE
  8
47
 10
45.3730
 20
171.1341
 30
0.0000
 11
46.1393
 21
171.1341
 31
0.0000
  0
LINE
  8
47
 10
46.1393
 20
171.1341
 30
0.0000
 11
46.5224
 21
170.7510
 31
0.0000
  0
LINE
  8
47
 10
46.5224
 20
170.7510
 30
0.0000
 11
46.5224
 21
170.3679
 31
0.0000
  0
LINE
  8
47
 10
46.5224
 20
170.3679
 30
0.0000
 11
44.9899
 21
170.3679
 31
0.0000
  0
LINE
  8
47
 10
49.9770
 20
169.6016
 30
0.0000
 11
50.7432
 21
169.6016
 31
0.0000
  0
LINE
  8
47
 10
50.7432
 20
169.6016
 30
0.0000
 11
51.1264
 21
169.9847
 31
0.0000
  0
LINE
  8
47
 10
51.1264
 20
169.9847
 30
0.0000
 11
51.1264
 21
170.7510
 31
0.0000
  0
LINE
  8
47
 10
51.1264
 20
170.7510
 30
0.0000
 11
50.7432
 21
171.1341
 31
0.0000
  0
LINE
  8
47
 10
50.7432
 20
171.1341
 30
0.0000
 11
49.9770
 21
171.1341
 31
0.0000
  0
LINE
  8
47
 10
49.9770
 20
171.1341
 30
0.0000
 11
49.5939
 21
170.7510
 31
0.0000
  0
LINE
  8
47
 10
49.5939
 20
170.7510
 30
0.0000
 11
49.5939
 21
169.9847
 31
0.0000
  0
LINE
  8
47
 10
49.5939
 20
169.9847
 30
0.0000
 11
49.9770
 21
169.6016
 31
0.0000
  0
LINE
  8
47
 10
51.8958
 20
168.8353
 30
0.0000
 11
51.8958
 21
171.1341
 31
0.0000
  0
LINE
  8
47
 10
51.8958
 20
171.1341
 30
0.0000
 11
53.0452
 21
171.1341
 31
0.0000
  0
LINE
  8
47
 10
53.0452
 20
171.1341
 30
0.0000
 11
53.4283
 21
170.7510
 31
0.0000
  0
LINE
  8
47
 10
53.4283
 20
170.7510
 30
0.0000
 11
53.4283
 21
169.9847
 31
0.0000
  0
LINE
  8
47
 10
53.4283
 20
169.9847
 30
0.0000
 11
53.0452
 21
169.6016
 31
0.0000
  0
LINE
  8
47
 10
53.0452
 20
169.6016
 30
0.0000
 11
51.8958
 21
169.6016
 31
0.0000
  0
LINE
  8
47
 10
54.5809
 20
171.5172
 30
0.0000
 11
54.5809
 21
169.9847
 31
0.0000
  0
LINE
  8
47
 10
54.5809
 20
169.9847
 30
0.0000
 11
54.9640
 21
169.6016
 31
0.0000
  0
LINE
  8
47
 10
54.1978
 20
171.1341
 30
0.0000
 11
54.9640
 21
171.1341
 31
0.0000
  0
LINE
  8
47
 10
55.7324
 20
171.1341
 30
0.0000
 11
56.1156
 21
171.1341
 31
0.0000
  0
LINE
  8
47
 10
56.1156
 20
171.1341
 30
0.0000
 11
56.1156
 21
169.6016
 31
0.0000
  0
LINE
  8
47
 10
55.7324
 20
169.6016
 30
0.0000
 11
56.4987
 21
169.6016
 31
0.0000
  0
LINE
  8
47
 10
56.1156
 20
172.2835
 30
0.0000
 11
56.1156
 21
171.9004
 31
0.0000
  0
LINE
  8
47
 10
57.6502
 20
169.6016
 30
0.0000
 11
58.4165
 21
169.6016
 31
0.0000
  0
LINE
  8
47
 10
58.4165
 20
169.6016
 30
0.0000
 11
58.7996
 21
169.9847
 31
0.0000
  0
LINE
  8
47
 10
58.7996
 20
169.9847
 30
0.0000
 11
58.7996
 21
170.7510
 31
0.0000
  0
LINE
  8
47
 10
58.7996
 20
170.7510
 30
0.0000
 11
58.4165
 21
171.1341
 31
0.0000
  0
LINE
  8
47
 10
58.4165
 20
171.1341
 30
0.0000
 11
57.6502
 21
171.1341
 31
0.0000
  0
LINE
  8
47
 10
57.6502
 20
171.1341
 30
0.0000
 11
57.2671
 21
170.7510
 31
0.0000
  0
LINE
  8
47
 10
57.2671
 20
170.7510
 30
0.0000
 11
57.2671
 21
169.9847
 31
0.0000
  0
LINE
  8
47
 10
57.2671
 20
169.9847
 30
0.0000
 11
57.6502
 21
169.6016
 31
0.0000
  0
LINE
  8
47
 10
59.5690
 20
169.6016
 30
0.0000
 11
59.5690
 21
171.1341
 31
0.0000
  0
LINE
  8
47
 10
59.5690
 20
171.1341
 30
0.0000
 11
60.7184
 21
171.1341
 31
0.0000
  0
LINE
  8
47
 10
60.7184
 20
171.1341
 30
0.0000
 11
61.1016
 21
170.7510
 31
0.0000
  0
LINE
  8
47
 10
61.1016
 20
170.7510
 30
0.0000
 11
61.1016
 21
169.6016
 31
0.0000
  0
LINE
  8
47
 10
64.9392
 20
169.6016
 30
0.0000
 11
64.1730
 21
170.3679
 31
0.0000
  0
LINE
  8
47
 10
64.1730
 20
170.3679
 30
0.0000
 11
64.1730
 21
171.1341
 31
0.0000
  0
LINE
  8
47
 10
64.1730
 20
171.1341
 30
0.0000
 11
64.9392
 21
171.9004
 31
0.0000
  0
LINE
  8
47
 10
65.7076
 20
171.1341
 30
0.0000
 11
66.0907
 21
171.1341
 31
0.0000
  0
LINE
  8
47
 10
66.0907
 20
171.1341
 30
0.0000
 11
66.0907
 21
169.6016
 31
0.0000
  0
LINE
  8
47
 10
65.7076
 20
169.6016
 30
0.0000
 11
66.4739
 21
169.6016
 31
0.0000
  0
LINE
  8
47
 10
66.0907
 20
172.2835
 30
0.0000
 11
66.0907
 21
171.9004
 31
0.0000
  0
LINE
  8
47
 10
67.6254
 20
169.6016
 30
0.0000
 11
67.6254
 21
171.5172
 31
0.0000
  0
LINE
  8
47
 10
67.6254
 20
171.5172
 30
0.0000
 11
68.0085
 21
171.9004
 31
0.0000
  0
LINE
  8
47
 10
67.2423
 20
170.7510
 30
0.0000
 11
68.0085
 21
170.7510
 31
0.0000
  0
LINE
  8
47
 10
71.0789
 20
169.6016
 30
0.0000
 11
71.0789
 21
171.9004
 31
0.0000
  0
LINE
  8
47
 10
71.0789
 20
171.9004
 30
0.0000
 11
72.2283
 21
171.9004
 31
0.0000
  0
LINE
  8
47
 10
72.2283
 20
171.9004
 30
0.0000
 11
72.6114
 21
171.5172
 31
0.0000
  0
LINE
  8
47
 10
72.6114
 20
171.5172
 30
0.0000
 11
72.6114
 21
170.7510
 31
0.0000
  0
LINE
  8
47
 10
72.6114
 20
170.7510
 30
0.0000
 11
72.2283
 21
170.3679
 31
0.0000
  0
LINE
  8
47
 10
72.2283
 20
170.3679
 30
0.0000
 11
71.0789
 21
170.3679
 31
0.0000
  0
LINE
  8
47
 10
73.7640
 20
169.6016
 30
0.0000
 11
74.5302
 21
169.6016
 31
0.0000
  0
LINE
  8
47
 10
74.5302
 20
169.6016
 30
0.0000
 11
74.9133
 21
169.9847
 31
0.0000
  0
LINE
  8
47
 10
74.9133
 20
169.9847
 30
0.0000
 11
74.9133
 21
170.7510
 31
0.0000
  0
LINE
  8
47
 10
74.9133
 20
170.7510
 30
0.0000
 11
74.5302
 21
171.1341
 31
0.0000
  0
LINE
  8
47
 10
74.5302
 20
171.1341
 30
0.0000
 11
73.7640
 21
171.1341
 31
0.0000
  0
LINE
  8
47
 10
73.7640
 20
171.1341
 30
0.0000
 11
73.3808
 21
170.7510
 31
0.0000
  0
LINE
  8
47
 10
73.3808
 20
170.7510
 30
0.0000
 11
73.3808
 21
169.9847
 31
0.0000
  0
LINE
  8
47
 10
73.3808
 20
169.9847
 30
0.0000
 11
73.7640
 21
169.6016
 31
0.0000
  0
LINE
  8
47
 10
75.6828
 20
171.1341
 30
0.0000
 11
75.6828
 21
169.9847
 31
0.0000
  0
LINE
  8
47
 10
75.6828
 20
169.9847
 30
0.0000
 11
76.0659
 21
169.6016
 31
0.0000
  0
LINE
  8
47
 10
76.0659
 20
169.6016
 30
0.0000
 11
76.4491
 21
169.9847
 31
0.0000
  0
LINE
  8
47
 10
76.4491
 20
169.9847
 30
0.0000
 11
76.8322
 21
169.6016
 31
0.0000
  0
LINE
  8
47
 10
76.8322
 20
169.6016
 30
0.0000
 11
77.2153
 21
169.9847
 31
0.0000
  0
LINE
  8
47
 10
77.2153
 20
169.9847
 30
0.0000
 11
77.2153
 21
171.1341
 31
0.0000
  0
LINE
  8
47
 10
79.1341
 20
169.6016
 30
0.0000
 11
78.3679
 21
169.6016
 31
0.0000
  0
LINE
  8
47
 10
78.3679
 20
169.6016
 30
0.0000
 11
77.9848
 21
169.9847
 31
0.0000
  0
LINE
  8
47
 10
77.9848
 20
169.9847
 30
0.0000
 11
77.9848
 21
170.7510
 31
0.0000
  0
LINE
  8
47
 10
77.9848
 20
170.7510
 30
0.0000
 11
78.3679
 21
171.1341
 31
0.0000
  0
LINE
  8
47
 10
78.3679
 20
171.1341
 30
0.0000
 11
79.1341
 21
171.1341
 31
0.0000
  0
LINE
  8
47
 10
79.1341
 20
171.1341
 30
0.0000
 11
79.5173
 21
170.7510
 31
0.0000
  0
LINE
  8
47
 10
79.5173
 20
170.7510
 30
0.0000
 11
79.5173
 21
170.3679
 31
0.0000
  0
LINE
  8
47
 10
79.5173
 20
170.3679
 30
0.0000
 11
77.9848
 21
170.3679
 31
0.0000
  0
LINE
  8
47
 10
80.2867
 20
169.6016
 30
0.0000
 11
80.2867
 21
171.1341
 31
0.0000
  0
LINE
  8
47
 10
80.2867
 20
170.3679
 30
0.0000
 11
81.0530
 21
171.1341
 31
0.0000
  0
LINE
  8
47
 10
81.0530
 20
171.1341
 30
0.0000
 11
81.4361
 21
171.1341
 31
0.0000
  0
LINE
  8
47
 10
84.5070
 20
171.9004
 30
0.0000
 11
84.5070
 21
169.6016
 31
0.0000
  0
LINE
  8
47
 10
84.5070
 20
169.6016
 30
0.0000
 11
85.6564
 21
169.6016
 31
0.0000
  0
LINE
  8
47
 10
85.6564
 20
169.6016
 30
0.0000
 11
86.0395
 21
169.9847
 31
0.0000
  0
LINE
  8
47
 10
86.0395
 20
169.9847
 30
0.0000
 11
86.0395
 21
170.7510
 31
0.0000
  0
LINE
  8
47
 10
86.0395
 20
170.7510
 30
0.0000
 11
85.6564
 21
171.1341
 31
0.0000
  0
LINE
  8
47
 10
85.6564
 20
171.1341
 30
0.0000
 11
84.5070
 21
171.1341
 31
0.0000
  0
LINE
  8
47
 10
87.1921
 20
169.6016
 30
0.0000
 11
87.9583
 21
169.6016
 31
0.0000
  0
LINE
  8
47
 10
87.9583
 20
169.6016
 30
0.0000
 11
88.3415
 21
169.9847
 31
0.0000
  0
LINE
  8
47
 10
88.3415
 20
169.9847
 30
0.0000
 11
88.3415
 21
170.7510
 31
0.0000
  0
LINE
  8
47
 10
88.3415
 20
170.7510
 30
0.0000
 11
87.9583
 21
171.1341
 31
0.0000
  0
LINE
  8
47
 10
87.9583
 20
171.1341
 30
0.0000
 11
87.1921
 21
171.1341
 31
0.0000
  0
LINE
  8
47
 10
87.1921
 20
171.1341
 30
0.0000
 11
86.8090
 21
170.7510
 31
0.0000
  0
LINE
  8
47
 10
86.8090
 20
170.7510
 30
0.0000
 11
86.8090
 21
169.9847
 31
0.0000
  0
LINE
  8
47
 10
86.8090
 20
169.9847
 30
0.0000
 11
87.1921
 21
169.6016
 31
0.0000
  0
LINE
  8
47
 10
89.4941
 20
171.1341
 30
0.0000
 11
90.2603
 21
171.1341
 31
0.0000
  0
LINE
  8
47
 10
90.2603
 20
171.1341
 30
0.0000
 11
90.6434
 21
170.7510
 31
0.0000
  0
LINE
  8
47
 10
90.6434
 20
170.7510
 30
0.0000
 11
90.6434
 21
169.6016
 31
0.0000
  0
LINE
  8
47
 10
90.6434
 20
169.6016
 30
0.0000
 11
89.4941
 21
169.6016
 31
0.0000
  0
LINE
  8
47
 10
89.4941
 20
169.6016
 30
0.0000
 11
89.1109
 21
169.9847
 31
0.0000
  0
LINE
  8
47
 10
89.1109
 20
169.9847
 30
0.0000
 11
89.4941
 21
170.3679
 31
0.0000
  0
LINE
  8
47
 10
89.4941
 20
170.3679
 30
0.0000
 11
90.6434
 21
170.3679
 31
0.0000
  0
LINE
  8
47
 10
91.4129
 20
169.6016
 30
0.0000
 11
91.4129
 21
171.1341
 31
0.0000
  0
LINE
  8
47
 10
91.4129
 20
170.3679
 30
0.0000
 11
92.1792
 21
171.1341
 31
0.0000
  0
LINE
  8
47
 10
92.1792
 20
171.1341
 30
0.0000
 11
92.5623
 21
171.1341
 31
0.0000
  0
LINE
  8
47
 10
94.8637
 20
171.9004
 30
0.0000
 11
94.8637
 21
169.6016
 31
0.0000
  0
LINE
  8
47
 10
94.8637
 20
169.6016
 30
0.0000
 11
93.7143
 21
169.6016
 31
0.0000
  0
LINE
  8
47
 10
93.7143
 20
169.6016
 30
0.0000
 11
93.3312
 21
169.9847
 31
0.0000
  0
LINE
  8
47
 10
93.3312
 20
169.9847
 30
0.0000
 11
93.3312
 21
170.7510
 31
0.0000
  0
LINE
  8
47
 10
93.3312
 20
170.7510
 30
0.0000
 11
93.7143
 21
171.1341
 31
0.0000
  0
LINE
  8
47
 10
93.7143
 20
171.1341
 30
0.0000
 11
94.8637
 21
171.1341
 31
0.0000
  0
LINE
  8
47
 10
95.6332
 20
169.6016
 30
0.0000
 11
96.7825
 21
169.6016
 31
0.0000
  0
LINE
  8
47
 10
96.7825
 20
169.6016
 30
0.0000
 11
97.1657
 21
169.9847
 31
0.0000
  0
LINE
  8
47
 10
97.1657
 20
169.9847
 30
0.0000
 11
96.7825
 21
170.3679
 31
0.0000
  0
LINE
  8
47
 10
96.7825
 20
170.3679
 30
0.0000
 11
96.0163
 21
170.3679
 31
0.0000
  0
LINE
  8
47
 10
96.0163
 20
170.3679
 30
0.0000
 11
95.6332
 21
170.7510
 31
0.0000
  0
LINE
  8
47
 10
95.6332
 20
170.7510
 30
0.0000
 11
96.0163
 21
171.1341
 31
0.0000
  0
LINE
  8
47
 10
96.0163
 20
171.1341
 30
0.0000
 11
97.1657
 21
171.1341
 31
0.0000
  0
LINE
  8
47
 10
100.2371
 20
171.1341
 30
0.0000
 11
100.2371
 21
169.9847
 31
0.0000
  0
LINE
  8
47
 10
100.2371
 20
169.9847
 30
0.0000
 11
100.6202
 21
169.6016
 31
0.0000
  0
LINE
  8
47
 10
100.6202
 20
169.6016
 30
0.0000
 11
101.0034
 21
169.9847
 31
0.0000
  0
LINE
  8
47
 10
101.0034
 20
169.9847
 30
0.0000
 11
101.3865
 21
169.6016
 31
0.0000
  0
LINE
  8
47
 10
101.3865
 20
169.6016
 30
0.0000
 11
101.7696
 21
169.9847
 31
0.0000
  0
LINE
  8
47
 10
101.7696
 20
169.9847
 30
0.0000
 11
101.7696
 21
171.1341
 31
0.0000
  0
LINE
  8
47
 10
102.5391
 20
171.1341
 30
0.0000
 11
102.9222
 21
171.1341
 31
0.0000
  0
LINE
  8
47
 10
102.9222
 20
171.1341
 30
0.0000
 11
102.9222
 21
169.6016
 31
0.0000
  0
LINE
  8
47
 10
102.5391
 20
169.6016
 30
0.0000
 11
103.3053
 21
169.6016
 31
0.0000
  0
LINE
  8
47
 10
102.9222
 20
172.2835
 30
0.0000
 11
102.9222
 21
171.9004
 31
0.0000
  0
LINE
  8
47
 10
104.4568
 20
171.5172
 30
0.0000
 11
104.4568
 21
169.9847
 31
0.0000
  0
LINE
  8
47
 10
104.4568
 20
169.9847
 30
0.0000
 11
104.8400
 21
169.6016
 31
0.0000
  0
LINE
  8
47
 10
104.0737
 20
171.1341
 30
0.0000
 11
104.8400
 21
171.1341
 31
0.0000
  0
LINE
  8
47
 10
105.6084
 20
171.9004
 30
0.0000
 11
105.6084
 21
169.6016
 31
0.0000
  0
LINE
  8
47
 10
105.6084
 20
170.7510
 30
0.0000
 11
105.9915
 21
171.1341
 31
0.0000
  0
LINE
  8
47
 10
105.9915
 20
171.1341
 30
0.0000
 11
106.7577
 21
171.1341
 31
0.0000
  0
LINE
  8
47
 10
106.7577
 20
171.1341
 30
0.0000
 11
107.1409
 21
170.7510
 31
0.0000
  0
LINE
  8
47
 10
107.1409
 20
170.7510
 30
0.0000
 11
107.1409
 21
169.6016
 31
0.0000
  0
LINE
  8
47
 10
110.2123
 20
169.6016
 30
0.0000
 11
110.2123
 21
171.1341
 31
0.0000
  0
LINE
  8
47
 10
110.2123
 20
171.1341
 30
0.0000
 11
110.9785
 21
171.9004
 31
0.0000
  0
LINE
  8
47
 10
110.9785
 20
171.9004
 30
0.0000
 11
111.7448
 21
171.1341
 31
0.0000
  0
LINE
  8
47
 10
111.7448
 20
171.1341
 30
0.0000
 11
111.7448
 21
169.6016
 31
0.0000
  0
LINE
  8
47
 10
110.2123
 20
170.7510
 30
0.0000
 11
111.7448
 21
170.7510
 31
0.0000
  0
LINE
  8
47
 10
114.0468
 20
171.5172
 30
0.0000
 11
113.6636
 21
171.9004
 31
0.0000
  0
LINE
  8
47
 10
113.6636
 20
171.9004
 30
0.0000
 11
112.8974
 21
171.9004
 31
0.0000
  0
LINE
  8
47
 10
112.8974
 20
171.9004
 30
0.0000
 11
112.5142
 21
171.5172
 31
0.0000
  0
LINE
  8
47
 10
112.5142
 20
171.5172
 30
0.0000
 11
112.5142
 21
169.9847
 31
0.0000
  0
LINE
  8
47
 10
112.5142
 20
169.9847
 30
0.0000
 11
112.8974
 21
169.6016
 31
0.0000
  0
LINE
  8
47
 10
112.8974
 20
169.6016
 30
0.0000
 11
113.6636
 21
169.6016
 31
0.0000
  0
LINE
  8
47
 10
113.6636
 20
169.6016
 30
0.0000
 11
114.0468
 21
169.9847
 31
0.0000
  0
LINE
  8
47
 10
117.1182
 20
171.1341
 30
0.0000
 11
117.5013
 21
171.1341
 31
0.0000
  0
LINE
  8
47
 10
117.5013
 20
171.1341
 30
0.0000
 11
117.5013
 21
169.6016
 31
0.0000
  0
LINE
  8
47
 10
117.1182
 20
169.6016
 30
0.0000
 11
117.8844
 21
169.6016
 31
0.0000
  0
LINE
  8
47
 10
117.5013
 20
172.2835
 30
0.0000
 11
117.5013
 21
171.9004
 31
0.0000
  0
LINE
  8
47
 10
118.6528
 20
169.6016
 30
0.0000
 11
118.6528
 21
171.1341
 31
0.0000
  0
LINE
  8
47
 10
118.6528
 20
171.1341
 30
0.0000
 11
119.8022
 21
171.1341
 31
0.0000
  0
LINE
  8
47
 10
119.8022
 20
171.1341
 30
0.0000
 11
120.1853
 21
170.7510
 31
0.0000
  0
LINE
  8
47
 10
120.1853
 20
170.7510
 30
0.0000
 11
120.1853
 21
169.6016
 31
0.0000
  0
LINE
  8
47
 10
120.9548
 20
168.8353
 30
0.0000
 11
120.9548
 21
171.1341
 31
0.0000
  0
LINE
  8
47
 10
120.9548
 20
171.1341
 30
0.0000
 11
122.1042
 21
171.1341
 31
0.0000
  0
LINE
  8
47
 10
122.1042
 20
171.1341
 30
0.0000
 11
122.4873
 21
170.7510
 31
0.0000
  0
LINE
  8
47
 10
122.4873
 20
170.7510
 30
0.0000
 11
122.4873
 21
169.9847
 31
0.0000
  0
LINE
  8
47
 10
122.4873
 20
169.9847
 30
0.0000
 11
122.1042
 21
169.6016
 31
0.0000
  0
LINE
  8
47
 10
122.1042
 20
169.6016
 30
0.0000
 11
120.9548
 21
169.6016
 31
0.0000
  0
LINE
  8
47
 10
123.2568
 20
171.1341
 30
0.0000
 11
123.2568
 21
169.9847
 31
0.0000
  0
LINE
  8
47
 10
123.2568
 20
169.9847
 30
0.0000
 11
123.6399
 21
169.6016
 31
0.0000
  0
LINE
  8
47
 10
123.6399
 20
169.6016
 30
0.0000
 11
124.7893
 21
169.6016
 31
0.0000
  0
LINE
  8
47
 10
124.7893
 20
169.6016
 30
0.0000
 11
124.7893
 21
171.1341
 31
0.0000
  0
LINE
  8
47
 10
125.9418
 20
171.5172
 30
0.0000
 11
125.9418
 21
169.9847
 31
0.0000
  0
LINE
  8
47
 10
125.9418
 20
169.9847
 30
0.0000
 11
126.3250
 21
169.6016
 31
0.0000
  0
LINE
  8
47
 10
125.5587
 20
171.1341
 30
0.0000
 11
126.3250
 21
171.1341
 31
0.0000
  0
LINE
  8
47
 10
127.0934
 20
169.6016
 30
0.0000
 11
128.2427
 21
169.6016
 31
0.0000
  0
LINE
  8
47
 10
128.2427
 20
169.6016
 30
0.0000
 11
128.6259
 21
169.9847
 31
0.0000
  0
LINE
  8
47
 10
128.6259
 20
169.9847
 30
0.0000
 11
128.2427
 21
170.3679
 31
0.0000
  0
LINE
  8
47
 10
128.2427
 20
170.3679
 30
0.0000
 11
127.4765
 21
170.3679
 31
0.0000
  0
LINE
  8
47
 10
127.4765
 20
170.3679
 30
0.0000
 11
127.0934
 21
170.7510
 31
0.0000
  0
LINE
  8
47
 10
127.0934
 20
170.7510
 30
0.0000
 11
127.4765
 21
171.1341
 31
0.0000
  0
LINE
  8
47
 10
127.4765
 20
171.1341
 30
0.0000
 11
128.6259
 21
171.1341
 31
0.0000
  0
LINE
  8
47
 10
132.0804
 20
171.1341
 30
0.0000
 11
132.8467
 21
171.1341
 31
0.0000
  0
LINE
  8
47
 10
132.8467
 20
171.1341
 30
0.0000
 11
133.2298
 21
170.7510
 31
0.0000
  0
LINE
  8
47
 10
133.2298
 20
170.7510
 30
0.0000
 11
133.2298
 21
169.6016
 31
0.0000
  0
LINE
  8
47
 10
133.2298
 20
169.6016
 30
0.0000
 11
132.0804
 21
169.6016
 31
0.0000
  0
LINE
  8
47
 10
132.0804
 20
169.6016
 30
0.0000
 11
131.6973
 21
169.9847
 31
0.0000
  0
LINE
  8
47
 10
131.6973
 20
169.9847
 30
0.0000
 11
132.0804
 21
170.3679
 31
0.0000
  0
LINE
  8
47
 10
132.0804
 20
170.3679
 30
0.0000
 11
133.2298
 21
170.3679
 31
0.0000
  0
LINE
  8
47
 10
133.9993
 20
169.6016
 30
0.0000
 11
133.9993
 21
171.1341
 31
0.0000
  0
LINE
  8
47
 10
133.9993
 20
170.3679
 30
0.0000
 11
134.7655
 21
171.1341
 31
0.0000
  0
LINE
  8
47
 10
134.7655
 20
171.1341
 30
0.0000
 11
135.1486
 21
171.1341
 31
0.0000
  0
LINE
  8
47
 10
137.0669
 20
169.6016
 30
0.0000
 11
136.3007
 21
169.6016
 31
0.0000
  0
LINE
  8
47
 10
136.3007
 20
169.6016
 30
0.0000
 11
135.9176
 21
169.9847
 31
0.0000
  0
LINE
  8
47
 10
135.9176
 20
169.9847
 30
0.0000
 11
135.9176
 21
170.7510
 31
0.0000
  0
LINE
  8
47
 10
135.9176
 20
170.7510
 30
0.0000
 11
136.3007
 21
171.1341
 31
0.0000
  0
LINE
  8
47
 10
136.3007
 20
171.1341
 30
0.0000
 11
137.0669
 21
171.1341
 31
0.0000
  0
LINE
  8
47
 10
137.0669
 20
171.1341
 30
0.0000
 11
137.4501
 21
170.7510
 31
0.0000
  0
LINE
  8
47
 10
137.4501
 20
170.7510
 30
0.0000
 11
137.4501
 21
170.3679
 31
0.0000
  0
LINE
  8
47
 10
137.4501
 20
170.3679
 30
0.0000
 11
135.9176
 21
170.3679
 31
0.0000
  0
LINE
  8
47
 10
140.5215
 20
171.1341
 30
0.0000
 11
140.5215
 21
169.9847
 31
0.0000
  0
LINE
  8
47
 10
140.5215
 20
169.9847
 30
0.0000
 11
140.9046
 21
169.6016
 31
0.0000
  0
LINE
  8
47
 10
140.9046
 20
169.6016
 30
0.0000
 11
142.0540
 21
169.6016
 31
0.0000
  0
LINE
  8
47
 10
142.0540
 20
169.6016
 30
0.0000
 11
142.0540
 21
171.1341
 31
0.0000
  0
LINE
  8
47
 10
142.8235
 20
169.6016
 30
0.0000
 11
143.9728
 21
169.6016
 31
0.0000
  0
LINE
  8
47
 10
143.9728
 20
169.6016
 30
0.0000
 11
144.3560
 21
169.9847
 31
0.0000
  0
LINE
  8
47
 10
144.3560
 20
169.9847
 30
0.0000
 11
143.9728
 21
170.3679
 31
0.0000
  0
LINE
  8
47
 10
143.9728
 20
170.3679
 30
0.0000
 11
143.2066
 21
170.3679
 31
0.0000
  0
LINE
  8
47
 10
143.2066
 20
170.3679
 30
0.0000
 11
142.8235
 21
170.7510
 31
0.0000
  0
LINE
  8
47
 10
142.8235
 20
170.7510
 30
0.0000
 11
143.2066
 21
171.1341
 31
0.0000
  0
LINE
  8
47
 10
143.2066
 20
171.1341
 30
0.0000
 11
144.3560
 21
171.1341
 31
0.0000
  0
LINE
  8
47
 10
146.2748
 20
169.6016
 30
0.0000
 11
145.5086
 21
169.6016
 31
0.0000
  0
LINE
  8
47
 10
145.5086
 20
169.6016
 30
0.0000
 11
145.1254
 21
169.9847
 31
0.0000
  0
LINE
  8
47
 10
145.1254
 20
169.9847
 30
0.0000
 11
145.1254
 21
170.7510
 31
0.0000
  0
LINE
  8
47
 10
145.1254
 20
170.7510
 30
0.0000
 11
145.5086
 21
171.1341
 31
0.0000
  0
LINE
  8
47
 10
145.5086
 20
171.1341
 30
0.0000
 11
146.2748
 21
171.1341
 31
0.0000
  0
LINE
  8
47
 10
146.2748
 20
171.1341
 30
0.0000
 11
146.6579
 21
170.7510
 31
0.0000
  0
LINE
  8
47
 10
146.6579
 20
170.7510
 30
0.0000
 11
146.6579
 21
170.3679
 31
0.0000
  0
LINE
  8
47
 10
146.6579
 20
170.3679
 30
0.0000
 11
145.1254
 21
170.3679
 31
0.0000
  0
LINE
  8
47
 10
148.9599
 20
171.9004
 30
0.0000
 11
148.9599
 21
169.6016
 31
0.0000
  0
LINE
  8
47
 10
148.9599
 20
169.6016
 30
0.0000
 11
147.8105
 21
169.6016
 31
0.0000
  0
LINE
  8
47
 10
147.8105
 20
169.6016
 30
0.0000
 11
147.4274
 21
169.9847
 31
0.0000
  0
LINE
  8
47
 10
147.4274
 20
169.9847
 30
0.0000
 11
147.4274
 21
170.7510
 31
0.0000
  0
LINE
  8
47
 10
147.4274
 20
170.7510
 30
0.0000
 11
147.8105
 21
171.1341
 31
0.0000
  0
LINE
  8
47
 10
147.8105
 20
171.1341
 30
0.0000
 11
148.9599
 21
171.1341
 31
0.0000
  0
LINE
  8
47
 10
149.7294
 20
169.6016
 30
0.0000
 11
150.4956
 21
170.3679
 31
0.0000
  0
LINE
  8
47
 10
150.4956
 20
170.3679
 30
0.0000
 11
150.4956
 21
171.1341
 31
0.0000
  0
LINE
  8
47
 10
150.4956
 20
171.1341
 30
0.0000
 11
149.7294
 21
171.9004
 31
0.0000
  0
LINE
  8
47
 10
99.0000
 20
25.5000
 30
0.0000
 11
99.0000
 21
35.9500
 31
0.0000
  0
LINE
  8
47
 10
6.0000
 20
26.5000
 30
0.0000
 11
6.0000
 21
35.9500
 31
0.0000
  0
LINE
  8
47
 10
98.9350
 20
34.0000
 30
0.0000
 11
6.0650
 21
34.0000
 31
0.0000
  0
LINE
  8
47
 10
98.9350
 20
34.0000
 30
0.0000
 11
96.4000
 21
34.3192
 31
0.0000
  0
LINE
  8
47
 10
96.4000
 20
34.3192
 30
0.0000
 11
96.4000
 21
33.6808
 31
0.0000
  0
LINE
  8
47
 10
96.4000
 20
33.6808
 30
0.0000
 11
98.9350
 21
34.0000
 31
0.0000
  0
LINE
  8
47
 10
98.9350
 20
34.0000
 30
0.0000
 11
96.4000
 21
34.1300
 31
0.0000
  0
LINE
  8
47
 10
96.4000
 20
33.8700
 30
0.0000
 11
98.9350
 21
34.0000
 31
0.0000
  0
LINE
  8
47
 10
98.9350
 20
34.0000
 30
0.0000
 11
96.4000
 21
34.2600
 31
0.0000
  0
LINE
  8
47
 10
96.4000
 20
33.7400
 30
0.0000
 11
98.9350
 21
34.0000
 31
0.0000
  0
LINE
  8
47
 10
6.0650
 20
34.0000
 30
0.0000
 11
8.6000
 21
34.3192
 31
0.0000
  0
LINE
  8
47
 10
8.6000
 20
34.3192
 30
0.0000
 11
8.6000
 21
33.6808
 31
0.0000
  0
LINE
  8
47
 10
8.6000
 20
33.6808
 30
0.0000
 11
6.0650
 21
34.0000
 31
0.0000
  0
LINE
  8
47
 10
6.0650
 20
34.0000
 30
0.0000
 11
8.6000
 21
34.1300
 31
0.0000
  0
LINE
  8
47
 10
8.6000
 20
33.8700
 30
0.0000
 11
6.0650
 21
34.0000
 31
0.0000
  0
LINE
  8
47
 10
6.0650
 20
34.0000
 30
0.0000
 11
8.6000
 21
34.2600
 31
0.0000
  0
LINE
  8
47
 10
8.6000
 20
33.7400
 30
0.0000
 11
6.0650
 21
34.0000
 31
0.0000
  0
LINE
  8
47
 10
51.0083
 20
35.0313
 30
0.0000
 11
51.3081
 21
34.7316
 31
0.0000
  0
LINE
  8
47
 10
51.3081
 20
34.7316
 30
0.0000
 11
51.9075
 21
34.7316
 31
0.0000
  0
LINE
  8
47
 10
51.9075
 20
34.7316
 30
0.0000
 11
52.2072
 21
35.0313
 31
0.0000
  0
LINE
  8
47
 10
52.2072
 20
35.0313
 30
0.0000
 11
52.2072
 21
36.2302
 31
0.0000
  0
LINE
  8
47
 10
52.2072
 20
36.2302
 30
0.0000
 11
51.9075
 21
36.5299
 31
0.0000
  0
LINE
  8
47
 10
51.9075
 20
36.5299
 30
0.0000
 11
51.3081
 21
36.5299
 31
0.0000
  0
LINE
  8
47
 10
51.3081
 20
36.5299
 30
0.0000
 11
51.0083
 21
36.2302
 31
0.0000
  0
LINE
  8
47
 10
51.0083
 20
36.2302
 30
0.0000
 11
51.0083
 21
35.9305
 31
0.0000
  0
LINE
  8
47
 10
51.0083
 20
35.9305
 30
0.0000
 11
51.3081
 21
35.6308
 31
0.0000
  0
LINE
  8
47
 10
51.3081
 20
35.6308
 30
0.0000
 11
52.2072
 21
35.6308
 31
0.0000
  0
LINE
  8
47
 10
52.8499
 20
36.2302
 30
0.0000
 11
53.1496
 21
36.5299
 31
0.0000
  0
LINE
  8
47
 10
53.1496
 20
36.5299
 30
0.0000
 11
53.7491
 21
36.5299
 31
0.0000
  0
LINE
  8
47
 10
53.7491
 20
36.5299
 30
0.0000
 11
54.0488
 21
36.2302
 31
0.0000
  0
LINE
  8
47
 10
54.0488
 20
36.2302
 30
0.0000
 11
54.0488
 21
35.9305
 31
0.0000
  0
LINE
  8
47
 10
54.0488
 20
35.9305
 30
0.0000
 11
53.7491
 21
35.6308
 31
0.0000
  0
LINE
  8
47
 10
53.7491
 20
35.6308
 30
0.0000
 11
53.4494
 21
35.6308
 31
0.0000
  0
LINE
  8
47
 10
53.7491
 20
35.6308
 30
0.0000
 11
54.0488
 21
35.3310
 31
0.0000
  0
LINE
  8
47
 10
54.0488
 20
35.3310
 30
0.0000
 11
54.0488
 21
35.0313
 31
0.0000
  0
LINE
  8
47
 10
54.0488
 20
35.0313
 30
0.0000
 11
53.7491
 21
34.7316
 31
0.0000
  0
LINE
  8
47
 10
53.7491
 20
34.7316
 30
0.0000
 11
53.1496
 21
34.7316
 31
0.0000
  0
LINE
  8
47
 10
53.1496
 20
34.7316
 30
0.0000
 11
52.8499
 21
35.0313
 31
0.0000
  0
LINE
  8
47
 10
1.5000
 20
152.5000
 30
0.0000
 11
12.9500
 21
152.5000
 31
0.0000
  0
LINE
  8
47
 10
0.5000
 20
29.5000
 30
0.0000
 11
12.9500
 21
29.5000
 31
0.0000
  0
LINE
  8
47
 10
11.0000
 20
152.4350
 30
0.0000
 11
11.0000
 21
29.5650
 31
0.0000
  0
LINE
  8
47
 10
11.0000
 20
152.4350
 30
0.0000
 11
10.6808
 21
149.9000
 31
0.0000
  0
LINE
  8
47
 10
10.6808
 20
149.9000
 30
0.0000
 11
11.3192
 21
149.9000
 31
0.0000
  0
LINE
  8
47
 10
11.3192
 20
149.9000
 30
0.0000
 11
11.0000
 21
152.4350
 31
0.0000
  0
LINE
  8
47
 10
11.0000
 20
152.4350
 30
0.0000
 11
10.8700
 21
149.9000
 31
0.0000
  0
LINE
  8
47
 10
11.1300
 20
149.9000
 30
0.0000
 11
11.0000
 21
152.4350
 31
0.0000
  0
LINE
  8
47
 10
11.0000
 20
152.4350
 30
0.0000
 11
10.7400
 21
149.9000
 31
0.0000
  0
LINE
  8
47
 10
11.2600
 20
149.9000
 30
0.0000
 11
11.0000
 21
152.4350
 31
0.0000
  0
LINE
  8
47
 10
11.0000
 20
29.5650
 30
0.0000
 11
10.6808
 21
32.1000
 31
0.0000
  0
LINE
  8
47
 10
10.6808
 20
32.1000
 30
0.0000
 11
11.3192
 21
32.1000
 31
0.0000
  0
LINE
  8
47
 10
11.3192
 20
32.1000
 30
0.0000
 11
11.0000
 21
29.5650
 31
0.0000
  0
LINE
  8
47
 10
11.0000
 20
29.5650
 30
0.0000
 11
10.8700
 21
32.1000
 31
0.0000
  0
LINE
  8
47
 10
11.1300
 20
32.1000
 30
0.0000
 11
11.0000
 21
29.5650
 31
0.0000
  0
LINE
  8
47
 10
11.0000
 20
29.5650
 30
0.0000
 11
10.7400
 21
32.1000
 31
0.0000
  0
LINE
  8
47
 10
11.2600
 20
32.1000
 30
0.0000
 11
11.0000
 21
29.5650
 31
0.0000
  0
LINE
  8
47
 10
9.0610
 20
88.6885
 30
0.0000
 11
8.4446
 21
89.3049
 31
0.0000
  0
LINE
  8
47
 10
8.4446
 20
89.3049
 30
0.0000
 11
10.2938
 21
89.3049
 31
0.0000
  0
LINE
  8
47
 10
10.2938
 20
88.6885
 30
0.0000
 11
10.2938
 21
89.9213
 31
0.0000
  0
LINE
  8
47
 10
10.2938
 20
91.7629
 30
0.0000
 11
10.2938
 21
90.5301
 31
0.0000
  0
LINE
  8
47
 10
10.2938
 20
90.5301
 30
0.0000
 11
9.0610
 21
91.7629
 31
0.0000
  0
LINE
  8
47
 10
9.0610
 20
91.7629
 30
0.0000
 11
8.7528
 21
91.7629
 31
0.0000
  0
LINE
  8
47
 10
8.7528
 20
91.7629
 30
0.0000
 11
8.4446
 21
91.4547
 31
0.0000
  0
LINE
  8
47
 10
8.4446
 20
91.4547
 30
0.0000
 11
8.4446
 21
90.8383
 31
0.0000
  0
LINE
  8
47
 10
8.4446
 20
90.8383
 30
0.0000
 11
8.7528
 21
90.5301
 31
0.0000
  0
LINE
  8
47
 10
8.7528
 20
92.3717
 30
0.0000
 11
8.4446
 21
92.6799
 31
0.0000
  0
LINE
  8
47
 10
8.4446
 20
92.6799
 30
0.0000
 11
8.4446
 21
93.2963
 31
0.0000
  0
LINE
  8
47
 10
8.4446
 20
93.2963
 30
0.0000
 11
8.7528
 21
93.6045
 31
0.0000
  0
LINE
  8
47
 10
8.7528
 20
93.6045
 30
0.0000
 11
9.0610
 21
93.6045
 31
0.0000
  0
LINE
  8
47
 10
9.0610
 20
93.6045
 30
0.0000
 11
9.3692
 21
93.2963
 31
0.0000
  0
LINE
  8
47
 10
9.3692
 20
93.2963
 30
0.0000
 11
9.3692
 21
92.9881
 31
0.0000
  0
LINE
  8
47
 10
9.3692
 20
93.2963
 30
0.0000
 11
9.6774
 21
93.6045
 31
0.0000
  0
LINE
  8
47
 10
9.6774
 20
93.6045
 30
0.0000
 11
9.9856
 21
93.6045
 31
0.0000
  0
LINE
  8
47
 10
9.9856
 20
93.6045
 30
0.0000
 11
10.2938
 21
93.2963
 31
0.0000
  0
LINE
  8
47
 10
10.2938
 20
93.2963
 30
0.0000
 11
10.2938
 21
92.6799
 31
0.0000
  0
LINE
  8
47
 10
10.2938
 20
92.6799
 30
0.0000
 11
9.9856
 21
92.3717
 31
0.0000
  0
LINE
  8
47
 10
4.4500
 20
152.5000
 30
0.0000
 11
4.4500
 21
156.4500
 31
0.0000
  0
LINE
  8
47
 10
7.5500
 20
152.5000
 30
0.0000
 11
7.5500
 21
156.4500
 31
0.0000
  0
LINE
  8
47
 10
4.3850
 20
154.5000
 30
0.0000
 11
-0.7500
 21
154.5000
 31
0.0000
  0
LINE
  8
47
 10
7.6150
 20
154.5000
 30
0.0000
 11
13.6846
 21
154.5000
 31
0.0000
  0
LINE
  8
47
 10
4.3850
 20
154.5000
 30
0.0000
 11
1.8500
 21
154.8192
 31
0.0000
  0
LINE
  8
47
 10
1.8500
 20
154.8192
 30
0.0000
 11
1.8500
 21
154.1808
 31
0.0000
  0
LINE
  8
47
 10
1.8500
 20
154.1808
 30
0.0000
 11
4.3850
 21
154.5000
 31
0.0000
  0
LINE
  8
47
 10
4.3850
 20
154.5000
 30
0.0000
 11
1.8500
 21
154.6300
 31
0.0000
  0
LINE
  8
47
 10
1.8500
 20
154.3700
 30
0.0000
 11
4.3850
 21
154.5000
 31
0.0000
  0
LINE
  8
47
 10
4.3850
 20
154.5000
 30
0.0000
 11
1.8500
 21
154.7600
 31
0.0000
  0
LINE
  8
47
 10
1.8500
 20
154.2400
 30
0.0000
 11
4.3850
 21
154.5000
 31
0.0000
  0
LINE
  8
47
 10
7.6150
 20
154.5000
 30
0.0000
 11
10.1500
 21
154.8192
 31
0.0000
  0
LINE
  8
47
 10
10.1500
 20
154.8192
 30
0.0000
 11
10.1500
 21
154.1808
 31
0.0000
  0
LINE
  8
47
 10
10.1500
 20
154.1808
 30
0.0000
 11
7.6150
 21
154.5000
 31
0.0000
  0
LINE
  8
47
 10
7.6150
 20
154.5000
 30
0.0000
 11
10.1500
 21
154.6300
 31
0.0000
  0
LINE
  8
47
 10
10.1500
 20
154.3700
 30
0.0000
 11
7.6150
 21
154.5000
 31
0.0000
  0
LINE
  8
47
 10
7.6150
 20
154.5000
 30
0.0000
 11
10.1500
 21
154.7600
 31
0.0000
  0
LINE
  8
47
 10
10.1500
 20
154.2400
 30
0.0000
 11
7.6150
 21
154.5000
 31
0.0000
  0
LINE
  8
47
 10
6.0000
 20
152.1808
 30
0.0000
 11
6.0000
 21
152.8192
 31
0.0000
  0
LINE
  8
47
 10
5.6808
 20
152.5000
 30
0.0000
 11
6.3192
 21
152.5000
 31
0.0000
  0
LINE
  8
47
 10
10.2262
 20
156.5065
 30
0.0000
 11
10.4974
 21
156.7777
 31
0.0000
  0
LINE
  8
47
 10
10.4974
 20
156.7777
 30
0.0000
 11
11.0397
 21
156.7777
 31
0.0000
  0
LINE
  8
47
 10
11.0397
 20
156.7777
 30
0.0000
 11
11.3109
 21
156.5065
 31
0.0000
  0
LINE
  8
47
 10
11.3109
 20
156.5065
 30
0.0000
 11
11.3109
 21
156.2354
 31
0.0000
  0
LINE
  8
47
 10
11.3109
 20
156.2354
 30
0.0000
 11
11.0397
 21
155.9642
 31
0.0000
  0
LINE
  8
47
 10
11.0397
 20
155.9642
 30
0.0000
 11
10.7685
 21
155.9642
 31
0.0000
  0
LINE
  8
47
 10
11.0397
 20
155.9642
 30
0.0000
 11
11.3109
 21
155.6930
 31
0.0000
  0
LINE
  8
47
 10
11.3109
 20
155.6930
 30
0.0000
 11
11.3109
 21
155.4219
 31
0.0000
  0
LINE
  8
47
 10
11.3109
 20
155.4219
 30
0.0000
 11
11.0397
 21
155.1507
 31
0.0000
  0
LINE
  8
47
 10
11.0397
 20
155.1507
 30
0.0000
 11
10.4974
 21
155.1507
 31
0.0000
  0
LINE
  8
47
 10
10.4974
 20
155.1507
 30
0.0000
 11
10.2262
 21
155.4219
 31
0.0000
  0
LINE
  8
47
 10
11.8634
 20
155.1507
 30
0.0000
 11
11.8634
 21
155.4219
 31
0.0000
  0
LINE
  8
47
 10
11.8634
 20
155.4219
 30
0.0000
 11
12.1345
 21
155.4219
 31
0.0000
  0
LINE
  8
47
 10
12.1345
 20
155.4219
 30
0.0000
 11
12.1345
 21
155.1507
 31
0.0000
  0
LINE
  8
47
 10
12.1345
 20
155.1507
 30
0.0000
 11
11.8634
 21
155.1507
 31
0.0000
  0
LINE
  8
47
 10
12.6819
 20
156.2354
 30
0.0000
 11
13.2243
 21
156.7777
 31
0.0000
  0
LINE
  8
47
 10
13.2243
 20
156.7777
 30
0.0000
 11
13.2243
 21
155.1507
 31
0.0000
  0
LINE
  8
47
 10
12.6819
 20
155.1507
 30
0.0000
 11
13.7666
 21
155.1507
 31
0.0000
  0
LINE
  8
47
 10
99.0000
 20
149.0000
 30
0.0000
 11
99.0000
 21
163.9500
 31
0.0000
  0
LINE
  8
47
 10
52.5000
 20
165.0000
 30
0.0000
 11
52.5000
 21
160.0500
 31
0.0000
  0
LINE
  8
47
 10
98.9350
 20
162.0000
 30
0.0000
 11
52.5650
 21
162.0000
 31
0.0000
  0
LINE
  8
47
 10
98.9350
 20
162.0000
 30
0.0000
 11
96.4000
 21
162.3192
 31
0.0000
  0
LINE
  8
47
 10
96.4000
 20
162.3192
 30
0.0000
 11
96.4000
 21
161.6808
 31
0.0000
  0
LINE
  8
47
 10
96.4000
 20
161.6808
 30
0.0000
 11
98.9350
 21
162.0000
 31
0.0000
  0
LINE
  8
47
 10
98.9350
 20
162.0000
 30
0.0000
 11
96.4000
 21
162.1300
 31
0.0000
  0
LINE
  8
47
 10
96.4000
 20
161.8700
 30
0.0000
 11
98.9350
 21
162.0000
 31
0.0000
  0
LINE
  8
47
 10
98.9350
 20
162.0000
 30
0.0000
 11
96.4000
 21
162.2600
 31
0.0000
  0
LINE
  8
47
 10
96.4000
 20
161.7400
 30
0.0000
 11
98.9350
 21
162.0000
 31
0.0000
  0
LINE
  8
47
 10
52.5650
 20
162.0000
 30
0.0000
 11
55.1000
 21
162.3192
 31
0.0000
  0
LINE
  8
47
 10
55.1000
 20
162.3192
 30
0.0000
 11
55.1000
 21
161.6808
 31
0.0000
  0
LINE
  8
47
 10
55.1000
 20
161.6808
 30
0.0000
 11
52.5650
 21
162.0000
 31
0.0000
  0
LINE
  8
47
 10
52.5650
 20
162.0000
 30
0.0000
 11
55.1000
 21
162.1300
 31
0.0000
  0
LINE
  8
47
 10
55.1000
 20
161.8700
 30
0.0000
 11
52.5650
 21
162.0000
 31
0.0000
  0
LINE
  8
47
 10
52.5650
 20
162.0000
 30
0.0000
 11
55.1000
 21
162.2600
 31
0.0000
  0
LINE
  8
47
 10
55.1000
 20
161.7400
 30
0.0000
 11
52.5650
 21
162.0000
 31
0.0000
  0
LINE
  8
47
 10
73.9615
 20
162.7062
 30
0.0000
 11
73.9615
 21
164.5554
 31
0.0000
  0
LINE
  8
47
 10
73.9615
 20
164.5554
 30
0.0000
 11
73.0369
 21
163.6308
 31
0.0000
  0
LINE
  8
47
 10
73.0369
 20
163.6308
 30
0.0000
 11
74.2696
 21
163.6308
 31
0.0000
  0
LINE
  8
47
 10
76.1112
 20
164.5554
 30
0.0000
 11
75.4948
 21
164.2472
 31
0.0000
  0
LINE
  8
47
 10
75.4948
 20
164.2472
 30
0.0000
 11
74.8784
 21
163.6308
 31
0.0000
  0
LINE
  8
47
 10
74.8784
 20
163.6308
 30
0.0000
 11
74.8784
 21
163.0144
 31
0.0000
  0
LINE
  8
47
 10
74.8784
 20
163.0144
 30
0.0000
 11
75.1866
 21
162.7062
 31
0.0000
  0
LINE
  8
47
 10
75.1866
 20
162.7062
 30
0.0000
 11
75.8030
 21
162.7062
 31
0.0000
  0
LINE
  8
47
 10
75.8030
 20
162.7062
 30
0.0000
 11
76.1112
 21
163.0144
 31
0.0000
  0
LINE
  8
47
 10
76.1112
 20
163.0144
 30
0.0000
 11
76.1112
 21
163.3226
 31
0.0000
  0
LINE
  8
47
 10
76.1112
 20
163.3226
 30
0.0000
 11
75.8030
 21
163.6308
 31
0.0000
  0
LINE
  8
47
 10
75.8030
 20
163.6308
 30
0.0000
 11
74.8784
 21
163.6308
 31
0.0000
  0
LINE
  8
47
 10
76.7200
 20
162.7062
 30
0.0000
 11
76.7200
 21
163.0144
 31
0.0000
  0
LINE
  8
47
 10
76.7200
 20
163.0144
 30
0.0000
 11
77.0282
 21
163.0144
 31
0.0000
  0
LINE
  8
47
 10
77.0282
 20
163.0144
 30
0.0000
 11
77.0282
 21
162.7062
 31
0.0000
  0
LINE
  8
47
 10
77.0282
 20
162.7062
 30
0.0000
 11
76.7200
 21
162.7062
 31
0.0000
  0
LINE
  8
47
 10
78.8736
 20
164.5554
 30
0.0000
 11
77.6408
 21
164.5554
 31
0.0000
  0
LINE
  8
47
 10
77.6408
 20
164.5554
 30
0.0000
 11
77.6408
 21
163.6308
 31
0.0000
  0
LINE
  8
47
 10
77.6408
 20
163.6308
 30
0.0000
 11
78.2572
 21
163.9390
 31
0.0000
  0
LINE
  8
47
 10
78.2572
 20
163.9390
 30
0.0000
 11
78.5654
 21
163.9390
 31
0.0000
  0
LINE
  8
47
 10
78.5654
 20
163.9390
 30
0.0000
 11
78.8736
 21
163.6308
 31
0.0000
  0
LINE
  8
47
 10
78.8736
 20
163.6308
 30
0.0000
 11
78.8736
 21
163.0144
 31
0.0000
  0
LINE
  8
47
 10
78.8736
 20
163.0144
 30
0.0000
 11
78.5654
 21
162.7062
 31
0.0000
  0
LINE
  8
47
 10
78.5654
 20
162.7062
 30
0.0000
 11
77.9490
 21
162.7062
 31
0.0000
  0
LINE
  8
47
 10
77.9490
 20
162.7062
 30
0.0000
 11
77.6408
 21
163.0144
 31
0.0000
  0
LINE
  8
47
 10
52.5000
 20
87.0000
 30
0.0000
 11
52.5000
 21
163.9500
 31
0.0000
  0
LINE
  8
47
 10
6.0000
 20
160.5000
 30
0.0000
 11
6.0000
 21
163.9500
 31
0.0000
  0
LINE
  8
47
 10
52.4350
 20
162.0000
 30
0.0000
 11
6.0650
 21
162.0000
 31
0.0000
  0
LINE
  8
47
 10
52.4350
 20
162.0000
 30
0.0000
 11
49.9000
 21
162.3192
 31
0.0000
  0
LINE
  8
47
 10
49.9000
 20
162.3192
 30
0.0000
 11
49.9000
 21
161.6808
 31
0.0000
  0
LINE
  8
47
 10
49.9000
 20
161.6808
 30
0.0000
 11
52.4350
 21
162.0000
 31
0.0000
  0
LINE
  8
47
 10
52.4350
 20
162.0000
 30
0.0000
 11
49.9000
 21
162.1300
 31
0.0000
  0
LINE
  8
47
 10
49.9000
 20
161.8700
 30
0.0000
 11
52.4350
 21
162.0000
 31
0.0000
  0
LINE
  8
47
 10
52.4350
 20
162.0000
 30
0.0000
 11
49.9000
 21
162.2600
 31
0.0000
  0
LINE
  8
47
 10
49.9000
 20
161.7400
 30
0.0000
 11
52.4350
 21
162.0000
 31
0.0000
  0
LINE
  8
47
 10
6.0650
 20
162.0000
 30
0.0000
 11
8.6000
 21
162.3192
 31
0.0000
  0
LINE
  8
47
 10
8.6000
 20
162.3192
 30
0.0000
 11
8.6000
 21
161.6808
 31
0.0000
  0
LINE
  8
47
 10
8.6000
 20
161.6808
 30
0.0000
 11
6.0650
 21
162.0000
 31
0.0000
  0
LINE
  8
47
 10
6.0650
 20
162.0000
 30
0.0000
 11
8.6000
 21
162.1300
 31
0.0000
  0
LINE
  8
47
 10
8.6000
 20
161.8700
 30
0.0000
 11
6.0650
 21
162.0000
 31
0.0000
  0
LINE
  8
47
 10
6.0650
 20
162.0000
 30
0.0000
 11
8.6000
 21
162.2600
 31
0.0000
  0
LINE
  8
47
 10
8.6000
 20
161.7400
 30
0.0000
 11
6.0650
 21
162.0000
 31
0.0000
  0
LINE
  8
47
 10
27.4615
 20
162.7062
 30
0.0000
 11
27.4615
 21
164.5554
 31
0.0000
  0
LINE
  8
47
 10
27.4615
 20
164.5554
 30
0.0000
 11
26.5369
 21
163.6308
 31
0.0000
  0
LINE
  8
47
 10
26.5369
 20
163.6308
 30
0.0000
 11
27.7697
 21
163.6308
 31
0.0000
  0
LINE
  8
47
 10
29.6112
 20
164.5554
 30
0.0000
 11
28.9948
 21
164.2472
 31
0.0000
  0
LINE
  8
47
 10
28.9948
 20
164.2472
 30
0.0000
 11
28.3784
 21
163.6308
 31
0.0000
  0
LINE
  8
47
 10
28.3784
 20
163.6308
 30
0.0000
 11
28.3784
 21
163.0144
 31
0.0000
  0
LINE
  8
47
 10
28.3784
 20
163.0144
 30
0.0000
 11
28.6866
 21
162.7062
 31
0.0000
  0
LINE
  8
47
 10
28.6866
 20
162.7062
 30
0.0000
 11
29.3030
 21
162.7062
 31
0.0000
  0
LINE
  8
47
 10
29.3030
 20
162.7062
 30
0.0000
 11
29.6112
 21
163.0144
 31
0.0000
  0
LINE
  8
47
 10
29.6112
 20
163.0144
 30
0.0000
 11
29.6112
 21
163.3226
 31
0.0000
  0
LINE
  8
47
 10
29.6112
 20
163.3226
 30
0.0000
 11
29.3030
 21
163.6308
 31
0.0000
  0
LINE
  8
47
 10
29.3030
 20
163.6308
 30
0.0000
 11
28.3784
 21
163.6308
 31
0.0000
  0
LINE
  8
47
 10
30.2200
 20
162.7062
 30
0.0000
 11
30.2200
 21
163.0144
 31
0.0000
  0
LINE
  8
47
 10
30.2200
 20
163.0144
 30
0.0000
 11
30.5282
 21
163.0144
 31
0.0000
  0
LINE
  8
47
 10
30.5282
 20
163.0144
 30
0.0000
 11
30.5282
 21
162.7062
 31
0.0000
  0
LINE
  8
47
 10
30.5282
 20
162.7062
 30
0.0000
 11
30.2200
 21
162.7062
 31
0.0000
  0
LINE
  8
47
 10
32.3736
 20
164.5554
 30
0.0000
 11
31.1408
 21
164.5554
 31
0.0000
  0
LINE
  8
47
 10
31.1408
 20
164.5554
 30
0.0000
 11
31.1408
 21
163.6308
 31
0.0000
  0
LINE
  8
47
 10
31.1408
 20
163.6308
 30
0.0000
 11
31.7572
 21
163.9390
 31
0.0000
  0
LINE
  8
47
 10
31.7572
 20
163.9390
 30
0.0000
 11
32.0654
 21
163.9390
 31
0.0000
  0
LINE
  8
47
 10
32.0654
 20
163.9390
 30
0.0000
 11
32.3736
 21
163.6308
 31
0.0000
  0
LINE
  8
47
 10
32.3736
 20
163.6308
 30
0.0000
 11
32.3736
 21
163.0144
 31
0.0000
  0
LINE
  8
47
 10
32.3736
 20
163.0144
 30
0.0000
 11
32.0654
 21
162.7062
 31
0.0000
  0
LINE
  8
47
 10
32.0654
 20
162.7062
 30
0.0000
 11
31.4490
 21
162.7062
 31
0.0000
  0
LINE
  8
47
 10
31.4490
 20
162.7062
 30
0.0000
 11
31.1408
 21
163.0144
 31
0.0000
  0
LINE
  8
47
 10
108.5000
 20
152.5000
 30
0.0000
 11
111.9500
 21
152.5000
 31
0.0000
  0
LINE
  8
47
 10
47.5000
 20
91.0000
 30
0.0000
 11
111.9500
 21
91.0000
 31
0.0000
  0
LINE
  8
47
 10
110.0000
 20
152.4350
 30
0.0000
 11
110.0000
 21
91.0650
 31
0.0000
  0
LINE
  8
47
 10
110.0000
 20
152.4350
 30
0.0000
 11
109.6808
 21
149.9000
 31
0.0000
  0
LINE
  8
47
 10
109.6808
 20
149.9000
 30
0.0000
 11
110.3192
 21
149.9000
 31
0.0000
  0
LINE
  8
47
 10
110.3192
 20
149.9000
 30
0.0000
 11
110.0000
 21
152.4350
 31
0.0000
  0
LINE
  8
47
 10
110.0000
 20
152.4350
 30
0.0000
 11
109.8700
 21
149.9000
 31
0.0000
  0
LINE
  8
47
 10
110.1300
 20
149.9000
 30
0.0000
 11
110.0000
 21
152.4350
 31
0.0000
  0
LINE
  8
47
 10
110.0000
 20
152.4350
 30
0.0000
 11
109.7400
 21
149.9000
 31
0.0000
  0
LINE
  8
47
 10
110.2600
 20
149.9000
 30
0.0000
 11
110.0000
 21
152.4350
 31
0.0000
  0
LINE
  8
47
 10
110.0000
 20
91.0650
 30
0.0000
 11
109.6808
 21
93.6000
 31
0.0000
  0
LINE
  8
47
 10
109.6808
 20
93.6000
 30
0.0000
 11
110.3192
 21
93.6000
 31
0.0000
  0
LINE
  8
47
 10
110.3192
 20
93.6000
 30
0.0000
 11
110.0000
 21
91.0650
 31
0.0000
  0
LINE
  8
47
 10
110.0000
 20
91.0650
 30
0.0000
 11
109.8700
 21
93.6000
 31
0.0000
  0
LINE
  8
47
 10
110.1300
 20
93.6000
 30
0.0000
 11
110.0000
 21
91.0650
 31
0.0000
  0
LINE
  8
47
 10
110.0000
 20
91.0650
 30
0.0000
 11
109.7400
 21
93.6000
 31
0.0000
  0
LINE
  8
47
 10
110.2600
 20
93.6000
 30
0.0000
 11
110.0000
 21
91.0650
 31
0.0000
  0
LINE
  8
47
 10
107.4701
 20
120.2612
 30
0.0000
 11
107.7698
 21
119.6617
 31
0.0000
  0
LINE
  8
47
 10
107.7698
 20
119.6617
 30
0.0000
 11
108.3692
 21
119.0623
 31
0.0000
  0
LINE
  8
47
 10
108.3692
 20
119.0623
 30
0.0000
 11
108.9687
 21
119.0623
 31
0.0000
  0
LINE
  8
47
 10
108.9687
 20
119.0623
 30
0.0000
 11
109.2684
 21
119.3620
 31
0.0000
  0
LINE
  8
47
 10
109.2684
 20
119.3620
 30
0.0000
 11
109.2684
 21
119.9614
 31
0.0000
  0
LINE
  8
47
 10
109.2684
 20
119.9614
 30
0.0000
 11
108.9687
 21
120.2612
 31
0.0000
  0
LINE
  8
47
 10
108.9687
 20
120.2612
 30
0.0000
 11
108.6690
 21
120.2612
 31
0.0000
  0
LINE
  8
47
 10
108.6690
 20
120.2612
 30
0.0000
 11
108.3692
 21
119.9614
 31
0.0000
  0
LINE
  8
47
 10
108.3692
 20
119.9614
 30
0.0000
 11
108.3692
 21
119.0623
 31
0.0000
  0
LINE
  8
47
 10
108.0695
 20
120.9038
 30
0.0000
 11
107.4701
 21
121.5033
 31
0.0000
  0
LINE
  8
47
 10
107.4701
 20
121.5033
 30
0.0000
 11
109.2684
 21
121.5033
 31
0.0000
  0
LINE
  8
47
 10
109.2684
 20
120.9038
 30
0.0000
 11
109.2684
 21
122.1027
 31
0.0000
  0
LINE
  8
47
 10
109.2684
 20
122.7454
 30
0.0000
 11
108.9687
 21
122.7454
 31
0.0000
  0
LINE
  8
47
 10
108.9687
 20
122.7454
 30
0.0000
 11
108.9687
 21
123.0451
 31
0.0000
  0
LINE
  8
47
 10
108.9687
 20
123.0451
 30
0.0000
 11
109.2684
 21
123.0451
 31
0.0000
  0
LINE
  8
47
 10
109.2684
 20
123.0451
 30
0.0000
 11
109.2684
 21
122.7454
 31
0.0000
  0
LINE
  8
47
 10
107.4701
 20
124.8651
 30
0.0000
 11
107.4701
 21
123.6662
 31
0.0000
  0
LINE
  8
47
 10
107.4701
 20
123.6662
 30
0.0000
 11
108.3692
 21
123.6662
 31
0.0000
  0
LINE
  8
47
 10
108.3692
 20
123.6662
 30
0.0000
 11
108.0695
 21
124.2656
 31
0.0000
  0
LINE
  8
47
 10
108.0695
 20
124.2656
 30
0.0000
 11
108.0695
 21
124.5654
 31
0.0000
  0
LINE
  8
47
 10
108.0695
 20
124.5654
 30
0.0000
 11
108.3692
 21
124.8651
 31
0.0000
  0
LINE
  8
47
 10
108.3692
 20
124.8651
 30
0.0000
 11
108.9687
 21
124.8651
 31
0.0000
  0
LINE
  8
47
 10
108.9687
 20
124.8651
 30
0.0000
 11
109.2684
 21
124.5654
 31
0.0000
  0
LINE
  8
47
 10
109.2684
 20
124.5654
 30
0.0000
 11
109.2684
 21
123.9659
 31
0.0000
  0
LINE
  8
47
 10
109.2684
 20
123.9659
 30
0.0000
 11
108.9687
 21
123.6662
 31
0.0000
  0
LINE
  8
47
 10
106.0000
 20
91.0000
 30
0.0000
 11
111.9500
 21
91.0000
 31
0.0000
  0
LINE
  8
47
 10
94.5000
 20
29.5000
 30
0.0000
 11
111.9500
 21
29.5000
 31
0.0000
  0
LINE
  8
47
 10
110.0000
 20
90.9350
 30
0.0000
 11
110.0000
 21
29.5650
 31
0.0000
  0
LINE
  8
47
 10
110.0000
 20
90.9350
 30
0.0000
 11
109.6808
 21
88.4000
 31
0.0000
  0
LINE
  8
47
 10
109.6808
 20
88.4000
 30
0.0000
 11
110.3192
 21
88.4000
 31
0.0000
  0
LINE
  8
47
 10
110.3192
 20
88.4000
 30
0.0000
 11
110.0000
 21
90.9350
 31
0.0000
  0
LINE
  8
47
 10
110.0000
 20
90.9350
 30
0.0000
 11
109.8700
 21
88.4000
 31
0.0000
  0
LINE
  8
47
 10
110.1300
 20
88.4000
 30
0.0000
 11
110.0000
 21
90.9350
 31
0.0000
  0
LINE
  8
47
 10
110.0000
 20
90.9350
 30
0.0000
 11
109.7400
 21
88.4000
 31
0.0000
  0
LINE
  8
47
 10
110.2600
 20
88.4000
 30
0.0000
 11
110.0000
 21
90.9350
 31
0.0000
  0
LINE
  8
47
 10
110.0000
 20
29.5650
 30
0.0000
 11
109.6808
 21
32.1000
 31
0.0000
  0
LINE
  8
47
 10
109.6808
 20
32.1000
 30
0.0000
 11
110.3192
 21
32.1000
 31
0.0000
  0
LINE
  8
47
 10
110.3192
 20
32.1000
 30
0.0000
 11
110.0000
 21
29.5650
 31
0.0000
  0
LINE
  8
47
 10
110.0000
 20
29.5650
 30
0.0000
 11
109.8700
 21
32.1000
 31
0.0000
  0
LINE
  8
47
 10
110.1300
 20
32.1000
 30
0.0000
 11
110.0000
 21
29.5650
 31
0.0000
  0
LINE
  8
47
 10
110.0000
 20
29.5650
 30
0.0000
 11
109.7400
 21
32.1000
 31
0.0000
  0
LINE
  8
47
 10
110.2600
 20
32.1000
 30
0.0000
 11
110.0000
 21
29.5650
 31
0.0000
  0
LINE
  8
47
 10
107.4701
 20
58.7612
 30
0.0000
 11
107.7698
 21
58.1617
 31
0.0000
  0
LINE
  8
47
 10
107.7698
 20
58.1617
 30
0.0000
 11
108.3692
 21
57.5623
 31
0.0000
  0
LINE
  8
47
 10
108.3692
 20
57.5623
 30
0.0000
 11
108.9687
 21
57.5623
 31
0.0000
  0
LINE
  8
47
 10
108.9687
 20
57.5623
 30
0.0000
 11
109.2684
 21
57.8620
 31
0.0000
  0
LINE
  8
47
 10
109.2684
 20
57.8620
 30
0.0000
 11
109.2684
 21
58.4614
 31
0.0000
  0
LINE
  8
47
 10
109.2684
 20
58.4614
 30
0.0000
 11
108.9687
 21
58.7612
 31
0.0000
  0
LINE
  8
47
 10
108.9687
 20
58.7612
 30
0.0000
 11
108.6690
 21
58.7612
 31
0.0000
  0
LINE
  8
47
 10
108.6690
 20
58.7612
 30
0.0000
 11
108.3692
 21
58.4614
 31
0.0000
  0
LINE
  8
47
 10
108.3692
 20
58.4614
 30
0.0000
 11
108.3692
 21
57.5623
 31
0.0000
  0
LINE
  8
47
 10
108.0695
 20
59.4038
 30
0.0000
 11
107.4701
 21
60.0033
 31
0.0000
  0
LINE
  8
47
 10
107.4701
 20
60.0033
 30
0.0000
 11
109.2684
 21
60.0033
 31
0.0000
  0
LINE
  8
47
 10
109.2684
 20
59.4038
 30
0.0000
 11
109.2684
 21
60.6027
 31
0.0000
  0
LINE
  8
47
 10
109.2684
 20
61.2454
 30
0.0000
 11
108.9687
 21
61.2454
 31
0.0000
  0
LINE
  8
47
 10
108.9687
 20
61.2454
 30
0.0000
 11
108.9687
 21
61.5451
 31
0.0000
  0
LINE
  8
47
 10
108.9687
 20
61.5451
 30
0.0000
 11
109.2684
 21
61.5451
 31
0.0000
  0
LINE
  8
47
 10
109.2684
 20
61.5451
 30
0.0000
 11
109.2684
 21
61.2454
 31
0.0000
  0
LINE
  8
47
 10
107.4701
 20
63.3651
 30
0.0000
 11
107.4701
 21
62.1662
 31
0.0000
  0
LINE
  8
47
 10
107.4701
 20
62.1662
 30
0.0000
 11
108.3692
 21
62.1662
 31
0.0000
  0
LINE
  8
47
 10
108.3692
 20
62.1662
 30
0.0000
 11
108.0695
 21
62.7656
 31
0.0000
  0
LINE
  8
47
 10
108.0695
 20
62.7656
 30
0.0000
 11
108.0695
 21
63.0654
 31
0.0000
  0
LINE
  8
47
 10
108.0695
 20
63.0654
 30
0.0000
 11
108.3692
 21
63.3651
 31
0.0000
  0
LINE
  8
47
 10
108.3692
 20
63.3651
 30
0.0000
 11
108.9687
 21
63.3651
 31
0.0000
  0
LINE
  8
47
 10
108.9687
 20
63.3651
 30
0.0000
 11
109.2684
 21
63.0654
 31
0.0000
  0
LINE
  8
47
 10
109.2684
 20
63.0654
 30
0.0000
 11
109.2684
 21
62.4659
 31
0.0000
  0
LINE
  8
47
 10
109.2684
 20
62.4659
 30
0.0000
 11
108.9687
 21
62.1662
 31
0.0000
  0
LINE
  8
47
 10
105.0000
 20
159.0000
 30
0.0000
 11
105.0000
 21
163.9500
 31
0.0000
  0
LINE
  8
47
 10
99.0000
 20
163.5000
 30
0.0000
 11
99.0000
 21
160.0500
 31
0.0000
  0
LINE
  8
47
 10
104.9350
 20
162.0000
 30
0.0000
 11
99.0650
 21
162.0000
 31
0.0000
  0
LINE
  8
47
 10
104.9350
 20
162.0000
 30
0.0000
 11
102.4000
 21
162.3192
 31
0.0000
  0
LINE
  8
47
 10
102.4000
 20
162.3192
 30
0.0000
 11
102.4000
 21
161.6808
 31
0.0000
  0
LINE
  8
47
 10
102.4000
 20
161.6808
 30
0.0000
 11
104.9350
 21
162.0000
 31
0.0000
  0
LINE
  8
47
 10
104.9350
 20
162.0000
 30
0.0000
 11
102.4000
 21
162.1300
 31
0.0000
  0
LINE
  8
47
 10
102.4000
 20
161.8700
 30
0.0000
 11
104.9350
 21
162.0000
 31
0.0000
  0
LINE
  8
47
 10
104.9350
 20
162.0000
 30
0.0000
 11
102.4000
 21
162.2600
 31
0.0000
  0
LINE
  8
47
 10
102.4000
 20
161.7400
 30
0.0000
 11
104.9350
 21
162.0000
 31
0.0000
  0
LINE
  8
47
 10
99.0650
 20
162.0000
 30
0.0000
 11
101.6000
 21
162.3192
 31
0.0000
  0
LINE
  8
47
 10
101.6000
 20
162.3192
 30
0.0000
 11
101.6000
 21
161.6808
 31
0.0000
  0
LINE
  8
47
 10
101.6000
 20
161.6808
 30
0.0000
 11
99.0650
 21
162.0000
 31
0.0000
  0
LINE
  8
47
 10
99.0650
 20
162.0000
 30
0.0000
 11
101.6000
 21
162.1300
 31
0.0000
  0
LINE
  8
47
 10
101.6000
 20
161.8700
 30
0.0000
 11
99.0650
 21
162.0000
 31
0.0000
  0
LINE
  8
47
 10
99.0650
 20
162.0000
 30
0.0000
 11
101.6000
 21
162.2600
 31
0.0000
  0
LINE
  8
47
 10
101.6000
 20
161.7400
 30
0.0000
 11
99.0650
 21
162.0000
 31
0.0000
  0
LINE
  8
47
 10
102.5146
 20
164.5554
 30
0.0000
 11
101.8982
 21
164.2472
 31
0.0000
  0
LINE
  8
47
 10
101.8982
 20
164.2472
 30
0.0000
 11
101.2818
 21
163.6308
 31
0.0000
  0
LINE
  8
47
 10
101.2818
 20
163.6308
 30
0.0000
 11
101.2818
 21
163.0144
 31
0.0000
  0
LINE
  8
47
 10
101.2818
 20
163.0144
 30
0.0000
 11
101.5900
 21
162.7062
 31
0.0000
  0
LINE
  8
47
 10
101.5900
 20
162.7062
 30
0.0000
 11
102.2064
 21
162.7062
 31
0.0000
  0
LINE
  8
47
 10
102.2064
 20
162.7062
 30
0.0000
 11
102.5146
 21
163.0144
 31
0.0000
  0
LINE
  8
47
 10
102.5146
 20
163.0144
 30
0.0000
 11
102.5146
 21
163.3226
 31
0.0000
  0
LINE
  8
47
 10
102.5146
 20
163.3226
 30
0.0000
 11
102.2064
 21
163.6308
 31
0.0000
  0
LINE
  8
47
 10
102.2064
 20
163.6308
 30
0.0000
 11
101.2818
 21
163.6308
 31
0.0000
  0
LINE
  8
47
 10
105.5000
 20
158.5000
 30
0.0000
 11
111.9500
 21
158.5000
 31
0.0000
  0
LINE
  8
47
 10
94.5000
 20
152.5000
 30
0.0000
 11
111.9500
 21
152.5000
 31
0.0000
  0
LINE
  8
47
 10
110.0000
 20
158.4350
 30
0.0000
 11
110.0000
 21
152.5650
 31
0.0000
  0
LINE
  8
47
 10
110.0000
 20
158.4350
 30
0.0000
 11
109.6808
 21
155.9000
 31
0.0000
  0
LINE
  8
47
 10
109.6808
 20
155.9000
 30
0.0000
 11
110.3192
 21
155.9000
 31
0.0000
  0
LINE
  8
47
 10
110.3192
 20
155.9000
 30
0.0000
 11
110.0000
 21
158.4350
 31
0.0000
  0
LINE
  8
47
 10
110.0000
 20
158.4350
 30
0.0000
 11
109.8700
 21
155.9000
 31
0.0000
  0
LINE
  8
47
 10
110.1300
 20
155.9000
 30
0.0000
 11
110.0000
 21
158.4350
 31
0.0000
  0
LINE
  8
47
 10
110.0000
 20
158.4350
 30
0.0000
 11
109.7400
 21
155.9000
 31
0.0000
  0
LINE
  8
47
 10
110.2600
 20
155.9000
 30
0.0000
 11
110.0000
 21
158.4350
 31
0.0000
  0
LINE
  8
47
 10
110.0000
 20
152.5650
 30
0.0000
 11
109.6808
 21
155.1000
 31
0.0000
  0
LINE
  8
47
 10
109.6808
 20
155.1000
 30
0.0000
 11
110.3192
 21
155.1000
 31
0.0000
  0
LINE
  8
47
 10
110.3192
 20
155.1000
 30
0.0000
 11
110.0000
 21
152.5650
 31
0.0000
  0
LINE
  8
47
 10
110.0000
 20
152.5650
 30
0.0000
 11
109.8700
 21
155.1000
 31
0.0000
  0
LINE
  8
47
 10
110.1300
 20
155.1000
 30
0.0000
 11
110.0000
 21
152.5650
 31
0.0000
  0
LINE
  8
47
 10
110.0000
 20
152.5650
 30
0.0000
 11
109.7400
 21
155.1000
 31
0.0000
  0
LINE
  8
47
 10
110.2600
 20
155.1000
 30
0.0000
 11
110.0000
 21
152.5650
 31
0.0000
  0
LINE
  8
47
 10
107.4701
 20
156.0061
 30
0.0000
 11
107.7698
 21
155.4066
 31
0.0000
  0
LINE
  8
47
 10
107.7698
 20
155.4066
 30
0.0000
 11
108.3692
 21
154.8072
 31
0.0000
  0
LINE
  8
47
 10
108.3692
 20
154.8072
 30
0.0000
 11
108.9687
 21
154.8072
 31
0.0000
  0
LINE
  8
47
 10
108.9687
 20
154.8072
 30
0.0000
 11
109.2684
 21
155.1069
 31
0.0000
  0
LINE
  8
47
 10
109.2684
 20
155.1069
 30
0.0000
 11
109.2684
 21
155.7064
 31
0.0000
  0
LINE
  8
47
 10
109.2684
 20
155.7064
 30
0.0000
 11
108.9687
 21
156.0061
 31
0.0000
  0
LINE
  8
47
 10
108.9687
 20
156.0061
 30
0.0000
 11
108.6690
 21
156.0061
 31
0.0000
  0
LINE
  8
47
 10
108.6690
 20
156.0061
 30
0.0000
 11
108.3692
 21
155.7064
 31
0.0000
  0
LINE
  8
47
 10
108.3692
 20
155.7064
 30
0.0000
 11
108.3692
 21
154.8072
 31
0.0000
  0
LINE
  8
47
 10
6.0000
 20
149.5000
 30
0.0000
 11
6.0000
 21
163.9500
 31
0.0000
  0
LINE
  8
47
 10
0.0000
 20
163.5000
 30
0.0000
 11
0.0000
 21
160.0500
 31
0.0000
  0
LINE
  8
47
 10
5.9350
 20
162.0000
 30
0.0000
 11
0.0650
 21
162.0000
 31
0.0000
  0
LINE
  8
47
 10
5.9350
 20
162.0000
 30
0.0000
 11
3.4000
 21
162.3192
 31
0.0000
  0
LINE
  8
47
 10
3.4000
 20
162.3192
 30
0.0000
 11
3.4000
 21
161.6808
 31
0.0000
  0
LINE
  8
47
 10
3.4000
 20
161.6808
 30
0.0000
 11
5.9350
 21
162.0000
 31
0.0000
  0
LINE
  8
47
 10
5.9350
 20
162.0000
 30
0.0000
 11
3.4000
 21
162.1300
 31
0.0000
  0
LINE
  8
47
 10
3.4000
 20
161.8700
 30
0.0000
 11
5.9350
 21
162.0000
 31
0.0000
  0
LINE
  8
47
 10
5.9350
 20
162.0000
 30
0.0000
 11
3.4000
 21
162.2600
 31
0.0000
  0
LINE
  8
47
 10
3.4000
 20
161.7400
 30
0.0000
 11
5.9350
 21
162.0000
 31
0.0000
  0
LINE
  8
47
 10
0.0650
 20
162.0000
 30
0.0000
 11
2.6000
 21
162.3192
 31
0.0000
  0
LINE
  8
47
 10
2.6000
 20
162.3192
 30
0.0000
 11
2.6000
 21
161.6808
 31
0.0000
  0
LINE
  8
47
 10
2.6000
 20
161.6808
 30
0.0000
 11
0.0650
 21
162.0000
 31
0.0000
  0
LINE
  8
47
 10
0.0650
 20
162.0000
 30
0.0000
 11
2.6000
 21
162.1300
 31
0.0000
  0
LINE
  8
47
 10
2.6000
 20
161.8700
 30
0.0000
 11
0.0650
 21
162.0000
 31
0.0000
  0
LINE
  8
47
 10
0.0650
 20
162.0000
 30
0.0000
 11
2.6000
 21
162.2600
 31
0.0000
  0
LINE
  8
47
 10
2.6000
 20
161.7400
 30
0.0000
 11
0.0650
 21
162.0000
 31
0.0000
  0
LINE
  8
47
 10
3.5146
 20
164.5554
 30
0.0000
 11
2.8982
 21
164.2472
 31
0.0000
  0
LINE
  8
47
 10
2.8982
 20
164.2472
 30
0.0000
 11
2.2818
 21
163.6308
 31
0.0000
  0
LINE
  8
47
 10
2.2818
 20
163.6308
 30
0.0000
 11
2.2818
 21
163.0144
 31
0.0000
  0
LINE
  8
47
 10
2.2818
 20
163.0144
 30
0.0000
 11
2.5900
 21
162.7062
 31
0.0000
  0
LINE
  8
47
 10
2.5900
 20
162.7062
 30
0.0000
 11
3.2064
 21
162.7062
 31
0.0000
  0
LINE
  8
47
 10
3.2064
 20
162.7062
 30
0.0000
 11
3.5146
 21
163.0144
 31
0.0000
  0
LINE
  8
47
 10
3.5146
 20
163.0144
 30
0.0000
 11
3.5146
 21
163.3226
 31
0.0000
  0
LINE
  8
47
 10
3.5146
 20
163.3226
 30
0.0000
 11
3.2064
 21
163.6308
 31
0.0000
  0
LINE
  8
47
 10
3.2064
 20
163.6308
 30
0.0000
 11
2.2818
 21
163.6308
 31
0.0000
  0
LINE
  8
47
 10
112.0000
 20
29.5000
 30
0.0000
 11
108.0500
 21
29.5000
 31
0.0000
  0
LINE
  8
47
 10
105.5000
 20
23.5000
 30
0.0000
 11
111.9500
 21
23.5000
 31
0.0000
  0
LINE
  8
47
 10
110.0000
 20
29.4350
 30
0.0000
 11
110.0000
 21
23.5650
 31
0.0000
  0
LINE
  8
47
 10
110.0000
 20
29.4350
 30
0.0000
 11
109.6808
 21
26.9000
 31
0.0000
  0
LINE
  8
47
 10
109.6808
 20
26.9000
 30
0.0000
 11
110.3192
 21
26.9000
 31
0.0000
  0
LINE
  8
47
 10
110.3192
 20
26.9000
 30
0.0000
 11
110.0000
 21
29.4350
 31
0.0000
  0
LINE
  8
47
 10
110.0000
 20
29.4350
 30
0.0000
 11
109.8700
 21
26.9000
 31
0.0000
  0
LINE
  8
47
 10
110.1300
 20
26.9000
 30
0.0000
 11
110.0000
 21
29.4350
 31
0.0000
  0
LINE
  8
47
 10
110.0000
 20
29.4350
 30
0.0000
 11
109.7400
 21
26.9000
 31
0.0000
  0
LINE
  8
47
 10
110.2600
 20
26.9000
 30
0.0000
 11
110.0000
 21
29.4350
 31
0.0000
  0
LINE
  8
47
 10
110.0000
 20
23.5650
 30
0.0000
 11
109.6808
 21
26.1000
 31
0.0000
  0
LINE
  8
47
 10
109.6808
 20
26.1000
 30
0.0000
 11
110.3192
 21
26.1000
 31
0.0000
  0
LINE
  8
47
 10
110.3192
 20
26.1000
 30
0.0000
 11
110.0000
 21
23.5650
 31
0.0000
  0
LINE
  8
47
 10
110.0000
 20
23.5650
 30
0.0000
 11
109.8700
 21
26.1000
 31
0.0000
  0
LINE
  8
47
 10
110.1300
 20
26.1000
 30
0.0000
 11
110.0000
 21
23.5650
 31
0.0000
  0
LINE
  8
47
 10
110.0000
 20
23.5650
 30
0.0000
 11
109.7400
 21
26.1000
 31
0.0000
  0
LINE
  8
47
 10
110.2600
 20
26.1000
 30
0.0000
 11
110.0000
 21
23.5650
 31
0.0000
  0
LINE
  8
47
 10
107.4701
 20
27.0061
 30
0.0000
 11
107.7698
 21
26.4066
 31
0.0000
  0
LINE
  8
47
 10
107.7698
 20
26.4066
 30
0.0000
 11
108.3692
 21
25.8072
 31
0.0000
  0
LINE
  8
47
 10
108.3692
 20
25.8072
 30
0.0000
 11
108.9687
 21
25.8072
 31
0.0000
  0
LINE
  8
47
 10
108.9687
 20
25.8072
 30
0.0000
 11
109.2684
 21
26.1069
 31
0.0000
  0
LINE
  8
47
 10
109.2684
 20
26.1069
 30
0.0000
 11
109.2684
 21
26.7064
 31
0.0000
  0
LINE
  8
47
 10
109.2684
 20
26.7064
 30
0.0000
 11
108.9687
 21
27.0061
 31
0.0000
  0
LINE
  8
47
 10
108.9687
 20
27.0061
 30
0.0000
 11
108.6690
 21
27.0061
 31
0.0000
  0
LINE
  8
47
 10
108.6690
 20
27.0061
 30
0.0000
 11
108.3692
 21
26.7064
 31
0.0000
  0
LINE
  8
47
 10
108.3692
 20
26.7064
 30
0.0000
 11
108.3692
 21
25.8072
 31
0.0000
  0
LINE
  8
47
 10
105.0000
 20
22.5000
 30
0.0000
 11
105.0000
 21
17.0500
 31
0.0000
  0
LINE
  8
47
 10
0.0000
 20
23.0000
 30
0.0000
 11
0.0000
 21
17.0500
 31
0.0000
  0
LINE
  8
47
 10
104.9350
 20
19.0000
 30
0.0000
 11
0.0650
 21
19.0000
 31
0.0000
  0
LINE
  8
47
 10
104.9350
 20
19.0000
 30
0.0000
 11
102.4000
 21
19.3192
 31
0.0000
  0
LINE
  8
47
 10
102.4000
 20
19.3192
 30
0.0000
 11
102.4000
 21
18.6808
 31
0.0000
  0
LINE
  8
47
 10
102.4000
 20
18.6808
 30
0.0000
 11
104.9350
 21
19.0000
 31
0.0000
  0
LINE
  8
47
 10
104.9350
 20
19.0000
 30
0.0000
 11
102.4000
 21
19.1300
 31
0.0000
  0
LINE
  8
47
 10
102.4000
 20
18.8700
 30
0.0000
 11
104.9350
 21
19.0000
 31
0.0000
  0
LINE
  8
47
 10
104.9350
 20
19.0000
 30
0.0000
 11
102.4000
 21
19.2600
 31
0.0000
  0
LINE
  8
47
 10
102.4000
 20
18.7400
 30
0.0000
 11
104.9350
 21
19.0000
 31
0.0000
  0
LINE
  8
47
 10
0.0650
 20
19.0000
 30
0.0000
 11
2.6000
 21
19.3192
 31
0.0000
  0
LINE
  8
47
 10
2.6000
 20
19.3192
 30
0.0000
 11
2.6000
 21
18.6808
 31
0.0000
  0
LINE
  8
47
 10
2.6000
 20
18.6808
 30
0.0000
 11
0.0650
 21
19.0000
 31
0.0000
  0
LINE
  8
47
 10
0.0650
 20
19.0000
 30
0.0000
 11
2.6000
 21
19.1300
 31
0.0000
  0
LINE
  8
47
 10
2.6000
 20
18.8700
 30
0.0000
 11
0.0650
 21
19.0000
 31
0.0000
  0
LINE
  8
47
 10
0.0650
 20
19.0000
 30
0.0000
 11
2.6000
 21
19.2600
 31
0.0000
  0
LINE
  8
47
 10
2.6000
 20
18.7400
 30
0.0000
 11
0.0650
 21
19.0000
 31
0.0000
  0
LINE
  8
47
 10
50.2139
 20
20.9305
 30
0.0000
 11
50.8134
 21
21.5299
 31
0.0000
  0
LINE
  8
47
 10
50.8134
 20
21.5299
 30
0.0000
 11
50.8134
 21
19.7316
 31
0.0000
  0
LINE
  8
47
 10
50.2139
 20
19.7316
 30
0.0000
 11
51.4128
 21
19.7316
 31
0.0000
  0
LINE
  8
47
 10
52.0555
 20
20.0313
 30
0.0000
 11
52.0555
 21
21.2302
 31
0.0000
  0
LINE
  8
47
 10
52.0555
 20
21.2302
 30
0.0000
 11
52.3552
 21
21.5299
 31
0.0000
  0
LINE
  8
47
 10
52.3552
 20
21.5299
 30
0.0000
 11
52.9547
 21
21.5299
 31
0.0000
  0
LINE
  8
47
 10
52.9547
 20
21.5299
 30
0.0000
 11
53.2544
 21
21.2302
 31
0.0000
  0
LINE
  8
47
 10
53.2544
 20
21.2302
 30
0.0000
 11
53.2544
 21
20.0313
 31
0.0000
  0
LINE
  8
47
 10
53.2544
 20
20.0313
 30
0.0000
 11
52.9547
 21
19.7316
 31
0.0000
  0
LINE
  8
47
 10
52.9547
 20
19.7316
 30
0.0000
 11
52.3552
 21
19.7316
 31
0.0000
  0
LINE
  8
47
 10
52.3552
 20
19.7316
 30
0.0000
 11
52.0555
 21
20.0313
 31
0.0000
  0
LINE
  8
47
 10
52.0555
 20
20.0313
 30
0.0000
 11
53.2544
 21
21.2302
 31
0.0000
  0
LINE
  8
47
 10
55.0960
 20
21.5299
 30
0.0000
 11
53.8971
 21
21.5299
 31
0.0000
  0
LINE
  8
47
 10
53.8971
 20
21.5299
 30
0.0000
 11
53.8971
 21
20.6308
 31
0.0000
  0
LINE
  8
47
 10
53.8971
 20
20.6308
 30
0.0000
 11
54.4965
 21
20.9305
 31
0.0000
  0
LINE
  8
47
 10
54.4965
 20
20.9305
 30
0.0000
 11
54.7962
 21
20.9305
 31
0.0000
  0
LINE
  8
47
 10
54.7962
 20
20.9305
 30
0.0000
 11
55.0960
 21
20.6308
 31
0.0000
  0
LINE
  8
47
 10
55.0960
 20
20.6308
 30
0.0000
 11
55.0960
 21
20.0313
 31
0.0000
  0
LINE
  8
47
 10
55.0960
 20
20.0313
 30
0.0000
 11
54.7962
 21
19.7316
 31
0.0000
  0
LINE
  8
47
 10
54.7962
 20
19.7316
 30
0.0000
 11
54.1968
 21
19.7316
 31
0.0000
  0
LINE
  8
47
 10
54.1968
 20
19.7316
 30
0.0000
 11
53.8971
 21
20.0313
 31
0.0000
  0
LINE
  8
47
 10
113.0000
 20
158.5000
 30
0.0000
 11
117.9500
 21
158.5000
 31
0.0000
  0
LINE
  8
47
 10
112.5000
 20
23.5000
 30
0.0000
 11
117.9500
 21
23.5000
 31
0.0000
  0
LINE
  8
47
 10
116.0000
 20
158.4350
 30
0.0000
 11
116.0000
 21
23.5650
 31
0.0000
  0
LINE
  8
47
 10
116.0000
 20
158.4350
 30
0.0000
 11
115.6808
 21
155.9000
 31
0.0000
  0
LINE
  8
47
 10
115.6808
 20
155.9000
 30
0.0000
 11
116.3192
 21
155.9000
 31
0.0000
  0
LINE
  8
47
 10
116.3192
 20
155.9000
 30
0.0000
 11
116.0000
 21
158.4350
 31
0.0000
  0
LINE
  8
47
 10
116.0000
 20
158.4350
 30
0.0000
 11
115.8700
 21
155.9000
 31
0.0000
  0
LINE
  8
47
 10
116.1300
 20
155.9000
 30
0.0000
 11
116.0000
 21
158.4350
 31
0.0000
  0
LINE
  8
47
 10
116.0000
 20
158.4350
 30
0.0000
 11
115.7400
 21
155.9000
 31
0.0000
  0
LINE
  8
47
 10
116.2600
 20
155.9000
 30
0.0000
 11
116.0000
 21
158.4350
 31
0.0000
  0
LINE
  8
47
 10
116.0000
 20
23.5650
 30
0.0000
 11
115.6808
 21
26.1000
 31
0.0000
  0
LINE
  8
47
 10
115.6808
 20
26.1000
 30
0.0000
 11
116.3192
 21
26.1000
 31
0.0000
  0
LINE
  8
47
 10
116.3192
 20
26.1000
 30
0.0000
 11
116.0000
 21
23.5650
 31
0.0000
  0
LINE
  8
47
 10
116.0000
 20
23.5650
 30
0.0000
 11
115.8700
 21
26.1000
 31
0.0000
  0
LINE
  8
47
 10
116.1300
 20
26.1000
 30
0.0000
 11
116.0000
 21
23.5650
 31
0.0000
  0
LINE
  8
47
 10
116.0000
 20
23.5650
 30
0.0000
 11
115.7400
 21
26.1000
 31
0.0000
  0
LINE
  8
47
 10
116.2600
 20
26.1000
 30
0.0000
 11
116.0000
 21
23.5650
 31
0.0000
  0
LINE
  8
47
 10
114.0695
 20
88.7139
 30
0.0000
 11
113.4701
 21
89.3134
 31
0.0000
  0
LINE
  8
47
 10
113.4701
 20
89.3134
 30
0.0000
 11
115.2684
 21
89.3134
 31
0.0000
  0
LINE
  8
47
 10
115.2684
 20
88.7139
 30
0.0000
 11
115.2684
 21
89.9128
 31
0.0000
  0
LINE
  8
47
 10
113.7698
 20
90.5555
 30
0.0000
 11
113.4701
 21
90.8552
 31
0.0000
  0
LINE
  8
47
 10
113.4701
 20
90.8552
 30
0.0000
 11
113.4701
 21
91.4547
 31
0.0000
  0
LINE
  8
47
 10
113.4701
 20
91.4547
 30
0.0000
 11
113.7698
 21
91.7544
 31
0.0000
  0
LINE
  8
47
 10
113.7698
 20
91.7544
 30
0.0000
 11
114.0695
 21
91.7544
 31
0.0000
  0
LINE
  8
47
 10
114.0695
 20
91.7544
 30
0.0000
 11
114.3692
 21
91.4547
 31
0.0000
  0
LINE
  8
47
 10
114.3692
 20
91.4547
 30
0.0000
 11
114.3692
 21
91.1549
 31
0.0000
  0
LINE
  8
47
 10
114.3692
 20
91.4547
 30
0.0000
 11
114.6690
 21
91.7544
 31
0.0000
  0
LINE
  8
47
 10
114.6690
 20
91.7544
 30
0.0000
 11
114.9687
 21
91.7544
 31
0.0000
  0
LINE
  8
47
 10
114.9687
 20
91.7544
 30
0.0000
 11
115.2684
 21
91.4547
 31
0.0000
  0
LINE
  8
47
 10
115.2684
 20
91.4547
 30
0.0000
 11
115.2684
 21
90.8552
 31
0.0000
  0
LINE
  8
47
 10
115.2684
 20
90.8552
 30
0.0000
 11
114.9687
 21
90.5555
 31
0.0000
  0
LINE
  8
47
 10
113.4701
 20
93.5960
 30
0.0000
 11
113.4701
 21
92.3971
 31
0.0000
  0
LINE
  8
47
 10
113.4701
 20
92.3971
 30
0.0000
 11
114.3692
 21
92.3971
 31
0.0000
  0
LINE
  8
47
 10
114.3692
 20
92.3971
 30
0.0000
 11
114.0695
 21
92.9965
 31
0.0000
  0
LINE
  8
47
 10
114.0695
 20
92.9965
 30
0.0000
 11
114.0695
 21
93.2962
 31
0.0000
  0
LINE
  8
47
 10
114.0695
 20
93.2962
 30
0.0000
 11
114.3692
 21
93.5960
 31
0.0000
  0
LINE
  8
47
 10
114.3692
 20
93.5960
 30
0.0000
 11
114.9687
 21
93.5960
 31
0.0000
  0
LINE
  8
47
 10
114.9687
 20
93.5960
 30
0.0000
 11
115.2684
 21
93.2962
 31
0.0000
  0
LINE
  8
47
 10
115.2684
 20
93.2962
 30
0.0000
 11
115.2684
 21
92.6968
 31
0.0000
  0
LINE
  8
47
 10
115.2684
 20
92.6968
 30
0.0000
 11
114.9687
 21
92.3971
 31
0.0000
  0
LINE
  8
47
 10
55.7000
 20
91.0000
 30
0.0000
 11
55.7000
 21
81.5500
 31
0.0000
  0
LINE
  8
47
 10
49.3000
 20
91.0000
 30
0.0000
 11
49.3000
 21
81.5500
 31
0.0000
  0
LINE
  8
47
 10
55.6350
 20
83.5000
 30
0.0000
 11
49.3650
 21
83.5000
 31
0.0000
  0
LINE
  8
47
 10
55.6350
 20
83.5000
 30
0.0000
 11
53.1000
 21
83.8192
 31
0.0000
  0
LINE
  8
47
 10
53.1000
 20
83.8192
 30
0.0000
 11
53.1000
 21
83.1808
 31
0.0000
  0
LINE
  8
47
 10
53.1000
 20
83.1808
 30
0.0000
 11
55.6350
 21
83.5000
 31
0.0000
  0
LINE
  8
47
 10
55.6350
 20
83.5000
 30
0.0000
 11
53.1000
 21
83.6300
 31
0.0000
  0
LINE
  8
47
 10
53.1000
 20
83.3700
 30
0.0000
 11
55.6350
 21
83.5000
 31
0.0000
  0
LINE
  8
47
 10
55.6350
 20
83.5000
 30
0.0000
 11
53.1000
 21
83.7600
 31
0.0000
  0
LINE
  8
47
 10
53.1000
 20
83.2400
 30
0.0000
 11
55.6350
 21
83.5000
 31
0.0000
  0
LINE
  8
47
 10
49.3650
 20
83.5000
 30
0.0000
 11
51.9000
 21
83.8192
 31
0.0000
  0
LINE
  8
47
 10
51.9000
 20
83.8192
 30
0.0000
 11
51.9000
 21
83.1808
 31
0.0000
  0
LINE
  8
47
 10
51.9000
 20
83.1808
 30
0.0000
 11
49.3650
 21
83.5000
 31
0.0000
  0
LINE
  8
47
 10
49.3650
 20
83.5000
 30
0.0000
 11
51.9000
 21
83.6300
 31
0.0000
  0
LINE
  8
47
 10
51.9000
 20
83.3700
 30
0.0000
 11
49.3650
 21
83.5000
 31
0.0000
  0
LINE
  8
47
 10
49.3650
 20
83.5000
 30
0.0000
 11
51.9000
 21
83.7600
 31
0.0000
  0
LINE
  8
47
 10
51.9000
 20
83.2400
 30
0.0000
 11
49.3650
 21
83.5000
 31
0.0000
  0
LINE
  8
47
 10
52.5000
 20
90.6808
 30
0.0000
 11
52.5000
 21
91.3192
 31
0.0000
  0
LINE
  8
47
 10
52.1808
 20
91.0000
 30
0.0000
 11
52.8192
 21
91.0000
 31
0.0000
  0
LINE
  8
47
 10
51.8935
 20
85.7777
 30
0.0000
 11
51.3512
 21
85.5065
 31
0.0000
  0
LINE
  8
47
 10
51.3512
 20
85.5065
 30
0.0000
 11
50.8089
 21
84.9642
 31
0.0000
  0
LINE
  8
47
 10
50.8089
 20
84.9642
 30
0.0000
 11
50.8089
 21
84.4219
 31
0.0000
  0
LINE
  8
47
 10
50.8089
 20
84.4219
 30
0.0000
 11
51.0800
 21
84.1507
 31
0.0000
  0
LINE
  8
47
 10
51.0800
 20
84.1507
 30
0.0000
 11
51.6224
 21
84.1507
 31
0.0000
  0
LINE
  8
47
 10
51.6224
 20
84.1507
 30
0.0000
 11
51.8935
 21
84.4219
 31
0.0000
  0
LINE
  8
47
 10
51.8935
 20
84.4219
 30
0.0000
 11
51.8935
 21
84.6930
 31
0.0000
  0
LINE
  8
47
 10
51.8935
 20
84.6930
 30
0.0000
 11
51.6224
 21
84.9642
 31
0.0000
  0
LINE
  8
47
 10
51.6224
 20
84.9642
 30
0.0000
 11
50.8089
 21
84.9642
 31
0.0000
  0
LINE
  8
47
 10
52.4460
 20
84.1507
 30
0.0000
 11
52.4460
 21
84.4219
 31
0.0000
  0
LINE
  8
47
 10
52.4460
 20
84.4219
 30
0.0000
 11
52.7172
 21
84.4219
 31
0.0000
  0
LINE
  8
47
 10
52.7172
 20
84.4219
 30
0.0000
 11
52.7172
 21
84.1507
 31
0.0000
  0
LINE
  8
47
 10
52.7172
 20
84.1507
 30
0.0000
 11
52.4460
 21
84.1507
 31
0.0000
  0
LINE
  8
47
 10
54.0781
 20
84.1507
 30
0.0000
 11
54.0781
 21
85.7777
 31
0.0000
  0
LINE
  8
47
 10
54.0781
 20
85.7777
 30
0.0000
 11
53.2646
 21
84.9642
 31
0.0000
  0
LINE
  8
47
 10
53.2646
 20
84.9642
 30
0.0000
 11
54.3493
 21
84.9642
 31
0.0000
  0
LINE
  8
47
 10
54.0000
 20
5.0000
 30
0.0000
 11
69.9500
 21
5.0000
 31
0.0000
  0
LINE
  8
47
 10
66.5000
 20
0.0000
 30
0.0000
 11
69.9500
 21
0.0000
 31
0.0000
  0
LINE
  8
47
 10
68.0000
 20
4.9350
 30
0.0000
 11
68.0000
 21
0.0650
 31
0.0000
  0
LINE
  8
47
 10
68.0000
 20
4.9350
 30
0.0000
 11
67.6808
 21
2.4000
 31
0.0000
  0
LINE
  8
47
 10
67.6808
 20
2.4000
 30
0.0000
 11
68.3192
 21
2.4000
 31
0.0000
  0
LINE
  8
47
 10
68.3192
 20
2.4000
 30
0.0000
 11
68.0000
 21
4.9350
 31
0.0000
  0
LINE
  8
47
 10
68.0000
 20
4.9350
 30
0.0000
 11
67.8700
 21
2.4000
 31
0.0000
  0
LINE
  8
47
 10
68.1300
 20
2.4000
 30
0.0000
 11
68.0000
 21
4.9350
 31
0.0000
  0
LINE
  8
47
 10
68.0000
 20
4.9350
 30
0.0000
 11
67.7400
 21
2.4000
 31
0.0000
  0
LINE
  8
47
 10
68.2600
 20
2.4000
 30
0.0000
 11
68.0000
 21
4.9350
 31
0.0000
  0
LINE
  8
47
 10
68.0000
 20
0.0650
 30
0.0000
 11
67.6808
 21
2.6000
 31
0.0000
  0
LINE
  8
47
 10
67.6808
 20
2.6000
 30
0.0000
 11
68.3192
 21
2.6000
 31
0.0000
  0
LINE
  8
47
 10
68.3192
 20
2.6000
 30
0.0000
 11
68.0000
 21
0.0650
 31
0.0000
  0
LINE
  8
47
 10
68.0000
 20
0.0650
 30
0.0000
 11
67.8700
 21
2.6000
 31
0.0000
  0
LINE
  8
47
 10
68.1300
 20
2.6000
 30
0.0000
 11
68.0000
 21
0.0650
 31
0.0000
  0
LINE
  8
47
 10
68.0000
 20
0.0650
 30
0.0000
 11
67.7400
 21
2.6000
 31
0.0000
  0
LINE
  8
47
 10
68.2600
 20
2.6000
 30
0.0000
 11
68.0000
 21
0.0650
 31
0.0000
  0
LINE
  8
47
 10
65.4701
 20
3.0061
 30
0.0000
 11
65.4701
 21
1.8072
 31
0.0000
  0
LINE
  8
47
 10
65.4701
 20
1.8072
 30
0.0000
 11
66.3692
 21
1.8072
 31
0.0000
  0
LINE
  8
47
 10
66.3692
 20
1.8072
 30
0.0000
 11
66.0695
 21
2.4066
 31
0.0000
  0
LINE
  8
47
 10
66.0695
 20
2.4066
 30
0.0000
 11
66.0695
 21
2.7064
 31
0.0000
  0
LINE
  8
47
 10
66.0695
 20
2.7064
 30
0.0000
 11
66.3692
 21
3.0061
 31
0.0000
  0
LINE
  8
47
 10
66.3692
 20
3.0061
 30
0.0000
 11
66.9687
 21
3.0061
 31
0.0000
  0
LINE
  8
47
 10
66.9687
 20
3.0061
 30
0.0000
 11
67.2684
 21
2.7064
 31
0.0000
  0
LINE
  8
47
 10
67.2684
 20
2.7064
 30
0.0000
 11
67.2684
 21
2.1069
 31
0.0000
  0
LINE
  8
47
 10
67.2684
 20
2.1069
 30
0.0000
 11
66.9687
 21
1.8072
 31
0.0000
  0
LINE
  8
47
 10
7.5500
 20
29.5000
 30
0.0000
 11
7.5500
 21
24.5500
 31
0.0000
  0
LINE
  8
47
 10
4.4500
 20
29.5000
 30
0.0000
 11
4.4500
 21
24.5500
 31
0.0000
  0
LINE
  8
47
 10
4.3850
 20
26.5000
 30
0.0000
 11
-0.7500
 21
26.5000
 31
0.0000
  0
LINE
  8
47
 10
7.6150
 20
26.5000
 30
0.0000
 11
13.6846
 21
26.5000
 31
0.0000
  0
LINE
  8
47
 10
7.6150
 20
26.5000
 30
0.0000
 11
10.1500
 21
26.8192
 31
0.0000
  0
LINE
  8
47
 10
10.1500
 20
26.8192
 30
0.0000
 11
10.1500
 21
26.1808
 31
0.0000
  0
LINE
  8
47
 10
10.1500
 20
26.1808
 30
0.0000
 11
7.6150
 21
26.5000
 31
0.0000
  0
LINE
  8
47
 10
7.6150
 20
26.5000
 30
0.0000
 11
10.1500
 21
26.6300
 31
0.0000
  0
LINE
  8
47
 10
10.1500
 20
26.3700
 30
0.0000
 11
7.6150
 21
26.5000
 31
0.0000
  0
LINE
  8
47
 10
7.6150
 20
26.5000
 30
0.0000
 11
10.1500
 21
26.7600
 31
0.0000
  0
LINE
  8
47
 10
10.1500
 20
26.2400
 30
0.0000
 11
7.6150
 21
26.5000
 31
0.0000
  0
LINE
  8
47
 10
4.3850
 20
26.5000
 30
0.0000
 11
1.8500
 21
26.8192
 31
0.0000
  0
LINE
  8
47
 10
1.8500
 20
26.8192
 30
0.0000
 11
1.8500
 21
26.1808
 31
0.0000
  0
LINE
  8
47
 10
1.8500
 20
26.1808
 30
0.0000
 11
4.3850
 21
26.5000
 31
0.0000
  0
LINE
  8
47
 10
4.3850
 20
26.5000
 30
0.0000
 11
1.8500
 21
26.6300
 31
0.0000
  0
LINE
  8
47
 10
1.8500
 20
26.3700
 30
0.0000
 11
4.3850
 21
26.5000
 31
0.0000
  0
LINE
  8
47
 10
4.3850
 20
26.5000
 30
0.0000
 11
1.8500
 21
26.7600
 31
0.0000
  0
LINE
  8
47
 10
1.8500
 20
26.2400
 30
0.0000
 11
4.3850
 21
26.5000
 31
0.0000
  0
LINE
  8
47
 10
6.0000
 20
29.1808
 30
0.0000
 11
6.0000
 21
29.8192
 31
0.0000
  0
LINE
  8
47
 10
5.6808
 20
29.5000
 30
0.0000
 11
6.3192
 21
29.5000
 31
0.0000
  0
LINE
  8
47
 10
10.2262
 20
28.5065
 30
0.0000
 11
10.4974
 21
28.7777
 31
0.0000
  0
LINE
  8
47
 10
10.4974
 20
28.7777
 30
0.0000
 11
11.0397
 21
28.7777
 31
0.0000
  0
LINE
  8
47
 10
11.0397
 20
28.7777
 30
0.0000
 11
11.3109
 21
28.5065
 31
0.0000
  0
LINE
  8
47
 10
11.3109
 20
28.5065
 30
0.0000
 11
11.3109
 21
28.2354
 31
0.0000
  0
LINE
  8
47
 10
11.3109
 20
28.2354
 30
0.0000
 11
11.0397
 21
27.9642
 31
0.0000
  0
LINE
  8
47
 10
11.0397
 20
27.9642
 30
0.0000
 11
10.7685
 21
27.9642
 31
0.0000
  0
LINE
  8
47
 10
11.0397
 20
27.9642
 30
0.0000
 11
11.3109
 21
27.6930
 31
0.0000
  0
LINE
  8
47
 10
11.3109
 20
27.6930
 30
0.0000
 11
11.3109
 21
27.4219
 31
0.0000
  0
LINE
  8
47
 10
11.3109
 20
27.4219
 30
0.0000
 11
11.0397
 21
27.1507
 31
0.0000
  0
LINE
  8
47
 10
11.0397
 20
27.1507
 30
0.0000
 11
10.4974
 21
27.1507
 31
0.0000
  0
LINE
  8
47
 10
10.4974
 20
27.1507
 30
0.0000
 11
10.2262
 21
27.4219
 31
0.0000
  0
LINE
  8
47
 10
11.8634
 20
27.1507
 30
0.0000
 11
11.8634
 21
27.4219
 31
0.0000
  0
LINE
  8
47
 10
11.8634
 20
27.4219
 30
0.0000
 11
12.1345
 21
27.4219
 31
0.0000
  0
LINE
  8
47
 10
12.1345
 20
27.4219
 30
0.0000
 11
12.1345
 21
27.1507
 31
0.0000
  0
LINE
  8
47
 10
12.1345
 20
27.1507
 30
0.0000
 11
11.8634
 21
27.1507
 31
0.0000
  0
LINE
  8
47
 10
12.6819
 20
28.2354
 30
0.0000
 11
13.2243
 21
28.7777
 31
0.0000
  0
LINE
  8
47
 10
13.2243
 20
28.7777
 30
0.0000
 11
13.2243
 21
27.1507
 31
0.0000
  0
LINE
  8
47
 10
12.6819
 20
27.1507
 30
0.0000
 11
13.7666
 21
27.1507
 31
0.0000
  0
LINE
  8
47
 10
59.0000
 20
4.5000
 30
0.0000
 11
59.0000
 21
-7.9500
 31
0.0000
  0
LINE
  8
47
 10
46.0000
 20
4.5000
 30
0.0000
 11
46.0000
 21
-7.9500
 31
0.0000
  0
LINE
  8
47
 10
58.9350
 20
-6.0000
 30
0.0000
 11
46.0650
 21
-6.0000
 31
0.0000
  0
LINE
  8
47
 10
58.9350
 20
-6.0000
 30
0.0000
 11
56.4000
 21
-5.6808
 31
0.0000
  0
LINE
  8
47
 10
56.4000
 20
-5.6808
 30
0.0000
 11
56.4000
 21
-6.3192
 31
0.0000
  0
LINE
  8
47
 10
56.4000
 20
-6.3192
 30
0.0000
 11
58.9350
 21
-6.0000
 31
0.0000
  0
LINE
  8
47
 10
58.9350
 20
-6.0000
 30
0.0000
 11
56.4000
 21
-5.8700
 31
0.0000
  0
LINE
  8
47
 10
56.4000
 20
-6.1300
 30
0.0000
 11
58.9350
 21
-6.0000
 31
0.0000
  0
LINE
  8
47
 10
58.9350
 20
-6.0000
 30
0.0000
 11
56.4000
 21
-5.7400
 31
0.0000
  0
LINE
  8
47
 10
56.4000
 20
-6.2600
 30
0.0000
 11
58.9350
 21
-6.0000
 31
0.0000
  0
LINE
  8
47
 10
46.0650
 20
-6.0000
 30
0.0000
 11
48.6000
 21
-5.6808
 31
0.0000
  0
LINE
  8
47
 10
48.6000
 20
-5.6808
 30
0.0000
 11
48.6000
 21
-6.3192
 31
0.0000
  0
LINE
  8
47
 10
48.6000
 20
-6.3192
 30
0.0000
 11
46.0650
 21
-6.0000
 31
0.0000
  0
LINE
  8
47
 10
46.0650
 20
-6.0000
 30
0.0000
 11
48.6000
 21
-5.8700
 31
0.0000
  0
LINE
  8
47
 10
48.6000
 20
-6.1300
 30
0.0000
 11
46.0650
 21
-6.0000
 31
0.0000
  0
LINE
  8
47
 10
46.0650
 20
-6.0000
 30
0.0000
 11
48.6000
 21
-5.7400
 31
0.0000
  0
LINE
  8
47
 10
48.6000
 20
-6.2600
 30
0.0000
 11
46.0650
 21
-6.0000
 31
0.0000
  0
LINE
  8
47
 10
50.9829
 20
-4.0610
 30
0.0000
 11
51.5993
 21
-3.4446
 31
0.0000
  0
LINE
  8
47
 10
51.5993
 20
-3.4446
 30
0.0000
 11
51.5993
 21
-5.2938
 31
0.0000
  0
LINE
  8
47
 10
50.9829
 20
-5.2938
 30
0.0000
 11
52.2157
 21
-5.2938
 31
0.0000
  0
LINE
  8
47
 10
52.8245
 20
-3.7528
 30
0.0000
 11
53.1327
 21
-3.4446
 31
0.0000
  0
LINE
  8
47
 10
53.1327
 20
-3.4446
 30
0.0000
 11
53.7491
 21
-3.4446
 31
0.0000
  0
LINE
  8
47
 10
53.7491
 20
-3.4446
 30
0.0000
 11
54.0573
 21
-3.7528
 31
0.0000
  0
LINE
  8
47
 10
54.0573
 20
-3.7528
 30
0.0000
 11
54.0573
 21
-4.0610
 31
0.0000
  0
LINE
  8
47
 10
54.0573
 20
-4.0610
 30
0.0000
 11
53.7491
 21
-4.3692
 31
0.0000
  0
LINE
  8
47
 10
53.7491
 20
-4.3692
 30
0.0000
 11
53.4409
 21
-4.3692
 31
0.0000
  0
LINE
  8
47
 10
53.7491
 20
-4.3692
 30
0.0000
 11
54.0573
 21
-4.6774
 31
0.0000
  0
LINE
  8
47
 10
54.0573
 20
-4.6774
 30
0.0000
 11
54.0573
 21
-4.9856
 31
0.0000
  0
LINE
  8
47
 10
54.0573
 20
-4.9856
 30
0.0000
 11
53.7491
 21
-5.2938
 31
0.0000
  0
LINE
  8
47
 10
53.7491
 20
-5.2938
 30
0.0000
 11
53.1327
 21
-5.2938
 31
0.0000
  0
LINE
  8
47
 10
53.1327
 20
-5.2938
 30
0.0000
 11
52.8245
 21
-4.9856
 31
0.0000
  0
LINE
  8
47
 10
106.0000
 20
1.5000
 30
0.0000
 11
109.4500
 21
1.5000
 31
0.0000
  0
LINE
  8
47
 10
106.0000
 20
0.0000
 30
0.0000
 11
109.4500
 21
0.0000
 31
0.0000
  0
LINE
  8
47
 10
107.5000
 20
-0.0650
 30
0.0000
 11
107.5000
 21
-5.2000
 31
0.0000
  0
LINE
  8
47
 10
107.5000
 20
1.5650
 30
0.0000
 11
107.5000
 21
8.0809
 31
0.0000
  0
LINE
  8
47
 10
107.5000
 20
1.5650
 30
0.0000
 11
107.1808
 21
4.1000
 31
0.0000
  0
LINE
  8
47
 10
107.1808
 20
4.1000
 30
0.0000
 11
107.8192
 21
4.1000
 31
0.0000
  0
LINE
  8
47
 10
107.8192
 20
4.1000
 30
0.0000
 11
107.5000
 21
1.5650
 31
0.0000
  0
LINE
  8
47
 10
107.5000
 20
1.5650
 30
0.0000
 11
107.3700
 21
4.1000
 31
0.0000
  0
LINE
  8
47
 10
107.6300
 20
4.1000
 30
0.0000
 11
107.5000
 21
1.5650
 31
0.0000
  0
LINE
  8
47
 10
107.5000
 20
1.5650
 30
0.0000
 11
107.2400
 21
4.1000
 31
0.0000
  0
LINE
  8
47
 10
107.7600
 20
4.1000
 30
0.0000
 11
107.5000
 21
1.5650
 31
0.0000
  0
LINE
  8
47
 10
107.5000
 20
-0.0650
 30
0.0000
 11
107.1808
 21
-2.6000
 31
0.0000
  0
LINE
  8
47
 10
107.1808
 20
-2.6000
 30
0.0000
 11
107.8192
 21
-2.6000
 31
0.0000
  0
LINE
  8
47
 10
107.8192
 20
-2.6000
 30
0.0000
 11
107.5000
 21
-0.0650
 31
0.0000
  0
LINE
  8
47
 10
107.5000
 20
-0.0650
 30
0.0000
 11
107.3700
 21
-2.6000
 31
0.0000
  0
LINE
  8
47
 10
107.6300
 20
-2.6000
 30
0.0000
 11
107.5000
 21
-0.0650
 31
0.0000
  0
LINE
  8
47
 10
107.5000
 20
-0.0650
 30
0.0000
 11
107.2400
 21
-2.6000
 31
0.0000
  0
LINE
  8
47
 10
107.7600
 20
-2.6000
 30
0.0000
 11
107.5000
 21
-0.0650
 31
0.0000
  0
LINE
  8
47
 10
105.5695
 20
4.2016
 30
0.0000
 11
104.9701
 21
4.8010
 31
0.0000
  0
LINE
  8
47
 10
104.9701
 20
4.8010
 30
0.0000
 11
106.7684
 21
4.8010
 31
0.0000
  0
LINE
  8
47
 10
106.7684
 20
4.2016
 30
0.0000
 11
106.7684
 21
5.4005
 31
0.0000
  0
LINE
  8
47
 10
106.7684
 20
6.0432
 30
0.0000
 11
106.4687
 21
6.0432
 31
0.0000
  0
LINE
  8
47
 10
106.4687
 20
6.0432
 30
0.0000
 11
106.4687
 21
6.3429
 31
0.0000
  0
LINE
  8
47
 10
106.4687
 20
6.3429
 30
0.0000
 11
106.7684
 21
6.3429
 31
0.0000
  0
LINE
  8
47
 10
106.7684
 20
6.3429
 30
0.0000
 11
106.7684
 21
6.0432
 31
0.0000
  0
LINE
  8
47
 10
104.9701
 20
8.1628
 30
0.0000
 11
104.9701
 21
6.9640
 31
0.0000
  0
LINE
  8
47
 10
104.9701
 20
6.9640
 30
0.0000
 11
105.8692
 21
6.9640
 31
0.0000
  0
LINE
  8
47
 10
105.8692
 20
6.9640
 30
0.0000
 11
105.5695
 21
7.5634
 31
0.0000
  0
LINE
  8
47
 10
105.5695
 20
7.5634
 30
0.0000
 11
105.5695
 21
7.8631
 31
0.0000
  0
LINE
  8
47
 10
105.5695
 20
7.8631
 30
0.0000
 11
105.8692
 21
8.1628
 31
0.0000
  0
LINE
  8
47
 10
105.8692
 20
8.1628
 30
0.0000
 11
106.4687
 21
8.1628
 31
0.0000
  0
LINE
  8
47
 10
106.4687
 20
8.1628
 30
0.0000
 11
106.7684
 21
7.8631
 31
0.0000
  0
LINE
  8
47
 10
106.7684
 20
7.8631
 30
0.0000
 11
106.7684
 21
7.2637
 31
0.0000
  0
LINE
  8
47
 10
106.7684
 20
7.2637
 30
0.0000
 11
106.4687
 21
6.9640
 31
0.0000
  0
CIRCLE
  8
20
 10
52.5000
 20
91.0000
 30
0.0000
 40
3.2000
  0
CIRCLE
  8
20
 10
99.0000
 20
29.5000
 30
0.0000
 40
1.5000
  0
CIRCLE
  8
20
 10
99.0000
 20
152.5000
 30
0.0000
 40
1.5500
  0
CIRCLE
  8
20
 10
6.0000
 20
152.5000
 30
0.0000
 40
1.5500
  0
CIRCLE
  8
20
 10
6.0000
 20
29.5000
 30
0.0000
 40
1.5500
  0
CIRCLE
  8
100
 10
52.5000
 20
91.0000
 30
0.0000
 40
66.0000
  0
ENDSEC
  0
EOF
