  0
SECTION
  2
HEADER
  9
$ACADVER
  1
AC1009
  9
$FILLMODE
 70
0
  9
$EXTMIN
 10
-0.0650
 20
-0.0650
 30
0.0000
  9
$EXTMAX
 10
290.0500
 20
85.8333
 30
0.0000
  0
ENDSEC
  0
SECTION
  2
TABLES
  0
TABLE
  2
LTYPE
 70
1
  0
LTYPE
  2
CONTINUOUS
 70
64
  3
Solid line
 72
65
 73
0
 40
0
  0
ENDTAB
  0
TABLE
  2
LAYER
 70
255
  0
LAYER
  2
20
 70
64
 62
7
  6
CONTINUOUS
  0
LAYER
  2
47
 70
64
 62
2
  6
CONTINUOUS
  0
LAYER
  2
51
 70
64
 62
253
  6
CONTINUOUS
  0
LAYER
  2
100
 70
64
 62
22
  6
CONTINUOUS
  0
LAYER
  2
120
 70
64
 62
4
  6
CONTINUOUS
  0
ENDTAB
  0
ENDSEC
  0
SECTION
  2
BLOCKS
  0
BLOCK
  8
0
  2
RECT
 70
64
 10
0.0000
 20
0.0000
 30
0.0000
  3
RECT
  0
SOLID
  8
0
 10
-0.5000
 20
-0.5000
 30
0.0000
 11
0.5000
 21
-0.5000
 31
0.0000
 12
-0.5000
 22
0.5000
 32
0.0000
 13
0.5000
 23
0.5000
 33
0.0000
  0
ENDBLK
  8
0
  0
BLOCK
  8
0
  2
PIE
 70
64
 10
0.0000
 20
0.0000
 30
0.0000
  3
PIE
  0
CIRCLE
  8
0
 10
0.0000
 20
0.0000
 30
0.0000
 40
0.5000
  0
ENDBLK
  8
0
  0
BLOCK
  8
0
  2
OCTAGONP
 70
64
 10
0.0000
 20
0.0000
 30
0.0000
  3
OCTAGONP
  0
POLYLINE
  8
0
 66
1
 10
0.0000
 20
0.0000
 30
0.0000
 40
0.0000
 41
0.0000
 70
1
  0
VERTEX
  8
0
 10
-0.5000
 20
-0.2071
 30
0.0000
  0
VERTEX
  8
0
 10
-0.5000
 20
0.2071
 30
0.0000
  0
VERTEX
  8
0
 10
-0.2071
 20
0.5000
 30
0.0000
  0
VERTEX
  8
0
 10
0.2071
 20
0.5000
 30
0.0000
  0
VERTEX
  8
0
 10
0.5000
 20
0.2071
 30
0.0000
  0
VERTEX
  8
0
 10
0.5000
 20
-0.2071
 30
0.0000
  0
VERTEX
  8
0
 10
0.2071
 20
-0.5000
 30
0.0000
  0
VERTEX
  8
0
 10
-0.2071
 20
-0.5000
 30
0.0000
  0
SEQEND
  8
0
  0
ENDBLK
  8
0
  0
BLOCK
  8
0
  2
SQUAREP
 70
64
 10
0.0000
 20
0.0000
 30
0.0000
  3
SQUAREP
  0
SOLID
  8
0
 10
-0.5000
 20
-0.5000
 30
0.0000
 11
0.5000
 21
-0.5000
 31
0.0000
 12
-0.5000
 22
0.5000
 32
0.0000
 13
0.5000
 23
0.5000
 33
0.0000
  0
ENDBLK
  8
0
  0
BLOCK
  8
0
  2
ROUNDP
 70
64
 10
0.0000
 20
0.0000
 30
0.0000
  3
ROUNDP
  0
CIRCLE
  8
0
 10
0.0000
 20
0.0000
 30
0.0000
 40
0.5000
  0
ENDBLK
  8
0
  0
BLOCK
  8
0
  2
ANNULUSP
 70
64
 10
0.0000
 20
0.0000
 30
0.0000
  3
ANNULUSP
  0
CIRCLE
  8
0
 10
0.0000
 20
0.0000
 30
0.0000
 40
0.5000
  0
ENDBLK
  8
0
  0
BLOCK
  8
0
  2
THERMALP
 70
64
 10
0.0000
 20
0.0000
 30
0.0000
  3
THERMALP
  0
LINE
  8
0
 10
-0.2379
 20
0.4500
 30
0.0000
 11
0.2379
 21
0.4500
 31
0.0000
  0
LINE
  8
0
 10
0.4500
 20
0.2379
 30
0.0000
 11
0.4500
 21
-0.2379
 31
0.0000
  0
LINE
  8
0
 10
0.2379
 20
-0.4500
 30
0.0000
 11
-0.2379
 21
-0.4500
 31
0.0000
  0
LINE
  8
0
 10
-0.4500
 20
-0.2379
 30
0.0000
 11
-0.4500
 21
0.2379
 31
0.0000
  0
ENDBLK
  8
0
  0
BLOCK
  8
0
  2
OCTAGONV
 70
64
 10
0.0000
 20
0.0000
 30
0.0000
  3
OCTAGONV
  0
POLYLINE
  8
0
 66
1
 10
0.0000
 20
0.0000
 30
0.0000
 40
0.0000
 41
0.0000
 70
1
  0
VERTEX
  8
0
 10
-0.5000
 20
-0.2071
 30
0.0000
  0
VERTEX
  8
0
 10
-0.5000
 20
0.2071
 30
0.0000
  0
VERTEX
  8
0
 10
-0.2071
 20
0.5000
 30
0.0000
  0
VERTEX
  8
0
 10
0.2071
 20
0.5000
 30
0.0000
  0
VERTEX
  8
0
 10
0.5000
 20
0.2071
 30
0.0000
  0
VERTEX
  8
0
 10
0.5000
 20
-0.2071
 30
0.0000
  0
VERTEX
  8
0
 10
0.2071
 20
-0.5000
 30
0.0000
  0
VERTEX
  8
0
 10
-0.2071
 20
-0.5000
 30
0.0000
  0
SEQEND
  8
0
  0
ENDBLK
  8
0
  0
BLOCK
  8
0
  2
SQUAREV
 70
64
 10
0.0000
 20
0.0000
 30
0.0000
  3
SQUAREV
  0
SOLID
  8
0
 10
-0.5000
 20
-0.5000
 30
0.0000
 11
0.5000
 21
-0.5000
 31
0.0000
 12
-0.5000
 22
0.5000
 32
0.0000
 13
0.5000
 23
0.5000
 33
0.0000
  0
ENDBLK
  8
0
  0
BLOCK
  8
0
  2
ROUNDV
 70
64
 10
0.0000
 20
0.0000
 30
0.0000
  3
ROUNDV
  0
CIRCLE
  8
0
 10
0.0000
 20
0.0000
 30
0.0000
 40
0.5000
  0
ENDBLK
  8
0
  0
BLOCK
  8
0
  2
ANNULUSV
 70
64
 10
0.0000
 20
0.0000
 30
0.0000
  3
ANNULUSV
  0
CIRCLE
  8
0
 10
0.0000
 20
0.0000
 30
0.0000
 40
0.5000
  0
ENDBLK
  8
0
  0
BLOCK
  8
0
  2
THERMALV
 70
64
 10
0.0000
 20
0.0000
 30
0.0000
  3
THERMALV
  0
LINE
  8
0
 10
-0.2379
 20
0.4500
 30
0.0000
 11
0.2379
 21
0.4500
 31
0.0000
  0
LINE
  8
0
 10
0.4500
 20
0.2379
 30
0.0000
 11
0.4500
 21
-0.2379
 31
0.0000
  0
LINE
  8
0
 10
0.2379
 20
-0.4500
 30
0.0000
 11
-0.2379
 21
-0.4500
 31
0.0000
  0
LINE
  8
0
 10
-0.4500
 20
-0.2379
 30
0.0000
 11
-0.4500
 21
0.2379
 31
0.0000
  0
ENDBLK
  8
0
  0
ENDSEC
  0
SECTION
  2
ENTITIES
  0
LINE
  8
120
 10
82.5000
 20
65.5000
 30
0.0000
 11
149.5000
 21
65.5000
 31
0.0000
  0
LINE
  8
120
 10
149.5000
 20
65.5000
 30
0.0000
 11
149.5000
 21
14.5000
 31
0.0000
  0
LINE
  8
120
 10
149.5000
 20
14.5000
 30
0.0000
 11
82.5000
 21
14.5000
 31
0.0000
  0
LINE
  8
120
 10
82.5000
 20
14.5000
 30
0.0000
 11
82.5000
 21
65.5000
 31
0.0000
  0
LINE
  8
120
 10
272.5000
 20
47.5000
 30
0.0000
 11
250.5000
 21
47.5000
 31
0.0000
  0
LINE
  8
120
 10
250.5000
 20
47.5000
 30
0.0000
 11
250.5000
 21
37.5000
 31
0.0000
  0
LINE
  8
120
 10
250.5000
 20
37.5000
 30
0.0000
 11
272.5000
 21
37.5000
 31
0.0000
  0
LINE
  8
120
 10
199.5000
 20
47.5000
 30
0.0000
 11
177.5000
 21
47.5000
 31
0.0000
  0
LINE
  8
120
 10
177.5000
 20
47.5000
 30
0.0000
 11
177.5000
 21
37.5000
 31
0.0000
  0
LINE
  8
120
 10
177.5000
 20
37.5000
 30
0.0000
 11
199.5000
 21
37.5000
 31
0.0000
  0
LINE
  8
120
 10
199.5000
 20
37.5000
 30
0.0000
 11
199.5000
 21
47.5000
 31
0.0000
  0
LINE
  8
120
 10
290.0000
 20
75.0000
 30
0.0000
 11
290.0000
 21
5.0000
 31
0.0000
  0
LINE
  8
120
 10
285.0000
 20
80.0000
 30
0.0000
 11
5.0000
 21
80.0000
 31
0.0000
  0
LINE
  8
120
 10
5.0000
 20
0.0000
 30
0.0000
 11
285.0000
 21
0.0000
 31
0.0000
  0
LINE
  8
120
 10
0.0000
 20
5.0000
 30
0.0000
 11
0.0000
 21
75.0000
 31
0.0000
  0
ARC
  8
120
 10
5.0000
 20
75.0000
 30
0.0000
 40
5.0000
 50
90.0000
 51
180.0000
  0
ARC
  8
120
 10
5.0000
 20
5.0000
 30
0.0000
 40
5.0000
 50
180.0000
 51
270.0000
  0
ARC
  8
120
 10
285.0000
 20
5.0000
 30
0.0000
 40
5.0000
 50
270.0000
 51
0.0000
  0
LINE
  8
120
 10
272.5000
 20
37.5000
 30
0.0000
 11
272.5000
 21
47.5000
 31
0.0000
  0
ARC
  8
120
 10
285.0000
 20
75.0000
 30
0.0000
 40
5.0000
 50
0.0000
 51
90.0000
  0
LINE
  8
100
 10
77.5000
 20
68.0000
 30
0.0000
 11
78.5000
 21
68.0000
 31
0.0000
  0
LINE
  8
100
 10
79.5000
 20
68.0000
 30
0.0000
 11
80.5000
 21
68.0000
 31
0.0000
  0
LINE
  8
100
 10
81.5000
 20
68.0000
 30
0.0000
 11
82.5000
 21
68.0000
 31
0.0000
  0
LINE
  8
100
 10
83.5000
 20
68.0000
 30
0.0000
 11
84.5000
 21
68.0000
 31
0.0000
  0
LINE
  8
100
 10
85.5000
 20
68.0000
 30
0.0000
 11
86.5000
 21
68.0000
 31
0.0000
  0
LINE
  8
100
 10
87.5000
 20
68.0000
 30
0.0000
 11
88.5000
 21
68.0000
 31
0.0000
  0
LINE
  8
100
 10
89.5000
 20
68.0000
 30
0.0000
 11
90.5000
 21
68.0000
 31
0.0000
  0
LINE
  8
100
 10
91.5000
 20
68.0000
 30
0.0000
 11
92.5000
 21
68.0000
 31
0.0000
  0
LINE
  8
100
 10
93.5000
 20
68.0000
 30
0.0000
 11
94.5000
 21
68.0000
 31
0.0000
  0
LINE
  8
100
 10
95.5000
 20
68.0000
 30
0.0000
 11
96.5000
 21
68.0000
 31
0.0000
  0
LINE
  8
100
 10
97.5000
 20
68.0000
 30
0.0000
 11
98.5000
 21
68.0000
 31
0.0000
  0
LINE
  8
100
 10
99.5000
 20
68.0000
 30
0.0000
 11
100.5000
 21
68.0000
 31
0.0000
  0
LINE
  8
100
 10
101.5000
 20
68.0000
 30
0.0000
 11
102.5000
 21
68.0000
 31
0.0000
  0
LINE
  8
100
 10
103.5000
 20
68.0000
 30
0.0000
 11
104.5000
 21
68.0000
 31
0.0000
  0
LINE
  8
100
 10
105.5000
 20
68.0000
 30
0.0000
 11
106.5000
 21
68.0000
 31
0.0000
  0
LINE
  8
100
 10
107.5000
 20
68.0000
 30
0.0000
 11
108.5000
 21
68.0000
 31
0.0000
  0
LINE
  8
100
 10
109.5000
 20
68.0000
 30
0.0000
 11
110.5000
 21
68.0000
 31
0.0000
  0
LINE
  8
100
 10
111.5000
 20
68.0000
 30
0.0000
 11
112.5000
 21
68.0000
 31
0.0000
  0
LINE
  8
100
 10
113.5000
 20
68.0000
 30
0.0000
 11
114.5000
 21
68.0000
 31
0.0000
  0
LINE
  8
100
 10
115.5000
 20
68.0000
 30
0.0000
 11
116.5000
 21
68.0000
 31
0.0000
  0
LINE
  8
100
 10
117.5000
 20
68.0000
 30
0.0000
 11
118.5000
 21
68.0000
 31
0.0000
  0
LINE
  8
100
 10
119.5000
 20
68.0000
 30
0.0000
 11
120.5000
 21
68.0000
 31
0.0000
  0
LINE
  8
100
 10
121.5000
 20
68.0000
 30
0.0000
 11
122.5000
 21
68.0000
 31
0.0000
  0
LINE
  8
100
 10
123.5000
 20
68.0000
 30
0.0000
 11
124.5000
 21
68.0000
 31
0.0000
  0
LINE
  8
100
 10
125.5000
 20
68.0000
 30
0.0000
 11
126.5000
 21
68.0000
 31
0.0000
  0
LINE
  8
100
 10
127.5000
 20
68.0000
 30
0.0000
 11
128.5000
 21
68.0000
 31
0.0000
  0
LINE
  8
100
 10
129.5000
 20
68.0000
 30
0.0000
 11
130.5000
 21
68.0000
 31
0.0000
  0
LINE
  8
100
 10
131.5000
 20
68.0000
 30
0.0000
 11
132.5000
 21
68.0000
 31
0.0000
  0
LINE
  8
100
 10
133.5000
 20
68.0000
 30
0.0000
 11
134.5000
 21
68.0000
 31
0.0000
  0
LINE
  8
100
 10
135.5000
 20
68.0000
 30
0.0000
 11
136.5000
 21
68.0000
 31
0.0000
  0
LINE
  8
100
 10
137.5000
 20
68.0000
 30
0.0000
 11
138.5000
 21
68.0000
 31
0.0000
  0
LINE
  8
100
 10
139.5000
 20
68.0000
 30
0.0000
 11
140.5000
 21
68.0000
 31
0.0000
  0
LINE
  8
100
 10
141.5000
 20
68.0000
 30
0.0000
 11
142.5000
 21
68.0000
 31
0.0000
  0
LINE
  8
100
 10
143.5000
 20
68.0000
 30
0.0000
 11
144.5000
 21
68.0000
 31
0.0000
  0
LINE
  8
100
 10
145.5000
 20
68.0000
 30
0.0000
 11
146.5000
 21
68.0000
 31
0.0000
  0
LINE
  8
100
 10
147.5000
 20
68.0000
 30
0.0000
 11
148.5000
 21
68.0000
 31
0.0000
  0
LINE
  8
100
 10
149.5000
 20
68.0000
 30
0.0000
 11
150.5000
 21
68.0000
 31
0.0000
  0
LINE
  8
100
 10
77.5000
 20
12.5000
 30
0.0000
 11
78.5000
 21
12.5000
 31
0.0000
  0
LINE
  8
100
 10
79.5000
 20
12.5000
 30
0.0000
 11
80.5000
 21
12.5000
 31
0.0000
  0
LINE
  8
100
 10
81.5000
 20
12.5000
 30
0.0000
 11
82.5000
 21
12.5000
 31
0.0000
  0
LINE
  8
100
 10
83.5000
 20
12.5000
 30
0.0000
 11
84.5000
 21
12.5000
 31
0.0000
  0
LINE
  8
100
 10
85.5000
 20
12.5000
 30
0.0000
 11
86.5000
 21
12.5000
 31
0.0000
  0
LINE
  8
100
 10
87.5000
 20
12.5000
 30
0.0000
 11
88.5000
 21
12.5000
 31
0.0000
  0
LINE
  8
100
 10
89.5000
 20
12.5000
 30
0.0000
 11
90.5000
 21
12.5000
 31
0.0000
  0
LINE
  8
100
 10
91.5000
 20
12.5000
 30
0.0000
 11
92.5000
 21
12.5000
 31
0.0000
  0
LINE
  8
100
 10
93.5000
 20
12.5000
 30
0.0000
 11
94.5000
 21
12.5000
 31
0.0000
  0
LINE
  8
100
 10
95.5000
 20
12.5000
 30
0.0000
 11
96.5000
 21
12.5000
 31
0.0000
  0
LINE
  8
100
 10
97.5000
 20
12.5000
 30
0.0000
 11
98.5000
 21
12.5000
 31
0.0000
  0
LINE
  8
100
 10
99.5000
 20
12.5000
 30
0.0000
 11
100.5000
 21
12.5000
 31
0.0000
  0
LINE
  8
100
 10
101.5000
 20
12.5000
 30
0.0000
 11
102.5000
 21
12.5000
 31
0.0000
  0
LINE
  8
100
 10
103.5000
 20
12.5000
 30
0.0000
 11
104.5000
 21
12.5000
 31
0.0000
  0
LINE
  8
100
 10
105.5000
 20
12.5000
 30
0.0000
 11
106.5000
 21
12.5000
 31
0.0000
  0
LINE
  8
100
 10
107.5000
 20
12.5000
 30
0.0000
 11
108.5000
 21
12.5000
 31
0.0000
  0
LINE
  8
100
 10
109.5000
 20
12.5000
 30
0.0000
 11
110.5000
 21
12.5000
 31
0.0000
  0
LINE
  8
100
 10
111.5000
 20
12.5000
 30
0.0000
 11
112.5000
 21
12.5000
 31
0.0000
  0
LINE
  8
100
 10
113.5000
 20
12.5000
 30
0.0000
 11
114.5000
 21
12.5000
 31
0.0000
  0
LINE
  8
100
 10
115.5000
 20
12.5000
 30
0.0000
 11
116.5000
 21
12.5000
 31
0.0000
  0
LINE
  8
100
 10
117.5000
 20
12.5000
 30
0.0000
 11
118.5000
 21
12.5000
 31
0.0000
  0
LINE
  8
100
 10
119.5000
 20
12.5000
 30
0.0000
 11
120.5000
 21
12.5000
 31
0.0000
  0
LINE
  8
100
 10
121.5000
 20
12.5000
 30
0.0000
 11
122.5000
 21
12.5000
 31
0.0000
  0
LINE
  8
100
 10
123.5000
 20
12.5000
 30
0.0000
 11
124.5000
 21
12.5000
 31
0.0000
  0
LINE
  8
100
 10
125.5000
 20
12.5000
 30
0.0000
 11
126.5000
 21
12.5000
 31
0.0000
  0
LINE
  8
100
 10
127.5000
 20
12.5000
 30
0.0000
 11
128.5000
 21
12.5000
 31
0.0000
  0
LINE
  8
100
 10
129.5000
 20
12.5000
 30
0.0000
 11
130.5000
 21
12.5000
 31
0.0000
  0
LINE
  8
100
 10
131.5000
 20
12.5000
 30
0.0000
 11
132.5000
 21
12.5000
 31
0.0000
  0
LINE
  8
100
 10
133.5000
 20
12.5000
 30
0.0000
 11
134.5000
 21
12.5000
 31
0.0000
  0
LINE
  8
100
 10
135.5000
 20
12.5000
 30
0.0000
 11
136.5000
 21
12.5000
 31
0.0000
  0
LINE
  8
100
 10
137.5000
 20
12.5000
 30
0.0000
 11
138.5000
 21
12.5000
 31
0.0000
  0
LINE
  8
100
 10
139.5000
 20
12.5000
 30
0.0000
 11
140.5000
 21
12.5000
 31
0.0000
  0
LINE
  8
100
 10
141.5000
 20
12.5000
 30
0.0000
 11
142.5000
 21
12.5000
 31
0.0000
  0
LINE
  8
100
 10
143.5000
 20
12.5000
 30
0.0000
 11
144.5000
 21
12.5000
 31
0.0000
  0
LINE
  8
100
 10
145.5000
 20
12.5000
 30
0.0000
 11
146.5000
 21
12.5000
 31
0.0000
  0
LINE
  8
100
 10
147.5000
 20
12.5000
 30
0.0000
 11
148.5000
 21
12.5000
 31
0.0000
  0
LINE
  8
100
 10
149.5000
 20
12.5000
 30
0.0000
 11
150.5000
 21
12.5000
 31
0.0000
  0
LINE
  8
100
 10
150.5000
 20
68.0000
 30
0.0000
 11
150.5000
 21
66.9821
 31
0.0000
  0
LINE
  8
100
 10
150.5000
 20
65.9821
 30
0.0000
 11
150.5000
 21
64.9643
 31
0.0000
  0
LINE
  8
100
 10
150.5000
 20
63.9643
 30
0.0000
 11
150.5000
 21
62.9464
 31
0.0000
  0
LINE
  8
100
 10
150.5000
 20
61.9464
 30
0.0000
 11
150.5000
 21
60.9286
 31
0.0000
  0
LINE
  8
100
 10
150.5000
 20
59.9286
 30
0.0000
 11
150.5000
 21
58.9107
 31
0.0000
  0
LINE
  8
100
 10
150.5000
 20
57.9107
 30
0.0000
 11
150.5000
 21
56.8929
 31
0.0000
  0
LINE
  8
100
 10
150.5000
 20
55.8929
 30
0.0000
 11
150.5000
 21
54.8750
 31
0.0000
  0
LINE
  8
100
 10
150.5000
 20
53.8750
 30
0.0000
 11
150.5000
 21
52.8571
 31
0.0000
  0
LINE
  8
100
 10
150.5000
 20
51.8571
 30
0.0000
 11
150.5000
 21
50.8393
 31
0.0000
  0
LINE
  8
100
 10
150.5000
 20
49.8393
 30
0.0000
 11
150.5000
 21
48.8214
 31
0.0000
  0
LINE
  8
100
 10
150.5000
 20
47.8214
 30
0.0000
 11
150.5000
 21
46.8036
 31
0.0000
  0
LINE
  8
100
 10
150.5000
 20
45.8036
 30
0.0000
 11
150.5000
 21
44.7857
 31
0.0000
  0
LINE
  8
100
 10
150.5000
 20
43.7857
 30
0.0000
 11
150.5000
 21
42.7679
 31
0.0000
  0
LINE
  8
100
 10
150.5000
 20
41.7679
 30
0.0000
 11
150.5000
 21
40.7500
 31
0.0000
  0
LINE
  8
100
 10
150.5000
 20
39.7500
 30
0.0000
 11
150.5000
 21
38.7321
 31
0.0000
  0
LINE
  8
100
 10
150.5000
 20
37.7321
 30
0.0000
 11
150.5000
 21
36.7143
 31
0.0000
  0
LINE
  8
100
 10
150.5000
 20
35.7143
 30
0.0000
 11
150.5000
 21
34.6964
 31
0.0000
  0
LINE
  8
100
 10
150.5000
 20
33.6964
 30
0.0000
 11
150.5000
 21
32.6786
 31
0.0000
  0
LINE
  8
100
 10
150.5000
 20
31.6786
 30
0.0000
 11
150.5000
 21
30.6607
 31
0.0000
  0
LINE
  8
100
 10
150.5000
 20
29.6607
 30
0.0000
 11
150.5000
 21
28.6429
 31
0.0000
  0
LINE
  8
100
 10
150.5000
 20
27.6429
 30
0.0000
 11
150.5000
 21
26.6250
 31
0.0000
  0
LINE
  8
100
 10
150.5000
 20
25.6250
 30
0.0000
 11
150.5000
 21
24.6071
 31
0.0000
  0
LINE
  8
100
 10
150.5000
 20
23.6071
 30
0.0000
 11
150.5000
 21
22.5893
 31
0.0000
  0
LINE
  8
100
 10
150.5000
 20
21.5893
 30
0.0000
 11
150.5000
 21
20.5714
 31
0.0000
  0
LINE
  8
100
 10
150.5000
 20
19.5714
 30
0.0000
 11
150.5000
 21
18.5536
 31
0.0000
  0
LINE
  8
100
 10
150.5000
 20
17.5536
 30
0.0000
 11
150.5000
 21
16.5357
 31
0.0000
  0
LINE
  8
100
 10
150.5000
 20
15.5357
 30
0.0000
 11
150.5000
 21
14.5179
 31
0.0000
  0
LINE
  8
100
 10
150.5000
 20
13.5179
 30
0.0000
 11
150.5000
 21
12.5000
 31
0.0000
  0
LINE
  8
100
 10
77.5000
 20
68.0000
 30
0.0000
 11
77.5000
 21
66.9821
 31
0.0000
  0
LINE
  8
100
 10
77.5000
 20
65.9821
 30
0.0000
 11
77.5000
 21
64.9643
 31
0.0000
  0
LINE
  8
100
 10
77.5000
 20
63.9643
 30
0.0000
 11
77.5000
 21
62.9464
 31
0.0000
  0
LINE
  8
100
 10
77.5000
 20
61.9464
 30
0.0000
 11
77.5000
 21
60.9286
 31
0.0000
  0
LINE
  8
100
 10
77.5000
 20
59.9286
 30
0.0000
 11
77.5000
 21
58.9107
 31
0.0000
  0
LINE
  8
100
 10
77.5000
 20
57.9107
 30
0.0000
 11
77.5000
 21
56.8929
 31
0.0000
  0
LINE
  8
100
 10
77.5000
 20
55.8929
 30
0.0000
 11
77.5000
 21
54.8750
 31
0.0000
  0
LINE
  8
100
 10
77.5000
 20
53.8750
 30
0.0000
 11
77.5000
 21
52.8571
 31
0.0000
  0
LINE
  8
100
 10
77.5000
 20
51.8571
 30
0.0000
 11
77.5000
 21
50.8393
 31
0.0000
  0
LINE
  8
100
 10
77.5000
 20
49.8393
 30
0.0000
 11
77.5000
 21
48.8214
 31
0.0000
  0
LINE
  8
100
 10
77.5000
 20
47.8214
 30
0.0000
 11
77.5000
 21
46.8036
 31
0.0000
  0
LINE
  8
100
 10
77.5000
 20
45.8036
 30
0.0000
 11
77.5000
 21
44.7857
 31
0.0000
  0
LINE
  8
100
 10
77.5000
 20
43.7857
 30
0.0000
 11
77.5000
 21
42.7679
 31
0.0000
  0
LINE
  8
100
 10
77.5000
 20
41.7679
 30
0.0000
 11
77.5000
 21
40.7500
 31
0.0000
  0
LINE
  8
100
 10
77.5000
 20
39.7500
 30
0.0000
 11
77.5000
 21
38.7321
 31
0.0000
  0
LINE
  8
100
 10
77.5000
 20
37.7321
 30
0.0000
 11
77.5000
 21
36.7143
 31
0.0000
  0
LINE
  8
100
 10
77.5000
 20
35.7143
 30
0.0000
 11
77.5000
 21
34.6964
 31
0.0000
  0
LINE
  8
100
 10
77.5000
 20
33.6964
 30
0.0000
 11
77.5000
 21
32.6786
 31
0.0000
  0
LINE
  8
100
 10
77.5000
 20
31.6786
 30
0.0000
 11
77.5000
 21
30.6607
 31
0.0000
  0
LINE
  8
100
 10
77.5000
 20
29.6607
 30
0.0000
 11
77.5000
 21
28.6429
 31
0.0000
  0
LINE
  8
100
 10
77.5000
 20
27.6429
 30
0.0000
 11
77.5000
 21
26.6250
 31
0.0000
  0
LINE
  8
100
 10
77.5000
 20
25.6250
 30
0.0000
 11
77.5000
 21
24.6071
 31
0.0000
  0
LINE
  8
100
 10
77.5000
 20
23.6071
 30
0.0000
 11
77.5000
 21
22.5893
 31
0.0000
  0
LINE
  8
100
 10
77.5000
 20
21.5893
 30
0.0000
 11
77.5000
 21
20.5714
 31
0.0000
  0
LINE
  8
100
 10
77.5000
 20
19.5714
 30
0.0000
 11
77.5000
 21
18.5536
 31
0.0000
  0
LINE
  8
100
 10
77.5000
 20
17.5536
 30
0.0000
 11
77.5000
 21
16.5357
 31
0.0000
  0
LINE
  8
100
 10
77.5000
 20
15.5357
 30
0.0000
 11
77.5000
 21
14.5179
 31
0.0000
  0
LINE
  8
100
 10
77.5000
 20
13.5179
 30
0.0000
 11
77.5000
 21
12.5000
 31
0.0000
  0
LINE
  8
100
 10
78.5762
 20
70.4320
 30
0.0000
 11
78.8474
 21
70.7032
 31
0.0000
  0
LINE
  8
100
 10
78.8474
 20
70.7032
 30
0.0000
 11
79.3897
 21
70.7032
 31
0.0000
  0
LINE
  8
100
 10
79.3897
 20
70.7032
 30
0.0000
 11
79.6609
 21
70.4320
 31
0.0000
  0
LINE
  8
100
 10
79.6609
 20
70.4320
 30
0.0000
 11
79.6609
 21
70.1609
 31
0.0000
  0
LINE
  8
100
 10
79.6609
 20
70.1609
 30
0.0000
 11
79.3897
 21
69.8897
 31
0.0000
  0
LINE
  8
100
 10
79.3897
 20
69.8897
 30
0.0000
 11
79.1185
 21
69.8897
 31
0.0000
  0
LINE
  8
100
 10
79.3897
 20
69.8897
 30
0.0000
 11
79.6609
 21
69.6185
 31
0.0000
  0
LINE
  8
100
 10
79.6609
 20
69.6185
 30
0.0000
 11
79.6609
 21
69.3474
 31
0.0000
  0
LINE
  8
100
 10
79.6609
 20
69.3474
 30
0.0000
 11
79.3897
 21
69.0762
 31
0.0000
  0
LINE
  8
100
 10
79.3897
 20
69.0762
 30
0.0000
 11
78.8474
 21
69.0762
 31
0.0000
  0
LINE
  8
100
 10
78.8474
 20
69.0762
 30
0.0000
 11
78.5762
 21
69.3474
 31
0.0000
  0
LINE
  8
100
 10
80.2134
 20
69.0762
 30
0.0000
 11
80.2134
 21
69.3474
 31
0.0000
  0
LINE
  8
100
 10
80.2134
 20
69.3474
 30
0.0000
 11
80.4845
 21
69.3474
 31
0.0000
  0
LINE
  8
100
 10
80.4845
 20
69.3474
 30
0.0000
 11
80.4845
 21
69.0762
 31
0.0000
  0
LINE
  8
100
 10
80.4845
 20
69.0762
 30
0.0000
 11
80.2134
 21
69.0762
 31
0.0000
  0
LINE
  8
100
 10
82.1166
 20
70.7032
 30
0.0000
 11
81.0319
 21
70.7032
 31
0.0000
  0
LINE
  8
100
 10
81.0319
 20
70.7032
 30
0.0000
 11
81.0319
 21
69.8897
 31
0.0000
  0
LINE
  8
100
 10
81.0319
 20
69.8897
 30
0.0000
 11
81.5743
 21
70.1609
 31
0.0000
  0
LINE
  8
100
 10
81.5743
 20
70.1609
 30
0.0000
 11
81.8454
 21
70.1609
 31
0.0000
  0
LINE
  8
100
 10
81.8454
 20
70.1609
 30
0.0000
 11
82.1166
 21
69.8897
 31
0.0000
  0
LINE
  8
100
 10
82.1166
 20
69.8897
 30
0.0000
 11
82.1166
 21
69.3474
 31
0.0000
  0
LINE
  8
100
 10
82.1166
 20
69.3474
 30
0.0000
 11
81.8454
 21
69.0762
 31
0.0000
  0
LINE
  8
100
 10
81.8454
 20
69.0762
 30
0.0000
 11
81.3031
 21
69.0762
 31
0.0000
  0
LINE
  8
100
 10
81.3031
 20
69.0762
 30
0.0000
 11
81.0319
 21
69.3474
 31
0.0000
  0
LINE
  8
100
 10
82.9403
 20
70.9744
 30
0.0000
 11
82.9403
 21
70.4320
 31
0.0000
  0
LINE
  8
100
 10
82.9403
 20
70.4320
 30
0.0000
 11
82.6691
 21
70.1609
 31
0.0000
  0
LINE
  8
100
 10
83.4826
 20
70.9744
 30
0.0000
 11
83.4826
 21
70.4320
 31
0.0000
  0
LINE
  8
100
 10
83.4826
 20
70.4320
 30
0.0000
 11
83.2114
 21
70.1609
 31
0.0000
  0
LINE
  8
100
 10
85.6705
 20
69.0762
 30
0.0000
 11
85.6705
 21
70.7032
 31
0.0000
  0
LINE
  8
100
 10
85.6705
 20
70.7032
 30
0.0000
 11
86.4840
 21
70.7032
 31
0.0000
  0
LINE
  8
100
 10
86.4840
 20
70.7032
 30
0.0000
 11
86.7552
 21
70.4320
 31
0.0000
  0
LINE
  8
100
 10
86.7552
 20
70.4320
 30
0.0000
 11
86.7552
 21
69.8897
 31
0.0000
  0
LINE
  8
100
 10
86.7552
 20
69.8897
 30
0.0000
 11
86.4840
 21
69.6185
 31
0.0000
  0
LINE
  8
100
 10
86.4840
 20
69.6185
 30
0.0000
 11
85.6705
 21
69.6185
 31
0.0000
  0
LINE
  8
100
 10
86.2129
 20
69.6185
 30
0.0000
 11
86.7552
 21
69.0762
 31
0.0000
  0
LINE
  8
100
 10
87.3077
 20
70.1609
 30
0.0000
 11
87.5789
 21
70.1609
 31
0.0000
  0
LINE
  8
100
 10
87.5789
 20
70.1609
 30
0.0000
 11
87.5789
 21
69.0762
 31
0.0000
  0
LINE
  8
100
 10
87.3077
 20
69.0762
 30
0.0000
 11
87.8500
 21
69.0762
 31
0.0000
  0
LINE
  8
100
 10
87.5789
 20
70.9744
 30
0.0000
 11
87.5789
 21
70.7032
 31
0.0000
  0
LINE
  8
100
 10
88.3991
 20
70.1609
 30
0.0000
 11
88.9415
 21
69.0762
 31
0.0000
  0
LINE
  8
100
 10
88.9415
 20
69.0762
 30
0.0000
 11
89.4838
 21
70.1609
 31
0.0000
  0
LINE
  8
100
 10
90.8498
 20
69.0762
 30
0.0000
 11
90.3075
 21
69.0762
 31
0.0000
  0
LINE
  8
100
 10
90.3075
 20
69.0762
 30
0.0000
 11
90.0363
 21
69.3474
 31
0.0000
  0
LINE
  8
100
 10
90.0363
 20
69.3474
 30
0.0000
 11
90.0363
 21
69.8897
 31
0.0000
  0
LINE
  8
100
 10
90.0363
 20
69.8897
 30
0.0000
 11
90.3075
 21
70.1609
 31
0.0000
  0
LINE
  8
100
 10
90.3075
 20
70.1609
 30
0.0000
 11
90.8498
 21
70.1609
 31
0.0000
  0
LINE
  8
100
 10
90.8498
 20
70.1609
 30
0.0000
 11
91.1210
 21
69.8897
 31
0.0000
  0
LINE
  8
100
 10
91.1210
 20
69.8897
 30
0.0000
 11
91.1210
 21
69.6185
 31
0.0000
  0
LINE
  8
100
 10
91.1210
 20
69.6185
 30
0.0000
 11
90.0363
 21
69.6185
 31
0.0000
  0
LINE
  8
100
 10
91.6735
 20
69.0762
 30
0.0000
 11
91.6735
 21
70.1609
 31
0.0000
  0
LINE
  8
100
 10
91.6735
 20
69.6185
 30
0.0000
 11
92.2158
 21
70.1609
 31
0.0000
  0
LINE
  8
100
 10
92.2158
 20
70.1609
 30
0.0000
 11
92.4869
 21
70.1609
 31
0.0000
  0
LINE
  8
100
 10
94.1224
 20
70.7032
 30
0.0000
 11
94.1224
 21
69.0762
 31
0.0000
  0
LINE
  8
100
 10
94.1224
 20
69.0762
 30
0.0000
 11
93.3089
 21
69.0762
 31
0.0000
  0
LINE
  8
100
 10
93.3089
 20
69.0762
 30
0.0000
 11
93.0377
 21
69.3474
 31
0.0000
  0
LINE
  8
100
 10
93.0377
 20
69.3474
 30
0.0000
 11
93.0377
 21
69.8897
 31
0.0000
  0
LINE
  8
100
 10
93.0377
 20
69.8897
 30
0.0000
 11
93.3089
 21
70.1609
 31
0.0000
  0
LINE
  8
100
 10
93.3089
 20
70.1609
 30
0.0000
 11
94.1224
 21
70.1609
 31
0.0000
  0
LINE
  8
100
 10
94.6749
 20
70.1609
 30
0.0000
 11
94.9461
 21
70.1609
 31
0.0000
  0
LINE
  8
100
 10
94.9461
 20
70.1609
 30
0.0000
 11
94.9461
 21
69.0762
 31
0.0000
  0
LINE
  8
100
 10
94.6749
 20
69.0762
 30
0.0000
 11
95.2172
 21
69.0762
 31
0.0000
  0
LINE
  8
100
 10
94.9461
 20
70.9744
 30
0.0000
 11
94.9461
 21
70.7032
 31
0.0000
  0
LINE
  8
100
 10
98.4882
 20
70.7032
 30
0.0000
 11
98.4882
 21
69.0762
 31
0.0000
  0
LINE
  8
100
 10
98.4882
 20
69.0762
 30
0.0000
 11
97.6747
 21
69.0762
 31
0.0000
  0
LINE
  8
100
 10
97.6747
 20
69.0762
 30
0.0000
 11
97.4035
 21
69.3474
 31
0.0000
  0
LINE
  8
100
 10
97.4035
 20
69.3474
 30
0.0000
 11
97.4035
 21
69.8897
 31
0.0000
  0
LINE
  8
100
 10
97.4035
 20
69.8897
 30
0.0000
 11
97.6747
 21
70.1609
 31
0.0000
  0
LINE
  8
100
 10
97.6747
 20
70.1609
 30
0.0000
 11
98.4882
 21
70.1609
 31
0.0000
  0
LINE
  8
100
 10
99.0407
 20
70.1609
 30
0.0000
 11
99.3118
 21
70.1609
 31
0.0000
  0
LINE
  8
100
 10
99.3118
 20
70.1609
 30
0.0000
 11
99.3118
 21
69.0762
 31
0.0000
  0
LINE
  8
100
 10
99.0407
 20
69.0762
 30
0.0000
 11
99.5830
 21
69.0762
 31
0.0000
  0
LINE
  8
100
 10
99.3118
 20
70.9744
 30
0.0000
 11
99.3118
 21
70.7032
 31
0.0000
  0
LINE
  8
100
 10
100.1321
 20
69.0762
 30
0.0000
 11
100.9456
 21
69.0762
 31
0.0000
  0
LINE
  8
100
 10
100.9456
 20
69.0762
 30
0.0000
 11
101.2168
 21
69.3474
 31
0.0000
  0
LINE
  8
100
 10
101.2168
 20
69.3474
 30
0.0000
 11
100.9456
 21
69.6185
 31
0.0000
  0
LINE
  8
100
 10
100.9456
 20
69.6185
 30
0.0000
 11
100.4033
 21
69.6185
 31
0.0000
  0
LINE
  8
100
 10
100.4033
 20
69.6185
 30
0.0000
 11
100.1321
 21
69.8897
 31
0.0000
  0
LINE
  8
100
 10
100.1321
 20
69.8897
 30
0.0000
 11
100.4033
 21
70.1609
 31
0.0000
  0
LINE
  8
100
 10
100.4033
 20
70.1609
 30
0.0000
 11
101.2168
 21
70.1609
 31
0.0000
  0
LINE
  8
100
 10
101.7692
 20
68.5339
 30
0.0000
 11
101.7692
 21
70.1609
 31
0.0000
  0
LINE
  8
100
 10
101.7692
 20
70.1609
 30
0.0000
 11
102.5827
 21
70.1609
 31
0.0000
  0
LINE
  8
100
 10
102.5827
 20
70.1609
 30
0.0000
 11
102.8539
 21
69.8897
 31
0.0000
  0
LINE
  8
100
 10
102.8539
 20
69.8897
 30
0.0000
 11
102.8539
 21
69.3474
 31
0.0000
  0
LINE
  8
100
 10
102.8539
 20
69.3474
 30
0.0000
 11
102.5827
 21
69.0762
 31
0.0000
  0
LINE
  8
100
 10
102.5827
 20
69.0762
 30
0.0000
 11
101.7692
 21
69.0762
 31
0.0000
  0
LINE
  8
100
 10
103.4064
 20
70.7032
 30
0.0000
 11
103.6776
 21
70.7032
 31
0.0000
  0
LINE
  8
100
 10
103.6776
 20
70.7032
 30
0.0000
 11
103.6776
 21
69.0762
 31
0.0000
  0
LINE
  8
100
 10
103.4064
 20
69.0762
 30
0.0000
 11
103.9487
 21
69.0762
 31
0.0000
  0
LINE
  8
100
 10
104.7690
 20
70.1609
 30
0.0000
 11
105.3113
 21
70.1609
 31
0.0000
  0
LINE
  8
100
 10
105.3113
 20
70.1609
 30
0.0000
 11
105.5825
 21
69.8897
 31
0.0000
  0
LINE
  8
100
 10
105.5825
 20
69.8897
 30
0.0000
 11
105.5825
 21
69.0762
 31
0.0000
  0
LINE
  8
100
 10
105.5825
 20
69.0762
 30
0.0000
 11
104.7690
 21
69.0762
 31
0.0000
  0
LINE
  8
100
 10
104.7690
 20
69.0762
 30
0.0000
 11
104.4978
 21
69.3474
 31
0.0000
  0
LINE
  8
100
 10
104.4978
 20
69.3474
 30
0.0000
 11
104.7690
 21
69.6185
 31
0.0000
  0
LINE
  8
100
 10
104.7690
 20
69.6185
 30
0.0000
 11
105.5825
 21
69.6185
 31
0.0000
  0
LINE
  8
100
 10
106.1350
 20
70.1609
 30
0.0000
 11
106.1350
 21
69.3474
 31
0.0000
  0
LINE
  8
100
 10
106.1350
 20
69.3474
 30
0.0000
 11
106.4062
 21
69.0762
 31
0.0000
  0
LINE
  8
100
 10
106.4062
 20
69.0762
 30
0.0000
 11
107.2197
 21
69.0762
 31
0.0000
  0
LINE
  8
100
 10
107.2197
 20
70.1609
 30
0.0000
 11
107.2197
 21
68.8050
 31
0.0000
  0
LINE
  8
100
 10
107.2197
 20
68.8050
 30
0.0000
 11
106.9485
 21
68.5339
 31
0.0000
  0
LINE
  8
100
 10
106.9485
 20
68.5339
 30
0.0000
 11
106.6773
 21
68.5339
 31
0.0000
  0
LINE
  8
100
 10
109.9516
 20
69.0762
 30
0.0000
 11
109.4093
 21
69.6185
 31
0.0000
  0
LINE
  8
100
 10
109.4093
 20
69.6185
 30
0.0000
 11
109.4093
 21
70.1609
 31
0.0000
  0
LINE
  8
100
 10
109.4093
 20
70.1609
 30
0.0000
 11
109.9516
 21
70.7032
 31
0.0000
  0
LINE
  8
100
 10
110.5007
 20
69.0762
 30
0.0000
 11
110.5007
 21
70.1609
 31
0.0000
  0
LINE
  8
100
 10
110.5007
 20
69.6185
 30
0.0000
 11
111.0431
 21
70.1609
 31
0.0000
  0
LINE
  8
100
 10
111.0431
 20
70.1609
 30
0.0000
 11
111.3142
 21
70.1609
 31
0.0000
  0
LINE
  8
100
 10
112.1362
 20
69.0762
 30
0.0000
 11
112.6785
 21
69.0762
 31
0.0000
  0
LINE
  8
100
 10
112.6785
 20
69.0762
 30
0.0000
 11
112.9497
 21
69.3474
 31
0.0000
  0
LINE
  8
100
 10
112.9497
 20
69.3474
 30
0.0000
 11
112.9497
 21
69.8897
 31
0.0000
  0
LINE
  8
100
 10
112.9497
 20
69.8897
 30
0.0000
 11
112.6785
 21
70.1609
 31
0.0000
  0
LINE
  8
100
 10
112.6785
 20
70.1609
 30
0.0000
 11
112.1362
 21
70.1609
 31
0.0000
  0
LINE
  8
100
 10
112.1362
 20
70.1609
 30
0.0000
 11
111.8650
 21
69.8897
 31
0.0000
  0
LINE
  8
100
 10
111.8650
 20
69.8897
 30
0.0000
 11
111.8650
 21
69.3474
 31
0.0000
  0
LINE
  8
100
 10
111.8650
 20
69.3474
 30
0.0000
 11
112.1362
 21
69.0762
 31
0.0000
  0
LINE
  8
100
 10
113.7734
 20
70.4320
 30
0.0000
 11
113.7734
 21
69.3474
 31
0.0000
  0
LINE
  8
100
 10
113.7734
 20
69.3474
 30
0.0000
 11
114.0445
 21
69.0762
 31
0.0000
  0
LINE
  8
100
 10
113.5022
 20
70.1609
 30
0.0000
 11
114.0445
 21
70.1609
 31
0.0000
  0
LINE
  8
100
 10
114.8648
 20
70.1609
 30
0.0000
 11
115.4071
 21
70.1609
 31
0.0000
  0
LINE
  8
100
 10
115.4071
 20
70.1609
 30
0.0000
 11
115.6783
 21
69.8897
 31
0.0000
  0
LINE
  8
100
 10
115.6783
 20
69.8897
 30
0.0000
 11
115.6783
 21
69.0762
 31
0.0000
  0
LINE
  8
100
 10
115.6783
 20
69.0762
 30
0.0000
 11
114.8648
 21
69.0762
 31
0.0000
  0
LINE
  8
100
 10
114.8648
 20
69.0762
 30
0.0000
 11
114.5936
 21
69.3474
 31
0.0000
  0
LINE
  8
100
 10
114.5936
 20
69.3474
 30
0.0000
 11
114.8648
 21
69.6185
 31
0.0000
  0
LINE
  8
100
 10
114.8648
 20
69.6185
 30
0.0000
 11
115.6783
 21
69.6185
 31
0.0000
  0
LINE
  8
100
 10
116.5020
 20
70.4320
 30
0.0000
 11
116.5020
 21
69.3474
 31
0.0000
  0
LINE
  8
100
 10
116.5020
 20
69.3474
 30
0.0000
 11
116.7731
 21
69.0762
 31
0.0000
  0
LINE
  8
100
 10
116.2308
 20
70.1609
 30
0.0000
 11
116.7731
 21
70.1609
 31
0.0000
  0
LINE
  8
100
 10
118.1357
 20
69.0762
 30
0.0000
 11
117.5934
 21
69.0762
 31
0.0000
  0
LINE
  8
100
 10
117.5934
 20
69.0762
 30
0.0000
 11
117.3222
 21
69.3474
 31
0.0000
  0
LINE
  8
100
 10
117.3222
 20
69.3474
 30
0.0000
 11
117.3222
 21
69.8897
 31
0.0000
  0
LINE
  8
100
 10
117.3222
 20
69.8897
 30
0.0000
 11
117.5934
 21
70.1609
 31
0.0000
  0
LINE
  8
100
 10
117.5934
 20
70.1609
 30
0.0000
 11
118.1357
 21
70.1609
 31
0.0000
  0
LINE
  8
100
 10
118.1357
 20
70.1609
 30
0.0000
 11
118.4069
 21
69.8897
 31
0.0000
  0
LINE
  8
100
 10
118.4069
 20
69.8897
 30
0.0000
 11
118.4069
 21
69.6185
 31
0.0000
  0
LINE
  8
100
 10
118.4069
 20
69.6185
 30
0.0000
 11
117.3222
 21
69.6185
 31
0.0000
  0
LINE
  8
100
 10
120.0440
 20
70.7032
 30
0.0000
 11
120.0440
 21
69.0762
 31
0.0000
  0
LINE
  8
100
 10
120.0440
 20
69.0762
 30
0.0000
 11
119.2306
 21
69.0762
 31
0.0000
  0
LINE
  8
100
 10
119.2306
 20
69.0762
 30
0.0000
 11
118.9594
 21
69.3474
 31
0.0000
  0
LINE
  8
100
 10
118.9594
 20
69.3474
 30
0.0000
 11
118.9594
 21
69.8897
 31
0.0000
  0
LINE
  8
100
 10
118.9594
 20
69.8897
 30
0.0000
 11
119.2306
 21
70.1609
 31
0.0000
  0
LINE
  8
100
 10
119.2306
 20
70.1609
 30
0.0000
 11
120.0440
 21
70.1609
 31
0.0000
  0
LINE
  8
100
 10
120.5965
 20
69.3474
 30
0.0000
 11
120.5965
 21
69.0762
 31
0.0000
  0
LINE
  8
100
 10
120.5965
 20
70.9744
 30
0.0000
 11
120.5965
 21
69.8897
 31
0.0000
  0
LINE
  8
100
 10
121.1423
 20
69.0762
 30
0.0000
 11
121.6846
 21
69.6185
 31
0.0000
  0
LINE
  8
100
 10
121.6846
 20
69.6185
 30
0.0000
 11
121.6846
 21
70.1609
 31
0.0000
  0
LINE
  8
100
 10
121.6846
 20
70.1609
 30
0.0000
 11
121.1423
 21
70.7032
 31
0.0000
  0
LINE
  8
120
 10
83.5762
 20
64.4320
 30
0.0000
 11
83.8474
 21
64.7032
 31
0.0000
  0
LINE
  8
120
 10
83.8474
 20
64.7032
 30
0.0000
 11
84.3897
 21
64.7032
 31
0.0000
  0
LINE
  8
120
 10
84.3897
 20
64.7032
 30
0.0000
 11
84.6609
 21
64.4320
 31
0.0000
  0
LINE
  8
120
 10
84.6609
 20
64.4320
 30
0.0000
 11
84.6609
 21
64.1609
 31
0.0000
  0
LINE
  8
120
 10
84.6609
 20
64.1609
 30
0.0000
 11
84.3897
 21
63.8897
 31
0.0000
  0
LINE
  8
120
 10
84.3897
 20
63.8897
 30
0.0000
 11
84.1185
 21
63.8897
 31
0.0000
  0
LINE
  8
120
 10
84.3897
 20
63.8897
 30
0.0000
 11
84.6609
 21
63.6185
 31
0.0000
  0
LINE
  8
120
 10
84.6609
 20
63.6185
 30
0.0000
 11
84.6609
 21
63.3474
 31
0.0000
  0
LINE
  8
120
 10
84.6609
 20
63.3474
 30
0.0000
 11
84.3897
 21
63.0762
 31
0.0000
  0
LINE
  8
120
 10
84.3897
 20
63.0762
 30
0.0000
 11
83.8474
 21
63.0762
 31
0.0000
  0
LINE
  8
120
 10
83.8474
 20
63.0762
 30
0.0000
 11
83.5762
 21
63.3474
 31
0.0000
  0
LINE
  8
120
 10
85.2134
 20
63.0762
 30
0.0000
 11
85.2134
 21
63.3474
 31
0.0000
  0
LINE
  8
120
 10
85.2134
 20
63.3474
 30
0.0000
 11
85.4845
 21
63.3474
 31
0.0000
  0
LINE
  8
120
 10
85.4845
 20
63.3474
 30
0.0000
 11
85.4845
 21
63.0762
 31
0.0000
  0
LINE
  8
120
 10
85.4845
 20
63.0762
 30
0.0000
 11
85.2134
 21
63.0762
 31
0.0000
  0
LINE
  8
120
 10
87.1166
 20
63.0762
 30
0.0000
 11
86.0319
 21
63.0762
 31
0.0000
  0
LINE
  8
120
 10
86.0319
 20
63.0762
 30
0.0000
 11
87.1166
 21
64.1609
 31
0.0000
  0
LINE
  8
120
 10
87.1166
 20
64.1609
 30
0.0000
 11
87.1166
 21
64.4320
 31
0.0000
  0
LINE
  8
120
 10
87.1166
 20
64.4320
 30
0.0000
 11
86.8454
 21
64.7032
 31
0.0000
  0
LINE
  8
120
 10
86.8454
 20
64.7032
 30
0.0000
 11
86.3031
 21
64.7032
 31
0.0000
  0
LINE
  8
120
 10
86.3031
 20
64.7032
 30
0.0000
 11
86.0319
 21
64.4320
 31
0.0000
  0
LINE
  8
120
 10
87.9403
 20
64.9744
 30
0.0000
 11
87.9403
 21
64.4320
 31
0.0000
  0
LINE
  8
120
 10
87.9403
 20
64.4320
 30
0.0000
 11
87.6691
 21
64.1609
 31
0.0000
  0
LINE
  8
120
 10
88.4826
 20
64.9744
 30
0.0000
 11
88.4826
 21
64.4320
 31
0.0000
  0
LINE
  8
120
 10
88.4826
 20
64.4320
 30
0.0000
 11
88.2114
 21
64.1609
 31
0.0000
  0
LINE
  8
120
 10
91.2129
 20
63.0762
 30
0.0000
 11
91.2129
 21
64.7032
 31
0.0000
  0
LINE
  8
120
 10
90.6705
 20
64.7032
 30
0.0000
 11
91.7552
 21
64.7032
 31
0.0000
  0
LINE
  8
120
 10
92.3077
 20
63.0762
 30
0.0000
 11
92.3077
 21
64.7032
 31
0.0000
  0
LINE
  8
120
 10
92.3077
 20
64.7032
 30
0.0000
 11
93.3924
 21
64.7032
 31
0.0000
  0
LINE
  8
120
 10
92.3077
 20
63.8897
 30
0.0000
 11
92.8500
 21
63.8897
 31
0.0000
  0
LINE
  8
120
 10
94.4872
 20
63.0762
 30
0.0000
 11
94.4872
 21
64.7032
 31
0.0000
  0
LINE
  8
120
 10
93.9449
 20
64.7032
 30
0.0000
 11
95.0295
 21
64.7032
 31
0.0000
  0
LINE
  8
120
 10
95.5820
 20
62.8050
 30
0.0000
 11
96.6667
 21
62.8050
 31
0.0000
  0
LINE
  8
120
 10
97.2192
 20
64.4320
 30
0.0000
 11
97.4903
 21
64.7032
 31
0.0000
  0
LINE
  8
120
 10
97.4903
 20
64.7032
 30
0.0000
 11
98.0327
 21
64.7032
 31
0.0000
  0
LINE
  8
120
 10
98.0327
 20
64.7032
 30
0.0000
 11
98.3038
 21
64.4320
 31
0.0000
  0
LINE
  8
120
 10
98.3038
 20
64.4320
 30
0.0000
 11
98.3038
 21
64.1609
 31
0.0000
  0
LINE
  8
120
 10
98.3038
 20
64.1609
 30
0.0000
 11
98.0327
 21
63.8897
 31
0.0000
  0
LINE
  8
120
 10
98.0327
 20
63.8897
 30
0.0000
 11
97.7615
 21
63.8897
 31
0.0000
  0
LINE
  8
120
 10
98.0327
 20
63.8897
 30
0.0000
 11
98.3038
 21
63.6185
 31
0.0000
  0
LINE
  8
120
 10
98.3038
 20
63.6185
 30
0.0000
 11
98.3038
 21
63.3474
 31
0.0000
  0
LINE
  8
120
 10
98.3038
 20
63.3474
 30
0.0000
 11
98.0327
 21
63.0762
 31
0.0000
  0
LINE
  8
120
 10
98.0327
 20
63.0762
 30
0.0000
 11
97.4903
 21
63.0762
 31
0.0000
  0
LINE
  8
120
 10
97.4903
 20
63.0762
 30
0.0000
 11
97.2192
 21
63.3474
 31
0.0000
  0
LINE
  8
120
 10
99.9410
 20
63.0762
 30
0.0000
 11
98.8563
 21
63.0762
 31
0.0000
  0
LINE
  8
120
 10
98.8563
 20
63.0762
 30
0.0000
 11
99.9410
 21
64.1609
 31
0.0000
  0
LINE
  8
120
 10
99.9410
 20
64.1609
 30
0.0000
 11
99.9410
 21
64.4320
 31
0.0000
  0
LINE
  8
120
 10
99.9410
 20
64.4320
 30
0.0000
 11
99.6698
 21
64.7032
 31
0.0000
  0
LINE
  8
120
 10
99.6698
 20
64.7032
 30
0.0000
 11
99.1275
 21
64.7032
 31
0.0000
  0
LINE
  8
120
 10
99.1275
 20
64.7032
 30
0.0000
 11
98.8563
 21
64.4320
 31
0.0000
  0
LINE
  8
120
 10
100.4935
 20
63.3474
 30
0.0000
 11
100.4935
 21
64.4320
 31
0.0000
  0
LINE
  8
120
 10
100.4935
 20
64.4320
 30
0.0000
 11
100.7646
 21
64.7032
 31
0.0000
  0
LINE
  8
120
 10
100.7646
 20
64.7032
 30
0.0000
 11
101.3070
 21
64.7032
 31
0.0000
  0
LINE
  8
120
 10
101.3070
 20
64.7032
 30
0.0000
 11
101.5781
 21
64.4320
 31
0.0000
  0
LINE
  8
120
 10
101.5781
 20
64.4320
 30
0.0000
 11
101.5781
 21
63.3474
 31
0.0000
  0
LINE
  8
120
 10
101.5781
 20
63.3474
 30
0.0000
 11
101.3070
 21
63.0762
 31
0.0000
  0
LINE
  8
120
 10
101.3070
 20
63.0762
 30
0.0000
 11
100.7646
 21
63.0762
 31
0.0000
  0
LINE
  8
120
 10
100.7646
 20
63.0762
 30
0.0000
 11
100.4935
 21
63.3474
 31
0.0000
  0
LINE
  8
120
 10
100.4935
 20
63.3474
 30
0.0000
 11
101.5781
 21
64.4320
 31
0.0000
  0
LINE
  8
120
 10
102.1306
 20
63.3474
 30
0.0000
 11
102.1306
 21
64.4320
 31
0.0000
  0
LINE
  8
120
 10
102.1306
 20
64.4320
 30
0.0000
 11
102.4018
 21
64.7032
 31
0.0000
  0
LINE
  8
120
 10
102.4018
 20
64.7032
 30
0.0000
 11
102.9441
 21
64.7032
 31
0.0000
  0
LINE
  8
120
 10
102.9441
 20
64.7032
 30
0.0000
 11
103.2153
 21
64.4320
 31
0.0000
  0
LINE
  8
120
 10
103.2153
 20
64.4320
 30
0.0000
 11
103.2153
 21
63.3474
 31
0.0000
  0
LINE
  8
120
 10
103.2153
 20
63.3474
 30
0.0000
 11
102.9441
 21
63.0762
 31
0.0000
  0
LINE
  8
120
 10
102.9441
 20
63.0762
 30
0.0000
 11
102.4018
 21
63.0762
 31
0.0000
  0
LINE
  8
120
 10
102.4018
 20
63.0762
 30
0.0000
 11
102.1306
 21
63.3474
 31
0.0000
  0
LINE
  8
120
 10
102.6730
 20
63.6185
 30
0.0000
 11
103.2153
 21
63.0762
 31
0.0000
  0
LINE
  8
120
 10
103.7678
 20
64.7032
 30
0.0000
 11
103.7678
 21
63.6185
 31
0.0000
  0
LINE
  8
120
 10
103.7678
 20
63.6185
 30
0.0000
 11
104.3101
 21
63.0762
 31
0.0000
  0
LINE
  8
120
 10
104.3101
 20
63.0762
 30
0.0000
 11
104.8525
 21
63.6185
 31
0.0000
  0
LINE
  8
120
 10
104.8525
 20
63.6185
 30
0.0000
 11
104.8525
 21
64.7032
 31
0.0000
  0
LINE
  8
120
 10
105.9473
 20
63.0762
 30
0.0000
 11
105.9473
 21
64.7032
 31
0.0000
  0
LINE
  8
120
 10
105.4049
 20
64.7032
 30
0.0000
 11
106.4896
 21
64.7032
 31
0.0000
  0
LINE
  8
120
 10
109.7639
 20
64.7032
 30
0.0000
 11
109.7639
 21
63.0762
 31
0.0000
  0
LINE
  8
120
 10
109.7639
 20
63.0762
 30
0.0000
 11
108.9504
 21
63.0762
 31
0.0000
  0
LINE
  8
120
 10
108.9504
 20
63.0762
 30
0.0000
 11
108.6793
 21
63.3474
 31
0.0000
  0
LINE
  8
120
 10
108.6793
 20
63.3474
 30
0.0000
 11
108.6793
 21
63.8897
 31
0.0000
  0
LINE
  8
120
 10
108.6793
 20
63.8897
 30
0.0000
 11
108.9504
 21
64.1609
 31
0.0000
  0
LINE
  8
120
 10
108.9504
 20
64.1609
 30
0.0000
 11
109.7639
 21
64.1609
 31
0.0000
  0
LINE
  8
120
 10
110.3164
 20
64.1609
 30
0.0000
 11
110.5876
 21
64.1609
 31
0.0000
  0
LINE
  8
120
 10
110.5876
 20
64.1609
 30
0.0000
 11
110.5876
 21
63.0762
 31
0.0000
  0
LINE
  8
120
 10
110.3164
 20
63.0762
 30
0.0000
 11
110.8587
 21
63.0762
 31
0.0000
  0
LINE
  8
120
 10
110.5876
 20
64.9744
 30
0.0000
 11
110.5876
 21
64.7032
 31
0.0000
  0
LINE
  8
120
 10
111.4079
 20
63.0762
 30
0.0000
 11
112.2214
 21
63.0762
 31
0.0000
  0
LINE
  8
120
 10
112.2214
 20
63.0762
 30
0.0000
 11
112.4925
 21
63.3474
 31
0.0000
  0
LINE
  8
120
 10
112.4925
 20
63.3474
 30
0.0000
 11
112.2214
 21
63.6185
 31
0.0000
  0
LINE
  8
120
 10
112.2214
 20
63.6185
 30
0.0000
 11
111.6790
 21
63.6185
 31
0.0000
  0
LINE
  8
120
 10
111.6790
 20
63.6185
 30
0.0000
 11
111.4079
 21
63.8897
 31
0.0000
  0
LINE
  8
120
 10
111.4079
 20
63.8897
 30
0.0000
 11
111.6790
 21
64.1609
 31
0.0000
  0
LINE
  8
120
 10
111.6790
 20
64.1609
 30
0.0000
 11
112.4925
 21
64.1609
 31
0.0000
  0
LINE
  8
120
 10
113.0450
 20
62.5339
 30
0.0000
 11
113.0450
 21
64.1609
 31
0.0000
  0
LINE
  8
120
 10
113.0450
 20
64.1609
 30
0.0000
 11
113.8585
 21
64.1609
 31
0.0000
  0
LINE
  8
120
 10
113.8585
 20
64.1609
 30
0.0000
 11
114.1297
 21
63.8897
 31
0.0000
  0
LINE
  8
120
 10
114.1297
 20
63.8897
 30
0.0000
 11
114.1297
 21
63.3474
 31
0.0000
  0
LINE
  8
120
 10
114.1297
 20
63.3474
 30
0.0000
 11
113.8585
 21
63.0762
 31
0.0000
  0
LINE
  8
120
 10
113.8585
 20
63.0762
 30
0.0000
 11
113.0450
 21
63.0762
 31
0.0000
  0
LINE
  8
120
 10
114.6822
 20
64.7032
 30
0.0000
 11
114.9533
 21
64.7032
 31
0.0000
  0
LINE
  8
120
 10
114.9533
 20
64.7032
 30
0.0000
 11
114.9533
 21
63.0762
 31
0.0000
  0
LINE
  8
120
 10
114.6822
 20
63.0762
 30
0.0000
 11
115.2245
 21
63.0762
 31
0.0000
  0
LINE
  8
120
 10
116.0448
 20
64.1609
 30
0.0000
 11
116.5871
 21
64.1609
 31
0.0000
  0
LINE
  8
120
 10
116.5871
 20
64.1609
 30
0.0000
 11
116.8583
 21
63.8897
 31
0.0000
  0
LINE
  8
120
 10
116.8583
 20
63.8897
 30
0.0000
 11
116.8583
 21
63.0762
 31
0.0000
  0
LINE
  8
120
 10
116.8583
 20
63.0762
 30
0.0000
 11
116.0448
 21
63.0762
 31
0.0000
  0
LINE
  8
120
 10
116.0448
 20
63.0762
 30
0.0000
 11
115.7736
 21
63.3474
 31
0.0000
  0
LINE
  8
120
 10
115.7736
 20
63.3474
 30
0.0000
 11
116.0448
 21
63.6185
 31
0.0000
  0
LINE
  8
120
 10
116.0448
 20
63.6185
 30
0.0000
 11
116.8583
 21
63.6185
 31
0.0000
  0
LINE
  8
120
 10
117.4108
 20
64.1609
 30
0.0000
 11
117.4108
 21
63.3474
 31
0.0000
  0
LINE
  8
120
 10
117.4108
 20
63.3474
 30
0.0000
 11
117.6819
 21
63.0762
 31
0.0000
  0
LINE
  8
120
 10
117.6819
 20
63.0762
 30
0.0000
 11
118.4954
 21
63.0762
 31
0.0000
  0
LINE
  8
120
 10
118.4954
 20
64.1609
 30
0.0000
 11
118.4954
 21
62.8050
 31
0.0000
  0
LINE
  8
120
 10
118.4954
 20
62.8050
 30
0.0000
 11
118.2243
 21
62.5339
 31
0.0000
  0
LINE
  8
120
 10
118.2243
 20
62.5339
 30
0.0000
 11
117.9531
 21
62.5339
 31
0.0000
  0
LINE
  8
51
 10
6.1341
 20
84.5172
 30
0.0000
 11
5.7510
 21
84.9004
 31
0.0000
  0
LINE
  8
51
 10
5.7510
 20
84.9004
 30
0.0000
 11
4.9847
 21
84.9004
 31
0.0000
  0
LINE
  8
51
 10
4.9847
 20
84.9004
 30
0.0000
 11
4.6016
 21
84.5172
 31
0.0000
  0
LINE
  8
51
 10
4.6016
 20
84.5172
 30
0.0000
 11
4.6016
 21
84.1341
 31
0.0000
  0
LINE
  8
51
 10
4.6016
 20
84.1341
 30
0.0000
 11
4.9847
 21
83.7510
 31
0.0000
  0
LINE
  8
51
 10
4.9847
 20
83.7510
 30
0.0000
 11
5.7510
 21
83.7510
 31
0.0000
  0
LINE
  8
51
 10
5.7510
 20
83.7510
 30
0.0000
 11
6.1341
 21
83.3679
 31
0.0000
  0
LINE
  8
51
 10
6.1341
 20
83.3679
 30
0.0000
 11
6.1341
 21
82.9847
 31
0.0000
  0
LINE
  8
51
 10
6.1341
 20
82.9847
 30
0.0000
 11
5.7510
 21
82.6016
 31
0.0000
  0
LINE
  8
51
 10
5.7510
 20
82.6016
 30
0.0000
 11
4.9847
 21
82.6016
 31
0.0000
  0
LINE
  8
51
 10
4.9847
 20
82.6016
 30
0.0000
 11
4.6016
 21
82.9847
 31
0.0000
  0
LINE
  8
51
 10
6.9036
 20
84.1341
 30
0.0000
 11
6.9036
 21
82.9847
 31
0.0000
  0
LINE
  8
51
 10
6.9036
 20
82.9847
 30
0.0000
 11
7.2867
 21
82.6016
 31
0.0000
  0
LINE
  8
51
 10
7.2867
 20
82.6016
 30
0.0000
 11
8.4361
 21
82.6016
 31
0.0000
  0
LINE
  8
51
 10
8.4361
 20
82.6016
 30
0.0000
 11
8.4361
 21
84.1341
 31
0.0000
  0
LINE
  8
51
 10
9.9718
 20
81.8353
 30
0.0000
 11
10.3549
 21
81.8353
 31
0.0000
  0
LINE
  8
51
 10
10.3549
 20
81.8353
 30
0.0000
 11
10.7380
 21
82.2185
 31
0.0000
  0
LINE
  8
51
 10
10.7380
 20
82.2185
 30
0.0000
 11
10.7380
 21
84.1341
 31
0.0000
  0
LINE
  8
51
 10
10.7380
 20
84.1341
 30
0.0000
 11
9.5887
 21
84.1341
 31
0.0000
  0
LINE
  8
51
 10
9.5887
 20
84.1341
 30
0.0000
 11
9.2055
 21
83.7510
 31
0.0000
  0
LINE
  8
51
 10
9.2055
 20
83.7510
 30
0.0000
 11
9.2055
 21
82.9847
 31
0.0000
  0
LINE
  8
51
 10
9.2055
 20
82.9847
 30
0.0000
 11
9.5887
 21
82.6016
 31
0.0000
  0
LINE
  8
51
 10
9.5887
 20
82.6016
 30
0.0000
 11
10.7380
 21
82.6016
 31
0.0000
  0
LINE
  8
51
 10
12.2737
 20
81.8353
 30
0.0000
 11
12.6569
 21
81.8353
 31
0.0000
  0
LINE
  8
51
 10
12.6569
 20
81.8353
 30
0.0000
 11
13.0400
 21
82.2185
 31
0.0000
  0
LINE
  8
51
 10
13.0400
 20
82.2185
 30
0.0000
 11
13.0400
 21
84.1341
 31
0.0000
  0
LINE
  8
51
 10
13.0400
 20
84.1341
 30
0.0000
 11
11.8906
 21
84.1341
 31
0.0000
  0
LINE
  8
51
 10
11.8906
 20
84.1341
 30
0.0000
 11
11.5075
 21
83.7510
 31
0.0000
  0
LINE
  8
51
 10
11.5075
 20
83.7510
 30
0.0000
 11
11.5075
 21
82.9847
 31
0.0000
  0
LINE
  8
51
 10
11.5075
 20
82.9847
 30
0.0000
 11
11.8906
 21
82.6016
 31
0.0000
  0
LINE
  8
51
 10
11.8906
 20
82.6016
 30
0.0000
 11
13.0400
 21
82.6016
 31
0.0000
  0
LINE
  8
51
 10
14.9588
 20
82.6016
 30
0.0000
 11
14.1926
 21
82.6016
 31
0.0000
  0
LINE
  8
51
 10
14.1926
 20
82.6016
 30
0.0000
 11
13.8095
 21
82.9847
 31
0.0000
  0
LINE
  8
51
 10
13.8095
 20
82.9847
 30
0.0000
 11
13.8095
 21
83.7510
 31
0.0000
  0
LINE
  8
51
 10
13.8095
 20
83.7510
 30
0.0000
 11
14.1926
 21
84.1341
 31
0.0000
  0
LINE
  8
51
 10
14.1926
 20
84.1341
 30
0.0000
 11
14.9588
 21
84.1341
 31
0.0000
  0
LINE
  8
51
 10
14.9588
 20
84.1341
 30
0.0000
 11
15.3420
 21
83.7510
 31
0.0000
  0
LINE
  8
51
 10
15.3420
 20
83.7510
 30
0.0000
 11
15.3420
 21
83.3679
 31
0.0000
  0
LINE
  8
51
 10
15.3420
 20
83.3679
 30
0.0000
 11
13.8095
 21
83.3679
 31
0.0000
  0
LINE
  8
51
 10
16.1114
 20
82.6016
 30
0.0000
 11
17.2608
 21
82.6016
 31
0.0000
  0
LINE
  8
51
 10
17.2608
 20
82.6016
 30
0.0000
 11
17.6439
 21
82.9847
 31
0.0000
  0
LINE
  8
51
 10
17.6439
 20
82.9847
 30
0.0000
 11
17.2608
 21
83.3679
 31
0.0000
  0
LINE
  8
51
 10
17.2608
 20
83.3679
 30
0.0000
 11
16.4946
 21
83.3679
 31
0.0000
  0
LINE
  8
51
 10
16.4946
 20
83.3679
 30
0.0000
 11
16.1114
 21
83.7510
 31
0.0000
  0
LINE
  8
51
 10
16.1114
 20
83.7510
 30
0.0000
 11
16.4946
 21
84.1341
 31
0.0000
  0
LINE
  8
51
 10
16.4946
 20
84.1341
 30
0.0000
 11
17.6439
 21
84.1341
 31
0.0000
  0
LINE
  8
51
 10
18.7965
 20
84.5172
 30
0.0000
 11
18.7965
 21
82.9847
 31
0.0000
  0
LINE
  8
51
 10
18.7965
 20
82.9847
 30
0.0000
 11
19.1796
 21
82.6016
 31
0.0000
  0
LINE
  8
51
 10
18.4134
 20
84.1341
 30
0.0000
 11
19.1796
 21
84.1341
 31
0.0000
  0
LINE
  8
51
 10
21.0974
 20
82.6016
 30
0.0000
 11
20.3312
 21
82.6016
 31
0.0000
  0
LINE
  8
51
 10
20.3312
 20
82.6016
 30
0.0000
 11
19.9480
 21
82.9847
 31
0.0000
  0
LINE
  8
51
 10
19.9480
 20
82.9847
 30
0.0000
 11
19.9480
 21
83.7510
 31
0.0000
  0
LINE
  8
51
 10
19.9480
 20
83.7510
 30
0.0000
 11
20.3312
 21
84.1341
 31
0.0000
  0
LINE
  8
51
 10
20.3312
 20
84.1341
 30
0.0000
 11
21.0974
 21
84.1341
 31
0.0000
  0
LINE
  8
51
 10
21.0974
 20
84.1341
 30
0.0000
 11
21.4805
 21
83.7510
 31
0.0000
  0
LINE
  8
51
 10
21.4805
 20
83.7510
 30
0.0000
 11
21.4805
 21
83.3679
 31
0.0000
  0
LINE
  8
51
 10
21.4805
 20
83.3679
 30
0.0000
 11
19.9480
 21
83.3679
 31
0.0000
  0
LINE
  8
51
 10
23.7825
 20
84.9004
 30
0.0000
 11
23.7825
 21
82.6016
 31
0.0000
  0
LINE
  8
51
 10
23.7825
 20
82.6016
 30
0.0000
 11
22.6331
 21
82.6016
 31
0.0000
  0
LINE
  8
51
 10
22.6331
 20
82.6016
 30
0.0000
 11
22.2500
 21
82.9847
 31
0.0000
  0
LINE
  8
51
 10
22.2500
 20
82.9847
 30
0.0000
 11
22.2500
 21
83.7510
 31
0.0000
  0
LINE
  8
51
 10
22.2500
 20
83.7510
 30
0.0000
 11
22.6331
 21
84.1341
 31
0.0000
  0
LINE
  8
51
 10
22.6331
 20
84.1341
 30
0.0000
 11
23.7825
 21
84.1341
 31
0.0000
  0
LINE
  8
51
 10
26.8539
 20
81.8353
 30
0.0000
 11
26.8539
 21
84.1341
 31
0.0000
  0
LINE
  8
51
 10
26.8539
 20
84.1341
 30
0.0000
 11
28.0033
 21
84.1341
 31
0.0000
  0
LINE
  8
51
 10
28.0033
 20
84.1341
 30
0.0000
 11
28.3864
 21
83.7510
 31
0.0000
  0
LINE
  8
51
 10
28.3864
 20
83.7510
 30
0.0000
 11
28.3864
 21
82.9847
 31
0.0000
  0
LINE
  8
51
 10
28.3864
 20
82.9847
 30
0.0000
 11
28.0033
 21
82.6016
 31
0.0000
  0
LINE
  8
51
 10
28.0033
 20
82.6016
 30
0.0000
 11
26.8539
 21
82.6016
 31
0.0000
  0
LINE
  8
51
 10
29.5390
 20
82.6016
 30
0.0000
 11
30.3053
 21
82.6016
 31
0.0000
  0
LINE
  8
51
 10
30.3053
 20
82.6016
 30
0.0000
 11
30.6884
 21
82.9847
 31
0.0000
  0
LINE
  8
51
 10
30.6884
 20
82.9847
 30
0.0000
 11
30.6884
 21
83.7510
 31
0.0000
  0
LINE
  8
51
 10
30.6884
 20
83.7510
 30
0.0000
 11
30.3053
 21
84.1341
 31
0.0000
  0
LINE
  8
51
 10
30.3053
 20
84.1341
 30
0.0000
 11
29.5390
 21
84.1341
 31
0.0000
  0
LINE
  8
51
 10
29.5390
 20
84.1341
 30
0.0000
 11
29.1559
 21
83.7510
 31
0.0000
  0
LINE
  8
51
 10
29.1559
 20
83.7510
 30
0.0000
 11
29.1559
 21
82.9847
 31
0.0000
  0
LINE
  8
51
 10
29.1559
 20
82.9847
 30
0.0000
 11
29.5390
 21
82.6016
 31
0.0000
  0
LINE
  8
51
 10
31.4579
 20
82.6016
 30
0.0000
 11
32.6072
 21
82.6016
 31
0.0000
  0
LINE
  8
51
 10
32.6072
 20
82.6016
 30
0.0000
 11
32.9904
 21
82.9847
 31
0.0000
  0
LINE
  8
51
 10
32.9904
 20
82.9847
 30
0.0000
 11
32.6072
 21
83.3679
 31
0.0000
  0
LINE
  8
51
 10
32.6072
 20
83.3679
 30
0.0000
 11
31.8410
 21
83.3679
 31
0.0000
  0
LINE
  8
51
 10
31.8410
 20
83.3679
 30
0.0000
 11
31.4579
 21
83.7510
 31
0.0000
  0
LINE
  8
51
 10
31.4579
 20
83.7510
 30
0.0000
 11
31.8410
 21
84.1341
 31
0.0000
  0
LINE
  8
51
 10
31.8410
 20
84.1341
 30
0.0000
 11
32.9904
 21
84.1341
 31
0.0000
  0
LINE
  8
51
 10
33.7598
 20
84.1341
 30
0.0000
 11
34.1430
 21
84.1341
 31
0.0000
  0
LINE
  8
51
 10
34.1430
 20
84.1341
 30
0.0000
 11
34.1430
 21
82.6016
 31
0.0000
  0
LINE
  8
51
 10
33.7598
 20
82.6016
 30
0.0000
 11
34.5261
 21
82.6016
 31
0.0000
  0
LINE
  8
51
 10
34.1430
 20
85.2835
 30
0.0000
 11
34.1430
 21
84.9004
 31
0.0000
  0
LINE
  8
51
 10
35.6776
 20
84.5172
 30
0.0000
 11
35.6776
 21
82.9847
 31
0.0000
  0
LINE
  8
51
 10
35.6776
 20
82.9847
 30
0.0000
 11
36.0607
 21
82.6016
 31
0.0000
  0
LINE
  8
51
 10
35.2945
 20
84.1341
 30
0.0000
 11
36.0607
 21
84.1341
 31
0.0000
  0
LINE
  8
51
 10
36.8291
 20
84.1341
 30
0.0000
 11
37.2122
 21
84.1341
 31
0.0000
  0
LINE
  8
51
 10
37.2122
 20
84.1341
 30
0.0000
 11
37.2122
 21
82.6016
 31
0.0000
  0
LINE
  8
51
 10
36.8291
 20
82.6016
 30
0.0000
 11
37.5954
 21
82.6016
 31
0.0000
  0
LINE
  8
51
 10
37.2122
 20
85.2835
 30
0.0000
 11
37.2122
 21
84.9004
 31
0.0000
  0
LINE
  8
51
 10
38.7469
 20
82.6016
 30
0.0000
 11
39.5131
 21
82.6016
 31
0.0000
  0
LINE
  8
51
 10
39.5131
 20
82.6016
 30
0.0000
 11
39.8963
 21
82.9847
 31
0.0000
  0
LINE
  8
51
 10
39.8963
 20
82.9847
 30
0.0000
 11
39.8963
 21
83.7510
 31
0.0000
  0
LINE
  8
51
 10
39.8963
 20
83.7510
 30
0.0000
 11
39.5131
 21
84.1341
 31
0.0000
  0
LINE
  8
51
 10
39.5131
 20
84.1341
 30
0.0000
 11
38.7469
 21
84.1341
 31
0.0000
  0
LINE
  8
51
 10
38.7469
 20
84.1341
 30
0.0000
 11
38.3638
 21
83.7510
 31
0.0000
  0
LINE
  8
51
 10
38.3638
 20
83.7510
 30
0.0000
 11
38.3638
 21
82.9847
 31
0.0000
  0
LINE
  8
51
 10
38.3638
 20
82.9847
 30
0.0000
 11
38.7469
 21
82.6016
 31
0.0000
  0
LINE
  8
51
 10
40.6657
 20
82.6016
 30
0.0000
 11
40.6657
 21
84.1341
 31
0.0000
  0
LINE
  8
51
 10
40.6657
 20
84.1341
 30
0.0000
 11
41.8151
 21
84.1341
 31
0.0000
  0
LINE
  8
51
 10
41.8151
 20
84.1341
 30
0.0000
 11
42.1982
 21
83.7510
 31
0.0000
  0
LINE
  8
51
 10
42.1982
 20
83.7510
 30
0.0000
 11
42.1982
 21
82.6016
 31
0.0000
  0
LINE
  8
51
 10
45.6528
 20
82.6016
 30
0.0000
 11
46.4190
 21
82.6016
 31
0.0000
  0
LINE
  8
51
 10
46.4190
 20
82.6016
 30
0.0000
 11
46.8022
 21
82.9847
 31
0.0000
  0
LINE
  8
51
 10
46.8022
 20
82.9847
 30
0.0000
 11
46.8022
 21
83.7510
 31
0.0000
  0
LINE
  8
51
 10
46.8022
 20
83.7510
 30
0.0000
 11
46.4190
 21
84.1341
 31
0.0000
  0
LINE
  8
51
 10
46.4190
 20
84.1341
 30
0.0000
 11
45.6528
 21
84.1341
 31
0.0000
  0
LINE
  8
51
 10
45.6528
 20
84.1341
 30
0.0000
 11
45.2697
 21
83.7510
 31
0.0000
  0
LINE
  8
51
 10
45.2697
 20
83.7510
 30
0.0000
 11
45.2697
 21
82.9847
 31
0.0000
  0
LINE
  8
51
 10
45.2697
 20
82.9847
 30
0.0000
 11
45.6528
 21
82.6016
 31
0.0000
  0
LINE
  8
51
 10
47.9548
 20
82.6016
 30
0.0000
 11
47.9548
 21
84.5172
 31
0.0000
  0
LINE
  8
51
 10
47.9548
 20
84.5172
 30
0.0000
 11
48.3379
 21
84.9004
 31
0.0000
  0
LINE
  8
51
 10
47.5716
 20
83.7510
 30
0.0000
 11
48.3379
 21
83.7510
 31
0.0000
  0
LINE
  8
51
 10
51.4082
 20
82.6016
 30
0.0000
 11
51.4082
 21
84.9004
 31
0.0000
  0
LINE
  8
51
 10
51.4082
 20
84.9004
 30
0.0000
 11
52.5576
 21
84.9004
 31
0.0000
  0
LINE
  8
51
 10
52.5576
 20
84.9004
 30
0.0000
 11
52.9407
 21
84.5172
 31
0.0000
  0
LINE
  8
51
 10
52.9407
 20
84.5172
 30
0.0000
 11
52.9407
 21
83.7510
 31
0.0000
  0
LINE
  8
51
 10
52.9407
 20
83.7510
 30
0.0000
 11
52.5576
 21
83.3679
 31
0.0000
  0
LINE
  8
51
 10
52.5576
 20
83.3679
 30
0.0000
 11
51.4082
 21
83.3679
 31
0.0000
  0
LINE
  8
51
 10
52.1745
 20
83.3679
 30
0.0000
 11
52.9407
 21
82.6016
 31
0.0000
  0
LINE
  8
51
 10
53.7102
 20
84.1341
 30
0.0000
 11
54.0933
 21
84.1341
 31
0.0000
  0
LINE
  8
51
 10
54.0933
 20
84.1341
 30
0.0000
 11
54.0933
 21
82.6016
 31
0.0000
  0
LINE
  8
51
 10
53.7102
 20
82.6016
 30
0.0000
 11
54.4765
 21
82.6016
 31
0.0000
  0
LINE
  8
51
 10
54.0933
 20
85.2835
 30
0.0000
 11
54.0933
 21
84.9004
 31
0.0000
  0
LINE
  8
51
 10
55.2448
 20
84.1341
 30
0.0000
 11
56.0111
 21
82.6016
 31
0.0000
  0
LINE
  8
51
 10
56.0111
 20
82.6016
 30
0.0000
 11
56.7774
 21
84.1341
 31
0.0000
  0
LINE
  8
51
 10
58.6962
 20
82.6016
 30
0.0000
 11
57.9299
 21
82.6016
 31
0.0000
  0
LINE
  8
51
 10
57.9299
 20
82.6016
 30
0.0000
 11
57.5468
 21
82.9847
 31
0.0000
  0
LINE
  8
51
 10
57.5468
 20
82.9847
 30
0.0000
 11
57.5468
 21
83.7510
 31
0.0000
  0
LINE
  8
51
 10
57.5468
 20
83.7510
 30
0.0000
 11
57.9299
 21
84.1341
 31
0.0000
  0
LINE
  8
51
 10
57.9299
 20
84.1341
 30
0.0000
 11
58.6962
 21
84.1341
 31
0.0000
  0
LINE
  8
51
 10
58.6962
 20
84.1341
 30
0.0000
 11
59.0793
 21
83.7510
 31
0.0000
  0
LINE
  8
51
 10
59.0793
 20
83.7510
 30
0.0000
 11
59.0793
 21
83.3679
 31
0.0000
  0
LINE
  8
51
 10
59.0793
 20
83.3679
 30
0.0000
 11
57.5468
 21
83.3679
 31
0.0000
  0
LINE
  8
51
 10
59.8488
 20
82.6016
 30
0.0000
 11
59.8488
 21
84.1341
 31
0.0000
  0
LINE
  8
51
 10
59.8488
 20
83.3679
 30
0.0000
 11
60.6150
 21
84.1341
 31
0.0000
  0
LINE
  8
51
 10
60.6150
 20
84.1341
 30
0.0000
 11
60.9982
 21
84.1341
 31
0.0000
  0
LINE
  8
51
 10
63.2996
 20
84.9004
 30
0.0000
 11
63.2996
 21
82.6016
 31
0.0000
  0
LINE
  8
51
 10
63.2996
 20
82.6016
 30
0.0000
 11
62.1502
 21
82.6016
 31
0.0000
  0
LINE
  8
51
 10
62.1502
 20
82.6016
 30
0.0000
 11
61.7671
 21
82.9847
 31
0.0000
  0
LINE
  8
51
 10
61.7671
 20
82.9847
 30
0.0000
 11
61.7671
 21
83.7510
 31
0.0000
  0
LINE
  8
51
 10
61.7671
 20
83.7510
 30
0.0000
 11
62.1502
 21
84.1341
 31
0.0000
  0
LINE
  8
51
 10
62.1502
 20
84.1341
 30
0.0000
 11
63.2996
 21
84.1341
 31
0.0000
  0
LINE
  8
51
 10
64.0690
 20
84.1341
 30
0.0000
 11
64.4522
 21
84.1341
 31
0.0000
  0
LINE
  8
51
 10
64.4522
 20
84.1341
 30
0.0000
 11
64.4522
 21
82.6016
 31
0.0000
  0
LINE
  8
51
 10
64.0690
 20
82.6016
 30
0.0000
 11
64.8353
 21
82.6016
 31
0.0000
  0
LINE
  8
51
 10
64.4522
 20
85.2835
 30
0.0000
 11
64.4522
 21
84.9004
 31
0.0000
  0
LINE
  8
51
 10
67.9057
 20
84.5172
 30
0.0000
 11
68.2888
 21
84.9004
 31
0.0000
  0
LINE
  8
51
 10
68.2888
 20
84.9004
 30
0.0000
 11
69.0550
 21
84.9004
 31
0.0000
  0
LINE
  8
51
 10
69.0550
 20
84.9004
 30
0.0000
 11
69.4382
 21
84.5172
 31
0.0000
  0
LINE
  8
51
 10
69.4382
 20
84.5172
 30
0.0000
 11
69.4382
 21
84.1341
 31
0.0000
  0
LINE
  8
51
 10
69.4382
 20
84.1341
 30
0.0000
 11
69.0550
 21
83.7510
 31
0.0000
  0
LINE
  8
51
 10
69.0550
 20
83.7510
 30
0.0000
 11
68.6719
 21
83.7510
 31
0.0000
  0
LINE
  8
51
 10
69.0550
 20
83.7510
 30
0.0000
 11
69.4382
 21
83.3679
 31
0.0000
  0
LINE
  8
51
 10
69.4382
 20
83.3679
 30
0.0000
 11
69.4382
 21
82.9847
 31
0.0000
  0
LINE
  8
51
 10
69.4382
 20
82.9847
 30
0.0000
 11
69.0550
 21
82.6016
 31
0.0000
  0
LINE
  8
51
 10
69.0550
 20
82.6016
 30
0.0000
 11
68.2888
 21
82.6016
 31
0.0000
  0
LINE
  8
51
 10
68.2888
 20
82.6016
 30
0.0000
 11
67.9057
 21
82.9847
 31
0.0000
  0
LINE
  8
51
 10
70.2076
 20
82.6016
 30
0.0000
 11
70.2076
 21
82.9847
 31
0.0000
  0
LINE
  8
51
 10
70.2076
 20
82.9847
 30
0.0000
 11
70.5907
 21
82.9847
 31
0.0000
  0
LINE
  8
51
 10
70.5907
 20
82.9847
 30
0.0000
 11
70.5907
 21
82.6016
 31
0.0000
  0
LINE
  8
51
 10
70.5907
 20
82.6016
 30
0.0000
 11
70.2076
 21
82.6016
 31
0.0000
  0
LINE
  8
51
 10
72.8911
 20
84.9004
 30
0.0000
 11
71.3586
 21
84.9004
 31
0.0000
  0
LINE
  8
51
 10
71.3586
 20
84.9004
 30
0.0000
 11
71.3586
 21
83.7510
 31
0.0000
  0
LINE
  8
51
 10
71.3586
 20
83.7510
 30
0.0000
 11
72.1249
 21
84.1341
 31
0.0000
  0
LINE
  8
51
 10
72.1249
 20
84.1341
 30
0.0000
 11
72.5080
 21
84.1341
 31
0.0000
  0
LINE
  8
51
 10
72.5080
 20
84.1341
 30
0.0000
 11
72.8911
 21
83.7510
 31
0.0000
  0
LINE
  8
51
 10
72.8911
 20
83.7510
 30
0.0000
 11
72.8911
 21
82.9847
 31
0.0000
  0
LINE
  8
51
 10
72.8911
 20
82.9847
 30
0.0000
 11
72.5080
 21
82.6016
 31
0.0000
  0
LINE
  8
51
 10
72.5080
 20
82.6016
 30
0.0000
 11
71.7417
 21
82.6016
 31
0.0000
  0
LINE
  8
51
 10
71.7417
 20
82.6016
 30
0.0000
 11
71.3586
 21
82.9847
 31
0.0000
  0
LINE
  8
51
 10
74.0437
 20
85.2835
 30
0.0000
 11
74.0437
 21
84.5172
 31
0.0000
  0
LINE
  8
51
 10
74.0437
 20
84.5172
 30
0.0000
 11
73.6606
 21
84.1341
 31
0.0000
  0
LINE
  8
51
 10
74.8099
 20
85.2835
 30
0.0000
 11
74.8099
 21
84.5172
 31
0.0000
  0
LINE
  8
51
 10
74.8099
 20
84.5172
 30
0.0000
 11
74.4268
 21
84.1341
 31
0.0000
  0
LINE
  8
51
 10
79.4133
 20
84.9004
 30
0.0000
 11
79.4133
 21
82.6016
 31
0.0000
  0
LINE
  8
51
 10
79.4133
 20
82.6016
 30
0.0000
 11
78.2640
 21
82.6016
 31
0.0000
  0
LINE
  8
51
 10
78.2640
 20
82.6016
 30
0.0000
 11
77.8808
 21
82.9847
 31
0.0000
  0
LINE
  8
51
 10
77.8808
 20
82.9847
 30
0.0000
 11
77.8808
 21
83.7510
 31
0.0000
  0
LINE
  8
51
 10
77.8808
 20
83.7510
 30
0.0000
 11
78.2640
 21
84.1341
 31
0.0000
  0
LINE
  8
51
 10
78.2640
 20
84.1341
 30
0.0000
 11
79.4133
 21
84.1341
 31
0.0000
  0
LINE
  8
51
 10
80.1828
 20
84.1341
 30
0.0000
 11
80.5659
 21
84.1341
 31
0.0000
  0
LINE
  8
51
 10
80.5659
 20
84.1341
 30
0.0000
 11
80.5659
 21
82.6016
 31
0.0000
  0
LINE
  8
51
 10
80.1828
 20
82.6016
 30
0.0000
 11
80.9491
 21
82.6016
 31
0.0000
  0
LINE
  8
51
 10
80.5659
 20
85.2835
 30
0.0000
 11
80.5659
 21
84.9004
 31
0.0000
  0
LINE
  8
51
 10
81.7174
 20
82.6016
 30
0.0000
 11
82.8668
 21
82.6016
 31
0.0000
  0
LINE
  8
51
 10
82.8668
 20
82.6016
 30
0.0000
 11
83.2500
 21
82.9847
 31
0.0000
  0
LINE
  8
51
 10
83.2500
 20
82.9847
 30
0.0000
 11
82.8668
 21
83.3679
 31
0.0000
  0
LINE
  8
51
 10
82.8668
 20
83.3679
 30
0.0000
 11
82.1006
 21
83.3679
 31
0.0000
  0
LINE
  8
51
 10
82.1006
 20
83.3679
 30
0.0000
 11
81.7174
 21
83.7510
 31
0.0000
  0
LINE
  8
51
 10
81.7174
 20
83.7510
 30
0.0000
 11
82.1006
 21
84.1341
 31
0.0000
  0
LINE
  8
51
 10
82.1006
 20
84.1341
 30
0.0000
 11
83.2500
 21
84.1341
 31
0.0000
  0
LINE
  8
51
 10
84.0194
 20
81.8353
 30
0.0000
 11
84.0194
 21
84.1341
 31
0.0000
  0
LINE
  8
51
 10
84.0194
 20
84.1341
 30
0.0000
 11
85.1688
 21
84.1341
 31
0.0000
  0
LINE
  8
51
 10
85.1688
 20
84.1341
 30
0.0000
 11
85.5519
 21
83.7510
 31
0.0000
  0
LINE
  8
51
 10
85.5519
 20
83.7510
 30
0.0000
 11
85.5519
 21
82.9847
 31
0.0000
  0
LINE
  8
51
 10
85.5519
 20
82.9847
 30
0.0000
 11
85.1688
 21
82.6016
 31
0.0000
  0
LINE
  8
51
 10
85.1688
 20
82.6016
 30
0.0000
 11
84.0194
 21
82.6016
 31
0.0000
  0
LINE
  8
51
 10
86.3214
 20
84.9004
 30
0.0000
 11
86.7045
 21
84.9004
 31
0.0000
  0
LINE
  8
51
 10
86.7045
 20
84.9004
 30
0.0000
 11
86.7045
 21
82.6016
 31
0.0000
  0
LINE
  8
51
 10
86.3214
 20
82.6016
 30
0.0000
 11
87.0876
 21
82.6016
 31
0.0000
  0
LINE
  8
51
 10
88.2391
 20
84.1341
 30
0.0000
 11
89.0054
 21
84.1341
 31
0.0000
  0
LINE
  8
51
 10
89.0054
 20
84.1341
 30
0.0000
 11
89.3885
 21
83.7510
 31
0.0000
  0
LINE
  8
51
 10
89.3885
 20
83.7510
 30
0.0000
 11
89.3885
 21
82.6016
 31
0.0000
  0
LINE
  8
51
 10
89.3885
 20
82.6016
 30
0.0000
 11
88.2391
 21
82.6016
 31
0.0000
  0
LINE
  8
51
 10
88.2391
 20
82.6016
 30
0.0000
 11
87.8560
 21
82.9847
 31
0.0000
  0
LINE
  8
51
 10
87.8560
 20
82.9847
 30
0.0000
 11
88.2391
 21
83.3679
 31
0.0000
  0
LINE
  8
51
 10
88.2391
 20
83.3679
 30
0.0000
 11
89.3885
 21
83.3679
 31
0.0000
  0
LINE
  8
51
 10
90.1580
 20
84.1341
 30
0.0000
 11
90.1580
 21
82.9847
 31
0.0000
  0
LINE
  8
51
 10
90.1580
 20
82.9847
 30
0.0000
 11
90.5411
 21
82.6016
 31
0.0000
  0
LINE
  8
51
 10
90.5411
 20
82.6016
 30
0.0000
 11
91.6905
 21
82.6016
 31
0.0000
  0
LINE
  8
51
 10
91.6905
 20
84.1341
 30
0.0000
 11
91.6905
 21
82.2185
 31
0.0000
  0
LINE
  8
51
 10
91.6905
 20
82.2185
 30
0.0000
 11
91.3074
 21
81.8353
 31
0.0000
  0
LINE
  8
51
 10
91.3074
 20
81.8353
 30
0.0000
 11
90.9242
 21
81.8353
 31
0.0000
  0
LINE
  8
51
 10
95.1450
 20
82.6016
 30
0.0000
 11
95.9113
 21
82.6016
 31
0.0000
  0
LINE
  8
51
 10
95.9113
 20
82.6016
 30
0.0000
 11
96.2944
 21
82.9847
 31
0.0000
  0
LINE
  8
51
 10
96.2944
 20
82.9847
 30
0.0000
 11
96.2944
 21
83.7510
 31
0.0000
  0
LINE
  8
51
 10
96.2944
 20
83.7510
 30
0.0000
 11
95.9113
 21
84.1341
 31
0.0000
  0
LINE
  8
51
 10
95.9113
 20
84.1341
 30
0.0000
 11
95.1450
 21
84.1341
 31
0.0000
  0
LINE
  8
51
 10
95.1450
 20
84.1341
 30
0.0000
 11
94.7619
 21
83.7510
 31
0.0000
  0
LINE
  8
51
 10
94.7619
 20
83.7510
 30
0.0000
 11
94.7619
 21
82.9847
 31
0.0000
  0
LINE
  8
51
 10
94.7619
 20
82.9847
 30
0.0000
 11
95.1450
 21
82.6016
 31
0.0000
  0
LINE
  8
51
 10
97.0639
 20
82.6016
 30
0.0000
 11
97.0639
 21
84.1341
 31
0.0000
  0
LINE
  8
51
 10
97.0639
 20
84.1341
 30
0.0000
 11
98.2133
 21
84.1341
 31
0.0000
  0
LINE
  8
51
 10
98.2133
 20
84.1341
 30
0.0000
 11
98.5964
 21
83.7510
 31
0.0000
  0
LINE
  8
51
 10
98.5964
 20
83.7510
 30
0.0000
 11
98.5964
 21
82.6016
 31
0.0000
  0
LINE
  8
51
 10
102.0509
 20
84.5172
 30
0.0000
 11
102.0509
 21
82.9847
 31
0.0000
  0
LINE
  8
51
 10
102.0509
 20
82.9847
 30
0.0000
 11
102.4341
 21
82.6016
 31
0.0000
  0
LINE
  8
51
 10
101.6678
 20
84.1341
 30
0.0000
 11
102.4341
 21
84.1341
 31
0.0000
  0
LINE
  8
51
 10
103.2025
 20
84.9004
 30
0.0000
 11
103.2025
 21
82.6016
 31
0.0000
  0
LINE
  8
51
 10
103.2025
 20
83.7510
 30
0.0000
 11
103.5856
 21
84.1341
 31
0.0000
  0
LINE
  8
51
 10
103.5856
 20
84.1341
 30
0.0000
 11
104.3518
 21
84.1341
 31
0.0000
  0
LINE
  8
51
 10
104.3518
 20
84.1341
 30
0.0000
 11
104.7350
 21
83.7510
 31
0.0000
  0
LINE
  8
51
 10
104.7350
 20
83.7510
 30
0.0000
 11
104.7350
 21
82.6016
 31
0.0000
  0
LINE
  8
51
 10
106.6538
 20
82.6016
 30
0.0000
 11
105.8875
 21
82.6016
 31
0.0000
  0
LINE
  8
51
 10
105.8875
 20
82.6016
 30
0.0000
 11
105.5044
 21
82.9847
 31
0.0000
  0
LINE
  8
51
 10
105.5044
 20
82.9847
 30
0.0000
 11
105.5044
 21
83.7510
 31
0.0000
  0
LINE
  8
51
 10
105.5044
 20
83.7510
 30
0.0000
 11
105.8875
 21
84.1341
 31
0.0000
  0
LINE
  8
51
 10
105.8875
 20
84.1341
 30
0.0000
 11
106.6538
 21
84.1341
 31
0.0000
  0
LINE
  8
51
 10
106.6538
 20
84.1341
 30
0.0000
 11
107.0369
 21
83.7510
 31
0.0000
  0
LINE
  8
51
 10
107.0369
 20
83.7510
 30
0.0000
 11
107.0369
 21
83.3679
 31
0.0000
  0
LINE
  8
51
 10
107.0369
 20
83.3679
 30
0.0000
 11
105.5044
 21
83.3679
 31
0.0000
  0
LINE
  8
51
 10
111.6409
 20
84.9004
 30
0.0000
 11
110.1084
 21
84.9004
 31
0.0000
  0
LINE
  8
51
 10
110.1084
 20
84.9004
 30
0.0000
 11
110.1084
 21
82.6016
 31
0.0000
  0
LINE
  8
51
 10
110.1084
 20
82.6016
 30
0.0000
 11
111.6409
 21
82.6016
 31
0.0000
  0
LINE
  8
51
 10
110.1084
 20
83.7510
 30
0.0000
 11
110.8746
 21
83.7510
 31
0.0000
  0
LINE
  8
51
 10
113.9428
 20
84.9004
 30
0.0000
 11
112.4103
 21
84.9004
 31
0.0000
  0
LINE
  8
51
 10
112.4103
 20
84.9004
 30
0.0000
 11
112.4103
 21
82.6016
 31
0.0000
  0
LINE
  8
51
 10
112.4103
 20
82.6016
 30
0.0000
 11
113.9428
 21
82.6016
 31
0.0000
  0
LINE
  8
51
 10
112.4103
 20
83.7510
 30
0.0000
 11
113.1766
 21
83.7510
 31
0.0000
  0
LINE
  8
51
 10
114.7123
 20
84.9004
 30
0.0000
 11
116.2448
 21
84.9004
 31
0.0000
  0
LINE
  8
51
 10
116.2448
 20
84.9004
 30
0.0000
 11
116.2448
 21
84.5172
 31
0.0000
  0
LINE
  8
51
 10
116.2448
 20
84.5172
 30
0.0000
 11
114.7123
 21
82.9847
 31
0.0000
  0
LINE
  8
51
 10
114.7123
 20
82.9847
 30
0.0000
 11
114.7123
 21
82.6016
 31
0.0000
  0
LINE
  8
51
 10
114.7123
 20
82.6016
 30
0.0000
 11
116.2448
 21
82.6016
 31
0.0000
  0
LINE
  8
51
 10
119.3162
 20
82.6016
 30
0.0000
 11
119.3162
 21
84.9004
 31
0.0000
  0
LINE
  8
51
 10
119.3162
 20
83.7510
 30
0.0000
 11
120.8487
 21
83.7510
 31
0.0000
  0
LINE
  8
51
 10
120.8487
 20
84.9004
 30
0.0000
 11
120.8487
 21
82.6016
 31
0.0000
  0
LINE
  8
51
 10
123.1507
 20
82.6016
 30
0.0000
 11
121.6182
 21
82.6016
 31
0.0000
  0
LINE
  8
51
 10
121.6182
 20
82.6016
 30
0.0000
 11
123.1507
 21
84.1341
 31
0.0000
  0
LINE
  8
51
 10
123.1507
 20
84.1341
 30
0.0000
 11
123.1507
 21
84.5172
 31
0.0000
  0
LINE
  8
51
 10
123.1507
 20
84.5172
 30
0.0000
 11
122.7676
 21
84.9004
 31
0.0000
  0
LINE
  8
51
 10
122.7676
 20
84.9004
 30
0.0000
 11
122.0013
 21
84.9004
 31
0.0000
  0
LINE
  8
51
 10
122.0013
 20
84.9004
 30
0.0000
 11
121.6182
 21
84.5172
 31
0.0000
  0
LINE
  8
51
 10
125.0695
 20
82.6016
 30
0.0000
 11
125.0695
 21
84.9004
 31
0.0000
  0
LINE
  8
51
 10
125.0695
 20
84.9004
 30
0.0000
 11
123.9201
 21
83.7510
 31
0.0000
  0
LINE
  8
51
 10
123.9201
 20
83.7510
 30
0.0000
 11
125.4527
 21
83.7510
 31
0.0000
  0
LINE
  8
51
 10
126.2221
 20
82.9847
 30
0.0000
 11
126.2221
 21
84.5172
 31
0.0000
  0
LINE
  8
51
 10
126.2221
 20
84.5172
 30
0.0000
 11
126.6052
 21
84.9004
 31
0.0000
  0
LINE
  8
51
 10
126.6052
 20
84.9004
 30
0.0000
 11
127.3715
 21
84.9004
 31
0.0000
  0
LINE
  8
51
 10
127.3715
 20
84.9004
 30
0.0000
 11
127.7546
 21
84.5172
 31
0.0000
  0
LINE
  8
51
 10
127.7546
 20
84.5172
 30
0.0000
 11
127.7546
 21
82.9847
 31
0.0000
  0
LINE
  8
51
 10
127.7546
 20
82.9847
 30
0.0000
 11
127.3715
 21
82.6016
 31
0.0000
  0
LINE
  8
51
 10
127.3715
 20
82.6016
 30
0.0000
 11
126.6052
 21
82.6016
 31
0.0000
  0
LINE
  8
51
 10
126.6052
 20
82.6016
 30
0.0000
 11
126.2221
 21
82.9847
 31
0.0000
  0
LINE
  8
51
 10
126.2221
 20
82.9847
 30
0.0000
 11
127.7546
 21
84.5172
 31
0.0000
  0
LINE
  8
51
 10
128.5241
 20
82.9847
 30
0.0000
 11
128.5241
 21
84.5172
 31
0.0000
  0
LINE
  8
51
 10
128.5241
 20
84.5172
 30
0.0000
 11
128.9072
 21
84.9004
 31
0.0000
  0
LINE
  8
51
 10
128.9072
 20
84.9004
 30
0.0000
 11
129.6735
 21
84.9004
 31
0.0000
  0
LINE
  8
51
 10
129.6735
 20
84.9004
 30
0.0000
 11
130.0566
 21
84.5172
 31
0.0000
  0
LINE
  8
51
 10
130.0566
 20
84.5172
 30
0.0000
 11
130.0566
 21
82.9847
 31
0.0000
  0
LINE
  8
51
 10
130.0566
 20
82.9847
 30
0.0000
 11
129.6735
 21
82.6016
 31
0.0000
  0
LINE
  8
51
 10
129.6735
 20
82.6016
 30
0.0000
 11
128.9072
 21
82.6016
 31
0.0000
  0
LINE
  8
51
 10
128.9072
 20
82.6016
 30
0.0000
 11
128.5241
 21
82.9847
 31
0.0000
  0
LINE
  8
51
 10
128.5241
 20
82.9847
 30
0.0000
 11
130.0566
 21
84.5172
 31
0.0000
  0
LINE
  8
51
 10
132.3586
 20
84.9004
 30
0.0000
 11
130.8260
 21
84.9004
 31
0.0000
  0
LINE
  8
51
 10
130.8260
 20
84.9004
 30
0.0000
 11
130.8260
 21
83.7510
 31
0.0000
  0
LINE
  8
51
 10
130.8260
 20
83.7510
 30
0.0000
 11
131.5923
 21
84.1341
 31
0.0000
  0
LINE
  8
51
 10
131.5923
 20
84.1341
 30
0.0000
 11
131.9754
 21
84.1341
 31
0.0000
  0
LINE
  8
51
 10
131.9754
 20
84.1341
 30
0.0000
 11
132.3586
 21
83.7510
 31
0.0000
  0
LINE
  8
51
 10
132.3586
 20
83.7510
 30
0.0000
 11
132.3586
 21
82.9847
 31
0.0000
  0
LINE
  8
51
 10
132.3586
 20
82.9847
 30
0.0000
 11
131.9754
 21
82.6016
 31
0.0000
  0
LINE
  8
51
 10
131.9754
 20
82.6016
 30
0.0000
 11
131.2092
 21
82.6016
 31
0.0000
  0
LINE
  8
51
 10
131.2092
 20
82.6016
 30
0.0000
 11
130.8260
 21
82.9847
 31
0.0000
  0
LINE
  8
51
 10
135.8131
 20
84.5172
 30
0.0000
 11
135.8131
 21
82.9847
 31
0.0000
  0
LINE
  8
51
 10
135.8131
 20
82.9847
 30
0.0000
 11
136.1962
 21
82.6016
 31
0.0000
  0
LINE
  8
51
 10
135.4300
 20
84.1341
 30
0.0000
 11
136.1962
 21
84.1341
 31
0.0000
  0
LINE
  8
51
 10
136.9646
 20
84.9004
 30
0.0000
 11
136.9646
 21
82.6016
 31
0.0000
  0
LINE
  8
51
 10
136.9646
 20
83.7510
 30
0.0000
 11
137.3477
 21
84.1341
 31
0.0000
  0
LINE
  8
51
 10
137.3477
 20
84.1341
 30
0.0000
 11
138.1140
 21
84.1341
 31
0.0000
  0
LINE
  8
51
 10
138.1140
 20
84.1341
 30
0.0000
 11
138.4971
 21
83.7510
 31
0.0000
  0
LINE
  8
51
 10
138.4971
 20
83.7510
 30
0.0000
 11
138.4971
 21
82.6016
 31
0.0000
  0
LINE
  8
51
 10
140.4160
 20
82.6016
 30
0.0000
 11
139.6497
 21
82.6016
 31
0.0000
  0
LINE
  8
51
 10
139.6497
 20
82.6016
 30
0.0000
 11
139.2666
 21
82.9847
 31
0.0000
  0
LINE
  8
51
 10
139.2666
 20
82.9847
 30
0.0000
 11
139.2666
 21
83.7510
 31
0.0000
  0
LINE
  8
51
 10
139.2666
 20
83.7510
 30
0.0000
 11
139.6497
 21
84.1341
 31
0.0000
  0
LINE
  8
51
 10
139.6497
 20
84.1341
 30
0.0000
 11
140.4160
 21
84.1341
 31
0.0000
  0
LINE
  8
51
 10
140.4160
 20
84.1341
 30
0.0000
 11
140.7991
 21
83.7510
 31
0.0000
  0
LINE
  8
51
 10
140.7991
 20
83.7510
 30
0.0000
 11
140.7991
 21
83.3679
 31
0.0000
  0
LINE
  8
51
 10
140.7991
 20
83.3679
 30
0.0000
 11
139.2666
 21
83.3679
 31
0.0000
  0
LINE
  8
51
 10
144.2536
 20
82.6016
 30
0.0000
 11
144.2536
 21
84.5172
 31
0.0000
  0
LINE
  8
51
 10
144.2536
 20
84.5172
 30
0.0000
 11
144.6368
 21
84.9004
 31
0.0000
  0
LINE
  8
51
 10
143.8705
 20
83.7510
 30
0.0000
 11
144.6368
 21
83.7510
 31
0.0000
  0
LINE
  8
51
 10
145.4052
 20
82.6016
 30
0.0000
 11
145.4052
 21
84.1341
 31
0.0000
  0
LINE
  8
51
 10
145.4052
 20
83.3679
 30
0.0000
 11
146.1714
 21
84.1341
 31
0.0000
  0
LINE
  8
51
 10
146.1714
 20
84.1341
 30
0.0000
 11
146.5545
 21
84.1341
 31
0.0000
  0
LINE
  8
51
 10
147.7066
 20
82.6016
 30
0.0000
 11
148.4728
 21
82.6016
 31
0.0000
  0
LINE
  8
51
 10
148.4728
 20
82.6016
 30
0.0000
 11
148.8560
 21
82.9847
 31
0.0000
  0
LINE
  8
51
 10
148.8560
 20
82.9847
 30
0.0000
 11
148.8560
 21
83.7510
 31
0.0000
  0
LINE
  8
51
 10
148.8560
 20
83.7510
 30
0.0000
 11
148.4728
 21
84.1341
 31
0.0000
  0
LINE
  8
51
 10
148.4728
 20
84.1341
 30
0.0000
 11
147.7066
 21
84.1341
 31
0.0000
  0
LINE
  8
51
 10
147.7066
 20
84.1341
 30
0.0000
 11
147.3235
 21
83.7510
 31
0.0000
  0
LINE
  8
51
 10
147.3235
 20
83.7510
 30
0.0000
 11
147.3235
 21
82.9847
 31
0.0000
  0
LINE
  8
51
 10
147.3235
 20
82.9847
 30
0.0000
 11
147.7066
 21
82.6016
 31
0.0000
  0
LINE
  8
51
 10
149.6254
 20
82.6016
 30
0.0000
 11
149.6254
 21
84.1341
 31
0.0000
  0
LINE
  8
51
 10
149.6254
 20
84.1341
 30
0.0000
 11
150.7748
 21
84.1341
 31
0.0000
  0
LINE
  8
51
 10
150.7748
 20
84.1341
 30
0.0000
 11
151.1579
 21
83.7510
 31
0.0000
  0
LINE
  8
51
 10
151.1579
 20
83.7510
 30
0.0000
 11
151.1579
 21
82.6016
 31
0.0000
  0
LINE
  8
51
 10
152.3105
 20
84.5172
 30
0.0000
 11
152.3105
 21
82.9847
 31
0.0000
  0
LINE
  8
51
 10
152.3105
 20
82.9847
 30
0.0000
 11
152.6936
 21
82.6016
 31
0.0000
  0
LINE
  8
51
 10
151.9274
 20
84.1341
 30
0.0000
 11
152.6936
 21
84.1341
 31
0.0000
  0
LINE
  8
51
 10
155.7640
 20
81.8353
 30
0.0000
 11
155.7640
 21
84.1341
 31
0.0000
  0
LINE
  8
51
 10
155.7640
 20
84.1341
 30
0.0000
 11
156.9134
 21
84.1341
 31
0.0000
  0
LINE
  8
51
 10
156.9134
 20
84.1341
 30
0.0000
 11
157.2965
 21
83.7510
 31
0.0000
  0
LINE
  8
51
 10
157.2965
 20
83.7510
 30
0.0000
 11
157.2965
 21
82.9847
 31
0.0000
  0
LINE
  8
51
 10
157.2965
 20
82.9847
 30
0.0000
 11
156.9134
 21
82.6016
 31
0.0000
  0
LINE
  8
51
 10
156.9134
 20
82.6016
 30
0.0000
 11
155.7640
 21
82.6016
 31
0.0000
  0
LINE
  8
51
 10
158.4491
 20
84.1341
 30
0.0000
 11
159.2154
 21
84.1341
 31
0.0000
  0
LINE
  8
51
 10
159.2154
 20
84.1341
 30
0.0000
 11
159.5985
 21
83.7510
 31
0.0000
  0
LINE
  8
51
 10
159.5985
 20
83.7510
 30
0.0000
 11
159.5985
 21
82.6016
 31
0.0000
  0
LINE
  8
51
 10
159.5985
 20
82.6016
 30
0.0000
 11
158.4491
 21
82.6016
 31
0.0000
  0
LINE
  8
51
 10
158.4491
 20
82.6016
 30
0.0000
 11
158.0660
 21
82.9847
 31
0.0000
  0
LINE
  8
51
 10
158.0660
 20
82.9847
 30
0.0000
 11
158.4491
 21
83.3679
 31
0.0000
  0
LINE
  8
51
 10
158.4491
 20
83.3679
 30
0.0000
 11
159.5985
 21
83.3679
 31
0.0000
  0
LINE
  8
51
 10
160.3679
 20
82.6016
 30
0.0000
 11
160.3679
 21
84.1341
 31
0.0000
  0
LINE
  8
51
 10
160.3679
 20
84.1341
 30
0.0000
 11
161.5173
 21
84.1341
 31
0.0000
  0
LINE
  8
51
 10
161.5173
 20
84.1341
 30
0.0000
 11
161.9004
 21
83.7510
 31
0.0000
  0
LINE
  8
51
 10
161.9004
 20
83.7510
 30
0.0000
 11
161.9004
 21
82.6016
 31
0.0000
  0
LINE
  8
51
 10
163.8193
 20
82.6016
 30
0.0000
 11
163.0530
 21
82.6016
 31
0.0000
  0
LINE
  8
51
 10
163.0530
 20
82.6016
 30
0.0000
 11
162.6699
 21
82.9847
 31
0.0000
  0
LINE
  8
51
 10
162.6699
 20
82.9847
 30
0.0000
 11
162.6699
 21
83.7510
 31
0.0000
  0
LINE
  8
51
 10
162.6699
 20
83.7510
 30
0.0000
 11
163.0530
 21
84.1341
 31
0.0000
  0
LINE
  8
51
 10
163.0530
 20
84.1341
 30
0.0000
 11
163.8193
 21
84.1341
 31
0.0000
  0
LINE
  8
51
 10
163.8193
 20
84.1341
 30
0.0000
 11
164.2024
 21
83.7510
 31
0.0000
  0
LINE
  8
51
 10
164.2024
 20
83.7510
 30
0.0000
 11
164.2024
 21
83.3679
 31
0.0000
  0
LINE
  8
51
 10
164.2024
 20
83.3679
 30
0.0000
 11
162.6699
 21
83.3679
 31
0.0000
  0
LINE
  8
51
 10
164.9719
 20
84.9004
 30
0.0000
 11
165.3550
 21
84.9004
 31
0.0000
  0
LINE
  8
51
 10
165.3550
 20
84.9004
 30
0.0000
 11
165.3550
 21
82.6016
 31
0.0000
  0
LINE
  8
51
 10
164.9719
 20
82.6016
 30
0.0000
 11
165.7381
 21
82.6016
 31
0.0000
  0
LINE
  8
47
 10
152.0000
 20
68.0000
 30
0.0000
 11
158.9500
 21
68.0000
 31
0.0000
  0
LINE
  8
47
 10
155.5000
 20
80.0000
 30
0.0000
 11
158.9500
 21
80.0000
 31
0.0000
  0
LINE
  8
47
 10
157.0000
 20
68.0650
 30
0.0000
 11
157.0000
 21
79.9350
 31
0.0000
  0
LINE
  8
47
 10
157.0000
 20
68.0650
 30
0.0000
 11
156.6808
 21
70.6000
 31
0.0000
  0
LINE
  8
47
 10
156.6808
 20
70.6000
 30
0.0000
 11
157.3192
 21
70.6000
 31
0.0000
  0
LINE
  8
47
 10
157.3192
 20
70.6000
 30
0.0000
 11
157.0000
 21
68.0650
 31
0.0000
  0
LINE
  8
47
 10
157.0000
 20
68.0650
 30
0.0000
 11
156.8700
 21
70.6000
 31
0.0000
  0
LINE
  8
47
 10
157.1300
 20
70.6000
 30
0.0000
 11
157.0000
 21
68.0650
 31
0.0000
  0
LINE
  8
47
 10
157.0000
 20
68.0650
 30
0.0000
 11
156.7400
 21
70.6000
 31
0.0000
  0
LINE
  8
47
 10
157.2600
 20
70.6000
 30
0.0000
 11
157.0000
 21
68.0650
 31
0.0000
  0
LINE
  8
47
 10
157.0000
 20
79.9350
 30
0.0000
 11
156.6808
 21
77.4000
 31
0.0000
  0
LINE
  8
47
 10
156.6808
 20
77.4000
 30
0.0000
 11
157.3192
 21
77.4000
 31
0.0000
  0
LINE
  8
47
 10
157.3192
 20
77.4000
 30
0.0000
 11
157.0000
 21
79.9350
 31
0.0000
  0
LINE
  8
47
 10
157.0000
 20
79.9350
 30
0.0000
 11
156.8700
 21
77.4000
 31
0.0000
  0
LINE
  8
47
 10
157.1300
 20
77.4000
 30
0.0000
 11
157.0000
 21
79.9350
 31
0.0000
  0
LINE
  8
47
 10
157.0000
 20
79.9350
 30
0.0000
 11
156.7400
 21
77.4000
 31
0.0000
  0
LINE
  8
47
 10
157.2600
 20
77.4000
 30
0.0000
 11
157.0000
 21
79.9350
 31
0.0000
  0
LINE
  8
47
 10
155.2646
 20
72.6615
 30
0.0000
 11
154.7223
 21
73.2038
 31
0.0000
  0
LINE
  8
47
 10
154.7223
 20
73.2038
 30
0.0000
 11
156.3493
 21
73.2038
 31
0.0000
  0
LINE
  8
47
 10
156.3493
 20
72.6615
 30
0.0000
 11
156.3493
 21
73.7461
 31
0.0000
  0
LINE
  8
47
 10
156.3493
 20
75.3833
 30
0.0000
 11
156.3493
 21
74.2986
 31
0.0000
  0
LINE
  8
47
 10
156.3493
 20
74.2986
 30
0.0000
 11
155.2646
 21
75.3833
 31
0.0000
  0
LINE
  8
47
 10
155.2646
 20
75.3833
 30
0.0000
 11
154.9935
 21
75.3833
 31
0.0000
  0
LINE
  8
47
 10
154.9935
 20
75.3833
 30
0.0000
 11
154.7223
 21
75.1121
 31
0.0000
  0
LINE
  8
47
 10
154.7223
 20
75.1121
 30
0.0000
 11
154.7223
 21
74.5698
 31
0.0000
  0
LINE
  8
47
 10
154.7223
 20
74.5698
 30
0.0000
 11
154.9935
 21
74.2986
 31
0.0000
  0
LINE
  8
47
 10
153.5000
 20
0.0000
 30
0.0000
 11
158.9500
 21
0.0000
 31
0.0000
  0
LINE
  8
47
 10
152.0000
 20
12.5000
 30
0.0000
 11
158.9500
 21
12.5000
 31
0.0000
  0
LINE
  8
47
 10
157.0000
 20
0.0650
 30
0.0000
 11
157.0000
 21
12.4350
 31
0.0000
  0
LINE
  8
47
 10
157.0000
 20
0.0650
 30
0.0000
 11
156.6808
 21
2.6000
 31
0.0000
  0
LINE
  8
47
 10
156.6808
 20
2.6000
 30
0.0000
 11
157.3192
 21
2.6000
 31
0.0000
  0
LINE
  8
47
 10
157.3192
 20
2.6000
 30
0.0000
 11
157.0000
 21
0.0650
 31
0.0000
  0
LINE
  8
47
 10
157.0000
 20
0.0650
 30
0.0000
 11
156.8700
 21
2.6000
 31
0.0000
  0
LINE
  8
47
 10
157.1300
 20
2.6000
 30
0.0000
 11
157.0000
 21
0.0650
 31
0.0000
  0
LINE
  8
47
 10
157.0000
 20
0.0650
 30
0.0000
 11
156.7400
 21
2.6000
 31
0.0000
  0
LINE
  8
47
 10
157.2600
 20
2.6000
 30
0.0000
 11
157.0000
 21
0.0650
 31
0.0000
  0
LINE
  8
47
 10
157.0000
 20
12.4350
 30
0.0000
 11
156.6808
 21
9.9000
 31
0.0000
  0
LINE
  8
47
 10
156.6808
 20
9.9000
 30
0.0000
 11
157.3192
 21
9.9000
 31
0.0000
  0
LINE
  8
47
 10
157.3192
 20
9.9000
 30
0.0000
 11
157.0000
 21
12.4350
 31
0.0000
  0
LINE
  8
47
 10
157.0000
 20
12.4350
 30
0.0000
 11
156.8700
 21
9.9000
 31
0.0000
  0
LINE
  8
47
 10
157.1300
 20
9.9000
 30
0.0000
 11
157.0000
 21
12.4350
 31
0.0000
  0
LINE
  8
47
 10
157.0000
 20
12.4350
 30
0.0000
 11
156.7400
 21
9.9000
 31
0.0000
  0
LINE
  8
47
 10
157.2600
 20
9.9000
 30
0.0000
 11
157.0000
 21
12.4350
 31
0.0000
  0
LINE
  8
47
 10
155.2646
 20
3.8493
 30
0.0000
 11
154.7223
 21
4.3916
 31
0.0000
  0
LINE
  8
47
 10
154.7223
 20
4.3916
 30
0.0000
 11
156.3493
 21
4.3916
 31
0.0000
  0
LINE
  8
47
 10
156.3493
 20
3.8493
 30
0.0000
 11
156.3493
 21
4.9339
 31
0.0000
  0
LINE
  8
47
 10
156.3493
 20
6.5711
 30
0.0000
 11
156.3493
 21
5.4864
 31
0.0000
  0
LINE
  8
47
 10
156.3493
 20
5.4864
 30
0.0000
 11
155.2646
 21
6.5711
 31
0.0000
  0
LINE
  8
47
 10
155.2646
 20
6.5711
 30
0.0000
 11
154.9935
 21
6.5711
 31
0.0000
  0
LINE
  8
47
 10
154.9935
 20
6.5711
 30
0.0000
 11
154.7223
 21
6.2999
 31
0.0000
  0
LINE
  8
47
 10
154.7223
 20
6.2999
 30
0.0000
 11
154.7223
 21
5.7576
 31
0.0000
  0
LINE
  8
47
 10
154.7223
 20
5.7576
 30
0.0000
 11
154.9935
 21
5.4864
 31
0.0000
  0
LINE
  8
47
 10
156.3493
 20
7.1236
 30
0.0000
 11
156.0781
 21
7.1236
 31
0.0000
  0
LINE
  8
47
 10
156.0781
 20
7.1236
 30
0.0000
 11
156.0781
 21
7.3947
 31
0.0000
  0
LINE
  8
47
 10
156.0781
 20
7.3947
 30
0.0000
 11
156.3493
 21
7.3947
 31
0.0000
  0
LINE
  8
47
 10
156.3493
 20
7.3947
 30
0.0000
 11
156.3493
 21
7.1236
 31
0.0000
  0
LINE
  8
47
 10
154.7223
 20
9.0268
 30
0.0000
 11
154.7223
 21
7.9422
 31
0.0000
  0
LINE
  8
47
 10
154.7223
 20
7.9422
 30
0.0000
 11
155.5358
 21
7.9422
 31
0.0000
  0
LINE
  8
47
 10
155.5358
 20
7.9422
 30
0.0000
 11
155.2646
 21
8.4845
 31
0.0000
  0
LINE
  8
47
 10
155.2646
 20
8.4845
 30
0.0000
 11
155.2646
 21
8.7557
 31
0.0000
  0
LINE
  8
47
 10
155.2646
 20
8.7557
 30
0.0000
 11
155.5358
 21
9.0268
 31
0.0000
  0
LINE
  8
47
 10
155.5358
 20
9.0268
 30
0.0000
 11
156.0781
 21
9.0268
 31
0.0000
  0
LINE
  8
47
 10
156.0781
 20
9.0268
 30
0.0000
 11
156.3493
 21
8.7557
 31
0.0000
  0
LINE
  8
47
 10
156.3493
 20
8.7557
 30
0.0000
 11
156.3493
 21
8.2133
 31
0.0000
  0
LINE
  8
47
 10
156.3493
 20
8.2133
 30
0.0000
 11
156.0781
 21
7.9422
 31
0.0000
  0
LINE
  8
47
 10
77.5000
 20
42.0000
 30
0.0000
 11
77.5000
 21
44.9500
 31
0.0000
  0
LINE
  8
47
 10
0.0000
 20
42.0000
 30
0.0000
 11
0.0000
 21
44.9500
 31
0.0000
  0
LINE
  8
47
 10
77.4350
 20
43.0000
 30
0.0000
 11
0.0650
 21
43.0000
 31
0.0000
  0
LINE
  8
47
 10
77.4350
 20
43.0000
 30
0.0000
 11
74.9000
 21
43.3192
 31
0.0000
  0
LINE
  8
47
 10
74.9000
 20
43.3192
 30
0.0000
 11
74.9000
 21
42.6808
 31
0.0000
  0
LINE
  8
47
 10
74.9000
 20
42.6808
 30
0.0000
 11
77.4350
 21
43.0000
 31
0.0000
  0
LINE
  8
47
 10
77.4350
 20
43.0000
 30
0.0000
 11
74.9000
 21
43.1300
 31
0.0000
  0
LINE
  8
47
 10
74.9000
 20
42.8700
 30
0.0000
 11
77.4350
 21
43.0000
 31
0.0000
  0
LINE
  8
47
 10
77.4350
 20
43.0000
 30
0.0000
 11
74.9000
 21
43.2600
 31
0.0000
  0
LINE
  8
47
 10
74.9000
 20
42.7400
 30
0.0000
 11
77.4350
 21
43.0000
 31
0.0000
  0
LINE
  8
47
 10
0.0650
 20
43.0000
 30
0.0000
 11
2.6000
 21
43.3192
 31
0.0000
  0
LINE
  8
47
 10
2.6000
 20
43.3192
 30
0.0000
 11
2.6000
 21
42.6808
 31
0.0000
  0
LINE
  8
47
 10
2.6000
 20
42.6808
 30
0.0000
 11
0.0650
 21
43.0000
 31
0.0000
  0
LINE
  8
47
 10
0.0650
 20
43.0000
 30
0.0000
 11
2.6000
 21
43.1300
 31
0.0000
  0
LINE
  8
47
 10
2.6000
 20
42.8700
 30
0.0000
 11
0.0650
 21
43.0000
 31
0.0000
  0
LINE
  8
47
 10
0.0650
 20
43.0000
 30
0.0000
 11
2.6000
 21
43.2600
 31
0.0000
  0
LINE
  8
47
 10
2.6000
 20
42.7400
 30
0.0000
 11
0.0650
 21
43.0000
 31
0.0000
  0
LINE
  8
47
 10
36.3493
 20
45.2777
 30
0.0000
 11
37.4339
 21
45.2777
 31
0.0000
  0
LINE
  8
47
 10
37.4339
 20
45.2777
 30
0.0000
 11
37.4339
 21
45.0065
 31
0.0000
  0
LINE
  8
47
 10
37.4339
 20
45.0065
 30
0.0000
 11
36.3493
 21
43.9219
 31
0.0000
  0
LINE
  8
47
 10
36.3493
 20
43.9219
 30
0.0000
 11
36.3493
 21
43.6507
 31
0.0000
  0
LINE
  8
47
 10
37.9864
 20
45.2777
 30
0.0000
 11
39.0711
 21
45.2777
 31
0.0000
  0
LINE
  8
47
 10
39.0711
 20
45.2777
 30
0.0000
 11
39.0711
 21
45.0065
 31
0.0000
  0
LINE
  8
47
 10
39.0711
 20
45.0065
 30
0.0000
 11
37.9864
 21
43.9219
 31
0.0000
  0
LINE
  8
47
 10
37.9864
 20
43.9219
 30
0.0000
 11
37.9864
 21
43.6507
 31
0.0000
  0
LINE
  8
47
 10
39.6236
 20
43.6507
 30
0.0000
 11
39.6236
 21
43.9219
 31
0.0000
  0
LINE
  8
47
 10
39.6236
 20
43.9219
 30
0.0000
 11
39.8947
 21
43.9219
 31
0.0000
  0
LINE
  8
47
 10
39.8947
 20
43.9219
 30
0.0000
 11
39.8947
 21
43.6507
 31
0.0000
  0
LINE
  8
47
 10
39.8947
 20
43.6507
 30
0.0000
 11
39.6236
 21
43.6507
 31
0.0000
  0
LINE
  8
47
 10
41.5268
 20
45.2777
 30
0.0000
 11
40.4422
 21
45.2777
 31
0.0000
  0
LINE
  8
47
 10
40.4422
 20
45.2777
 30
0.0000
 11
40.4422
 21
44.4642
 31
0.0000
  0
LINE
  8
47
 10
40.4422
 20
44.4642
 30
0.0000
 11
40.9845
 21
44.7354
 31
0.0000
  0
LINE
  8
47
 10
40.9845
 20
44.7354
 30
0.0000
 11
41.2557
 21
44.7354
 31
0.0000
  0
LINE
  8
47
 10
41.2557
 20
44.7354
 30
0.0000
 11
41.5268
 21
44.4642
 31
0.0000
  0
LINE
  8
47
 10
41.5268
 20
44.4642
 30
0.0000
 11
41.5268
 21
43.9219
 31
0.0000
  0
LINE
  8
47
 10
41.5268
 20
43.9219
 30
0.0000
 11
41.2557
 21
43.6507
 31
0.0000
  0
LINE
  8
47
 10
41.2557
 20
43.6507
 30
0.0000
 11
40.7133
 21
43.6507
 31
0.0000
  0
LINE
  8
47
 10
40.7133
 20
43.6507
 30
0.0000
 11
40.4422
 21
43.9219
 31
0.0000
  0
LINE
  8
47
 10
82.5000
 20
41.5000
 30
0.0000
 11
82.5000
 21
44.9500
 31
0.0000
  0
LINE
  8
47
 10
77.5000
 20
43.0000
 30
0.0000
 11
77.5000
 21
43.0000
 31
0.0000
  0
LINE
  8
47
 10
82.4350
 20
43.0000
 30
0.0000
 11
77.5650
 21
43.0000
 31
0.0000
  0
LINE
  8
47
 10
82.4350
 20
43.0000
 30
0.0000
 11
79.9000
 21
43.3192
 31
0.0000
  0
LINE
  8
47
 10
79.9000
 20
43.3192
 30
0.0000
 11
79.9000
 21
42.6808
 31
0.0000
  0
LINE
  8
47
 10
79.9000
 20
42.6808
 30
0.0000
 11
82.4350
 21
43.0000
 31
0.0000
  0
LINE
  8
47
 10
82.4350
 20
43.0000
 30
0.0000
 11
79.9000
 21
43.1300
 31
0.0000
  0
LINE
  8
47
 10
79.9000
 20
42.8700
 30
0.0000
 11
82.4350
 21
43.0000
 31
0.0000
  0
LINE
  8
47
 10
82.4350
 20
43.0000
 30
0.0000
 11
79.9000
 21
43.2600
 31
0.0000
  0
LINE
  8
47
 10
79.9000
 20
42.7400
 30
0.0000
 11
82.4350
 21
43.0000
 31
0.0000
  0
LINE
  8
47
 10
77.5650
 20
43.0000
 30
0.0000
 11
80.1000
 21
43.3192
 31
0.0000
  0
LINE
  8
47
 10
80.1000
 20
43.3192
 30
0.0000
 11
80.1000
 21
42.6808
 31
0.0000
  0
LINE
  8
47
 10
80.1000
 20
42.6808
 30
0.0000
 11
77.5650
 21
43.0000
 31
0.0000
  0
LINE
  8
47
 10
77.5650
 20
43.0000
 30
0.0000
 11
80.1000
 21
43.1300
 31
0.0000
  0
LINE
  8
47
 10
80.1000
 20
42.8700
 30
0.0000
 11
77.5650
 21
43.0000
 31
0.0000
  0
LINE
  8
47
 10
77.5650
 20
43.0000
 30
0.0000
 11
80.1000
 21
43.2600
 31
0.0000
  0
LINE
  8
47
 10
80.1000
 20
42.7400
 30
0.0000
 11
77.5650
 21
43.0000
 31
0.0000
  0
LINE
  8
47
 10
80.4557
 20
45.2777
 30
0.0000
 11
79.3711
 21
45.2777
 31
0.0000
  0
LINE
  8
47
 10
79.3711
 20
45.2777
 30
0.0000
 11
79.3711
 21
44.4642
 31
0.0000
  0
LINE
  8
47
 10
79.3711
 20
44.4642
 30
0.0000
 11
79.9134
 21
44.7354
 31
0.0000
  0
LINE
  8
47
 10
79.9134
 20
44.7354
 30
0.0000
 11
80.1846
 21
44.7354
 31
0.0000
  0
LINE
  8
47
 10
80.1846
 20
44.7354
 30
0.0000
 11
80.4557
 21
44.4642
 31
0.0000
  0
LINE
  8
47
 10
80.4557
 20
44.4642
 30
0.0000
 11
80.4557
 21
43.9219
 31
0.0000
  0
LINE
  8
47
 10
80.4557
 20
43.9219
 30
0.0000
 11
80.1846
 21
43.6507
 31
0.0000
  0
LINE
  8
47
 10
80.1846
 20
43.6507
 30
0.0000
 11
79.6422
 21
43.6507
 31
0.0000
  0
LINE
  8
47
 10
79.6422
 20
43.6507
 30
0.0000
 11
79.3711
 21
43.9219
 31
0.0000
  0
LINE
  8
47
 10
153.5000
 20
12.5000
 30
0.0000
 11
158.9500
 21
12.5000
 31
0.0000
  0
LINE
  8
47
 10
154.0000
 20
68.0000
 30
0.0000
 11
158.9500
 21
68.0000
 31
0.0000
  0
LINE
  8
47
 10
157.0000
 20
12.5650
 30
0.0000
 11
157.0000
 21
67.9350
 31
0.0000
  0
LINE
  8
47
 10
157.0000
 20
12.5650
 30
0.0000
 11
156.6808
 21
15.1000
 31
0.0000
  0
LINE
  8
47
 10
156.6808
 20
15.1000
 30
0.0000
 11
157.3192
 21
15.1000
 31
0.0000
  0
LINE
  8
47
 10
157.3192
 20
15.1000
 30
0.0000
 11
157.0000
 21
12.5650
 31
0.0000
  0
LINE
  8
47
 10
157.0000
 20
12.5650
 30
0.0000
 11
156.8700
 21
15.1000
 31
0.0000
  0
LINE
  8
47
 10
157.1300
 20
15.1000
 30
0.0000
 11
157.0000
 21
12.5650
 31
0.0000
  0
LINE
  8
47
 10
157.0000
 20
12.5650
 30
0.0000
 11
156.7400
 21
15.1000
 31
0.0000
  0
LINE
  8
47
 10
157.2600
 20
15.1000
 30
0.0000
 11
157.0000
 21
12.5650
 31
0.0000
  0
LINE
  8
47
 10
157.0000
 20
67.9350
 30
0.0000
 11
156.6808
 21
65.4000
 31
0.0000
  0
LINE
  8
47
 10
156.6808
 20
65.4000
 30
0.0000
 11
157.3192
 21
65.4000
 31
0.0000
  0
LINE
  8
47
 10
157.3192
 20
65.4000
 30
0.0000
 11
157.0000
 21
67.9350
 31
0.0000
  0
LINE
  8
47
 10
157.0000
 20
67.9350
 30
0.0000
 11
156.8700
 21
65.4000
 31
0.0000
  0
LINE
  8
47
 10
157.1300
 20
65.4000
 30
0.0000
 11
157.0000
 21
67.9350
 31
0.0000
  0
LINE
  8
47
 10
157.0000
 20
67.9350
 30
0.0000
 11
156.7400
 21
65.4000
 31
0.0000
  0
LINE
  8
47
 10
157.2600
 20
65.4000
 30
0.0000
 11
157.0000
 21
67.9350
 31
0.0000
  0
LINE
  8
47
 10
154.7223
 20
38.9339
 30
0.0000
 11
154.7223
 21
37.8493
 31
0.0000
  0
LINE
  8
47
 10
154.7223
 20
37.8493
 30
0.0000
 11
155.5358
 21
37.8493
 31
0.0000
  0
LINE
  8
47
 10
155.5358
 20
37.8493
 30
0.0000
 11
155.2646
 21
38.3916
 31
0.0000
  0
LINE
  8
47
 10
155.2646
 20
38.3916
 30
0.0000
 11
155.2646
 21
38.6628
 31
0.0000
  0
LINE
  8
47
 10
155.2646
 20
38.6628
 30
0.0000
 11
155.5358
 21
38.9339
 31
0.0000
  0
LINE
  8
47
 10
155.5358
 20
38.9339
 30
0.0000
 11
156.0781
 21
38.9339
 31
0.0000
  0
LINE
  8
47
 10
156.0781
 20
38.9339
 30
0.0000
 11
156.3493
 21
38.6628
 31
0.0000
  0
LINE
  8
47
 10
156.3493
 20
38.6628
 30
0.0000
 11
156.3493
 21
38.1204
 31
0.0000
  0
LINE
  8
47
 10
156.3493
 20
38.1204
 30
0.0000
 11
156.0781
 21
37.8493
 31
0.0000
  0
LINE
  8
47
 10
154.7223
 20
40.5711
 30
0.0000
 11
154.7223
 21
39.4864
 31
0.0000
  0
LINE
  8
47
 10
154.7223
 20
39.4864
 30
0.0000
 11
155.5358
 21
39.4864
 31
0.0000
  0
LINE
  8
47
 10
155.5358
 20
39.4864
 30
0.0000
 11
155.2646
 21
40.0288
 31
0.0000
  0
LINE
  8
47
 10
155.2646
 20
40.0288
 30
0.0000
 11
155.2646
 21
40.2999
 31
0.0000
  0
LINE
  8
47
 10
155.2646
 20
40.2999
 30
0.0000
 11
155.5358
 21
40.5711
 31
0.0000
  0
LINE
  8
47
 10
155.5358
 20
40.5711
 30
0.0000
 11
156.0781
 21
40.5711
 31
0.0000
  0
LINE
  8
47
 10
156.0781
 20
40.5711
 30
0.0000
 11
156.3493
 21
40.2999
 31
0.0000
  0
LINE
  8
47
 10
156.3493
 20
40.2999
 30
0.0000
 11
156.3493
 21
39.7576
 31
0.0000
  0
LINE
  8
47
 10
156.3493
 20
39.7576
 30
0.0000
 11
156.0781
 21
39.4864
 31
0.0000
  0
LINE
  8
47
 10
156.3493
 20
41.1236
 30
0.0000
 11
156.0781
 21
41.1236
 31
0.0000
  0
LINE
  8
47
 10
156.0781
 20
41.1236
 30
0.0000
 11
156.0781
 21
41.3947
 31
0.0000
  0
LINE
  8
47
 10
156.0781
 20
41.3947
 30
0.0000
 11
156.3493
 21
41.3947
 31
0.0000
  0
LINE
  8
47
 10
156.3493
 20
41.3947
 30
0.0000
 11
156.3493
 21
41.1236
 31
0.0000
  0
LINE
  8
47
 10
154.7223
 20
43.0268
 30
0.0000
 11
154.7223
 21
41.9422
 31
0.0000
  0
LINE
  8
47
 10
154.7223
 20
41.9422
 30
0.0000
 11
155.5358
 21
41.9422
 31
0.0000
  0
LINE
  8
47
 10
155.5358
 20
41.9422
 30
0.0000
 11
155.2646
 21
42.4845
 31
0.0000
  0
LINE
  8
47
 10
155.2646
 20
42.4845
 30
0.0000
 11
155.2646
 21
42.7557
 31
0.0000
  0
LINE
  8
47
 10
155.2646
 20
42.7557
 30
0.0000
 11
155.5358
 21
43.0268
 31
0.0000
  0
LINE
  8
47
 10
155.5358
 20
43.0268
 30
0.0000
 11
156.0781
 21
43.0268
 31
0.0000
  0
LINE
  8
47
 10
156.0781
 20
43.0268
 30
0.0000
 11
156.3493
 21
42.7557
 31
0.0000
  0
LINE
  8
47
 10
156.3493
 20
42.7557
 30
0.0000
 11
156.3493
 21
42.2133
 31
0.0000
  0
LINE
  8
47
 10
156.3493
 20
42.2133
 30
0.0000
 11
156.0781
 21
41.9422
 31
0.0000
  0
LINE
  8
47
 10
135.0000
 20
65.5000
 30
0.0000
 11
140.4500
 21
65.5000
 31
0.0000
  0
LINE
  8
47
 10
138.5000
 20
68.0000
 30
0.0000
 11
138.5000
 21
68.0000
 31
0.0000
  0
LINE
  8
47
 10
138.5000
 20
65.4350
 30
0.0000
 11
138.5000
 21
60.3000
 31
0.0000
  0
LINE
  8
47
 10
138.5000
 20
68.0650
 30
0.0000
 11
138.5000
 21
74.1346
 31
0.0000
  0
LINE
  8
47
 10
138.5000
 20
65.4350
 30
0.0000
 11
138.1808
 21
62.9000
 31
0.0000
  0
LINE
  8
47
 10
138.1808
 20
62.9000
 30
0.0000
 11
138.8192
 21
62.9000
 31
0.0000
  0
LINE
  8
47
 10
138.8192
 20
62.9000
 30
0.0000
 11
138.5000
 21
65.4350
 31
0.0000
  0
LINE
  8
47
 10
138.5000
 20
65.4350
 30
0.0000
 11
138.3700
 21
62.9000
 31
0.0000
  0
LINE
  8
47
 10
138.6300
 20
62.9000
 30
0.0000
 11
138.5000
 21
65.4350
 31
0.0000
  0
LINE
  8
47
 10
138.5000
 20
65.4350
 30
0.0000
 11
138.2400
 21
62.9000
 31
0.0000
  0
LINE
  8
47
 10
138.7600
 20
62.9000
 30
0.0000
 11
138.5000
 21
65.4350
 31
0.0000
  0
LINE
  8
47
 10
138.5000
 20
68.0650
 30
0.0000
 11
138.1808
 21
70.6000
 31
0.0000
  0
LINE
  8
47
 10
138.1808
 20
70.6000
 30
0.0000
 11
138.8192
 21
70.6000
 31
0.0000
  0
LINE
  8
47
 10
138.8192
 20
70.6000
 30
0.0000
 11
138.5000
 21
68.0650
 31
0.0000
  0
LINE
  8
47
 10
138.5000
 20
68.0650
 30
0.0000
 11
138.3700
 21
70.6000
 31
0.0000
  0
LINE
  8
47
 10
138.6300
 20
70.6000
 30
0.0000
 11
138.5000
 21
68.0650
 31
0.0000
  0
LINE
  8
47
 10
138.5000
 20
68.0650
 30
0.0000
 11
138.2400
 21
70.6000
 31
0.0000
  0
LINE
  8
47
 10
138.7600
 20
70.6000
 30
0.0000
 11
138.5000
 21
68.0650
 31
0.0000
  0
LINE
  8
47
 10
137.8493
 20
71.7609
 30
0.0000
 11
137.8493
 21
70.6762
 31
0.0000
  0
LINE
  8
47
 10
137.8493
 20
70.6762
 30
0.0000
 11
136.7646
 21
71.7609
 31
0.0000
  0
LINE
  8
47
 10
136.7646
 20
71.7609
 30
0.0000
 11
136.4935
 21
71.7609
 31
0.0000
  0
LINE
  8
47
 10
136.4935
 20
71.7609
 30
0.0000
 11
136.2223
 21
71.4897
 31
0.0000
  0
LINE
  8
47
 10
136.2223
 20
71.4897
 30
0.0000
 11
136.2223
 21
70.9474
 31
0.0000
  0
LINE
  8
47
 10
136.2223
 20
70.9474
 30
0.0000
 11
136.4935
 21
70.6762
 31
0.0000
  0
LINE
  8
47
 10
137.8493
 20
72.3134
 30
0.0000
 11
137.5781
 21
72.3134
 31
0.0000
  0
LINE
  8
47
 10
137.5781
 20
72.3134
 30
0.0000
 11
137.5781
 21
72.5845
 31
0.0000
  0
LINE
  8
47
 10
137.5781
 20
72.5845
 30
0.0000
 11
137.8493
 21
72.5845
 31
0.0000
  0
LINE
  8
47
 10
137.8493
 20
72.5845
 30
0.0000
 11
137.8493
 21
72.3134
 31
0.0000
  0
LINE
  8
47
 10
136.2223
 20
74.2166
 30
0.0000
 11
136.2223
 21
73.1319
 31
0.0000
  0
LINE
  8
47
 10
136.2223
 20
73.1319
 30
0.0000
 11
137.0358
 21
73.1319
 31
0.0000
  0
LINE
  8
47
 10
137.0358
 20
73.1319
 30
0.0000
 11
136.7646
 21
73.6743
 31
0.0000
  0
LINE
  8
47
 10
136.7646
 20
73.6743
 30
0.0000
 11
136.7646
 21
73.9454
 31
0.0000
  0
LINE
  8
47
 10
136.7646
 20
73.9454
 30
0.0000
 11
137.0358
 21
74.2166
 31
0.0000
  0
LINE
  8
47
 10
137.0358
 20
74.2166
 30
0.0000
 11
137.5781
 21
74.2166
 31
0.0000
  0
LINE
  8
47
 10
137.5781
 20
74.2166
 30
0.0000
 11
137.8493
 21
73.9454
 31
0.0000
  0
LINE
  8
47
 10
137.8493
 20
73.9454
 30
0.0000
 11
137.8493
 21
73.4031
 31
0.0000
  0
LINE
  8
47
 10
137.8493
 20
73.4031
 30
0.0000
 11
137.5781
 21
73.1319
 31
0.0000
  0
LINE
  8
47
 10
136.5000
 20
12.5000
 30
0.0000
 11
141.9500
 21
12.5000
 31
0.0000
  0
LINE
  8
47
 10
138.0000
 20
14.5000
 30
0.0000
 11
141.9500
 21
14.5000
 31
0.0000
  0
LINE
  8
47
 10
140.0000
 20
12.4350
 30
0.0000
 11
140.0000
 21
7.3000
 31
0.0000
  0
LINE
  8
47
 10
140.0000
 20
14.5650
 30
0.0000
 11
140.0000
 21
18.5103
 31
0.0000
  0
LINE
  8
47
 10
140.0000
 20
12.4350
 30
0.0000
 11
139.6808
 21
9.9000
 31
0.0000
  0
LINE
  8
47
 10
139.6808
 20
9.9000
 30
0.0000
 11
140.3192
 21
9.9000
 31
0.0000
  0
LINE
  8
47
 10
140.3192
 20
9.9000
 30
0.0000
 11
140.0000
 21
12.4350
 31
0.0000
  0
LINE
  8
47
 10
140.0000
 20
12.4350
 30
0.0000
 11
139.8700
 21
9.9000
 31
0.0000
  0
LINE
  8
47
 10
140.1300
 20
9.9000
 30
0.0000
 11
140.0000
 21
12.4350
 31
0.0000
  0
LINE
  8
47
 10
140.0000
 20
12.4350
 30
0.0000
 11
139.7400
 21
9.9000
 31
0.0000
  0
LINE
  8
47
 10
140.2600
 20
9.9000
 30
0.0000
 11
140.0000
 21
12.4350
 31
0.0000
  0
LINE
  8
47
 10
140.0000
 20
14.5650
 30
0.0000
 11
139.6808
 21
17.1000
 31
0.0000
  0
LINE
  8
47
 10
139.6808
 20
17.1000
 30
0.0000
 11
140.3192
 21
17.1000
 31
0.0000
  0
LINE
  8
47
 10
140.3192
 20
17.1000
 30
0.0000
 11
140.0000
 21
14.5650
 31
0.0000
  0
LINE
  8
47
 10
140.0000
 20
14.5650
 30
0.0000
 11
139.8700
 21
17.1000
 31
0.0000
  0
LINE
  8
47
 10
140.1300
 20
17.1000
 30
0.0000
 11
140.0000
 21
14.5650
 31
0.0000
  0
LINE
  8
47
 10
140.0000
 20
14.5650
 30
0.0000
 11
139.7400
 21
17.1000
 31
0.0000
  0
LINE
  8
47
 10
140.2600
 20
17.1000
 30
0.0000
 11
140.0000
 21
14.5650
 31
0.0000
  0
LINE
  8
47
 10
139.3493
 20
18.2609
 30
0.0000
 11
139.3493
 21
17.1762
 31
0.0000
  0
LINE
  8
47
 10
139.3493
 20
17.1762
 30
0.0000
 11
138.2646
 21
18.2609
 31
0.0000
  0
LINE
  8
47
 10
138.2646
 20
18.2609
 30
0.0000
 11
137.9935
 21
18.2609
 31
0.0000
  0
LINE
  8
47
 10
137.9935
 20
18.2609
 30
0.0000
 11
137.7223
 21
17.9897
 31
0.0000
  0
LINE
  8
47
 10
137.7223
 20
17.9897
 30
0.0000
 11
137.7223
 21
17.4474
 31
0.0000
  0
LINE
  8
47
 10
137.7223
 20
17.4474
 30
0.0000
 11
137.9935
 21
17.1762
 31
0.0000
  0
LINE
  8
47
 10
150.5000
 20
21.5000
 30
0.0000
 11
150.5000
 21
24.9500
 31
0.0000
  0
LINE
  8
47
 10
149.5000
 20
22.0000
 30
0.0000
 11
149.5000
 21
24.9500
 31
0.0000
  0
LINE
  8
47
 10
149.4350
 20
23.0000
 30
0.0000
 11
144.3000
 21
23.0000
 31
0.0000
  0
LINE
  8
47
 10
150.5650
 20
23.0000
 30
0.0000
 11
154.5103
 21
23.0000
 31
0.0000
  0
LINE
  8
47
 10
150.5650
 20
23.0000
 30
0.0000
 11
153.1000
 21
23.3192
 31
0.0000
  0
LINE
  8
47
 10
153.1000
 20
23.3192
 30
0.0000
 11
153.1000
 21
22.6808
 31
0.0000
  0
LINE
  8
47
 10
153.1000
 20
22.6808
 30
0.0000
 11
150.5650
 21
23.0000
 31
0.0000
  0
LINE
  8
47
 10
150.5650
 20
23.0000
 30
0.0000
 11
153.1000
 21
23.1300
 31
0.0000
  0
LINE
  8
47
 10
153.1000
 20
22.8700
 30
0.0000
 11
150.5650
 21
23.0000
 31
0.0000
  0
LINE
  8
47
 10
150.5650
 20
23.0000
 30
0.0000
 11
153.1000
 21
23.2600
 31
0.0000
  0
LINE
  8
47
 10
153.1000
 20
22.7400
 30
0.0000
 11
150.5650
 21
23.0000
 31
0.0000
  0
LINE
  8
47
 10
149.4350
 20
23.0000
 30
0.0000
 11
146.9000
 21
23.3192
 31
0.0000
  0
LINE
  8
47
 10
146.9000
 20
23.3192
 30
0.0000
 11
146.9000
 21
22.6808
 31
0.0000
  0
LINE
  8
47
 10
146.9000
 20
22.6808
 30
0.0000
 11
149.4350
 21
23.0000
 31
0.0000
  0
LINE
  8
47
 10
149.4350
 20
23.0000
 30
0.0000
 11
146.9000
 21
23.1300
 31
0.0000
  0
LINE
  8
47
 10
146.9000
 20
22.8700
 30
0.0000
 11
149.4350
 21
23.0000
 31
0.0000
  0
LINE
  8
47
 10
149.4350
 20
23.0000
 30
0.0000
 11
146.9000
 21
23.2600
 31
0.0000
  0
LINE
  8
47
 10
146.9000
 20
22.7400
 30
0.0000
 11
149.4350
 21
23.0000
 31
0.0000
  0
LINE
  8
47
 10
153.1762
 20
24.7354
 30
0.0000
 11
153.7185
 21
25.2777
 31
0.0000
  0
LINE
  8
47
 10
153.7185
 20
25.2777
 30
0.0000
 11
153.7185
 21
23.6507
 31
0.0000
  0
LINE
  8
47
 10
153.1762
 20
23.6507
 30
0.0000
 11
154.2609
 21
23.6507
 31
0.0000
  0
CIRCLE
  8
120
 10
215.3500
 20
8.2000
 30
0.0000
 40
1.2500
  0
CIRCLE
  8
120
 10
170.0000
 20
12.0000
 30
0.0000
 40
4.0000
  0
CIRCLE
  8
120
 10
188.0000
 20
57.0000
 30
0.0000
 40
1.5000
  0
CIRCLE
  8
120
 10
188.0000
 20
64.0000
 30
0.0000
 40
1.5000
  0
CIRCLE
  8
120
 10
62.5000
 20
24.0000
 30
0.0000
 40
1.5000
  0
CIRCLE
  8
120
 10
225.0000
 20
21.0000
 30
0.0000
 40
1.5000
  0
CIRCLE
  8
120
 10
261.0000
 20
50.0000
 30
0.0000
 40
1.5000
  0
CIRCLE
  8
120
 10
244.0000
 20
21.0000
 30
0.0000
 40
1.5000
  0
CIRCLE
  8
120
 10
188.0000
 20
50.0000
 30
0.0000
 40
1.5000
  0
CIRCLE
  8
120
 10
261.0000
 20
64.0000
 30
0.0000
 40
1.5000
  0
CIRCLE
  8
120
 10
215.3500
 20
12.0000
 30
0.0000
 40
4.0000
  0
CIRCLE
  8
120
 10
196.3000
 20
12.0000
 30
0.0000
 40
4.0000
  0
CIRCLE
  8
120
 10
253.4500
 20
12.0000
 30
0.0000
 40
4.0000
  0
CIRCLE
  8
120
 10
261.0000
 20
57.0000
 30
0.0000
 40
1.5000
  0
CIRCLE
  8
120
 10
62.5000
 20
13.0000
 30
0.0000
 40
3.2500
  0
CIRCLE
  8
120
 10
101.0000
 20
7.0000
 30
0.0000
 40
1.7500
  0
CIRCLE
  8
120
 10
180.5000
 20
50.0000
 30
0.0000
 40
1.5000
  0
CIRCLE
  8
120
 10
253.5000
 20
50.0000
 30
0.0000
 40
1.5000
  0
CIRCLE
  8
120
 10
234.4000
 20
12.0000
 30
0.0000
 40
4.0000
  0
CIRCLE
  8
120
 10
206.0000
 20
21.0000
 30
0.0000
 40
1.5000
  0
CIRCLE
  8
120
 10
281.0000
 20
8.0000
 30
0.0000
 40
2.1000
  0
CIRCLE
  8
120
 10
281.0000
 20
72.0000
 30
0.0000
 40
2.1000
  0
CIRCLE
  8
120
 10
9.0000
 20
8.0000
 30
0.0000
 40
2.1000
  0
CIRCLE
  8
120
 10
9.0000
 20
72.0000
 30
0.0000
 40
2.1000
  0
CIRCLE
  8
120
 10
273.0000
 20
73.0000
 30
0.0000
 40
1.5000
  0
CIRCLE
  8
120
 10
196.3000
 20
15.8000
 30
0.0000
 40
1.2500
  0
CIRCLE
  8
120
 10
215.3500
 20
15.8000
 30
0.0000
 40
1.2500
  0
CIRCLE
  8
120
 10
196.3000
 20
8.2000
 30
0.0000
 40
1.2500
  0
CIRCLE
  8
120
 10
234.4000
 20
8.2000
 30
0.0000
 40
1.2500
  0
CIRCLE
  8
120
 10
234.4000
 20
15.8000
 30
0.0000
 40
1.2500
  0
CIRCLE
  8
120
 10
253.4500
 20
15.8000
 30
0.0000
 40
1.2500
  0
CIRCLE
  8
120
 10
253.4500
 20
8.2000
 30
0.0000
 40
1.2500
  0
CIRCLE
  8
120
 10
170.0000
 20
15.8000
 30
0.0000
 40
1.2500
  0
CIRCLE
  8
120
 10
170.0000
 20
8.2000
 30
0.0000
 40
1.2500
  0
CIRCLE
  8
120
 10
170.0000
 20
65.0000
 30
0.0000
 40
8.5000
  0
LINE
  8
51
 10
132.4000
 20
67.5000
 30
0.0000
 11
132.7000
 21
66.7000
 31
0.0000
  0
LINE
  8
51
 10
132.7000
 20
66.7000
 30
0.0000
 11
133.2000
 21
67.2000
 31
0.0000
  0
LINE
  8
51
 10
133.2000
 20
67.2000
 30
0.0000
 11
132.4000
 21
67.5000
 31
0.0000
  0
LINE
  8
51
 10
132.4853
 20
67.4680
 30
0.0000
 11
132.4120
 21
67.4680
 31
0.0000
  0
LINE
  8
51
 10
132.8240
 20
67.3410
 30
0.0000
 11
132.4596
 21
67.3410
 31
0.0000
  0
LINE
  8
51
 10
133.1627
 20
67.2140
 30
0.0000
 11
132.5072
 21
67.2140
 31
0.0000
  0
LINE
  8
51
 10
133.0870
 20
67.0870
 30
0.0000
 11
132.5549
 21
67.0870
 31
0.0000
  0
LINE
  8
51
 10
132.9600
 20
66.9600
 30
0.0000
 11
132.6025
 21
66.9600
 31
0.0000
  0
LINE
  8
51
 10
132.8330
 20
66.8330
 30
0.0000
 11
132.6501
 21
66.8330
 31
0.0000
  0
LINE
  8
51
 10
132.7060
 20
66.7060
 30
0.0000
 11
132.6978
 21
66.7060
 31
0.0000
  0
LINE
  8
51
 10
82.3875
 20
49.8150
 30
0.0000
 11
81.4350
 21
49.4975
 31
0.0000
  0
LINE
  8
51
 10
81.4350
 20
49.4975
 30
0.0000
 11
81.4350
 21
50.1325
 31
0.0000
  0
LINE
  8
51
 10
81.4350
 20
50.1325
 30
0.0000
 11
82.3875
 21
49.8150
 31
0.0000
  0
LINE
  8
51
 10
81.6255
 20
50.0690
 30
0.0000
 11
81.4350
 21
50.0690
 31
0.0000
  0
LINE
  8
51
 10
82.0065
 20
49.9420
 30
0.0000
 11
81.4350
 21
49.9420
 31
0.0000
  0
LINE
  8
51
 10
82.3875
 20
49.8150
 30
0.0000
 11
81.4350
 21
49.8150
 31
0.0000
  0
LINE
  8
51
 10
82.0065
 20
49.6880
 30
0.0000
 11
81.4350
 21
49.6880
 31
0.0000
  0
LINE
  8
51
 10
81.6255
 20
49.5610
 30
0.0000
 11
81.4350
 21
49.5610
 31
0.0000
  0
LINE
  8
51
 10
152.8500
 20
74.8500
 30
0.0000
 11
75.1500
 21
74.8500
 31
0.0000
  0
LINE
  8
51
 10
152.8500
 20
10.1500
 30
0.0000
 11
75.1500
 21
10.1500
 31
0.0000
  0
LINE
  8
51
 10
160.7500
 20
11.5000
 30
0.0000
 11
160.7500
 21
19.5000
 31
0.0000
  0
LINE
  8
51
 10
160.7500
 20
65.5000
 30
0.0000
 11
160.7500
 21
73.5000
 31
0.0000
  0
LINE
  8
51
 10
67.2500
 20
11.5000
 30
0.0000
 11
67.2500
 21
19.5000
 31
0.0000
  0
LINE
  8
51
 10
67.2500
 20
65.5000
 30
0.0000
 11
67.2500
 21
73.5000
 31
0.0000
  0
LINE
  8
51
 10
152.8500
 20
10.1500
 30
0.0000
 11
152.8500
 21
11.5000
 31
0.0000
  0
LINE
  8
51
 10
152.8500
 20
11.5000
 30
0.0000
 11
152.8500
 21
19.5000
 31
0.0000
  0
LINE
  8
51
 10
152.8500
 20
19.5000
 30
0.0000
 11
152.8500
 21
65.5000
 31
0.0000
  0
LINE
  8
51
 10
152.8500
 20
65.5000
 30
0.0000
 11
152.8500
 21
73.5000
 31
0.0000
  0
LINE
  8
51
 10
152.8500
 20
73.5000
 30
0.0000
 11
152.8500
 21
74.8500
 31
0.0000
  0
LINE
  8
51
 10
75.1500
 20
10.1500
 30
0.0000
 11
75.1500
 21
11.5000
 31
0.0000
  0
LINE
  8
51
 10
75.1500
 20
11.5000
 30
0.0000
 11
75.1500
 21
19.5000
 31
0.0000
  0
LINE
  8
51
 10
75.1500
 20
19.5000
 30
0.0000
 11
75.1500
 21
65.5000
 31
0.0000
  0
LINE
  8
51
 10
75.1500
 20
65.5000
 30
0.0000
 11
75.1500
 21
73.5000
 31
0.0000
  0
LINE
  8
51
 10
75.1500
 20
73.5000
 30
0.0000
 11
75.1500
 21
74.8500
 31
0.0000
  0
LINE
  8
51
 10
152.1500
 20
10.8500
 30
0.0000
 11
152.1500
 21
74.1500
 31
0.0000
  0
LINE
  8
51
 10
75.8500
 20
10.8500
 30
0.0000
 11
75.8500
 21
74.1500
 31
0.0000
  0
LINE
  8
51
 10
160.7500
 20
65.5000
 30
0.0000
 11
152.8500
 21
65.5000
 31
0.0000
  0
LINE
  8
51
 10
160.7500
 20
73.5000
 30
0.0000
 11
152.8500
 21
73.5000
 31
0.0000
  0
LINE
  8
51
 10
160.7500
 20
19.5000
 30
0.0000
 11
152.8500
 21
19.5000
 31
0.0000
  0
LINE
  8
51
 10
160.7500
 20
11.5000
 30
0.0000
 11
152.8500
 21
11.5000
 31
0.0000
  0
LINE
  8
51
 10
75.1500
 20
19.5000
 30
0.0000
 11
67.2500
 21
19.5000
 31
0.0000
  0
LINE
  8
51
 10
75.1500
 20
11.5000
 30
0.0000
 11
67.2500
 21
11.5000
 31
0.0000
  0
LINE
  8
51
 10
75.1500
 20
73.5000
 30
0.0000
 11
67.2500
 21
73.5000
 31
0.0000
  0
LINE
  8
51
 10
75.1500
 20
65.5000
 30
0.0000
 11
67.2500
 21
65.5000
 31
0.0000
  0
LINE
  8
51
 10
91.1500
 20
57.5000
 30
0.0000
 11
91.1500
 21
56.5000
 31
0.0000
  0
LINE
  8
51
 10
91.1500
 20
55.5000
 30
0.0000
 11
91.1500
 21
54.5000
 31
0.0000
  0
LINE
  8
51
 10
91.1500
 20
53.5000
 30
0.0000
 11
91.1500
 21
52.5000
 31
0.0000
  0
LINE
  8
51
 10
91.1500
 20
51.5000
 30
0.0000
 11
91.1500
 21
50.5000
 31
0.0000
  0
LINE
  8
51
 10
91.1500
 20
49.5000
 30
0.0000
 11
91.1500
 21
48.5000
 31
0.0000
  0
LINE
  8
51
 10
91.1500
 20
47.5000
 30
0.0000
 11
91.1500
 21
46.5000
 31
0.0000
  0
LINE
  8
51
 10
91.1500
 20
45.5000
 30
0.0000
 11
91.1500
 21
44.5000
 31
0.0000
  0
LINE
  8
51
 10
91.1500
 20
43.5000
 30
0.0000
 11
91.1500
 21
42.5000
 31
0.0000
  0
LINE
  8
51
 10
83.1500
 20
57.5000
 30
0.0000
 11
83.1500
 21
56.5000
 31
0.0000
  0
LINE
  8
51
 10
83.1500
 20
55.5000
 30
0.0000
 11
83.1500
 21
54.5000
 31
0.0000
  0
LINE
  8
51
 10
83.1500
 20
53.5000
 30
0.0000
 11
83.1500
 21
52.5000
 31
0.0000
  0
LINE
  8
51
 10
83.1500
 20
51.5000
 30
0.0000
 11
83.1500
 21
50.5000
 31
0.0000
  0
LINE
  8
51
 10
83.1500
 20
49.5000
 30
0.0000
 11
83.1500
 21
48.5000
 31
0.0000
  0
LINE
  8
51
 10
83.1500
 20
47.5000
 30
0.0000
 11
83.1500
 21
46.5000
 31
0.0000
  0
LINE
  8
51
 10
83.1500
 20
45.5000
 30
0.0000
 11
83.1500
 21
44.5000
 31
0.0000
  0
LINE
  8
51
 10
83.1500
 20
43.5000
 30
0.0000
 11
83.1500
 21
42.5000
 31
0.0000
  0
LINE
  8
51
 10
83.1500
 20
57.5000
 30
0.0000
 11
84.4000
 21
57.5000
 31
0.0000
  0
LINE
  8
51
 10
85.4000
 20
57.5000
 30
0.0000
 11
86.6500
 21
57.5000
 31
0.0000
  0
LINE
  8
51
 10
87.6500
 20
57.5000
 30
0.0000
 11
88.9000
 21
57.5000
 31
0.0000
  0
LINE
  8
51
 10
89.9000
 20
57.5000
 30
0.0000
 11
91.1500
 21
57.5000
 31
0.0000
  0
LINE
  8
51
 10
83.1500
 20
42.5000
 30
0.0000
 11
84.4000
 21
42.5000
 31
0.0000
  0
LINE
  8
51
 10
85.4000
 20
42.5000
 30
0.0000
 11
86.6500
 21
42.5000
 31
0.0000
  0
LINE
  8
51
 10
87.6500
 20
42.5000
 30
0.0000
 11
88.9000
 21
42.5000
 31
0.0000
  0
LINE
  8
51
 10
89.9000
 20
42.5000
 30
0.0000
 11
91.1500
 21
42.5000
 31
0.0000
  0
LINE
  8
51
 10
157.0000
 20
68.6000
 30
0.0000
 11
157.0000
 21
70.4000
 31
0.0000
  0
LINE
  8
51
 10
158.0000
 20
69.5000
 30
0.0000
 11
156.0000
 21
69.5000
 31
0.0000
  0
LINE
  8
51
 10
152.1500
 20
74.1500
 30
0.0000
 11
75.8500
 21
74.1500
 31
0.0000
  0
LINE
  8
51
 10
152.1500
 20
10.8500
 30
0.0000
 11
75.8500
 21
10.8500
 31
0.0000
  0
LINE
  8
51
 10
135.4000
 20
65.5000
 30
0.0000
 11
134.4000
 21
65.5000
 31
0.0000
  0
LINE
  8
51
 10
134.4000
 20
65.5000
 30
0.0000
 11
132.4000
 21
67.5000
 31
0.0000
  0
LINE
  8
51
 10
150.3500
 20
12.6500
 30
0.0000
 11
150.3500
 21
67.9300
 31
0.0000
  0
LINE
  8
51
 10
77.6500
 20
12.6500
 30
0.0000
 11
77.6500
 21
67.9300
 31
0.0000
  0
LINE
  8
51
 10
150.3500
 20
12.6500
 30
0.0000
 11
77.6500
 21
12.6500
 31
0.0000
  0
LINE
  8
51
 10
150.3500
 20
67.9300
 30
0.0000
 11
77.6500
 21
67.9300
 31
0.0000
  0
LINE
  8
51
 10
79.2125
 20
49.8150
 30
0.0000
 11
82.3875
 21
49.8150
 31
0.0000
  0
LINE
  8
51
 10
81.0109
 20
40.3808
 30
0.0000
 11
80.6211
 21
40.7706
 31
0.0000
  0
LINE
  8
51
 10
80.6211
 20
40.7706
 30
0.0000
 11
80.6211
 21
41.1604
 31
0.0000
  0
LINE
  8
51
 10
80.6211
 20
41.1604
 30
0.0000
 11
81.0109
 21
41.5502
 31
0.0000
  0
LINE
  8
51
 10
81.4007
 20
41.5502
 30
0.0000
 11
81.4007
 21
40.3808
 31
0.0000
  0
LINE
  8
51
 10
81.4007
 20
40.3808
 30
0.0000
 11
81.9854
 21
40.3808
 31
0.0000
  0
LINE
  8
51
 10
81.9854
 20
40.3808
 30
0.0000
 11
82.1803
 21
40.5757
 31
0.0000
  0
LINE
  8
51
 10
82.1803
 20
40.5757
 30
0.0000
 11
82.1803
 21
40.9655
 31
0.0000
  0
LINE
  8
51
 10
82.1803
 20
40.9655
 30
0.0000
 11
81.9854
 21
41.1604
 31
0.0000
  0
LINE
  8
51
 10
81.9854
 20
41.1604
 30
0.0000
 11
81.4007
 21
41.1604
 31
0.0000
  0
LINE
  8
51
 10
82.7650
 20
41.1604
 30
0.0000
 11
83.1548
 21
41.1604
 31
0.0000
  0
LINE
  8
51
 10
83.1548
 20
41.1604
 30
0.0000
 11
83.3497
 21
40.9655
 31
0.0000
  0
LINE
  8
51
 10
83.3497
 20
40.9655
 30
0.0000
 11
83.3497
 21
40.3808
 31
0.0000
  0
LINE
  8
51
 10
83.3497
 20
40.3808
 30
0.0000
 11
82.7650
 21
40.3808
 31
0.0000
  0
LINE
  8
51
 10
82.7650
 20
40.3808
 30
0.0000
 11
82.5701
 21
40.5757
 31
0.0000
  0
LINE
  8
51
 10
82.5701
 20
40.5757
 30
0.0000
 11
82.7650
 21
40.7706
 31
0.0000
  0
LINE
  8
51
 10
82.7650
 20
40.7706
 30
0.0000
 11
83.3497
 21
40.7706
 31
0.0000
  0
LINE
  8
51
 10
84.5191
 20
41.1604
 30
0.0000
 11
83.9344
 21
41.1604
 31
0.0000
  0
LINE
  8
51
 10
83.9344
 20
41.1604
 30
0.0000
 11
83.7395
 21
40.9655
 31
0.0000
  0
LINE
  8
51
 10
83.7395
 20
40.9655
 30
0.0000
 11
83.7395
 21
40.5757
 31
0.0000
  0
LINE
  8
51
 10
83.7395
 20
40.5757
 30
0.0000
 11
83.9344
 21
40.3808
 31
0.0000
  0
LINE
  8
51
 10
83.9344
 20
40.3808
 30
0.0000
 11
84.5191
 21
40.3808
 31
0.0000
  0
LINE
  8
51
 10
84.9089
 20
40.3808
 30
0.0000
 11
84.9089
 21
41.5502
 31
0.0000
  0
LINE
  8
51
 10
85.4936
 20
40.3808
 30
0.0000
 11
84.9089
 21
40.7706
 31
0.0000
  0
LINE
  8
51
 10
84.9089
 20
40.7706
 30
0.0000
 11
85.4936
 21
41.1604
 31
0.0000
  0
LINE
  8
51
 10
87.0528
 20
41.5502
 30
0.0000
 11
87.8324
 21
41.5502
 31
0.0000
  0
LINE
  8
51
 10
87.8324
 20
41.5502
 30
0.0000
 11
87.8324
 21
41.3553
 31
0.0000
  0
LINE
  8
51
 10
87.8324
 20
41.3553
 30
0.0000
 11
87.0528
 21
40.5757
 31
0.0000
  0
LINE
  8
51
 10
87.0528
 20
40.5757
 30
0.0000
 11
87.0528
 21
40.3808
 31
0.0000
  0
LINE
  8
51
 10
87.0528
 20
40.3808
 30
0.0000
 11
87.8324
 21
40.3808
 31
0.0000
  0
LINE
  8
51
 10
88.2222
 20
40.3808
 30
0.0000
 11
88.6120
 21
40.3808
 31
0.0000
  0
LINE
  8
51
 10
88.4171
 20
40.3808
 30
0.0000
 11
88.4171
 21
41.5502
 31
0.0000
  0
LINE
  8
51
 10
88.2222
 20
41.5502
 30
0.0000
 11
88.6120
 21
41.5502
 31
0.0000
  0
LINE
  8
51
 10
89.0018
 20
40.3808
 30
0.0000
 11
89.0018
 21
41.5502
 31
0.0000
  0
LINE
  8
51
 10
89.0018
 20
41.5502
 30
0.0000
 11
89.7814
 21
41.5502
 31
0.0000
  0
LINE
  8
51
 10
89.0018
 20
40.9655
 30
0.0000
 11
89.3916
 21
40.9655
 31
0.0000
  0
LINE
  8
51
 10
90.1712
 20
40.3808
 30
0.0000
 11
90.5610
 21
40.7706
 31
0.0000
  0
LINE
  8
51
 10
90.5610
 20
40.7706
 30
0.0000
 11
90.5610
 21
41.1604
 31
0.0000
  0
LINE
  8
51
 10
90.5610
 20
41.1604
 30
0.0000
 11
90.1712
 21
41.5502
 31
0.0000
  0
LINE
  8
51
 10
135.8925
 20
65.9502
 30
0.0000
 11
135.8925
 21
64.7808
 31
0.0000
  0
LINE
  8
51
 10
135.8925
 20
64.7808
 30
0.0000
 11
136.4772
 21
64.7808
 31
0.0000
  0
LINE
  8
51
 10
136.4772
 20
64.7808
 30
0.0000
 11
136.6721
 21
64.9757
 31
0.0000
  0
LINE
  8
51
 10
136.6721
 20
64.9757
 30
0.0000
 11
136.6721
 21
65.7553
 31
0.0000
  0
LINE
  8
51
 10
136.6721
 20
65.7553
 30
0.0000
 11
136.4772
 21
65.9502
 31
0.0000
  0
LINE
  8
51
 10
136.4772
 20
65.9502
 30
0.0000
 11
135.8925
 21
65.9502
 31
0.0000
  0
LINE
  8
51
 10
137.0619
 20
65.5604
 30
0.0000
 11
137.2568
 21
65.5604
 31
0.0000
  0
LINE
  8
51
 10
137.2568
 20
65.5604
 30
0.0000
 11
137.2568
 21
64.7808
 31
0.0000
  0
LINE
  8
51
 10
137.0619
 20
64.7808
 30
0.0000
 11
137.4517
 21
64.7808
 31
0.0000
  0
LINE
  8
51
 10
137.2568
 20
66.1451
 30
0.0000
 11
137.2568
 21
65.9502
 31
0.0000
  0
LINE
  8
51
 10
137.8415
 20
64.7808
 30
0.0000
 11
138.4262
 21
64.7808
 31
0.0000
  0
LINE
  8
51
 10
138.4262
 20
64.7808
 30
0.0000
 11
138.6211
 21
64.9757
 31
0.0000
  0
LINE
  8
51
 10
138.6211
 20
64.9757
 30
0.0000
 11
138.4262
 21
65.1706
 31
0.0000
  0
LINE
  8
51
 10
138.4262
 20
65.1706
 30
0.0000
 11
138.0364
 21
65.1706
 31
0.0000
  0
LINE
  8
51
 10
138.0364
 20
65.1706
 30
0.0000
 11
137.8415
 21
65.3655
 31
0.0000
  0
LINE
  8
51
 10
137.8415
 20
65.3655
 30
0.0000
 11
138.0364
 21
65.5604
 31
0.0000
  0
LINE
  8
51
 10
138.0364
 20
65.5604
 30
0.0000
 11
138.6211
 21
65.5604
 31
0.0000
  0
LINE
  8
51
 10
139.0109
 20
64.3910
 30
0.0000
 11
139.0109
 21
65.5604
 31
0.0000
  0
LINE
  8
51
 10
139.0109
 20
65.5604
 30
0.0000
 11
139.5956
 21
65.5604
 31
0.0000
  0
LINE
  8
51
 10
139.5956
 20
65.5604
 30
0.0000
 11
139.7905
 21
65.3655
 31
0.0000
  0
LINE
  8
51
 10
139.7905
 20
65.3655
 30
0.0000
 11
139.7905
 21
64.9757
 31
0.0000
  0
LINE
  8
51
 10
139.7905
 20
64.9757
 30
0.0000
 11
139.5956
 21
64.7808
 31
0.0000
  0
LINE
  8
51
 10
139.5956
 20
64.7808
 30
0.0000
 11
139.0109
 21
64.7808
 31
0.0000
  0
LINE
  8
51
 10
140.1803
 20
65.9502
 30
0.0000
 11
140.3752
 21
65.9502
 31
0.0000
  0
LINE
  8
51
 10
140.3752
 20
65.9502
 30
0.0000
 11
140.3752
 21
64.7808
 31
0.0000
  0
LINE
  8
51
 10
140.1803
 20
64.7808
 30
0.0000
 11
140.5701
 21
64.7808
 31
0.0000
  0
LINE
  8
51
 10
141.1548
 20
65.5604
 30
0.0000
 11
141.5446
 21
65.5604
 31
0.0000
  0
LINE
  8
51
 10
141.5446
 20
65.5604
 30
0.0000
 11
141.7395
 21
65.3655
 31
0.0000
  0
LINE
  8
51
 10
141.7395
 20
65.3655
 30
0.0000
 11
141.7395
 21
64.7808
 31
0.0000
  0
LINE
  8
51
 10
141.7395
 20
64.7808
 30
0.0000
 11
141.1548
 21
64.7808
 31
0.0000
  0
LINE
  8
51
 10
141.1548
 20
64.7808
 30
0.0000
 11
140.9599
 21
64.9757
 31
0.0000
  0
LINE
  8
51
 10
140.9599
 20
64.9757
 30
0.0000
 11
141.1548
 21
65.1706
 31
0.0000
  0
LINE
  8
51
 10
141.1548
 20
65.1706
 30
0.0000
 11
141.7395
 21
65.1706
 31
0.0000
  0
LINE
  8
51
 10
142.1293
 20
65.5604
 30
0.0000
 11
142.1293
 21
64.9757
 31
0.0000
  0
LINE
  8
51
 10
142.1293
 20
64.9757
 30
0.0000
 11
142.3242
 21
64.7808
 31
0.0000
  0
LINE
  8
51
 10
142.3242
 20
64.7808
 30
0.0000
 11
142.9089
 21
64.7808
 31
0.0000
  0
LINE
  8
51
 10
142.9089
 20
65.5604
 30
0.0000
 11
142.9089
 21
64.5859
 31
0.0000
  0
LINE
  8
51
 10
142.9089
 20
64.5859
 30
0.0000
 11
142.7140
 21
64.3910
 31
0.0000
  0
LINE
  8
51
 10
142.7140
 20
64.3910
 30
0.0000
 11
142.5191
 21
64.3910
 31
0.0000
  0
LINE
  8
51
 10
144.6630
 20
65.5604
 30
0.0000
 11
145.0528
 21
65.5604
 31
0.0000
  0
LINE
  8
51
 10
145.0528
 20
65.5604
 30
0.0000
 11
145.2477
 21
65.3655
 31
0.0000
  0
LINE
  8
51
 10
145.2477
 20
65.3655
 30
0.0000
 11
145.2477
 21
64.7808
 31
0.0000
  0
LINE
  8
51
 10
145.2477
 20
64.7808
 30
0.0000
 11
144.6630
 21
64.7808
 31
0.0000
  0
LINE
  8
51
 10
144.6630
 20
64.7808
 30
0.0000
 11
144.4681
 21
64.9757
 31
0.0000
  0
LINE
  8
51
 10
144.4681
 20
64.9757
 30
0.0000
 11
144.6630
 21
65.1706
 31
0.0000
  0
LINE
  8
51
 10
144.6630
 20
65.1706
 30
0.0000
 11
145.2477
 21
65.1706
 31
0.0000
  0
LINE
  8
51
 10
145.6375
 20
64.7808
 30
0.0000
 11
145.6375
 21
65.5604
 31
0.0000
  0
LINE
  8
51
 10
145.6375
 20
65.1706
 30
0.0000
 11
146.0273
 21
65.5604
 31
0.0000
  0
LINE
  8
51
 10
146.0273
 20
65.5604
 30
0.0000
 11
146.2222
 21
65.5604
 31
0.0000
  0
LINE
  8
51
 10
147.1967
 20
64.7808
 30
0.0000
 11
146.8069
 21
64.7808
 31
0.0000
  0
LINE
  8
51
 10
146.8069
 20
64.7808
 30
0.0000
 11
146.6120
 21
64.9757
 31
0.0000
  0
LINE
  8
51
 10
146.6120
 20
64.9757
 30
0.0000
 11
146.6120
 21
65.3655
 31
0.0000
  0
LINE
  8
51
 10
146.6120
 20
65.3655
 30
0.0000
 11
146.8069
 21
65.5604
 31
0.0000
  0
LINE
  8
51
 10
146.8069
 20
65.5604
 30
0.0000
 11
147.1967
 21
65.5604
 31
0.0000
  0
LINE
  8
51
 10
147.1967
 20
65.5604
 30
0.0000
 11
147.3916
 21
65.3655
 31
0.0000
  0
LINE
  8
51
 10
147.3916
 20
65.3655
 30
0.0000
 11
147.3916
 21
65.1706
 31
0.0000
  0
LINE
  8
51
 10
147.3916
 20
65.1706
 30
0.0000
 11
146.6120
 21
65.1706
 31
0.0000
  0
LINE
  8
51
 10
147.9763
 20
65.5604
 30
0.0000
 11
148.3661
 21
65.5604
 31
0.0000
  0
LINE
  8
51
 10
148.3661
 20
65.5604
 30
0.0000
 11
148.5610
 21
65.3655
 31
0.0000
  0
LINE
  8
51
 10
148.5610
 20
65.3655
 30
0.0000
 11
148.5610
 21
64.7808
 31
0.0000
  0
LINE
  8
51
 10
148.5610
 20
64.7808
 30
0.0000
 11
147.9763
 21
64.7808
 31
0.0000
  0
LINE
  8
51
 10
147.9763
 20
64.7808
 30
0.0000
 11
147.7814
 21
64.9757
 31
0.0000
  0
LINE
  8
51
 10
147.7814
 20
64.9757
 30
0.0000
 11
147.9763
 21
65.1706
 31
0.0000
  0
LINE
  8
51
 10
147.9763
 20
65.1706
 30
0.0000
 11
148.5610
 21
65.1706
 31
0.0000
  0
LINE
  8
51
 10
81.1366
 20
56.2558
 30
0.0000
 11
80.3570
 21
56.2558
 31
0.0000
  0
LINE
  8
51
 10
80.3570
 20
56.2558
 30
0.0000
 11
81.1366
 21
57.0354
 31
0.0000
  0
LINE
  8
51
 10
81.1366
 20
57.0354
 30
0.0000
 11
81.1366
 21
57.2303
 31
0.0000
  0
LINE
  8
51
 10
81.1366
 20
57.2303
 30
0.0000
 11
80.9417
 21
57.4252
 31
0.0000
  0
LINE
  8
51
 10
80.9417
 20
57.4252
 30
0.0000
 11
80.5519
 21
57.4252
 31
0.0000
  0
LINE
  8
51
 10
80.5519
 20
57.4252
 30
0.0000
 11
80.3570
 21
57.2303
 31
0.0000
  0
LINE
  8
51
 10
81.5264
 20
56.4507
 30
0.0000
 11
81.5264
 21
57.2303
 31
0.0000
  0
LINE
  8
51
 10
81.5264
 20
57.2303
 30
0.0000
 11
81.7213
 21
57.4252
 31
0.0000
  0
LINE
  8
51
 10
81.7213
 20
57.4252
 30
0.0000
 11
82.1111
 21
57.4252
 31
0.0000
  0
LINE
  8
51
 10
82.1111
 20
57.4252
 30
0.0000
 11
82.3060
 21
57.2303
 31
0.0000
  0
LINE
  8
51
 10
82.3060
 20
57.2303
 30
0.0000
 11
82.3060
 21
56.4507
 31
0.0000
  0
LINE
  8
51
 10
82.3060
 20
56.4507
 30
0.0000
 11
82.1111
 21
56.2558
 31
0.0000
  0
LINE
  8
51
 10
82.1111
 20
56.2558
 30
0.0000
 11
81.7213
 21
56.2558
 31
0.0000
  0
LINE
  8
51
 10
81.7213
 20
56.2558
 30
0.0000
 11
81.5264
 21
56.4507
 31
0.0000
  0
LINE
  8
51
 10
81.5264
 20
56.4507
 30
0.0000
 11
82.3060
 21
57.2303
 31
0.0000
  0
LINE
  8
51
 10
81.5264
 20
43.0654
 30
0.0000
 11
81.9162
 21
43.4552
 31
0.0000
  0
LINE
  8
51
 10
81.9162
 20
43.4552
 30
0.0000
 11
81.9162
 21
42.2858
 31
0.0000
  0
LINE
  8
51
 10
81.5264
 20
42.2858
 30
0.0000
 11
82.3060
 21
42.2858
 31
0.0000
  0
CIRCLE
  8
20
 10
157.0000
 20
69.5000
 30
0.0000
 40
1.6000
  0
CIRCLE
  8
20
 10
71.0000
 20
69.5000
 30
0.0000
 40
1.6000
  0
CIRCLE
  8
20
 10
157.0000
 20
15.5000
 30
0.0000
 40
1.6000
  0
CIRCLE
  8
20
 10
71.0000
 20
15.5000
 30
0.0000
 40
1.6000
  0
ENDSEC
  0
EOF
