  0
SECTION
  2
HEADER
  9
$ACADVER
  1
AC1009
  9
$FILLMODE
 70
0
  9
$EXTMIN
 10
-0.0650
 20
-0.0650
 30
0.0000
  9
$EXTMAX
 10
290.0500
 20
80.0650
 30
0.0000
  0
ENDSEC
  0
SECTION
  2
TABLES
  0
TABLE
  2
LTYPE
 70
1
  0
LTYPE
  2
CONTINUOUS
 70
64
  3
Solid line
 72
65
 73
0
 40
0
  0
ENDTAB
  0
TABLE
  2
LAYER
 70
255
  0
LAYER
  2
20
 70
64
 62
7
  6
CONTINUOUS
  0
LAYER
  2
47
 70
64
 62
2
  6
CONTINUOUS
  0
LAYER
  2
100
 70
64
 62
22
  6
CONTINUOUS
  0
LAYER
  2
120
 70
64
 62
4
  6
CONTINUOUS
  0
ENDTAB
  0
ENDSEC
  0
SECTION
  2
BLOCKS
  0
BLOCK
  8
0
  2
RECT
 70
64
 10
0.0000
 20
0.0000
 30
0.0000
  3
RECT
  0
SOLID
  8
0
 10
-0.5000
 20
-0.5000
 30
0.0000
 11
0.5000
 21
-0.5000
 31
0.0000
 12
-0.5000
 22
0.5000
 32
0.0000
 13
0.5000
 23
0.5000
 33
0.0000
  0
ENDBLK
  8
0
  0
BLOCK
  8
0
  2
PIE
 70
64
 10
0.0000
 20
0.0000
 30
0.0000
  3
PIE
  0
CIRCLE
  8
0
 10
0.0000
 20
0.0000
 30
0.0000
 40
0.5000
  0
ENDBLK
  8
0
  0
BLOCK
  8
0
  2
OCTAGONP
 70
64
 10
0.0000
 20
0.0000
 30
0.0000
  3
OCTAGONP
  0
POLYLINE
  8
0
 66
1
 10
0.0000
 20
0.0000
 30
0.0000
 40
0.0000
 41
0.0000
 70
1
  0
VERTEX
  8
0
 10
-0.5000
 20
-0.2071
 30
0.0000
  0
VERTEX
  8
0
 10
-0.5000
 20
0.2071
 30
0.0000
  0
VERTEX
  8
0
 10
-0.2071
 20
0.5000
 30
0.0000
  0
VERTEX
  8
0
 10
0.2071
 20
0.5000
 30
0.0000
  0
VERTEX
  8
0
 10
0.5000
 20
0.2071
 30
0.0000
  0
VERTEX
  8
0
 10
0.5000
 20
-0.2071
 30
0.0000
  0
VERTEX
  8
0
 10
0.2071
 20
-0.5000
 30
0.0000
  0
VERTEX
  8
0
 10
-0.2071
 20
-0.5000
 30
0.0000
  0
SEQEND
  8
0
  0
ENDBLK
  8
0
  0
BLOCK
  8
0
  2
SQUAREP
 70
64
 10
0.0000
 20
0.0000
 30
0.0000
  3
SQUAREP
  0
SOLID
  8
0
 10
-0.5000
 20
-0.5000
 30
0.0000
 11
0.5000
 21
-0.5000
 31
0.0000
 12
-0.5000
 22
0.5000
 32
0.0000
 13
0.5000
 23
0.5000
 33
0.0000
  0
ENDBLK
  8
0
  0
BLOCK
  8
0
  2
ROUNDP
 70
64
 10
0.0000
 20
0.0000
 30
0.0000
  3
ROUNDP
  0
CIRCLE
  8
0
 10
0.0000
 20
0.0000
 30
0.0000
 40
0.5000
  0
ENDBLK
  8
0
  0
BLOCK
  8
0
  2
ANNULUSP
 70
64
 10
0.0000
 20
0.0000
 30
0.0000
  3
ANNULUSP
  0
CIRCLE
  8
0
 10
0.0000
 20
0.0000
 30
0.0000
 40
0.5000
  0
ENDBLK
  8
0
  0
BLOCK
  8
0
  2
THERMALP
 70
64
 10
0.0000
 20
0.0000
 30
0.0000
  3
THERMALP
  0
LINE
  8
0
 10
-0.2379
 20
0.4500
 30
0.0000
 11
0.2379
 21
0.4500
 31
0.0000
  0
LINE
  8
0
 10
0.4500
 20
0.2379
 30
0.0000
 11
0.4500
 21
-0.2379
 31
0.0000
  0
LINE
  8
0
 10
0.2379
 20
-0.4500
 30
0.0000
 11
-0.2379
 21
-0.4500
 31
0.0000
  0
LINE
  8
0
 10
-0.4500
 20
-0.2379
 30
0.0000
 11
-0.4500
 21
0.2379
 31
0.0000
  0
ENDBLK
  8
0
  0
BLOCK
  8
0
  2
OCTAGONV
 70
64
 10
0.0000
 20
0.0000
 30
0.0000
  3
OCTAGONV
  0
POLYLINE
  8
0
 66
1
 10
0.0000
 20
0.0000
 30
0.0000
 40
0.0000
 41
0.0000
 70
1
  0
VERTEX
  8
0
 10
-0.5000
 20
-0.2071
 30
0.0000
  0
VERTEX
  8
0
 10
-0.5000
 20
0.2071
 30
0.0000
  0
VERTEX
  8
0
 10
-0.2071
 20
0.5000
 30
0.0000
  0
VERTEX
  8
0
 10
0.2071
 20
0.5000
 30
0.0000
  0
VERTEX
  8
0
 10
0.5000
 20
0.2071
 30
0.0000
  0
VERTEX
  8
0
 10
0.5000
 20
-0.2071
 30
0.0000
  0
VERTEX
  8
0
 10
0.2071
 20
-0.5000
 30
0.0000
  0
VERTEX
  8
0
 10
-0.2071
 20
-0.5000
 30
0.0000
  0
SEQEND
  8
0
  0
ENDBLK
  8
0
  0
BLOCK
  8
0
  2
SQUAREV
 70
64
 10
0.0000
 20
0.0000
 30
0.0000
  3
SQUAREV
  0
SOLID
  8
0
 10
-0.5000
 20
-0.5000
 30
0.0000
 11
0.5000
 21
-0.5000
 31
0.0000
 12
-0.5000
 22
0.5000
 32
0.0000
 13
0.5000
 23
0.5000
 33
0.0000
  0
ENDBLK
  8
0
  0
BLOCK
  8
0
  2
ROUNDV
 70
64
 10
0.0000
 20
0.0000
 30
0.0000
  3
ROUNDV
  0
CIRCLE
  8
0
 10
0.0000
 20
0.0000
 30
0.0000
 40
0.5000
  0
ENDBLK
  8
0
  0
BLOCK
  8
0
  2
ANNULUSV
 70
64
 10
0.0000
 20
0.0000
 30
0.0000
  3
ANNULUSV
  0
CIRCLE
  8
0
 10
0.0000
 20
0.0000
 30
0.0000
 40
0.5000
  0
ENDBLK
  8
0
  0
BLOCK
  8
0
  2
THERMALV
 70
64
 10
0.0000
 20
0.0000
 30
0.0000
  3
THERMALV
  0
LINE
  8
0
 10
-0.2379
 20
0.4500
 30
0.0000
 11
0.2379
 21
0.4500
 31
0.0000
  0
LINE
  8
0
 10
0.4500
 20
0.2379
 30
0.0000
 11
0.4500
 21
-0.2379
 31
0.0000
  0
LINE
  8
0
 10
0.2379
 20
-0.4500
 30
0.0000
 11
-0.2379
 21
-0.4500
 31
0.0000
  0
LINE
  8
0
 10
-0.4500
 20
-0.2379
 30
0.0000
 11
-0.4500
 21
0.2379
 31
0.0000
  0
ENDBLK
  8
0
  0
ENDSEC
  0
SECTION
  2
ENTITIES
  0
LINE
  8
120
 10
82.5000
 20
65.5000
 30
0.0000
 11
149.5000
 21
65.5000
 31
0.0000
  0
LINE
  8
120
 10
149.5000
 20
65.5000
 30
0.0000
 11
149.5000
 21
14.5000
 31
0.0000
  0
LINE
  8
120
 10
149.5000
 20
14.5000
 30
0.0000
 11
82.5000
 21
14.5000
 31
0.0000
  0
LINE
  8
120
 10
82.5000
 20
14.5000
 30
0.0000
 11
82.5000
 21
65.5000
 31
0.0000
  0
LINE
  8
120
 10
272.5000
 20
47.5000
 30
0.0000
 11
250.5000
 21
47.5000
 31
0.0000
  0
LINE
  8
120
 10
250.5000
 20
47.5000
 30
0.0000
 11
250.5000
 21
37.5000
 31
0.0000
  0
LINE
  8
120
 10
250.5000
 20
37.5000
 30
0.0000
 11
272.5000
 21
37.5000
 31
0.0000
  0
LINE
  8
120
 10
199.5000
 20
47.5000
 30
0.0000
 11
177.5000
 21
47.5000
 31
0.0000
  0
LINE
  8
120
 10
177.5000
 20
47.5000
 30
0.0000
 11
177.5000
 21
37.5000
 31
0.0000
  0
LINE
  8
120
 10
177.5000
 20
37.5000
 30
0.0000
 11
199.5000
 21
37.5000
 31
0.0000
  0
LINE
  8
120
 10
199.5000
 20
37.5000
 30
0.0000
 11
199.5000
 21
47.5000
 31
0.0000
  0
LINE
  8
120
 10
290.0000
 20
75.0000
 30
0.0000
 11
290.0000
 21
5.0000
 31
0.0000
  0
LINE
  8
120
 10
285.0000
 20
80.0000
 30
0.0000
 11
5.0000
 21
80.0000
 31
0.0000
  0
LINE
  8
120
 10
5.0000
 20
0.0000
 30
0.0000
 11
285.0000
 21
0.0000
 31
0.0000
  0
LINE
  8
120
 10
0.0000
 20
5.0000
 30
0.0000
 11
0.0000
 21
75.0000
 31
0.0000
  0
ARC
  8
120
 10
5.0000
 20
75.0000
 30
0.0000
 40
5.0000
 50
90.0000
 51
180.0000
  0
ARC
  8
120
 10
5.0000
 20
5.0000
 30
0.0000
 40
5.0000
 50
180.0000
 51
270.0000
  0
ARC
  8
120
 10
285.0000
 20
5.0000
 30
0.0000
 40
5.0000
 50
270.0000
 51
0.0000
  0
LINE
  8
120
 10
272.5000
 20
37.5000
 30
0.0000
 11
272.5000
 21
47.5000
 31
0.0000
  0
ARC
  8
120
 10
285.0000
 20
75.0000
 30
0.0000
 40
5.0000
 50
0.0000
 51
90.0000
  0
LINE
  8
100
 10
78.5000
 20
68.0000
 30
0.0000
 11
79.5000
 21
68.0000
 31
0.0000
  0
LINE
  8
100
 10
80.5000
 20
68.0000
 30
0.0000
 11
81.5000
 21
68.0000
 31
0.0000
  0
LINE
  8
100
 10
82.5000
 20
68.0000
 30
0.0000
 11
83.5000
 21
68.0000
 31
0.0000
  0
LINE
  8
100
 10
84.5000
 20
68.0000
 30
0.0000
 11
85.5000
 21
68.0000
 31
0.0000
  0
LINE
  8
100
 10
86.5000
 20
68.0000
 30
0.0000
 11
87.5000
 21
68.0000
 31
0.0000
  0
LINE
  8
100
 10
88.5000
 20
68.0000
 30
0.0000
 11
89.5000
 21
68.0000
 31
0.0000
  0
LINE
  8
100
 10
90.5000
 20
68.0000
 30
0.0000
 11
91.5000
 21
68.0000
 31
0.0000
  0
LINE
  8
100
 10
92.5000
 20
68.0000
 30
0.0000
 11
93.5000
 21
68.0000
 31
0.0000
  0
LINE
  8
100
 10
94.5000
 20
68.0000
 30
0.0000
 11
95.5000
 21
68.0000
 31
0.0000
  0
LINE
  8
100
 10
96.5000
 20
68.0000
 30
0.0000
 11
97.5000
 21
68.0000
 31
0.0000
  0
LINE
  8
100
 10
98.5000
 20
68.0000
 30
0.0000
 11
99.5000
 21
68.0000
 31
0.0000
  0
LINE
  8
100
 10
100.5000
 20
68.0000
 30
0.0000
 11
101.5000
 21
68.0000
 31
0.0000
  0
LINE
  8
100
 10
102.5000
 20
68.0000
 30
0.0000
 11
103.5000
 21
68.0000
 31
0.0000
  0
LINE
  8
100
 10
104.5000
 20
68.0000
 30
0.0000
 11
105.5000
 21
68.0000
 31
0.0000
  0
LINE
  8
100
 10
106.5000
 20
68.0000
 30
0.0000
 11
107.5000
 21
68.0000
 31
0.0000
  0
LINE
  8
100
 10
108.5000
 20
68.0000
 30
0.0000
 11
109.5000
 21
68.0000
 31
0.0000
  0
LINE
  8
100
 10
110.5000
 20
68.0000
 30
0.0000
 11
111.5000
 21
68.0000
 31
0.0000
  0
LINE
  8
100
 10
112.5000
 20
68.0000
 30
0.0000
 11
113.5000
 21
68.0000
 31
0.0000
  0
LINE
  8
100
 10
114.5000
 20
68.0000
 30
0.0000
 11
115.5000
 21
68.0000
 31
0.0000
  0
LINE
  8
100
 10
116.5000
 20
68.0000
 30
0.0000
 11
117.5000
 21
68.0000
 31
0.0000
  0
LINE
  8
100
 10
118.5000
 20
68.0000
 30
0.0000
 11
119.5000
 21
68.0000
 31
0.0000
  0
LINE
  8
100
 10
120.5000
 20
68.0000
 30
0.0000
 11
121.5000
 21
68.0000
 31
0.0000
  0
LINE
  8
100
 10
122.5000
 20
68.0000
 30
0.0000
 11
123.5000
 21
68.0000
 31
0.0000
  0
LINE
  8
100
 10
124.5000
 20
68.0000
 30
0.0000
 11
125.5000
 21
68.0000
 31
0.0000
  0
LINE
  8
100
 10
126.5000
 20
68.0000
 30
0.0000
 11
127.5000
 21
68.0000
 31
0.0000
  0
LINE
  8
100
 10
128.5000
 20
68.0000
 30
0.0000
 11
129.5000
 21
68.0000
 31
0.0000
  0
LINE
  8
100
 10
130.5000
 20
68.0000
 30
0.0000
 11
131.5000
 21
68.0000
 31
0.0000
  0
LINE
  8
100
 10
132.5000
 20
68.0000
 30
0.0000
 11
133.5000
 21
68.0000
 31
0.0000
  0
LINE
  8
100
 10
134.5000
 20
68.0000
 30
0.0000
 11
135.5000
 21
68.0000
 31
0.0000
  0
LINE
  8
100
 10
136.5000
 20
68.0000
 30
0.0000
 11
137.5000
 21
68.0000
 31
0.0000
  0
LINE
  8
100
 10
138.5000
 20
68.0000
 30
0.0000
 11
139.5000
 21
68.0000
 31
0.0000
  0
LINE
  8
100
 10
140.5000
 20
68.0000
 30
0.0000
 11
141.5000
 21
68.0000
 31
0.0000
  0
LINE
  8
100
 10
142.5000
 20
68.0000
 30
0.0000
 11
143.5000
 21
68.0000
 31
0.0000
  0
LINE
  8
100
 10
144.5000
 20
68.0000
 30
0.0000
 11
145.5000
 21
68.0000
 31
0.0000
  0
LINE
  8
100
 10
146.5000
 20
68.0000
 30
0.0000
 11
147.5000
 21
68.0000
 31
0.0000
  0
LINE
  8
100
 10
148.5000
 20
68.0000
 30
0.0000
 11
149.5000
 21
68.0000
 31
0.0000
  0
LINE
  8
100
 10
150.5000
 20
68.0000
 30
0.0000
 11
151.5000
 21
68.0000
 31
0.0000
  0
LINE
  8
100
 10
78.5000
 20
12.5000
 30
0.0000
 11
79.5000
 21
12.5000
 31
0.0000
  0
LINE
  8
100
 10
80.5000
 20
12.5000
 30
0.0000
 11
81.5000
 21
12.5000
 31
0.0000
  0
LINE
  8
100
 10
82.5000
 20
12.5000
 30
0.0000
 11
83.5000
 21
12.5000
 31
0.0000
  0
LINE
  8
100
 10
84.5000
 20
12.5000
 30
0.0000
 11
85.5000
 21
12.5000
 31
0.0000
  0
LINE
  8
100
 10
86.5000
 20
12.5000
 30
0.0000
 11
87.5000
 21
12.5000
 31
0.0000
  0
LINE
  8
100
 10
88.5000
 20
12.5000
 30
0.0000
 11
89.5000
 21
12.5000
 31
0.0000
  0
LINE
  8
100
 10
90.5000
 20
12.5000
 30
0.0000
 11
91.5000
 21
12.5000
 31
0.0000
  0
LINE
  8
100
 10
92.5000
 20
12.5000
 30
0.0000
 11
93.5000
 21
12.5000
 31
0.0000
  0
LINE
  8
100
 10
94.5000
 20
12.5000
 30
0.0000
 11
95.5000
 21
12.5000
 31
0.0000
  0
LINE
  8
100
 10
96.5000
 20
12.5000
 30
0.0000
 11
97.5000
 21
12.5000
 31
0.0000
  0
LINE
  8
100
 10
98.5000
 20
12.5000
 30
0.0000
 11
99.5000
 21
12.5000
 31
0.0000
  0
LINE
  8
100
 10
100.5000
 20
12.5000
 30
0.0000
 11
101.5000
 21
12.5000
 31
0.0000
  0
LINE
  8
100
 10
102.5000
 20
12.5000
 30
0.0000
 11
103.5000
 21
12.5000
 31
0.0000
  0
LINE
  8
100
 10
104.5000
 20
12.5000
 30
0.0000
 11
105.5000
 21
12.5000
 31
0.0000
  0
LINE
  8
100
 10
106.5000
 20
12.5000
 30
0.0000
 11
107.5000
 21
12.5000
 31
0.0000
  0
LINE
  8
100
 10
108.5000
 20
12.5000
 30
0.0000
 11
109.5000
 21
12.5000
 31
0.0000
  0
LINE
  8
100
 10
110.5000
 20
12.5000
 30
0.0000
 11
111.5000
 21
12.5000
 31
0.0000
  0
LINE
  8
100
 10
112.5000
 20
12.5000
 30
0.0000
 11
113.5000
 21
12.5000
 31
0.0000
  0
LINE
  8
100
 10
114.5000
 20
12.5000
 30
0.0000
 11
115.5000
 21
12.5000
 31
0.0000
  0
LINE
  8
100
 10
116.5000
 20
12.5000
 30
0.0000
 11
117.5000
 21
12.5000
 31
0.0000
  0
LINE
  8
100
 10
118.5000
 20
12.5000
 30
0.0000
 11
119.5000
 21
12.5000
 31
0.0000
  0
LINE
  8
100
 10
120.5000
 20
12.5000
 30
0.0000
 11
121.5000
 21
12.5000
 31
0.0000
  0
LINE
  8
100
 10
122.5000
 20
12.5000
 30
0.0000
 11
123.5000
 21
12.5000
 31
0.0000
  0
LINE
  8
100
 10
124.5000
 20
12.5000
 30
0.0000
 11
125.5000
 21
12.5000
 31
0.0000
  0
LINE
  8
100
 10
126.5000
 20
12.5000
 30
0.0000
 11
127.5000
 21
12.5000
 31
0.0000
  0
LINE
  8
100
 10
128.5000
 20
12.5000
 30
0.0000
 11
129.5000
 21
12.5000
 31
0.0000
  0
LINE
  8
100
 10
130.5000
 20
12.5000
 30
0.0000
 11
131.5000
 21
12.5000
 31
0.0000
  0
LINE
  8
100
 10
132.5000
 20
12.5000
 30
0.0000
 11
133.5000
 21
12.5000
 31
0.0000
  0
LINE
  8
100
 10
134.5000
 20
12.5000
 30
0.0000
 11
135.5000
 21
12.5000
 31
0.0000
  0
LINE
  8
100
 10
136.5000
 20
12.5000
 30
0.0000
 11
137.5000
 21
12.5000
 31
0.0000
  0
LINE
  8
100
 10
138.5000
 20
12.5000
 30
0.0000
 11
139.5000
 21
12.5000
 31
0.0000
  0
LINE
  8
100
 10
140.5000
 20
12.5000
 30
0.0000
 11
141.5000
 21
12.5000
 31
0.0000
  0
LINE
  8
100
 10
142.5000
 20
12.5000
 30
0.0000
 11
143.5000
 21
12.5000
 31
0.0000
  0
LINE
  8
100
 10
144.5000
 20
12.5000
 30
0.0000
 11
145.5000
 21
12.5000
 31
0.0000
  0
LINE
  8
100
 10
146.5000
 20
12.5000
 30
0.0000
 11
147.5000
 21
12.5000
 31
0.0000
  0
LINE
  8
100
 10
148.5000
 20
12.5000
 30
0.0000
 11
149.5000
 21
12.5000
 31
0.0000
  0
LINE
  8
100
 10
150.5000
 20
12.5000
 30
0.0000
 11
151.5000
 21
12.5000
 31
0.0000
  0
LINE
  8
100
 10
151.5000
 20
68.0000
 30
0.0000
 11
151.5000
 21
66.9821
 31
0.0000
  0
LINE
  8
100
 10
151.5000
 20
65.9821
 30
0.0000
 11
151.5000
 21
64.9643
 31
0.0000
  0
LINE
  8
100
 10
151.5000
 20
63.9643
 30
0.0000
 11
151.5000
 21
62.9464
 31
0.0000
  0
LINE
  8
100
 10
151.5000
 20
61.9464
 30
0.0000
 11
151.5000
 21
60.9286
 31
0.0000
  0
LINE
  8
100
 10
151.5000
 20
59.9286
 30
0.0000
 11
151.5000
 21
58.9107
 31
0.0000
  0
LINE
  8
100
 10
151.5000
 20
57.9107
 30
0.0000
 11
151.5000
 21
56.8929
 31
0.0000
  0
LINE
  8
100
 10
151.5000
 20
55.8929
 30
0.0000
 11
151.5000
 21
54.8750
 31
0.0000
  0
LINE
  8
100
 10
151.5000
 20
53.8750
 30
0.0000
 11
151.5000
 21
52.8571
 31
0.0000
  0
LINE
  8
100
 10
151.5000
 20
51.8571
 30
0.0000
 11
151.5000
 21
50.8393
 31
0.0000
  0
LINE
  8
100
 10
151.5000
 20
49.8393
 30
0.0000
 11
151.5000
 21
48.8214
 31
0.0000
  0
LINE
  8
100
 10
151.5000
 20
47.8214
 30
0.0000
 11
151.5000
 21
46.8036
 31
0.0000
  0
LINE
  8
100
 10
151.5000
 20
45.8036
 30
0.0000
 11
151.5000
 21
44.7857
 31
0.0000
  0
LINE
  8
100
 10
151.5000
 20
43.7857
 30
0.0000
 11
151.5000
 21
42.7679
 31
0.0000
  0
LINE
  8
100
 10
151.5000
 20
41.7679
 30
0.0000
 11
151.5000
 21
40.7500
 31
0.0000
  0
LINE
  8
100
 10
151.5000
 20
39.7500
 30
0.0000
 11
151.5000
 21
38.7321
 31
0.0000
  0
LINE
  8
100
 10
151.5000
 20
37.7321
 30
0.0000
 11
151.5000
 21
36.7143
 31
0.0000
  0
LINE
  8
100
 10
151.5000
 20
35.7143
 30
0.0000
 11
151.5000
 21
34.6964
 31
0.0000
  0
LINE
  8
100
 10
151.5000
 20
33.6964
 30
0.0000
 11
151.5000
 21
32.6786
 31
0.0000
  0
LINE
  8
100
 10
151.5000
 20
31.6786
 30
0.0000
 11
151.5000
 21
30.6607
 31
0.0000
  0
LINE
  8
100
 10
151.5000
 20
29.6607
 30
0.0000
 11
151.5000
 21
28.6429
 31
0.0000
  0
LINE
  8
100
 10
151.5000
 20
27.6429
 30
0.0000
 11
151.5000
 21
26.6250
 31
0.0000
  0
LINE
  8
100
 10
151.5000
 20
25.6250
 30
0.0000
 11
151.5000
 21
24.6071
 31
0.0000
  0
LINE
  8
100
 10
151.5000
 20
23.6071
 30
0.0000
 11
151.5000
 21
22.5893
 31
0.0000
  0
LINE
  8
100
 10
151.5000
 20
21.5893
 30
0.0000
 11
151.5000
 21
20.5714
 31
0.0000
  0
LINE
  8
100
 10
151.5000
 20
19.5714
 30
0.0000
 11
151.5000
 21
18.5536
 31
0.0000
  0
LINE
  8
100
 10
151.5000
 20
17.5536
 30
0.0000
 11
151.5000
 21
16.5357
 31
0.0000
  0
LINE
  8
100
 10
151.5000
 20
15.5357
 30
0.0000
 11
151.5000
 21
14.5179
 31
0.0000
  0
LINE
  8
100
 10
151.5000
 20
13.5179
 30
0.0000
 11
151.5000
 21
12.5000
 31
0.0000
  0
LINE
  8
100
 10
78.5000
 20
68.0000
 30
0.0000
 11
78.5000
 21
66.9821
 31
0.0000
  0
LINE
  8
100
 10
78.5000
 20
65.9821
 30
0.0000
 11
78.5000
 21
64.9643
 31
0.0000
  0
LINE
  8
100
 10
78.5000
 20
63.9643
 30
0.0000
 11
78.5000
 21
62.9464
 31
0.0000
  0
LINE
  8
100
 10
78.5000
 20
61.9464
 30
0.0000
 11
78.5000
 21
60.9286
 31
0.0000
  0
LINE
  8
100
 10
78.5000
 20
59.9286
 30
0.0000
 11
78.5000
 21
58.9107
 31
0.0000
  0
LINE
  8
100
 10
78.5000
 20
57.9107
 30
0.0000
 11
78.5000
 21
56.8929
 31
0.0000
  0
LINE
  8
100
 10
78.5000
 20
55.8929
 30
0.0000
 11
78.5000
 21
54.8750
 31
0.0000
  0
LINE
  8
100
 10
78.5000
 20
53.8750
 30
0.0000
 11
78.5000
 21
52.8571
 31
0.0000
  0
LINE
  8
100
 10
78.5000
 20
51.8571
 30
0.0000
 11
78.5000
 21
50.8393
 31
0.0000
  0
LINE
  8
100
 10
78.5000
 20
49.8393
 30
0.0000
 11
78.5000
 21
48.8214
 31
0.0000
  0
LINE
  8
100
 10
78.5000
 20
47.8214
 30
0.0000
 11
78.5000
 21
46.8036
 31
0.0000
  0
LINE
  8
100
 10
78.5000
 20
45.8036
 30
0.0000
 11
78.5000
 21
44.7857
 31
0.0000
  0
LINE
  8
100
 10
78.5000
 20
43.7857
 30
0.0000
 11
78.5000
 21
42.7679
 31
0.0000
  0
LINE
  8
100
 10
78.5000
 20
41.7679
 30
0.0000
 11
78.5000
 21
40.7500
 31
0.0000
  0
LINE
  8
100
 10
78.5000
 20
39.7500
 30
0.0000
 11
78.5000
 21
38.7321
 31
0.0000
  0
LINE
  8
100
 10
78.5000
 20
37.7321
 30
0.0000
 11
78.5000
 21
36.7143
 31
0.0000
  0
LINE
  8
100
 10
78.5000
 20
35.7143
 30
0.0000
 11
78.5000
 21
34.6964
 31
0.0000
  0
LINE
  8
100
 10
78.5000
 20
33.6964
 30
0.0000
 11
78.5000
 21
32.6786
 31
0.0000
  0
LINE
  8
100
 10
78.5000
 20
31.6786
 30
0.0000
 11
78.5000
 21
30.6607
 31
0.0000
  0
LINE
  8
100
 10
78.5000
 20
29.6607
 30
0.0000
 11
78.5000
 21
28.6429
 31
0.0000
  0
LINE
  8
100
 10
78.5000
 20
27.6429
 30
0.0000
 11
78.5000
 21
26.6250
 31
0.0000
  0
LINE
  8
100
 10
78.5000
 20
25.6250
 30
0.0000
 11
78.5000
 21
24.6071
 31
0.0000
  0
LINE
  8
100
 10
78.5000
 20
23.6071
 30
0.0000
 11
78.5000
 21
22.5893
 31
0.0000
  0
LINE
  8
100
 10
78.5000
 20
21.5893
 30
0.0000
 11
78.5000
 21
20.5714
 31
0.0000
  0
LINE
  8
100
 10
78.5000
 20
19.5714
 30
0.0000
 11
78.5000
 21
18.5536
 31
0.0000
  0
LINE
  8
100
 10
78.5000
 20
17.5536
 30
0.0000
 11
78.5000
 21
16.5357
 31
0.0000
  0
LINE
  8
100
 10
78.5000
 20
15.5357
 30
0.0000
 11
78.5000
 21
14.5179
 31
0.0000
  0
LINE
  8
100
 10
78.5000
 20
13.5179
 30
0.0000
 11
78.5000
 21
12.5000
 31
0.0000
  0
LINE
  8
100
 10
78.5762
 20
70.4320
 30
0.0000
 11
78.8474
 21
70.7032
 31
0.0000
  0
LINE
  8
100
 10
78.8474
 20
70.7032
 30
0.0000
 11
79.3897
 21
70.7032
 31
0.0000
  0
LINE
  8
100
 10
79.3897
 20
70.7032
 30
0.0000
 11
79.6609
 21
70.4320
 31
0.0000
  0
LINE
  8
100
 10
79.6609
 20
70.4320
 30
0.0000
 11
79.6609
 21
70.1609
 31
0.0000
  0
LINE
  8
100
 10
79.6609
 20
70.1609
 30
0.0000
 11
79.3897
 21
69.8897
 31
0.0000
  0
LINE
  8
100
 10
79.3897
 20
69.8897
 30
0.0000
 11
79.1185
 21
69.8897
 31
0.0000
  0
LINE
  8
100
 10
79.3897
 20
69.8897
 30
0.0000
 11
79.6609
 21
69.6185
 31
0.0000
  0
LINE
  8
100
 10
79.6609
 20
69.6185
 30
0.0000
 11
79.6609
 21
69.3474
 31
0.0000
  0
LINE
  8
100
 10
79.6609
 20
69.3474
 30
0.0000
 11
79.3897
 21
69.0762
 31
0.0000
  0
LINE
  8
100
 10
79.3897
 20
69.0762
 30
0.0000
 11
78.8474
 21
69.0762
 31
0.0000
  0
LINE
  8
100
 10
78.8474
 20
69.0762
 30
0.0000
 11
78.5762
 21
69.3474
 31
0.0000
  0
LINE
  8
100
 10
80.2134
 20
69.0762
 30
0.0000
 11
80.2134
 21
69.3474
 31
0.0000
  0
LINE
  8
100
 10
80.2134
 20
69.3474
 30
0.0000
 11
80.4845
 21
69.3474
 31
0.0000
  0
LINE
  8
100
 10
80.4845
 20
69.3474
 30
0.0000
 11
80.4845
 21
69.0762
 31
0.0000
  0
LINE
  8
100
 10
80.4845
 20
69.0762
 30
0.0000
 11
80.2134
 21
69.0762
 31
0.0000
  0
LINE
  8
100
 10
82.1166
 20
70.7032
 30
0.0000
 11
81.0319
 21
70.7032
 31
0.0000
  0
LINE
  8
100
 10
81.0319
 20
70.7032
 30
0.0000
 11
81.0319
 21
69.8897
 31
0.0000
  0
LINE
  8
100
 10
81.0319
 20
69.8897
 30
0.0000
 11
81.5743
 21
70.1609
 31
0.0000
  0
LINE
  8
100
 10
81.5743
 20
70.1609
 30
0.0000
 11
81.8454
 21
70.1609
 31
0.0000
  0
LINE
  8
100
 10
81.8454
 20
70.1609
 30
0.0000
 11
82.1166
 21
69.8897
 31
0.0000
  0
LINE
  8
100
 10
82.1166
 20
69.8897
 30
0.0000
 11
82.1166
 21
69.3474
 31
0.0000
  0
LINE
  8
100
 10
82.1166
 20
69.3474
 30
0.0000
 11
81.8454
 21
69.0762
 31
0.0000
  0
LINE
  8
100
 10
81.8454
 20
69.0762
 30
0.0000
 11
81.3031
 21
69.0762
 31
0.0000
  0
LINE
  8
100
 10
81.3031
 20
69.0762
 30
0.0000
 11
81.0319
 21
69.3474
 31
0.0000
  0
LINE
  8
100
 10
82.9403
 20
70.9744
 30
0.0000
 11
82.9403
 21
70.4320
 31
0.0000
  0
LINE
  8
100
 10
82.9403
 20
70.4320
 30
0.0000
 11
82.6691
 21
70.1609
 31
0.0000
  0
LINE
  8
100
 10
83.4826
 20
70.9744
 30
0.0000
 11
83.4826
 21
70.4320
 31
0.0000
  0
LINE
  8
100
 10
83.4826
 20
70.4320
 30
0.0000
 11
83.2114
 21
70.1609
 31
0.0000
  0
LINE
  8
100
 10
85.6705
 20
69.0762
 30
0.0000
 11
85.6705
 21
70.7032
 31
0.0000
  0
LINE
  8
100
 10
85.6705
 20
70.7032
 30
0.0000
 11
86.4840
 21
70.7032
 31
0.0000
  0
LINE
  8
100
 10
86.4840
 20
70.7032
 30
0.0000
 11
86.7552
 21
70.4320
 31
0.0000
  0
LINE
  8
100
 10
86.7552
 20
70.4320
 30
0.0000
 11
86.7552
 21
69.8897
 31
0.0000
  0
LINE
  8
100
 10
86.7552
 20
69.8897
 30
0.0000
 11
86.4840
 21
69.6185
 31
0.0000
  0
LINE
  8
100
 10
86.4840
 20
69.6185
 30
0.0000
 11
85.6705
 21
69.6185
 31
0.0000
  0
LINE
  8
100
 10
86.2129
 20
69.6185
 30
0.0000
 11
86.7552
 21
69.0762
 31
0.0000
  0
LINE
  8
100
 10
87.3077
 20
70.1609
 30
0.0000
 11
87.5789
 21
70.1609
 31
0.0000
  0
LINE
  8
100
 10
87.5789
 20
70.1609
 30
0.0000
 11
87.5789
 21
69.0762
 31
0.0000
  0
LINE
  8
100
 10
87.3077
 20
69.0762
 30
0.0000
 11
87.8500
 21
69.0762
 31
0.0000
  0
LINE
  8
100
 10
87.5789
 20
70.9744
 30
0.0000
 11
87.5789
 21
70.7032
 31
0.0000
  0
LINE
  8
100
 10
88.3991
 20
70.1609
 30
0.0000
 11
88.9415
 21
69.0762
 31
0.0000
  0
LINE
  8
100
 10
88.9415
 20
69.0762
 30
0.0000
 11
89.4838
 21
70.1609
 31
0.0000
  0
LINE
  8
100
 10
90.8498
 20
69.0762
 30
0.0000
 11
90.3075
 21
69.0762
 31
0.0000
  0
LINE
  8
100
 10
90.3075
 20
69.0762
 30
0.0000
 11
90.0363
 21
69.3474
 31
0.0000
  0
LINE
  8
100
 10
90.0363
 20
69.3474
 30
0.0000
 11
90.0363
 21
69.8897
 31
0.0000
  0
LINE
  8
100
 10
90.0363
 20
69.8897
 30
0.0000
 11
90.3075
 21
70.1609
 31
0.0000
  0
LINE
  8
100
 10
90.3075
 20
70.1609
 30
0.0000
 11
90.8498
 21
70.1609
 31
0.0000
  0
LINE
  8
100
 10
90.8498
 20
70.1609
 30
0.0000
 11
91.1210
 21
69.8897
 31
0.0000
  0
LINE
  8
100
 10
91.1210
 20
69.8897
 30
0.0000
 11
91.1210
 21
69.6185
 31
0.0000
  0
LINE
  8
100
 10
91.1210
 20
69.6185
 30
0.0000
 11
90.0363
 21
69.6185
 31
0.0000
  0
LINE
  8
100
 10
91.6735
 20
69.0762
 30
0.0000
 11
91.6735
 21
70.1609
 31
0.0000
  0
LINE
  8
100
 10
91.6735
 20
69.6185
 30
0.0000
 11
92.2158
 21
70.1609
 31
0.0000
  0
LINE
  8
100
 10
92.2158
 20
70.1609
 30
0.0000
 11
92.4869
 21
70.1609
 31
0.0000
  0
LINE
  8
100
 10
94.1224
 20
70.7032
 30
0.0000
 11
94.1224
 21
69.0762
 31
0.0000
  0
LINE
  8
100
 10
94.1224
 20
69.0762
 30
0.0000
 11
93.3089
 21
69.0762
 31
0.0000
  0
LINE
  8
100
 10
93.3089
 20
69.0762
 30
0.0000
 11
93.0377
 21
69.3474
 31
0.0000
  0
LINE
  8
100
 10
93.0377
 20
69.3474
 30
0.0000
 11
93.0377
 21
69.8897
 31
0.0000
  0
LINE
  8
100
 10
93.0377
 20
69.8897
 30
0.0000
 11
93.3089
 21
70.1609
 31
0.0000
  0
LINE
  8
100
 10
93.3089
 20
70.1609
 30
0.0000
 11
94.1224
 21
70.1609
 31
0.0000
  0
LINE
  8
100
 10
94.6749
 20
70.1609
 30
0.0000
 11
94.9461
 21
70.1609
 31
0.0000
  0
LINE
  8
100
 10
94.9461
 20
70.1609
 30
0.0000
 11
94.9461
 21
69.0762
 31
0.0000
  0
LINE
  8
100
 10
94.6749
 20
69.0762
 30
0.0000
 11
95.2172
 21
69.0762
 31
0.0000
  0
LINE
  8
100
 10
94.9461
 20
70.9744
 30
0.0000
 11
94.9461
 21
70.7032
 31
0.0000
  0
LINE
  8
100
 10
98.4882
 20
70.7032
 30
0.0000
 11
98.4882
 21
69.0762
 31
0.0000
  0
LINE
  8
100
 10
98.4882
 20
69.0762
 30
0.0000
 11
97.6747
 21
69.0762
 31
0.0000
  0
LINE
  8
100
 10
97.6747
 20
69.0762
 30
0.0000
 11
97.4035
 21
69.3474
 31
0.0000
  0
LINE
  8
100
 10
97.4035
 20
69.3474
 30
0.0000
 11
97.4035
 21
69.8897
 31
0.0000
  0
LINE
  8
100
 10
97.4035
 20
69.8897
 30
0.0000
 11
97.6747
 21
70.1609
 31
0.0000
  0
LINE
  8
100
 10
97.6747
 20
70.1609
 30
0.0000
 11
98.4882
 21
70.1609
 31
0.0000
  0
LINE
  8
100
 10
99.0407
 20
70.1609
 30
0.0000
 11
99.3118
 21
70.1609
 31
0.0000
  0
LINE
  8
100
 10
99.3118
 20
70.1609
 30
0.0000
 11
99.3118
 21
69.0762
 31
0.0000
  0
LINE
  8
100
 10
99.0407
 20
69.0762
 30
0.0000
 11
99.5830
 21
69.0762
 31
0.0000
  0
LINE
  8
100
 10
99.3118
 20
70.9744
 30
0.0000
 11
99.3118
 21
70.7032
 31
0.0000
  0
LINE
  8
100
 10
100.1321
 20
69.0762
 30
0.0000
 11
100.9456
 21
69.0762
 31
0.0000
  0
LINE
  8
100
 10
100.9456
 20
69.0762
 30
0.0000
 11
101.2168
 21
69.3474
 31
0.0000
  0
LINE
  8
100
 10
101.2168
 20
69.3474
 30
0.0000
 11
100.9456
 21
69.6185
 31
0.0000
  0
LINE
  8
100
 10
100.9456
 20
69.6185
 30
0.0000
 11
100.4033
 21
69.6185
 31
0.0000
  0
LINE
  8
100
 10
100.4033
 20
69.6185
 30
0.0000
 11
100.1321
 21
69.8897
 31
0.0000
  0
LINE
  8
100
 10
100.1321
 20
69.8897
 30
0.0000
 11
100.4033
 21
70.1609
 31
0.0000
  0
LINE
  8
100
 10
100.4033
 20
70.1609
 30
0.0000
 11
101.2168
 21
70.1609
 31
0.0000
  0
LINE
  8
100
 10
101.7692
 20
68.5339
 30
0.0000
 11
101.7692
 21
70.1609
 31
0.0000
  0
LINE
  8
100
 10
101.7692
 20
70.1609
 30
0.0000
 11
102.5827
 21
70.1609
 31
0.0000
  0
LINE
  8
100
 10
102.5827
 20
70.1609
 30
0.0000
 11
102.8539
 21
69.8897
 31
0.0000
  0
LINE
  8
100
 10
102.8539
 20
69.8897
 30
0.0000
 11
102.8539
 21
69.3474
 31
0.0000
  0
LINE
  8
100
 10
102.8539
 20
69.3474
 30
0.0000
 11
102.5827
 21
69.0762
 31
0.0000
  0
LINE
  8
100
 10
102.5827
 20
69.0762
 30
0.0000
 11
101.7692
 21
69.0762
 31
0.0000
  0
LINE
  8
100
 10
103.4064
 20
70.7032
 30
0.0000
 11
103.6776
 21
70.7032
 31
0.0000
  0
LINE
  8
100
 10
103.6776
 20
70.7032
 30
0.0000
 11
103.6776
 21
69.0762
 31
0.0000
  0
LINE
  8
100
 10
103.4064
 20
69.0762
 30
0.0000
 11
103.9487
 21
69.0762
 31
0.0000
  0
LINE
  8
100
 10
104.7690
 20
70.1609
 30
0.0000
 11
105.3113
 21
70.1609
 31
0.0000
  0
LINE
  8
100
 10
105.3113
 20
70.1609
 30
0.0000
 11
105.5825
 21
69.8897
 31
0.0000
  0
LINE
  8
100
 10
105.5825
 20
69.8897
 30
0.0000
 11
105.5825
 21
69.0762
 31
0.0000
  0
LINE
  8
100
 10
105.5825
 20
69.0762
 30
0.0000
 11
104.7690
 21
69.0762
 31
0.0000
  0
LINE
  8
100
 10
104.7690
 20
69.0762
 30
0.0000
 11
104.4978
 21
69.3474
 31
0.0000
  0
LINE
  8
100
 10
104.4978
 20
69.3474
 30
0.0000
 11
104.7690
 21
69.6185
 31
0.0000
  0
LINE
  8
100
 10
104.7690
 20
69.6185
 30
0.0000
 11
105.5825
 21
69.6185
 31
0.0000
  0
LINE
  8
100
 10
106.1350
 20
70.1609
 30
0.0000
 11
106.1350
 21
69.3474
 31
0.0000
  0
LINE
  8
100
 10
106.1350
 20
69.3474
 30
0.0000
 11
106.4062
 21
69.0762
 31
0.0000
  0
LINE
  8
100
 10
106.4062
 20
69.0762
 30
0.0000
 11
107.2197
 21
69.0762
 31
0.0000
  0
LINE
  8
100
 10
107.2197
 20
70.1609
 30
0.0000
 11
107.2197
 21
68.8050
 31
0.0000
  0
LINE
  8
100
 10
107.2197
 20
68.8050
 30
0.0000
 11
106.9485
 21
68.5339
 31
0.0000
  0
LINE
  8
100
 10
106.9485
 20
68.5339
 30
0.0000
 11
106.6773
 21
68.5339
 31
0.0000
  0
LINE
  8
100
 10
109.9516
 20
69.0762
 30
0.0000
 11
109.4093
 21
69.6185
 31
0.0000
  0
LINE
  8
100
 10
109.4093
 20
69.6185
 30
0.0000
 11
109.4093
 21
70.1609
 31
0.0000
  0
LINE
  8
100
 10
109.4093
 20
70.1609
 30
0.0000
 11
109.9516
 21
70.7032
 31
0.0000
  0
LINE
  8
100
 10
110.5007
 20
69.0762
 30
0.0000
 11
110.5007
 21
70.1609
 31
0.0000
  0
LINE
  8
100
 10
110.5007
 20
69.6185
 30
0.0000
 11
111.0431
 21
70.1609
 31
0.0000
  0
LINE
  8
100
 10
111.0431
 20
70.1609
 30
0.0000
 11
111.3142
 21
70.1609
 31
0.0000
  0
LINE
  8
100
 10
112.1362
 20
69.0762
 30
0.0000
 11
112.6785
 21
69.0762
 31
0.0000
  0
LINE
  8
100
 10
112.6785
 20
69.0762
 30
0.0000
 11
112.9497
 21
69.3474
 31
0.0000
  0
LINE
  8
100
 10
112.9497
 20
69.3474
 30
0.0000
 11
112.9497
 21
69.8897
 31
0.0000
  0
LINE
  8
100
 10
112.9497
 20
69.8897
 30
0.0000
 11
112.6785
 21
70.1609
 31
0.0000
  0
LINE
  8
100
 10
112.6785
 20
70.1609
 30
0.0000
 11
112.1362
 21
70.1609
 31
0.0000
  0
LINE
  8
100
 10
112.1362
 20
70.1609
 30
0.0000
 11
111.8650
 21
69.8897
 31
0.0000
  0
LINE
  8
100
 10
111.8650
 20
69.8897
 30
0.0000
 11
111.8650
 21
69.3474
 31
0.0000
  0
LINE
  8
100
 10
111.8650
 20
69.3474
 30
0.0000
 11
112.1362
 21
69.0762
 31
0.0000
  0
LINE
  8
100
 10
113.7734
 20
70.4320
 30
0.0000
 11
113.7734
 21
69.3474
 31
0.0000
  0
LINE
  8
100
 10
113.7734
 20
69.3474
 30
0.0000
 11
114.0445
 21
69.0762
 31
0.0000
  0
LINE
  8
100
 10
113.5022
 20
70.1609
 30
0.0000
 11
114.0445
 21
70.1609
 31
0.0000
  0
LINE
  8
100
 10
114.8648
 20
70.1609
 30
0.0000
 11
115.4071
 21
70.1609
 31
0.0000
  0
LINE
  8
100
 10
115.4071
 20
70.1609
 30
0.0000
 11
115.6783
 21
69.8897
 31
0.0000
  0
LINE
  8
100
 10
115.6783
 20
69.8897
 30
0.0000
 11
115.6783
 21
69.0762
 31
0.0000
  0
LINE
  8
100
 10
115.6783
 20
69.0762
 30
0.0000
 11
114.8648
 21
69.0762
 31
0.0000
  0
LINE
  8
100
 10
114.8648
 20
69.0762
 30
0.0000
 11
114.5936
 21
69.3474
 31
0.0000
  0
LINE
  8
100
 10
114.5936
 20
69.3474
 30
0.0000
 11
114.8648
 21
69.6185
 31
0.0000
  0
LINE
  8
100
 10
114.8648
 20
69.6185
 30
0.0000
 11
115.6783
 21
69.6185
 31
0.0000
  0
LINE
  8
100
 10
116.5020
 20
70.4320
 30
0.0000
 11
116.5020
 21
69.3474
 31
0.0000
  0
LINE
  8
100
 10
116.5020
 20
69.3474
 30
0.0000
 11
116.7731
 21
69.0762
 31
0.0000
  0
LINE
  8
100
 10
116.2308
 20
70.1609
 30
0.0000
 11
116.7731
 21
70.1609
 31
0.0000
  0
LINE
  8
100
 10
118.1357
 20
69.0762
 30
0.0000
 11
117.5934
 21
69.0762
 31
0.0000
  0
LINE
  8
100
 10
117.5934
 20
69.0762
 30
0.0000
 11
117.3222
 21
69.3474
 31
0.0000
  0
LINE
  8
100
 10
117.3222
 20
69.3474
 30
0.0000
 11
117.3222
 21
69.8897
 31
0.0000
  0
LINE
  8
100
 10
117.3222
 20
69.8897
 30
0.0000
 11
117.5934
 21
70.1609
 31
0.0000
  0
LINE
  8
100
 10
117.5934
 20
70.1609
 30
0.0000
 11
118.1357
 21
70.1609
 31
0.0000
  0
LINE
  8
100
 10
118.1357
 20
70.1609
 30
0.0000
 11
118.4069
 21
69.8897
 31
0.0000
  0
LINE
  8
100
 10
118.4069
 20
69.8897
 30
0.0000
 11
118.4069
 21
69.6185
 31
0.0000
  0
LINE
  8
100
 10
118.4069
 20
69.6185
 30
0.0000
 11
117.3222
 21
69.6185
 31
0.0000
  0
LINE
  8
100
 10
120.0440
 20
70.7032
 30
0.0000
 11
120.0440
 21
69.0762
 31
0.0000
  0
LINE
  8
100
 10
120.0440
 20
69.0762
 30
0.0000
 11
119.2306
 21
69.0762
 31
0.0000
  0
LINE
  8
100
 10
119.2306
 20
69.0762
 30
0.0000
 11
118.9594
 21
69.3474
 31
0.0000
  0
LINE
  8
100
 10
118.9594
 20
69.3474
 30
0.0000
 11
118.9594
 21
69.8897
 31
0.0000
  0
LINE
  8
100
 10
118.9594
 20
69.8897
 30
0.0000
 11
119.2306
 21
70.1609
 31
0.0000
  0
LINE
  8
100
 10
119.2306
 20
70.1609
 30
0.0000
 11
120.0440
 21
70.1609
 31
0.0000
  0
LINE
  8
100
 10
120.5965
 20
69.3474
 30
0.0000
 11
120.5965
 21
69.0762
 31
0.0000
  0
LINE
  8
100
 10
120.5965
 20
70.9744
 30
0.0000
 11
120.5965
 21
69.8897
 31
0.0000
  0
LINE
  8
100
 10
121.1423
 20
69.0762
 30
0.0000
 11
121.6846
 21
69.6185
 31
0.0000
  0
LINE
  8
100
 10
121.6846
 20
69.6185
 30
0.0000
 11
121.6846
 21
70.1609
 31
0.0000
  0
LINE
  8
100
 10
121.6846
 20
70.1609
 30
0.0000
 11
121.1423
 21
70.7032
 31
0.0000
  0
LINE
  8
120
 10
83.5762
 20
64.4320
 30
0.0000
 11
83.8474
 21
64.7032
 31
0.0000
  0
LINE
  8
120
 10
83.8474
 20
64.7032
 30
0.0000
 11
84.3897
 21
64.7032
 31
0.0000
  0
LINE
  8
120
 10
84.3897
 20
64.7032
 30
0.0000
 11
84.6609
 21
64.4320
 31
0.0000
  0
LINE
  8
120
 10
84.6609
 20
64.4320
 30
0.0000
 11
84.6609
 21
64.1609
 31
0.0000
  0
LINE
  8
120
 10
84.6609
 20
64.1609
 30
0.0000
 11
84.3897
 21
63.8897
 31
0.0000
  0
LINE
  8
120
 10
84.3897
 20
63.8897
 30
0.0000
 11
84.1185
 21
63.8897
 31
0.0000
  0
LINE
  8
120
 10
84.3897
 20
63.8897
 30
0.0000
 11
84.6609
 21
63.6185
 31
0.0000
  0
LINE
  8
120
 10
84.6609
 20
63.6185
 30
0.0000
 11
84.6609
 21
63.3474
 31
0.0000
  0
LINE
  8
120
 10
84.6609
 20
63.3474
 30
0.0000
 11
84.3897
 21
63.0762
 31
0.0000
  0
LINE
  8
120
 10
84.3897
 20
63.0762
 30
0.0000
 11
83.8474
 21
63.0762
 31
0.0000
  0
LINE
  8
120
 10
83.8474
 20
63.0762
 30
0.0000
 11
83.5762
 21
63.3474
 31
0.0000
  0
LINE
  8
120
 10
85.2134
 20
63.0762
 30
0.0000
 11
85.2134
 21
63.3474
 31
0.0000
  0
LINE
  8
120
 10
85.2134
 20
63.3474
 30
0.0000
 11
85.4845
 21
63.3474
 31
0.0000
  0
LINE
  8
120
 10
85.4845
 20
63.3474
 30
0.0000
 11
85.4845
 21
63.0762
 31
0.0000
  0
LINE
  8
120
 10
85.4845
 20
63.0762
 30
0.0000
 11
85.2134
 21
63.0762
 31
0.0000
  0
LINE
  8
120
 10
87.1166
 20
63.0762
 30
0.0000
 11
86.0319
 21
63.0762
 31
0.0000
  0
LINE
  8
120
 10
86.0319
 20
63.0762
 30
0.0000
 11
87.1166
 21
64.1609
 31
0.0000
  0
LINE
  8
120
 10
87.1166
 20
64.1609
 30
0.0000
 11
87.1166
 21
64.4320
 31
0.0000
  0
LINE
  8
120
 10
87.1166
 20
64.4320
 30
0.0000
 11
86.8454
 21
64.7032
 31
0.0000
  0
LINE
  8
120
 10
86.8454
 20
64.7032
 30
0.0000
 11
86.3031
 21
64.7032
 31
0.0000
  0
LINE
  8
120
 10
86.3031
 20
64.7032
 30
0.0000
 11
86.0319
 21
64.4320
 31
0.0000
  0
LINE
  8
120
 10
87.9403
 20
64.9744
 30
0.0000
 11
87.9403
 21
64.4320
 31
0.0000
  0
LINE
  8
120
 10
87.9403
 20
64.4320
 30
0.0000
 11
87.6691
 21
64.1609
 31
0.0000
  0
LINE
  8
120
 10
88.4826
 20
64.9744
 30
0.0000
 11
88.4826
 21
64.4320
 31
0.0000
  0
LINE
  8
120
 10
88.4826
 20
64.4320
 30
0.0000
 11
88.2114
 21
64.1609
 31
0.0000
  0
LINE
  8
120
 10
91.2129
 20
63.0762
 30
0.0000
 11
91.2129
 21
64.7032
 31
0.0000
  0
LINE
  8
120
 10
90.6705
 20
64.7032
 30
0.0000
 11
91.7552
 21
64.7032
 31
0.0000
  0
LINE
  8
120
 10
92.3077
 20
63.0762
 30
0.0000
 11
92.3077
 21
64.7032
 31
0.0000
  0
LINE
  8
120
 10
92.3077
 20
64.7032
 30
0.0000
 11
93.3924
 21
64.7032
 31
0.0000
  0
LINE
  8
120
 10
92.3077
 20
63.8897
 30
0.0000
 11
92.8500
 21
63.8897
 31
0.0000
  0
LINE
  8
120
 10
94.4872
 20
63.0762
 30
0.0000
 11
94.4872
 21
64.7032
 31
0.0000
  0
LINE
  8
120
 10
93.9449
 20
64.7032
 30
0.0000
 11
95.0295
 21
64.7032
 31
0.0000
  0
LINE
  8
120
 10
95.5820
 20
62.8050
 30
0.0000
 11
96.6667
 21
62.8050
 31
0.0000
  0
LINE
  8
120
 10
97.2192
 20
64.4320
 30
0.0000
 11
97.4903
 21
64.7032
 31
0.0000
  0
LINE
  8
120
 10
97.4903
 20
64.7032
 30
0.0000
 11
98.0327
 21
64.7032
 31
0.0000
  0
LINE
  8
120
 10
98.0327
 20
64.7032
 30
0.0000
 11
98.3038
 21
64.4320
 31
0.0000
  0
LINE
  8
120
 10
98.3038
 20
64.4320
 30
0.0000
 11
98.3038
 21
64.1609
 31
0.0000
  0
LINE
  8
120
 10
98.3038
 20
64.1609
 30
0.0000
 11
98.0327
 21
63.8897
 31
0.0000
  0
LINE
  8
120
 10
98.0327
 20
63.8897
 30
0.0000
 11
97.7615
 21
63.8897
 31
0.0000
  0
LINE
  8
120
 10
98.0327
 20
63.8897
 30
0.0000
 11
98.3038
 21
63.6185
 31
0.0000
  0
LINE
  8
120
 10
98.3038
 20
63.6185
 30
0.0000
 11
98.3038
 21
63.3474
 31
0.0000
  0
LINE
  8
120
 10
98.3038
 20
63.3474
 30
0.0000
 11
98.0327
 21
63.0762
 31
0.0000
  0
LINE
  8
120
 10
98.0327
 20
63.0762
 30
0.0000
 11
97.4903
 21
63.0762
 31
0.0000
  0
LINE
  8
120
 10
97.4903
 20
63.0762
 30
0.0000
 11
97.2192
 21
63.3474
 31
0.0000
  0
LINE
  8
120
 10
99.9410
 20
63.0762
 30
0.0000
 11
98.8563
 21
63.0762
 31
0.0000
  0
LINE
  8
120
 10
98.8563
 20
63.0762
 30
0.0000
 11
99.9410
 21
64.1609
 31
0.0000
  0
LINE
  8
120
 10
99.9410
 20
64.1609
 30
0.0000
 11
99.9410
 21
64.4320
 31
0.0000
  0
LINE
  8
120
 10
99.9410
 20
64.4320
 30
0.0000
 11
99.6698
 21
64.7032
 31
0.0000
  0
LINE
  8
120
 10
99.6698
 20
64.7032
 30
0.0000
 11
99.1275
 21
64.7032
 31
0.0000
  0
LINE
  8
120
 10
99.1275
 20
64.7032
 30
0.0000
 11
98.8563
 21
64.4320
 31
0.0000
  0
LINE
  8
120
 10
100.4935
 20
63.3474
 30
0.0000
 11
100.4935
 21
64.4320
 31
0.0000
  0
LINE
  8
120
 10
100.4935
 20
64.4320
 30
0.0000
 11
100.7646
 21
64.7032
 31
0.0000
  0
LINE
  8
120
 10
100.7646
 20
64.7032
 30
0.0000
 11
101.3070
 21
64.7032
 31
0.0000
  0
LINE
  8
120
 10
101.3070
 20
64.7032
 30
0.0000
 11
101.5781
 21
64.4320
 31
0.0000
  0
LINE
  8
120
 10
101.5781
 20
64.4320
 30
0.0000
 11
101.5781
 21
63.3474
 31
0.0000
  0
LINE
  8
120
 10
101.5781
 20
63.3474
 30
0.0000
 11
101.3070
 21
63.0762
 31
0.0000
  0
LINE
  8
120
 10
101.3070
 20
63.0762
 30
0.0000
 11
100.7646
 21
63.0762
 31
0.0000
  0
LINE
  8
120
 10
100.7646
 20
63.0762
 30
0.0000
 11
100.4935
 21
63.3474
 31
0.0000
  0
LINE
  8
120
 10
100.4935
 20
63.3474
 30
0.0000
 11
101.5781
 21
64.4320
 31
0.0000
  0
LINE
  8
120
 10
102.1306
 20
63.3474
 30
0.0000
 11
102.1306
 21
64.4320
 31
0.0000
  0
LINE
  8
120
 10
102.1306
 20
64.4320
 30
0.0000
 11
102.4018
 21
64.7032
 31
0.0000
  0
LINE
  8
120
 10
102.4018
 20
64.7032
 30
0.0000
 11
102.9441
 21
64.7032
 31
0.0000
  0
LINE
  8
120
 10
102.9441
 20
64.7032
 30
0.0000
 11
103.2153
 21
64.4320
 31
0.0000
  0
LINE
  8
120
 10
103.2153
 20
64.4320
 30
0.0000
 11
103.2153
 21
63.3474
 31
0.0000
  0
LINE
  8
120
 10
103.2153
 20
63.3474
 30
0.0000
 11
102.9441
 21
63.0762
 31
0.0000
  0
LINE
  8
120
 10
102.9441
 20
63.0762
 30
0.0000
 11
102.4018
 21
63.0762
 31
0.0000
  0
LINE
  8
120
 10
102.4018
 20
63.0762
 30
0.0000
 11
102.1306
 21
63.3474
 31
0.0000
  0
LINE
  8
120
 10
102.6730
 20
63.6185
 30
0.0000
 11
103.2153
 21
63.0762
 31
0.0000
  0
LINE
  8
120
 10
103.7678
 20
64.7032
 30
0.0000
 11
103.7678
 21
63.6185
 31
0.0000
  0
LINE
  8
120
 10
103.7678
 20
63.6185
 30
0.0000
 11
104.3101
 21
63.0762
 31
0.0000
  0
LINE
  8
120
 10
104.3101
 20
63.0762
 30
0.0000
 11
104.8525
 21
63.6185
 31
0.0000
  0
LINE
  8
120
 10
104.8525
 20
63.6185
 30
0.0000
 11
104.8525
 21
64.7032
 31
0.0000
  0
LINE
  8
120
 10
105.9473
 20
63.0762
 30
0.0000
 11
105.9473
 21
64.7032
 31
0.0000
  0
LINE
  8
120
 10
105.4049
 20
64.7032
 30
0.0000
 11
106.4896
 21
64.7032
 31
0.0000
  0
LINE
  8
120
 10
109.7639
 20
64.7032
 30
0.0000
 11
109.7639
 21
63.0762
 31
0.0000
  0
LINE
  8
120
 10
109.7639
 20
63.0762
 30
0.0000
 11
108.9504
 21
63.0762
 31
0.0000
  0
LINE
  8
120
 10
108.9504
 20
63.0762
 30
0.0000
 11
108.6793
 21
63.3474
 31
0.0000
  0
LINE
  8
120
 10
108.6793
 20
63.3474
 30
0.0000
 11
108.6793
 21
63.8897
 31
0.0000
  0
LINE
  8
120
 10
108.6793
 20
63.8897
 30
0.0000
 11
108.9504
 21
64.1609
 31
0.0000
  0
LINE
  8
120
 10
108.9504
 20
64.1609
 30
0.0000
 11
109.7639
 21
64.1609
 31
0.0000
  0
LINE
  8
120
 10
110.3164
 20
64.1609
 30
0.0000
 11
110.5876
 21
64.1609
 31
0.0000
  0
LINE
  8
120
 10
110.5876
 20
64.1609
 30
0.0000
 11
110.5876
 21
63.0762
 31
0.0000
  0
LINE
  8
120
 10
110.3164
 20
63.0762
 30
0.0000
 11
110.8587
 21
63.0762
 31
0.0000
  0
LINE
  8
120
 10
110.5876
 20
64.9744
 30
0.0000
 11
110.5876
 21
64.7032
 31
0.0000
  0
LINE
  8
120
 10
111.4079
 20
63.0762
 30
0.0000
 11
112.2214
 21
63.0762
 31
0.0000
  0
LINE
  8
120
 10
112.2214
 20
63.0762
 30
0.0000
 11
112.4925
 21
63.3474
 31
0.0000
  0
LINE
  8
120
 10
112.4925
 20
63.3474
 30
0.0000
 11
112.2214
 21
63.6185
 31
0.0000
  0
LINE
  8
120
 10
112.2214
 20
63.6185
 30
0.0000
 11
111.6790
 21
63.6185
 31
0.0000
  0
LINE
  8
120
 10
111.6790
 20
63.6185
 30
0.0000
 11
111.4079
 21
63.8897
 31
0.0000
  0
LINE
  8
120
 10
111.4079
 20
63.8897
 30
0.0000
 11
111.6790
 21
64.1609
 31
0.0000
  0
LINE
  8
120
 10
111.6790
 20
64.1609
 30
0.0000
 11
112.4925
 21
64.1609
 31
0.0000
  0
LINE
  8
120
 10
113.0450
 20
62.5339
 30
0.0000
 11
113.0450
 21
64.1609
 31
0.0000
  0
LINE
  8
120
 10
113.0450
 20
64.1609
 30
0.0000
 11
113.8585
 21
64.1609
 31
0.0000
  0
LINE
  8
120
 10
113.8585
 20
64.1609
 30
0.0000
 11
114.1297
 21
63.8897
 31
0.0000
  0
LINE
  8
120
 10
114.1297
 20
63.8897
 30
0.0000
 11
114.1297
 21
63.3474
 31
0.0000
  0
LINE
  8
120
 10
114.1297
 20
63.3474
 30
0.0000
 11
113.8585
 21
63.0762
 31
0.0000
  0
LINE
  8
120
 10
113.8585
 20
63.0762
 30
0.0000
 11
113.0450
 21
63.0762
 31
0.0000
  0
LINE
  8
120
 10
114.6822
 20
64.7032
 30
0.0000
 11
114.9533
 21
64.7032
 31
0.0000
  0
LINE
  8
120
 10
114.9533
 20
64.7032
 30
0.0000
 11
114.9533
 21
63.0762
 31
0.0000
  0
LINE
  8
120
 10
114.6822
 20
63.0762
 30
0.0000
 11
115.2245
 21
63.0762
 31
0.0000
  0
LINE
  8
120
 10
116.0448
 20
64.1609
 30
0.0000
 11
116.5871
 21
64.1609
 31
0.0000
  0
LINE
  8
120
 10
116.5871
 20
64.1609
 30
0.0000
 11
116.8583
 21
63.8897
 31
0.0000
  0
LINE
  8
120
 10
116.8583
 20
63.8897
 30
0.0000
 11
116.8583
 21
63.0762
 31
0.0000
  0
LINE
  8
120
 10
116.8583
 20
63.0762
 30
0.0000
 11
116.0448
 21
63.0762
 31
0.0000
  0
LINE
  8
120
 10
116.0448
 20
63.0762
 30
0.0000
 11
115.7736
 21
63.3474
 31
0.0000
  0
LINE
  8
120
 10
115.7736
 20
63.3474
 30
0.0000
 11
116.0448
 21
63.6185
 31
0.0000
  0
LINE
  8
120
 10
116.0448
 20
63.6185
 30
0.0000
 11
116.8583
 21
63.6185
 31
0.0000
  0
LINE
  8
120
 10
117.4108
 20
64.1609
 30
0.0000
 11
117.4108
 21
63.3474
 31
0.0000
  0
LINE
  8
120
 10
117.4108
 20
63.3474
 30
0.0000
 11
117.6819
 21
63.0762
 31
0.0000
  0
LINE
  8
120
 10
117.6819
 20
63.0762
 30
0.0000
 11
118.4954
 21
63.0762
 31
0.0000
  0
LINE
  8
120
 10
118.4954
 20
64.1609
 30
0.0000
 11
118.4954
 21
62.8050
 31
0.0000
  0
LINE
  8
120
 10
118.4954
 20
62.8050
 30
0.0000
 11
118.2243
 21
62.5339
 31
0.0000
  0
LINE
  8
120
 10
118.2243
 20
62.5339
 30
0.0000
 11
117.9531
 21
62.5339
 31
0.0000
  0
LINE
  8
47
 10
152.0000
 20
68.0000
 30
0.0000
 11
158.9500
 21
68.0000
 31
0.0000
  0
LINE
  8
47
 10
155.5000
 20
80.0000
 30
0.0000
 11
158.9500
 21
80.0000
 31
0.0000
  0
LINE
  8
47
 10
157.0000
 20
68.0650
 30
0.0000
 11
157.0000
 21
79.9350
 31
0.0000
  0
LINE
  8
47
 10
157.0000
 20
68.0650
 30
0.0000
 11
156.6808
 21
70.6000
 31
0.0000
  0
LINE
  8
47
 10
156.6808
 20
70.6000
 30
0.0000
 11
157.3192
 21
70.6000
 31
0.0000
  0
LINE
  8
47
 10
157.3192
 20
70.6000
 30
0.0000
 11
157.0000
 21
68.0650
 31
0.0000
  0
LINE
  8
47
 10
157.0000
 20
68.0650
 30
0.0000
 11
156.8700
 21
70.6000
 31
0.0000
  0
LINE
  8
47
 10
157.1300
 20
70.6000
 30
0.0000
 11
157.0000
 21
68.0650
 31
0.0000
  0
LINE
  8
47
 10
157.0000
 20
68.0650
 30
0.0000
 11
156.7400
 21
70.6000
 31
0.0000
  0
LINE
  8
47
 10
157.2600
 20
70.6000
 30
0.0000
 11
157.0000
 21
68.0650
 31
0.0000
  0
LINE
  8
47
 10
157.0000
 20
79.9350
 30
0.0000
 11
156.6808
 21
77.4000
 31
0.0000
  0
LINE
  8
47
 10
156.6808
 20
77.4000
 30
0.0000
 11
157.3192
 21
77.4000
 31
0.0000
  0
LINE
  8
47
 10
157.3192
 20
77.4000
 30
0.0000
 11
157.0000
 21
79.9350
 31
0.0000
  0
LINE
  8
47
 10
157.0000
 20
79.9350
 30
0.0000
 11
156.8700
 21
77.4000
 31
0.0000
  0
LINE
  8
47
 10
157.1300
 20
77.4000
 30
0.0000
 11
157.0000
 21
79.9350
 31
0.0000
  0
LINE
  8
47
 10
157.0000
 20
79.9350
 30
0.0000
 11
156.7400
 21
77.4000
 31
0.0000
  0
LINE
  8
47
 10
157.2600
 20
77.4000
 30
0.0000
 11
157.0000
 21
79.9350
 31
0.0000
  0
LINE
  8
47
 10
155.2646
 20
72.6615
 30
0.0000
 11
154.7223
 21
73.2038
 31
0.0000
  0
LINE
  8
47
 10
154.7223
 20
73.2038
 30
0.0000
 11
156.3493
 21
73.2038
 31
0.0000
  0
LINE
  8
47
 10
156.3493
 20
72.6615
 30
0.0000
 11
156.3493
 21
73.7461
 31
0.0000
  0
LINE
  8
47
 10
156.3493
 20
75.3833
 30
0.0000
 11
156.3493
 21
74.2986
 31
0.0000
  0
LINE
  8
47
 10
156.3493
 20
74.2986
 30
0.0000
 11
155.2646
 21
75.3833
 31
0.0000
  0
LINE
  8
47
 10
155.2646
 20
75.3833
 30
0.0000
 11
154.9935
 21
75.3833
 31
0.0000
  0
LINE
  8
47
 10
154.9935
 20
75.3833
 30
0.0000
 11
154.7223
 21
75.1121
 31
0.0000
  0
LINE
  8
47
 10
154.7223
 20
75.1121
 30
0.0000
 11
154.7223
 21
74.5698
 31
0.0000
  0
LINE
  8
47
 10
154.7223
 20
74.5698
 30
0.0000
 11
154.9935
 21
74.2986
 31
0.0000
  0
LINE
  8
47
 10
153.5000
 20
0.0000
 30
0.0000
 11
158.9500
 21
0.0000
 31
0.0000
  0
LINE
  8
47
 10
152.0000
 20
12.5000
 30
0.0000
 11
158.9500
 21
12.5000
 31
0.0000
  0
LINE
  8
47
 10
157.0000
 20
0.0650
 30
0.0000
 11
157.0000
 21
12.4350
 31
0.0000
  0
LINE
  8
47
 10
157.0000
 20
0.0650
 30
0.0000
 11
156.6808
 21
2.6000
 31
0.0000
  0
LINE
  8
47
 10
156.6808
 20
2.6000
 30
0.0000
 11
157.3192
 21
2.6000
 31
0.0000
  0
LINE
  8
47
 10
157.3192
 20
2.6000
 30
0.0000
 11
157.0000
 21
0.0650
 31
0.0000
  0
LINE
  8
47
 10
157.0000
 20
0.0650
 30
0.0000
 11
156.8700
 21
2.6000
 31
0.0000
  0
LINE
  8
47
 10
157.1300
 20
2.6000
 30
0.0000
 11
157.0000
 21
0.0650
 31
0.0000
  0
LINE
  8
47
 10
157.0000
 20
0.0650
 30
0.0000
 11
156.7400
 21
2.6000
 31
0.0000
  0
LINE
  8
47
 10
157.2600
 20
2.6000
 30
0.0000
 11
157.0000
 21
0.0650
 31
0.0000
  0
LINE
  8
47
 10
157.0000
 20
12.4350
 30
0.0000
 11
156.6808
 21
9.9000
 31
0.0000
  0
LINE
  8
47
 10
156.6808
 20
9.9000
 30
0.0000
 11
157.3192
 21
9.9000
 31
0.0000
  0
LINE
  8
47
 10
157.3192
 20
9.9000
 30
0.0000
 11
157.0000
 21
12.4350
 31
0.0000
  0
LINE
  8
47
 10
157.0000
 20
12.4350
 30
0.0000
 11
156.8700
 21
9.9000
 31
0.0000
  0
LINE
  8
47
 10
157.1300
 20
9.9000
 30
0.0000
 11
157.0000
 21
12.4350
 31
0.0000
  0
LINE
  8
47
 10
157.0000
 20
12.4350
 30
0.0000
 11
156.7400
 21
9.9000
 31
0.0000
  0
LINE
  8
47
 10
157.2600
 20
9.9000
 30
0.0000
 11
157.0000
 21
12.4350
 31
0.0000
  0
LINE
  8
47
 10
155.2646
 20
3.8493
 30
0.0000
 11
154.7223
 21
4.3916
 31
0.0000
  0
LINE
  8
47
 10
154.7223
 20
4.3916
 30
0.0000
 11
156.3493
 21
4.3916
 31
0.0000
  0
LINE
  8
47
 10
156.3493
 20
3.8493
 30
0.0000
 11
156.3493
 21
4.9339
 31
0.0000
  0
LINE
  8
47
 10
156.3493
 20
6.5711
 30
0.0000
 11
156.3493
 21
5.4864
 31
0.0000
  0
LINE
  8
47
 10
156.3493
 20
5.4864
 30
0.0000
 11
155.2646
 21
6.5711
 31
0.0000
  0
LINE
  8
47
 10
155.2646
 20
6.5711
 30
0.0000
 11
154.9935
 21
6.5711
 31
0.0000
  0
LINE
  8
47
 10
154.9935
 20
6.5711
 30
0.0000
 11
154.7223
 21
6.2999
 31
0.0000
  0
LINE
  8
47
 10
154.7223
 20
6.2999
 30
0.0000
 11
154.7223
 21
5.7576
 31
0.0000
  0
LINE
  8
47
 10
154.7223
 20
5.7576
 30
0.0000
 11
154.9935
 21
5.4864
 31
0.0000
  0
LINE
  8
47
 10
156.3493
 20
7.1236
 30
0.0000
 11
156.0781
 21
7.1236
 31
0.0000
  0
LINE
  8
47
 10
156.0781
 20
7.1236
 30
0.0000
 11
156.0781
 21
7.3947
 31
0.0000
  0
LINE
  8
47
 10
156.0781
 20
7.3947
 30
0.0000
 11
156.3493
 21
7.3947
 31
0.0000
  0
LINE
  8
47
 10
156.3493
 20
7.3947
 30
0.0000
 11
156.3493
 21
7.1236
 31
0.0000
  0
LINE
  8
47
 10
154.7223
 20
9.0268
 30
0.0000
 11
154.7223
 21
7.9422
 31
0.0000
  0
LINE
  8
47
 10
154.7223
 20
7.9422
 30
0.0000
 11
155.5358
 21
7.9422
 31
0.0000
  0
LINE
  8
47
 10
155.5358
 20
7.9422
 30
0.0000
 11
155.2646
 21
8.4845
 31
0.0000
  0
LINE
  8
47
 10
155.2646
 20
8.4845
 30
0.0000
 11
155.2646
 21
8.7557
 31
0.0000
  0
LINE
  8
47
 10
155.2646
 20
8.7557
 30
0.0000
 11
155.5358
 21
9.0268
 31
0.0000
  0
LINE
  8
47
 10
155.5358
 20
9.0268
 30
0.0000
 11
156.0781
 21
9.0268
 31
0.0000
  0
LINE
  8
47
 10
156.0781
 20
9.0268
 30
0.0000
 11
156.3493
 21
8.7557
 31
0.0000
  0
LINE
  8
47
 10
156.3493
 20
8.7557
 30
0.0000
 11
156.3493
 21
8.2133
 31
0.0000
  0
LINE
  8
47
 10
156.3493
 20
8.2133
 30
0.0000
 11
156.0781
 21
7.9422
 31
0.0000
  0
LINE
  8
47
 10
78.5000
 20
42.0000
 30
0.0000
 11
78.5000
 21
44.9500
 31
0.0000
  0
LINE
  8
47
 10
0.0000
 20
42.0000
 30
0.0000
 11
0.0000
 21
44.9500
 31
0.0000
  0
LINE
  8
47
 10
78.4350
 20
43.0000
 30
0.0000
 11
0.0650
 21
43.0000
 31
0.0000
  0
LINE
  8
47
 10
78.4350
 20
43.0000
 30
0.0000
 11
75.9000
 21
43.3192
 31
0.0000
  0
LINE
  8
47
 10
75.9000
 20
43.3192
 30
0.0000
 11
75.9000
 21
42.6808
 31
0.0000
  0
LINE
  8
47
 10
75.9000
 20
42.6808
 30
0.0000
 11
78.4350
 21
43.0000
 31
0.0000
  0
LINE
  8
47
 10
78.4350
 20
43.0000
 30
0.0000
 11
75.9000
 21
43.1300
 31
0.0000
  0
LINE
  8
47
 10
75.9000
 20
42.8700
 30
0.0000
 11
78.4350
 21
43.0000
 31
0.0000
  0
LINE
  8
47
 10
78.4350
 20
43.0000
 30
0.0000
 11
75.9000
 21
43.2600
 31
0.0000
  0
LINE
  8
47
 10
75.9000
 20
42.7400
 30
0.0000
 11
78.4350
 21
43.0000
 31
0.0000
  0
LINE
  8
47
 10
0.0650
 20
43.0000
 30
0.0000
 11
2.6000
 21
43.3192
 31
0.0000
  0
LINE
  8
47
 10
2.6000
 20
43.3192
 30
0.0000
 11
2.6000
 21
42.6808
 31
0.0000
  0
LINE
  8
47
 10
2.6000
 20
42.6808
 30
0.0000
 11
0.0650
 21
43.0000
 31
0.0000
  0
LINE
  8
47
 10
0.0650
 20
43.0000
 30
0.0000
 11
2.6000
 21
43.1300
 31
0.0000
  0
LINE
  8
47
 10
2.6000
 20
42.8700
 30
0.0000
 11
0.0650
 21
43.0000
 31
0.0000
  0
LINE
  8
47
 10
0.0650
 20
43.0000
 30
0.0000
 11
2.6000
 21
43.2600
 31
0.0000
  0
LINE
  8
47
 10
2.6000
 20
42.7400
 30
0.0000
 11
0.0650
 21
43.0000
 31
0.0000
  0
LINE
  8
47
 10
36.8493
 20
45.2777
 30
0.0000
 11
37.9339
 21
45.2777
 31
0.0000
  0
LINE
  8
47
 10
37.9339
 20
45.2777
 30
0.0000
 11
37.9339
 21
45.0065
 31
0.0000
  0
LINE
  8
47
 10
37.9339
 20
45.0065
 30
0.0000
 11
36.8493
 21
43.9219
 31
0.0000
  0
LINE
  8
47
 10
36.8493
 20
43.9219
 30
0.0000
 11
36.8493
 21
43.6507
 31
0.0000
  0
LINE
  8
47
 10
38.4864
 20
45.0065
 30
0.0000
 11
38.7576
 21
45.2777
 31
0.0000
  0
LINE
  8
47
 10
38.7576
 20
45.2777
 30
0.0000
 11
39.2999
 21
45.2777
 31
0.0000
  0
LINE
  8
47
 10
39.2999
 20
45.2777
 30
0.0000
 11
39.5711
 21
45.0065
 31
0.0000
  0
LINE
  8
47
 10
39.5711
 20
45.0065
 30
0.0000
 11
39.5711
 21
44.7354
 31
0.0000
  0
LINE
  8
47
 10
39.5711
 20
44.7354
 30
0.0000
 11
39.2999
 21
44.4642
 31
0.0000
  0
LINE
  8
47
 10
39.2999
 20
44.4642
 30
0.0000
 11
39.5711
 21
44.1930
 31
0.0000
  0
LINE
  8
47
 10
39.5711
 20
44.1930
 30
0.0000
 11
39.5711
 21
43.9219
 31
0.0000
  0
LINE
  8
47
 10
39.5711
 20
43.9219
 30
0.0000
 11
39.2999
 21
43.6507
 31
0.0000
  0
LINE
  8
47
 10
39.2999
 20
43.6507
 30
0.0000
 11
38.7576
 21
43.6507
 31
0.0000
  0
LINE
  8
47
 10
38.7576
 20
43.6507
 30
0.0000
 11
38.4864
 21
43.9219
 31
0.0000
  0
LINE
  8
47
 10
38.4864
 20
43.9219
 30
0.0000
 11
38.4864
 21
44.1930
 31
0.0000
  0
LINE
  8
47
 10
38.4864
 20
44.1930
 30
0.0000
 11
38.7576
 21
44.4642
 31
0.0000
  0
LINE
  8
47
 10
38.7576
 20
44.4642
 30
0.0000
 11
38.4864
 21
44.7354
 31
0.0000
  0
LINE
  8
47
 10
38.4864
 20
44.7354
 30
0.0000
 11
38.4864
 21
45.0065
 31
0.0000
  0
LINE
  8
47
 10
38.7576
 20
44.4642
 30
0.0000
 11
39.2999
 21
44.4642
 31
0.0000
  0
LINE
  8
47
 10
40.1236
 20
43.6507
 30
0.0000
 11
40.1236
 21
43.9219
 31
0.0000
  0
LINE
  8
47
 10
40.1236
 20
43.9219
 30
0.0000
 11
40.3947
 21
43.9219
 31
0.0000
  0
LINE
  8
47
 10
40.3947
 20
43.9219
 30
0.0000
 11
40.3947
 21
43.6507
 31
0.0000
  0
LINE
  8
47
 10
40.3947
 20
43.6507
 30
0.0000
 11
40.1236
 21
43.6507
 31
0.0000
  0
LINE
  8
47
 10
42.0268
 20
45.2777
 30
0.0000
 11
40.9422
 21
45.2777
 31
0.0000
  0
LINE
  8
47
 10
40.9422
 20
45.2777
 30
0.0000
 11
40.9422
 21
44.4642
 31
0.0000
  0
LINE
  8
47
 10
40.9422
 20
44.4642
 30
0.0000
 11
41.4845
 21
44.7354
 31
0.0000
  0
LINE
  8
47
 10
41.4845
 20
44.7354
 30
0.0000
 11
41.7557
 21
44.7354
 31
0.0000
  0
LINE
  8
47
 10
41.7557
 20
44.7354
 30
0.0000
 11
42.0268
 21
44.4642
 31
0.0000
  0
LINE
  8
47
 10
42.0268
 20
44.4642
 30
0.0000
 11
42.0268
 21
43.9219
 31
0.0000
  0
LINE
  8
47
 10
42.0268
 20
43.9219
 30
0.0000
 11
41.7557
 21
43.6507
 31
0.0000
  0
LINE
  8
47
 10
41.7557
 20
43.6507
 30
0.0000
 11
41.2133
 21
43.6507
 31
0.0000
  0
LINE
  8
47
 10
41.2133
 20
43.6507
 30
0.0000
 11
40.9422
 21
43.9219
 31
0.0000
  0
LINE
  8
47
 10
82.5000
 20
41.5000
 30
0.0000
 11
82.5000
 21
44.9500
 31
0.0000
  0
LINE
  8
47
 10
78.5000
 20
42.0000
 30
0.0000
 11
78.5000
 21
44.9500
 31
0.0000
  0
LINE
  8
47
 10
82.4350
 20
43.0000
 30
0.0000
 11
78.5650
 21
43.0000
 31
0.0000
  0
LINE
  8
47
 10
82.4350
 20
43.0000
 30
0.0000
 11
79.9000
 21
43.3192
 31
0.0000
  0
LINE
  8
47
 10
79.9000
 20
43.3192
 30
0.0000
 11
79.9000
 21
42.6808
 31
0.0000
  0
LINE
  8
47
 10
79.9000
 20
42.6808
 30
0.0000
 11
82.4350
 21
43.0000
 31
0.0000
  0
LINE
  8
47
 10
82.4350
 20
43.0000
 30
0.0000
 11
79.9000
 21
43.1300
 31
0.0000
  0
LINE
  8
47
 10
79.9000
 20
42.8700
 30
0.0000
 11
82.4350
 21
43.0000
 31
0.0000
  0
LINE
  8
47
 10
82.4350
 20
43.0000
 30
0.0000
 11
79.9000
 21
43.2600
 31
0.0000
  0
LINE
  8
47
 10
79.9000
 20
42.7400
 30
0.0000
 11
82.4350
 21
43.0000
 31
0.0000
  0
LINE
  8
47
 10
78.5650
 20
43.0000
 30
0.0000
 11
81.1000
 21
43.3192
 31
0.0000
  0
LINE
  8
47
 10
81.1000
 20
43.3192
 30
0.0000
 11
81.1000
 21
42.6808
 31
0.0000
  0
LINE
  8
47
 10
81.1000
 20
42.6808
 30
0.0000
 11
78.5650
 21
43.0000
 31
0.0000
  0
LINE
  8
47
 10
78.5650
 20
43.0000
 30
0.0000
 11
81.1000
 21
43.1300
 31
0.0000
  0
LINE
  8
47
 10
81.1000
 20
42.8700
 30
0.0000
 11
78.5650
 21
43.0000
 31
0.0000
  0
LINE
  8
47
 10
78.5650
 20
43.0000
 30
0.0000
 11
81.1000
 21
43.2600
 31
0.0000
  0
LINE
  8
47
 10
81.1000
 20
42.7400
 30
0.0000
 11
78.5650
 21
43.0000
 31
0.0000
  0
LINE
  8
47
 10
80.6846
 20
43.6507
 30
0.0000
 11
80.6846
 21
45.2777
 31
0.0000
  0
LINE
  8
47
 10
80.6846
 20
45.2777
 30
0.0000
 11
79.8711
 21
44.4642
 31
0.0000
  0
LINE
  8
47
 10
79.8711
 20
44.4642
 30
0.0000
 11
80.9557
 21
44.4642
 31
0.0000
  0
LINE
  8
47
 10
153.5000
 20
12.5000
 30
0.0000
 11
158.9500
 21
12.5000
 31
0.0000
  0
LINE
  8
47
 10
154.0000
 20
68.0000
 30
0.0000
 11
158.9500
 21
68.0000
 31
0.0000
  0
LINE
  8
47
 10
157.0000
 20
12.5650
 30
0.0000
 11
157.0000
 21
67.9350
 31
0.0000
  0
LINE
  8
47
 10
157.0000
 20
12.5650
 30
0.0000
 11
156.6808
 21
15.1000
 31
0.0000
  0
LINE
  8
47
 10
156.6808
 20
15.1000
 30
0.0000
 11
157.3192
 21
15.1000
 31
0.0000
  0
LINE
  8
47
 10
157.3192
 20
15.1000
 30
0.0000
 11
157.0000
 21
12.5650
 31
0.0000
  0
LINE
  8
47
 10
157.0000
 20
12.5650
 30
0.0000
 11
156.8700
 21
15.1000
 31
0.0000
  0
LINE
  8
47
 10
157.1300
 20
15.1000
 30
0.0000
 11
157.0000
 21
12.5650
 31
0.0000
  0
LINE
  8
47
 10
157.0000
 20
12.5650
 30
0.0000
 11
156.7400
 21
15.1000
 31
0.0000
  0
LINE
  8
47
 10
157.2600
 20
15.1000
 30
0.0000
 11
157.0000
 21
12.5650
 31
0.0000
  0
LINE
  8
47
 10
157.0000
 20
67.9350
 30
0.0000
 11
156.6808
 21
65.4000
 31
0.0000
  0
LINE
  8
47
 10
156.6808
 20
65.4000
 30
0.0000
 11
157.3192
 21
65.4000
 31
0.0000
  0
LINE
  8
47
 10
157.3192
 20
65.4000
 30
0.0000
 11
157.0000
 21
67.9350
 31
0.0000
  0
LINE
  8
47
 10
157.0000
 20
67.9350
 30
0.0000
 11
156.8700
 21
65.4000
 31
0.0000
  0
LINE
  8
47
 10
157.1300
 20
65.4000
 30
0.0000
 11
157.0000
 21
67.9350
 31
0.0000
  0
LINE
  8
47
 10
157.0000
 20
67.9350
 30
0.0000
 11
156.7400
 21
65.4000
 31
0.0000
  0
LINE
  8
47
 10
157.2600
 20
65.4000
 30
0.0000
 11
157.0000
 21
67.9350
 31
0.0000
  0
LINE
  8
47
 10
154.7223
 20
38.9339
 30
0.0000
 11
154.7223
 21
37.8493
 31
0.0000
  0
LINE
  8
47
 10
154.7223
 20
37.8493
 30
0.0000
 11
155.5358
 21
37.8493
 31
0.0000
  0
LINE
  8
47
 10
155.5358
 20
37.8493
 30
0.0000
 11
155.2646
 21
38.3916
 31
0.0000
  0
LINE
  8
47
 10
155.2646
 20
38.3916
 30
0.0000
 11
155.2646
 21
38.6628
 31
0.0000
  0
LINE
  8
47
 10
155.2646
 20
38.6628
 30
0.0000
 11
155.5358
 21
38.9339
 31
0.0000
  0
LINE
  8
47
 10
155.5358
 20
38.9339
 30
0.0000
 11
156.0781
 21
38.9339
 31
0.0000
  0
LINE
  8
47
 10
156.0781
 20
38.9339
 30
0.0000
 11
156.3493
 21
38.6628
 31
0.0000
  0
LINE
  8
47
 10
156.3493
 20
38.6628
 30
0.0000
 11
156.3493
 21
38.1204
 31
0.0000
  0
LINE
  8
47
 10
156.3493
 20
38.1204
 30
0.0000
 11
156.0781
 21
37.8493
 31
0.0000
  0
LINE
  8
47
 10
154.7223
 20
40.5711
 30
0.0000
 11
154.7223
 21
39.4864
 31
0.0000
  0
LINE
  8
47
 10
154.7223
 20
39.4864
 30
0.0000
 11
155.5358
 21
39.4864
 31
0.0000
  0
LINE
  8
47
 10
155.5358
 20
39.4864
 30
0.0000
 11
155.2646
 21
40.0288
 31
0.0000
  0
LINE
  8
47
 10
155.2646
 20
40.0288
 30
0.0000
 11
155.2646
 21
40.2999
 31
0.0000
  0
LINE
  8
47
 10
155.2646
 20
40.2999
 30
0.0000
 11
155.5358
 21
40.5711
 31
0.0000
  0
LINE
  8
47
 10
155.5358
 20
40.5711
 30
0.0000
 11
156.0781
 21
40.5711
 31
0.0000
  0
LINE
  8
47
 10
156.0781
 20
40.5711
 30
0.0000
 11
156.3493
 21
40.2999
 31
0.0000
  0
LINE
  8
47
 10
156.3493
 20
40.2999
 30
0.0000
 11
156.3493
 21
39.7576
 31
0.0000
  0
LINE
  8
47
 10
156.3493
 20
39.7576
 30
0.0000
 11
156.0781
 21
39.4864
 31
0.0000
  0
LINE
  8
47
 10
156.3493
 20
41.1236
 30
0.0000
 11
156.0781
 21
41.1236
 31
0.0000
  0
LINE
  8
47
 10
156.0781
 20
41.1236
 30
0.0000
 11
156.0781
 21
41.3947
 31
0.0000
  0
LINE
  8
47
 10
156.0781
 20
41.3947
 30
0.0000
 11
156.3493
 21
41.3947
 31
0.0000
  0
LINE
  8
47
 10
156.3493
 20
41.3947
 30
0.0000
 11
156.3493
 21
41.1236
 31
0.0000
  0
LINE
  8
47
 10
154.7223
 20
43.0268
 30
0.0000
 11
154.7223
 21
41.9422
 31
0.0000
  0
LINE
  8
47
 10
154.7223
 20
41.9422
 30
0.0000
 11
155.5358
 21
41.9422
 31
0.0000
  0
LINE
  8
47
 10
155.5358
 20
41.9422
 30
0.0000
 11
155.2646
 21
42.4845
 31
0.0000
  0
LINE
  8
47
 10
155.2646
 20
42.4845
 30
0.0000
 11
155.2646
 21
42.7557
 31
0.0000
  0
LINE
  8
47
 10
155.2646
 20
42.7557
 30
0.0000
 11
155.5358
 21
43.0268
 31
0.0000
  0
LINE
  8
47
 10
155.5358
 20
43.0268
 30
0.0000
 11
156.0781
 21
43.0268
 31
0.0000
  0
LINE
  8
47
 10
156.0781
 20
43.0268
 30
0.0000
 11
156.3493
 21
42.7557
 31
0.0000
  0
LINE
  8
47
 10
156.3493
 20
42.7557
 30
0.0000
 11
156.3493
 21
42.2133
 31
0.0000
  0
LINE
  8
47
 10
156.3493
 20
42.2133
 30
0.0000
 11
156.0781
 21
41.9422
 31
0.0000
  0
LINE
  8
47
 10
135.0000
 20
65.5000
 30
0.0000
 11
140.4500
 21
65.5000
 31
0.0000
  0
LINE
  8
47
 10
138.5000
 20
68.0000
 30
0.0000
 11
138.5000
 21
68.0000
 31
0.0000
  0
LINE
  8
47
 10
138.5000
 20
65.4350
 30
0.0000
 11
138.5000
 21
60.3000
 31
0.0000
  0
LINE
  8
47
 10
138.5000
 20
68.0650
 30
0.0000
 11
138.5000
 21
74.1346
 31
0.0000
  0
LINE
  8
47
 10
138.5000
 20
65.4350
 30
0.0000
 11
138.1808
 21
62.9000
 31
0.0000
  0
LINE
  8
47
 10
138.1808
 20
62.9000
 30
0.0000
 11
138.8192
 21
62.9000
 31
0.0000
  0
LINE
  8
47
 10
138.8192
 20
62.9000
 30
0.0000
 11
138.5000
 21
65.4350
 31
0.0000
  0
LINE
  8
47
 10
138.5000
 20
65.4350
 30
0.0000
 11
138.3700
 21
62.9000
 31
0.0000
  0
LINE
  8
47
 10
138.6300
 20
62.9000
 30
0.0000
 11
138.5000
 21
65.4350
 31
0.0000
  0
LINE
  8
47
 10
138.5000
 20
65.4350
 30
0.0000
 11
138.2400
 21
62.9000
 31
0.0000
  0
LINE
  8
47
 10
138.7600
 20
62.9000
 30
0.0000
 11
138.5000
 21
65.4350
 31
0.0000
  0
LINE
  8
47
 10
138.5000
 20
68.0650
 30
0.0000
 11
138.1808
 21
70.6000
 31
0.0000
  0
LINE
  8
47
 10
138.1808
 20
70.6000
 30
0.0000
 11
138.8192
 21
70.6000
 31
0.0000
  0
LINE
  8
47
 10
138.8192
 20
70.6000
 30
0.0000
 11
138.5000
 21
68.0650
 31
0.0000
  0
LINE
  8
47
 10
138.5000
 20
68.0650
 30
0.0000
 11
138.3700
 21
70.6000
 31
0.0000
  0
LINE
  8
47
 10
138.6300
 20
70.6000
 30
0.0000
 11
138.5000
 21
68.0650
 31
0.0000
  0
LINE
  8
47
 10
138.5000
 20
68.0650
 30
0.0000
 11
138.2400
 21
70.6000
 31
0.0000
  0
LINE
  8
47
 10
138.7600
 20
70.6000
 30
0.0000
 11
138.5000
 21
68.0650
 31
0.0000
  0
LINE
  8
47
 10
137.8493
 20
71.7609
 30
0.0000
 11
137.8493
 21
70.6762
 31
0.0000
  0
LINE
  8
47
 10
137.8493
 20
70.6762
 30
0.0000
 11
136.7646
 21
71.7609
 31
0.0000
  0
LINE
  8
47
 10
136.7646
 20
71.7609
 30
0.0000
 11
136.4935
 21
71.7609
 31
0.0000
  0
LINE
  8
47
 10
136.4935
 20
71.7609
 30
0.0000
 11
136.2223
 21
71.4897
 31
0.0000
  0
LINE
  8
47
 10
136.2223
 20
71.4897
 30
0.0000
 11
136.2223
 21
70.9474
 31
0.0000
  0
LINE
  8
47
 10
136.2223
 20
70.9474
 30
0.0000
 11
136.4935
 21
70.6762
 31
0.0000
  0
LINE
  8
47
 10
137.8493
 20
72.3134
 30
0.0000
 11
137.5781
 21
72.3134
 31
0.0000
  0
LINE
  8
47
 10
137.5781
 20
72.3134
 30
0.0000
 11
137.5781
 21
72.5845
 31
0.0000
  0
LINE
  8
47
 10
137.5781
 20
72.5845
 30
0.0000
 11
137.8493
 21
72.5845
 31
0.0000
  0
LINE
  8
47
 10
137.8493
 20
72.5845
 30
0.0000
 11
137.8493
 21
72.3134
 31
0.0000
  0
LINE
  8
47
 10
136.2223
 20
74.2166
 30
0.0000
 11
136.2223
 21
73.1319
 31
0.0000
  0
LINE
  8
47
 10
136.2223
 20
73.1319
 30
0.0000
 11
137.0358
 21
73.1319
 31
0.0000
  0
LINE
  8
47
 10
137.0358
 20
73.1319
 30
0.0000
 11
136.7646
 21
73.6743
 31
0.0000
  0
LINE
  8
47
 10
136.7646
 20
73.6743
 30
0.0000
 11
136.7646
 21
73.9454
 31
0.0000
  0
LINE
  8
47
 10
136.7646
 20
73.9454
 30
0.0000
 11
137.0358
 21
74.2166
 31
0.0000
  0
LINE
  8
47
 10
137.0358
 20
74.2166
 30
0.0000
 11
137.5781
 21
74.2166
 31
0.0000
  0
LINE
  8
47
 10
137.5781
 20
74.2166
 30
0.0000
 11
137.8493
 21
73.9454
 31
0.0000
  0
LINE
  8
47
 10
137.8493
 20
73.9454
 30
0.0000
 11
137.8493
 21
73.4031
 31
0.0000
  0
LINE
  8
47
 10
137.8493
 20
73.4031
 30
0.0000
 11
137.5781
 21
73.1319
 31
0.0000
  0
LINE
  8
47
 10
136.5000
 20
12.5000
 30
0.0000
 11
141.9500
 21
12.5000
 31
0.0000
  0
LINE
  8
47
 10
138.0000
 20
14.5000
 30
0.0000
 11
141.9500
 21
14.5000
 31
0.0000
  0
LINE
  8
47
 10
140.0000
 20
12.4350
 30
0.0000
 11
140.0000
 21
7.3000
 31
0.0000
  0
LINE
  8
47
 10
140.0000
 20
14.5650
 30
0.0000
 11
140.0000
 21
18.5103
 31
0.0000
  0
LINE
  8
47
 10
140.0000
 20
12.4350
 30
0.0000
 11
139.6808
 21
9.9000
 31
0.0000
  0
LINE
  8
47
 10
139.6808
 20
9.9000
 30
0.0000
 11
140.3192
 21
9.9000
 31
0.0000
  0
LINE
  8
47
 10
140.3192
 20
9.9000
 30
0.0000
 11
140.0000
 21
12.4350
 31
0.0000
  0
LINE
  8
47
 10
140.0000
 20
12.4350
 30
0.0000
 11
139.8700
 21
9.9000
 31
0.0000
  0
LINE
  8
47
 10
140.1300
 20
9.9000
 30
0.0000
 11
140.0000
 21
12.4350
 31
0.0000
  0
LINE
  8
47
 10
140.0000
 20
12.4350
 30
0.0000
 11
139.7400
 21
9.9000
 31
0.0000
  0
LINE
  8
47
 10
140.2600
 20
9.9000
 30
0.0000
 11
140.0000
 21
12.4350
 31
0.0000
  0
LINE
  8
47
 10
140.0000
 20
14.5650
 30
0.0000
 11
139.6808
 21
17.1000
 31
0.0000
  0
LINE
  8
47
 10
139.6808
 20
17.1000
 30
0.0000
 11
140.3192
 21
17.1000
 31
0.0000
  0
LINE
  8
47
 10
140.3192
 20
17.1000
 30
0.0000
 11
140.0000
 21
14.5650
 31
0.0000
  0
LINE
  8
47
 10
140.0000
 20
14.5650
 30
0.0000
 11
139.8700
 21
17.1000
 31
0.0000
  0
LINE
  8
47
 10
140.1300
 20
17.1000
 30
0.0000
 11
140.0000
 21
14.5650
 31
0.0000
  0
LINE
  8
47
 10
140.0000
 20
14.5650
 30
0.0000
 11
139.7400
 21
17.1000
 31
0.0000
  0
LINE
  8
47
 10
140.2600
 20
17.1000
 30
0.0000
 11
140.0000
 21
14.5650
 31
0.0000
  0
LINE
  8
47
 10
139.3493
 20
18.2609
 30
0.0000
 11
139.3493
 21
17.1762
 31
0.0000
  0
LINE
  8
47
 10
139.3493
 20
17.1762
 30
0.0000
 11
138.2646
 21
18.2609
 31
0.0000
  0
LINE
  8
47
 10
138.2646
 20
18.2609
 30
0.0000
 11
137.9935
 21
18.2609
 31
0.0000
  0
LINE
  8
47
 10
137.9935
 20
18.2609
 30
0.0000
 11
137.7223
 21
17.9897
 31
0.0000
  0
LINE
  8
47
 10
137.7223
 20
17.9897
 30
0.0000
 11
137.7223
 21
17.4474
 31
0.0000
  0
LINE
  8
47
 10
137.7223
 20
17.4474
 30
0.0000
 11
137.9935
 21
17.1762
 31
0.0000
  0
LINE
  8
47
 10
151.5000
 20
21.5000
 30
0.0000
 11
151.5000
 21
24.9500
 31
0.0000
  0
LINE
  8
47
 10
149.5000
 20
22.0000
 30
0.0000
 11
149.5000
 21
24.9500
 31
0.0000
  0
LINE
  8
47
 10
149.4350
 20
23.0000
 30
0.0000
 11
144.3000
 21
23.0000
 31
0.0000
  0
LINE
  8
47
 10
151.5650
 20
23.0000
 30
0.0000
 11
155.5103
 21
23.0000
 31
0.0000
  0
LINE
  8
47
 10
151.5650
 20
23.0000
 30
0.0000
 11
154.1000
 21
23.3192
 31
0.0000
  0
LINE
  8
47
 10
154.1000
 20
23.3192
 30
0.0000
 11
154.1000
 21
22.6808
 31
0.0000
  0
LINE
  8
47
 10
154.1000
 20
22.6808
 30
0.0000
 11
151.5650
 21
23.0000
 31
0.0000
  0
LINE
  8
47
 10
151.5650
 20
23.0000
 30
0.0000
 11
154.1000
 21
23.1300
 31
0.0000
  0
LINE
  8
47
 10
154.1000
 20
22.8700
 30
0.0000
 11
151.5650
 21
23.0000
 31
0.0000
  0
LINE
  8
47
 10
151.5650
 20
23.0000
 30
0.0000
 11
154.1000
 21
23.2600
 31
0.0000
  0
LINE
  8
47
 10
154.1000
 20
22.7400
 30
0.0000
 11
151.5650
 21
23.0000
 31
0.0000
  0
LINE
  8
47
 10
149.4350
 20
23.0000
 30
0.0000
 11
146.9000
 21
23.3192
 31
0.0000
  0
LINE
  8
47
 10
146.9000
 20
23.3192
 30
0.0000
 11
146.9000
 21
22.6808
 31
0.0000
  0
LINE
  8
47
 10
146.9000
 20
22.6808
 30
0.0000
 11
149.4350
 21
23.0000
 31
0.0000
  0
LINE
  8
47
 10
149.4350
 20
23.0000
 30
0.0000
 11
146.9000
 21
23.1300
 31
0.0000
  0
LINE
  8
47
 10
146.9000
 20
22.8700
 30
0.0000
 11
149.4350
 21
23.0000
 31
0.0000
  0
LINE
  8
47
 10
149.4350
 20
23.0000
 30
0.0000
 11
146.9000
 21
23.2600
 31
0.0000
  0
LINE
  8
47
 10
146.9000
 20
22.7400
 30
0.0000
 11
149.4350
 21
23.0000
 31
0.0000
  0
LINE
  8
47
 10
155.2609
 20
23.6507
 30
0.0000
 11
154.1762
 21
23.6507
 31
0.0000
  0
LINE
  8
47
 10
154.1762
 20
23.6507
 30
0.0000
 11
155.2609
 21
24.7354
 31
0.0000
  0
LINE
  8
47
 10
155.2609
 20
24.7354
 30
0.0000
 11
155.2609
 21
25.0065
 31
0.0000
  0
LINE
  8
47
 10
155.2609
 20
25.0065
 30
0.0000
 11
154.9897
 21
25.2777
 31
0.0000
  0
LINE
  8
47
 10
154.9897
 20
25.2777
 30
0.0000
 11
154.4474
 21
25.2777
 31
0.0000
  0
LINE
  8
47
 10
154.4474
 20
25.2777
 30
0.0000
 11
154.1762
 21
25.0065
 31
0.0000
  0
CIRCLE
  8
120
 10
215.3500
 20
8.2000
 30
0.0000
 40
1.2500
  0
CIRCLE
  8
120
 10
170.0000
 20
12.0000
 30
0.0000
 40
4.0000
  0
CIRCLE
  8
120
 10
188.0000
 20
57.0000
 30
0.0000
 40
1.5000
  0
CIRCLE
  8
120
 10
188.0000
 20
64.0000
 30
0.0000
 40
1.5000
  0
CIRCLE
  8
120
 10
62.5000
 20
24.0000
 30
0.0000
 40
1.5000
  0
CIRCLE
  8
120
 10
225.0000
 20
21.0000
 30
0.0000
 40
1.5000
  0
CIRCLE
  8
120
 10
261.0000
 20
50.0000
 30
0.0000
 40
1.5000
  0
CIRCLE
  8
120
 10
244.0000
 20
21.0000
 30
0.0000
 40
1.5000
  0
CIRCLE
  8
120
 10
188.0000
 20
50.0000
 30
0.0000
 40
1.5000
  0
CIRCLE
  8
120
 10
261.0000
 20
64.0000
 30
0.0000
 40
1.5000
  0
CIRCLE
  8
120
 10
215.3500
 20
12.0000
 30
0.0000
 40
4.0000
  0
CIRCLE
  8
120
 10
196.3000
 20
12.0000
 30
0.0000
 40
4.0000
  0
CIRCLE
  8
120
 10
253.4500
 20
12.0000
 30
0.0000
 40
4.0000
  0
CIRCLE
  8
120
 10
261.0000
 20
57.0000
 30
0.0000
 40
1.5000
  0
CIRCLE
  8
120
 10
62.5000
 20
13.0000
 30
0.0000
 40
3.2500
  0
CIRCLE
  8
120
 10
101.0000
 20
7.0000
 30
0.0000
 40
1.7500
  0
CIRCLE
  8
120
 10
180.5000
 20
50.0000
 30
0.0000
 40
1.5000
  0
CIRCLE
  8
120
 10
253.5000
 20
50.0000
 30
0.0000
 40
1.5000
  0
CIRCLE
  8
120
 10
234.4000
 20
12.0000
 30
0.0000
 40
4.0000
  0
CIRCLE
  8
120
 10
206.0000
 20
21.0000
 30
0.0000
 40
1.5000
  0
CIRCLE
  8
120
 10
281.0000
 20
8.0000
 30
0.0000
 40
2.1000
  0
CIRCLE
  8
120
 10
281.0000
 20
72.0000
 30
0.0000
 40
2.1000
  0
CIRCLE
  8
120
 10
9.0000
 20
8.0000
 30
0.0000
 40
2.1000
  0
CIRCLE
  8
120
 10
9.0000
 20
72.0000
 30
0.0000
 40
2.1000
  0
CIRCLE
  8
120
 10
273.0000
 20
73.0000
 30
0.0000
 40
1.5000
  0
CIRCLE
  8
120
 10
196.3000
 20
15.8000
 30
0.0000
 40
1.2500
  0
CIRCLE
  8
120
 10
215.3500
 20
15.8000
 30
0.0000
 40
1.2500
  0
CIRCLE
  8
120
 10
196.3000
 20
8.2000
 30
0.0000
 40
1.2500
  0
CIRCLE
  8
120
 10
234.4000
 20
8.2000
 30
0.0000
 40
1.2500
  0
CIRCLE
  8
120
 10
234.4000
 20
15.8000
 30
0.0000
 40
1.2500
  0
CIRCLE
  8
120
 10
253.4500
 20
15.8000
 30
0.0000
 40
1.2500
  0
CIRCLE
  8
120
 10
253.4500
 20
8.2000
 30
0.0000
 40
1.2500
  0
CIRCLE
  8
120
 10
170.0000
 20
15.8000
 30
0.0000
 40
1.2500
  0
CIRCLE
  8
120
 10
170.0000
 20
8.2000
 30
0.0000
 40
1.2500
  0
CIRCLE
  8
120
 10
170.0000
 20
65.0000
 30
0.0000
 40
8.5000
  0
ENDSEC
  0
EOF
