  0
SECTION
  2
HEADER
  9
$ACADVER
  1
AC1009
  9
$FILLMODE
 70
0
  9
$EXTMIN
 10
-30.0000
 20
0.4500
 30
0.0000
  9
$EXTMAX
 10
370.1500
 20
385.2032
 30
0.0000
  0
ENDSEC
  0
SECTION
  2
TABLES
  0
TABLE
  2
LTYPE
 70
1
  0
LTYPE
  2
CONTINUOUS
 70
64
  3
Solid line
 72
65
 73
0
 40
0
  0
ENDTAB
  0
TABLE
  2
LAYER
 70
255
  0
LAYER
  2
20
 70
64
 62
7
  6
CONTINUOUS
  0
LAYER
  2
47
 70
64
 62
2
  6
CONTINUOUS
  0
ENDTAB
  0
ENDSEC
  0
SECTION
  2
BLOCKS
  0
BLOCK
  8
0
  2
RECT
 70
64
 10
0.0000
 20
0.0000
 30
0.0000
  3
RECT
  0
SOLID
  8
0
 10
-0.5000
 20
-0.5000
 30
0.0000
 11
0.5000
 21
-0.5000
 31
0.0000
 12
-0.5000
 22
0.5000
 32
0.0000
 13
0.5000
 23
0.5000
 33
0.0000
  0
ENDBLK
  8
0
  0
BLOCK
  8
0
  2
PIE
 70
64
 10
0.0000
 20
0.0000
 30
0.0000
  3
PIE
  0
CIRCLE
  8
0
 10
0.0000
 20
0.0000
 30
0.0000
 40
0.5000
  0
ENDBLK
  8
0
  0
BLOCK
  8
0
  2
OCTAGONP
 70
64
 10
0.0000
 20
0.0000
 30
0.0000
  3
OCTAGONP
  0
POLYLINE
  8
0
 66
1
 10
0.0000
 20
0.0000
 30
0.0000
 40
0.0000
 41
0.0000
 70
1
  0
VERTEX
  8
0
 10
-0.5000
 20
-0.2071
 30
0.0000
  0
VERTEX
  8
0
 10
-0.5000
 20
0.2071
 30
0.0000
  0
VERTEX
  8
0
 10
-0.2071
 20
0.5000
 30
0.0000
  0
VERTEX
  8
0
 10
0.2071
 20
0.5000
 30
0.0000
  0
VERTEX
  8
0
 10
0.5000
 20
0.2071
 30
0.0000
  0
VERTEX
  8
0
 10
0.5000
 20
-0.2071
 30
0.0000
  0
VERTEX
  8
0
 10
0.2071
 20
-0.5000
 30
0.0000
  0
VERTEX
  8
0
 10
-0.2071
 20
-0.5000
 30
0.0000
  0
SEQEND
  8
0
  0
ENDBLK
  8
0
  0
BLOCK
  8
0
  2
SQUAREP
 70
64
 10
0.0000
 20
0.0000
 30
0.0000
  3
SQUAREP
  0
SOLID
  8
0
 10
-0.5000
 20
-0.5000
 30
0.0000
 11
0.5000
 21
-0.5000
 31
0.0000
 12
-0.5000
 22
0.5000
 32
0.0000
 13
0.5000
 23
0.5000
 33
0.0000
  0
ENDBLK
  8
0
  0
BLOCK
  8
0
  2
ROUNDP
 70
64
 10
0.0000
 20
0.0000
 30
0.0000
  3
ROUNDP
  0
CIRCLE
  8
0
 10
0.0000
 20
0.0000
 30
0.0000
 40
0.5000
  0
ENDBLK
  8
0
  0
BLOCK
  8
0
  2
ANNULUSP
 70
64
 10
0.0000
 20
0.0000
 30
0.0000
  3
ANNULUSP
  0
CIRCLE
  8
0
 10
0.0000
 20
0.0000
 30
0.0000
 40
0.5000
  0
ENDBLK
  8
0
  0
BLOCK
  8
0
  2
THERMALP
 70
64
 10
0.0000
 20
0.0000
 30
0.0000
  3
THERMALP
  0
LINE
  8
0
 10
-0.2379
 20
0.4500
 30
0.0000
 11
0.2379
 21
0.4500
 31
0.0000
  0
LINE
  8
0
 10
0.4500
 20
0.2379
 30
0.0000
 11
0.4500
 21
-0.2379
 31
0.0000
  0
LINE
  8
0
 10
0.2379
 20
-0.4500
 30
0.0000
 11
-0.2379
 21
-0.4500
 31
0.0000
  0
LINE
  8
0
 10
-0.4500
 20
-0.2379
 30
0.0000
 11
-0.4500
 21
0.2379
 31
0.0000
  0
ENDBLK
  8
0
  0
BLOCK
  8
0
  2
OCTAGONV
 70
64
 10
0.0000
 20
0.0000
 30
0.0000
  3
OCTAGONV
  0
POLYLINE
  8
0
 66
1
 10
0.0000
 20
0.0000
 30
0.0000
 40
0.0000
 41
0.0000
 70
1
  0
VERTEX
  8
0
 10
-0.5000
 20
-0.2071
 30
0.0000
  0
VERTEX
  8
0
 10
-0.5000
 20
0.2071
 30
0.0000
  0
VERTEX
  8
0
 10
-0.2071
 20
0.5000
 30
0.0000
  0
VERTEX
  8
0
 10
0.2071
 20
0.5000
 30
0.0000
  0
VERTEX
  8
0
 10
0.5000
 20
0.2071
 30
0.0000
  0
VERTEX
  8
0
 10
0.5000
 20
-0.2071
 30
0.0000
  0
VERTEX
  8
0
 10
0.2071
 20
-0.5000
 30
0.0000
  0
VERTEX
  8
0
 10
-0.2071
 20
-0.5000
 30
0.0000
  0
SEQEND
  8
0
  0
ENDBLK
  8
0
  0
BLOCK
  8
0
  2
SQUAREV
 70
64
 10
0.0000
 20
0.0000
 30
0.0000
  3
SQUAREV
  0
SOLID
  8
0
 10
-0.5000
 20
-0.5000
 30
0.0000
 11
0.5000
 21
-0.5000
 31
0.0000
 12
-0.5000
 22
0.5000
 32
0.0000
 13
0.5000
 23
0.5000
 33
0.0000
  0
ENDBLK
  8
0
  0
BLOCK
  8
0
  2
ROUNDV
 70
64
 10
0.0000
 20
0.0000
 30
0.0000
  3
ROUNDV
  0
CIRCLE
  8
0
 10
0.0000
 20
0.0000
 30
0.0000
 40
0.5000
  0
ENDBLK
  8
0
  0
BLOCK
  8
0
  2
ANNULUSV
 70
64
 10
0.0000
 20
0.0000
 30
0.0000
  3
ANNULUSV
  0
CIRCLE
  8
0
 10
0.0000
 20
0.0000
 30
0.0000
 40
0.5000
  0
ENDBLK
  8
0
  0
BLOCK
  8
0
  2
THERMALV
 70
64
 10
0.0000
 20
0.0000
 30
0.0000
  3
THERMALV
  0
LINE
  8
0
 10
-0.2379
 20
0.4500
 30
0.0000
 11
0.2379
 21
0.4500
 31
0.0000
  0
LINE
  8
0
 10
0.4500
 20
0.2379
 30
0.0000
 11
0.4500
 21
-0.2379
 31
0.0000
  0
LINE
  8
0
 10
0.2379
 20
-0.4500
 30
0.0000
 11
-0.2379
 21
-0.4500
 31
0.0000
  0
LINE
  8
0
 10
-0.4500
 20
-0.2379
 30
0.0000
 11
-0.4500
 21
0.2379
 31
0.0000
  0
ENDBLK
  8
0
  0
ENDSEC
  0
SECTION
  2
ENTITIES
  0
LINE
  8
47
 10
-1.5000
 20
75.0000
 30
0.0000
 11
-4.5000
 21
76.0000
 31
0.0000
  0
LINE
  8
47
 10
-4.5000
 20
76.0000
 30
0.0000
 11
-5.0000
 21
75.0000
 31
0.0000
  0
LINE
  8
47
 10
-5.0000
 20
75.0000
 30
0.0000
 11
-1.5000
 21
75.0000
 31
0.0000
  0
LINE
  8
47
 10
-5.0000
 20
75.0000
 30
0.0000
 11
-1.5000
 21
75.0000
 31
0.0000
  0
LINE
  8
47
 10
-4.9500
 20
75.1000
 30
0.0000
 11
-1.8000
 21
75.1000
 31
0.0000
  0
LINE
  8
47
 10
-4.9000
 20
75.2000
 30
0.0000
 11
-2.1000
 21
75.2000
 31
0.0000
  0
LINE
  8
47
 10
-4.8500
 20
75.3000
 30
0.0000
 11
-2.4000
 21
75.3000
 31
0.0000
  0
LINE
  8
47
 10
-4.8000
 20
75.4000
 30
0.0000
 11
-2.7000
 21
75.4000
 31
0.0000
  0
LINE
  8
47
 10
-4.7500
 20
75.5000
 30
0.0000
 11
-3.0000
 21
75.5000
 31
0.0000
  0
LINE
  8
47
 10
-4.7000
 20
75.6000
 30
0.0000
 11
-3.3000
 21
75.6000
 31
0.0000
  0
LINE
  8
47
 10
-4.6500
 20
75.7000
 30
0.0000
 11
-3.6000
 21
75.7000
 31
0.0000
  0
LINE
  8
47
 10
-4.6000
 20
75.8000
 30
0.0000
 11
-3.9000
 21
75.8000
 31
0.0000
  0
LINE
  8
47
 10
-4.5500
 20
75.9000
 30
0.0000
 11
-4.2000
 21
75.9000
 31
0.0000
  0
LINE
  8
47
 10
-1.5000
 20
39.0000
 30
0.0000
 11
-4.5000
 21
38.0000
 31
0.0000
  0
LINE
  8
47
 10
-4.5000
 20
38.0000
 30
0.0000
 11
-5.0000
 21
39.0000
 31
0.0000
  0
LINE
  8
47
 10
-5.0000
 20
39.0000
 30
0.0000
 11
-1.5000
 21
39.0000
 31
0.0000
  0
LINE
  8
47
 10
-4.5500
 20
38.1000
 30
0.0000
 11
-4.2000
 21
38.1000
 31
0.0000
  0
LINE
  8
47
 10
-4.6000
 20
38.2000
 30
0.0000
 11
-3.9000
 21
38.2000
 31
0.0000
  0
LINE
  8
47
 10
-4.6500
 20
38.3000
 30
0.0000
 11
-3.6000
 21
38.3000
 31
0.0000
  0
LINE
  8
47
 10
-4.7000
 20
38.4000
 30
0.0000
 11
-3.3000
 21
38.4000
 31
0.0000
  0
LINE
  8
47
 10
-4.7500
 20
38.5000
 30
0.0000
 11
-3.0000
 21
38.5000
 31
0.0000
  0
LINE
  8
47
 10
-4.8000
 20
38.6000
 30
0.0000
 11
-2.7000
 21
38.6000
 31
0.0000
  0
LINE
  8
47
 10
-4.8500
 20
38.7000
 30
0.0000
 11
-2.4000
 21
38.7000
 31
0.0000
  0
LINE
  8
47
 10
-4.9000
 20
38.8000
 30
0.0000
 11
-2.1000
 21
38.8000
 31
0.0000
  0
LINE
  8
47
 10
-4.9500
 20
38.9000
 30
0.0000
 11
-1.8000
 21
38.9000
 31
0.0000
  0
LINE
  8
20
 10
0.1000
 20
95.4724
 30
0.0000
 11
120.1000
 21
95.4724
 31
0.0000
  0
LINE
  8
20
 10
120.1000
 20
18.9276
 30
0.0000
 11
0.1000
 21
18.9276
 31
0.0000
  0
LINE
  8
20
 10
0.1000
 20
0.6553
 30
0.0000
 11
120.1000
 21
0.6553
 31
0.0000
  0
LINE
  8
20
 10
0.1000
 20
113.7447
 30
0.0000
 11
0.1000
 21
0.6553
 31
0.0000
  0
LINE
  8
20
 10
0.1000
 20
113.7447
 30
0.0000
 11
120.1000
 21
113.7447
 31
0.0000
  0
LINE
  8
20
 10
120.1000
 20
113.7447
 30
0.0000
 11
120.1000
 21
0.6553
 31
0.0000
  0
LINE
  8
20
 10
125.1000
 20
95.4724
 30
0.0000
 11
245.1000
 21
95.4724
 31
0.0000
  0
LINE
  8
20
 10
245.1000
 20
42.9276
 30
0.0000
 11
125.1000
 21
42.9276
 31
0.0000
  0
LINE
  8
20
 10
125.1000
 20
26.6553
 30
0.0000
 11
245.1000
 21
26.6553
 31
0.0000
  0
LINE
  8
20
 10
125.1000
 20
111.7447
 30
0.0000
 11
125.1000
 21
26.6553
 31
0.0000
  0
LINE
  8
20
 10
125.1000
 20
111.7447
 30
0.0000
 11
245.1000
 21
111.7447
 31
0.0000
  0
LINE
  8
20
 10
245.1000
 20
111.7447
 30
0.0000
 11
245.1000
 21
26.6553
 31
0.0000
  0
LINE
  8
20
 10
370.1000
 20
95.4724
 30
0.0000
 11
250.1000
 21
95.4724
 31
0.0000
  0
LINE
  8
20
 10
250.1000
 20
56.9276
 30
0.0000
 11
370.1000
 21
56.9276
 31
0.0000
  0
LINE
  8
20
 10
370.1000
 20
109.7447
 30
0.0000
 11
250.1000
 21
109.7447
 31
0.0000
  0
LINE
  8
20
 10
370.1000
 20
42.6553
 30
0.0000
 11
250.1000
 21
42.6553
 31
0.0000
  0
LINE
  8
20
 10
370.1000
 20
109.7447
 30
0.0000
 11
370.1000
 21
42.6553
 31
0.0000
  0
LINE
  8
20
 10
250.1000
 20
109.7447
 30
0.0000
 11
250.1000
 21
42.6553
 31
0.0000
  0
ARC
  8
47
 10
-0.5001
 20
94.2403
 30
0.0000
 40
19.2662
 50
91.4867
 51
267.0251
  0
ARC
  8
47
 10
-0.5001
 20
19.7597
 30
0.0000
 40
19.2662
 50
92.9749
 51
268.5133
  0
LINE
  8
47
 10
-28.8857
 20
116.6143
 30
0.0000
 11
-28.8857
 21
119.3881
 31
0.0000
  0
LINE
  8
47
 10
-28.8857
 20
119.3881
 30
0.0000
 11
-27.4988
 21
119.3881
 31
0.0000
  0
LINE
  8
47
 10
-27.4988
 20
119.3881
 30
0.0000
 11
-27.0365
 21
118.9258
 31
0.0000
  0
LINE
  8
47
 10
-27.0365
 20
118.9258
 30
0.0000
 11
-27.0365
 21
118.4635
 31
0.0000
  0
LINE
  8
47
 10
-27.0365
 20
118.4635
 30
0.0000
 11
-27.4988
 21
118.0012
 31
0.0000
  0
LINE
  8
47
 10
-27.4988
 20
118.0012
 30
0.0000
 11
-27.0365
 21
117.5389
 31
0.0000
  0
LINE
  8
47
 10
-27.0365
 20
117.5389
 30
0.0000
 11
-27.0365
 21
117.0766
 31
0.0000
  0
LINE
  8
47
 10
-27.0365
 20
117.0766
 30
0.0000
 11
-27.4988
 21
116.6143
 31
0.0000
  0
LINE
  8
47
 10
-27.4988
 20
116.6143
 30
0.0000
 11
-28.8857
 21
116.6143
 31
0.0000
  0
LINE
  8
47
 10
-28.8857
 20
118.0012
 30
0.0000
 11
-27.4988
 21
118.0012
 31
0.0000
  0
LINE
  8
47
 10
-24.7365
 20
116.6143
 30
0.0000
 11
-25.6610
 21
116.6143
 31
0.0000
  0
LINE
  8
47
 10
-25.6610
 20
116.6143
 30
0.0000
 11
-26.1233
 21
117.0766
 31
0.0000
  0
LINE
  8
47
 10
-26.1233
 20
117.0766
 30
0.0000
 11
-26.1233
 21
118.0012
 31
0.0000
  0
LINE
  8
47
 10
-26.1233
 20
118.0012
 30
0.0000
 11
-25.6610
 21
118.4635
 31
0.0000
  0
LINE
  8
47
 10
-25.6610
 20
118.4635
 30
0.0000
 11
-24.7365
 21
118.4635
 31
0.0000
  0
LINE
  8
47
 10
-24.7365
 20
118.4635
 30
0.0000
 11
-24.2742
 21
118.0012
 31
0.0000
  0
LINE
  8
47
 10
-24.2742
 20
118.0012
 30
0.0000
 11
-24.2742
 21
117.5389
 31
0.0000
  0
LINE
  8
47
 10
-24.2742
 20
117.5389
 30
0.0000
 11
-26.1233
 21
117.5389
 31
0.0000
  0
LINE
  8
47
 10
-23.3610
 20
116.6143
 30
0.0000
 11
-23.3610
 21
118.4635
 31
0.0000
  0
LINE
  8
47
 10
-23.3610
 20
118.4635
 30
0.0000
 11
-21.9741
 21
118.4635
 31
0.0000
  0
LINE
  8
47
 10
-21.9741
 20
118.4635
 30
0.0000
 11
-21.5118
 21
118.0012
 31
0.0000
  0
LINE
  8
47
 10
-21.5118
 20
118.0012
 30
0.0000
 11
-21.5118
 21
116.6143
 31
0.0000
  0
LINE
  8
47
 10
-18.7494
 20
119.3881
 30
0.0000
 11
-18.7494
 21
116.6143
 31
0.0000
  0
LINE
  8
47
 10
-18.7494
 20
116.6143
 30
0.0000
 11
-20.1363
 21
116.6143
 31
0.0000
  0
LINE
  8
47
 10
-20.1363
 20
116.6143
 30
0.0000
 11
-20.5986
 21
117.0766
 31
0.0000
  0
LINE
  8
47
 10
-20.5986
 20
117.0766
 30
0.0000
 11
-20.5986
 21
118.0012
 31
0.0000
  0
LINE
  8
47
 10
-20.5986
 20
118.0012
 30
0.0000
 11
-20.1363
 21
118.4635
 31
0.0000
  0
LINE
  8
47
 10
-20.1363
 20
118.4635
 30
0.0000
 11
-18.7494
 21
118.4635
 31
0.0000
  0
LINE
  8
47
 10
-17.8363
 20
118.4635
 30
0.0000
 11
-17.3740
 21
118.4635
 31
0.0000
  0
LINE
  8
47
 10
-17.3740
 20
118.4635
 30
0.0000
 11
-17.3740
 21
116.6143
 31
0.0000
  0
LINE
  8
47
 10
-17.8363
 20
116.6143
 30
0.0000
 11
-16.9117
 21
116.6143
 31
0.0000
  0
LINE
  8
47
 10
-17.3740
 20
119.8504
 30
0.0000
 11
-17.3740
 21
119.3881
 31
0.0000
  0
LINE
  8
47
 10
-15.9947
 20
116.6143
 30
0.0000
 11
-15.9947
 21
118.4635
 31
0.0000
  0
LINE
  8
47
 10
-15.9947
 20
118.4635
 30
0.0000
 11
-14.6078
 21
118.4635
 31
0.0000
  0
LINE
  8
47
 10
-14.6078
 20
118.4635
 30
0.0000
 11
-14.1455
 21
118.0012
 31
0.0000
  0
LINE
  8
47
 10
-14.1455
 20
118.0012
 30
0.0000
 11
-14.1455
 21
116.6143
 31
0.0000
  0
LINE
  8
47
 10
-12.3077
 20
115.6897
 30
0.0000
 11
-11.8454
 21
115.6897
 31
0.0000
  0
LINE
  8
47
 10
-11.8454
 20
115.6897
 30
0.0000
 11
-11.3832
 21
116.1520
 31
0.0000
  0
LINE
  8
47
 10
-11.3832
 20
116.1520
 30
0.0000
 11
-11.3832
 21
118.4635
 31
0.0000
  0
LINE
  8
47
 10
-11.3832
 20
118.4635
 30
0.0000
 11
-12.7700
 21
118.4635
 31
0.0000
  0
LINE
  8
47
 10
-12.7700
 20
118.4635
 30
0.0000
 11
-13.2323
 21
118.0012
 31
0.0000
  0
LINE
  8
47
 10
-13.2323
 20
118.0012
 30
0.0000
 11
-13.2323
 21
117.0766
 31
0.0000
  0
LINE
  8
47
 10
-13.2323
 20
117.0766
 30
0.0000
 11
-12.7700
 21
116.6143
 31
0.0000
  0
LINE
  8
47
 10
-12.7700
 20
116.6143
 30
0.0000
 11
-11.3832
 21
116.6143
 31
0.0000
  0
LINE
  8
47
 10
-5.8584
 20
119.3881
 30
0.0000
 11
-5.8584
 21
116.6143
 31
0.0000
  0
LINE
  8
47
 10
-5.8584
 20
116.6143
 30
0.0000
 11
-7.2453
 21
116.6143
 31
0.0000
  0
LINE
  8
47
 10
-7.2453
 20
116.6143
 30
0.0000
 11
-7.7076
 21
117.0766
 31
0.0000
  0
LINE
  8
47
 10
-7.7076
 20
117.0766
 30
0.0000
 11
-7.7076
 21
118.0012
 31
0.0000
  0
LINE
  8
47
 10
-7.7076
 20
118.0012
 30
0.0000
 11
-7.2453
 21
118.4635
 31
0.0000
  0
LINE
  8
47
 10
-7.2453
 20
118.4635
 30
0.0000
 11
-5.8584
 21
118.4635
 31
0.0000
  0
LINE
  8
47
 10
-4.9453
 20
118.4635
 30
0.0000
 11
-4.4830
 21
118.4635
 31
0.0000
  0
LINE
  8
47
 10
-4.4830
 20
118.4635
 30
0.0000
 11
-4.4830
 21
116.6143
 31
0.0000
  0
LINE
  8
47
 10
-4.9453
 20
116.6143
 30
0.0000
 11
-4.0207
 21
116.6143
 31
0.0000
  0
LINE
  8
47
 10
-4.4830
 20
119.8504
 30
0.0000
 11
-4.4830
 21
119.3881
 31
0.0000
  0
LINE
  8
47
 10
-3.1037
 20
116.6143
 30
0.0000
 11
-3.1037
 21
118.4635
 31
0.0000
  0
LINE
  8
47
 10
-3.1037
 20
117.5389
 30
0.0000
 11
-2.1791
 21
118.4635
 31
0.0000
  0
LINE
  8
47
 10
-2.1791
 20
118.4635
 30
0.0000
 11
-1.7168
 21
118.4635
 31
0.0000
  0
LINE
  8
47
 10
0.5852
 20
116.6143
 30
0.0000
 11
-0.3394
 21
116.6143
 31
0.0000
  0
LINE
  8
47
 10
-0.3394
 20
116.6143
 30
0.0000
 11
-0.8017
 21
117.0766
 31
0.0000
  0
LINE
  8
47
 10
-0.8017
 20
117.0766
 30
0.0000
 11
-0.8017
 21
118.0012
 31
0.0000
  0
LINE
  8
47
 10
-0.8017
 20
118.0012
 30
0.0000
 11
-0.3394
 21
118.4635
 31
0.0000
  0
LINE
  8
47
 10
-0.3394
 20
118.4635
 30
0.0000
 11
0.5852
 21
118.4635
 31
0.0000
  0
LINE
  8
47
 10
0.5852
 20
118.4635
 30
0.0000
 11
1.0475
 21
118.0012
 31
0.0000
  0
LINE
  8
47
 10
1.0475
 20
118.0012
 30
0.0000
 11
1.0475
 21
117.5389
 31
0.0000
  0
LINE
  8
47
 10
1.0475
 20
117.5389
 30
0.0000
 11
-0.8017
 21
117.5389
 31
0.0000
  0
LINE
  8
47
 10
3.8098
 20
118.4635
 30
0.0000
 11
2.4229
 21
118.4635
 31
0.0000
  0
LINE
  8
47
 10
2.4229
 20
118.4635
 30
0.0000
 11
1.9606
 21
118.0012
 31
0.0000
  0
LINE
  8
47
 10
1.9606
 20
118.0012
 30
0.0000
 11
1.9606
 21
117.0766
 31
0.0000
  0
LINE
  8
47
 10
1.9606
 20
117.0766
 30
0.0000
 11
2.4229
 21
116.6143
 31
0.0000
  0
LINE
  8
47
 10
2.4229
 20
116.6143
 30
0.0000
 11
3.8098
 21
116.6143
 31
0.0000
  0
LINE
  8
47
 10
5.1853
 20
118.9258
 30
0.0000
 11
5.1853
 21
117.0766
 31
0.0000
  0
LINE
  8
47
 10
5.1853
 20
117.0766
 30
0.0000
 11
5.6476
 21
116.6143
 31
0.0000
  0
LINE
  8
47
 10
4.7230
 20
118.4635
 30
0.0000
 11
5.6476
 21
118.4635
 31
0.0000
  0
LINE
  8
47
 10
6.5646
 20
118.4635
 30
0.0000
 11
7.0269
 21
118.4635
 31
0.0000
  0
LINE
  8
47
 10
7.0269
 20
118.4635
 30
0.0000
 11
7.0269
 21
116.6143
 31
0.0000
  0
LINE
  8
47
 10
6.5646
 20
116.6143
 30
0.0000
 11
7.4892
 21
116.6143
 31
0.0000
  0
LINE
  8
47
 10
7.0269
 20
119.8504
 30
0.0000
 11
7.0269
 21
119.3881
 31
0.0000
  0
LINE
  8
47
 10
8.8684
 20
116.6143
 30
0.0000
 11
9.7930
 21
116.6143
 31
0.0000
  0
LINE
  8
47
 10
9.7930
 20
116.6143
 30
0.0000
 11
10.2553
 21
117.0766
 31
0.0000
  0
LINE
  8
47
 10
10.2553
 20
117.0766
 30
0.0000
 11
10.2553
 21
118.0012
 31
0.0000
  0
LINE
  8
47
 10
10.2553
 20
118.0012
 30
0.0000
 11
9.7930
 21
118.4635
 31
0.0000
  0
LINE
  8
47
 10
9.7930
 20
118.4635
 30
0.0000
 11
8.8684
 21
118.4635
 31
0.0000
  0
LINE
  8
47
 10
8.8684
 20
118.4635
 30
0.0000
 11
8.4061
 21
118.0012
 31
0.0000
  0
LINE
  8
47
 10
8.4061
 20
118.0012
 30
0.0000
 11
8.4061
 21
117.0766
 31
0.0000
  0
LINE
  8
47
 10
8.4061
 20
117.0766
 30
0.0000
 11
8.8684
 21
116.6143
 31
0.0000
  0
LINE
  8
47
 10
11.1685
 20
116.6143
 30
0.0000
 11
11.1685
 21
118.4635
 31
0.0000
  0
LINE
  8
47
 10
11.1685
 20
118.4635
 30
0.0000
 11
12.5554
 21
118.4635
 31
0.0000
  0
LINE
  8
47
 10
12.5554
 20
118.4635
 30
0.0000
 11
13.0177
 21
118.0012
 31
0.0000
  0
LINE
  8
47
 10
13.0177
 20
118.0012
 30
0.0000
 11
13.0177
 21
116.6143
 31
0.0000
  0
CIRCLE
  8
20
 10
110.1000
 20
10.6553
 30
0.0000
 40
1.2650
  0
CIRCLE
  8
20
 10
10.1000
 20
10.6553
 30
0.0000
 40
1.2650
  0
CIRCLE
  8
20
 10
110.1000
 20
103.7447
 30
0.0000
 40
1.2650
  0
CIRCLE
  8
20
 10
10.1000
 20
103.7447
 30
0.0000
 40
1.2650
  0
CIRCLE
  8
20
 10
116.1000
 20
90.2000
 30
0.0000
 40
1.2650
  0
CIRCLE
  8
20
 10
104.1000
 20
24.2000
 30
0.0000
 40
1.2650
  0
CIRCLE
  8
20
 10
4.1000
 20
90.2000
 30
0.0000
 40
1.2650
  0
CIRCLE
  8
20
 10
4.1000
 20
24.2000
 30
0.0000
 40
1.2650
  0
CIRCLE
  8
20
 10
110.1000
 20
57.2000
 30
0.0000
 40
1.6500
  0
CIRCLE
  8
20
 10
10.1000
 20
57.2000
 30
0.0000
 40
1.6500
  0
CIRCLE
  8
20
 10
64.1000
 20
59.2000
 30
0.0000
 40
1.6500
  0
CIRCLE
  8
20
 10
235.1000
 20
69.2000
 30
0.0000
 40
1.6500
  0
CIRCLE
  8
20
 10
189.1000
 20
71.2000
 30
0.0000
 40
1.6500
  0
CIRCLE
  8
20
 10
135.1000
 20
69.2000
 30
0.0000
 40
1.6500
  0
CIRCLE
  8
20
 10
260.1000
 20
76.2000
 30
0.0000
 40
1.2650
  0
CIRCLE
  8
20
 10
306.1000
 20
78.2000
 30
0.0000
 40
1.2650
  0
CIRCLE
  8
20
 10
360.1000
 20
76.2000
 30
0.0000
 40
1.2650
  0
ENDSEC
  0
EOF
