999
dxfrw 0.6.3
  0
SECTION
  2
HEADER
  9
$ACADVER
  1
AC1021
  9
$DWGCODEPAGE
  3
ANSI_1252
  9
$INSBASE
 10
0
 20
0
 30
0
  9
$EXTMIN
 10
0
 20
-7.95
 30
0
  9
$EXTMAX
 10
298.95
 20
90.4991
 30
0
  9
$LIMMIN
 10
0
 20
0
  9
$LIMMAX
 10
420
 20
297
  9
$ORTHOMODE
 70
    0
  9
$REGENMODE
 70
    1
  9
$FILLMODE
 70
    1
  9
$QTEXTMODE
 70
    0
  9
$MIRRTEXT
 70
    0
  9
$LTSCALE
 40
1
  9
$ATTMODE
 70
    0
  9
$TEXTSIZE
 40
2.5
  9
$TRACEWID
 40
15.68
  9
$TEXTSTYLE
  7
STANDARD
  9
$CLAYER
  8
0
  9
$CELTYPE
  6
BYLAYER
  9
$CECOLOR
 62
  256
  9
$CELTSCALE
 40
1
  9
$DISPSILH
 70
    0
  9
$DIMSCALE
 40
2.5
  9
$DIMASZ
 40
2.5
  9
$DIMEXO
 40
0.625
  9
$DIMDLI
 40
3.75
  9
$DIMRND
 40
0
  9
$DIMDLE
 40
0
  9
$DIMEXE
 40
1.25
  9
$DIMTP
 40
0
  9
$DIMTM
 40
0
  9
$DIMTXT
 40
2.5
  9
$DIMCEN
 40
2.5
  9
$DIMTSZ
 40
0
  9
$DIMTOL
 70
    0
  9
$DIMLIM
 70
    0
  9
$DIMTIH
 70
    0
  9
$DIMTOH
 70
    0
  9
$DIMSE1
 70
    0
  9
$DIMSE2
 70
    0
  9
$DIMTAD
 70
    1
  9
$DIMZIN
 70
    8
  9
$DIMBLK
  1

  9
$DIMASO
 70
    1
  9
$DIMSHO
 70
    1
  9
$DIMPOST
  1

  9
$DIMAPOST
  1

  9
$DIMALT
 70
    0
  9
$DIMALTD
 70
    3
  9
$DIMALTF
 40
0.03937
  9
$DIMLFAC
 40
1
  9
$DIMTOFL
 70
    1
  9
$DIMTVP
 40
0
  9
$DIMTIX
 70
    0
  9
$DIMSOXD
 70
    0
  9
$DIMSAH
 70
    0
  9
$DIMBLK1
  1

  9
$DIMBLK2
  1

  9
$DIMSTYLE
  2
STANDARD
  9
$DIMCLRD
 70
    0
  9
$DIMCLRE
 70
    0
  9
$DIMCLRT
 70
    0
  9
$DIMTFAC
 40
1
  9
$DIMGAP
 40
0.625
  9
$DIMJUST
 70
    0
  9
$DIMSD1
 70
    0
  9
$DIMSD2
 70
    0
  9
$DIMTOLJ
 70
    0
  9
$DIMTZIN
 70
    8
  9
$DIMALTZ
 70
    0
  9
$DIMALTTZ
 70
    0
  9
$DIMUPT
 70
    0
  9
$DIMDEC
 70
    2
  9
$DIMTDEC
 70
    2
  9
$DIMALTU
 70
    2
  9
$DIMALTTD
 70
    3
  9
$DIMTXSTY
  7
STANDARD
  9
$DIMAUNIT
 70
    0
  9
$DIMADEC
 70
    0
  9
$DIMALTRND
 40
0
  9
$DIMAZIN
 70
    0
  9
$DIMDSEP
 70
   44
  9
$DIMATFIT
 70
    3
  9
$DIMFRAC
 70
    0
  9
$DIMLDRBLK
  1
STANDARD
  9
$DIMLUNIT
 70
    2
  9
$DIMLWD
 70
   -2
  9
$DIMLWE
 70
   -2
  9
$DIMTMOVE
 70
    0
  9
$DIMFXL
 40
1
  9
$DIMFXLON
 70
    0
  9
$DIMJOGANG
 40
0.7854
  9
$DIMTFILL
 70
    0
  9
$DIMTFILLCLR
 70
    0
  9
$DIMARCSYM
 70
    0
  9
$DIMLTYPE
  6

  9
$DIMLTEX1
  6

  9
$DIMLTEX2
  6

  9
$LUNITS
 70
    2
  9
$LUPREC
 70
    4
  9
$SKETCHINC
 40
1
  9
$FILLETRAD
 40
0
  9
$AUNITS
 70
    0
  9
$AUPREC
 70
    2
  9
$MENU
  1
.
  9
$ELEVATION
 40
0
  9
$PELEVATION
 40
0
  9
$THICKNESS
 40
0
  9
$LIMCHECK
 70
    0
  9
$CHAMFERA
 40
0
  9
$CHAMFERB
 40
0
  9
$CHAMFERC
 40
0
  9
$CHAMFERD
 40
0
  9
$SKPOLY
 70
    0
  9
$USRTIMER
 70
    1
  9
$ANGBASE
 50
0
  9
$ANGDIR
 70
    0
  9
$PDMODE
 70
   34
  9
$PDSIZE
 40
0
  9
$PLINEWID
 40
0
  9
$SPLFRAME
 70
    0
  9
$SPLINETYPE
 70
    2
  9
$SPLINESEGS
 70
    8
  9
$HANDSEED
  5
20000
  9
$SURFTAB1
 70
    6
  9
$SURFTAB2
 70
    6
  9
$SURFTYPE
 70
    6
  9
$SURFU
 70
    6
  9
$SURFV
 70
    6
  9
$UCSBASE
  2

  9
$UCSNAME
  2

  9
$UCSORG
 10
0
 20
0
 30
0
  9
$UCSXDIR
 10
1
 20
0
 30
0
  9
$UCSYDIR
 10
0
 20
1
 30
0
  9
$UCSORTHOREF
  2

  9
$UCSORTHOVIEW
 70
    0
  9
$UCSORGTOP
 10
0
 20
0
 30
0
  9
$UCSORGBOTTOM
 10
0
 20
0
 30
0
  9
$UCSORGLEFT
 10
0
 20
0
 30
0
  9
$UCSORGRIGHT
 10
0
 20
0
 30
0
  9
$UCSORGFRONT
 10
0
 20
0
 30
0
  9
$UCSORGBACK
 10
0
 20
0
 30
0
  9
$PUCSBASE
  2

  9
$PUCSNAME
  2

  9
$PUCSORG
 10
0
 20
0
 30
0
  9
$PUCSXDIR
 10
1
 20
0
 30
0
  9
$PUCSYDIR
 10
0
 20
1
 30
0
  9
$PUCSORTHOREF
  2

  9
$PUCSORTHOVIEW
 70
    0
  9
$PUCSORGTOP
 10
0
 20
0
 30
0
  9
$PUCSORGBOTTOM
 10
0
 20
0
 30
0
  9
$PUCSORGLEFT
 10
0
 20
0
 30
0
  9
$PUCSORGRIGHT
 10
0
 20
0
 30
0
  9
$PUCSORGFRONT
 10
0
 20
0
 30
0
  9
$PUCSORGBACK
 10
0
 20
0
 30
0
  9
$USERI1
 70
    0
  9
$USERI2
 70
    0
  9
$USERI3
 70
    0
  9
$USERI4
 70
    0
  9
$USERI5
 70
    0
  9
$USERR1
 40
0
  9
$USERR2
 40
0
  9
$USERR3
 40
0
  9
$USERR4
 40
0
  9
$USERR5
 40
0
  9
$WORLDVIEW
 70
    1
  9
$SHADEDGE
 70
    3
  9
$SHADEDIF
 70
   70
  9
$TILEMODE
 70
    1
  9
$MAXACTVP
 70
   64
  9
$PINSBASE
 10
0
 20
0
 30
0
  9
$PLIMCHECK
 70
    0
  9
$PEXTMIN
 10
0
 20
0
 30
0
  9
$PEXTMAX
 10
0
 20
0
 30
0
  9
$PLIMMIN
 10
0
 20
0
  9
$PLIMMAX
 10
297
 20
210
  9
$UNITMODE
 70
    0
  9
$VISRETAIN
 70
    1
  9
$PLINEGEN
 70
    0
  9
$PSLTSCALE
 70
    1
  9
$TREEDEPTH
 70
 3020
  9
$CMLSTYLE
  2
Standard
  9
$CMLJUST
 70
    0
  9
$CMLSCALE
 40
20
  9
$PROXYGRAPHICS
 70
    1
  9
$MEASUREMENT
 70
    1
  9
$CELWEIGHT
370
   -1
  9
$ENDCAPS
280
    0
  9
$JOINSTYLE
280
    0
  9
$LWDISPLAY
290
    0
  9
$INSUNITS
 70
    4
  9
$HYPERLINKBASE
  1

  9
$STYLESHEET
  1

  9
$XEDIT
290
    1
  9
$CEPSNTYPE
380
    0
  9
$PSTYLEMODE
290
    1
  9
$EXTNAMES
290
    1
  9
$PSVPSCALE
 40
0
  9
$OLESTARTUP
290
    0
  9
$SORTENTS
280
  127
  9
$INDEXCTL
280
    0
  9
$HIDETEXT
280
    1
  9
$XCLIPFRAME
290
    0
  9
$HALOGAP
280
    0
  9
$OBSCOLOR
 70
  257
  9
$OBSLTYPE
280
    0
  9
$INTERSECTIONDISPLAY
280
    0
  9
$INTERSECTIONCOLOR
 70
  257
  9
$DIMASSOC
280
    1
  9
$PROJECTNAME
  1

  9
$CAMERADISPLAY
290
    0
  9
$LENSLENGTH
 40
50
  9
$CAMERAHEIGHT
 40
0
  9
$STEPSPERSEC
 40
2
  9
$STEPSIZE
 40
50
  9
$3DDWFPREC
 40
2
  9
$PSOLWIDTH
 40
5
  9
$PSOLHEIGHT
 40
80
  9
$LOFTANG1
 40
1.570796326794897
  9
$LOFTANG2
 40
1.570796326794897
  9
$LOFTMAG1
 40
0
  9
$LOFTMAG2
 40
0
  9
$LOFTPARAM
 70
    7
  9
$LOFTNORMALS
280
    1
  9
$LATITUDE
 40
1
  9
$LONGITUDE
 40
1
  9
$NORTHDIRECTION
 40
0
  9
$TIMEZONE
 70
-8000
  9
$LIGHTGLYPHDISPLAY
280
    1
  9
$TILEMODELIGHTSYNCH
280
    1
  9
$SOLIDHIST
280
    1
  9
$SHOWHIST
280
    1
  9
$DWFFRAME
280
    2
  9
$DGNFRAME
280
    0
  9
$REALWORLDSCALE
290
    1
  9
$INTERFERECOLOR
 62
    1
  9
$CSHADOW
280
    0
  9
$SHADOWPLANELOCATION
 40
0
  0
ENDSEC
  0
SECTION
  2
CLASSES
  0
ENDSEC
  0
SECTION
  2
TABLES
  0
TABLE
  2
VPORT
  5
8
330
0
100
AcDbSymbolTable
 70
    1
  0
VPORT
  5
31
330
2
100
AcDbSymbolTableRecord
100
AcDbViewportTableRecord
  2
*ACTIVE
 70
    0
 10
0
 20
0
 11
1
 21
1
 12
182.375
 22
110.25
 13
0
 23
0
 14
10
 24
10
 15
10
 25
10
 16
0
 26
0
 36
1
 17
0
 27
0
 37
0
 40
233
 41
1.619098712446352
 42
50
 43
0
 44
0
 50
0
 51
0
 71
    0
 72
  100
 73
    1
 74
    3
 75
    0
 76
    1
 77
    0
 78
    0
281
    0
 65
    1
110
0
120
0
130
0
111
1
121
0
131
0
112
0
122
1
132
0
 79
    0
146
0
348
10020
 60
    7
 61
    5
292
1
282
    1
141
0
142
0
 63
  250
421
3358443
  0
ENDTAB
  0
TABLE
  2
LTYPE
  5
5
330
0
100
AcDbSymbolTable
 70
    4
  0
LTYPE
  5
14
330
5
100
AcDbSymbolTableRecord
100
AcDbLinetypeTableRecord
  2
ByBlock
 70
    0
  3

 72
   65
 73
    0
 40
0
  0
LTYPE
  5
15
330
5
100
AcDbSymbolTableRecord
100
AcDbLinetypeTableRecord
  2
ByLayer
 70
    0
  3

 72
   65
 73
    0
 40
0
  0
LTYPE
  5
16
330
5
100
AcDbSymbolTableRecord
100
AcDbLinetypeTableRecord
  2
Continuous
 70
    0
  3
Solid line
 72
   65
 73
    0
 40
0
  0
LTYPE
  5
32
330
5
100
AcDbSymbolTableRecord
100
AcDbLinetypeTableRecord
  2
DOT
 70
    0
  3
Dot . . . . . . . . . . . . . . . . . . . . . .
 72
   65
 73
    2
 40
6.35
 49
0
 74
    0
 49
-6.35
 74
    0
  0
LTYPE
  5
33
330
5
100
AcDbSymbolTableRecord
100
AcDbLinetypeTableRecord
  2
DOTTINY
 70
    0
  3
Dot (.15x) .....................................
 72
   65
 73
    2
 40
0.9525
 49
0
 74
    0
 49
-0.9525
 74
    0
  0
LTYPE
  5
34
330
5
100
AcDbSymbolTableRecord
100
AcDbLinetypeTableRecord
  2
DOT2
 70
    0
  3
Dot (.5x) .....................................
 72
   65
 73
    2
 40
3.175
 49
0
 74
    0
 49
-3.175
 74
    0
  0
LTYPE
  5
35
330
5
100
AcDbSymbolTableRecord
100
AcDbLinetypeTableRecord
  2
DOTX2
 70
    0
  3
Dot (2x) .  .  .  .  .  .  .  .  .  .  .  .  .
 72
   65
 73
    2
 40
12.7
 49
0
 74
    0
 49
-12.7
 74
    0
  0
LTYPE
  5
36
330
5
100
AcDbSymbolTableRecord
100
AcDbLinetypeTableRecord
  2
DASHED
 70
    0
  3
Dashed _ _ _ _ _ _ _ _ _ _ _ _ _ _ _ _ _
 72
   65
 73
    2
 40
19.05
 49
12.7
 74
    0
 49
-6.35
 74
    0
  0
LTYPE
  5
37
330
5
100
AcDbSymbolTableRecord
100
AcDbLinetypeTableRecord
  2
DASHEDTINY
 70
    0
  3
Dashed (.15x) _ _ _ _ _ _ _ _ _ _ _ _ _ _ _ _ _
 72
   65
 73
    2
 40
2.8575
 49
1.905
 74
    0
 49
-0.9525
 74
    0
  0
LTYPE
  5
38
330
5
100
AcDbSymbolTableRecord
100
AcDbLinetypeTableRecord
  2
DASHED2
 70
    0
  3
Dashed (.5x) _ _ _ _ _ _ _ _ _ _ _ _ _ _ _ _ _
 72
   65
 73
    2
 40
9.524999999999999
 49
6.35
 74
    0
 49
-3.175
 74
    0
  0
LTYPE
  5
39
330
5
100
AcDbSymbolTableRecord
100
AcDbLinetypeTableRecord
  2
DASHEDX2
 70
    0
  3
Dashed (2x) ____  ____  ____  ____  ____  ___
 72
   65
 73
    2
 40
38.09999999999999
 49
25.4
 74
    0
 49
-12.7
 74
    0
  0
LTYPE
  5
3A
330
5
100
AcDbSymbolTableRecord
100
AcDbLinetypeTableRecord
  2
DASHDOT
 70
    0
  3
Dash dot __ . __ . __ . __ . __ . __ . __ . __
 72
   65
 73
    4
 40
25.4
 49
12.7
 74
    0
 49
-6.35
 74
    0
 49
0
 74
    0
 49
-6.35
 74
    0
  0
LTYPE
  5
3B
330
5
100
AcDbSymbolTableRecord
100
AcDbLinetypeTableRecord
  2
DASHDOTTINY
 70
    0
  3
Dash dot (.15x) _._._._._._._._._._._._._._._.
 72
   65
 73
    4
 40
3.81
 49
1.905
 74
    0
 49
-0.9525
 74
    0
 49
0
 74
    0
 49
-0.9525
 74
    0
  0
LTYPE
  5
3C
330
5
100
AcDbSymbolTableRecord
100
AcDbLinetypeTableRecord
  2
DASHDOT2
 70
    0
  3
Dash dot (.5x) _._._._._._._._._._._._._._._.
 72
   65
 73
    4
 40
12.7
 49
6.35
 74
    0
 49
-3.175
 74
    0
 49
0
 74
    0
 49
-3.175
 74
    0
  0
LTYPE
  5
3D
330
5
100
AcDbSymbolTableRecord
100
AcDbLinetypeTableRecord
  2
DASHDOTX2
 70
    0
  3
Dash dot (2x) ____  .  ____  .  ____  .  ___
 72
   65
 73
    4
 40
50.8
 49
25.4
 74
    0
 49
-12.7
 74
    0
 49
0
 74
    0
 49
-12.7
 74
    0
  0
LTYPE
  5
3E
330
5
100
AcDbSymbolTableRecord
100
AcDbLinetypeTableRecord
  2
DIVIDE
 70
    0
  3
Divide ____ . . ____ . . ____ . . ____ . . ____
 72
   65
 73
    6
 40
31.75
 49
12.7
 74
    0
 49
-6.35
 74
    0
 49
0
 74
    0
 49
-6.35
 74
    0
 49
0
 74
    0
 49
-6.35
 74
    0
  0
LTYPE
  5
3F
330
5
100
AcDbSymbolTableRecord
100
AcDbLinetypeTableRecord
  2
DIVIDETINY
 70
    0
  3
Divide (.15x) __..__..__..__..__..__..__..__.._
 72
   65
 73
    6
 40
4.7625
 49
1.905
 74
    0
 49
-0.9525
 74
    0
 49
0
 74
    0
 49
-0.9525
 74
    0
 49
0
 74
    0
 49
-0.9525
 74
    0
  0
LTYPE
  5
40
330
5
100
AcDbSymbolTableRecord
100
AcDbLinetypeTableRecord
  2
DIVIDE2
 70
    0
  3
Divide (.5x) __..__..__..__..__..__..__..__.._
 72
   65
 73
    6
 40
15.875
 49
6.35
 74
    0
 49
-3.175
 74
    0
 49
0
 74
    0
 49
-3.175
 74
    0
 49
0
 74
    0
 49
-3.175
 74
    0
  0
LTYPE
  5
41
330
5
100
AcDbSymbolTableRecord
100
AcDbLinetypeTableRecord
  2
DIVIDEX2
 70
    0
  3
Divide (2x) ________  .  .  ________  .  .  _
 72
   65
 73
    6
 40
63.5
 49
25.4
 74
    0
 49
-12.7
 74
    0
 49
0
 74
    0
 49
-12.7
 74
    0
 49
0
 74
    0
 49
-12.7
 74
    0
  0
LTYPE
  5
42
330
5
100
AcDbSymbolTableRecord
100
AcDbLinetypeTableRecord
  2
BORDER
 70
    0
  3
Border __ __ . __ __ . __ __ . __ __ . __ __ .
 72
   65
 73
    6
 40
44.45
 49
12.7
 74
    0
 49
-6.35
 74
    0
 49
12.7
 74
    0
 49
-6.35
 74
    0
 49
0
 74
    0
 49
-6.35
 74
    0
  0
LTYPE
  5
43
330
5
100
AcDbSymbolTableRecord
100
AcDbLinetypeTableRecord
  2
BORDERTINY
 70
    0
  3
Border (.15x) __.__.__.__.__.__.__.__.__.__.__.
 72
   65
 73
    6
 40
6.6675
 49
1.905
 74
    0
 49
-0.9525
 74
    0
 49
1.905
 74
    0
 49
-0.9525
 74
    0
 49
0
 74
    0
 49
-0.9525
 74
    0
  0
LTYPE
  5
44
330
5
100
AcDbSymbolTableRecord
100
AcDbLinetypeTableRecord
  2
BORDER2
 70
    0
  3
Border (.5x) __.__.__.__.__.__.__.__.__.__.__.
 72
   65
 73
    6
 40
22.225
 49
6.35
 74
    0
 49
-3.175
 74
    0
 49
6.35
 74
    0
 49
-3.175
 74
    0
 49
0
 74
    0
 49
-3.175
 74
    0
  0
LTYPE
  5
45
330
5
100
AcDbSymbolTableRecord
100
AcDbLinetypeTableRecord
  2
BORDERX2
 70
    0
  3
Border (2x) ____  ____  .  ____  ____  .  ___
 72
   65
 73
    6
 40
88.89999999999999
 49
25.4
 74
    0
 49
-12.7
 74
    0
 49
25.4
 74
    0
 49
-12.7
 74
    0
 49
0
 74
    0
 49
-12.7
 74
    0
  0
LTYPE
  5
46
330
5
100
AcDbSymbolTableRecord
100
AcDbLinetypeTableRecord
  2
CENTER
 70
    0
  3
Center ____ _ ____ _ ____ _ ____ _ ____ _ ____
 72
   65
 73
    4
 40
50.8
 49
31.75
 74
    0
 49
-6.35
 74
    0
 49
6.35
 74
    0
 49
-6.35
 74
    0
  0
LTYPE
  5
47
330
5
100
AcDbSymbolTableRecord
100
AcDbLinetypeTableRecord
  2
CENTERTINY
 70
    0
  3
Center (.15x) ___ _ ___ _ ___ _ ___ _ ___ _ ___
 72
   65
 73
    4
 40
7.619999999999999
 49
4.7625
 74
    0
 49
-0.9525
 74
    0
 49
0.9525
 74
    0
 49
-0.9525
 74
    0
  0
LTYPE
  5
48
330
5
100
AcDbSymbolTableRecord
100
AcDbLinetypeTableRecord
  2
CENTER2
 70
    0
  3
Center (.5x) ___ _ ___ _ ___ _ ___ _ ___ _ ___
 72
   65
 73
    4
 40
28.575
 49
19.05
 74
    0
 49
-3.175
 74
    0
 49
3.175
 74
    0
 49
-3.175
 74
    0
  0
LTYPE
  5
49
330
5
100
AcDbSymbolTableRecord
100
AcDbLinetypeTableRecord
  2
CENTERX2
 70
    0
  3
Center (2x) ________  __  ________  __  _____
 72
   65
 73
    4
 40
101.6
 49
63.5
 74
    0
 49
-12.7
 74
    0
 49
12.7
 74
    0
 49
-12.7
 74
    0
  0
ENDTAB
  0
TABLE
  2
LAYER
  5
2
330
0
100
AcDbSymbolTable
 70
    1
  0
LAYER
  5
10
330
2
100
AcDbSymbolTableRecord
100
AcDbLayerTableRecord
  2
0
 70
    0
 62
    7
  6
CONTINUOUS
370
    0
390
F
  0
LAYER
  5
4A
330
2
100
AcDbSymbolTableRecord
100
AcDbLayerTableRecord
  2
20
 70
    0
 62
    7
  6
CONTINUOUS
370
   -3
390
F
  0
LAYER
  5
4B
330
2
100
AcDbSymbolTableRecord
100
AcDbLayerTableRecord
  2
47
 70
    0
 62
    2
  6
CONTINUOUS
370
   -3
390
F
  0
ENDTAB
  0
TABLE
  2
STYLE
  5
3
330
0
100
AcDbSymbolTable
 70
    3
  0
STYLE
  5
4C
330
2
100
AcDbSymbolTableRecord
100
AcDbTextStyleTableRecord
  2
Standard
 70
    0
 40
0
 41
1
 50
0
 71
    0
 42
1
  3
txt
  4

  0
ENDTAB
  0
TABLE
  2
VIEW
  5
6
330
0
100
AcDbSymbolTable
 70
    0
  0
ENDTAB
  0
TABLE
  2
UCS
  5
7
330
0
100
AcDbSymbolTable
 70
    0
  0
ENDTAB
  0
TABLE
  2
APPID
  5
9
330
0
100
AcDbSymbolTable
 70
    1
  0
APPID
  5
12
330
9
100
AcDbSymbolTableRecord
100
AcDbRegAppTableRecord
  2
ACAD
 70
    0
  0
APPID
  5
4D
330
9
100
AcDbSymbolTableRecord
100
AcDbRegAppTableRecord
  2
LibreCad
 70
    0
  0
ENDTAB
  0
TABLE
  2
DIMSTYLE
  5
A
330
0
100
AcDbSymbolTable
 70
    1
100
AcDbDimStyleTable
 71
    1
  0
DIMSTYLE
105
4E
330
A
100
AcDbSymbolTableRecord
100
AcDbDimStyleTableRecord
  2
Standard
 70
    0
 40
1
 41
2.5
 42
0.625
 43
0.38
 44
1.25
 45
0
 46
0
 47
0
 48
0
 49
1
140
2.5
141
0.09
142
2.5
143
25.4
144
1
145
0
146
1
147
0.625
148
0
 71
    0
 72
    0
 73
    0
 74
    1
 75
    0
 76
    0
 77
    0
 78
    1
 79
    0
170
    0
171
    2
172
    0
173
    0
174
    0
175
    0
176
    0
177
    0
178
    0
179
    0
271
    2
272
    4
273
    2
274
    2
275
    0
276
    0
277
    2
278
    0
279
    0
280
    0
281
    0
282
    0
283
    1
284
    0
285
    0
286
    0
288
    0
289
    3
340
standard
341

371
   -2
372
   -2
  0
ENDTAB
  0
TABLE
  2
BLOCK_RECORD
  5
1
330
0
100
AcDbSymbolTable
 70
    2
  0
BLOCK_RECORD
  5
1F
330
1
100
AcDbSymbolTableRecord
100
AcDbBlockTableRecord
  2
*Model_Space
 70
    0
280
    1
281
    0
  0
BLOCK_RECORD
  5
1E
330
1
100
AcDbSymbolTableRecord
100
AcDbBlockTableRecord
  2
*Paper_Space
 70
    0
280
    1
281
    0
  0
BLOCK_RECORD
  5
4F
330
1
100
AcDbSymbolTableRecord
100
AcDbBlockTableRecord
  2
RECT
 70
    0
280
    1
281
    0
  0
BLOCK_RECORD
  5
52
330
1
100
AcDbSymbolTableRecord
100
AcDbBlockTableRecord
  2
PIE
 70
    0
280
    1
281
    0
  0
BLOCK_RECORD
  5
55
330
1
100
AcDbSymbolTableRecord
100
AcDbBlockTableRecord
  2
OCTAGONP
 70
    0
280
    1
281
    0
  0
BLOCK_RECORD
  5
58
330
1
100
AcDbSymbolTableRecord
100
AcDbBlockTableRecord
  2
SQUAREP
 70
    0
280
    1
281
    0
  0
BLOCK_RECORD
  5
5B
330
1
100
AcDbSymbolTableRecord
100
AcDbBlockTableRecord
  2
ROUNDP
 70
    0
280
    1
281
    0
  0
BLOCK_RECORD
  5
5E
330
1
100
AcDbSymbolTableRecord
100
AcDbBlockTableRecord
  2
ANNULUSP
 70
    0
280
    1
281
    0
  0
BLOCK_RECORD
  5
61
330
1
100
AcDbSymbolTableRecord
100
AcDbBlockTableRecord
  2
THERMALP
 70
    0
280
    1
281
    0
  0
BLOCK_RECORD
  5
64
330
1
100
AcDbSymbolTableRecord
100
AcDbBlockTableRecord
  2
OCTAGONV
 70
    0
280
    1
281
    0
  0
BLOCK_RECORD
  5
67
330
1
100
AcDbSymbolTableRecord
100
AcDbBlockTableRecord
  2
SQUAREV
 70
    0
280
    1
281
    0
  0
BLOCK_RECORD
  5
6A
330
1
100
AcDbSymbolTableRecord
100
AcDbBlockTableRecord
  2
ROUNDV
 70
    0
280
    1
281
    0
  0
BLOCK_RECORD
  5
6D
330
1
100
AcDbSymbolTableRecord
100
AcDbBlockTableRecord
  2
ANNULUSV
 70
    0
280
    1
281
    0
  0
BLOCK_RECORD
  5
70
330
1
100
AcDbSymbolTableRecord
100
AcDbBlockTableRecord
  2
THERMALV
 70
    0
280
    1
281
    0
  0
ENDTAB
  0
ENDSEC
  0
SECTION
  2
BLOCKS
  0
BLOCK
  5
20
330
1F
100
AcDbEntity
  8
0
100
AcDbBlockBegin
  2
*Model_Space
 70
    0
 10
0
 20
0
 30
0
  3
*Model_Space
  1

  0
ENDBLK
  5
21
330
1F
100
AcDbEntity
  8
0
100
AcDbBlockEnd
  0
BLOCK
  5
1C
330
1B
100
AcDbEntity
  8
0
100
AcDbBlockBegin
  2
*Paper_Space
 70
    0
 10
0
 20
0
 30
0
  3
*Paper_Space
  1

  0
ENDBLK
  5
1D
330
1F
100
AcDbEntity
  8
0
100
AcDbBlockEnd
  0
BLOCK
  5
50
330
4F
100
AcDbEntity
  8
0
100
AcDbBlockBegin
  2
RECT
 70
    0
 10
0
 20
0
  3
RECT
  1

  0
SOLID
  5
73
100
AcDbEntity
  8
0
  6
ByLayer
 62
  256
370
   -1
100
AcDbTrace
 10
-0.5
 20
-0.5
 30
0
 11
0.5
 21
-0.5
 31
0
 12
-0.5
 22
0.5
 32
0
 13
0.5
 23
0.5
 33
0
  0
ENDBLK
  5
51
330
4F
100
AcDbEntity
  8
0
100
AcDbBlockEnd
  0
BLOCK
  5
53
330
52
100
AcDbEntity
  8
0
100
AcDbBlockBegin
  2
PIE
 70
    0
 10
0
 20
0
  3
PIE
  1

  0
CIRCLE
  5
74
100
AcDbEntity
  8
0
  6
ByLayer
 62
  256
370
   -1
100
AcDbCircle
 10
0
 20
0
 40
0.5
  0
ENDBLK
  5
54
330
52
100
AcDbEntity
  8
0
100
AcDbBlockEnd
  0
BLOCK
  5
56
330
55
100
AcDbEntity
  8
0
100
AcDbBlockBegin
  2
OCTAGONP
 70
    0
 10
0
 20
0
  3
OCTAGONP
  1

  0
LWPOLYLINE
  5
75
100
AcDbEntity
  8
0
  6
ByLayer
 62
  256
370
   -1
100
AcDbPolyline
 90
    8
 70
    1
 43
0
 10
-0.5
 20
-0.2071
 10
-0.5
 20
0.2071
 10
-0.2071
 20
0.5
 10
0.2071
 20
0.5
 10
0.5
 20
0.2071
 10
0.5
 20
-0.2071
 10
0.2071
 20
-0.5
 10
-0.2071
 20
-0.5
  0
ENDBLK
  5
57
330
55
100
AcDbEntity
  8
0
100
AcDbBlockEnd
  0
BLOCK
  5
59
330
58
100
AcDbEntity
  8
0
100
AcDbBlockBegin
  2
SQUAREP
 70
    0
 10
0
 20
0
  3
SQUAREP
  1

  0
SOLID
  5
76
100
AcDbEntity
  8
0
  6
ByLayer
 62
  256
370
   -1
100
AcDbTrace
 10
-0.5
 20
-0.5
 30
0
 11
0.5
 21
-0.5
 31
0
 12
-0.5
 22
0.5
 32
0
 13
0.5
 23
0.5
 33
0
  0
ENDBLK
  5
5A
330
58
100
AcDbEntity
  8
0
100
AcDbBlockEnd
  0
BLOCK
  5
5C
330
5B
100
AcDbEntity
  8
0
100
AcDbBlockBegin
  2
ROUNDP
 70
    0
 10
0
 20
0
  3
ROUNDP
  1

  0
CIRCLE
  5
77
100
AcDbEntity
  8
0
  6
ByLayer
 62
  256
370
   -1
100
AcDbCircle
 10
0
 20
0
 40
0.5
  0
ENDBLK
  5
5D
330
5B
100
AcDbEntity
  8
0
100
AcDbBlockEnd
  0
BLOCK
  5
5F
330
5E
100
AcDbEntity
  8
0
100
AcDbBlockBegin
  2
ANNULUSP
 70
    0
 10
0
 20
0
  3
ANNULUSP
  1

  0
CIRCLE
  5
78
100
AcDbEntity
  8
0
  6
ByLayer
 62
  256
370
   -1
100
AcDbCircle
 10
0
 20
0
 40
0.5
  0
ENDBLK
  5
60
330
5E
100
AcDbEntity
  8
0
100
AcDbBlockEnd
  0
BLOCK
  5
62
330
61
100
AcDbEntity
  8
0
100
AcDbBlockBegin
  2
THERMALP
 70
    0
 10
0
 20
0
  3
THERMALP
  1

  0
LINE
  5
79
100
AcDbEntity
  8
0
  6
ByLayer
 62
  256
370
   -1
100
AcDbLine
 10
-0.2379
 20
0.45
 11
0.2379
 21
0.45
  0
LINE
  5
7A
100
AcDbEntity
  8
0
  6
ByLayer
 62
  256
370
   -1
100
AcDbLine
 10
0.45
 20
0.2379
 11
0.45
 21
-0.2379
  0
LINE
  5
7B
100
AcDbEntity
  8
0
  6
ByLayer
 62
  256
370
   -1
100
AcDbLine
 10
0.2379
 20
-0.45
 11
-0.2379
 21
-0.45
  0
LINE
  5
7C
100
AcDbEntity
  8
0
  6
ByLayer
 62
  256
370
   -1
100
AcDbLine
 10
-0.45
 20
-0.2379
 11
-0.45
 21
0.2379
  0
ENDBLK
  5
63
330
61
100
AcDbEntity
  8
0
100
AcDbBlockEnd
  0
BLOCK
  5
65
330
64
100
AcDbEntity
  8
0
100
AcDbBlockBegin
  2
OCTAGONV
 70
    0
 10
0
 20
0
  3
OCTAGONV
  1

  0
LWPOLYLINE
  5
7D
100
AcDbEntity
  8
0
  6
ByLayer
 62
  256
370
   -1
100
AcDbPolyline
 90
    8
 70
    1
 43
0
 10
-0.5
 20
-0.2071
 10
-0.5
 20
0.2071
 10
-0.2071
 20
0.5
 10
0.2071
 20
0.5
 10
0.5
 20
0.2071
 10
0.5
 20
-0.2071
 10
0.2071
 20
-0.5
 10
-0.2071
 20
-0.5
  0
ENDBLK
  5
66
330
64
100
AcDbEntity
  8
0
100
AcDbBlockEnd
  0
BLOCK
  5
68
330
67
100
AcDbEntity
  8
0
100
AcDbBlockBegin
  2
SQUAREV
 70
    0
 10
0
 20
0
  3
SQUAREV
  1

  0
SOLID
  5
7E
100
AcDbEntity
  8
0
  6
ByLayer
 62
  256
370
   -1
100
AcDbTrace
 10
-0.5
 20
-0.5
 30
0
 11
0.5
 21
-0.5
 31
0
 12
-0.5
 22
0.5
 32
0
 13
0.5
 23
0.5
 33
0
  0
ENDBLK
  5
69
330
67
100
AcDbEntity
  8
0
100
AcDbBlockEnd
  0
BLOCK
  5
6B
330
6A
100
AcDbEntity
  8
0
100
AcDbBlockBegin
  2
ROUNDV
 70
    0
 10
0
 20
0
  3
ROUNDV
  1

  0
CIRCLE
  5
7F
100
AcDbEntity
  8
0
  6
ByLayer
 62
  256
370
   -1
100
AcDbCircle
 10
0
 20
0
 40
0.5
  0
ENDBLK
  5
6C
330
6A
100
AcDbEntity
  8
0
100
AcDbBlockEnd
  0
BLOCK
  5
6E
330
6D
100
AcDbEntity
  8
0
100
AcDbBlockBegin
  2
ANNULUSV
 70
    0
 10
0
 20
0
  3
ANNULUSV
  1

  0
CIRCLE
  5
80
100
AcDbEntity
  8
0
  6
ByLayer
 62
  256
370
   -1
100
AcDbCircle
 10
0
 20
0
 40
0.5
  0
ENDBLK
  5
6F
330
6D
100
AcDbEntity
  8
0
100
AcDbBlockEnd
  0
BLOCK
  5
71
330
70
100
AcDbEntity
  8
0
100
AcDbBlockBegin
  2
THERMALV
 70
    0
 10
0
 20
0
  3
THERMALV
  1

  0
LINE
  5
81
100
AcDbEntity
  8
0
  6
ByLayer
 62
  256
370
   -1
100
AcDbLine
 10
-0.2379
 20
0.45
 11
0.2379
 21
0.45
  0
LINE
  5
82
100
AcDbEntity
  8
0
  6
ByLayer
 62
  256
370
   -1
100
AcDbLine
 10
0.45
 20
0.2379
 11
0.45
 21
-0.2379
  0
LINE
  5
83
100
AcDbEntity
  8
0
  6
ByLayer
 62
  256
370
   -1
100
AcDbLine
 10
0.2379
 20
-0.45
 11
-0.2379
 21
-0.45
  0
LINE
  5
84
100
AcDbEntity
  8
0
  6
ByLayer
 62
  256
370
   -1
100
AcDbLine
 10
-0.45
 20
-0.2379
 11
-0.45
 21
0.2379
  0
ENDBLK
  5
72
330
70
100
AcDbEntity
  8
0
100
AcDbBlockEnd
  0
ENDSEC
  0
SECTION
  2
ENTITIES
  0
LINE
  5
85
100
AcDbEntity
  8
20
  6
ByLayer
 62
  256
370
   -1
100
AcDbLine
 10
197.5
 20
58.5
 11
197.5
 21
76
  0
LINE
  5
86
100
AcDbEntity
  8
20
  6
ByLayer
 62
  256
370
   -1
100
AcDbLine
 10
197.5
 20
76
 11
180.5
 21
76
  0
LINE
  5
87
100
AcDbEntity
  8
20
  6
ByLayer
 62
  256
370
   -1
100
AcDbLine
 10
180.5
 20
76
 11
180.5
 21
58.5
  0
LINE
  5
88
100
AcDbEntity
  8
20
  6
ByLayer
 62
  256
370
   -1
100
AcDbLine
 10
180.5
 20
58.5
 11
197.5
 21
58.5
  0
LINE
  5
89
100
AcDbEntity
  8
20
  6
ByLayer
 62
  256
370
   -1
100
AcDbLine
 10
170
 20
60
 11
170
 21
72
  0
LINE
  5
8A
100
AcDbEntity
  8
20
  6
ByLayer
 62
  256
370
   -1
100
AcDbLine
 10
170
 20
72
 11
157.5
 21
72
  0
LINE
  5
8B
100
AcDbEntity
  8
20
  6
ByLayer
 62
  256
370
   -1
100
AcDbLine
 10
157.5
 20
72
 11
157.5
 21
60
  0
LINE
  5
8C
100
AcDbEntity
  8
20
  6
ByLayer
 62
  256
370
   -1
100
AcDbLine
 10
157.5
 20
60
 11
170
 21
60
  0
LINE
  5
8D
100
AcDbEntity
  8
20
  6
ByLayer
 62
  256
370
   -1
100
AcDbLine
 10
180.5
 20
76
 11
181.5
 21
76
  0
LINE
  5
8E
100
AcDbEntity
  8
20
  6
ByLayer
 62
  256
370
   -1
100
AcDbLine
 10
182.5
 20
76
 11
183.5
 21
76
  0
LINE
  5
8F
100
AcDbEntity
  8
20
  6
ByLayer
 62
  256
370
   -1
100
AcDbLine
 10
184.5
 20
76
 11
185.5
 21
76
  0
LINE
  5
90
100
AcDbEntity
  8
20
  6
ByLayer
 62
  256
370
   -1
100
AcDbLine
 10
186.5
 20
76
 11
187.5
 21
76
  0
LINE
  5
91
100
AcDbEntity
  8
20
  6
ByLayer
 62
  256
370
   -1
100
AcDbLine
 10
188.5
 20
76
 11
189.5
 21
76
  0
LINE
  5
92
100
AcDbEntity
  8
20
  6
ByLayer
 62
  256
370
   -1
100
AcDbLine
 10
190.5
 20
76
 11
191.5
 21
76
  0
LINE
  5
93
100
AcDbEntity
  8
20
  6
ByLayer
 62
  256
370
   -1
100
AcDbLine
 10
192.5
 20
76
 11
193.5
 21
76
  0
LINE
  5
94
100
AcDbEntity
  8
20
  6
ByLayer
 62
  256
370
   -1
100
AcDbLine
 10
194.5
 20
76
 11
195.5
 21
76
  0
LINE
  5
95
100
AcDbEntity
  8
20
  6
ByLayer
 62
  256
370
   -1
100
AcDbLine
 10
196.5
 20
76
 11
197.5
 21
76
  0
LINE
  5
96
100
AcDbEntity
  8
20
  6
ByLayer
 62
  256
370
   -1
100
AcDbLine
 10
0
 20
75
 11
0
 21
5
  0
LINE
  5
97
100
AcDbEntity
  8
20
  6
ByLayer
 62
  256
370
   -1
100
AcDbLine
 10
5
 20
80
 11
285
 21
80
  0
LINE
  5
98
100
AcDbEntity
  8
20
  6
ByLayer
 62
  256
370
   -1
100
AcDbLine
 10
285
 20
0
 11
5
 21
0
  0
ARC
  5
99
100
AcDbEntity
  8
20
  6
ByLayer
 62
  256
370
   -1
100
AcDbCircle
 10
5
 20
5
 40
5
100
AcDbArc
 50
180
 51
270
  0
LINE
  5
9A
100
AcDbEntity
  8
20
  6
ByLayer
 62
  256
370
   -1
100
AcDbLine
 10
5
 20
1.5
 11
285
 21
1.5
  0
ARC
  5
9B
100
AcDbEntity
  8
20
  6
ByLayer
 62
  256
370
   -1
100
AcDbCircle
 10
5
 20
5
 40
3.5
100
AcDbArc
 50
180
 51
270
  0
LINE
  5
9C
100
AcDbEntity
  8
20
  6
ByLayer
 62
  256
370
   -1
100
AcDbLine
 10
1.5
 20
5
 11
1.5
 21
75
  0
ARC
  5
9D
100
AcDbEntity
  8
20
  6
ByLayer
 62
  256
370
   -1
100
AcDbCircle
 10
5
 20
75
 40
3.5
100
AcDbArc
 50
90
 51
180
  0
ARC
  5
9E
100
AcDbEntity
  8
20
  6
ByLayer
 62
  256
370
   -1
100
AcDbCircle
 10
5
 20
75
 40
5
100
AcDbArc
 50
90
 51
180
  0
LINE
  5
9F
100
AcDbEntity
  8
20
  6
ByLayer
 62
  256
370
   -1
100
AcDbLine
 10
290
 20
5
 11
290
 21
75
  0
ARC
  5
A0
100
AcDbEntity
  8
20
  6
ByLayer
 62
  256
370
   -1
100
AcDbCircle
 10
285
 20
75
 40
5
100
AcDbArc
 50
0
 51
90
  0
LINE
  5
A1
100
AcDbEntity
  8
20
  6
ByLayer
 62
  256
370
   -1
100
AcDbLine
 10
285
 20
78.5
 11
5
 21
78.5
  0
ARC
  5
A2
100
AcDbEntity
  8
20
  6
ByLayer
 62
  256
370
   -1
100
AcDbCircle
 10
285
 20
75
 40
3.5
100
AcDbArc
 50
0
 51
90
  0
LINE
  5
A3
100
AcDbEntity
  8
20
  6
ByLayer
 62
  256
370
   -1
100
AcDbLine
 10
288.5
 20
75
 11
288.5
 21
5
  0
ARC
  5
A4
100
AcDbEntity
  8
20
  6
ByLayer
 62
  256
370
   -1
100
AcDbCircle
 10
285
 20
5
 40
3.5
100
AcDbArc
 50
270
 51
0
  0
ARC
  5
A5
100
AcDbEntity
  8
20
  6
ByLayer
 62
  256
370
   -1
100
AcDbCircle
 10
285
 20
5
 40
5
100
AcDbArc
 50
270
 51
0
  0
ARC
  5
A6
100
AcDbEntity
  8
20
  6
ByLayer
 62
  256
370
   -1
100
AcDbCircle
 10
74.5
 20
33
 40
22
100
AcDbArc
 50
270
 51
0
  0
LINE
  5
A7
100
AcDbEntity
  8
20
  6
ByLayer
 62
  256
370
   -1
100
AcDbLine
 10
74.5
 20
11
 11
60.5
 21
11
  0
ARC
  5
A8
100
AcDbEntity
  8
20
  6
ByLayer
 62
  256
370
   -1
100
AcDbCircle
 10
60.5
 20
33
 40
22
100
AcDbArc
 50
180
 51
270
  0
LINE
  5
A9
100
AcDbEntity
  8
20
  6
ByLayer
 62
  256
370
   -1
100
AcDbLine
 10
38.5
 20
33
 11
38.5
 21
47
  0
ARC
  5
AA
100
AcDbEntity
  8
20
  6
ByLayer
 62
  256
370
   -1
100
AcDbCircle
 10
60.5
 20
47
 40
22
100
AcDbArc
 50
90
 51
180
  0
LINE
  5
AB
100
AcDbEntity
  8
20
  6
ByLayer
 62
  256
370
   -1
100
AcDbLine
 10
60.5
 20
69
 11
74.5
 21
69
  0
ARC
  5
AC
100
AcDbEntity
  8
20
  6
ByLayer
 62
  256
370
   -1
100
AcDbCircle
 10
74.5
 20
47
 40
22
100
AcDbArc
 50
0
 51
90
  0
LINE
  5
AD
100
AcDbEntity
  8
20
  6
ByLayer
 62
  256
370
   -1
100
AcDbLine
 10
96.5
 20
47
 11
96.5
 21
33
  0
LINE
  5
AE
100
AcDbEntity
  8
20
  6
ByLayer
 62
  256
370
   -1
100
AcDbLine
 10
240.5
 20
69.40000000000001
 11
268.5
 21
69.40000000000001
  0
LINE
  5
AF
100
AcDbEntity
  8
20
  6
ByLayer
 62
  256
370
   -1
100
AcDbLine
 10
268.5
 20
69.40000000000001
 11
268.5
 21
10.6
  0
LINE
  5
B0
100
AcDbEntity
  8
20
  6
ByLayer
 62
  256
370
   -1
100
AcDbLine
 10
268.5
 20
10.6
 11
240.5
 21
10.6
  0
LINE
  5
B1
100
AcDbEntity
  8
20
  6
ByLayer
 62
  256
370
   -1
100
AcDbLine
 10
240.5
 20
10.6
 11
240.5
 21
69.40000000000001
  0
LINE
  5
B2
100
AcDbEntity
  8
47
  6
ByLayer
 62
  256
370
   -1
100
AcDbLine
 10
3.754
 20
85.254
 11
3.754
 21
89.74979999999999
  0
LINE
  5
B3
100
AcDbEntity
  8
47
  6
ByLayer
 62
  256
370
   -1
100
AcDbLine
 10
3.754
 20
89.74979999999999
 11
6.0019
 21
89.74979999999999
  0
LINE
  5
B4
100
AcDbEntity
  8
47
  6
ByLayer
 62
  256
370
   -1
100
AcDbLine
 10
6.0019
 20
89.74979999999999
 11
6.7512
 21
89.0005
  0
LINE
  5
B5
100
AcDbEntity
  8
47
  6
ByLayer
 62
  256
370
   -1
100
AcDbLine
 10
6.7512
 20
89.0005
 11
6.7512
 21
87.50190000000001
  0
LINE
  5
B6
100
AcDbEntity
  8
47
  6
ByLayer
 62
  256
370
   -1
100
AcDbLine
 10
6.7512
 20
87.50190000000001
 11
6.0019
 21
86.7526
  0
LINE
  5
B7
100
AcDbEntity
  8
47
  6
ByLayer
 62
  256
370
   -1
100
AcDbLine
 10
6.0019
 20
86.7526
 11
3.754
 21
86.7526
  0
LINE
  5
B8
100
AcDbEntity
  8
47
  6
ByLayer
 62
  256
370
   -1
100
AcDbLine
 10
5.2526
 20
86.7526
 11
6.7512
 21
85.254
  0
LINE
  5
B9
100
AcDbEntity
  8
47
  6
ByLayer
 62
  256
370
   -1
100
AcDbLine
 10
10.6059
 20
85.254
 11
9.107200000000001
 21
85.254
  0
LINE
  5
BA
100
AcDbEntity
  8
47
  6
ByLayer
 62
  256
370
   -1
100
AcDbLine
 10
9.107200000000001
 20
85.254
 11
8.357900000000001
 21
86.0033
  0
LINE
  5
BB
100
AcDbEntity
  8
47
  6
ByLayer
 62
  256
370
   -1
100
AcDbLine
 10
8.357900000000001
 20
86.0033
 11
8.357900000000001
 21
87.50190000000001
  0
LINE
  5
BC
100
AcDbEntity
  8
47
  6
ByLayer
 62
  256
370
   -1
100
AcDbLine
 10
8.357900000000001
 20
87.50190000000001
 11
9.107200000000001
 21
88.2512
  0
LINE
  5
BD
100
AcDbEntity
  8
47
  6
ByLayer
 62
  256
370
   -1
100
AcDbLine
 10
9.107200000000001
 20
88.2512
 11
10.6059
 21
88.2512
  0
LINE
  5
BE
100
AcDbEntity
  8
47
  6
ByLayer
 62
  256
370
   -1
100
AcDbLine
 10
10.6059
 20
88.2512
 11
11.3552
 21
87.50190000000001
  0
LINE
  5
BF
100
AcDbEntity
  8
47
  6
ByLayer
 62
  256
370
   -1
100
AcDbLine
 10
11.3552
 20
87.50190000000001
 11
11.3552
 21
86.7526
  0
LINE
  5
C0
100
AcDbEntity
  8
47
  6
ByLayer
 62
  256
370
   -1
100
AcDbLine
 10
11.3552
 20
86.7526
 11
8.357900000000001
 21
86.7526
  0
LINE
  5
C1
100
AcDbEntity
  8
47
  6
ByLayer
 62
  256
370
   -1
100
AcDbLine
 10
13.7112
 20
88.2512
 11
15.2098
 21
88.2512
  0
LINE
  5
C2
100
AcDbEntity
  8
47
  6
ByLayer
 62
  256
370
   -1
100
AcDbLine
 10
15.2098
 20
88.2512
 11
15.9591
 21
87.50190000000001
  0
LINE
  5
C3
100
AcDbEntity
  8
47
  6
ByLayer
 62
  256
370
   -1
100
AcDbLine
 10
15.9591
 20
87.50190000000001
 11
15.9591
 21
85.254
  0
LINE
  5
C4
100
AcDbEntity
  8
47
  6
ByLayer
 62
  256
370
   -1
100
AcDbLine
 10
15.9591
 20
85.254
 11
13.7112
 21
85.254
  0
LINE
  5
C5
100
AcDbEntity
  8
47
  6
ByLayer
 62
  256
370
   -1
100
AcDbLine
 10
13.7112
 20
85.254
 11
12.9619
 21
86.0033
  0
LINE
  5
C6
100
AcDbEntity
  8
47
  6
ByLayer
 62
  256
370
   -1
100
AcDbLine
 10
12.9619
 20
86.0033
 11
13.7112
 21
86.7526
  0
LINE
  5
C7
100
AcDbEntity
  8
47
  6
ByLayer
 62
  256
370
   -1
100
AcDbLine
 10
13.7112
 20
86.7526
 11
15.9591
 21
86.7526
  0
LINE
  5
C8
100
AcDbEntity
  8
47
  6
ByLayer
 62
  256
370
   -1
100
AcDbLine
 10
17.5658
 20
85.254
 11
17.5658
 21
88.2512
  0
LINE
  5
C9
100
AcDbEntity
  8
47
  6
ByLayer
 62
  256
370
   -1
100
AcDbLine
 10
17.5658
 20
86.7526
 11
19.0644
 21
88.2512
  0
LINE
  5
CA
100
AcDbEntity
  8
47
  6
ByLayer
 62
  256
370
   -1
100
AcDbLine
 10
19.0644
 20
88.2512
 11
19.8137
 21
88.2512
  0
LINE
  5
CB
100
AcDbEntity
  8
47
  6
ByLayer
 62
  256
370
   -1
100
AcDbLine
 10
26.0063
 20
83.75539999999999
 11
26.0063
 21
88.2512
  0
LINE
  5
CC
100
AcDbEntity
  8
47
  6
ByLayer
 62
  256
370
   -1
100
AcDbLine
 10
26.0063
 20
88.2512
 11
28.2543
 21
88.2512
  0
LINE
  5
CD
100
AcDbEntity
  8
47
  6
ByLayer
 62
  256
370
   -1
100
AcDbLine
 10
28.2543
 20
88.2512
 11
29.0036
 21
87.50190000000001
  0
LINE
  5
CE
100
AcDbEntity
  8
47
  6
ByLayer
 62
  256
370
   -1
100
AcDbLine
 10
29.0036
 20
87.50190000000001
 11
29.0036
 21
86.0033
  0
LINE
  5
CF
100
AcDbEntity
  8
47
  6
ByLayer
 62
  256
370
   -1
100
AcDbLine
 10
29.0036
 20
86.0033
 11
28.2543
 21
85.254
  0
LINE
  5
D0
100
AcDbEntity
  8
47
  6
ByLayer
 62
  256
370
   -1
100
AcDbLine
 10
28.2543
 20
85.254
 11
26.0063
 21
85.254
  0
LINE
  5
D1
100
AcDbEntity
  8
47
  6
ByLayer
 62
  256
370
   -1
100
AcDbLine
 10
31.3596
 20
88.2512
 11
32.8582
 21
88.2512
  0
LINE
  5
D2
100
AcDbEntity
  8
47
  6
ByLayer
 62
  256
370
   -1
100
AcDbLine
 10
32.8582
 20
88.2512
 11
33.6075
 21
87.50190000000001
  0
LINE
  5
D3
100
AcDbEntity
  8
47
  6
ByLayer
 62
  256
370
   -1
100
AcDbLine
 10
33.6075
 20
87.50190000000001
 11
33.6075
 21
85.254
  0
LINE
  5
D4
100
AcDbEntity
  8
47
  6
ByLayer
 62
  256
370
   -1
100
AcDbLine
 10
33.6075
 20
85.254
 11
31.3596
 21
85.254
  0
LINE
  5
D5
100
AcDbEntity
  8
47
  6
ByLayer
 62
  256
370
   -1
100
AcDbLine
 10
31.3596
 20
85.254
 11
30.6103
 21
86.0033
  0
LINE
  5
D6
100
AcDbEntity
  8
47
  6
ByLayer
 62
  256
370
   -1
100
AcDbLine
 10
30.6103
 20
86.0033
 11
31.3596
 21
86.7526
  0
LINE
  5
D7
100
AcDbEntity
  8
47
  6
ByLayer
 62
  256
370
   -1
100
AcDbLine
 10
31.3596
 20
86.7526
 11
33.6075
 21
86.7526
  0
LINE
  5
D8
100
AcDbEntity
  8
47
  6
ByLayer
 62
  256
370
   -1
100
AcDbLine
 10
35.2142
 20
85.254
 11
35.2142
 21
88.2512
  0
LINE
  5
D9
100
AcDbEntity
  8
47
  6
ByLayer
 62
  256
370
   -1
100
AcDbLine
 10
35.2142
 20
88.2512
 11
37.4621
 21
88.2512
  0
LINE
  5
DA
100
AcDbEntity
  8
47
  6
ByLayer
 62
  256
370
   -1
100
AcDbLine
 10
37.4621
 20
88.2512
 11
38.2114
 21
87.50190000000001
  0
LINE
  5
DB
100
AcDbEntity
  8
47
  6
ByLayer
 62
  256
370
   -1
100
AcDbLine
 10
38.2114
 20
87.50190000000001
 11
38.2114
 21
85.254
  0
LINE
  5
DC
100
AcDbEntity
  8
47
  6
ByLayer
 62
  256
370
   -1
100
AcDbLine
 10
42.0661
 20
85.254
 11
40.5675
 21
85.254
  0
LINE
  5
DD
100
AcDbEntity
  8
47
  6
ByLayer
 62
  256
370
   -1
100
AcDbLine
 10
40.5675
 20
85.254
 11
39.8182
 21
86.0033
  0
LINE
  5
DE
100
AcDbEntity
  8
47
  6
ByLayer
 62
  256
370
   -1
100
AcDbLine
 10
39.8182
 20
86.0033
 11
39.8182
 21
87.50190000000001
  0
LINE
  5
DF
100
AcDbEntity
  8
47
  6
ByLayer
 62
  256
370
   -1
100
AcDbLine
 10
39.8182
 20
87.50190000000001
 11
40.5675
 21
88.2512
  0
LINE
  5
E0
100
AcDbEntity
  8
47
  6
ByLayer
 62
  256
370
   -1
100
AcDbLine
 10
40.5675
 20
88.2512
 11
42.0661
 21
88.2512
  0
LINE
  5
E1
100
AcDbEntity
  8
47
  6
ByLayer
 62
  256
370
   -1
100
AcDbLine
 10
42.0661
 20
88.2512
 11
42.8154
 21
87.50190000000001
  0
LINE
  5
E2
100
AcDbEntity
  8
47
  6
ByLayer
 62
  256
370
   -1
100
AcDbLine
 10
42.8154
 20
87.50190000000001
 11
42.8154
 21
86.7526
  0
LINE
  5
E3
100
AcDbEntity
  8
47
  6
ByLayer
 62
  256
370
   -1
100
AcDbLine
 10
42.8154
 20
86.7526
 11
39.8182
 21
86.7526
  0
LINE
  5
E4
100
AcDbEntity
  8
47
  6
ByLayer
 62
  256
370
   -1
100
AcDbLine
 10
44.4221
 20
89.74979999999999
 11
45.1714
 21
89.74979999999999
  0
LINE
  5
E5
100
AcDbEntity
  8
47
  6
ByLayer
 62
  256
370
   -1
100
AcDbLine
 10
45.1714
 20
89.74979999999999
 11
45.1714
 21
85.254
  0
LINE
  5
E6
100
AcDbEntity
  8
47
  6
ByLayer
 62
  256
370
   -1
100
AcDbLine
 10
44.4221
 20
85.254
 11
45.9207
 21
85.254
  0
LINE
  5
E7
100
AcDbEntity
  8
47
  6
ByLayer
 62
  256
370
   -1
100
AcDbLine
 10
52.8446
 20
85.254
 11
52.8446
 21
89.0005
  0
LINE
  5
E8
100
AcDbEntity
  8
47
  6
ByLayer
 62
  256
370
   -1
100
AcDbLine
 10
52.8446
 20
89.0005
 11
53.5939
 21
89.74979999999999
  0
LINE
  5
E9
100
AcDbEntity
  8
47
  6
ByLayer
 62
  256
370
   -1
100
AcDbLine
 10
52.0953
 20
87.50190000000001
 11
53.5939
 21
87.50190000000001
  0
LINE
  5
EA
100
AcDbEntity
  8
47
  6
ByLayer
 62
  256
370
   -1
100
AcDbLine
 10
55.9139
 20
85.254
 11
57.4125
 21
85.254
  0
LINE
  5
EB
100
AcDbEntity
  8
47
  6
ByLayer
 62
  256
370
   -1
100
AcDbLine
 10
57.4125
 20
85.254
 11
58.1618
 21
86.0033
  0
LINE
  5
EC
100
AcDbEntity
  8
47
  6
ByLayer
 62
  256
370
   -1
100
AcDbLine
 10
58.1618
 20
86.0033
 11
58.1618
 21
87.50190000000001
  0
LINE
  5
ED
100
AcDbEntity
  8
47
  6
ByLayer
 62
  256
370
   -1
100
AcDbLine
 10
58.1618
 20
87.50190000000001
 11
57.4125
 21
88.2512
  0
LINE
  5
EE
100
AcDbEntity
  8
47
  6
ByLayer
 62
  256
370
   -1
100
AcDbLine
 10
57.4125
 20
88.2512
 11
55.9139
 21
88.2512
  0
LINE
  5
EF
100
AcDbEntity
  8
47
  6
ByLayer
 62
  256
370
   -1
100
AcDbLine
 10
55.9139
 20
88.2512
 11
55.1646
 21
87.50190000000001
  0
LINE
  5
F0
100
AcDbEntity
  8
47
  6
ByLayer
 62
  256
370
   -1
100
AcDbLine
 10
55.1646
 20
87.50190000000001
 11
55.1646
 21
86.0033
  0
LINE
  5
F1
100
AcDbEntity
  8
47
  6
ByLayer
 62
  256
370
   -1
100
AcDbLine
 10
55.1646
 20
86.0033
 11
55.9139
 21
85.254
  0
LINE
  5
F2
100
AcDbEntity
  8
47
  6
ByLayer
 62
  256
370
   -1
100
AcDbLine
 10
59.7685
 20
85.254
 11
59.7685
 21
88.2512
  0
LINE
  5
F3
100
AcDbEntity
  8
47
  6
ByLayer
 62
  256
370
   -1
100
AcDbLine
 10
59.7685
 20
86.7526
 11
61.2671
 21
88.2512
  0
LINE
  5
F4
100
AcDbEntity
  8
47
  6
ByLayer
 62
  256
370
   -1
100
AcDbLine
 10
61.2671
 20
88.2512
 11
62.0164
 21
88.2512
  0
LINE
  5
F5
100
AcDbEntity
  8
47
  6
ByLayer
 62
  256
370
   -1
100
AcDbLine
 10
68.20910000000001
 20
85.254
 11
69.7077
 21
85.254
  0
LINE
  5
F6
100
AcDbEntity
  8
47
  6
ByLayer
 62
  256
370
   -1
100
AcDbLine
 10
68.9584
 20
85.254
 11
68.9584
 21
89.74979999999999
  0
LINE
  5
F7
100
AcDbEntity
  8
47
  6
ByLayer
 62
  256
370
   -1
100
AcDbLine
 10
68.20910000000001
 20
89.74979999999999
 11
69.7077
 21
89.74979999999999
  0
LINE
  5
F8
100
AcDbEntity
  8
47
  6
ByLayer
 62
  256
370
   -1
100
AcDbLine
 10
74.2756
 20
89.74979999999999
 11
71.2784
 21
89.74979999999999
  0
LINE
  5
F9
100
AcDbEntity
  8
47
  6
ByLayer
 62
  256
370
   -1
100
AcDbLine
 10
71.2784
 20
89.74979999999999
 11
71.2784
 21
85.254
  0
LINE
  5
FA
100
AcDbEntity
  8
47
  6
ByLayer
 62
  256
370
   -1
100
AcDbLine
 10
71.2784
 20
85.254
 11
74.2756
 21
85.254
  0
LINE
  5
FB
100
AcDbEntity
  8
47
  6
ByLayer
 62
  256
370
   -1
100
AcDbLine
 10
71.2784
 20
87.50190000000001
 11
72.777
 21
87.50190000000001
  0
LINE
  5
FC
100
AcDbEntity
  8
47
  6
ByLayer
 62
  256
370
   -1
100
AcDbLine
 10
78.87949999999999
 20
89.0005
 11
78.1302
 21
89.74979999999999
  0
LINE
  5
FD
100
AcDbEntity
  8
47
  6
ByLayer
 62
  256
370
   -1
100
AcDbLine
 10
78.1302
 20
89.74979999999999
 11
76.63160000000001
 21
89.74979999999999
  0
LINE
  5
FE
100
AcDbEntity
  8
47
  6
ByLayer
 62
  256
370
   -1
100
AcDbLine
 10
76.63160000000001
 20
89.74979999999999
 11
75.8823
 21
89.0005
  0
LINE
  5
FF
100
AcDbEntity
  8
47
  6
ByLayer
 62
  256
370
   -1
100
AcDbLine
 10
75.8823
 20
89.0005
 11
75.8823
 21
86.0033
  0
LINE
  5
100
100
AcDbEntity
  8
47
  6
ByLayer
 62
  256
370
   -1
100
AcDbLine
 10
75.8823
 20
86.0033
 11
76.63160000000001
 21
85.254
  0
LINE
  5
101
100
AcDbEntity
  8
47
  6
ByLayer
 62
  256
370
   -1
100
AcDbLine
 10
76.63160000000001
 20
85.254
 11
78.1302
 21
85.254
  0
LINE
  5
102
100
AcDbEntity
  8
47
  6
ByLayer
 62
  256
370
   -1
100
AcDbLine
 10
78.1302
 20
85.254
 11
78.87949999999999
 21
86.0033
  0
LINE
  5
103
100
AcDbEntity
  8
47
  6
ByLayer
 62
  256
370
   -1
100
AcDbLine
 10
85.0902
 20
88.2512
 11
85.8395
 21
88.2512
  0
LINE
  5
104
100
AcDbEntity
  8
47
  6
ByLayer
 62
  256
370
   -1
100
AcDbLine
 10
85.8395
 20
88.2512
 11
85.8395
 21
85.254
  0
LINE
  5
105
100
AcDbEntity
  8
47
  6
ByLayer
 62
  256
370
   -1
100
AcDbLine
 10
85.0902
 20
85.254
 11
86.58880000000001
 21
85.254
  0
LINE
  5
106
100
AcDbEntity
  8
47
  6
ByLayer
 62
  256
370
   -1
100
AcDbLine
 10
85.8395
 20
90.4991
 11
85.8395
 21
89.74979999999999
  0
LINE
  5
107
100
AcDbEntity
  8
47
  6
ByLayer
 62
  256
370
   -1
100
AcDbLine
 10
88.15949999999999
 20
85.254
 11
88.15949999999999
 21
88.2512
  0
LINE
  5
108
100
AcDbEntity
  8
47
  6
ByLayer
 62
  256
370
   -1
100
AcDbLine
 10
88.15949999999999
 20
88.2512
 11
90.4074
 21
88.2512
  0
LINE
  5
109
100
AcDbEntity
  8
47
  6
ByLayer
 62
  256
370
   -1
100
AcDbLine
 10
90.4074
 20
88.2512
 11
91.1567
 21
87.50190000000001
  0
LINE
  5
10A
100
AcDbEntity
  8
47
  6
ByLayer
 62
  256
370
   -1
100
AcDbLine
 10
91.1567
 20
87.50190000000001
 11
91.1567
 21
85.254
  0
LINE
  5
10B
100
AcDbEntity
  8
47
  6
ByLayer
 62
  256
370
   -1
100
AcDbLine
 10
92.7634
 20
89.74979999999999
 11
93.5127
 21
89.74979999999999
  0
LINE
  5
10C
100
AcDbEntity
  8
47
  6
ByLayer
 62
  256
370
   -1
100
AcDbLine
 10
93.5127
 20
89.74979999999999
 11
93.5127
 21
85.254
  0
LINE
  5
10D
100
AcDbEntity
  8
47
  6
ByLayer
 62
  256
370
   -1
100
AcDbLine
 10
92.7634
 20
85.254
 11
94.262
 21
85.254
  0
LINE
  5
10E
100
AcDbEntity
  8
47
  6
ByLayer
 62
  256
370
   -1
100
AcDbLine
 10
98.0806
 20
85.254
 11
96.58199999999999
 21
85.254
  0
LINE
  5
10F
100
AcDbEntity
  8
47
  6
ByLayer
 62
  256
370
   -1
100
AcDbLine
 10
96.58199999999999
 20
85.254
 11
95.8327
 21
86.0033
  0
LINE
  5
110
100
AcDbEntity
  8
47
  6
ByLayer
 62
  256
370
   -1
100
AcDbLine
 10
95.8327
 20
86.0033
 11
95.8327
 21
87.50190000000001
  0
LINE
  5
111
100
AcDbEntity
  8
47
  6
ByLayer
 62
  256
370
   -1
100
AcDbLine
 10
95.8327
 20
87.50190000000001
 11
96.58199999999999
 21
88.2512
  0
LINE
  5
112
100
AcDbEntity
  8
47
  6
ByLayer
 62
  256
370
   -1
100
AcDbLine
 10
96.58199999999999
 20
88.2512
 11
98.0806
 21
88.2512
  0
LINE
  5
113
100
AcDbEntity
  8
47
  6
ByLayer
 62
  256
370
   -1
100
AcDbLine
 10
98.0806
 20
88.2512
 11
98.82989999999999
 21
87.50190000000001
  0
LINE
  5
114
100
AcDbEntity
  8
47
  6
ByLayer
 62
  256
370
   -1
100
AcDbLine
 10
98.82989999999999
 20
87.50190000000001
 11
98.82989999999999
 21
86.7526
  0
LINE
  5
115
100
AcDbEntity
  8
47
  6
ByLayer
 62
  256
370
   -1
100
AcDbLine
 10
98.82989999999999
 20
86.7526
 11
95.8327
 21
86.7526
  0
LINE
  5
116
100
AcDbEntity
  8
47
  6
ByLayer
 62
  256
370
   -1
100
AcDbLine
 10
101.1859
 20
89.0005
 11
101.1859
 21
86.0033
  0
LINE
  5
117
100
AcDbEntity
  8
47
  6
ByLayer
 62
  256
370
   -1
100
AcDbLine
 10
101.1859
 20
86.0033
 11
101.9352
 21
85.254
  0
LINE
  5
118
100
AcDbEntity
  8
47
  6
ByLayer
 62
  256
370
   -1
100
AcDbLine
 10
100.4366
 20
88.2512
 11
101.9352
 21
88.2512
  0
LINE
  5
119
100
AcDbEntity
  8
47
  6
ByLayer
 62
  256
370
   -1
100
AcDbLine
 10
110.3577
 20
85.254
 11
110.3577
 21
89.74979999999999
  0
LINE
  5
11A
100
AcDbEntity
  8
47
  6
ByLayer
 62
  256
370
   -1
100
AcDbLine
 10
110.3577
 20
89.74979999999999
 11
108.1098
 21
87.50190000000001
  0
LINE
  5
11B
100
AcDbEntity
  8
47
  6
ByLayer
 62
  256
370
   -1
100
AcDbLine
 10
108.1098
 20
87.50190000000001
 11
111.1071
 21
87.50190000000001
  0
LINE
  5
11C
100
AcDbEntity
  8
47
  6
ByLayer
 62
  256
370
   -1
100
AcDbLine
 10
112.7138
 20
89.0005
 11
113.4631
 21
89.74979999999999
  0
LINE
  5
11D
100
AcDbEntity
  8
47
  6
ByLayer
 62
  256
370
   -1
100
AcDbLine
 10
113.4631
 20
89.74979999999999
 11
114.9617
 21
89.74979999999999
  0
LINE
  5
11E
100
AcDbEntity
  8
47
  6
ByLayer
 62
  256
370
   -1
100
AcDbLine
 10
114.9617
 20
89.74979999999999
 11
115.711
 21
89.0005
  0
LINE
  5
11F
100
AcDbEntity
  8
47
  6
ByLayer
 62
  256
370
   -1
100
AcDbLine
 10
115.711
 20
89.0005
 11
115.711
 21
88.2512
  0
LINE
  5
120
100
AcDbEntity
  8
47
  6
ByLayer
 62
  256
370
   -1
100
AcDbLine
 10
115.711
 20
88.2512
 11
114.9617
 21
87.50190000000001
  0
LINE
  5
121
100
AcDbEntity
  8
47
  6
ByLayer
 62
  256
370
   -1
100
AcDbLine
 10
114.9617
 20
87.50190000000001
 11
114.2124
 21
87.50190000000001
  0
LINE
  5
122
100
AcDbEntity
  8
47
  6
ByLayer
 62
  256
370
   -1
100
AcDbLine
 10
114.9617
 20
87.50190000000001
 11
115.711
 21
86.7526
  0
LINE
  5
123
100
AcDbEntity
  8
47
  6
ByLayer
 62
  256
370
   -1
100
AcDbLine
 10
115.711
 20
86.7526
 11
115.711
 21
86.0033
  0
LINE
  5
124
100
AcDbEntity
  8
47
  6
ByLayer
 62
  256
370
   -1
100
AcDbLine
 10
115.711
 20
86.0033
 11
114.9617
 21
85.254
  0
LINE
  5
125
100
AcDbEntity
  8
47
  6
ByLayer
 62
  256
370
   -1
100
AcDbLine
 10
114.9617
 20
85.254
 11
113.4631
 21
85.254
  0
LINE
  5
126
100
AcDbEntity
  8
47
  6
ByLayer
 62
  256
370
   -1
100
AcDbLine
 10
113.4631
 20
85.254
 11
112.7138
 21
86.0033
  0
LINE
  5
127
100
AcDbEntity
  8
47
  6
ByLayer
 62
  256
370
   -1
100
AcDbLine
 10
117.3177
 20
86.0033
 11
117.3177
 21
89.0005
  0
LINE
  5
128
100
AcDbEntity
  8
47
  6
ByLayer
 62
  256
370
   -1
100
AcDbLine
 10
117.3177
 20
89.0005
 11
118.067
 21
89.74979999999999
  0
LINE
  5
129
100
AcDbEntity
  8
47
  6
ByLayer
 62
  256
370
   -1
100
AcDbLine
 10
118.067
 20
89.74979999999999
 11
119.5656
 21
89.74979999999999
  0
LINE
  5
12A
100
AcDbEntity
  8
47
  6
ByLayer
 62
  256
370
   -1
100
AcDbLine
 10
119.5656
 20
89.74979999999999
 11
120.3149
 21
89.0005
  0
LINE
  5
12B
100
AcDbEntity
  8
47
  6
ByLayer
 62
  256
370
   -1
100
AcDbLine
 10
120.3149
 20
89.0005
 11
120.3149
 21
86.0033
  0
LINE
  5
12C
100
AcDbEntity
  8
47
  6
ByLayer
 62
  256
370
   -1
100
AcDbLine
 10
120.3149
 20
86.0033
 11
119.5656
 21
85.254
  0
LINE
  5
12D
100
AcDbEntity
  8
47
  6
ByLayer
 62
  256
370
   -1
100
AcDbLine
 10
119.5656
 20
85.254
 11
118.067
 21
85.254
  0
LINE
  5
12E
100
AcDbEntity
  8
47
  6
ByLayer
 62
  256
370
   -1
100
AcDbLine
 10
118.067
 20
85.254
 11
117.3177
 21
86.0033
  0
LINE
  5
12F
100
AcDbEntity
  8
47
  6
ByLayer
 62
  256
370
   -1
100
AcDbLine
 10
117.3177
 20
86.0033
 11
120.3149
 21
89.0005
  0
LINE
  5
130
100
AcDbEntity
  8
47
  6
ByLayer
 62
  256
370
   -1
100
AcDbLine
 10
124.1696
 20
85.254
 11
124.1696
 21
89.74979999999999
  0
LINE
  5
131
100
AcDbEntity
  8
47
  6
ByLayer
 62
  256
370
   -1
100
AcDbLine
 10
124.1696
 20
89.74979999999999
 11
121.9216
 21
87.50190000000001
  0
LINE
  5
132
100
AcDbEntity
  8
47
  6
ByLayer
 62
  256
370
   -1
100
AcDbLine
 10
121.9216
 20
87.50190000000001
 11
124.9189
 21
87.50190000000001
  0
LINE
  5
133
100
AcDbEntity
  8
47
  6
ByLayer
 62
  256
370
   -1
100
AcDbLine
 10
126.5256
 20
85.254
 11
126.5256
 21
86.0033
  0
LINE
  5
134
100
AcDbEntity
  8
47
  6
ByLayer
 62
  256
370
   -1
100
AcDbLine
 10
126.5256
 20
86.0033
 11
127.2749
 21
86.0033
  0
LINE
  5
135
100
AcDbEntity
  8
47
  6
ByLayer
 62
  256
370
   -1
100
AcDbLine
 10
127.2749
 20
86.0033
 11
127.2749
 21
85.254
  0
LINE
  5
136
100
AcDbEntity
  8
47
  6
ByLayer
 62
  256
370
   -1
100
AcDbLine
 10
127.2749
 20
85.254
 11
126.5256
 21
85.254
  0
LINE
  5
137
100
AcDbEntity
  8
47
  6
ByLayer
 62
  256
370
   -1
100
AcDbLine
 10
131.8248
 20
89.74979999999999
 11
130.3261
 21
89.0005
  0
LINE
  5
138
100
AcDbEntity
  8
47
  6
ByLayer
 62
  256
370
   -1
100
AcDbLine
 10
130.3261
 20
89.0005
 11
128.8275
 21
87.50190000000001
  0
LINE
  5
139
100
AcDbEntity
  8
47
  6
ByLayer
 62
  256
370
   -1
100
AcDbLine
 10
128.8275
 20
87.50190000000001
 11
128.8275
 21
86.0033
  0
LINE
  5
13A
100
AcDbEntity
  8
47
  6
ByLayer
 62
  256
370
   -1
100
AcDbLine
 10
128.8275
 20
86.0033
 11
129.5768
 21
85.254
  0
LINE
  5
13B
100
AcDbEntity
  8
47
  6
ByLayer
 62
  256
370
   -1
100
AcDbLine
 10
129.5768
 20
85.254
 11
131.0755
 21
85.254
  0
LINE
  5
13C
100
AcDbEntity
  8
47
  6
ByLayer
 62
  256
370
   -1
100
AcDbLine
 10
131.0755
 20
85.254
 11
131.8248
 21
86.0033
  0
LINE
  5
13D
100
AcDbEntity
  8
47
  6
ByLayer
 62
  256
370
   -1
100
AcDbLine
 10
131.8248
 20
86.0033
 11
131.8248
 21
86.7526
  0
LINE
  5
13E
100
AcDbEntity
  8
47
  6
ByLayer
 62
  256
370
   -1
100
AcDbLine
 10
131.8248
 20
86.7526
 11
131.0755
 21
87.50190000000001
  0
LINE
  5
13F
100
AcDbEntity
  8
47
  6
ByLayer
 62
  256
370
   -1
100
AcDbLine
 10
131.0755
 20
87.50190000000001
 11
128.8275
 21
87.50190000000001
  0
LINE
  5
140
100
AcDbEntity
  8
47
  6
ByLayer
 62
  256
370
   -1
100
AcDbLine
 10
133.4315
 20
86.0033
 11
133.4315
 21
89.0005
  0
LINE
  5
141
100
AcDbEntity
  8
47
  6
ByLayer
 62
  256
370
   -1
100
AcDbLine
 10
133.4315
 20
89.0005
 11
134.1808
 21
89.74979999999999
  0
LINE
  5
142
100
AcDbEntity
  8
47
  6
ByLayer
 62
  256
370
   -1
100
AcDbLine
 10
134.1808
 20
89.74979999999999
 11
135.6794
 21
89.74979999999999
  0
LINE
  5
143
100
AcDbEntity
  8
47
  6
ByLayer
 62
  256
370
   -1
100
AcDbLine
 10
135.6794
 20
89.74979999999999
 11
136.4287
 21
89.0005
  0
LINE
  5
144
100
AcDbEntity
  8
47
  6
ByLayer
 62
  256
370
   -1
100
AcDbLine
 10
136.4287
 20
89.0005
 11
136.4287
 21
86.0033
  0
LINE
  5
145
100
AcDbEntity
  8
47
  6
ByLayer
 62
  256
370
   -1
100
AcDbLine
 10
136.4287
 20
86.0033
 11
135.6794
 21
85.254
  0
LINE
  5
146
100
AcDbEntity
  8
47
  6
ByLayer
 62
  256
370
   -1
100
AcDbLine
 10
135.6794
 20
85.254
 11
134.1808
 21
85.254
  0
LINE
  5
147
100
AcDbEntity
  8
47
  6
ByLayer
 62
  256
370
   -1
100
AcDbLine
 10
134.1808
 20
85.254
 11
133.4315
 21
86.0033
  0
LINE
  5
148
100
AcDbEntity
  8
47
  6
ByLayer
 62
  256
370
   -1
100
AcDbLine
 10
133.4315
 20
86.0033
 11
136.4287
 21
89.0005
  0
LINE
  5
149
100
AcDbEntity
  8
47
  6
ByLayer
 62
  256
370
   -1
100
AcDbLine
 10
138.0354
 20
86.0033
 11
138.7847
 21
85.254
  0
LINE
  5
14A
100
AcDbEntity
  8
47
  6
ByLayer
 62
  256
370
   -1
100
AcDbLine
 10
138.7847
 20
85.254
 11
140.2833
 21
85.254
  0
LINE
  5
14B
100
AcDbEntity
  8
47
  6
ByLayer
 62
  256
370
   -1
100
AcDbLine
 10
140.2833
 20
85.254
 11
141.0326
 21
86.0033
  0
LINE
  5
14C
100
AcDbEntity
  8
47
  6
ByLayer
 62
  256
370
   -1
100
AcDbLine
 10
141.0326
 20
86.0033
 11
141.0326
 21
89.0005
  0
LINE
  5
14D
100
AcDbEntity
  8
47
  6
ByLayer
 62
  256
370
   -1
100
AcDbLine
 10
141.0326
 20
89.0005
 11
140.2833
 21
89.74979999999999
  0
LINE
  5
14E
100
AcDbEntity
  8
47
  6
ByLayer
 62
  256
370
   -1
100
AcDbLine
 10
140.2833
 20
89.74979999999999
 11
138.7847
 21
89.74979999999999
  0
LINE
  5
14F
100
AcDbEntity
  8
47
  6
ByLayer
 62
  256
370
   -1
100
AcDbLine
 10
138.7847
 20
89.74979999999999
 11
138.0354
 21
89.0005
  0
LINE
  5
150
100
AcDbEntity
  8
47
  6
ByLayer
 62
  256
370
   -1
100
AcDbLine
 10
138.0354
 20
89.0005
 11
138.0354
 21
88.2512
  0
LINE
  5
151
100
AcDbEntity
  8
47
  6
ByLayer
 62
  256
370
   -1
100
AcDbLine
 10
138.0354
 20
88.2512
 11
138.7847
 21
87.50190000000001
  0
LINE
  5
152
100
AcDbEntity
  8
47
  6
ByLayer
 62
  256
370
   -1
100
AcDbLine
 10
138.7847
 20
87.50190000000001
 11
141.0326
 21
87.50190000000001
  0
LINE
  5
153
100
AcDbEntity
  8
47
  6
ByLayer
 62
  256
370
   -1
100
AcDbLine
 10
142.6393
 20
86.0033
 11
142.6393
 21
89.0005
  0
LINE
  5
154
100
AcDbEntity
  8
47
  6
ByLayer
 62
  256
370
   -1
100
AcDbLine
 10
142.6393
 20
89.0005
 11
143.3886
 21
89.74979999999999
  0
LINE
  5
155
100
AcDbEntity
  8
47
  6
ByLayer
 62
  256
370
   -1
100
AcDbLine
 10
143.3886
 20
89.74979999999999
 11
144.8873
 21
89.74979999999999
  0
LINE
  5
156
100
AcDbEntity
  8
47
  6
ByLayer
 62
  256
370
   -1
100
AcDbLine
 10
144.8873
 20
89.74979999999999
 11
145.6366
 21
89.0005
  0
LINE
  5
157
100
AcDbEntity
  8
47
  6
ByLayer
 62
  256
370
   -1
100
AcDbLine
 10
145.6366
 20
89.0005
 11
145.6366
 21
86.0033
  0
LINE
  5
158
100
AcDbEntity
  8
47
  6
ByLayer
 62
  256
370
   -1
100
AcDbLine
 10
145.6366
 20
86.0033
 11
144.8873
 21
85.254
  0
LINE
  5
159
100
AcDbEntity
  8
47
  6
ByLayer
 62
  256
370
   -1
100
AcDbLine
 10
144.8873
 20
85.254
 11
143.3886
 21
85.254
  0
LINE
  5
15A
100
AcDbEntity
  8
47
  6
ByLayer
 62
  256
370
   -1
100
AcDbLine
 10
143.3886
 20
85.254
 11
142.6393
 21
86.0033
  0
LINE
  5
15B
100
AcDbEntity
  8
47
  6
ByLayer
 62
  256
370
   -1
100
AcDbLine
 10
142.6393
 20
86.0033
 11
145.6366
 21
89.0005
  0
LINE
  5
15C
100
AcDbEntity
  8
47
  6
ByLayer
 62
  256
370
   -1
100
AcDbLine
 10
153.3458
 20
85.254
 11
151.8472
 21
86.7526
  0
LINE
  5
15D
100
AcDbEntity
  8
47
  6
ByLayer
 62
  256
370
   -1
100
AcDbLine
 10
151.8472
 20
86.7526
 11
151.8472
 21
88.2512
  0
LINE
  5
15E
100
AcDbEntity
  8
47
  6
ByLayer
 62
  256
370
   -1
100
AcDbLine
 10
151.8472
 20
88.2512
 11
153.3458
 21
89.74979999999999
  0
LINE
  5
15F
100
AcDbEntity
  8
47
  6
ByLayer
 62
  256
370
   -1
100
AcDbLine
 10
154.9165
 20
89.74979999999999
 11
154.9165
 21
85.254
  0
LINE
  5
160
100
AcDbEntity
  8
47
  6
ByLayer
 62
  256
370
   -1
100
AcDbLine
 10
154.9165
 20
85.254
 11
157.1644
 21
85.254
  0
LINE
  5
161
100
AcDbEntity
  8
47
  6
ByLayer
 62
  256
370
   -1
100
AcDbLine
 10
157.1644
 20
85.254
 11
157.9137
 21
86.0033
  0
LINE
  5
162
100
AcDbEntity
  8
47
  6
ByLayer
 62
  256
370
   -1
100
AcDbLine
 10
157.9137
 20
86.0033
 11
157.9137
 21
87.50190000000001
  0
LINE
  5
163
100
AcDbEntity
  8
47
  6
ByLayer
 62
  256
370
   -1
100
AcDbLine
 10
157.9137
 20
87.50190000000001
 11
157.1644
 21
88.2512
  0
LINE
  5
164
100
AcDbEntity
  8
47
  6
ByLayer
 62
  256
370
   -1
100
AcDbLine
 10
157.1644
 20
88.2512
 11
154.9165
 21
88.2512
  0
LINE
  5
165
100
AcDbEntity
  8
47
  6
ByLayer
 62
  256
370
   -1
100
AcDbLine
 10
160.2697
 20
88.2512
 11
161.7683
 21
88.2512
  0
LINE
  5
166
100
AcDbEntity
  8
47
  6
ByLayer
 62
  256
370
   -1
100
AcDbLine
 10
161.7683
 20
88.2512
 11
162.5177
 21
87.50190000000001
  0
LINE
  5
167
100
AcDbEntity
  8
47
  6
ByLayer
 62
  256
370
   -1
100
AcDbLine
 10
162.5177
 20
87.50190000000001
 11
162.5177
 21
85.254
  0
LINE
  5
168
100
AcDbEntity
  8
47
  6
ByLayer
 62
  256
370
   -1
100
AcDbLine
 10
162.5177
 20
85.254
 11
160.2697
 21
85.254
  0
LINE
  5
169
100
AcDbEntity
  8
47
  6
ByLayer
 62
  256
370
   -1
100
AcDbLine
 10
160.2697
 20
85.254
 11
159.5204
 21
86.0033
  0
LINE
  5
16A
100
AcDbEntity
  8
47
  6
ByLayer
 62
  256
370
   -1
100
AcDbLine
 10
159.5204
 20
86.0033
 11
160.2697
 21
86.7526
  0
LINE
  5
16B
100
AcDbEntity
  8
47
  6
ByLayer
 62
  256
370
   -1
100
AcDbLine
 10
160.2697
 20
86.7526
 11
162.5177
 21
86.7526
  0
LINE
  5
16C
100
AcDbEntity
  8
47
  6
ByLayer
 62
  256
370
   -1
100
AcDbLine
 10
167.1216
 20
88.2512
 11
164.8737
 21
88.2512
  0
LINE
  5
16D
100
AcDbEntity
  8
47
  6
ByLayer
 62
  256
370
   -1
100
AcDbLine
 10
164.8737
 20
88.2512
 11
164.1244
 21
87.50190000000001
  0
LINE
  5
16E
100
AcDbEntity
  8
47
  6
ByLayer
 62
  256
370
   -1
100
AcDbLine
 10
164.1244
 20
87.50190000000001
 11
164.1244
 21
86.0033
  0
LINE
  5
16F
100
AcDbEntity
  8
47
  6
ByLayer
 62
  256
370
   -1
100
AcDbLine
 10
164.1244
 20
86.0033
 11
164.8737
 21
85.254
  0
LINE
  5
170
100
AcDbEntity
  8
47
  6
ByLayer
 62
  256
370
   -1
100
AcDbLine
 10
164.8737
 20
85.254
 11
167.1216
 21
85.254
  0
LINE
  5
171
100
AcDbEntity
  8
47
  6
ByLayer
 62
  256
370
   -1
100
AcDbLine
 10
168.7283
 20
85.254
 11
168.7283
 21
89.74979999999999
  0
LINE
  5
172
100
AcDbEntity
  8
47
  6
ByLayer
 62
  256
370
   -1
100
AcDbLine
 10
170.9762
 20
85.254
 11
168.7283
 21
86.7526
  0
LINE
  5
173
100
AcDbEntity
  8
47
  6
ByLayer
 62
  256
370
   -1
100
AcDbLine
 10
168.7283
 20
86.7526
 11
170.9762
 21
88.2512
  0
LINE
  5
174
100
AcDbEntity
  8
47
  6
ByLayer
 62
  256
370
   -1
100
AcDbLine
 10
177.1688
 20
88.2512
 11
178.6675
 21
85.254
  0
LINE
  5
175
100
AcDbEntity
  8
47
  6
ByLayer
 62
  256
370
   -1
100
AcDbLine
 10
178.6675
 20
85.254
 11
180.1661
 21
88.2512
  0
LINE
  5
176
100
AcDbEntity
  8
47
  6
ByLayer
 62
  256
370
   -1
100
AcDbLine
 10
181.7728
 20
88.2512
 11
182.5221
 21
88.2512
  0
LINE
  5
177
100
AcDbEntity
  8
47
  6
ByLayer
 62
  256
370
   -1
100
AcDbLine
 10
182.5221
 20
88.2512
 11
182.5221
 21
85.254
  0
LINE
  5
178
100
AcDbEntity
  8
47
  6
ByLayer
 62
  256
370
   -1
100
AcDbLine
 10
181.7728
 20
85.254
 11
183.2714
 21
85.254
  0
LINE
  5
179
100
AcDbEntity
  8
47
  6
ByLayer
 62
  256
370
   -1
100
AcDbLine
 10
182.5221
 20
90.4991
 11
182.5221
 21
89.74979999999999
  0
LINE
  5
17A
100
AcDbEntity
  8
47
  6
ByLayer
 62
  256
370
   -1
100
AcDbLine
 10
187.09
 20
85.254
 11
185.5914
 21
85.254
  0
LINE
  5
17B
100
AcDbEntity
  8
47
  6
ByLayer
 62
  256
370
   -1
100
AcDbLine
 10
185.5914
 20
85.254
 11
184.8421
 21
86.0033
  0
LINE
  5
17C
100
AcDbEntity
  8
47
  6
ByLayer
 62
  256
370
   -1
100
AcDbLine
 10
184.8421
 20
86.0033
 11
184.8421
 21
87.50190000000001
  0
LINE
  5
17D
100
AcDbEntity
  8
47
  6
ByLayer
 62
  256
370
   -1
100
AcDbLine
 10
184.8421
 20
87.50190000000001
 11
185.5914
 21
88.2512
  0
LINE
  5
17E
100
AcDbEntity
  8
47
  6
ByLayer
 62
  256
370
   -1
100
AcDbLine
 10
185.5914
 20
88.2512
 11
187.09
 21
88.2512
  0
LINE
  5
17F
100
AcDbEntity
  8
47
  6
ByLayer
 62
  256
370
   -1
100
AcDbLine
 10
187.09
 20
88.2512
 11
187.8393
 21
87.50190000000001
  0
LINE
  5
180
100
AcDbEntity
  8
47
  6
ByLayer
 62
  256
370
   -1
100
AcDbLine
 10
187.8393
 20
87.50190000000001
 11
187.8393
 21
86.7526
  0
LINE
  5
181
100
AcDbEntity
  8
47
  6
ByLayer
 62
  256
370
   -1
100
AcDbLine
 10
187.8393
 20
86.7526
 11
184.8421
 21
86.7526
  0
LINE
  5
182
100
AcDbEntity
  8
47
  6
ByLayer
 62
  256
370
   -1
100
AcDbLine
 10
189.446
 20
88.2512
 11
189.446
 21
86.0033
  0
LINE
  5
183
100
AcDbEntity
  8
47
  6
ByLayer
 62
  256
370
   -1
100
AcDbLine
 10
189.446
 20
86.0033
 11
190.1953
 21
85.254
  0
LINE
  5
184
100
AcDbEntity
  8
47
  6
ByLayer
 62
  256
370
   -1
100
AcDbLine
 10
190.1953
 20
85.254
 11
190.9446
 21
86.0033
  0
LINE
  5
185
100
AcDbEntity
  8
47
  6
ByLayer
 62
  256
370
   -1
100
AcDbLine
 10
190.9446
 20
86.0033
 11
191.6939
 21
85.254
  0
LINE
  5
186
100
AcDbEntity
  8
47
  6
ByLayer
 62
  256
370
   -1
100
AcDbLine
 10
191.6939
 20
85.254
 11
192.4432
 21
86.0033
  0
LINE
  5
187
100
AcDbEntity
  8
47
  6
ByLayer
 62
  256
370
   -1
100
AcDbLine
 10
192.4432
 20
86.0033
 11
192.4432
 21
88.2512
  0
LINE
  5
188
100
AcDbEntity
  8
47
  6
ByLayer
 62
  256
370
   -1
100
AcDbLine
 10
194.0499
 20
85.254
 11
195.5485
 21
86.7526
  0
LINE
  5
189
100
AcDbEntity
  8
47
  6
ByLayer
 62
  256
370
   -1
100
AcDbLine
 10
195.5485
 20
86.7526
 11
195.5485
 21
88.2512
  0
LINE
  5
18A
100
AcDbEntity
  8
47
  6
ByLayer
 62
  256
370
   -1
100
AcDbLine
 10
195.5485
 20
88.2512
 11
194.0499
 21
89.74979999999999
  0
LINE
  5
18B
100
AcDbEntity
  8
47
  6
ByLayer
 62
  256
370
   -1
100
AcDbLine
 10
230.0762
 20
42.0762
 11
230.0762
 21
43.7032
  0
LINE
  5
18C
100
AcDbEntity
  8
47
  6
ByLayer
 62
  256
370
   -1
100
AcDbLine
 10
230.0762
 20
43.7032
 11
230.6185
 21
43.1609
  0
LINE
  5
18D
100
AcDbEntity
  8
47
  6
ByLayer
 62
  256
370
   -1
100
AcDbLine
 10
230.6185
 20
43.1609
 11
231.1609
 21
43.7032
  0
LINE
  5
18E
100
AcDbEntity
  8
47
  6
ByLayer
 62
  256
370
   -1
100
AcDbLine
 10
231.1609
 20
43.7032
 11
231.1609
 21
42.0762
  0
LINE
  5
18F
100
AcDbEntity
  8
47
  6
ByLayer
 62
  256
370
   -1
100
AcDbLine
 10
231.7134
 20
43.432
 11
231.9845
 21
43.7032
  0
LINE
  5
190
100
AcDbEntity
  8
47
  6
ByLayer
 62
  256
370
   -1
100
AcDbLine
 10
231.9845
 20
43.7032
 11
232.5269
 21
43.7032
  0
LINE
  5
191
100
AcDbEntity
  8
47
  6
ByLayer
 62
  256
370
   -1
100
AcDbLine
 10
232.5269
 20
43.7032
 11
232.798
 21
43.432
  0
LINE
  5
192
100
AcDbEntity
  8
47
  6
ByLayer
 62
  256
370
   -1
100
AcDbLine
 10
232.798
 20
43.432
 11
232.798
 21
43.1609
  0
LINE
  5
193
100
AcDbEntity
  8
47
  6
ByLayer
 62
  256
370
   -1
100
AcDbLine
 10
232.798
 20
43.1609
 11
232.5269
 21
42.8897
  0
LINE
  5
194
100
AcDbEntity
  8
47
  6
ByLayer
 62
  256
370
   -1
100
AcDbLine
 10
232.5269
 20
42.8897
 11
232.2557
 21
42.8897
  0
LINE
  5
195
100
AcDbEntity
  8
47
  6
ByLayer
 62
  256
370
   -1
100
AcDbLine
 10
232.5269
 20
42.8897
 11
232.798
 21
42.6185
  0
LINE
  5
196
100
AcDbEntity
  8
47
  6
ByLayer
 62
  256
370
   -1
100
AcDbLine
 10
232.798
 20
42.6185
 11
232.798
 21
42.3474
  0
LINE
  5
197
100
AcDbEntity
  8
47
  6
ByLayer
 62
  256
370
   -1
100
AcDbLine
 10
232.798
 20
42.3474
 11
232.5269
 21
42.0762
  0
LINE
  5
198
100
AcDbEntity
  8
47
  6
ByLayer
 62
  256
370
   -1
100
AcDbLine
 10
232.5269
 20
42.0762
 11
231.9845
 21
42.0762
  0
LINE
  5
199
100
AcDbEntity
  8
47
  6
ByLayer
 62
  256
370
   -1
100
AcDbLine
 10
231.9845
 20
42.0762
 11
231.7134
 21
42.3474
  0
LINE
  5
19A
100
AcDbEntity
  8
47
  6
ByLayer
 62
  256
370
   -1
100
AcDbLine
 10
276.0762
 20
41.5762
 11
276.0762
 21
43.2032
  0
LINE
  5
19B
100
AcDbEntity
  8
47
  6
ByLayer
 62
  256
370
   -1
100
AcDbLine
 10
276.0762
 20
43.2032
 11
276.6185
 21
42.6609
  0
LINE
  5
19C
100
AcDbEntity
  8
47
  6
ByLayer
 62
  256
370
   -1
100
AcDbLine
 10
276.6185
 20
42.6609
 11
277.1609
 21
43.2032
  0
LINE
  5
19D
100
AcDbEntity
  8
47
  6
ByLayer
 62
  256
370
   -1
100
AcDbLine
 10
277.1609
 20
43.2032
 11
277.1609
 21
41.5762
  0
LINE
  5
19E
100
AcDbEntity
  8
47
  6
ByLayer
 62
  256
370
   -1
100
AcDbLine
 10
277.7134
 20
42.932
 11
277.9845
 21
43.2032
  0
LINE
  5
19F
100
AcDbEntity
  8
47
  6
ByLayer
 62
  256
370
   -1
100
AcDbLine
 10
277.9845
 20
43.2032
 11
278.5269
 21
43.2032
  0
LINE
  5
1A0
100
AcDbEntity
  8
47
  6
ByLayer
 62
  256
370
   -1
100
AcDbLine
 10
278.5269
 20
43.2032
 11
278.798
 21
42.932
  0
LINE
  5
1A1
100
AcDbEntity
  8
47
  6
ByLayer
 62
  256
370
   -1
100
AcDbLine
 10
278.798
 20
42.932
 11
278.798
 21
42.6609
  0
LINE
  5
1A2
100
AcDbEntity
  8
47
  6
ByLayer
 62
  256
370
   -1
100
AcDbLine
 10
278.798
 20
42.6609
 11
278.5269
 21
42.3897
  0
LINE
  5
1A3
100
AcDbEntity
  8
47
  6
ByLayer
 62
  256
370
   -1
100
AcDbLine
 10
278.5269
 20
42.3897
 11
278.2557
 21
42.3897
  0
LINE
  5
1A4
100
AcDbEntity
  8
47
  6
ByLayer
 62
  256
370
   -1
100
AcDbLine
 10
278.5269
 20
42.3897
 11
278.798
 21
42.1185
  0
LINE
  5
1A5
100
AcDbEntity
  8
47
  6
ByLayer
 62
  256
370
   -1
100
AcDbLine
 10
278.798
 20
42.1185
 11
278.798
 21
41.8474
  0
LINE
  5
1A6
100
AcDbEntity
  8
47
  6
ByLayer
 62
  256
370
   -1
100
AcDbLine
 10
278.798
 20
41.8474
 11
278.5269
 21
41.5762
  0
LINE
  5
1A7
100
AcDbEntity
  8
47
  6
ByLayer
 62
  256
370
   -1
100
AcDbLine
 10
278.5269
 20
41.5762
 11
277.9845
 21
41.5762
  0
LINE
  5
1A8
100
AcDbEntity
  8
47
  6
ByLayer
 62
  256
370
   -1
100
AcDbLine
 10
277.9845
 20
41.5762
 11
277.7134
 21
41.8474
  0
LINE
  5
1A9
100
AcDbEntity
  8
47
  6
ByLayer
 62
  256
370
   -1
100
AcDbLine
 10
157.5
 20
59
 11
157.5
 21
54.55
  0
LINE
  5
1AA
100
AcDbEntity
  8
47
  6
ByLayer
 62
  256
370
   -1
100
AcDbLine
 10
170
 20
59
 11
170
 21
54.55
  0
LINE
  5
1AB
100
AcDbEntity
  8
47
  6
ByLayer
 62
  256
370
   -1
100
AcDbLine
 10
157.565
 20
56.5
 11
169.935
 21
56.5
  0
LINE
  5
1AC
100
AcDbEntity
  8
47
  6
ByLayer
 62
  256
370
   -1
100
AcDbLine
 10
157.565
 20
56.5
 11
160.1
 21
56.8192
  0
LINE
  5
1AD
100
AcDbEntity
  8
47
  6
ByLayer
 62
  256
370
   -1
100
AcDbLine
 10
160.1
 20
56.8192
 11
160.1
 21
56.1808
  0
LINE
  5
1AE
100
AcDbEntity
  8
47
  6
ByLayer
 62
  256
370
   -1
100
AcDbLine
 10
160.1
 20
56.1808
 11
157.565
 21
56.5
  0
LINE
  5
1AF
100
AcDbEntity
  8
47
  6
ByLayer
 62
  256
370
   -1
100
AcDbLine
 10
157.565
 20
56.5
 11
160.1
 21
56.63
  0
LINE
  5
1B0
100
AcDbEntity
  8
47
  6
ByLayer
 62
  256
370
   -1
100
AcDbLine
 10
160.1
 20
56.37
 11
157.565
 21
56.5
  0
LINE
  5
1B1
100
AcDbEntity
  8
47
  6
ByLayer
 62
  256
370
   -1
100
AcDbLine
 10
157.565
 20
56.5
 11
160.1
 21
56.76
  0
LINE
  5
1B2
100
AcDbEntity
  8
47
  6
ByLayer
 62
  256
370
   -1
100
AcDbLine
 10
160.1
 20
56.24
 11
157.565
 21
56.5
  0
LINE
  5
1B3
100
AcDbEntity
  8
47
  6
ByLayer
 62
  256
370
   -1
100
AcDbLine
 10
169.935
 20
56.5
 11
167.4
 21
56.8192
  0
LINE
  5
1B4
100
AcDbEntity
  8
47
  6
ByLayer
 62
  256
370
   -1
100
AcDbLine
 10
167.4
 20
56.8192
 11
167.4
 21
56.1808
  0
LINE
  5
1B5
100
AcDbEntity
  8
47
  6
ByLayer
 62
  256
370
   -1
100
AcDbLine
 10
167.4
 20
56.1808
 11
169.935
 21
56.5
  0
LINE
  5
1B6
100
AcDbEntity
  8
47
  6
ByLayer
 62
  256
370
   -1
100
AcDbLine
 10
169.935
 20
56.5
 11
167.4
 21
56.63
  0
LINE
  5
1B7
100
AcDbEntity
  8
47
  6
ByLayer
 62
  256
370
   -1
100
AcDbLine
 10
167.4
 20
56.37
 11
169.935
 21
56.5
  0
LINE
  5
1B8
100
AcDbEntity
  8
47
  6
ByLayer
 62
  256
370
   -1
100
AcDbLine
 10
169.935
 20
56.5
 11
167.4
 21
56.76
  0
LINE
  5
1B9
100
AcDbEntity
  8
47
  6
ByLayer
 62
  256
370
   -1
100
AcDbLine
 10
167.4
 20
56.24
 11
169.935
 21
56.5
  0
LINE
  5
1BA
100
AcDbEntity
  8
47
  6
ByLayer
 62
  256
370
   -1
100
AcDbLine
 10
161.0369
 20
58.439
 11
161.6533
 21
59.0554
  0
LINE
  5
1BB
100
AcDbEntity
  8
47
  6
ByLayer
 62
  256
370
   -1
100
AcDbLine
 10
161.6533
 20
59.0554
 11
161.6533
 21
57.2062
  0
LINE
  5
1BC
100
AcDbEntity
  8
47
  6
ByLayer
 62
  256
370
   -1
100
AcDbLine
 10
161.0369
 20
57.2062
 11
162.2697
 21
57.2062
  0
LINE
  5
1BD
100
AcDbEntity
  8
47
  6
ByLayer
 62
  256
370
   -1
100
AcDbLine
 10
164.1112
 20
57.2062
 11
162.8784
 21
57.2062
  0
LINE
  5
1BE
100
AcDbEntity
  8
47
  6
ByLayer
 62
  256
370
   -1
100
AcDbLine
 10
162.8784
 20
57.2062
 11
164.1112
 21
58.439
  0
LINE
  5
1BF
100
AcDbEntity
  8
47
  6
ByLayer
 62
  256
370
   -1
100
AcDbLine
 10
164.1112
 20
58.439
 11
164.1112
 21
58.7472
  0
LINE
  5
1C0
100
AcDbEntity
  8
47
  6
ByLayer
 62
  256
370
   -1
100
AcDbLine
 10
164.1112
 20
58.7472
 11
163.803
 21
59.0554
  0
LINE
  5
1C1
100
AcDbEntity
  8
47
  6
ByLayer
 62
  256
370
   -1
100
AcDbLine
 10
163.803
 20
59.0554
 11
163.1866
 21
59.0554
  0
LINE
  5
1C2
100
AcDbEntity
  8
47
  6
ByLayer
 62
  256
370
   -1
100
AcDbLine
 10
163.1866
 20
59.0554
 11
162.8784
 21
58.7472
  0
LINE
  5
1C3
100
AcDbEntity
  8
47
  6
ByLayer
 62
  256
370
   -1
100
AcDbLine
 10
164.72
 20
57.2062
 11
164.72
 21
57.5144
  0
LINE
  5
1C4
100
AcDbEntity
  8
47
  6
ByLayer
 62
  256
370
   -1
100
AcDbLine
 10
164.72
 20
57.5144
 11
165.0282
 21
57.5144
  0
LINE
  5
1C5
100
AcDbEntity
  8
47
  6
ByLayer
 62
  256
370
   -1
100
AcDbLine
 10
165.0282
 20
57.5144
 11
165.0282
 21
57.2062
  0
LINE
  5
1C6
100
AcDbEntity
  8
47
  6
ByLayer
 62
  256
370
   -1
100
AcDbLine
 10
165.0282
 20
57.2062
 11
164.72
 21
57.2062
  0
LINE
  5
1C7
100
AcDbEntity
  8
47
  6
ByLayer
 62
  256
370
   -1
100
AcDbLine
 10
166.8736
 20
59.0554
 11
165.6408
 21
59.0554
  0
LINE
  5
1C8
100
AcDbEntity
  8
47
  6
ByLayer
 62
  256
370
   -1
100
AcDbLine
 10
165.6408
 20
59.0554
 11
165.6408
 21
58.1308
  0
LINE
  5
1C9
100
AcDbEntity
  8
47
  6
ByLayer
 62
  256
370
   -1
100
AcDbLine
 10
165.6408
 20
58.1308
 11
166.2572
 21
58.439
  0
LINE
  5
1CA
100
AcDbEntity
  8
47
  6
ByLayer
 62
  256
370
   -1
100
AcDbLine
 10
166.2572
 20
58.439
 11
166.5654
 21
58.439
  0
LINE
  5
1CB
100
AcDbEntity
  8
47
  6
ByLayer
 62
  256
370
   -1
100
AcDbLine
 10
166.5654
 20
58.439
 11
166.8736
 21
58.1308
  0
LINE
  5
1CC
100
AcDbEntity
  8
47
  6
ByLayer
 62
  256
370
   -1
100
AcDbLine
 10
166.8736
 20
58.1308
 11
166.8736
 21
57.5144
  0
LINE
  5
1CD
100
AcDbEntity
  8
47
  6
ByLayer
 62
  256
370
   -1
100
AcDbLine
 10
166.8736
 20
57.5144
 11
166.5654
 21
57.2062
  0
LINE
  5
1CE
100
AcDbEntity
  8
47
  6
ByLayer
 62
  256
370
   -1
100
AcDbLine
 10
166.5654
 20
57.2062
 11
165.949
 21
57.2062
  0
LINE
  5
1CF
100
AcDbEntity
  8
47
  6
ByLayer
 62
  256
370
   -1
100
AcDbLine
 10
165.949
 20
57.2062
 11
165.6408
 21
57.5144
  0
LINE
  5
1D0
100
AcDbEntity
  8
47
  6
ByLayer
 62
  256
370
   -1
100
AcDbLine
 10
180.5
 20
58
 11
180.5
 21
53.05
  0
LINE
  5
1D1
100
AcDbEntity
  8
47
  6
ByLayer
 62
  256
370
   -1
100
AcDbLine
 10
197.5
 20
58
 11
197.5
 21
53.05
  0
LINE
  5
1D2
100
AcDbEntity
  8
47
  6
ByLayer
 62
  256
370
   -1
100
AcDbLine
 10
180.565
 20
55
 11
197.435
 21
55
  0
LINE
  5
1D3
100
AcDbEntity
  8
47
  6
ByLayer
 62
  256
370
   -1
100
AcDbLine
 10
180.565
 20
55
 11
183.1
 21
55.3192
  0
LINE
  5
1D4
100
AcDbEntity
  8
47
  6
ByLayer
 62
  256
370
   -1
100
AcDbLine
 10
183.1
 20
55.3192
 11
183.1
 21
54.6808
  0
LINE
  5
1D5
100
AcDbEntity
  8
47
  6
ByLayer
 62
  256
370
   -1
100
AcDbLine
 10
183.1
 20
54.6808
 11
180.565
 21
55
  0
LINE
  5
1D6
100
AcDbEntity
  8
47
  6
ByLayer
 62
  256
370
   -1
100
AcDbLine
 10
180.565
 20
55
 11
183.1
 21
55.13
  0
LINE
  5
1D7
100
AcDbEntity
  8
47
  6
ByLayer
 62
  256
370
   -1
100
AcDbLine
 10
183.1
 20
54.87
 11
180.565
 21
55
  0
LINE
  5
1D8
100
AcDbEntity
  8
47
  6
ByLayer
 62
  256
370
   -1
100
AcDbLine
 10
180.565
 20
55
 11
183.1
 21
55.26
  0
LINE
  5
1D9
100
AcDbEntity
  8
47
  6
ByLayer
 62
  256
370
   -1
100
AcDbLine
 10
183.1
 20
54.74
 11
180.565
 21
55
  0
LINE
  5
1DA
100
AcDbEntity
  8
47
  6
ByLayer
 62
  256
370
   -1
100
AcDbLine
 10
197.435
 20
55
 11
194.9
 21
55.3192
  0
LINE
  5
1DB
100
AcDbEntity
  8
47
  6
ByLayer
 62
  256
370
   -1
100
AcDbLine
 10
194.9
 20
55.3192
 11
194.9
 21
54.6808
  0
LINE
  5
1DC
100
AcDbEntity
  8
47
  6
ByLayer
 62
  256
370
   -1
100
AcDbLine
 10
194.9
 20
54.6808
 11
197.435
 21
55
  0
LINE
  5
1DD
100
AcDbEntity
  8
47
  6
ByLayer
 62
  256
370
   -1
100
AcDbLine
 10
197.435
 20
55
 11
194.9
 21
55.13
  0
LINE
  5
1DE
100
AcDbEntity
  8
47
  6
ByLayer
 62
  256
370
   -1
100
AcDbLine
 10
194.9
 20
54.87
 11
197.435
 21
55
  0
LINE
  5
1DF
100
AcDbEntity
  8
47
  6
ByLayer
 62
  256
370
   -1
100
AcDbLine
 10
197.435
 20
55
 11
194.9
 21
55.26
  0
LINE
  5
1E0
100
AcDbEntity
  8
47
  6
ByLayer
 62
  256
370
   -1
100
AcDbLine
 10
194.9
 20
54.74
 11
197.435
 21
55
  0
LINE
  5
1E1
100
AcDbEntity
  8
47
  6
ByLayer
 62
  256
370
   -1
100
AcDbLine
 10
187.4829
 20
56.939
 11
188.0993
 21
57.5554
  0
LINE
  5
1E2
100
AcDbEntity
  8
47
  6
ByLayer
 62
  256
370
   -1
100
AcDbLine
 10
188.0993
 20
57.5554
 11
188.0993
 21
55.7062
  0
LINE
  5
1E3
100
AcDbEntity
  8
47
  6
ByLayer
 62
  256
370
   -1
100
AcDbLine
 10
187.4829
 20
55.7062
 11
188.7157
 21
55.7062
  0
LINE
  5
1E4
100
AcDbEntity
  8
47
  6
ByLayer
 62
  256
370
   -1
100
AcDbLine
 10
189.3245
 20
57.5554
 11
190.5573
 21
57.5554
  0
LINE
  5
1E5
100
AcDbEntity
  8
47
  6
ByLayer
 62
  256
370
   -1
100
AcDbLine
 10
190.5573
 20
57.5554
 11
190.5573
 21
57.2472
  0
LINE
  5
1E6
100
AcDbEntity
  8
47
  6
ByLayer
 62
  256
370
   -1
100
AcDbLine
 10
190.5573
 20
57.2472
 11
189.3245
 21
56.0144
  0
LINE
  5
1E7
100
AcDbEntity
  8
47
  6
ByLayer
 62
  256
370
   -1
100
AcDbLine
 10
189.3245
 20
56.0144
 11
189.3245
 21
55.7062
  0
LINE
  5
1E8
100
AcDbEntity
  8
47
  6
ByLayer
 62
  256
370
   -1
100
AcDbLine
 10
198.5
 20
76
 11
203.45
 21
76
  0
LINE
  5
1E9
100
AcDbEntity
  8
47
  6
ByLayer
 62
  256
370
   -1
100
AcDbLine
 10
198
 20
58.5
 11
203.45
 21
58.5
  0
LINE
  5
1EA
100
AcDbEntity
  8
47
  6
ByLayer
 62
  256
370
   -1
100
AcDbLine
 10
201.5
 20
75.935
 11
201.5
 21
58.565
  0
LINE
  5
1EB
100
AcDbEntity
  8
47
  6
ByLayer
 62
  256
370
   -1
100
AcDbLine
 10
201.5
 20
75.935
 11
201.1808
 21
73.40000000000001
  0
LINE
  5
1EC
100
AcDbEntity
  8
47
  6
ByLayer
 62
  256
370
   -1
100
AcDbLine
 10
201.1808
 20
73.40000000000001
 11
201.8192
 21
73.40000000000001
  0
LINE
  5
1ED
100
AcDbEntity
  8
47
  6
ByLayer
 62
  256
370
   -1
100
AcDbLine
 10
201.8192
 20
73.40000000000001
 11
201.5
 21
75.935
  0
LINE
  5
1EE
100
AcDbEntity
  8
47
  6
ByLayer
 62
  256
370
   -1
100
AcDbLine
 10
201.5
 20
75.935
 11
201.37
 21
73.40000000000001
  0
LINE
  5
1EF
100
AcDbEntity
  8
47
  6
ByLayer
 62
  256
370
   -1
100
AcDbLine
 10
201.63
 20
73.40000000000001
 11
201.5
 21
75.935
  0
LINE
  5
1F0
100
AcDbEntity
  8
47
  6
ByLayer
 62
  256
370
   -1
100
AcDbLine
 10
201.5
 20
75.935
 11
201.24
 21
73.40000000000001
  0
LINE
  5
1F1
100
AcDbEntity
  8
47
  6
ByLayer
 62
  256
370
   -1
100
AcDbLine
 10
201.76
 20
73.40000000000001
 11
201.5
 21
75.935
  0
LINE
  5
1F2
100
AcDbEntity
  8
47
  6
ByLayer
 62
  256
370
   -1
100
AcDbLine
 10
201.5
 20
58.565
 11
201.1808
 21
61.1
  0
LINE
  5
1F3
100
AcDbEntity
  8
47
  6
ByLayer
 62
  256
370
   -1
100
AcDbLine
 10
201.1808
 20
61.1
 11
201.8192
 21
61.1
  0
LINE
  5
1F4
100
AcDbEntity
  8
47
  6
ByLayer
 62
  256
370
   -1
100
AcDbLine
 10
201.8192
 20
61.1
 11
201.5
 21
58.565
  0
LINE
  5
1F5
100
AcDbEntity
  8
47
  6
ByLayer
 62
  256
370
   -1
100
AcDbLine
 10
201.5
 20
58.565
 11
201.37
 21
61.1
  0
LINE
  5
1F6
100
AcDbEntity
  8
47
  6
ByLayer
 62
  256
370
   -1
100
AcDbLine
 10
201.63
 20
61.1
 11
201.5
 21
58.565
  0
LINE
  5
1F7
100
AcDbEntity
  8
47
  6
ByLayer
 62
  256
370
   -1
100
AcDbLine
 10
201.5
 20
58.565
 11
201.24
 21
61.1
  0
LINE
  5
1F8
100
AcDbEntity
  8
47
  6
ByLayer
 62
  256
370
   -1
100
AcDbLine
 10
201.76
 20
61.1
 11
201.5
 21
58.565
  0
LINE
  5
1F9
100
AcDbEntity
  8
47
  6
ByLayer
 62
  256
370
   -1
100
AcDbLine
 10
199.561
 20
64.5369
 11
198.9446
 21
65.1533
  0
LINE
  5
1FA
100
AcDbEntity
  8
47
  6
ByLayer
 62
  256
370
   -1
100
AcDbLine
 10
198.9446
 20
65.1533
 11
200.7938
 21
65.1533
  0
LINE
  5
1FB
100
AcDbEntity
  8
47
  6
ByLayer
 62
  256
370
   -1
100
AcDbLine
 10
200.7938
 20
64.5369
 11
200.7938
 21
65.7696
  0
LINE
  5
1FC
100
AcDbEntity
  8
47
  6
ByLayer
 62
  256
370
   -1
100
AcDbLine
 10
198.9446
 20
66.3784
 11
198.9446
 21
67.6112
  0
LINE
  5
1FD
100
AcDbEntity
  8
47
  6
ByLayer
 62
  256
370
   -1
100
AcDbLine
 10
198.9446
 20
67.6112
 11
199.2528
 21
67.6112
  0
LINE
  5
1FE
100
AcDbEntity
  8
47
  6
ByLayer
 62
  256
370
   -1
100
AcDbLine
 10
199.2528
 20
67.6112
 11
200.4856
 21
66.3784
  0
LINE
  5
1FF
100
AcDbEntity
  8
47
  6
ByLayer
 62
  256
370
   -1
100
AcDbLine
 10
200.4856
 20
66.3784
 11
200.7938
 21
66.3784
  0
LINE
  5
200
100
AcDbEntity
  8
47
  6
ByLayer
 62
  256
370
   -1
100
AcDbLine
 10
200.7938
 20
68.22
 11
200.4856
 21
68.22
  0
LINE
  5
201
100
AcDbEntity
  8
47
  6
ByLayer
 62
  256
370
   -1
100
AcDbLine
 10
200.4856
 20
68.22
 11
200.4856
 21
68.5282
  0
LINE
  5
202
100
AcDbEntity
  8
47
  6
ByLayer
 62
  256
370
   -1
100
AcDbLine
 10
200.4856
 20
68.5282
 11
200.7938
 21
68.5282
  0
LINE
  5
203
100
AcDbEntity
  8
47
  6
ByLayer
 62
  256
370
   -1
100
AcDbLine
 10
200.7938
 20
68.5282
 11
200.7938
 21
68.22
  0
LINE
  5
204
100
AcDbEntity
  8
47
  6
ByLayer
 62
  256
370
   -1
100
AcDbLine
 10
198.9446
 20
70.3736
 11
198.9446
 21
69.1408
  0
LINE
  5
205
100
AcDbEntity
  8
47
  6
ByLayer
 62
  256
370
   -1
100
AcDbLine
 10
198.9446
 20
69.1408
 11
199.8692
 21
69.1408
  0
LINE
  5
206
100
AcDbEntity
  8
47
  6
ByLayer
 62
  256
370
   -1
100
AcDbLine
 10
199.8692
 20
69.1408
 11
199.561
 21
69.7572
  0
LINE
  5
207
100
AcDbEntity
  8
47
  6
ByLayer
 62
  256
370
   -1
100
AcDbLine
 10
199.561
 20
69.7572
 11
199.561
 21
70.0654
  0
LINE
  5
208
100
AcDbEntity
  8
47
  6
ByLayer
 62
  256
370
   -1
100
AcDbLine
 10
199.561
 20
70.0654
 11
199.8692
 21
70.3736
  0
LINE
  5
209
100
AcDbEntity
  8
47
  6
ByLayer
 62
  256
370
   -1
100
AcDbLine
 10
199.8692
 20
70.3736
 11
200.4856
 21
70.3736
  0
LINE
  5
20A
100
AcDbEntity
  8
47
  6
ByLayer
 62
  256
370
   -1
100
AcDbLine
 10
200.4856
 20
70.3736
 11
200.7938
 21
70.0654
  0
LINE
  5
20B
100
AcDbEntity
  8
47
  6
ByLayer
 62
  256
370
   -1
100
AcDbLine
 10
200.7938
 20
70.0654
 11
200.7938
 21
69.449
  0
LINE
  5
20C
100
AcDbEntity
  8
47
  6
ByLayer
 62
  256
370
   -1
100
AcDbLine
 10
200.7938
 20
69.449
 11
200.4856
 21
69.1408
  0
LINE
  5
20D
100
AcDbEntity
  8
47
  6
ByLayer
 62
  256
370
   -1
100
AcDbLine
 10
126.05
 20
72.5
 11
126.05
 21
65.55
  0
LINE
  5
20E
100
AcDbEntity
  8
47
  6
ByLayer
 62
  256
370
   -1
100
AcDbLine
 10
122.95
 20
72.5
 11
122.95
 21
65.55
  0
LINE
  5
20F
100
AcDbEntity
  8
47
  6
ByLayer
 62
  256
370
   -1
100
AcDbLine
 10
122.885
 20
67.5
 11
117.75
 21
67.5
  0
LINE
  5
210
100
AcDbEntity
  8
47
  6
ByLayer
 62
  256
370
   -1
100
AcDbLine
 10
126.115
 20
67.5
 11
132.6309
 21
67.5
  0
LINE
  5
211
100
AcDbEntity
  8
47
  6
ByLayer
 62
  256
370
   -1
100
AcDbLine
 10
126.115
 20
67.5
 11
128.65
 21
67.8192
  0
LINE
  5
212
100
AcDbEntity
  8
47
  6
ByLayer
 62
  256
370
   -1
100
AcDbLine
 10
128.65
 20
67.8192
 11
128.65
 21
67.1808
  0
LINE
  5
213
100
AcDbEntity
  8
47
  6
ByLayer
 62
  256
370
   -1
100
AcDbLine
 10
128.65
 20
67.1808
 11
126.115
 21
67.5
  0
LINE
  5
214
100
AcDbEntity
  8
47
  6
ByLayer
 62
  256
370
   -1
100
AcDbLine
 10
126.115
 20
67.5
 11
128.65
 21
67.63
  0
LINE
  5
215
100
AcDbEntity
  8
47
  6
ByLayer
 62
  256
370
   -1
100
AcDbLine
 10
128.65
 20
67.37
 11
126.115
 21
67.5
  0
LINE
  5
216
100
AcDbEntity
  8
47
  6
ByLayer
 62
  256
370
   -1
100
AcDbLine
 10
126.115
 20
67.5
 11
128.65
 21
67.76000000000001
  0
LINE
  5
217
100
AcDbEntity
  8
47
  6
ByLayer
 62
  256
370
   -1
100
AcDbLine
 10
128.65
 20
67.23999999999999
 11
126.115
 21
67.5
  0
LINE
  5
218
100
AcDbEntity
  8
47
  6
ByLayer
 62
  256
370
   -1
100
AcDbLine
 10
122.885
 20
67.5
 11
120.35
 21
67.8192
  0
LINE
  5
219
100
AcDbEntity
  8
47
  6
ByLayer
 62
  256
370
   -1
100
AcDbLine
 10
120.35
 20
67.8192
 11
120.35
 21
67.1808
  0
LINE
  5
21A
100
AcDbEntity
  8
47
  6
ByLayer
 62
  256
370
   -1
100
AcDbLine
 10
120.35
 20
67.1808
 11
122.885
 21
67.5
  0
LINE
  5
21B
100
AcDbEntity
  8
47
  6
ByLayer
 62
  256
370
   -1
100
AcDbLine
 10
122.885
 20
67.5
 11
120.35
 21
67.63
  0
LINE
  5
21C
100
AcDbEntity
  8
47
  6
ByLayer
 62
  256
370
   -1
100
AcDbLine
 10
120.35
 20
67.37
 11
122.885
 21
67.5
  0
LINE
  5
21D
100
AcDbEntity
  8
47
  6
ByLayer
 62
  256
370
   -1
100
AcDbLine
 10
122.885
 20
67.5
 11
120.35
 21
67.76000000000001
  0
LINE
  5
21E
100
AcDbEntity
  8
47
  6
ByLayer
 62
  256
370
   -1
100
AcDbLine
 10
120.35
 20
67.23999999999999
 11
122.885
 21
67.5
  0
LINE
  5
21F
100
AcDbEntity
  8
47
  6
ByLayer
 62
  256
370
   -1
100
AcDbLine
 10
124.5
 20
72.1808
 11
124.5
 21
72.8192
  0
LINE
  5
220
100
AcDbEntity
  8
47
  6
ByLayer
 62
  256
370
   -1
100
AcDbLine
 10
124.1808
 20
72.5
 11
124.8192
 21
72.5
  0
LINE
  5
221
100
AcDbEntity
  8
47
  6
ByLayer
 62
  256
370
   -1
100
AcDbLine
 10
128.7262
 20
69.74720000000001
 11
129.0344
 21
70.05540000000001
  0
LINE
  5
222
100
AcDbEntity
  8
47
  6
ByLayer
 62
  256
370
   -1
100
AcDbLine
 10
129.0344
 20
70.05540000000001
 11
129.6508
 21
70.05540000000001
  0
LINE
  5
223
100
AcDbEntity
  8
47
  6
ByLayer
 62
  256
370
   -1
100
AcDbLine
 10
129.6508
 20
70.05540000000001
 11
129.959
 21
69.74720000000001
  0
LINE
  5
224
100
AcDbEntity
  8
47
  6
ByLayer
 62
  256
370
   -1
100
AcDbLine
 10
129.959
 20
69.74720000000001
 11
129.959
 21
69.43899999999999
  0
LINE
  5
225
100
AcDbEntity
  8
47
  6
ByLayer
 62
  256
370
   -1
100
AcDbLine
 10
129.959
 20
69.43899999999999
 11
129.6508
 21
69.13079999999999
  0
LINE
  5
226
100
AcDbEntity
  8
47
  6
ByLayer
 62
  256
370
   -1
100
AcDbLine
 10
129.6508
 20
69.13079999999999
 11
129.3426
 21
69.13079999999999
  0
LINE
  5
227
100
AcDbEntity
  8
47
  6
ByLayer
 62
  256
370
   -1
100
AcDbLine
 10
129.6508
 20
69.13079999999999
 11
129.959
 21
68.82259999999999
  0
LINE
  5
228
100
AcDbEntity
  8
47
  6
ByLayer
 62
  256
370
   -1
100
AcDbLine
 10
129.959
 20
68.82259999999999
 11
129.959
 21
68.51439999999999
  0
LINE
  5
229
100
AcDbEntity
  8
47
  6
ByLayer
 62
  256
370
   -1
100
AcDbLine
 10
129.959
 20
68.51439999999999
 11
129.6508
 21
68.2062
  0
LINE
  5
22A
100
AcDbEntity
  8
47
  6
ByLayer
 62
  256
370
   -1
100
AcDbLine
 10
129.6508
 20
68.2062
 11
129.0344
 21
68.2062
  0
LINE
  5
22B
100
AcDbEntity
  8
47
  6
ByLayer
 62
  256
370
   -1
100
AcDbLine
 10
129.0344
 20
68.2062
 11
128.7262
 21
68.51439999999999
  0
LINE
  5
22C
100
AcDbEntity
  8
47
  6
ByLayer
 62
  256
370
   -1
100
AcDbLine
 10
130.5678
 20
68.2062
 11
130.5678
 21
68.51439999999999
  0
LINE
  5
22D
100
AcDbEntity
  8
47
  6
ByLayer
 62
  256
370
   -1
100
AcDbLine
 10
130.5678
 20
68.51439999999999
 11
130.876
 21
68.51439999999999
  0
LINE
  5
22E
100
AcDbEntity
  8
47
  6
ByLayer
 62
  256
370
   -1
100
AcDbLine
 10
130.876
 20
68.51439999999999
 11
130.876
 21
68.2062
  0
LINE
  5
22F
100
AcDbEntity
  8
47
  6
ByLayer
 62
  256
370
   -1
100
AcDbLine
 10
130.876
 20
68.2062
 11
130.5678
 21
68.2062
  0
LINE
  5
230
100
AcDbEntity
  8
47
  6
ByLayer
 62
  256
370
   -1
100
AcDbLine
 10
131.4886
 20
69.43899999999999
 11
132.1049
 21
70.05540000000001
  0
LINE
  5
231
100
AcDbEntity
  8
47
  6
ByLayer
 62
  256
370
   -1
100
AcDbLine
 10
132.1049
 20
70.05540000000001
 11
132.1049
 21
68.2062
  0
LINE
  5
232
100
AcDbEntity
  8
47
  6
ByLayer
 62
  256
370
   -1
100
AcDbLine
 10
131.4886
 20
68.2062
 11
132.7213
 21
68.2062
  0
LINE
  5
233
100
AcDbEntity
  8
47
  6
ByLayer
 62
  256
370
   -1
100
AcDbLine
 10
151.5
 20
72
 11
156.45
 21
72
  0
LINE
  5
234
100
AcDbEntity
  8
47
  6
ByLayer
 62
  256
370
   -1
100
AcDbLine
 10
152
 20
60
 11
156.45
 21
60
  0
LINE
  5
235
100
AcDbEntity
  8
47
  6
ByLayer
 62
  256
370
   -1
100
AcDbLine
 10
154.5
 20
71.935
 11
154.5
 21
60.065
  0
LINE
  5
236
100
AcDbEntity
  8
47
  6
ByLayer
 62
  256
370
   -1
100
AcDbLine
 10
154.5
 20
71.935
 11
154.1808
 21
69.40000000000001
  0
LINE
  5
237
100
AcDbEntity
  8
47
  6
ByLayer
 62
  256
370
   -1
100
AcDbLine
 10
154.1808
 20
69.40000000000001
 11
154.8192
 21
69.40000000000001
  0
LINE
  5
238
100
AcDbEntity
  8
47
  6
ByLayer
 62
  256
370
   -1
100
AcDbLine
 10
154.8192
 20
69.40000000000001
 11
154.5
 21
71.935
  0
LINE
  5
239
100
AcDbEntity
  8
47
  6
ByLayer
 62
  256
370
   -1
100
AcDbLine
 10
154.5
 20
71.935
 11
154.37
 21
69.40000000000001
  0
LINE
  5
23A
100
AcDbEntity
  8
47
  6
ByLayer
 62
  256
370
   -1
100
AcDbLine
 10
154.63
 20
69.40000000000001
 11
154.5
 21
71.935
  0
LINE
  5
23B
100
AcDbEntity
  8
47
  6
ByLayer
 62
  256
370
   -1
100
AcDbLine
 10
154.5
 20
71.935
 11
154.24
 21
69.40000000000001
  0
LINE
  5
23C
100
AcDbEntity
  8
47
  6
ByLayer
 62
  256
370
   -1
100
AcDbLine
 10
154.76
 20
69.40000000000001
 11
154.5
 21
71.935
  0
LINE
  5
23D
100
AcDbEntity
  8
47
  6
ByLayer
 62
  256
370
   -1
100
AcDbLine
 10
154.5
 20
60.065
 11
154.1808
 21
62.6
  0
LINE
  5
23E
100
AcDbEntity
  8
47
  6
ByLayer
 62
  256
370
   -1
100
AcDbLine
 10
154.1808
 20
62.6
 11
154.8192
 21
62.6
  0
LINE
  5
23F
100
AcDbEntity
  8
47
  6
ByLayer
 62
  256
370
   -1
100
AcDbLine
 10
154.8192
 20
62.6
 11
154.5
 21
60.065
  0
LINE
  5
240
100
AcDbEntity
  8
47
  6
ByLayer
 62
  256
370
   -1
100
AcDbLine
 10
154.5
 20
60.065
 11
154.37
 21
62.6
  0
LINE
  5
241
100
AcDbEntity
  8
47
  6
ByLayer
 62
  256
370
   -1
100
AcDbLine
 10
154.63
 20
62.6
 11
154.5
 21
60.065
  0
LINE
  5
242
100
AcDbEntity
  8
47
  6
ByLayer
 62
  256
370
   -1
100
AcDbLine
 10
154.5
 20
60.065
 11
154.24
 21
62.6
  0
LINE
  5
243
100
AcDbEntity
  8
47
  6
ByLayer
 62
  256
370
   -1
100
AcDbLine
 10
154.76
 20
62.6
 11
154.5
 21
60.065
  0
LINE
  5
244
100
AcDbEntity
  8
47
  6
ByLayer
 62
  256
370
   -1
100
AcDbLine
 10
152.561
 20
64.4829
 11
151.9446
 21
65.0993
  0
LINE
  5
245
100
AcDbEntity
  8
47
  6
ByLayer
 62
  256
370
   -1
100
AcDbLine
 10
151.9446
 20
65.0993
 11
153.7938
 21
65.0993
  0
LINE
  5
246
100
AcDbEntity
  8
47
  6
ByLayer
 62
  256
370
   -1
100
AcDbLine
 10
153.7938
 20
64.4829
 11
153.7938
 21
65.7157
  0
LINE
  5
247
100
AcDbEntity
  8
47
  6
ByLayer
 62
  256
370
   -1
100
AcDbLine
 10
153.7938
 20
67.5573
 11
153.7938
 21
66.3245
  0
LINE
  5
248
100
AcDbEntity
  8
47
  6
ByLayer
 62
  256
370
   -1
100
AcDbLine
 10
153.7938
 20
66.3245
 11
152.561
 21
67.5573
  0
LINE
  5
249
100
AcDbEntity
  8
47
  6
ByLayer
 62
  256
370
   -1
100
AcDbLine
 10
152.561
 20
67.5573
 11
152.2528
 21
67.5573
  0
LINE
  5
24A
100
AcDbEntity
  8
47
  6
ByLayer
 62
  256
370
   -1
100
AcDbLine
 10
152.2528
 20
67.5573
 11
151.9446
 21
67.2491
  0
LINE
  5
24B
100
AcDbEntity
  8
47
  6
ByLayer
 62
  256
370
   -1
100
AcDbLine
 10
151.9446
 20
67.2491
 11
151.9446
 21
66.6327
  0
LINE
  5
24C
100
AcDbEntity
  8
47
  6
ByLayer
 62
  256
370
   -1
100
AcDbLine
 10
151.9446
 20
66.6327
 11
152.2528
 21
66.3245
  0
LINE
  5
24D
100
AcDbEntity
  8
47
  6
ByLayer
 62
  256
370
   -1
100
AcDbLine
 10
290
 20
0
 11
290
 21
-7.95
  0
LINE
  5
24E
100
AcDbEntity
  8
47
  6
ByLayer
 62
  256
370
   -1
100
AcDbLine
 10
0
 20
-1
 11
0
 21
-7.95
  0
LINE
  5
24F
100
AcDbEntity
  8
47
  6
ByLayer
 62
  256
370
   -1
100
AcDbLine
 10
289.935
 20
-6
 11
0.065
 21
-6
  0
LINE
  5
250
100
AcDbEntity
  8
47
  6
ByLayer
 62
  256
370
   -1
100
AcDbLine
 10
289.935
 20
-6
 11
287.4
 21
-5.6808
  0
LINE
  5
251
100
AcDbEntity
  8
47
  6
ByLayer
 62
  256
370
   -1
100
AcDbLine
 10
287.4
 20
-5.6808
 11
287.4
 21
-6.3192
  0
LINE
  5
252
100
AcDbEntity
  8
47
  6
ByLayer
 62
  256
370
   -1
100
AcDbLine
 10
287.4
 20
-6.3192
 11
289.935
 21
-6
  0
LINE
  5
253
100
AcDbEntity
  8
47
  6
ByLayer
 62
  256
370
   -1
100
AcDbLine
 10
289.935
 20
-6
 11
287.4
 21
-5.87
  0
LINE
  5
254
100
AcDbEntity
  8
47
  6
ByLayer
 62
  256
370
   -1
100
AcDbLine
 10
287.4
 20
-6.13
 11
289.935
 21
-6
  0
LINE
  5
255
100
AcDbEntity
  8
47
  6
ByLayer
 62
  256
370
   -1
100
AcDbLine
 10
289.935
 20
-6
 11
287.4
 21
-5.74
  0
LINE
  5
256
100
AcDbEntity
  8
47
  6
ByLayer
 62
  256
370
   -1
100
AcDbLine
 10
287.4
 20
-6.26
 11
289.935
 21
-6
  0
LINE
  5
257
100
AcDbEntity
  8
47
  6
ByLayer
 62
  256
370
   -1
100
AcDbLine
 10
0.065
 20
-6
 11
2.6
 21
-5.6808
  0
LINE
  5
258
100
AcDbEntity
  8
47
  6
ByLayer
 62
  256
370
   -1
100
AcDbLine
 10
2.6
 20
-5.6808
 11
2.6
 21
-6.3192
  0
LINE
  5
259
100
AcDbEntity
  8
47
  6
ByLayer
 62
  256
370
   -1
100
AcDbLine
 10
2.6
 20
-6.3192
 11
0.065
 21
-6
  0
LINE
  5
25A
100
AcDbEntity
  8
47
  6
ByLayer
 62
  256
370
   -1
100
AcDbLine
 10
0.065
 20
-6
 11
2.6
 21
-5.87
  0
LINE
  5
25B
100
AcDbEntity
  8
47
  6
ByLayer
 62
  256
370
   -1
100
AcDbLine
 10
2.6
 20
-6.13
 11
0.065
 21
-6
  0
LINE
  5
25C
100
AcDbEntity
  8
47
  6
ByLayer
 62
  256
370
   -1
100
AcDbLine
 10
0.065
 20
-6
 11
2.6
 21
-5.74
  0
LINE
  5
25D
100
AcDbEntity
  8
47
  6
ByLayer
 62
  256
370
   -1
100
AcDbLine
 10
2.6
 20
-6.26
 11
0.065
 21
-6
  0
LINE
  5
25E
100
AcDbEntity
  8
47
  6
ByLayer
 62
  256
370
   -1
100
AcDbLine
 10
143.9213
 20
-5.2938
 11
142.6885
 21
-5.2938
  0
LINE
  5
25F
100
AcDbEntity
  8
47
  6
ByLayer
 62
  256
370
   -1
100
AcDbLine
 10
142.6885
 20
-5.2938
 11
143.9213
 21
-4.061
  0
LINE
  5
260
100
AcDbEntity
  8
47
  6
ByLayer
 62
  256
370
   -1
100
AcDbLine
 10
143.9213
 20
-4.061
 11
143.9213
 21
-3.7528
  0
LINE
  5
261
100
AcDbEntity
  8
47
  6
ByLayer
 62
  256
370
   -1
100
AcDbLine
 10
143.9213
 20
-3.7528
 11
143.6131
 21
-3.4446
  0
LINE
  5
262
100
AcDbEntity
  8
47
  6
ByLayer
 62
  256
370
   -1
100
AcDbLine
 10
143.6131
 20
-3.4446
 11
142.9967
 21
-3.4446
  0
LINE
  5
263
100
AcDbEntity
  8
47
  6
ByLayer
 62
  256
370
   -1
100
AcDbLine
 10
142.9967
 20
-3.4446
 11
142.6885
 21
-3.7528
  0
LINE
  5
264
100
AcDbEntity
  8
47
  6
ByLayer
 62
  256
370
   -1
100
AcDbLine
 10
144.5301
 20
-4.9856
 11
144.8383
 21
-5.2938
  0
LINE
  5
265
100
AcDbEntity
  8
47
  6
ByLayer
 62
  256
370
   -1
100
AcDbLine
 10
144.8383
 20
-5.2938
 11
145.4547
 21
-5.2938
  0
LINE
  5
266
100
AcDbEntity
  8
47
  6
ByLayer
 62
  256
370
   -1
100
AcDbLine
 10
145.4547
 20
-5.2938
 11
145.7629
 21
-4.9856
  0
LINE
  5
267
100
AcDbEntity
  8
47
  6
ByLayer
 62
  256
370
   -1
100
AcDbLine
 10
145.7629
 20
-4.9856
 11
145.7629
 21
-3.7528
  0
LINE
  5
268
100
AcDbEntity
  8
47
  6
ByLayer
 62
  256
370
   -1
100
AcDbLine
 10
145.7629
 20
-3.7528
 11
145.4547
 21
-3.4446
  0
LINE
  5
269
100
AcDbEntity
  8
47
  6
ByLayer
 62
  256
370
   -1
100
AcDbLine
 10
145.4547
 20
-3.4446
 11
144.8383
 21
-3.4446
  0
LINE
  5
26A
100
AcDbEntity
  8
47
  6
ByLayer
 62
  256
370
   -1
100
AcDbLine
 10
144.8383
 20
-3.4446
 11
144.5301
 21
-3.7528
  0
LINE
  5
26B
100
AcDbEntity
  8
47
  6
ByLayer
 62
  256
370
   -1
100
AcDbLine
 10
144.5301
 20
-3.7528
 11
144.5301
 21
-4.061
  0
LINE
  5
26C
100
AcDbEntity
  8
47
  6
ByLayer
 62
  256
370
   -1
100
AcDbLine
 10
144.5301
 20
-4.061
 11
144.8383
 21
-4.3692
  0
LINE
  5
26D
100
AcDbEntity
  8
47
  6
ByLayer
 62
  256
370
   -1
100
AcDbLine
 10
144.8383
 20
-4.3692
 11
145.7629
 21
-4.3692
  0
LINE
  5
26E
100
AcDbEntity
  8
47
  6
ByLayer
 62
  256
370
   -1
100
AcDbLine
 10
146.3717
 20
-4.9856
 11
146.3717
 21
-3.7528
  0
LINE
  5
26F
100
AcDbEntity
  8
47
  6
ByLayer
 62
  256
370
   -1
100
AcDbLine
 10
146.3717
 20
-3.7528
 11
146.6799
 21
-3.4446
  0
LINE
  5
270
100
AcDbEntity
  8
47
  6
ByLayer
 62
  256
370
   -1
100
AcDbLine
 10
146.6799
 20
-3.4446
 11
147.2963
 21
-3.4446
  0
LINE
  5
271
100
AcDbEntity
  8
47
  6
ByLayer
 62
  256
370
   -1
100
AcDbLine
 10
147.2963
 20
-3.4446
 11
147.6045
 21
-3.7528
  0
LINE
  5
272
100
AcDbEntity
  8
47
  6
ByLayer
 62
  256
370
   -1
100
AcDbLine
 10
147.6045
 20
-3.7528
 11
147.6045
 21
-4.9856
  0
LINE
  5
273
100
AcDbEntity
  8
47
  6
ByLayer
 62
  256
370
   -1
100
AcDbLine
 10
147.6045
 20
-4.9856
 11
147.2963
 21
-5.2938
  0
LINE
  5
274
100
AcDbEntity
  8
47
  6
ByLayer
 62
  256
370
   -1
100
AcDbLine
 10
147.2963
 20
-5.2938
 11
146.6799
 21
-5.2938
  0
LINE
  5
275
100
AcDbEntity
  8
47
  6
ByLayer
 62
  256
370
   -1
100
AcDbLine
 10
146.6799
 20
-5.2938
 11
146.3717
 21
-4.9856
  0
LINE
  5
276
100
AcDbEntity
  8
47
  6
ByLayer
 62
  256
370
   -1
100
AcDbLine
 10
146.3717
 20
-4.9856
 11
147.6045
 21
-3.7528
  0
LINE
  5
277
100
AcDbEntity
  8
47
  6
ByLayer
 62
  256
370
   -1
100
AcDbLine
 10
290
 20
80
 11
298.95
 21
80
  0
LINE
  5
278
100
AcDbEntity
  8
47
  6
ByLayer
 62
  256
370
   -1
100
AcDbLine
 10
291
 20
0
 11
298.95
 21
0
  0
LINE
  5
279
100
AcDbEntity
  8
47
  6
ByLayer
 62
  256
370
   -1
100
AcDbLine
 10
297
 20
79.935
 11
297
 21
0.065
  0
LINE
  5
27A
100
AcDbEntity
  8
47
  6
ByLayer
 62
  256
370
   -1
100
AcDbLine
 10
297
 20
79.935
 11
296.6808
 21
77.40000000000001
  0
LINE
  5
27B
100
AcDbEntity
  8
47
  6
ByLayer
 62
  256
370
   -1
100
AcDbLine
 10
296.6808
 20
77.40000000000001
 11
297.3192
 21
77.40000000000001
  0
LINE
  5
27C
100
AcDbEntity
  8
47
  6
ByLayer
 62
  256
370
   -1
100
AcDbLine
 10
297.3192
 20
77.40000000000001
 11
297
 21
79.935
  0
LINE
  5
27D
100
AcDbEntity
  8
47
  6
ByLayer
 62
  256
370
   -1
100
AcDbLine
 10
297
 20
79.935
 11
296.87
 21
77.40000000000001
  0
LINE
  5
27E
100
AcDbEntity
  8
47
  6
ByLayer
 62
  256
370
   -1
100
AcDbLine
 10
297.13
 20
77.40000000000001
 11
297
 21
79.935
  0
LINE
  5
27F
100
AcDbEntity
  8
47
  6
ByLayer
 62
  256
370
   -1
100
AcDbLine
 10
297
 20
79.935
 11
296.74
 21
77.40000000000001
  0
LINE
  5
280
100
AcDbEntity
  8
47
  6
ByLayer
 62
  256
370
   -1
100
AcDbLine
 10
297.26
 20
77.40000000000001
 11
297
 21
79.935
  0
LINE
  5
281
100
AcDbEntity
  8
47
  6
ByLayer
 62
  256
370
   -1
100
AcDbLine
 10
297
 20
0.065
 11
296.6808
 21
2.6
  0
LINE
  5
282
100
AcDbEntity
  8
47
  6
ByLayer
 62
  256
370
   -1
100
AcDbLine
 10
296.6808
 20
2.6
 11
297.3192
 21
2.6
  0
LINE
  5
283
100
AcDbEntity
  8
47
  6
ByLayer
 62
  256
370
   -1
100
AcDbLine
 10
297.3192
 20
2.6
 11
297
 21
0.065
  0
LINE
  5
284
100
AcDbEntity
  8
47
  6
ByLayer
 62
  256
370
   -1
100
AcDbLine
 10
297
 20
0.065
 11
296.87
 21
2.6
  0
LINE
  5
285
100
AcDbEntity
  8
47
  6
ByLayer
 62
  256
370
   -1
100
AcDbLine
 10
297.13
 20
2.6
 11
297
 21
0.065
  0
LINE
  5
286
100
AcDbEntity
  8
47
  6
ByLayer
 62
  256
370
   -1
100
AcDbLine
 10
297
 20
0.065
 11
296.74
 21
2.6
  0
LINE
  5
287
100
AcDbEntity
  8
47
  6
ByLayer
 62
  256
370
   -1
100
AcDbLine
 10
297.26
 20
2.6
 11
297
 21
0.065
  0
LINE
  5
288
100
AcDbEntity
  8
47
  6
ByLayer
 62
  256
370
   -1
100
AcDbLine
 10
294.7528
 20
38.4829
 11
294.4446
 21
38.7911
  0
LINE
  5
289
100
AcDbEntity
  8
47
  6
ByLayer
 62
  256
370
   -1
100
AcDbLine
 10
294.4446
 20
38.7911
 11
294.4446
 21
39.4075
  0
LINE
  5
28A
100
AcDbEntity
  8
47
  6
ByLayer
 62
  256
370
   -1
100
AcDbLine
 10
294.4446
 20
39.4075
 11
294.7528
 21
39.7157
  0
LINE
  5
28B
100
AcDbEntity
  8
47
  6
ByLayer
 62
  256
370
   -1
100
AcDbLine
 10
294.7528
 20
39.7157
 11
295.061
 21
39.7157
  0
LINE
  5
28C
100
AcDbEntity
  8
47
  6
ByLayer
 62
  256
370
   -1
100
AcDbLine
 10
295.061
 20
39.7157
 11
295.3692
 21
39.4075
  0
LINE
  5
28D
100
AcDbEntity
  8
47
  6
ByLayer
 62
  256
370
   -1
100
AcDbLine
 10
295.3692
 20
39.4075
 11
295.6774
 21
39.7157
  0
LINE
  5
28E
100
AcDbEntity
  8
47
  6
ByLayer
 62
  256
370
   -1
100
AcDbLine
 10
295.6774
 20
39.7157
 11
295.9856
 21
39.7157
  0
LINE
  5
28F
100
AcDbEntity
  8
47
  6
ByLayer
 62
  256
370
   -1
100
AcDbLine
 10
295.9856
 20
39.7157
 11
296.2938
 21
39.4075
  0
LINE
  5
290
100
AcDbEntity
  8
47
  6
ByLayer
 62
  256
370
   -1
100
AcDbLine
 10
296.2938
 20
39.4075
 11
296.2938
 21
38.7911
  0
LINE
  5
291
100
AcDbEntity
  8
47
  6
ByLayer
 62
  256
370
   -1
100
AcDbLine
 10
296.2938
 20
38.7911
 11
295.9856
 21
38.4829
  0
LINE
  5
292
100
AcDbEntity
  8
47
  6
ByLayer
 62
  256
370
   -1
100
AcDbLine
 10
295.9856
 20
38.4829
 11
295.6774
 21
38.4829
  0
LINE
  5
293
100
AcDbEntity
  8
47
  6
ByLayer
 62
  256
370
   -1
100
AcDbLine
 10
295.6774
 20
38.4829
 11
295.3692
 21
38.7911
  0
LINE
  5
294
100
AcDbEntity
  8
47
  6
ByLayer
 62
  256
370
   -1
100
AcDbLine
 10
295.3692
 20
38.7911
 11
295.061
 21
38.4829
  0
LINE
  5
295
100
AcDbEntity
  8
47
  6
ByLayer
 62
  256
370
   -1
100
AcDbLine
 10
295.061
 20
38.4829
 11
294.7528
 21
38.4829
  0
LINE
  5
296
100
AcDbEntity
  8
47
  6
ByLayer
 62
  256
370
   -1
100
AcDbLine
 10
295.3692
 20
38.7911
 11
295.3692
 21
39.4075
  0
LINE
  5
297
100
AcDbEntity
  8
47
  6
ByLayer
 62
  256
370
   -1
100
AcDbLine
 10
295.9856
 20
40.3245
 11
294.7528
 21
40.3245
  0
LINE
  5
298
100
AcDbEntity
  8
47
  6
ByLayer
 62
  256
370
   -1
100
AcDbLine
 10
294.7528
 20
40.3245
 11
294.4446
 21
40.6327
  0
LINE
  5
299
100
AcDbEntity
  8
47
  6
ByLayer
 62
  256
370
   -1
100
AcDbLine
 10
294.4446
 20
40.6327
 11
294.4446
 21
41.2491
  0
LINE
  5
29A
100
AcDbEntity
  8
47
  6
ByLayer
 62
  256
370
   -1
100
AcDbLine
 10
294.4446
 20
41.2491
 11
294.7528
 21
41.5573
  0
LINE
  5
29B
100
AcDbEntity
  8
47
  6
ByLayer
 62
  256
370
   -1
100
AcDbLine
 10
294.7528
 20
41.5573
 11
295.9856
 21
41.5573
  0
LINE
  5
29C
100
AcDbEntity
  8
47
  6
ByLayer
 62
  256
370
   -1
100
AcDbLine
 10
295.9856
 20
41.5573
 11
296.2938
 21
41.2491
  0
LINE
  5
29D
100
AcDbEntity
  8
47
  6
ByLayer
 62
  256
370
   -1
100
AcDbLine
 10
296.2938
 20
41.2491
 11
296.2938
 21
40.6327
  0
LINE
  5
29E
100
AcDbEntity
  8
47
  6
ByLayer
 62
  256
370
   -1
100
AcDbLine
 10
296.2938
 20
40.6327
 11
295.9856
 21
40.3245
  0
LINE
  5
29F
100
AcDbEntity
  8
47
  6
ByLayer
 62
  256
370
   -1
100
AcDbLine
 10
295.9856
 20
40.3245
 11
294.7528
 21
41.5573
  0
LINE
  5
2A0
100
AcDbEntity
  8
47
  6
ByLayer
 62
  256
370
   -1
100
AcDbLine
 10
124.5
 20
7
 11
124.5
 21
42.95
  0
LINE
  5
2A1
100
AcDbEntity
  8
47
  6
ByLayer
 62
  256
370
   -1
100
AcDbLine
 10
216.5
 20
75
 11
216.5
 21
39.05
  0
LINE
  5
2A2
100
AcDbEntity
  8
47
  6
ByLayer
 62
  256
370
   -1
100
AcDbLine
 10
124.565
 20
41
 11
216.435
 21
41
  0
LINE
  5
2A3
100
AcDbEntity
  8
47
  6
ByLayer
 62
  256
370
   -1
100
AcDbLine
 10
124.565
 20
41
 11
127.1
 21
41.3192
  0
LINE
  5
2A4
100
AcDbEntity
  8
47
  6
ByLayer
 62
  256
370
   -1
100
AcDbLine
 10
127.1
 20
41.3192
 11
127.1
 21
40.6808
  0
LINE
  5
2A5
100
AcDbEntity
  8
47
  6
ByLayer
 62
  256
370
   -1
100
AcDbLine
 10
127.1
 20
40.6808
 11
124.565
 21
41
  0
LINE
  5
2A6
100
AcDbEntity
  8
47
  6
ByLayer
 62
  256
370
   -1
100
AcDbLine
 10
124.565
 20
41
 11
127.1
 21
41.13
  0
LINE
  5
2A7
100
AcDbEntity
  8
47
  6
ByLayer
 62
  256
370
   -1
100
AcDbLine
 10
127.1
 20
40.87
 11
124.565
 21
41
  0
LINE
  5
2A8
100
AcDbEntity
  8
47
  6
ByLayer
 62
  256
370
   -1
100
AcDbLine
 10
124.565
 20
41
 11
127.1
 21
41.26
  0
LINE
  5
2A9
100
AcDbEntity
  8
47
  6
ByLayer
 62
  256
370
   -1
100
AcDbLine
 10
127.1
 20
40.74
 11
124.565
 21
41
  0
LINE
  5
2AA
100
AcDbEntity
  8
47
  6
ByLayer
 62
  256
370
   -1
100
AcDbLine
 10
216.435
 20
41
 11
213.9
 21
41.3192
  0
LINE
  5
2AB
100
AcDbEntity
  8
47
  6
ByLayer
 62
  256
370
   -1
100
AcDbLine
 10
213.9
 20
41.3192
 11
213.9
 21
40.6808
  0
LINE
  5
2AC
100
AcDbEntity
  8
47
  6
ByLayer
 62
  256
370
   -1
100
AcDbLine
 10
213.9
 20
40.6808
 11
216.435
 21
41
  0
LINE
  5
2AD
100
AcDbEntity
  8
47
  6
ByLayer
 62
  256
370
   -1
100
AcDbLine
 10
216.435
 20
41
 11
213.9
 21
41.13
  0
LINE
  5
2AE
100
AcDbEntity
  8
47
  6
ByLayer
 62
  256
370
   -1
100
AcDbLine
 10
213.9
 20
40.87
 11
216.435
 21
41
  0
LINE
  5
2AF
100
AcDbEntity
  8
47
  6
ByLayer
 62
  256
370
   -1
100
AcDbLine
 10
216.435
 20
41
 11
213.9
 21
41.26
  0
LINE
  5
2B0
100
AcDbEntity
  8
47
  6
ByLayer
 62
  256
370
   -1
100
AcDbLine
 10
213.9
 20
40.74
 11
216.435
 21
41
  0
LINE
  5
2B1
100
AcDbEntity
  8
47
  6
ByLayer
 62
  256
370
   -1
100
AcDbLine
 10
168.9829
 20
42.0144
 11
169.2911
 21
41.7062
  0
LINE
  5
2B2
100
AcDbEntity
  8
47
  6
ByLayer
 62
  256
370
   -1
100
AcDbLine
 10
169.2911
 20
41.7062
 11
169.9075
 21
41.7062
  0
LINE
  5
2B3
100
AcDbEntity
  8
47
  6
ByLayer
 62
  256
370
   -1
100
AcDbLine
 10
169.9075
 20
41.7062
 11
170.2157
 21
42.0144
  0
LINE
  5
2B4
100
AcDbEntity
  8
47
  6
ByLayer
 62
  256
370
   -1
100
AcDbLine
 10
170.2157
 20
42.0144
 11
170.2157
 21
43.2472
  0
LINE
  5
2B5
100
AcDbEntity
  8
47
  6
ByLayer
 62
  256
370
   -1
100
AcDbLine
 10
170.2157
 20
43.2472
 11
169.9075
 21
43.5554
  0
LINE
  5
2B6
100
AcDbEntity
  8
47
  6
ByLayer
 62
  256
370
   -1
100
AcDbLine
 10
169.9075
 20
43.5554
 11
169.2911
 21
43.5554
  0
LINE
  5
2B7
100
AcDbEntity
  8
47
  6
ByLayer
 62
  256
370
   -1
100
AcDbLine
 10
169.2911
 20
43.5554
 11
168.9829
 21
43.2472
  0
LINE
  5
2B8
100
AcDbEntity
  8
47
  6
ByLayer
 62
  256
370
   -1
100
AcDbLine
 10
168.9829
 20
43.2472
 11
168.9829
 21
42.939
  0
LINE
  5
2B9
100
AcDbEntity
  8
47
  6
ByLayer
 62
  256
370
   -1
100
AcDbLine
 10
168.9829
 20
42.939
 11
169.2911
 21
42.6308
  0
LINE
  5
2BA
100
AcDbEntity
  8
47
  6
ByLayer
 62
  256
370
   -1
100
AcDbLine
 10
169.2911
 20
42.6308
 11
170.2157
 21
42.6308
  0
LINE
  5
2BB
100
AcDbEntity
  8
47
  6
ByLayer
 62
  256
370
   -1
100
AcDbLine
 10
172.0573
 20
41.7062
 11
170.8245
 21
41.7062
  0
LINE
  5
2BC
100
AcDbEntity
  8
47
  6
ByLayer
 62
  256
370
   -1
100
AcDbLine
 10
170.8245
 20
41.7062
 11
172.0573
 21
42.939
  0
LINE
  5
2BD
100
AcDbEntity
  8
47
  6
ByLayer
 62
  256
370
   -1
100
AcDbLine
 10
172.0573
 20
42.939
 11
172.0573
 21
43.2472
  0
LINE
  5
2BE
100
AcDbEntity
  8
47
  6
ByLayer
 62
  256
370
   -1
100
AcDbLine
 10
172.0573
 20
43.2472
 11
171.7491
 21
43.5554
  0
LINE
  5
2BF
100
AcDbEntity
  8
47
  6
ByLayer
 62
  256
370
   -1
100
AcDbLine
 10
171.7491
 20
43.5554
 11
171.1327
 21
43.5554
  0
LINE
  5
2C0
100
AcDbEntity
  8
47
  6
ByLayer
 62
  256
370
   -1
100
AcDbLine
 10
171.1327
 20
43.5554
 11
170.8245
 21
43.2472
  0
LINE
  5
2C1
100
AcDbEntity
  8
47
  6
ByLayer
 62
  256
370
   -1
100
AcDbLine
 10
127.5
 20
72.5
 11
116.55
 21
72.5
  0
LINE
  5
2C2
100
AcDbEntity
  8
47
  6
ByLayer
 62
  256
370
   -1
100
AcDbLine
 10
128
 20
9.5
 11
116.55
 21
9.5
  0
LINE
  5
2C3
100
AcDbEntity
  8
47
  6
ByLayer
 62
  256
370
   -1
100
AcDbLine
 10
118.5
 20
72.435
 11
118.5
 21
9.565
  0
LINE
  5
2C4
100
AcDbEntity
  8
47
  6
ByLayer
 62
  256
370
   -1
100
AcDbLine
 10
118.5
 20
72.435
 11
118.1808
 21
69.90000000000001
  0
LINE
  5
2C5
100
AcDbEntity
  8
47
  6
ByLayer
 62
  256
370
   -1
100
AcDbLine
 10
118.1808
 20
69.90000000000001
 11
118.8192
 21
69.90000000000001
  0
LINE
  5
2C6
100
AcDbEntity
  8
47
  6
ByLayer
 62
  256
370
   -1
100
AcDbLine
 10
118.8192
 20
69.90000000000001
 11
118.5
 21
72.435
  0
LINE
  5
2C7
100
AcDbEntity
  8
47
  6
ByLayer
 62
  256
370
   -1
100
AcDbLine
 10
118.5
 20
72.435
 11
118.37
 21
69.90000000000001
  0
LINE
  5
2C8
100
AcDbEntity
  8
47
  6
ByLayer
 62
  256
370
   -1
100
AcDbLine
 10
118.63
 20
69.90000000000001
 11
118.5
 21
72.435
  0
LINE
  5
2C9
100
AcDbEntity
  8
47
  6
ByLayer
 62
  256
370
   -1
100
AcDbLine
 10
118.5
 20
72.435
 11
118.24
 21
69.90000000000001
  0
LINE
  5
2CA
100
AcDbEntity
  8
47
  6
ByLayer
 62
  256
370
   -1
100
AcDbLine
 10
118.76
 20
69.90000000000001
 11
118.5
 21
72.435
  0
LINE
  5
2CB
100
AcDbEntity
  8
47
  6
ByLayer
 62
  256
370
   -1
100
AcDbLine
 10
118.5
 20
9.565
 11
118.1808
 21
12.1
  0
LINE
  5
2CC
100
AcDbEntity
  8
47
  6
ByLayer
 62
  256
370
   -1
100
AcDbLine
 10
118.1808
 20
12.1
 11
118.8192
 21
12.1
  0
LINE
  5
2CD
100
AcDbEntity
  8
47
  6
ByLayer
 62
  256
370
   -1
100
AcDbLine
 10
118.8192
 20
12.1
 11
118.5
 21
9.565
  0
LINE
  5
2CE
100
AcDbEntity
  8
47
  6
ByLayer
 62
  256
370
   -1
100
AcDbLine
 10
118.5
 20
9.565
 11
118.37
 21
12.1
  0
LINE
  5
2CF
100
AcDbEntity
  8
47
  6
ByLayer
 62
  256
370
   -1
100
AcDbLine
 10
118.63
 20
12.1
 11
118.5
 21
9.565
  0
LINE
  5
2D0
100
AcDbEntity
  8
47
  6
ByLayer
 62
  256
370
   -1
100
AcDbLine
 10
118.5
 20
9.565
 11
118.24
 21
12.1
  0
LINE
  5
2D1
100
AcDbEntity
  8
47
  6
ByLayer
 62
  256
370
   -1
100
AcDbLine
 10
118.76
 20
12.1
 11
118.5
 21
9.565
  0
LINE
  5
2D2
100
AcDbEntity
  8
47
  6
ByLayer
 62
  256
370
   -1
100
AcDbLine
 10
115.9446
 20
40.7157
 11
116.2528
 21
40.0993
  0
LINE
  5
2D3
100
AcDbEntity
  8
47
  6
ByLayer
 62
  256
370
   -1
100
AcDbLine
 10
116.2528
 20
40.0993
 11
116.8692
 21
39.4829
  0
LINE
  5
2D4
100
AcDbEntity
  8
47
  6
ByLayer
 62
  256
370
   -1
100
AcDbLine
 10
116.8692
 20
39.4829
 11
117.4856
 21
39.4829
  0
LINE
  5
2D5
100
AcDbEntity
  8
47
  6
ByLayer
 62
  256
370
   -1
100
AcDbLine
 10
117.4856
 20
39.4829
 11
117.7938
 21
39.7911
  0
LINE
  5
2D6
100
AcDbEntity
  8
47
  6
ByLayer
 62
  256
370
   -1
100
AcDbLine
 10
117.7938
 20
39.7911
 11
117.7938
 21
40.4075
  0
LINE
  5
2D7
100
AcDbEntity
  8
47
  6
ByLayer
 62
  256
370
   -1
100
AcDbLine
 10
117.7938
 20
40.4075
 11
117.4856
 21
40.7157
  0
LINE
  5
2D8
100
AcDbEntity
  8
47
  6
ByLayer
 62
  256
370
   -1
100
AcDbLine
 10
117.4856
 20
40.7157
 11
117.1774
 21
40.7157
  0
LINE
  5
2D9
100
AcDbEntity
  8
47
  6
ByLayer
 62
  256
370
   -1
100
AcDbLine
 10
117.1774
 20
40.7157
 11
116.8692
 21
40.4075
  0
LINE
  5
2DA
100
AcDbEntity
  8
47
  6
ByLayer
 62
  256
370
   -1
100
AcDbLine
 10
116.8692
 20
40.4075
 11
116.8692
 21
39.4829
  0
LINE
  5
2DB
100
AcDbEntity
  8
47
  6
ByLayer
 62
  256
370
   -1
100
AcDbLine
 10
116.2528
 20
41.3245
 11
115.9446
 21
41.6327
  0
LINE
  5
2DC
100
AcDbEntity
  8
47
  6
ByLayer
 62
  256
370
   -1
100
AcDbLine
 10
115.9446
 20
41.6327
 11
115.9446
 21
42.2491
  0
LINE
  5
2DD
100
AcDbEntity
  8
47
  6
ByLayer
 62
  256
370
   -1
100
AcDbLine
 10
115.9446
 20
42.2491
 11
116.2528
 21
42.5573
  0
LINE
  5
2DE
100
AcDbEntity
  8
47
  6
ByLayer
 62
  256
370
   -1
100
AcDbLine
 10
116.2528
 20
42.5573
 11
116.561
 21
42.5573
  0
LINE
  5
2DF
100
AcDbEntity
  8
47
  6
ByLayer
 62
  256
370
   -1
100
AcDbLine
 10
116.561
 20
42.5573
 11
116.8692
 21
42.2491
  0
LINE
  5
2E0
100
AcDbEntity
  8
47
  6
ByLayer
 62
  256
370
   -1
100
AcDbLine
 10
116.8692
 20
42.2491
 11
116.8692
 21
41.9409
  0
LINE
  5
2E1
100
AcDbEntity
  8
47
  6
ByLayer
 62
  256
370
   -1
100
AcDbLine
 10
116.8692
 20
42.2491
 11
117.1774
 21
42.5573
  0
LINE
  5
2E2
100
AcDbEntity
  8
47
  6
ByLayer
 62
  256
370
   -1
100
AcDbLine
 10
117.1774
 20
42.5573
 11
117.4856
 21
42.5573
  0
LINE
  5
2E3
100
AcDbEntity
  8
47
  6
ByLayer
 62
  256
370
   -1
100
AcDbLine
 10
117.4856
 20
42.5573
 11
117.7938
 21
42.2491
  0
LINE
  5
2E4
100
AcDbEntity
  8
47
  6
ByLayer
 62
  256
370
   -1
100
AcDbLine
 10
117.7938
 20
42.2491
 11
117.7938
 21
41.6327
  0
LINE
  5
2E5
100
AcDbEntity
  8
47
  6
ByLayer
 62
  256
370
   -1
100
AcDbLine
 10
117.7938
 20
41.6327
 11
117.4856
 21
41.3245
  0
LINE
  5
2E6
100
AcDbEntity
  8
47
  6
ByLayer
 62
  256
370
   -1
100
AcDbLine
 10
115.5
 20
9.5
 11
120.45
 21
9.5
  0
LINE
  5
2E7
100
AcDbEntity
  8
47
  6
ByLayer
 62
  256
370
   -1
100
AcDbLine
 10
117
 20
1.5
 11
120.45
 21
1.5
  0
LINE
  5
2E8
100
AcDbEntity
  8
47
  6
ByLayer
 62
  256
370
   -1
100
AcDbLine
 10
118.5
 20
9.435
 11
118.5
 21
1.565
  0
LINE
  5
2E9
100
AcDbEntity
  8
47
  6
ByLayer
 62
  256
370
   -1
100
AcDbLine
 10
118.5
 20
9.435
 11
118.1808
 21
6.9
  0
LINE
  5
2EA
100
AcDbEntity
  8
47
  6
ByLayer
 62
  256
370
   -1
100
AcDbLine
 10
118.1808
 20
6.9
 11
118.8192
 21
6.9
  0
LINE
  5
2EB
100
AcDbEntity
  8
47
  6
ByLayer
 62
  256
370
   -1
100
AcDbLine
 10
118.8192
 20
6.9
 11
118.5
 21
9.435
  0
LINE
  5
2EC
100
AcDbEntity
  8
47
  6
ByLayer
 62
  256
370
   -1
100
AcDbLine
 10
118.5
 20
9.435
 11
118.37
 21
6.9
  0
LINE
  5
2ED
100
AcDbEntity
  8
47
  6
ByLayer
 62
  256
370
   -1
100
AcDbLine
 10
118.63
 20
6.9
 11
118.5
 21
9.435
  0
LINE
  5
2EE
100
AcDbEntity
  8
47
  6
ByLayer
 62
  256
370
   -1
100
AcDbLine
 10
118.5
 20
9.435
 11
118.24
 21
6.9
  0
LINE
  5
2EF
100
AcDbEntity
  8
47
  6
ByLayer
 62
  256
370
   -1
100
AcDbLine
 10
118.76
 20
6.9
 11
118.5
 21
9.435
  0
LINE
  5
2F0
100
AcDbEntity
  8
47
  6
ByLayer
 62
  256
370
   -1
100
AcDbLine
 10
118.5
 20
1.565
 11
118.1808
 21
4.1
  0
LINE
  5
2F1
100
AcDbEntity
  8
47
  6
ByLayer
 62
  256
370
   -1
100
AcDbLine
 10
118.1808
 20
4.1
 11
118.8192
 21
4.1
  0
LINE
  5
2F2
100
AcDbEntity
  8
47
  6
ByLayer
 62
  256
370
   -1
100
AcDbLine
 10
118.8192
 20
4.1
 11
118.5
 21
1.565
  0
LINE
  5
2F3
100
AcDbEntity
  8
47
  6
ByLayer
 62
  256
370
   -1
100
AcDbLine
 10
118.5
 20
1.565
 11
118.37
 21
4.1
  0
LINE
  5
2F4
100
AcDbEntity
  8
47
  6
ByLayer
 62
  256
370
   -1
100
AcDbLine
 10
118.63
 20
4.1
 11
118.5
 21
1.565
  0
LINE
  5
2F5
100
AcDbEntity
  8
47
  6
ByLayer
 62
  256
370
   -1
100
AcDbLine
 10
118.5
 20
1.565
 11
118.24
 21
4.1
  0
LINE
  5
2F6
100
AcDbEntity
  8
47
  6
ByLayer
 62
  256
370
   -1
100
AcDbLine
 10
118.76
 20
4.1
 11
118.5
 21
1.565
  0
LINE
  5
2F7
100
AcDbEntity
  8
47
  6
ByLayer
 62
  256
370
   -1
100
AcDbLine
 10
116.2528
 20
4.7818
 11
115.9446
 21
5.09
  0
LINE
  5
2F8
100
AcDbEntity
  8
47
  6
ByLayer
 62
  256
370
   -1
100
AcDbLine
 10
115.9446
 20
5.09
 11
115.9446
 21
5.7064
  0
LINE
  5
2F9
100
AcDbEntity
  8
47
  6
ByLayer
 62
  256
370
   -1
100
AcDbLine
 10
115.9446
 20
5.7064
 11
116.2528
 21
6.0146
  0
LINE
  5
2FA
100
AcDbEntity
  8
47
  6
ByLayer
 62
  256
370
   -1
100
AcDbLine
 10
116.2528
 20
6.0146
 11
116.561
 21
6.0146
  0
LINE
  5
2FB
100
AcDbEntity
  8
47
  6
ByLayer
 62
  256
370
   -1
100
AcDbLine
 10
116.561
 20
6.0146
 11
116.8692
 21
5.7064
  0
LINE
  5
2FC
100
AcDbEntity
  8
47
  6
ByLayer
 62
  256
370
   -1
100
AcDbLine
 10
116.8692
 20
5.7064
 11
117.1774
 21
6.0146
  0
LINE
  5
2FD
100
AcDbEntity
  8
47
  6
ByLayer
 62
  256
370
   -1
100
AcDbLine
 10
117.1774
 20
6.0146
 11
117.4856
 21
6.0146
  0
LINE
  5
2FE
100
AcDbEntity
  8
47
  6
ByLayer
 62
  256
370
   -1
100
AcDbLine
 10
117.4856
 20
6.0146
 11
117.7938
 21
5.7064
  0
LINE
  5
2FF
100
AcDbEntity
  8
47
  6
ByLayer
 62
  256
370
   -1
100
AcDbLine
 10
117.7938
 20
5.7064
 11
117.7938
 21
5.09
  0
LINE
  5
300
100
AcDbEntity
  8
47
  6
ByLayer
 62
  256
370
   -1
100
AcDbLine
 10
117.7938
 20
5.09
 11
117.4856
 21
4.7818
  0
LINE
  5
301
100
AcDbEntity
  8
47
  6
ByLayer
 62
  256
370
   -1
100
AcDbLine
 10
117.4856
 20
4.7818
 11
117.1774
 21
4.7818
  0
LINE
  5
302
100
AcDbEntity
  8
47
  6
ByLayer
 62
  256
370
   -1
100
AcDbLine
 10
117.1774
 20
4.7818
 11
116.8692
 21
5.09
  0
LINE
  5
303
100
AcDbEntity
  8
47
  6
ByLayer
 62
  256
370
   -1
100
AcDbLine
 10
116.8692
 20
5.09
 11
116.561
 21
4.7818
  0
LINE
  5
304
100
AcDbEntity
  8
47
  6
ByLayer
 62
  256
370
   -1
100
AcDbLine
 10
116.561
 20
4.7818
 11
116.2528
 21
4.7818
  0
LINE
  5
305
100
AcDbEntity
  8
47
  6
ByLayer
 62
  256
370
   -1
100
AcDbLine
 10
116.8692
 20
5.09
 11
116.8692
 21
5.7064
  0
LINE
  5
306
100
AcDbEntity
  8
47
  6
ByLayer
 62
  256
370
   -1
100
AcDbLine
 10
115.5
 20
78.5
 11
120.45
 21
78.5
  0
LINE
  5
307
100
AcDbEntity
  8
47
  6
ByLayer
 62
  256
370
   -1
100
AcDbLine
 10
117
 20
72.5
 11
120.45
 21
72.5
  0
LINE
  5
308
100
AcDbEntity
  8
47
  6
ByLayer
 62
  256
370
   -1
100
AcDbLine
 10
118.5
 20
78.435
 11
118.5
 21
72.565
  0
LINE
  5
309
100
AcDbEntity
  8
47
  6
ByLayer
 62
  256
370
   -1
100
AcDbLine
 10
118.5
 20
78.435
 11
118.1808
 21
75.90000000000001
  0
LINE
  5
30A
100
AcDbEntity
  8
47
  6
ByLayer
 62
  256
370
   -1
100
AcDbLine
 10
118.1808
 20
75.90000000000001
 11
118.8192
 21
75.90000000000001
  0
LINE
  5
30B
100
AcDbEntity
  8
47
  6
ByLayer
 62
  256
370
   -1
100
AcDbLine
 10
118.8192
 20
75.90000000000001
 11
118.5
 21
78.435
  0
LINE
  5
30C
100
AcDbEntity
  8
47
  6
ByLayer
 62
  256
370
   -1
100
AcDbLine
 10
118.5
 20
78.435
 11
118.37
 21
75.90000000000001
  0
LINE
  5
30D
100
AcDbEntity
  8
47
  6
ByLayer
 62
  256
370
   -1
100
AcDbLine
 10
118.63
 20
75.90000000000001
 11
118.5
 21
78.435
  0
LINE
  5
30E
100
AcDbEntity
  8
47
  6
ByLayer
 62
  256
370
   -1
100
AcDbLine
 10
118.5
 20
78.435
 11
118.24
 21
75.90000000000001
  0
LINE
  5
30F
100
AcDbEntity
  8
47
  6
ByLayer
 62
  256
370
   -1
100
AcDbLine
 10
118.76
 20
75.90000000000001
 11
118.5
 21
78.435
  0
LINE
  5
310
100
AcDbEntity
  8
47
  6
ByLayer
 62
  256
370
   -1
100
AcDbLine
 10
118.5
 20
72.565
 11
118.1808
 21
75.09999999999999
  0
LINE
  5
311
100
AcDbEntity
  8
47
  6
ByLayer
 62
  256
370
   -1
100
AcDbLine
 10
118.1808
 20
75.09999999999999
 11
118.8192
 21
75.09999999999999
  0
LINE
  5
312
100
AcDbEntity
  8
47
  6
ByLayer
 62
  256
370
   -1
100
AcDbLine
 10
118.8192
 20
75.09999999999999
 11
118.5
 21
72.565
  0
LINE
  5
313
100
AcDbEntity
  8
47
  6
ByLayer
 62
  256
370
   -1
100
AcDbLine
 10
118.5
 20
72.565
 11
118.37
 21
75.09999999999999
  0
LINE
  5
314
100
AcDbEntity
  8
47
  6
ByLayer
 62
  256
370
   -1
100
AcDbLine
 10
118.63
 20
75.09999999999999
 11
118.5
 21
72.565
  0
LINE
  5
315
100
AcDbEntity
  8
47
  6
ByLayer
 62
  256
370
   -1
100
AcDbLine
 10
118.5
 20
72.565
 11
118.24
 21
75.09999999999999
  0
LINE
  5
316
100
AcDbEntity
  8
47
  6
ByLayer
 62
  256
370
   -1
100
AcDbLine
 10
118.76
 20
75.09999999999999
 11
118.5
 21
72.565
  0
LINE
  5
317
100
AcDbEntity
  8
47
  6
ByLayer
 62
  256
370
   -1
100
AcDbLine
 10
115.9446
 20
76.0146
 11
116.2528
 21
75.3982
  0
LINE
  5
318
100
AcDbEntity
  8
47
  6
ByLayer
 62
  256
370
   -1
100
AcDbLine
 10
116.2528
 20
75.3982
 11
116.8692
 21
74.7818
  0
LINE
  5
319
100
AcDbEntity
  8
47
  6
ByLayer
 62
  256
370
   -1
100
AcDbLine
 10
116.8692
 20
74.7818
 11
117.4856
 21
74.7818
  0
LINE
  5
31A
100
AcDbEntity
  8
47
  6
ByLayer
 62
  256
370
   -1
100
AcDbLine
 10
117.4856
 20
74.7818
 11
117.7938
 21
75.09
  0
LINE
  5
31B
100
AcDbEntity
  8
47
  6
ByLayer
 62
  256
370
   -1
100
AcDbLine
 10
117.7938
 20
75.09
 11
117.7938
 21
75.7064
  0
LINE
  5
31C
100
AcDbEntity
  8
47
  6
ByLayer
 62
  256
370
   -1
100
AcDbLine
 10
117.7938
 20
75.7064
 11
117.4856
 21
76.0146
  0
LINE
  5
31D
100
AcDbEntity
  8
47
  6
ByLayer
 62
  256
370
   -1
100
AcDbLine
 10
117.4856
 20
76.0146
 11
117.1774
 21
76.0146
  0
LINE
  5
31E
100
AcDbEntity
  8
47
  6
ByLayer
 62
  256
370
   -1
100
AcDbLine
 10
117.1774
 20
76.0146
 11
116.8692
 21
75.7064
  0
LINE
  5
31F
100
AcDbEntity
  8
47
  6
ByLayer
 62
  256
370
   -1
100
AcDbLine
 10
116.8692
 20
75.7064
 11
116.8692
 21
74.7818
  0
LINE
  5
320
100
AcDbEntity
  8
47
  6
ByLayer
 62
  256
370
   -1
100
AcDbLine
 10
1.5
 20
7
 11
1.5
 21
10.95
  0
LINE
  5
321
100
AcDbEntity
  8
47
  6
ByLayer
 62
  256
370
   -1
100
AcDbLine
 10
42.5
 20
69
 11
42.5
 21
7.05
  0
LINE
  5
322
100
AcDbEntity
  8
47
  6
ByLayer
 62
  256
370
   -1
100
AcDbLine
 10
1.565
 20
9
 11
42.435
 21
9
  0
LINE
  5
323
100
AcDbEntity
  8
47
  6
ByLayer
 62
  256
370
   -1
100
AcDbLine
 10
1.565
 20
9
 11
4.1
 21
9.3192
  0
LINE
  5
324
100
AcDbEntity
  8
47
  6
ByLayer
 62
  256
370
   -1
100
AcDbLine
 10
4.1
 20
9.3192
 11
4.1
 21
8.6808
  0
LINE
  5
325
100
AcDbEntity
  8
47
  6
ByLayer
 62
  256
370
   -1
100
AcDbLine
 10
4.1
 20
8.6808
 11
1.565
 21
9
  0
LINE
  5
326
100
AcDbEntity
  8
47
  6
ByLayer
 62
  256
370
   -1
100
AcDbLine
 10
1.565
 20
9
 11
4.1
 21
9.130000000000001
  0
LINE
  5
327
100
AcDbEntity
  8
47
  6
ByLayer
 62
  256
370
   -1
100
AcDbLine
 10
4.1
 20
8.869999999999999
 11
1.565
 21
9
  0
LINE
  5
328
100
AcDbEntity
  8
47
  6
ByLayer
 62
  256
370
   -1
100
AcDbLine
 10
1.565
 20
9
 11
4.1
 21
9.26
  0
LINE
  5
329
100
AcDbEntity
  8
47
  6
ByLayer
 62
  256
370
   -1
100
AcDbLine
 10
4.1
 20
8.74
 11
1.565
 21
9
  0
LINE
  5
32A
100
AcDbEntity
  8
47
  6
ByLayer
 62
  256
370
   -1
100
AcDbLine
 10
42.435
 20
9
 11
39.9
 21
9.3192
  0
LINE
  5
32B
100
AcDbEntity
  8
47
  6
ByLayer
 62
  256
370
   -1
100
AcDbLine
 10
39.9
 20
9.3192
 11
39.9
 21
8.6808
  0
LINE
  5
32C
100
AcDbEntity
  8
47
  6
ByLayer
 62
  256
370
   -1
100
AcDbLine
 10
39.9
 20
8.6808
 11
42.435
 21
9
  0
LINE
  5
32D
100
AcDbEntity
  8
47
  6
ByLayer
 62
  256
370
   -1
100
AcDbLine
 10
42.435
 20
9
 11
39.9
 21
9.130000000000001
  0
LINE
  5
32E
100
AcDbEntity
  8
47
  6
ByLayer
 62
  256
370
   -1
100
AcDbLine
 10
39.9
 20
8.869999999999999
 11
42.435
 21
9
  0
LINE
  5
32F
100
AcDbEntity
  8
47
  6
ByLayer
 62
  256
370
   -1
100
AcDbLine
 10
42.435
 20
9
 11
39.9
 21
9.26
  0
LINE
  5
330
100
AcDbEntity
  8
47
  6
ByLayer
 62
  256
370
   -1
100
AcDbLine
 10
39.9
 20
8.74
 11
42.435
 21
9
  0
LINE
  5
331
100
AcDbEntity
  8
47
  6
ByLayer
 62
  256
370
   -1
100
AcDbLine
 10
21.4075
 20
9.706200000000001
 11
21.4075
 21
11.5554
  0
LINE
  5
332
100
AcDbEntity
  8
47
  6
ByLayer
 62
  256
370
   -1
100
AcDbLine
 10
21.4075
 20
11.5554
 11
20.4829
 21
10.6308
  0
LINE
  5
333
100
AcDbEntity
  8
47
  6
ByLayer
 62
  256
370
   -1
100
AcDbLine
 10
20.4829
 20
10.6308
 11
21.7157
 21
10.6308
  0
LINE
  5
334
100
AcDbEntity
  8
47
  6
ByLayer
 62
  256
370
   -1
100
AcDbLine
 10
22.3245
 20
10.939
 11
22.9409
 21
11.5554
  0
LINE
  5
335
100
AcDbEntity
  8
47
  6
ByLayer
 62
  256
370
   -1
100
AcDbLine
 10
22.9409
 20
11.5554
 11
22.9409
 21
9.706200000000001
  0
LINE
  5
336
100
AcDbEntity
  8
47
  6
ByLayer
 62
  256
370
   -1
100
AcDbLine
 10
22.3245
 20
9.706200000000001
 11
23.5573
 21
9.706200000000001
  0
LINE
  5
337
100
AcDbEntity
  8
47
  6
ByLayer
 62
  256
370
   -1
100
AcDbLine
 10
42.5
 20
7
 11
42.5
 21
10.95
  0
LINE
  5
338
100
AcDbEntity
  8
47
  6
ByLayer
 62
  256
370
   -1
100
AcDbLine
 10
92.5
 20
68.5
 11
92.5
 21
7.05
  0
LINE
  5
339
100
AcDbEntity
  8
47
  6
ByLayer
 62
  256
370
   -1
100
AcDbLine
 10
42.565
 20
9
 11
92.435
 21
9
  0
LINE
  5
33A
100
AcDbEntity
  8
47
  6
ByLayer
 62
  256
370
   -1
100
AcDbLine
 10
42.565
 20
9
 11
45.1
 21
9.3192
  0
LINE
  5
33B
100
AcDbEntity
  8
47
  6
ByLayer
 62
  256
370
   -1
100
AcDbLine
 10
45.1
 20
9.3192
 11
45.1
 21
8.6808
  0
LINE
  5
33C
100
AcDbEntity
  8
47
  6
ByLayer
 62
  256
370
   -1
100
AcDbLine
 10
45.1
 20
8.6808
 11
42.565
 21
9
  0
LINE
  5
33D
100
AcDbEntity
  8
47
  6
ByLayer
 62
  256
370
   -1
100
AcDbLine
 10
42.565
 20
9
 11
45.1
 21
9.130000000000001
  0
LINE
  5
33E
100
AcDbEntity
  8
47
  6
ByLayer
 62
  256
370
   -1
100
AcDbLine
 10
45.1
 20
8.869999999999999
 11
42.565
 21
9
  0
LINE
  5
33F
100
AcDbEntity
  8
47
  6
ByLayer
 62
  256
370
   -1
100
AcDbLine
 10
42.565
 20
9
 11
45.1
 21
9.26
  0
LINE
  5
340
100
AcDbEntity
  8
47
  6
ByLayer
 62
  256
370
   -1
100
AcDbLine
 10
45.1
 20
8.74
 11
42.565
 21
9
  0
LINE
  5
341
100
AcDbEntity
  8
47
  6
ByLayer
 62
  256
370
   -1
100
AcDbLine
 10
92.435
 20
9
 11
89.90000000000001
 21
9.3192
  0
LINE
  5
342
100
AcDbEntity
  8
47
  6
ByLayer
 62
  256
370
   -1
100
AcDbLine
 10
89.90000000000001
 20
9.3192
 11
89.90000000000001
 21
8.6808
  0
LINE
  5
343
100
AcDbEntity
  8
47
  6
ByLayer
 62
  256
370
   -1
100
AcDbLine
 10
89.90000000000001
 20
8.6808
 11
92.435
 21
9
  0
LINE
  5
344
100
AcDbEntity
  8
47
  6
ByLayer
 62
  256
370
   -1
100
AcDbLine
 10
92.435
 20
9
 11
89.90000000000001
 21
9.130000000000001
  0
LINE
  5
345
100
AcDbEntity
  8
47
  6
ByLayer
 62
  256
370
   -1
100
AcDbLine
 10
89.90000000000001
 20
8.869999999999999
 11
92.435
 21
9
  0
LINE
  5
346
100
AcDbEntity
  8
47
  6
ByLayer
 62
  256
370
   -1
100
AcDbLine
 10
92.435
 20
9
 11
89.90000000000001
 21
9.26
  0
LINE
  5
347
100
AcDbEntity
  8
47
  6
ByLayer
 62
  256
370
   -1
100
AcDbLine
 10
89.90000000000001
 20
8.74
 11
92.435
 21
9
  0
LINE
  5
348
100
AcDbEntity
  8
47
  6
ByLayer
 62
  256
370
   -1
100
AcDbLine
 10
67.2157
 20
11.5554
 11
65.9829
 21
11.5554
  0
LINE
  5
349
100
AcDbEntity
  8
47
  6
ByLayer
 62
  256
370
   -1
100
AcDbLine
 10
65.9829
 20
11.5554
 11
65.9829
 21
10.6308
  0
LINE
  5
34A
100
AcDbEntity
  8
47
  6
ByLayer
 62
  256
370
   -1
100
AcDbLine
 10
65.9829
 20
10.6308
 11
66.5993
 21
10.939
  0
LINE
  5
34B
100
AcDbEntity
  8
47
  6
ByLayer
 62
  256
370
   -1
100
AcDbLine
 10
66.5993
 20
10.939
 11
66.9075
 21
10.939
  0
LINE
  5
34C
100
AcDbEntity
  8
47
  6
ByLayer
 62
  256
370
   -1
100
AcDbLine
 10
66.9075
 20
10.939
 11
67.2157
 21
10.6308
  0
LINE
  5
34D
100
AcDbEntity
  8
47
  6
ByLayer
 62
  256
370
   -1
100
AcDbLine
 10
67.2157
 20
10.6308
 11
67.2157
 21
10.0144
  0
LINE
  5
34E
100
AcDbEntity
  8
47
  6
ByLayer
 62
  256
370
   -1
100
AcDbLine
 10
67.2157
 20
10.0144
 11
66.9075
 21
9.706200000000001
  0
LINE
  5
34F
100
AcDbEntity
  8
47
  6
ByLayer
 62
  256
370
   -1
100
AcDbLine
 10
66.9075
 20
9.706200000000001
 11
66.2911
 21
9.706200000000001
  0
LINE
  5
350
100
AcDbEntity
  8
47
  6
ByLayer
 62
  256
370
   -1
100
AcDbLine
 10
66.2911
 20
9.706200000000001
 11
65.9829
 21
10.0144
  0
LINE
  5
351
100
AcDbEntity
  8
47
  6
ByLayer
 62
  256
370
   -1
100
AcDbLine
 10
67.8245
 20
10.0144
 11
67.8245
 21
11.2472
  0
LINE
  5
352
100
AcDbEntity
  8
47
  6
ByLayer
 62
  256
370
   -1
100
AcDbLine
 10
67.8245
 20
11.2472
 11
68.1327
 21
11.5554
  0
LINE
  5
353
100
AcDbEntity
  8
47
  6
ByLayer
 62
  256
370
   -1
100
AcDbLine
 10
68.1327
 20
11.5554
 11
68.7491
 21
11.5554
  0
LINE
  5
354
100
AcDbEntity
  8
47
  6
ByLayer
 62
  256
370
   -1
100
AcDbLine
 10
68.7491
 20
11.5554
 11
69.0573
 21
11.2472
  0
LINE
  5
355
100
AcDbEntity
  8
47
  6
ByLayer
 62
  256
370
   -1
100
AcDbLine
 10
69.0573
 20
11.2472
 11
69.0573
 21
10.0144
  0
LINE
  5
356
100
AcDbEntity
  8
47
  6
ByLayer
 62
  256
370
   -1
100
AcDbLine
 10
69.0573
 20
10.0144
 11
68.7491
 21
9.706200000000001
  0
LINE
  5
357
100
AcDbEntity
  8
47
  6
ByLayer
 62
  256
370
   -1
100
AcDbLine
 10
68.7491
 20
9.706200000000001
 11
68.1327
 21
9.706200000000001
  0
LINE
  5
358
100
AcDbEntity
  8
47
  6
ByLayer
 62
  256
370
   -1
100
AcDbLine
 10
68.1327
 20
9.706200000000001
 11
67.8245
 21
10.0144
  0
LINE
  5
359
100
AcDbEntity
  8
47
  6
ByLayer
 62
  256
370
   -1
100
AcDbLine
 10
67.8245
 20
10.0144
 11
69.0573
 21
11.2472
  0
LINE
  5
35A
100
AcDbEntity
  8
47
  6
ByLayer
 62
  256
370
   -1
100
AcDbLine
 10
198
 20
78.5
 11
203.45
 21
78.5
  0
LINE
  5
35B
100
AcDbEntity
  8
47
  6
ByLayer
 62
  256
370
   -1
100
AcDbLine
 10
198
 20
76
 11
203.45
 21
76
  0
LINE
  5
35C
100
AcDbEntity
  8
47
  6
ByLayer
 62
  256
370
   -1
100
AcDbLine
 10
201.5
 20
75.935
 11
201.5
 21
70.8
  0
LINE
  5
35D
100
AcDbEntity
  8
47
  6
ByLayer
 62
  256
370
   -1
100
AcDbLine
 10
201.5
 20
78.565
 11
201.5
 21
85.0809
  0
LINE
  5
35E
100
AcDbEntity
  8
47
  6
ByLayer
 62
  256
370
   -1
100
AcDbLine
 10
201.5
 20
78.565
 11
201.1808
 21
81.09999999999999
  0
LINE
  5
35F
100
AcDbEntity
  8
47
  6
ByLayer
 62
  256
370
   -1
100
AcDbLine
 10
201.1808
 20
81.09999999999999
 11
201.8192
 21
81.09999999999999
  0
LINE
  5
360
100
AcDbEntity
  8
47
  6
ByLayer
 62
  256
370
   -1
100
AcDbLine
 10
201.8192
 20
81.09999999999999
 11
201.5
 21
78.565
  0
LINE
  5
361
100
AcDbEntity
  8
47
  6
ByLayer
 62
  256
370
   -1
100
AcDbLine
 10
201.5
 20
78.565
 11
201.37
 21
81.09999999999999
  0
LINE
  5
362
100
AcDbEntity
  8
47
  6
ByLayer
 62
  256
370
   -1
100
AcDbLine
 10
201.63
 20
81.09999999999999
 11
201.5
 21
78.565
  0
LINE
  5
363
100
AcDbEntity
  8
47
  6
ByLayer
 62
  256
370
   -1
100
AcDbLine
 10
201.5
 20
78.565
 11
201.24
 21
81.09999999999999
  0
LINE
  5
364
100
AcDbEntity
  8
47
  6
ByLayer
 62
  256
370
   -1
100
AcDbLine
 10
201.76
 20
81.09999999999999
 11
201.5
 21
78.565
  0
LINE
  5
365
100
AcDbEntity
  8
47
  6
ByLayer
 62
  256
370
   -1
100
AcDbLine
 10
201.5
 20
75.935
 11
201.1808
 21
73.40000000000001
  0
LINE
  5
366
100
AcDbEntity
  8
47
  6
ByLayer
 62
  256
370
   -1
100
AcDbLine
 10
201.1808
 20
73.40000000000001
 11
201.8192
 21
73.40000000000001
  0
LINE
  5
367
100
AcDbEntity
  8
47
  6
ByLayer
 62
  256
370
   -1
100
AcDbLine
 10
201.8192
 20
73.40000000000001
 11
201.5
 21
75.935
  0
LINE
  5
368
100
AcDbEntity
  8
47
  6
ByLayer
 62
  256
370
   -1
100
AcDbLine
 10
201.5
 20
75.935
 11
201.37
 21
73.40000000000001
  0
LINE
  5
369
100
AcDbEntity
  8
47
  6
ByLayer
 62
  256
370
   -1
100
AcDbLine
 10
201.63
 20
73.40000000000001
 11
201.5
 21
75.935
  0
LINE
  5
36A
100
AcDbEntity
  8
47
  6
ByLayer
 62
  256
370
   -1
100
AcDbLine
 10
201.5
 20
75.935
 11
201.24
 21
73.40000000000001
  0
LINE
  5
36B
100
AcDbEntity
  8
47
  6
ByLayer
 62
  256
370
   -1
100
AcDbLine
 10
201.76
 20
73.40000000000001
 11
201.5
 21
75.935
  0
LINE
  5
36C
100
AcDbEntity
  8
47
  6
ByLayer
 62
  256
370
   -1
100
AcDbLine
 10
200.7938
 20
82.40900000000001
 11
200.7938
 21
81.17619999999999
  0
LINE
  5
36D
100
AcDbEntity
  8
47
  6
ByLayer
 62
  256
370
   -1
100
AcDbLine
 10
200.7938
 20
81.17619999999999
 11
199.561
 21
82.40900000000001
  0
LINE
  5
36E
100
AcDbEntity
  8
47
  6
ByLayer
 62
  256
370
   -1
100
AcDbLine
 10
199.561
 20
82.40900000000001
 11
199.2528
 21
82.40900000000001
  0
LINE
  5
36F
100
AcDbEntity
  8
47
  6
ByLayer
 62
  256
370
   -1
100
AcDbLine
 10
199.2528
 20
82.40900000000001
 11
198.9446
 21
82.10080000000001
  0
LINE
  5
370
100
AcDbEntity
  8
47
  6
ByLayer
 62
  256
370
   -1
100
AcDbLine
 10
198.9446
 20
82.10080000000001
 11
198.9446
 21
81.48439999999999
  0
LINE
  5
371
100
AcDbEntity
  8
47
  6
ByLayer
 62
  256
370
   -1
100
AcDbLine
 10
198.9446
 20
81.48439999999999
 11
199.2528
 21
81.17619999999999
  0
LINE
  5
372
100
AcDbEntity
  8
47
  6
ByLayer
 62
  256
370
   -1
100
AcDbLine
 10
200.7938
 20
83.01779999999999
 11
200.4856
 21
83.01779999999999
  0
LINE
  5
373
100
AcDbEntity
  8
47
  6
ByLayer
 62
  256
370
   -1
100
AcDbLine
 10
200.4856
 20
83.01779999999999
 11
200.4856
 21
83.32599999999999
  0
LINE
  5
374
100
AcDbEntity
  8
47
  6
ByLayer
 62
  256
370
   -1
100
AcDbLine
 10
200.4856
 20
83.32599999999999
 11
200.7938
 21
83.32599999999999
  0
LINE
  5
375
100
AcDbEntity
  8
47
  6
ByLayer
 62
  256
370
   -1
100
AcDbLine
 10
200.7938
 20
83.32599999999999
 11
200.7938
 21
83.01779999999999
  0
LINE
  5
376
100
AcDbEntity
  8
47
  6
ByLayer
 62
  256
370
   -1
100
AcDbLine
 10
198.9446
 20
85.1713
 11
198.9446
 21
83.93859999999999
  0
LINE
  5
377
100
AcDbEntity
  8
47
  6
ByLayer
 62
  256
370
   -1
100
AcDbLine
 10
198.9446
 20
83.93859999999999
 11
199.8692
 21
83.93859999999999
  0
LINE
  5
378
100
AcDbEntity
  8
47
  6
ByLayer
 62
  256
370
   -1
100
AcDbLine
 10
199.8692
 20
83.93859999999999
 11
199.561
 21
84.5549
  0
LINE
  5
379
100
AcDbEntity
  8
47
  6
ByLayer
 62
  256
370
   -1
100
AcDbLine
 10
199.561
 20
84.5549
 11
199.561
 21
84.8631
  0
LINE
  5
37A
100
AcDbEntity
  8
47
  6
ByLayer
 62
  256
370
   -1
100
AcDbLine
 10
199.561
 20
84.8631
 11
199.8692
 21
85.1713
  0
LINE
  5
37B
100
AcDbEntity
  8
47
  6
ByLayer
 62
  256
370
   -1
100
AcDbLine
 10
199.8692
 20
85.1713
 11
200.4856
 21
85.1713
  0
LINE
  5
37C
100
AcDbEntity
  8
47
  6
ByLayer
 62
  256
370
   -1
100
AcDbLine
 10
200.4856
 20
85.1713
 11
200.7938
 21
84.8631
  0
LINE
  5
37D
100
AcDbEntity
  8
47
  6
ByLayer
 62
  256
370
   -1
100
AcDbLine
 10
200.7938
 20
84.8631
 11
200.7938
 21
84.24679999999999
  0
LINE
  5
37E
100
AcDbEntity
  8
47
  6
ByLayer
 62
  256
370
   -1
100
AcDbLine
 10
200.7938
 20
84.24679999999999
 11
200.4856
 21
83.93859999999999
  0
LINE
  5
37F
100
AcDbEntity
  8
47
  6
ByLayer
 62
  256
370
   -1
100
AcDbLine
 10
151
 20
78.5
 11
156.45
 21
78.5
  0
LINE
  5
380
100
AcDbEntity
  8
47
  6
ByLayer
 62
  256
370
   -1
100
AcDbLine
 10
151
 20
72
 11
156.45
 21
72
  0
LINE
  5
381
100
AcDbEntity
  8
47
  6
ByLayer
 62
  256
370
   -1
100
AcDbLine
 10
154.5
 20
78.435
 11
154.5
 21
72.065
  0
LINE
  5
382
100
AcDbEntity
  8
47
  6
ByLayer
 62
  256
370
   -1
100
AcDbLine
 10
154.5
 20
78.435
 11
154.1808
 21
75.90000000000001
  0
LINE
  5
383
100
AcDbEntity
  8
47
  6
ByLayer
 62
  256
370
   -1
100
AcDbLine
 10
154.1808
 20
75.90000000000001
 11
154.8192
 21
75.90000000000001
  0
LINE
  5
384
100
AcDbEntity
  8
47
  6
ByLayer
 62
  256
370
   -1
100
AcDbLine
 10
154.8192
 20
75.90000000000001
 11
154.5
 21
78.435
  0
LINE
  5
385
100
AcDbEntity
  8
47
  6
ByLayer
 62
  256
370
   -1
100
AcDbLine
 10
154.5
 20
78.435
 11
154.37
 21
75.90000000000001
  0
LINE
  5
386
100
AcDbEntity
  8
47
  6
ByLayer
 62
  256
370
   -1
100
AcDbLine
 10
154.63
 20
75.90000000000001
 11
154.5
 21
78.435
  0
LINE
  5
387
100
AcDbEntity
  8
47
  6
ByLayer
 62
  256
370
   -1
100
AcDbLine
 10
154.5
 20
78.435
 11
154.24
 21
75.90000000000001
  0
LINE
  5
388
100
AcDbEntity
  8
47
  6
ByLayer
 62
  256
370
   -1
100
AcDbLine
 10
154.76
 20
75.90000000000001
 11
154.5
 21
78.435
  0
LINE
  5
389
100
AcDbEntity
  8
47
  6
ByLayer
 62
  256
370
   -1
100
AcDbLine
 10
154.5
 20
72.065
 11
154.1808
 21
74.59999999999999
  0
LINE
  5
38A
100
AcDbEntity
  8
47
  6
ByLayer
 62
  256
370
   -1
100
AcDbLine
 10
154.1808
 20
74.59999999999999
 11
154.8192
 21
74.59999999999999
  0
LINE
  5
38B
100
AcDbEntity
  8
47
  6
ByLayer
 62
  256
370
   -1
100
AcDbLine
 10
154.8192
 20
74.59999999999999
 11
154.5
 21
72.065
  0
LINE
  5
38C
100
AcDbEntity
  8
47
  6
ByLayer
 62
  256
370
   -1
100
AcDbLine
 10
154.5
 20
72.065
 11
154.37
 21
74.59999999999999
  0
LINE
  5
38D
100
AcDbEntity
  8
47
  6
ByLayer
 62
  256
370
   -1
100
AcDbLine
 10
154.63
 20
74.59999999999999
 11
154.5
 21
72.065
  0
LINE
  5
38E
100
AcDbEntity
  8
47
  6
ByLayer
 62
  256
370
   -1
100
AcDbLine
 10
154.5
 20
72.065
 11
154.24
 21
74.59999999999999
  0
LINE
  5
38F
100
AcDbEntity
  8
47
  6
ByLayer
 62
  256
370
   -1
100
AcDbLine
 10
154.76
 20
74.59999999999999
 11
154.5
 21
72.065
  0
LINE
  5
390
100
AcDbEntity
  8
47
  6
ByLayer
 62
  256
370
   -1
100
AcDbLine
 10
151.9446
 20
74.5685
 11
152.2528
 21
73.9521
  0
LINE
  5
391
100
AcDbEntity
  8
47
  6
ByLayer
 62
  256
370
   -1
100
AcDbLine
 10
152.2528
 20
73.9521
 11
152.8692
 21
73.3357
  0
LINE
  5
392
100
AcDbEntity
  8
47
  6
ByLayer
 62
  256
370
   -1
100
AcDbLine
 10
152.8692
 20
73.3357
 11
153.4856
 21
73.3357
  0
LINE
  5
393
100
AcDbEntity
  8
47
  6
ByLayer
 62
  256
370
   -1
100
AcDbLine
 10
153.4856
 20
73.3357
 11
153.7938
 21
73.6439
  0
LINE
  5
394
100
AcDbEntity
  8
47
  6
ByLayer
 62
  256
370
   -1
100
AcDbLine
 10
153.7938
 20
73.6439
 11
153.7938
 21
74.2603
  0
LINE
  5
395
100
AcDbEntity
  8
47
  6
ByLayer
 62
  256
370
   -1
100
AcDbLine
 10
153.7938
 20
74.2603
 11
153.4856
 21
74.5685
  0
LINE
  5
396
100
AcDbEntity
  8
47
  6
ByLayer
 62
  256
370
   -1
100
AcDbLine
 10
153.4856
 20
74.5685
 11
153.1774
 21
74.5685
  0
LINE
  5
397
100
AcDbEntity
  8
47
  6
ByLayer
 62
  256
370
   -1
100
AcDbLine
 10
153.1774
 20
74.5685
 11
152.8692
 21
74.2603
  0
LINE
  5
398
100
AcDbEntity
  8
47
  6
ByLayer
 62
  256
370
   -1
100
AcDbLine
 10
152.8692
 20
74.2603
 11
152.8692
 21
73.3357
  0
LINE
  5
399
100
AcDbEntity
  8
47
  6
ByLayer
 62
  256
370
   -1
100
AcDbLine
 10
153.7938
 20
75.1773
 11
153.4856
 21
75.1773
  0
LINE
  5
39A
100
AcDbEntity
  8
47
  6
ByLayer
 62
  256
370
   -1
100
AcDbLine
 10
153.4856
 20
75.1773
 11
153.4856
 21
75.4855
  0
LINE
  5
39B
100
AcDbEntity
  8
47
  6
ByLayer
 62
  256
370
   -1
100
AcDbLine
 10
153.4856
 20
75.4855
 11
153.7938
 21
75.4855
  0
LINE
  5
39C
100
AcDbEntity
  8
47
  6
ByLayer
 62
  256
370
   -1
100
AcDbLine
 10
153.7938
 20
75.4855
 11
153.7938
 21
75.1773
  0
LINE
  5
39D
100
AcDbEntity
  8
47
  6
ByLayer
 62
  256
370
   -1
100
AcDbLine
 10
151.9446
 20
77.3309
 11
151.9446
 21
76.0981
  0
LINE
  5
39E
100
AcDbEntity
  8
47
  6
ByLayer
 62
  256
370
   -1
100
AcDbLine
 10
151.9446
 20
76.0981
 11
152.8692
 21
76.0981
  0
LINE
  5
39F
100
AcDbEntity
  8
47
  6
ByLayer
 62
  256
370
   -1
100
AcDbLine
 10
152.8692
 20
76.0981
 11
152.561
 21
76.7145
  0
LINE
  5
3A0
100
AcDbEntity
  8
47
  6
ByLayer
 62
  256
370
   -1
100
AcDbLine
 10
152.561
 20
76.7145
 11
152.561
 21
77.0227
  0
LINE
  5
3A1
100
AcDbEntity
  8
47
  6
ByLayer
 62
  256
370
   -1
100
AcDbLine
 10
152.561
 20
77.0227
 11
152.8692
 21
77.3309
  0
LINE
  5
3A2
100
AcDbEntity
  8
47
  6
ByLayer
 62
  256
370
   -1
100
AcDbLine
 10
152.8692
 20
77.3309
 11
153.4856
 21
77.3309
  0
LINE
  5
3A3
100
AcDbEntity
  8
47
  6
ByLayer
 62
  256
370
   -1
100
AcDbLine
 10
153.4856
 20
77.3309
 11
153.7938
 21
77.0227
  0
LINE
  5
3A4
100
AcDbEntity
  8
47
  6
ByLayer
 62
  256
370
   -1
100
AcDbLine
 10
153.7938
 20
77.0227
 11
153.7938
 21
76.4063
  0
LINE
  5
3A5
100
AcDbEntity
  8
47
  6
ByLayer
 62
  256
370
   -1
100
AcDbLine
 10
153.7938
 20
76.4063
 11
153.4856
 21
76.0981
  0
LINE
  5
3A6
100
AcDbEntity
  8
47
  6
ByLayer
 62
  256
370
   -1
100
AcDbLine
 10
175.5
 20
72
 11
175.5
 21
44.55
  0
LINE
  5
3A7
100
AcDbEntity
  8
47
  6
ByLayer
 62
  256
370
   -1
100
AcDbLine
 10
216.5
 20
49
 11
216.5
 21
44.55
  0
LINE
  5
3A8
100
AcDbEntity
  8
47
  6
ByLayer
 62
  256
370
   -1
100
AcDbLine
 10
175.565
 20
46.5
 11
216.435
 21
46.5
  0
LINE
  5
3A9
100
AcDbEntity
  8
47
  6
ByLayer
 62
  256
370
   -1
100
AcDbLine
 10
175.565
 20
46.5
 11
178.1
 21
46.8192
  0
LINE
  5
3AA
100
AcDbEntity
  8
47
  6
ByLayer
 62
  256
370
   -1
100
AcDbLine
 10
178.1
 20
46.8192
 11
178.1
 21
46.1808
  0
LINE
  5
3AB
100
AcDbEntity
  8
47
  6
ByLayer
 62
  256
370
   -1
100
AcDbLine
 10
178.1
 20
46.1808
 11
175.565
 21
46.5
  0
LINE
  5
3AC
100
AcDbEntity
  8
47
  6
ByLayer
 62
  256
370
   -1
100
AcDbLine
 10
175.565
 20
46.5
 11
178.1
 21
46.63
  0
LINE
  5
3AD
100
AcDbEntity
  8
47
  6
ByLayer
 62
  256
370
   -1
100
AcDbLine
 10
178.1
 20
46.37
 11
175.565
 21
46.5
  0
LINE
  5
3AE
100
AcDbEntity
  8
47
  6
ByLayer
 62
  256
370
   -1
100
AcDbLine
 10
175.565
 20
46.5
 11
178.1
 21
46.76
  0
LINE
  5
3AF
100
AcDbEntity
  8
47
  6
ByLayer
 62
  256
370
   -1
100
AcDbLine
 10
178.1
 20
46.24
 11
175.565
 21
46.5
  0
LINE
  5
3B0
100
AcDbEntity
  8
47
  6
ByLayer
 62
  256
370
   -1
100
AcDbLine
 10
216.435
 20
46.5
 11
213.9
 21
46.8192
  0
LINE
  5
3B1
100
AcDbEntity
  8
47
  6
ByLayer
 62
  256
370
   -1
100
AcDbLine
 10
213.9
 20
46.8192
 11
213.9
 21
46.1808
  0
LINE
  5
3B2
100
AcDbEntity
  8
47
  6
ByLayer
 62
  256
370
   -1
100
AcDbLine
 10
213.9
 20
46.1808
 11
216.435
 21
46.5
  0
LINE
  5
3B3
100
AcDbEntity
  8
47
  6
ByLayer
 62
  256
370
   -1
100
AcDbLine
 10
216.435
 20
46.5
 11
213.9
 21
46.63
  0
LINE
  5
3B4
100
AcDbEntity
  8
47
  6
ByLayer
 62
  256
370
   -1
100
AcDbLine
 10
213.9
 20
46.37
 11
216.435
 21
46.5
  0
LINE
  5
3B5
100
AcDbEntity
  8
47
  6
ByLayer
 62
  256
370
   -1
100
AcDbLine
 10
216.435
 20
46.5
 11
213.9
 21
46.76
  0
LINE
  5
3B6
100
AcDbEntity
  8
47
  6
ByLayer
 62
  256
370
   -1
100
AcDbLine
 10
213.9
 20
46.24
 11
216.435
 21
46.5
  0
LINE
  5
3B7
100
AcDbEntity
  8
47
  6
ByLayer
 62
  256
370
   -1
100
AcDbLine
 10
195.4075
 20
47.2062
 11
195.4075
 21
49.0554
  0
LINE
  5
3B8
100
AcDbEntity
  8
47
  6
ByLayer
 62
  256
370
   -1
100
AcDbLine
 10
195.4075
 20
49.0554
 11
194.4829
 21
48.1308
  0
LINE
  5
3B9
100
AcDbEntity
  8
47
  6
ByLayer
 62
  256
370
   -1
100
AcDbLine
 10
194.4829
 20
48.1308
 11
195.7157
 21
48.1308
  0
LINE
  5
3BA
100
AcDbEntity
  8
47
  6
ByLayer
 62
  256
370
   -1
100
AcDbLine
 10
196.3245
 20
48.439
 11
196.9409
 21
49.0554
  0
LINE
  5
3BB
100
AcDbEntity
  8
47
  6
ByLayer
 62
  256
370
   -1
100
AcDbLine
 10
196.9409
 20
49.0554
 11
196.9409
 21
47.2062
  0
LINE
  5
3BC
100
AcDbEntity
  8
47
  6
ByLayer
 62
  256
370
   -1
100
AcDbLine
 10
196.3245
 20
47.2062
 11
197.5573
 21
47.2062
  0
LINE
  5
3BD
100
AcDbEntity
  8
47
  6
ByLayer
 62
  256
370
   -1
100
AcDbLine
 10
124.5
 20
74.5
 11
124.5
 21
44.55
  0
LINE
  5
3BE
100
AcDbEntity
  8
47
  6
ByLayer
 62
  256
370
   -1
100
AcDbLine
 10
175.5
 20
49
 11
175.5
 21
44.55
  0
LINE
  5
3BF
100
AcDbEntity
  8
47
  6
ByLayer
 62
  256
370
   -1
100
AcDbLine
 10
124.565
 20
46.5
 11
175.435
 21
46.5
  0
LINE
  5
3C0
100
AcDbEntity
  8
47
  6
ByLayer
 62
  256
370
   -1
100
AcDbLine
 10
124.565
 20
46.5
 11
127.1
 21
46.8192
  0
LINE
  5
3C1
100
AcDbEntity
  8
47
  6
ByLayer
 62
  256
370
   -1
100
AcDbLine
 10
127.1
 20
46.8192
 11
127.1
 21
46.1808
  0
LINE
  5
3C2
100
AcDbEntity
  8
47
  6
ByLayer
 62
  256
370
   -1
100
AcDbLine
 10
127.1
 20
46.1808
 11
124.565
 21
46.5
  0
LINE
  5
3C3
100
AcDbEntity
  8
47
  6
ByLayer
 62
  256
370
   -1
100
AcDbLine
 10
124.565
 20
46.5
 11
127.1
 21
46.63
  0
LINE
  5
3C4
100
AcDbEntity
  8
47
  6
ByLayer
 62
  256
370
   -1
100
AcDbLine
 10
127.1
 20
46.37
 11
124.565
 21
46.5
  0
LINE
  5
3C5
100
AcDbEntity
  8
47
  6
ByLayer
 62
  256
370
   -1
100
AcDbLine
 10
124.565
 20
46.5
 11
127.1
 21
46.76
  0
LINE
  5
3C6
100
AcDbEntity
  8
47
  6
ByLayer
 62
  256
370
   -1
100
AcDbLine
 10
127.1
 20
46.24
 11
124.565
 21
46.5
  0
LINE
  5
3C7
100
AcDbEntity
  8
47
  6
ByLayer
 62
  256
370
   -1
100
AcDbLine
 10
175.435
 20
46.5
 11
172.9
 21
46.8192
  0
LINE
  5
3C8
100
AcDbEntity
  8
47
  6
ByLayer
 62
  256
370
   -1
100
AcDbLine
 10
172.9
 20
46.8192
 11
172.9
 21
46.1808
  0
LINE
  5
3C9
100
AcDbEntity
  8
47
  6
ByLayer
 62
  256
370
   -1
100
AcDbLine
 10
172.9
 20
46.1808
 11
175.435
 21
46.5
  0
LINE
  5
3CA
100
AcDbEntity
  8
47
  6
ByLayer
 62
  256
370
   -1
100
AcDbLine
 10
175.435
 20
46.5
 11
172.9
 21
46.63
  0
LINE
  5
3CB
100
AcDbEntity
  8
47
  6
ByLayer
 62
  256
370
   -1
100
AcDbLine
 10
172.9
 20
46.37
 11
175.435
 21
46.5
  0
LINE
  5
3CC
100
AcDbEntity
  8
47
  6
ByLayer
 62
  256
370
   -1
100
AcDbLine
 10
175.435
 20
46.5
 11
172.9
 21
46.76
  0
LINE
  5
3CD
100
AcDbEntity
  8
47
  6
ByLayer
 62
  256
370
   -1
100
AcDbLine
 10
172.9
 20
46.24
 11
175.435
 21
46.5
  0
LINE
  5
3CE
100
AcDbEntity
  8
47
  6
ByLayer
 62
  256
370
   -1
100
AcDbLine
 10
149.7157
 20
49.0554
 11
148.4829
 21
49.0554
  0
LINE
  5
3CF
100
AcDbEntity
  8
47
  6
ByLayer
 62
  256
370
   -1
100
AcDbLine
 10
148.4829
 20
49.0554
 11
148.4829
 21
48.1308
  0
LINE
  5
3D0
100
AcDbEntity
  8
47
  6
ByLayer
 62
  256
370
   -1
100
AcDbLine
 10
148.4829
 20
48.1308
 11
149.0993
 21
48.439
  0
LINE
  5
3D1
100
AcDbEntity
  8
47
  6
ByLayer
 62
  256
370
   -1
100
AcDbLine
 10
149.0993
 20
48.439
 11
149.4075
 21
48.439
  0
LINE
  5
3D2
100
AcDbEntity
  8
47
  6
ByLayer
 62
  256
370
   -1
100
AcDbLine
 10
149.4075
 20
48.439
 11
149.7157
 21
48.1308
  0
LINE
  5
3D3
100
AcDbEntity
  8
47
  6
ByLayer
 62
  256
370
   -1
100
AcDbLine
 10
149.7157
 20
48.1308
 11
149.7157
 21
47.5144
  0
LINE
  5
3D4
100
AcDbEntity
  8
47
  6
ByLayer
 62
  256
370
   -1
100
AcDbLine
 10
149.7157
 20
47.5144
 11
149.4075
 21
47.2062
  0
LINE
  5
3D5
100
AcDbEntity
  8
47
  6
ByLayer
 62
  256
370
   -1
100
AcDbLine
 10
149.4075
 20
47.2062
 11
148.7911
 21
47.2062
  0
LINE
  5
3D6
100
AcDbEntity
  8
47
  6
ByLayer
 62
  256
370
   -1
100
AcDbLine
 10
148.7911
 20
47.2062
 11
148.4829
 21
47.5144
  0
LINE
  5
3D7
100
AcDbEntity
  8
47
  6
ByLayer
 62
  256
370
   -1
100
AcDbLine
 10
150.3245
 20
48.439
 11
150.9409
 21
49.0554
  0
LINE
  5
3D8
100
AcDbEntity
  8
47
  6
ByLayer
 62
  256
370
   -1
100
AcDbLine
 10
150.9409
 20
49.0554
 11
150.9409
 21
47.2062
  0
LINE
  5
3D9
100
AcDbEntity
  8
47
  6
ByLayer
 62
  256
370
   -1
100
AcDbLine
 10
150.3245
 20
47.2062
 11
151.5573
 21
47.2062
  0
LINE
  5
3DA
100
AcDbEntity
  8
47
  6
ByLayer
 62
  256
370
   -1
100
AcDbLine
 10
90.25
 20
65
 11
90.25
 21
69.95
  0
LINE
  5
3DB
100
AcDbEntity
  8
47
  6
ByLayer
 62
  256
370
   -1
100
AcDbLine
 10
94.75
 20
65
 11
94.75
 21
69.95
  0
LINE
  5
3DC
100
AcDbEntity
  8
47
  6
ByLayer
 62
  256
370
   -1
100
AcDbLine
 10
90.185
 20
68
 11
85.05
 21
68
  0
LINE
  5
3DD
100
AcDbEntity
  8
47
  6
ByLayer
 62
  256
370
   -1
100
AcDbLine
 10
94.815
 20
68
 11
100.8846
 21
68
  0
LINE
  5
3DE
100
AcDbEntity
  8
47
  6
ByLayer
 62
  256
370
   -1
100
AcDbLine
 10
90.185
 20
68
 11
87.65000000000001
 21
68.3192
  0
LINE
  5
3DF
100
AcDbEntity
  8
47
  6
ByLayer
 62
  256
370
   -1
100
AcDbLine
 10
87.65000000000001
 20
68.3192
 11
87.65000000000001
 21
67.6808
  0
LINE
  5
3E0
100
AcDbEntity
  8
47
  6
ByLayer
 62
  256
370
   -1
100
AcDbLine
 10
87.65000000000001
 20
67.6808
 11
90.185
 21
68
  0
LINE
  5
3E1
100
AcDbEntity
  8
47
  6
ByLayer
 62
  256
370
   -1
100
AcDbLine
 10
90.185
 20
68
 11
87.65000000000001
 21
68.13
  0
LINE
  5
3E2
100
AcDbEntity
  8
47
  6
ByLayer
 62
  256
370
   -1
100
AcDbLine
 10
87.65000000000001
 20
67.87
 11
90.185
 21
68
  0
LINE
  5
3E3
100
AcDbEntity
  8
47
  6
ByLayer
 62
  256
370
   -1
100
AcDbLine
 10
90.185
 20
68
 11
87.65000000000001
 21
68.26000000000001
  0
LINE
  5
3E4
100
AcDbEntity
  8
47
  6
ByLayer
 62
  256
370
   -1
100
AcDbLine
 10
87.65000000000001
 20
67.73999999999999
 11
90.185
 21
68
  0
LINE
  5
3E5
100
AcDbEntity
  8
47
  6
ByLayer
 62
  256
370
   -1
100
AcDbLine
 10
94.815
 20
68
 11
97.34999999999999
 21
68.3192
  0
LINE
  5
3E6
100
AcDbEntity
  8
47
  6
ByLayer
 62
  256
370
   -1
100
AcDbLine
 10
97.34999999999999
 20
68.3192
 11
97.34999999999999
 21
67.6808
  0
LINE
  5
3E7
100
AcDbEntity
  8
47
  6
ByLayer
 62
  256
370
   -1
100
AcDbLine
 10
97.34999999999999
 20
67.6808
 11
94.815
 21
68
  0
LINE
  5
3E8
100
AcDbEntity
  8
47
  6
ByLayer
 62
  256
370
   -1
100
AcDbLine
 10
94.815
 20
68
 11
97.34999999999999
 21
68.13
  0
LINE
  5
3E9
100
AcDbEntity
  8
47
  6
ByLayer
 62
  256
370
   -1
100
AcDbLine
 10
97.34999999999999
 20
67.87
 11
94.815
 21
68
  0
LINE
  5
3EA
100
AcDbEntity
  8
47
  6
ByLayer
 62
  256
370
   -1
100
AcDbLine
 10
94.815
 20
68
 11
97.34999999999999
 21
68.26000000000001
  0
LINE
  5
3EB
100
AcDbEntity
  8
47
  6
ByLayer
 62
  256
370
   -1
100
AcDbLine
 10
97.34999999999999
 20
67.73999999999999
 11
94.815
 21
68
  0
LINE
  5
3EC
100
AcDbEntity
  8
47
  6
ByLayer
 62
  256
370
   -1
100
AcDbLine
 10
92.5
 20
64.6808
 11
92.5
 21
65.3192
  0
LINE
  5
3ED
100
AcDbEntity
  8
47
  6
ByLayer
 62
  256
370
   -1
100
AcDbLine
 10
92.1808
 20
65
 11
92.8192
 21
65
  0
LINE
  5
3EE
100
AcDbEntity
  8
47
  6
ByLayer
 62
  256
370
   -1
100
AcDbLine
 10
98.2397
 20
68.6507
 11
98.2397
 21
70.2777
  0
LINE
  5
3EF
100
AcDbEntity
  8
47
  6
ByLayer
 62
  256
370
   -1
100
AcDbLine
 10
98.2397
 20
70.2777
 11
97.42619999999999
 21
69.46420000000001
  0
LINE
  5
3F0
100
AcDbEntity
  8
47
  6
ByLayer
 62
  256
370
   -1
100
AcDbLine
 10
97.42619999999999
 20
69.46420000000001
 11
98.51090000000001
 21
69.46420000000001
  0
LINE
  5
3F1
100
AcDbEntity
  8
47
  6
ByLayer
 62
  256
370
   -1
100
AcDbLine
 10
99.0634
 20
68.6507
 11
99.0634
 21
68.92189999999999
  0
LINE
  5
3F2
100
AcDbEntity
  8
47
  6
ByLayer
 62
  256
370
   -1
100
AcDbLine
 10
99.0634
 20
68.92189999999999
 11
99.33450000000001
 21
68.92189999999999
  0
LINE
  5
3F3
100
AcDbEntity
  8
47
  6
ByLayer
 62
  256
370
   -1
100
AcDbLine
 10
99.33450000000001
 20
68.92189999999999
 11
99.33450000000001
 21
68.6507
  0
LINE
  5
3F4
100
AcDbEntity
  8
47
  6
ByLayer
 62
  256
370
   -1
100
AcDbLine
 10
99.33450000000001
 20
68.6507
 11
99.0634
 21
68.6507
  0
LINE
  5
3F5
100
AcDbEntity
  8
47
  6
ByLayer
 62
  256
370
   -1
100
AcDbLine
 10
100.9666
 20
70.2777
 11
99.8819
 21
70.2777
  0
LINE
  5
3F6
100
AcDbEntity
  8
47
  6
ByLayer
 62
  256
370
   -1
100
AcDbLine
 10
99.8819
 20
70.2777
 11
99.8819
 21
69.46420000000001
  0
LINE
  5
3F7
100
AcDbEntity
  8
47
  6
ByLayer
 62
  256
370
   -1
100
AcDbLine
 10
99.8819
 20
69.46420000000001
 11
100.4243
 21
69.7354
  0
LINE
  5
3F8
100
AcDbEntity
  8
47
  6
ByLayer
 62
  256
370
   -1
100
AcDbLine
 10
100.4243
 20
69.7354
 11
100.6954
 21
69.7354
  0
LINE
  5
3F9
100
AcDbEntity
  8
47
  6
ByLayer
 62
  256
370
   -1
100
AcDbLine
 10
100.6954
 20
69.7354
 11
100.9666
 21
69.46420000000001
  0
LINE
  5
3FA
100
AcDbEntity
  8
47
  6
ByLayer
 62
  256
370
   -1
100
AcDbLine
 10
100.9666
 20
69.46420000000001
 11
100.9666
 21
68.92189999999999
  0
LINE
  5
3FB
100
AcDbEntity
  8
47
  6
ByLayer
 62
  256
370
   -1
100
AcDbLine
 10
100.9666
 20
68.92189999999999
 11
100.6954
 21
68.6507
  0
LINE
  5
3FC
100
AcDbEntity
  8
47
  6
ByLayer
 62
  256
370
   -1
100
AcDbLine
 10
100.6954
 20
68.6507
 11
100.1531
 21
68.6507
  0
LINE
  5
3FD
100
AcDbEntity
  8
47
  6
ByLayer
 62
  256
370
   -1
100
AcDbLine
 10
100.1531
 20
68.6507
 11
99.8819
 21
68.92189999999999
  0
LINE
  5
3FE
100
AcDbEntity
  8
47
  6
ByLayer
 62
  256
370
   -1
100
AcDbLine
 10
249.5
 20
10.6
 11
253.95
 21
10.6
  0
LINE
  5
3FF
100
AcDbEntity
  8
47
  6
ByLayer
 62
  256
370
   -1
100
AcDbLine
 10
251.5
 20
1.5
 11
253.95
 21
1.5
  0
LINE
  5
400
100
AcDbEntity
  8
47
  6
ByLayer
 62
  256
370
   -1
100
AcDbLine
 10
252
 20
10.535
 11
252
 21
1.565
  0
LINE
  5
401
100
AcDbEntity
  8
47
  6
ByLayer
 62
  256
370
   -1
100
AcDbLine
 10
252
 20
10.535
 11
251.6808
 21
8
  0
LINE
  5
402
100
AcDbEntity
  8
47
  6
ByLayer
 62
  256
370
   -1
100
AcDbLine
 10
251.6808
 20
8
 11
252.3192
 21
8
  0
LINE
  5
403
100
AcDbEntity
  8
47
  6
ByLayer
 62
  256
370
   -1
100
AcDbLine
 10
252.3192
 20
8
 11
252
 21
10.535
  0
LINE
  5
404
100
AcDbEntity
  8
47
  6
ByLayer
 62
  256
370
   -1
100
AcDbLine
 10
252
 20
10.535
 11
251.87
 21
8
  0
LINE
  5
405
100
AcDbEntity
  8
47
  6
ByLayer
 62
  256
370
   -1
100
AcDbLine
 10
252.13
 20
8
 11
252
 21
10.535
  0
LINE
  5
406
100
AcDbEntity
  8
47
  6
ByLayer
 62
  256
370
   -1
100
AcDbLine
 10
252
 20
10.535
 11
251.74
 21
8
  0
LINE
  5
407
100
AcDbEntity
  8
47
  6
ByLayer
 62
  256
370
   -1
100
AcDbLine
 10
252.26
 20
8
 11
252
 21
10.535
  0
LINE
  5
408
100
AcDbEntity
  8
47
  6
ByLayer
 62
  256
370
   -1
100
AcDbLine
 10
252
 20
1.565
 11
251.6808
 21
4.1
  0
LINE
  5
409
100
AcDbEntity
  8
47
  6
ByLayer
 62
  256
370
   -1
100
AcDbLine
 10
251.6808
 20
4.1
 11
252.3192
 21
4.1
  0
LINE
  5
40A
100
AcDbEntity
  8
47
  6
ByLayer
 62
  256
370
   -1
100
AcDbLine
 10
252.3192
 20
4.1
 11
252
 21
1.565
  0
LINE
  5
40B
100
AcDbEntity
  8
47
  6
ByLayer
 62
  256
370
   -1
100
AcDbLine
 10
252
 20
1.565
 11
251.87
 21
4.1
  0
LINE
  5
40C
100
AcDbEntity
  8
47
  6
ByLayer
 62
  256
370
   -1
100
AcDbLine
 10
252.13
 20
4.1
 11
252
 21
1.565
  0
LINE
  5
40D
100
AcDbEntity
  8
47
  6
ByLayer
 62
  256
370
   -1
100
AcDbLine
 10
252
 20
1.565
 11
251.74
 21
4.1
  0
LINE
  5
40E
100
AcDbEntity
  8
47
  6
ByLayer
 62
  256
370
   -1
100
AcDbLine
 10
252.26
 20
4.1
 11
252
 21
1.565
  0
LINE
  5
40F
100
AcDbEntity
  8
47
  6
ByLayer
 62
  256
370
   -1
100
AcDbLine
 10
250.9856
 20
4.1357
 11
251.2938
 21
4.4439
  0
LINE
  5
410
100
AcDbEntity
  8
47
  6
ByLayer
 62
  256
370
   -1
100
AcDbLine
 10
251.2938
 20
4.4439
 11
251.2938
 21
5.0603
  0
LINE
  5
411
100
AcDbEntity
  8
47
  6
ByLayer
 62
  256
370
   -1
100
AcDbLine
 10
251.2938
 20
5.0603
 11
250.9856
 21
5.3685
  0
LINE
  5
412
100
AcDbEntity
  8
47
  6
ByLayer
 62
  256
370
   -1
100
AcDbLine
 10
250.9856
 20
5.3685
 11
249.7528
 21
5.3685
  0
LINE
  5
413
100
AcDbEntity
  8
47
  6
ByLayer
 62
  256
370
   -1
100
AcDbLine
 10
249.7528
 20
5.3685
 11
249.4446
 21
5.0603
  0
LINE
  5
414
100
AcDbEntity
  8
47
  6
ByLayer
 62
  256
370
   -1
100
AcDbLine
 10
249.4446
 20
5.0603
 11
249.4446
 21
4.4439
  0
LINE
  5
415
100
AcDbEntity
  8
47
  6
ByLayer
 62
  256
370
   -1
100
AcDbLine
 10
249.4446
 20
4.4439
 11
249.7528
 21
4.1357
  0
LINE
  5
416
100
AcDbEntity
  8
47
  6
ByLayer
 62
  256
370
   -1
100
AcDbLine
 10
249.7528
 20
4.1357
 11
250.061
 21
4.1357
  0
LINE
  5
417
100
AcDbEntity
  8
47
  6
ByLayer
 62
  256
370
   -1
100
AcDbLine
 10
250.061
 20
4.1357
 11
250.3692
 21
4.4439
  0
LINE
  5
418
100
AcDbEntity
  8
47
  6
ByLayer
 62
  256
370
   -1
100
AcDbLine
 10
250.3692
 20
4.4439
 11
250.3692
 21
5.3685
  0
LINE
  5
419
100
AcDbEntity
  8
47
  6
ByLayer
 62
  256
370
   -1
100
AcDbLine
 10
251.2938
 20
5.9773
 11
250.9856
 21
5.9773
  0
LINE
  5
41A
100
AcDbEntity
  8
47
  6
ByLayer
 62
  256
370
   -1
100
AcDbLine
 10
250.9856
 20
5.9773
 11
250.9856
 21
6.2855
  0
LINE
  5
41B
100
AcDbEntity
  8
47
  6
ByLayer
 62
  256
370
   -1
100
AcDbLine
 10
250.9856
 20
6.2855
 11
251.2938
 21
6.2855
  0
LINE
  5
41C
100
AcDbEntity
  8
47
  6
ByLayer
 62
  256
370
   -1
100
AcDbLine
 10
251.2938
 20
6.2855
 11
251.2938
 21
5.9773
  0
LINE
  5
41D
100
AcDbEntity
  8
47
  6
ByLayer
 62
  256
370
   -1
100
AcDbLine
 10
250.061
 20
6.8981
 11
249.4446
 21
7.5145
  0
LINE
  5
41E
100
AcDbEntity
  8
47
  6
ByLayer
 62
  256
370
   -1
100
AcDbLine
 10
249.4446
 20
7.5145
 11
251.2938
 21
7.5145
  0
LINE
  5
41F
100
AcDbEntity
  8
47
  6
ByLayer
 62
  256
370
   -1
100
AcDbLine
 10
251.2938
 20
6.8981
 11
251.2938
 21
8.1309
  0
LINE
  5
420
100
AcDbEntity
  8
47
  6
ByLayer
 62
  256
370
   -1
100
AcDbLine
 10
249.5
 20
78.5
 11
253.95
 21
78.5
  0
LINE
  5
421
100
AcDbEntity
  8
47
  6
ByLayer
 62
  256
370
   -1
100
AcDbLine
 10
249.5
 20
69.40000000000001
 11
253.95
 21
69.40000000000001
  0
LINE
  5
422
100
AcDbEntity
  8
47
  6
ByLayer
 62
  256
370
   -1
100
AcDbLine
 10
252
 20
78.435
 11
252
 21
69.465
  0
LINE
  5
423
100
AcDbEntity
  8
47
  6
ByLayer
 62
  256
370
   -1
100
AcDbLine
 10
252
 20
78.435
 11
251.6808
 21
75.90000000000001
  0
LINE
  5
424
100
AcDbEntity
  8
47
  6
ByLayer
 62
  256
370
   -1
100
AcDbLine
 10
251.6808
 20
75.90000000000001
 11
252.3192
 21
75.90000000000001
  0
LINE
  5
425
100
AcDbEntity
  8
47
  6
ByLayer
 62
  256
370
   -1
100
AcDbLine
 10
252.3192
 20
75.90000000000001
 11
252
 21
78.435
  0
LINE
  5
426
100
AcDbEntity
  8
47
  6
ByLayer
 62
  256
370
   -1
100
AcDbLine
 10
252
 20
78.435
 11
251.87
 21
75.90000000000001
  0
LINE
  5
427
100
AcDbEntity
  8
47
  6
ByLayer
 62
  256
370
   -1
100
AcDbLine
 10
252.13
 20
75.90000000000001
 11
252
 21
78.435
  0
LINE
  5
428
100
AcDbEntity
  8
47
  6
ByLayer
 62
  256
370
   -1
100
AcDbLine
 10
252
 20
78.435
 11
251.74
 21
75.90000000000001
  0
LINE
  5
429
100
AcDbEntity
  8
47
  6
ByLayer
 62
  256
370
   -1
100
AcDbLine
 10
252.26
 20
75.90000000000001
 11
252
 21
78.435
  0
LINE
  5
42A
100
AcDbEntity
  8
47
  6
ByLayer
 62
  256
370
   -1
100
AcDbLine
 10
252
 20
69.465
 11
251.6808
 21
72
  0
LINE
  5
42B
100
AcDbEntity
  8
47
  6
ByLayer
 62
  256
370
   -1
100
AcDbLine
 10
251.6808
 20
72
 11
252.3192
 21
72
  0
LINE
  5
42C
100
AcDbEntity
  8
47
  6
ByLayer
 62
  256
370
   -1
100
AcDbLine
 10
252.3192
 20
72
 11
252
 21
69.465
  0
LINE
  5
42D
100
AcDbEntity
  8
47
  6
ByLayer
 62
  256
370
   -1
100
AcDbLine
 10
252
 20
69.465
 11
251.87
 21
72
  0
LINE
  5
42E
100
AcDbEntity
  8
47
  6
ByLayer
 62
  256
370
   -1
100
AcDbLine
 10
252.13
 20
72
 11
252
 21
69.465
  0
LINE
  5
42F
100
AcDbEntity
  8
47
  6
ByLayer
 62
  256
370
   -1
100
AcDbLine
 10
252
 20
69.465
 11
251.74
 21
72
  0
LINE
  5
430
100
AcDbEntity
  8
47
  6
ByLayer
 62
  256
370
   -1
100
AcDbLine
 10
252.26
 20
72
 11
252
 21
69.465
  0
LINE
  5
431
100
AcDbEntity
  8
47
  6
ByLayer
 62
  256
370
   -1
100
AcDbLine
 10
250.9856
 20
72.03570000000001
 11
251.2938
 21
72.3439
  0
LINE
  5
432
100
AcDbEntity
  8
47
  6
ByLayer
 62
  256
370
   -1
100
AcDbLine
 10
251.2938
 20
72.3439
 11
251.2938
 21
72.9603
  0
LINE
  5
433
100
AcDbEntity
  8
47
  6
ByLayer
 62
  256
370
   -1
100
AcDbLine
 10
251.2938
 20
72.9603
 11
250.9856
 21
73.2685
  0
LINE
  5
434
100
AcDbEntity
  8
47
  6
ByLayer
 62
  256
370
   -1
100
AcDbLine
 10
250.9856
 20
73.2685
 11
249.7528
 21
73.2685
  0
LINE
  5
435
100
AcDbEntity
  8
47
  6
ByLayer
 62
  256
370
   -1
100
AcDbLine
 10
249.7528
 20
73.2685
 11
249.4446
 21
72.9603
  0
LINE
  5
436
100
AcDbEntity
  8
47
  6
ByLayer
 62
  256
370
   -1
100
AcDbLine
 10
249.4446
 20
72.9603
 11
249.4446
 21
72.3439
  0
LINE
  5
437
100
AcDbEntity
  8
47
  6
ByLayer
 62
  256
370
   -1
100
AcDbLine
 10
249.4446
 20
72.3439
 11
249.7528
 21
72.03570000000001
  0
LINE
  5
438
100
AcDbEntity
  8
47
  6
ByLayer
 62
  256
370
   -1
100
AcDbLine
 10
249.7528
 20
72.03570000000001
 11
250.061
 21
72.03570000000001
  0
LINE
  5
439
100
AcDbEntity
  8
47
  6
ByLayer
 62
  256
370
   -1
100
AcDbLine
 10
250.061
 20
72.03570000000001
 11
250.3692
 21
72.3439
  0
LINE
  5
43A
100
AcDbEntity
  8
47
  6
ByLayer
 62
  256
370
   -1
100
AcDbLine
 10
250.3692
 20
72.3439
 11
250.3692
 21
73.2685
  0
LINE
  5
43B
100
AcDbEntity
  8
47
  6
ByLayer
 62
  256
370
   -1
100
AcDbLine
 10
251.2938
 20
73.87730000000001
 11
250.9856
 21
73.87730000000001
  0
LINE
  5
43C
100
AcDbEntity
  8
47
  6
ByLayer
 62
  256
370
   -1
100
AcDbLine
 10
250.9856
 20
73.87730000000001
 11
250.9856
 21
74.1855
  0
LINE
  5
43D
100
AcDbEntity
  8
47
  6
ByLayer
 62
  256
370
   -1
100
AcDbLine
 10
250.9856
 20
74.1855
 11
251.2938
 21
74.1855
  0
LINE
  5
43E
100
AcDbEntity
  8
47
  6
ByLayer
 62
  256
370
   -1
100
AcDbLine
 10
251.2938
 20
74.1855
 11
251.2938
 21
73.87730000000001
  0
LINE
  5
43F
100
AcDbEntity
  8
47
  6
ByLayer
 62
  256
370
   -1
100
AcDbLine
 10
250.061
 20
74.79810000000001
 11
249.4446
 21
75.4145
  0
LINE
  5
440
100
AcDbEntity
  8
47
  6
ByLayer
 62
  256
370
   -1
100
AcDbLine
 10
249.4446
 20
75.4145
 11
251.2938
 21
75.4145
  0
LINE
  5
441
100
AcDbEntity
  8
47
  6
ByLayer
 62
  256
370
   -1
100
AcDbLine
 10
251.2938
 20
74.79810000000001
 11
251.2938
 21
76.0309
  0
LINE
  5
442
100
AcDbEntity
  8
47
  6
ByLayer
 62
  256
370
   -1
100
AcDbLine
 10
268.5
 20
43.5
 11
268.5
 21
46.95
  0
LINE
  5
443
100
AcDbEntity
  8
47
  6
ByLayer
 62
  256
370
   -1
100
AcDbLine
 10
288.5
 20
43
 11
288.5
 21
46.95
  0
LINE
  5
444
100
AcDbEntity
  8
47
  6
ByLayer
 62
  256
370
   -1
100
AcDbLine
 10
268.565
 20
45
 11
288.435
 21
45
  0
LINE
  5
445
100
AcDbEntity
  8
47
  6
ByLayer
 62
  256
370
   -1
100
AcDbLine
 10
268.565
 20
45
 11
271.1
 21
45.3192
  0
LINE
  5
446
100
AcDbEntity
  8
47
  6
ByLayer
 62
  256
370
   -1
100
AcDbLine
 10
271.1
 20
45.3192
 11
271.1
 21
44.6808
  0
LINE
  5
447
100
AcDbEntity
  8
47
  6
ByLayer
 62
  256
370
   -1
100
AcDbLine
 10
271.1
 20
44.6808
 11
268.565
 21
45
  0
LINE
  5
448
100
AcDbEntity
  8
47
  6
ByLayer
 62
  256
370
   -1
100
AcDbLine
 10
268.565
 20
45
 11
271.1
 21
45.13
  0
LINE
  5
449
100
AcDbEntity
  8
47
  6
ByLayer
 62
  256
370
   -1
100
AcDbLine
 10
271.1
 20
44.87
 11
268.565
 21
45
  0
LINE
  5
44A
100
AcDbEntity
  8
47
  6
ByLayer
 62
  256
370
   -1
100
AcDbLine
 10
268.565
 20
45
 11
271.1
 21
45.26
  0
LINE
  5
44B
100
AcDbEntity
  8
47
  6
ByLayer
 62
  256
370
   -1
100
AcDbLine
 10
271.1
 20
44.74
 11
268.565
 21
45
  0
LINE
  5
44C
100
AcDbEntity
  8
47
  6
ByLayer
 62
  256
370
   -1
100
AcDbLine
 10
288.435
 20
45
 11
285.9
 21
45.3192
  0
LINE
  5
44D
100
AcDbEntity
  8
47
  6
ByLayer
 62
  256
370
   -1
100
AcDbLine
 10
285.9
 20
45.3192
 11
285.9
 21
44.6808
  0
LINE
  5
44E
100
AcDbEntity
  8
47
  6
ByLayer
 62
  256
370
   -1
100
AcDbLine
 10
285.9
 20
44.6808
 11
288.435
 21
45
  0
LINE
  5
44F
100
AcDbEntity
  8
47
  6
ByLayer
 62
  256
370
   -1
100
AcDbLine
 10
288.435
 20
45
 11
285.9
 21
45.13
  0
LINE
  5
450
100
AcDbEntity
  8
47
  6
ByLayer
 62
  256
370
   -1
100
AcDbLine
 10
285.9
 20
44.87
 11
288.435
 21
45
  0
LINE
  5
451
100
AcDbEntity
  8
47
  6
ByLayer
 62
  256
370
   -1
100
AcDbLine
 10
288.435
 20
45
 11
285.9
 21
45.26
  0
LINE
  5
452
100
AcDbEntity
  8
47
  6
ByLayer
 62
  256
370
   -1
100
AcDbLine
 10
285.9
 20
44.74
 11
288.435
 21
45
  0
LINE
  5
453
100
AcDbEntity
  8
47
  6
ByLayer
 62
  256
370
   -1
100
AcDbLine
 10
278.2157
 20
45.7062
 11
276.9829
 21
45.7062
  0
LINE
  5
454
100
AcDbEntity
  8
47
  6
ByLayer
 62
  256
370
   -1
100
AcDbLine
 10
276.9829
 20
45.7062
 11
278.2157
 21
46.939
  0
LINE
  5
455
100
AcDbEntity
  8
47
  6
ByLayer
 62
  256
370
   -1
100
AcDbLine
 10
278.2157
 20
46.939
 11
278.2157
 21
47.2472
  0
LINE
  5
456
100
AcDbEntity
  8
47
  6
ByLayer
 62
  256
370
   -1
100
AcDbLine
 10
278.2157
 20
47.2472
 11
277.9075
 21
47.5554
  0
LINE
  5
457
100
AcDbEntity
  8
47
  6
ByLayer
 62
  256
370
   -1
100
AcDbLine
 10
277.9075
 20
47.5554
 11
277.2911
 21
47.5554
  0
LINE
  5
458
100
AcDbEntity
  8
47
  6
ByLayer
 62
  256
370
   -1
100
AcDbLine
 10
277.2911
 20
47.5554
 11
276.9829
 21
47.2472
  0
LINE
  5
459
100
AcDbEntity
  8
47
  6
ByLayer
 62
  256
370
   -1
100
AcDbLine
 10
278.8245
 20
46.0144
 11
278.8245
 21
47.2472
  0
LINE
  5
45A
100
AcDbEntity
  8
47
  6
ByLayer
 62
  256
370
   -1
100
AcDbLine
 10
278.8245
 20
47.2472
 11
279.1327
 21
47.5554
  0
LINE
  5
45B
100
AcDbEntity
  8
47
  6
ByLayer
 62
  256
370
   -1
100
AcDbLine
 10
279.1327
 20
47.5554
 11
279.7491
 21
47.5554
  0
LINE
  5
45C
100
AcDbEntity
  8
47
  6
ByLayer
 62
  256
370
   -1
100
AcDbLine
 10
279.7491
 20
47.5554
 11
280.0573
 21
47.2472
  0
LINE
  5
45D
100
AcDbEntity
  8
47
  6
ByLayer
 62
  256
370
   -1
100
AcDbLine
 10
280.0573
 20
47.2472
 11
280.0573
 21
46.0144
  0
LINE
  5
45E
100
AcDbEntity
  8
47
  6
ByLayer
 62
  256
370
   -1
100
AcDbLine
 10
280.0573
 20
46.0144
 11
279.7491
 21
45.7062
  0
LINE
  5
45F
100
AcDbEntity
  8
47
  6
ByLayer
 62
  256
370
   -1
100
AcDbLine
 10
279.7491
 20
45.7062
 11
279.1327
 21
45.7062
  0
LINE
  5
460
100
AcDbEntity
  8
47
  6
ByLayer
 62
  256
370
   -1
100
AcDbLine
 10
279.1327
 20
45.7062
 11
278.8245
 21
46.0144
  0
LINE
  5
461
100
AcDbEntity
  8
47
  6
ByLayer
 62
  256
370
   -1
100
AcDbLine
 10
278.8245
 20
46.0144
 11
280.0573
 21
47.2472
  0
LINE
  5
462
100
AcDbEntity
  8
47
  6
ByLayer
 62
  256
370
   -1
100
AcDbLine
 10
250
 20
69.40000000000001
 11
253.95
 21
69.40000000000001
  0
LINE
  5
463
100
AcDbEntity
  8
47
  6
ByLayer
 62
  256
370
   -1
100
AcDbLine
 10
250.5
 20
10.6
 11
253.95
 21
10.6
  0
LINE
  5
464
100
AcDbEntity
  8
47
  6
ByLayer
 62
  256
370
   -1
100
AcDbLine
 10
252
 20
69.33499999999999
 11
252
 21
10.665
  0
LINE
  5
465
100
AcDbEntity
  8
47
  6
ByLayer
 62
  256
370
   -1
100
AcDbLine
 10
252
 20
69.33499999999999
 11
251.6808
 21
66.8
  0
LINE
  5
466
100
AcDbEntity
  8
47
  6
ByLayer
 62
  256
370
   -1
100
AcDbLine
 10
251.6808
 20
66.8
 11
252.3192
 21
66.8
  0
LINE
  5
467
100
AcDbEntity
  8
47
  6
ByLayer
 62
  256
370
   -1
100
AcDbLine
 10
252.3192
 20
66.8
 11
252
 21
69.33499999999999
  0
LINE
  5
468
100
AcDbEntity
  8
47
  6
ByLayer
 62
  256
370
   -1
100
AcDbLine
 10
252
 20
69.33499999999999
 11
251.87
 21
66.8
  0
LINE
  5
469
100
AcDbEntity
  8
47
  6
ByLayer
 62
  256
370
   -1
100
AcDbLine
 10
252.13
 20
66.8
 11
252
 21
69.33499999999999
  0
LINE
  5
46A
100
AcDbEntity
  8
47
  6
ByLayer
 62
  256
370
   -1
100
AcDbLine
 10
252
 20
69.33499999999999
 11
251.74
 21
66.8
  0
LINE
  5
46B
100
AcDbEntity
  8
47
  6
ByLayer
 62
  256
370
   -1
100
AcDbLine
 10
252.26
 20
66.8
 11
252
 21
69.33499999999999
  0
LINE
  5
46C
100
AcDbEntity
  8
47
  6
ByLayer
 62
  256
370
   -1
100
AcDbLine
 10
252
 20
10.665
 11
251.6808
 21
13.2
  0
LINE
  5
46D
100
AcDbEntity
  8
47
  6
ByLayer
 62
  256
370
   -1
100
AcDbLine
 10
251.6808
 20
13.2
 11
252.3192
 21
13.2
  0
LINE
  5
46E
100
AcDbEntity
  8
47
  6
ByLayer
 62
  256
370
   -1
100
AcDbLine
 10
252.3192
 20
13.2
 11
252
 21
10.665
  0
LINE
  5
46F
100
AcDbEntity
  8
47
  6
ByLayer
 62
  256
370
   -1
100
AcDbLine
 10
252
 20
10.665
 11
251.87
 21
13.2
  0
LINE
  5
470
100
AcDbEntity
  8
47
  6
ByLayer
 62
  256
370
   -1
100
AcDbLine
 10
252.13
 20
13.2
 11
252
 21
10.665
  0
LINE
  5
471
100
AcDbEntity
  8
47
  6
ByLayer
 62
  256
370
   -1
100
AcDbLine
 10
252
 20
10.665
 11
251.74
 21
13.2
  0
LINE
  5
472
100
AcDbEntity
  8
47
  6
ByLayer
 62
  256
370
   -1
100
AcDbLine
 10
252.26
 20
13.2
 11
252
 21
10.665
  0
LINE
  5
473
100
AcDbEntity
  8
47
  6
ByLayer
 62
  256
370
   -1
100
AcDbLine
 10
249.4446
 20
38.5196
 11
249.4446
 21
37.2869
  0
LINE
  5
474
100
AcDbEntity
  8
47
  6
ByLayer
 62
  256
370
   -1
100
AcDbLine
 10
249.4446
 20
37.2869
 11
250.3692
 21
37.2869
  0
LINE
  5
475
100
AcDbEntity
  8
47
  6
ByLayer
 62
  256
370
   -1
100
AcDbLine
 10
250.3692
 20
37.2869
 11
250.061
 21
37.9033
  0
LINE
  5
476
100
AcDbEntity
  8
47
  6
ByLayer
 62
  256
370
   -1
100
AcDbLine
 10
250.061
 20
37.9033
 11
250.061
 21
38.2115
  0
LINE
  5
477
100
AcDbEntity
  8
47
  6
ByLayer
 62
  256
370
   -1
100
AcDbLine
 10
250.061
 20
38.2115
 11
250.3692
 21
38.5196
  0
LINE
  5
478
100
AcDbEntity
  8
47
  6
ByLayer
 62
  256
370
   -1
100
AcDbLine
 10
250.3692
 20
38.5196
 11
250.9856
 21
38.5196
  0
LINE
  5
479
100
AcDbEntity
  8
47
  6
ByLayer
 62
  256
370
   -1
100
AcDbLine
 10
250.9856
 20
38.5196
 11
251.2938
 21
38.2115
  0
LINE
  5
47A
100
AcDbEntity
  8
47
  6
ByLayer
 62
  256
370
   -1
100
AcDbLine
 10
251.2938
 20
38.2115
 11
251.2938
 21
37.5951
  0
LINE
  5
47B
100
AcDbEntity
  8
47
  6
ByLayer
 62
  256
370
   -1
100
AcDbLine
 10
251.2938
 20
37.5951
 11
250.9856
 21
37.2869
  0
LINE
  5
47C
100
AcDbEntity
  8
47
  6
ByLayer
 62
  256
370
   -1
100
AcDbLine
 10
249.7528
 20
39.1284
 11
249.4446
 21
39.4366
  0
LINE
  5
47D
100
AcDbEntity
  8
47
  6
ByLayer
 62
  256
370
   -1
100
AcDbLine
 10
249.4446
 20
39.4366
 11
249.4446
 21
40.053
  0
LINE
  5
47E
100
AcDbEntity
  8
47
  6
ByLayer
 62
  256
370
   -1
100
AcDbLine
 10
249.4446
 20
40.053
 11
249.7528
 21
40.3612
  0
LINE
  5
47F
100
AcDbEntity
  8
47
  6
ByLayer
 62
  256
370
   -1
100
AcDbLine
 10
249.7528
 20
40.3612
 11
250.061
 21
40.3612
  0
LINE
  5
480
100
AcDbEntity
  8
47
  6
ByLayer
 62
  256
370
   -1
100
AcDbLine
 10
250.061
 20
40.3612
 11
250.3692
 21
40.053
  0
LINE
  5
481
100
AcDbEntity
  8
47
  6
ByLayer
 62
  256
370
   -1
100
AcDbLine
 10
250.3692
 20
40.053
 11
250.6774
 21
40.3612
  0
LINE
  5
482
100
AcDbEntity
  8
47
  6
ByLayer
 62
  256
370
   -1
100
AcDbLine
 10
250.6774
 20
40.3612
 11
250.9856
 21
40.3612
  0
LINE
  5
483
100
AcDbEntity
  8
47
  6
ByLayer
 62
  256
370
   -1
100
AcDbLine
 10
250.9856
 20
40.3612
 11
251.2938
 21
40.053
  0
LINE
  5
484
100
AcDbEntity
  8
47
  6
ByLayer
 62
  256
370
   -1
100
AcDbLine
 10
251.2938
 20
40.053
 11
251.2938
 21
39.4366
  0
LINE
  5
485
100
AcDbEntity
  8
47
  6
ByLayer
 62
  256
370
   -1
100
AcDbLine
 10
251.2938
 20
39.4366
 11
250.9856
 21
39.1284
  0
LINE
  5
486
100
AcDbEntity
  8
47
  6
ByLayer
 62
  256
370
   -1
100
AcDbLine
 10
250.9856
 20
39.1284
 11
250.6774
 21
39.1284
  0
LINE
  5
487
100
AcDbEntity
  8
47
  6
ByLayer
 62
  256
370
   -1
100
AcDbLine
 10
250.6774
 20
39.1284
 11
250.3692
 21
39.4366
  0
LINE
  5
488
100
AcDbEntity
  8
47
  6
ByLayer
 62
  256
370
   -1
100
AcDbLine
 10
250.3692
 20
39.4366
 11
250.061
 21
39.1284
  0
LINE
  5
489
100
AcDbEntity
  8
47
  6
ByLayer
 62
  256
370
   -1
100
AcDbLine
 10
250.061
 20
39.1284
 11
249.7528
 21
39.1284
  0
LINE
  5
48A
100
AcDbEntity
  8
47
  6
ByLayer
 62
  256
370
   -1
100
AcDbLine
 10
250.3692
 20
39.4366
 11
250.3692
 21
40.053
  0
LINE
  5
48B
100
AcDbEntity
  8
47
  6
ByLayer
 62
  256
370
   -1
100
AcDbLine
 10
251.2938
 20
40.97
 11
250.9856
 21
40.97
  0
LINE
  5
48C
100
AcDbEntity
  8
47
  6
ByLayer
 62
  256
370
   -1
100
AcDbLine
 10
250.9856
 20
40.97
 11
250.9856
 21
41.2782
  0
LINE
  5
48D
100
AcDbEntity
  8
47
  6
ByLayer
 62
  256
370
   -1
100
AcDbLine
 10
250.9856
 20
41.2782
 11
251.2938
 21
41.2782
  0
LINE
  5
48E
100
AcDbEntity
  8
47
  6
ByLayer
 62
  256
370
   -1
100
AcDbLine
 10
251.2938
 20
41.2782
 11
251.2938
 21
40.97
  0
LINE
  5
48F
100
AcDbEntity
  8
47
  6
ByLayer
 62
  256
370
   -1
100
AcDbLine
 10
249.7528
 20
41.8908
 11
249.4446
 21
42.199
  0
LINE
  5
490
100
AcDbEntity
  8
47
  6
ByLayer
 62
  256
370
   -1
100
AcDbLine
 10
249.4446
 20
42.199
 11
249.4446
 21
42.8154
  0
LINE
  5
491
100
AcDbEntity
  8
47
  6
ByLayer
 62
  256
370
   -1
100
AcDbLine
 10
249.4446
 20
42.8154
 11
249.7528
 21
43.1236
  0
LINE
  5
492
100
AcDbEntity
  8
47
  6
ByLayer
 62
  256
370
   -1
100
AcDbLine
 10
249.7528
 20
43.1236
 11
250.061
 21
43.1236
  0
LINE
  5
493
100
AcDbEntity
  8
47
  6
ByLayer
 62
  256
370
   -1
100
AcDbLine
 10
250.061
 20
43.1236
 11
250.3692
 21
42.8154
  0
LINE
  5
494
100
AcDbEntity
  8
47
  6
ByLayer
 62
  256
370
   -1
100
AcDbLine
 10
250.3692
 20
42.8154
 11
250.6774
 21
43.1236
  0
LINE
  5
495
100
AcDbEntity
  8
47
  6
ByLayer
 62
  256
370
   -1
100
AcDbLine
 10
250.6774
 20
43.1236
 11
250.9856
 21
43.1236
  0
LINE
  5
496
100
AcDbEntity
  8
47
  6
ByLayer
 62
  256
370
   -1
100
AcDbLine
 10
250.9856
 20
43.1236
 11
251.2938
 21
42.8154
  0
LINE
  5
497
100
AcDbEntity
  8
47
  6
ByLayer
 62
  256
370
   -1
100
AcDbLine
 10
251.2938
 20
42.8154
 11
251.2938
 21
42.199
  0
LINE
  5
498
100
AcDbEntity
  8
47
  6
ByLayer
 62
  256
370
   -1
100
AcDbLine
 10
251.2938
 20
42.199
 11
250.9856
 21
41.8908
  0
LINE
  5
499
100
AcDbEntity
  8
47
  6
ByLayer
 62
  256
370
   -1
100
AcDbLine
 10
250.9856
 20
41.8908
 11
250.6774
 21
41.8908
  0
LINE
  5
49A
100
AcDbEntity
  8
47
  6
ByLayer
 62
  256
370
   -1
100
AcDbLine
 10
250.6774
 20
41.8908
 11
250.3692
 21
42.199
  0
LINE
  5
49B
100
AcDbEntity
  8
47
  6
ByLayer
 62
  256
370
   -1
100
AcDbLine
 10
250.3692
 20
42.199
 11
250.061
 21
41.8908
  0
LINE
  5
49C
100
AcDbEntity
  8
47
  6
ByLayer
 62
  256
370
   -1
100
AcDbLine
 10
250.061
 20
41.8908
 11
249.7528
 21
41.8908
  0
LINE
  5
49D
100
AcDbEntity
  8
47
  6
ByLayer
 62
  256
370
   -1
100
AcDbLine
 10
250.3692
 20
42.199
 11
250.3692
 21
42.8154
  0
LINE
  5
49E
100
AcDbEntity
  8
47
  6
ByLayer
 62
  256
370
   -1
100
AcDbLine
 10
240.5
 20
43.5
 11
240.5
 21
46.95
  0
LINE
  5
49F
100
AcDbEntity
  8
47
  6
ByLayer
 62
  256
370
   -1
100
AcDbLine
 10
268.5
 20
43
 11
268.5
 21
46.95
  0
LINE
  5
4A0
100
AcDbEntity
  8
47
  6
ByLayer
 62
  256
370
   -1
100
AcDbLine
 10
240.565
 20
45
 11
268.435
 21
45
  0
LINE
  5
4A1
100
AcDbEntity
  8
47
  6
ByLayer
 62
  256
370
   -1
100
AcDbLine
 10
240.565
 20
45
 11
243.1
 21
45.3192
  0
LINE
  5
4A2
100
AcDbEntity
  8
47
  6
ByLayer
 62
  256
370
   -1
100
AcDbLine
 10
243.1
 20
45.3192
 11
243.1
 21
44.6808
  0
LINE
  5
4A3
100
AcDbEntity
  8
47
  6
ByLayer
 62
  256
370
   -1
100
AcDbLine
 10
243.1
 20
44.6808
 11
240.565
 21
45
  0
LINE
  5
4A4
100
AcDbEntity
  8
47
  6
ByLayer
 62
  256
370
   -1
100
AcDbLine
 10
240.565
 20
45
 11
243.1
 21
45.13
  0
LINE
  5
4A5
100
AcDbEntity
  8
47
  6
ByLayer
 62
  256
370
   -1
100
AcDbLine
 10
243.1
 20
44.87
 11
240.565
 21
45
  0
LINE
  5
4A6
100
AcDbEntity
  8
47
  6
ByLayer
 62
  256
370
   -1
100
AcDbLine
 10
240.565
 20
45
 11
243.1
 21
45.26
  0
LINE
  5
4A7
100
AcDbEntity
  8
47
  6
ByLayer
 62
  256
370
   -1
100
AcDbLine
 10
243.1
 20
44.74
 11
240.565
 21
45
  0
LINE
  5
4A8
100
AcDbEntity
  8
47
  6
ByLayer
 62
  256
370
   -1
100
AcDbLine
 10
268.435
 20
45
 11
265.9
 21
45.3192
  0
LINE
  5
4A9
100
AcDbEntity
  8
47
  6
ByLayer
 62
  256
370
   -1
100
AcDbLine
 10
265.9
 20
45.3192
 11
265.9
 21
44.6808
  0
LINE
  5
4AA
100
AcDbEntity
  8
47
  6
ByLayer
 62
  256
370
   -1
100
AcDbLine
 10
265.9
 20
44.6808
 11
268.435
 21
45
  0
LINE
  5
4AB
100
AcDbEntity
  8
47
  6
ByLayer
 62
  256
370
   -1
100
AcDbLine
 10
268.435
 20
45
 11
265.9
 21
45.13
  0
LINE
  5
4AC
100
AcDbEntity
  8
47
  6
ByLayer
 62
  256
370
   -1
100
AcDbLine
 10
265.9
 20
44.87
 11
268.435
 21
45
  0
LINE
  5
4AD
100
AcDbEntity
  8
47
  6
ByLayer
 62
  256
370
   -1
100
AcDbLine
 10
268.435
 20
45
 11
265.9
 21
45.26
  0
LINE
  5
4AE
100
AcDbEntity
  8
47
  6
ByLayer
 62
  256
370
   -1
100
AcDbLine
 10
265.9
 20
44.74
 11
268.435
 21
45
  0
LINE
  5
4AF
100
AcDbEntity
  8
47
  6
ByLayer
 62
  256
370
   -1
100
AcDbLine
 10
254.2157
 20
45.7062
 11
252.9829
 21
45.7062
  0
LINE
  5
4B0
100
AcDbEntity
  8
47
  6
ByLayer
 62
  256
370
   -1
100
AcDbLine
 10
252.9829
 20
45.7062
 11
254.2157
 21
46.939
  0
LINE
  5
4B1
100
AcDbEntity
  8
47
  6
ByLayer
 62
  256
370
   -1
100
AcDbLine
 10
254.2157
 20
46.939
 11
254.2157
 21
47.2472
  0
LINE
  5
4B2
100
AcDbEntity
  8
47
  6
ByLayer
 62
  256
370
   -1
100
AcDbLine
 10
254.2157
 20
47.2472
 11
253.9075
 21
47.5554
  0
LINE
  5
4B3
100
AcDbEntity
  8
47
  6
ByLayer
 62
  256
370
   -1
100
AcDbLine
 10
253.9075
 20
47.5554
 11
253.2911
 21
47.5554
  0
LINE
  5
4B4
100
AcDbEntity
  8
47
  6
ByLayer
 62
  256
370
   -1
100
AcDbLine
 10
253.2911
 20
47.5554
 11
252.9829
 21
47.2472
  0
LINE
  5
4B5
100
AcDbEntity
  8
47
  6
ByLayer
 62
  256
370
   -1
100
AcDbLine
 10
254.8245
 20
47.2472
 11
255.1327
 21
47.5554
  0
LINE
  5
4B6
100
AcDbEntity
  8
47
  6
ByLayer
 62
  256
370
   -1
100
AcDbLine
 10
255.1327
 20
47.5554
 11
255.7491
 21
47.5554
  0
LINE
  5
4B7
100
AcDbEntity
  8
47
  6
ByLayer
 62
  256
370
   -1
100
AcDbLine
 10
255.7491
 20
47.5554
 11
256.0573
 21
47.2472
  0
LINE
  5
4B8
100
AcDbEntity
  8
47
  6
ByLayer
 62
  256
370
   -1
100
AcDbLine
 10
256.0573
 20
47.2472
 11
256.0573
 21
46.939
  0
LINE
  5
4B9
100
AcDbEntity
  8
47
  6
ByLayer
 62
  256
370
   -1
100
AcDbLine
 10
256.0573
 20
46.939
 11
255.7491
 21
46.6308
  0
LINE
  5
4BA
100
AcDbEntity
  8
47
  6
ByLayer
 62
  256
370
   -1
100
AcDbLine
 10
255.7491
 20
46.6308
 11
256.0573
 21
46.3226
  0
LINE
  5
4BB
100
AcDbEntity
  8
47
  6
ByLayer
 62
  256
370
   -1
100
AcDbLine
 10
256.0573
 20
46.3226
 11
256.0573
 21
46.0144
  0
LINE
  5
4BC
100
AcDbEntity
  8
47
  6
ByLayer
 62
  256
370
   -1
100
AcDbLine
 10
256.0573
 20
46.0144
 11
255.7491
 21
45.7062
  0
LINE
  5
4BD
100
AcDbEntity
  8
47
  6
ByLayer
 62
  256
370
   -1
100
AcDbLine
 10
255.7491
 20
45.7062
 11
255.1327
 21
45.7062
  0
LINE
  5
4BE
100
AcDbEntity
  8
47
  6
ByLayer
 62
  256
370
   -1
100
AcDbLine
 10
255.1327
 20
45.7062
 11
254.8245
 21
46.0144
  0
LINE
  5
4BF
100
AcDbEntity
  8
47
  6
ByLayer
 62
  256
370
   -1
100
AcDbLine
 10
254.8245
 20
46.0144
 11
254.8245
 21
46.3226
  0
LINE
  5
4C0
100
AcDbEntity
  8
47
  6
ByLayer
 62
  256
370
   -1
100
AcDbLine
 10
254.8245
 20
46.3226
 11
255.1327
 21
46.6308
  0
LINE
  5
4C1
100
AcDbEntity
  8
47
  6
ByLayer
 62
  256
370
   -1
100
AcDbLine
 10
255.1327
 20
46.6308
 11
254.8245
 21
46.939
  0
LINE
  5
4C2
100
AcDbEntity
  8
47
  6
ByLayer
 62
  256
370
   -1
100
AcDbLine
 10
254.8245
 20
46.939
 11
254.8245
 21
47.2472
  0
LINE
  5
4C3
100
AcDbEntity
  8
47
  6
ByLayer
 62
  256
370
   -1
100
AcDbLine
 10
255.1327
 20
46.6308
 11
255.7491
 21
46.6308
  0
LINE
  5
4C4
100
AcDbEntity
  8
47
  6
ByLayer
 62
  256
370
   -1
100
AcDbLine
 10
234.5
 20
42.5
 11
234.5
 21
28.05
  0
LINE
  5
4C5
100
AcDbEntity
  8
47
  6
ByLayer
 62
  256
370
   -1
100
AcDbLine
 10
274.5
 20
43.5
 11
274.5
 21
28.05
  0
LINE
  5
4C6
100
AcDbEntity
  8
47
  6
ByLayer
 62
  256
370
   -1
100
AcDbLine
 10
234.565
 20
30
 11
274.435
 21
30
  0
LINE
  5
4C7
100
AcDbEntity
  8
47
  6
ByLayer
 62
  256
370
   -1
100
AcDbLine
 10
234.565
 20
30
 11
237.1
 21
30.3192
  0
LINE
  5
4C8
100
AcDbEntity
  8
47
  6
ByLayer
 62
  256
370
   -1
100
AcDbLine
 10
237.1
 20
30.3192
 11
237.1
 21
29.6808
  0
LINE
  5
4C9
100
AcDbEntity
  8
47
  6
ByLayer
 62
  256
370
   -1
100
AcDbLine
 10
237.1
 20
29.6808
 11
234.565
 21
30
  0
LINE
  5
4CA
100
AcDbEntity
  8
47
  6
ByLayer
 62
  256
370
   -1
100
AcDbLine
 10
234.565
 20
30
 11
237.1
 21
30.13
  0
LINE
  5
4CB
100
AcDbEntity
  8
47
  6
ByLayer
 62
  256
370
   -1
100
AcDbLine
 10
237.1
 20
29.87
 11
234.565
 21
30
  0
LINE
  5
4CC
100
AcDbEntity
  8
47
  6
ByLayer
 62
  256
370
   -1
100
AcDbLine
 10
234.565
 20
30
 11
237.1
 21
30.26
  0
LINE
  5
4CD
100
AcDbEntity
  8
47
  6
ByLayer
 62
  256
370
   -1
100
AcDbLine
 10
237.1
 20
29.74
 11
234.565
 21
30
  0
LINE
  5
4CE
100
AcDbEntity
  8
47
  6
ByLayer
 62
  256
370
   -1
100
AcDbLine
 10
274.435
 20
30
 11
271.9
 21
30.3192
  0
LINE
  5
4CF
100
AcDbEntity
  8
47
  6
ByLayer
 62
  256
370
   -1
100
AcDbLine
 10
271.9
 20
30.3192
 11
271.9
 21
29.6808
  0
LINE
  5
4D0
100
AcDbEntity
  8
47
  6
ByLayer
 62
  256
370
   -1
100
AcDbLine
 10
271.9
 20
29.6808
 11
274.435
 21
30
  0
LINE
  5
4D1
100
AcDbEntity
  8
47
  6
ByLayer
 62
  256
370
   -1
100
AcDbLine
 10
274.435
 20
30
 11
271.9
 21
30.13
  0
LINE
  5
4D2
100
AcDbEntity
  8
47
  6
ByLayer
 62
  256
370
   -1
100
AcDbLine
 10
271.9
 20
29.87
 11
274.435
 21
30
  0
LINE
  5
4D3
100
AcDbEntity
  8
47
  6
ByLayer
 62
  256
370
   -1
100
AcDbLine
 10
274.435
 20
30
 11
271.9
 21
30.26
  0
LINE
  5
4D4
100
AcDbEntity
  8
47
  6
ByLayer
 62
  256
370
   -1
100
AcDbLine
 10
271.9
 20
29.74
 11
274.435
 21
30
  0
LINE
  5
4D5
100
AcDbEntity
  8
47
  6
ByLayer
 62
  256
370
   -1
100
AcDbLine
 10
253.9075
 20
30.7062
 11
253.9075
 21
32.5554
  0
LINE
  5
4D6
100
AcDbEntity
  8
47
  6
ByLayer
 62
  256
370
   -1
100
AcDbLine
 10
253.9075
 20
32.5554
 11
252.9829
 21
31.6308
  0
LINE
  5
4D7
100
AcDbEntity
  8
47
  6
ByLayer
 62
  256
370
   -1
100
AcDbLine
 10
252.9829
 20
31.6308
 11
254.2157
 21
31.6308
  0
LINE
  5
4D8
100
AcDbEntity
  8
47
  6
ByLayer
 62
  256
370
   -1
100
AcDbLine
 10
254.8245
 20
31.0144
 11
254.8245
 21
32.2472
  0
LINE
  5
4D9
100
AcDbEntity
  8
47
  6
ByLayer
 62
  256
370
   -1
100
AcDbLine
 10
254.8245
 20
32.2472
 11
255.1327
 21
32.5554
  0
LINE
  5
4DA
100
AcDbEntity
  8
47
  6
ByLayer
 62
  256
370
   -1
100
AcDbLine
 10
255.1327
 20
32.5554
 11
255.7491
 21
32.5554
  0
LINE
  5
4DB
100
AcDbEntity
  8
47
  6
ByLayer
 62
  256
370
   -1
100
AcDbLine
 10
255.7491
 20
32.5554
 11
256.0573
 21
32.2472
  0
LINE
  5
4DC
100
AcDbEntity
  8
47
  6
ByLayer
 62
  256
370
   -1
100
AcDbLine
 10
256.0573
 20
32.2472
 11
256.0573
 21
31.0144
  0
LINE
  5
4DD
100
AcDbEntity
  8
47
  6
ByLayer
 62
  256
370
   -1
100
AcDbLine
 10
256.0573
 20
31.0144
 11
255.7491
 21
30.7062
  0
LINE
  5
4DE
100
AcDbEntity
  8
47
  6
ByLayer
 62
  256
370
   -1
100
AcDbLine
 10
255.7491
 20
30.7062
 11
255.1327
 21
30.7062
  0
LINE
  5
4DF
100
AcDbEntity
  8
47
  6
ByLayer
 62
  256
370
   -1
100
AcDbLine
 10
255.1327
 20
30.7062
 11
254.8245
 21
31.0144
  0
LINE
  5
4E0
100
AcDbEntity
  8
47
  6
ByLayer
 62
  256
370
   -1
100
AcDbLine
 10
254.8245
 20
31.0144
 11
256.0573
 21
32.2472
  0
LINE
  5
4E1
100
AcDbEntity
  8
47
  6
ByLayer
 62
  256
370
   -1
100
AcDbLine
 10
234.5
 20
43
 11
234.5
 21
32.55
  0
LINE
  5
4E2
100
AcDbEntity
  8
47
  6
ByLayer
 62
  256
370
   -1
100
AcDbLine
 10
240.5
 20
37.5
 11
240.5
 21
32.55
  0
LINE
  5
4E3
100
AcDbEntity
  8
47
  6
ByLayer
 62
  256
370
   -1
100
AcDbLine
 10
234.565
 20
34.5
 11
240.435
 21
34.5
  0
LINE
  5
4E4
100
AcDbEntity
  8
47
  6
ByLayer
 62
  256
370
   -1
100
AcDbLine
 10
234.565
 20
34.5
 11
237.1
 21
34.8192
  0
LINE
  5
4E5
100
AcDbEntity
  8
47
  6
ByLayer
 62
  256
370
   -1
100
AcDbLine
 10
237.1
 20
34.8192
 11
237.1
 21
34.1808
  0
LINE
  5
4E6
100
AcDbEntity
  8
47
  6
ByLayer
 62
  256
370
   -1
100
AcDbLine
 10
237.1
 20
34.1808
 11
234.565
 21
34.5
  0
LINE
  5
4E7
100
AcDbEntity
  8
47
  6
ByLayer
 62
  256
370
   -1
100
AcDbLine
 10
234.565
 20
34.5
 11
237.1
 21
34.63
  0
LINE
  5
4E8
100
AcDbEntity
  8
47
  6
ByLayer
 62
  256
370
   -1
100
AcDbLine
 10
237.1
 20
34.37
 11
234.565
 21
34.5
  0
LINE
  5
4E9
100
AcDbEntity
  8
47
  6
ByLayer
 62
  256
370
   -1
100
AcDbLine
 10
234.565
 20
34.5
 11
237.1
 21
34.76
  0
LINE
  5
4EA
100
AcDbEntity
  8
47
  6
ByLayer
 62
  256
370
   -1
100
AcDbLine
 10
237.1
 20
34.24
 11
234.565
 21
34.5
  0
LINE
  5
4EB
100
AcDbEntity
  8
47
  6
ByLayer
 62
  256
370
   -1
100
AcDbLine
 10
240.435
 20
34.5
 11
237.9
 21
34.8192
  0
LINE
  5
4EC
100
AcDbEntity
  8
47
  6
ByLayer
 62
  256
370
   -1
100
AcDbLine
 10
237.9
 20
34.8192
 11
237.9
 21
34.1808
  0
LINE
  5
4ED
100
AcDbEntity
  8
47
  6
ByLayer
 62
  256
370
   -1
100
AcDbLine
 10
237.9
 20
34.1808
 11
240.435
 21
34.5
  0
LINE
  5
4EE
100
AcDbEntity
  8
47
  6
ByLayer
 62
  256
370
   -1
100
AcDbLine
 10
240.435
 20
34.5
 11
237.9
 21
34.63
  0
LINE
  5
4EF
100
AcDbEntity
  8
47
  6
ByLayer
 62
  256
370
   -1
100
AcDbLine
 10
237.9
 20
34.37
 11
240.435
 21
34.5
  0
LINE
  5
4F0
100
AcDbEntity
  8
47
  6
ByLayer
 62
  256
370
   -1
100
AcDbLine
 10
240.435
 20
34.5
 11
237.9
 21
34.76
  0
LINE
  5
4F1
100
AcDbEntity
  8
47
  6
ByLayer
 62
  256
370
   -1
100
AcDbLine
 10
237.9
 20
34.24
 11
240.435
 21
34.5
  0
LINE
  5
4F2
100
AcDbEntity
  8
47
  6
ByLayer
 62
  256
370
   -1
100
AcDbLine
 10
238.0146
 20
37.0554
 11
237.3982
 21
36.7472
  0
LINE
  5
4F3
100
AcDbEntity
  8
47
  6
ByLayer
 62
  256
370
   -1
100
AcDbLine
 10
237.3982
 20
36.7472
 11
236.7818
 21
36.1308
  0
LINE
  5
4F4
100
AcDbEntity
  8
47
  6
ByLayer
 62
  256
370
   -1
100
AcDbLine
 10
236.7818
 20
36.1308
 11
236.7818
 21
35.5144
  0
LINE
  5
4F5
100
AcDbEntity
  8
47
  6
ByLayer
 62
  256
370
   -1
100
AcDbLine
 10
236.7818
 20
35.5144
 11
237.09
 21
35.2062
  0
LINE
  5
4F6
100
AcDbEntity
  8
47
  6
ByLayer
 62
  256
370
   -1
100
AcDbLine
 10
237.09
 20
35.2062
 11
237.7064
 21
35.2062
  0
LINE
  5
4F7
100
AcDbEntity
  8
47
  6
ByLayer
 62
  256
370
   -1
100
AcDbLine
 10
237.7064
 20
35.2062
 11
238.0146
 21
35.5144
  0
LINE
  5
4F8
100
AcDbEntity
  8
47
  6
ByLayer
 62
  256
370
   -1
100
AcDbLine
 10
238.0146
 20
35.5144
 11
238.0146
 21
35.8226
  0
LINE
  5
4F9
100
AcDbEntity
  8
47
  6
ByLayer
 62
  256
370
   -1
100
AcDbLine
 10
238.0146
 20
35.8226
 11
237.7064
 21
36.1308
  0
LINE
  5
4FA
100
AcDbEntity
  8
47
  6
ByLayer
 62
  256
370
   -1
100
AcDbLine
 10
237.7064
 20
36.1308
 11
236.7818
 21
36.1308
  0
LINE
  5
4FB
100
AcDbEntity
  8
47
  6
ByLayer
 62
  256
370
   -1
100
AcDbLine
 10
268.5
 20
37.5
 11
268.5
 21
33.55
  0
LINE
  5
4FC
100
AcDbEntity
  8
47
  6
ByLayer
 62
  256
370
   -1
100
AcDbLine
 10
274.5
 20
42.5
 11
274.5
 21
33.55
  0
LINE
  5
4FD
100
AcDbEntity
  8
47
  6
ByLayer
 62
  256
370
   -1
100
AcDbLine
 10
268.565
 20
35.5
 11
274.435
 21
35.5
  0
LINE
  5
4FE
100
AcDbEntity
  8
47
  6
ByLayer
 62
  256
370
   -1
100
AcDbLine
 10
268.565
 20
35.5
 11
271.1
 21
35.8192
  0
LINE
  5
4FF
100
AcDbEntity
  8
47
  6
ByLayer
 62
  256
370
   -1
100
AcDbLine
 10
271.1
 20
35.8192
 11
271.1
 21
35.1808
  0
LINE
  5
500
100
AcDbEntity
  8
47
  6
ByLayer
 62
  256
370
   -1
100
AcDbLine
 10
271.1
 20
35.1808
 11
268.565
 21
35.5
  0
LINE
  5
501
100
AcDbEntity
  8
47
  6
ByLayer
 62
  256
370
   -1
100
AcDbLine
 10
268.565
 20
35.5
 11
271.1
 21
35.63
  0
LINE
  5
502
100
AcDbEntity
  8
47
  6
ByLayer
 62
  256
370
   -1
100
AcDbLine
 10
271.1
 20
35.37
 11
268.565
 21
35.5
  0
LINE
  5
503
100
AcDbEntity
  8
47
  6
ByLayer
 62
  256
370
   -1
100
AcDbLine
 10
268.565
 20
35.5
 11
271.1
 21
35.76
  0
LINE
  5
504
100
AcDbEntity
  8
47
  6
ByLayer
 62
  256
370
   -1
100
AcDbLine
 10
271.1
 20
35.24
 11
268.565
 21
35.5
  0
LINE
  5
505
100
AcDbEntity
  8
47
  6
ByLayer
 62
  256
370
   -1
100
AcDbLine
 10
274.435
 20
35.5
 11
271.9
 21
35.8192
  0
LINE
  5
506
100
AcDbEntity
  8
47
  6
ByLayer
 62
  256
370
   -1
100
AcDbLine
 10
271.9
 20
35.8192
 11
271.9
 21
35.1808
  0
LINE
  5
507
100
AcDbEntity
  8
47
  6
ByLayer
 62
  256
370
   -1
100
AcDbLine
 10
271.9
 20
35.1808
 11
274.435
 21
35.5
  0
LINE
  5
508
100
AcDbEntity
  8
47
  6
ByLayer
 62
  256
370
   -1
100
AcDbLine
 10
274.435
 20
35.5
 11
271.9
 21
35.63
  0
LINE
  5
509
100
AcDbEntity
  8
47
  6
ByLayer
 62
  256
370
   -1
100
AcDbLine
 10
271.9
 20
35.37
 11
274.435
 21
35.5
  0
LINE
  5
50A
100
AcDbEntity
  8
47
  6
ByLayer
 62
  256
370
   -1
100
AcDbLine
 10
274.435
 20
35.5
 11
271.9
 21
35.76
  0
LINE
  5
50B
100
AcDbEntity
  8
47
  6
ByLayer
 62
  256
370
   -1
100
AcDbLine
 10
271.9
 20
35.24
 11
274.435
 21
35.5
  0
LINE
  5
50C
100
AcDbEntity
  8
47
  6
ByLayer
 62
  256
370
   -1
100
AcDbLine
 10
272.0146
 20
38.0554
 11
271.3982
 21
37.7472
  0
LINE
  5
50D
100
AcDbEntity
  8
47
  6
ByLayer
 62
  256
370
   -1
100
AcDbLine
 10
271.3982
 20
37.7472
 11
270.7818
 21
37.1308
  0
LINE
  5
50E
100
AcDbEntity
  8
47
  6
ByLayer
 62
  256
370
   -1
100
AcDbLine
 10
270.7818
 20
37.1308
 11
270.7818
 21
36.5144
  0
LINE
  5
50F
100
AcDbEntity
  8
47
  6
ByLayer
 62
  256
370
   -1
100
AcDbLine
 10
270.7818
 20
36.5144
 11
271.09
 21
36.2062
  0
LINE
  5
510
100
AcDbEntity
  8
47
  6
ByLayer
 62
  256
370
   -1
100
AcDbLine
 10
271.09
 20
36.2062
 11
271.7064
 21
36.2062
  0
LINE
  5
511
100
AcDbEntity
  8
47
  6
ByLayer
 62
  256
370
   -1
100
AcDbLine
 10
271.7064
 20
36.2062
 11
272.0146
 21
36.5144
  0
LINE
  5
512
100
AcDbEntity
  8
47
  6
ByLayer
 62
  256
370
   -1
100
AcDbLine
 10
272.0146
 20
36.5144
 11
272.0146
 21
36.8226
  0
LINE
  5
513
100
AcDbEntity
  8
47
  6
ByLayer
 62
  256
370
   -1
100
AcDbLine
 10
272.0146
 20
36.8226
 11
271.7064
 21
37.1308
  0
LINE
  5
514
100
AcDbEntity
  8
47
  6
ByLayer
 62
  256
370
   -1
100
AcDbLine
 10
271.7064
 20
37.1308
 11
270.7818
 21
37.1308
  0
LINE
  5
515
100
AcDbEntity
  8
47
  6
ByLayer
 62
  256
370
   -1
100
AcDbLine
 10
277.5
 20
40
 11
228.05
 21
40
  0
LINE
  5
516
100
AcDbEntity
  8
47
  6
ByLayer
 62
  256
370
   -1
100
AcDbLine
 10
231
 20
1.5
 11
228.05
 21
1.5
  0
LINE
  5
517
100
AcDbEntity
  8
47
  6
ByLayer
 62
  256
370
   -1
100
AcDbLine
 10
230
 20
39.935
 11
230
 21
1.565
  0
LINE
  5
518
100
AcDbEntity
  8
47
  6
ByLayer
 62
  256
370
   -1
100
AcDbLine
 10
230
 20
39.935
 11
229.6808
 21
37.4
  0
LINE
  5
519
100
AcDbEntity
  8
47
  6
ByLayer
 62
  256
370
   -1
100
AcDbLine
 10
229.6808
 20
37.4
 11
230.3192
 21
37.4
  0
LINE
  5
51A
100
AcDbEntity
  8
47
  6
ByLayer
 62
  256
370
   -1
100
AcDbLine
 10
230.3192
 20
37.4
 11
230
 21
39.935
  0
LINE
  5
51B
100
AcDbEntity
  8
47
  6
ByLayer
 62
  256
370
   -1
100
AcDbLine
 10
230
 20
39.935
 11
229.87
 21
37.4
  0
LINE
  5
51C
100
AcDbEntity
  8
47
  6
ByLayer
 62
  256
370
   -1
100
AcDbLine
 10
230.13
 20
37.4
 11
230
 21
39.935
  0
LINE
  5
51D
100
AcDbEntity
  8
47
  6
ByLayer
 62
  256
370
   -1
100
AcDbLine
 10
230
 20
39.935
 11
229.74
 21
37.4
  0
LINE
  5
51E
100
AcDbEntity
  8
47
  6
ByLayer
 62
  256
370
   -1
100
AcDbLine
 10
230.26
 20
37.4
 11
230
 21
39.935
  0
LINE
  5
51F
100
AcDbEntity
  8
47
  6
ByLayer
 62
  256
370
   -1
100
AcDbLine
 10
230
 20
1.565
 11
229.6808
 21
4.1
  0
LINE
  5
520
100
AcDbEntity
  8
47
  6
ByLayer
 62
  256
370
   -1
100
AcDbLine
 10
229.6808
 20
4.1
 11
230.3192
 21
4.1
  0
LINE
  5
521
100
AcDbEntity
  8
47
  6
ByLayer
 62
  256
370
   -1
100
AcDbLine
 10
230.3192
 20
4.1
 11
230
 21
1.565
  0
LINE
  5
522
100
AcDbEntity
  8
47
  6
ByLayer
 62
  256
370
   -1
100
AcDbLine
 10
230
 20
1.565
 11
229.87
 21
4.1
  0
LINE
  5
523
100
AcDbEntity
  8
47
  6
ByLayer
 62
  256
370
   -1
100
AcDbLine
 10
230.13
 20
4.1
 11
230
 21
1.565
  0
LINE
  5
524
100
AcDbEntity
  8
47
  6
ByLayer
 62
  256
370
   -1
100
AcDbLine
 10
230
 20
1.565
 11
229.74
 21
4.1
  0
LINE
  5
525
100
AcDbEntity
  8
47
  6
ByLayer
 62
  256
370
   -1
100
AcDbLine
 10
230.26
 20
4.1
 11
230
 21
1.565
  0
LINE
  5
526
100
AcDbEntity
  8
47
  6
ByLayer
 62
  256
370
   -1
100
AcDbLine
 10
227.7528
 20
18.0369
 11
227.4446
 21
18.3451
  0
LINE
  5
527
100
AcDbEntity
  8
47
  6
ByLayer
 62
  256
370
   -1
100
AcDbLine
 10
227.4446
 20
18.3451
 11
227.4446
 21
18.9615
  0
LINE
  5
528
100
AcDbEntity
  8
47
  6
ByLayer
 62
  256
370
   -1
100
AcDbLine
 10
227.4446
 20
18.9615
 11
227.7528
 21
19.2697
  0
LINE
  5
529
100
AcDbEntity
  8
47
  6
ByLayer
 62
  256
370
   -1
100
AcDbLine
 10
227.7528
 20
19.2697
 11
228.061
 21
19.2697
  0
LINE
  5
52A
100
AcDbEntity
  8
47
  6
ByLayer
 62
  256
370
   -1
100
AcDbLine
 10
228.061
 20
19.2697
 11
228.3692
 21
18.9615
  0
LINE
  5
52B
100
AcDbEntity
  8
47
  6
ByLayer
 62
  256
370
   -1
100
AcDbLine
 10
228.3692
 20
18.9615
 11
228.3692
 21
18.6533
  0
LINE
  5
52C
100
AcDbEntity
  8
47
  6
ByLayer
 62
  256
370
   -1
100
AcDbLine
 10
228.3692
 20
18.9615
 11
228.6774
 21
19.2697
  0
LINE
  5
52D
100
AcDbEntity
  8
47
  6
ByLayer
 62
  256
370
   -1
100
AcDbLine
 10
228.6774
 20
19.2697
 11
228.9856
 21
19.2697
  0
LINE
  5
52E
100
AcDbEntity
  8
47
  6
ByLayer
 62
  256
370
   -1
100
AcDbLine
 10
228.9856
 20
19.2697
 11
229.2938
 21
18.9615
  0
LINE
  5
52F
100
AcDbEntity
  8
47
  6
ByLayer
 62
  256
370
   -1
100
AcDbLine
 10
229.2938
 20
18.9615
 11
229.2938
 21
18.3451
  0
LINE
  5
530
100
AcDbEntity
  8
47
  6
ByLayer
 62
  256
370
   -1
100
AcDbLine
 10
229.2938
 20
18.3451
 11
228.9856
 21
18.0369
  0
LINE
  5
531
100
AcDbEntity
  8
47
  6
ByLayer
 62
  256
370
   -1
100
AcDbLine
 10
227.7528
 20
19.8784
 11
227.4446
 21
20.1866
  0
LINE
  5
532
100
AcDbEntity
  8
47
  6
ByLayer
 62
  256
370
   -1
100
AcDbLine
 10
227.4446
 20
20.1866
 11
227.4446
 21
20.803
  0
LINE
  5
533
100
AcDbEntity
  8
47
  6
ByLayer
 62
  256
370
   -1
100
AcDbLine
 10
227.4446
 20
20.803
 11
227.7528
 21
21.1112
  0
LINE
  5
534
100
AcDbEntity
  8
47
  6
ByLayer
 62
  256
370
   -1
100
AcDbLine
 10
227.7528
 20
21.1112
 11
228.061
 21
21.1112
  0
LINE
  5
535
100
AcDbEntity
  8
47
  6
ByLayer
 62
  256
370
   -1
100
AcDbLine
 10
228.061
 20
21.1112
 11
228.3692
 21
20.803
  0
LINE
  5
536
100
AcDbEntity
  8
47
  6
ByLayer
 62
  256
370
   -1
100
AcDbLine
 10
228.3692
 20
20.803
 11
228.6774
 21
21.1112
  0
LINE
  5
537
100
AcDbEntity
  8
47
  6
ByLayer
 62
  256
370
   -1
100
AcDbLine
 10
228.6774
 20
21.1112
 11
228.9856
 21
21.1112
  0
LINE
  5
538
100
AcDbEntity
  8
47
  6
ByLayer
 62
  256
370
   -1
100
AcDbLine
 10
228.9856
 20
21.1112
 11
229.2938
 21
20.803
  0
LINE
  5
539
100
AcDbEntity
  8
47
  6
ByLayer
 62
  256
370
   -1
100
AcDbLine
 10
229.2938
 20
20.803
 11
229.2938
 21
20.1866
  0
LINE
  5
53A
100
AcDbEntity
  8
47
  6
ByLayer
 62
  256
370
   -1
100
AcDbLine
 10
229.2938
 20
20.1866
 11
228.9856
 21
19.8784
  0
LINE
  5
53B
100
AcDbEntity
  8
47
  6
ByLayer
 62
  256
370
   -1
100
AcDbLine
 10
228.9856
 20
19.8784
 11
228.6774
 21
19.8784
  0
LINE
  5
53C
100
AcDbEntity
  8
47
  6
ByLayer
 62
  256
370
   -1
100
AcDbLine
 10
228.6774
 20
19.8784
 11
228.3692
 21
20.1866
  0
LINE
  5
53D
100
AcDbEntity
  8
47
  6
ByLayer
 62
  256
370
   -1
100
AcDbLine
 10
228.3692
 20
20.1866
 11
228.061
 21
19.8784
  0
LINE
  5
53E
100
AcDbEntity
  8
47
  6
ByLayer
 62
  256
370
   -1
100
AcDbLine
 10
228.061
 20
19.8784
 11
227.7528
 21
19.8784
  0
LINE
  5
53F
100
AcDbEntity
  8
47
  6
ByLayer
 62
  256
370
   -1
100
AcDbLine
 10
228.3692
 20
20.1866
 11
228.3692
 21
20.803
  0
LINE
  5
540
100
AcDbEntity
  8
47
  6
ByLayer
 62
  256
370
   -1
100
AcDbLine
 10
229.2938
 20
21.72
 11
228.9856
 21
21.72
  0
LINE
  5
541
100
AcDbEntity
  8
47
  6
ByLayer
 62
  256
370
   -1
100
AcDbLine
 10
228.9856
 20
21.72
 11
228.9856
 21
22.0282
  0
LINE
  5
542
100
AcDbEntity
  8
47
  6
ByLayer
 62
  256
370
   -1
100
AcDbLine
 10
228.9856
 20
22.0282
 11
229.2938
 21
22.0282
  0
LINE
  5
543
100
AcDbEntity
  8
47
  6
ByLayer
 62
  256
370
   -1
100
AcDbLine
 10
229.2938
 20
22.0282
 11
229.2938
 21
21.72
  0
LINE
  5
544
100
AcDbEntity
  8
47
  6
ByLayer
 62
  256
370
   -1
100
AcDbLine
 10
227.4446
 20
23.8736
 11
227.4446
 21
22.6408
  0
LINE
  5
545
100
AcDbEntity
  8
47
  6
ByLayer
 62
  256
370
   -1
100
AcDbLine
 10
227.4446
 20
22.6408
 11
228.3692
 21
22.6408
  0
LINE
  5
546
100
AcDbEntity
  8
47
  6
ByLayer
 62
  256
370
   -1
100
AcDbLine
 10
228.3692
 20
22.6408
 11
228.061
 21
23.2572
  0
LINE
  5
547
100
AcDbEntity
  8
47
  6
ByLayer
 62
  256
370
   -1
100
AcDbLine
 10
228.061
 20
23.2572
 11
228.061
 21
23.5654
  0
LINE
  5
548
100
AcDbEntity
  8
47
  6
ByLayer
 62
  256
370
   -1
100
AcDbLine
 10
228.061
 20
23.5654
 11
228.3692
 21
23.8736
  0
LINE
  5
549
100
AcDbEntity
  8
47
  6
ByLayer
 62
  256
370
   -1
100
AcDbLine
 10
228.3692
 20
23.8736
 11
228.9856
 21
23.8736
  0
LINE
  5
54A
100
AcDbEntity
  8
47
  6
ByLayer
 62
  256
370
   -1
100
AcDbLine
 10
228.9856
 20
23.8736
 11
229.2938
 21
23.5654
  0
LINE
  5
54B
100
AcDbEntity
  8
47
  6
ByLayer
 62
  256
370
   -1
100
AcDbLine
 10
229.2938
 20
23.5654
 11
229.2938
 21
22.949
  0
LINE
  5
54C
100
AcDbEntity
  8
47
  6
ByLayer
 62
  256
370
   -1
100
AcDbLine
 10
229.2938
 20
22.949
 11
228.9856
 21
22.6408
  0
CIRCLE
  5
54D
100
AcDbEntity
  8
20
  6
ByLayer
 62
  256
370
   -1
100
AcDbCircle
 10
124.5
 20
72.5
 40
1.55
  0
CIRCLE
  5
54E
100
AcDbEntity
  8
20
  6
ByLayer
 62
  256
370
   -1
100
AcDbCircle
 10
124.5
 20
9.5
 40
1.55
  0
CIRCLE
  5
54F
100
AcDbEntity
  8
20
  6
ByLayer
 62
  256
370
   -1
100
AcDbCircle
 10
216.5
 20
72.5
 40
1.55
  0
CIRCLE
  5
550
100
AcDbEntity
  8
20
  6
ByLayer
 62
  256
370
   -1
100
AcDbCircle
 10
216.5
 20
9.5
 40
1.55
  0
CIRCLE
  5
551
100
AcDbEntity
  8
20
  6
ByLayer
 62
  256
370
   -1
100
AcDbCircle
 10
175.5
 20
67.5
 40
1.55
  0
CIRCLE
  5
552
100
AcDbEntity
  8
20
  6
ByLayer
 62
  256
370
   -1
100
AcDbCircle
 10
92.5
 20
65
 40
2.25
  0
CIRCLE
  5
553
100
AcDbEntity
  8
20
  6
ByLayer
 62
  256
370
   -1
100
AcDbCircle
 10
92.5
 20
15
 40
2.25
  0
CIRCLE
  5
554
100
AcDbEntity
  8
20
  6
ByLayer
 62
  256
370
   -1
100
AcDbCircle
 10
42.5
 20
15
 40
2.25
  0
CIRCLE
  5
555
100
AcDbEntity
  8
20
  6
ByLayer
 62
  256
370
   -1
100
AcDbCircle
 10
42.5
 20
65
 40
2.25
  0
CIRCLE
  5
556
100
AcDbEntity
  8
20
  6
ByLayer
 62
  256
370
   -1
100
AcDbCircle
 10
234.5
 20
40
 40
1.5
  0
CIRCLE
  5
557
100
AcDbEntity
  8
20
  6
ByLayer
 62
  256
370
   -1
100
AcDbCircle
 10
274.5
 20
40
 40
1.5
  0
ENDSEC
  0
SECTION
  2
OBJECTS
  0
DICTIONARY
  5
C
330
0
100
AcDbDictionary
281
    1
  3
ACAD_GROUP
350
D
  0
DICTIONARY
  5
D
330
C
100
AcDbDictionary
281
    1
  0
ENDSEC
  0
EOF
