  0
SECTION
  2
HEADER
  9
$ACADVER
  1
AC1009
  9
$FILLMODE
 70
0
  9
$EXTMIN
 10
-0.0500
 20
-1.0500
 30
0.0000
  9
$EXTMAX
 10
780.0500
 20
385.2032
 30
0.0000
  0
ENDSEC
  0
SECTION
  2
TABLES
  0
TABLE
  2
LTYPE
 70
1
  0
LTYPE
  2
CONTINUOUS
 70
64
  3
Solid line
 72
65
 73
0
 40
0
  0
ENDTAB
  0
TABLE
  2
LAYER
 70
255
  0
LAYER
  2
20
 70
64
 62
7
  6
CONTINUOUS
  0
ENDTAB
  0
ENDSEC
  0
SECTION
  2
BLOCKS
  0
BLOCK
  8
0
  2
RECT
 70
64
 10
0.0000
 20
0.0000
 30
0.0000
  3
RECT
  0
SOLID
  8
0
 10
-0.5000
 20
-0.5000
 30
0.0000
 11
0.5000
 21
-0.5000
 31
0.0000
 12
-0.5000
 22
0.5000
 32
0.0000
 13
0.5000
 23
0.5000
 33
0.0000
  0
ENDBLK
  8
0
  0
BLOCK
  8
0
  2
PIE
 70
64
 10
0.0000
 20
0.0000
 30
0.0000
  3
PIE
  0
CIRCLE
  8
0
 10
0.0000
 20
0.0000
 30
0.0000
 40
0.5000
  0
ENDBLK
  8
0
  0
BLOCK
  8
0
  2
OCTAGONP
 70
64
 10
0.0000
 20
0.0000
 30
0.0000
  3
OCTAGONP
  0
POLYLINE
  8
0
 66
1
 10
0.0000
 20
0.0000
 30
0.0000
 40
0.0000
 41
0.0000
 70
1
  0
VERTEX
  8
0
 10
-0.5000
 20
-0.2071
 30
0.0000
  0
VERTEX
  8
0
 10
-0.5000
 20
0.2071
 30
0.0000
  0
VERTEX
  8
0
 10
-0.2071
 20
0.5000
 30
0.0000
  0
VERTEX
  8
0
 10
0.2071
 20
0.5000
 30
0.0000
  0
VERTEX
  8
0
 10
0.5000
 20
0.2071
 30
0.0000
  0
VERTEX
  8
0
 10
0.5000
 20
-0.2071
 30
0.0000
  0
VERTEX
  8
0
 10
0.2071
 20
-0.5000
 30
0.0000
  0
VERTEX
  8
0
 10
-0.2071
 20
-0.5000
 30
0.0000
  0
SEQEND
  8
0
  0
ENDBLK
  8
0
  0
BLOCK
  8
0
  2
SQUAREP
 70
64
 10
0.0000
 20
0.0000
 30
0.0000
  3
SQUAREP
  0
SOLID
  8
0
 10
-0.5000
 20
-0.5000
 30
0.0000
 11
0.5000
 21
-0.5000
 31
0.0000
 12
-0.5000
 22
0.5000
 32
0.0000
 13
0.5000
 23
0.5000
 33
0.0000
  0
ENDBLK
  8
0
  0
BLOCK
  8
0
  2
ROUNDP
 70
64
 10
0.0000
 20
0.0000
 30
0.0000
  3
ROUNDP
  0
CIRCLE
  8
0
 10
0.0000
 20
0.0000
 30
0.0000
 40
0.5000
  0
ENDBLK
  8
0
  0
BLOCK
  8
0
  2
ANNULUSP
 70
64
 10
0.0000
 20
0.0000
 30
0.0000
  3
ANNULUSP
  0
CIRCLE
  8
0
 10
0.0000
 20
0.0000
 30
0.0000
 40
0.5000
  0
ENDBLK
  8
0
  0
BLOCK
  8
0
  2
THERMALP
 70
64
 10
0.0000
 20
0.0000
 30
0.0000
  3
THERMALP
  0
LINE
  8
0
 10
-0.2379
 20
0.4500
 30
0.0000
 11
0.2379
 21
0.4500
 31
0.0000
  0
LINE
  8
0
 10
0.4500
 20
0.2379
 30
0.0000
 11
0.4500
 21
-0.2379
 31
0.0000
  0
LINE
  8
0
 10
0.2379
 20
-0.4500
 30
0.0000
 11
-0.2379
 21
-0.4500
 31
0.0000
  0
LINE
  8
0
 10
-0.4500
 20
-0.2379
 30
0.0000
 11
-0.4500
 21
0.2379
 31
0.0000
  0
ENDBLK
  8
0
  0
BLOCK
  8
0
  2
OCTAGONV
 70
64
 10
0.0000
 20
0.0000
 30
0.0000
  3
OCTAGONV
  0
POLYLINE
  8
0
 66
1
 10
0.0000
 20
0.0000
 30
0.0000
 40
0.0000
 41
0.0000
 70
1
  0
VERTEX
  8
0
 10
-0.5000
 20
-0.2071
 30
0.0000
  0
VERTEX
  8
0
 10
-0.5000
 20
0.2071
 30
0.0000
  0
VERTEX
  8
0
 10
-0.2071
 20
0.5000
 30
0.0000
  0
VERTEX
  8
0
 10
0.2071
 20
0.5000
 30
0.0000
  0
VERTEX
  8
0
 10
0.5000
 20
0.2071
 30
0.0000
  0
VERTEX
  8
0
 10
0.5000
 20
-0.2071
 30
0.0000
  0
VERTEX
  8
0
 10
0.2071
 20
-0.5000
 30
0.0000
  0
VERTEX
  8
0
 10
-0.2071
 20
-0.5000
 30
0.0000
  0
SEQEND
  8
0
  0
ENDBLK
  8
0
  0
BLOCK
  8
0
  2
SQUAREV
 70
64
 10
0.0000
 20
0.0000
 30
0.0000
  3
SQUAREV
  0
SOLID
  8
0
 10
-0.5000
 20
-0.5000
 30
0.0000
 11
0.5000
 21
-0.5000
 31
0.0000
 12
-0.5000
 22
0.5000
 32
0.0000
 13
0.5000
 23
0.5000
 33
0.0000
  0
ENDBLK
  8
0
  0
BLOCK
  8
0
  2
ROUNDV
 70
64
 10
0.0000
 20
0.0000
 30
0.0000
  3
ROUNDV
  0
CIRCLE
  8
0
 10
0.0000
 20
0.0000
 30
0.0000
 40
0.5000
  0
ENDBLK
  8
0
  0
BLOCK
  8
0
  2
ANNULUSV
 70
64
 10
0.0000
 20
0.0000
 30
0.0000
  3
ANNULUSV
  0
CIRCLE
  8
0
 10
0.0000
 20
0.0000
 30
0.0000
 40
0.5000
  0
ENDBLK
  8
0
  0
BLOCK
  8
0
  2
THERMALV
 70
64
 10
0.0000
 20
0.0000
 30
0.0000
  3
THERMALV
  0
LINE
  8
0
 10
-0.2379
 20
0.4500
 30
0.0000
 11
0.2379
 21
0.4500
 31
0.0000
  0
LINE
  8
0
 10
0.4500
 20
0.2379
 30
0.0000
 11
0.4500
 21
-0.2379
 31
0.0000
  0
LINE
  8
0
 10
0.2379
 20
-0.4500
 30
0.0000
 11
-0.2379
 21
-0.4500
 31
0.0000
  0
LINE
  8
0
 10
-0.4500
 20
-0.2379
 30
0.0000
 11
-0.4500
 21
0.2379
 31
0.0000
  0
ENDBLK
  8
0
  0
ENDSEC
  0
SECTION
  2
ENTITIES
  0
LINE
  8
20
 10
80.0000
 20
87.0000
 30
0.0000
 11
80.0000
 21
79.0000
 31
0.0000
  0
LINE
  8
20
 10
80.0000
 20
374.0000
 30
0.0000
 11
323.0000
 21
374.0000
 31
0.0000
  0
LINE
  8
20
 10
80.0000
 20
79.0000
 30
0.0000
 11
323.0000
 21
79.0000
 31
0.0000
  0
LINE
  8
20
 10
0.0000
 20
87.0000
 30
0.0000
 11
0.0000
 21
374.0000
 31
0.0000
  0
LINE
  8
20
 10
0.0000
 20
87.0000
 30
0.0000
 11
80.0000
 21
87.0000
 31
0.0000
  0
LINE
  8
20
 10
80.0000
 20
374.0000
 30
0.0000
 11
80.0000
 21
87.0000
 31
0.0000
  0
LINE
  8
20
 10
80.0000
 20
374.0000
 30
0.0000
 11
0.0000
 21
374.0000
 31
0.0000
  0
LINE
  8
20
 10
566.0000
 20
374.0000
 30
0.0000
 11
566.0000
 21
87.0000
 31
0.0000
  0
LINE
  8
20
 10
566.0000
 20
374.0000
 30
0.0000
 11
646.0000
 21
374.0000
 31
0.0000
  0
LINE
  8
20
 10
646.0000
 20
87.0000
 30
0.0000
 11
566.0000
 21
87.0000
 31
0.0000
  0
LINE
  8
20
 10
113.5000
 20
176.0000
 30
0.0000
 11
137.5000
 21
176.0000
 31
0.0000
  0
ARC
  8
20
 10
137.5000
 20
173.0000
 30
0.0000
 40
3.0000
 50
0.0000
 51
90.0000
  0
ARC
  8
20
 10
137.5000
 20
173.0000
 30
0.0000
 40
3.0000
 50
270.0000
 51
0.0000
  0
LINE
  8
20
 10
137.5000
 20
170.0000
 30
0.0000
 11
113.5000
 21
170.0000
 31
0.0000
  0
ARC
  8
20
 10
113.5000
 20
173.0000
 30
0.0000
 40
3.0000
 50
180.0000
 51
270.0000
  0
ARC
  8
20
 10
113.5000
 20
173.0000
 30
0.0000
 40
3.0000
 50
90.0000
 51
180.0000
  0
LINE
  8
20
 10
113.5000
 20
164.0000
 30
0.0000
 11
137.5000
 21
164.0000
 31
0.0000
  0
ARC
  8
20
 10
137.5000
 20
161.0000
 30
0.0000
 40
3.0000
 50
0.0000
 51
90.0000
  0
ARC
  8
20
 10
137.5000
 20
161.0000
 30
0.0000
 40
3.0000
 50
270.0000
 51
0.0000
  0
LINE
  8
20
 10
137.5000
 20
158.0000
 30
0.0000
 11
113.5000
 21
158.0000
 31
0.0000
  0
ARC
  8
20
 10
113.5000
 20
161.0000
 30
0.0000
 40
3.0000
 50
180.0000
 51
270.0000
  0
ARC
  8
20
 10
113.5000
 20
161.0000
 30
0.0000
 40
3.0000
 50
90.0000
 51
180.0000
  0
LINE
  8
20
 10
113.5000
 20
152.0000
 30
0.0000
 11
137.5000
 21
152.0000
 31
0.0000
  0
ARC
  8
20
 10
137.5000
 20
149.0000
 30
0.0000
 40
3.0000
 50
0.0000
 51
90.0000
  0
ARC
  8
20
 10
137.5000
 20
149.0000
 30
0.0000
 40
3.0000
 50
270.0000
 51
0.0000
  0
LINE
  8
20
 10
137.5000
 20
146.0000
 30
0.0000
 11
113.5000
 21
146.0000
 31
0.0000
  0
ARC
  8
20
 10
113.5000
 20
149.0000
 30
0.0000
 40
3.0000
 50
180.0000
 51
270.0000
  0
ARC
  8
20
 10
113.5000
 20
149.0000
 30
0.0000
 40
3.0000
 50
90.0000
 51
180.0000
  0
LINE
  8
20
 10
113.5000
 20
140.0000
 30
0.0000
 11
137.5000
 21
140.0000
 31
0.0000
  0
ARC
  8
20
 10
137.5000
 20
137.0000
 30
0.0000
 40
3.0000
 50
0.0000
 51
90.0000
  0
ARC
  8
20
 10
137.5000
 20
137.0000
 30
0.0000
 40
3.0000
 50
270.0000
 51
0.0000
  0
LINE
  8
20
 10
137.5000
 20
134.0000
 30
0.0000
 11
113.5000
 21
134.0000
 31
0.0000
  0
ARC
  8
20
 10
113.5000
 20
137.0000
 30
0.0000
 40
3.0000
 50
180.0000
 51
270.0000
  0
ARC
  8
20
 10
113.5000
 20
137.0000
 30
0.0000
 40
3.0000
 50
90.0000
 51
180.0000
  0
LINE
  8
20
 10
113.5000
 20
128.0000
 30
0.0000
 11
137.5000
 21
128.0000
 31
0.0000
  0
ARC
  8
20
 10
137.5000
 20
125.0000
 30
0.0000
 40
3.0000
 50
0.0000
 51
90.0000
  0
ARC
  8
20
 10
137.5000
 20
125.0000
 30
0.0000
 40
3.0000
 50
270.0000
 51
0.0000
  0
LINE
  8
20
 10
137.5000
 20
122.0000
 30
0.0000
 11
113.5000
 21
122.0000
 31
0.0000
  0
ARC
  8
20
 10
113.5000
 20
125.0000
 30
0.0000
 40
3.0000
 50
180.0000
 51
270.0000
  0
ARC
  8
20
 10
113.5000
 20
125.0000
 30
0.0000
 40
3.0000
 50
90.0000
 51
180.0000
  0
LINE
  8
20
 10
117.5000
 20
350.5000
 30
0.0000
 11
138.5000
 21
350.5000
 31
0.0000
  0
ARC
  8
20
 10
138.5000
 20
347.5000
 30
0.0000
 40
3.0000
 50
0.0000
 51
90.0000
  0
ARC
  8
20
 10
138.5000
 20
347.5000
 30
0.0000
 40
3.0000
 50
270.0000
 51
0.0000
  0
LINE
  8
20
 10
138.5000
 20
344.5000
 30
0.0000
 11
117.5000
 21
344.5000
 31
0.0000
  0
ARC
  8
20
 10
117.5000
 20
347.5000
 30
0.0000
 40
3.0000
 50
180.0000
 51
270.0000
  0
ARC
  8
20
 10
117.5000
 20
347.5000
 30
0.0000
 40
3.0000
 50
90.0000
 51
180.0000
  0
LINE
  8
20
 10
105.0000
 20
338.5000
 30
0.0000
 11
125.5000
 21
338.5000
 31
0.0000
  0
ARC
  8
20
 10
125.5000
 20
335.5000
 30
0.0000
 40
3.0000
 50
0.0000
 51
90.0000
  0
ARC
  8
20
 10
125.5000
 20
335.5000
 30
0.0000
 40
3.0000
 50
270.0000
 51
0.0000
  0
LINE
  8
20
 10
125.5000
 20
332.5000
 30
0.0000
 11
105.0000
 21
332.5000
 31
0.0000
  0
ARC
  8
20
 10
105.0000
 20
335.5000
 30
0.0000
 40
3.0000
 50
180.0000
 51
270.0000
  0
ARC
  8
20
 10
105.0000
 20
335.5000
 30
0.0000
 40
3.0000
 50
90.0000
 51
180.0000
  0
LINE
  8
20
 10
105.0000
 20
326.5000
 30
0.0000
 11
125.5000
 21
326.5000
 31
0.0000
  0
ARC
  8
20
 10
125.5000
 20
323.5000
 30
0.0000
 40
3.0000
 50
0.0000
 51
90.0000
  0
ARC
  8
20
 10
125.5000
 20
323.5000
 30
0.0000
 40
3.0000
 50
270.0000
 51
0.0000
  0
LINE
  8
20
 10
125.5000
 20
320.5000
 30
0.0000
 11
105.0000
 21
320.5000
 31
0.0000
  0
ARC
  8
20
 10
105.0000
 20
323.5000
 30
0.0000
 40
3.0000
 50
180.0000
 51
270.0000
  0
ARC
  8
20
 10
105.0000
 20
323.5000
 30
0.0000
 40
3.0000
 50
90.0000
 51
180.0000
  0
LINE
  8
20
 10
105.0000
 20
314.5000
 30
0.0000
 11
125.5000
 21
314.5000
 31
0.0000
  0
ARC
  8
20
 10
125.5000
 20
311.5000
 30
0.0000
 40
3.0000
 50
0.0000
 51
90.0000
  0
ARC
  8
20
 10
125.5000
 20
311.5000
 30
0.0000
 40
3.0000
 50
270.0000
 51
0.0000
  0
LINE
  8
20
 10
125.5000
 20
308.5000
 30
0.0000
 11
105.0000
 21
308.5000
 31
0.0000
  0
ARC
  8
20
 10
105.0000
 20
311.5000
 30
0.0000
 40
3.0000
 50
180.0000
 51
270.0000
  0
ARC
  8
20
 10
105.0000
 20
311.5000
 30
0.0000
 40
3.0000
 50
90.0000
 51
180.0000
  0
LINE
  8
20
 10
105.0000
 20
302.5000
 30
0.0000
 11
125.5000
 21
302.5000
 31
0.0000
  0
ARC
  8
20
 10
125.5000
 20
299.5000
 30
0.0000
 40
3.0000
 50
0.0000
 51
90.0000
  0
ARC
  8
20
 10
125.5000
 20
299.5000
 30
0.0000
 40
3.0000
 50
270.0000
 51
0.0000
  0
LINE
  8
20
 10
125.5000
 20
296.5000
 30
0.0000
 11
105.0000
 21
296.5000
 31
0.0000
  0
ARC
  8
20
 10
105.0000
 20
299.5000
 30
0.0000
 40
3.0000
 50
180.0000
 51
270.0000
  0
ARC
  8
20
 10
105.0000
 20
299.5000
 30
0.0000
 40
3.0000
 50
90.0000
 51
180.0000
  0
LINE
  8
20
 10
105.0000
 20
290.5000
 30
0.0000
 11
125.5000
 21
290.5000
 31
0.0000
  0
ARC
  8
20
 10
125.5000
 20
287.5000
 30
0.0000
 40
3.0000
 50
0.0000
 51
90.0000
  0
ARC
  8
20
 10
125.5000
 20
287.5000
 30
0.0000
 40
3.0000
 50
270.0000
 51
0.0000
  0
LINE
  8
20
 10
125.5000
 20
284.5000
 30
0.0000
 11
105.0000
 21
284.5000
 31
0.0000
  0
ARC
  8
20
 10
105.0000
 20
287.5000
 30
0.0000
 40
3.0000
 50
180.0000
 51
270.0000
  0
ARC
  8
20
 10
105.0000
 20
287.5000
 30
0.0000
 40
3.0000
 50
90.0000
 51
180.0000
  0
LINE
  8
20
 10
105.0000
 20
278.5000
 30
0.0000
 11
125.5000
 21
278.5000
 31
0.0000
  0
ARC
  8
20
 10
125.5000
 20
275.5000
 30
0.0000
 40
3.0000
 50
0.0000
 51
90.0000
  0
ARC
  8
20
 10
125.5000
 20
275.5000
 30
0.0000
 40
3.0000
 50
270.0000
 51
0.0000
  0
LINE
  8
20
 10
125.5000
 20
272.5000
 30
0.0000
 11
105.0000
 21
272.5000
 31
0.0000
  0
ARC
  8
20
 10
105.0000
 20
275.5000
 30
0.0000
 40
3.0000
 50
180.0000
 51
270.0000
  0
ARC
  8
20
 10
105.0000
 20
275.5000
 30
0.0000
 40
3.0000
 50
90.0000
 51
180.0000
  0
LINE
  8
20
 10
105.0000
 20
266.5000
 30
0.0000
 11
125.5000
 21
266.5000
 31
0.0000
  0
ARC
  8
20
 10
125.5000
 20
263.5000
 30
0.0000
 40
3.0000
 50
0.0000
 51
90.0000
  0
ARC
  8
20
 10
125.5000
 20
263.5000
 30
0.0000
 40
3.0000
 50
270.0000
 51
0.0000
  0
LINE
  8
20
 10
125.5000
 20
260.5000
 30
0.0000
 11
105.0000
 21
260.5000
 31
0.0000
  0
ARC
  8
20
 10
105.0000
 20
263.5000
 30
0.0000
 40
3.0000
 50
180.0000
 51
270.0000
  0
ARC
  8
20
 10
105.0000
 20
263.5000
 30
0.0000
 40
3.0000
 50
90.0000
 51
180.0000
  0
LINE
  8
20
 10
105.0000
 20
254.5000
 30
0.0000
 11
125.5000
 21
254.5000
 31
0.0000
  0
ARC
  8
20
 10
125.5000
 20
251.5000
 30
0.0000
 40
3.0000
 50
0.0000
 51
90.0000
  0
ARC
  8
20
 10
125.5000
 20
251.5000
 30
0.0000
 40
3.0000
 50
270.0000
 51
0.0000
  0
LINE
  8
20
 10
125.5000
 20
248.5000
 30
0.0000
 11
105.0000
 21
248.5000
 31
0.0000
  0
ARC
  8
20
 10
105.0000
 20
251.5000
 30
0.0000
 40
3.0000
 50
180.0000
 51
270.0000
  0
ARC
  8
20
 10
105.0000
 20
251.5000
 30
0.0000
 40
3.0000
 50
90.0000
 51
180.0000
  0
LINE
  8
20
 10
105.0000
 20
242.5000
 30
0.0000
 11
125.5000
 21
242.5000
 31
0.0000
  0
ARC
  8
20
 10
125.5000
 20
239.5000
 30
0.0000
 40
3.0000
 50
0.0000
 51
90.0000
  0
ARC
  8
20
 10
125.5000
 20
239.5000
 30
0.0000
 40
3.0000
 50
270.0000
 51
0.0000
  0
LINE
  8
20
 10
125.5000
 20
236.5000
 30
0.0000
 11
105.0000
 21
236.5000
 31
0.0000
  0
ARC
  8
20
 10
105.0000
 20
239.5000
 30
0.0000
 40
3.0000
 50
180.0000
 51
270.0000
  0
ARC
  8
20
 10
105.0000
 20
239.5000
 30
0.0000
 40
3.0000
 50
90.0000
 51
180.0000
  0
LINE
  8
20
 10
105.0000
 20
230.5000
 30
0.0000
 11
126.0000
 21
230.5000
 31
0.0000
  0
ARC
  8
20
 10
126.0000
 20
227.5000
 30
0.0000
 40
3.0000
 50
0.0000
 51
90.0000
  0
ARC
  8
20
 10
126.0000
 20
227.5000
 30
0.0000
 40
3.0000
 50
270.0000
 51
0.0000
  0
LINE
  8
20
 10
126.0000
 20
224.5000
 30
0.0000
 11
105.0000
 21
224.5000
 31
0.0000
  0
ARC
  8
20
 10
105.0000
 20
227.5000
 30
0.0000
 40
3.0000
 50
180.0000
 51
270.0000
  0
ARC
  8
20
 10
105.0000
 20
227.5000
 30
0.0000
 40
3.0000
 50
90.0000
 51
180.0000
  0
LINE
  8
20
 10
105.0000
 20
218.5000
 30
0.0000
 11
125.5000
 21
218.5000
 31
0.0000
  0
ARC
  8
20
 10
125.5000
 20
215.5000
 30
0.0000
 40
3.0000
 50
0.0000
 51
90.0000
  0
ARC
  8
20
 10
125.5000
 20
215.5000
 30
0.0000
 40
3.0000
 50
270.0000
 51
0.0000
  0
LINE
  8
20
 10
125.5000
 20
212.5000
 30
0.0000
 11
105.0000
 21
212.5000
 31
0.0000
  0
ARC
  8
20
 10
105.0000
 20
215.5000
 30
0.0000
 40
3.0000
 50
180.0000
 51
270.0000
  0
ARC
  8
20
 10
105.0000
 20
215.5000
 30
0.0000
 40
3.0000
 50
90.0000
 51
180.0000
  0
LINE
  8
20
 10
105.0000
 20
206.5000
 30
0.0000
 11
125.5000
 21
206.5000
 31
0.0000
  0
ARC
  8
20
 10
125.5000
 20
203.5000
 30
0.0000
 40
3.0000
 50
0.0000
 51
90.0000
  0
ARC
  8
20
 10
125.5000
 20
203.5000
 30
0.0000
 40
3.0000
 50
270.0000
 51
0.0000
  0
LINE
  8
20
 10
125.5000
 20
200.5000
 30
0.0000
 11
105.0000
 21
200.5000
 31
0.0000
  0
ARC
  8
20
 10
105.0000
 20
203.5000
 30
0.0000
 40
3.0000
 50
180.0000
 51
270.0000
  0
ARC
  8
20
 10
105.0000
 20
203.5000
 30
0.0000
 40
3.0000
 50
90.0000
 51
180.0000
  0
LINE
  8
20
 10
323.0000
 20
374.0000
 30
0.0000
 11
323.0000
 21
79.0000
 31
0.0000
  0
LINE
  8
20
 10
323.0000
 20
374.0000
 30
0.0000
 11
566.0000
 21
374.0000
 31
0.0000
  0
LINE
  8
20
 10
323.0000
 20
79.0000
 30
0.0000
 11
566.0000
 21
79.0000
 31
0.0000
  0
LINE
  8
20
 10
566.0000
 20
79.0000
 30
0.0000
 11
566.0000
 21
87.0000
 31
0.0000
  0
LINE
  8
20
 10
354.0000
 20
176.0000
 30
0.0000
 11
378.0000
 21
176.0000
 31
0.0000
  0
ARC
  8
20
 10
378.0000
 20
173.0000
 30
0.0000
 40
3.0000
 50
0.0000
 51
90.0000
  0
ARC
  8
20
 10
378.0000
 20
173.0000
 30
0.0000
 40
3.0000
 50
270.0000
 51
0.0000
  0
LINE
  8
20
 10
378.0000
 20
170.0000
 30
0.0000
 11
354.0000
 21
170.0000
 31
0.0000
  0
ARC
  8
20
 10
354.0000
 20
173.0000
 30
0.0000
 40
3.0000
 50
180.0000
 51
270.0000
  0
ARC
  8
20
 10
354.0000
 20
173.0000
 30
0.0000
 40
3.0000
 50
90.0000
 51
180.0000
  0
LINE
  8
20
 10
354.0000
 20
164.0000
 30
0.0000
 11
378.0000
 21
164.0000
 31
0.0000
  0
ARC
  8
20
 10
378.0000
 20
161.0000
 30
0.0000
 40
3.0000
 50
0.0000
 51
90.0000
  0
ARC
  8
20
 10
378.0000
 20
161.0000
 30
0.0000
 40
3.0000
 50
270.0000
 51
0.0000
  0
LINE
  8
20
 10
378.0000
 20
158.0000
 30
0.0000
 11
354.0000
 21
158.0000
 31
0.0000
  0
ARC
  8
20
 10
354.0000
 20
161.0000
 30
0.0000
 40
3.0000
 50
180.0000
 51
270.0000
  0
ARC
  8
20
 10
354.0000
 20
161.0000
 30
0.0000
 40
3.0000
 50
90.0000
 51
180.0000
  0
LINE
  8
20
 10
354.0000
 20
152.0000
 30
0.0000
 11
378.0000
 21
152.0000
 31
0.0000
  0
ARC
  8
20
 10
378.0000
 20
149.0000
 30
0.0000
 40
3.0000
 50
0.0000
 51
90.0000
  0
ARC
  8
20
 10
378.0000
 20
149.0000
 30
0.0000
 40
3.0000
 50
270.0000
 51
0.0000
  0
LINE
  8
20
 10
378.0000
 20
146.0000
 30
0.0000
 11
354.0000
 21
146.0000
 31
0.0000
  0
ARC
  8
20
 10
354.0000
 20
149.0000
 30
0.0000
 40
3.0000
 50
180.0000
 51
270.0000
  0
ARC
  8
20
 10
354.0000
 20
149.0000
 30
0.0000
 40
3.0000
 50
90.0000
 51
180.0000
  0
LINE
  8
20
 10
354.0000
 20
140.0000
 30
0.0000
 11
378.0000
 21
140.0000
 31
0.0000
  0
ARC
  8
20
 10
378.0000
 20
137.0000
 30
0.0000
 40
3.0000
 50
0.0000
 51
90.0000
  0
ARC
  8
20
 10
378.0000
 20
137.0000
 30
0.0000
 40
3.0000
 50
270.0000
 51
0.0000
  0
LINE
  8
20
 10
378.0000
 20
134.0000
 30
0.0000
 11
354.0000
 21
134.0000
 31
0.0000
  0
ARC
  8
20
 10
354.0000
 20
137.0000
 30
0.0000
 40
3.0000
 50
180.0000
 51
270.0000
  0
ARC
  8
20
 10
354.0000
 20
137.0000
 30
0.0000
 40
3.0000
 50
90.0000
 51
180.0000
  0
LINE
  8
20
 10
354.0000
 20
128.0000
 30
0.0000
 11
378.0000
 21
128.0000
 31
0.0000
  0
ARC
  8
20
 10
378.0000
 20
125.0000
 30
0.0000
 40
3.0000
 50
0.0000
 51
90.0000
  0
ARC
  8
20
 10
378.0000
 20
125.0000
 30
0.0000
 40
3.0000
 50
270.0000
 51
0.0000
  0
LINE
  8
20
 10
378.0000
 20
122.0000
 30
0.0000
 11
354.0000
 21
122.0000
 31
0.0000
  0
ARC
  8
20
 10
354.0000
 20
125.0000
 30
0.0000
 40
3.0000
 50
180.0000
 51
270.0000
  0
ARC
  8
20
 10
354.0000
 20
125.0000
 30
0.0000
 40
3.0000
 50
90.0000
 51
180.0000
  0
LINE
  8
20
 10
355.0000
 20
350.5000
 30
0.0000
 11
379.0000
 21
350.5000
 31
0.0000
  0
ARC
  8
20
 10
379.0000
 20
347.5000
 30
0.0000
 40
3.0000
 50
0.0000
 51
90.0000
  0
ARC
  8
20
 10
379.0000
 20
347.5000
 30
0.0000
 40
3.0000
 50
270.0000
 51
0.0000
  0
LINE
  8
20
 10
379.0000
 20
344.5000
 30
0.0000
 11
355.0000
 21
344.5000
 31
0.0000
  0
ARC
  8
20
 10
355.0000
 20
347.5000
 30
0.0000
 40
3.0000
 50
180.0000
 51
270.0000
  0
ARC
  8
20
 10
355.0000
 20
347.5000
 30
0.0000
 40
3.0000
 50
90.0000
 51
180.0000
  0
LINE
  8
20
 10
355.0000
 20
338.5000
 30
0.0000
 11
379.0000
 21
338.5000
 31
0.0000
  0
ARC
  8
20
 10
379.0000
 20
335.5000
 30
0.0000
 40
3.0000
 50
0.0000
 51
90.0000
  0
ARC
  8
20
 10
379.0000
 20
335.5000
 30
0.0000
 40
3.0000
 50
270.0000
 51
0.0000
  0
LINE
  8
20
 10
379.0000
 20
332.5000
 30
0.0000
 11
355.0000
 21
332.5000
 31
0.0000
  0
ARC
  8
20
 10
355.0000
 20
335.5000
 30
0.0000
 40
3.0000
 50
180.0000
 51
270.0000
  0
ARC
  8
20
 10
355.0000
 20
335.5000
 30
0.0000
 40
3.0000
 50
90.0000
 51
180.0000
  0
LINE
  8
20
 10
355.0000
 20
326.5000
 30
0.0000
 11
379.0000
 21
326.5000
 31
0.0000
  0
ARC
  8
20
 10
379.0000
 20
323.5000
 30
0.0000
 40
3.0000
 50
0.0000
 51
90.0000
  0
ARC
  8
20
 10
379.0000
 20
323.5000
 30
0.0000
 40
3.0000
 50
270.0000
 51
0.0000
  0
LINE
  8
20
 10
379.0000
 20
320.5000
 30
0.0000
 11
355.0000
 21
320.5000
 31
0.0000
  0
ARC
  8
20
 10
355.0000
 20
323.5000
 30
0.0000
 40
3.0000
 50
180.0000
 51
270.0000
  0
ARC
  8
20
 10
355.0000
 20
323.5000
 30
0.0000
 40
3.0000
 50
90.0000
 51
180.0000
  0
LINE
  8
20
 10
355.0000
 20
314.5000
 30
0.0000
 11
379.0000
 21
314.5000
 31
0.0000
  0
ARC
  8
20
 10
379.0000
 20
311.5000
 30
0.0000
 40
3.0000
 50
0.0000
 51
90.0000
  0
ARC
  8
20
 10
379.0000
 20
311.5000
 30
0.0000
 40
3.0000
 50
270.0000
 51
0.0000
  0
LINE
  8
20
 10
379.0000
 20
308.5000
 30
0.0000
 11
355.0000
 21
308.5000
 31
0.0000
  0
ARC
  8
20
 10
355.0000
 20
311.5000
 30
0.0000
 40
3.0000
 50
180.0000
 51
270.0000
  0
ARC
  8
20
 10
355.0000
 20
311.5000
 30
0.0000
 40
3.0000
 50
90.0000
 51
180.0000
  0
LINE
  8
20
 10
355.0000
 20
302.5000
 30
0.0000
 11
379.0000
 21
302.5000
 31
0.0000
  0
ARC
  8
20
 10
379.0000
 20
299.5000
 30
0.0000
 40
3.0000
 50
0.0000
 51
90.0000
  0
ARC
  8
20
 10
379.0000
 20
299.5000
 30
0.0000
 40
3.0000
 50
270.0000
 51
0.0000
  0
LINE
  8
20
 10
379.0000
 20
296.5000
 30
0.0000
 11
355.0000
 21
296.5000
 31
0.0000
  0
ARC
  8
20
 10
355.0000
 20
299.5000
 30
0.0000
 40
3.0000
 50
180.0000
 51
270.0000
  0
ARC
  8
20
 10
355.0000
 20
299.5000
 30
0.0000
 40
3.0000
 50
90.0000
 51
180.0000
  0
LINE
  8
20
 10
355.0000
 20
290.5000
 30
0.0000
 11
379.0000
 21
290.5000
 31
0.0000
  0
ARC
  8
20
 10
379.0000
 20
287.5000
 30
0.0000
 40
3.0000
 50
0.0000
 51
90.0000
  0
ARC
  8
20
 10
379.0000
 20
287.5000
 30
0.0000
 40
3.0000
 50
270.0000
 51
0.0000
  0
LINE
  8
20
 10
379.0000
 20
284.5000
 30
0.0000
 11
355.0000
 21
284.5000
 31
0.0000
  0
ARC
  8
20
 10
355.0000
 20
287.5000
 30
0.0000
 40
3.0000
 50
180.0000
 51
270.0000
  0
ARC
  8
20
 10
355.0000
 20
287.5000
 30
0.0000
 40
3.0000
 50
90.0000
 51
180.0000
  0
LINE
  8
20
 10
355.0000
 20
278.5000
 30
0.0000
 11
379.0000
 21
278.5000
 31
0.0000
  0
ARC
  8
20
 10
379.0000
 20
275.5000
 30
0.0000
 40
3.0000
 50
0.0000
 51
90.0000
  0
ARC
  8
20
 10
379.0000
 20
275.5000
 30
0.0000
 40
3.0000
 50
270.0000
 51
0.0000
  0
LINE
  8
20
 10
379.0000
 20
272.5000
 30
0.0000
 11
355.0000
 21
272.5000
 31
0.0000
  0
ARC
  8
20
 10
355.0000
 20
275.5000
 30
0.0000
 40
3.0000
 50
180.0000
 51
270.0000
  0
ARC
  8
20
 10
355.0000
 20
275.5000
 30
0.0000
 40
3.0000
 50
90.0000
 51
180.0000
  0
LINE
  8
20
 10
355.0000
 20
266.5000
 30
0.0000
 11
379.0000
 21
266.5000
 31
0.0000
  0
ARC
  8
20
 10
379.0000
 20
263.5000
 30
0.0000
 40
3.0000
 50
0.0000
 51
90.0000
  0
ARC
  8
20
 10
379.0000
 20
263.5000
 30
0.0000
 40
3.0000
 50
270.0000
 51
0.0000
  0
LINE
  8
20
 10
379.0000
 20
260.5000
 30
0.0000
 11
355.0000
 21
260.5000
 31
0.0000
  0
ARC
  8
20
 10
355.0000
 20
263.5000
 30
0.0000
 40
3.0000
 50
180.0000
 51
270.0000
  0
ARC
  8
20
 10
355.0000
 20
263.5000
 30
0.0000
 40
3.0000
 50
90.0000
 51
180.0000
  0
LINE
  8
20
 10
355.0000
 20
254.5000
 30
0.0000
 11
379.0000
 21
254.5000
 31
0.0000
  0
ARC
  8
20
 10
379.0000
 20
251.5000
 30
0.0000
 40
3.0000
 50
0.0000
 51
90.0000
  0
ARC
  8
20
 10
379.0000
 20
251.5000
 30
0.0000
 40
3.0000
 50
270.0000
 51
0.0000
  0
LINE
  8
20
 10
379.0000
 20
248.5000
 30
0.0000
 11
355.0000
 21
248.5000
 31
0.0000
  0
ARC
  8
20
 10
355.0000
 20
251.5000
 30
0.0000
 40
3.0000
 50
180.0000
 51
270.0000
  0
ARC
  8
20
 10
355.0000
 20
251.5000
 30
0.0000
 40
3.0000
 50
90.0000
 51
180.0000
  0
LINE
  8
20
 10
355.0000
 20
242.5000
 30
0.0000
 11
379.0000
 21
242.5000
 31
0.0000
  0
ARC
  8
20
 10
379.0000
 20
239.5000
 30
0.0000
 40
3.0000
 50
0.0000
 51
90.0000
  0
ARC
  8
20
 10
379.0000
 20
239.5000
 30
0.0000
 40
3.0000
 50
270.0000
 51
0.0000
  0
LINE
  8
20
 10
379.0000
 20
236.5000
 30
0.0000
 11
355.0000
 21
236.5000
 31
0.0000
  0
ARC
  8
20
 10
355.0000
 20
239.5000
 30
0.0000
 40
3.0000
 50
180.0000
 51
270.0000
  0
ARC
  8
20
 10
355.0000
 20
239.5000
 30
0.0000
 40
3.0000
 50
90.0000
 51
180.0000
  0
LINE
  8
20
 10
355.0000
 20
230.5000
 30
0.0000
 11
379.0000
 21
230.5000
 31
0.0000
  0
ARC
  8
20
 10
379.0000
 20
227.5000
 30
0.0000
 40
3.0000
 50
0.0000
 51
90.0000
  0
ARC
  8
20
 10
379.0000
 20
227.5000
 30
0.0000
 40
3.0000
 50
270.0000
 51
0.0000
  0
LINE
  8
20
 10
379.0000
 20
224.5000
 30
0.0000
 11
355.0000
 21
224.5000
 31
0.0000
  0
ARC
  8
20
 10
355.0000
 20
227.5000
 30
0.0000
 40
3.0000
 50
180.0000
 51
270.0000
  0
ARC
  8
20
 10
355.0000
 20
227.5000
 30
0.0000
 40
3.0000
 50
90.0000
 51
180.0000
  0
LINE
  8
20
 10
355.0000
 20
218.5000
 30
0.0000
 11
379.0000
 21
218.5000
 31
0.0000
  0
ARC
  8
20
 10
379.0000
 20
215.5000
 30
0.0000
 40
3.0000
 50
0.0000
 51
90.0000
  0
ARC
  8
20
 10
379.0000
 20
215.5000
 30
0.0000
 40
3.0000
 50
270.0000
 51
0.0000
  0
LINE
  8
20
 10
379.0000
 20
212.5000
 30
0.0000
 11
355.0000
 21
212.5000
 31
0.0000
  0
ARC
  8
20
 10
355.0000
 20
215.5000
 30
0.0000
 40
3.0000
 50
180.0000
 51
270.0000
  0
ARC
  8
20
 10
355.0000
 20
215.5000
 30
0.0000
 40
3.0000
 50
90.0000
 51
180.0000
  0
LINE
  8
20
 10
355.0000
 20
206.5000
 30
0.0000
 11
379.0000
 21
206.5000
 31
0.0000
  0
ARC
  8
20
 10
379.0000
 20
203.5000
 30
0.0000
 40
3.0000
 50
0.0000
 51
90.0000
  0
ARC
  8
20
 10
379.0000
 20
203.5000
 30
0.0000
 40
3.0000
 50
270.0000
 51
0.0000
  0
LINE
  8
20
 10
379.0000
 20
200.5000
 30
0.0000
 11
355.0000
 21
200.5000
 31
0.0000
  0
ARC
  8
20
 10
355.0000
 20
203.5000
 30
0.0000
 40
3.0000
 50
180.0000
 51
270.0000
  0
ARC
  8
20
 10
355.0000
 20
203.5000
 30
0.0000
 40
3.0000
 50
90.0000
 51
180.0000
  0
LINE
  8
20
 10
646.0000
 20
374.0000
 30
0.0000
 11
646.0000
 21
87.0000
 31
0.0000
  0
LINE
  8
20
 10
635.4000
 20
135.0000
 30
0.0000
 11
635.4000
 21
107.0000
 31
0.0000
  0
LINE
  8
20
 10
635.4000
 20
107.0000
 30
0.0000
 11
576.6000
 21
107.0000
 31
0.0000
  0
LINE
  8
20
 10
576.6000
 20
107.0000
 30
0.0000
 11
576.6000
 21
135.0000
 31
0.0000
  0
LINE
  8
20
 10
576.6000
 20
135.0000
 30
0.0000
 11
635.4000
 21
135.0000
 31
0.0000
  0
LINE
  8
20
 10
620.0000
 20
226.0000
 30
0.0000
 11
637.5000
 21
226.0000
 31
0.0000
  0
LINE
  8
20
 10
637.5000
 20
226.0000
 30
0.0000
 11
637.5000
 21
243.0000
 31
0.0000
  0
LINE
  8
20
 10
637.5000
 20
243.0000
 30
0.0000
 11
620.0000
 21
243.0000
 31
0.0000
  0
LINE
  8
20
 10
620.0000
 20
243.0000
 30
0.0000
 11
620.0000
 21
226.0000
 31
0.0000
  0
LINE
  8
20
 10
622.5000
 20
203.5000
 30
0.0000
 11
634.5000
 21
203.5000
 31
0.0000
  0
LINE
  8
20
 10
634.5000
 20
203.5000
 30
0.0000
 11
634.5000
 21
216.0000
 31
0.0000
  0
LINE
  8
20
 10
634.5000
 20
216.0000
 30
0.0000
 11
622.5000
 21
216.0000
 31
0.0000
  0
LINE
  8
20
 10
622.5000
 20
216.0000
 30
0.0000
 11
622.5000
 21
203.5000
 31
0.0000
  0
LINE
  8
20
 10
0.0000
 20
79.0000
 30
0.0000
 11
243.0000
 21
79.0000
 31
0.0000
  0
LINE
  8
20
 10
243.0000
 20
79.0000
 30
0.0000
 11
486.0000
 21
79.0000
 31
0.0000
  0
LINE
  8
20
 10
0.0000
 20
-1.0000
 30
0.0000
 11
0.0000
 21
79.0000
 31
0.0000
  0
LINE
  8
20
 10
0.0000
 20
-1.0000
 30
0.0000
 11
243.0000
 21
-1.0000
 31
0.0000
  0
LINE
  8
20
 10
243.0000
 20
-1.0000
 30
0.0000
 11
243.0000
 21
79.0000
 31
0.0000
  0
LINE
  8
20
 10
243.0000
 20
-1.0000
 30
0.0000
 11
486.0000
 21
-1.0000
 31
0.0000
  0
LINE
  8
20
 10
486.0000
 20
79.0000
 30
0.0000
 11
486.0000
 21
-1.0000
 31
0.0000
  0
LINE
  8
20
 10
592.5000
 20
253.0000
 30
0.0000
 11
592.5000
 21
270.0000
 31
0.0000
  0
LINE
  8
20
 10
579.5000
 20
253.0000
 30
0.0000
 11
579.5000
 21
270.0000
 31
0.0000
  0
LINE
  8
20
 10
579.5000
 20
253.0000
 30
0.0000
 11
592.5000
 21
253.0000
 31
0.0000
  0
LINE
  8
20
 10
579.5000
 20
270.0000
 30
0.0000
 11
592.5000
 21
270.0000
 31
0.0000
  0
LINE
  8
20
 10
65.5000
 20
293.0000
 30
0.0000
 11
65.5000
 21
226.0000
 31
0.0000
  0
LINE
  8
20
 10
65.5000
 20
226.0000
 30
0.0000
 11
14.5000
 21
226.0000
 31
0.0000
  0
LINE
  8
20
 10
14.5000
 20
226.0000
 30
0.0000
 11
14.5000
 21
293.0000
 31
0.0000
  0
LINE
  8
20
 10
14.5000
 20
293.0000
 30
0.0000
 11
65.5000
 21
293.0000
 31
0.0000
  0
LINE
  8
20
 10
47.5000
 20
103.0000
 30
0.0000
 11
47.5000
 21
125.0000
 31
0.0000
  0
LINE
  8
20
 10
47.5000
 20
125.0000
 30
0.0000
 11
37.5000
 21
125.0000
 31
0.0000
  0
LINE
  8
20
 10
37.5000
 20
125.0000
 30
0.0000
 11
37.5000
 21
103.0000
 31
0.0000
  0
LINE
  8
20
 10
37.5000
 20
103.0000
 30
0.0000
 11
47.5000
 21
103.0000
 31
0.0000
  0
LINE
  8
20
 10
47.5000
 20
176.0000
 30
0.0000
 11
47.5000
 21
198.0000
 31
0.0000
  0
LINE
  8
20
 10
47.5000
 20
198.0000
 30
0.0000
 11
37.5000
 21
198.0000
 31
0.0000
  0
LINE
  8
20
 10
37.5000
 20
198.0000
 30
0.0000
 11
37.5000
 21
176.0000
 31
0.0000
  0
LINE
  8
20
 10
37.5000
 20
176.0000
 30
0.0000
 11
47.5000
 21
176.0000
 31
0.0000
  0
CIRCLE
  8
20
 10
256.5000
 20
246.0000
 30
0.0000
 40
1.5500
  0
CIRCLE
  8
20
 10
256.5000
 20
339.0000
 30
0.0000
 40
1.5500
  0
CIRCLE
  8
20
 10
133.5000
 20
339.0000
 30
0.0000
 40
1.5500
  0
CIRCLE
  8
20
 10
133.5000
 20
246.0000
 30
0.0000
 40
1.5500
  0
CIRCLE
  8
20
 10
234.5000
 20
354.5000
 30
0.0000
 40
1.5500
  0
CIRCLE
  8
20
 10
149.5000
 20
202.0000
 30
0.0000
 40
1.5500
  0
CIRCLE
  8
20
 10
137.5000
 20
331.0000
 30
0.0000
 40
1.5500
  0
CIRCLE
  8
20
 10
137.5000
 20
226.0000
 30
0.0000
 40
1.5500
  0
CIRCLE
  8
20
 10
105.0000
 20
104.0000
 30
0.0000
 40
1.6000
  0
CIRCLE
  8
20
 10
105.0000
 20
349.0000
 30
0.0000
 40
1.6000
  0
CIRCLE
  8
20
 10
298.0000
 20
349.0000
 30
0.0000
 40
1.6000
  0
CIRCLE
  8
20
 10
298.0000
 20
104.0000
 30
0.0000
 40
1.6000
  0
CIRCLE
  8
20
 10
224.5000
 20
183.0000
 30
0.0000
 40
1.5500
  0
CIRCLE
  8
20
 10
224.5000
 20
115.0000
 30
0.0000
 40
1.5500
  0
CIRCLE
  8
20
 10
124.5000
 20
183.0000
 30
0.0000
 40
1.5500
  0
CIRCLE
  8
20
 10
124.5000
 20
115.0000
 30
0.0000
 40
1.5500
  0
CIRCLE
  8
20
 10
110.0000
 20
88.5000
 30
0.0000
 40
1.6000
  0
CIRCLE
  8
20
 10
110.0000
 20
364.5000
 30
0.0000
 40
1.6000
  0
CIRCLE
  8
20
 10
293.0000
 20
88.5000
 30
0.0000
 40
1.6000
  0
CIRCLE
  8
20
 10
293.0000
 20
364.5000
 30
0.0000
 40
1.6000
  0
CIRCLE
  8
20
 10
606.0000
 20
141.0000
 30
0.0000
 40
1.5000
  0
CIRCLE
  8
20
 10
606.0000
 20
101.0000
 30
0.0000
 40
1.5000
  0
CIRCLE
  8
20
 10
575.5000
 20
251.0000
 30
0.0000
 40
1.5500
  0
CIRCLE
  8
20
 10
638.5000
 20
159.0000
 30
0.0000
 40
1.5500
  0
CIRCLE
  8
20
 10
575.5000
 20
159.0000
 30
0.0000
 40
1.5500
  0
CIRCLE
  8
20
 10
638.5000
 20
251.0000
 30
0.0000
 40
1.5500
  0
CIRCLE
  8
20
 10
631.0000
 20
221.0000
 30
0.0000
 40
1.5500
  0
CIRCLE
  8
20
 10
353.0000
 20
364.5000
 30
0.0000
 40
1.6000
  0
CIRCLE
  8
20
 10
536.0000
 20
364.5000
 30
0.0000
 40
1.6000
  0
CIRCLE
  8
20
 10
536.0000
 20
88.5000
 30
0.0000
 40
1.6000
  0
CIRCLE
  8
20
 10
353.0000
 20
88.5000
 30
0.0000
 40
1.6000
  0
CIRCLE
  8
20
 10
124.5000
 20
187.5000
 30
0.0000
 40
1.5500
  0
CIRCLE
  8
20
 10
224.5000
 20
187.5000
 30
0.0000
 40
1.5500
  0
CIRCLE
  8
20
 10
124.5000
 20
110.5000
 30
0.0000
 40
1.5500
  0
CIRCLE
  8
20
 10
224.5000
 20
110.5000
 30
0.0000
 40
1.5500
  0
CIRCLE
  8
20
 10
19.5000
 20
95.0000
 30
0.0000
 40
1.6000
  0
CIRCLE
  8
20
 10
60.5000
 20
95.0000
 30
0.0000
 40
1.6000
  0
CIRCLE
  8
20
 10
60.5000
 20
366.0000
 30
0.0000
 40
1.6000
  0
CIRCLE
  8
20
 10
19.5000
 20
366.0000
 30
0.0000
 40
1.6000
  0
CIRCLE
  8
20
 10
585.5000
 20
95.0000
 30
0.0000
 40
1.6000
  0
CIRCLE
  8
20
 10
626.5000
 20
95.0000
 30
0.0000
 40
1.6000
  0
CIRCLE
  8
20
 10
626.5000
 20
366.0000
 30
0.0000
 40
1.6000
  0
CIRCLE
  8
20
 10
585.5000
 20
366.0000
 30
0.0000
 40
1.6000
  0
CIRCLE
  8
20
 10
218.0000
 20
69.5000
 30
0.0000
 40
1.6000
  0
CIRCLE
  8
20
 10
224.0000
 20
59.5000
 30
0.0000
 40
1.6000
  0
CIRCLE
  8
20
 10
218.0000
 20
8.5000
 30
0.0000
 40
1.6000
  0
CIRCLE
  8
20
 10
224.0000
 20
18.5000
 30
0.0000
 40
1.6000
  0
CIRCLE
  8
20
 10
25.0000
 20
69.5000
 30
0.0000
 40
1.6000
  0
CIRCLE
  8
20
 10
19.0000
 20
59.5000
 30
0.0000
 40
1.6000
  0
CIRCLE
  8
20
 10
25.0000
 20
8.5000
 30
0.0000
 40
1.6000
  0
CIRCLE
  8
20
 10
19.0000
 20
18.5000
 30
0.0000
 40
1.6000
  0
CIRCLE
  8
20
 10
461.0000
 20
69.5000
 30
0.0000
 40
1.6000
  0
CIRCLE
  8
20
 10
467.0000
 20
59.5000
 30
0.0000
 40
1.6000
  0
CIRCLE
  8
20
 10
461.0000
 20
8.5000
 30
0.0000
 40
1.6000
  0
CIRCLE
  8
20
 10
467.0000
 20
18.5000
 30
0.0000
 40
1.6000
  0
CIRCLE
  8
20
 10
268.0000
 20
69.5000
 30
0.0000
 40
1.6000
  0
CIRCLE
  8
20
 10
262.0000
 20
59.5000
 30
0.0000
 40
1.6000
  0
CIRCLE
  8
20
 10
268.0000
 20
8.5000
 30
0.0000
 40
1.6000
  0
CIRCLE
  8
20
 10
262.0000
 20
18.5000
 30
0.0000
 40
1.6000
  0
CIRCLE
  8
20
 10
631.0000
 20
284.5000
 30
0.0000
 40
2.2500
  0
CIRCLE
  8
20
 10
581.0000
 20
284.5000
 30
0.0000
 40
2.2500
  0
CIRCLE
  8
20
 10
581.0000
 20
334.5000
 30
0.0000
 40
2.2500
  0
CIRCLE
  8
20
 10
631.0000
 20
334.5000
 30
0.0000
 40
2.2500
  0
CIRCLE
  8
20
 10
606.0000
 20
309.5000
 30
0.0000
 40
29.5000
  0
CIRCLE
  8
20
 10
617.5000
 20
344.5000
 30
0.0000
 40
1.5500
  0
CIRCLE
  8
20
 10
12.0000
 20
205.5000
 30
0.0000
 40
4.0000
  0
CIRCLE
  8
20
 10
24.0000
 20
313.0000
 30
0.0000
 40
1.5000
  0
CIRCLE
  8
20
 10
12.0000
 20
160.1500
 30
0.0000
 40
4.0000
  0
CIRCLE
  8
20
 10
12.0000
 20
179.2000
 30
0.0000
 40
4.0000
  0
CIRCLE
  8
20
 10
12.0000
 20
122.0500
 30
0.0000
 40
4.0000
  0
CIRCLE
  8
20
 10
13.0000
 20
313.0000
 30
0.0000
 40
3.2500
  0
CIRCLE
  8
20
 10
7.0000
 20
274.5000
 30
0.0000
 40
1.7500
  0
CIRCLE
  8
20
 10
12.0000
 20
141.1000
 30
0.0000
 40
4.0000
  0
CIRCLE
  8
20
 10
15.8000
 20
179.2000
 30
0.0000
 40
1.2500
  0
CIRCLE
  8
20
 10
8.2000
 20
179.2000
 30
0.0000
 40
1.2500
  0
CIRCLE
  8
20
 10
15.8000
 20
160.1500
 30
0.0000
 40
1.2500
  0
CIRCLE
  8
20
 10
15.8000
 20
141.1000
 30
0.0000
 40
1.2500
  0
CIRCLE
  8
20
 10
8.2000
 20
141.1000
 30
0.0000
 40
1.2500
  0
CIRCLE
  8
20
 10
15.8000
 20
122.0500
 30
0.0000
 40
1.2500
  0
CIRCLE
  8
20
 10
8.2000
 20
122.0500
 30
0.0000
 40
1.2500
  0
CIRCLE
  8
20
 10
15.8000
 20
205.5000
 30
0.0000
 40
1.2500
  0
CIRCLE
  8
20
 10
8.2000
 20
205.5000
 30
0.0000
 40
1.2500
  0
CIRCLE
  8
20
 10
8.2000
 20
160.1500
 30
0.0000
 40
1.2500
  0
CIRCLE
  8
20
 10
65.0000
 20
205.5000
 30
0.0000
 40
8.2500
  0
CIRCLE
  8
20
 10
10.5000
 20
301.4858
 30
0.0000
 40
1.6000
  0
CIRCLE
  8
20
 10
10.5000
 20
215.9835
 30
0.0000
 40
1.6000
  0
CIRCLE
  8
20
 10
69.5000
 20
215.9858
 30
0.0000
 40
1.6000
  0
CIRCLE
  8
20
 10
69.5000
 20
301.5000
 30
0.0000
 40
1.6000
  0
ENDSEC
  0
EOF
