%
M48
M72
T01C0.0197
T02C0.0236
T03C0.0276
T04C0.0315
T05C0.0320
T06C0.0354
T07C0.0360
T08C0.0394
T09C0.0400
T10C0.0433
T11C0.0512
T12C0.0630
T13C0.0709
T14C0.1260
T15C0.1280
%
T01
X40676Y27225
X41227Y27225
T02
X38851Y27650
X38826Y26425
X39076Y25800
X38301Y25325
X39051Y24725
X40101Y24875
X40976Y24875
X38926Y23150
X38951Y21275
X38951Y20350
X38951Y19375
X38951Y17400
X38926Y15175
X38951Y13575
X38951Y11775
X36976Y12825
X35901Y12825
X38951Y9375
X31601Y10000
X30226Y7500
X27201Y9550
X27851Y10975
X27601Y11700
X27226Y12100
X26076Y14050
X25201Y14050
X24201Y13625
X23951Y15700
X25126Y16525
X24576Y17025
X23726Y16975
X23701Y17500
X22726Y18025
X22326Y18350
X21801Y18375
X21951Y17850
X23451Y19050
X23776Y19525
X23826Y20150
X24101Y21275
X24976Y21700
X25526Y21875
X25901Y22275
X26576Y22425
X27201Y22675
X28126Y22950
X27876Y24475
X27951Y25200
X27401Y26575
X26326Y26100
X25451Y25475
X25051Y24750
X25826Y24075
X23701Y22950
X22926Y22950
X22951Y24125
X23501Y24700
X23076Y25000
X22901Y25525
X23501Y26575
X24676Y27375
X24176Y27650
X25051Y28475
X24451Y29850
X25201Y30075
X25926Y30450
X26776Y31175
X27201Y29775
X27301Y28875
X26701Y28500
X27951Y28325
X25301Y26300
X22451Y28025
X22151Y26475
X20226Y25400
X19076Y26025
X18701Y26400
X18301Y26050
X18051Y25525
X17501Y25800
X16326Y24925
X15451Y25350
X15351Y26075
X15401Y26925
X14976Y27625
X13976Y28700
X14626Y30225
X15001Y30625
X15401Y30150
X14226Y30625
X14101Y31575
X16351Y31125
X16551Y30600
X17201Y31375
X18076Y32025
X18826Y32025
X19551Y31375
X20101Y30850
X20901Y30500
X21001Y31275
X21901Y31550
X22001Y30975
X22526Y31550
X22551Y32500
X23176Y32500
X23851Y31325
X23726Y29775
X21751Y29675
X19451Y29675
X18176Y28950
X16826Y28700
X19076Y27125
X19476Y26700
X19801Y27425
X21551Y23225
X20076Y20200
X20376Y17850
X19976Y16325
X20626Y16075
X21301Y15750
X22326Y15725
X22826Y15525
X21501Y13600
X20951Y13725
X21451Y13025
X21151Y12575
X20151Y14100
X17451Y12300
X18076Y11575
X16401Y9725
X14976Y8675
X14151Y9775
X12876Y8525
X11701Y6100
X7576Y4800
X13301Y12075
X12051Y16075
X13251Y16400
X12051Y17150
X12176Y18250
X11301Y18450
X10801Y20375
X11926Y21400
X10926Y22625
X8676Y21350
X8301Y19350
X7551Y18000
X7551Y23225
X7551Y28075
X10951Y28875
X13301Y25725
X13101Y24850
X14526Y23925
X16776Y23025
X13701Y20225
X13701Y19700
X15201Y18550
X14401Y17750
X15701Y16350
X14876Y16175
X16751Y16775
X17651Y19025
X17651Y19925
X16601Y19825
X17251Y14125
X19951Y9425
X19776Y8850
X19801Y8250
X19301Y7650
X18551Y7300
X20576Y8200
X21151Y8750
X21501Y9175
X22726Y9050
X23551Y9175
X24576Y8857
X25576Y9157
X22576Y7750
X24651Y5175
X27076Y15625
X27276Y16175
X25751Y16075
X26676Y18625
X25426Y19325
X30251Y18175
X30851Y17500
X30276Y16825
X31501Y20500
X29876Y22000
X34651Y26250
X35176Y27800
X34401Y28025
X34526Y28775
X33776Y28825
X33226Y29100
X35026Y30825
X35551Y30375
X36226Y30450
X35426Y29000
X37076Y25850
X31726Y26775
X35051Y32175
X32826Y34950
X31901Y35275
X33926Y36300
X34501Y36275
X34851Y35550
X35451Y36250
X36076Y37175
X36851Y36350
X35201Y37925
X35251Y39550
X33126Y39300
X31226Y42250
X29601Y41425
X27776Y39975
X27901Y37925
X29051Y37125
X26776Y36200
X26176Y35475
X26151Y34475
X25351Y34400
X24551Y34225
X23651Y35475
X23076Y35175
X22026Y34800
X21376Y34925
X20626Y35025
X20051Y35025
X19501Y35200
X18951Y35350
X17951Y36025
X17276Y36275
X16776Y35800
X16276Y36200
X14426Y36500
X13426Y36525
X13501Y35100
X11926Y36475
X10686Y36475
X11501Y37925
X8931Y38030
X8926Y36100
X7551Y34275
X10951Y32675
X17276Y32400
X20351Y32500
X20901Y32550
X21801Y32500
X20476Y33375
X21401Y36300
X22026Y36600
X23526Y36600
X24526Y36600
X25626Y37100
X27601Y34625
X28251Y33200
X26401Y33000
X20401Y37925
X18876Y37925
X17776Y39975
X7551Y42025
X40451Y32175
T03
X37901Y24250
X30201Y26550
X29626Y27050
X29626Y24950
X29626Y23700
X28376Y19800
X27826Y19350
X25076Y26950
X23426Y28850
X20501Y28800
X29626Y31925
X30201Y32350
X31151Y31625
X30201Y29325
X29126Y37875
X35801Y9475
X37226Y7800
X37226Y7225
X37226Y6650
X37226Y6075
X37226Y5500
X33926Y5500
X33926Y6075
X33926Y6650
X33926Y7225
X33926Y7800
X29576Y9000
X7876Y8850
T04
X11201Y6632
X11201Y5632
X12201Y5632
X12201Y6632
X13201Y6632
X13201Y5632
X14201Y5632
X14201Y6632
X15201Y6632
X15201Y5632
X16201Y5632
X16201Y6632
X17201Y6632
X17201Y5632
X18201Y5632
X18201Y6632
X19201Y6632
X19201Y5632
X20201Y5632
X20201Y6632
X21201Y6632
X21201Y5632
X22201Y5632
X22201Y6632
X23201Y6632
X23201Y5632
X24201Y5632
X24201Y6632
X25201Y6632
X25201Y5632
X26201Y5632
X26201Y6632
X27201Y6632
X27201Y5632
X28201Y5632
X28201Y6632
X29201Y6632
X29201Y5632
X30201Y5632
X30201Y6632
X30826Y36925
X31076Y36925
X32576Y36925
X32826Y36925
T05
X6177Y35559
X5177Y35559
X5177Y31622
X6177Y31622
X6177Y43039
X5177Y43039
X5177Y14693
X6177Y14693
X6177Y10756
X5177Y10756
T06
X11051Y14850
X12051Y14850
X13051Y14850
X14051Y14850
X15051Y14850
X16051Y14850
X17051Y14850
X18051Y14850
X20051Y14850
X21051Y14850
X22051Y14850
X23051Y14850
X24051Y14850
X25051Y14850
X26051Y14850
X27051Y14850
X29051Y14850
X30051Y14850
X31051Y14850
X32051Y14850
X33051Y14850
X34051Y14850
X22051Y23850
X22051Y24850
X21051Y24850
X21051Y25850
X22051Y25850
X22051Y33850
X23051Y33850
X24051Y33850
X25051Y33850
X26051Y33850
X27051Y33850
X28051Y33850
X29051Y33850
X30651Y33850
X31651Y33850
X32651Y33850
X33651Y33850
X34651Y33850
X35651Y33850
X36651Y33850
X37651Y33850
X20051Y33850
X19051Y33850
X18051Y33850
X17051Y33850
X16051Y33850
X15051Y33850
X14051Y33850
X13051Y33850
X10051Y33850
X9051Y33850
X9051Y32850
X9051Y31850
X9051Y30850
X9051Y29850
X9051Y28850
X9051Y27850
X9051Y26850
X9051Y25850
X9051Y24850
X9051Y23850
X10051Y23850
X10051Y24850
X10051Y25850
X10051Y26850
X10051Y27850
X10051Y28850
X10051Y29850
X10051Y30850
X10051Y31850
X10051Y32850
X10051Y22850
X9051Y22850
X9051Y21850
X9051Y20850
X9051Y19850
X9051Y18850
X9051Y17850
X9051Y16850
X10051Y16850
X10051Y17850
X10051Y18850
X10051Y19850
X10051Y20850
X10051Y21850
T07
X13051Y13125
X14051Y13125
X28551Y12675
X29551Y12675
X30551Y12675
X40651Y19875
X40651Y20875
T08
X41026Y12925
X41026Y11925
X41026Y10925
X41026Y9925
X41026Y8050
X41026Y7050
X12601Y10825
X11601Y10825
X36976Y37975
X36976Y38975
X36976Y39975
X35976Y39475
X35976Y38475
X35976Y40475
X35976Y41475
X36976Y40975
X40807Y42215
X41476Y41215
X40807Y38235
X41476Y37235
X26801Y41975
X25801Y41975
X24801Y41975
X23801Y41975
X22801Y41975
X22801Y42975
X23801Y42975
X24801Y42975
X25801Y42975
X26801Y42975
X16801Y42975
X15801Y42975
X14801Y42975
X13801Y42975
X12801Y42975
X12801Y41975
X13801Y41975
X14801Y41975
X15801Y41975
X16801Y41975
T09
X21051Y23850
T10
X38826Y22075
T11
X31826Y24065
X31826Y16195
T12
X31921Y43288
T13
X38276Y42776
X38276Y36674
T14
X5677Y4850
X9036Y7207
X32264Y7207
X41110Y4850
X32264Y40671
X9036Y40671
T15
X39476Y41975
X39476Y37475
M30
