G75*
G70*
%OFA0B0*%
%FSLAX24Y24*%
%IPPOS*%
%LPD*%
%AMOC8*
5,1,8,0,0,1.08239X$1,22.5*
%
%ADD10C,0.0860*%
%ADD11C,0.0712*%
%ADD12R,0.1008X0.0850*%
%ADD13C,0.0618*%
%ADD14R,0.0618X0.0618*%
%ADD15C,0.1460*%
%ADD16OC8,0.0624*%
%ADD17C,0.0672*%
%ADD18R,0.2483X0.2641*%
%ADD19R,0.0756X0.1307*%
%ADD20R,0.1190X0.0360*%
%ADD21R,0.0472X0.0512*%
%ADD22C,0.0712*%
%ADD23R,0.0288X0.0658*%
%ADD24R,0.0283X0.0657*%
%ADD25C,0.0476*%
%ADD26R,0.0824X0.0264*%
%ADD27R,0.0512X0.0472*%
%ADD28R,0.0168X0.0608*%
%ADD29R,0.0204X0.0684*%
%ADD30R,0.1929X0.0945*%
%ADD31R,0.0835X0.0756*%
%ADD32R,0.0693X0.0614*%
%ADD33R,0.0614X0.0693*%
%ADD34OC8,0.0780*%
%ADD35R,0.0685X0.0567*%
%ADD36R,0.0644X0.0264*%
%ADD37C,0.0840*%
%ADD38OC8,0.0840*%
%ADD39R,0.0564X0.0264*%
%ADD40R,0.0712X0.0712*%
%ADD41C,0.1480*%
%ADD42C,0.1263*%
%ADD43R,0.0756X0.0835*%
%ADD44R,0.0684X0.0204*%
%ADD45R,0.0360X0.1190*%
%ADD46C,0.1032*%
%ADD47OC8,0.1032*%
%ADD48OC8,0.0665*%
%ADD49OC8,0.0720*%
%ADD50R,0.0264X0.0644*%
%ADD51C,0.1700*%
%ADD52OC8,0.0523*%
%ADD53C,0.2562*%
D10*
X031776Y004150D02*
X039051Y004150D01*
D11*
X040730Y007050D02*
X041323Y007050D01*
X041323Y008050D02*
X040730Y008050D01*
X040729Y009925D02*
X041323Y009925D01*
X041323Y010925D02*
X040729Y010925D01*
X040729Y011925D02*
X041323Y011925D01*
X041323Y012925D02*
X040729Y012925D01*
X012601Y011122D02*
X012601Y010528D01*
X011601Y010528D02*
X011601Y011122D01*
D12*
X038602Y010871D03*
X038602Y012879D03*
D13*
X030201Y006632D03*
X029201Y006632D03*
X028201Y006632D03*
X027201Y006632D03*
X026201Y006632D03*
X025201Y006632D03*
X024201Y006632D03*
X023201Y006632D03*
X022201Y006632D03*
X021201Y006632D03*
X020201Y006632D03*
X019201Y006632D03*
X018201Y006632D03*
X017201Y006632D03*
X016201Y006632D03*
X015201Y006632D03*
X014201Y006632D03*
X013201Y006632D03*
X012201Y006632D03*
X011201Y006632D03*
X011201Y005632D03*
X012201Y005632D03*
X013201Y005632D03*
X014201Y005632D03*
X015201Y005632D03*
X016201Y005632D03*
X017201Y005632D03*
X018201Y005632D03*
X019201Y005632D03*
X020201Y005632D03*
X021201Y005632D03*
X022201Y005632D03*
X023201Y005632D03*
X024201Y005632D03*
X025201Y005632D03*
X026201Y005632D03*
X027201Y005632D03*
X028201Y005632D03*
X029201Y005632D03*
D14*
X030201Y005632D03*
D15*
X032264Y007207D03*
X009036Y007207D03*
X009036Y040671D03*
X032264Y040671D03*
D16*
X006177Y043039D03*
X005177Y043039D03*
X005177Y035559D03*
X006177Y035559D03*
X006177Y031622D03*
X005177Y031622D03*
X005177Y014693D03*
X006177Y014693D03*
X006177Y010756D03*
X005177Y010756D03*
D17*
X013051Y012845D02*
X013051Y013405D01*
X014051Y013405D02*
X014051Y012845D01*
X028551Y012955D02*
X028551Y012395D01*
X029551Y012395D02*
X029551Y012955D01*
X030551Y012955D02*
X030551Y012395D01*
X040371Y019875D02*
X040931Y019875D01*
X040931Y020875D02*
X040371Y020875D01*
D18*
X035576Y006638D03*
D19*
X034679Y009465D03*
X036474Y009465D03*
D20*
X033156Y009550D03*
X031596Y009550D03*
D21*
X019751Y016841D03*
X019751Y017510D03*
X019676Y019691D03*
X019676Y020360D03*
X017676Y028946D03*
X017676Y029615D03*
X017701Y031311D03*
X017701Y031980D03*
X019151Y032035D03*
X019151Y031366D03*
X023251Y031366D03*
X023251Y032035D03*
X020801Y037091D03*
X020801Y037760D03*
X020801Y039091D03*
X020801Y039760D03*
X018476Y039760D03*
X018476Y039091D03*
X018501Y037760D03*
X018501Y037091D03*
X010701Y037091D03*
X010701Y037760D03*
X010801Y039091D03*
X010801Y039760D03*
X028476Y039760D03*
X028476Y039091D03*
X028476Y037760D03*
X028476Y037091D03*
X030067Y041425D03*
X030736Y041425D03*
X037101Y027085D03*
X037101Y026416D03*
X041476Y024885D03*
X041476Y024216D03*
X013376Y008535D03*
X013376Y007866D03*
D22*
X041476Y037235D03*
X040807Y038235D03*
X041476Y041215D03*
X040807Y042215D03*
X036976Y040975D03*
X035976Y040475D03*
X035976Y041475D03*
X036976Y039975D03*
X036976Y038975D03*
X035976Y038475D03*
X035976Y039475D03*
X026801Y041975D03*
X025801Y041975D03*
X024801Y041975D03*
X023801Y041975D03*
X022801Y041975D03*
X022801Y042975D03*
X023801Y042975D03*
X024801Y042975D03*
X025801Y042975D03*
X026801Y042975D03*
X016801Y042975D03*
X015801Y042975D03*
X014801Y042975D03*
X013801Y042975D03*
X012801Y042975D03*
X012801Y041975D03*
X013801Y041975D03*
X014801Y041975D03*
X015801Y041975D03*
X016801Y041975D03*
D23*
X014926Y039210D03*
X014426Y039210D03*
X013926Y039210D03*
X013426Y039210D03*
X012926Y039210D03*
X012426Y039210D03*
X011926Y039210D03*
X011426Y039210D03*
X011426Y037090D03*
X011926Y037090D03*
X012426Y037090D03*
X012926Y037090D03*
X013426Y037090D03*
X013926Y037090D03*
X014426Y037090D03*
X014926Y037090D03*
X021526Y037090D03*
X022026Y037090D03*
X022526Y037090D03*
X023026Y037090D03*
X023526Y037090D03*
X024026Y037090D03*
X024526Y037090D03*
X025026Y037090D03*
X025026Y039210D03*
X024526Y039210D03*
X024026Y039210D03*
X023526Y039210D03*
X023026Y039210D03*
X022526Y039210D03*
X022026Y039210D03*
X021526Y039210D03*
D24*
X017774Y039213D03*
X017274Y039213D03*
X016774Y039213D03*
X016274Y039213D03*
X016274Y037087D03*
X016774Y037087D03*
X017274Y037087D03*
X017774Y037087D03*
X026274Y037087D03*
X026774Y037087D03*
X027274Y037087D03*
X027774Y037087D03*
X027774Y039213D03*
X027274Y039213D03*
X026774Y039213D03*
X026274Y039213D03*
D25*
X040676Y027225D03*
X041227Y027225D03*
D26*
X026721Y021275D03*
X026721Y020775D03*
X026721Y020275D03*
X026721Y019775D03*
X024781Y019775D03*
X024781Y020275D03*
X024781Y020775D03*
X024781Y021275D03*
D27*
X026567Y021925D03*
X027236Y021925D03*
X026986Y026550D03*
X026317Y026550D03*
X024611Y026575D03*
X023942Y026575D03*
X023311Y029675D03*
X022642Y029675D03*
X017511Y024875D03*
X016842Y024875D03*
X014386Y024825D03*
X013717Y024825D03*
X013261Y016775D03*
X012592Y016775D03*
X015692Y016775D03*
X016361Y016775D03*
D28*
X019831Y029690D03*
X020091Y029690D03*
X020341Y029690D03*
X020601Y029690D03*
X020861Y029690D03*
X021111Y029690D03*
X021371Y029690D03*
X021371Y031910D03*
X021111Y031910D03*
X020861Y031910D03*
X020601Y031910D03*
X020341Y031910D03*
X020091Y031910D03*
X019831Y031910D03*
X039206Y026435D03*
X039466Y026435D03*
X039716Y026435D03*
X039976Y026435D03*
X040236Y026435D03*
X040486Y026435D03*
X040746Y026435D03*
X040746Y024215D03*
X040486Y024215D03*
X040236Y024215D03*
X039976Y024215D03*
X039716Y024215D03*
X039466Y024215D03*
X039206Y024215D03*
D29*
X036311Y026895D03*
X036061Y026895D03*
X035801Y026895D03*
X035551Y026895D03*
X035291Y026895D03*
X035031Y026895D03*
X034781Y026895D03*
X034521Y026895D03*
X034271Y026895D03*
X034011Y026895D03*
X033751Y026895D03*
X033501Y026895D03*
X033241Y026895D03*
X032991Y026895D03*
X032991Y029755D03*
X033241Y029755D03*
X033501Y029755D03*
X033751Y029755D03*
X034011Y029755D03*
X034271Y029755D03*
X034521Y029755D03*
X034781Y029755D03*
X035031Y029755D03*
X035291Y029755D03*
X035551Y029755D03*
X035801Y029755D03*
X036061Y029755D03*
X036311Y029755D03*
X026836Y029120D03*
X026576Y029120D03*
X026326Y029120D03*
X026066Y029120D03*
X025806Y029120D03*
X025556Y029120D03*
X025296Y029120D03*
X025046Y029120D03*
X024786Y029120D03*
X024526Y029120D03*
X024276Y029120D03*
X024016Y029120D03*
X024016Y031980D03*
X024276Y031980D03*
X024526Y031980D03*
X024786Y031980D03*
X025046Y031980D03*
X025296Y031980D03*
X025556Y031980D03*
X025806Y031980D03*
X026066Y031980D03*
X026326Y031980D03*
X026576Y031980D03*
X026836Y031980D03*
X016911Y032205D03*
X016651Y032205D03*
X016401Y032205D03*
X016141Y032205D03*
X015881Y032205D03*
X015631Y032205D03*
X015371Y032205D03*
X015121Y032205D03*
X014861Y032205D03*
X014601Y032205D03*
X014351Y032205D03*
X014091Y032205D03*
X014091Y029345D03*
X014351Y029345D03*
X014601Y029345D03*
X014861Y029345D03*
X015121Y029345D03*
X015371Y029345D03*
X015631Y029345D03*
X015881Y029345D03*
X016141Y029345D03*
X016401Y029345D03*
X016651Y029345D03*
X016911Y029345D03*
X020491Y020030D03*
X020751Y020030D03*
X021001Y020030D03*
X021261Y020030D03*
X021521Y020030D03*
X021771Y020030D03*
X022031Y020030D03*
X022281Y020030D03*
X022541Y020030D03*
X022801Y020030D03*
X023051Y020030D03*
X023311Y020030D03*
X023311Y017170D03*
X023051Y017170D03*
X022801Y017170D03*
X022541Y017170D03*
X022281Y017170D03*
X022031Y017170D03*
X021771Y017170D03*
X021521Y017170D03*
X021261Y017170D03*
X021001Y017170D03*
X020751Y017170D03*
X020491Y017170D03*
D30*
X033403Y025125D03*
X036750Y025125D03*
D31*
X037326Y029799D03*
X037326Y030901D03*
X030326Y038999D03*
X030326Y040101D03*
X033401Y042374D03*
X033401Y043476D03*
D32*
X034426Y043299D03*
X034426Y042551D03*
X034426Y041724D03*
X034426Y040976D03*
X034426Y039549D03*
X034426Y038801D03*
X034426Y037924D03*
X034426Y037176D03*
X035801Y032749D03*
X035801Y032001D03*
X032501Y032076D03*
X032501Y032824D03*
X032501Y031274D03*
X032501Y030526D03*
X041501Y023149D03*
X041501Y022401D03*
X036826Y018574D03*
X036826Y017826D03*
X036826Y016824D03*
X036826Y016076D03*
X014276Y008574D03*
X014276Y007826D03*
X011976Y007801D03*
X011976Y008549D03*
X007701Y010026D03*
X007701Y010774D03*
X007701Y011651D03*
X007701Y012399D03*
X007151Y035876D03*
X007151Y036624D03*
X007151Y037926D03*
X007151Y038674D03*
X005701Y040851D03*
X005701Y041599D03*
X009776Y039274D03*
X009776Y038526D03*
X009776Y037099D03*
X009776Y036351D03*
D33*
X006100Y038200D03*
X005352Y038200D03*
X008802Y013325D03*
X009550Y013325D03*
X009550Y011000D03*
X008802Y011000D03*
X011427Y004725D03*
X012175Y004725D03*
X025202Y004700D03*
X025950Y004700D03*
X029007Y010400D03*
X029676Y010400D03*
X030346Y010400D03*
X039777Y022275D03*
X040525Y022275D03*
X037025Y023650D03*
X036277Y023650D03*
X035475Y023650D03*
X034727Y023650D03*
X037852Y035525D03*
X038600Y035525D03*
X039752Y035525D03*
X040500Y035525D03*
D34*
X038826Y022075D03*
D35*
X039431Y023150D03*
X040572Y023150D03*
D36*
X037751Y018575D03*
X037751Y017775D03*
X037751Y016850D03*
X037751Y016050D03*
X038601Y016450D03*
X038601Y018175D03*
X036676Y032000D03*
X036676Y032800D03*
X037526Y032400D03*
X009551Y012675D03*
X009551Y011875D03*
X008701Y012275D03*
X009551Y010250D03*
X009551Y009450D03*
X008701Y009850D03*
X008926Y036425D03*
X008076Y036825D03*
X008926Y037225D03*
X008951Y038350D03*
X008951Y039150D03*
X008101Y038750D03*
D37*
X032576Y036925D03*
X032826Y036925D03*
D38*
X031076Y036925D03*
X030826Y036925D03*
D39*
X011181Y008545D03*
X011181Y007805D03*
X010321Y008175D03*
D40*
X036976Y037975D03*
D41*
X039476Y037475D03*
X039476Y041975D03*
D42*
X038276Y042776D03*
X038276Y036674D03*
D43*
X036853Y035600D03*
X035750Y035600D03*
D44*
X027206Y025885D03*
X027206Y025625D03*
X027206Y025375D03*
X027206Y025115D03*
X027206Y024855D03*
X027206Y024605D03*
X027206Y024345D03*
X027206Y024095D03*
X027206Y023835D03*
X027206Y023575D03*
X027206Y023325D03*
X027206Y023065D03*
X024346Y023065D03*
X024346Y023325D03*
X024346Y023575D03*
X024346Y023835D03*
X024346Y024095D03*
X024346Y024345D03*
X024346Y024605D03*
X024346Y024855D03*
X024346Y025115D03*
X024346Y025375D03*
X024346Y025625D03*
X024346Y025885D03*
X016831Y025975D03*
X016831Y025725D03*
X016831Y025465D03*
X016831Y026235D03*
X016831Y026495D03*
X016831Y026745D03*
X016831Y027005D03*
X016831Y027255D03*
X016831Y027515D03*
X016831Y027775D03*
X016831Y028025D03*
X016831Y028285D03*
X013971Y028285D03*
X013971Y028025D03*
X013971Y027775D03*
X013971Y027515D03*
X013971Y027255D03*
X013971Y027005D03*
X013971Y026745D03*
X013971Y026495D03*
X013971Y026235D03*
X013971Y025975D03*
X013971Y025725D03*
X013971Y025465D03*
X012996Y020235D03*
X012996Y019975D03*
X012996Y019725D03*
X012996Y019465D03*
X012996Y019205D03*
X012996Y018955D03*
X012996Y018695D03*
X012996Y018445D03*
X012996Y018185D03*
X012996Y017925D03*
X012996Y017675D03*
X012996Y017415D03*
X015856Y017415D03*
X015856Y017675D03*
X015856Y017925D03*
X015856Y018185D03*
X015856Y018445D03*
X015856Y018695D03*
X015856Y018955D03*
X015856Y019205D03*
X015856Y019465D03*
X015856Y019725D03*
X015856Y019975D03*
X015856Y020235D03*
D45*
X036526Y012905D03*
X036526Y011345D03*
D46*
X031826Y016195D03*
D47*
X031826Y024065D03*
D48*
X032051Y014850D03*
X031051Y014850D03*
X030051Y014850D03*
X029051Y014850D03*
X027051Y014850D03*
X026051Y014850D03*
X025051Y014850D03*
X024051Y014850D03*
X023051Y014850D03*
X022051Y014850D03*
X021051Y014850D03*
X020051Y014850D03*
X018051Y014850D03*
X017051Y014850D03*
X016051Y014850D03*
X015051Y014850D03*
X014051Y014850D03*
X013051Y014850D03*
X012051Y014850D03*
X011051Y014850D03*
X010051Y016850D03*
X009051Y016850D03*
X009051Y017850D03*
X009051Y018850D03*
X009051Y019850D03*
X009051Y020850D03*
X009051Y021850D03*
X009051Y022850D03*
X010051Y022850D03*
X010051Y021850D03*
X010051Y020850D03*
X010051Y019850D03*
X010051Y018850D03*
X010051Y017850D03*
X010051Y023850D03*
X009051Y023850D03*
X009051Y024850D03*
X009051Y025850D03*
X009051Y026850D03*
X009051Y027850D03*
X009051Y028850D03*
X009051Y029850D03*
X009051Y030850D03*
X009051Y031850D03*
X009051Y032850D03*
X010051Y032850D03*
X010051Y031850D03*
X010051Y030850D03*
X010051Y029850D03*
X010051Y028850D03*
X010051Y027850D03*
X010051Y026850D03*
X010051Y025850D03*
X010051Y024850D03*
X010051Y033850D03*
X009051Y033850D03*
X013051Y033850D03*
X014051Y033850D03*
X015051Y033850D03*
X016051Y033850D03*
X017051Y033850D03*
X018051Y033850D03*
X019051Y033850D03*
X020051Y033850D03*
X022051Y033850D03*
X023051Y033850D03*
X024051Y033850D03*
X025051Y033850D03*
X026051Y033850D03*
X027051Y033850D03*
X028051Y033850D03*
X029051Y033850D03*
X030651Y033850D03*
X031651Y033850D03*
X032651Y033850D03*
X033651Y033850D03*
X034651Y033850D03*
X035651Y033850D03*
X036651Y033850D03*
X037651Y033850D03*
X022051Y025850D03*
X021051Y025850D03*
X021051Y024850D03*
X022051Y024850D03*
X022051Y023850D03*
X033051Y014850D03*
X034051Y014850D03*
D49*
X021051Y023850D03*
D50*
X006101Y039075D03*
X005701Y039925D03*
X005301Y039075D03*
D51*
X031921Y043288D03*
D52*
X029126Y037875D03*
X030201Y032350D03*
X029626Y031925D03*
X031151Y031625D03*
X030201Y029325D03*
X029626Y027050D03*
X030201Y026550D03*
X029626Y024950D03*
X029626Y023700D03*
X028376Y019800D03*
X027826Y019350D03*
X025076Y026950D03*
X023426Y028850D03*
X020501Y028800D03*
X037901Y024250D03*
X035801Y009475D03*
X037226Y007800D03*
X037226Y007225D03*
X037226Y006650D03*
X037226Y006075D03*
X037226Y005500D03*
X033926Y005500D03*
X033926Y006075D03*
X033926Y006650D03*
X033926Y007225D03*
X033926Y007800D03*
X029576Y009000D03*
X007876Y008850D03*
D53*
X005677Y004850D03*
X041110Y004850D03*
M02*
