G75*
G70*
%OFA0B0*%
%FSLAX24Y24*%
%IPPOS*%
%LPD*%
%AMOC8*
5,1,8,0,0,1.08239X$1,22.5*
%
%ADD10R,0.1275X0.1700*%
%ADD11C,0.0120*%
%ADD12C,0.0140*%
%ADD13C,0.0760*%
%ADD14R,0.0671X0.0552*%
%ADD15R,0.0513X0.0474*%
%ADD16R,0.0671X0.0592*%
%ADD17R,0.0592X0.0671*%
%ADD18R,0.0789X0.0710*%
%ADD19R,0.0760X0.0270*%
%ADD20R,0.0218X0.0710*%
%ADD21R,0.1080X0.0300*%
%ADD22R,0.0474X0.0513*%
%ADD23C,0.0973*%
%ADD24C,0.2759*%
%ADD25R,0.0552X0.0671*%
%ADD26R,0.0830X0.0530*%
%ADD27R,0.1375X0.2125*%
%ADD28R,0.0690X0.0316*%
%ADD29R,0.0474X0.0631*%
%ADD30R,0.0631X0.0474*%
%ADD31R,0.0789X0.1340*%
%ADD32R,0.0300X0.0680*%
%ADD33R,0.0300X0.0600*%
%ADD34R,0.1060X0.0450*%
%ADD35R,0.2770X0.2850*%
%ADD36R,0.0828X0.1419*%
%ADD37R,0.0860X0.0300*%
%ADD38R,0.0674X0.0674*%
%ADD39OC8,0.0674*%
%ADD40R,0.1143X0.0710*%
%ADD41R,0.0710X0.0790*%
%ADD42R,0.2444X0.2365*%
%ADD43R,0.0749X0.0592*%
%ADD44R,0.1280X0.0680*%
%ADD45R,0.0260X0.0580*%
%ADD46R,0.1240X0.0770*%
%ADD47R,0.0710X0.0789*%
%ADD48R,0.1360X0.0380*%
%ADD49R,0.0710X0.1143*%
%ADD50R,0.0790X0.0710*%
%ADD51R,0.0552X0.0552*%
%ADD52R,0.0631X0.0631*%
%ADD53R,0.0220X0.0640*%
%ADD54C,0.1360*%
%ADD55OC8,0.1360*%
%ADD56R,0.2365X0.2444*%
%ADD57R,0.0592X0.0749*%
%ADD58R,0.0316X0.0690*%
%ADD59R,0.0540X0.0220*%
%ADD60R,0.0300X0.0580*%
%ADD61R,0.0946X0.0316*%
%ADD62C,0.1100*%
%ADD63R,0.0510X0.1680*%
%ADD64R,0.0946X0.0789*%
%ADD65R,0.0789X0.0946*%
%ADD66OC8,0.0946*%
%ADD67R,0.0516X0.0516*%
%ADD68R,0.1539X0.0909*%
%ADD69R,0.0909X0.1539*%
%ADD70R,0.0631X0.0907*%
%ADD71OC8,0.0640*%
%ADD72OC8,0.0600*%
%ADD73R,0.1939X0.1841*%
%ADD74C,0.1100*%
%ADD75R,0.1720X0.0550*%
%ADD76R,0.0516X0.0516*%
%ADD77C,0.2365*%
D10*
X048418Y012729D03*
D11*
X044381Y025504D02*
X044381Y026304D01*
D12*
X044356Y028579D02*
X044356Y029504D01*
X044131Y029504D02*
X044131Y028579D01*
D13*
X041706Y013804D02*
X039056Y013804D01*
X038681Y013429D01*
X038681Y009129D01*
D14*
X029776Y005429D03*
X029776Y004579D03*
X028635Y004579D03*
X028635Y005429D03*
X026926Y004704D03*
X025785Y004704D03*
X017526Y013279D03*
X017551Y014379D03*
X016410Y014379D03*
X016385Y013279D03*
X026635Y019454D03*
X027776Y019454D03*
X027751Y021829D03*
X026610Y021829D03*
X040785Y018004D03*
X041926Y018004D03*
D15*
X034956Y021669D03*
X034956Y022339D03*
X025965Y027029D03*
X025296Y027029D03*
X026221Y027879D03*
X026890Y027879D03*
X021565Y030154D03*
X020896Y030154D03*
X020265Y030154D03*
X019596Y030154D03*
X016515Y031429D03*
X015846Y031429D03*
X025046Y022454D03*
X025715Y022454D03*
X024215Y019604D03*
X023546Y019604D03*
X016815Y016454D03*
X016146Y016454D03*
X018121Y010204D03*
X018790Y010204D03*
X013965Y009154D03*
X013296Y009154D03*
D16*
X013881Y008028D03*
X014681Y008028D03*
X015481Y008028D03*
X015481Y007280D03*
X014681Y007280D03*
X013881Y007280D03*
X015481Y006478D03*
X015481Y005730D03*
X016306Y005730D03*
X016306Y006478D03*
X016306Y007280D03*
X016306Y008028D03*
X018731Y006928D03*
X018731Y006180D03*
X020381Y009730D03*
X020381Y010478D03*
X015531Y013355D03*
X015531Y014103D03*
X013131Y018555D03*
X013131Y019303D03*
X022431Y019185D03*
X022431Y019933D03*
X022431Y020730D03*
X022431Y021478D03*
X022431Y022630D03*
X022431Y023378D03*
X022706Y025255D03*
X023481Y025255D03*
X023481Y026003D03*
X022706Y026003D03*
X021931Y026003D03*
X021156Y026003D03*
X020381Y026003D03*
X019606Y026003D03*
X018831Y026003D03*
X018831Y025255D03*
X019606Y025255D03*
X020381Y025255D03*
X021156Y025255D03*
X021931Y025255D03*
X018081Y025255D03*
X018081Y026003D03*
X024481Y030605D03*
X024481Y031353D03*
X028206Y026028D03*
X028981Y026028D03*
X028981Y025280D03*
X028206Y025280D03*
X030381Y025280D03*
X030381Y026028D03*
X031156Y026028D03*
X031156Y025280D03*
X036606Y021728D03*
X036606Y020980D03*
X039931Y019678D03*
X039931Y018930D03*
X039931Y018128D03*
X039931Y017380D03*
X042656Y019005D03*
X042656Y019753D03*
X043431Y019753D03*
X043431Y019005D03*
X043431Y020555D03*
X043431Y021303D03*
X044206Y021530D03*
X044981Y021530D03*
X045756Y021530D03*
X046531Y021530D03*
X046531Y022278D03*
X045756Y022278D03*
X044981Y022278D03*
X044206Y022278D03*
X042656Y021303D03*
X042656Y020555D03*
X047506Y020255D03*
X047506Y021003D03*
X047831Y022210D03*
X047831Y022879D03*
X047831Y023548D03*
X042931Y024005D03*
X042156Y024005D03*
X042156Y024753D03*
X042931Y024753D03*
X041381Y024753D03*
X040606Y024753D03*
X039731Y025055D03*
X039731Y025803D03*
X040606Y024005D03*
X041381Y024005D03*
X043131Y026355D03*
X043131Y027103D03*
X043231Y028780D03*
X043231Y029528D03*
X046531Y029155D03*
X046531Y029903D03*
X047356Y029903D03*
X047356Y029155D03*
X038156Y029030D03*
X038156Y029778D03*
X035406Y030003D03*
X035406Y029255D03*
X025481Y014628D03*
X024706Y014628D03*
X024706Y013880D03*
X025481Y013880D03*
X028881Y011603D03*
X028881Y010855D03*
X029031Y007403D03*
X028131Y007428D03*
X028131Y006680D03*
X029031Y006655D03*
X029806Y006655D03*
X029806Y007403D03*
X039931Y012705D03*
X039931Y013453D03*
X040881Y012953D03*
X040881Y012205D03*
X044006Y009653D03*
X044006Y008905D03*
X055231Y008453D03*
X055231Y007705D03*
X007906Y007678D03*
X007131Y007678D03*
X007131Y006930D03*
X007906Y006930D03*
X007906Y008480D03*
X007131Y008480D03*
X007131Y009228D03*
X007906Y009228D03*
X008256Y028530D03*
X008256Y029278D03*
D17*
X010911Y026129D03*
X011581Y026129D03*
X012250Y026129D03*
X011155Y025179D03*
X010407Y025179D03*
X011357Y023454D03*
X012105Y023454D03*
X012105Y022679D03*
X011357Y022679D03*
X011582Y021154D03*
X012330Y021154D03*
X012330Y020104D03*
X011582Y020104D03*
X011582Y019329D03*
X012330Y019329D03*
X016707Y019879D03*
X017455Y019879D03*
X017455Y020729D03*
X016707Y020729D03*
X016707Y021574D03*
X017455Y021574D03*
X018482Y021574D03*
X019230Y021574D03*
X019230Y020729D03*
X018482Y020729D03*
X018482Y019878D03*
X019230Y019878D03*
X020457Y019879D03*
X021205Y019879D03*
X021205Y020729D03*
X020457Y020729D03*
X020457Y018954D03*
X021205Y018954D03*
X019230Y018729D03*
X018482Y018729D03*
X017455Y018729D03*
X016707Y018729D03*
X018657Y016154D03*
X019405Y016154D03*
X017309Y015198D03*
X016561Y015198D03*
X014230Y014104D03*
X013482Y014104D03*
X012680Y014104D03*
X011932Y014104D03*
X013482Y013304D03*
X014230Y013304D03*
X014186Y012378D03*
X014934Y012378D03*
X014882Y011229D03*
X015630Y011229D03*
X016432Y011229D03*
X017180Y011229D03*
X018107Y009429D03*
X018855Y009429D03*
X018855Y008661D03*
X018107Y008661D03*
X014030Y009942D03*
X013282Y009942D03*
X013288Y010723D03*
X014036Y010723D03*
X011080Y008454D03*
X010332Y008454D03*
X010332Y007679D03*
X011080Y007679D03*
X012032Y006704D03*
X012780Y006704D03*
X024032Y004679D03*
X024780Y004679D03*
X031032Y006979D03*
X031780Y006979D03*
X032582Y006979D03*
X033330Y006979D03*
X033330Y007754D03*
X032582Y007754D03*
X031780Y007754D03*
X031032Y007754D03*
X026305Y012879D03*
X025557Y012879D03*
X029007Y014579D03*
X029755Y014579D03*
X030557Y014579D03*
X031305Y014579D03*
X032182Y013204D03*
X032930Y013204D03*
X033757Y014629D03*
X034505Y014629D03*
X040057Y016329D03*
X040805Y016329D03*
X038155Y018704D03*
X037407Y018704D03*
X032705Y020679D03*
X031957Y020679D03*
X031957Y021454D03*
X032705Y021454D03*
X030580Y020129D03*
X029832Y020129D03*
X029832Y019354D03*
X030580Y019354D03*
X027505Y020279D03*
X026757Y020279D03*
X026757Y021054D03*
X027505Y021054D03*
X027705Y022629D03*
X026957Y022629D03*
X021205Y022554D03*
X020457Y022554D03*
X020457Y023404D03*
X021205Y023404D03*
X019230Y023404D03*
X018482Y023404D03*
X018482Y022554D03*
X019230Y022554D03*
X017455Y022554D03*
X016707Y022554D03*
X016707Y023404D03*
X017455Y023404D03*
X019432Y030929D03*
X020180Y030929D03*
X020982Y030929D03*
X021730Y030929D03*
X022532Y030929D03*
X023280Y030929D03*
X032257Y031179D03*
X033005Y031179D03*
X033807Y031179D03*
X034555Y031179D03*
X037207Y031154D03*
X037955Y031154D03*
X042257Y031704D03*
X043005Y031704D03*
X046107Y030779D03*
X046855Y030779D03*
X046907Y028104D03*
X047655Y028104D03*
X047655Y027329D03*
X046907Y027329D03*
X046907Y026304D03*
X047655Y026304D03*
X047655Y025529D03*
X046907Y025529D03*
X044955Y020729D03*
X044207Y020729D03*
X045557Y017204D03*
X046305Y017204D03*
X050782Y020154D03*
X051530Y020154D03*
X049780Y010879D03*
X049032Y010879D03*
X040530Y009954D03*
X039782Y009954D03*
X027605Y015104D03*
X026857Y015104D03*
X034107Y023229D03*
X034855Y023229D03*
X034405Y026329D03*
X033657Y026329D03*
X033357Y027829D03*
X034105Y027829D03*
D18*
X031431Y028353D03*
X031431Y029455D03*
X028456Y030003D03*
X028456Y031105D03*
X047406Y019255D03*
X047406Y018153D03*
X059431Y014180D03*
X060681Y014180D03*
X060681Y013078D03*
X059431Y013078D03*
D19*
X025336Y027599D03*
X025336Y027849D03*
X025336Y028109D03*
X025336Y028359D03*
X023576Y028359D03*
X023576Y028109D03*
X023576Y027849D03*
X023576Y027599D03*
D20*
X021466Y027177D03*
X021210Y027177D03*
X020955Y027177D03*
X020699Y027177D03*
X020443Y027177D03*
X020187Y027177D03*
X019931Y027177D03*
X019675Y027177D03*
X019675Y029381D03*
X019931Y029381D03*
X020187Y029381D03*
X020443Y029381D03*
X020699Y029381D03*
X020955Y029381D03*
X021210Y029381D03*
X021466Y029381D03*
D21*
X015861Y029354D03*
X015861Y029854D03*
X015861Y030354D03*
X015861Y030854D03*
X015861Y028854D03*
X015861Y028354D03*
X015861Y027854D03*
X015861Y027354D03*
X015861Y026854D03*
X012101Y026854D03*
X012101Y027354D03*
X012101Y027854D03*
X012101Y028354D03*
X012101Y028854D03*
X012101Y029354D03*
X012101Y029854D03*
X012101Y030354D03*
X012101Y030854D03*
D22*
X022081Y028539D03*
X022081Y027869D03*
X027856Y024189D03*
X027856Y023519D03*
X031981Y023444D03*
X031981Y024114D03*
X035946Y018954D03*
X036615Y018954D03*
X031440Y031129D03*
X030771Y031129D03*
X012506Y015864D03*
X012506Y015194D03*
D23*
X031036Y009897D02*
X031036Y009012D01*
X033236Y009012D02*
X033236Y009897D01*
X035436Y009897D02*
X035436Y009012D01*
D24*
X033236Y017055D03*
D25*
X027806Y012500D03*
X027806Y011358D03*
X027756Y009875D03*
X027756Y008733D03*
X020306Y011283D03*
X020306Y012425D03*
D26*
X022716Y013219D03*
X022716Y014129D03*
X022716Y015039D03*
X031046Y006014D03*
X031046Y005104D03*
X031046Y004194D03*
D27*
X033316Y005104D03*
X020446Y014129D03*
D28*
X015469Y014906D03*
X015469Y015406D03*
X015469Y015906D03*
X015469Y016406D03*
X013343Y016406D03*
X013343Y015906D03*
X013343Y015406D03*
X013343Y014906D03*
X015143Y010506D03*
X015143Y010006D03*
X015143Y009506D03*
X015143Y009006D03*
X017269Y009006D03*
X017269Y009506D03*
X017269Y010006D03*
X017269Y010506D03*
X023643Y020281D03*
X023643Y020781D03*
X023643Y021281D03*
X023643Y021781D03*
X025769Y021781D03*
X025769Y021281D03*
X025769Y020781D03*
X025769Y020281D03*
X032943Y024006D03*
X032943Y024506D03*
X032943Y025006D03*
X032943Y025506D03*
X035069Y025506D03*
X035069Y025006D03*
X035069Y024506D03*
X035069Y024006D03*
D29*
X041206Y019687D03*
X041580Y018821D03*
X040832Y018821D03*
X034530Y013637D03*
X033782Y013637D03*
X034156Y012771D03*
X031305Y013712D03*
X030557Y013712D03*
X029755Y013712D03*
X029007Y013712D03*
X029381Y012846D03*
X030931Y012846D03*
X019806Y007012D03*
X020180Y006146D03*
X019432Y006146D03*
X011556Y017521D03*
X011930Y018387D03*
X011182Y018387D03*
X011932Y024396D03*
X012680Y024396D03*
X012306Y025262D03*
D30*
X029789Y009778D03*
X029789Y009030D03*
X028923Y009404D03*
X022323Y004703D03*
X023189Y004329D03*
X022323Y003955D03*
X012789Y007530D03*
X011923Y007904D03*
X012789Y008278D03*
X009589Y007304D03*
X008723Y007678D03*
X008723Y006930D03*
D31*
X014878Y004429D03*
X017083Y004429D03*
X021153Y007904D03*
X023358Y007904D03*
X022828Y006079D03*
X025033Y006079D03*
X044528Y015004D03*
X046733Y015004D03*
D32*
X041606Y020429D03*
X040806Y020429D03*
X041206Y021279D03*
X032581Y014904D03*
X032981Y014054D03*
X032181Y014054D03*
D33*
X027601Y014334D03*
X026861Y014334D03*
X027231Y013474D03*
D34*
X022012Y011162D03*
X022012Y009362D03*
X047836Y014754D03*
X047836Y016554D03*
D35*
X050416Y015654D03*
X024592Y010262D03*
D36*
X035813Y013054D03*
X037348Y013054D03*
X037338Y009154D03*
X038873Y009154D03*
D37*
X034501Y028654D03*
X034501Y029154D03*
X034501Y029654D03*
X034501Y030154D03*
X032561Y030154D03*
X032561Y029654D03*
X032561Y029154D03*
X032561Y028654D03*
X027426Y029954D03*
X027426Y030454D03*
X027426Y030954D03*
X027426Y031454D03*
X025486Y031454D03*
X025486Y030954D03*
X025486Y030454D03*
X025486Y029954D03*
D38*
X009362Y023870D03*
D39*
X009362Y022870D03*
X010362Y022870D03*
X010362Y023870D03*
X010362Y021870D03*
X009362Y021870D03*
X009362Y020870D03*
X010362Y020870D03*
X010362Y019870D03*
X009362Y019870D03*
X009362Y018870D03*
X009362Y017870D03*
X010362Y017870D03*
X010362Y018870D03*
X010362Y016870D03*
X009362Y016870D03*
X009362Y015870D03*
X009362Y014870D03*
X010362Y014870D03*
X010362Y015870D03*
X010362Y013870D03*
X009362Y013870D03*
X009362Y012870D03*
X009362Y011870D03*
X010362Y011870D03*
X010362Y012870D03*
D40*
X037031Y029003D03*
X037031Y030105D03*
X044331Y013580D03*
X045606Y013580D03*
X046881Y013580D03*
X046881Y012478D03*
X045606Y012478D03*
X044331Y012478D03*
X045081Y009630D03*
X046356Y009630D03*
X046356Y008528D03*
X045081Y008528D03*
D41*
X047096Y010879D03*
X048215Y010879D03*
X045015Y031704D03*
X043896Y031704D03*
D42*
X051230Y012704D03*
D43*
X048694Y013604D03*
X048694Y011804D03*
D44*
X042431Y011864D03*
X042431Y010794D03*
X042431Y008814D03*
X042431Y013844D03*
D45*
X045289Y018124D03*
X045545Y018124D03*
X045801Y018124D03*
X046060Y018124D03*
X046316Y018124D03*
X046572Y018124D03*
X046572Y019884D03*
X046316Y019884D03*
X046060Y019884D03*
X045801Y019884D03*
X045545Y019884D03*
X045289Y019884D03*
D46*
X045931Y019004D03*
D47*
X039907Y011829D03*
X038804Y011829D03*
X039804Y010904D03*
X040907Y010904D03*
X059504Y011854D03*
X060607Y011854D03*
X027457Y028704D03*
X026354Y028704D03*
D48*
X036506Y026979D03*
X038406Y026979D03*
X038406Y023854D03*
X036506Y023854D03*
D49*
X039629Y026879D03*
X040732Y026879D03*
X043754Y024429D03*
X044857Y024429D03*
X045779Y024304D03*
X046882Y024304D03*
D50*
X057256Y027544D03*
X057256Y028664D03*
D51*
X036394Y031154D03*
X035567Y031154D03*
D52*
X039106Y030402D03*
X039106Y028906D03*
X043408Y030404D03*
X044904Y030404D03*
X034081Y022402D03*
X034081Y020906D03*
X036556Y018227D03*
X036556Y016731D03*
D53*
X043856Y026334D03*
X044116Y026334D03*
X044376Y026334D03*
X044626Y026334D03*
X044886Y026334D03*
X045136Y026334D03*
X045396Y026334D03*
X045656Y026334D03*
X045656Y028574D03*
X045396Y028574D03*
X045136Y028574D03*
X044886Y028574D03*
X044626Y028574D03*
X044376Y028574D03*
X044116Y028574D03*
X043856Y028574D03*
D54*
X059279Y024204D03*
X059254Y017054D03*
D55*
X062207Y017054D03*
X062232Y024204D03*
D56*
X055256Y023305D03*
X052006Y023305D03*
X052006Y027730D03*
X055256Y027730D03*
D57*
X056155Y025840D03*
X054356Y025840D03*
X052905Y025840D03*
X051106Y025840D03*
X051106Y030265D03*
X052905Y030265D03*
X054356Y030265D03*
X056155Y030265D03*
D58*
X038833Y021667D03*
X038333Y021667D03*
X037833Y021667D03*
X037333Y021667D03*
X037333Y019541D03*
X037833Y019541D03*
X038333Y019541D03*
X038833Y019541D03*
D59*
X025801Y024494D03*
X025801Y024754D03*
X025801Y025014D03*
X025061Y025014D03*
X025061Y024754D03*
X025061Y024494D03*
D60*
X014601Y022164D03*
X014231Y022164D03*
X013861Y022164D03*
X013861Y021144D03*
X014231Y021144D03*
X014601Y021144D03*
D61*
X028986Y021404D03*
X028986Y021904D03*
X028986Y022404D03*
X028986Y022904D03*
X028986Y023404D03*
X028986Y023904D03*
X028986Y024404D03*
X031026Y024404D03*
X031026Y023904D03*
X031026Y023404D03*
X031026Y022904D03*
X031026Y022404D03*
X031026Y021904D03*
X031026Y021404D03*
D62*
X061781Y029104D02*
X062781Y029104D01*
X062781Y031072D02*
X061781Y031072D01*
X061781Y008616D02*
X062781Y008616D01*
X062781Y006647D02*
X061781Y006647D01*
X061781Y004679D02*
X062781Y004679D01*
D63*
X039006Y004524D03*
X039006Y006984D03*
D64*
X059456Y006475D03*
X059456Y008483D03*
X059606Y029075D03*
X059606Y031083D03*
D65*
X010385Y010429D03*
X008377Y010429D03*
D66*
X011956Y011979D03*
X036531Y006804D03*
D67*
X036531Y004804D03*
X011956Y009979D03*
D68*
X055706Y006729D03*
D69*
X056331Y008229D03*
D70*
X041474Y028041D03*
X040687Y028041D03*
X040687Y030167D03*
X041474Y030167D03*
D71*
X052156Y020154D03*
D72*
X050156Y020154D03*
D73*
X049756Y009021D03*
X049756Y004879D03*
D74*
X057595Y010617D03*
X062516Y010617D03*
X062516Y018491D03*
X057595Y018491D03*
D75*
X045381Y005779D03*
X042181Y005779D03*
D76*
X042556Y005979D03*
X042956Y005979D03*
X042956Y005579D03*
X042556Y005579D03*
X037506Y009879D03*
X037506Y010304D03*
X037506Y010729D03*
X037081Y010729D03*
X037081Y010304D03*
X037081Y009879D03*
X036656Y009879D03*
X036656Y010304D03*
X036656Y010729D03*
X042956Y016254D03*
X043356Y016254D03*
X043756Y016254D03*
X043756Y016679D03*
X043356Y016679D03*
X042956Y016679D03*
X042956Y017104D03*
X043356Y017104D03*
X043756Y017104D03*
X026956Y006504D03*
X026956Y006079D03*
X026531Y006079D03*
X026531Y006504D03*
X026106Y006504D03*
X026106Y006079D03*
X026106Y005654D03*
X026531Y005654D03*
X026956Y005654D03*
X021756Y005654D03*
X021331Y005654D03*
X020906Y005654D03*
X020906Y006079D03*
X021331Y006079D03*
X021756Y006079D03*
X021756Y006504D03*
X021331Y006504D03*
X020906Y006504D03*
X018056Y004979D03*
X018056Y004604D03*
X018056Y004229D03*
X017631Y004229D03*
X017631Y004604D03*
X017631Y004979D03*
X014331Y004979D03*
X014331Y004604D03*
X014331Y004229D03*
X013906Y004229D03*
X013906Y004604D03*
X013906Y004979D03*
D77*
X009614Y004850D03*
X009614Y030834D03*
X048985Y030834D03*
X053709Y004850D03*
M02*
