G75*
G70*
%OFA0B0*%
%FSLAX24Y24*%
%IPPOS*%
%LPD*%
%AMOC8*
5,1,8,0,0,1.08239X$1,22.5*
%
%ADD10R,0.0591X0.0472*%
%ADD11R,0.0433X0.0394*%
%ADD12R,0.0591X0.0512*%
%ADD13R,0.0512X0.0591*%
%ADD14R,0.0709X0.0630*%
%ADD15R,0.0680X0.0190*%
%ADD16R,0.0138X0.0630*%
%ADD17R,0.1000X0.0220*%
%ADD18R,0.0394X0.0433*%
%ADD19C,0.0885*%
%ADD20R,0.0472X0.0591*%
%ADD21R,0.0750X0.0450*%
%ADD22R,0.1250X0.2000*%
%ADD23R,0.0610X0.0236*%
%ADD24R,0.0394X0.0551*%
%ADD25R,0.0551X0.0394*%
%ADD26R,0.0709X0.1260*%
%ADD27R,0.0220X0.0600*%
%ADD28R,0.0220X0.0520*%
%ADD29R,0.0980X0.0370*%
%ADD30R,0.2570X0.2650*%
%ADD31R,0.0748X0.1339*%
%ADD32R,0.0780X0.0220*%
%ADD33R,0.0594X0.0594*%
%ADD34OC8,0.0594*%
%ADD35R,0.1063X0.0630*%
%ADD36R,0.0630X0.0710*%
%ADD37R,0.2244X0.2165*%
%ADD38R,0.0669X0.0512*%
%ADD39R,0.1200X0.0600*%
%ADD40R,0.0180X0.0500*%
%ADD41R,0.1160X0.0690*%
%ADD42R,0.0630X0.0709*%
%ADD43R,0.1280X0.0300*%
%ADD44R,0.0630X0.1063*%
%ADD45R,0.0710X0.0630*%
%ADD46R,0.0472X0.0472*%
%ADD47R,0.0551X0.0551*%
%ADD48R,0.0140X0.0560*%
%ADD49C,0.1236*%
%ADD50OC8,0.1236*%
%ADD51R,0.2165X0.2244*%
%ADD52R,0.0512X0.0669*%
%ADD53R,0.0236X0.0610*%
%ADD54R,0.0460X0.0140*%
%ADD55R,0.0220X0.0500*%
%ADD56R,0.0866X0.0236*%
%ADD57C,0.1000*%
%ADD58R,0.0430X0.1600*%
%ADD59R,0.0866X0.0709*%
%ADD60R,0.0709X0.0866*%
%ADD61OC8,0.0860*%
%ADD62R,0.0436X0.0436*%
%ADD63R,0.1457X0.0827*%
%ADD64R,0.0827X0.1457*%
%ADD65R,0.0551X0.0827*%
%ADD66OC8,0.0560*%
%ADD67OC8,0.0520*%
%ADD68R,0.1772X0.1673*%
%ADD69C,0.1000*%
%ADD70R,0.1640X0.0470*%
%ADD71R,0.0396X0.0396*%
%ADD72OC8,0.0396*%
%ADD73C,0.0120*%
%ADD74C,0.0160*%
%ADD75C,0.0100*%
%ADD76C,0.0400*%
%ADD77C,0.0240*%
%ADD78C,0.0140*%
%ADD79C,0.0320*%
%ADD80R,0.0436X0.0436*%
%ADD81C,0.0200*%
%ADD82C,0.0660*%
%ADD83C,0.2165*%
%ADD84C,0.0500*%
%ADD85C,0.1200*%
%ADD86C,0.0180*%
%ADD87C,0.0080*%
%ADD88C,0.0560*%
D10*
X016778Y013279D03*
X016803Y014379D03*
X017945Y014379D03*
X017920Y013279D03*
X027028Y019454D03*
X028170Y019454D03*
X028145Y021829D03*
X027003Y021829D03*
X041178Y018004D03*
X042320Y018004D03*
X030170Y005429D03*
X030170Y004579D03*
X029028Y004579D03*
X029028Y005429D03*
X027320Y004704D03*
X026178Y004704D03*
D11*
X019184Y010204D03*
X018515Y010204D03*
X014359Y009154D03*
X013690Y009154D03*
X016540Y016454D03*
X017209Y016454D03*
X023940Y019604D03*
X024609Y019604D03*
X025440Y022454D03*
X026109Y022454D03*
X026359Y027029D03*
X025690Y027029D03*
X026615Y027879D03*
X027284Y027879D03*
X021959Y030154D03*
X021290Y030154D03*
X020659Y030154D03*
X019990Y030154D03*
X016909Y031429D03*
X016240Y031429D03*
X035349Y022339D03*
X035349Y021669D03*
D12*
X036999Y021728D03*
X036999Y020980D03*
X040324Y019678D03*
X040324Y018930D03*
X040324Y018128D03*
X040324Y017380D03*
X043049Y019005D03*
X043824Y019005D03*
X043824Y019753D03*
X043049Y019753D03*
X043049Y020555D03*
X043824Y020555D03*
X043824Y021303D03*
X043049Y021303D03*
X044599Y021530D03*
X045374Y021530D03*
X046149Y021530D03*
X046149Y022278D03*
X045374Y022278D03*
X044599Y022278D03*
X046924Y022278D03*
X046924Y021530D03*
X047899Y021003D03*
X047899Y020255D03*
X048224Y022210D03*
X048224Y022879D03*
X048224Y023548D03*
X043324Y024005D03*
X042549Y024005D03*
X041774Y024005D03*
X040999Y024005D03*
X040999Y024753D03*
X041774Y024753D03*
X042549Y024753D03*
X043324Y024753D03*
X043524Y026355D03*
X043524Y027103D03*
X043624Y028780D03*
X043624Y029528D03*
X046924Y029155D03*
X047749Y029155D03*
X047749Y029903D03*
X046924Y029903D03*
X040124Y025803D03*
X040124Y025055D03*
X038549Y029030D03*
X038549Y029778D03*
X035799Y030003D03*
X035799Y029255D03*
X031549Y026028D03*
X030774Y026028D03*
X030774Y025280D03*
X031549Y025280D03*
X029374Y025280D03*
X029374Y026028D03*
X028599Y026028D03*
X028599Y025280D03*
X023874Y025255D03*
X023099Y025255D03*
X022324Y025255D03*
X021549Y025255D03*
X021549Y026003D03*
X022324Y026003D03*
X023099Y026003D03*
X023874Y026003D03*
X020774Y026003D03*
X019999Y026003D03*
X019224Y026003D03*
X018474Y026003D03*
X018474Y025255D03*
X019224Y025255D03*
X019999Y025255D03*
X020774Y025255D03*
X022824Y023378D03*
X022824Y022630D03*
X022824Y021478D03*
X022824Y020730D03*
X022824Y019933D03*
X022824Y019185D03*
X025099Y014628D03*
X025874Y014628D03*
X025874Y013880D03*
X025099Y013880D03*
X029274Y011603D03*
X029274Y010855D03*
X029424Y007403D03*
X030199Y007403D03*
X030199Y006655D03*
X029424Y006655D03*
X028524Y006680D03*
X028524Y007428D03*
X020774Y009730D03*
X020774Y010478D03*
X016699Y008028D03*
X015874Y008028D03*
X015074Y008028D03*
X015074Y007280D03*
X015874Y007280D03*
X016699Y007280D03*
X016699Y006478D03*
X015874Y006478D03*
X015874Y005730D03*
X016699Y005730D03*
X019124Y006180D03*
X019124Y006928D03*
X014274Y007280D03*
X014274Y008028D03*
X008299Y007678D03*
X007524Y007678D03*
X007524Y006930D03*
X008299Y006930D03*
X008299Y008480D03*
X007524Y008480D03*
X007524Y009228D03*
X008299Y009228D03*
X015924Y013355D03*
X015924Y014103D03*
X013524Y018555D03*
X013524Y019303D03*
X008649Y028530D03*
X008649Y029278D03*
X024874Y030605D03*
X024874Y031353D03*
X040324Y013453D03*
X040324Y012705D03*
X041274Y012953D03*
X041274Y012205D03*
X044399Y009653D03*
X044399Y008905D03*
X055624Y008453D03*
X055624Y007705D03*
D13*
X050173Y010879D03*
X049425Y010879D03*
X040923Y009954D03*
X040175Y009954D03*
X033723Y007754D03*
X032975Y007754D03*
X032173Y007754D03*
X031425Y007754D03*
X031425Y006979D03*
X032173Y006979D03*
X032975Y006979D03*
X033723Y006979D03*
X025173Y004679D03*
X024425Y004679D03*
X019248Y008661D03*
X018500Y008661D03*
X018500Y009429D03*
X019248Y009429D03*
X017573Y011229D03*
X016825Y011229D03*
X016023Y011229D03*
X015275Y011229D03*
X014430Y010723D03*
X013682Y010723D03*
X013675Y009942D03*
X014423Y009942D03*
X011473Y008454D03*
X010725Y008454D03*
X010725Y007679D03*
X011473Y007679D03*
X012425Y006704D03*
X013173Y006704D03*
X014579Y012378D03*
X015327Y012378D03*
X014623Y013304D03*
X013875Y013304D03*
X013875Y014104D03*
X014623Y014104D03*
X013073Y014104D03*
X012325Y014104D03*
X016954Y015198D03*
X017702Y015198D03*
X019050Y016154D03*
X019798Y016154D03*
X019623Y018729D03*
X018875Y018729D03*
X017848Y018729D03*
X017100Y018729D03*
X017100Y019879D03*
X017848Y019879D03*
X017848Y020729D03*
X017100Y020729D03*
X017100Y021574D03*
X017848Y021574D03*
X018875Y021574D03*
X019623Y021574D03*
X019623Y020729D03*
X018875Y020729D03*
X018875Y019878D03*
X019623Y019878D03*
X020850Y019879D03*
X021598Y019879D03*
X021598Y020729D03*
X020850Y020729D03*
X020850Y018954D03*
X021598Y018954D03*
X027150Y020279D03*
X027898Y020279D03*
X027898Y021054D03*
X027150Y021054D03*
X027350Y022629D03*
X028098Y022629D03*
X030225Y020129D03*
X030973Y020129D03*
X030973Y019354D03*
X030225Y019354D03*
X032350Y020679D03*
X033098Y020679D03*
X033098Y021454D03*
X032350Y021454D03*
X034500Y023229D03*
X035248Y023229D03*
X034798Y026329D03*
X034050Y026329D03*
X033750Y027829D03*
X034498Y027829D03*
X034200Y031179D03*
X034948Y031179D03*
X033398Y031179D03*
X032650Y031179D03*
X037600Y031154D03*
X038348Y031154D03*
X042650Y031704D03*
X043398Y031704D03*
X046500Y030779D03*
X047248Y030779D03*
X047300Y028104D03*
X048048Y028104D03*
X048048Y027329D03*
X047300Y027329D03*
X047300Y026304D03*
X048048Y026304D03*
X048048Y025529D03*
X047300Y025529D03*
X045348Y020729D03*
X044600Y020729D03*
X045950Y017204D03*
X046698Y017204D03*
X051175Y020154D03*
X051923Y020154D03*
X041198Y016329D03*
X040450Y016329D03*
X038548Y018704D03*
X037800Y018704D03*
X034898Y014629D03*
X034150Y014629D03*
X033323Y013204D03*
X032575Y013204D03*
X031698Y014579D03*
X030950Y014579D03*
X030148Y014579D03*
X029400Y014579D03*
X027998Y015104D03*
X027250Y015104D03*
X026698Y012879D03*
X025950Y012879D03*
X012723Y019329D03*
X011975Y019329D03*
X011975Y020104D03*
X012723Y020104D03*
X012723Y021154D03*
X011975Y021154D03*
X011750Y022679D03*
X012498Y022679D03*
X012498Y023454D03*
X011750Y023454D03*
X011548Y025179D03*
X010800Y025179D03*
X011305Y026129D03*
X011974Y026129D03*
X012644Y026129D03*
X017100Y023404D03*
X017848Y023404D03*
X017848Y022554D03*
X017100Y022554D03*
X018875Y022554D03*
X019623Y022554D03*
X019623Y023404D03*
X018875Y023404D03*
X020850Y023404D03*
X021598Y023404D03*
X021598Y022554D03*
X020850Y022554D03*
X020573Y030929D03*
X019825Y030929D03*
X021375Y030929D03*
X022123Y030929D03*
X022925Y030929D03*
X023673Y030929D03*
D14*
X028849Y031105D03*
X028849Y030003D03*
X031824Y029455D03*
X031824Y028353D03*
X047799Y019255D03*
X047799Y018153D03*
X059824Y014180D03*
X061074Y014180D03*
X061074Y013078D03*
X059824Y013078D03*
D15*
X025729Y027599D03*
X025729Y027849D03*
X025729Y028109D03*
X025729Y028359D03*
X023969Y028359D03*
X023969Y028109D03*
X023969Y027849D03*
X023969Y027599D03*
D16*
X021860Y027177D03*
X021604Y027177D03*
X021348Y027177D03*
X021092Y027177D03*
X020836Y027177D03*
X020581Y027177D03*
X020325Y027177D03*
X020069Y027177D03*
X020069Y029381D03*
X020325Y029381D03*
X020581Y029381D03*
X020836Y029381D03*
X021092Y029381D03*
X021348Y029381D03*
X021604Y029381D03*
X021860Y029381D03*
D17*
X016254Y029354D03*
X016254Y029854D03*
X016254Y030354D03*
X016254Y030854D03*
X016254Y028854D03*
X016254Y028354D03*
X016254Y027854D03*
X016254Y027354D03*
X016254Y026854D03*
X012494Y026854D03*
X012494Y027354D03*
X012494Y027854D03*
X012494Y028354D03*
X012494Y028854D03*
X012494Y029354D03*
X012494Y029854D03*
X012494Y030354D03*
X012494Y030854D03*
D18*
X022474Y028539D03*
X022474Y027869D03*
X028249Y024189D03*
X028249Y023519D03*
X032374Y023444D03*
X032374Y024114D03*
X036340Y018954D03*
X037009Y018954D03*
X031834Y031129D03*
X031165Y031129D03*
X012899Y015864D03*
X012899Y015194D03*
D19*
X031430Y009897D02*
X031430Y009012D01*
X033630Y009012D02*
X033630Y009897D01*
X035830Y009897D02*
X035830Y009012D01*
D20*
X028149Y008733D03*
X028149Y009875D03*
X028199Y011358D03*
X028199Y012500D03*
X020699Y012425D03*
X020699Y011283D03*
D21*
X023109Y013219D03*
X023109Y014129D03*
X023109Y015039D03*
X031439Y006014D03*
X031439Y005104D03*
X031439Y004194D03*
D22*
X033709Y005104D03*
X020839Y014129D03*
D23*
X015862Y014906D03*
X015862Y015406D03*
X015862Y015906D03*
X015862Y016406D03*
X013736Y016406D03*
X013736Y015906D03*
X013736Y015406D03*
X013736Y014906D03*
X015536Y010506D03*
X015536Y010006D03*
X015536Y009506D03*
X015536Y009006D03*
X017662Y009006D03*
X017662Y009506D03*
X017662Y010006D03*
X017662Y010506D03*
X024036Y020281D03*
X024036Y020781D03*
X024036Y021281D03*
X024036Y021781D03*
X026162Y021781D03*
X026162Y021281D03*
X026162Y020781D03*
X026162Y020281D03*
X033336Y024006D03*
X033336Y024506D03*
X033336Y025006D03*
X033336Y025506D03*
X035462Y025506D03*
X035462Y025006D03*
X035462Y024506D03*
X035462Y024006D03*
D24*
X041599Y019687D03*
X041225Y018821D03*
X041973Y018821D03*
X034923Y013637D03*
X034175Y013637D03*
X034549Y012771D03*
X031698Y013712D03*
X030950Y013712D03*
X030148Y013712D03*
X029400Y013712D03*
X029774Y012846D03*
X031324Y012846D03*
X020199Y007012D03*
X019825Y006146D03*
X020573Y006146D03*
X011949Y017521D03*
X011575Y018387D03*
X012323Y018387D03*
X012325Y024396D03*
X013073Y024396D03*
X012699Y025262D03*
D25*
X030182Y009778D03*
X029316Y009404D03*
X030182Y009030D03*
X023582Y004329D03*
X022716Y004703D03*
X022716Y003955D03*
X013182Y007530D03*
X013182Y008278D03*
X012316Y007904D03*
X009982Y007304D03*
X009116Y007678D03*
X009116Y006930D03*
D26*
X015272Y004429D03*
X017477Y004429D03*
X021547Y007904D03*
X023752Y007904D03*
X023222Y006079D03*
X025427Y006079D03*
X044922Y015004D03*
X047127Y015004D03*
D27*
X041999Y020429D03*
X041199Y020429D03*
X041599Y021279D03*
X032974Y014904D03*
X032574Y014054D03*
X033374Y014054D03*
D28*
X027994Y014334D03*
X027254Y014334D03*
X027624Y013474D03*
D29*
X022406Y011162D03*
X022406Y009362D03*
X048229Y014754D03*
X048229Y016554D03*
D30*
X050809Y015654D03*
X024986Y010262D03*
D31*
X036207Y013054D03*
X037742Y013054D03*
X037732Y009154D03*
X039267Y009154D03*
D32*
X034894Y028654D03*
X034894Y029154D03*
X034894Y029654D03*
X034894Y030154D03*
X032954Y030154D03*
X032954Y029654D03*
X032954Y029154D03*
X032954Y028654D03*
X027819Y029954D03*
X027819Y030454D03*
X027819Y030954D03*
X027819Y031454D03*
X025879Y031454D03*
X025879Y030954D03*
X025879Y030454D03*
X025879Y029954D03*
D33*
X009756Y023870D03*
D34*
X010756Y023870D03*
X010756Y022870D03*
X009756Y022870D03*
X009756Y021870D03*
X010756Y021870D03*
X010756Y020870D03*
X009756Y020870D03*
X009756Y019870D03*
X010756Y019870D03*
X010756Y018870D03*
X009756Y018870D03*
X009756Y017870D03*
X010756Y017870D03*
X010756Y016870D03*
X009756Y016870D03*
X009756Y015870D03*
X010756Y015870D03*
X010756Y014870D03*
X009756Y014870D03*
X009756Y013870D03*
X010756Y013870D03*
X010756Y012870D03*
X009756Y012870D03*
X009756Y011870D03*
X010756Y011870D03*
D35*
X037424Y029003D03*
X037424Y030105D03*
X044724Y013580D03*
X045999Y013580D03*
X047274Y013580D03*
X047274Y012478D03*
X045999Y012478D03*
X044724Y012478D03*
X045474Y009630D03*
X046749Y009630D03*
X046749Y008528D03*
X045474Y008528D03*
D36*
X047489Y010879D03*
X048609Y010879D03*
X045409Y031704D03*
X044289Y031704D03*
D37*
X051623Y012704D03*
D38*
X049088Y013604D03*
X049088Y011804D03*
D39*
X042824Y011864D03*
X042824Y010794D03*
X042824Y008814D03*
X042824Y013844D03*
D40*
X045683Y018124D03*
X045938Y018124D03*
X046194Y018124D03*
X046454Y018124D03*
X046710Y018124D03*
X046966Y018124D03*
X046966Y019884D03*
X046710Y019884D03*
X046454Y019884D03*
X046194Y019884D03*
X045938Y019884D03*
X045683Y019884D03*
D41*
X046324Y019004D03*
D42*
X040300Y011829D03*
X039198Y011829D03*
X040198Y010904D03*
X041300Y010904D03*
X059898Y011854D03*
X061000Y011854D03*
X027850Y028704D03*
X026748Y028704D03*
D43*
X036899Y026979D03*
X038799Y026979D03*
X038799Y023854D03*
X036899Y023854D03*
D44*
X040023Y026879D03*
X041125Y026879D03*
X044148Y024429D03*
X045250Y024429D03*
X046173Y024304D03*
X047275Y024304D03*
D45*
X057649Y027544D03*
X057649Y028664D03*
D46*
X036788Y031154D03*
X035961Y031154D03*
D47*
X039499Y030402D03*
X039499Y028906D03*
X043801Y030404D03*
X045297Y030404D03*
X034474Y022402D03*
X034474Y020906D03*
X036949Y018227D03*
X036949Y016731D03*
D48*
X044249Y026334D03*
X044509Y026334D03*
X044769Y026334D03*
X045019Y026334D03*
X045279Y026334D03*
X045529Y026334D03*
X045789Y026334D03*
X046049Y026334D03*
X046049Y028574D03*
X045789Y028574D03*
X045529Y028574D03*
X045279Y028574D03*
X045019Y028574D03*
X044769Y028574D03*
X044509Y028574D03*
X044249Y028574D03*
D49*
X059673Y024204D03*
X059648Y017054D03*
D50*
X062601Y017054D03*
X062626Y024204D03*
D51*
X055649Y023305D03*
X052399Y023305D03*
X052399Y027730D03*
X055649Y027730D03*
D52*
X054750Y025840D03*
X056549Y025840D03*
X053299Y025840D03*
X051500Y025840D03*
X051500Y030265D03*
X053299Y030265D03*
X054750Y030265D03*
X056549Y030265D03*
D53*
X039226Y021667D03*
X038726Y021667D03*
X038226Y021667D03*
X037726Y021667D03*
X037726Y019541D03*
X038226Y019541D03*
X038726Y019541D03*
X039226Y019541D03*
D54*
X026194Y024494D03*
X026194Y024754D03*
X026194Y025014D03*
X025454Y025014D03*
X025454Y024754D03*
X025454Y024494D03*
D55*
X014994Y022164D03*
X014624Y022164D03*
X014254Y022164D03*
X014254Y021144D03*
X014624Y021144D03*
X014994Y021144D03*
D56*
X029379Y021404D03*
X029379Y021904D03*
X029379Y022404D03*
X029379Y022904D03*
X029379Y023404D03*
X029379Y023904D03*
X029379Y024404D03*
X031419Y024404D03*
X031419Y023904D03*
X031419Y023404D03*
X031419Y022904D03*
X031419Y022404D03*
X031419Y021904D03*
X031419Y021404D03*
D57*
X059999Y029075D02*
X062689Y029075D01*
X063174Y029104D02*
X062174Y029104D01*
X062174Y031072D02*
X063174Y031072D01*
X062728Y031083D02*
X059999Y031083D01*
X062174Y008616D02*
X063174Y008616D01*
X063174Y006647D02*
X062174Y006647D01*
X062174Y004679D02*
X063174Y004679D01*
D58*
X039399Y004524D03*
X039399Y006984D03*
D59*
X059849Y006475D03*
X059849Y008483D03*
X059999Y029075D03*
X059999Y031083D03*
D60*
X010778Y010429D03*
X008770Y010429D03*
D61*
X012349Y011979D03*
X036924Y006804D03*
D62*
X036924Y004804D03*
X012349Y009979D03*
D63*
X056099Y006729D03*
D64*
X056724Y008229D03*
D65*
X041868Y028041D03*
X041081Y028041D03*
X041081Y030167D03*
X041868Y030167D03*
D66*
X052549Y020154D03*
D67*
X050549Y020154D03*
D68*
X050149Y009021D03*
X050149Y004879D03*
D69*
X057989Y010617D03*
X062910Y010617D03*
X062910Y018491D03*
X057989Y018491D03*
D70*
X045774Y005779D03*
X042574Y005779D03*
D71*
X039799Y004954D03*
X039799Y004604D03*
X039799Y004254D03*
X030974Y007754D03*
X026174Y008979D03*
X025674Y008979D03*
X025674Y009479D03*
X025674Y009979D03*
X025674Y010479D03*
X025674Y010979D03*
X026174Y010979D03*
X026174Y010479D03*
X026174Y009979D03*
X026174Y009479D03*
X026174Y011479D03*
X025674Y011479D03*
X020374Y013179D03*
X019899Y013179D03*
X019899Y013654D03*
X019899Y014129D03*
X019899Y014604D03*
X019899Y015079D03*
X020374Y015079D03*
X020374Y014604D03*
X020374Y014129D03*
X020374Y013654D03*
X019574Y010204D03*
X019699Y009429D03*
X019699Y008679D03*
X014299Y008429D03*
X013699Y008779D03*
X013249Y009979D03*
X013249Y010779D03*
X010774Y011029D03*
X010774Y009829D03*
X008249Y010154D03*
X008249Y010529D03*
X014299Y003879D03*
X014724Y003879D03*
X018024Y003879D03*
X018449Y003879D03*
X033074Y014054D03*
X036949Y016304D03*
X038974Y018729D03*
X038474Y020604D03*
X036999Y020554D03*
X034024Y020879D03*
X033099Y021929D03*
X034074Y023204D03*
X032374Y024529D03*
X033349Y025804D03*
X034049Y026819D03*
X032849Y028354D03*
X031299Y028354D03*
X027849Y029254D03*
X027124Y030504D03*
X024874Y030154D03*
X022324Y030079D03*
X019674Y029779D03*
X017174Y031129D03*
X013174Y029079D03*
X013174Y026854D03*
X013424Y024404D03*
X012899Y022654D03*
X019224Y024804D03*
X020774Y024804D03*
X022324Y024804D03*
X023724Y024804D03*
X026174Y025279D03*
X028249Y024579D03*
X025449Y022829D03*
X022024Y020729D03*
X025024Y019604D03*
X031024Y018904D03*
X037249Y023554D03*
X037249Y024204D03*
X039609Y025054D03*
X040934Y023579D03*
X041334Y023579D03*
X041734Y023579D03*
X042574Y023579D03*
X043964Y023754D03*
X044314Y023754D03*
X044799Y026954D03*
X045274Y026954D03*
X045749Y026954D03*
X045749Y027454D03*
X045274Y027454D03*
X044799Y027454D03*
X044799Y027954D03*
X045274Y027954D03*
X045749Y027954D03*
X043524Y027554D03*
X042309Y027854D03*
X042309Y028254D03*
X038549Y028604D03*
X038349Y027304D03*
X038349Y026654D03*
X035799Y028829D03*
X034949Y030704D03*
X038774Y031079D03*
X027674Y027879D03*
X026749Y027054D03*
X023974Y027329D03*
X022474Y027479D03*
X045289Y019304D03*
X045289Y018904D03*
X045689Y018904D03*
X045689Y019304D03*
X046089Y019304D03*
X046089Y018904D03*
X046489Y018904D03*
X046489Y019304D03*
X046889Y019304D03*
X046889Y018904D03*
X048314Y019254D03*
X051574Y022379D03*
X051574Y022804D03*
X051574Y023229D03*
X051574Y023654D03*
X051999Y023654D03*
X051999Y023229D03*
X051999Y022804D03*
X051999Y022379D03*
X052424Y022379D03*
X052424Y022804D03*
X052424Y023229D03*
X052424Y023654D03*
X052849Y023654D03*
X052849Y023229D03*
X052849Y022804D03*
X052849Y022379D03*
X053274Y022379D03*
X053274Y022804D03*
X053274Y023229D03*
X053274Y023654D03*
X054799Y023704D03*
X054799Y023279D03*
X054799Y022854D03*
X054799Y022429D03*
X055224Y022429D03*
X055224Y022854D03*
X055224Y023279D03*
X055224Y023704D03*
X055649Y023704D03*
X055649Y023279D03*
X055649Y022854D03*
X055649Y022429D03*
X056074Y022429D03*
X056074Y022854D03*
X056074Y023279D03*
X056074Y023704D03*
X056499Y023704D03*
X056499Y023279D03*
X056499Y022854D03*
X056499Y022429D03*
X056499Y026854D03*
X056074Y026854D03*
X055649Y026854D03*
X055224Y026854D03*
X054799Y026854D03*
X054799Y027279D03*
X055224Y027279D03*
X055649Y027279D03*
X056074Y027279D03*
X056499Y027279D03*
X056499Y027704D03*
X056074Y027704D03*
X055649Y027704D03*
X055224Y027704D03*
X054799Y027704D03*
X054799Y028129D03*
X055224Y028129D03*
X055649Y028129D03*
X056074Y028129D03*
X056499Y028129D03*
X053249Y028129D03*
X052824Y028129D03*
X052399Y028129D03*
X051974Y028129D03*
X051549Y028129D03*
X051549Y027704D03*
X051974Y027704D03*
X052399Y027704D03*
X052824Y027704D03*
X053249Y027704D03*
X053249Y027279D03*
X052824Y027279D03*
X052399Y027279D03*
X051974Y027279D03*
X051549Y027279D03*
X051549Y026854D03*
X051974Y026854D03*
X052399Y026854D03*
X052824Y026854D03*
X053249Y026854D03*
X061639Y016179D03*
X061639Y015804D03*
X061639Y015429D03*
X061639Y015054D03*
X057114Y014129D03*
X052549Y014129D03*
X052549Y014504D03*
X052149Y014504D03*
X052149Y014129D03*
X051749Y014129D03*
X051749Y014504D03*
X051349Y014504D03*
X051349Y014129D03*
X050949Y014129D03*
X050949Y014504D03*
X050549Y014504D03*
X050549Y014129D03*
X050149Y014129D03*
X050149Y014504D03*
X049749Y014504D03*
X049749Y014129D03*
X050524Y013704D03*
X050124Y013304D03*
X050524Y012904D03*
X050124Y012504D03*
X050924Y012504D03*
X051324Y012904D03*
X050924Y013304D03*
X051324Y013704D03*
X051724Y013304D03*
X052099Y013704D03*
X052499Y013304D03*
X052099Y012904D03*
X051724Y012504D03*
X052499Y012504D03*
X052099Y012104D03*
X051724Y011704D03*
X052099Y011304D03*
X052499Y011704D03*
X051324Y012104D03*
X050924Y011704D03*
X050524Y012104D03*
X050124Y011704D03*
X050524Y011304D03*
X051324Y011304D03*
X051324Y010154D03*
X050949Y010154D03*
X050549Y010154D03*
X050174Y010154D03*
X049774Y010154D03*
X049399Y010154D03*
X048999Y010154D03*
X048999Y009754D03*
X048999Y009379D03*
X048999Y008979D03*
X048999Y008579D03*
X051324Y008554D03*
X051324Y008954D03*
X051324Y009354D03*
X051324Y009754D03*
X051724Y009754D03*
X051724Y010154D03*
X051724Y009354D03*
X051724Y008954D03*
X051724Y008554D03*
X046874Y010719D03*
X046474Y010719D03*
X046074Y010719D03*
X045674Y010719D03*
X045674Y011119D03*
X045674Y011519D03*
X046074Y011519D03*
X046074Y011119D03*
X046474Y011119D03*
X046474Y011519D03*
X046874Y011519D03*
X046874Y011119D03*
X037199Y012879D03*
X037199Y013254D03*
D72*
X035549Y014954D03*
X037624Y015779D03*
X033099Y018954D03*
X031699Y018404D03*
X031824Y016979D03*
X031374Y016454D03*
X030549Y016979D03*
X030124Y016179D03*
X028699Y016179D03*
X028549Y016979D03*
X028849Y017479D03*
X027074Y016979D03*
X025824Y016454D03*
X024899Y016979D03*
X024149Y017479D03*
X025699Y017979D03*
X026674Y018479D03*
X027449Y019279D03*
X029649Y020829D03*
X030299Y020704D03*
X031049Y021104D03*
X031699Y020129D03*
X033099Y020229D03*
X033674Y021554D03*
X034724Y020204D03*
X030599Y022404D03*
X030849Y022904D03*
X030174Y023379D03*
X028574Y023404D03*
X026149Y022829D03*
X025674Y023429D03*
X024849Y023204D03*
X025649Y024229D03*
X024824Y024254D03*
X024549Y025029D03*
X025424Y025254D03*
X025174Y026154D03*
X022999Y026354D03*
X021724Y026304D03*
X023049Y024829D03*
X019999Y024829D03*
X018474Y024654D03*
X017499Y024504D03*
X017374Y025679D03*
X015824Y025679D03*
X014874Y025679D03*
X014149Y025754D03*
X014149Y026504D03*
X015074Y027329D03*
X015449Y027879D03*
X015099Y028979D03*
X014749Y029354D03*
X014399Y029879D03*
X013374Y031304D03*
X012449Y031504D03*
X017224Y030379D03*
X018124Y030479D03*
X017724Y031104D03*
X017374Y029879D03*
X018474Y029354D03*
X018849Y028979D03*
X019224Y028629D03*
X020924Y028654D03*
X021449Y028104D03*
X021974Y028104D03*
X022674Y029304D03*
X023524Y029929D03*
X023174Y030304D03*
X023799Y028629D03*
X026724Y029304D03*
X028849Y027329D03*
X029549Y026404D03*
X030724Y026529D03*
X034799Y026979D03*
X036574Y028179D03*
X037849Y028179D03*
X041249Y028754D03*
X045524Y029154D03*
X046874Y027229D03*
X040349Y023129D03*
X043824Y021729D03*
X045949Y021079D03*
X046649Y020654D03*
X042674Y019754D03*
X040324Y020429D03*
X046099Y015979D03*
X046474Y015004D03*
X041874Y010354D03*
X031849Y012279D03*
X028549Y013529D03*
X025824Y015054D03*
X026699Y015204D03*
X028424Y015204D03*
X031674Y015129D03*
X027499Y011554D03*
X029074Y008504D03*
X028524Y007829D03*
X027474Y007254D03*
X028524Y006254D03*
X020649Y007854D03*
X019649Y007854D03*
X018574Y008179D03*
X016324Y009379D03*
X017174Y010004D03*
X014324Y011179D03*
X014824Y011804D03*
X016349Y012629D03*
X017474Y012629D03*
X018574Y014454D03*
X018699Y015204D03*
X017774Y016479D03*
X017274Y016979D03*
X016599Y016104D03*
X016049Y016979D03*
X015024Y016979D03*
X015149Y016129D03*
X014149Y016979D03*
X013199Y016979D03*
X013699Y017479D03*
X015224Y017979D03*
X016599Y017979D03*
X018524Y016979D03*
X021299Y016979D03*
X020024Y018829D03*
X017574Y019354D03*
X015849Y020179D03*
X014899Y020179D03*
X014099Y020179D03*
X013299Y020179D03*
X015324Y021129D03*
X013974Y022029D03*
X015149Y023079D03*
X012874Y023354D03*
X009774Y024954D03*
X009774Y026679D03*
X009574Y028654D03*
X010774Y028504D03*
X017374Y028404D03*
X019224Y027179D03*
X020024Y020729D03*
X023274Y020754D03*
X024149Y019204D03*
X032024Y023404D03*
X030749Y030179D03*
X012974Y016279D03*
X012524Y015204D03*
X011849Y013079D03*
X012999Y008854D03*
X013624Y005954D03*
D73*
X014359Y009154D02*
X014298Y009268D01*
X015459Y009504D02*
X015536Y009506D01*
X017574Y010519D02*
X017662Y010506D01*
X017601Y010506D02*
X017599Y010504D01*
X018515Y010204D02*
X018547Y010221D01*
X018524Y009304D02*
X018499Y009304D01*
X018500Y009303D01*
X019249Y008654D02*
X019274Y008679D01*
X022399Y009379D02*
X022499Y009279D01*
X022499Y009104D01*
X029274Y010855D02*
X029275Y010854D01*
X029524Y010854D01*
X030182Y010196D01*
X030182Y009778D01*
X033723Y006979D02*
X033723Y006853D01*
X033324Y006454D01*
X031574Y006454D01*
X031439Y006319D01*
X031439Y006014D01*
X015924Y014103D02*
X015924Y014104D01*
X013875Y014104D02*
X013073Y014104D01*
X021598Y020729D02*
X022024Y020729D01*
X026194Y024754D02*
X026524Y024754D01*
X034050Y026329D02*
X034049Y026819D01*
X035974Y029979D02*
X035961Y029992D01*
X035961Y030029D01*
X035961Y031154D01*
X043524Y027554D02*
X043524Y027103D01*
X046874Y029079D02*
X047098Y029079D01*
X046924Y029155D01*
X044148Y024429D02*
X044314Y024263D01*
X044314Y023754D01*
X038974Y018729D02*
X038573Y018729D01*
X046710Y018124D02*
X046710Y017216D01*
X046698Y017204D02*
X046724Y017204D01*
X014254Y022164D02*
X014239Y022179D01*
D74*
X014254Y022164D02*
X014119Y022029D01*
X013974Y022029D01*
X015024Y021304D02*
X015009Y021244D01*
X015009Y021129D01*
X015324Y021129D01*
X015009Y021129D02*
X014994Y021144D01*
X019224Y024804D02*
X019224Y025255D01*
X020774Y025255D02*
X020774Y024804D01*
X025449Y022829D02*
X025449Y022464D01*
X025440Y022454D01*
X025574Y022389D01*
X026109Y022454D02*
X026149Y022494D01*
X026149Y022829D01*
X026224Y022454D02*
X026224Y021843D01*
X026162Y021781D01*
X024036Y020281D02*
X023940Y020184D01*
X023940Y019604D01*
X023940Y019564D01*
X024149Y019354D01*
X024149Y019204D01*
X024609Y019604D02*
X025024Y019604D01*
X025949Y016579D02*
X031249Y016579D01*
X031374Y016454D01*
X031674Y015129D02*
X030399Y015129D01*
X030149Y014879D01*
X030149Y014580D01*
X030148Y014579D01*
X029400Y014579D02*
X029400Y013712D01*
X030148Y013712D02*
X030148Y013630D01*
X030924Y012854D01*
X031316Y012854D01*
X031324Y012846D01*
X031699Y012846D01*
X031698Y012847D01*
X031698Y012830D01*
X031849Y012679D01*
X034457Y012679D01*
X034549Y012771D01*
X034923Y013637D02*
X035007Y013637D01*
X033374Y014054D02*
X033323Y014003D01*
X033323Y013204D01*
X032624Y013280D02*
X032575Y013204D01*
X032574Y013205D01*
X032574Y014054D01*
X033074Y014054D02*
X033374Y014054D01*
X034150Y014629D02*
X033875Y014904D01*
X032974Y014904D01*
X031698Y014579D02*
X031674Y014603D01*
X031674Y015129D01*
X030950Y014579D02*
X030950Y013712D01*
X031698Y013712D02*
X031698Y012847D01*
X031849Y012279D02*
X032774Y012279D01*
X032899Y012154D01*
X028199Y012500D02*
X027730Y012179D01*
X025074Y012179D01*
X025874Y012955D02*
X025950Y012879D01*
X025874Y012955D02*
X025874Y013079D01*
X025734Y013219D01*
X023109Y013219D01*
X023774Y014129D02*
X024024Y013879D01*
X024323Y013879D01*
X025099Y013880D01*
X025874Y013880D02*
X025874Y013079D01*
X027250Y014338D02*
X027254Y014334D01*
X027250Y014338D02*
X027250Y015104D01*
X027150Y015204D01*
X026699Y015204D01*
X027249Y015105D02*
X027250Y015104D01*
X027994Y015100D02*
X027994Y014334D01*
X027994Y015100D02*
X027998Y015104D01*
X025874Y015004D02*
X025874Y014628D01*
X025099Y014628D01*
X025824Y015054D02*
X025874Y015004D01*
X023774Y014854D02*
X023774Y014129D01*
X023774Y014854D02*
X023589Y015039D01*
X023109Y015039D01*
X025824Y016454D02*
X025949Y016579D01*
X017299Y016454D02*
X017299Y016979D01*
X017299Y016454D02*
X017209Y016454D01*
X016540Y016454D02*
X016524Y016469D01*
X016540Y016454D02*
X016492Y016406D01*
X016492Y016212D01*
X016599Y016104D01*
X016492Y016406D02*
X015862Y016406D01*
X013736Y016406D02*
X013076Y016406D01*
X012974Y016279D01*
X012949Y015914D01*
X012899Y015864D01*
X012899Y015194D02*
X013188Y014906D01*
X013736Y014906D01*
X012899Y015194D02*
X012534Y015194D01*
X012524Y015204D01*
X014324Y011179D02*
X014374Y010828D01*
X014430Y010723D01*
X014374Y010829D01*
X014324Y010829D01*
X014299Y010829D02*
X014298Y010828D01*
X014298Y010779D01*
X014299Y010780D01*
X014299Y010803D01*
X014298Y010779D02*
X014298Y010029D01*
X014360Y009967D01*
X014423Y009942D01*
X014298Y009842D01*
X014304Y009973D02*
X014298Y009979D01*
X014298Y010029D01*
X014298Y009979D02*
X014298Y009268D01*
X014299Y009214D02*
X014359Y009154D01*
X014699Y009154D01*
X015049Y009504D01*
X015459Y009504D01*
X014299Y009504D02*
X014299Y009214D01*
X013690Y009154D02*
X013699Y008779D01*
X013675Y009942D02*
X013663Y009979D01*
X013249Y009979D01*
X014304Y009973D02*
X014305Y009973D01*
X013682Y010723D02*
X013255Y010773D01*
X013249Y010779D01*
X010774Y011029D02*
X010774Y010525D01*
X010778Y010429D01*
X008770Y010429D02*
X008599Y010383D01*
X008249Y010529D01*
X008249Y010154D02*
X008624Y010204D01*
X014299Y004979D02*
X014724Y004979D01*
X014724Y004604D02*
X014724Y004229D01*
X015072Y004229D01*
X015272Y004429D01*
X014724Y004229D02*
X014724Y003879D01*
X014299Y003879D01*
X014299Y004229D01*
X014299Y004604D02*
X014299Y004979D01*
X017477Y004429D02*
X017849Y004429D01*
X018024Y004254D01*
X018024Y004229D01*
X018449Y004229D01*
X018449Y003879D01*
X018024Y003879D02*
X018024Y004229D01*
X017849Y004429D02*
X018024Y004604D01*
X018024Y004979D01*
X018449Y004979D02*
X018449Y004604D01*
X019158Y006146D02*
X019124Y006180D01*
X019158Y006146D02*
X019825Y006146D01*
X020573Y006146D02*
X021257Y006146D01*
X020199Y007012D02*
X020199Y010104D01*
X020574Y010479D01*
X020799Y010479D01*
X020799Y011183D01*
X020699Y011283D01*
X020699Y011279D02*
X020816Y011162D01*
X022406Y011162D01*
X020973Y010479D02*
X020774Y010478D01*
X020800Y010478D01*
X020799Y010479D01*
X020973Y010479D01*
X020774Y009730D02*
X021142Y009362D01*
X022406Y009362D01*
X020749Y009729D02*
X020649Y009629D01*
X020649Y007854D01*
X019649Y007854D02*
X019124Y007329D01*
X019124Y006928D01*
X018574Y008179D02*
X018599Y008562D01*
X018500Y008661D01*
X018500Y009429D01*
X018500Y010190D01*
X018515Y010204D01*
X018213Y010506D01*
X017662Y010506D01*
X018515Y010204D02*
X018549Y010229D01*
X019184Y010204D02*
X019574Y010204D01*
X019699Y009429D02*
X019248Y009429D01*
X019248Y009429D01*
X018500Y009429D02*
X018500Y009503D01*
X018499Y009504D01*
X019267Y008679D02*
X019248Y008661D01*
X019267Y008679D02*
X019699Y008679D01*
X022774Y004779D02*
X024325Y004779D01*
X023880Y004060D02*
X023582Y004357D01*
X023582Y004329D01*
X023880Y004060D02*
X027349Y004060D01*
X027320Y004089D01*
X027320Y004704D01*
X026178Y004704D02*
X025173Y004704D01*
X025173Y004679D01*
X026055Y004679D02*
X026178Y004704D01*
X027349Y004060D02*
X029405Y004060D01*
X029624Y004279D01*
X029624Y005104D01*
X029299Y005429D01*
X029028Y005429D01*
X028474Y004579D02*
X027999Y005054D01*
X027999Y007829D01*
X028524Y007829D01*
X028524Y007428D01*
X027999Y007829D02*
X027999Y008533D01*
X028149Y008733D01*
X028149Y009875D02*
X028149Y011260D01*
X028199Y011358D01*
X030182Y009030D02*
X030199Y009013D01*
X030199Y007403D01*
X029424Y007403D01*
X030225Y006655D02*
X030399Y006829D01*
X031275Y006829D01*
X031425Y006979D01*
X031425Y007754D01*
X030974Y007754D01*
X032173Y007754D02*
X032173Y008405D01*
X032149Y008429D01*
X032173Y007754D02*
X032975Y007754D01*
X033723Y007754D02*
X033723Y006979D01*
X032975Y006979D02*
X032173Y006979D01*
X033723Y007754D02*
X033724Y007754D01*
X031439Y006014D02*
X031429Y006004D01*
X030724Y006004D01*
X030170Y005450D01*
X030170Y005429D01*
X030170Y004579D02*
X030499Y004579D01*
X030884Y004194D01*
X031439Y004194D01*
X028749Y004579D02*
X028474Y004579D01*
X028524Y006254D02*
X028524Y006680D01*
X028549Y006655D01*
X029424Y006655D01*
X030199Y006655D02*
X030225Y006655D01*
X037732Y009154D02*
X037732Y009711D01*
X037899Y009879D01*
X039049Y009154D02*
X039074Y009154D01*
X039124Y009104D01*
X039099Y009079D01*
X039074Y009154D02*
X039267Y009154D01*
X042824Y010794D02*
X043284Y010794D01*
X043299Y010779D01*
X043299Y011079D01*
X043299Y010779D02*
X043299Y010529D01*
X044175Y009653D01*
X044399Y009653D01*
X039198Y011829D02*
X039124Y011829D01*
X039049Y011754D01*
X041274Y012953D02*
X041399Y013504D01*
X042374Y013529D01*
X041124Y013779D02*
X040324Y013729D01*
X040324Y013453D01*
X036949Y016304D02*
X036949Y016731D01*
X038548Y018704D02*
X038573Y018729D01*
X036999Y020554D02*
X037000Y020854D01*
X036999Y020980D01*
X033674Y021554D02*
X033674Y023504D01*
X033899Y023729D01*
X033899Y024104D01*
X034074Y023204D02*
X034500Y023229D01*
X036899Y023854D02*
X037249Y023954D01*
X037249Y024204D01*
X040123Y025054D02*
X040124Y025055D01*
X038349Y026654D02*
X038424Y026979D01*
X038799Y026979D01*
X038549Y028604D02*
X038549Y029030D01*
X038774Y031079D02*
X038348Y031154D01*
X037600Y031154D02*
X036788Y031154D01*
X032954Y028654D02*
X032849Y028649D01*
X032849Y028354D01*
X031824Y028353D02*
X031699Y028354D01*
X031299Y028354D01*
X030099Y026804D02*
X030124Y026779D01*
X030099Y026804D02*
X028249Y026804D01*
X028049Y026604D01*
X025874Y026604D01*
X025690Y026789D01*
X025690Y027029D01*
X025729Y027069D01*
X025729Y027599D01*
X025729Y027849D02*
X026585Y027849D01*
X026615Y027879D01*
X026615Y028570D01*
X026748Y028704D01*
X026724Y028728D01*
X026724Y029304D01*
X026724Y030554D01*
X026324Y030954D01*
X025879Y030954D01*
X027124Y031029D02*
X027124Y030504D01*
X027124Y031029D02*
X027549Y031454D01*
X027819Y031454D01*
X028500Y031454D01*
X028849Y031105D01*
X028398Y030454D02*
X027819Y030454D01*
X028398Y030454D02*
X028849Y030003D01*
X027849Y029254D02*
X027850Y028704D01*
X027674Y027879D02*
X027284Y027879D01*
X026749Y027054D02*
X026724Y027029D01*
X026359Y027029D01*
X026524Y024754D02*
X026774Y024754D01*
X027049Y024479D01*
X027049Y024154D01*
X027674Y023529D01*
X028249Y023529D01*
X028374Y023404D01*
X028574Y023404D01*
X029379Y023404D01*
X031419Y023404D02*
X032024Y023404D01*
X032334Y023404D01*
X032374Y023444D01*
X032374Y024114D02*
X032374Y024529D01*
X033336Y025506D02*
X033336Y025791D01*
X043524Y026354D02*
X043549Y026329D01*
X044174Y026329D01*
X044599Y022278D02*
X045374Y022278D01*
X046149Y022278D01*
X046924Y022278D01*
X047799Y019255D02*
X047800Y019254D01*
X046966Y018124D02*
X046966Y017837D01*
X048229Y016574D01*
X048229Y016554D01*
X048252Y016529D02*
X048252Y016478D01*
X056999Y014014D02*
X057114Y014129D01*
X056999Y014014D02*
X056999Y008829D01*
X056724Y008554D01*
X056724Y008229D01*
X039799Y004954D02*
X039799Y004604D01*
X039774Y004629D01*
X039774Y004654D01*
X039799Y004604D02*
X039719Y004524D01*
X039399Y004524D01*
X039799Y004604D02*
X039799Y004254D01*
X057399Y025379D02*
X057399Y027329D01*
X057649Y027329D01*
X057649Y027544D01*
X056549Y030265D02*
X054750Y030265D01*
X044289Y031704D02*
X043398Y031704D01*
X021375Y030929D02*
X021290Y030843D01*
X021290Y030154D01*
X020659Y030154D02*
X020659Y030843D01*
X020573Y030929D01*
X019874Y030269D02*
X019874Y030129D01*
X019674Y029929D01*
X019674Y029779D01*
X017174Y031129D02*
X016909Y031429D01*
X016240Y031429D02*
X016240Y030889D01*
X016254Y030854D01*
X016249Y031214D02*
X016240Y031429D01*
X016249Y031214D02*
X016249Y031929D01*
D75*
X017724Y031104D02*
X017724Y028254D01*
X017524Y028054D01*
X017224Y028054D01*
X016924Y028354D01*
X016254Y028354D01*
X016254Y027854D02*
X017649Y027854D01*
X017949Y028154D01*
X017949Y030304D01*
X018124Y030479D01*
X017224Y030379D02*
X017224Y030254D01*
X016824Y029854D01*
X016254Y029854D01*
X016254Y029354D02*
X016899Y029354D01*
X017374Y029829D01*
X017374Y029879D01*
X016924Y028854D02*
X016254Y028854D01*
X015099Y028979D02*
X014499Y028979D01*
X013624Y029854D01*
X012494Y029854D01*
X011899Y029854D01*
X010774Y028729D01*
X010774Y028504D01*
X010423Y029278D02*
X008649Y029278D01*
X008649Y028530D02*
X008324Y028205D01*
X008324Y018129D01*
X009099Y017354D01*
X010274Y017354D01*
X010756Y016872D01*
X010756Y016870D01*
X011399Y017279D02*
X011599Y017479D01*
X011599Y018363D01*
X011575Y018387D01*
X011575Y018929D01*
X011975Y019329D01*
X011975Y020104D01*
X011925Y020330D01*
X012199Y020604D01*
X015749Y020604D01*
X016174Y021029D01*
X016174Y023304D01*
X016749Y023879D01*
X017474Y023879D01*
X017674Y023679D01*
X017674Y023404D01*
X017848Y023404D01*
X018875Y023404D01*
X018875Y023005D01*
X018875Y022554D01*
X018874Y023004D02*
X018875Y023005D01*
X019623Y023404D02*
X020850Y023404D01*
X021574Y023404D02*
X021599Y023379D01*
X021799Y023379D01*
X022449Y022729D01*
X022823Y022729D01*
X022824Y022630D01*
X023075Y022479D01*
X024549Y022479D01*
X025747Y021281D01*
X026162Y021281D01*
X027053Y021176D02*
X027053Y021775D01*
X026999Y021829D01*
X027053Y021176D02*
X027150Y021054D01*
X027175Y020880D01*
X027124Y020829D01*
X026210Y020829D01*
X026162Y020781D01*
X026164Y020779D01*
X026162Y020781D02*
X025726Y020781D01*
X025499Y020554D01*
X025499Y019404D01*
X024899Y018804D01*
X022824Y018804D01*
X022824Y019185D01*
X022824Y018804D02*
X021748Y018804D01*
X021598Y018954D01*
X020850Y018954D02*
X020850Y019030D01*
X021598Y019778D01*
X021598Y019879D01*
X020850Y019879D02*
X019624Y019879D01*
X019624Y019554D01*
X019475Y019405D01*
X017625Y019405D01*
X017574Y019354D01*
X017649Y019429D01*
X017649Y019680D01*
X017848Y019879D01*
X017124Y019854D02*
X017100Y019878D01*
X017100Y018730D01*
X017099Y018729D01*
X017100Y018729D02*
X017100Y018555D01*
X017074Y018529D01*
X016924Y018529D01*
X016774Y018379D01*
X014924Y018379D01*
X014374Y017829D01*
X013474Y017829D01*
X012149Y016504D01*
X012149Y014854D01*
X011165Y013870D01*
X010756Y013870D01*
X010240Y013354D01*
X009249Y013354D01*
X007874Y011979D01*
X007874Y009854D01*
X008174Y009554D01*
X008174Y009304D01*
X008250Y009228D01*
X008299Y009228D01*
X007524Y009228D02*
X007524Y013529D01*
X009374Y015379D01*
X011099Y015379D01*
X011599Y015879D01*
X011599Y017179D01*
X011949Y017529D01*
X011399Y017279D02*
X011399Y016154D01*
X011115Y015870D01*
X010756Y015870D01*
X011924Y016629D02*
X011924Y014979D01*
X011324Y014379D01*
X010274Y014379D01*
X009765Y013870D01*
X009756Y013870D01*
X010756Y012870D02*
X011990Y014104D01*
X012325Y014104D01*
X012325Y014205D01*
X012724Y014604D01*
X014299Y014604D01*
X014649Y014954D01*
X014649Y015629D01*
X015149Y016129D01*
X015862Y015906D02*
X016097Y015906D01*
X016806Y015198D01*
X016954Y015198D01*
X016831Y015198D01*
X016449Y015079D02*
X016149Y015379D01*
X015889Y015379D01*
X015862Y015406D01*
X015874Y015404D02*
X015849Y015379D01*
X015599Y015379D01*
X015099Y014879D01*
X015099Y014354D01*
X014924Y014179D01*
X014623Y014104D01*
X014648Y014103D01*
X013900Y013355D01*
X013875Y013304D01*
X013875Y013053D01*
X014099Y012829D01*
X015149Y012829D01*
X015324Y012654D01*
X015324Y012406D01*
X015327Y012378D01*
X014579Y012378D02*
X014579Y012049D01*
X014824Y011804D01*
X015024Y011604D01*
X015024Y011229D01*
X015275Y011229D01*
X015024Y011229D02*
X015024Y010179D01*
X015197Y010006D01*
X015536Y010006D01*
X016324Y009379D02*
X016099Y009154D01*
X016099Y008254D01*
X015874Y008029D01*
X015874Y008028D02*
X015075Y008028D01*
X015074Y008029D01*
X015074Y007280D02*
X014274Y007280D01*
X013624Y006904D02*
X013624Y008304D01*
X013598Y008278D01*
X013182Y008278D01*
X013624Y008304D02*
X013624Y008704D01*
X013699Y008779D01*
X014299Y008429D02*
X014299Y008053D01*
X014274Y008028D01*
X013357Y007487D02*
X013274Y007404D01*
X012449Y007404D01*
X012425Y007380D01*
X012425Y006704D01*
X013173Y006704D02*
X013424Y006704D01*
X013624Y006904D01*
X013357Y007487D02*
X013182Y007530D01*
X012449Y007404D02*
X011749Y007404D01*
X011474Y007679D01*
X011474Y008453D01*
X011473Y008454D01*
X010725Y008454D02*
X010725Y007679D01*
X010350Y007304D01*
X009982Y007304D01*
X009374Y006779D02*
X009223Y006930D01*
X009116Y006930D01*
X008299Y006930D01*
X007524Y006930D01*
X007524Y007678D02*
X007524Y008480D01*
X008299Y008480D02*
X008299Y007678D01*
X009116Y007678D01*
X009124Y007520D01*
X009074Y007570D02*
X009116Y007678D01*
X008299Y007678D02*
X007524Y007678D01*
X009374Y006779D02*
X011349Y006779D01*
X012174Y005954D01*
X013624Y005954D01*
X014124Y005154D02*
X014899Y005154D01*
X014899Y003729D01*
X014124Y003729D01*
X014124Y005154D01*
X014124Y005071D02*
X014899Y005071D01*
X014899Y004973D02*
X014124Y004973D01*
X014124Y004874D02*
X014899Y004874D01*
X014899Y004776D02*
X014124Y004776D01*
X014124Y004677D02*
X014899Y004677D01*
X014899Y004579D02*
X014124Y004579D01*
X014124Y004480D02*
X014899Y004480D01*
X014899Y004382D02*
X014124Y004382D01*
X014124Y004283D02*
X014899Y004283D01*
X014899Y004185D02*
X014124Y004185D01*
X014124Y004086D02*
X014899Y004086D01*
X014899Y003988D02*
X014124Y003988D01*
X014124Y003889D02*
X014899Y003889D01*
X014899Y003791D02*
X014124Y003791D01*
X015272Y004429D02*
X015799Y004429D01*
X015924Y004554D01*
X015924Y005680D01*
X015874Y005730D01*
X016699Y005730D02*
X016725Y005704D01*
X016749Y005704D01*
X016824Y005629D01*
X016824Y004554D01*
X016949Y004429D01*
X017477Y004429D01*
X017849Y004382D02*
X018624Y004382D01*
X018624Y004480D02*
X017849Y004480D01*
X017849Y004579D02*
X018624Y004579D01*
X018624Y004677D02*
X017849Y004677D01*
X017849Y004776D02*
X018624Y004776D01*
X018624Y004874D02*
X017849Y004874D01*
X017849Y004973D02*
X018624Y004973D01*
X018624Y005071D02*
X017849Y005071D01*
X017849Y005129D02*
X018624Y005129D01*
X018624Y003729D01*
X017849Y003729D01*
X017849Y005129D01*
X017849Y004283D02*
X018624Y004283D01*
X018624Y004185D02*
X017849Y004185D01*
X017849Y004086D02*
X018624Y004086D01*
X018624Y003988D02*
X017849Y003988D01*
X017849Y003889D02*
X018624Y003889D01*
X018624Y003791D02*
X017849Y003791D01*
X016749Y005704D02*
X016774Y005729D01*
X016699Y006478D02*
X016699Y007280D01*
X015874Y007280D02*
X015874Y006478D01*
X016699Y008028D02*
X016699Y008029D01*
X017099Y008429D01*
X017099Y009504D01*
X016774Y009829D01*
X016774Y010279D01*
X017474Y010979D01*
X017474Y011229D01*
X017573Y011229D01*
X017524Y011180D01*
X017524Y011104D01*
X017474Y011229D02*
X017449Y011254D01*
X016825Y011229D02*
X016023Y011229D01*
X017174Y010004D02*
X017585Y010004D01*
X017662Y010006D01*
X017662Y010506D02*
X017601Y010506D01*
X017662Y009506D02*
X017585Y009504D01*
X017099Y009504D01*
X018500Y009429D02*
X018500Y009305D01*
X018499Y009304D01*
X018500Y008661D02*
X018500Y008655D01*
X018499Y008654D01*
X021124Y008617D02*
X021999Y008617D01*
X021999Y008679D02*
X021999Y008154D01*
X022075Y007971D01*
X022216Y007830D01*
X022566Y007480D01*
X022750Y007404D01*
X023227Y007404D01*
X023227Y007204D01*
X023327Y007104D01*
X023549Y007104D01*
X023549Y005454D01*
X021099Y005454D01*
X021124Y008654D01*
X021124Y008679D01*
X021999Y008679D01*
X021999Y008519D02*
X021123Y008519D01*
X021122Y008420D02*
X021999Y008420D01*
X021999Y008322D02*
X021122Y008322D01*
X021121Y008223D02*
X021999Y008223D01*
X022012Y008125D02*
X021120Y008125D01*
X021119Y008026D02*
X022052Y008026D01*
X022119Y007928D02*
X021119Y007928D01*
X021118Y007829D02*
X022217Y007829D01*
X022316Y007731D02*
X021117Y007731D01*
X021116Y007632D02*
X022414Y007632D01*
X022513Y007534D02*
X021116Y007534D01*
X021115Y007435D02*
X022675Y007435D01*
X023227Y007337D02*
X021114Y007337D01*
X021113Y007238D02*
X023227Y007238D01*
X023291Y007140D02*
X021112Y007140D01*
X021112Y007041D02*
X023549Y007041D01*
X023549Y006943D02*
X021111Y006943D01*
X021110Y006844D02*
X023549Y006844D01*
X023549Y006746D02*
X021109Y006746D01*
X021109Y006647D02*
X023549Y006647D01*
X023549Y006549D02*
X021108Y006549D01*
X021107Y006450D02*
X023549Y006450D01*
X023549Y006352D02*
X021106Y006352D01*
X021106Y006253D02*
X023549Y006253D01*
X023549Y006155D02*
X021105Y006155D01*
X021104Y006056D02*
X023549Y006056D01*
X023549Y005958D02*
X021103Y005958D01*
X021102Y005859D02*
X023549Y005859D01*
X023549Y005761D02*
X021102Y005761D01*
X021101Y005662D02*
X023549Y005662D01*
X023549Y005564D02*
X021100Y005564D01*
X021099Y005465D02*
X023549Y005465D01*
X023809Y005465D02*
X024862Y005465D01*
X024862Y005367D02*
X023794Y005367D01*
X023789Y005354D02*
X023809Y005402D01*
X023809Y007064D01*
X024193Y007064D01*
X024316Y007187D01*
X024316Y008621D01*
X024193Y008744D01*
X023310Y008744D01*
X023187Y008621D01*
X023187Y008444D01*
X023073Y008444D01*
X023039Y008478D01*
X023039Y009024D01*
X023106Y009090D01*
X023106Y009634D01*
X022983Y009757D01*
X021829Y009757D01*
X021724Y009652D01*
X021280Y009652D01*
X021280Y010073D01*
X021248Y010104D01*
X021280Y010135D01*
X021280Y010821D01*
X021228Y010872D01*
X021724Y010872D01*
X021829Y010767D01*
X022983Y010767D01*
X023106Y010890D01*
X023106Y011434D01*
X022983Y011557D01*
X021829Y011557D01*
X021724Y011452D01*
X021145Y011452D01*
X021145Y011665D01*
X021142Y011669D01*
X027091Y011669D01*
X027091Y011385D01*
X027330Y011146D01*
X027389Y011146D01*
X027389Y007764D01*
X025073Y007764D01*
X024977Y007724D01*
X024904Y007651D01*
X024864Y007556D01*
X024864Y006798D01*
X024862Y006796D01*
X024862Y005362D01*
X024870Y005354D01*
X023789Y005354D01*
X023809Y005564D02*
X024862Y005564D01*
X024862Y005662D02*
X023809Y005662D01*
X023809Y005761D02*
X024862Y005761D01*
X024862Y005859D02*
X023809Y005859D01*
X023809Y005958D02*
X024862Y005958D01*
X024862Y006056D02*
X023809Y006056D01*
X023809Y006155D02*
X024862Y006155D01*
X024862Y006253D02*
X023809Y006253D01*
X023809Y006352D02*
X024862Y006352D01*
X024862Y006450D02*
X023809Y006450D01*
X023809Y006549D02*
X024862Y006549D01*
X024862Y006647D02*
X023809Y006647D01*
X023809Y006746D02*
X024862Y006746D01*
X024864Y006844D02*
X023809Y006844D01*
X023809Y006943D02*
X024864Y006943D01*
X024864Y007041D02*
X023809Y007041D01*
X024268Y007140D02*
X024864Y007140D01*
X024864Y007238D02*
X024316Y007238D01*
X024316Y007337D02*
X024864Y007337D01*
X024864Y007435D02*
X024316Y007435D01*
X024316Y007534D02*
X024864Y007534D01*
X024896Y007632D02*
X024316Y007632D01*
X024316Y007731D02*
X024992Y007731D01*
X025124Y007504D02*
X027204Y007504D01*
X027106Y007406D01*
X027106Y007101D01*
X027322Y006886D01*
X027627Y006886D01*
X027749Y007008D01*
X027749Y005454D01*
X025124Y005454D01*
X025124Y007504D01*
X025124Y007435D02*
X027135Y007435D01*
X027106Y007337D02*
X025124Y007337D01*
X025124Y007238D02*
X027106Y007238D01*
X027106Y007140D02*
X025124Y007140D01*
X025124Y007041D02*
X027167Y007041D01*
X027265Y006943D02*
X025124Y006943D01*
X025124Y006844D02*
X027749Y006844D01*
X027749Y006746D02*
X025124Y006746D01*
X025124Y006647D02*
X027749Y006647D01*
X027749Y006549D02*
X025124Y006549D01*
X025124Y006450D02*
X027749Y006450D01*
X027749Y006352D02*
X025124Y006352D01*
X025124Y006253D02*
X027749Y006253D01*
X027749Y006155D02*
X025124Y006155D01*
X025124Y006056D02*
X027749Y006056D01*
X027749Y005958D02*
X025124Y005958D01*
X025124Y005859D02*
X027749Y005859D01*
X027749Y005761D02*
X025124Y005761D01*
X025124Y005662D02*
X027749Y005662D01*
X027749Y005564D02*
X025124Y005564D01*
X025124Y005465D02*
X027749Y005465D01*
X025427Y006079D02*
X025349Y006002D01*
X025349Y004879D01*
X025173Y004703D01*
X025173Y004679D01*
X024425Y004679D02*
X024325Y004779D01*
X023224Y005404D02*
X023224Y006077D01*
X023222Y006079D01*
X023224Y005404D02*
X023049Y005229D01*
X022399Y005229D01*
X022099Y004929D01*
X022099Y004304D01*
X022448Y003955D01*
X022716Y003955D01*
X022716Y004703D02*
X022716Y004721D01*
X022774Y004779D01*
X027474Y007254D02*
X027649Y007429D01*
X027649Y011404D01*
X027499Y011554D01*
X027091Y011572D02*
X021145Y011572D01*
X021145Y011474D02*
X021745Y011474D01*
X021812Y010784D02*
X021280Y010784D01*
X021280Y010686D02*
X027389Y010686D01*
X027389Y010784D02*
X023000Y010784D01*
X023098Y010883D02*
X027389Y010883D01*
X027389Y010981D02*
X023106Y010981D01*
X023106Y011080D02*
X027389Y011080D01*
X027298Y011178D02*
X023106Y011178D01*
X023106Y011277D02*
X027200Y011277D01*
X027101Y011375D02*
X023106Y011375D01*
X023066Y011474D02*
X027091Y011474D01*
X025824Y012149D02*
X021085Y012149D01*
X021085Y012375D01*
X020749Y012375D01*
X020749Y012475D01*
X020649Y012475D01*
X020649Y012375D01*
X020313Y012375D01*
X020313Y012149D01*
X018644Y012149D01*
X018644Y013045D01*
X018515Y013174D01*
X018399Y013290D01*
X018399Y014061D01*
X018410Y014072D01*
X018410Y014097D01*
X018422Y014086D01*
X018727Y014086D01*
X018942Y014301D01*
X018942Y014311D01*
X019494Y014863D01*
X019494Y015438D01*
X019540Y015484D01*
X025824Y015484D01*
X025824Y015422D01*
X025672Y015422D01*
X025456Y015206D01*
X025456Y015054D01*
X024734Y015054D01*
X024634Y014954D01*
X024634Y014302D01*
X024682Y014254D01*
X024634Y014206D01*
X024634Y014129D01*
X024323Y014129D01*
X024128Y014129D01*
X024024Y014232D01*
X024024Y014904D01*
X023986Y014996D01*
X023916Y015066D01*
X023731Y015251D01*
X023654Y015283D01*
X023654Y015334D01*
X023555Y015434D01*
X022664Y015434D01*
X022564Y015334D01*
X022564Y014744D01*
X022664Y014644D01*
X023524Y014644D01*
X023524Y014499D01*
X023504Y014504D01*
X023159Y014504D01*
X023159Y014179D01*
X023059Y014179D01*
X023059Y014079D01*
X022584Y014079D01*
X022584Y013884D01*
X022595Y013846D01*
X022614Y013812D01*
X022642Y013784D01*
X022676Y013764D01*
X022715Y013754D01*
X023059Y013754D01*
X023059Y014079D01*
X023159Y014079D01*
X023159Y013754D01*
X023504Y013754D01*
X023542Y013764D01*
X023576Y013784D01*
X023604Y013812D01*
X023624Y013846D01*
X023634Y013884D01*
X023634Y013915D01*
X023812Y013737D01*
X023883Y013667D01*
X023975Y013629D01*
X024274Y013629D01*
X024323Y013629D01*
X024373Y013629D01*
X024373Y013629D01*
X024634Y013629D01*
X024634Y013554D01*
X024719Y013469D01*
X023654Y013469D01*
X023654Y013514D01*
X023555Y013614D01*
X022664Y013614D01*
X022564Y013514D01*
X022564Y012924D01*
X022664Y012824D01*
X023555Y012824D01*
X023654Y012924D01*
X023654Y012969D01*
X025524Y012969D01*
X025524Y012513D01*
X025624Y012414D01*
X025824Y012414D01*
X025824Y012149D01*
X025824Y012163D02*
X021085Y012163D01*
X021085Y012262D02*
X025824Y012262D01*
X025824Y012360D02*
X021085Y012360D01*
X021085Y012475D02*
X021085Y012740D01*
X021075Y012778D01*
X021056Y012812D01*
X021028Y012840D01*
X020993Y012860D01*
X020955Y012870D01*
X020749Y012870D01*
X020749Y012475D01*
X021085Y012475D01*
X021085Y012557D02*
X025524Y012557D01*
X025524Y012656D02*
X021085Y012656D01*
X021082Y012754D02*
X025524Y012754D01*
X025524Y012853D02*
X023583Y012853D01*
X023654Y012951D02*
X025524Y012951D01*
X025579Y012459D02*
X020749Y012459D01*
X020749Y012557D02*
X020649Y012557D01*
X020649Y012475D02*
X020649Y012870D01*
X020443Y012870D01*
X020405Y012860D01*
X020371Y012840D01*
X020343Y012812D01*
X020323Y012778D01*
X020313Y012740D01*
X020313Y012475D01*
X020649Y012475D01*
X020649Y012459D02*
X018644Y012459D01*
X018644Y012557D02*
X020313Y012557D01*
X020313Y012656D02*
X018644Y012656D01*
X018644Y012754D02*
X020317Y012754D01*
X020392Y012853D02*
X018644Y012853D01*
X018644Y012951D02*
X022564Y012951D01*
X022564Y013050D02*
X018640Y013050D01*
X018541Y013148D02*
X022564Y013148D01*
X022564Y013247D02*
X018443Y013247D01*
X018399Y013345D02*
X022564Y013345D01*
X022564Y013444D02*
X018399Y013444D01*
X018399Y013542D02*
X022592Y013542D01*
X022599Y013838D02*
X018399Y013838D01*
X018399Y013936D02*
X022584Y013936D01*
X022584Y014035D02*
X018399Y014035D01*
X018399Y013739D02*
X023811Y013739D01*
X023712Y013838D02*
X023619Y013838D01*
X023627Y013542D02*
X024646Y013542D01*
X024274Y013629D02*
X024274Y013629D01*
X023947Y013641D02*
X018399Y013641D01*
X018099Y013279D02*
X018424Y012954D01*
X018424Y012029D01*
X018524Y011929D01*
X028724Y011929D01*
X028724Y013354D01*
X028549Y013529D01*
X028944Y013254D02*
X030162Y013263D01*
X030712Y012712D01*
X030783Y012642D01*
X030875Y012604D01*
X030957Y012604D01*
X030957Y012500D01*
X031057Y012400D01*
X031481Y012400D01*
X031481Y012126D01*
X031697Y011911D01*
X032002Y011911D01*
X032120Y012029D01*
X032499Y012029D01*
X032499Y008354D01*
X030449Y008354D01*
X030449Y008663D01*
X030528Y008663D01*
X030628Y008763D01*
X030628Y009297D01*
X030528Y009397D01*
X029836Y009397D01*
X029737Y009297D01*
X029737Y008763D01*
X029836Y008663D01*
X029949Y008663D01*
X029949Y008354D01*
X028924Y008354D01*
X028924Y010429D01*
X029624Y010429D01*
X029908Y010145D01*
X029836Y010145D01*
X029737Y010045D01*
X029737Y009511D01*
X029836Y009411D01*
X030528Y009411D01*
X030628Y009511D01*
X030628Y010045D01*
X030528Y010145D01*
X030412Y010145D01*
X030412Y010291D01*
X029754Y010949D01*
X029740Y010964D01*
X029740Y011181D01*
X029692Y011229D01*
X029740Y011277D01*
X029740Y011929D01*
X029640Y012029D01*
X029160Y012029D01*
X029040Y012149D01*
X028944Y012149D01*
X028944Y013254D01*
X028944Y013247D02*
X030178Y013247D01*
X030277Y013148D02*
X028944Y013148D01*
X028944Y013050D02*
X030375Y013050D01*
X030474Y012951D02*
X028944Y012951D01*
X028944Y012853D02*
X030572Y012853D01*
X030671Y012754D02*
X028944Y012754D01*
X028944Y012656D02*
X030769Y012656D01*
X030957Y012557D02*
X028944Y012557D01*
X028944Y012459D02*
X030999Y012459D01*
X031481Y012360D02*
X028944Y012360D01*
X028944Y012262D02*
X031481Y012262D01*
X031481Y012163D02*
X028944Y012163D01*
X029125Y012065D02*
X031543Y012065D01*
X031642Y011966D02*
X029703Y011966D01*
X029740Y011868D02*
X032499Y011868D01*
X032499Y011966D02*
X032057Y011966D01*
X032499Y011769D02*
X029740Y011769D01*
X029740Y011671D02*
X032499Y011671D01*
X032499Y011572D02*
X029740Y011572D01*
X029740Y011474D02*
X032499Y011474D01*
X032499Y011375D02*
X029740Y011375D01*
X029739Y011277D02*
X032499Y011277D01*
X032499Y011178D02*
X029740Y011178D01*
X029740Y011080D02*
X032499Y011080D01*
X032499Y010981D02*
X029740Y010981D01*
X029821Y010883D02*
X032499Y010883D01*
X032499Y010784D02*
X029919Y010784D01*
X030018Y010686D02*
X032499Y010686D01*
X032499Y010587D02*
X030116Y010587D01*
X030215Y010489D02*
X031257Y010489D01*
X031308Y010510D02*
X031083Y010416D01*
X030911Y010244D01*
X030818Y010019D01*
X030818Y008890D01*
X030911Y008665D01*
X031083Y008493D01*
X031308Y008400D01*
X031552Y008400D01*
X031777Y008493D01*
X031949Y008665D01*
X032043Y008890D01*
X032043Y010019D01*
X031949Y010244D01*
X031777Y010416D01*
X031552Y010510D01*
X031308Y010510D01*
X031057Y010390D02*
X030313Y010390D01*
X030412Y010292D02*
X030958Y010292D01*
X030890Y010193D02*
X030412Y010193D01*
X030579Y010095D02*
X030849Y010095D01*
X030818Y009996D02*
X030628Y009996D01*
X030628Y009898D02*
X030818Y009898D01*
X030818Y009799D02*
X030628Y009799D01*
X030628Y009701D02*
X030818Y009701D01*
X030818Y009602D02*
X030628Y009602D01*
X030621Y009504D02*
X030818Y009504D01*
X030818Y009405D02*
X028924Y009405D01*
X028924Y009307D02*
X029746Y009307D01*
X029737Y009208D02*
X028924Y009208D01*
X028924Y009110D02*
X029737Y009110D01*
X029737Y009011D02*
X028924Y009011D01*
X028924Y008913D02*
X029737Y008913D01*
X029737Y008814D02*
X028924Y008814D01*
X028924Y008716D02*
X029784Y008716D01*
X029949Y008617D02*
X028924Y008617D01*
X028924Y008519D02*
X029949Y008519D01*
X029949Y008420D02*
X028924Y008420D01*
X029049Y008454D02*
X029074Y008504D01*
X030449Y008519D02*
X031058Y008519D01*
X030959Y008617D02*
X030449Y008617D01*
X030581Y008716D02*
X030890Y008716D01*
X030849Y008814D02*
X030628Y008814D01*
X030628Y008913D02*
X030818Y008913D01*
X030818Y009011D02*
X030628Y009011D01*
X030628Y009110D02*
X030818Y009110D01*
X030818Y009208D02*
X030628Y009208D01*
X030619Y009307D02*
X030818Y009307D01*
X030449Y008420D02*
X031259Y008420D01*
X031601Y008420D02*
X032499Y008420D01*
X032499Y008519D02*
X031803Y008519D01*
X031901Y008617D02*
X032499Y008617D01*
X032499Y008716D02*
X031970Y008716D01*
X032011Y008814D02*
X032499Y008814D01*
X032499Y008913D02*
X032043Y008913D01*
X032043Y009011D02*
X032499Y009011D01*
X032499Y009110D02*
X032043Y009110D01*
X032043Y009208D02*
X032499Y009208D01*
X032499Y009307D02*
X032043Y009307D01*
X032043Y009405D02*
X032499Y009405D01*
X032499Y009504D02*
X032043Y009504D01*
X032043Y009602D02*
X032499Y009602D01*
X032499Y009701D02*
X032043Y009701D01*
X032043Y009799D02*
X032499Y009799D01*
X032499Y009898D02*
X032043Y009898D01*
X032043Y009996D02*
X032499Y009996D01*
X032499Y010095D02*
X032011Y010095D01*
X031971Y010193D02*
X032499Y010193D01*
X032499Y010292D02*
X031902Y010292D01*
X031804Y010390D02*
X032499Y010390D01*
X032499Y010489D02*
X031603Y010489D01*
X032874Y010489D02*
X033353Y010489D01*
X033261Y010450D02*
X033077Y010267D01*
X032978Y010027D01*
X032978Y008882D01*
X033077Y008643D01*
X033261Y008459D01*
X033500Y008360D01*
X033760Y008360D01*
X034000Y008459D01*
X034183Y008643D01*
X034283Y008882D01*
X034283Y010027D01*
X034183Y010267D01*
X034000Y010450D01*
X033760Y010550D01*
X033500Y010550D01*
X033261Y010450D01*
X033200Y010390D02*
X032874Y010390D01*
X032874Y010292D02*
X033102Y010292D01*
X033046Y010193D02*
X032874Y010193D01*
X032874Y010095D02*
X033006Y010095D01*
X032978Y009996D02*
X032874Y009996D01*
X032874Y009898D02*
X032978Y009898D01*
X032978Y009799D02*
X032874Y009799D01*
X032874Y009701D02*
X032978Y009701D01*
X032978Y009602D02*
X032874Y009602D01*
X032874Y009504D02*
X032978Y009504D01*
X032978Y009405D02*
X032874Y009405D01*
X032874Y009307D02*
X032978Y009307D01*
X032978Y009208D02*
X032874Y009208D01*
X032874Y009110D02*
X032978Y009110D01*
X032978Y009011D02*
X032874Y009011D01*
X032874Y008913D02*
X032978Y008913D01*
X033006Y008814D02*
X032874Y008814D01*
X032874Y008716D02*
X033047Y008716D01*
X033103Y008617D02*
X032874Y008617D01*
X032874Y008519D02*
X033201Y008519D01*
X033355Y008420D02*
X032874Y008420D01*
X032874Y008322D02*
X036624Y008322D01*
X036624Y008420D02*
X036106Y008420D01*
X036200Y008459D02*
X036383Y008643D01*
X036483Y008882D01*
X036483Y010027D01*
X036383Y010267D01*
X036200Y010450D01*
X035960Y010550D01*
X035700Y010550D01*
X035461Y010450D01*
X035277Y010267D01*
X035178Y010027D01*
X035178Y008882D01*
X035277Y008643D01*
X035461Y008459D01*
X035700Y008360D01*
X035960Y008360D01*
X036200Y008459D01*
X036259Y008519D02*
X036624Y008519D01*
X036624Y008617D02*
X036358Y008617D01*
X036414Y008716D02*
X036624Y008716D01*
X036624Y008814D02*
X036454Y008814D01*
X036483Y008913D02*
X036624Y008913D01*
X036624Y009011D02*
X036483Y009011D01*
X036483Y009110D02*
X036624Y009110D01*
X036624Y009208D02*
X036483Y009208D01*
X036483Y009307D02*
X036624Y009307D01*
X036624Y009405D02*
X036483Y009405D01*
X036483Y009504D02*
X036624Y009504D01*
X036624Y009571D02*
X036624Y007409D01*
X036284Y007069D01*
X036284Y006539D01*
X036624Y006199D01*
X036624Y005232D01*
X036619Y005232D01*
X036496Y005109D01*
X036496Y004499D01*
X036619Y004376D01*
X036624Y004376D01*
X036624Y003645D01*
X031124Y003645D01*
X031124Y003759D01*
X031901Y003759D01*
X032024Y003882D01*
X032024Y004506D01*
X031901Y004629D01*
X031124Y004629D01*
X031124Y005579D01*
X031901Y005579D01*
X032024Y005702D01*
X032024Y006184D01*
X033378Y006184D01*
X033477Y006225D01*
X033726Y006474D01*
X034066Y006474D01*
X034189Y006597D01*
X034189Y007361D01*
X034184Y007366D01*
X034189Y007372D01*
X034189Y008136D01*
X034066Y008259D01*
X033380Y008259D01*
X033349Y008228D01*
X033318Y008259D01*
X032874Y008259D01*
X032874Y012179D01*
X036624Y012179D01*
X036624Y011037D01*
X036621Y011034D01*
X036621Y009574D01*
X036624Y009571D01*
X036621Y009602D02*
X036483Y009602D01*
X036483Y009701D02*
X036621Y009701D01*
X036621Y009799D02*
X036483Y009799D01*
X036483Y009898D02*
X036621Y009898D01*
X036621Y009996D02*
X036483Y009996D01*
X036455Y010095D02*
X036621Y010095D01*
X036621Y010193D02*
X036414Y010193D01*
X036359Y010292D02*
X036621Y010292D01*
X036621Y010390D02*
X036260Y010390D01*
X036108Y010489D02*
X036621Y010489D01*
X036621Y010587D02*
X032874Y010587D01*
X032874Y010686D02*
X036621Y010686D01*
X036621Y010784D02*
X032874Y010784D01*
X032874Y010883D02*
X036621Y010883D01*
X036621Y010981D02*
X032874Y010981D01*
X032874Y011080D02*
X036624Y011080D01*
X036624Y011178D02*
X032874Y011178D01*
X032874Y011277D02*
X036624Y011277D01*
X036624Y011375D02*
X032874Y011375D01*
X032874Y011474D02*
X036624Y011474D01*
X036624Y011572D02*
X032874Y011572D01*
X032874Y011671D02*
X036624Y011671D01*
X036624Y011769D02*
X032874Y011769D01*
X032874Y011868D02*
X036624Y011868D01*
X036624Y011966D02*
X032874Y011966D01*
X032874Y012065D02*
X036624Y012065D01*
X036624Y012163D02*
X032874Y012163D01*
X032724Y013029D02*
X032624Y013029D01*
X032624Y013278D01*
X032575Y013204D01*
X034174Y013638D02*
X034174Y013854D01*
X034898Y014578D01*
X034898Y014629D01*
X035549Y014954D02*
X035549Y014263D01*
X034923Y013637D01*
X035007Y013637D02*
X035007Y013687D01*
X034175Y013637D02*
X034174Y013638D01*
X032574Y014054D02*
X032199Y014429D01*
X032199Y015404D01*
X031849Y015754D01*
X029099Y015754D01*
X028949Y015604D01*
X028449Y015604D01*
X028274Y015779D01*
X026249Y015779D01*
X026174Y015704D01*
X019449Y015704D01*
X019274Y015529D01*
X019274Y014954D01*
X018774Y014454D01*
X018574Y014454D01*
X018872Y014232D02*
X022584Y014232D01*
X022584Y014179D02*
X023059Y014179D01*
X023059Y014504D01*
X022715Y014504D01*
X022676Y014494D01*
X022642Y014474D01*
X022614Y014446D01*
X022595Y014412D01*
X022584Y014374D01*
X022584Y014179D01*
X022584Y014330D02*
X018962Y014330D01*
X019060Y014429D02*
X022604Y014429D01*
X022584Y014724D02*
X019356Y014724D01*
X019454Y014823D02*
X022564Y014823D01*
X022564Y014921D02*
X019494Y014921D01*
X019494Y015020D02*
X022564Y015020D01*
X022564Y015118D02*
X019494Y015118D01*
X019494Y015217D02*
X022564Y015217D01*
X022564Y015315D02*
X019494Y015315D01*
X019494Y015414D02*
X022643Y015414D01*
X023575Y015414D02*
X025663Y015414D01*
X025565Y015315D02*
X023654Y015315D01*
X023765Y015217D02*
X025466Y015217D01*
X025456Y015118D02*
X023864Y015118D01*
X023962Y015020D02*
X024699Y015020D01*
X024634Y014921D02*
X024017Y014921D01*
X024024Y014823D02*
X024634Y014823D01*
X024634Y014724D02*
X024024Y014724D01*
X024024Y014626D02*
X024634Y014626D01*
X024634Y014527D02*
X024024Y014527D01*
X024024Y014429D02*
X024634Y014429D01*
X024634Y014330D02*
X024024Y014330D01*
X024025Y014232D02*
X024659Y014232D01*
X024634Y014133D02*
X024124Y014133D01*
X023524Y014527D02*
X019159Y014527D01*
X019257Y014626D02*
X023524Y014626D01*
X023159Y014429D02*
X023059Y014429D01*
X023059Y014330D02*
X023159Y014330D01*
X023159Y014232D02*
X023059Y014232D01*
X023059Y014133D02*
X018774Y014133D01*
X018399Y014804D02*
X018024Y014429D01*
X018024Y014379D01*
X017949Y014379D01*
X017945Y014379D01*
X017949Y014379D02*
X017949Y014254D01*
X017599Y013904D01*
X016774Y013904D01*
X016778Y013900D01*
X016778Y013279D01*
X016774Y013904D02*
X016124Y013904D01*
X015924Y014104D01*
X015924Y014103D02*
X015924Y014829D01*
X015849Y014904D01*
X016449Y014733D02*
X016449Y015079D01*
X016449Y014733D02*
X016803Y014379D01*
X015924Y013355D02*
X015873Y013304D01*
X014623Y013304D01*
X012325Y014104D02*
X012325Y014105D01*
X012325Y014104D02*
X012325Y014280D01*
X011849Y013079D02*
X011524Y012754D01*
X011524Y009704D01*
X010724Y008904D01*
X010724Y008455D01*
X010725Y008454D01*
X012324Y008179D02*
X012324Y007912D01*
X012316Y007904D01*
X012324Y008179D02*
X012999Y008854D01*
X010774Y009829D02*
X010778Y009925D01*
X010778Y010429D01*
X008624Y010204D02*
X008599Y010229D01*
X008599Y010383D01*
X013736Y015417D02*
X013749Y015404D01*
X013736Y015417D02*
X013736Y015906D01*
X011924Y016629D02*
X013524Y018229D01*
X013524Y018555D01*
X013524Y018579D01*
X013624Y018679D01*
X015949Y018679D01*
X016599Y019329D01*
X016599Y021129D01*
X017044Y021574D01*
X017100Y021574D01*
X017100Y022554D01*
X017100Y023404D01*
X017099Y023404D02*
X017074Y023379D01*
X017099Y023404D02*
X016999Y023504D01*
X016674Y024104D02*
X017549Y024104D01*
X017624Y024029D01*
X021399Y024029D01*
X021574Y023854D01*
X024374Y023854D01*
X024649Y023579D01*
X025524Y023579D01*
X025674Y023429D01*
X025724Y023804D02*
X024749Y023804D01*
X024499Y024054D01*
X021674Y024054D01*
X021474Y024254D01*
X018299Y024254D01*
X017374Y025179D01*
X017374Y025679D01*
X016699Y026129D02*
X018299Y027729D01*
X019449Y027729D01*
X020581Y028860D01*
X020581Y029381D01*
X020836Y029381D02*
X020836Y029692D01*
X021092Y029697D02*
X021092Y029381D01*
X021348Y029381D02*
X021349Y029380D01*
X021349Y028854D01*
X021449Y028754D01*
X021449Y028104D01*
X021974Y028104D02*
X021974Y028529D01*
X021599Y028904D01*
X021599Y029376D01*
X021604Y029381D01*
X021860Y029381D02*
X021874Y029367D01*
X021874Y029179D01*
X022474Y028579D01*
X022474Y028539D01*
X022474Y028529D02*
X022674Y028729D01*
X022674Y029304D01*
X022324Y030079D02*
X022024Y030219D01*
X022024Y030830D02*
X022123Y030929D01*
X023124Y030254D02*
X023174Y030304D01*
X023124Y030254D02*
X023124Y028204D01*
X023479Y027849D01*
X023969Y027849D01*
X023969Y027599D02*
X023969Y027334D01*
X023974Y027329D01*
X023969Y028109D02*
X023519Y028109D01*
X023424Y028204D01*
X023424Y029854D01*
X023524Y029929D01*
X024874Y030154D02*
X024874Y030605D01*
X024874Y031353D02*
X024975Y031454D01*
X025879Y031454D01*
X023799Y028629D02*
X023799Y028404D01*
X023749Y028354D01*
X023964Y028354D01*
X023969Y028359D01*
X024824Y028154D02*
X025029Y028359D01*
X025729Y028359D01*
X025729Y028109D02*
X025204Y028109D01*
X025024Y027929D01*
X025024Y026304D01*
X025174Y026154D01*
X024824Y025854D02*
X025424Y025254D01*
X025454Y025224D01*
X025454Y025014D01*
X025454Y024754D02*
X024799Y024754D01*
X024499Y024454D01*
X021874Y024454D01*
X021549Y024779D01*
X021549Y025255D01*
X022324Y025255D02*
X022324Y024804D01*
X023049Y024829D02*
X023049Y025205D01*
X023099Y025255D01*
X023724Y024804D02*
X023874Y025255D01*
X023874Y026003D02*
X023099Y026003D01*
X022999Y026103D01*
X022999Y026354D01*
X022324Y026003D02*
X021549Y026003D01*
X021649Y026103D01*
X021649Y026104D02*
X021724Y025929D01*
X021724Y026304D01*
X021604Y026809D02*
X020949Y026154D01*
X020774Y026154D01*
X020774Y026003D01*
X020774Y026104D01*
X020774Y026003D02*
X019999Y026003D01*
X019624Y026429D02*
X019224Y026029D01*
X019224Y026003D01*
X018474Y026003D01*
X018474Y025255D02*
X018474Y024654D01*
X018674Y024454D01*
X021574Y024454D01*
X021774Y024254D01*
X024824Y024254D01*
X025454Y024494D02*
X025584Y024494D01*
X025599Y024479D01*
X025599Y024279D01*
X025649Y024229D01*
X025724Y023804D02*
X026194Y024274D01*
X026194Y024494D01*
X026194Y025014D02*
X026174Y025034D01*
X026174Y025279D01*
X024824Y025854D02*
X024824Y028154D01*
X022474Y027869D02*
X022334Y027729D01*
X022474Y027589D01*
X022474Y027479D01*
X022334Y027729D02*
X021874Y027729D01*
X021860Y027715D01*
X021860Y027177D01*
X021604Y027177D02*
X021604Y026809D01*
X021348Y026838D02*
X020939Y026429D01*
X019624Y026429D01*
X020199Y026654D02*
X017824Y026654D01*
X013085Y021915D01*
X010801Y021915D01*
X010756Y021870D01*
X011399Y022129D02*
X010756Y022772D01*
X010756Y022870D01*
X011399Y022129D02*
X012999Y022129D01*
X018399Y027529D01*
X019574Y027529D01*
X020699Y028654D01*
X020924Y028654D01*
X020325Y028954D02*
X020274Y028904D01*
X019624Y028904D01*
X019499Y029029D01*
X018899Y029029D01*
X018849Y028979D01*
X018474Y029354D02*
X020041Y029354D01*
X020069Y029381D01*
X020074Y029376D01*
X020074Y029179D01*
X020325Y029381D02*
X020325Y028954D01*
X020699Y027729D02*
X020849Y027729D01*
X020836Y027716D01*
X020836Y027177D01*
X020581Y027177D02*
X020581Y027610D01*
X020699Y027729D01*
X020849Y027729D02*
X021074Y027729D01*
X021092Y027711D01*
X021092Y027177D01*
X021348Y027177D02*
X021348Y026838D01*
X020325Y026779D02*
X020325Y027177D01*
X020074Y027182D02*
X020069Y027177D01*
X020066Y027179D01*
X019224Y027179D01*
X020199Y026654D02*
X020325Y026779D01*
X021074Y027729D02*
X021874Y027729D01*
X020024Y025254D02*
X019999Y025229D01*
X019999Y025255D02*
X019999Y024829D01*
X017499Y024504D02*
X016774Y024504D01*
X015349Y023079D01*
X015149Y023079D01*
X014994Y022424D02*
X016674Y024104D01*
X017848Y022554D02*
X017999Y022553D01*
X017999Y022254D01*
X018174Y022079D01*
X019349Y022079D01*
X019623Y022353D01*
X019623Y022554D01*
X020850Y022554D01*
X021574Y022579D02*
X021599Y022604D01*
X021649Y022604D02*
X021599Y022554D01*
X021598Y022554D02*
X021748Y022704D01*
X021649Y022604D02*
X021749Y022504D01*
X021599Y022553D02*
X021599Y022129D01*
X024449Y022129D01*
X024649Y021929D01*
X024649Y021504D01*
X024426Y021281D01*
X024036Y021281D01*
X024013Y021304D01*
X023049Y021304D01*
X022850Y021503D01*
X022824Y021478D01*
X023199Y021904D02*
X022349Y021904D01*
X021699Y021254D01*
X020999Y021254D01*
X020849Y021104D01*
X020849Y020730D01*
X020850Y020729D01*
X020024Y020729D01*
X019623Y020729D01*
X018875Y020729D02*
X018875Y019880D01*
X018874Y019879D01*
X018875Y020729D02*
X017848Y020729D01*
X017100Y020729D02*
X017100Y019878D01*
X017848Y018729D02*
X018875Y018729D01*
X019623Y018729D02*
X020024Y018829D01*
X022824Y019933D02*
X022824Y020730D01*
X023273Y020755D01*
X023274Y020754D01*
X024009Y020754D01*
X024036Y020781D01*
X024036Y021781D02*
X023322Y021781D01*
X023199Y021904D01*
X021599Y022129D02*
X021474Y022004D01*
X019874Y022004D01*
X019624Y021754D01*
X019624Y021629D01*
X019649Y021604D01*
X018875Y021574D02*
X017848Y021574D01*
X014994Y022164D02*
X014994Y022424D01*
X014244Y021154D02*
X012723Y021154D01*
X012824Y021179D01*
X011975Y021154D02*
X011949Y021154D01*
X011699Y021154D01*
X011399Y020854D01*
X011399Y019654D01*
X011099Y019354D01*
X010272Y019354D01*
X009756Y018870D01*
X009756Y019870D02*
X009725Y019870D01*
X008624Y020970D01*
X008624Y027479D01*
X009574Y028429D01*
X009574Y028654D01*
X009774Y028029D02*
X012099Y030354D01*
X012494Y030354D01*
X013424Y030354D01*
X014424Y029354D01*
X014749Y029354D01*
X014399Y029879D02*
X014199Y029879D01*
X013224Y030854D01*
X012494Y030854D01*
X011974Y030854D01*
X011774Y030654D01*
X011774Y030329D01*
X008824Y027379D01*
X008824Y021770D01*
X009725Y020870D01*
X009756Y020870D01*
X010274Y021352D02*
X010756Y020870D01*
X010274Y021352D02*
X010274Y025504D01*
X010424Y025654D01*
X011624Y025654D01*
X011974Y026004D01*
X011974Y026129D01*
X011305Y026129D02*
X011305Y026635D01*
X012024Y027354D01*
X012474Y027354D01*
X012499Y027379D01*
X012494Y027854D02*
X012049Y027854D01*
X009224Y025029D01*
X009224Y023204D01*
X009559Y022870D01*
X009756Y022870D01*
X009024Y022429D02*
X009584Y021870D01*
X009756Y021870D01*
X009024Y022429D02*
X009024Y025379D01*
X011999Y028354D01*
X012494Y028354D01*
X012494Y028854D02*
X012949Y028854D01*
X013174Y029079D01*
X012899Y029354D01*
X012494Y029354D01*
X011574Y030429D02*
X011574Y031004D01*
X012074Y031504D01*
X012449Y031504D01*
X011574Y030429D02*
X010423Y029278D01*
X009774Y028029D02*
X009774Y026679D01*
X010800Y025179D02*
X010756Y025135D01*
X010756Y023870D01*
X011599Y023654D02*
X011625Y023654D01*
X011750Y023454D01*
X011750Y023578D01*
X011750Y023821D01*
X012325Y024396D01*
X013073Y024396D02*
X013416Y024396D01*
X013424Y024404D01*
X013649Y025254D02*
X012699Y025254D01*
X012699Y025262D02*
X012616Y025179D01*
X011548Y025179D01*
X012644Y026129D02*
X016699Y026129D01*
X016254Y026854D02*
X014499Y026854D01*
X014149Y026504D01*
X013174Y026854D02*
X012494Y026854D01*
X013649Y025254D02*
X014149Y025754D01*
X015074Y027329D02*
X016229Y027329D01*
X016254Y027354D01*
X015449Y027879D02*
X015449Y030004D01*
X015799Y030354D01*
X016254Y030354D01*
X016924Y028854D02*
X017374Y028404D01*
X019874Y030880D02*
X019825Y030929D01*
X028049Y026604D02*
X028049Y025529D01*
X028298Y025280D01*
X028599Y025280D01*
X028599Y026028D02*
X029374Y026028D01*
X029549Y026404D01*
X030724Y026529D02*
X030724Y026028D01*
X030774Y026028D01*
X031549Y026028D01*
X031549Y025280D02*
X031419Y025150D01*
X031419Y024404D01*
X031424Y024404D01*
X031424Y024504D01*
X031424Y024404D02*
X031424Y024379D01*
X031419Y024374D01*
X031419Y023904D01*
X033074Y024294D02*
X033074Y025218D01*
X033712Y025218D01*
X033811Y025317D01*
X033811Y025694D01*
X033717Y025788D01*
X033717Y025829D01*
X034599Y025829D01*
X034599Y027029D01*
X035999Y027029D01*
X035999Y023929D01*
X035937Y023928D01*
X035937Y024194D01*
X035838Y024294D01*
X035525Y024294D01*
X035520Y024296D01*
X035405Y024296D01*
X035400Y024294D01*
X035087Y024294D01*
X034987Y024194D01*
X034987Y023920D01*
X033811Y023910D01*
X033811Y024194D01*
X033712Y024294D01*
X033074Y024294D01*
X033074Y024377D02*
X035999Y024377D01*
X035999Y024279D02*
X035853Y024279D01*
X035937Y024180D02*
X035999Y024180D01*
X035999Y024082D02*
X035937Y024082D01*
X035937Y023983D02*
X035999Y023983D01*
X035999Y024476D02*
X033074Y024476D01*
X033074Y024574D02*
X035999Y024574D01*
X035999Y024673D02*
X033074Y024673D01*
X033074Y024771D02*
X035999Y024771D01*
X035999Y024870D02*
X033074Y024870D01*
X033074Y024968D02*
X035999Y024968D01*
X035999Y025067D02*
X033074Y025067D01*
X033074Y025165D02*
X035999Y025165D01*
X035999Y025264D02*
X035884Y025264D01*
X035838Y025218D02*
X035937Y025317D01*
X035937Y025694D01*
X035838Y025794D01*
X035087Y025794D01*
X034987Y025694D01*
X034987Y025317D01*
X035087Y025218D01*
X035838Y025218D01*
X035937Y025362D02*
X035999Y025362D01*
X035999Y025461D02*
X035937Y025461D01*
X035937Y025559D02*
X035999Y025559D01*
X035999Y025658D02*
X035937Y025658D01*
X035876Y025756D02*
X035999Y025756D01*
X035999Y025855D02*
X034599Y025855D01*
X034599Y025953D02*
X035999Y025953D01*
X035999Y026052D02*
X034599Y026052D01*
X034599Y026150D02*
X035999Y026150D01*
X035999Y026249D02*
X034599Y026249D01*
X034599Y026347D02*
X035999Y026347D01*
X035999Y026446D02*
X034599Y026446D01*
X034599Y026544D02*
X035999Y026544D01*
X035999Y026643D02*
X034599Y026643D01*
X034599Y026741D02*
X035999Y026741D01*
X035999Y026840D02*
X034599Y026840D01*
X034599Y026938D02*
X035999Y026938D01*
X034498Y027753D02*
X034498Y027829D01*
X034599Y027930D01*
X034599Y028654D01*
X034894Y028654D01*
X034498Y027753D02*
X034024Y027279D01*
X031624Y027279D01*
X030924Y027979D01*
X030924Y029779D01*
X030749Y029954D01*
X030749Y030179D01*
X031834Y031129D02*
X031884Y031179D01*
X032650Y031179D01*
X033398Y031179D02*
X034200Y031179D01*
X034200Y029953D01*
X034499Y029654D01*
X034894Y029654D01*
X035799Y030003D02*
X035935Y030003D01*
X035961Y030029D01*
X033674Y029979D02*
X033674Y027905D01*
X033750Y027829D01*
X033750Y025756D02*
X035049Y025756D01*
X034987Y025658D02*
X033811Y025658D01*
X033811Y025559D02*
X034987Y025559D01*
X034987Y025461D02*
X033811Y025461D01*
X033811Y025362D02*
X034987Y025362D01*
X035041Y025264D02*
X033758Y025264D01*
X033727Y024279D02*
X035071Y024279D01*
X034987Y024180D02*
X033811Y024180D01*
X033811Y024082D02*
X034987Y024082D01*
X034987Y023983D02*
X033811Y023983D01*
X031419Y022904D02*
X030849Y022904D01*
X030599Y022404D02*
X030474Y022404D01*
X029974Y022904D01*
X029379Y022904D01*
X029379Y022404D02*
X029379Y021904D01*
X029379Y021404D02*
X030274Y021404D01*
X030749Y021879D01*
X031394Y021879D01*
X031419Y021904D01*
X031900Y021904D01*
X032350Y021454D01*
X032350Y020679D01*
X033098Y020679D02*
X033098Y020180D01*
X033099Y020229D01*
X032624Y019854D02*
X034374Y019854D01*
X034724Y020204D01*
X034474Y020906D02*
X034101Y020881D01*
X034024Y020879D01*
X033099Y021455D02*
X033099Y021929D01*
X033099Y021455D02*
X033098Y021454D01*
X031424Y021404D02*
X031074Y021404D01*
X031049Y021379D01*
X031049Y021104D01*
X030299Y020704D02*
X030299Y020203D01*
X030225Y020129D01*
X030225Y019354D01*
X030973Y019354D02*
X030998Y019329D01*
X031024Y018904D01*
X031249Y018479D02*
X029649Y018479D01*
X031249Y018479D02*
X032624Y019854D01*
X031699Y020129D02*
X030973Y020129D01*
X028374Y020329D02*
X028349Y020354D01*
X028349Y019479D01*
X028299Y019479D01*
X028299Y019454D01*
X028170Y019454D01*
X028170Y019550D01*
X027753Y019550D01*
X027175Y020128D01*
X027150Y020279D01*
X026399Y020279D01*
X026389Y020269D01*
X026174Y020269D01*
X026162Y020281D01*
X027028Y019454D02*
X027274Y019454D01*
X027449Y019279D01*
X027899Y020279D02*
X027923Y020303D01*
X027898Y021054D01*
X028345Y021679D02*
X028145Y021829D01*
X028049Y021829D01*
X027350Y022528D01*
X027350Y022629D01*
X028098Y022629D02*
X028323Y022404D01*
X029379Y022404D01*
X028349Y021854D02*
X028349Y020354D01*
X028145Y021829D02*
X028195Y021854D01*
X028220Y021854D01*
X028145Y021829D01*
X028220Y021854D02*
X028349Y021854D01*
X030599Y022404D02*
X031419Y022404D01*
X029379Y023904D02*
X029379Y024404D01*
X029379Y025275D01*
X029374Y025280D01*
X030124Y025279D02*
X030125Y025280D01*
X030774Y025280D01*
X028249Y024579D02*
X028249Y024189D01*
X024849Y023204D02*
X022998Y023204D01*
X022824Y023378D01*
X022600Y023479D01*
X021599Y022553D02*
X021598Y022554D01*
X014254Y021144D02*
X014244Y021154D01*
X012723Y020104D02*
X012723Y019329D01*
X012724Y019328D01*
X012724Y018779D01*
X012332Y018387D01*
X012323Y018387D01*
X012699Y019303D02*
X012723Y019329D01*
X012699Y019303D02*
X013524Y019303D01*
X011975Y019329D02*
X011875Y019279D01*
X011949Y021154D02*
X011974Y021179D01*
X011750Y022679D02*
X011750Y023454D01*
X011750Y023578D02*
X011749Y023579D01*
X012498Y023454D02*
X012598Y023354D01*
X012874Y023354D01*
X012874Y022679D02*
X012899Y022654D01*
X012874Y022679D02*
X012498Y022679D01*
X009756Y023870D02*
X009756Y024936D01*
X009774Y024954D01*
X017924Y016629D02*
X017774Y016479D01*
X017924Y016629D02*
X025149Y016629D01*
X025674Y016104D01*
X025974Y016104D01*
X026049Y016179D01*
X028699Y016179D01*
X028374Y015979D02*
X028549Y015804D01*
X028849Y015804D01*
X029224Y016179D01*
X030124Y016179D01*
X028374Y015979D02*
X026149Y015979D01*
X026074Y015904D01*
X020023Y015904D01*
X019798Y016154D01*
X019050Y016154D02*
X019049Y016303D01*
X019049Y015054D01*
X018799Y014804D01*
X018399Y014804D01*
X018699Y015204D02*
X017709Y015204D01*
X017702Y015198D01*
X017920Y013279D02*
X018099Y013279D01*
X018644Y012360D02*
X020313Y012360D01*
X020313Y012262D02*
X018644Y012262D01*
X018644Y012163D02*
X020313Y012163D01*
X020649Y012656D02*
X020749Y012656D01*
X020749Y012754D02*
X020649Y012754D01*
X020649Y012853D02*
X020749Y012853D01*
X021006Y012853D02*
X022635Y012853D01*
X023059Y013838D02*
X023159Y013838D01*
X023159Y013936D02*
X023059Y013936D01*
X023059Y014035D02*
X023159Y014035D01*
X026698Y012879D02*
X026979Y012879D01*
X027624Y013474D01*
X027999Y015104D02*
X028024Y015129D01*
X028349Y015129D01*
X028424Y015204D01*
X032199Y015404D02*
X039524Y015404D01*
X040449Y016329D01*
X041198Y016329D02*
X041599Y016329D01*
X042949Y017679D01*
X045774Y017679D01*
X045938Y017843D01*
X045938Y018124D01*
X046194Y018124D02*
X046194Y017799D01*
X045950Y017555D01*
X045950Y017204D01*
X046324Y016830D02*
X046324Y016204D01*
X046099Y015979D01*
X046599Y015804D02*
X046599Y017079D01*
X046699Y017179D01*
X046710Y017192D02*
X046710Y017216D01*
X046698Y017204D01*
X046324Y017629D02*
X046454Y017759D01*
X046454Y018124D01*
X046710Y018124D02*
X046710Y018440D01*
X046774Y018514D01*
X047449Y018514D01*
X047589Y018369D01*
X047799Y018159D01*
X047799Y018153D01*
X047724Y018229D02*
X047589Y018369D01*
X047199Y018734D02*
X046856Y018734D01*
X046849Y018740D01*
X046766Y018734D01*
X046683Y018734D01*
X046677Y018727D01*
X046668Y018727D01*
X046613Y018664D01*
X046554Y018605D01*
X046554Y018596D01*
X046549Y018590D01*
X046503Y018544D01*
X046294Y018544D01*
X045522Y018544D01*
X045423Y018444D01*
X045423Y018129D01*
X044449Y018129D01*
X044449Y019979D01*
X045423Y019979D01*
X045423Y019564D01*
X045522Y019464D01*
X047126Y019464D01*
X047199Y019537D01*
X047199Y018734D01*
X047199Y018763D02*
X044449Y018763D01*
X044449Y018861D02*
X047199Y018861D01*
X047199Y018960D02*
X044449Y018960D01*
X044449Y019058D02*
X047199Y019058D01*
X047199Y019157D02*
X044449Y019157D01*
X044449Y019255D02*
X047199Y019255D01*
X047199Y019354D02*
X044449Y019354D01*
X044449Y019452D02*
X047199Y019452D01*
X046974Y019779D02*
X048374Y019779D01*
X048849Y020254D01*
X048849Y022579D01*
X048549Y022879D01*
X048199Y022879D01*
X047759Y022829D02*
X047759Y022553D01*
X047789Y022523D01*
X047779Y022485D01*
X047779Y022260D01*
X048174Y022260D01*
X048174Y022160D01*
X047779Y022160D01*
X047779Y021934D01*
X047789Y021896D01*
X047809Y021862D01*
X047837Y021834D01*
X047871Y021814D01*
X047909Y021804D01*
X048174Y021804D01*
X048174Y022160D01*
X048274Y022160D01*
X048274Y021804D01*
X048539Y021804D01*
X048577Y021814D01*
X048612Y021834D01*
X048629Y021851D01*
X048629Y020345D01*
X048613Y020329D01*
X048365Y020329D01*
X048365Y020581D01*
X048303Y020643D01*
X048315Y020655D01*
X048334Y020689D01*
X048345Y020727D01*
X048345Y020953D01*
X047949Y020953D01*
X047949Y021053D01*
X047849Y021053D01*
X047849Y020953D01*
X047454Y020953D01*
X047454Y020727D01*
X047464Y020689D01*
X047484Y020655D01*
X047496Y020643D01*
X047434Y020581D01*
X047434Y020499D01*
X046683Y020499D01*
X046554Y020370D01*
X046513Y020329D01*
X046414Y020329D01*
X046414Y020658D01*
X046860Y021104D01*
X047290Y021104D01*
X047390Y021204D01*
X047390Y021856D01*
X047328Y021918D01*
X047340Y021930D01*
X047359Y021964D01*
X047370Y022002D01*
X047370Y022228D01*
X046974Y022228D01*
X046974Y022328D01*
X046874Y022328D01*
X046874Y022228D01*
X046479Y022228D01*
X046199Y022228D01*
X046199Y022328D01*
X046099Y022328D01*
X045820Y022328D01*
X045424Y022328D01*
X045324Y022328D01*
X045324Y022228D01*
X044929Y022228D01*
X044649Y022228D01*
X044649Y022328D01*
X044549Y022328D01*
X044549Y022228D01*
X044154Y022228D01*
X044154Y022002D01*
X044164Y021964D01*
X044184Y021930D01*
X044196Y021918D01*
X044176Y021898D01*
X043977Y022097D01*
X043672Y022097D01*
X043456Y021881D01*
X043456Y021726D01*
X043437Y021707D01*
X043415Y021729D01*
X042684Y021729D01*
X042584Y021629D01*
X042584Y021274D01*
X041879Y021274D01*
X041879Y021649D01*
X041780Y021749D01*
X041419Y021749D01*
X041319Y021649D01*
X041319Y020909D01*
X041329Y020899D01*
X041019Y020899D01*
X040924Y020804D01*
X040924Y022204D01*
X041549Y022829D01*
X047759Y022829D01*
X047759Y022801D02*
X041521Y022801D01*
X041423Y022703D02*
X047759Y022703D01*
X047759Y022604D02*
X047352Y022604D01*
X047359Y022592D02*
X047340Y022626D01*
X047312Y022654D01*
X047277Y022674D01*
X047239Y022684D01*
X046974Y022684D01*
X046974Y022328D01*
X047370Y022328D01*
X047370Y022554D01*
X047359Y022592D01*
X047370Y022506D02*
X047784Y022506D01*
X047779Y022407D02*
X047370Y022407D01*
X047370Y022210D02*
X048174Y022210D01*
X048174Y022112D02*
X048274Y022112D01*
X048274Y022013D02*
X048174Y022013D01*
X048174Y021915D02*
X048274Y021915D01*
X048274Y021816D02*
X048174Y021816D01*
X047867Y021816D02*
X047390Y021816D01*
X047390Y021718D02*
X048629Y021718D01*
X048629Y021816D02*
X048581Y021816D01*
X048629Y021619D02*
X047390Y021619D01*
X047390Y021521D02*
X048629Y021521D01*
X048629Y021422D02*
X047390Y021422D01*
X047390Y021324D02*
X047468Y021324D01*
X047464Y021317D02*
X047454Y021279D01*
X047454Y021053D01*
X047849Y021053D01*
X047849Y021409D01*
X047584Y021409D01*
X047546Y021399D01*
X047512Y021379D01*
X047484Y021351D01*
X047464Y021317D01*
X047454Y021225D02*
X047390Y021225D01*
X047454Y021127D02*
X047313Y021127D01*
X047454Y020930D02*
X046686Y020930D01*
X046785Y021028D02*
X047849Y021028D01*
X047849Y021127D02*
X047949Y021127D01*
X047949Y021053D02*
X047949Y021409D01*
X048214Y021409D01*
X048252Y021399D01*
X048287Y021379D01*
X048315Y021351D01*
X048334Y021317D01*
X048345Y021279D01*
X048345Y021053D01*
X047949Y021053D01*
X047949Y021028D02*
X048629Y021028D01*
X048629Y020930D02*
X048345Y020930D01*
X048345Y020831D02*
X048629Y020831D01*
X048629Y020733D02*
X048345Y020733D01*
X048312Y020634D02*
X048629Y020634D01*
X048629Y020536D02*
X048365Y020536D01*
X048365Y020437D02*
X048629Y020437D01*
X048623Y020339D02*
X048365Y020339D01*
X047899Y020255D02*
X047875Y020279D01*
X046774Y020279D01*
X046710Y020215D01*
X046710Y019884D01*
X046966Y019884D02*
X046966Y019862D01*
X046974Y019854D01*
X046974Y019779D01*
X046523Y020339D02*
X046414Y020339D01*
X046454Y020309D02*
X046454Y020459D01*
X046649Y020654D01*
X046489Y020733D02*
X047454Y020733D01*
X047454Y020831D02*
X046588Y020831D01*
X046414Y020634D02*
X047487Y020634D01*
X047434Y020536D02*
X046414Y020536D01*
X046414Y020437D02*
X046621Y020437D01*
X046194Y020749D02*
X046194Y019884D01*
X045938Y019884D02*
X045938Y021068D01*
X045949Y021079D01*
X045938Y021090D01*
X045938Y021319D01*
X046149Y021530D01*
X046049Y021530D01*
X045374Y021530D02*
X045348Y021504D01*
X045348Y020729D01*
X045174Y020755D01*
X045349Y020729D02*
X045683Y020396D01*
X045683Y019884D01*
X045423Y019846D02*
X044449Y019846D01*
X044449Y019748D02*
X045423Y019748D01*
X045423Y019649D02*
X044449Y019649D01*
X044449Y019551D02*
X045436Y019551D01*
X045423Y019945D02*
X044449Y019945D01*
X043824Y019753D02*
X043049Y019753D01*
X043048Y019754D01*
X042674Y019754D01*
X042648Y019780D01*
X042923Y020429D02*
X041999Y020429D01*
X041199Y020429D02*
X040324Y020429D01*
X039674Y020437D02*
X036874Y020437D01*
X036874Y020339D02*
X039674Y020339D01*
X039674Y020240D02*
X036874Y020240D01*
X036874Y020142D02*
X039674Y020142D01*
X039674Y020043D02*
X036874Y020043D01*
X036874Y019945D02*
X037466Y019945D01*
X037438Y019916D02*
X037438Y019603D01*
X037436Y019599D01*
X037436Y019244D01*
X037373Y019244D01*
X037276Y019340D01*
X036874Y019340D01*
X036874Y021302D01*
X037365Y021302D01*
X037438Y021375D01*
X037438Y021291D01*
X037538Y021192D01*
X037915Y021192D01*
X038014Y021291D01*
X038014Y021605D01*
X038016Y021609D01*
X038016Y021725D01*
X038014Y021729D01*
X038014Y021954D01*
X038938Y021954D01*
X038938Y021291D01*
X039038Y021192D01*
X039415Y021192D01*
X039514Y021291D01*
X039514Y021954D01*
X039674Y021954D01*
X039674Y018954D01*
X038226Y018954D01*
X038226Y019070D01*
X038127Y019169D01*
X038016Y019169D01*
X038016Y019599D01*
X038014Y019603D01*
X038014Y019916D01*
X037915Y020016D01*
X037538Y020016D01*
X037438Y019916D01*
X037438Y019846D02*
X036874Y019846D01*
X036874Y019748D02*
X037438Y019748D01*
X037438Y019649D02*
X036874Y019649D01*
X036874Y019551D02*
X037436Y019551D01*
X037436Y019452D02*
X036874Y019452D01*
X036874Y019354D02*
X037436Y019354D01*
X037436Y019255D02*
X037362Y019255D01*
X038016Y019255D02*
X038938Y019255D01*
X038938Y019165D02*
X039038Y019066D01*
X039415Y019066D01*
X039514Y019165D01*
X039514Y019916D01*
X039415Y020016D01*
X039038Y020016D01*
X038938Y019916D01*
X038938Y019165D01*
X038947Y019157D02*
X038139Y019157D01*
X038226Y019058D02*
X039674Y019058D01*
X039674Y018960D02*
X038226Y018960D01*
X038016Y019354D02*
X038938Y019354D01*
X038938Y019452D02*
X038016Y019452D01*
X038016Y019551D02*
X038938Y019551D01*
X038938Y019649D02*
X038014Y019649D01*
X038014Y019748D02*
X038938Y019748D01*
X038938Y019846D02*
X038014Y019846D01*
X037986Y019945D02*
X038966Y019945D01*
X039486Y019945D02*
X039674Y019945D01*
X039674Y019846D02*
X039514Y019846D01*
X039514Y019748D02*
X039674Y019748D01*
X039674Y019649D02*
X039514Y019649D01*
X039514Y019551D02*
X039674Y019551D01*
X039674Y019452D02*
X039514Y019452D01*
X039514Y019354D02*
X039674Y019354D01*
X039674Y019255D02*
X039514Y019255D01*
X039505Y019157D02*
X039674Y019157D01*
X040324Y018930D02*
X040324Y018128D01*
X040324Y017380D02*
X040324Y017379D01*
X038724Y015779D01*
X037624Y015779D01*
X039424Y014329D02*
X043174Y014329D01*
X043424Y014079D01*
X043424Y012704D01*
X043299Y012579D01*
X041799Y012579D01*
X041049Y013329D01*
X039424Y013329D01*
X039424Y014329D01*
X039424Y014232D02*
X043272Y014232D01*
X043370Y014133D02*
X039424Y014133D01*
X039424Y014035D02*
X043424Y014035D01*
X043424Y013936D02*
X039424Y013936D01*
X039424Y013838D02*
X043424Y013838D01*
X043424Y013739D02*
X039424Y013739D01*
X039424Y013641D02*
X043424Y013641D01*
X043424Y013542D02*
X039424Y013542D01*
X039424Y013444D02*
X043424Y013444D01*
X043424Y013345D02*
X039424Y013345D01*
X041132Y013247D02*
X043424Y013247D01*
X043424Y013148D02*
X041230Y013148D01*
X041329Y013050D02*
X043424Y013050D01*
X043424Y012951D02*
X041427Y012951D01*
X041526Y012853D02*
X043424Y012853D01*
X043424Y012754D02*
X041624Y012754D01*
X041723Y012656D02*
X043376Y012656D01*
X044461Y013542D02*
X046799Y013542D01*
X046799Y013444D02*
X044560Y013444D01*
X044658Y013345D02*
X046799Y013345D01*
X046799Y013329D02*
X044674Y013329D01*
X043174Y014829D01*
X043174Y017254D01*
X044274Y017254D01*
X044274Y015854D01*
X044549Y015579D01*
X045174Y015579D01*
X045174Y014454D01*
X045299Y014329D01*
X046299Y014329D01*
X046799Y013829D01*
X046799Y013329D01*
X046799Y013641D02*
X044363Y013641D01*
X044264Y013739D02*
X046799Y013739D01*
X046791Y013838D02*
X044166Y013838D01*
X044067Y013936D02*
X046692Y013936D01*
X046594Y014035D02*
X043969Y014035D01*
X043870Y014133D02*
X046495Y014133D01*
X046397Y014232D02*
X043772Y014232D01*
X043673Y014330D02*
X045298Y014330D01*
X045200Y014429D02*
X043575Y014429D01*
X043476Y014527D02*
X045174Y014527D01*
X045174Y014626D02*
X043378Y014626D01*
X043279Y014724D02*
X045174Y014724D01*
X045174Y014823D02*
X043181Y014823D01*
X043174Y014921D02*
X045174Y014921D01*
X045174Y015020D02*
X043174Y015020D01*
X043174Y015118D02*
X045174Y015118D01*
X045174Y015217D02*
X043174Y015217D01*
X043174Y015315D02*
X045174Y015315D01*
X045174Y015414D02*
X043174Y015414D01*
X043174Y015512D02*
X045174Y015512D01*
X044922Y015004D02*
X045799Y015004D01*
X046599Y015804D01*
X047049Y015579D02*
X047574Y015579D01*
X047924Y015229D01*
X048649Y015229D01*
X048649Y014279D01*
X047174Y014279D01*
X047049Y014404D01*
X047049Y015579D01*
X047049Y015512D02*
X047641Y015512D01*
X047740Y015414D02*
X047049Y015414D01*
X047049Y015315D02*
X047838Y015315D01*
X047127Y015004D02*
X046474Y015004D01*
X047049Y015020D02*
X048649Y015020D01*
X048649Y015118D02*
X047049Y015118D01*
X047049Y015217D02*
X048649Y015217D01*
X048649Y014921D02*
X047049Y014921D01*
X047049Y014823D02*
X048649Y014823D01*
X048649Y014724D02*
X047049Y014724D01*
X047049Y014626D02*
X048649Y014626D01*
X048649Y014527D02*
X047049Y014527D01*
X047049Y014429D02*
X048649Y014429D01*
X048649Y014330D02*
X047123Y014330D01*
X048149Y013704D02*
X048449Y014004D01*
X049274Y014004D01*
X049341Y013937D01*
X049341Y013844D01*
X049424Y013761D01*
X049424Y011579D01*
X049249Y011404D01*
X049051Y011404D01*
X049011Y011444D01*
X048207Y011444D01*
X048167Y011404D01*
X048149Y011404D01*
X047824Y011079D01*
X047824Y009579D01*
X047599Y009354D01*
X044924Y009329D01*
X044905Y009349D01*
X044905Y009996D01*
X044799Y010101D01*
X044799Y012754D01*
X044999Y012954D01*
X047949Y012954D01*
X048149Y013154D01*
X048149Y013704D01*
X048184Y013739D02*
X049424Y013739D01*
X049424Y013641D02*
X048149Y013641D01*
X048149Y013542D02*
X049424Y013542D01*
X049424Y013444D02*
X048149Y013444D01*
X048149Y013345D02*
X049424Y013345D01*
X049424Y013247D02*
X048149Y013247D01*
X048143Y013148D02*
X049424Y013148D01*
X049424Y013050D02*
X048045Y013050D01*
X048283Y013838D02*
X049347Y013838D01*
X049341Y013936D02*
X048381Y013936D01*
X049549Y014097D02*
X049645Y014001D01*
X049684Y013906D01*
X049684Y011527D01*
X049645Y011432D01*
X049597Y011384D01*
X049768Y011384D01*
X049891Y011261D01*
X049891Y010497D01*
X049768Y010374D01*
X049082Y010374D01*
X049077Y010379D01*
X049011Y010314D01*
X048774Y010314D01*
X048774Y008429D01*
X048999Y008204D01*
X055674Y008204D01*
X055724Y008229D01*
X056101Y008625D01*
X056101Y009044D01*
X056224Y009167D01*
X056617Y009167D01*
X056699Y009254D01*
X056699Y020329D01*
X056124Y020904D01*
X050049Y020904D01*
X049549Y020404D01*
X049549Y014097D01*
X049549Y014133D02*
X056699Y014133D01*
X056699Y014035D02*
X049611Y014035D01*
X049672Y013936D02*
X056699Y013936D01*
X056699Y013838D02*
X049684Y013838D01*
X049684Y013739D02*
X056699Y013739D01*
X056699Y013641D02*
X049684Y013641D01*
X049684Y013542D02*
X056699Y013542D01*
X056699Y013444D02*
X049684Y013444D01*
X049684Y013345D02*
X056699Y013345D01*
X056699Y013247D02*
X049684Y013247D01*
X049684Y013148D02*
X056699Y013148D01*
X056699Y013050D02*
X049684Y013050D01*
X049684Y012951D02*
X056699Y012951D01*
X056699Y012853D02*
X049684Y012853D01*
X049684Y012754D02*
X056699Y012754D01*
X056699Y012656D02*
X049684Y012656D01*
X049684Y012557D02*
X056699Y012557D01*
X056699Y012459D02*
X049684Y012459D01*
X049684Y012360D02*
X056699Y012360D01*
X056699Y012262D02*
X049684Y012262D01*
X049684Y012163D02*
X056699Y012163D01*
X056699Y012065D02*
X049684Y012065D01*
X049684Y011966D02*
X056699Y011966D01*
X056699Y011868D02*
X049684Y011868D01*
X049684Y011769D02*
X056699Y011769D01*
X056699Y011671D02*
X049684Y011671D01*
X049684Y011572D02*
X056699Y011572D01*
X056699Y011474D02*
X049662Y011474D01*
X049777Y011375D02*
X056699Y011375D01*
X056699Y011277D02*
X049876Y011277D01*
X049891Y011178D02*
X056699Y011178D01*
X056699Y011080D02*
X049891Y011080D01*
X049891Y010981D02*
X056699Y010981D01*
X056699Y010883D02*
X049891Y010883D01*
X049891Y010784D02*
X056699Y010784D01*
X056699Y010686D02*
X049891Y010686D01*
X049891Y010587D02*
X056699Y010587D01*
X056699Y010489D02*
X049883Y010489D01*
X049785Y010390D02*
X056699Y010390D01*
X056699Y010292D02*
X048774Y010292D01*
X048774Y010193D02*
X056699Y010193D01*
X056699Y010095D02*
X048774Y010095D01*
X048774Y009996D02*
X056699Y009996D01*
X056699Y009898D02*
X048774Y009898D01*
X048774Y009799D02*
X056699Y009799D01*
X056699Y009701D02*
X048774Y009701D01*
X048774Y009602D02*
X056699Y009602D01*
X056699Y009504D02*
X048774Y009504D01*
X048774Y009405D02*
X056699Y009405D01*
X056699Y009307D02*
X048774Y009307D01*
X048774Y009208D02*
X056656Y009208D01*
X056166Y009110D02*
X048774Y009110D01*
X048774Y009011D02*
X056101Y009011D01*
X056101Y008913D02*
X048774Y008913D01*
X048774Y008814D02*
X056101Y008814D01*
X056101Y008716D02*
X048774Y008716D01*
X048774Y008617D02*
X056093Y008617D01*
X056000Y008519D02*
X048774Y008519D01*
X048783Y008420D02*
X055906Y008420D01*
X055812Y008322D02*
X048882Y008322D01*
X048980Y008223D02*
X055712Y008223D01*
X055624Y007705D02*
X055624Y006704D01*
X056099Y006704D01*
X055049Y006746D02*
X043633Y006746D01*
X043549Y006829D02*
X043799Y006579D01*
X043799Y004029D01*
X044183Y003645D01*
X055049Y003645D01*
X055049Y007379D01*
X054574Y007829D01*
X048349Y007829D01*
X042174Y007829D01*
X042174Y007731D02*
X054678Y007731D01*
X054782Y007632D02*
X042174Y007632D01*
X042174Y007534D02*
X054886Y007534D01*
X054990Y007435D02*
X042174Y007435D01*
X042174Y007337D02*
X055049Y007337D01*
X055049Y007238D02*
X042174Y007238D01*
X042174Y007140D02*
X055049Y007140D01*
X055049Y007041D02*
X042174Y007041D01*
X042174Y006954D02*
X042174Y008829D01*
X042424Y008954D01*
X047224Y008954D01*
X048349Y007829D01*
X048251Y007928D02*
X042174Y007928D01*
X042174Y008026D02*
X048152Y008026D01*
X048054Y008125D02*
X042174Y008125D01*
X042174Y008223D02*
X047955Y008223D01*
X047857Y008322D02*
X042174Y008322D01*
X042174Y008420D02*
X047758Y008420D01*
X047660Y008519D02*
X042174Y008519D01*
X042174Y008617D02*
X047561Y008617D01*
X047463Y008716D02*
X042174Y008716D01*
X042174Y008814D02*
X047364Y008814D01*
X047266Y008913D02*
X042341Y008913D01*
X042849Y008554D02*
X041874Y009529D01*
X041874Y010354D01*
X044799Y010390D02*
X047824Y010390D01*
X047824Y010292D02*
X044799Y010292D01*
X044799Y010193D02*
X047824Y010193D01*
X047824Y010095D02*
X044806Y010095D01*
X044904Y009996D02*
X047824Y009996D01*
X047824Y009898D02*
X044905Y009898D01*
X044905Y009799D02*
X047824Y009799D01*
X047824Y009701D02*
X044905Y009701D01*
X044905Y009602D02*
X047824Y009602D01*
X047749Y009504D02*
X044905Y009504D01*
X044905Y009405D02*
X047650Y009405D01*
X047824Y010489D02*
X044799Y010489D01*
X044799Y010587D02*
X047824Y010587D01*
X047824Y010686D02*
X044799Y010686D01*
X044799Y010784D02*
X047824Y010784D01*
X047824Y010883D02*
X044799Y010883D01*
X044799Y010981D02*
X047824Y010981D01*
X047825Y011080D02*
X044799Y011080D01*
X044799Y011178D02*
X047923Y011178D01*
X048022Y011277D02*
X044799Y011277D01*
X044799Y011375D02*
X048120Y011375D01*
X049319Y011474D02*
X044799Y011474D01*
X044799Y011572D02*
X049417Y011572D01*
X049424Y011671D02*
X044799Y011671D01*
X044799Y011769D02*
X049424Y011769D01*
X049424Y011868D02*
X044799Y011868D01*
X044799Y011966D02*
X049424Y011966D01*
X049424Y012065D02*
X044799Y012065D01*
X044799Y012163D02*
X049424Y012163D01*
X049424Y012262D02*
X044799Y012262D01*
X044799Y012360D02*
X049424Y012360D01*
X049424Y012459D02*
X044799Y012459D01*
X044799Y012557D02*
X049424Y012557D01*
X049424Y012656D02*
X044799Y012656D01*
X044799Y012754D02*
X049424Y012754D01*
X049424Y012853D02*
X044898Y012853D01*
X044996Y012951D02*
X049424Y012951D01*
X049549Y014232D02*
X056699Y014232D01*
X056699Y014330D02*
X049549Y014330D01*
X049549Y014429D02*
X056699Y014429D01*
X056699Y014527D02*
X049549Y014527D01*
X049549Y014626D02*
X056699Y014626D01*
X056699Y014724D02*
X049549Y014724D01*
X049549Y014823D02*
X056699Y014823D01*
X056699Y014921D02*
X049549Y014921D01*
X049549Y015020D02*
X056699Y015020D01*
X056699Y015118D02*
X049549Y015118D01*
X049549Y015217D02*
X056699Y015217D01*
X056699Y015315D02*
X049549Y015315D01*
X049549Y015414D02*
X056699Y015414D01*
X056699Y015512D02*
X049549Y015512D01*
X049549Y015611D02*
X056699Y015611D01*
X056699Y015709D02*
X049549Y015709D01*
X049549Y015808D02*
X056699Y015808D01*
X056699Y015906D02*
X049549Y015906D01*
X049549Y016005D02*
X056699Y016005D01*
X056699Y016103D02*
X049549Y016103D01*
X049549Y016202D02*
X056699Y016202D01*
X056699Y016300D02*
X049549Y016300D01*
X049549Y016399D02*
X056699Y016399D01*
X056699Y016497D02*
X049549Y016497D01*
X049549Y016596D02*
X056699Y016596D01*
X056699Y016694D02*
X049549Y016694D01*
X049549Y016793D02*
X056699Y016793D01*
X056699Y016891D02*
X049549Y016891D01*
X049549Y016990D02*
X056699Y016990D01*
X056699Y017088D02*
X049549Y017088D01*
X049549Y017187D02*
X056699Y017187D01*
X056699Y017285D02*
X049549Y017285D01*
X049549Y017384D02*
X056699Y017384D01*
X056699Y017482D02*
X049549Y017482D01*
X049549Y017581D02*
X056699Y017581D01*
X056699Y017679D02*
X049549Y017679D01*
X049549Y017778D02*
X056699Y017778D01*
X056699Y017876D02*
X049549Y017876D01*
X049549Y017975D02*
X056699Y017975D01*
X056699Y018073D02*
X049549Y018073D01*
X049549Y018172D02*
X056699Y018172D01*
X056699Y018270D02*
X049549Y018270D01*
X049549Y018369D02*
X056699Y018369D01*
X056699Y018467D02*
X049549Y018467D01*
X049549Y018566D02*
X056699Y018566D01*
X056699Y018664D02*
X049549Y018664D01*
X049549Y018763D02*
X056699Y018763D01*
X056699Y018861D02*
X049549Y018861D01*
X049549Y018960D02*
X056699Y018960D01*
X056699Y019058D02*
X049549Y019058D01*
X049549Y019157D02*
X056699Y019157D01*
X056699Y019255D02*
X049549Y019255D01*
X049549Y019354D02*
X056699Y019354D01*
X056699Y019452D02*
X049549Y019452D01*
X049549Y019551D02*
X056699Y019551D01*
X056699Y019649D02*
X052267Y019649D01*
X052266Y019649D02*
X052314Y019696D01*
X052346Y019664D01*
X052752Y019664D01*
X053039Y019951D01*
X053039Y020357D01*
X052752Y020644D01*
X052346Y020644D01*
X052314Y020612D01*
X052266Y020659D01*
X051580Y020659D01*
X051549Y020628D01*
X051518Y020659D01*
X050832Y020659D01*
X050771Y020597D01*
X050744Y020624D01*
X050355Y020624D01*
X050079Y020349D01*
X050079Y019959D01*
X050355Y019684D01*
X050744Y019684D01*
X050771Y019711D01*
X050832Y019649D01*
X049549Y019649D01*
X049549Y019748D02*
X050291Y019748D01*
X050192Y019846D02*
X049549Y019846D01*
X049549Y019945D02*
X050094Y019945D01*
X050079Y020043D02*
X049549Y020043D01*
X049549Y020142D02*
X050079Y020142D01*
X050079Y020240D02*
X049549Y020240D01*
X049549Y020339D02*
X050079Y020339D01*
X050168Y020437D02*
X049582Y020437D01*
X049681Y020536D02*
X050266Y020536D01*
X049976Y020831D02*
X056197Y020831D01*
X056296Y020733D02*
X049878Y020733D01*
X049779Y020634D02*
X050807Y020634D01*
X050549Y020154D02*
X051175Y020154D01*
X051543Y020634D02*
X051555Y020634D01*
X051923Y020154D02*
X052549Y020154D01*
X053039Y020142D02*
X056699Y020142D01*
X056699Y020240D02*
X053039Y020240D01*
X053039Y020339D02*
X056690Y020339D01*
X056591Y020437D02*
X052959Y020437D01*
X052861Y020536D02*
X056493Y020536D01*
X056394Y020634D02*
X052762Y020634D01*
X052336Y020634D02*
X052291Y020634D01*
X053039Y020043D02*
X056699Y020043D01*
X056699Y019945D02*
X053033Y019945D01*
X052934Y019846D02*
X056699Y019846D01*
X056699Y019748D02*
X052836Y019748D01*
X052266Y019649D02*
X051580Y019649D01*
X051519Y019649D01*
X051518Y019649D02*
X051549Y019680D01*
X051580Y019649D01*
X051518Y019649D02*
X050832Y019649D01*
X048314Y019254D02*
X047800Y019254D01*
X046613Y018664D02*
X044449Y018664D01*
X044449Y018566D02*
X046525Y018566D01*
X045445Y018467D02*
X044449Y018467D01*
X044449Y018369D02*
X045423Y018369D01*
X045423Y018270D02*
X044449Y018270D01*
X044449Y018172D02*
X045423Y018172D01*
X044274Y017187D02*
X043174Y017187D01*
X043174Y017088D02*
X044274Y017088D01*
X044274Y016990D02*
X043174Y016990D01*
X043174Y016891D02*
X044274Y016891D01*
X044274Y016793D02*
X043174Y016793D01*
X043174Y016694D02*
X044274Y016694D01*
X044274Y016596D02*
X043174Y016596D01*
X043174Y016497D02*
X044274Y016497D01*
X044274Y016399D02*
X043174Y016399D01*
X043174Y016300D02*
X044274Y016300D01*
X044274Y016202D02*
X043174Y016202D01*
X043174Y016103D02*
X044274Y016103D01*
X044274Y016005D02*
X043174Y016005D01*
X043174Y015906D02*
X044274Y015906D01*
X044321Y015808D02*
X043174Y015808D01*
X043174Y015709D02*
X044419Y015709D01*
X044518Y015611D02*
X043174Y015611D01*
X042299Y018004D02*
X042324Y018029D01*
X042324Y018554D01*
X042074Y018554D01*
X041973Y018655D01*
X041973Y018821D01*
X042324Y018554D02*
X043624Y018554D01*
X043824Y018754D01*
X043824Y019005D01*
X043049Y019005D02*
X043000Y019254D01*
X041424Y019254D01*
X041225Y019055D01*
X041225Y018821D01*
X041116Y018930D01*
X040324Y018930D01*
X040324Y019678D02*
X041598Y019678D01*
X041599Y019679D01*
X041599Y019687D02*
X041599Y021054D01*
X042800Y021054D01*
X043049Y021303D01*
X042584Y021324D02*
X041879Y021324D01*
X041879Y021422D02*
X042584Y021422D01*
X042584Y021521D02*
X041879Y021521D01*
X041879Y021619D02*
X042584Y021619D01*
X042672Y021718D02*
X041811Y021718D01*
X041387Y021718D02*
X040924Y021718D01*
X040924Y021816D02*
X043456Y021816D01*
X043447Y021718D02*
X043426Y021718D01*
X043489Y021915D02*
X040924Y021915D01*
X040924Y022013D02*
X043588Y022013D01*
X043824Y021729D02*
X043823Y021304D01*
X043824Y021303D01*
X043824Y021104D01*
X043599Y021104D01*
X043050Y020555D01*
X043049Y020555D01*
X042923Y020429D01*
X043824Y020555D02*
X043824Y019753D01*
X044600Y020729D02*
X044599Y020730D01*
X044599Y021530D01*
X044192Y021915D02*
X044159Y021915D01*
X044154Y022013D02*
X044061Y022013D01*
X044154Y022112D02*
X040924Y022112D01*
X040930Y022210D02*
X044154Y022210D01*
X044154Y022328D02*
X044549Y022328D01*
X044549Y022684D01*
X044284Y022684D01*
X044246Y022674D01*
X044212Y022654D01*
X044184Y022626D01*
X044164Y022592D01*
X044154Y022554D01*
X044154Y022328D01*
X044154Y022407D02*
X041127Y022407D01*
X041029Y022309D02*
X044549Y022309D01*
X044549Y022407D02*
X044649Y022407D01*
X044649Y022328D02*
X044649Y022684D01*
X044914Y022684D01*
X044952Y022674D01*
X044987Y022654D01*
X044987Y022654D01*
X045021Y022674D01*
X045059Y022684D01*
X045324Y022684D01*
X045324Y022328D01*
X044649Y022328D01*
X044649Y022309D02*
X045324Y022309D01*
X045324Y022407D02*
X045424Y022407D01*
X045424Y022328D02*
X045424Y022684D01*
X045689Y022684D01*
X045727Y022674D01*
X045762Y022654D01*
X045762Y022654D01*
X045796Y022674D01*
X045834Y022684D01*
X046099Y022684D01*
X046099Y022328D01*
X046099Y022228D01*
X045424Y022228D01*
X045424Y022328D01*
X045424Y022309D02*
X046099Y022309D01*
X046099Y022407D02*
X046199Y022407D01*
X046199Y022328D02*
X046199Y022684D01*
X046464Y022684D01*
X046502Y022674D01*
X046537Y022654D01*
X046537Y022654D01*
X046571Y022674D01*
X046609Y022684D01*
X046874Y022684D01*
X046874Y022328D01*
X046199Y022328D01*
X046199Y022309D02*
X046874Y022309D01*
X046874Y022407D02*
X046974Y022407D01*
X046974Y022309D02*
X047779Y022309D01*
X047779Y022112D02*
X047370Y022112D01*
X047370Y022013D02*
X047779Y022013D01*
X047784Y021915D02*
X047331Y021915D01*
X046924Y021530D02*
X046924Y021479D01*
X046194Y020749D01*
X046999Y021404D02*
X046924Y021530D01*
X046999Y021454D01*
X047849Y021324D02*
X047949Y021324D01*
X047949Y021225D02*
X047849Y021225D01*
X048330Y021324D02*
X048629Y021324D01*
X048629Y021225D02*
X048345Y021225D01*
X048345Y021127D02*
X048629Y021127D01*
X046974Y022506D02*
X046874Y022506D01*
X046874Y022604D02*
X046974Y022604D01*
X046537Y022654D02*
X046537Y022654D01*
X046199Y022604D02*
X046099Y022604D01*
X046099Y022506D02*
X046199Y022506D01*
X045762Y022654D02*
X045762Y022654D01*
X045424Y022604D02*
X045324Y022604D01*
X045324Y022506D02*
X045424Y022506D01*
X044987Y022654D02*
X044987Y022654D01*
X044649Y022604D02*
X044549Y022604D01*
X044549Y022506D02*
X044649Y022506D01*
X044171Y022604D02*
X041324Y022604D01*
X041226Y022506D02*
X044154Y022506D01*
X044599Y023404D02*
X043624Y023404D01*
X043324Y023704D01*
X043324Y024005D01*
X042549Y024005D02*
X042549Y023604D01*
X042574Y023579D01*
X041774Y023619D02*
X041774Y024005D01*
X041774Y023619D02*
X041734Y023579D01*
X040999Y023644D02*
X040999Y024005D01*
X040999Y023644D02*
X040934Y023579D01*
X040349Y023129D02*
X046724Y023129D01*
X046749Y023154D01*
X046749Y024829D01*
X046399Y025179D01*
X045674Y025179D01*
X045019Y025834D01*
X045019Y026334D01*
X044779Y026329D02*
X044779Y025984D01*
X044799Y025964D01*
X044799Y025929D01*
X044799Y025743D01*
X045454Y025088D01*
X045583Y024959D01*
X046308Y024959D01*
X046474Y024793D01*
X046474Y023429D01*
X044649Y023429D01*
X044649Y023452D01*
X044682Y023485D01*
X044682Y024022D01*
X044649Y024056D01*
X044649Y025729D01*
X044699Y025779D01*
X044724Y025779D01*
X044724Y025893D01*
X044729Y025898D01*
X044729Y025964D01*
X044749Y025984D01*
X044749Y026329D01*
X044779Y026329D01*
X044779Y026249D02*
X044749Y026249D01*
X044749Y026150D02*
X044779Y026150D01*
X044779Y026052D02*
X044749Y026052D01*
X044729Y025953D02*
X044799Y025953D01*
X044799Y025855D02*
X044724Y025855D01*
X044676Y025756D02*
X044799Y025756D01*
X044885Y025658D02*
X044649Y025658D01*
X044649Y025559D02*
X044983Y025559D01*
X045082Y025461D02*
X044649Y025461D01*
X044649Y025362D02*
X045180Y025362D01*
X045279Y025264D02*
X044649Y025264D01*
X044649Y025165D02*
X045377Y025165D01*
X045476Y025067D02*
X044649Y025067D01*
X044649Y024968D02*
X045574Y024968D01*
X045250Y024429D02*
X045249Y024428D01*
X045249Y023754D01*
X044949Y023454D01*
X044649Y023454D01*
X044599Y023404D01*
X044682Y023491D02*
X046474Y023491D01*
X046474Y023589D02*
X044682Y023589D01*
X044682Y023688D02*
X046474Y023688D01*
X046474Y023786D02*
X044682Y023786D01*
X044682Y023885D02*
X046474Y023885D01*
X046474Y023983D02*
X044682Y023983D01*
X044649Y024082D02*
X046474Y024082D01*
X046474Y024180D02*
X044649Y024180D01*
X044649Y024279D02*
X046474Y024279D01*
X046474Y024377D02*
X044649Y024377D01*
X044649Y024476D02*
X046474Y024476D01*
X046474Y024574D02*
X044649Y024574D01*
X044649Y024673D02*
X046474Y024673D01*
X046474Y024771D02*
X044649Y024771D01*
X044649Y024870D02*
X046398Y024870D01*
X046874Y025004D02*
X046474Y025404D01*
X045774Y025404D01*
X045279Y025899D01*
X045279Y026334D01*
X045529Y026334D02*
X045529Y025949D01*
X045849Y025629D01*
X046249Y025629D01*
X046624Y026004D01*
X046624Y026629D01*
X046799Y026804D01*
X047949Y026804D01*
X047949Y026304D01*
X048049Y026304D01*
X048049Y026305D02*
X048048Y026304D01*
X048024Y026228D01*
X047949Y026804D02*
X047949Y027278D01*
X048048Y027329D01*
X048048Y027355D01*
X047300Y028103D01*
X047300Y028104D01*
X046849Y027729D02*
X046849Y028629D01*
X046899Y028679D01*
X047499Y028679D01*
X047749Y028929D01*
X047749Y029155D01*
X047860Y028729D02*
X048115Y028729D01*
X048215Y028829D01*
X048215Y029481D01*
X048153Y029543D01*
X048165Y029555D01*
X048184Y029589D01*
X048195Y029627D01*
X048195Y029853D01*
X047799Y029853D01*
X047799Y029953D01*
X047699Y029953D01*
X047699Y029853D01*
X047370Y029853D01*
X046974Y029853D01*
X046974Y029953D01*
X046874Y029953D01*
X046874Y029853D01*
X046479Y029853D01*
X046479Y029627D01*
X046489Y029589D01*
X046509Y029555D01*
X046521Y029543D01*
X046459Y029481D01*
X046459Y029001D01*
X046404Y028946D01*
X046404Y027895D01*
X045954Y027445D01*
X045954Y026784D01*
X044224Y026784D01*
X044224Y028124D01*
X045160Y028124D01*
X045182Y028146D01*
X045190Y028144D01*
X045279Y028144D01*
X045279Y028304D01*
X045279Y028304D01*
X045279Y028144D01*
X045369Y028144D01*
X045389Y028124D01*
X045930Y028124D01*
X045952Y028146D01*
X045960Y028144D01*
X046049Y028144D01*
X046049Y028574D01*
X046049Y028574D01*
X046054Y028574D01*
X046049Y028574D02*
X046269Y028574D01*
X046269Y028874D01*
X046259Y028912D01*
X046239Y028946D01*
X046211Y028974D01*
X046177Y028994D01*
X046139Y029004D01*
X046119Y029004D01*
X046119Y030087D01*
X046346Y030314D01*
X046827Y030314D01*
X046888Y030375D01*
X046900Y030364D01*
X046934Y030344D01*
X046973Y030334D01*
X047198Y030334D01*
X047198Y030729D01*
X047298Y030729D01*
X047298Y030334D01*
X047524Y030334D01*
X047562Y030344D01*
X047596Y030364D01*
X047624Y030392D01*
X047644Y030426D01*
X047654Y030464D01*
X047654Y030729D01*
X047298Y030729D01*
X047298Y030829D01*
X047198Y030829D01*
X047198Y031224D01*
X046973Y031224D01*
X046934Y031214D01*
X046900Y031194D01*
X046888Y031182D01*
X046827Y031244D01*
X046174Y031244D01*
X046074Y031145D01*
X046074Y030664D01*
X045924Y030514D01*
X045924Y032004D01*
X047799Y032004D01*
X048311Y031492D01*
X048211Y031318D01*
X048126Y030999D01*
X048126Y030669D01*
X048211Y030351D01*
X048349Y030111D01*
X048349Y028542D01*
X048324Y028549D01*
X048098Y028549D01*
X048098Y028279D01*
X047998Y028279D01*
X047998Y028549D01*
X047773Y028549D01*
X047749Y028543D01*
X047749Y028618D01*
X047840Y028709D01*
X047860Y028729D01*
X047843Y028711D02*
X048349Y028711D01*
X048349Y028613D02*
X047749Y028613D01*
X047998Y028514D02*
X048098Y028514D01*
X048098Y028416D02*
X047998Y028416D01*
X047998Y028317D02*
X048098Y028317D01*
X046849Y027729D02*
X046399Y027279D01*
X046399Y026104D01*
X046199Y025904D01*
X045874Y025904D01*
X045789Y025989D01*
X045789Y026334D01*
X046049Y026334D02*
X046049Y026529D01*
X046099Y026529D01*
X046174Y026604D01*
X046174Y027354D01*
X046624Y027804D01*
X046624Y028855D01*
X046924Y029155D01*
X046459Y029204D02*
X046119Y029204D01*
X046119Y029302D02*
X046459Y029302D01*
X046459Y029401D02*
X046119Y029401D01*
X046119Y029499D02*
X046477Y029499D01*
X046487Y029598D02*
X046119Y029598D01*
X046119Y029696D02*
X046479Y029696D01*
X046479Y029795D02*
X046119Y029795D01*
X046119Y029893D02*
X046874Y029893D01*
X046874Y029953D02*
X046479Y029953D01*
X046479Y030179D01*
X046489Y030217D01*
X046509Y030251D01*
X046537Y030279D01*
X046571Y030299D01*
X046609Y030309D01*
X046874Y030309D01*
X046874Y029953D01*
X046874Y029992D02*
X046974Y029992D01*
X046974Y029953D02*
X046974Y030309D01*
X047239Y030309D01*
X047277Y030299D01*
X047312Y030279D01*
X047337Y030254D01*
X047362Y030279D01*
X047396Y030299D01*
X047434Y030309D01*
X047699Y030309D01*
X047699Y029953D01*
X046974Y029953D01*
X046974Y029893D02*
X047699Y029893D01*
X047699Y029992D02*
X047799Y029992D01*
X047799Y029953D02*
X047799Y030309D01*
X048064Y030309D01*
X048102Y030299D01*
X048137Y030279D01*
X048165Y030251D01*
X048184Y030217D01*
X048195Y030179D01*
X048195Y029953D01*
X047799Y029953D01*
X047799Y029893D02*
X048349Y029893D01*
X048349Y029795D02*
X048195Y029795D01*
X048195Y029696D02*
X048349Y029696D01*
X048349Y029598D02*
X048187Y029598D01*
X048197Y029499D02*
X048349Y029499D01*
X048349Y029401D02*
X048215Y029401D01*
X048215Y029302D02*
X048349Y029302D01*
X048349Y029204D02*
X048215Y029204D01*
X048215Y029105D02*
X048349Y029105D01*
X048349Y029007D02*
X048215Y029007D01*
X048215Y028908D02*
X048349Y028908D01*
X048349Y028810D02*
X048196Y028810D01*
X048195Y029992D02*
X048349Y029992D01*
X048349Y030090D02*
X048195Y030090D01*
X048192Y030189D02*
X048305Y030189D01*
X048248Y030287D02*
X048122Y030287D01*
X048202Y030386D02*
X047618Y030386D01*
X047654Y030484D02*
X048175Y030484D01*
X048149Y030583D02*
X047654Y030583D01*
X047654Y030681D02*
X048126Y030681D01*
X048126Y030780D02*
X047298Y030780D01*
X047298Y030829D02*
X047654Y030829D01*
X047654Y031094D01*
X047644Y031132D01*
X047624Y031166D01*
X047596Y031194D01*
X047562Y031214D01*
X047524Y031224D01*
X047298Y031224D01*
X047298Y030829D01*
X047298Y030878D02*
X047198Y030878D01*
X047198Y030977D02*
X047298Y030977D01*
X047298Y031075D02*
X047198Y031075D01*
X047198Y031174D02*
X047298Y031174D01*
X047617Y031174D02*
X048172Y031174D01*
X048199Y031272D02*
X045924Y031272D01*
X045924Y031174D02*
X046103Y031174D01*
X046074Y031075D02*
X045924Y031075D01*
X045924Y030977D02*
X046074Y030977D01*
X046074Y030878D02*
X045924Y030878D01*
X045924Y030780D02*
X046074Y030780D01*
X046074Y030681D02*
X045924Y030681D01*
X045924Y030583D02*
X045993Y030583D01*
X045687Y030583D02*
X044999Y030583D01*
X044999Y030681D02*
X045688Y030681D01*
X045688Y030780D02*
X044999Y030780D01*
X044999Y030878D02*
X045689Y030878D01*
X045690Y030977D02*
X044999Y030977D01*
X044999Y031075D02*
X045691Y031075D01*
X045692Y031174D02*
X044999Y031174D01*
X044999Y031272D02*
X045692Y031272D01*
X045693Y031371D02*
X044999Y031371D01*
X044999Y031469D02*
X045694Y031469D01*
X045695Y031568D02*
X044999Y031568D01*
X044999Y031666D02*
X045696Y031666D01*
X045696Y031765D02*
X044999Y031765D01*
X044999Y031863D02*
X045697Y031863D01*
X045698Y031962D02*
X044999Y031962D01*
X044999Y032039D02*
X045699Y032039D01*
X045684Y030274D01*
X045679Y030269D01*
X045679Y029629D01*
X045678Y029520D01*
X045677Y029522D01*
X045372Y029522D01*
X045156Y029306D01*
X045156Y029024D01*
X045139Y029024D01*
X045119Y029004D01*
X044999Y029004D01*
X044999Y032039D01*
X045924Y031962D02*
X047842Y031962D01*
X047940Y031863D02*
X045924Y031863D01*
X045924Y031765D02*
X048039Y031765D01*
X048137Y031666D02*
X045924Y031666D01*
X045924Y031568D02*
X048236Y031568D01*
X048298Y031469D02*
X045924Y031469D01*
X045924Y031371D02*
X048241Y031371D01*
X048146Y031075D02*
X047654Y031075D01*
X047654Y030977D02*
X048126Y030977D01*
X048126Y030878D02*
X047654Y030878D01*
X047298Y030681D02*
X047198Y030681D01*
X047198Y030583D02*
X047298Y030583D01*
X047298Y030484D02*
X047198Y030484D01*
X047198Y030386D02*
X047298Y030386D01*
X047297Y030287D02*
X047376Y030287D01*
X047699Y030287D02*
X047799Y030287D01*
X047799Y030189D02*
X047699Y030189D01*
X047699Y030090D02*
X047799Y030090D01*
X046974Y030090D02*
X046874Y030090D01*
X046874Y030189D02*
X046974Y030189D01*
X046974Y030287D02*
X046874Y030287D01*
X046551Y030287D02*
X046320Y030287D01*
X046221Y030189D02*
X046482Y030189D01*
X046479Y030090D02*
X046123Y030090D01*
X046119Y029992D02*
X046479Y029992D01*
X045899Y030178D02*
X046500Y030779D01*
X045686Y030484D02*
X044999Y030484D01*
X044999Y030386D02*
X045685Y030386D01*
X045685Y030287D02*
X044999Y030287D01*
X044999Y030189D02*
X045679Y030189D01*
X045679Y030090D02*
X044999Y030090D01*
X044999Y029992D02*
X045679Y029992D01*
X045679Y029893D02*
X044999Y029893D01*
X044999Y029795D02*
X045679Y029795D01*
X045679Y029696D02*
X044999Y029696D01*
X044999Y029598D02*
X045679Y029598D01*
X045349Y029499D02*
X044999Y029499D01*
X044999Y029401D02*
X045250Y029401D01*
X045156Y029302D02*
X044999Y029302D01*
X044999Y029204D02*
X045156Y029204D01*
X045156Y029105D02*
X044999Y029105D01*
X044999Y029007D02*
X045122Y029007D01*
X044774Y029007D02*
X044407Y029007D01*
X044390Y029024D02*
X044379Y029024D01*
X044099Y029304D01*
X041774Y029304D01*
X041624Y029454D01*
X041624Y031754D01*
X041799Y031929D01*
X042849Y031929D01*
X042849Y031404D01*
X043124Y031129D01*
X044524Y031129D01*
X044774Y030879D01*
X044774Y028554D01*
X044489Y028554D01*
X044489Y028924D01*
X044390Y029024D01*
X044298Y029105D02*
X044774Y029105D01*
X044774Y029204D02*
X044200Y029204D01*
X044101Y029302D02*
X044774Y029302D01*
X044774Y029401D02*
X041678Y029401D01*
X041624Y029499D02*
X044774Y029499D01*
X044774Y029598D02*
X041624Y029598D01*
X041624Y029696D02*
X044774Y029696D01*
X044769Y029634D02*
X044769Y028574D01*
X044774Y028613D02*
X044489Y028613D01*
X044489Y028711D02*
X044774Y028711D01*
X044774Y028810D02*
X044489Y028810D01*
X044489Y028908D02*
X044774Y028908D01*
X045524Y029154D02*
X045529Y029149D01*
X045529Y028574D01*
X045789Y028574D02*
X045789Y028894D01*
X045899Y029004D01*
X045899Y030178D01*
X044774Y030189D02*
X041624Y030189D01*
X041624Y030287D02*
X044774Y030287D01*
X044774Y030386D02*
X041624Y030386D01*
X041624Y030484D02*
X044774Y030484D01*
X044774Y030583D02*
X041624Y030583D01*
X041624Y030681D02*
X044774Y030681D01*
X044774Y030780D02*
X041624Y030780D01*
X041624Y030878D02*
X044774Y030878D01*
X044677Y030977D02*
X041624Y030977D01*
X041624Y031075D02*
X044578Y031075D01*
X043080Y031174D02*
X041624Y031174D01*
X041624Y031272D02*
X042981Y031272D01*
X042883Y031371D02*
X041624Y031371D01*
X041624Y031469D02*
X042849Y031469D01*
X042849Y031568D02*
X041624Y031568D01*
X041624Y031666D02*
X042849Y031666D01*
X042849Y031765D02*
X041635Y031765D01*
X041733Y031863D02*
X042849Y031863D01*
X041349Y031104D02*
X041349Y029404D01*
X041224Y029279D01*
X040124Y029279D01*
X039274Y030129D01*
X039274Y031154D01*
X041299Y031154D01*
X041349Y031104D01*
X041349Y031075D02*
X039274Y031075D01*
X039274Y030977D02*
X041349Y030977D01*
X041349Y030878D02*
X039274Y030878D01*
X039274Y030780D02*
X041349Y030780D01*
X041349Y030681D02*
X039274Y030681D01*
X039274Y030583D02*
X041349Y030583D01*
X041349Y030484D02*
X039274Y030484D01*
X039274Y030386D02*
X041349Y030386D01*
X041349Y030287D02*
X039274Y030287D01*
X039274Y030189D02*
X041349Y030189D01*
X041349Y030090D02*
X039313Y030090D01*
X039412Y029992D02*
X041349Y029992D01*
X041349Y029893D02*
X039510Y029893D01*
X039609Y029795D02*
X041349Y029795D01*
X041349Y029696D02*
X039707Y029696D01*
X039806Y029598D02*
X041349Y029598D01*
X041349Y029499D02*
X039904Y029499D01*
X040003Y029401D02*
X041346Y029401D01*
X041247Y029302D02*
X040101Y029302D01*
X040599Y028854D02*
X040724Y028979D01*
X041249Y028979D01*
X041399Y028829D01*
X041399Y026879D01*
X041649Y026629D01*
X042699Y026629D01*
X042799Y026529D01*
X042799Y025179D01*
X042184Y025179D01*
X042084Y025079D01*
X042084Y024537D01*
X040599Y024554D01*
X040599Y028854D01*
X040599Y028810D02*
X041399Y028810D01*
X041399Y028711D02*
X040599Y028711D01*
X040599Y028613D02*
X041399Y028613D01*
X041399Y028514D02*
X040599Y028514D01*
X040599Y028416D02*
X041399Y028416D01*
X041399Y028317D02*
X040599Y028317D01*
X040599Y028219D02*
X041399Y028219D01*
X041399Y028120D02*
X040599Y028120D01*
X040599Y028022D02*
X041399Y028022D01*
X041399Y027923D02*
X040599Y027923D01*
X040599Y027825D02*
X041399Y027825D01*
X041399Y027726D02*
X040599Y027726D01*
X040599Y027628D02*
X041399Y027628D01*
X041399Y027529D02*
X040599Y027529D01*
X040599Y027431D02*
X041399Y027431D01*
X041399Y027332D02*
X040599Y027332D01*
X040599Y027234D02*
X041399Y027234D01*
X041399Y027135D02*
X040599Y027135D01*
X040599Y027037D02*
X041399Y027037D01*
X041399Y026938D02*
X040599Y026938D01*
X040599Y026840D02*
X041439Y026840D01*
X041537Y026741D02*
X040599Y026741D01*
X040599Y026643D02*
X041636Y026643D01*
X041774Y026854D02*
X041649Y026979D01*
X041649Y028854D01*
X041774Y028979D01*
X042949Y028979D01*
X043024Y028904D01*
X043024Y026954D01*
X042924Y026854D01*
X041774Y026854D01*
X041690Y026938D02*
X043008Y026938D01*
X043024Y027037D02*
X041649Y027037D01*
X041649Y027135D02*
X043024Y027135D01*
X043024Y027234D02*
X041649Y027234D01*
X041649Y027332D02*
X043024Y027332D01*
X043024Y027431D02*
X041649Y027431D01*
X041649Y027529D02*
X043024Y027529D01*
X043024Y027628D02*
X041649Y027628D01*
X041649Y027726D02*
X043024Y027726D01*
X043024Y027825D02*
X041649Y027825D01*
X041649Y027923D02*
X043024Y027923D01*
X043024Y028022D02*
X041649Y028022D01*
X041649Y028120D02*
X043024Y028120D01*
X043024Y028219D02*
X041649Y028219D01*
X041649Y028317D02*
X043024Y028317D01*
X043024Y028416D02*
X041649Y028416D01*
X041649Y028514D02*
X043024Y028514D01*
X043024Y028613D02*
X041649Y028613D01*
X041649Y028711D02*
X043024Y028711D01*
X043024Y028810D02*
X041649Y028810D01*
X041703Y028908D02*
X043020Y028908D01*
X042112Y028041D02*
X042299Y027854D01*
X042112Y028041D02*
X041868Y028041D01*
X041320Y028908D02*
X040653Y028908D01*
X041624Y029795D02*
X044774Y029795D01*
X044774Y029893D02*
X041624Y029893D01*
X041624Y029992D02*
X044774Y029992D01*
X044774Y030090D02*
X041624Y030090D01*
X044224Y028120D02*
X046404Y028120D01*
X046404Y028022D02*
X044224Y028022D01*
X044224Y027923D02*
X046404Y027923D01*
X046334Y027825D02*
X044224Y027825D01*
X044224Y027726D02*
X046235Y027726D01*
X046137Y027628D02*
X044224Y027628D01*
X044224Y027529D02*
X046038Y027529D01*
X045954Y027431D02*
X044224Y027431D01*
X044224Y027332D02*
X045954Y027332D01*
X045954Y027234D02*
X044224Y027234D01*
X044224Y027135D02*
X045954Y027135D01*
X045954Y027037D02*
X044224Y027037D01*
X044224Y026938D02*
X045954Y026938D01*
X045954Y026840D02*
X044224Y026840D01*
X044509Y026334D02*
X044509Y025989D01*
X043499Y024979D01*
X043499Y024779D01*
X043473Y024753D01*
X043324Y024753D01*
X042549Y024753D01*
X042084Y024771D02*
X040599Y024771D01*
X040599Y024673D02*
X042084Y024673D01*
X042084Y024574D02*
X040599Y024574D01*
X040599Y024870D02*
X042084Y024870D01*
X042084Y024968D02*
X040599Y024968D01*
X040599Y025067D02*
X042084Y025067D01*
X042170Y025165D02*
X040599Y025165D01*
X040599Y025264D02*
X042799Y025264D01*
X042799Y025362D02*
X040599Y025362D01*
X040599Y025461D02*
X042799Y025461D01*
X042799Y025559D02*
X040599Y025559D01*
X040599Y025658D02*
X042799Y025658D01*
X042799Y025756D02*
X040599Y025756D01*
X040599Y025855D02*
X042799Y025855D01*
X042799Y025953D02*
X040599Y025953D01*
X040599Y026052D02*
X042799Y026052D01*
X042799Y026150D02*
X040599Y026150D01*
X040599Y026249D02*
X042799Y026249D01*
X042799Y026347D02*
X040599Y026347D01*
X040599Y026446D02*
X042799Y026446D01*
X042784Y026544D02*
X040599Y026544D01*
X040124Y025055D02*
X040125Y025054D01*
X045279Y028219D02*
X045279Y028219D01*
X046049Y028219D02*
X046049Y028219D01*
X046049Y028144D02*
X046139Y028144D01*
X046177Y028154D01*
X046211Y028174D01*
X046239Y028202D01*
X046259Y028236D01*
X046269Y028274D01*
X046269Y028574D01*
X046049Y028574D01*
X046049Y028144D01*
X046049Y028317D02*
X046049Y028317D01*
X046049Y028416D02*
X046049Y028416D01*
X046049Y028514D02*
X046049Y028514D01*
X046049Y028574D02*
X046049Y028574D01*
X046269Y028613D02*
X046404Y028613D01*
X046404Y028711D02*
X046269Y028711D01*
X046269Y028810D02*
X046404Y028810D01*
X046404Y028908D02*
X046260Y028908D01*
X046119Y029007D02*
X046459Y029007D01*
X046459Y029105D02*
X046119Y029105D01*
X046269Y028514D02*
X046404Y028514D01*
X046404Y028416D02*
X046269Y028416D01*
X046269Y028317D02*
X046404Y028317D01*
X046404Y028219D02*
X046249Y028219D01*
X046874Y027229D02*
X047300Y027329D01*
X047948Y027381D02*
X048048Y027329D01*
X047300Y026304D02*
X047300Y025529D01*
X047300Y025479D01*
X047849Y025004D02*
X048048Y025203D01*
X048048Y025529D01*
X047849Y025004D02*
X046874Y025004D01*
X047819Y023548D02*
X048224Y023548D01*
X047819Y023548D02*
X047399Y023129D01*
X046724Y023129D01*
X050774Y023097D02*
X060789Y023097D01*
X060789Y023195D02*
X050774Y023195D01*
X050774Y023294D02*
X060789Y023294D01*
X060789Y023392D02*
X050774Y023392D01*
X050774Y023491D02*
X060789Y023491D01*
X060789Y023589D02*
X050774Y023589D01*
X050774Y023688D02*
X060789Y023688D01*
X060789Y023786D02*
X050774Y023786D01*
X050774Y023885D02*
X060789Y023885D01*
X060789Y023983D02*
X050774Y023983D01*
X050774Y024082D02*
X060789Y024082D01*
X060789Y024180D02*
X050774Y024180D01*
X050774Y024279D02*
X060789Y024279D01*
X060789Y024377D02*
X050774Y024377D01*
X050774Y024476D02*
X060789Y024476D01*
X060789Y024574D02*
X050774Y024574D01*
X050774Y024579D02*
X057299Y024579D01*
X057299Y024818D01*
X057334Y024902D01*
X057334Y025444D01*
X060184Y025444D01*
X060789Y024839D01*
X060789Y021499D01*
X060774Y016504D01*
X060424Y016054D01*
X057649Y016054D01*
X057249Y016479D01*
X057249Y020454D01*
X056399Y021329D01*
X051524Y021329D01*
X050774Y022079D01*
X050774Y024579D01*
X050774Y024954D02*
X053839Y024954D01*
X053839Y029194D01*
X050774Y029194D01*
X050774Y024954D01*
X050774Y024968D02*
X053839Y024968D01*
X053839Y025067D02*
X050774Y025067D01*
X050774Y025165D02*
X053839Y025165D01*
X053839Y025264D02*
X050774Y025264D01*
X050774Y025362D02*
X053839Y025362D01*
X053839Y025461D02*
X050774Y025461D01*
X050774Y025559D02*
X053839Y025559D01*
X053839Y025658D02*
X050774Y025658D01*
X050774Y025756D02*
X053839Y025756D01*
X053839Y025855D02*
X050774Y025855D01*
X050774Y025953D02*
X053839Y025953D01*
X053839Y026052D02*
X050774Y026052D01*
X050774Y026150D02*
X053839Y026150D01*
X053839Y026249D02*
X050774Y026249D01*
X050774Y026347D02*
X053839Y026347D01*
X053839Y026446D02*
X050774Y026446D01*
X050774Y026544D02*
X053839Y026544D01*
X053839Y026643D02*
X050774Y026643D01*
X050774Y026741D02*
X053839Y026741D01*
X053839Y026840D02*
X050774Y026840D01*
X050774Y026938D02*
X053839Y026938D01*
X053839Y027037D02*
X050774Y027037D01*
X050774Y027135D02*
X053839Y027135D01*
X053839Y027234D02*
X050774Y027234D01*
X050774Y027332D02*
X053839Y027332D01*
X053839Y027431D02*
X050774Y027431D01*
X050774Y027529D02*
X053839Y027529D01*
X053839Y027628D02*
X050774Y027628D01*
X050774Y027726D02*
X053839Y027726D01*
X053839Y027825D02*
X050774Y027825D01*
X050774Y027923D02*
X053839Y027923D01*
X053839Y028022D02*
X050774Y028022D01*
X050774Y028120D02*
X053839Y028120D01*
X053839Y028219D02*
X050774Y028219D01*
X050774Y028317D02*
X053839Y028317D01*
X053839Y028416D02*
X050774Y028416D01*
X050774Y028514D02*
X053839Y028514D01*
X053839Y028613D02*
X050774Y028613D01*
X050774Y028711D02*
X053839Y028711D01*
X053839Y028810D02*
X050774Y028810D01*
X050774Y028908D02*
X053839Y028908D01*
X053839Y029007D02*
X050774Y029007D01*
X050774Y029105D02*
X053839Y029105D01*
X054099Y029105D02*
X057074Y029105D01*
X057074Y029007D02*
X054099Y029007D01*
X054099Y028908D02*
X057074Y028908D01*
X057074Y028810D02*
X054099Y028810D01*
X054099Y028711D02*
X057074Y028711D01*
X057074Y028613D02*
X054099Y028613D01*
X054099Y028514D02*
X057074Y028514D01*
X057074Y028416D02*
X054099Y028416D01*
X054099Y028317D02*
X057074Y028317D01*
X057074Y028219D02*
X054099Y028219D01*
X054099Y028120D02*
X057074Y028120D01*
X057074Y028022D02*
X054099Y028022D01*
X054099Y027923D02*
X057074Y027923D01*
X057074Y027825D02*
X054099Y027825D01*
X054099Y027726D02*
X057074Y027726D01*
X057074Y027628D02*
X054099Y027628D01*
X054099Y027529D02*
X057074Y027529D01*
X057074Y027431D02*
X054099Y027431D01*
X054099Y027332D02*
X057074Y027332D01*
X057074Y027234D02*
X054099Y027234D01*
X054099Y027135D02*
X057074Y027135D01*
X057074Y027037D02*
X054099Y027037D01*
X054099Y026938D02*
X057074Y026938D01*
X057074Y026840D02*
X054099Y026840D01*
X054099Y026741D02*
X057074Y026741D01*
X057074Y026643D02*
X054099Y026643D01*
X054099Y026544D02*
X057074Y026544D01*
X057074Y026446D02*
X054099Y026446D01*
X054099Y026347D02*
X057074Y026347D01*
X057074Y026249D02*
X054099Y026249D01*
X054099Y026150D02*
X057074Y026150D01*
X057074Y026052D02*
X054099Y026052D01*
X054099Y025953D02*
X057074Y025953D01*
X057074Y025855D02*
X054099Y025855D01*
X054099Y025756D02*
X057074Y025756D01*
X057074Y025658D02*
X054099Y025658D01*
X054099Y025559D02*
X057074Y025559D01*
X057074Y025461D02*
X054099Y025461D01*
X054099Y025362D02*
X057074Y025362D01*
X057074Y025264D02*
X054099Y025264D01*
X054099Y025165D02*
X057074Y025165D01*
X057074Y025067D02*
X054099Y025067D01*
X054099Y024968D02*
X057074Y024968D01*
X057074Y024954D02*
X054099Y024954D01*
X054099Y029204D01*
X057074Y029204D01*
X057074Y024954D01*
X057334Y024968D02*
X060660Y024968D01*
X060562Y025067D02*
X057334Y025067D01*
X057334Y025165D02*
X060463Y025165D01*
X060365Y025264D02*
X057334Y025264D01*
X057334Y025362D02*
X060266Y025362D01*
X060444Y025559D02*
X064560Y025559D01*
X064560Y025461D02*
X060543Y025461D01*
X060641Y025362D02*
X064560Y025362D01*
X064560Y025264D02*
X060740Y025264D01*
X060838Y025165D02*
X064560Y025165D01*
X064560Y025067D02*
X060937Y025067D01*
X061035Y024968D02*
X064560Y024968D01*
X064560Y024870D02*
X061049Y024870D01*
X061049Y024954D02*
X060299Y025704D01*
X057689Y025704D01*
X057689Y027019D01*
X058091Y027019D01*
X058214Y027142D01*
X058214Y027946D01*
X058091Y028069D01*
X057334Y028069D01*
X057334Y029256D01*
X057299Y029340D01*
X057299Y029454D01*
X057150Y029454D01*
X057126Y029464D01*
X054048Y029464D01*
X054023Y029454D01*
X050799Y029454D01*
X050799Y032039D01*
X059249Y032039D01*
X059249Y027829D01*
X064560Y027829D01*
X064560Y014879D01*
X061449Y014879D01*
X061049Y015254D01*
X061049Y024954D01*
X061049Y024771D02*
X064560Y024771D01*
X064560Y024673D02*
X061049Y024673D01*
X061049Y024574D02*
X064560Y024574D01*
X064560Y024476D02*
X061049Y024476D01*
X061049Y024377D02*
X064560Y024377D01*
X064560Y024279D02*
X061049Y024279D01*
X061049Y024180D02*
X064560Y024180D01*
X064560Y024082D02*
X061049Y024082D01*
X061049Y023983D02*
X064560Y023983D01*
X064560Y023885D02*
X061049Y023885D01*
X061049Y023786D02*
X064560Y023786D01*
X064560Y023688D02*
X061049Y023688D01*
X061049Y023589D02*
X064560Y023589D01*
X064560Y023491D02*
X061049Y023491D01*
X061049Y023392D02*
X064560Y023392D01*
X064560Y023294D02*
X061049Y023294D01*
X061049Y023195D02*
X064560Y023195D01*
X064560Y023097D02*
X061049Y023097D01*
X061049Y022998D02*
X064560Y022998D01*
X064560Y022900D02*
X061049Y022900D01*
X061049Y022801D02*
X064560Y022801D01*
X064560Y022703D02*
X061049Y022703D01*
X061049Y022604D02*
X064560Y022604D01*
X064560Y022506D02*
X061049Y022506D01*
X061049Y022407D02*
X064560Y022407D01*
X064560Y022309D02*
X061049Y022309D01*
X061049Y022210D02*
X064560Y022210D01*
X064560Y022112D02*
X061049Y022112D01*
X061049Y022013D02*
X064560Y022013D01*
X064560Y021915D02*
X061049Y021915D01*
X061049Y021816D02*
X064560Y021816D01*
X064560Y021718D02*
X061049Y021718D01*
X061049Y021619D02*
X064560Y021619D01*
X064560Y021521D02*
X061049Y021521D01*
X061049Y021422D02*
X064560Y021422D01*
X064560Y021324D02*
X061049Y021324D01*
X061049Y021225D02*
X064560Y021225D01*
X064560Y021127D02*
X061049Y021127D01*
X061049Y021028D02*
X064560Y021028D01*
X064560Y020930D02*
X061049Y020930D01*
X061049Y020831D02*
X064560Y020831D01*
X064560Y020733D02*
X061049Y020733D01*
X061049Y020634D02*
X064560Y020634D01*
X064560Y020536D02*
X061049Y020536D01*
X061049Y020437D02*
X064560Y020437D01*
X064560Y020339D02*
X061049Y020339D01*
X061049Y020240D02*
X064560Y020240D01*
X064560Y020142D02*
X061049Y020142D01*
X061049Y020043D02*
X064560Y020043D01*
X064560Y019945D02*
X061049Y019945D01*
X061049Y019846D02*
X064560Y019846D01*
X064560Y019748D02*
X061049Y019748D01*
X061049Y019649D02*
X064560Y019649D01*
X064560Y019551D02*
X061049Y019551D01*
X061049Y019452D02*
X064560Y019452D01*
X064560Y019354D02*
X061049Y019354D01*
X061049Y019255D02*
X064560Y019255D01*
X064560Y019157D02*
X061049Y019157D01*
X061049Y019058D02*
X064560Y019058D01*
X064560Y018960D02*
X061049Y018960D01*
X061049Y018861D02*
X064560Y018861D01*
X064560Y018763D02*
X061049Y018763D01*
X061049Y018664D02*
X064560Y018664D01*
X064560Y018566D02*
X061049Y018566D01*
X061049Y018467D02*
X064560Y018467D01*
X064560Y018369D02*
X061049Y018369D01*
X061049Y018270D02*
X064560Y018270D01*
X064560Y018172D02*
X061049Y018172D01*
X061049Y018073D02*
X064560Y018073D01*
X064560Y017975D02*
X061049Y017975D01*
X061049Y017876D02*
X064560Y017876D01*
X064560Y017778D02*
X061049Y017778D01*
X061049Y017679D02*
X064560Y017679D01*
X064560Y017581D02*
X061049Y017581D01*
X061049Y017482D02*
X064560Y017482D01*
X064560Y017384D02*
X061049Y017384D01*
X061049Y017285D02*
X064560Y017285D01*
X064560Y017187D02*
X061049Y017187D01*
X061049Y017088D02*
X064560Y017088D01*
X064560Y016990D02*
X061049Y016990D01*
X061049Y016891D02*
X064560Y016891D01*
X064560Y016793D02*
X061049Y016793D01*
X061049Y016694D02*
X064560Y016694D01*
X064560Y016596D02*
X061049Y016596D01*
X061049Y016497D02*
X064560Y016497D01*
X064560Y016399D02*
X061049Y016399D01*
X061049Y016300D02*
X064560Y016300D01*
X064560Y016202D02*
X061049Y016202D01*
X061049Y016103D02*
X064560Y016103D01*
X064560Y016005D02*
X061049Y016005D01*
X061049Y015906D02*
X064560Y015906D01*
X064560Y015808D02*
X061049Y015808D01*
X061049Y015709D02*
X064560Y015709D01*
X064560Y015611D02*
X061049Y015611D01*
X061049Y015512D02*
X064560Y015512D01*
X064560Y015414D02*
X061049Y015414D01*
X061049Y015315D02*
X064560Y015315D01*
X064560Y015217D02*
X061089Y015217D01*
X061194Y015118D02*
X064560Y015118D01*
X064560Y015020D02*
X061299Y015020D01*
X061404Y014921D02*
X064560Y014921D01*
X060769Y016497D02*
X057249Y016497D01*
X057249Y016596D02*
X060775Y016596D01*
X060775Y016694D02*
X057249Y016694D01*
X057249Y016793D02*
X060775Y016793D01*
X060775Y016891D02*
X057249Y016891D01*
X057249Y016990D02*
X060776Y016990D01*
X060776Y017088D02*
X057249Y017088D01*
X057249Y017187D02*
X060776Y017187D01*
X060777Y017285D02*
X057249Y017285D01*
X057249Y017384D02*
X060777Y017384D01*
X060777Y017482D02*
X057249Y017482D01*
X057249Y017581D02*
X060778Y017581D01*
X060778Y017679D02*
X057249Y017679D01*
X057249Y017778D02*
X060778Y017778D01*
X060778Y017876D02*
X057249Y017876D01*
X057249Y017975D02*
X060779Y017975D01*
X060779Y018073D02*
X057249Y018073D01*
X057249Y018172D02*
X060779Y018172D01*
X060780Y018270D02*
X057249Y018270D01*
X057249Y018369D02*
X060780Y018369D01*
X060780Y018467D02*
X057249Y018467D01*
X057249Y018566D02*
X060780Y018566D01*
X060781Y018664D02*
X057249Y018664D01*
X057249Y018763D02*
X060781Y018763D01*
X060781Y018861D02*
X057249Y018861D01*
X057249Y018960D02*
X060782Y018960D01*
X060782Y019058D02*
X057249Y019058D01*
X057249Y019157D02*
X060782Y019157D01*
X060783Y019255D02*
X057249Y019255D01*
X057249Y019354D02*
X060783Y019354D01*
X060783Y019452D02*
X057249Y019452D01*
X057249Y019551D02*
X060783Y019551D01*
X060784Y019649D02*
X057249Y019649D01*
X057249Y019748D02*
X060784Y019748D01*
X060784Y019846D02*
X057249Y019846D01*
X057249Y019945D02*
X060785Y019945D01*
X060785Y020043D02*
X057249Y020043D01*
X057249Y020142D02*
X060785Y020142D01*
X060785Y020240D02*
X057249Y020240D01*
X057249Y020339D02*
X060786Y020339D01*
X060786Y020437D02*
X057249Y020437D01*
X057170Y020536D02*
X060786Y020536D01*
X060787Y020634D02*
X057074Y020634D01*
X056979Y020733D02*
X060787Y020733D01*
X060787Y020831D02*
X056883Y020831D01*
X056787Y020930D02*
X060788Y020930D01*
X060788Y021028D02*
X056692Y021028D01*
X056596Y021127D02*
X060788Y021127D01*
X060788Y021225D02*
X056500Y021225D01*
X056405Y021324D02*
X060789Y021324D01*
X060789Y021422D02*
X051431Y021422D01*
X051333Y021521D02*
X060789Y021521D01*
X060789Y021619D02*
X051234Y021619D01*
X051136Y021718D02*
X060789Y021718D01*
X060789Y021816D02*
X051037Y021816D01*
X050939Y021915D02*
X060789Y021915D01*
X060789Y022013D02*
X050840Y022013D01*
X050774Y022112D02*
X060789Y022112D01*
X060789Y022210D02*
X050774Y022210D01*
X050774Y022309D02*
X060789Y022309D01*
X060789Y022407D02*
X050774Y022407D01*
X050774Y022506D02*
X060789Y022506D01*
X060789Y022604D02*
X050774Y022604D01*
X050774Y022703D02*
X060789Y022703D01*
X060789Y022801D02*
X050774Y022801D01*
X050774Y022900D02*
X060789Y022900D01*
X060789Y022998D02*
X050774Y022998D01*
X057299Y024673D02*
X060789Y024673D01*
X060789Y024771D02*
X057299Y024771D01*
X057321Y024870D02*
X060759Y024870D01*
X060346Y025658D02*
X064560Y025658D01*
X064560Y025756D02*
X057689Y025756D01*
X057689Y025855D02*
X064560Y025855D01*
X064560Y025953D02*
X057689Y025953D01*
X057689Y026052D02*
X064560Y026052D01*
X064560Y026150D02*
X057689Y026150D01*
X057689Y026249D02*
X064560Y026249D01*
X064560Y026347D02*
X057689Y026347D01*
X057689Y026446D02*
X064560Y026446D01*
X064560Y026544D02*
X057689Y026544D01*
X057689Y026643D02*
X064560Y026643D01*
X064560Y026741D02*
X057689Y026741D01*
X057689Y026840D02*
X064560Y026840D01*
X064560Y026938D02*
X057689Y026938D01*
X058109Y027037D02*
X064560Y027037D01*
X064560Y027135D02*
X058207Y027135D01*
X058214Y027234D02*
X064560Y027234D01*
X064560Y027332D02*
X058214Y027332D01*
X058214Y027431D02*
X064560Y027431D01*
X064560Y027529D02*
X058214Y027529D01*
X058214Y027628D02*
X064560Y027628D01*
X064560Y027726D02*
X058214Y027726D01*
X058214Y027825D02*
X064560Y027825D01*
X059249Y027923D02*
X058214Y027923D01*
X058139Y028022D02*
X059249Y028022D01*
X059249Y028120D02*
X057334Y028120D01*
X057334Y028219D02*
X059249Y028219D01*
X059249Y028317D02*
X057334Y028317D01*
X057334Y028416D02*
X059249Y028416D01*
X059249Y028514D02*
X057334Y028514D01*
X057334Y028613D02*
X059249Y028613D01*
X059249Y028711D02*
X057334Y028711D01*
X057334Y028810D02*
X059249Y028810D01*
X059249Y028908D02*
X057334Y028908D01*
X057334Y029007D02*
X059249Y029007D01*
X059249Y029105D02*
X057334Y029105D01*
X057334Y029204D02*
X059249Y029204D01*
X059249Y029302D02*
X057315Y029302D01*
X057299Y029401D02*
X059249Y029401D01*
X059249Y029499D02*
X050799Y029499D01*
X050799Y029598D02*
X059249Y029598D01*
X059249Y029696D02*
X050799Y029696D01*
X050799Y029795D02*
X059249Y029795D01*
X059249Y029893D02*
X050799Y029893D01*
X050799Y029992D02*
X059249Y029992D01*
X059249Y030090D02*
X050799Y030090D01*
X050799Y030189D02*
X059249Y030189D01*
X059249Y030287D02*
X050799Y030287D01*
X050799Y030386D02*
X059249Y030386D01*
X059249Y030484D02*
X050799Y030484D01*
X050799Y030583D02*
X059249Y030583D01*
X059249Y030681D02*
X050799Y030681D01*
X050799Y030780D02*
X059249Y030780D01*
X059249Y030878D02*
X050799Y030878D01*
X050799Y030977D02*
X059249Y030977D01*
X059249Y031075D02*
X050799Y031075D01*
X050799Y031174D02*
X059249Y031174D01*
X059249Y031272D02*
X050799Y031272D01*
X050799Y031371D02*
X059249Y031371D01*
X059249Y031469D02*
X050799Y031469D01*
X050799Y031568D02*
X059249Y031568D01*
X059249Y031666D02*
X050799Y031666D01*
X050799Y031765D02*
X059249Y031765D01*
X059249Y031863D02*
X050799Y031863D01*
X050799Y031962D02*
X059249Y031962D01*
X057074Y029204D02*
X054099Y029204D01*
X041319Y021619D02*
X040924Y021619D01*
X040924Y021521D02*
X041319Y021521D01*
X041319Y021422D02*
X040924Y021422D01*
X040924Y021324D02*
X041319Y021324D01*
X041319Y021225D02*
X040924Y021225D01*
X040924Y021127D02*
X041319Y021127D01*
X041319Y021028D02*
X040924Y021028D01*
X040924Y020930D02*
X041319Y020930D01*
X041599Y021054D02*
X041599Y021279D01*
X040951Y020831D02*
X040924Y020831D01*
X039674Y020831D02*
X036874Y020831D01*
X036874Y020733D02*
X039674Y020733D01*
X039674Y020634D02*
X036874Y020634D01*
X036874Y020536D02*
X039674Y020536D01*
X039674Y020930D02*
X036874Y020930D01*
X036874Y021028D02*
X039674Y021028D01*
X039674Y021127D02*
X036874Y021127D01*
X036874Y021225D02*
X037504Y021225D01*
X037438Y021324D02*
X037386Y021324D01*
X037948Y021225D02*
X039004Y021225D01*
X038938Y021324D02*
X038014Y021324D01*
X038014Y021422D02*
X038938Y021422D01*
X038938Y021521D02*
X038014Y021521D01*
X038016Y021619D02*
X038938Y021619D01*
X038938Y021718D02*
X038016Y021718D01*
X038014Y021816D02*
X038938Y021816D01*
X038938Y021915D02*
X038014Y021915D01*
X039514Y021915D02*
X039674Y021915D01*
X039674Y021816D02*
X039514Y021816D01*
X039514Y021718D02*
X039674Y021718D01*
X039674Y021619D02*
X039514Y021619D01*
X039514Y021521D02*
X039674Y021521D01*
X039674Y021422D02*
X039514Y021422D01*
X039514Y021324D02*
X039674Y021324D01*
X039674Y021225D02*
X039448Y021225D01*
X041225Y018821D02*
X041225Y018051D01*
X041178Y018004D01*
X041149Y018004D01*
X041178Y018004D02*
X041127Y018055D01*
X048229Y016554D02*
X048229Y016529D01*
X048252Y016529D01*
X057325Y016399D02*
X060692Y016399D01*
X060616Y016300D02*
X057418Y016300D01*
X057510Y016202D02*
X060539Y016202D01*
X060462Y016103D02*
X057603Y016103D01*
X057474Y011154D02*
X058774Y011154D01*
X058974Y010954D01*
X058974Y007754D01*
X059274Y007454D01*
X063674Y007454D01*
X063874Y007254D01*
X063874Y005954D01*
X063674Y005754D01*
X058574Y005754D01*
X057374Y006954D01*
X057374Y011054D01*
X057474Y011154D01*
X057400Y011080D02*
X058849Y011080D01*
X058947Y010981D02*
X057374Y010981D01*
X057374Y010883D02*
X058974Y010883D01*
X058974Y010784D02*
X057374Y010784D01*
X057374Y010686D02*
X058974Y010686D01*
X058974Y010587D02*
X057374Y010587D01*
X057374Y010489D02*
X058974Y010489D01*
X058974Y010390D02*
X057374Y010390D01*
X057374Y010292D02*
X058974Y010292D01*
X058974Y010193D02*
X057374Y010193D01*
X057374Y010095D02*
X058974Y010095D01*
X058974Y009996D02*
X057374Y009996D01*
X057374Y009898D02*
X058974Y009898D01*
X058974Y009799D02*
X057374Y009799D01*
X057374Y009701D02*
X058974Y009701D01*
X058974Y009602D02*
X057374Y009602D01*
X057374Y009504D02*
X058974Y009504D01*
X058974Y009405D02*
X057374Y009405D01*
X057374Y009307D02*
X058974Y009307D01*
X058974Y009208D02*
X057374Y009208D01*
X057374Y009110D02*
X058974Y009110D01*
X058974Y009011D02*
X057374Y009011D01*
X057374Y008913D02*
X058974Y008913D01*
X058974Y008814D02*
X057374Y008814D01*
X057374Y008716D02*
X058974Y008716D01*
X058974Y008617D02*
X057374Y008617D01*
X057374Y008519D02*
X058974Y008519D01*
X058974Y008420D02*
X057374Y008420D01*
X057374Y008322D02*
X058974Y008322D01*
X058974Y008223D02*
X057374Y008223D01*
X057374Y008125D02*
X058974Y008125D01*
X058974Y008026D02*
X057374Y008026D01*
X057374Y007928D02*
X058974Y007928D01*
X058974Y007829D02*
X057374Y007829D01*
X057374Y007731D02*
X058998Y007731D01*
X059096Y007632D02*
X057374Y007632D01*
X057374Y007534D02*
X059195Y007534D01*
X059874Y008154D02*
X059874Y009754D01*
X060174Y010054D01*
X061074Y010054D01*
X062374Y011354D01*
X063374Y011354D01*
X063874Y010854D01*
X063874Y008054D01*
X063674Y007854D01*
X060174Y007854D01*
X059874Y008154D01*
X059904Y008125D02*
X063874Y008125D01*
X063874Y008223D02*
X059874Y008223D01*
X059874Y008322D02*
X063874Y008322D01*
X063874Y008420D02*
X059874Y008420D01*
X059874Y008519D02*
X063874Y008519D01*
X063874Y008617D02*
X059874Y008617D01*
X059874Y008716D02*
X063874Y008716D01*
X063874Y008814D02*
X059874Y008814D01*
X059874Y008913D02*
X063874Y008913D01*
X063874Y009011D02*
X059874Y009011D01*
X059874Y009110D02*
X063874Y009110D01*
X063874Y009208D02*
X059874Y009208D01*
X059874Y009307D02*
X063874Y009307D01*
X063874Y009405D02*
X059874Y009405D01*
X059874Y009504D02*
X063874Y009504D01*
X063874Y009602D02*
X059874Y009602D01*
X059874Y009701D02*
X063874Y009701D01*
X063874Y009799D02*
X059919Y009799D01*
X060018Y009898D02*
X063874Y009898D01*
X063874Y009996D02*
X060116Y009996D01*
X061115Y010095D02*
X063874Y010095D01*
X063874Y010193D02*
X061213Y010193D01*
X061312Y010292D02*
X063874Y010292D01*
X063874Y010390D02*
X061410Y010390D01*
X061509Y010489D02*
X063874Y010489D01*
X063874Y010587D02*
X061607Y010587D01*
X061706Y010686D02*
X063874Y010686D01*
X063874Y010784D02*
X061804Y010784D01*
X061903Y010883D02*
X063846Y010883D01*
X063747Y010981D02*
X062001Y010981D01*
X062100Y011080D02*
X063649Y011080D01*
X063550Y011178D02*
X062198Y011178D01*
X062297Y011277D02*
X063452Y011277D01*
X063846Y008026D02*
X060002Y008026D01*
X060101Y007928D02*
X063748Y007928D01*
X063693Y007435D02*
X057374Y007435D01*
X057374Y007337D02*
X063792Y007337D01*
X063874Y007238D02*
X057374Y007238D01*
X057374Y007140D02*
X063874Y007140D01*
X063874Y007041D02*
X057374Y007041D01*
X057386Y006943D02*
X063874Y006943D01*
X063874Y006844D02*
X057484Y006844D01*
X057583Y006746D02*
X063874Y006746D01*
X063874Y006647D02*
X057681Y006647D01*
X057780Y006549D02*
X063874Y006549D01*
X063874Y006450D02*
X057878Y006450D01*
X057977Y006352D02*
X063874Y006352D01*
X063874Y006253D02*
X058075Y006253D01*
X058174Y006155D02*
X063874Y006155D01*
X063874Y006056D02*
X058272Y006056D01*
X058371Y005958D02*
X063874Y005958D01*
X063779Y005859D02*
X058469Y005859D01*
X058568Y005761D02*
X063681Y005761D01*
X055049Y005761D02*
X043799Y005761D01*
X043799Y005859D02*
X055049Y005859D01*
X055049Y005958D02*
X043799Y005958D01*
X043799Y006056D02*
X055049Y006056D01*
X055049Y006155D02*
X043799Y006155D01*
X043799Y006253D02*
X055049Y006253D01*
X055049Y006352D02*
X043799Y006352D01*
X043799Y006450D02*
X055049Y006450D01*
X055049Y006549D02*
X043799Y006549D01*
X043731Y006647D02*
X055049Y006647D01*
X055049Y006844D02*
X042284Y006844D01*
X042299Y006829D02*
X042174Y006954D01*
X042186Y006943D02*
X055049Y006943D01*
X055049Y005662D02*
X043799Y005662D01*
X043799Y005564D02*
X055049Y005564D01*
X055049Y005465D02*
X043799Y005465D01*
X043799Y005367D02*
X055049Y005367D01*
X055049Y005268D02*
X043799Y005268D01*
X043799Y005170D02*
X055049Y005170D01*
X055049Y005071D02*
X043799Y005071D01*
X043799Y004973D02*
X055049Y004973D01*
X055049Y004874D02*
X043799Y004874D01*
X043799Y004776D02*
X055049Y004776D01*
X055049Y004677D02*
X043799Y004677D01*
X043799Y004579D02*
X055049Y004579D01*
X055049Y004480D02*
X043799Y004480D01*
X043799Y004382D02*
X055049Y004382D01*
X055049Y004283D02*
X043799Y004283D01*
X043799Y004185D02*
X055049Y004185D01*
X055049Y004086D02*
X043799Y004086D01*
X043841Y003988D02*
X055049Y003988D01*
X055049Y003889D02*
X043939Y003889D01*
X044038Y003791D02*
X055049Y003791D01*
X055049Y003692D02*
X044136Y003692D01*
X043549Y006829D02*
X042299Y006829D01*
X038074Y008529D02*
X037124Y008529D01*
X036884Y008769D01*
X036884Y010904D01*
X038074Y010904D01*
X038074Y008529D01*
X038074Y008617D02*
X037036Y008617D01*
X036938Y008716D02*
X038074Y008716D01*
X038074Y008814D02*
X036884Y008814D01*
X036884Y008913D02*
X038074Y008913D01*
X038074Y009011D02*
X036884Y009011D01*
X036884Y009110D02*
X038074Y009110D01*
X038074Y009208D02*
X036884Y009208D01*
X036884Y009307D02*
X038074Y009307D01*
X038074Y009405D02*
X036884Y009405D01*
X036884Y009504D02*
X038074Y009504D01*
X038074Y009602D02*
X036884Y009602D01*
X036884Y009701D02*
X038074Y009701D01*
X038074Y009799D02*
X036884Y009799D01*
X036884Y009898D02*
X038074Y009898D01*
X038074Y009996D02*
X036884Y009996D01*
X036884Y010095D02*
X038074Y010095D01*
X038074Y010193D02*
X036884Y010193D01*
X036884Y010292D02*
X038074Y010292D01*
X038074Y010390D02*
X036884Y010390D01*
X036884Y010489D02*
X038074Y010489D01*
X038074Y010587D02*
X036884Y010587D01*
X036884Y010686D02*
X038074Y010686D01*
X038074Y010784D02*
X036884Y010784D01*
X036884Y010883D02*
X038074Y010883D01*
X037732Y009154D02*
X037732Y007611D01*
X036924Y006804D01*
X036472Y006352D02*
X033604Y006352D01*
X033702Y006450D02*
X036373Y006450D01*
X036284Y006549D02*
X034141Y006549D01*
X034189Y006647D02*
X036284Y006647D01*
X036284Y006746D02*
X034189Y006746D01*
X034189Y006844D02*
X036284Y006844D01*
X036284Y006943D02*
X034189Y006943D01*
X034189Y007041D02*
X036284Y007041D01*
X036355Y007140D02*
X034189Y007140D01*
X034189Y007238D02*
X036453Y007238D01*
X036552Y007337D02*
X034189Y007337D01*
X034189Y007435D02*
X036624Y007435D01*
X036624Y007534D02*
X034189Y007534D01*
X034189Y007632D02*
X036624Y007632D01*
X036624Y007731D02*
X034189Y007731D01*
X034189Y007829D02*
X036624Y007829D01*
X036624Y007928D02*
X034189Y007928D01*
X034189Y008026D02*
X036624Y008026D01*
X036624Y008125D02*
X034189Y008125D01*
X034102Y008223D02*
X036624Y008223D01*
X035555Y008420D02*
X033906Y008420D01*
X034059Y008519D02*
X035401Y008519D01*
X035303Y008617D02*
X034158Y008617D01*
X034214Y008716D02*
X035247Y008716D01*
X035206Y008814D02*
X034254Y008814D01*
X034283Y008913D02*
X035178Y008913D01*
X035178Y009011D02*
X034283Y009011D01*
X034283Y009110D02*
X035178Y009110D01*
X035178Y009208D02*
X034283Y009208D01*
X034283Y009307D02*
X035178Y009307D01*
X035178Y009405D02*
X034283Y009405D01*
X034283Y009504D02*
X035178Y009504D01*
X035178Y009602D02*
X034283Y009602D01*
X034283Y009701D02*
X035178Y009701D01*
X035178Y009799D02*
X034283Y009799D01*
X034283Y009898D02*
X035178Y009898D01*
X035178Y009996D02*
X034283Y009996D01*
X034255Y010095D02*
X035206Y010095D01*
X035246Y010193D02*
X034214Y010193D01*
X034159Y010292D02*
X035302Y010292D01*
X035400Y010390D02*
X034060Y010390D01*
X033908Y010489D02*
X035553Y010489D01*
X029860Y010193D02*
X028924Y010193D01*
X028924Y010095D02*
X029786Y010095D01*
X029737Y009996D02*
X028924Y009996D01*
X028924Y009898D02*
X029737Y009898D01*
X029737Y009799D02*
X028924Y009799D01*
X028924Y009701D02*
X029737Y009701D01*
X029737Y009602D02*
X028924Y009602D01*
X028924Y009504D02*
X029744Y009504D01*
X029761Y010292D02*
X028924Y010292D01*
X028924Y010390D02*
X029663Y010390D01*
X029274Y011604D02*
X028949Y011929D01*
X028724Y011929D01*
X027389Y010587D02*
X021280Y010587D01*
X021280Y010489D02*
X027389Y010489D01*
X027389Y010390D02*
X021280Y010390D01*
X021280Y010292D02*
X027389Y010292D01*
X027389Y010193D02*
X021280Y010193D01*
X021258Y010095D02*
X027389Y010095D01*
X027389Y009996D02*
X021280Y009996D01*
X021280Y009898D02*
X027389Y009898D01*
X027389Y009799D02*
X021280Y009799D01*
X021280Y009701D02*
X021772Y009701D01*
X023039Y009701D02*
X027389Y009701D01*
X027389Y009602D02*
X023106Y009602D01*
X023106Y009504D02*
X027389Y009504D01*
X027389Y009405D02*
X023106Y009405D01*
X023106Y009307D02*
X027389Y009307D01*
X027389Y009208D02*
X023106Y009208D01*
X023106Y009110D02*
X027389Y009110D01*
X027389Y009011D02*
X023039Y009011D01*
X023039Y008913D02*
X027389Y008913D01*
X027389Y008814D02*
X023039Y008814D01*
X023039Y008716D02*
X023282Y008716D01*
X023187Y008617D02*
X023039Y008617D01*
X023039Y008519D02*
X023187Y008519D01*
X024221Y008716D02*
X027389Y008716D01*
X027389Y008617D02*
X024316Y008617D01*
X024316Y008519D02*
X027389Y008519D01*
X027389Y008420D02*
X024316Y008420D01*
X024316Y008322D02*
X027389Y008322D01*
X027389Y008223D02*
X024316Y008223D01*
X024316Y008125D02*
X027389Y008125D01*
X027389Y008026D02*
X024316Y008026D01*
X024316Y007928D02*
X027389Y007928D01*
X027389Y007829D02*
X024316Y007829D01*
X027683Y006943D02*
X027749Y006943D01*
X031124Y005564D02*
X036624Y005564D01*
X036624Y005662D02*
X031984Y005662D01*
X032024Y005761D02*
X036624Y005761D01*
X036624Y005859D02*
X032024Y005859D01*
X032024Y005958D02*
X036624Y005958D01*
X036624Y006056D02*
X032024Y006056D01*
X032024Y006155D02*
X036624Y006155D01*
X036570Y006253D02*
X033505Y006253D01*
X031952Y004579D02*
X036496Y004579D01*
X036496Y004677D02*
X031124Y004677D01*
X031124Y004776D02*
X036496Y004776D01*
X036496Y004874D02*
X031124Y004874D01*
X031124Y004973D02*
X036496Y004973D01*
X036496Y005071D02*
X031124Y005071D01*
X031124Y005170D02*
X036557Y005170D01*
X036624Y005268D02*
X031124Y005268D01*
X031124Y005367D02*
X036624Y005367D01*
X036624Y005465D02*
X031124Y005465D01*
X032024Y004480D02*
X036515Y004480D01*
X036613Y004382D02*
X032024Y004382D01*
X032024Y004283D02*
X036624Y004283D01*
X036624Y004185D02*
X032024Y004185D01*
X032024Y004086D02*
X036624Y004086D01*
X036624Y003988D02*
X032024Y003988D01*
X032024Y003889D02*
X036624Y003889D01*
X036624Y003791D02*
X031933Y003791D01*
X031124Y003692D02*
X036624Y003692D01*
X033674Y029979D02*
X033499Y030154D01*
X032954Y030154D01*
D76*
X031165Y031129D02*
X030924Y031129D01*
X030124Y030329D01*
X030124Y026779D01*
X030124Y025279D01*
X030124Y024754D01*
X030174Y024704D01*
X030174Y023379D01*
X029649Y020829D02*
X029649Y018479D01*
X026674Y018479D01*
X025699Y017979D02*
X031274Y017979D01*
X031699Y018404D01*
X032774Y019479D01*
X034749Y019479D01*
X035349Y020079D01*
X035349Y021669D01*
X036340Y018954D02*
X033099Y018954D01*
X032974Y018954D01*
X031499Y017479D01*
X028849Y017479D01*
X024149Y017479D01*
X013699Y017479D01*
X014149Y016979D02*
X013199Y016979D01*
X014149Y016979D02*
X015024Y016979D01*
X016049Y016979D01*
X017274Y016979D01*
X017299Y016979D02*
X021299Y016979D01*
X024899Y016979D01*
X027074Y016979D01*
X031824Y016979D01*
X025699Y017979D02*
X016599Y017979D01*
X015224Y017979D01*
X014899Y020179D02*
X014099Y020179D01*
X013299Y020179D01*
X014899Y020179D02*
X015849Y020179D01*
X015824Y025679D02*
X014874Y025679D01*
X016349Y012629D02*
X017474Y012629D01*
X039099Y009079D02*
X039399Y008779D01*
X039399Y006984D01*
X040074Y005229D02*
X039799Y004954D01*
X040074Y005229D02*
X040074Y009829D01*
X040175Y009954D02*
X040175Y011054D01*
X040148Y011027D01*
X040198Y010904D01*
X040175Y011054D02*
X040175Y011804D01*
X040200Y011829D01*
X040300Y011829D01*
X040175Y011804D02*
X040175Y012556D01*
X040324Y012705D01*
X040123Y025054D02*
X040149Y025054D01*
X040123Y025054D02*
X039609Y025054D01*
D77*
X040124Y025803D02*
X037873Y025803D01*
X037849Y025779D01*
X037849Y023404D01*
X036999Y022554D01*
X036999Y021728D01*
X037665Y021728D01*
X037726Y021667D01*
X035349Y022339D02*
X035349Y023128D01*
X035248Y023229D01*
X035462Y023443D01*
X035462Y024006D01*
X035349Y022339D02*
X035323Y022338D01*
X038799Y023854D02*
X039824Y023854D01*
X040649Y024679D01*
X040124Y025803D02*
X040098Y025829D01*
X040098Y026879D01*
X040023Y026879D01*
X040173Y025852D02*
X040124Y025803D01*
X037849Y025779D02*
X037849Y028179D01*
X037424Y029003D02*
X037250Y029003D01*
X037224Y029029D01*
X037224Y027004D01*
X037199Y026979D01*
X036899Y026979D01*
X034799Y026979D01*
X034799Y026330D01*
X034798Y026329D01*
X034798Y026057D01*
X036574Y028179D02*
X036574Y029554D01*
X036124Y030004D01*
X035800Y030004D01*
X035799Y030003D01*
X035648Y030154D01*
X034894Y030154D01*
X034949Y030704D02*
X034948Y031179D01*
X032954Y030154D02*
X031834Y030154D01*
X031834Y029230D01*
X031824Y029455D01*
X031834Y030154D02*
X031834Y031129D01*
X028849Y030003D02*
X028849Y027329D01*
X024549Y025029D02*
X024549Y029654D01*
X023673Y030530D01*
X023673Y030929D01*
X022925Y030929D02*
X022925Y031153D01*
X022574Y031504D01*
X021524Y031504D01*
X021375Y031355D01*
X021375Y030929D01*
X022024Y030830D02*
X022024Y030219D01*
X021959Y030154D01*
X020573Y030929D02*
X020573Y031928D01*
X020574Y031929D01*
X019874Y030880D02*
X019874Y030269D01*
X019990Y030154D01*
X016249Y031929D02*
X013999Y031929D01*
X013374Y031304D01*
X035799Y029255D02*
X035799Y028829D01*
X037424Y029929D02*
X037449Y029904D01*
X038323Y029904D01*
X038549Y029778D01*
X038598Y029629D01*
X039274Y029629D01*
X039499Y029404D01*
X039499Y028906D01*
X039524Y030254D02*
X040994Y030254D01*
X041081Y030167D01*
X039524Y030254D02*
X039499Y030279D01*
X039499Y030402D01*
X037424Y030105D02*
X037424Y029929D01*
X037726Y019541D02*
X037726Y018929D01*
X037701Y018954D01*
X037009Y018954D01*
X036949Y018894D01*
X036949Y018227D01*
X037726Y018778D02*
X037800Y018704D01*
X037775Y018679D01*
X037726Y018778D02*
X037726Y018929D01*
X041299Y014879D02*
X042899Y016679D01*
X043349Y016679D01*
X041299Y014879D02*
X037674Y014879D01*
X036207Y013411D01*
X036207Y013054D01*
X036207Y011961D01*
X036174Y011929D01*
X037199Y012879D02*
X037567Y012879D01*
X037742Y013054D01*
X042824Y011864D02*
X042824Y011579D01*
X043299Y011579D01*
X043249Y011529D01*
X043099Y011329D01*
X043299Y011579D02*
X043299Y011079D01*
X057989Y010617D02*
X059226Y011854D01*
X059898Y011854D01*
X061000Y011854D02*
X061673Y011854D01*
X062910Y010617D01*
X064274Y011629D02*
X062825Y013078D01*
X061074Y013078D01*
X059824Y013078D01*
X059824Y014180D02*
X059824Y016154D01*
X061074Y014489D02*
X061639Y015054D01*
X061074Y014489D02*
X061074Y014180D01*
X064274Y011629D02*
X064274Y005179D01*
X063762Y004667D01*
X062674Y004667D01*
X062674Y004679D01*
X018500Y008661D02*
X018499Y008660D01*
X014430Y010723D02*
X014299Y010803D01*
X014324Y010829D02*
X014374Y010879D01*
D78*
X044174Y026329D02*
X044179Y026334D01*
X044249Y026334D01*
X044249Y028574D02*
X044249Y028754D01*
X044223Y028780D01*
X043624Y028780D01*
X044509Y028574D02*
X044509Y029289D01*
X045019Y029374D02*
X045199Y029529D01*
X045019Y029374D02*
X045019Y028574D01*
X021299Y030154D02*
X021092Y029947D01*
X021092Y029697D01*
X020836Y029692D02*
X020836Y029976D01*
X020659Y030154D01*
D79*
X020574Y031929D02*
X030365Y031929D01*
X031165Y031129D01*
X020574Y031929D02*
X016249Y031929D01*
X047275Y024304D02*
X050874Y024304D01*
X041274Y012205D02*
X041274Y010928D01*
X041300Y010904D01*
X041300Y011329D02*
X041325Y010356D01*
X040923Y009954D01*
X040175Y009954D02*
X040175Y009905D01*
X040074Y009829D01*
D80*
X037899Y009879D03*
X037474Y009879D03*
X037049Y009879D03*
X037049Y010304D03*
X037049Y010729D03*
X037474Y010729D03*
X037474Y010304D03*
X037899Y010304D03*
X037899Y010729D03*
X042949Y005979D03*
X042949Y005579D03*
X043349Y005579D03*
X043349Y005979D03*
X027349Y006079D03*
X026924Y006079D03*
X026499Y006079D03*
X026499Y006504D03*
X026924Y006504D03*
X027349Y006504D03*
X027349Y005654D03*
X026924Y005654D03*
X026499Y005654D03*
X022149Y005654D03*
X021724Y005654D03*
X021299Y005654D03*
X021299Y006079D03*
X021299Y006504D03*
X021724Y006504D03*
X021724Y006079D03*
X022149Y006079D03*
X022149Y006504D03*
X018449Y004979D03*
X018449Y004604D03*
X018449Y004229D03*
X018024Y004229D03*
X018024Y004604D03*
X018024Y004979D03*
X014724Y004979D03*
X014724Y004604D03*
X014724Y004229D03*
X014299Y004229D03*
X014299Y004604D03*
X014299Y004979D03*
X043349Y016254D03*
X043749Y016254D03*
X044149Y016254D03*
X044149Y016679D03*
X043749Y016679D03*
X043349Y016679D03*
X043349Y017104D03*
X043749Y017104D03*
X044149Y017104D03*
D81*
X035323Y022338D02*
X034310Y022338D01*
X034474Y022402D01*
X029028Y004579D02*
X028749Y004579D01*
D82*
X023752Y007904D02*
X022849Y007904D01*
X022499Y008254D01*
X022499Y009104D01*
D83*
X010008Y004850D03*
X010008Y030834D03*
X049378Y030834D03*
D84*
X049425Y010879D02*
X048649Y010879D01*
D85*
X042374Y013529D02*
X042149Y013529D01*
X042374Y013529D02*
X041124Y013779D01*
X039499Y013779D01*
X039049Y013329D01*
X039049Y011754D01*
X039049Y009154D01*
X055649Y027730D02*
X055649Y028129D01*
D86*
X046454Y020309D02*
X046454Y019884D01*
D87*
X046324Y017629D02*
X046324Y016830D01*
D88*
X043099Y011329D02*
X041300Y011329D01*
X041300Y010904D01*
M02*
