G75*
G70*
%OFA0B0*%
%FSLAX24Y24*%
%IPPOS*%
%LPD*%
%AMOC8*
5,1,8,0,0,1.08239X$1,22.5*
%
%ADD10C,0.0050*%
%ADD11C,0.0040*%
%ADD12C,0.0100*%
%ADD13C,0.0060*%
%ADD14C,0.0070*%
%ADD15C,0.0500*%
%ADD16R,0.0250X0.1500*%
%ADD17R,0.0787X0.2165*%
%ADD18C,0.0138*%
D10*
X064504Y016129D02*
X064211Y016892D01*
X063882Y017641D01*
X063520Y018373D01*
X062418Y018885D02*
X058481Y018885D01*
X056395Y012979D02*
X056688Y012216D01*
X057017Y011467D01*
X057379Y010735D01*
X058481Y010223D02*
X062418Y010223D01*
X061440Y009797D02*
X061440Y003498D01*
X064249Y003498D01*
X064249Y005663D01*
X060903Y005663D01*
X060903Y003498D01*
X061440Y003498D01*
X060656Y003704D02*
X060656Y003929D01*
X060581Y004004D01*
X060281Y004004D01*
X060206Y003929D01*
X060206Y003704D01*
X060656Y003704D01*
X060581Y004164D02*
X060281Y004164D01*
X060206Y004239D01*
X060206Y004390D01*
X060281Y004465D01*
X060581Y004465D02*
X060656Y004390D01*
X060656Y004239D01*
X060581Y004164D01*
X060506Y005085D02*
X060506Y005160D01*
X060206Y005160D01*
X060206Y005085D02*
X060206Y005235D01*
X060206Y005392D02*
X060506Y005392D01*
X060506Y005617D01*
X060431Y005692D01*
X060206Y005692D01*
X060206Y006313D02*
X060506Y006313D01*
X060506Y006388D01*
X060431Y006463D01*
X060506Y006538D01*
X060431Y006613D01*
X060206Y006613D01*
X060206Y006463D02*
X060431Y006463D01*
X060281Y006773D02*
X060356Y006848D01*
X060356Y007073D01*
X060431Y007073D02*
X060206Y007073D01*
X060206Y006848D01*
X060281Y006773D01*
X060506Y006848D02*
X060506Y006998D01*
X060431Y007073D01*
X060506Y007234D02*
X060206Y007534D01*
X060206Y007694D02*
X060206Y007769D01*
X060281Y007769D01*
X060281Y007694D01*
X060206Y007694D01*
X060506Y007534D02*
X060206Y007234D01*
X060903Y007632D02*
X064249Y007632D01*
X064249Y009797D01*
X061440Y009797D01*
X060903Y009797D01*
X060903Y007632D01*
X060903Y005663D01*
X060731Y005160D02*
X060656Y005160D01*
X064249Y005663D02*
X064249Y007632D01*
X060656Y008685D02*
X060581Y008535D01*
X060431Y008385D01*
X060431Y008610D01*
X060356Y008685D01*
X060281Y008685D01*
X060206Y008610D01*
X060206Y008460D01*
X060281Y008385D01*
X060431Y008385D01*
X060581Y008845D02*
X060656Y008920D01*
X060656Y009070D01*
X060581Y009145D01*
X060506Y009145D01*
X060206Y008845D01*
X060206Y009145D01*
X060356Y009305D02*
X060206Y009456D01*
X060356Y009606D01*
X060656Y009606D01*
X060656Y009305D02*
X060356Y009305D01*
X056395Y016129D02*
X056688Y016892D01*
X057017Y017641D01*
X057379Y018373D01*
X064504Y016129D02*
X064569Y015939D01*
X064626Y015746D01*
X064674Y015551D01*
X064713Y015354D01*
X064743Y015155D01*
X064764Y014955D01*
X064777Y014755D01*
X064780Y014554D01*
X056395Y012979D02*
X056330Y013169D01*
X056273Y013362D01*
X056225Y013557D01*
X056186Y013754D01*
X056156Y013953D01*
X056135Y014153D01*
X056122Y014353D01*
X056119Y014554D01*
X064504Y012979D02*
X064569Y013169D01*
X064626Y013362D01*
X064674Y013557D01*
X064713Y013754D01*
X064743Y013953D01*
X064764Y014153D01*
X064777Y014353D01*
X064780Y014554D01*
X056395Y016129D02*
X056330Y015939D01*
X056273Y015746D01*
X056225Y015551D01*
X056186Y015354D01*
X056156Y015155D01*
X056135Y014955D01*
X056122Y014755D01*
X056119Y014554D01*
X063520Y010735D02*
X063882Y011467D01*
X064211Y012216D01*
X064504Y012979D01*
X064246Y027348D02*
X063946Y027798D01*
X063786Y027723D02*
X063711Y027798D01*
X063561Y027798D01*
X063485Y027723D01*
X063485Y027648D01*
X063786Y027348D01*
X063485Y027348D01*
X063946Y027348D02*
X064246Y027798D01*
X064249Y027923D02*
X064249Y030088D01*
X060903Y030088D01*
X060903Y027923D01*
X061465Y027923D01*
X061465Y032254D01*
X060903Y032254D01*
X060903Y030088D01*
X060743Y030435D02*
X060668Y030435D01*
X060518Y030435D02*
X060218Y030435D01*
X060218Y030360D02*
X060218Y030510D01*
X060218Y030667D02*
X060518Y030667D01*
X060518Y030892D01*
X060443Y030967D01*
X060218Y030967D01*
X060068Y031111D02*
X059618Y031111D01*
X059843Y031186D02*
X059843Y030886D01*
X060068Y031111D01*
X060068Y031346D02*
X059768Y031346D01*
X059618Y031497D01*
X059768Y031647D01*
X060068Y031647D01*
X059843Y030726D02*
X059843Y030426D01*
X060068Y030651D01*
X059618Y030651D01*
X059618Y029810D02*
X059618Y029735D01*
X059693Y029735D01*
X059693Y029810D01*
X059618Y029810D01*
X059618Y029575D02*
X059918Y029275D01*
X059843Y029115D02*
X059618Y029115D01*
X059618Y028889D01*
X059693Y028814D01*
X059768Y028889D01*
X059768Y029115D01*
X059843Y029115D02*
X059918Y029040D01*
X059918Y028889D01*
X059843Y028654D02*
X059618Y028654D01*
X059618Y028504D02*
X059843Y028504D01*
X059918Y028579D01*
X059843Y028654D01*
X059843Y028504D02*
X059918Y028429D01*
X059918Y028354D01*
X059618Y028354D01*
X060218Y028979D02*
X060518Y028979D01*
X060668Y029129D01*
X060518Y029279D01*
X060218Y029279D01*
X060293Y029439D02*
X060218Y029514D01*
X060218Y029665D01*
X060293Y029740D01*
X060593Y029740D02*
X060668Y029665D01*
X060668Y029514D01*
X060593Y029439D01*
X060293Y029439D01*
X060443Y029279D02*
X060443Y028979D01*
X059918Y029575D02*
X059618Y029275D01*
X060518Y030360D02*
X060518Y030435D01*
X061465Y032254D02*
X064249Y032254D01*
X064249Y030088D01*
X064249Y027923D02*
X061465Y027923D01*
D11*
X058580Y028344D02*
X058459Y028464D01*
X058219Y028464D01*
X058279Y028592D02*
X058219Y028652D01*
X058219Y028772D01*
X058279Y028832D01*
X058279Y028592D02*
X058520Y028592D01*
X058580Y028652D01*
X058580Y028772D01*
X058520Y028832D01*
X058399Y028464D02*
X058399Y028224D01*
X058459Y028224D02*
X058580Y028344D01*
X058459Y028224D02*
X058219Y028224D01*
X057805Y028689D02*
X057684Y028809D01*
X057444Y028809D01*
X057504Y028937D02*
X057444Y028997D01*
X057444Y029117D01*
X057504Y029177D01*
X057504Y028937D02*
X057745Y028937D01*
X057805Y028997D01*
X057805Y029117D01*
X057745Y029177D01*
X057624Y028809D02*
X057624Y028569D01*
X057684Y028569D02*
X057805Y028689D01*
X057684Y028569D02*
X057444Y028569D01*
X057205Y028689D02*
X057084Y028809D01*
X056844Y028809D01*
X056904Y028937D02*
X056844Y028997D01*
X056844Y029117D01*
X056904Y029177D01*
X056904Y028937D02*
X057145Y028937D01*
X057205Y028997D01*
X057205Y029117D01*
X057145Y029177D01*
X057024Y028809D02*
X057024Y028569D01*
X057084Y028569D02*
X057205Y028689D01*
X057084Y028569D02*
X056844Y028569D01*
X058219Y029329D02*
X058219Y029449D01*
X058219Y029389D02*
X058459Y029389D01*
X058459Y029329D01*
X058580Y029389D02*
X058640Y029389D01*
X058459Y029574D02*
X058459Y029755D01*
X058399Y029815D01*
X058219Y029815D01*
X058219Y029943D02*
X058219Y030123D01*
X058279Y030183D01*
X058399Y030183D01*
X058459Y030123D01*
X058459Y029943D01*
X058099Y029943D01*
X057865Y029733D02*
X057805Y029733D01*
X057684Y029733D02*
X057444Y029733D01*
X057444Y029673D02*
X057444Y029794D01*
X057444Y029919D02*
X057684Y029919D01*
X057684Y030099D01*
X057624Y030159D01*
X057444Y030159D01*
X057084Y030099D02*
X057084Y029919D01*
X056844Y029919D01*
X056844Y029794D02*
X056844Y029673D01*
X056844Y029733D02*
X057084Y029733D01*
X057084Y029673D01*
X057205Y029733D02*
X057265Y029733D01*
X057084Y030099D02*
X057024Y030159D01*
X056844Y030159D01*
X056844Y030656D02*
X057084Y030896D01*
X057145Y030896D01*
X057205Y030836D01*
X057205Y030716D01*
X057145Y030656D01*
X057444Y030656D02*
X057444Y030896D01*
X057444Y030776D02*
X057805Y030776D01*
X057684Y030656D01*
X058219Y030551D02*
X058459Y030551D01*
X058459Y030679D02*
X058459Y030799D01*
X058520Y030739D02*
X058279Y030739D01*
X058219Y030799D01*
X058219Y030551D02*
X058219Y030371D01*
X058279Y030311D01*
X058459Y030311D01*
X058459Y029574D02*
X058219Y029574D01*
X057684Y029673D02*
X057684Y029733D01*
X056844Y030656D02*
X056844Y030896D01*
X058219Y031293D02*
X058580Y031533D01*
X058520Y031662D02*
X058580Y031722D01*
X058580Y031842D01*
X058520Y031902D01*
X058459Y031902D01*
X058219Y031662D01*
X058219Y031902D01*
X058219Y031533D02*
X058580Y031293D01*
X044671Y031199D02*
X044430Y030959D01*
X044430Y031079D02*
X044671Y031079D01*
X044671Y030959D02*
X044430Y031199D01*
X044550Y031199D02*
X044550Y030959D01*
X043934Y030959D02*
X043934Y031199D01*
X043874Y031259D01*
X043754Y031259D01*
X043694Y031199D01*
X043566Y031259D02*
X043566Y030899D01*
X043694Y030959D02*
X043754Y030899D01*
X043874Y030899D01*
X043934Y030959D01*
X043566Y031079D02*
X043506Y031139D01*
X043385Y031139D01*
X043325Y031079D01*
X043325Y030899D01*
X043197Y030959D02*
X043197Y031079D01*
X043137Y031139D01*
X043017Y031139D01*
X042957Y031079D01*
X042957Y031019D01*
X043197Y031019D01*
X043197Y030959D02*
X043137Y030899D01*
X043017Y030899D01*
X042829Y030959D02*
X042829Y031079D01*
X042769Y031139D01*
X042589Y031139D01*
X042461Y031019D02*
X042280Y030899D01*
X042461Y030899D02*
X042461Y031259D01*
X042280Y031139D02*
X042461Y031019D01*
X042589Y030899D02*
X042769Y030899D01*
X042829Y030959D01*
X041785Y030899D02*
X041665Y030899D01*
X041725Y030899D02*
X041725Y031139D01*
X041785Y031139D01*
X041725Y031259D02*
X041725Y031319D01*
X041540Y031139D02*
X041540Y030899D01*
X041540Y031139D02*
X041360Y031139D01*
X041300Y031079D01*
X041300Y030899D01*
X041172Y030899D02*
X040991Y030899D01*
X040931Y030959D01*
X040991Y031019D01*
X041112Y031019D01*
X041172Y031079D01*
X041112Y031139D01*
X040931Y031139D01*
X040803Y031139D02*
X040683Y031139D01*
X040743Y031199D02*
X040743Y030959D01*
X040683Y030899D01*
X040558Y030899D02*
X040558Y031139D01*
X040558Y031019D02*
X040438Y031139D01*
X040378Y031139D01*
X040251Y031139D02*
X040251Y030959D01*
X040191Y030899D01*
X040011Y030899D01*
X040011Y031139D01*
X039882Y031079D02*
X039882Y030959D01*
X039822Y030899D01*
X039642Y030899D01*
X039454Y030959D02*
X039394Y030899D01*
X039454Y030959D02*
X039454Y031199D01*
X039514Y031139D02*
X039394Y031139D01*
X039269Y031139D02*
X039209Y031139D01*
X039209Y030899D01*
X039269Y030899D02*
X039148Y030899D01*
X039023Y030959D02*
X039023Y031079D01*
X038963Y031139D01*
X038843Y031139D01*
X038783Y031079D01*
X038783Y030959D01*
X038843Y030899D01*
X038963Y030899D01*
X039023Y030959D01*
X039209Y031259D02*
X039209Y031319D01*
X039642Y031139D02*
X039822Y031139D01*
X039882Y031079D01*
X038655Y031139D02*
X038655Y030899D01*
X038655Y031139D02*
X038475Y031139D01*
X038415Y031079D01*
X038415Y030899D01*
X038286Y030899D02*
X038106Y030899D01*
X038046Y030959D01*
X038106Y031019D01*
X038226Y031019D01*
X038286Y031079D01*
X038226Y031139D01*
X038046Y031139D01*
X037550Y031079D02*
X037430Y031079D01*
X037304Y031079D02*
X037304Y030959D01*
X037244Y030899D01*
X037124Y030899D01*
X037064Y030959D01*
X037064Y031079D01*
X037124Y031139D01*
X037244Y031139D01*
X037304Y031079D01*
X037430Y031259D02*
X037490Y031199D01*
X037490Y030899D01*
X036936Y030899D02*
X036936Y031139D01*
X036936Y031019D02*
X036816Y031139D01*
X036756Y031139D01*
X036261Y031019D02*
X036081Y031019D01*
X036020Y031079D01*
X036020Y031199D01*
X036081Y031259D01*
X036261Y031259D01*
X036261Y030899D01*
X036141Y031019D02*
X036020Y030899D01*
X035892Y030899D02*
X035652Y030899D01*
X035772Y030899D02*
X035772Y031259D01*
X035892Y031139D01*
X035524Y031199D02*
X035464Y031259D01*
X035344Y031259D01*
X035284Y031199D01*
X035284Y031139D01*
X035344Y031079D01*
X035284Y031019D01*
X035284Y030959D01*
X035344Y030899D01*
X035464Y030899D01*
X035524Y030959D01*
X035404Y031079D02*
X035344Y031079D01*
X034787Y031139D02*
X034727Y031139D01*
X034727Y030899D01*
X034787Y030899D02*
X034667Y030899D01*
X034542Y030899D02*
X034542Y031139D01*
X034362Y031139D01*
X034302Y031079D01*
X034302Y030899D01*
X034174Y030899D02*
X033993Y030899D01*
X033933Y030959D01*
X033993Y031019D01*
X034114Y031019D01*
X034174Y031079D01*
X034114Y031139D01*
X033933Y031139D01*
X033805Y031139D02*
X033685Y031139D01*
X033745Y031199D02*
X033745Y030959D01*
X033685Y030899D01*
X033560Y030959D02*
X033500Y031019D01*
X033320Y031019D01*
X033320Y031079D02*
X033320Y030899D01*
X033500Y030899D01*
X033560Y030959D01*
X033500Y031139D02*
X033380Y031139D01*
X033320Y031079D01*
X033191Y030899D02*
X033071Y030899D01*
X033131Y030899D02*
X033131Y031259D01*
X033191Y031259D01*
X032946Y031259D02*
X032886Y031259D01*
X032886Y030899D01*
X032946Y030899D02*
X032826Y030899D01*
X032700Y030959D02*
X032640Y031019D01*
X032460Y031019D01*
X032460Y031079D02*
X032460Y030899D01*
X032640Y030899D01*
X032700Y030959D01*
X032640Y031139D02*
X032520Y031139D01*
X032460Y031079D01*
X032332Y031139D02*
X032212Y031139D01*
X032272Y031199D02*
X032272Y030959D01*
X032212Y030899D01*
X032086Y030899D02*
X031966Y030899D01*
X032026Y030899D02*
X032026Y031139D01*
X032086Y031139D01*
X032026Y031259D02*
X032026Y031319D01*
X031841Y031079D02*
X031841Y030959D01*
X031781Y030899D01*
X031661Y030899D01*
X031601Y030959D01*
X031601Y031079D01*
X031661Y031139D01*
X031781Y031139D01*
X031841Y031079D01*
X031473Y031139D02*
X031292Y031139D01*
X031232Y031079D01*
X031232Y030899D01*
X031473Y030899D02*
X031473Y031139D01*
X034727Y031259D02*
X034727Y031319D01*
X020587Y021981D02*
X020527Y022041D01*
X020467Y022041D01*
X020407Y021981D01*
X020346Y022041D01*
X020286Y022041D01*
X020226Y021981D01*
X020226Y021861D01*
X020286Y021801D01*
X020226Y021673D02*
X020587Y021432D01*
X020587Y021673D02*
X020226Y021432D01*
X020527Y021801D02*
X020587Y021861D01*
X020587Y021981D01*
X020407Y021981D02*
X020407Y021921D01*
X020467Y020937D02*
X020467Y020877D01*
X020346Y020757D01*
X020226Y020757D02*
X020467Y020757D01*
X020407Y020629D02*
X020467Y020569D01*
X020467Y020449D01*
X020407Y020389D01*
X020286Y020389D01*
X020226Y020449D01*
X020226Y020569D01*
X020286Y020629D01*
X020407Y020629D01*
X020467Y020263D02*
X020467Y020143D01*
X020527Y020203D02*
X020286Y020203D01*
X020226Y020263D01*
X020226Y020015D02*
X020226Y019835D01*
X020286Y019775D01*
X020407Y019775D01*
X020467Y019835D01*
X020467Y020015D01*
X020407Y019647D02*
X020346Y019647D01*
X020346Y019407D01*
X020286Y019407D02*
X020407Y019407D01*
X020467Y019467D01*
X020467Y019587D01*
X020407Y019647D01*
X020226Y019587D02*
X020226Y019467D01*
X020286Y019407D01*
X020226Y019279D02*
X020407Y019279D01*
X020467Y019219D01*
X020467Y019038D01*
X020226Y019038D01*
X020226Y018910D02*
X020407Y018910D01*
X020467Y018850D01*
X020467Y018670D01*
X020226Y018670D01*
X020286Y018542D02*
X020407Y018542D01*
X020467Y018482D01*
X020467Y018362D01*
X020407Y018302D01*
X020286Y018302D01*
X020226Y018362D01*
X020226Y018482D01*
X020286Y018542D01*
X020226Y018174D02*
X020226Y017994D01*
X020286Y017933D01*
X020407Y017933D01*
X020467Y017994D01*
X020467Y018174D01*
X020467Y017438D02*
X020467Y017378D01*
X020346Y017258D01*
X020226Y017258D02*
X020467Y017258D01*
X020407Y017130D02*
X020346Y017130D01*
X020346Y016890D01*
X020286Y016890D02*
X020407Y016890D01*
X020467Y016950D01*
X020467Y017070D01*
X020407Y017130D01*
X020226Y017070D02*
X020226Y016950D01*
X020286Y016890D01*
X020286Y016762D02*
X020467Y016762D01*
X020286Y016762D02*
X020226Y016702D01*
X020286Y016642D01*
X020226Y016582D01*
X020286Y016522D01*
X020467Y016522D01*
X020407Y016393D02*
X020467Y016333D01*
X020467Y016213D01*
X020407Y016153D01*
X020286Y016153D01*
X020226Y016213D01*
X020226Y016333D01*
X020286Y016393D01*
X020407Y016393D01*
X020407Y016025D02*
X020346Y015965D01*
X020346Y015785D01*
X020226Y015785D02*
X020587Y015785D01*
X020587Y015965D01*
X020527Y016025D01*
X020407Y016025D01*
X019712Y016026D02*
X019652Y015966D01*
X019411Y015966D01*
X019351Y016026D01*
X019351Y016146D01*
X019411Y016206D01*
X019652Y016206D01*
X019712Y016146D01*
X019712Y016026D01*
X019712Y015838D02*
X019351Y015838D01*
X019112Y015843D02*
X018751Y015843D01*
X018751Y016084D01*
X018751Y016212D02*
X019112Y016452D01*
X019112Y016580D02*
X019112Y016760D01*
X019052Y016820D01*
X018932Y016820D01*
X018871Y016760D01*
X018871Y016580D01*
X018751Y016580D02*
X019112Y016580D01*
X019351Y016515D02*
X019351Y016395D01*
X019411Y016334D01*
X019532Y016395D02*
X019532Y016515D01*
X019471Y016575D01*
X019411Y016575D01*
X019351Y016515D01*
X019351Y016703D02*
X019351Y016823D01*
X019351Y016763D02*
X019712Y016763D01*
X019712Y016703D02*
X019712Y016823D01*
X019652Y016575D02*
X019712Y016515D01*
X019712Y016395D01*
X019652Y016334D01*
X019592Y016334D01*
X019532Y016395D01*
X019112Y016212D02*
X018751Y016452D01*
X018512Y016452D02*
X018512Y016212D01*
X018151Y016212D01*
X018151Y016452D01*
X018332Y016332D02*
X018332Y016212D01*
X018271Y016084D02*
X018211Y016084D01*
X018151Y016024D01*
X018151Y015903D01*
X018211Y015843D01*
X018332Y015903D02*
X018332Y016024D01*
X018271Y016084D01*
X018452Y016084D02*
X018512Y016024D01*
X018512Y015903D01*
X018452Y015843D01*
X018392Y015843D01*
X018332Y015903D01*
X018512Y015715D02*
X018512Y015475D01*
X018151Y015475D01*
X018151Y015715D01*
X018332Y015595D02*
X018332Y015475D01*
X018332Y015347D02*
X018271Y015287D01*
X018271Y015107D01*
X018151Y015107D02*
X018512Y015107D01*
X018512Y015287D01*
X018452Y015347D01*
X018332Y015347D01*
X018271Y015227D02*
X018151Y015347D01*
X017912Y015535D02*
X017852Y015475D01*
X017792Y015475D01*
X017732Y015535D01*
X017732Y015655D01*
X017671Y015715D01*
X017611Y015715D01*
X017551Y015655D01*
X017551Y015535D01*
X017611Y015475D01*
X017912Y015535D02*
X017912Y015655D01*
X017852Y015715D01*
X017852Y015843D02*
X017611Y015843D01*
X017551Y015903D01*
X017551Y016024D01*
X017611Y016084D01*
X017551Y016212D02*
X017912Y016212D01*
X017852Y016084D02*
X017912Y016024D01*
X017912Y015903D01*
X017852Y015843D01*
X017551Y016212D02*
X017551Y016452D01*
X017551Y016580D02*
X017912Y016580D01*
X017732Y016640D02*
X017551Y016820D01*
X017312Y016760D02*
X017252Y016820D01*
X017011Y016820D01*
X016951Y016760D01*
X016951Y016640D01*
X017011Y016580D01*
X017252Y016580D01*
X017312Y016640D01*
X017312Y016760D01*
X017252Y016452D02*
X017312Y016392D01*
X017312Y016272D01*
X017252Y016212D01*
X017192Y016212D01*
X017132Y016272D01*
X017132Y016392D01*
X017071Y016452D01*
X017011Y016452D01*
X016951Y016392D01*
X016951Y016272D01*
X017011Y016212D01*
X016951Y016086D02*
X016951Y015966D01*
X016951Y016026D02*
X017312Y016026D01*
X017312Y015966D02*
X017312Y016086D01*
X017312Y015838D02*
X016951Y015838D01*
X016712Y015843D02*
X016712Y016084D01*
X016712Y016212D02*
X016712Y016452D01*
X016712Y016332D02*
X016351Y016332D01*
X016112Y016392D02*
X016112Y016272D01*
X016052Y016212D01*
X015811Y016212D01*
X015751Y016272D01*
X015751Y016392D01*
X015811Y016452D01*
X016052Y016452D02*
X016112Y016392D01*
X016112Y016084D02*
X016112Y015843D01*
X016112Y015963D02*
X015751Y015963D01*
X015512Y015903D02*
X015452Y015843D01*
X015211Y015843D01*
X015151Y015903D01*
X015151Y016024D01*
X015211Y016084D01*
X015211Y016212D02*
X015151Y016272D01*
X015151Y016392D01*
X015211Y016452D01*
X015211Y016212D02*
X015452Y016212D01*
X015512Y016272D01*
X015512Y016392D01*
X015452Y016452D01*
X015452Y016084D02*
X015512Y016024D01*
X015512Y015903D01*
X015512Y015715D02*
X015271Y015715D01*
X015151Y015595D01*
X015271Y015475D01*
X015512Y015475D01*
X015691Y015347D02*
X015691Y015107D01*
X015512Y014979D02*
X015211Y014979D01*
X015151Y014919D01*
X015151Y014798D01*
X015211Y014738D01*
X015512Y014738D01*
X015452Y014610D02*
X015512Y014550D01*
X015512Y014430D01*
X015452Y014370D01*
X015211Y014370D01*
X015151Y014430D01*
X015151Y014550D01*
X015211Y014610D01*
X015151Y014242D02*
X015512Y014242D01*
X015392Y014122D01*
X015512Y014002D01*
X015151Y014002D01*
X015751Y014002D02*
X015751Y014242D01*
X015751Y014370D02*
X016112Y014370D01*
X015992Y014490D01*
X016112Y014610D01*
X015751Y014610D01*
X015751Y014738D02*
X016112Y014738D01*
X016112Y014919D01*
X016052Y014979D01*
X015932Y014979D01*
X015871Y014919D01*
X015871Y014738D01*
X016291Y014738D02*
X016291Y014979D01*
X016411Y015107D02*
X016351Y015167D01*
X016351Y015287D01*
X016411Y015347D01*
X016712Y015347D01*
X016652Y015475D02*
X016592Y015475D01*
X016532Y015535D01*
X016532Y015655D01*
X016471Y015715D01*
X016411Y015715D01*
X016351Y015655D01*
X016351Y015535D01*
X016411Y015475D01*
X016652Y015475D02*
X016712Y015535D01*
X016712Y015655D01*
X016652Y015715D01*
X016712Y015843D02*
X016351Y015843D01*
X016351Y016084D01*
X016532Y015963D02*
X016532Y015843D01*
X016112Y015715D02*
X015751Y015715D01*
X016112Y015475D01*
X015751Y015475D01*
X015091Y015347D02*
X015091Y015107D01*
X014912Y015230D02*
X014671Y015230D01*
X014551Y015350D01*
X014671Y015470D01*
X014912Y015470D01*
X014732Y015598D02*
X014611Y015598D01*
X014551Y015658D01*
X014551Y015778D01*
X014611Y015838D01*
X014732Y015838D01*
X014792Y015778D01*
X014792Y015658D01*
X014732Y015598D01*
X014792Y015966D02*
X014611Y015966D01*
X014551Y016026D01*
X014551Y016206D01*
X014792Y016206D01*
X014792Y016334D02*
X014792Y016455D01*
X014852Y016395D02*
X014611Y016395D01*
X014551Y016455D01*
X014252Y016395D02*
X014011Y016395D01*
X013951Y016455D01*
X014192Y016455D02*
X014192Y016334D01*
X014192Y016206D02*
X013951Y016206D01*
X013951Y016026D01*
X014011Y015966D01*
X014192Y015966D01*
X014132Y015838D02*
X014192Y015778D01*
X014192Y015658D01*
X014132Y015598D01*
X014011Y015598D01*
X013951Y015658D01*
X013951Y015778D01*
X014011Y015838D01*
X014132Y015838D01*
X014071Y015470D02*
X014312Y015470D01*
X014312Y015230D02*
X014071Y015230D01*
X013951Y015350D01*
X014071Y015470D01*
X014132Y015101D02*
X014132Y014861D01*
X013712Y014550D02*
X013652Y014610D01*
X013712Y014550D02*
X013712Y014430D01*
X013652Y014370D01*
X013592Y014370D01*
X013532Y014430D01*
X013532Y014550D01*
X013471Y014610D01*
X013411Y014610D01*
X013351Y014550D01*
X013351Y014430D01*
X013411Y014370D01*
X013411Y014738D02*
X013532Y014738D01*
X013592Y014798D01*
X013592Y014919D01*
X013532Y014979D01*
X013471Y014979D01*
X013471Y014738D01*
X013411Y014738D02*
X013351Y014798D01*
X013351Y014919D01*
X013351Y015107D02*
X013592Y015107D01*
X013592Y015287D01*
X013532Y015347D01*
X013351Y015347D01*
X013351Y015475D02*
X013351Y015655D01*
X013411Y015715D01*
X013471Y015655D01*
X013471Y015535D01*
X013532Y015475D01*
X013592Y015535D01*
X013592Y015715D01*
X013532Y015843D02*
X013592Y015903D01*
X013592Y016024D01*
X013532Y016084D01*
X013471Y016084D01*
X013471Y015843D01*
X013411Y015843D02*
X013532Y015843D01*
X013411Y015843D02*
X013351Y015903D01*
X013351Y016024D01*
X013532Y016212D02*
X013532Y016452D01*
X013052Y016395D02*
X012811Y016395D01*
X012751Y016455D01*
X012992Y016455D02*
X012992Y016334D01*
X012992Y016206D02*
X012751Y016206D01*
X012751Y016026D01*
X012811Y015966D01*
X012992Y015966D01*
X012932Y015838D02*
X012992Y015778D01*
X012992Y015658D01*
X012932Y015598D01*
X012811Y015598D01*
X012751Y015658D01*
X012751Y015778D01*
X012811Y015838D01*
X012932Y015838D01*
X012871Y015470D02*
X013112Y015470D01*
X013112Y015230D02*
X012871Y015230D01*
X012751Y015350D01*
X012871Y015470D01*
X012512Y015470D02*
X012271Y015470D01*
X012151Y015350D01*
X012271Y015230D01*
X012512Y015230D01*
X012332Y015101D02*
X012332Y014861D01*
X012452Y014981D02*
X012211Y014981D01*
X012811Y014981D02*
X013052Y014981D01*
X012932Y014861D02*
X012932Y015101D01*
X012392Y015658D02*
X012332Y015598D01*
X012211Y015598D01*
X012151Y015658D01*
X012151Y015778D01*
X012211Y015838D01*
X012332Y015838D01*
X012392Y015778D01*
X012392Y015658D01*
X012392Y015966D02*
X012211Y015966D01*
X012151Y016026D01*
X012151Y016206D01*
X012392Y016206D01*
X012392Y016334D02*
X012392Y016455D01*
X012452Y016395D02*
X012211Y016395D01*
X012151Y016455D01*
X012151Y016948D02*
X012392Y017189D01*
X012452Y017189D01*
X012512Y017128D01*
X012512Y017008D01*
X012452Y016948D01*
X012751Y016948D02*
X012992Y017189D01*
X013052Y017189D01*
X013112Y017128D01*
X013112Y017008D01*
X013052Y016948D01*
X013351Y016948D02*
X013592Y017189D01*
X013652Y017189D01*
X013712Y017128D01*
X013712Y017008D01*
X013652Y016948D01*
X013951Y016948D02*
X013951Y017189D01*
X013951Y017068D02*
X014312Y017068D01*
X014192Y016948D01*
X014551Y016948D02*
X014551Y017189D01*
X014551Y017068D02*
X014912Y017068D01*
X014792Y016948D01*
X015151Y016948D02*
X015151Y017189D01*
X015151Y017068D02*
X015512Y017068D01*
X015392Y016948D01*
X015751Y016948D02*
X015751Y017189D01*
X015751Y017068D02*
X016112Y017068D01*
X015992Y016948D01*
X016351Y016948D02*
X016351Y017189D01*
X016351Y017068D02*
X016712Y017068D01*
X016592Y016948D01*
X016592Y017317D02*
X016712Y017437D01*
X016351Y017437D01*
X016351Y017317D02*
X016351Y017557D01*
X016112Y017497D02*
X016112Y017377D01*
X016052Y017317D01*
X015932Y017437D02*
X015932Y017497D01*
X015871Y017557D01*
X015811Y017557D01*
X015751Y017497D01*
X015751Y017377D01*
X015811Y017317D01*
X015932Y017497D02*
X015992Y017557D01*
X016052Y017557D01*
X016112Y017497D01*
X015512Y017557D02*
X015512Y017317D01*
X015332Y017317D01*
X015392Y017437D01*
X015392Y017497D01*
X015332Y017557D01*
X015211Y017557D01*
X015151Y017497D01*
X015151Y017377D01*
X015211Y017317D01*
X014912Y017317D02*
X014912Y017557D01*
X014852Y017557D01*
X014611Y017317D01*
X014551Y017317D01*
X014312Y017377D02*
X014312Y017497D01*
X014252Y017557D01*
X014011Y017557D01*
X013951Y017497D01*
X013951Y017377D01*
X014011Y017317D01*
X014132Y017377D02*
X014132Y017557D01*
X014132Y017377D02*
X014192Y017317D01*
X014252Y017317D01*
X014312Y017377D01*
X013712Y017437D02*
X013351Y017437D01*
X013351Y017317D02*
X013351Y017557D01*
X013112Y017497D02*
X013052Y017557D01*
X012992Y017557D01*
X012932Y017497D01*
X012871Y017557D01*
X012811Y017557D01*
X012751Y017497D01*
X012751Y017377D01*
X012811Y017317D01*
X012751Y017189D02*
X012751Y016948D01*
X012512Y017317D02*
X012332Y017317D01*
X012392Y017437D01*
X012392Y017497D01*
X012332Y017557D01*
X012211Y017557D01*
X012151Y017497D01*
X012151Y017377D01*
X012211Y017317D01*
X012151Y017189D02*
X012151Y016948D01*
X012512Y017317D02*
X012512Y017557D01*
X012932Y017497D02*
X012932Y017437D01*
X013052Y017317D02*
X013112Y017377D01*
X013112Y017497D01*
X013351Y017189D02*
X013351Y016948D01*
X013592Y017317D02*
X013712Y017437D01*
X013752Y019185D02*
X013812Y019245D01*
X013812Y019365D01*
X013752Y019425D01*
X013692Y019425D01*
X013451Y019185D01*
X013451Y019425D01*
X013451Y019553D02*
X013692Y019793D01*
X013752Y019793D01*
X013812Y019733D01*
X013812Y019613D01*
X013752Y019553D01*
X013451Y019553D02*
X013451Y019793D01*
X013212Y019733D02*
X013032Y019553D01*
X013032Y019793D01*
X013212Y019733D02*
X012851Y019733D01*
X012612Y019793D02*
X012552Y019673D01*
X012432Y019553D01*
X012432Y019733D01*
X012371Y019793D01*
X012311Y019793D01*
X012251Y019733D01*
X012251Y019613D01*
X012311Y019553D01*
X012432Y019553D01*
X012492Y019425D02*
X012552Y019425D01*
X012612Y019365D01*
X012612Y019245D01*
X012552Y019185D01*
X012492Y019425D02*
X012251Y019185D01*
X012251Y019425D01*
X012851Y019425D02*
X012851Y019185D01*
X013092Y019425D01*
X013152Y019425D01*
X013212Y019365D01*
X013212Y019245D01*
X013152Y019185D01*
X014051Y019185D02*
X014292Y019425D01*
X014352Y019425D01*
X014412Y019365D01*
X014412Y019245D01*
X014352Y019185D01*
X014651Y019185D02*
X014651Y019425D01*
X014651Y019305D02*
X015012Y019305D01*
X014892Y019185D01*
X015251Y019185D02*
X015251Y019425D01*
X015251Y019305D02*
X015612Y019305D01*
X015492Y019185D01*
X015851Y019185D02*
X015851Y019425D01*
X015851Y019305D02*
X016212Y019305D01*
X016092Y019185D01*
X016451Y019185D02*
X016451Y019425D01*
X016451Y019305D02*
X016812Y019305D01*
X016692Y019185D01*
X017051Y019185D02*
X017051Y019425D01*
X017051Y019305D02*
X017412Y019305D01*
X017292Y019185D01*
X017651Y019245D02*
X017651Y019365D01*
X017711Y019425D01*
X017771Y019425D01*
X017832Y019365D01*
X017832Y019245D01*
X017892Y019185D01*
X017952Y019185D01*
X018012Y019245D01*
X018012Y019365D01*
X017952Y019425D01*
X017892Y019425D01*
X017832Y019365D01*
X017832Y019245D02*
X017771Y019185D01*
X017711Y019185D01*
X017651Y019245D01*
X017352Y019553D02*
X017412Y019613D01*
X017412Y019733D01*
X017352Y019793D01*
X017111Y019553D01*
X017051Y019613D01*
X017051Y019733D01*
X017111Y019793D01*
X017352Y019793D01*
X017352Y019553D02*
X017111Y019553D01*
X016812Y019613D02*
X016812Y019733D01*
X016752Y019793D01*
X016692Y019793D01*
X016451Y019553D01*
X016451Y019793D01*
X016212Y019733D02*
X016032Y019553D01*
X016032Y019793D01*
X016212Y019733D02*
X015851Y019733D01*
X015612Y019793D02*
X015552Y019673D01*
X015432Y019553D01*
X015432Y019733D01*
X015371Y019793D01*
X015311Y019793D01*
X015251Y019733D01*
X015251Y019613D01*
X015311Y019553D01*
X015432Y019553D01*
X015012Y019613D02*
X015012Y019733D01*
X014952Y019793D01*
X014892Y019793D01*
X014832Y019733D01*
X014832Y019613D01*
X014892Y019553D01*
X014952Y019553D01*
X015012Y019613D01*
X014832Y019613D02*
X014771Y019553D01*
X014711Y019553D01*
X014651Y019613D01*
X014651Y019733D01*
X014711Y019793D01*
X014771Y019793D01*
X014832Y019733D01*
X014412Y019733D02*
X014352Y019793D01*
X014111Y019553D01*
X014051Y019613D01*
X014051Y019733D01*
X014111Y019793D01*
X014352Y019793D01*
X014412Y019733D02*
X014412Y019613D01*
X014352Y019553D01*
X014111Y019553D01*
X014051Y019425D02*
X014051Y019185D01*
X014232Y020290D02*
X014232Y020530D01*
X014171Y020658D02*
X014051Y020778D01*
X014171Y020898D01*
X014412Y020898D01*
X014232Y021027D02*
X014111Y021027D01*
X014051Y021087D01*
X014051Y021207D01*
X014111Y021267D01*
X014232Y021267D01*
X014292Y021207D01*
X014292Y021087D01*
X014232Y021027D01*
X014292Y021395D02*
X014111Y021395D01*
X014051Y021455D01*
X014051Y021635D01*
X014292Y021635D01*
X014292Y021763D02*
X014292Y021883D01*
X014352Y021823D02*
X014111Y021823D01*
X014051Y021883D01*
X013692Y021823D02*
X013692Y021943D01*
X013632Y022003D01*
X013571Y022003D01*
X013571Y021763D01*
X013511Y021763D02*
X013632Y021763D01*
X013692Y021823D01*
X013692Y021635D02*
X013692Y021455D01*
X013632Y021395D01*
X013571Y021455D01*
X013571Y021575D01*
X013511Y021635D01*
X013451Y021575D01*
X013451Y021395D01*
X013451Y021267D02*
X013632Y021267D01*
X013692Y021207D01*
X013692Y021027D01*
X013451Y021027D01*
X013571Y020898D02*
X013571Y020658D01*
X013511Y020658D02*
X013632Y020658D01*
X013692Y020718D01*
X013692Y020838D01*
X013632Y020898D01*
X013571Y020898D01*
X013451Y020838D02*
X013451Y020718D01*
X013511Y020658D01*
X013511Y020530D02*
X013451Y020470D01*
X013451Y020350D01*
X013511Y020290D01*
X013632Y020350D02*
X013632Y020470D01*
X013571Y020530D01*
X013511Y020530D01*
X013632Y020350D02*
X013692Y020290D01*
X013752Y020290D01*
X013812Y020350D01*
X013812Y020470D01*
X013752Y020530D01*
X014171Y020658D02*
X014412Y020658D01*
X014651Y020778D02*
X014771Y020898D01*
X015012Y020898D01*
X014832Y021027D02*
X014711Y021027D01*
X014651Y021087D01*
X014651Y021207D01*
X014711Y021267D01*
X014832Y021267D01*
X014892Y021207D01*
X014892Y021087D01*
X014832Y021027D01*
X014651Y020778D02*
X014771Y020658D01*
X015012Y020658D01*
X014832Y020530D02*
X014832Y020290D01*
X015251Y020350D02*
X015251Y020470D01*
X015311Y020530D01*
X015432Y020530D01*
X015432Y020410D01*
X015552Y020290D02*
X015311Y020290D01*
X015251Y020350D01*
X015552Y020290D02*
X015612Y020350D01*
X015612Y020470D01*
X015552Y020530D01*
X015492Y020658D02*
X015492Y020838D01*
X015432Y020898D01*
X015251Y020898D01*
X015311Y021027D02*
X015432Y021027D01*
X015492Y021087D01*
X015492Y021267D01*
X015612Y021267D02*
X015251Y021267D01*
X015251Y021087D01*
X015311Y021027D01*
X015251Y020658D02*
X015492Y020658D01*
X015851Y020658D02*
X016092Y020658D01*
X016092Y020838D01*
X016032Y020898D01*
X015851Y020898D01*
X015911Y021027D02*
X016032Y021027D01*
X016092Y021087D01*
X016092Y021267D01*
X016212Y021267D02*
X015851Y021267D01*
X015851Y021087D01*
X015911Y021027D01*
X015911Y020530D02*
X016032Y020530D01*
X016032Y020410D01*
X016152Y020290D02*
X015911Y020290D01*
X015851Y020350D01*
X015851Y020470D01*
X015911Y020530D01*
X016152Y020530D02*
X016212Y020470D01*
X016212Y020350D01*
X016152Y020290D01*
X016451Y020350D02*
X016451Y020470D01*
X016511Y020530D01*
X016632Y020530D01*
X016632Y020410D01*
X016752Y020290D02*
X016511Y020290D01*
X016451Y020350D01*
X016752Y020290D02*
X016812Y020350D01*
X016812Y020470D01*
X016752Y020530D01*
X016692Y020658D02*
X016692Y020838D01*
X016632Y020898D01*
X016451Y020898D01*
X016511Y021027D02*
X016632Y021027D01*
X016692Y021087D01*
X016692Y021267D01*
X016812Y021267D02*
X016451Y021267D01*
X016451Y021087D01*
X016511Y021027D01*
X016451Y020658D02*
X016692Y020658D01*
X017051Y020658D02*
X017292Y020658D01*
X017292Y020838D01*
X017232Y020898D01*
X017051Y020898D01*
X017111Y021027D02*
X017232Y021027D01*
X017292Y021087D01*
X017292Y021267D01*
X017412Y021267D02*
X017051Y021267D01*
X017051Y021087D01*
X017111Y021027D01*
X017111Y020530D02*
X017232Y020530D01*
X017232Y020410D01*
X017352Y020290D02*
X017111Y020290D01*
X017051Y020350D01*
X017051Y020470D01*
X017111Y020530D01*
X017352Y020530D02*
X017412Y020470D01*
X017412Y020350D01*
X017352Y020290D01*
X017651Y020407D02*
X018012Y020407D01*
X018012Y020535D02*
X018012Y020776D01*
X018012Y020656D02*
X017651Y020656D01*
X017651Y020407D02*
X018012Y020167D01*
X017651Y020167D01*
X017651Y020042D02*
X017651Y019922D01*
X017651Y019982D02*
X018012Y019982D01*
X018012Y019922D02*
X018012Y020042D01*
X018091Y019902D02*
X018091Y020884D01*
X018191Y020898D02*
X018191Y020658D01*
X018311Y020530D02*
X018251Y020470D01*
X018251Y020350D01*
X018311Y020290D01*
X018311Y020162D02*
X018251Y020102D01*
X018251Y019982D01*
X018311Y019922D01*
X018552Y019922D01*
X018612Y019982D01*
X018612Y020102D01*
X018552Y020162D01*
X018552Y020290D02*
X018492Y020290D01*
X018432Y020350D01*
X018432Y020470D01*
X018371Y020530D01*
X018311Y020530D01*
X018552Y020530D02*
X018612Y020470D01*
X018612Y020350D01*
X018552Y020290D01*
X018851Y020350D02*
X018911Y020290D01*
X018851Y020350D02*
X018851Y020470D01*
X018911Y020530D01*
X018971Y020530D01*
X019032Y020470D01*
X019032Y020350D01*
X019092Y020290D01*
X019152Y020290D01*
X019212Y020350D01*
X019212Y020470D01*
X019152Y020530D01*
X019451Y020530D02*
X019451Y020350D01*
X019511Y020290D01*
X019632Y020290D01*
X019692Y020350D01*
X019692Y020530D01*
X019812Y020530D02*
X019451Y020530D01*
X019511Y020658D02*
X019632Y020658D01*
X019692Y020718D01*
X019692Y020898D01*
X019812Y020898D02*
X019451Y020898D01*
X019451Y020718D01*
X019511Y020658D01*
X019212Y021027D02*
X018851Y021027D01*
X018851Y021207D01*
X018911Y021267D01*
X019152Y021267D01*
X019212Y021207D01*
X019212Y021027D01*
X019092Y021395D02*
X018851Y021395D01*
X019032Y021395D02*
X019032Y021635D01*
X019092Y021635D02*
X018851Y021635D01*
X018911Y021763D02*
X018851Y021823D01*
X018851Y021943D01*
X018911Y022003D01*
X018911Y021763D02*
X019152Y021763D01*
X019212Y021823D01*
X019212Y021943D01*
X019152Y022003D01*
X019092Y021635D02*
X019212Y021515D01*
X019092Y021395D01*
X018612Y021395D02*
X018612Y021575D01*
X018552Y021635D01*
X018311Y021635D01*
X018251Y021575D01*
X018251Y021395D01*
X018612Y021395D01*
X018492Y021267D02*
X018251Y021267D01*
X018432Y021267D02*
X018432Y021027D01*
X018492Y021027D02*
X018612Y021147D01*
X018492Y021267D01*
X018492Y021027D02*
X018251Y021027D01*
X018791Y020898D02*
X018791Y020658D01*
X018911Y020162D02*
X018851Y020102D01*
X018851Y019982D01*
X018911Y019922D01*
X019152Y019922D01*
X019212Y019982D01*
X019212Y020102D01*
X019152Y020162D01*
X019451Y020042D02*
X019571Y020162D01*
X019812Y020162D01*
X019812Y019922D02*
X019571Y019922D01*
X019451Y020042D01*
X019451Y019425D02*
X019451Y019185D01*
X019692Y019425D01*
X019752Y019425D01*
X019812Y019365D01*
X019812Y019245D01*
X019752Y019185D01*
X019212Y019365D02*
X019032Y019185D01*
X019032Y019425D01*
X019212Y019365D02*
X018851Y019365D01*
X018612Y019425D02*
X018552Y019305D01*
X018432Y019185D01*
X018432Y019365D01*
X018371Y019425D01*
X018311Y019425D01*
X018251Y019365D01*
X018251Y019245D01*
X018311Y019185D01*
X018432Y019185D01*
X016812Y019613D02*
X016752Y019553D01*
X017011Y017557D02*
X017252Y017557D01*
X017312Y017497D01*
X017312Y017377D01*
X017252Y017317D01*
X017192Y017317D01*
X017132Y017377D01*
X017132Y017557D01*
X017011Y017557D02*
X016951Y017497D01*
X016951Y017377D01*
X017011Y017317D01*
X017551Y017317D02*
X017611Y017317D01*
X017852Y017557D01*
X017912Y017557D01*
X017912Y017317D01*
X018151Y017377D02*
X018211Y017317D01*
X018151Y017377D02*
X018151Y017497D01*
X018211Y017557D01*
X018332Y017557D01*
X018392Y017497D01*
X018392Y017437D01*
X018332Y017317D01*
X018512Y017317D01*
X018512Y017557D01*
X018751Y017497D02*
X018751Y017377D01*
X018811Y017317D01*
X018932Y017437D02*
X018932Y017497D01*
X018871Y017557D01*
X018811Y017557D01*
X018751Y017497D01*
X018932Y017497D02*
X018992Y017557D01*
X019052Y017557D01*
X019112Y017497D01*
X019112Y017377D01*
X019052Y017317D01*
X019351Y017317D02*
X019351Y017557D01*
X019351Y017437D02*
X019712Y017437D01*
X019592Y017317D01*
X018591Y016928D02*
X018591Y015087D01*
X018751Y015167D02*
X018811Y015107D01*
X018751Y015167D02*
X018751Y015287D01*
X018811Y015347D01*
X018871Y015347D01*
X018932Y015287D01*
X018932Y015167D01*
X018992Y015107D01*
X019052Y015107D01*
X019112Y015167D01*
X019112Y015287D01*
X019052Y015347D01*
X019052Y014979D02*
X019112Y014919D01*
X019112Y014798D01*
X019052Y014738D01*
X018811Y014738D01*
X018751Y014798D01*
X018751Y014919D01*
X018811Y014979D01*
X018691Y015475D02*
X018691Y015715D01*
X018932Y015843D02*
X018932Y015963D01*
X019112Y016084D02*
X019112Y015843D01*
X019351Y015598D02*
X019712Y015598D01*
X019592Y015718D01*
X019712Y015838D01*
X018512Y016580D02*
X018512Y016820D01*
X018512Y016700D02*
X018151Y016700D01*
X017912Y016820D02*
X017671Y016580D01*
X017312Y015838D02*
X017192Y015718D01*
X017312Y015598D01*
X016951Y015598D01*
X016712Y015107D02*
X016411Y015107D01*
X016351Y014610D02*
X016712Y014370D01*
X016712Y014242D02*
X016411Y014242D01*
X016351Y014182D01*
X016351Y014062D01*
X016411Y014002D01*
X016712Y014002D01*
X016592Y013874D02*
X016351Y013874D01*
X016532Y013874D02*
X016532Y013633D01*
X016592Y013633D02*
X016712Y013754D01*
X016592Y013874D01*
X016592Y013633D02*
X016351Y013633D01*
X016112Y013633D02*
X016112Y013874D01*
X016112Y013754D02*
X015751Y013754D01*
X015751Y014002D02*
X016112Y014002D01*
X016112Y014242D01*
X015932Y014122D02*
X015932Y014002D01*
X016351Y014370D02*
X016712Y014610D01*
X014732Y014861D02*
X014732Y015101D01*
X013032Y020290D02*
X013032Y020530D01*
X012971Y020658D02*
X013212Y020658D01*
X013212Y020898D02*
X012971Y020898D01*
X012851Y020778D01*
X012971Y020658D01*
X012911Y020410D02*
X013152Y020410D01*
X012612Y020658D02*
X012371Y020658D01*
X012251Y020778D01*
X012371Y020898D01*
X012612Y020898D01*
X012432Y021027D02*
X012311Y021027D01*
X012251Y021087D01*
X012251Y021207D01*
X012311Y021267D01*
X012432Y021267D01*
X012492Y021207D01*
X012492Y021087D01*
X012432Y021027D01*
X012492Y021395D02*
X012311Y021395D01*
X012251Y021455D01*
X012251Y021635D01*
X012492Y021635D01*
X012492Y021763D02*
X012492Y021883D01*
X012552Y021823D02*
X012311Y021823D01*
X012251Y021883D01*
X012851Y021883D02*
X012911Y021823D01*
X013152Y021823D01*
X013092Y021763D02*
X013092Y021883D01*
X013092Y021635D02*
X012851Y021635D01*
X012851Y021455D01*
X012911Y021395D01*
X013092Y021395D01*
X013032Y021267D02*
X013092Y021207D01*
X013092Y021087D01*
X013032Y021027D01*
X012911Y021027D01*
X012851Y021087D01*
X012851Y021207D01*
X012911Y021267D01*
X013032Y021267D01*
X013511Y021763D02*
X013451Y021823D01*
X013451Y021943D01*
X013632Y022131D02*
X013632Y022372D01*
X013752Y022252D02*
X013511Y022252D01*
X014651Y021883D02*
X014711Y021823D01*
X014952Y021823D01*
X014892Y021763D02*
X014892Y021883D01*
X014892Y021635D02*
X014651Y021635D01*
X014651Y021455D01*
X014711Y021395D01*
X014892Y021395D01*
X012552Y020410D02*
X012311Y020410D01*
X012432Y020290D02*
X012432Y020530D01*
X018251Y021823D02*
X018251Y021943D01*
X018311Y022003D01*
X018251Y021823D02*
X018311Y021763D01*
X018552Y021763D01*
X018612Y021823D01*
X018612Y021943D01*
X018552Y022003D01*
X055944Y007286D02*
X055944Y007166D01*
X056004Y007106D01*
X056124Y007226D02*
X056124Y007286D01*
X056064Y007346D01*
X056004Y007346D01*
X055944Y007286D01*
X056124Y007286D02*
X056184Y007346D01*
X056245Y007346D01*
X056305Y007286D01*
X056305Y007166D01*
X056245Y007106D01*
X056544Y007106D02*
X056784Y007346D01*
X056845Y007346D01*
X056905Y007286D01*
X056905Y007166D01*
X056845Y007106D01*
X057144Y007106D02*
X057144Y007346D01*
X057144Y007226D02*
X057505Y007226D01*
X057384Y007106D01*
X057324Y006609D02*
X057324Y006369D01*
X057324Y006241D02*
X057144Y006241D01*
X057324Y006241D02*
X057384Y006181D01*
X057384Y006001D01*
X057144Y006001D01*
X057144Y005875D02*
X057144Y005755D01*
X057144Y005815D02*
X057384Y005815D01*
X057384Y005755D01*
X057505Y005815D02*
X057565Y005815D01*
X057919Y005839D02*
X058159Y005839D01*
X058159Y005779D01*
X058280Y005839D02*
X058340Y005839D01*
X058159Y006024D02*
X058159Y006205D01*
X058099Y006265D01*
X057919Y006265D01*
X057919Y006393D02*
X057919Y006573D01*
X057979Y006633D01*
X058099Y006633D01*
X058159Y006573D01*
X058159Y006393D01*
X057799Y006393D01*
X057919Y006024D02*
X058159Y006024D01*
X057919Y005899D02*
X057919Y005779D01*
X057979Y005282D02*
X057919Y005222D01*
X057919Y005102D01*
X057979Y005042D01*
X058220Y005042D01*
X058280Y005102D01*
X058280Y005222D01*
X058220Y005282D01*
X058220Y004914D02*
X058280Y004854D01*
X058280Y004674D01*
X057919Y004674D01*
X057919Y004854D01*
X057979Y004914D01*
X058220Y004914D01*
X057505Y004830D02*
X057505Y004650D01*
X057144Y004650D01*
X057144Y004830D01*
X057204Y004890D01*
X057445Y004890D01*
X057505Y004830D01*
X057445Y005019D02*
X057204Y005019D01*
X057144Y005079D01*
X057144Y005199D01*
X057204Y005259D01*
X057445Y005259D02*
X057505Y005199D01*
X057505Y005079D01*
X057445Y005019D01*
X056905Y005079D02*
X056845Y005019D01*
X056604Y005019D01*
X056544Y005079D01*
X056544Y005199D01*
X056604Y005259D01*
X056845Y005259D02*
X056905Y005199D01*
X056905Y005079D01*
X056845Y004890D02*
X056905Y004830D01*
X056905Y004650D01*
X056544Y004650D01*
X056544Y004830D01*
X056604Y004890D01*
X056845Y004890D01*
X056305Y005080D02*
X055944Y005080D01*
X055944Y005320D01*
X056004Y005448D02*
X055944Y005508D01*
X055944Y005688D01*
X056124Y005688D01*
X056184Y005628D01*
X056184Y005508D01*
X056064Y005508D02*
X056064Y005688D01*
X056064Y005817D02*
X056184Y005937D01*
X056184Y005997D01*
X056184Y006123D02*
X056184Y006244D01*
X056245Y006183D02*
X056004Y006183D01*
X055944Y006244D01*
X055944Y006369D02*
X056305Y006369D01*
X056184Y006429D02*
X056184Y006549D01*
X056124Y006609D01*
X055944Y006609D01*
X056124Y006369D02*
X056184Y006429D01*
X056544Y006241D02*
X056724Y006241D01*
X056784Y006181D01*
X056784Y006001D01*
X056544Y006001D01*
X056544Y005875D02*
X056544Y005755D01*
X056544Y005815D02*
X056784Y005815D01*
X056784Y005755D01*
X056905Y005815D02*
X056965Y005815D01*
X056724Y006369D02*
X056724Y006609D01*
X056604Y006489D02*
X056845Y006489D01*
X056544Y007106D02*
X056544Y007346D01*
X057919Y007249D02*
X057979Y007189D01*
X058220Y007189D01*
X058159Y007129D02*
X058159Y007249D01*
X058159Y007001D02*
X057919Y007001D01*
X057919Y006821D01*
X057979Y006761D01*
X058159Y006761D01*
X058280Y007743D02*
X057919Y007983D01*
X057919Y008112D02*
X057919Y008352D01*
X057919Y008232D02*
X058280Y008232D01*
X058159Y008112D01*
X058280Y007983D02*
X057919Y007743D01*
X056184Y005817D02*
X055944Y005817D01*
X056064Y005508D02*
X056004Y005448D01*
X056124Y005200D02*
X056124Y005080D01*
X056305Y005080D02*
X056305Y005320D01*
X063461Y009930D02*
X063768Y009930D01*
X063921Y009930D02*
X064228Y010391D01*
X063921Y010391D02*
X064228Y009930D01*
X063768Y010237D02*
X063614Y010391D01*
X063614Y009930D01*
D12*
X062430Y012881D02*
X062430Y016227D01*
X058493Y016227D02*
X058493Y012881D01*
X057274Y007954D02*
X057276Y007967D01*
X057281Y007980D01*
X057290Y007991D01*
X057301Y007998D01*
X057314Y008003D01*
X057327Y008004D01*
X057341Y008001D01*
X057353Y007995D01*
X057363Y007986D01*
X057370Y007974D01*
X057374Y007961D01*
X057374Y007947D01*
X057370Y007934D01*
X057363Y007922D01*
X057353Y007913D01*
X057341Y007907D01*
X057327Y007904D01*
X057314Y007905D01*
X057301Y007910D01*
X057290Y007917D01*
X057281Y007928D01*
X057276Y007941D01*
X057274Y007954D01*
X056674Y007954D02*
X056676Y007967D01*
X056681Y007980D01*
X056690Y007991D01*
X056701Y007998D01*
X056714Y008003D01*
X056727Y008004D01*
X056741Y008001D01*
X056753Y007995D01*
X056763Y007986D01*
X056770Y007974D01*
X056774Y007961D01*
X056774Y007947D01*
X056770Y007934D01*
X056763Y007922D01*
X056753Y007913D01*
X056741Y007907D01*
X056727Y007904D01*
X056714Y007905D01*
X056701Y007910D01*
X056690Y007917D01*
X056681Y007928D01*
X056676Y007941D01*
X056674Y007954D01*
X056074Y007954D02*
X056076Y007967D01*
X056081Y007980D01*
X056090Y007991D01*
X056101Y007998D01*
X056114Y008003D01*
X056127Y008004D01*
X056141Y008001D01*
X056153Y007995D01*
X056163Y007986D01*
X056170Y007974D01*
X056174Y007961D01*
X056174Y007947D01*
X056170Y007934D01*
X056163Y007922D01*
X056153Y007913D01*
X056141Y007907D01*
X056127Y007904D01*
X056114Y007905D01*
X056101Y007910D01*
X056090Y007917D01*
X056081Y007928D01*
X056076Y007941D01*
X056074Y007954D01*
X019481Y018165D02*
X019483Y018178D01*
X019488Y018191D01*
X019497Y018202D01*
X019508Y018209D01*
X019521Y018214D01*
X019534Y018215D01*
X019548Y018212D01*
X019560Y018206D01*
X019570Y018197D01*
X019577Y018185D01*
X019581Y018172D01*
X019581Y018158D01*
X019577Y018145D01*
X019570Y018133D01*
X019560Y018124D01*
X019548Y018118D01*
X019534Y018115D01*
X019521Y018116D01*
X019508Y018121D01*
X019497Y018128D01*
X019488Y018139D01*
X019483Y018152D01*
X019481Y018165D01*
X018881Y018165D02*
X018883Y018178D01*
X018888Y018191D01*
X018897Y018202D01*
X018908Y018209D01*
X018921Y018214D01*
X018934Y018215D01*
X018948Y018212D01*
X018960Y018206D01*
X018970Y018197D01*
X018977Y018185D01*
X018981Y018172D01*
X018981Y018158D01*
X018977Y018145D01*
X018970Y018133D01*
X018960Y018124D01*
X018948Y018118D01*
X018934Y018115D01*
X018921Y018116D01*
X018908Y018121D01*
X018897Y018128D01*
X018888Y018139D01*
X018883Y018152D01*
X018881Y018165D01*
X018281Y018165D02*
X018283Y018178D01*
X018288Y018191D01*
X018297Y018202D01*
X018308Y018209D01*
X018321Y018214D01*
X018334Y018215D01*
X018348Y018212D01*
X018360Y018206D01*
X018370Y018197D01*
X018377Y018185D01*
X018381Y018172D01*
X018381Y018158D01*
X018377Y018145D01*
X018370Y018133D01*
X018360Y018124D01*
X018348Y018118D01*
X018334Y018115D01*
X018321Y018116D01*
X018308Y018121D01*
X018297Y018128D01*
X018288Y018139D01*
X018283Y018152D01*
X018281Y018165D01*
X017681Y018165D02*
X017683Y018178D01*
X017688Y018191D01*
X017697Y018202D01*
X017708Y018209D01*
X017721Y018214D01*
X017734Y018215D01*
X017748Y018212D01*
X017760Y018206D01*
X017770Y018197D01*
X017777Y018185D01*
X017781Y018172D01*
X017781Y018158D01*
X017777Y018145D01*
X017770Y018133D01*
X017760Y018124D01*
X017748Y018118D01*
X017734Y018115D01*
X017721Y018116D01*
X017708Y018121D01*
X017697Y018128D01*
X017688Y018139D01*
X017683Y018152D01*
X017681Y018165D01*
X017081Y018165D02*
X017083Y018178D01*
X017088Y018191D01*
X017097Y018202D01*
X017108Y018209D01*
X017121Y018214D01*
X017134Y018215D01*
X017148Y018212D01*
X017160Y018206D01*
X017170Y018197D01*
X017177Y018185D01*
X017181Y018172D01*
X017181Y018158D01*
X017177Y018145D01*
X017170Y018133D01*
X017160Y018124D01*
X017148Y018118D01*
X017134Y018115D01*
X017121Y018116D01*
X017108Y018121D01*
X017097Y018128D01*
X017088Y018139D01*
X017083Y018152D01*
X017081Y018165D01*
X016481Y018165D02*
X016483Y018178D01*
X016488Y018191D01*
X016497Y018202D01*
X016508Y018209D01*
X016521Y018214D01*
X016534Y018215D01*
X016548Y018212D01*
X016560Y018206D01*
X016570Y018197D01*
X016577Y018185D01*
X016581Y018172D01*
X016581Y018158D01*
X016577Y018145D01*
X016570Y018133D01*
X016560Y018124D01*
X016548Y018118D01*
X016534Y018115D01*
X016521Y018116D01*
X016508Y018121D01*
X016497Y018128D01*
X016488Y018139D01*
X016483Y018152D01*
X016481Y018165D01*
X015881Y018165D02*
X015883Y018178D01*
X015888Y018191D01*
X015897Y018202D01*
X015908Y018209D01*
X015921Y018214D01*
X015934Y018215D01*
X015948Y018212D01*
X015960Y018206D01*
X015970Y018197D01*
X015977Y018185D01*
X015981Y018172D01*
X015981Y018158D01*
X015977Y018145D01*
X015970Y018133D01*
X015960Y018124D01*
X015948Y018118D01*
X015934Y018115D01*
X015921Y018116D01*
X015908Y018121D01*
X015897Y018128D01*
X015888Y018139D01*
X015883Y018152D01*
X015881Y018165D01*
X015281Y018165D02*
X015283Y018178D01*
X015288Y018191D01*
X015297Y018202D01*
X015308Y018209D01*
X015321Y018214D01*
X015334Y018215D01*
X015348Y018212D01*
X015360Y018206D01*
X015370Y018197D01*
X015377Y018185D01*
X015381Y018172D01*
X015381Y018158D01*
X015377Y018145D01*
X015370Y018133D01*
X015360Y018124D01*
X015348Y018118D01*
X015334Y018115D01*
X015321Y018116D01*
X015308Y018121D01*
X015297Y018128D01*
X015288Y018139D01*
X015283Y018152D01*
X015281Y018165D01*
X014681Y018165D02*
X014683Y018178D01*
X014688Y018191D01*
X014697Y018202D01*
X014708Y018209D01*
X014721Y018214D01*
X014734Y018215D01*
X014748Y018212D01*
X014760Y018206D01*
X014770Y018197D01*
X014777Y018185D01*
X014781Y018172D01*
X014781Y018158D01*
X014777Y018145D01*
X014770Y018133D01*
X014760Y018124D01*
X014748Y018118D01*
X014734Y018115D01*
X014721Y018116D01*
X014708Y018121D01*
X014697Y018128D01*
X014688Y018139D01*
X014683Y018152D01*
X014681Y018165D01*
X014081Y018165D02*
X014083Y018178D01*
X014088Y018191D01*
X014097Y018202D01*
X014108Y018209D01*
X014121Y018214D01*
X014134Y018215D01*
X014148Y018212D01*
X014160Y018206D01*
X014170Y018197D01*
X014177Y018185D01*
X014181Y018172D01*
X014181Y018158D01*
X014177Y018145D01*
X014170Y018133D01*
X014160Y018124D01*
X014148Y018118D01*
X014134Y018115D01*
X014121Y018116D01*
X014108Y018121D01*
X014097Y018128D01*
X014088Y018139D01*
X014083Y018152D01*
X014081Y018165D01*
X013481Y018165D02*
X013483Y018178D01*
X013488Y018191D01*
X013497Y018202D01*
X013508Y018209D01*
X013521Y018214D01*
X013534Y018215D01*
X013548Y018212D01*
X013560Y018206D01*
X013570Y018197D01*
X013577Y018185D01*
X013581Y018172D01*
X013581Y018158D01*
X013577Y018145D01*
X013570Y018133D01*
X013560Y018124D01*
X013548Y018118D01*
X013534Y018115D01*
X013521Y018116D01*
X013508Y018121D01*
X013497Y018128D01*
X013488Y018139D01*
X013483Y018152D01*
X013481Y018165D01*
X012881Y018165D02*
X012883Y018178D01*
X012888Y018191D01*
X012897Y018202D01*
X012908Y018209D01*
X012921Y018214D01*
X012934Y018215D01*
X012948Y018212D01*
X012960Y018206D01*
X012970Y018197D01*
X012977Y018185D01*
X012981Y018172D01*
X012981Y018158D01*
X012977Y018145D01*
X012970Y018133D01*
X012960Y018124D01*
X012948Y018118D01*
X012934Y018115D01*
X012921Y018116D01*
X012908Y018121D01*
X012897Y018128D01*
X012888Y018139D01*
X012883Y018152D01*
X012881Y018165D01*
X012281Y018165D02*
X012283Y018178D01*
X012288Y018191D01*
X012297Y018202D01*
X012308Y018209D01*
X012321Y018214D01*
X012334Y018215D01*
X012348Y018212D01*
X012360Y018206D01*
X012370Y018197D01*
X012377Y018185D01*
X012381Y018172D01*
X012381Y018158D01*
X012377Y018145D01*
X012370Y018133D01*
X012360Y018124D01*
X012348Y018118D01*
X012334Y018115D01*
X012321Y018116D01*
X012308Y018121D01*
X012297Y018128D01*
X012288Y018139D01*
X012283Y018152D01*
X012281Y018165D01*
X012281Y018665D02*
X012283Y018678D01*
X012288Y018691D01*
X012297Y018702D01*
X012308Y018709D01*
X012321Y018714D01*
X012334Y018715D01*
X012348Y018712D01*
X012360Y018706D01*
X012370Y018697D01*
X012377Y018685D01*
X012381Y018672D01*
X012381Y018658D01*
X012377Y018645D01*
X012370Y018633D01*
X012360Y018624D01*
X012348Y018618D01*
X012334Y018615D01*
X012321Y018616D01*
X012308Y018621D01*
X012297Y018628D01*
X012288Y018639D01*
X012283Y018652D01*
X012281Y018665D01*
X012881Y018665D02*
X012883Y018678D01*
X012888Y018691D01*
X012897Y018702D01*
X012908Y018709D01*
X012921Y018714D01*
X012934Y018715D01*
X012948Y018712D01*
X012960Y018706D01*
X012970Y018697D01*
X012977Y018685D01*
X012981Y018672D01*
X012981Y018658D01*
X012977Y018645D01*
X012970Y018633D01*
X012960Y018624D01*
X012948Y018618D01*
X012934Y018615D01*
X012921Y018616D01*
X012908Y018621D01*
X012897Y018628D01*
X012888Y018639D01*
X012883Y018652D01*
X012881Y018665D01*
X013481Y018665D02*
X013483Y018678D01*
X013488Y018691D01*
X013497Y018702D01*
X013508Y018709D01*
X013521Y018714D01*
X013534Y018715D01*
X013548Y018712D01*
X013560Y018706D01*
X013570Y018697D01*
X013577Y018685D01*
X013581Y018672D01*
X013581Y018658D01*
X013577Y018645D01*
X013570Y018633D01*
X013560Y018624D01*
X013548Y018618D01*
X013534Y018615D01*
X013521Y018616D01*
X013508Y018621D01*
X013497Y018628D01*
X013488Y018639D01*
X013483Y018652D01*
X013481Y018665D01*
X014081Y018665D02*
X014083Y018678D01*
X014088Y018691D01*
X014097Y018702D01*
X014108Y018709D01*
X014121Y018714D01*
X014134Y018715D01*
X014148Y018712D01*
X014160Y018706D01*
X014170Y018697D01*
X014177Y018685D01*
X014181Y018672D01*
X014181Y018658D01*
X014177Y018645D01*
X014170Y018633D01*
X014160Y018624D01*
X014148Y018618D01*
X014134Y018615D01*
X014121Y018616D01*
X014108Y018621D01*
X014097Y018628D01*
X014088Y018639D01*
X014083Y018652D01*
X014081Y018665D01*
X014681Y018665D02*
X014683Y018678D01*
X014688Y018691D01*
X014697Y018702D01*
X014708Y018709D01*
X014721Y018714D01*
X014734Y018715D01*
X014748Y018712D01*
X014760Y018706D01*
X014770Y018697D01*
X014777Y018685D01*
X014781Y018672D01*
X014781Y018658D01*
X014777Y018645D01*
X014770Y018633D01*
X014760Y018624D01*
X014748Y018618D01*
X014734Y018615D01*
X014721Y018616D01*
X014708Y018621D01*
X014697Y018628D01*
X014688Y018639D01*
X014683Y018652D01*
X014681Y018665D01*
X015281Y018665D02*
X015283Y018678D01*
X015288Y018691D01*
X015297Y018702D01*
X015308Y018709D01*
X015321Y018714D01*
X015334Y018715D01*
X015348Y018712D01*
X015360Y018706D01*
X015370Y018697D01*
X015377Y018685D01*
X015381Y018672D01*
X015381Y018658D01*
X015377Y018645D01*
X015370Y018633D01*
X015360Y018624D01*
X015348Y018618D01*
X015334Y018615D01*
X015321Y018616D01*
X015308Y018621D01*
X015297Y018628D01*
X015288Y018639D01*
X015283Y018652D01*
X015281Y018665D01*
X015881Y018665D02*
X015883Y018678D01*
X015888Y018691D01*
X015897Y018702D01*
X015908Y018709D01*
X015921Y018714D01*
X015934Y018715D01*
X015948Y018712D01*
X015960Y018706D01*
X015970Y018697D01*
X015977Y018685D01*
X015981Y018672D01*
X015981Y018658D01*
X015977Y018645D01*
X015970Y018633D01*
X015960Y018624D01*
X015948Y018618D01*
X015934Y018615D01*
X015921Y018616D01*
X015908Y018621D01*
X015897Y018628D01*
X015888Y018639D01*
X015883Y018652D01*
X015881Y018665D01*
X016481Y018665D02*
X016483Y018678D01*
X016488Y018691D01*
X016497Y018702D01*
X016508Y018709D01*
X016521Y018714D01*
X016534Y018715D01*
X016548Y018712D01*
X016560Y018706D01*
X016570Y018697D01*
X016577Y018685D01*
X016581Y018672D01*
X016581Y018658D01*
X016577Y018645D01*
X016570Y018633D01*
X016560Y018624D01*
X016548Y018618D01*
X016534Y018615D01*
X016521Y018616D01*
X016508Y018621D01*
X016497Y018628D01*
X016488Y018639D01*
X016483Y018652D01*
X016481Y018665D01*
X017081Y018665D02*
X017083Y018678D01*
X017088Y018691D01*
X017097Y018702D01*
X017108Y018709D01*
X017121Y018714D01*
X017134Y018715D01*
X017148Y018712D01*
X017160Y018706D01*
X017170Y018697D01*
X017177Y018685D01*
X017181Y018672D01*
X017181Y018658D01*
X017177Y018645D01*
X017170Y018633D01*
X017160Y018624D01*
X017148Y018618D01*
X017134Y018615D01*
X017121Y018616D01*
X017108Y018621D01*
X017097Y018628D01*
X017088Y018639D01*
X017083Y018652D01*
X017081Y018665D01*
X017681Y018665D02*
X017683Y018678D01*
X017688Y018691D01*
X017697Y018702D01*
X017708Y018709D01*
X017721Y018714D01*
X017734Y018715D01*
X017748Y018712D01*
X017760Y018706D01*
X017770Y018697D01*
X017777Y018685D01*
X017781Y018672D01*
X017781Y018658D01*
X017777Y018645D01*
X017770Y018633D01*
X017760Y018624D01*
X017748Y018618D01*
X017734Y018615D01*
X017721Y018616D01*
X017708Y018621D01*
X017697Y018628D01*
X017688Y018639D01*
X017683Y018652D01*
X017681Y018665D01*
X018281Y018665D02*
X018283Y018678D01*
X018288Y018691D01*
X018297Y018702D01*
X018308Y018709D01*
X018321Y018714D01*
X018334Y018715D01*
X018348Y018712D01*
X018360Y018706D01*
X018370Y018697D01*
X018377Y018685D01*
X018381Y018672D01*
X018381Y018658D01*
X018377Y018645D01*
X018370Y018633D01*
X018360Y018624D01*
X018348Y018618D01*
X018334Y018615D01*
X018321Y018616D01*
X018308Y018621D01*
X018297Y018628D01*
X018288Y018639D01*
X018283Y018652D01*
X018281Y018665D01*
X018881Y018665D02*
X018883Y018678D01*
X018888Y018691D01*
X018897Y018702D01*
X018908Y018709D01*
X018921Y018714D01*
X018934Y018715D01*
X018948Y018712D01*
X018960Y018706D01*
X018970Y018697D01*
X018977Y018685D01*
X018981Y018672D01*
X018981Y018658D01*
X018977Y018645D01*
X018970Y018633D01*
X018960Y018624D01*
X018948Y018618D01*
X018934Y018615D01*
X018921Y018616D01*
X018908Y018621D01*
X018897Y018628D01*
X018888Y018639D01*
X018883Y018652D01*
X018881Y018665D01*
X019481Y018665D02*
X019483Y018678D01*
X019488Y018691D01*
X019497Y018702D01*
X019508Y018709D01*
X019521Y018714D01*
X019534Y018715D01*
X019548Y018712D01*
X019560Y018706D01*
X019570Y018697D01*
X019577Y018685D01*
X019581Y018672D01*
X019581Y018658D01*
X019577Y018645D01*
X019570Y018633D01*
X019560Y018624D01*
X019548Y018618D01*
X019534Y018615D01*
X019521Y018616D01*
X019508Y018621D01*
X019497Y018628D01*
X019488Y018639D01*
X019483Y018652D01*
X019481Y018665D01*
X056974Y031504D02*
X056976Y031517D01*
X056981Y031530D01*
X056990Y031541D01*
X057001Y031548D01*
X057014Y031553D01*
X057027Y031554D01*
X057041Y031551D01*
X057053Y031545D01*
X057063Y031536D01*
X057070Y031524D01*
X057074Y031511D01*
X057074Y031497D01*
X057070Y031484D01*
X057063Y031472D01*
X057053Y031463D01*
X057041Y031457D01*
X057027Y031454D01*
X057014Y031455D01*
X057001Y031460D01*
X056990Y031467D01*
X056981Y031478D01*
X056976Y031491D01*
X056974Y031504D01*
X057574Y031504D02*
X057576Y031517D01*
X057581Y031530D01*
X057590Y031541D01*
X057601Y031548D01*
X057614Y031553D01*
X057627Y031554D01*
X057641Y031551D01*
X057653Y031545D01*
X057663Y031536D01*
X057670Y031524D01*
X057674Y031511D01*
X057674Y031497D01*
X057670Y031484D01*
X057663Y031472D01*
X057653Y031463D01*
X057641Y031457D01*
X057627Y031454D01*
X057614Y031455D01*
X057601Y031460D01*
X057590Y031467D01*
X057581Y031478D01*
X057576Y031491D01*
X057574Y031504D01*
D13*
X007255Y008084D02*
X006754Y008084D01*
X006921Y008084D02*
X006921Y008334D01*
X007004Y008418D01*
X007171Y008418D01*
X007255Y008334D01*
X007255Y008084D01*
X007088Y008600D02*
X006754Y008600D01*
X006921Y008600D02*
X007088Y008766D01*
X007088Y008850D01*
X007004Y009029D02*
X006838Y009029D01*
X006754Y009113D01*
X006754Y009279D01*
X006838Y009363D01*
X007004Y009363D01*
X007088Y009279D01*
X007088Y009113D01*
X007004Y009029D01*
X006587Y009545D02*
X006587Y009628D01*
X006671Y009712D01*
X007088Y009712D01*
X007255Y009712D02*
X007338Y009712D01*
X007088Y009972D02*
X007088Y010139D01*
X007004Y010222D01*
X006921Y010222D01*
X006921Y009889D01*
X006838Y009889D02*
X007004Y009889D01*
X007088Y009972D01*
X006838Y009889D02*
X006754Y009972D01*
X006754Y010139D01*
X006838Y010404D02*
X006754Y010488D01*
X006754Y010738D01*
X006838Y011003D02*
X006754Y011087D01*
X006838Y011003D02*
X007171Y011003D01*
X007088Y010920D02*
X007088Y011087D01*
X007088Y010738D02*
X007088Y010488D01*
X007004Y010404D01*
X006838Y010404D01*
X006754Y011779D02*
X006754Y012030D01*
X006838Y012113D01*
X006921Y012030D01*
X006921Y011863D01*
X007004Y011779D01*
X007088Y011863D01*
X007088Y012113D01*
X007004Y012295D02*
X006838Y012295D01*
X006754Y012378D01*
X006754Y012545D01*
X006838Y012629D01*
X007004Y012629D01*
X007088Y012545D01*
X007088Y012378D01*
X007004Y012295D01*
X007088Y012811D02*
X006838Y012811D01*
X006754Y012894D01*
X006754Y013144D01*
X007088Y013144D01*
X007088Y013326D02*
X006754Y013326D01*
X006921Y013326D02*
X007088Y013493D01*
X007088Y013576D01*
X007004Y013756D02*
X006838Y013756D01*
X006754Y013839D01*
X006754Y014090D01*
X006838Y014272D02*
X007004Y014272D01*
X007088Y014355D01*
X007088Y014522D01*
X007004Y014605D01*
X006921Y014605D01*
X006921Y014272D01*
X006838Y014272D02*
X006754Y014355D01*
X006754Y014522D01*
X007088Y014090D02*
X007088Y013839D01*
X007004Y013756D01*
X007004Y015303D02*
X006838Y015303D01*
X006754Y015386D01*
X006754Y015637D01*
X006838Y015819D02*
X006754Y015902D01*
X006754Y016069D01*
X006838Y016152D01*
X007004Y016152D01*
X007088Y016069D01*
X007088Y015902D01*
X007004Y015819D01*
X006838Y015819D01*
X007088Y015637D02*
X007088Y015386D01*
X007004Y015303D01*
X007004Y016334D02*
X007088Y016418D01*
X007088Y016668D01*
X007255Y016668D02*
X006754Y016668D01*
X006754Y016418D01*
X006838Y016334D01*
X007004Y016334D01*
X007004Y016850D02*
X007088Y016933D01*
X007088Y017100D01*
X007004Y017183D01*
X006921Y017183D01*
X006921Y016850D01*
X006838Y016850D02*
X007004Y016850D01*
X006838Y016850D02*
X006754Y016933D01*
X006754Y017100D01*
X006838Y017881D02*
X006921Y017964D01*
X006921Y018215D01*
X007004Y018215D02*
X006754Y018215D01*
X006754Y017964D01*
X006838Y017881D01*
X007088Y017964D02*
X007088Y018131D01*
X007004Y018215D01*
X007088Y018397D02*
X007088Y018564D01*
X007171Y018480D02*
X006838Y018480D01*
X006754Y018564D01*
X006838Y019256D02*
X006754Y019340D01*
X006754Y019590D01*
X006671Y019590D02*
X007088Y019590D01*
X007088Y019340D01*
X007004Y019256D01*
X006838Y019256D01*
X006587Y019423D02*
X006587Y019506D01*
X006671Y019590D01*
X006754Y019772D02*
X006754Y019939D01*
X006754Y019855D02*
X007088Y019855D01*
X007088Y019772D01*
X007255Y019855D02*
X007338Y019855D01*
X007088Y020116D02*
X007088Y020282D01*
X007171Y020199D02*
X006838Y020199D01*
X006754Y020282D01*
X006754Y020459D02*
X007255Y020459D01*
X007088Y020543D02*
X007088Y020710D01*
X007004Y020793D01*
X006754Y020793D01*
X006838Y020975D02*
X006754Y021058D01*
X006754Y021309D01*
X007088Y021309D01*
X007088Y021491D02*
X007088Y021741D01*
X007004Y021824D01*
X006838Y021824D01*
X006754Y021741D01*
X006754Y021491D01*
X007255Y021491D01*
X007088Y020975D02*
X006838Y020975D01*
X007088Y020543D02*
X007004Y020459D01*
X006838Y022006D02*
X006838Y022090D01*
X006754Y022090D01*
X006754Y022006D01*
X006838Y022006D01*
X006838Y022264D02*
X006754Y022347D01*
X006754Y022598D01*
X006838Y022780D02*
X006754Y022863D01*
X006754Y023030D01*
X006838Y023113D01*
X007004Y023113D01*
X007088Y023030D01*
X007088Y022863D01*
X007004Y022780D01*
X006838Y022780D01*
X007088Y022598D02*
X007088Y022347D01*
X007004Y022264D01*
X006838Y022264D01*
X006754Y023295D02*
X007088Y023295D01*
X007088Y023379D01*
X007004Y023462D01*
X007088Y023546D01*
X007004Y023629D01*
X006754Y023629D01*
X006754Y023462D02*
X007004Y023462D01*
X006754Y023811D02*
X007255Y024145D01*
X007004Y024327D02*
X007088Y024410D01*
X007088Y024577D01*
X007004Y024660D01*
X006921Y024660D01*
X006921Y024327D01*
X006838Y024327D02*
X007004Y024327D01*
X006838Y024327D02*
X006754Y024410D01*
X006754Y024577D01*
X006838Y024842D02*
X007004Y024842D01*
X007088Y024926D01*
X007088Y025092D01*
X007004Y025176D01*
X006921Y025176D01*
X006921Y024842D01*
X006838Y024842D02*
X006754Y024926D01*
X006754Y025092D01*
X006754Y025358D02*
X006754Y025691D01*
X007004Y025874D02*
X007004Y026207D01*
X007004Y026389D02*
X006838Y026389D01*
X006754Y026473D01*
X006754Y026639D01*
X006838Y026723D01*
X007004Y026723D01*
X007088Y026639D01*
X007088Y026473D01*
X007004Y026389D01*
X007088Y026905D02*
X007088Y027155D01*
X007004Y027238D01*
X006838Y027238D01*
X006754Y027155D01*
X006754Y026905D01*
X006587Y026905D02*
X007088Y026905D01*
X007004Y027420D02*
X007088Y027504D01*
X007088Y027671D01*
X007004Y027754D01*
X006921Y027754D01*
X006921Y027420D01*
X006838Y027420D02*
X007004Y027420D01*
X006838Y027420D02*
X006754Y027504D01*
X006754Y027671D01*
X006754Y027936D02*
X007088Y027936D01*
X007088Y028186D01*
X007004Y028270D01*
X006754Y028270D01*
X007088Y025691D02*
X006754Y025358D01*
X007088Y025358D02*
X007088Y025691D01*
X012031Y018965D02*
X019831Y018965D01*
X019831Y017865D01*
X012031Y017865D01*
X012031Y018965D01*
X055799Y008254D02*
X055799Y007654D01*
X057624Y007654D01*
X057624Y008254D01*
X055799Y008254D01*
X060774Y016304D02*
X061024Y016304D01*
X061024Y017804D01*
X060774Y017804D01*
X060774Y017054D01*
X060774Y016304D01*
X060774Y017054D02*
X060324Y017054D01*
X057624Y017054D02*
X057628Y017226D01*
X057641Y017397D01*
X057662Y017568D01*
X057691Y017737D01*
X057729Y017904D01*
X057775Y018070D01*
X057829Y018233D01*
X057890Y018393D01*
X057960Y018550D01*
X058037Y018704D01*
X058122Y018853D01*
X058214Y018998D01*
X058313Y019139D01*
X058418Y019274D01*
X058531Y019404D01*
X058649Y019529D01*
X058774Y019647D01*
X058904Y019760D01*
X059039Y019865D01*
X059180Y019964D01*
X059325Y020056D01*
X059474Y020141D01*
X059628Y020218D01*
X059785Y020288D01*
X059945Y020349D01*
X060108Y020403D01*
X060274Y020449D01*
X060441Y020487D01*
X060610Y020516D01*
X060781Y020537D01*
X060952Y020550D01*
X061124Y020554D01*
X061296Y020550D01*
X061467Y020537D01*
X061638Y020516D01*
X061807Y020487D01*
X061974Y020449D01*
X062140Y020403D01*
X062303Y020349D01*
X062463Y020288D01*
X062620Y020218D01*
X062774Y020141D01*
X062923Y020056D01*
X063068Y019964D01*
X063209Y019865D01*
X063344Y019760D01*
X063474Y019647D01*
X063599Y019529D01*
X063717Y019404D01*
X063830Y019274D01*
X063935Y019139D01*
X064034Y018998D01*
X064126Y018853D01*
X064211Y018704D01*
X064288Y018550D01*
X064358Y018393D01*
X064419Y018233D01*
X064473Y018070D01*
X064519Y017904D01*
X064557Y017737D01*
X064586Y017568D01*
X064607Y017397D01*
X064620Y017226D01*
X064624Y017054D01*
X064620Y016882D01*
X064607Y016711D01*
X064586Y016540D01*
X064557Y016371D01*
X064519Y016204D01*
X064473Y016038D01*
X064419Y015875D01*
X064358Y015715D01*
X064288Y015558D01*
X064211Y015404D01*
X064126Y015255D01*
X064034Y015110D01*
X063935Y014969D01*
X063830Y014834D01*
X063717Y014704D01*
X063599Y014579D01*
X063474Y014461D01*
X063344Y014348D01*
X063209Y014243D01*
X063068Y014144D01*
X062923Y014052D01*
X062774Y013967D01*
X062620Y013890D01*
X062463Y013820D01*
X062303Y013759D01*
X062140Y013705D01*
X061974Y013659D01*
X061807Y013621D01*
X061638Y013592D01*
X061467Y013571D01*
X061296Y013558D01*
X061124Y013554D01*
X060952Y013558D01*
X060781Y013571D01*
X060610Y013592D01*
X060441Y013621D01*
X060274Y013659D01*
X060108Y013705D01*
X059945Y013759D01*
X059785Y013820D01*
X059628Y013890D01*
X059474Y013967D01*
X059325Y014052D01*
X059180Y014144D01*
X059039Y014243D01*
X058904Y014348D01*
X058774Y014461D01*
X058649Y014579D01*
X058531Y014704D01*
X058418Y014834D01*
X058313Y014969D01*
X058214Y015110D01*
X058122Y015255D01*
X058037Y015404D01*
X057960Y015558D01*
X057890Y015715D01*
X057829Y015875D01*
X057775Y016038D01*
X057729Y016204D01*
X057691Y016371D01*
X057662Y016540D01*
X057641Y016711D01*
X057628Y016882D01*
X057624Y017054D01*
X058174Y017054D02*
X058774Y017054D01*
X058474Y017354D02*
X058474Y016754D01*
X061374Y017054D02*
X061924Y017054D01*
X061049Y023454D02*
X060799Y023454D01*
X060799Y024204D01*
X060799Y024954D01*
X061049Y024954D01*
X061049Y023454D01*
X057649Y024204D02*
X057653Y024376D01*
X057666Y024547D01*
X057687Y024718D01*
X057716Y024887D01*
X057754Y025054D01*
X057800Y025220D01*
X057854Y025383D01*
X057915Y025543D01*
X057985Y025700D01*
X058062Y025854D01*
X058147Y026003D01*
X058239Y026148D01*
X058338Y026289D01*
X058443Y026424D01*
X058556Y026554D01*
X058674Y026679D01*
X058799Y026797D01*
X058929Y026910D01*
X059064Y027015D01*
X059205Y027114D01*
X059350Y027206D01*
X059499Y027291D01*
X059653Y027368D01*
X059810Y027438D01*
X059970Y027499D01*
X060133Y027553D01*
X060299Y027599D01*
X060466Y027637D01*
X060635Y027666D01*
X060806Y027687D01*
X060977Y027700D01*
X061149Y027704D01*
X061321Y027700D01*
X061492Y027687D01*
X061663Y027666D01*
X061832Y027637D01*
X061999Y027599D01*
X062165Y027553D01*
X062328Y027499D01*
X062488Y027438D01*
X062645Y027368D01*
X062799Y027291D01*
X062948Y027206D01*
X063093Y027114D01*
X063234Y027015D01*
X063369Y026910D01*
X063499Y026797D01*
X063624Y026679D01*
X063742Y026554D01*
X063855Y026424D01*
X063960Y026289D01*
X064059Y026148D01*
X064151Y026003D01*
X064236Y025854D01*
X064313Y025700D01*
X064383Y025543D01*
X064444Y025383D01*
X064498Y025220D01*
X064544Y025054D01*
X064582Y024887D01*
X064611Y024718D01*
X064632Y024547D01*
X064645Y024376D01*
X064649Y024204D01*
X064645Y024032D01*
X064632Y023861D01*
X064611Y023690D01*
X064582Y023521D01*
X064544Y023354D01*
X064498Y023188D01*
X064444Y023025D01*
X064383Y022865D01*
X064313Y022708D01*
X064236Y022554D01*
X064151Y022405D01*
X064059Y022260D01*
X063960Y022119D01*
X063855Y021984D01*
X063742Y021854D01*
X063624Y021729D01*
X063499Y021611D01*
X063369Y021498D01*
X063234Y021393D01*
X063093Y021294D01*
X062948Y021202D01*
X062799Y021117D01*
X062645Y021040D01*
X062488Y020970D01*
X062328Y020909D01*
X062165Y020855D01*
X061999Y020809D01*
X061832Y020771D01*
X061663Y020742D01*
X061492Y020721D01*
X061321Y020708D01*
X061149Y020704D01*
X060977Y020708D01*
X060806Y020721D01*
X060635Y020742D01*
X060466Y020771D01*
X060299Y020809D01*
X060133Y020855D01*
X059970Y020909D01*
X059810Y020970D01*
X059653Y021040D01*
X059499Y021117D01*
X059350Y021202D01*
X059205Y021294D01*
X059064Y021393D01*
X058929Y021498D01*
X058799Y021611D01*
X058674Y021729D01*
X058556Y021854D01*
X058443Y021984D01*
X058338Y022119D01*
X058239Y022260D01*
X058147Y022405D01*
X058062Y022554D01*
X057985Y022708D01*
X057915Y022865D01*
X057854Y023025D01*
X057800Y023188D01*
X057754Y023354D01*
X057716Y023521D01*
X057687Y023690D01*
X057666Y023861D01*
X057653Y024032D01*
X057649Y024204D01*
X058199Y024204D02*
X058799Y024204D01*
X058499Y024504D02*
X058499Y023904D01*
X060349Y024204D02*
X060799Y024204D01*
X061399Y024204D02*
X061949Y024204D01*
X057924Y031204D02*
X056699Y031204D01*
X056699Y031804D01*
X057924Y031804D01*
X057924Y031204D01*
D14*
X058149Y027369D02*
X058359Y027369D01*
X058464Y027264D01*
X058464Y026844D01*
X058359Y026739D01*
X058149Y026739D01*
X058044Y026844D01*
X057820Y027054D02*
X057399Y027054D01*
X057504Y026739D02*
X057504Y027369D01*
X057820Y027054D01*
X058044Y027264D02*
X058149Y027369D01*
X058149Y020244D02*
X058359Y020244D01*
X058464Y020139D01*
X058464Y019719D01*
X058359Y019614D01*
X058149Y019614D01*
X058044Y019719D01*
X057820Y019719D02*
X057715Y019614D01*
X057504Y019614D01*
X057399Y019719D01*
X057399Y019929D01*
X057504Y020034D01*
X057610Y020034D01*
X057820Y019929D01*
X057820Y020244D01*
X057399Y020244D01*
X058044Y020139D02*
X058149Y020244D01*
X055855Y014819D02*
X055855Y014229D01*
X055461Y014229D01*
X055247Y014229D02*
X054853Y014229D01*
X055050Y014229D02*
X055050Y014819D01*
X055247Y014623D01*
X034370Y014795D02*
X034265Y014690D01*
X034055Y014690D01*
X033950Y014795D01*
X033950Y015215D01*
X034055Y015320D01*
X034265Y015320D01*
X034370Y015215D01*
X034370Y014795D01*
X034160Y014900D02*
X033950Y014690D01*
X033726Y015005D02*
X033305Y015005D01*
X033411Y015320D02*
X033726Y015005D01*
X033411Y014690D02*
X033411Y015320D01*
D15*
X063093Y014692D02*
X063205Y014790D01*
X063313Y014894D01*
X063415Y015003D01*
X063512Y015117D01*
X063604Y015236D01*
X063689Y015358D01*
X063769Y015485D01*
X063842Y015616D01*
X063909Y015750D01*
X063969Y015887D01*
X064022Y016027D01*
X064069Y016169D01*
X064108Y016313D01*
X064141Y016459D01*
X064166Y016607D01*
X064184Y016755D01*
X064195Y016904D01*
X064199Y017054D01*
X064195Y017204D01*
X064184Y017353D01*
X064166Y017501D01*
X064141Y017649D01*
X064108Y017795D01*
X064069Y017939D01*
X064022Y018081D01*
X063969Y018221D01*
X063909Y018358D01*
X063842Y018492D01*
X063769Y018623D01*
X063689Y018750D01*
X063604Y018872D01*
X063512Y018991D01*
X063415Y019105D01*
X063313Y019214D01*
X063205Y019318D01*
X063093Y019416D01*
X063118Y021842D02*
X063230Y021940D01*
X063338Y022044D01*
X063440Y022153D01*
X063537Y022267D01*
X063629Y022386D01*
X063714Y022508D01*
X063794Y022635D01*
X063867Y022766D01*
X063934Y022900D01*
X063994Y023037D01*
X064047Y023177D01*
X064094Y023319D01*
X064133Y023463D01*
X064166Y023609D01*
X064191Y023757D01*
X064209Y023905D01*
X064220Y024054D01*
X064224Y024204D01*
X064220Y024354D01*
X064209Y024503D01*
X064191Y024651D01*
X064166Y024799D01*
X064133Y024945D01*
X064094Y025089D01*
X064047Y025231D01*
X063994Y025371D01*
X063934Y025508D01*
X063867Y025642D01*
X063794Y025773D01*
X063714Y025900D01*
X063629Y026022D01*
X063537Y026141D01*
X063440Y026255D01*
X063338Y026364D01*
X063230Y026468D01*
X063118Y026566D01*
D16*
X061374Y024204D03*
X061349Y017054D03*
D17*
X062430Y014554D03*
X058493Y014554D03*
D18*
X058815Y013078D02*
X058817Y013094D01*
X058823Y013110D01*
X058832Y013124D01*
X058844Y013135D01*
X058858Y013143D01*
X058874Y013148D01*
X058890Y013149D01*
X058906Y013146D01*
X058921Y013139D01*
X058935Y013130D01*
X058945Y013117D01*
X058953Y013102D01*
X058957Y013086D01*
X058957Y013070D01*
X058953Y013054D01*
X058945Y013039D01*
X058935Y013026D01*
X058922Y013017D01*
X058906Y013010D01*
X058890Y013007D01*
X058874Y013008D01*
X058858Y013013D01*
X058844Y013021D01*
X058832Y013032D01*
X058823Y013046D01*
X058817Y013062D01*
X058815Y013078D01*
X062752Y013078D02*
X062754Y013094D01*
X062760Y013110D01*
X062769Y013124D01*
X062781Y013135D01*
X062795Y013143D01*
X062811Y013148D01*
X062827Y013149D01*
X062843Y013146D01*
X062858Y013139D01*
X062872Y013130D01*
X062882Y013117D01*
X062890Y013102D01*
X062894Y013086D01*
X062894Y013070D01*
X062890Y013054D01*
X062882Y013039D01*
X062872Y013026D01*
X062859Y013017D01*
X062843Y013010D01*
X062827Y013007D01*
X062811Y013008D01*
X062795Y013013D01*
X062781Y013021D01*
X062769Y013032D01*
X062760Y013046D01*
X062754Y013062D01*
X062752Y013078D01*
M02*
