%
M48
M72
T01C0.0236
T02C0.0276
T03C0.0315
T04C0.0320
T05C0.0394
T06C0.0433
T07C0.0472
T08C0.0531
T09C0.0590
T10C0.1260
T11C0.2559
%
T01
X13231Y5954
X13906Y3879
X14331Y3879
X17631Y3879
X18056Y3879
X19256Y7854
X18181Y8179
X19305Y8679
X19306Y9429
X19181Y10204
X16781Y10004
X15931Y9379
X13906Y8429
X13306Y8779
X12606Y8854
X12856Y9979
X11956Y9979
X12856Y10779
X13931Y11179
X14431Y11804
X15956Y12629
X17081Y12629
X19506Y13179
X19981Y13179
X19981Y13654
X19981Y14129
X19981Y14604
X19981Y15079
X19506Y15079
X19506Y14604
X19506Y14129
X19506Y13654
X18181Y14454
X18306Y15204
X17381Y16479
X16881Y16979
X16206Y16104
X15656Y16979
X14631Y16979
X13756Y16979
X13306Y17479
X12806Y16979
X12581Y16279
X12131Y15204
X14756Y16129
X14831Y17979
X16206Y17979
X18131Y16979
X20906Y16979
X23756Y17479
X24506Y16979
X25431Y16454
X26681Y16979
X28156Y16979
X28456Y17479
X30156Y16979
X30981Y16454
X31431Y16979
X29731Y16179
X28306Y16179
X28031Y15204
X26306Y15204
X25431Y15054
X28156Y13529
X27106Y11554
X25781Y11479
X25281Y11479
X25281Y10979
X25781Y10979
X25781Y10479
X25781Y9979
X25781Y9479
X25281Y9479
X25281Y9979
X25281Y10479
X25281Y8979
X25781Y8979
X27081Y7254
X28131Y7829
X28681Y8504
X30581Y7754
X28131Y6254
X20256Y7854
X11456Y13079
X10381Y11029
X10381Y9829
X7856Y10154
X7856Y10529
X19631Y18829
X17181Y19354
X15456Y20179
X14506Y20179
X13706Y20179
X12906Y20179
X14931Y21129
X13581Y22029
X12506Y22654
X12481Y23354
X13031Y24404
X13756Y25754
X14481Y25679
X15431Y25679
X13756Y26504
X12781Y26854
X14681Y27329
X15056Y27879
X14706Y28979
X14356Y29354
X14006Y29879
X12781Y29079
X10381Y28504
X9181Y28654
X9381Y26679
X9381Y24954
X14756Y23079
X17106Y24504
X18081Y24654
X18831Y24804
X19606Y24829
X20381Y24804
X21931Y24804
X22656Y24829
X23331Y24804
X24156Y25029
X25031Y25254
X25781Y25279
X24431Y24254
X25256Y24229
X25281Y23429
X25056Y22829
X25756Y22829
X24456Y23204
X27856Y24579
X28181Y23404
X29781Y23379
X30456Y22904
X30206Y22404
X31631Y23404
X31981Y24529
X33681Y23204
X32706Y21929
X33281Y21554
X33631Y20879
X34331Y20204
X32706Y20229
X31306Y20129
X30656Y21104
X29906Y20704
X29256Y20829
X27056Y19279
X26281Y18479
X25306Y17979
X23756Y19204
X24631Y19604
X22881Y20754
X21631Y20729
X19631Y20729
X16981Y25679
X18831Y27179
X16981Y28404
X18456Y28979
X18831Y28629
X18081Y29354
X16981Y29879
X16831Y30379
X17731Y30479
X17331Y31104
X16781Y31129
X19281Y29779
X20531Y28654
X21056Y28104
X21581Y28104
X22081Y27479
X23581Y27329
X23406Y28629
X22281Y29304
X23131Y29929
X22781Y30304
X21931Y30079
X24481Y30154
X26331Y29304
X27456Y29254
X26731Y30504
X30356Y30179
X30906Y28354
X32456Y28354
X34406Y26979
X33656Y26819
X32956Y25804
X30331Y26529
X29156Y26404
X28456Y27329
X27281Y27879
X26356Y27054
X24781Y26154
X22606Y26354
X21331Y26304
X12981Y31304
X12056Y31504
X32706Y18954
X31306Y18404
X30631Y18904
X36606Y20554
X38081Y20604
X39931Y20429
X38581Y18729
X36556Y16304
X37231Y15779
X35156Y14954
X32681Y14054
X31281Y15129
X31456Y12279
X36806Y12879
X36806Y13254
X41481Y10354
X45281Y10719
X45681Y10719
X46081Y10719
X46481Y10719
X46481Y11119
X46481Y11519
X46081Y11519
X46081Y11119
X45681Y11119
X45681Y11519
X45281Y11519
X45281Y11119
X48606Y10154
X49006Y10154
X49381Y10154
X49781Y10154
X50156Y10154
X50556Y10154
X50931Y10154
X51331Y10154
X51331Y9754
X51331Y9354
X51331Y8954
X51331Y8554
X50931Y8554
X50931Y8954
X50931Y9354
X50931Y9754
X48606Y9754
X48606Y9379
X48606Y8979
X48606Y8579
X50131Y11304
X50531Y11704
X50931Y12104
X51331Y11704
X51706Y12104
X52106Y11704
X51706Y11304
X50931Y11304
X50131Y12104
X49731Y11704
X49731Y12504
X50131Y12904
X50531Y13304
X50931Y13704
X50956Y14129
X50956Y14504
X51356Y14504
X51356Y14129
X51756Y14129
X51756Y14504
X52156Y14504
X52156Y14129
X51706Y13704
X51331Y13304
X51706Y12904
X51331Y12504
X50931Y12904
X50531Y12504
X49731Y13304
X50131Y13704
X50156Y14129
X50156Y14504
X50556Y14504
X50556Y14129
X49756Y14129
X49756Y14504
X49356Y14504
X49356Y14129
X52106Y13304
X52106Y12504
X56721Y14129
X61246Y15054
X61246Y15429
X61246Y15804
X61246Y16179
X56106Y22429
X56106Y22854
X56106Y23279
X56106Y23704
X55681Y23704
X55681Y23279
X55681Y22854
X55681Y22429
X55256Y22429
X55256Y22854
X55256Y23279
X55256Y23704
X54831Y23704
X54831Y23279
X54831Y22854
X54831Y22429
X54406Y22429
X54406Y22854
X54406Y23279
X54406Y23704
X52881Y23654
X52881Y23229
X52881Y22804
X52881Y22379
X52456Y22379
X52456Y22804
X52456Y23229
X52456Y23654
X52031Y23654
X52031Y23229
X52031Y22804
X52031Y22379
X51606Y22379
X51606Y22804
X51606Y23229
X51606Y23654
X51181Y23654
X51181Y23229
X51181Y22804
X51181Y22379
X46256Y20654
X45556Y21079
X43431Y21729
X43571Y23754
X43921Y23754
X42181Y23579
X41341Y23579
X40941Y23579
X40541Y23579
X39956Y23129
X39216Y25054
X37956Y26654
X37956Y27304
X37456Y28179
X38156Y28604
X36181Y28179
X35406Y28829
X34556Y30704
X38381Y31079
X40856Y28754
X41916Y28254
X41916Y27854
X43131Y27554
X44406Y27454
X44881Y27454
X45356Y27454
X45356Y27954
X44881Y27954
X44406Y27954
X44406Y26954
X44881Y26954
X45356Y26954
X46481Y27229
X45131Y29154
X51156Y28129
X51581Y28129
X52006Y28129
X52431Y28129
X52856Y28129
X52856Y27704
X52431Y27704
X52006Y27704
X51581Y27704
X51156Y27704
X51156Y27279
X51581Y27279
X52006Y27279
X52431Y27279
X52856Y27279
X52856Y26854
X52431Y26854
X52006Y26854
X51581Y26854
X51156Y26854
X54406Y26854
X54831Y26854
X55256Y26854
X55681Y26854
X56106Y26854
X56106Y27279
X55681Y27279
X55256Y27279
X54831Y27279
X54406Y27279
X54406Y27704
X54831Y27704
X55256Y27704
X55681Y27704
X56106Y27704
X56106Y28129
X55681Y28129
X55256Y28129
X54831Y28129
X54406Y28129
X42281Y19754
X44896Y19304
X45296Y19304
X45696Y19304
X46096Y19304
X46496Y19304
X46496Y18904
X46096Y18904
X45696Y18904
X45296Y18904
X44896Y18904
X47921Y19254
X45706Y15979
X46081Y15004
X36856Y23554
X36856Y24204
X39406Y4954
X39406Y4604
X39406Y4254
X36531Y4804
T02
X42556Y5579
X42956Y5579
X42956Y5979
X42556Y5979
X37506Y9879
X37506Y10304
X37506Y10729
X37081Y10729
X37081Y10304
X37081Y9879
X36656Y9879
X36656Y10304
X36656Y10729
X42956Y16254
X43356Y16254
X43756Y16254
X43756Y16679
X43356Y16679
X42956Y16679
X42956Y17104
X43356Y17104
X43756Y17104
X26956Y6504
X26956Y6079
X26531Y6079
X26531Y6504
X26106Y6504
X26106Y6079
X26106Y5654
X26531Y5654
X26956Y5654
X21756Y5654
X21331Y5654
X20906Y5654
X20906Y6079
X21331Y6079
X21756Y6079
X21756Y6504
X21331Y6504
X20906Y6504
X18056Y4979
X18056Y4604
X18056Y4229
X17631Y4229
X17631Y4604
X17631Y4979
X14331Y4979
X14331Y4604
X14331Y4229
X13906Y4229
X13906Y4604
X13906Y4979
T03
X52156Y20154
T04
X50156Y20154
T05
X10362Y19870
X9362Y19870
X9362Y20870
X9362Y21870
X10362Y21870
X10362Y20870
X10362Y22870
X9362Y22870
X9362Y23870
X10362Y23870
X10362Y18870
X9362Y18870
X9362Y17870
X10362Y17870
X10362Y16870
X9362Y16870
X9362Y15870
X9362Y14870
X10362Y14870
X10362Y15870
X10362Y13870
X9362Y13870
X9362Y12870
X9362Y11870
X10362Y11870
X10362Y12870
T06
X11956Y11979
X36531Y6804
X59254Y17054
X62207Y17054
X62232Y24204
X59279Y24204
T07
X57595Y18491
X62516Y18491
X62516Y10617
X57595Y10617
T08
X62281Y8616
X62281Y6647
X62281Y4679
X62281Y29104
X62281Y31072
T09
X35436Y9455
X33236Y9455
X31036Y9455
T10
X9614Y4850
X9614Y30834
X48985Y30834
X53709Y4850
T11
X33236Y17055
M30
