G75*
G70*
%OFA0B0*%
%FSLAX24Y24*%
%IPPOS*%
%LPD*%
%AMOC8*
5,1,8,0,0,1.08239X$1,22.5*
%
%ADD10C,0.0039*%
%ADD11C,0.0000*%
D10*
X006071Y003275D02*
X063945Y003275D01*
X063991Y003277D01*
X064037Y003282D01*
X064083Y003291D01*
X064128Y003304D01*
X064171Y003320D01*
X064213Y003339D01*
X064254Y003362D01*
X064292Y003388D01*
X064329Y003417D01*
X064363Y003448D01*
X064394Y003482D01*
X064423Y003519D01*
X064449Y003557D01*
X064472Y003598D01*
X064491Y003640D01*
X064507Y003683D01*
X064520Y003728D01*
X064529Y003774D01*
X064534Y003820D01*
X064536Y003866D01*
X064536Y031819D01*
X064534Y031865D01*
X064529Y031911D01*
X064520Y031957D01*
X064507Y032002D01*
X064491Y032045D01*
X064472Y032087D01*
X064449Y032128D01*
X064423Y032166D01*
X064394Y032203D01*
X064363Y032237D01*
X064329Y032268D01*
X064292Y032297D01*
X064254Y032323D01*
X064213Y032346D01*
X064171Y032365D01*
X064128Y032381D01*
X064083Y032394D01*
X064037Y032403D01*
X063991Y032408D01*
X063945Y032410D01*
X063945Y032409D02*
X006071Y032409D01*
X006071Y032410D02*
X006025Y032408D01*
X005979Y032403D01*
X005933Y032394D01*
X005888Y032381D01*
X005845Y032365D01*
X005803Y032346D01*
X005762Y032323D01*
X005724Y032297D01*
X005687Y032268D01*
X005653Y032237D01*
X005622Y032203D01*
X005593Y032166D01*
X005567Y032128D01*
X005544Y032087D01*
X005525Y032045D01*
X005509Y032002D01*
X005496Y031957D01*
X005487Y031911D01*
X005482Y031865D01*
X005480Y031819D01*
X005481Y031819D02*
X005481Y003866D01*
X005480Y003866D02*
X005482Y003820D01*
X005487Y003774D01*
X005496Y003728D01*
X005509Y003683D01*
X005525Y003640D01*
X005544Y003598D01*
X005567Y003557D01*
X005593Y003519D01*
X005622Y003482D01*
X005653Y003448D01*
X005687Y003417D01*
X005724Y003388D01*
X005762Y003362D01*
X005803Y003339D01*
X005845Y003320D01*
X005888Y003304D01*
X005933Y003291D01*
X005979Y003282D01*
X006025Y003277D01*
X006071Y003275D01*
D11*
X031956Y017055D02*
X031958Y017126D01*
X031964Y017197D01*
X031974Y017268D01*
X031988Y017337D01*
X032005Y017406D01*
X032027Y017474D01*
X032052Y017541D01*
X032081Y017606D01*
X032113Y017669D01*
X032149Y017731D01*
X032188Y017790D01*
X032231Y017847D01*
X032276Y017902D01*
X032325Y017954D01*
X032376Y018003D01*
X032430Y018049D01*
X032487Y018093D01*
X032545Y018133D01*
X032606Y018169D01*
X032669Y018203D01*
X032734Y018232D01*
X032800Y018258D01*
X032868Y018281D01*
X032936Y018299D01*
X033006Y018314D01*
X033076Y018325D01*
X033147Y018332D01*
X033218Y018335D01*
X033289Y018334D01*
X033360Y018329D01*
X033431Y018320D01*
X033501Y018307D01*
X033570Y018291D01*
X033638Y018270D01*
X033705Y018246D01*
X033771Y018218D01*
X033834Y018186D01*
X033896Y018151D01*
X033956Y018113D01*
X034014Y018071D01*
X034069Y018027D01*
X034122Y017979D01*
X034172Y017928D01*
X034219Y017875D01*
X034263Y017819D01*
X034304Y017761D01*
X034342Y017700D01*
X034376Y017638D01*
X034406Y017573D01*
X034433Y017508D01*
X034457Y017440D01*
X034476Y017372D01*
X034492Y017303D01*
X034504Y017232D01*
X034512Y017162D01*
X034516Y017091D01*
X034516Y017019D01*
X034512Y016948D01*
X034504Y016878D01*
X034492Y016807D01*
X034476Y016738D01*
X034457Y016670D01*
X034433Y016602D01*
X034406Y016537D01*
X034376Y016472D01*
X034342Y016410D01*
X034304Y016349D01*
X034263Y016291D01*
X034219Y016235D01*
X034172Y016182D01*
X034122Y016131D01*
X034069Y016083D01*
X034014Y016039D01*
X033956Y015997D01*
X033896Y015959D01*
X033834Y015924D01*
X033771Y015892D01*
X033705Y015864D01*
X033638Y015840D01*
X033570Y015819D01*
X033501Y015803D01*
X033431Y015790D01*
X033360Y015781D01*
X033289Y015776D01*
X033218Y015775D01*
X033147Y015778D01*
X033076Y015785D01*
X033006Y015796D01*
X032936Y015811D01*
X032868Y015829D01*
X032800Y015852D01*
X032734Y015878D01*
X032669Y015907D01*
X032606Y015941D01*
X032545Y015977D01*
X032487Y016017D01*
X032430Y016061D01*
X032376Y016107D01*
X032325Y016156D01*
X032276Y016208D01*
X032231Y016263D01*
X032188Y016320D01*
X032149Y016379D01*
X032113Y016441D01*
X032081Y016504D01*
X032052Y016569D01*
X032027Y016636D01*
X032005Y016704D01*
X031988Y016773D01*
X031974Y016842D01*
X031964Y016913D01*
X031958Y016984D01*
X031956Y017055D01*
M02*
