G75*
G70*
%OFA0B0*%
%FSLAX24Y24*%
%IPPOS*%
%LPD*%
%AMOC8*
5,1,8,0,0,1.08239X$1,22.5*
%
%ADD10R,0.1275X0.1700*%
%ADD11C,0.0120*%
%ADD12C,0.0140*%
%ADD13R,0.0671X0.0552*%
%ADD14R,0.0513X0.0474*%
%ADD15R,0.0671X0.0592*%
%ADD16R,0.0592X0.0671*%
%ADD17R,0.1143X0.0710*%
%ADD18R,0.0760X0.0270*%
%ADD19R,0.0474X0.0513*%
%ADD20R,0.0218X0.0710*%
%ADD21R,0.1080X0.0300*%
%ADD22R,0.0710X0.0790*%
%ADD23C,0.0973*%
%ADD24C,0.2759*%
%ADD25R,0.0552X0.0671*%
%ADD26R,0.0830X0.0530*%
%ADD27R,0.1375X0.2125*%
%ADD28R,0.0690X0.0316*%
%ADD29R,0.0474X0.0631*%
%ADD30R,0.0631X0.0474*%
%ADD31R,0.0789X0.1340*%
%ADD32R,0.0300X0.0680*%
%ADD33R,0.0300X0.0600*%
%ADD34R,0.1060X0.0450*%
%ADD35R,0.2770X0.2850*%
%ADD36R,0.0710X0.0789*%
%ADD37R,0.0860X0.0300*%
%ADD38R,0.0674X0.0674*%
%ADD39OC8,0.0674*%
%ADD40R,0.2444X0.2365*%
%ADD41R,0.0749X0.0592*%
%ADD42R,0.0789X0.0710*%
%ADD43R,0.1280X0.0680*%
%ADD44R,0.0260X0.0580*%
%ADD45R,0.1240X0.0770*%
%ADD46R,0.1360X0.0380*%
%ADD47R,0.0710X0.1143*%
%ADD48R,0.0790X0.0710*%
%ADD49R,0.0552X0.0552*%
%ADD50R,0.0631X0.0631*%
%ADD51R,0.0220X0.0640*%
%ADD52C,0.1360*%
%ADD53OC8,0.1360*%
%ADD54R,0.2365X0.2444*%
%ADD55R,0.0592X0.0749*%
%ADD56R,0.0316X0.0690*%
%ADD57R,0.0540X0.0220*%
%ADD58R,0.0300X0.0580*%
%ADD59R,0.0946X0.0316*%
%ADD60C,0.1100*%
%ADD61R,0.0510X0.1680*%
%ADD62R,0.0946X0.0789*%
%ADD63R,0.0789X0.0946*%
%ADD64OC8,0.0946*%
%ADD65R,0.0516X0.0516*%
%ADD66R,0.0909X0.1539*%
%ADD67R,0.0631X0.0907*%
%ADD68OC8,0.0640*%
%ADD69OC8,0.0600*%
%ADD70R,0.1939X0.1841*%
%ADD71C,0.1100*%
%ADD72R,0.1720X0.0550*%
%ADD73C,0.0050*%
%ADD74C,0.1299*%
%ADD75C,0.1299*%
%ADD76R,0.0516X0.0516*%
%ADD77C,0.2365*%
D10*
X046887Y012507D03*
D11*
X043025Y025282D02*
X043025Y026082D01*
D12*
X043000Y028357D02*
X043000Y029282D01*
X042775Y029282D02*
X042775Y028357D01*
D13*
X026221Y021607D03*
X025079Y021607D03*
X025104Y019232D03*
X026246Y019232D03*
X016021Y014157D03*
X014879Y014157D03*
X014854Y013057D03*
X015996Y013057D03*
X027104Y005207D03*
X027104Y004357D03*
X028246Y004357D03*
X028246Y005207D03*
X025396Y004482D03*
X024254Y004482D03*
X039254Y017782D03*
X040396Y017782D03*
D14*
X036035Y018482D03*
X035365Y018482D03*
X033425Y021447D03*
X033425Y022117D03*
X033435Y023032D03*
X032765Y023032D03*
X024185Y022232D03*
X023515Y022232D03*
X022685Y019382D03*
X022015Y019382D03*
X015285Y016232D03*
X014615Y016232D03*
X016615Y009657D03*
X017285Y009657D03*
X012610Y008932D03*
X011940Y008932D03*
X024615Y027657D03*
X025285Y027657D03*
X020035Y029932D03*
X019365Y029932D03*
X018735Y029932D03*
X018065Y029932D03*
X014985Y031207D03*
X014315Y031207D03*
D15*
X006725Y029056D03*
X006725Y028308D03*
X016550Y025781D03*
X017300Y025781D03*
X018075Y025781D03*
X018850Y025781D03*
X018850Y025033D03*
X018075Y025033D03*
X017300Y025033D03*
X016550Y025033D03*
X019625Y025033D03*
X020400Y025033D03*
X021175Y025033D03*
X021950Y025033D03*
X021950Y025781D03*
X021175Y025781D03*
X020400Y025781D03*
X019625Y025781D03*
X020900Y023156D03*
X020900Y022408D03*
X020900Y021256D03*
X020900Y020508D03*
X020900Y019711D03*
X020900Y018963D03*
X023050Y014406D03*
X023950Y014406D03*
X023950Y013658D03*
X023050Y013658D03*
X027350Y011381D03*
X027350Y010633D03*
X027375Y007206D03*
X028150Y007206D03*
X028925Y007206D03*
X028925Y006458D03*
X028150Y006458D03*
X027375Y006458D03*
X026600Y006458D03*
X026600Y007206D03*
X018850Y009508D03*
X018850Y010256D03*
X015125Y007806D03*
X014300Y007806D03*
X013500Y007806D03*
X012700Y007806D03*
X012700Y007058D03*
X013500Y007058D03*
X014300Y007058D03*
X015125Y007058D03*
X015125Y006256D03*
X014300Y006256D03*
X014300Y005508D03*
X015125Y005508D03*
X017200Y005958D03*
X017200Y006706D03*
X006375Y006708D03*
X006375Y007456D03*
X005600Y007456D03*
X005600Y006708D03*
X005600Y008258D03*
X005600Y009006D03*
X006375Y009006D03*
X006375Y008258D03*
X005600Y009808D03*
X005600Y010556D03*
X014075Y013133D03*
X014075Y013881D03*
X011600Y018333D03*
X011600Y019081D03*
X026775Y025058D03*
X027550Y025058D03*
X027550Y025806D03*
X026775Y025806D03*
X028850Y025806D03*
X029625Y025806D03*
X029625Y025058D03*
X028850Y025058D03*
X034600Y021506D03*
X034600Y020758D03*
X038950Y019406D03*
X038950Y018658D03*
X041125Y018783D03*
X041900Y018783D03*
X041900Y019531D03*
X041125Y019531D03*
X041125Y020333D03*
X041900Y020333D03*
X041900Y021081D03*
X041125Y021081D03*
X042675Y021308D03*
X043450Y021308D03*
X044225Y021308D03*
X045975Y020781D03*
X045975Y020033D03*
X046400Y021738D03*
X046400Y022407D03*
X046400Y023076D03*
X044225Y022056D03*
X043450Y022056D03*
X042675Y022056D03*
X041400Y023783D03*
X040625Y023783D03*
X039850Y023783D03*
X039075Y023783D03*
X039075Y024531D03*
X038200Y024833D03*
X038200Y025581D03*
X039850Y024531D03*
X040625Y024531D03*
X041400Y024531D03*
X041875Y028558D03*
X041875Y029306D03*
X045125Y028933D03*
X045900Y028933D03*
X045900Y029681D03*
X045125Y029681D03*
X036625Y029556D03*
X036625Y028808D03*
X022950Y030383D03*
X022950Y031131D03*
X039225Y012481D03*
X039225Y011733D03*
X042475Y009731D03*
X042475Y008983D03*
D16*
X039049Y009532D03*
X038301Y009532D03*
X038301Y010382D03*
X039049Y010382D03*
X038299Y011307D03*
X037551Y011307D03*
X037551Y012157D03*
X038299Y012157D03*
X033324Y014357D03*
X032576Y014357D03*
X031774Y014357D03*
X031026Y014357D03*
X029774Y014357D03*
X029026Y014357D03*
X028224Y014357D03*
X027476Y014357D03*
X026074Y014882D03*
X025326Y014882D03*
X024774Y012657D03*
X024026Y012657D03*
X017874Y015932D03*
X017126Y015932D03*
X015778Y014976D03*
X015030Y014976D03*
X012699Y013882D03*
X011951Y013882D03*
X011149Y013882D03*
X010401Y013882D03*
X010976Y012982D03*
X011724Y012982D03*
X012526Y012982D03*
X013274Y012982D03*
X012495Y012208D03*
X011747Y012208D03*
X013351Y011132D03*
X014099Y011132D03*
X014901Y011132D03*
X015649Y011132D03*
X016726Y011214D03*
X017474Y011214D03*
X017474Y010432D03*
X016726Y010432D03*
X012505Y010501D03*
X011757Y010501D03*
X011751Y009720D03*
X012499Y009720D03*
X009549Y008232D03*
X008801Y008232D03*
X008801Y007457D03*
X009549Y007457D03*
X010501Y006482D03*
X011249Y006482D03*
X022501Y004457D03*
X023249Y004457D03*
X030051Y006757D03*
X030799Y006757D03*
X030799Y007532D03*
X030051Y007532D03*
X031601Y007532D03*
X032349Y007532D03*
X032349Y006757D03*
X031601Y006757D03*
X037876Y015707D03*
X038624Y015707D03*
X038624Y016507D03*
X037876Y016507D03*
X044026Y016982D03*
X044774Y016982D03*
X049251Y019932D03*
X049999Y019932D03*
X043424Y020507D03*
X042676Y020507D03*
X045551Y025307D03*
X046299Y025307D03*
X046299Y026082D03*
X045551Y026082D03*
X045551Y027057D03*
X046299Y027057D03*
X046299Y027832D03*
X045551Y027832D03*
X047101Y027832D03*
X047849Y027832D03*
X047449Y028832D03*
X046701Y028832D03*
X045499Y030557D03*
X044751Y030557D03*
X041649Y031482D03*
X040901Y031482D03*
X036424Y030932D03*
X035676Y030932D03*
X033024Y030957D03*
X032276Y030957D03*
X031474Y030957D03*
X030726Y030957D03*
X031826Y027607D03*
X032574Y027607D03*
X032874Y026107D03*
X032126Y026107D03*
X026174Y022407D03*
X025426Y022407D03*
X025226Y020832D03*
X025974Y020832D03*
X025974Y020057D03*
X025226Y020057D03*
X028301Y019907D03*
X029049Y019907D03*
X030451Y020907D03*
X031199Y020907D03*
X031199Y021682D03*
X030451Y021682D03*
X029049Y019132D03*
X028301Y019132D03*
X019674Y018732D03*
X018926Y018732D03*
X017699Y018507D03*
X016951Y018507D03*
X015924Y018507D03*
X015176Y018507D03*
X015176Y019657D03*
X015924Y019657D03*
X016951Y019656D03*
X017699Y019656D03*
X018926Y019657D03*
X019674Y019657D03*
X019674Y020507D03*
X018926Y020507D03*
X017699Y020507D03*
X016951Y020507D03*
X015924Y020507D03*
X015176Y020507D03*
X015176Y021352D03*
X015924Y021352D03*
X016951Y021352D03*
X017699Y021352D03*
X017699Y022332D03*
X018926Y022332D03*
X019674Y022332D03*
X019674Y023182D03*
X018926Y023182D03*
X017699Y023182D03*
X016951Y023182D03*
X015924Y023182D03*
X015176Y023182D03*
X015176Y022332D03*
X015924Y022332D03*
X016951Y022332D03*
X010799Y020932D03*
X010051Y020932D03*
X010051Y019882D03*
X010799Y019882D03*
X010799Y019107D03*
X010051Y019107D03*
X009826Y022457D03*
X010574Y022457D03*
X010574Y023232D03*
X009826Y023232D03*
X009624Y024957D03*
X008876Y024957D03*
X009231Y025907D03*
X009900Y025907D03*
X010569Y025907D03*
X017726Y030707D03*
X018474Y030707D03*
X019276Y030707D03*
X020024Y030707D03*
X055001Y012957D03*
X055749Y012957D03*
X048249Y010657D03*
X047501Y010657D03*
D17*
X044825Y009708D03*
X043550Y009708D03*
X043550Y008606D03*
X044825Y008606D03*
X045425Y012806D03*
X045425Y013908D03*
X044150Y013908D03*
X042875Y013908D03*
X042875Y012806D03*
X044150Y012806D03*
X035500Y028781D03*
X035500Y029883D03*
X027075Y029631D03*
X027075Y030733D03*
D18*
X023805Y028137D03*
X023805Y027887D03*
X023805Y027627D03*
X023805Y027377D03*
X022045Y027377D03*
X022045Y027627D03*
X022045Y027887D03*
X022045Y028137D03*
D19*
X020550Y028317D03*
X020550Y027647D03*
X024025Y026892D03*
X024025Y026222D03*
X026325Y023967D03*
X026325Y023297D03*
X030450Y023222D03*
X030450Y023892D03*
X033915Y018982D03*
X034585Y018982D03*
X045000Y021197D03*
X045000Y021867D03*
X041925Y026097D03*
X041925Y026767D03*
X033875Y029072D03*
X033875Y029742D03*
X029910Y030907D03*
X029240Y030907D03*
X010975Y015642D03*
X010975Y014972D03*
D20*
X018144Y026955D03*
X018400Y026955D03*
X018656Y026955D03*
X018912Y026955D03*
X019168Y026955D03*
X019424Y026955D03*
X019680Y026955D03*
X019936Y026955D03*
X019936Y029159D03*
X019680Y029159D03*
X019424Y029159D03*
X019168Y029159D03*
X018912Y029159D03*
X018656Y029159D03*
X018400Y029159D03*
X018144Y029159D03*
D21*
X014330Y029132D03*
X014330Y028632D03*
X014330Y028132D03*
X014330Y027632D03*
X014330Y027132D03*
X014330Y026632D03*
X010570Y026632D03*
X010570Y027132D03*
X010570Y027632D03*
X010570Y028132D03*
X010570Y028632D03*
X010570Y029132D03*
X010570Y029632D03*
X010570Y030132D03*
X010570Y030632D03*
X014330Y030632D03*
X014330Y030132D03*
X014330Y029632D03*
D22*
X020840Y030707D03*
X021960Y030707D03*
X042465Y031482D03*
X043585Y031482D03*
X045565Y010657D03*
X046685Y010657D03*
D23*
X033862Y009700D02*
X033862Y008815D01*
X031662Y008815D02*
X031662Y009700D01*
X029462Y009700D02*
X029462Y008815D01*
D24*
X031662Y016858D03*
D25*
X026275Y012278D03*
X026275Y011136D03*
X026225Y009653D03*
X026225Y008511D03*
X018775Y011061D03*
X018775Y012203D03*
D26*
X021635Y012997D03*
X021635Y013907D03*
X021635Y014817D03*
X030040Y005717D03*
X030040Y004807D03*
X030040Y003897D03*
D27*
X032310Y004807D03*
X019365Y013907D03*
D28*
X013938Y014684D03*
X013938Y015184D03*
X013938Y015684D03*
X013938Y016184D03*
X011812Y016184D03*
X011812Y015684D03*
X011812Y015184D03*
X011812Y014684D03*
X013612Y010409D03*
X013612Y009909D03*
X013612Y009409D03*
X013612Y008909D03*
X015738Y008909D03*
X015738Y009409D03*
X015738Y009909D03*
X015738Y010409D03*
X022112Y020059D03*
X022112Y020559D03*
X022112Y021059D03*
X022112Y021559D03*
X024238Y021559D03*
X024238Y021059D03*
X024238Y020559D03*
X024238Y020059D03*
X031412Y023784D03*
X031412Y024284D03*
X031412Y024784D03*
X031412Y025284D03*
X033538Y025284D03*
X033538Y024784D03*
X033538Y024284D03*
X033538Y023784D03*
D29*
X040075Y019465D03*
X040449Y018599D03*
X039701Y018599D03*
X031599Y013490D03*
X030851Y013490D03*
X029749Y013515D03*
X029001Y013515D03*
X028074Y013540D03*
X027326Y013540D03*
X027700Y012674D03*
X029375Y012649D03*
X031225Y012624D03*
X018649Y005924D03*
X017901Y005924D03*
X018275Y006790D03*
X010025Y017299D03*
X010399Y018165D03*
X009651Y018165D03*
X010401Y024174D03*
X011149Y024174D03*
X010775Y025040D03*
D30*
X028258Y009556D03*
X027392Y009182D03*
X028258Y008808D03*
X020792Y004481D03*
X020792Y003733D03*
X021658Y004107D03*
X011258Y007308D03*
X010392Y007682D03*
X011258Y008056D03*
X008058Y007082D03*
X007192Y006708D03*
X007192Y007456D03*
D31*
X013698Y004207D03*
X015902Y004207D03*
X021298Y005857D03*
X023502Y005857D03*
X021827Y007682D03*
X019623Y007682D03*
X043073Y015632D03*
X045277Y015632D03*
D32*
X040450Y020207D03*
X039650Y020207D03*
X040050Y021057D03*
X033350Y013482D03*
X032550Y013482D03*
X032950Y012632D03*
D33*
X026070Y014112D03*
X025330Y014112D03*
X025700Y013252D03*
D34*
X020481Y010940D03*
X020481Y009140D03*
X046305Y015282D03*
X046305Y017082D03*
D35*
X048885Y016182D03*
X023061Y010040D03*
D36*
X035549Y009257D03*
X036651Y009257D03*
X057974Y011632D03*
X059076Y011632D03*
X043326Y023632D03*
X043326Y024507D03*
X042224Y024507D03*
X042224Y023632D03*
X025851Y028482D03*
X024749Y028482D03*
D37*
X023955Y029732D03*
X023955Y030232D03*
X023955Y030732D03*
X023955Y031232D03*
X025895Y031232D03*
X025895Y030732D03*
X025895Y030232D03*
X025895Y029732D03*
X031030Y029932D03*
X031030Y029432D03*
X031030Y028932D03*
X031030Y028432D03*
X032970Y028432D03*
X032970Y028932D03*
X032970Y029432D03*
X032970Y029932D03*
D38*
X007832Y023673D03*
D39*
X008832Y023673D03*
X008832Y022673D03*
X007832Y022673D03*
X007832Y021673D03*
X008832Y021673D03*
X008832Y020673D03*
X007832Y020673D03*
X007832Y019673D03*
X008832Y019673D03*
X008832Y018673D03*
X007832Y018673D03*
X007832Y017673D03*
X008832Y017673D03*
X008832Y016673D03*
X007832Y016673D03*
X007832Y015673D03*
X008832Y015673D03*
X008832Y014673D03*
X007832Y014673D03*
X007832Y013673D03*
X008832Y013673D03*
X008832Y012673D03*
X007832Y012673D03*
X007832Y011673D03*
X008832Y011673D03*
D40*
X049699Y012482D03*
D41*
X047163Y011582D03*
X047163Y013382D03*
D42*
X045875Y017931D03*
X045875Y019033D03*
X057900Y013958D03*
X059150Y013958D03*
X059150Y012856D03*
X057900Y012856D03*
X029900Y028131D03*
X029900Y029233D03*
D43*
X040900Y013622D03*
X040900Y011642D03*
X040900Y010572D03*
X040900Y008592D03*
D44*
X043758Y017902D03*
X044014Y017902D03*
X044270Y017902D03*
X044530Y017902D03*
X044786Y017902D03*
X045042Y017902D03*
X045042Y019662D03*
X044786Y019662D03*
X044530Y019662D03*
X044270Y019662D03*
X044014Y019662D03*
X043758Y019662D03*
D45*
X044400Y018782D03*
D46*
X036875Y023632D03*
X034975Y023632D03*
X034975Y026757D03*
X036875Y026757D03*
D47*
X038099Y026657D03*
X039201Y026657D03*
X044449Y024082D03*
X045551Y024082D03*
D48*
X055725Y027322D03*
X055725Y028442D03*
D49*
X034863Y030932D03*
X034036Y030932D03*
D50*
X037575Y030180D03*
X037575Y028684D03*
X042052Y030182D03*
X043548Y030182D03*
X032550Y022180D03*
X032550Y020684D03*
X034550Y018055D03*
X034550Y016559D03*
D51*
X042500Y026112D03*
X042760Y026112D03*
X043020Y026112D03*
X043270Y026112D03*
X043530Y026112D03*
X043780Y026112D03*
X044040Y026112D03*
X044300Y026112D03*
X044300Y028352D03*
X044040Y028352D03*
X043780Y028352D03*
X043530Y028352D03*
X043270Y028352D03*
X043020Y028352D03*
X042760Y028352D03*
X042500Y028352D03*
D52*
X057748Y023982D03*
X057723Y016832D03*
D53*
X060676Y016832D03*
X060701Y023982D03*
D54*
X053725Y023083D03*
X050475Y023083D03*
X050475Y027508D03*
X053725Y027508D03*
D55*
X054624Y025619D03*
X052825Y025619D03*
X051374Y025619D03*
X049575Y025619D03*
X049575Y030044D03*
X051374Y030044D03*
X052825Y030044D03*
X054624Y030044D03*
D56*
X036827Y021445D03*
X036327Y021445D03*
X035827Y021445D03*
X035327Y021445D03*
X035327Y019319D03*
X035827Y019319D03*
X036327Y019319D03*
X036827Y019319D03*
D57*
X024270Y024272D03*
X024270Y024532D03*
X024270Y024792D03*
X023530Y024792D03*
X023530Y024532D03*
X023530Y024272D03*
D58*
X013070Y021942D03*
X012700Y021942D03*
X012330Y021942D03*
X012330Y020922D03*
X012700Y020922D03*
X013070Y020922D03*
D59*
X027455Y021182D03*
X027455Y021682D03*
X027455Y022182D03*
X027455Y022682D03*
X027455Y023182D03*
X027455Y023682D03*
X027455Y024182D03*
X029495Y024182D03*
X029495Y023682D03*
X029495Y023182D03*
X029495Y022682D03*
X029495Y022182D03*
X029495Y021682D03*
X029495Y021182D03*
D60*
X060250Y028882D02*
X061250Y028882D01*
X061250Y030851D02*
X060250Y030851D01*
D61*
X037800Y007737D03*
X037800Y005277D03*
D62*
X055050Y005878D03*
X055050Y007886D03*
X058075Y028853D03*
X058075Y030861D03*
D63*
X008854Y010207D03*
X006846Y010207D03*
D64*
X010425Y011607D03*
D65*
X010425Y009607D03*
D66*
X055525Y014482D03*
X056725Y014482D03*
D67*
X039944Y027819D03*
X039156Y027819D03*
X039156Y029945D03*
X039944Y029945D03*
D68*
X050625Y019932D03*
D69*
X048625Y019932D03*
D70*
X048225Y008799D03*
X048225Y004657D03*
D71*
X056064Y010395D03*
X060985Y010395D03*
X060985Y018269D03*
X056064Y018269D03*
D72*
X043975Y005557D03*
X040775Y005557D03*
D73*
X004867Y003811D02*
X004817Y003882D01*
X004780Y003961D01*
X004757Y004045D01*
X004750Y004132D01*
X004757Y004219D01*
X004780Y004303D01*
X004817Y004382D01*
X004867Y004453D01*
X004928Y004515D01*
X005000Y004565D01*
X005079Y004602D01*
X005163Y004624D01*
X005250Y004632D01*
X005337Y004624D01*
X005421Y004602D01*
X005500Y004565D01*
X005571Y004515D01*
X005633Y004453D01*
X005683Y004382D01*
X005720Y004303D01*
X005742Y004219D01*
X005750Y004132D01*
X005742Y004045D01*
X005720Y003961D01*
X005683Y003882D01*
X005633Y003811D01*
X005571Y003749D01*
X005500Y003699D01*
X005421Y003662D01*
X005337Y003640D01*
X005250Y003632D01*
X005163Y003640D01*
X005079Y003662D01*
X005000Y003699D01*
X004928Y003749D01*
X004867Y003811D01*
X004868Y003809D02*
X005631Y003809D01*
X005666Y003858D02*
X004834Y003858D01*
X004806Y003906D02*
X005694Y003906D01*
X005717Y003955D02*
X004783Y003955D01*
X004769Y004003D02*
X005731Y004003D01*
X005743Y004052D02*
X004757Y004052D01*
X004753Y004100D02*
X005747Y004100D01*
X005748Y004149D02*
X004751Y004149D01*
X004756Y004197D02*
X005744Y004197D01*
X005735Y004246D02*
X004765Y004246D01*
X004778Y004294D02*
X005722Y004294D01*
X005701Y004343D02*
X004799Y004343D01*
X004823Y004391D02*
X005676Y004391D01*
X005643Y004440D02*
X004857Y004440D01*
X004902Y004488D02*
X005598Y004488D01*
X005540Y004537D02*
X004959Y004537D01*
X005043Y004585D02*
X005457Y004585D01*
X005583Y003761D02*
X004917Y003761D01*
X004981Y003712D02*
X005519Y003712D01*
X005424Y003664D02*
X005076Y003664D01*
X061580Y020261D02*
X061617Y020182D01*
X061667Y020111D01*
X061728Y020049D01*
X061800Y019999D01*
X061879Y019962D01*
X061963Y019940D01*
X062050Y019932D01*
X062137Y019940D01*
X062221Y019962D01*
X062300Y019999D01*
X062371Y020049D01*
X062433Y020111D01*
X062483Y020182D01*
X062520Y020261D01*
X062542Y020345D01*
X062550Y020432D01*
X062542Y020519D01*
X062520Y020603D01*
X062483Y020682D01*
X062433Y020753D01*
X062371Y020815D01*
X062300Y020865D01*
X062221Y020902D01*
X062137Y020924D01*
X062050Y020932D01*
X061963Y020924D01*
X061879Y020902D01*
X061800Y020865D01*
X061728Y020815D01*
X061667Y020753D01*
X061617Y020682D01*
X061580Y020603D01*
X061557Y020519D01*
X061550Y020432D01*
X061557Y020345D01*
X061580Y020261D01*
X061585Y020251D02*
X062515Y020251D01*
X062530Y020299D02*
X061570Y020299D01*
X061557Y020348D02*
X062542Y020348D01*
X062547Y020396D02*
X061553Y020396D01*
X061551Y020445D02*
X062549Y020445D01*
X062545Y020493D02*
X061555Y020493D01*
X061564Y020542D02*
X062536Y020542D01*
X062523Y020590D02*
X061577Y020590D01*
X061597Y020639D02*
X062503Y020639D01*
X062479Y020687D02*
X061621Y020687D01*
X061654Y020736D02*
X062445Y020736D01*
X062402Y020784D02*
X061698Y020784D01*
X061754Y020833D02*
X062346Y020833D01*
X062265Y020881D02*
X061835Y020881D01*
X062024Y020930D02*
X062076Y020930D01*
X062492Y020202D02*
X061607Y020202D01*
X061637Y020154D02*
X062463Y020154D01*
X062428Y020105D02*
X061672Y020105D01*
X061721Y020057D02*
X062379Y020057D01*
X062313Y020008D02*
X061787Y020008D01*
X061888Y019960D02*
X062212Y019960D01*
D74*
X058115Y008132D02*
X056934Y008132D01*
X056934Y006479D02*
X058115Y006479D01*
X058115Y004825D02*
X056934Y004825D01*
D75*
X060399Y004825D03*
X060399Y008132D03*
D76*
X042225Y016032D03*
X041825Y016032D03*
X041425Y016032D03*
X041425Y016457D03*
X041825Y016457D03*
X042225Y016457D03*
X042225Y016882D03*
X041825Y016882D03*
X041425Y016882D03*
X025425Y006282D03*
X025425Y005857D03*
X025425Y005432D03*
X025000Y005432D03*
X025000Y005857D03*
X025000Y006282D03*
X024575Y006282D03*
X024575Y005857D03*
X024575Y005432D03*
X020225Y005432D03*
X020225Y005857D03*
X020225Y006282D03*
X019800Y006282D03*
X019800Y005857D03*
X019800Y005432D03*
X019375Y005432D03*
X019375Y005857D03*
X019375Y006282D03*
X016875Y004757D03*
X016875Y004382D03*
X016875Y004007D03*
X016450Y004007D03*
X016450Y004382D03*
X016450Y004757D03*
X013150Y004757D03*
X013150Y004382D03*
X013150Y004007D03*
X012725Y004007D03*
X012725Y004382D03*
X012725Y004757D03*
X041000Y005357D03*
X041000Y005757D03*
X041425Y005757D03*
X041425Y005357D03*
D77*
X052134Y004653D03*
X008040Y004653D03*
X008040Y030637D03*
X047410Y030637D03*
M02*
