%
M48
M72
T01C0.0236
T02C0.0276
T03C0.0315
T04C0.0320
T05C0.0394
T06C0.0433
T07C0.0472
T08C0.0531
T09C0.0590
T10C0.0787
T11C0.1181
T12C0.1260
T13C0.2559
%
T01
X11575Y5807
X12725Y3657
X13150Y3657
X16450Y3657
X16875Y3657
X17725Y7632
X18725Y7632
X15500Y8382
X14600Y9482
X15250Y9907
X17675Y9657
X17925Y10432
X17924Y11232
X16075Y12457
X18425Y12957
X18900Y12957
X18900Y13432
X18425Y13432
X18425Y13907
X18900Y13907
X18900Y14382
X18900Y14857
X18425Y14857
X18425Y14382
X16775Y14982
X16650Y14232
X14675Y15882
X15850Y16257
X15350Y16757
X14675Y17757
X14125Y16757
X13100Y16757
X12225Y16757
X11775Y17257
X11275Y16757
X11050Y16057
X10600Y14982
X13225Y15907
X13300Y17757
X15650Y19132
X13925Y19957
X12975Y19957
X12175Y19957
X11375Y19957
X13400Y20907
X12050Y21807
X12550Y22532
X13325Y22582
X13700Y23682
X15575Y24282
X14900Y24882
X15450Y25457
X13900Y25457
X12950Y25457
X12225Y25532
X12225Y26282
X11250Y26632
X13150Y27107
X13525Y27657
X13175Y28757
X12825Y29132
X12475Y29657
X11250Y28857
X8850Y28282
X7650Y28432
X7850Y26457
X7850Y24732
X10950Y23132
X10975Y22432
X11500Y24182
X16550Y24432
X17300Y24582
X18075Y24607
X18850Y24582
X20400Y24582
X21125Y24607
X21800Y24582
X22625Y24807
X22900Y24032
X23625Y23957
X23750Y23207
X22925Y22982
X23525Y22607
X24225Y22607
X26650Y23182
X28250Y23157
X28925Y22682
X28475Y22082
X30100Y23182
X30450Y24307
X31425Y25582
X32125Y26597
X32875Y26757
X34650Y27957
X33875Y28607
X35925Y27957
X36625Y28382
X36425Y27082
X36425Y26432
X37660Y24832
X39010Y23357
X39410Y23357
X39810Y23357
X40650Y23357
X42065Y24107
X42440Y24107
X41900Y21507
X44025Y20857
X44725Y20432
X44565Y19082
X44965Y19082
X44965Y18682
X44565Y18682
X44165Y18682
X44165Y19082
X43765Y19082
X43765Y18682
X43365Y18682
X43365Y19082
X40675Y19532
X38400Y20207
X36075Y20382
X34600Y20332
X32550Y20257
X31925Y21257
X31375Y20432
X29775Y19257
X28975Y18682
X27725Y18257
X26925Y17257
X26625Y16757
X28100Y16757
X28975Y16757
X29450Y16232
X30025Y15632
X28475Y15957
X27725Y15632
X26775Y15957
X26500Y14757
X24775Y14982
X23900Y15107
X23900Y16232
X22975Y16757
X22225Y17257
X23775Y17757
X24750Y18257
X25525Y19057
X23100Y19382
X22225Y18982
X21350Y20532
X20100Y20507
X18100Y20507
X18100Y18607
X17575Y17757
X16600Y16757
X19375Y16757
X25150Y16757
X29875Y16757
X33350Y15532
X33350Y14782
X34275Y13732
X32825Y13482
X31900Y13457
X30675Y12207
X30050Y13507
X30200Y14332
X28450Y13507
X27175Y12107
X26250Y13457
X25575Y11332
X24250Y11257
X24250Y10757
X23750Y10757
X23750Y11257
X23750Y10257
X24250Y10257
X24250Y9757
X24250Y9257
X23750Y9257
X23750Y9757
X23750Y8757
X24250Y8757
X26600Y7607
X27150Y8282
X29625Y7107
X26600Y6032
X25550Y7032
X35550Y10107
X36700Y9807
X36700Y8732
X39950Y9407
X43750Y10497
X44150Y10497
X44550Y10497
X44950Y10497
X44950Y10897
X44950Y11297
X44550Y11297
X44550Y10897
X44150Y10897
X44150Y11297
X43750Y11297
X43750Y10897
X47075Y9932
X47475Y9932
X47850Y9932
X48250Y9932
X48625Y9932
X49025Y9932
X49400Y9932
X49800Y9932
X49800Y9532
X49800Y9132
X49800Y8732
X49800Y8332
X49400Y8332
X49400Y8732
X49400Y9132
X49400Y9532
X47075Y9532
X47075Y9157
X47075Y8757
X47075Y8357
X48600Y11082
X49000Y11482
X49400Y11082
X49800Y11482
X50175Y11082
X50575Y11482
X50175Y11882
X49800Y12282
X50175Y12682
X49800Y13082
X50175Y13482
X50575Y13082
X50575Y12282
X49400Y11882
X49000Y12282
X49400Y12682
X49000Y13082
X49400Y13482
X48600Y13482
X48200Y13082
X48600Y12682
X48200Y12282
X48600Y11882
X48200Y11482
X48225Y13907
X48225Y14282
X48625Y14282
X48625Y13907
X49025Y13907
X49025Y14282
X49425Y14282
X49425Y13907
X49825Y13907
X49825Y14282
X50225Y14282
X50225Y13907
X50625Y13907
X50625Y14282
X47825Y14282
X47825Y13907
X44625Y15632
X44150Y16207
X46390Y19032
X49650Y22157
X50075Y22157
X50500Y22157
X50925Y22157
X51350Y22157
X51350Y22582
X51350Y23007
X51350Y23432
X50925Y23432
X50925Y23007
X50925Y22582
X50500Y22582
X50500Y23007
X50500Y23432
X50075Y23432
X50075Y23007
X50075Y22582
X49650Y22582
X49650Y23007
X49650Y23432
X52875Y23482
X53300Y23482
X53725Y23482
X54150Y23482
X54575Y23482
X54575Y23057
X54575Y22632
X54575Y22207
X54150Y22207
X54150Y22632
X54150Y23057
X53725Y23057
X53725Y22632
X53725Y22207
X53300Y22207
X53300Y22632
X53300Y23057
X52875Y23057
X52875Y22632
X52875Y22207
X52875Y26632
X53300Y26632
X53725Y26632
X54150Y26632
X54575Y26632
X54575Y27057
X54575Y27482
X54575Y27907
X54150Y27907
X54150Y27482
X54150Y27057
X53725Y27057
X53725Y27482
X53725Y27907
X53300Y27907
X53300Y27482
X53300Y27057
X52875Y27057
X52875Y27482
X52875Y27907
X51325Y27907
X51325Y27482
X51325Y27057
X50900Y27057
X50900Y27482
X50900Y27907
X50475Y27907
X50475Y27482
X50475Y27057
X50050Y27057
X50050Y27482
X50050Y27907
X49625Y27907
X49625Y27482
X49625Y27057
X49625Y26632
X50050Y26632
X50475Y26632
X50900Y26632
X51325Y26632
X45125Y26957
X44000Y26732
X43525Y26732
X43050Y26732
X43050Y27232
X43525Y27232
X44000Y27232
X44000Y27732
X43525Y27732
X43050Y27732
X41925Y27157
X40385Y27632
X40385Y28032
X39325Y28532
X36850Y30857
X33025Y30482
X30350Y30357
X28800Y29957
X27625Y28907
X26350Y28482
X25700Y27657
X26925Y26557
X24375Y26232
X23250Y25932
X23500Y25032
X24250Y25057
X26325Y24357
X21900Y27107
X20550Y27257
X20350Y26707
X19800Y26082
X20050Y27882
X19525Y27882
X19000Y28432
X20750Y29082
X21650Y29657
X21275Y30032
X20400Y29857
X22950Y29932
X23100Y29082
X21875Y28407
X17750Y29557
X16550Y29132
X16925Y28757
X15450Y28182
X15450Y29657
X15300Y30157
X16200Y30257
X15800Y30882
X15250Y30907
X12225Y30657
X10525Y31282
X16875Y26957
X27075Y30257
X29375Y28132
X30925Y28132
X35325Y23982
X35325Y23332
X32350Y23032
X31200Y22157
X29125Y20882
X28450Y20382
X27725Y20707
X31375Y18982
X34550Y16132
X38425Y22882
X43775Y28932
X59715Y15957
X59715Y15582
X59715Y15207
X59715Y14832
X57315Y15032
X12925Y11857
X11775Y11532
X11325Y10557
X11325Y9757
X10425Y9607
X11525Y8907
X10950Y8732
X12050Y8382
X8850Y9607
X8850Y10807
X6675Y10807
X6675Y9632
X9925Y12857
T02
X19375Y6282
X19800Y6282
X20225Y6282
X20225Y5857
X20225Y5432
X19800Y5432
X19800Y5857
X19375Y5857
X19375Y5432
X16875Y4757
X16875Y4382
X16875Y4007
X16450Y4007
X16450Y4382
X16450Y4757
X13150Y4757
X13150Y4382
X13150Y4007
X12725Y4007
X12725Y4382
X12725Y4757
X24575Y5432
X25000Y5432
X25425Y5432
X25425Y5857
X25425Y6282
X25000Y6282
X25000Y5857
X24575Y5857
X24575Y6282
X41000Y5757
X41000Y5357
X41425Y5357
X41425Y5757
X41425Y16032
X41825Y16032
X42225Y16032
X42225Y16457
X41825Y16457
X41425Y16457
X41425Y16882
X41825Y16882
X42225Y16882
T03
X50625Y19932
T04
X48625Y19932
T05
X8832Y19673
X7832Y19673
X7832Y20673
X8832Y20673
X8832Y21673
X7832Y21673
X7832Y22673
X8832Y22673
X8832Y23673
X7832Y23673
X7832Y18673
X8832Y18673
X8832Y17673
X7832Y17673
X7832Y16673
X8832Y16673
X8832Y15673
X7832Y15673
X7832Y14673
X8832Y14673
X8832Y13673
X7832Y13673
X7832Y12673
X8832Y12673
X8832Y11673
X7832Y11673
T06
X10425Y11607
X57723Y16832
X60676Y16832
X60701Y23982
X57748Y23982
T07
X56064Y18269
X60985Y18269
X60985Y10395
X56064Y10395
T08
X60750Y28882
X60750Y30851
T09
X33862Y9258
X31662Y9258
X29462Y9258
T10
X57525Y8132
X57525Y6479
X57525Y4825
T11
X60399Y4825
X60399Y8132
T12
X8040Y4653
X52134Y4653
X47410Y30637
X8040Y30637
T13
X31662Y16858
M30
