G75*
G70*
%OFA0B0*%
%FSLAX24Y24*%
%IPPOS*%
%LPD*%
%AMOC8*
5,1,8,0,0,1.08239X$1,22.5*
%
%ADD10R,0.0591X0.0472*%
%ADD11R,0.0433X0.0394*%
%ADD12R,0.0591X0.0512*%
%ADD13R,0.0512X0.0591*%
%ADD14R,0.0709X0.0630*%
%ADD15R,0.0680X0.0190*%
%ADD16R,0.0138X0.0630*%
%ADD17R,0.1000X0.0220*%
%ADD18R,0.0394X0.0433*%
%ADD19C,0.0885*%
%ADD20R,0.0472X0.0591*%
%ADD21R,0.0750X0.0450*%
%ADD22R,0.1250X0.2000*%
%ADD23R,0.0610X0.0236*%
%ADD24R,0.0394X0.0551*%
%ADD25R,0.0551X0.0394*%
%ADD26R,0.0709X0.1260*%
%ADD27R,0.0220X0.0600*%
%ADD28R,0.0220X0.0520*%
%ADD29R,0.0980X0.0370*%
%ADD30R,0.2570X0.2650*%
%ADD31R,0.0748X0.1339*%
%ADD32R,0.0780X0.0220*%
%ADD33R,0.0594X0.0594*%
%ADD34OC8,0.0594*%
%ADD35R,0.1063X0.0630*%
%ADD36R,0.0630X0.0710*%
%ADD37R,0.2244X0.2165*%
%ADD38R,0.0669X0.0512*%
%ADD39R,0.1200X0.0600*%
%ADD40R,0.0180X0.0500*%
%ADD41R,0.1160X0.0690*%
%ADD42R,0.0630X0.0709*%
%ADD43R,0.1280X0.0300*%
%ADD44R,0.0630X0.1063*%
%ADD45R,0.0710X0.0630*%
%ADD46R,0.0472X0.0472*%
%ADD47R,0.0551X0.0551*%
%ADD48R,0.0140X0.0560*%
%ADD49C,0.1236*%
%ADD50OC8,0.1236*%
%ADD51R,0.2165X0.2244*%
%ADD52R,0.0512X0.0669*%
%ADD53R,0.0236X0.0610*%
%ADD54R,0.0460X0.0140*%
%ADD55R,0.0220X0.0500*%
%ADD56R,0.0866X0.0236*%
%ADD57C,0.1000*%
%ADD58R,0.0430X0.1600*%
%ADD59R,0.0866X0.0709*%
%ADD60R,0.0709X0.0866*%
%ADD61OC8,0.0860*%
%ADD62R,0.0436X0.0436*%
%ADD63R,0.1457X0.0827*%
%ADD64R,0.0827X0.1457*%
%ADD65R,0.0551X0.0827*%
%ADD66OC8,0.0560*%
%ADD67OC8,0.0520*%
%ADD68R,0.1772X0.1673*%
%ADD69C,0.1000*%
%ADD70R,0.1640X0.0470*%
%ADD71C,0.0400*%
%ADD72R,0.0396X0.0396*%
%ADD73OC8,0.0396*%
%ADD74C,0.0120*%
%ADD75C,0.0160*%
%ADD76C,0.0100*%
%ADD77C,0.0400*%
%ADD78C,0.0240*%
%ADD79C,0.0140*%
%ADD80C,0.0320*%
%ADD81R,0.0436X0.0436*%
%ADD82C,0.0200*%
%ADD83C,0.0660*%
%ADD84C,0.2165*%
%ADD85C,0.0500*%
%ADD86C,0.1200*%
%ADD87C,0.0180*%
%ADD88C,0.0080*%
%ADD89C,0.0560*%
D10*
X016975Y010423D03*
X018117Y010423D03*
X018142Y011523D03*
X017000Y011523D03*
X027225Y016598D03*
X028367Y016598D03*
X028342Y018973D03*
X027200Y018973D03*
X041375Y015148D03*
X042517Y015148D03*
X030367Y002573D03*
X029225Y002573D03*
X027517Y001848D03*
X026375Y001848D03*
X029225Y001723D03*
X030367Y001723D03*
D11*
X019381Y007348D03*
X018711Y007348D03*
X014556Y006298D03*
X013886Y006298D03*
X016736Y013598D03*
X017406Y013598D03*
X024136Y016748D03*
X024806Y016748D03*
X025636Y019598D03*
X026306Y019598D03*
X026556Y024173D03*
X025886Y024173D03*
X026811Y025023D03*
X027481Y025023D03*
X022156Y027298D03*
X021486Y027298D03*
X020856Y027298D03*
X020186Y027298D03*
X017106Y028573D03*
X016436Y028573D03*
X035546Y019483D03*
X035546Y018813D03*
D12*
X037196Y018872D03*
X037196Y018124D03*
X040521Y016822D03*
X040521Y016074D03*
X040521Y015272D03*
X040521Y014524D03*
X043246Y016149D03*
X044021Y016149D03*
X044021Y016897D03*
X043246Y016897D03*
X043246Y017699D03*
X044021Y017699D03*
X044021Y018447D03*
X043246Y018447D03*
X044796Y018674D03*
X045571Y018674D03*
X045571Y019422D03*
X044796Y019422D03*
X046346Y019422D03*
X047121Y019422D03*
X047121Y018674D03*
X046346Y018674D03*
X048096Y018147D03*
X048096Y017399D03*
X048421Y019354D03*
X048421Y020023D03*
X048421Y020692D03*
X043521Y021149D03*
X042746Y021149D03*
X041971Y021149D03*
X041196Y021149D03*
X041196Y021897D03*
X041971Y021897D03*
X042746Y021897D03*
X043521Y021897D03*
X043721Y023499D03*
X043721Y024247D03*
X043821Y025924D03*
X043821Y026672D03*
X047121Y026299D03*
X047946Y026299D03*
X047946Y027047D03*
X047121Y027047D03*
X040321Y022947D03*
X040321Y022199D03*
X038746Y026174D03*
X038746Y026922D03*
X035996Y027147D03*
X035996Y026399D03*
X031746Y023172D03*
X030971Y023172D03*
X030971Y022424D03*
X031746Y022424D03*
X029571Y022424D03*
X028796Y022424D03*
X028796Y023172D03*
X029571Y023172D03*
X024071Y023147D03*
X023296Y023147D03*
X022521Y023147D03*
X021746Y023147D03*
X020971Y023147D03*
X020196Y023147D03*
X019421Y023147D03*
X018671Y023147D03*
X018671Y022399D03*
X019421Y022399D03*
X020196Y022399D03*
X020971Y022399D03*
X021746Y022399D03*
X022521Y022399D03*
X023296Y022399D03*
X024071Y022399D03*
X023021Y020522D03*
X023021Y019774D03*
X023021Y018622D03*
X023021Y017874D03*
X023021Y017077D03*
X023021Y016329D03*
X025296Y011772D03*
X026071Y011772D03*
X026071Y011024D03*
X025296Y011024D03*
X029471Y008747D03*
X029471Y007999D03*
X028721Y004572D03*
X029621Y004547D03*
X030396Y004547D03*
X030396Y003799D03*
X029621Y003799D03*
X028721Y003824D03*
X020971Y006874D03*
X020971Y007622D03*
X016896Y005172D03*
X016071Y005172D03*
X015271Y005172D03*
X014471Y005172D03*
X014471Y004424D03*
X015271Y004424D03*
X016071Y004424D03*
X016896Y004424D03*
X016896Y003622D03*
X016071Y003622D03*
X016071Y002874D03*
X016896Y002874D03*
X019321Y003324D03*
X019321Y004072D03*
X008496Y004074D03*
X008496Y004822D03*
X007721Y004822D03*
X007721Y004074D03*
X007721Y005624D03*
X007721Y006372D03*
X008496Y006372D03*
X008496Y005624D03*
X016121Y010499D03*
X016121Y011247D03*
X013721Y015699D03*
X013721Y016447D03*
X008846Y025674D03*
X008846Y026422D03*
X025071Y027749D03*
X025071Y028497D03*
X040521Y010597D03*
X040521Y009849D03*
X041471Y010097D03*
X041471Y009349D03*
X044596Y006797D03*
X044596Y006049D03*
X055821Y005597D03*
X055821Y004849D03*
D13*
X050370Y008023D03*
X049622Y008023D03*
X041120Y007098D03*
X040372Y007098D03*
X033920Y004898D03*
X033172Y004898D03*
X032370Y004898D03*
X031622Y004898D03*
X031622Y004123D03*
X032370Y004123D03*
X033172Y004123D03*
X033920Y004123D03*
X025370Y001823D03*
X024622Y001823D03*
X019445Y005805D03*
X018697Y005805D03*
X018697Y006573D03*
X019445Y006573D03*
X017770Y008373D03*
X017022Y008373D03*
X016220Y008373D03*
X015472Y008373D03*
X014626Y007867D03*
X013878Y007867D03*
X013872Y007086D03*
X014620Y007086D03*
X011670Y005598D03*
X010922Y005598D03*
X010922Y004823D03*
X011670Y004823D03*
X012622Y003848D03*
X013370Y003848D03*
X014776Y009522D03*
X015524Y009522D03*
X014820Y010448D03*
X014072Y010448D03*
X014072Y011248D03*
X014820Y011248D03*
X013270Y011248D03*
X012522Y011248D03*
X017151Y012342D03*
X017899Y012342D03*
X019247Y013298D03*
X019995Y013298D03*
X019820Y015873D03*
X019072Y015873D03*
X018045Y015873D03*
X017297Y015873D03*
X017297Y017023D03*
X018045Y017023D03*
X019072Y017022D03*
X019820Y017022D03*
X021047Y017023D03*
X021795Y017023D03*
X021795Y017873D03*
X021047Y017873D03*
X019820Y017873D03*
X019072Y017873D03*
X019072Y018718D03*
X019820Y018718D03*
X019820Y019698D03*
X019072Y019698D03*
X019072Y020548D03*
X019820Y020548D03*
X021047Y020548D03*
X021795Y020548D03*
X021795Y019698D03*
X021047Y019698D03*
X018045Y019698D03*
X017297Y019698D03*
X017297Y020548D03*
X018045Y020548D03*
X018045Y018718D03*
X017297Y018718D03*
X017297Y017873D03*
X018045Y017873D03*
X021047Y016098D03*
X021795Y016098D03*
X027347Y017423D03*
X028095Y017423D03*
X028095Y018198D03*
X027347Y018198D03*
X027547Y019773D03*
X028295Y019773D03*
X032547Y018598D03*
X033295Y018598D03*
X033295Y017823D03*
X032547Y017823D03*
X031170Y017273D03*
X030422Y017273D03*
X030422Y016498D03*
X031170Y016498D03*
X034697Y020373D03*
X035445Y020373D03*
X034995Y023473D03*
X034247Y023473D03*
X033947Y024973D03*
X034695Y024973D03*
X034397Y028323D03*
X035145Y028323D03*
X033595Y028323D03*
X032847Y028323D03*
X037797Y028298D03*
X038545Y028298D03*
X042847Y028848D03*
X043595Y028848D03*
X046697Y027923D03*
X047445Y027923D03*
X047497Y025248D03*
X048245Y025248D03*
X048245Y024473D03*
X047497Y024473D03*
X047497Y023448D03*
X048245Y023448D03*
X048245Y022673D03*
X047497Y022673D03*
X045545Y017873D03*
X044797Y017873D03*
X038745Y015848D03*
X037997Y015848D03*
X040647Y013473D03*
X041395Y013473D03*
X046147Y014348D03*
X046895Y014348D03*
X051372Y017298D03*
X052120Y017298D03*
X035095Y011773D03*
X034347Y011773D03*
X033520Y010348D03*
X032772Y010348D03*
X031895Y011723D03*
X031147Y011723D03*
X030345Y011723D03*
X029597Y011723D03*
X028195Y012248D03*
X027447Y012248D03*
X026895Y010023D03*
X026147Y010023D03*
X012920Y016473D03*
X012172Y016473D03*
X012172Y017248D03*
X012920Y017248D03*
X012920Y018298D03*
X012172Y018298D03*
X011947Y019823D03*
X012695Y019823D03*
X012695Y020598D03*
X011947Y020598D03*
X011745Y022323D03*
X010997Y022323D03*
X011502Y023273D03*
X012171Y023273D03*
X012840Y023273D03*
X020022Y028073D03*
X020770Y028073D03*
X021572Y028073D03*
X022320Y028073D03*
X023122Y028073D03*
X023870Y028073D03*
D14*
X029046Y028249D03*
X029046Y027147D03*
X032021Y026599D03*
X032021Y025497D03*
X047996Y016399D03*
X047996Y015297D03*
X060021Y011324D03*
X061271Y011324D03*
X061271Y010222D03*
X060021Y010222D03*
D15*
X025926Y024743D03*
X025926Y024993D03*
X025926Y025253D03*
X025926Y025503D03*
X024166Y025503D03*
X024166Y025253D03*
X024166Y024993D03*
X024166Y024743D03*
D16*
X022057Y024321D03*
X021801Y024321D03*
X021545Y024321D03*
X021289Y024321D03*
X021033Y024321D03*
X020777Y024321D03*
X020522Y024321D03*
X020266Y024321D03*
X020266Y026525D03*
X020522Y026525D03*
X020777Y026525D03*
X021033Y026525D03*
X021289Y026525D03*
X021545Y026525D03*
X021801Y026525D03*
X022057Y026525D03*
D17*
X016451Y026498D03*
X016451Y025998D03*
X016451Y025498D03*
X016451Y024998D03*
X016451Y024498D03*
X016451Y023998D03*
X012691Y023998D03*
X012691Y024498D03*
X012691Y024998D03*
X012691Y025498D03*
X012691Y025998D03*
X012691Y026498D03*
X012691Y026998D03*
X012691Y027498D03*
X012691Y027998D03*
X016451Y027998D03*
X016451Y027498D03*
X016451Y026998D03*
D18*
X022671Y025683D03*
X022671Y025013D03*
X028446Y021333D03*
X028446Y020663D03*
X032571Y020588D03*
X032571Y021258D03*
X036536Y016098D03*
X037206Y016098D03*
X032031Y028273D03*
X031361Y028273D03*
X013096Y013008D03*
X013096Y012338D03*
D19*
X031627Y007041D02*
X031627Y006156D01*
X033827Y006156D02*
X033827Y007041D01*
X036027Y007041D02*
X036027Y006156D01*
D20*
X028346Y005877D03*
X028346Y007019D03*
X028396Y008502D03*
X028396Y009644D03*
X020896Y009569D03*
X020896Y008427D03*
D21*
X023306Y010363D03*
X023306Y011273D03*
X023306Y012183D03*
X031636Y003158D03*
X031636Y002248D03*
X031636Y001338D03*
D22*
X033906Y002248D03*
X021036Y011273D03*
D23*
X016059Y012050D03*
X016059Y012550D03*
X016059Y013050D03*
X016059Y013550D03*
X013933Y013550D03*
X013933Y013050D03*
X013933Y012550D03*
X013933Y012050D03*
X015733Y007650D03*
X015733Y007150D03*
X015733Y006650D03*
X015733Y006150D03*
X017859Y006150D03*
X017859Y006650D03*
X017859Y007150D03*
X017859Y007650D03*
X024233Y017425D03*
X024233Y017925D03*
X024233Y018425D03*
X024233Y018925D03*
X026359Y018925D03*
X026359Y018425D03*
X026359Y017925D03*
X026359Y017425D03*
X033533Y021150D03*
X033533Y021650D03*
X033533Y022150D03*
X033533Y022650D03*
X035659Y022650D03*
X035659Y022150D03*
X035659Y021650D03*
X035659Y021150D03*
D24*
X041796Y016831D03*
X041422Y015965D03*
X042170Y015965D03*
X035120Y010781D03*
X034372Y010781D03*
X034746Y009915D03*
X031895Y010856D03*
X031147Y010856D03*
X030345Y010856D03*
X029597Y010856D03*
X029971Y009990D03*
X031521Y009990D03*
X020396Y004156D03*
X020022Y003290D03*
X020770Y003290D03*
X012146Y014665D03*
X011772Y015531D03*
X012520Y015531D03*
X012522Y021540D03*
X013270Y021540D03*
X012896Y022406D03*
D25*
X030379Y006922D03*
X029513Y006548D03*
X030379Y006174D03*
X022913Y001847D03*
X023779Y001473D03*
X022913Y001099D03*
X013379Y004674D03*
X012513Y005048D03*
X013379Y005422D03*
X010179Y004448D03*
X009313Y004074D03*
X009313Y004822D03*
D26*
X015469Y001573D03*
X017673Y001573D03*
X023419Y003223D03*
X025623Y003223D03*
X023948Y005048D03*
X021744Y005048D03*
X045119Y012148D03*
X047323Y012148D03*
D27*
X042196Y017573D03*
X041396Y017573D03*
X041796Y018423D03*
X033171Y012048D03*
X032771Y011198D03*
X033571Y011198D03*
D28*
X028191Y011478D03*
X027451Y011478D03*
X027821Y010618D03*
D29*
X022603Y008306D03*
X022603Y006506D03*
X048426Y011898D03*
X048426Y013698D03*
D30*
X051006Y012798D03*
X025183Y007406D03*
D31*
X036403Y010198D03*
X037939Y010198D03*
X037928Y006298D03*
X039464Y006298D03*
D32*
X035091Y025798D03*
X035091Y026298D03*
X035091Y026798D03*
X035091Y027298D03*
X033151Y027298D03*
X033151Y026798D03*
X033151Y026298D03*
X033151Y025798D03*
X028016Y027098D03*
X028016Y027598D03*
X028016Y028098D03*
X028016Y028598D03*
X026076Y028598D03*
X026076Y028098D03*
X026076Y027598D03*
X026076Y027098D03*
D33*
X009953Y021014D03*
D34*
X010953Y021014D03*
X010953Y020014D03*
X009953Y020014D03*
X009953Y019014D03*
X010953Y019014D03*
X010953Y018014D03*
X009953Y018014D03*
X009953Y017014D03*
X010953Y017014D03*
X010953Y016014D03*
X009953Y016014D03*
X009953Y015014D03*
X010953Y015014D03*
X010953Y014014D03*
X009953Y014014D03*
X009953Y013014D03*
X010953Y013014D03*
X010953Y012014D03*
X009953Y012014D03*
X009953Y011014D03*
X010953Y011014D03*
X010953Y010014D03*
X009953Y010014D03*
X009953Y009014D03*
X010953Y009014D03*
D35*
X037621Y026147D03*
X037621Y027249D03*
X044921Y010724D03*
X046196Y010724D03*
X047471Y010724D03*
X047471Y009622D03*
X046196Y009622D03*
X044921Y009622D03*
X045671Y006774D03*
X046946Y006774D03*
X046946Y005672D03*
X045671Y005672D03*
D36*
X047686Y008023D03*
X048806Y008023D03*
X045606Y028848D03*
X044486Y028848D03*
D37*
X051820Y009848D03*
D38*
X049285Y008948D03*
X049285Y010748D03*
D39*
X043021Y010988D03*
X043021Y009008D03*
X043021Y007938D03*
X043021Y005958D03*
D40*
X045879Y015268D03*
X046135Y015268D03*
X046391Y015268D03*
X046651Y015268D03*
X046907Y015268D03*
X047163Y015268D03*
X047163Y017028D03*
X046907Y017028D03*
X046651Y017028D03*
X046391Y017028D03*
X046135Y017028D03*
X045879Y017028D03*
D41*
X046521Y016148D03*
D42*
X040497Y008973D03*
X039395Y008973D03*
X040395Y008048D03*
X041497Y008048D03*
X060095Y008998D03*
X061197Y008998D03*
X028047Y025848D03*
X026945Y025848D03*
D43*
X037096Y024123D03*
X038996Y024123D03*
X038996Y020998D03*
X037096Y020998D03*
D44*
X040220Y024023D03*
X041322Y024023D03*
X044345Y021573D03*
X045447Y021573D03*
X046370Y021448D03*
X047472Y021448D03*
D45*
X057846Y024688D03*
X057846Y025808D03*
D46*
X036985Y028298D03*
X036158Y028298D03*
D47*
X039696Y027546D03*
X039696Y026050D03*
X043998Y027548D03*
X045494Y027548D03*
X034671Y019546D03*
X034671Y018050D03*
X037146Y015371D03*
X037146Y013875D03*
D48*
X044446Y023478D03*
X044706Y023478D03*
X044966Y023478D03*
X045216Y023478D03*
X045476Y023478D03*
X045726Y023478D03*
X045986Y023478D03*
X046246Y023478D03*
X046246Y025718D03*
X045986Y025718D03*
X045726Y025718D03*
X045476Y025718D03*
X045216Y025718D03*
X044966Y025718D03*
X044706Y025718D03*
X044446Y025718D03*
D49*
X059870Y021348D03*
X059845Y014198D03*
D50*
X062798Y014198D03*
X062823Y021348D03*
D51*
X055846Y020449D03*
X052596Y020449D03*
X052596Y024874D03*
X055846Y024874D03*
D52*
X054947Y022984D03*
X056746Y022984D03*
X053496Y022984D03*
X051697Y022984D03*
X051697Y027409D03*
X053496Y027409D03*
X054947Y027409D03*
X056746Y027409D03*
D53*
X039423Y018811D03*
X038923Y018811D03*
X038423Y018811D03*
X037923Y018811D03*
X037923Y016685D03*
X038423Y016685D03*
X038923Y016685D03*
X039423Y016685D03*
D54*
X026391Y021638D03*
X026391Y021898D03*
X026391Y022158D03*
X025651Y022158D03*
X025651Y021898D03*
X025651Y021638D03*
D55*
X015191Y019308D03*
X014821Y019308D03*
X014451Y019308D03*
X014451Y018288D03*
X014821Y018288D03*
X015191Y018288D03*
D56*
X029576Y018548D03*
X029576Y019048D03*
X029576Y019548D03*
X029576Y020048D03*
X029576Y020548D03*
X029576Y021048D03*
X029576Y021548D03*
X031616Y021548D03*
X031616Y021048D03*
X031616Y020548D03*
X031616Y020048D03*
X031616Y019548D03*
X031616Y019048D03*
X031616Y018548D03*
D57*
X060196Y026219D02*
X062886Y026219D01*
X063371Y026248D02*
X062371Y026248D01*
X062371Y028217D02*
X063371Y028217D01*
X062925Y028227D02*
X060196Y028227D01*
X062371Y005760D02*
X063371Y005760D01*
X063371Y003792D02*
X062371Y003792D01*
X062371Y001823D02*
X063371Y001823D01*
D58*
X039596Y001668D03*
X039596Y004128D03*
D59*
X060046Y003619D03*
X060046Y005627D03*
X060196Y026219D03*
X060196Y028227D03*
D60*
X010975Y007573D03*
X008967Y007573D03*
D61*
X012546Y009123D03*
X037121Y003948D03*
D62*
X037121Y001948D03*
X012546Y007123D03*
D63*
X056296Y003873D03*
D64*
X056921Y005373D03*
D65*
X042065Y025185D03*
X041277Y025185D03*
X041277Y027311D03*
X042065Y027311D03*
D66*
X052746Y017298D03*
D67*
X050746Y017298D03*
D68*
X050346Y006165D03*
X050346Y002023D03*
D69*
X058185Y007761D03*
X063107Y007761D03*
X063107Y015635D03*
X058185Y015635D03*
D70*
X045971Y002923D03*
X042771Y002923D03*
D71*
X007371Y001498D03*
X064171Y017798D03*
D72*
X061836Y013323D03*
X061836Y012948D03*
X061836Y012573D03*
X061836Y012198D03*
X057311Y011273D03*
X052746Y011273D03*
X052746Y011648D03*
X052346Y011648D03*
X052346Y011273D03*
X051946Y011273D03*
X051946Y011648D03*
X051546Y011648D03*
X051546Y011273D03*
X051146Y011273D03*
X051146Y011648D03*
X050746Y011648D03*
X050746Y011273D03*
X050346Y011273D03*
X050346Y011648D03*
X049946Y011648D03*
X049946Y011273D03*
X050721Y010848D03*
X050321Y010448D03*
X050721Y010048D03*
X050321Y009648D03*
X050721Y009248D03*
X050321Y008848D03*
X050721Y008448D03*
X051121Y008848D03*
X051521Y008448D03*
X051921Y008848D03*
X052296Y008448D03*
X052696Y008848D03*
X052296Y009248D03*
X051921Y009648D03*
X052296Y010048D03*
X051921Y010448D03*
X052296Y010848D03*
X052696Y010448D03*
X052696Y009648D03*
X051521Y009248D03*
X051121Y009648D03*
X051521Y010048D03*
X051121Y010448D03*
X051521Y010848D03*
X047071Y008663D03*
X046671Y008663D03*
X046271Y008663D03*
X045871Y008663D03*
X045871Y008263D03*
X045871Y007863D03*
X046271Y007863D03*
X046271Y008263D03*
X046671Y008263D03*
X046671Y007863D03*
X047071Y007863D03*
X047071Y008263D03*
X049196Y007298D03*
X049196Y006898D03*
X049196Y006523D03*
X049196Y006123D03*
X049196Y005723D03*
X051521Y005698D03*
X051521Y006098D03*
X051521Y006498D03*
X051521Y006898D03*
X051521Y007298D03*
X051146Y007298D03*
X050746Y007298D03*
X050371Y007298D03*
X049971Y007298D03*
X049596Y007298D03*
X051921Y007298D03*
X051921Y006898D03*
X051921Y006498D03*
X051921Y006098D03*
X051921Y005698D03*
X039996Y002098D03*
X039996Y001748D03*
X039996Y001398D03*
X031171Y004898D03*
X026371Y006123D03*
X025871Y006123D03*
X025871Y006623D03*
X026371Y006623D03*
X026371Y007123D03*
X025871Y007123D03*
X025871Y007623D03*
X026371Y007623D03*
X026371Y008123D03*
X025871Y008123D03*
X025871Y008623D03*
X026371Y008623D03*
X020571Y010323D03*
X020096Y010323D03*
X020096Y010798D03*
X020571Y010798D03*
X020571Y011273D03*
X020096Y011273D03*
X020096Y011748D03*
X020096Y012223D03*
X020571Y012223D03*
X020571Y011748D03*
X013446Y007923D03*
X013446Y007123D03*
X013896Y005923D03*
X014496Y005573D03*
X010971Y006973D03*
X010971Y008173D03*
X008446Y007673D03*
X008446Y007298D03*
X014496Y001023D03*
X014921Y001023D03*
X018221Y001023D03*
X018646Y001023D03*
X019896Y005823D03*
X019896Y006573D03*
X019771Y007348D03*
X033271Y011198D03*
X037396Y010398D03*
X037396Y010023D03*
X037146Y013448D03*
X039171Y015873D03*
X038671Y017748D03*
X037196Y017698D03*
X034221Y018023D03*
X033296Y019073D03*
X034271Y020348D03*
X032571Y021673D03*
X033546Y022948D03*
X034246Y023963D03*
X033046Y025498D03*
X031496Y025498D03*
X028046Y026398D03*
X027321Y027648D03*
X025071Y027298D03*
X022521Y027223D03*
X019871Y026923D03*
X017371Y028273D03*
X013371Y026223D03*
X013371Y023998D03*
X013621Y021548D03*
X013096Y019798D03*
X019421Y021948D03*
X020971Y021948D03*
X022521Y021948D03*
X023921Y021948D03*
X026371Y022423D03*
X028446Y021723D03*
X025646Y019973D03*
X022221Y017873D03*
X025221Y016748D03*
X031221Y016048D03*
X037446Y020698D03*
X037446Y021348D03*
X039806Y022198D03*
X041131Y020723D03*
X041531Y020723D03*
X041931Y020723D03*
X042771Y020723D03*
X044161Y020898D03*
X044511Y020898D03*
X044996Y024098D03*
X045471Y024098D03*
X045946Y024098D03*
X045946Y024598D03*
X045471Y024598D03*
X044996Y024598D03*
X044996Y025098D03*
X045471Y025098D03*
X045946Y025098D03*
X043721Y024698D03*
X042506Y024998D03*
X042506Y025398D03*
X038746Y025748D03*
X038546Y024448D03*
X038546Y023798D03*
X035996Y025973D03*
X035146Y027848D03*
X038971Y028223D03*
X027871Y025023D03*
X026946Y024198D03*
X024171Y024473D03*
X022671Y024623D03*
X045486Y016448D03*
X045486Y016048D03*
X045886Y016048D03*
X045886Y016448D03*
X046286Y016448D03*
X046286Y016048D03*
X046686Y016048D03*
X046686Y016448D03*
X047086Y016448D03*
X047086Y016048D03*
X048511Y016398D03*
X051771Y019523D03*
X051771Y019948D03*
X052196Y019948D03*
X052196Y019523D03*
X052621Y019523D03*
X052621Y019948D03*
X053046Y019948D03*
X053046Y019523D03*
X053471Y019523D03*
X053471Y019948D03*
X053471Y020373D03*
X053046Y020373D03*
X052621Y020373D03*
X052196Y020373D03*
X051771Y020373D03*
X051771Y020798D03*
X052196Y020798D03*
X052621Y020798D03*
X053046Y020798D03*
X053471Y020798D03*
X054996Y020848D03*
X054996Y020423D03*
X054996Y019998D03*
X055421Y019998D03*
X055421Y020423D03*
X055421Y020848D03*
X055846Y020848D03*
X055846Y020423D03*
X055846Y019998D03*
X056271Y019998D03*
X056271Y020423D03*
X056271Y020848D03*
X056696Y020848D03*
X056696Y020423D03*
X056696Y019998D03*
X056696Y019573D03*
X056271Y019573D03*
X055846Y019573D03*
X055421Y019573D03*
X054996Y019573D03*
X054996Y023998D03*
X054996Y024423D03*
X054996Y024848D03*
X055421Y024848D03*
X055421Y024423D03*
X055421Y023998D03*
X055846Y023998D03*
X055846Y024423D03*
X055846Y024848D03*
X056271Y024848D03*
X056271Y024423D03*
X056271Y023998D03*
X056696Y023998D03*
X056696Y024423D03*
X056696Y024848D03*
X056696Y025273D03*
X056271Y025273D03*
X055846Y025273D03*
X055421Y025273D03*
X054996Y025273D03*
X053446Y025273D03*
X053021Y025273D03*
X052596Y025273D03*
X052171Y025273D03*
X051746Y025273D03*
X051746Y024848D03*
X051746Y024423D03*
X051746Y023998D03*
X052171Y023998D03*
X052171Y024423D03*
X052171Y024848D03*
X052596Y024848D03*
X052596Y024423D03*
X052596Y023998D03*
X053021Y023998D03*
X053021Y024423D03*
X053021Y024848D03*
X053446Y024848D03*
X053446Y024423D03*
X053446Y023998D03*
D73*
X047071Y024373D03*
X045721Y026298D03*
X041446Y025898D03*
X038046Y025323D03*
X036771Y025323D03*
X034996Y024123D03*
X030921Y023673D03*
X029746Y023548D03*
X029046Y024473D03*
X026921Y026448D03*
X023996Y025773D03*
X022871Y026448D03*
X023721Y027073D03*
X023371Y027448D03*
X021121Y025798D03*
X021646Y025248D03*
X022171Y025248D03*
X019421Y025773D03*
X019046Y026123D03*
X018671Y026498D03*
X017571Y027023D03*
X017421Y027523D03*
X017921Y028248D03*
X018321Y027623D03*
X015296Y026123D03*
X014946Y026498D03*
X014596Y027023D03*
X013571Y028448D03*
X012646Y028648D03*
X010971Y025648D03*
X009771Y025798D03*
X009971Y023823D03*
X009971Y022098D03*
X013071Y020498D03*
X015346Y020223D03*
X014171Y019173D03*
X015521Y018273D03*
X015096Y017323D03*
X016046Y017323D03*
X014296Y017323D03*
X013496Y017323D03*
X015421Y015123D03*
X016796Y015123D03*
X016246Y014123D03*
X015221Y014123D03*
X014346Y014123D03*
X013896Y014623D03*
X013396Y014123D03*
X013171Y013423D03*
X012721Y012348D03*
X015346Y013273D03*
X016796Y013248D03*
X017971Y013623D03*
X017471Y014123D03*
X018721Y014123D03*
X021496Y014123D03*
X020221Y015973D03*
X017771Y016498D03*
X020221Y017873D03*
X023471Y017898D03*
X024346Y016348D03*
X025896Y015123D03*
X026871Y015623D03*
X027646Y016423D03*
X030496Y017848D03*
X029846Y017973D03*
X031246Y018248D03*
X031896Y017273D03*
X033296Y017373D03*
X034921Y017348D03*
X033871Y018698D03*
X031046Y020048D03*
X030371Y020523D03*
X028771Y020548D03*
X030796Y019548D03*
X032221Y020548D03*
X026346Y019973D03*
X025871Y020573D03*
X025046Y020348D03*
X025021Y021398D03*
X025846Y021373D03*
X025621Y022398D03*
X024746Y022173D03*
X023246Y021973D03*
X021921Y023448D03*
X023196Y023498D03*
X025371Y023298D03*
X020196Y021973D03*
X018671Y021798D03*
X017696Y021648D03*
X017571Y022823D03*
X016021Y022823D03*
X015071Y022823D03*
X014346Y022898D03*
X014346Y023648D03*
X015271Y024473D03*
X015646Y025023D03*
X017571Y025548D03*
X019421Y024323D03*
X030946Y027323D03*
X040546Y020273D03*
X044021Y018873D03*
X046146Y018223D03*
X046846Y017798D03*
X042871Y016898D03*
X040521Y017573D03*
X033296Y016098D03*
X031896Y015548D03*
X032021Y014123D03*
X031571Y013598D03*
X030746Y014123D03*
X030321Y013323D03*
X028896Y013323D03*
X028746Y014123D03*
X029046Y014623D03*
X027271Y014123D03*
X026021Y013598D03*
X025096Y014123D03*
X024346Y014623D03*
X026896Y012348D03*
X026021Y012198D03*
X028621Y012348D03*
X028746Y010673D03*
X031871Y012273D03*
X035746Y012098D03*
X037821Y012923D03*
X032046Y009423D03*
X027696Y008698D03*
X029271Y005648D03*
X028721Y004973D03*
X027671Y004398D03*
X028721Y003398D03*
X020846Y004998D03*
X019846Y004998D03*
X018771Y005323D03*
X016521Y006523D03*
X017371Y007148D03*
X014521Y008323D03*
X015021Y008948D03*
X016546Y009773D03*
X017671Y009773D03*
X018771Y011598D03*
X018896Y012348D03*
X012046Y010223D03*
X013196Y005998D03*
X013821Y003098D03*
X042071Y007498D03*
X046671Y012148D03*
X046296Y013123D03*
D74*
X046895Y014348D02*
X046921Y014348D01*
X046907Y014360D02*
X046907Y015268D01*
X039171Y015873D02*
X038770Y015873D01*
X044511Y020898D02*
X044511Y021407D01*
X044345Y021573D01*
X043721Y024247D02*
X043721Y024698D01*
X047071Y026223D02*
X047295Y026223D01*
X047121Y026299D01*
X036171Y027123D02*
X036158Y027136D01*
X036158Y027173D01*
X036158Y028298D01*
X034246Y023963D02*
X034247Y023473D01*
X026721Y021898D02*
X026391Y021898D01*
X022221Y017873D02*
X021795Y017873D01*
X014451Y019308D02*
X014436Y019323D01*
X014072Y011248D02*
X013270Y011248D01*
X016121Y011247D02*
X016121Y011248D01*
X017771Y007663D02*
X017859Y007650D01*
X017798Y007650D02*
X017796Y007648D01*
X018711Y007348D02*
X018744Y007365D01*
X018721Y006448D02*
X018696Y006448D01*
X018697Y006447D01*
X019446Y005798D02*
X019471Y005823D01*
X022596Y006523D02*
X022696Y006423D01*
X022696Y006248D01*
X015733Y006650D02*
X015656Y006648D01*
X014556Y006298D02*
X014495Y006412D01*
X029471Y007999D02*
X029472Y007998D01*
X029721Y007998D01*
X030379Y007340D01*
X030379Y006922D01*
X033920Y004123D02*
X033920Y003997D01*
X033521Y003598D01*
X031771Y003598D01*
X031636Y003463D01*
X031636Y003158D01*
D75*
X031626Y003148D01*
X030921Y003148D01*
X030367Y002594D01*
X030367Y002573D01*
X029821Y002248D02*
X029821Y001423D01*
X029602Y001204D01*
X027546Y001204D01*
X027517Y001233D01*
X027517Y001848D01*
X028196Y002198D02*
X028671Y001723D01*
X028946Y001723D01*
X028196Y002198D02*
X028196Y004973D01*
X028721Y004973D01*
X028721Y004572D01*
X028196Y004973D02*
X028196Y005677D01*
X028346Y005877D01*
X030379Y006174D02*
X030396Y006157D01*
X030396Y004547D01*
X029621Y004547D01*
X030422Y003799D02*
X030596Y003973D01*
X031472Y003973D01*
X031622Y004123D01*
X031622Y004898D01*
X031171Y004898D01*
X032370Y004898D02*
X032370Y005549D01*
X032346Y005573D01*
X032370Y004898D02*
X033172Y004898D01*
X033920Y004898D02*
X033920Y004123D01*
X033172Y004123D02*
X032370Y004123D01*
X033920Y004898D02*
X033921Y004898D01*
X030422Y003799D02*
X030396Y003799D01*
X029621Y003799D02*
X028746Y003799D01*
X028721Y003824D01*
X028721Y003398D01*
X029225Y002573D02*
X029496Y002573D01*
X029821Y002248D01*
X030367Y001723D02*
X030696Y001723D01*
X031081Y001338D01*
X031636Y001338D01*
X027546Y001204D02*
X024077Y001204D01*
X023779Y001501D01*
X023779Y001473D01*
X024522Y001923D02*
X022971Y001923D01*
X025370Y001848D02*
X026375Y001848D01*
X026252Y001823D01*
X025370Y001823D02*
X025370Y001848D01*
X021454Y003290D02*
X020770Y003290D01*
X020022Y003290D02*
X019355Y003290D01*
X019321Y003324D01*
X019321Y004072D02*
X019321Y004473D01*
X019846Y004998D01*
X020846Y004998D02*
X020846Y006773D01*
X020946Y006873D01*
X020971Y006874D02*
X021339Y006506D01*
X022603Y006506D01*
X021170Y007623D02*
X020971Y007622D01*
X020997Y007622D01*
X020996Y007623D01*
X020996Y008327D01*
X020896Y008427D01*
X020896Y008423D02*
X021013Y008306D01*
X022603Y008306D01*
X021170Y007623D02*
X020996Y007623D01*
X020771Y007623D01*
X020396Y007248D01*
X020396Y004156D01*
X018771Y005323D02*
X018796Y005706D01*
X018697Y005805D01*
X018697Y006573D01*
X018697Y007334D01*
X018711Y007348D01*
X018410Y007650D01*
X017859Y007650D01*
X018711Y007348D02*
X018746Y007373D01*
X019381Y007348D02*
X019771Y007348D01*
X019896Y006573D02*
X019445Y006573D01*
X019445Y006573D01*
X018697Y006573D02*
X018697Y006647D01*
X018696Y006648D01*
X019464Y005823D02*
X019445Y005805D01*
X019464Y005823D02*
X019896Y005823D01*
X015656Y006648D02*
X015246Y006648D01*
X014896Y006298D01*
X014556Y006298D01*
X014496Y006358D01*
X014496Y006648D01*
X014495Y006412D02*
X014495Y007123D01*
X014501Y007117D01*
X014501Y007117D01*
X014495Y007123D02*
X014495Y007173D01*
X014557Y007111D01*
X014620Y007086D01*
X014495Y006986D01*
X014495Y007173D02*
X014495Y007923D01*
X014496Y007924D01*
X014496Y007947D01*
X014495Y007923D02*
X014495Y007972D01*
X014496Y007973D01*
X014521Y007973D02*
X014571Y007973D01*
X014626Y007867D01*
X014571Y007972D01*
X014521Y008323D01*
X013878Y007867D02*
X013452Y007917D01*
X013446Y007923D01*
X013446Y007123D02*
X013860Y007123D01*
X013872Y007086D01*
X013886Y006298D02*
X013896Y005923D01*
X010975Y007573D02*
X010971Y007669D01*
X010971Y008173D01*
X008967Y007573D02*
X008796Y007527D01*
X008446Y007673D01*
X008446Y007298D02*
X008821Y007348D01*
X013385Y012050D02*
X013096Y012338D01*
X012731Y012338D01*
X012721Y012348D01*
X013385Y012050D02*
X013933Y012050D01*
X013096Y013008D02*
X013146Y013058D01*
X013171Y013423D01*
X013273Y013550D01*
X013933Y013550D01*
X016059Y013550D02*
X016688Y013550D01*
X016688Y013356D01*
X016796Y013248D01*
X016688Y013550D02*
X016736Y013598D01*
X016721Y013613D01*
X017406Y013598D02*
X017496Y013598D01*
X017496Y014123D01*
X023306Y012183D02*
X023786Y012183D01*
X023971Y011998D01*
X023971Y011273D01*
X024221Y011023D01*
X024520Y011023D01*
X025296Y011024D01*
X026071Y011024D02*
X026071Y010223D01*
X025931Y010363D01*
X023306Y010363D01*
X025271Y009323D02*
X027927Y009323D01*
X028396Y009644D01*
X028396Y008502D02*
X028346Y008404D01*
X028346Y007019D01*
X032046Y009423D02*
X032971Y009423D01*
X033096Y009298D01*
X032046Y009823D02*
X031895Y009974D01*
X031895Y009991D01*
X031896Y009990D01*
X031521Y009990D01*
X031513Y009998D01*
X031121Y009998D01*
X030345Y010774D01*
X030345Y010856D01*
X029597Y010856D02*
X029597Y011723D01*
X030345Y011723D02*
X030346Y011724D01*
X030346Y012023D01*
X030596Y012273D01*
X031871Y012273D01*
X031871Y011747D01*
X031895Y011723D01*
X031147Y011723D02*
X031147Y010856D01*
X031895Y010856D02*
X031895Y009991D01*
X032046Y009823D02*
X034654Y009823D01*
X034746Y009915D01*
X035120Y010781D02*
X035204Y010781D01*
X033571Y011198D02*
X033520Y011147D01*
X033520Y010348D01*
X032821Y010424D02*
X032772Y010348D01*
X032771Y010349D01*
X032771Y011198D01*
X033271Y011198D02*
X033571Y011198D01*
X034347Y011773D02*
X034072Y012048D01*
X033171Y012048D01*
X031571Y013598D02*
X031446Y013723D01*
X026146Y013723D01*
X026021Y013598D01*
X026896Y012348D02*
X027347Y012348D01*
X027447Y012248D01*
X027447Y011482D01*
X027451Y011478D01*
X028191Y011478D02*
X028191Y012244D01*
X028195Y012248D01*
X027447Y012248D02*
X027446Y012249D01*
X026071Y012148D02*
X026071Y011772D01*
X025296Y011772D01*
X026021Y012198D02*
X026071Y012148D01*
X026071Y010223D02*
X026071Y010099D01*
X026147Y010023D01*
X037146Y013448D02*
X037146Y013875D01*
X038745Y015848D02*
X038770Y015873D01*
X037196Y017698D02*
X037197Y017998D01*
X037196Y018124D01*
X033871Y018698D02*
X033871Y020648D01*
X034096Y020873D01*
X034096Y021248D01*
X034271Y020348D02*
X034697Y020373D01*
X037096Y020998D02*
X037446Y021098D01*
X037446Y021348D01*
X040320Y022198D02*
X040321Y022199D01*
X038546Y023798D02*
X038621Y024123D01*
X038996Y024123D01*
X038746Y025748D02*
X038746Y026174D01*
X038971Y028223D02*
X038545Y028298D01*
X037797Y028298D02*
X036985Y028298D01*
X033151Y025798D02*
X033046Y025793D01*
X033046Y025498D01*
X032021Y025497D02*
X031896Y025498D01*
X031496Y025498D01*
X030296Y023948D02*
X030321Y023923D01*
X030296Y023948D02*
X028446Y023948D01*
X028246Y023748D01*
X026071Y023748D01*
X025886Y023933D01*
X025886Y024173D01*
X025926Y024213D01*
X025926Y024743D01*
X025926Y024993D02*
X026781Y024993D01*
X026811Y025023D01*
X026811Y025715D01*
X026945Y025848D01*
X026921Y025872D01*
X026921Y026448D01*
X026921Y027698D01*
X026521Y028098D01*
X026076Y028098D01*
X027321Y028173D02*
X027321Y027648D01*
X028016Y027598D02*
X028595Y027598D01*
X029046Y027147D01*
X028046Y026398D02*
X028047Y025848D01*
X027871Y025023D02*
X027481Y025023D01*
X026946Y024198D02*
X026921Y024173D01*
X026556Y024173D01*
X026721Y021898D02*
X026971Y021898D01*
X027246Y021623D01*
X027246Y021298D01*
X027871Y020673D01*
X028446Y020673D01*
X028571Y020548D01*
X028771Y020548D01*
X029576Y020548D01*
X031616Y020548D02*
X032221Y020548D01*
X032531Y020548D01*
X032571Y020588D01*
X032571Y021258D02*
X032571Y021673D01*
X033533Y022650D02*
X033533Y022935D01*
X026346Y019973D02*
X026346Y019638D01*
X026306Y019598D01*
X026421Y019598D02*
X026421Y018987D01*
X026359Y018925D01*
X025771Y019533D02*
X025636Y019598D01*
X025646Y019608D01*
X025646Y019973D01*
X020971Y021948D02*
X020971Y022399D01*
X019421Y022399D02*
X019421Y021948D01*
X014451Y019308D02*
X014316Y019173D01*
X014171Y019173D01*
X015221Y018448D02*
X015206Y018388D01*
X015206Y018273D01*
X015521Y018273D01*
X015206Y018273D02*
X015191Y018288D01*
X024136Y017328D02*
X024136Y016748D01*
X024136Y016708D01*
X024346Y016498D01*
X024346Y016348D01*
X024806Y016748D02*
X025221Y016748D01*
X024233Y017425D02*
X024136Y017328D01*
X039246Y008898D02*
X039321Y008973D01*
X039395Y008973D01*
X041471Y010097D02*
X041596Y010648D01*
X042571Y010673D01*
X041321Y010923D02*
X040521Y010873D01*
X040521Y010597D01*
X043496Y008223D02*
X043496Y007923D01*
X043481Y007938D01*
X043021Y007938D01*
X043496Y007923D02*
X043496Y007673D01*
X044372Y006797D01*
X044596Y006797D01*
X039464Y006298D02*
X039271Y006298D01*
X039321Y006248D01*
X039296Y006223D01*
X039271Y006298D02*
X039246Y006298D01*
X037928Y006298D02*
X037928Y006855D01*
X038096Y007023D01*
X039996Y002098D02*
X039996Y001748D01*
X039971Y001773D01*
X039971Y001798D01*
X039996Y001748D02*
X039916Y001668D01*
X039596Y001668D01*
X039996Y001748D02*
X039996Y001398D01*
X056921Y005373D02*
X056921Y005698D01*
X057196Y005973D01*
X057196Y011158D01*
X057311Y011273D01*
X048449Y013623D02*
X048449Y013673D01*
X048426Y013698D02*
X048426Y013718D01*
X047163Y014981D01*
X047163Y015268D01*
X047997Y016398D02*
X047996Y016399D01*
X047121Y019422D02*
X046346Y019422D01*
X045571Y019422D01*
X044796Y019422D01*
X044371Y023473D02*
X043746Y023473D01*
X043721Y023498D01*
X043595Y028848D02*
X044486Y028848D01*
X054947Y027409D02*
X056746Y027409D01*
X057846Y024688D02*
X057846Y024473D01*
X057596Y024473D01*
X057596Y022523D01*
X029046Y028249D02*
X028697Y028598D01*
X028016Y028598D01*
X027746Y028598D01*
X027321Y028173D01*
X021572Y028073D02*
X021486Y027987D01*
X021486Y027298D01*
X020856Y027298D02*
X020856Y027987D01*
X020770Y028073D01*
X020071Y027413D02*
X020071Y027273D01*
X019871Y027073D01*
X019871Y026923D01*
X017371Y028273D02*
X017106Y028573D01*
X016436Y028573D02*
X016446Y028358D01*
X016446Y029073D01*
X016436Y028573D02*
X016436Y028033D01*
X016451Y027998D01*
X014921Y002123D02*
X014496Y002123D01*
X014496Y001748D01*
X014496Y001373D02*
X014496Y001023D01*
X014921Y001023D01*
X014921Y001373D01*
X015269Y001373D01*
X015469Y001573D01*
X014921Y001748D02*
X014921Y001373D01*
X017673Y001573D02*
X018046Y001573D01*
X018221Y001398D01*
X018221Y001373D01*
X018646Y001373D01*
X018646Y001023D01*
X018221Y001023D02*
X018221Y001373D01*
X018046Y001573D02*
X018221Y001748D01*
X018221Y002123D01*
X018646Y002123D02*
X018646Y001748D01*
D76*
X018821Y001723D02*
X018046Y001723D01*
X018046Y001821D02*
X018821Y001821D01*
X018821Y001920D02*
X018046Y001920D01*
X018046Y002018D02*
X018821Y002018D01*
X018821Y002117D02*
X018046Y002117D01*
X018046Y002215D02*
X018821Y002215D01*
X018821Y002273D02*
X018821Y000873D01*
X018046Y000873D01*
X018046Y002273D01*
X018821Y002273D01*
X018821Y001624D02*
X018046Y001624D01*
X018046Y001526D02*
X018821Y001526D01*
X018821Y001427D02*
X018046Y001427D01*
X018046Y001329D02*
X018821Y001329D01*
X018821Y001230D02*
X018046Y001230D01*
X018046Y001132D02*
X018821Y001132D01*
X018821Y001033D02*
X018046Y001033D01*
X018046Y000935D02*
X018821Y000935D01*
X017673Y001573D02*
X017146Y001573D01*
X017021Y001698D01*
X017021Y002773D01*
X016946Y002848D01*
X016922Y002848D01*
X016896Y002874D01*
X016946Y002848D02*
X016971Y002873D01*
X016896Y003622D02*
X016896Y004424D01*
X016071Y004424D02*
X016071Y003622D01*
X016071Y002874D02*
X016121Y002824D01*
X016121Y001698D01*
X015996Y001573D01*
X015469Y001573D01*
X015096Y001526D02*
X014321Y001526D01*
X014321Y001624D02*
X015096Y001624D01*
X015096Y001723D02*
X014321Y001723D01*
X014321Y001821D02*
X015096Y001821D01*
X015096Y001920D02*
X014321Y001920D01*
X014321Y002018D02*
X015096Y002018D01*
X015096Y002117D02*
X014321Y002117D01*
X014321Y002215D02*
X015096Y002215D01*
X015096Y002298D02*
X015096Y000873D01*
X014321Y000873D01*
X014321Y002298D01*
X015096Y002298D01*
X015096Y001427D02*
X014321Y001427D01*
X014321Y001329D02*
X015096Y001329D01*
X015096Y001230D02*
X014321Y001230D01*
X014321Y001132D02*
X015096Y001132D01*
X015096Y001033D02*
X014321Y001033D01*
X014321Y000935D02*
X015096Y000935D01*
X013821Y003098D02*
X012371Y003098D01*
X011546Y003923D01*
X009571Y003923D01*
X009420Y004074D01*
X009313Y004074D01*
X008496Y004074D01*
X007721Y004074D01*
X007721Y004822D02*
X007721Y005624D01*
X007721Y006372D02*
X007721Y010673D01*
X009571Y012523D01*
X011296Y012523D01*
X011796Y013023D01*
X011796Y014323D01*
X012146Y014673D01*
X011796Y014623D02*
X011796Y015507D01*
X011772Y015531D01*
X011772Y016073D01*
X012172Y016473D01*
X012172Y017248D01*
X012122Y017474D01*
X012396Y017748D01*
X015946Y017748D01*
X016371Y018173D01*
X016371Y020448D01*
X016946Y021023D01*
X017671Y021023D01*
X017871Y020823D01*
X017871Y020548D01*
X018045Y020548D01*
X019072Y020548D01*
X019072Y020149D01*
X019072Y019698D01*
X019071Y020148D02*
X019072Y020149D01*
X019820Y020548D02*
X021047Y020548D01*
X021771Y020548D02*
X021796Y020523D01*
X021996Y020523D01*
X022646Y019873D01*
X023020Y019873D01*
X023021Y019774D01*
X023272Y019623D01*
X024746Y019623D01*
X025944Y018425D01*
X026359Y018425D01*
X026407Y017973D02*
X027321Y017973D01*
X027372Y018024D01*
X027347Y018198D01*
X027250Y018320D01*
X027250Y018919D01*
X027196Y018973D01*
X027547Y019672D02*
X027547Y019773D01*
X027547Y019672D02*
X028246Y018973D01*
X028342Y018973D01*
X028542Y018823D01*
X028546Y018998D02*
X028546Y017498D01*
X028571Y017473D01*
X028546Y017498D02*
X028546Y016623D01*
X028496Y016623D01*
X028496Y016598D01*
X028367Y016598D01*
X028367Y016694D01*
X027950Y016694D01*
X027372Y017272D01*
X027347Y017423D01*
X026596Y017423D01*
X026586Y017413D01*
X026371Y017413D01*
X026359Y017425D01*
X025923Y017925D02*
X025696Y017698D01*
X025696Y016548D01*
X025096Y015948D01*
X023021Y015948D01*
X023021Y016329D01*
X023021Y015948D02*
X021945Y015948D01*
X021795Y016098D01*
X021047Y016098D02*
X021047Y016174D01*
X021795Y016922D01*
X021795Y017023D01*
X021047Y017023D02*
X019821Y017023D01*
X019821Y016698D01*
X019672Y016549D01*
X017822Y016549D01*
X017771Y016498D01*
X017846Y016573D01*
X017846Y016824D01*
X018045Y017023D01*
X017321Y016998D02*
X017297Y017022D01*
X017297Y015874D01*
X017296Y015873D01*
X017297Y015873D02*
X017297Y015699D01*
X017271Y015673D01*
X017121Y015673D01*
X016971Y015523D01*
X015121Y015523D01*
X014571Y014973D01*
X013671Y014973D01*
X012346Y013648D01*
X012346Y011998D01*
X011362Y011014D01*
X010953Y011014D01*
X010437Y010498D01*
X009446Y010498D01*
X008071Y009123D01*
X008071Y006998D01*
X008371Y006698D01*
X008371Y006448D01*
X008447Y006372D01*
X008496Y006372D01*
X008496Y005624D02*
X008496Y004822D01*
X009313Y004822D01*
X009321Y004664D01*
X009271Y004714D02*
X009313Y004822D01*
X008496Y004822D02*
X007721Y004822D01*
X010179Y004448D02*
X010547Y004448D01*
X010922Y004823D01*
X010922Y005598D01*
X010921Y005599D01*
X010921Y006048D01*
X011721Y006848D01*
X011721Y009898D01*
X012046Y010223D01*
X012187Y011248D02*
X010953Y010014D01*
X009962Y011014D02*
X010471Y011523D01*
X011521Y011523D01*
X012121Y012123D01*
X012121Y013773D01*
X013721Y015373D01*
X013721Y015699D01*
X013721Y015723D01*
X013821Y015823D01*
X016146Y015823D01*
X016796Y016473D01*
X016796Y018273D01*
X017241Y018718D01*
X017297Y018718D01*
X017297Y019698D01*
X017297Y020548D01*
X017296Y020548D02*
X017271Y020523D01*
X017296Y020548D02*
X017196Y020648D01*
X016871Y021248D02*
X017746Y021248D01*
X017821Y021173D01*
X021596Y021173D01*
X021771Y020998D01*
X024571Y020998D01*
X024846Y020723D01*
X025721Y020723D01*
X025871Y020573D01*
X025921Y020948D02*
X024946Y020948D01*
X024696Y021198D01*
X021871Y021198D01*
X021671Y021398D01*
X018496Y021398D01*
X017571Y022323D01*
X017571Y022823D01*
X016896Y023273D02*
X018496Y024873D01*
X019646Y024873D01*
X020777Y026004D01*
X020777Y026525D01*
X020522Y026525D02*
X020522Y026098D01*
X020471Y026048D01*
X019821Y026048D01*
X019696Y026173D01*
X019096Y026173D01*
X019046Y026123D01*
X018671Y026498D02*
X020238Y026498D01*
X020266Y026525D01*
X020271Y026520D01*
X020271Y026323D01*
X021033Y026525D02*
X021033Y026836D01*
X021289Y026841D02*
X021289Y026525D01*
X021545Y026525D02*
X021546Y026524D01*
X021546Y025998D01*
X021646Y025898D01*
X021646Y025248D01*
X022171Y025248D02*
X022171Y025673D01*
X021796Y026048D01*
X021796Y026520D01*
X021801Y026525D01*
X022057Y026525D02*
X022071Y026511D01*
X022071Y026323D01*
X022671Y025723D01*
X022671Y025683D01*
X022671Y025673D02*
X022871Y025873D01*
X022871Y026448D01*
X022521Y027223D02*
X022221Y027363D01*
X022221Y027974D02*
X022320Y028073D01*
X023321Y027398D02*
X023371Y027448D01*
X023321Y027398D02*
X023321Y025348D01*
X023676Y024993D01*
X024166Y024993D01*
X024166Y024743D02*
X024166Y024478D01*
X024171Y024473D01*
X025221Y025073D02*
X025401Y025253D01*
X025926Y025253D01*
X025926Y025503D02*
X025226Y025503D01*
X025021Y025298D01*
X025021Y022998D01*
X025621Y022398D01*
X025651Y022368D01*
X025651Y022158D01*
X025651Y021898D02*
X024996Y021898D01*
X024696Y021598D01*
X022071Y021598D01*
X021746Y021923D01*
X021746Y022399D01*
X022521Y022399D02*
X022521Y021948D01*
X023246Y021973D02*
X023246Y022349D01*
X023296Y022399D01*
X023921Y021948D02*
X024071Y022399D01*
X025021Y021398D02*
X021971Y021398D01*
X021771Y021598D01*
X018871Y021598D01*
X018671Y021798D01*
X018671Y022399D01*
X017696Y021648D02*
X016971Y021648D01*
X015546Y020223D01*
X015346Y020223D01*
X015191Y019568D02*
X016871Y021248D01*
X018045Y019698D02*
X018196Y019697D01*
X018196Y019398D01*
X018371Y019223D01*
X019546Y019223D01*
X019820Y019497D01*
X019820Y019698D01*
X021047Y019698D01*
X021771Y019723D02*
X021796Y019748D01*
X021846Y019748D02*
X021796Y019698D01*
X021795Y019698D02*
X021945Y019848D01*
X021846Y019748D02*
X021946Y019648D01*
X021796Y019697D02*
X021796Y019273D01*
X024646Y019273D01*
X024846Y019073D01*
X024846Y018648D01*
X024623Y018425D01*
X024233Y018425D01*
X024210Y018448D01*
X023246Y018448D01*
X023047Y018647D01*
X023021Y018622D01*
X023396Y019048D02*
X022546Y019048D01*
X021896Y018398D01*
X021196Y018398D01*
X021046Y018248D01*
X021046Y017874D01*
X021047Y017873D01*
X020221Y017873D01*
X019820Y017873D01*
X019072Y017873D02*
X019072Y017024D01*
X019071Y017023D01*
X019072Y017873D02*
X018045Y017873D01*
X017297Y017873D02*
X017297Y017022D01*
X018045Y015873D02*
X019072Y015873D01*
X019820Y015873D02*
X020221Y015973D01*
X023021Y017077D02*
X023021Y017874D01*
X023470Y017899D01*
X023471Y017898D01*
X024206Y017898D01*
X024233Y017925D01*
X025923Y017925D02*
X026359Y017925D01*
X026407Y017973D01*
X026361Y017923D02*
X026359Y017925D01*
X028095Y018198D02*
X028120Y017447D01*
X028096Y017423D01*
X027471Y016598D02*
X027225Y016598D01*
X027471Y016598D02*
X027646Y016423D01*
X029846Y015623D02*
X031446Y015623D01*
X032821Y016998D01*
X034571Y016998D01*
X034921Y017348D01*
X034671Y018050D02*
X034298Y018025D01*
X034221Y018023D01*
X033295Y017823D02*
X033295Y017324D01*
X033296Y017373D01*
X032547Y017823D02*
X032547Y018598D01*
X032097Y019048D01*
X031616Y019048D01*
X031591Y019023D01*
X030946Y019023D01*
X030471Y018548D01*
X029576Y018548D01*
X029576Y019048D02*
X029576Y019548D01*
X028520Y019548D01*
X028295Y019773D01*
X028392Y018998D02*
X028417Y018998D01*
X028342Y018973D01*
X028392Y018998D01*
X028417Y018998D02*
X028546Y018998D01*
X029576Y020048D02*
X030171Y020048D01*
X030671Y019548D01*
X030796Y019548D01*
X031616Y019548D01*
X031616Y020048D02*
X031046Y020048D01*
X031616Y021048D02*
X031616Y021518D01*
X031621Y021523D01*
X031621Y021548D01*
X031616Y021548D01*
X031616Y022294D01*
X031746Y022424D01*
X030971Y022424D02*
X030322Y022424D01*
X030321Y022423D01*
X029576Y022419D02*
X029571Y022424D01*
X029576Y022419D02*
X029576Y021548D01*
X029576Y021048D01*
X028446Y021333D02*
X028446Y021723D01*
X028495Y022424D02*
X028246Y022673D01*
X028246Y023748D01*
X028796Y023172D02*
X029571Y023172D01*
X029746Y023548D01*
X030921Y023673D02*
X030921Y023172D01*
X030971Y023172D01*
X031746Y023172D01*
X031821Y024423D02*
X034221Y024423D01*
X034695Y024897D01*
X034695Y024973D01*
X034796Y025074D01*
X034796Y025798D01*
X035091Y025798D01*
X033947Y024973D02*
X033871Y025049D01*
X033871Y027123D01*
X033696Y027298D01*
X033151Y027298D01*
X034397Y027097D02*
X034696Y026798D01*
X035091Y026798D01*
X034397Y027097D02*
X034397Y028323D01*
X033595Y028323D01*
X032847Y028323D02*
X032081Y028323D01*
X032031Y028273D01*
X030946Y027323D02*
X030946Y027098D01*
X031121Y026923D01*
X031121Y025123D01*
X031821Y024423D01*
X033914Y022973D02*
X034796Y022973D01*
X034796Y024173D01*
X036196Y024173D01*
X036196Y021073D01*
X036134Y021073D01*
X036134Y021339D01*
X036035Y021438D01*
X035721Y021438D01*
X035717Y021440D01*
X035601Y021440D01*
X035597Y021438D01*
X035284Y021438D01*
X035184Y021339D01*
X035184Y021064D01*
X034008Y021054D01*
X034008Y021339D01*
X033909Y021438D01*
X033271Y021438D01*
X033271Y022362D01*
X033909Y022362D01*
X034008Y022461D01*
X034008Y022839D01*
X033914Y022933D01*
X033914Y022973D01*
X033947Y022900D02*
X035246Y022900D01*
X035284Y022938D02*
X035184Y022839D01*
X035184Y022461D01*
X035284Y022362D01*
X036035Y022362D01*
X036134Y022461D01*
X036134Y022839D01*
X036035Y022938D01*
X035284Y022938D01*
X035184Y022802D02*
X034008Y022802D01*
X034008Y022703D02*
X035184Y022703D01*
X035184Y022605D02*
X034008Y022605D01*
X034008Y022506D02*
X035184Y022506D01*
X035238Y022408D02*
X033954Y022408D01*
X033271Y022309D02*
X036196Y022309D01*
X036196Y022211D02*
X033271Y022211D01*
X033271Y022112D02*
X036196Y022112D01*
X036196Y022014D02*
X033271Y022014D01*
X033271Y021915D02*
X036196Y021915D01*
X036196Y021817D02*
X033271Y021817D01*
X033271Y021718D02*
X036196Y021718D01*
X036196Y021620D02*
X033271Y021620D01*
X033271Y021521D02*
X036196Y021521D01*
X036196Y021423D02*
X036050Y021423D01*
X036134Y021324D02*
X036196Y021324D01*
X036196Y021226D02*
X036134Y021226D01*
X036134Y021127D02*
X036196Y021127D01*
X035268Y021423D02*
X033924Y021423D01*
X034008Y021324D02*
X035184Y021324D01*
X035184Y021226D02*
X034008Y021226D01*
X034008Y021127D02*
X035184Y021127D01*
X036080Y022408D02*
X036196Y022408D01*
X036196Y022506D02*
X036134Y022506D01*
X036134Y022605D02*
X036196Y022605D01*
X036196Y022703D02*
X036134Y022703D01*
X036134Y022802D02*
X036196Y022802D01*
X036196Y022900D02*
X036073Y022900D01*
X036196Y022999D02*
X034796Y022999D01*
X034796Y023097D02*
X036196Y023097D01*
X036196Y023196D02*
X034796Y023196D01*
X034796Y023294D02*
X036196Y023294D01*
X036196Y023393D02*
X034796Y023393D01*
X034796Y023491D02*
X036196Y023491D01*
X036196Y023590D02*
X034796Y023590D01*
X034796Y023688D02*
X036196Y023688D01*
X036196Y023787D02*
X034796Y023787D01*
X034796Y023885D02*
X036196Y023885D01*
X036196Y023984D02*
X034796Y023984D01*
X034796Y024082D02*
X036196Y024082D01*
X040321Y022199D02*
X040322Y022198D01*
X040796Y022211D02*
X042281Y022211D01*
X042281Y022223D02*
X042281Y021681D01*
X040796Y021698D01*
X040796Y025998D01*
X040921Y026123D01*
X041446Y026123D01*
X041596Y025973D01*
X041596Y024023D01*
X041846Y023773D01*
X042896Y023773D01*
X042996Y023673D01*
X042996Y022323D01*
X042380Y022323D01*
X042281Y022223D01*
X042281Y022112D02*
X040796Y022112D01*
X040796Y022014D02*
X042281Y022014D01*
X042281Y021915D02*
X040796Y021915D01*
X040796Y021817D02*
X042281Y021817D01*
X042281Y021718D02*
X040796Y021718D01*
X041196Y021149D02*
X041196Y020788D01*
X041131Y020723D01*
X041931Y020723D02*
X041971Y020763D01*
X041971Y021149D01*
X042746Y021149D02*
X042746Y020748D01*
X042771Y020723D01*
X043521Y020848D02*
X043521Y021149D01*
X043521Y020848D02*
X043821Y020548D01*
X044796Y020548D01*
X044846Y020598D01*
X045146Y020598D01*
X045446Y020898D01*
X045446Y021572D01*
X045447Y021573D01*
X044846Y021620D02*
X046671Y021620D01*
X046671Y021718D02*
X044846Y021718D01*
X044846Y021817D02*
X046671Y021817D01*
X046671Y021915D02*
X044846Y021915D01*
X044846Y022014D02*
X046594Y022014D01*
X046671Y021937D02*
X046671Y020573D01*
X044846Y020573D01*
X044846Y020596D01*
X044879Y020630D01*
X044879Y021167D01*
X044846Y021200D01*
X044846Y022873D01*
X044896Y022923D01*
X044921Y022923D01*
X044921Y023037D01*
X044926Y023042D01*
X044926Y023108D01*
X044946Y023128D01*
X044946Y023473D01*
X044976Y023473D01*
X044976Y023128D01*
X044996Y023108D01*
X044996Y023073D01*
X044996Y022887D01*
X045651Y022232D01*
X045780Y022103D01*
X046505Y022103D01*
X046671Y021937D01*
X046946Y021973D02*
X046946Y020298D01*
X046921Y020273D01*
X040546Y020273D01*
X041423Y019650D02*
X044351Y019650D01*
X044351Y019698D02*
X044351Y019472D01*
X044746Y019472D01*
X044746Y019372D01*
X044351Y019372D01*
X044351Y019146D01*
X044361Y019108D01*
X044381Y019074D01*
X044393Y019062D01*
X044373Y019042D01*
X044174Y019241D01*
X043869Y019241D01*
X043653Y019026D01*
X043653Y018871D01*
X043634Y018851D01*
X043612Y018873D01*
X042880Y018873D01*
X042781Y018773D01*
X042781Y018418D01*
X042076Y018418D01*
X042076Y018793D01*
X041977Y018893D01*
X041616Y018893D01*
X041516Y018793D01*
X041516Y018053D01*
X041526Y018043D01*
X041216Y018043D01*
X041121Y017948D01*
X041121Y019348D01*
X041746Y019973D01*
X047956Y019973D01*
X047956Y019697D01*
X047986Y019667D01*
X047976Y019629D01*
X047976Y019404D01*
X048371Y019404D01*
X048371Y019304D01*
X047976Y019304D01*
X047976Y019078D01*
X047986Y019040D01*
X048006Y019006D01*
X048034Y018978D01*
X048068Y018958D01*
X048106Y018948D01*
X048371Y018948D01*
X048371Y019304D01*
X048471Y019304D01*
X048471Y018948D01*
X048736Y018948D01*
X048774Y018958D01*
X048809Y018978D01*
X048826Y018995D01*
X048826Y017489D01*
X048810Y017473D01*
X048561Y017473D01*
X048561Y017725D01*
X048500Y017787D01*
X048511Y017799D01*
X048531Y017833D01*
X048541Y017871D01*
X048541Y018097D01*
X048146Y018097D01*
X048146Y018197D01*
X048046Y018197D01*
X048046Y018097D01*
X047651Y018097D01*
X047651Y017871D01*
X047661Y017833D01*
X047681Y017799D01*
X047693Y017787D01*
X047631Y017725D01*
X047631Y017643D01*
X046880Y017643D01*
X046751Y017514D01*
X046710Y017473D01*
X046611Y017473D01*
X046611Y017802D01*
X047057Y018248D01*
X047487Y018248D01*
X047586Y018348D01*
X047586Y019000D01*
X047525Y019062D01*
X047536Y019074D01*
X047556Y019108D01*
X047566Y019146D01*
X047566Y019372D01*
X047171Y019372D01*
X047171Y019472D01*
X047071Y019472D01*
X047071Y019372D01*
X046676Y019372D01*
X046396Y019372D01*
X046396Y019472D01*
X046296Y019472D01*
X046016Y019472D01*
X045621Y019472D01*
X045521Y019472D01*
X045521Y019372D01*
X045126Y019372D01*
X044846Y019372D01*
X044846Y019472D01*
X044746Y019472D01*
X044746Y019828D01*
X044481Y019828D01*
X044443Y019818D01*
X044409Y019798D01*
X044381Y019770D01*
X044361Y019736D01*
X044351Y019698D01*
X044368Y019748D02*
X041521Y019748D01*
X041620Y019847D02*
X047956Y019847D01*
X047956Y019945D02*
X041718Y019945D01*
X041324Y019551D02*
X044351Y019551D01*
X044351Y019354D02*
X041127Y019354D01*
X041121Y019256D02*
X044351Y019256D01*
X044351Y019157D02*
X044258Y019157D01*
X044356Y019059D02*
X044389Y019059D01*
X044021Y018873D02*
X044020Y018448D01*
X044021Y018447D01*
X044021Y018248D01*
X043796Y018248D01*
X043247Y017699D01*
X043246Y017699D01*
X043120Y017573D01*
X042196Y017573D01*
X041796Y018198D02*
X042997Y018198D01*
X043246Y018447D01*
X042781Y018468D02*
X042076Y018468D01*
X042076Y018566D02*
X042781Y018566D01*
X042781Y018665D02*
X042076Y018665D01*
X042076Y018763D02*
X042781Y018763D01*
X042869Y018862D02*
X042008Y018862D01*
X041584Y018862D02*
X041121Y018862D01*
X041121Y018960D02*
X043653Y018960D01*
X043644Y018862D02*
X043623Y018862D01*
X043686Y019059D02*
X041121Y019059D01*
X041121Y019157D02*
X043785Y019157D01*
X044746Y019453D02*
X041226Y019453D01*
X041121Y018763D02*
X041516Y018763D01*
X041516Y018665D02*
X041121Y018665D01*
X041121Y018566D02*
X041516Y018566D01*
X041516Y018468D02*
X041121Y018468D01*
X041121Y018369D02*
X041516Y018369D01*
X041516Y018271D02*
X041121Y018271D01*
X041121Y018172D02*
X041516Y018172D01*
X041516Y018074D02*
X041121Y018074D01*
X041121Y017975D02*
X041148Y017975D01*
X041396Y017573D02*
X040521Y017573D01*
X039871Y017581D02*
X037071Y017581D01*
X037071Y017483D02*
X039871Y017483D01*
X039871Y017384D02*
X037071Y017384D01*
X037071Y017286D02*
X039871Y017286D01*
X039871Y017187D02*
X037071Y017187D01*
X037071Y017089D02*
X037663Y017089D01*
X037635Y017061D02*
X037635Y016747D01*
X037633Y016743D01*
X037633Y016388D01*
X037570Y016388D01*
X037473Y016485D01*
X037071Y016485D01*
X037071Y018446D01*
X037562Y018446D01*
X037635Y018519D01*
X037635Y018435D01*
X037735Y018336D01*
X038112Y018336D01*
X038211Y018435D01*
X038211Y018749D01*
X038213Y018753D01*
X038213Y018869D01*
X038211Y018873D01*
X038211Y019098D01*
X039135Y019098D01*
X039135Y018435D01*
X039235Y018336D01*
X039612Y018336D01*
X039711Y018435D01*
X039711Y019098D01*
X039871Y019098D01*
X039871Y016098D01*
X038423Y016098D01*
X038423Y016214D01*
X038323Y016313D01*
X038213Y016313D01*
X038213Y016743D01*
X038211Y016747D01*
X038211Y017061D01*
X038112Y017160D01*
X037735Y017160D01*
X037635Y017061D01*
X037635Y016990D02*
X037071Y016990D01*
X037071Y016892D02*
X037635Y016892D01*
X037635Y016793D02*
X037071Y016793D01*
X037071Y016695D02*
X037633Y016695D01*
X037633Y016596D02*
X037071Y016596D01*
X037071Y016498D02*
X037633Y016498D01*
X037633Y016399D02*
X037558Y016399D01*
X038213Y016399D02*
X039135Y016399D01*
X039135Y016310D02*
X039235Y016210D01*
X039612Y016210D01*
X039711Y016310D01*
X039711Y017061D01*
X039612Y017160D01*
X039235Y017160D01*
X039135Y017061D01*
X039135Y016310D01*
X039144Y016301D02*
X038336Y016301D01*
X038423Y016202D02*
X039871Y016202D01*
X039871Y016104D02*
X038423Y016104D01*
X038213Y016498D02*
X039135Y016498D01*
X039135Y016596D02*
X038213Y016596D01*
X038213Y016695D02*
X039135Y016695D01*
X039135Y016793D02*
X038211Y016793D01*
X038211Y016892D02*
X039135Y016892D01*
X039135Y016990D02*
X038211Y016990D01*
X038183Y017089D02*
X039163Y017089D01*
X039683Y017089D02*
X039871Y017089D01*
X039871Y016990D02*
X039711Y016990D01*
X039711Y016892D02*
X039871Y016892D01*
X039871Y016793D02*
X039711Y016793D01*
X039711Y016695D02*
X039871Y016695D01*
X039871Y016596D02*
X039711Y016596D01*
X039711Y016498D02*
X039871Y016498D01*
X039871Y016399D02*
X039711Y016399D01*
X039702Y016301D02*
X039871Y016301D01*
X040521Y016074D02*
X040521Y015272D01*
X041324Y015199D02*
X041375Y015148D01*
X041346Y015148D01*
X041375Y015148D02*
X041422Y015195D01*
X041422Y015965D01*
X041313Y016074D01*
X040521Y016074D01*
X041422Y015965D02*
X041422Y016199D01*
X041621Y016398D01*
X043197Y016398D01*
X043246Y016149D01*
X043821Y015698D02*
X044021Y015898D01*
X044021Y016149D01*
X044646Y016104D02*
X047396Y016104D01*
X047396Y016202D02*
X044646Y016202D01*
X044646Y016301D02*
X047396Y016301D01*
X047396Y016399D02*
X044646Y016399D01*
X044646Y016498D02*
X047396Y016498D01*
X047396Y016596D02*
X044646Y016596D01*
X044646Y016695D02*
X045632Y016695D01*
X045619Y016708D02*
X045719Y016608D01*
X047323Y016608D01*
X047396Y016681D01*
X047396Y015878D01*
X047053Y015878D01*
X047046Y015884D01*
X046963Y015878D01*
X046880Y015878D01*
X046874Y015872D01*
X046864Y015871D01*
X046810Y015808D01*
X046751Y015749D01*
X046751Y015740D01*
X046746Y015734D01*
X046700Y015688D01*
X046491Y015688D01*
X045719Y015688D01*
X045619Y015588D01*
X045619Y015273D01*
X044646Y015273D01*
X044646Y017123D01*
X045619Y017123D01*
X045619Y016708D01*
X045619Y016793D02*
X044646Y016793D01*
X044646Y016892D02*
X045619Y016892D01*
X045619Y016990D02*
X044646Y016990D01*
X044646Y017089D02*
X045619Y017089D01*
X045879Y017028D02*
X045879Y017540D01*
X045546Y017873D01*
X045545Y017873D02*
X045545Y018648D01*
X045571Y018674D01*
X046135Y018463D02*
X046135Y018234D01*
X046146Y018223D01*
X046135Y018212D01*
X046135Y017028D01*
X046391Y017028D02*
X046391Y017893D01*
X047121Y018623D01*
X047121Y018674D01*
X047196Y018548D01*
X047196Y018598D02*
X047121Y018674D01*
X047586Y018665D02*
X048826Y018665D01*
X048826Y018763D02*
X047586Y018763D01*
X047586Y018862D02*
X048826Y018862D01*
X048826Y018960D02*
X048778Y018960D01*
X048471Y018960D02*
X048371Y018960D01*
X048371Y019059D02*
X048471Y019059D01*
X048471Y019157D02*
X048371Y019157D01*
X048371Y019256D02*
X048471Y019256D01*
X048371Y019354D02*
X047566Y019354D01*
X047566Y019256D02*
X047976Y019256D01*
X047976Y019157D02*
X047566Y019157D01*
X047528Y019059D02*
X047981Y019059D01*
X048064Y018960D02*
X047586Y018960D01*
X047566Y019472D02*
X047566Y019698D01*
X047556Y019736D01*
X047536Y019770D01*
X047509Y019798D01*
X047474Y019818D01*
X047436Y019828D01*
X047171Y019828D01*
X047171Y019472D01*
X047566Y019472D01*
X047566Y019551D02*
X047976Y019551D01*
X047976Y019453D02*
X047171Y019453D01*
X047171Y019551D02*
X047071Y019551D01*
X047071Y019472D02*
X047071Y019828D01*
X046806Y019828D01*
X046768Y019818D01*
X046734Y019798D01*
X046734Y019798D01*
X046734Y019798D01*
X046699Y019818D01*
X046661Y019828D01*
X046396Y019828D01*
X046396Y019472D01*
X047071Y019472D01*
X047071Y019453D02*
X046396Y019453D01*
X046396Y019551D02*
X046296Y019551D01*
X046296Y019472D02*
X046296Y019828D01*
X046031Y019828D01*
X045993Y019818D01*
X045959Y019798D01*
X045959Y019798D01*
X045959Y019798D01*
X045924Y019818D01*
X045886Y019828D01*
X045621Y019828D01*
X045621Y019472D01*
X045621Y019372D01*
X046296Y019372D01*
X046296Y019472D01*
X046296Y019453D02*
X045621Y019453D01*
X045621Y019551D02*
X045521Y019551D01*
X045521Y019472D02*
X045521Y019828D01*
X045256Y019828D01*
X045218Y019818D01*
X045184Y019798D01*
X045184Y019798D01*
X045184Y019798D01*
X045149Y019818D01*
X045111Y019828D01*
X044846Y019828D01*
X044846Y019472D01*
X045521Y019472D01*
X045521Y019453D02*
X044846Y019453D01*
X044846Y019551D02*
X044746Y019551D01*
X044746Y019650D02*
X044846Y019650D01*
X044846Y019748D02*
X044746Y019748D01*
X045521Y019748D02*
X045621Y019748D01*
X045621Y019650D02*
X045521Y019650D01*
X046296Y019650D02*
X046396Y019650D01*
X046396Y019748D02*
X046296Y019748D01*
X046921Y020273D02*
X047596Y020273D01*
X048015Y020692D01*
X048421Y020692D01*
X048396Y020023D02*
X048746Y020023D01*
X049046Y019723D01*
X049046Y017398D01*
X048571Y016923D01*
X047171Y016923D01*
X047171Y016998D01*
X047163Y017006D01*
X047163Y017028D01*
X046907Y017028D02*
X046907Y017359D01*
X046971Y017423D01*
X048072Y017423D01*
X048096Y017399D01*
X048561Y017483D02*
X048820Y017483D01*
X048826Y017581D02*
X048561Y017581D01*
X048561Y017680D02*
X048826Y017680D01*
X048826Y017778D02*
X048509Y017778D01*
X048541Y017877D02*
X048826Y017877D01*
X048826Y017975D02*
X048541Y017975D01*
X048541Y018074D02*
X048826Y018074D01*
X048826Y018172D02*
X048146Y018172D01*
X048146Y018197D02*
X048541Y018197D01*
X048541Y018423D01*
X048531Y018461D01*
X048511Y018495D01*
X048484Y018523D01*
X048449Y018543D01*
X048411Y018553D01*
X048146Y018553D01*
X048146Y018197D01*
X048146Y018271D02*
X048046Y018271D01*
X048046Y018197D02*
X048046Y018553D01*
X047781Y018553D01*
X047743Y018543D01*
X047709Y018523D01*
X047681Y018495D01*
X047661Y018461D01*
X047651Y018423D01*
X047651Y018197D01*
X048046Y018197D01*
X048046Y018172D02*
X046981Y018172D01*
X046883Y018074D02*
X047651Y018074D01*
X047651Y017975D02*
X046784Y017975D01*
X046686Y017877D02*
X047651Y017877D01*
X047684Y017778D02*
X046611Y017778D01*
X046611Y017680D02*
X047631Y017680D01*
X046846Y017798D02*
X046651Y017603D01*
X046651Y017453D01*
X046611Y017483D02*
X046720Y017483D01*
X046818Y017581D02*
X046611Y017581D01*
X046135Y018463D02*
X046346Y018674D01*
X046246Y018674D01*
X045545Y017873D02*
X045371Y017899D01*
X044797Y017873D02*
X044796Y017874D01*
X044796Y018674D01*
X044021Y017699D02*
X044021Y016897D01*
X043246Y016897D01*
X043245Y016898D01*
X042871Y016898D01*
X042845Y016924D01*
X041796Y016831D02*
X041796Y018198D01*
X041796Y018423D01*
X039871Y018468D02*
X039711Y018468D01*
X039711Y018566D02*
X039871Y018566D01*
X039871Y018665D02*
X039711Y018665D01*
X039711Y018763D02*
X039871Y018763D01*
X039871Y018862D02*
X039711Y018862D01*
X039711Y018960D02*
X039871Y018960D01*
X039871Y019059D02*
X039711Y019059D01*
X039135Y019059D02*
X038211Y019059D01*
X038211Y018960D02*
X039135Y018960D01*
X039135Y018862D02*
X038213Y018862D01*
X038213Y018763D02*
X039135Y018763D01*
X039135Y018665D02*
X038211Y018665D01*
X038211Y018566D02*
X039135Y018566D01*
X039135Y018468D02*
X038211Y018468D01*
X038145Y018369D02*
X039201Y018369D01*
X039645Y018369D02*
X039871Y018369D01*
X039871Y018271D02*
X037071Y018271D01*
X037071Y018369D02*
X037701Y018369D01*
X037635Y018468D02*
X037583Y018468D01*
X037071Y018172D02*
X039871Y018172D01*
X039871Y018074D02*
X037071Y018074D01*
X037071Y017975D02*
X039871Y017975D01*
X039871Y017877D02*
X037071Y017877D01*
X037071Y017778D02*
X039871Y017778D01*
X039871Y017680D02*
X037071Y017680D01*
X033296Y018599D02*
X033295Y018598D01*
X033296Y018599D02*
X033296Y019073D01*
X031621Y018548D02*
X031271Y018548D01*
X031246Y018523D01*
X031246Y018248D01*
X030496Y017848D02*
X030496Y017347D01*
X030422Y017273D01*
X030422Y016498D01*
X031170Y016498D02*
X031195Y016473D01*
X031221Y016048D01*
X031170Y017273D02*
X031896Y017273D01*
X026391Y021418D02*
X025921Y020948D01*
X025046Y020348D02*
X023195Y020348D01*
X023021Y020522D01*
X022797Y020623D01*
X021796Y019697D02*
X021795Y019698D01*
X021796Y019273D02*
X021671Y019148D01*
X020071Y019148D01*
X019821Y018898D01*
X019821Y018773D01*
X019846Y018748D01*
X019072Y018718D02*
X018045Y018718D01*
X015191Y019308D02*
X015191Y019568D01*
X014441Y018298D02*
X014451Y018288D01*
X014441Y018298D02*
X012920Y018298D01*
X013021Y018323D01*
X012172Y018298D02*
X012146Y018298D01*
X011896Y018298D01*
X011596Y017998D01*
X011596Y016798D01*
X011296Y016498D01*
X010469Y016498D01*
X009953Y016014D01*
X008521Y015273D02*
X009296Y014498D01*
X010471Y014498D01*
X010953Y014016D01*
X010953Y014014D01*
X011596Y014423D02*
X011796Y014623D01*
X011596Y014423D02*
X011596Y013298D01*
X011312Y013014D01*
X010953Y013014D01*
X012522Y011349D02*
X012921Y011748D01*
X014496Y011748D01*
X014846Y012098D01*
X014846Y012773D01*
X015346Y013273D01*
X016059Y013050D02*
X016294Y013050D01*
X017002Y012342D01*
X017151Y012342D01*
X017027Y012342D01*
X016646Y012223D02*
X016346Y012523D01*
X016086Y012523D01*
X016059Y012550D01*
X016071Y012548D02*
X016046Y012523D01*
X015796Y012523D01*
X015296Y012023D01*
X015296Y011498D01*
X015121Y011323D01*
X014820Y011248D01*
X014845Y011247D01*
X014097Y010499D01*
X014072Y010448D01*
X014072Y010197D01*
X014296Y009973D01*
X015346Y009973D01*
X015521Y009798D01*
X015521Y009550D01*
X015524Y009522D01*
X014776Y009522D02*
X014776Y009193D01*
X015021Y008948D01*
X015221Y008748D01*
X015221Y008373D01*
X015472Y008373D01*
X015221Y008373D02*
X015221Y007323D01*
X015394Y007150D01*
X015733Y007150D01*
X016521Y006523D02*
X016296Y006298D01*
X016296Y005398D01*
X016071Y005173D01*
X016071Y005172D02*
X015272Y005172D01*
X015271Y005173D01*
X014496Y005197D02*
X014496Y005573D01*
X014496Y005197D02*
X014471Y005172D01*
X013821Y005448D02*
X013795Y005422D01*
X013379Y005422D01*
X013821Y005448D02*
X013821Y005848D01*
X013896Y005923D01*
X013821Y005448D02*
X013821Y004048D01*
X013621Y003848D01*
X013370Y003848D01*
X012622Y003848D02*
X012622Y004524D01*
X012646Y004548D01*
X011946Y004548D01*
X011671Y004823D01*
X011671Y005597D01*
X011670Y005598D01*
X012521Y005323D02*
X012521Y005056D01*
X012513Y005048D01*
X012521Y005323D02*
X013196Y005998D01*
X013379Y004674D02*
X013554Y004631D01*
X013471Y004548D01*
X012646Y004548D01*
X014471Y004424D02*
X015271Y004424D01*
X016896Y005172D02*
X016896Y005173D01*
X017296Y005573D01*
X017296Y006648D01*
X016971Y006973D01*
X016971Y007423D01*
X017671Y008123D01*
X017671Y008373D01*
X017770Y008373D01*
X017721Y008324D01*
X017721Y008248D01*
X017671Y008373D02*
X017646Y008398D01*
X017022Y008373D02*
X016220Y008373D01*
X017371Y007148D02*
X017782Y007148D01*
X017859Y007150D01*
X017859Y007650D02*
X017798Y007650D01*
X017859Y006650D02*
X017782Y006648D01*
X017296Y006648D01*
X018697Y006573D02*
X018697Y006449D01*
X018696Y006448D01*
X018697Y005805D02*
X018697Y005799D01*
X018696Y005798D01*
X021321Y005761D02*
X022196Y005761D01*
X022196Y005823D02*
X022196Y005299D01*
X022272Y005115D01*
X022413Y004974D01*
X022763Y004624D01*
X022947Y004548D01*
X023424Y004548D01*
X023424Y004348D01*
X023524Y004248D01*
X023746Y004248D01*
X023746Y002598D01*
X021296Y002598D01*
X021321Y005798D01*
X021321Y005823D01*
X022196Y005823D01*
X022196Y005663D02*
X021320Y005663D01*
X021319Y005564D02*
X022196Y005564D01*
X022196Y005466D02*
X021319Y005466D01*
X021318Y005367D02*
X022196Y005367D01*
X022209Y005269D02*
X021317Y005269D01*
X021316Y005170D02*
X022249Y005170D01*
X022315Y005072D02*
X021315Y005072D01*
X021315Y004973D02*
X022414Y004973D01*
X022512Y004875D02*
X021314Y004875D01*
X021313Y004776D02*
X022611Y004776D01*
X022709Y004678D02*
X021312Y004678D01*
X021312Y004579D02*
X022872Y004579D01*
X023424Y004481D02*
X021311Y004481D01*
X021310Y004382D02*
X023424Y004382D01*
X023488Y004284D02*
X021309Y004284D01*
X021309Y004185D02*
X023746Y004185D01*
X023746Y004087D02*
X021308Y004087D01*
X021307Y003988D02*
X023746Y003988D01*
X023746Y003890D02*
X021306Y003890D01*
X021305Y003791D02*
X023746Y003791D01*
X023746Y003693D02*
X021305Y003693D01*
X021304Y003594D02*
X023746Y003594D01*
X023746Y003496D02*
X021303Y003496D01*
X021302Y003397D02*
X023746Y003397D01*
X023746Y003299D02*
X021302Y003299D01*
X021301Y003200D02*
X023746Y003200D01*
X023746Y003102D02*
X021300Y003102D01*
X021299Y003003D02*
X023746Y003003D01*
X023746Y002905D02*
X021299Y002905D01*
X021298Y002806D02*
X023746Y002806D01*
X023746Y002708D02*
X021297Y002708D01*
X021296Y002609D02*
X023746Y002609D01*
X024006Y002609D02*
X025059Y002609D01*
X025059Y002511D02*
X023991Y002511D01*
X023986Y002498D02*
X024006Y002546D01*
X024006Y004208D01*
X024390Y004208D01*
X024513Y004331D01*
X024513Y005765D01*
X024390Y005888D01*
X023507Y005888D01*
X023384Y005765D01*
X023384Y005588D01*
X023270Y005588D01*
X023236Y005622D01*
X023236Y006168D01*
X023303Y006234D01*
X023303Y006778D01*
X023179Y006901D01*
X022026Y006901D01*
X021921Y006796D01*
X021476Y006796D01*
X021476Y007217D01*
X021445Y007248D01*
X021476Y007279D01*
X021476Y007965D01*
X021425Y008016D01*
X021921Y008016D01*
X022026Y007911D01*
X023179Y007911D01*
X023303Y008034D01*
X023303Y008578D01*
X023179Y008701D01*
X022026Y008701D01*
X021921Y008596D01*
X021342Y008596D01*
X021342Y008809D01*
X021339Y008813D01*
X027288Y008813D01*
X027288Y008529D01*
X027527Y008290D01*
X027586Y008290D01*
X027586Y004908D01*
X025269Y004908D01*
X025174Y004868D01*
X025101Y004795D01*
X025061Y004700D01*
X025061Y003942D01*
X025059Y003940D01*
X025059Y002506D01*
X025067Y002498D01*
X023986Y002498D01*
X024006Y002708D02*
X025059Y002708D01*
X025059Y002806D02*
X024006Y002806D01*
X024006Y002905D02*
X025059Y002905D01*
X025059Y003003D02*
X024006Y003003D01*
X024006Y003102D02*
X025059Y003102D01*
X025059Y003200D02*
X024006Y003200D01*
X024006Y003299D02*
X025059Y003299D01*
X025059Y003397D02*
X024006Y003397D01*
X024006Y003496D02*
X025059Y003496D01*
X025059Y003594D02*
X024006Y003594D01*
X024006Y003693D02*
X025059Y003693D01*
X025059Y003791D02*
X024006Y003791D01*
X024006Y003890D02*
X025059Y003890D01*
X025061Y003988D02*
X024006Y003988D01*
X024006Y004087D02*
X025061Y004087D01*
X025061Y004185D02*
X024006Y004185D01*
X024465Y004284D02*
X025061Y004284D01*
X025061Y004382D02*
X024513Y004382D01*
X024513Y004481D02*
X025061Y004481D01*
X025061Y004579D02*
X024513Y004579D01*
X024513Y004678D02*
X025061Y004678D01*
X025093Y004776D02*
X024513Y004776D01*
X024513Y004875D02*
X025189Y004875D01*
X025321Y004648D02*
X027401Y004648D01*
X027303Y004551D01*
X027303Y004246D01*
X027519Y004030D01*
X027824Y004030D01*
X027946Y004152D01*
X027946Y002598D01*
X025321Y002598D01*
X025321Y004648D01*
X025321Y004579D02*
X027332Y004579D01*
X027303Y004481D02*
X025321Y004481D01*
X025321Y004382D02*
X027303Y004382D01*
X027303Y004284D02*
X025321Y004284D01*
X025321Y004185D02*
X027363Y004185D01*
X027462Y004087D02*
X025321Y004087D01*
X025321Y003988D02*
X027946Y003988D01*
X027946Y003890D02*
X025321Y003890D01*
X025321Y003791D02*
X027946Y003791D01*
X027946Y003693D02*
X025321Y003693D01*
X025321Y003594D02*
X027946Y003594D01*
X027946Y003496D02*
X025321Y003496D01*
X025321Y003397D02*
X027946Y003397D01*
X027946Y003299D02*
X025321Y003299D01*
X025321Y003200D02*
X027946Y003200D01*
X027946Y003102D02*
X025321Y003102D01*
X025321Y003003D02*
X027946Y003003D01*
X027946Y002905D02*
X025321Y002905D01*
X025321Y002806D02*
X027946Y002806D01*
X027946Y002708D02*
X025321Y002708D01*
X025321Y002609D02*
X027946Y002609D01*
X025623Y003223D02*
X025546Y003146D01*
X025546Y002023D01*
X025370Y001847D01*
X025370Y001823D01*
X024622Y001823D02*
X024522Y001923D01*
X023421Y002548D02*
X023421Y003221D01*
X023419Y003223D01*
X023421Y002548D02*
X023246Y002373D01*
X022596Y002373D01*
X022296Y002073D01*
X022296Y001448D01*
X022645Y001099D01*
X022913Y001099D01*
X022913Y001847D02*
X022913Y001865D01*
X022971Y001923D01*
X027671Y004398D02*
X027846Y004573D01*
X027846Y008548D01*
X027696Y008698D01*
X027396Y008421D02*
X023303Y008421D01*
X023303Y008519D02*
X027298Y008519D01*
X027288Y008618D02*
X023263Y008618D01*
X023303Y008322D02*
X027495Y008322D01*
X027586Y008224D02*
X023303Y008224D01*
X023303Y008125D02*
X027586Y008125D01*
X027586Y008027D02*
X023295Y008027D01*
X023197Y007928D02*
X027586Y007928D01*
X027586Y007830D02*
X021476Y007830D01*
X021476Y007928D02*
X022008Y007928D01*
X021476Y007731D02*
X027586Y007731D01*
X027586Y007633D02*
X021476Y007633D01*
X021476Y007534D02*
X027586Y007534D01*
X027586Y007436D02*
X021476Y007436D01*
X021476Y007337D02*
X027586Y007337D01*
X027586Y007239D02*
X021455Y007239D01*
X021476Y007140D02*
X027586Y007140D01*
X027586Y007042D02*
X021476Y007042D01*
X021476Y006943D02*
X027586Y006943D01*
X027586Y006845D02*
X023236Y006845D01*
X023303Y006746D02*
X027586Y006746D01*
X027586Y006648D02*
X023303Y006648D01*
X023303Y006549D02*
X027586Y006549D01*
X027586Y006451D02*
X023303Y006451D01*
X023303Y006352D02*
X027586Y006352D01*
X027586Y006254D02*
X023303Y006254D01*
X023236Y006155D02*
X027586Y006155D01*
X027586Y006057D02*
X023236Y006057D01*
X023236Y005958D02*
X027586Y005958D01*
X027586Y005860D02*
X024418Y005860D01*
X024513Y005761D02*
X027586Y005761D01*
X027586Y005663D02*
X024513Y005663D01*
X024513Y005564D02*
X027586Y005564D01*
X027586Y005466D02*
X024513Y005466D01*
X024513Y005367D02*
X027586Y005367D01*
X027586Y005269D02*
X024513Y005269D01*
X024513Y005170D02*
X027586Y005170D01*
X027586Y005072D02*
X024513Y005072D01*
X024513Y004973D02*
X027586Y004973D01*
X029121Y005498D02*
X029121Y007573D01*
X029821Y007573D01*
X030105Y007289D01*
X030033Y007289D01*
X029934Y007189D01*
X029934Y006655D01*
X030033Y006555D01*
X030725Y006555D01*
X030825Y006655D01*
X030825Y007189D01*
X030725Y007289D01*
X030609Y007289D01*
X030609Y007435D01*
X029951Y008093D01*
X029936Y008108D01*
X029936Y008325D01*
X029889Y008373D01*
X029936Y008421D01*
X032696Y008421D01*
X032696Y008519D02*
X029936Y008519D01*
X029936Y008421D02*
X029936Y009073D01*
X029837Y009173D01*
X029357Y009173D01*
X029237Y009293D01*
X029141Y009293D01*
X029141Y010398D01*
X030359Y010407D01*
X030909Y009856D01*
X030980Y009786D01*
X031071Y009748D01*
X031154Y009748D01*
X031154Y009644D01*
X031254Y009544D01*
X031678Y009544D01*
X031678Y009271D01*
X031894Y009055D01*
X032199Y009055D01*
X032317Y009173D01*
X032696Y009173D01*
X032696Y005498D01*
X030646Y005498D01*
X030646Y005807D01*
X030725Y005807D01*
X030825Y005907D01*
X030825Y006441D01*
X030725Y006541D01*
X030033Y006541D01*
X029934Y006441D01*
X029934Y005907D01*
X030033Y005807D01*
X030146Y005807D01*
X030146Y005498D01*
X029121Y005498D01*
X029121Y005564D02*
X030146Y005564D01*
X030146Y005663D02*
X029121Y005663D01*
X029121Y005761D02*
X030146Y005761D01*
X029981Y005860D02*
X029121Y005860D01*
X029121Y005958D02*
X029934Y005958D01*
X029934Y006057D02*
X029121Y006057D01*
X029121Y006155D02*
X029934Y006155D01*
X029934Y006254D02*
X029121Y006254D01*
X029121Y006352D02*
X029934Y006352D01*
X029943Y006451D02*
X029121Y006451D01*
X029121Y006549D02*
X031015Y006549D01*
X031015Y006451D02*
X030815Y006451D01*
X030825Y006352D02*
X031015Y006352D01*
X031015Y006254D02*
X030825Y006254D01*
X030825Y006155D02*
X031015Y006155D01*
X031015Y006057D02*
X030825Y006057D01*
X030825Y005958D02*
X031046Y005958D01*
X031015Y006034D02*
X031108Y005809D01*
X031280Y005637D01*
X031505Y005544D01*
X031749Y005544D01*
X031974Y005637D01*
X032146Y005809D01*
X032240Y006034D01*
X032240Y007163D01*
X032146Y007388D01*
X031974Y007561D01*
X031749Y007654D01*
X031505Y007654D01*
X031280Y007561D01*
X031108Y007388D01*
X031015Y007163D01*
X031015Y006034D01*
X031087Y005860D02*
X030778Y005860D01*
X030646Y005761D02*
X031156Y005761D01*
X031255Y005663D02*
X030646Y005663D01*
X030646Y005564D02*
X031456Y005564D01*
X031798Y005564D02*
X032696Y005564D01*
X032696Y005663D02*
X032000Y005663D01*
X032098Y005761D02*
X032696Y005761D01*
X032696Y005860D02*
X032167Y005860D01*
X032208Y005958D02*
X032696Y005958D01*
X032696Y006057D02*
X032240Y006057D01*
X032240Y006155D02*
X032696Y006155D01*
X032696Y006254D02*
X032240Y006254D01*
X032240Y006352D02*
X032696Y006352D01*
X032696Y006451D02*
X032240Y006451D01*
X032240Y006549D02*
X032696Y006549D01*
X032696Y006648D02*
X032240Y006648D01*
X032240Y006746D02*
X032696Y006746D01*
X032696Y006845D02*
X032240Y006845D01*
X032240Y006943D02*
X032696Y006943D01*
X032696Y007042D02*
X032240Y007042D01*
X032240Y007140D02*
X032696Y007140D01*
X032696Y007239D02*
X032208Y007239D01*
X032167Y007337D02*
X032696Y007337D01*
X032696Y007436D02*
X032099Y007436D01*
X032000Y007534D02*
X032696Y007534D01*
X032696Y007633D02*
X031800Y007633D01*
X031454Y007633D02*
X030412Y007633D01*
X030313Y007731D02*
X032696Y007731D01*
X032696Y007830D02*
X030215Y007830D01*
X030116Y007928D02*
X032696Y007928D01*
X032696Y008027D02*
X030018Y008027D01*
X029936Y008125D02*
X032696Y008125D01*
X032696Y008224D02*
X029936Y008224D01*
X029936Y008322D02*
X032696Y008322D01*
X032696Y008618D02*
X029936Y008618D01*
X029936Y008716D02*
X032696Y008716D01*
X032696Y008815D02*
X029936Y008815D01*
X029936Y008913D02*
X032696Y008913D01*
X032696Y009012D02*
X029936Y009012D01*
X029900Y009110D02*
X031838Y009110D01*
X031740Y009209D02*
X029322Y009209D01*
X029141Y009307D02*
X031678Y009307D01*
X031678Y009406D02*
X029141Y009406D01*
X029141Y009504D02*
X031678Y009504D01*
X031196Y009603D02*
X029141Y009603D01*
X029141Y009701D02*
X031154Y009701D01*
X030966Y009800D02*
X029141Y009800D01*
X029141Y009898D02*
X030867Y009898D01*
X030769Y009997D02*
X029141Y009997D01*
X029141Y010095D02*
X030670Y010095D01*
X030572Y010194D02*
X029141Y010194D01*
X029141Y010292D02*
X030473Y010292D01*
X030375Y010391D02*
X029141Y010391D01*
X028921Y010498D02*
X028746Y010673D01*
X028921Y010498D02*
X028921Y009073D01*
X029146Y009073D01*
X029471Y008748D01*
X028921Y009073D02*
X018721Y009073D01*
X018621Y009173D01*
X018621Y010098D01*
X018296Y010423D01*
X018117Y010423D01*
X018596Y010434D02*
X018596Y011205D01*
X018607Y011216D01*
X018607Y011241D01*
X018619Y011230D01*
X018924Y011230D01*
X019139Y011446D01*
X019139Y011455D01*
X019562Y011878D01*
X019691Y012007D01*
X019691Y012582D01*
X019737Y012628D01*
X026021Y012628D01*
X026021Y012566D01*
X025869Y012566D01*
X025653Y012351D01*
X025653Y012198D01*
X024930Y012198D01*
X024831Y012098D01*
X024831Y011446D01*
X024879Y011398D01*
X024831Y011350D01*
X024831Y011273D01*
X024520Y011273D01*
X024325Y011273D01*
X024221Y011377D01*
X024221Y012048D01*
X024183Y012140D01*
X024113Y012210D01*
X024113Y012210D01*
X023998Y012325D01*
X023928Y012395D01*
X023851Y012427D01*
X023851Y012478D01*
X023752Y012578D01*
X022861Y012578D01*
X022761Y012478D01*
X022761Y011888D01*
X022861Y011788D01*
X023721Y011788D01*
X023721Y011643D01*
X023701Y011648D01*
X023356Y011648D01*
X023356Y011323D01*
X023256Y011323D01*
X023256Y011223D01*
X022781Y011223D01*
X022781Y011028D01*
X022791Y010990D01*
X022811Y010956D01*
X022839Y010928D01*
X022873Y010908D01*
X022911Y010898D01*
X023256Y010898D01*
X023256Y011223D01*
X023356Y011223D01*
X023356Y010898D01*
X023701Y010898D01*
X023739Y010908D01*
X023773Y010928D01*
X023801Y010956D01*
X023821Y010990D01*
X023831Y011028D01*
X023831Y011059D01*
X024009Y010881D01*
X024080Y010811D01*
X024171Y010773D01*
X024471Y010773D01*
X024520Y010773D01*
X024570Y010773D01*
X024831Y010773D01*
X024831Y010698D01*
X024916Y010613D01*
X023851Y010613D01*
X023851Y010658D01*
X023752Y010758D01*
X022861Y010758D01*
X022761Y010658D01*
X022761Y010068D01*
X022861Y009968D01*
X023752Y009968D01*
X023851Y010068D01*
X023851Y010113D01*
X025721Y010113D01*
X025721Y009657D01*
X025821Y009558D01*
X026021Y009558D01*
X026021Y009293D01*
X021282Y009293D01*
X021282Y009519D01*
X020946Y009519D01*
X020946Y009619D01*
X020846Y009619D01*
X020846Y009519D01*
X020510Y009519D01*
X020510Y009293D01*
X018841Y009293D01*
X018841Y010189D01*
X018712Y010318D01*
X018596Y010434D01*
X018596Y010489D02*
X022761Y010489D01*
X022761Y010391D02*
X018640Y010391D01*
X018738Y010292D02*
X022761Y010292D01*
X022761Y010194D02*
X018837Y010194D01*
X018841Y010095D02*
X022761Y010095D01*
X022832Y009997D02*
X021203Y009997D01*
X021190Y010004D02*
X021152Y010014D01*
X020946Y010014D01*
X020946Y009619D01*
X021282Y009619D01*
X021282Y009884D01*
X021272Y009922D01*
X021252Y009956D01*
X021224Y009984D01*
X021190Y010004D01*
X021279Y009898D02*
X025721Y009898D01*
X025721Y009800D02*
X021282Y009800D01*
X021282Y009701D02*
X025721Y009701D01*
X025776Y009603D02*
X020946Y009603D01*
X020946Y009701D02*
X020846Y009701D01*
X020846Y009619D02*
X020846Y010014D01*
X020640Y010014D01*
X020602Y010004D01*
X020568Y009984D01*
X020540Y009956D01*
X020520Y009922D01*
X020510Y009884D01*
X020510Y009619D01*
X020846Y009619D01*
X020846Y009603D02*
X018841Y009603D01*
X018841Y009701D02*
X020510Y009701D01*
X020510Y009800D02*
X018841Y009800D01*
X018841Y009898D02*
X020514Y009898D01*
X020589Y009997D02*
X018841Y009997D01*
X018841Y009504D02*
X020510Y009504D01*
X020510Y009406D02*
X018841Y009406D01*
X018841Y009307D02*
X020510Y009307D01*
X020846Y009800D02*
X020946Y009800D01*
X020946Y009898D02*
X020846Y009898D01*
X020846Y009997D02*
X020946Y009997D01*
X021282Y009504D02*
X026021Y009504D01*
X026021Y009406D02*
X021282Y009406D01*
X021282Y009307D02*
X026021Y009307D01*
X025721Y009997D02*
X023780Y009997D01*
X023851Y010095D02*
X025721Y010095D01*
X024842Y010686D02*
X023823Y010686D01*
X024009Y010881D02*
X024009Y010881D01*
X024007Y010883D02*
X018596Y010883D01*
X018596Y010785D02*
X024143Y010785D01*
X023909Y010982D02*
X023816Y010982D01*
X023356Y010982D02*
X023256Y010982D01*
X023256Y011080D02*
X023356Y011080D01*
X023356Y011179D02*
X023256Y011179D01*
X023256Y011277D02*
X018971Y011277D01*
X019069Y011376D02*
X022781Y011376D01*
X022781Y011323D02*
X023256Y011323D01*
X023256Y011648D01*
X022911Y011648D01*
X022873Y011638D01*
X022839Y011618D01*
X022811Y011590D01*
X022791Y011556D01*
X022781Y011518D01*
X022781Y011323D01*
X022781Y011179D02*
X018596Y011179D01*
X018596Y011080D02*
X022781Y011080D01*
X022796Y010982D02*
X018596Y010982D01*
X018596Y010686D02*
X022789Y010686D01*
X022761Y010588D02*
X018596Y010588D01*
X017796Y011048D02*
X018146Y011398D01*
X018146Y011523D01*
X018221Y011523D01*
X018221Y011573D01*
X018596Y011948D01*
X018996Y011948D01*
X019246Y012198D01*
X019246Y013447D01*
X019247Y013298D01*
X019646Y012848D02*
X019471Y012673D01*
X019471Y012098D01*
X018971Y011598D01*
X018771Y011598D01*
X019158Y011474D02*
X022781Y011474D01*
X022801Y011573D02*
X019257Y011573D01*
X019355Y011671D02*
X023721Y011671D01*
X023721Y011770D02*
X019454Y011770D01*
X019552Y011868D02*
X022781Y011868D01*
X022761Y011967D02*
X019651Y011967D01*
X019691Y012065D02*
X022761Y012065D01*
X022761Y012164D02*
X019691Y012164D01*
X019691Y012262D02*
X022761Y012262D01*
X022761Y012361D02*
X019691Y012361D01*
X019691Y012459D02*
X022761Y012459D01*
X022840Y012558D02*
X019691Y012558D01*
X019646Y012848D02*
X026371Y012848D01*
X026446Y012923D01*
X028471Y012923D01*
X028646Y012748D01*
X029146Y012748D01*
X029296Y012898D01*
X032046Y012898D01*
X032396Y012548D01*
X039721Y012548D01*
X040646Y013473D01*
X041395Y013473D02*
X041796Y013473D01*
X043146Y014823D01*
X045971Y014823D01*
X046135Y014987D01*
X046135Y015268D01*
X046391Y015268D02*
X046391Y014943D01*
X046147Y014699D01*
X046147Y014348D01*
X046521Y013974D02*
X046521Y013348D01*
X046296Y013123D01*
X046796Y012948D02*
X046796Y014223D01*
X046896Y014323D01*
X046907Y014336D02*
X046907Y014360D01*
X046895Y014348D01*
X046521Y014773D02*
X046651Y014903D01*
X046651Y015268D01*
X046907Y015268D02*
X046907Y015584D01*
X046971Y015658D01*
X047646Y015658D01*
X047786Y015513D01*
X047996Y015303D01*
X047996Y015297D01*
X047921Y015373D02*
X047786Y015513D01*
X047396Y015907D02*
X044646Y015907D01*
X044646Y016005D02*
X047396Y016005D01*
X046810Y015808D02*
X044646Y015808D01*
X044646Y015710D02*
X046722Y015710D01*
X045642Y015611D02*
X044646Y015611D01*
X044646Y015513D02*
X045619Y015513D01*
X045619Y015414D02*
X044646Y015414D01*
X044646Y015316D02*
X045619Y015316D01*
X044471Y014398D02*
X044471Y012998D01*
X044746Y012723D01*
X045371Y012723D01*
X045371Y011598D01*
X045496Y011473D01*
X046496Y011473D01*
X046996Y010973D01*
X046996Y010473D01*
X044871Y010473D01*
X043371Y011973D01*
X043371Y014398D01*
X044471Y014398D01*
X044471Y014331D02*
X043371Y014331D01*
X043371Y014232D02*
X044471Y014232D01*
X044471Y014134D02*
X043371Y014134D01*
X043371Y014035D02*
X044471Y014035D01*
X044471Y013937D02*
X043371Y013937D01*
X043371Y013838D02*
X044471Y013838D01*
X044471Y013740D02*
X043371Y013740D01*
X043371Y013641D02*
X044471Y013641D01*
X044471Y013543D02*
X043371Y013543D01*
X043371Y013444D02*
X044471Y013444D01*
X044471Y013346D02*
X043371Y013346D01*
X043371Y013247D02*
X044471Y013247D01*
X044471Y013149D02*
X043371Y013149D01*
X043371Y013050D02*
X044471Y013050D01*
X044518Y012952D02*
X043371Y012952D01*
X043371Y012853D02*
X044616Y012853D01*
X044715Y012755D02*
X043371Y012755D01*
X043371Y012656D02*
X045371Y012656D01*
X045371Y012558D02*
X043371Y012558D01*
X043371Y012459D02*
X045371Y012459D01*
X045371Y012361D02*
X043371Y012361D01*
X043371Y012262D02*
X045371Y012262D01*
X045371Y012164D02*
X043371Y012164D01*
X043371Y012065D02*
X045371Y012065D01*
X045371Y011967D02*
X043378Y011967D01*
X043476Y011868D02*
X045371Y011868D01*
X045371Y011770D02*
X043575Y011770D01*
X043673Y011671D02*
X045371Y011671D01*
X045397Y011573D02*
X043772Y011573D01*
X043870Y011474D02*
X045495Y011474D01*
X044461Y010883D02*
X046996Y010883D01*
X046996Y010785D02*
X044560Y010785D01*
X044658Y010686D02*
X046996Y010686D01*
X046996Y010588D02*
X044757Y010588D01*
X044855Y010489D02*
X046996Y010489D01*
X048146Y010098D02*
X048346Y010298D01*
X048346Y010848D01*
X048646Y011148D01*
X049471Y011148D01*
X049538Y011081D01*
X049538Y010988D01*
X049621Y010905D01*
X049621Y008723D01*
X049446Y008548D01*
X049248Y008548D01*
X049208Y008588D01*
X048404Y008588D01*
X048364Y008548D01*
X048346Y008548D01*
X048021Y008223D01*
X048021Y006723D01*
X047796Y006498D01*
X045121Y006473D01*
X045101Y006493D01*
X045101Y007140D01*
X048021Y007140D01*
X048021Y007042D02*
X045101Y007042D01*
X045101Y007140D02*
X044996Y007245D01*
X044996Y009898D01*
X045196Y010098D01*
X048146Y010098D01*
X048242Y010194D02*
X049621Y010194D01*
X049621Y010292D02*
X048340Y010292D01*
X048346Y010391D02*
X049621Y010391D01*
X049621Y010489D02*
X048346Y010489D01*
X048346Y010588D02*
X049621Y010588D01*
X049621Y010686D02*
X048346Y010686D01*
X048346Y010785D02*
X049621Y010785D01*
X049621Y010883D02*
X048381Y010883D01*
X048480Y010982D02*
X049544Y010982D01*
X049538Y011080D02*
X048578Y011080D01*
X048846Y011423D02*
X047371Y011423D01*
X047246Y011548D01*
X047246Y012723D01*
X047771Y012723D01*
X048121Y012373D01*
X048846Y012373D01*
X048846Y011423D01*
X048846Y011474D02*
X047320Y011474D01*
X047246Y011573D02*
X048846Y011573D01*
X048846Y011671D02*
X047246Y011671D01*
X047246Y011770D02*
X048846Y011770D01*
X048846Y011868D02*
X047246Y011868D01*
X047246Y011967D02*
X048846Y011967D01*
X048846Y012065D02*
X047246Y012065D01*
X047246Y012164D02*
X048846Y012164D01*
X048846Y012262D02*
X047246Y012262D01*
X047246Y012361D02*
X048846Y012361D01*
X048035Y012459D02*
X047246Y012459D01*
X047246Y012558D02*
X047937Y012558D01*
X047838Y012656D02*
X047246Y012656D01*
X046796Y012948D02*
X045996Y012148D01*
X045119Y012148D01*
X044067Y011277D02*
X046692Y011277D01*
X046791Y011179D02*
X044166Y011179D01*
X044264Y011080D02*
X046889Y011080D01*
X046988Y010982D02*
X044363Y010982D01*
X043969Y011376D02*
X046594Y011376D01*
X046671Y012148D02*
X047323Y012148D01*
X049746Y012164D02*
X056896Y012164D01*
X056896Y012262D02*
X049746Y012262D01*
X049746Y012361D02*
X056896Y012361D01*
X056896Y012459D02*
X049746Y012459D01*
X049746Y012558D02*
X056896Y012558D01*
X056896Y012656D02*
X049746Y012656D01*
X049746Y012755D02*
X056896Y012755D01*
X056896Y012853D02*
X049746Y012853D01*
X049746Y012952D02*
X056896Y012952D01*
X056896Y013050D02*
X049746Y013050D01*
X049746Y013149D02*
X056896Y013149D01*
X056896Y013247D02*
X049746Y013247D01*
X049746Y013346D02*
X056896Y013346D01*
X056896Y013444D02*
X049746Y013444D01*
X049746Y013543D02*
X056896Y013543D01*
X056896Y013641D02*
X049746Y013641D01*
X049746Y013740D02*
X056896Y013740D01*
X056896Y013838D02*
X049746Y013838D01*
X049746Y013937D02*
X056896Y013937D01*
X056896Y014035D02*
X049746Y014035D01*
X049746Y014134D02*
X056896Y014134D01*
X056896Y014232D02*
X049746Y014232D01*
X049746Y014331D02*
X056896Y014331D01*
X056896Y014429D02*
X049746Y014429D01*
X049746Y014528D02*
X056896Y014528D01*
X056896Y014626D02*
X049746Y014626D01*
X049746Y014725D02*
X056896Y014725D01*
X056896Y014823D02*
X049746Y014823D01*
X049746Y014922D02*
X056896Y014922D01*
X056896Y015020D02*
X049746Y015020D01*
X049746Y015119D02*
X056896Y015119D01*
X056896Y015217D02*
X049746Y015217D01*
X049746Y015316D02*
X056896Y015316D01*
X056896Y015414D02*
X049746Y015414D01*
X049746Y015513D02*
X056896Y015513D01*
X056896Y015611D02*
X049746Y015611D01*
X049746Y015710D02*
X056896Y015710D01*
X056896Y015808D02*
X049746Y015808D01*
X049746Y015907D02*
X056896Y015907D01*
X056896Y016005D02*
X049746Y016005D01*
X049746Y016104D02*
X056896Y016104D01*
X056896Y016202D02*
X049746Y016202D01*
X049746Y016301D02*
X056896Y016301D01*
X056896Y016399D02*
X049746Y016399D01*
X049746Y016498D02*
X056896Y016498D01*
X056896Y016596D02*
X049746Y016596D01*
X049746Y016695D02*
X056896Y016695D01*
X056896Y016793D02*
X052463Y016793D01*
X052511Y016840D01*
X052543Y016808D01*
X052949Y016808D01*
X053236Y017095D01*
X053236Y017501D01*
X052949Y017788D01*
X052543Y017788D01*
X052511Y017756D01*
X052463Y017803D01*
X051777Y017803D01*
X051746Y017772D01*
X051715Y017803D01*
X051029Y017803D01*
X050967Y017741D01*
X050941Y017768D01*
X050551Y017768D01*
X050276Y017493D01*
X050276Y017103D01*
X050551Y016828D01*
X050941Y016828D01*
X050967Y016855D01*
X051029Y016793D01*
X049746Y016793D01*
X049746Y016892D02*
X050488Y016892D01*
X050389Y016990D02*
X049746Y016990D01*
X049746Y017089D02*
X050291Y017089D01*
X050276Y017187D02*
X049746Y017187D01*
X049746Y017286D02*
X050276Y017286D01*
X050276Y017384D02*
X049746Y017384D01*
X049746Y017483D02*
X050276Y017483D01*
X050365Y017581D02*
X049779Y017581D01*
X049746Y017548D02*
X050246Y018048D01*
X056321Y018048D01*
X056896Y017473D01*
X056896Y006398D01*
X056814Y006311D01*
X056421Y006311D01*
X056298Y006188D01*
X056298Y005769D01*
X055921Y005373D01*
X055871Y005348D01*
X049196Y005348D01*
X048971Y005573D01*
X048971Y007458D01*
X049208Y007458D01*
X049273Y007524D01*
X049279Y007518D01*
X049965Y007518D01*
X050088Y007641D01*
X050088Y008405D01*
X049965Y008528D01*
X049794Y008528D01*
X049842Y008576D01*
X049881Y008671D01*
X049881Y011050D01*
X049842Y011145D01*
X049768Y011218D01*
X049746Y011241D01*
X049746Y017548D01*
X049878Y017680D02*
X050463Y017680D01*
X050173Y017975D02*
X056394Y017975D01*
X056493Y017877D02*
X050075Y017877D01*
X049976Y017778D02*
X051004Y017778D01*
X050746Y017298D02*
X051372Y017298D01*
X051746Y016824D02*
X051777Y016793D01*
X051715Y016793D01*
X051746Y016824D01*
X051715Y016793D02*
X051029Y016793D01*
X051777Y016793D02*
X052463Y016793D01*
X053033Y016892D02*
X056896Y016892D01*
X056896Y016990D02*
X053131Y016990D01*
X053230Y017089D02*
X056896Y017089D01*
X056896Y017187D02*
X053236Y017187D01*
X053236Y017286D02*
X056896Y017286D01*
X056896Y017384D02*
X053236Y017384D01*
X053236Y017483D02*
X056887Y017483D01*
X056788Y017581D02*
X053156Y017581D01*
X053057Y017680D02*
X056690Y017680D01*
X056591Y017778D02*
X052959Y017778D01*
X052533Y017778D02*
X052488Y017778D01*
X052746Y017298D02*
X052120Y017298D01*
X051752Y017778D02*
X051740Y017778D01*
X051721Y018473D02*
X050971Y019223D01*
X050971Y021723D01*
X057496Y021723D01*
X057496Y021962D01*
X057531Y022046D01*
X057531Y022588D01*
X060381Y022588D01*
X060986Y021983D01*
X060986Y018643D01*
X060971Y013648D01*
X060621Y013198D01*
X057846Y013198D01*
X057446Y013623D01*
X057446Y017598D01*
X056596Y018473D01*
X051721Y018473D01*
X051628Y018566D02*
X060986Y018566D01*
X060986Y018468D02*
X056601Y018468D01*
X056697Y018369D02*
X060985Y018369D01*
X060985Y018271D02*
X056793Y018271D01*
X056888Y018172D02*
X060985Y018172D01*
X060984Y018074D02*
X056984Y018074D01*
X057080Y017975D02*
X060984Y017975D01*
X060984Y017877D02*
X057175Y017877D01*
X057271Y017778D02*
X060984Y017778D01*
X060983Y017680D02*
X057367Y017680D01*
X057446Y017581D02*
X060983Y017581D01*
X060983Y017483D02*
X057446Y017483D01*
X057446Y017384D02*
X060982Y017384D01*
X060982Y017286D02*
X057446Y017286D01*
X057446Y017187D02*
X060982Y017187D01*
X060981Y017089D02*
X057446Y017089D01*
X057446Y016990D02*
X060981Y016990D01*
X060981Y016892D02*
X057446Y016892D01*
X057446Y016793D02*
X060981Y016793D01*
X060980Y016695D02*
X057446Y016695D01*
X057446Y016596D02*
X060980Y016596D01*
X060980Y016498D02*
X057446Y016498D01*
X057446Y016399D02*
X060979Y016399D01*
X060979Y016301D02*
X057446Y016301D01*
X057446Y016202D02*
X060979Y016202D01*
X060979Y016104D02*
X057446Y016104D01*
X057446Y016005D02*
X060978Y016005D01*
X060978Y015907D02*
X057446Y015907D01*
X057446Y015808D02*
X060978Y015808D01*
X060977Y015710D02*
X057446Y015710D01*
X057446Y015611D02*
X060977Y015611D01*
X060977Y015513D02*
X057446Y015513D01*
X057446Y015414D02*
X060976Y015414D01*
X060976Y015316D02*
X057446Y015316D01*
X057446Y015217D02*
X060976Y015217D01*
X060976Y015119D02*
X057446Y015119D01*
X057446Y015020D02*
X060975Y015020D01*
X060975Y014922D02*
X057446Y014922D01*
X057446Y014823D02*
X060975Y014823D01*
X060974Y014725D02*
X057446Y014725D01*
X057446Y014626D02*
X060974Y014626D01*
X060974Y014528D02*
X057446Y014528D01*
X057446Y014429D02*
X060973Y014429D01*
X060973Y014331D02*
X057446Y014331D01*
X057446Y014232D02*
X060973Y014232D01*
X060973Y014134D02*
X057446Y014134D01*
X057446Y014035D02*
X060972Y014035D01*
X060972Y013937D02*
X057446Y013937D01*
X057446Y013838D02*
X060972Y013838D01*
X060971Y013740D02*
X057446Y013740D01*
X057446Y013641D02*
X060966Y013641D01*
X060889Y013543D02*
X057522Y013543D01*
X057614Y013444D02*
X060813Y013444D01*
X060736Y013346D02*
X057707Y013346D01*
X057800Y013247D02*
X060659Y013247D01*
X061246Y013247D02*
X064757Y013247D01*
X064757Y013149D02*
X061246Y013149D01*
X061246Y013050D02*
X064757Y013050D01*
X064757Y012952D02*
X061246Y012952D01*
X061246Y012853D02*
X064757Y012853D01*
X064757Y012755D02*
X061246Y012755D01*
X061246Y012656D02*
X064757Y012656D01*
X064757Y012558D02*
X061246Y012558D01*
X061246Y012459D02*
X064757Y012459D01*
X064757Y012361D02*
X061286Y012361D01*
X061246Y012398D02*
X061246Y022098D01*
X060496Y022848D01*
X057886Y022848D01*
X057886Y024163D01*
X058288Y024163D01*
X058411Y024286D01*
X058411Y025090D01*
X058288Y025213D01*
X057531Y025213D01*
X057531Y026400D01*
X057496Y026484D01*
X057496Y026598D01*
X057347Y026598D01*
X057323Y026608D01*
X054244Y026608D01*
X054220Y026598D01*
X050996Y026598D01*
X050996Y029183D01*
X059446Y029183D01*
X059446Y024973D01*
X064757Y024973D01*
X064757Y018213D01*
X064629Y018373D01*
X064335Y018515D01*
X064008Y018515D01*
X063713Y018373D01*
X063713Y018373D01*
X063713Y018373D01*
X063509Y018117D01*
X063436Y017798D01*
X063509Y017479D01*
X063713Y017223D01*
X064008Y017081D01*
X064335Y017081D01*
X064629Y017223D01*
X064629Y017223D01*
X064629Y017223D01*
X064757Y017383D01*
X064757Y012023D01*
X061646Y012023D01*
X061246Y012398D01*
X061391Y012262D02*
X064757Y012262D01*
X064757Y012164D02*
X061496Y012164D01*
X061601Y012065D02*
X064757Y012065D01*
X064757Y013346D02*
X061246Y013346D01*
X061246Y013444D02*
X064757Y013444D01*
X064757Y013543D02*
X061246Y013543D01*
X061246Y013641D02*
X064757Y013641D01*
X064757Y013740D02*
X061246Y013740D01*
X061246Y013838D02*
X064757Y013838D01*
X064757Y013937D02*
X061246Y013937D01*
X061246Y014035D02*
X064757Y014035D01*
X064757Y014134D02*
X061246Y014134D01*
X061246Y014232D02*
X064757Y014232D01*
X064757Y014331D02*
X061246Y014331D01*
X061246Y014429D02*
X064757Y014429D01*
X064757Y014528D02*
X061246Y014528D01*
X061246Y014626D02*
X064757Y014626D01*
X064757Y014725D02*
X061246Y014725D01*
X061246Y014823D02*
X064757Y014823D01*
X064757Y014922D02*
X061246Y014922D01*
X061246Y015020D02*
X064757Y015020D01*
X064757Y015119D02*
X061246Y015119D01*
X061246Y015217D02*
X064757Y015217D01*
X064757Y015316D02*
X061246Y015316D01*
X061246Y015414D02*
X064757Y015414D01*
X064757Y015513D02*
X061246Y015513D01*
X061246Y015611D02*
X064757Y015611D01*
X064757Y015710D02*
X061246Y015710D01*
X061246Y015808D02*
X064757Y015808D01*
X064757Y015907D02*
X061246Y015907D01*
X061246Y016005D02*
X064757Y016005D01*
X064757Y016104D02*
X061246Y016104D01*
X061246Y016202D02*
X064757Y016202D01*
X064757Y016301D02*
X061246Y016301D01*
X061246Y016399D02*
X064757Y016399D01*
X064757Y016498D02*
X061246Y016498D01*
X061246Y016596D02*
X064757Y016596D01*
X064757Y016695D02*
X061246Y016695D01*
X061246Y016793D02*
X064757Y016793D01*
X064757Y016892D02*
X061246Y016892D01*
X061246Y016990D02*
X064757Y016990D01*
X064757Y017089D02*
X064350Y017089D01*
X064554Y017187D02*
X064757Y017187D01*
X064757Y017286D02*
X064679Y017286D01*
X063993Y017089D02*
X061246Y017089D01*
X061246Y017187D02*
X063788Y017187D01*
X063713Y017223D02*
X063713Y017223D01*
X063663Y017286D02*
X061246Y017286D01*
X061246Y017384D02*
X063585Y017384D01*
X063509Y017479D02*
X063509Y017479D01*
X063508Y017483D02*
X061246Y017483D01*
X061246Y017581D02*
X063486Y017581D01*
X063463Y017680D02*
X061246Y017680D01*
X061246Y017778D02*
X063441Y017778D01*
X063436Y017798D02*
X063436Y017798D01*
X063454Y017877D02*
X061246Y017877D01*
X061246Y017975D02*
X063477Y017975D01*
X063499Y018074D02*
X061246Y018074D01*
X061246Y018172D02*
X063553Y018172D01*
X063509Y018117D02*
X063509Y018117D01*
X063632Y018271D02*
X061246Y018271D01*
X061246Y018369D02*
X063710Y018369D01*
X063910Y018468D02*
X061246Y018468D01*
X061246Y018566D02*
X064757Y018566D01*
X064757Y018468D02*
X064432Y018468D01*
X064629Y018373D02*
X064629Y018373D01*
X064632Y018369D02*
X064757Y018369D01*
X064757Y018271D02*
X064711Y018271D01*
X064757Y018665D02*
X061246Y018665D01*
X061246Y018763D02*
X064757Y018763D01*
X064757Y018862D02*
X061246Y018862D01*
X061246Y018960D02*
X064757Y018960D01*
X064757Y019059D02*
X061246Y019059D01*
X061246Y019157D02*
X064757Y019157D01*
X064757Y019256D02*
X061246Y019256D01*
X061246Y019354D02*
X064757Y019354D01*
X064757Y019453D02*
X061246Y019453D01*
X061246Y019551D02*
X064757Y019551D01*
X064757Y019650D02*
X061246Y019650D01*
X061246Y019748D02*
X064757Y019748D01*
X064757Y019847D02*
X061246Y019847D01*
X061246Y019945D02*
X064757Y019945D01*
X064757Y020044D02*
X061246Y020044D01*
X061246Y020142D02*
X064757Y020142D01*
X064757Y020241D02*
X061246Y020241D01*
X061246Y020339D02*
X064757Y020339D01*
X064757Y020438D02*
X061246Y020438D01*
X061246Y020536D02*
X064757Y020536D01*
X064757Y020635D02*
X061246Y020635D01*
X061246Y020733D02*
X064757Y020733D01*
X064757Y020832D02*
X061246Y020832D01*
X061246Y020930D02*
X064757Y020930D01*
X064757Y021029D02*
X061246Y021029D01*
X061246Y021127D02*
X064757Y021127D01*
X064757Y021226D02*
X061246Y021226D01*
X061246Y021324D02*
X064757Y021324D01*
X064757Y021423D02*
X061246Y021423D01*
X061246Y021521D02*
X064757Y021521D01*
X064757Y021620D02*
X061246Y021620D01*
X061246Y021718D02*
X064757Y021718D01*
X064757Y021817D02*
X061246Y021817D01*
X061246Y021915D02*
X064757Y021915D01*
X064757Y022014D02*
X061246Y022014D01*
X061232Y022112D02*
X064757Y022112D01*
X064757Y022211D02*
X061133Y022211D01*
X061035Y022309D02*
X064757Y022309D01*
X064757Y022408D02*
X060936Y022408D01*
X060838Y022506D02*
X064757Y022506D01*
X064757Y022605D02*
X060739Y022605D01*
X060641Y022703D02*
X064757Y022703D01*
X064757Y022802D02*
X060542Y022802D01*
X060463Y022506D02*
X057531Y022506D01*
X057531Y022408D02*
X060561Y022408D01*
X060660Y022309D02*
X057531Y022309D01*
X057531Y022211D02*
X060758Y022211D01*
X060857Y022112D02*
X057531Y022112D01*
X057518Y022014D02*
X060955Y022014D01*
X060986Y021915D02*
X057496Y021915D01*
X057496Y021817D02*
X060986Y021817D01*
X060986Y021718D02*
X050971Y021718D01*
X050971Y021620D02*
X060986Y021620D01*
X060986Y021521D02*
X050971Y021521D01*
X050971Y021423D02*
X060986Y021423D01*
X060986Y021324D02*
X050971Y021324D01*
X050971Y021226D02*
X060986Y021226D01*
X060986Y021127D02*
X050971Y021127D01*
X050971Y021029D02*
X060986Y021029D01*
X060986Y020930D02*
X050971Y020930D01*
X050971Y020832D02*
X060986Y020832D01*
X060986Y020733D02*
X050971Y020733D01*
X050971Y020635D02*
X060986Y020635D01*
X060986Y020536D02*
X050971Y020536D01*
X050971Y020438D02*
X060986Y020438D01*
X060986Y020339D02*
X050971Y020339D01*
X050971Y020241D02*
X060986Y020241D01*
X060986Y020142D02*
X050971Y020142D01*
X050971Y020044D02*
X060986Y020044D01*
X060986Y019945D02*
X050971Y019945D01*
X050971Y019847D02*
X060986Y019847D01*
X060986Y019748D02*
X050971Y019748D01*
X050971Y019650D02*
X060986Y019650D01*
X060986Y019551D02*
X050971Y019551D01*
X050971Y019453D02*
X060986Y019453D01*
X060986Y019354D02*
X050971Y019354D01*
X050971Y019256D02*
X060986Y019256D01*
X060986Y019157D02*
X051037Y019157D01*
X051136Y019059D02*
X060986Y019059D01*
X060986Y018960D02*
X051234Y018960D01*
X051333Y018862D02*
X060986Y018862D01*
X060986Y018763D02*
X051431Y018763D01*
X051530Y018665D02*
X060986Y018665D01*
X057271Y022098D02*
X054296Y022098D01*
X054296Y026348D01*
X057271Y026348D01*
X057271Y022098D01*
X057271Y022112D02*
X054296Y022112D01*
X054296Y022211D02*
X057271Y022211D01*
X057271Y022309D02*
X054296Y022309D01*
X054296Y022408D02*
X057271Y022408D01*
X057271Y022506D02*
X054296Y022506D01*
X054296Y022605D02*
X057271Y022605D01*
X057271Y022703D02*
X054296Y022703D01*
X054296Y022802D02*
X057271Y022802D01*
X057271Y022900D02*
X054296Y022900D01*
X054296Y022999D02*
X057271Y022999D01*
X057271Y023097D02*
X054296Y023097D01*
X054296Y023196D02*
X057271Y023196D01*
X057271Y023294D02*
X054296Y023294D01*
X054296Y023393D02*
X057271Y023393D01*
X057271Y023491D02*
X054296Y023491D01*
X054296Y023590D02*
X057271Y023590D01*
X057271Y023688D02*
X054296Y023688D01*
X054296Y023787D02*
X057271Y023787D01*
X057271Y023885D02*
X054296Y023885D01*
X054296Y023984D02*
X057271Y023984D01*
X057271Y024082D02*
X054296Y024082D01*
X054296Y024181D02*
X057271Y024181D01*
X057271Y024279D02*
X054296Y024279D01*
X054296Y024378D02*
X057271Y024378D01*
X057271Y024476D02*
X054296Y024476D01*
X054296Y024575D02*
X057271Y024575D01*
X057271Y024673D02*
X054296Y024673D01*
X054296Y024772D02*
X057271Y024772D01*
X057271Y024870D02*
X054296Y024870D01*
X054296Y024969D02*
X057271Y024969D01*
X057271Y025067D02*
X054296Y025067D01*
X054296Y025166D02*
X057271Y025166D01*
X057271Y025264D02*
X054296Y025264D01*
X054296Y025363D02*
X057271Y025363D01*
X057271Y025461D02*
X054296Y025461D01*
X054296Y025560D02*
X057271Y025560D01*
X057271Y025658D02*
X054296Y025658D01*
X054296Y025757D02*
X057271Y025757D01*
X057271Y025855D02*
X054296Y025855D01*
X054296Y025954D02*
X057271Y025954D01*
X057271Y026052D02*
X054296Y026052D01*
X054296Y026151D02*
X057271Y026151D01*
X057271Y026249D02*
X054296Y026249D01*
X054296Y026348D02*
X057271Y026348D01*
X057531Y026348D02*
X059446Y026348D01*
X059446Y026446D02*
X057512Y026446D01*
X057496Y026545D02*
X059446Y026545D01*
X059446Y026643D02*
X050996Y026643D01*
X050996Y026742D02*
X059446Y026742D01*
X059446Y026840D02*
X050996Y026840D01*
X050996Y026939D02*
X059446Y026939D01*
X059446Y027037D02*
X050996Y027037D01*
X050996Y027136D02*
X059446Y027136D01*
X059446Y027234D02*
X050996Y027234D01*
X050996Y027333D02*
X059446Y027333D01*
X059446Y027431D02*
X050996Y027431D01*
X050996Y027530D02*
X059446Y027530D01*
X059446Y027628D02*
X050996Y027628D01*
X050996Y027727D02*
X059446Y027727D01*
X059446Y027825D02*
X050996Y027825D01*
X050996Y027924D02*
X059446Y027924D01*
X059446Y028022D02*
X050996Y028022D01*
X050996Y028121D02*
X059446Y028121D01*
X059446Y028219D02*
X050996Y028219D01*
X050996Y028318D02*
X059446Y028318D01*
X059446Y028416D02*
X050996Y028416D01*
X050996Y028515D02*
X059446Y028515D01*
X059446Y028613D02*
X050996Y028613D01*
X050996Y028712D02*
X059446Y028712D01*
X059446Y028810D02*
X050996Y028810D01*
X050996Y028909D02*
X059446Y028909D01*
X059446Y029007D02*
X050996Y029007D01*
X050996Y029106D02*
X059446Y029106D01*
X059446Y026249D02*
X057531Y026249D01*
X057531Y026151D02*
X059446Y026151D01*
X059446Y026052D02*
X057531Y026052D01*
X057531Y025954D02*
X059446Y025954D01*
X059446Y025855D02*
X057531Y025855D01*
X057531Y025757D02*
X059446Y025757D01*
X059446Y025658D02*
X057531Y025658D01*
X057531Y025560D02*
X059446Y025560D01*
X059446Y025461D02*
X057531Y025461D01*
X057531Y025363D02*
X059446Y025363D01*
X059446Y025264D02*
X057531Y025264D01*
X058336Y025166D02*
X059446Y025166D01*
X059446Y025067D02*
X058411Y025067D01*
X058411Y024969D02*
X064757Y024969D01*
X064757Y024870D02*
X058411Y024870D01*
X058411Y024772D02*
X064757Y024772D01*
X064757Y024673D02*
X058411Y024673D01*
X058411Y024575D02*
X064757Y024575D01*
X064757Y024476D02*
X058411Y024476D01*
X058411Y024378D02*
X064757Y024378D01*
X064757Y024279D02*
X058404Y024279D01*
X058305Y024181D02*
X064757Y024181D01*
X064757Y024082D02*
X057886Y024082D01*
X057886Y023984D02*
X064757Y023984D01*
X064757Y023885D02*
X057886Y023885D01*
X057886Y023787D02*
X064757Y023787D01*
X064757Y023688D02*
X057886Y023688D01*
X057886Y023590D02*
X064757Y023590D01*
X064757Y023491D02*
X057886Y023491D01*
X057886Y023393D02*
X064757Y023393D01*
X064757Y023294D02*
X057886Y023294D01*
X057886Y023196D02*
X064757Y023196D01*
X064757Y023097D02*
X057886Y023097D01*
X057886Y022999D02*
X064757Y022999D01*
X064757Y022900D02*
X057886Y022900D01*
X054036Y022900D02*
X050971Y022900D01*
X050971Y022802D02*
X054036Y022802D01*
X054036Y022703D02*
X050971Y022703D01*
X050971Y022605D02*
X054036Y022605D01*
X054036Y022506D02*
X050971Y022506D01*
X050971Y022408D02*
X054036Y022408D01*
X054036Y022309D02*
X050971Y022309D01*
X050971Y022211D02*
X054036Y022211D01*
X054036Y022112D02*
X050971Y022112D01*
X050971Y022098D02*
X054036Y022098D01*
X054036Y026338D01*
X050971Y026338D01*
X050971Y022098D01*
X050971Y022999D02*
X054036Y022999D01*
X054036Y023097D02*
X050971Y023097D01*
X050971Y023196D02*
X054036Y023196D01*
X054036Y023294D02*
X050971Y023294D01*
X050971Y023393D02*
X054036Y023393D01*
X054036Y023491D02*
X050971Y023491D01*
X050971Y023590D02*
X054036Y023590D01*
X054036Y023688D02*
X050971Y023688D01*
X050971Y023787D02*
X054036Y023787D01*
X054036Y023885D02*
X050971Y023885D01*
X050971Y023984D02*
X054036Y023984D01*
X054036Y024082D02*
X050971Y024082D01*
X050971Y024181D02*
X054036Y024181D01*
X054036Y024279D02*
X050971Y024279D01*
X050971Y024378D02*
X054036Y024378D01*
X054036Y024476D02*
X050971Y024476D01*
X050971Y024575D02*
X054036Y024575D01*
X054036Y024673D02*
X050971Y024673D01*
X050971Y024772D02*
X054036Y024772D01*
X054036Y024870D02*
X050971Y024870D01*
X050971Y024969D02*
X054036Y024969D01*
X054036Y025067D02*
X050971Y025067D01*
X050971Y025166D02*
X054036Y025166D01*
X054036Y025264D02*
X050971Y025264D01*
X050971Y025363D02*
X054036Y025363D01*
X054036Y025461D02*
X050971Y025461D01*
X050971Y025560D02*
X054036Y025560D01*
X054036Y025658D02*
X050971Y025658D01*
X050971Y025757D02*
X054036Y025757D01*
X054036Y025855D02*
X050971Y025855D01*
X050971Y025954D02*
X054036Y025954D01*
X054036Y026052D02*
X050971Y026052D01*
X050971Y026151D02*
X054036Y026151D01*
X054036Y026249D02*
X050971Y026249D01*
X048546Y026249D02*
X048411Y026249D01*
X048411Y026151D02*
X048546Y026151D01*
X048546Y026052D02*
X048411Y026052D01*
X048411Y025973D02*
X048411Y026625D01*
X048350Y026687D01*
X048361Y026699D01*
X048381Y026733D01*
X048391Y026771D01*
X048391Y026997D01*
X047996Y026997D01*
X047996Y027097D01*
X047896Y027097D01*
X047896Y026997D01*
X047566Y026997D01*
X047171Y026997D01*
X047171Y027097D01*
X047071Y027097D01*
X047071Y026997D01*
X046676Y026997D01*
X046676Y026771D01*
X046686Y026733D01*
X046706Y026699D01*
X046718Y026687D01*
X046656Y026625D01*
X046656Y026145D01*
X046601Y026090D01*
X046601Y025039D01*
X046151Y024589D01*
X046151Y023928D01*
X044421Y023928D01*
X044421Y025268D01*
X045357Y025268D01*
X045379Y025290D01*
X045386Y025288D01*
X045476Y025288D01*
X045476Y025448D01*
X045476Y025448D01*
X045476Y025288D01*
X045566Y025288D01*
X045586Y025268D01*
X046127Y025268D01*
X046149Y025290D01*
X046156Y025288D01*
X046246Y025288D01*
X046246Y025718D01*
X046246Y025718D01*
X046251Y025718D01*
X046246Y025718D02*
X046466Y025718D01*
X046466Y025418D01*
X046456Y025380D01*
X046436Y025346D01*
X046408Y025318D01*
X046374Y025298D01*
X046336Y025288D01*
X046246Y025288D01*
X046246Y025718D01*
X046246Y025718D01*
X046466Y025718D01*
X046466Y026018D01*
X046456Y026056D01*
X046436Y026090D01*
X046408Y026118D01*
X046374Y026138D01*
X046336Y026148D01*
X046316Y026148D01*
X046316Y027231D01*
X046543Y027458D01*
X047023Y027458D01*
X047085Y027520D01*
X047097Y027508D01*
X047131Y027488D01*
X047169Y027478D01*
X047395Y027478D01*
X047395Y027873D01*
X047495Y027873D01*
X047495Y027478D01*
X047721Y027478D01*
X047759Y027488D01*
X047793Y027508D01*
X047821Y027536D01*
X047841Y027570D01*
X047851Y027608D01*
X047851Y027873D01*
X047495Y027873D01*
X047495Y027973D01*
X047395Y027973D01*
X047395Y028368D01*
X047169Y028368D01*
X047131Y028358D01*
X047097Y028338D01*
X047085Y028326D01*
X047023Y028388D01*
X046371Y028388D01*
X046271Y028289D01*
X046271Y027808D01*
X046121Y027658D01*
X046121Y029148D01*
X047996Y029148D01*
X048508Y028636D01*
X048408Y028462D01*
X048322Y028143D01*
X048322Y027813D01*
X048408Y027495D01*
X048546Y027255D01*
X048546Y025687D01*
X048521Y025693D01*
X048295Y025693D01*
X048295Y025423D01*
X048195Y025423D01*
X048195Y025693D01*
X047969Y025693D01*
X047946Y025687D01*
X047946Y025762D01*
X048037Y025853D01*
X048037Y025853D01*
X048057Y025873D01*
X048312Y025873D01*
X048411Y025973D01*
X048392Y025954D02*
X048546Y025954D01*
X048546Y025855D02*
X048039Y025855D01*
X047946Y025757D02*
X048546Y025757D01*
X048295Y025658D02*
X048195Y025658D01*
X048195Y025560D02*
X048295Y025560D01*
X048295Y025461D02*
X048195Y025461D01*
X047696Y025823D02*
X047096Y025823D01*
X047046Y025773D01*
X047046Y024873D01*
X046596Y024423D01*
X046596Y023248D01*
X046396Y023048D01*
X046071Y023048D01*
X045986Y023133D01*
X045986Y023478D01*
X045726Y023478D02*
X045726Y023093D01*
X046046Y022773D01*
X046446Y022773D01*
X046821Y023148D01*
X046821Y023773D01*
X046996Y023948D01*
X048146Y023948D01*
X048146Y023448D01*
X048246Y023448D01*
X048246Y023449D02*
X048245Y023448D01*
X048221Y023372D01*
X047497Y023448D02*
X047497Y022673D01*
X047497Y022623D01*
X047071Y022148D02*
X046671Y022548D01*
X045971Y022548D01*
X045476Y023043D01*
X045476Y023478D01*
X045216Y023478D02*
X045216Y022978D01*
X045871Y022323D01*
X046596Y022323D01*
X046946Y021973D01*
X047071Y022148D02*
X048046Y022148D01*
X048245Y022347D01*
X048245Y022673D01*
X046671Y021521D02*
X044846Y021521D01*
X044846Y021423D02*
X046671Y021423D01*
X046671Y021324D02*
X044846Y021324D01*
X044846Y021226D02*
X046671Y021226D01*
X046671Y021127D02*
X044879Y021127D01*
X044879Y021029D02*
X046671Y021029D01*
X046671Y020930D02*
X044879Y020930D01*
X044879Y020832D02*
X046671Y020832D01*
X046671Y020733D02*
X044879Y020733D01*
X044879Y020635D02*
X046671Y020635D01*
X047071Y019748D02*
X047171Y019748D01*
X047171Y019650D02*
X047071Y019650D01*
X047549Y019748D02*
X047956Y019748D01*
X047981Y019650D02*
X047566Y019650D01*
X047586Y018566D02*
X048826Y018566D01*
X048826Y018468D02*
X048527Y018468D01*
X048541Y018369D02*
X048826Y018369D01*
X048826Y018271D02*
X048541Y018271D01*
X048146Y018369D02*
X048046Y018369D01*
X048046Y018468D02*
X048146Y018468D01*
X047665Y018468D02*
X047586Y018468D01*
X047586Y018369D02*
X047651Y018369D01*
X047651Y018271D02*
X047509Y018271D01*
X047997Y016398D02*
X048511Y016398D01*
X048426Y013698D02*
X048426Y013673D01*
X048449Y013673D01*
X049746Y012065D02*
X056896Y012065D01*
X056896Y011967D02*
X049746Y011967D01*
X049746Y011868D02*
X056896Y011868D01*
X056896Y011770D02*
X049746Y011770D01*
X049746Y011671D02*
X056896Y011671D01*
X056896Y011573D02*
X049746Y011573D01*
X049746Y011474D02*
X056896Y011474D01*
X056896Y011376D02*
X049746Y011376D01*
X049746Y011277D02*
X056896Y011277D01*
X056896Y011179D02*
X049808Y011179D01*
X049768Y011218D02*
X049768Y011218D01*
X049869Y011080D02*
X056896Y011080D01*
X056896Y010982D02*
X049881Y010982D01*
X049881Y010883D02*
X056896Y010883D01*
X056896Y010785D02*
X049881Y010785D01*
X049881Y010686D02*
X056896Y010686D01*
X056896Y010588D02*
X049881Y010588D01*
X049881Y010489D02*
X056896Y010489D01*
X056896Y010391D02*
X049881Y010391D01*
X049881Y010292D02*
X056896Y010292D01*
X056896Y010194D02*
X049881Y010194D01*
X049881Y010095D02*
X056896Y010095D01*
X056896Y009997D02*
X049881Y009997D01*
X049881Y009898D02*
X056896Y009898D01*
X056896Y009800D02*
X049881Y009800D01*
X049881Y009701D02*
X056896Y009701D01*
X056896Y009603D02*
X049881Y009603D01*
X049881Y009504D02*
X056896Y009504D01*
X056896Y009406D02*
X049881Y009406D01*
X049881Y009307D02*
X056896Y009307D01*
X056896Y009209D02*
X049881Y009209D01*
X049881Y009110D02*
X056896Y009110D01*
X056896Y009012D02*
X049881Y009012D01*
X049881Y008913D02*
X056896Y008913D01*
X056896Y008815D02*
X049881Y008815D01*
X049881Y008716D02*
X056896Y008716D01*
X056896Y008618D02*
X049859Y008618D01*
X049974Y008519D02*
X056896Y008519D01*
X056896Y008421D02*
X050073Y008421D01*
X050088Y008322D02*
X056896Y008322D01*
X056896Y008224D02*
X050088Y008224D01*
X050088Y008125D02*
X056896Y008125D01*
X056896Y008027D02*
X050088Y008027D01*
X050088Y007928D02*
X056896Y007928D01*
X056896Y007830D02*
X050088Y007830D01*
X050088Y007731D02*
X056896Y007731D01*
X056896Y007633D02*
X050080Y007633D01*
X049981Y007534D02*
X056896Y007534D01*
X056896Y007436D02*
X048971Y007436D01*
X048971Y007337D02*
X056896Y007337D01*
X056896Y007239D02*
X048971Y007239D01*
X048971Y007140D02*
X056896Y007140D01*
X056896Y007042D02*
X048971Y007042D01*
X048971Y006943D02*
X056896Y006943D01*
X056896Y006845D02*
X048971Y006845D01*
X048971Y006746D02*
X056896Y006746D01*
X056896Y006648D02*
X048971Y006648D01*
X048971Y006549D02*
X056896Y006549D01*
X056896Y006451D02*
X048971Y006451D01*
X048971Y006352D02*
X056852Y006352D01*
X056363Y006254D02*
X048971Y006254D01*
X048971Y006155D02*
X056298Y006155D01*
X056298Y006057D02*
X048971Y006057D01*
X048971Y005958D02*
X056298Y005958D01*
X056298Y005860D02*
X048971Y005860D01*
X048971Y005761D02*
X056290Y005761D01*
X056197Y005663D02*
X048971Y005663D01*
X048980Y005564D02*
X056103Y005564D01*
X056009Y005466D02*
X049079Y005466D01*
X049177Y005367D02*
X055909Y005367D01*
X055821Y004849D02*
X055821Y003848D01*
X056296Y003848D01*
X055246Y003890D02*
X043830Y003890D01*
X043746Y003973D02*
X042496Y003973D01*
X042371Y004098D01*
X042371Y005973D01*
X042621Y006098D01*
X047421Y006098D01*
X048546Y004973D01*
X042371Y004973D01*
X042371Y004875D02*
X054875Y004875D01*
X054771Y004973D02*
X055246Y004523D01*
X055246Y002876D01*
X055093Y003028D01*
X054798Y003199D01*
X054470Y003287D01*
X054129Y003287D01*
X053801Y003199D01*
X053506Y003028D01*
X053265Y002788D01*
X053095Y002493D01*
X053007Y002164D01*
X053007Y001824D01*
X053095Y001495D01*
X053265Y001200D01*
X053506Y000960D01*
X053801Y000790D01*
X053803Y000789D01*
X044380Y000789D01*
X043996Y001173D01*
X043996Y003723D01*
X043746Y003973D01*
X043928Y003791D02*
X055246Y003791D01*
X055246Y003693D02*
X043996Y003693D01*
X043996Y003594D02*
X055246Y003594D01*
X055246Y003496D02*
X043996Y003496D01*
X043996Y003397D02*
X055246Y003397D01*
X055246Y003299D02*
X043996Y003299D01*
X043996Y003200D02*
X053806Y003200D01*
X053632Y003102D02*
X043996Y003102D01*
X043996Y003003D02*
X053480Y003003D01*
X053382Y002905D02*
X043996Y002905D01*
X043996Y002806D02*
X053283Y002806D01*
X053219Y002708D02*
X043996Y002708D01*
X043996Y002609D02*
X053162Y002609D01*
X053105Y002511D02*
X043996Y002511D01*
X043996Y002412D02*
X053073Y002412D01*
X053047Y002314D02*
X043996Y002314D01*
X043996Y002215D02*
X053020Y002215D01*
X053007Y002117D02*
X043996Y002117D01*
X043996Y002018D02*
X053007Y002018D01*
X053007Y001920D02*
X043996Y001920D01*
X043996Y001821D02*
X053008Y001821D01*
X053034Y001723D02*
X043996Y001723D01*
X043996Y001624D02*
X053060Y001624D01*
X053087Y001526D02*
X043996Y001526D01*
X043996Y001427D02*
X053134Y001427D01*
X053191Y001329D02*
X043996Y001329D01*
X043996Y001230D02*
X053248Y001230D01*
X053334Y001132D02*
X044038Y001132D01*
X044136Y001033D02*
X053432Y001033D01*
X053549Y000935D02*
X044235Y000935D01*
X044333Y000836D02*
X053720Y000836D01*
X055217Y002905D02*
X055246Y002905D01*
X055246Y003003D02*
X055119Y003003D01*
X055246Y003102D02*
X054967Y003102D01*
X054793Y003200D02*
X055246Y003200D01*
X055246Y003988D02*
X042481Y003988D01*
X042383Y004087D02*
X055246Y004087D01*
X055246Y004185D02*
X042371Y004185D01*
X042371Y004284D02*
X055246Y004284D01*
X055246Y004382D02*
X042371Y004382D01*
X042371Y004481D02*
X055246Y004481D01*
X055187Y004579D02*
X042371Y004579D01*
X042371Y004678D02*
X055083Y004678D01*
X054979Y004776D02*
X042371Y004776D01*
X042371Y005072D02*
X048448Y005072D01*
X048349Y005170D02*
X042371Y005170D01*
X042371Y005269D02*
X048251Y005269D01*
X048152Y005367D02*
X042371Y005367D01*
X042371Y005466D02*
X048054Y005466D01*
X047955Y005564D02*
X042371Y005564D01*
X042371Y005663D02*
X047857Y005663D01*
X047758Y005761D02*
X042371Y005761D01*
X042371Y005860D02*
X047660Y005860D01*
X047561Y005958D02*
X042371Y005958D01*
X042538Y006057D02*
X047463Y006057D01*
X047847Y006549D02*
X045101Y006549D01*
X045101Y006648D02*
X047946Y006648D01*
X048021Y006746D02*
X045101Y006746D01*
X045101Y006845D02*
X048021Y006845D01*
X048021Y006943D02*
X045101Y006943D01*
X045003Y007239D02*
X048021Y007239D01*
X048021Y007337D02*
X044996Y007337D01*
X044996Y007436D02*
X048021Y007436D01*
X048021Y007534D02*
X044996Y007534D01*
X044996Y007633D02*
X048021Y007633D01*
X048021Y007731D02*
X044996Y007731D01*
X044996Y007830D02*
X048021Y007830D01*
X048021Y007928D02*
X044996Y007928D01*
X044996Y008027D02*
X048021Y008027D01*
X048021Y008125D02*
X044996Y008125D01*
X044996Y008224D02*
X048022Y008224D01*
X048120Y008322D02*
X044996Y008322D01*
X044996Y008421D02*
X048219Y008421D01*
X048317Y008519D02*
X044996Y008519D01*
X044996Y008618D02*
X049516Y008618D01*
X049614Y008716D02*
X044996Y008716D01*
X044996Y008815D02*
X049621Y008815D01*
X049621Y008913D02*
X044996Y008913D01*
X044996Y009012D02*
X049621Y009012D01*
X049621Y009110D02*
X044996Y009110D01*
X044996Y009209D02*
X049621Y009209D01*
X049621Y009307D02*
X044996Y009307D01*
X044996Y009406D02*
X049621Y009406D01*
X049621Y009504D02*
X044996Y009504D01*
X044996Y009603D02*
X049621Y009603D01*
X049621Y009701D02*
X044996Y009701D01*
X044996Y009800D02*
X049621Y009800D01*
X049621Y009898D02*
X044996Y009898D01*
X045095Y009997D02*
X049621Y009997D01*
X049621Y010095D02*
X045193Y010095D01*
X043621Y010095D02*
X041624Y010095D01*
X041723Y009997D02*
X043621Y009997D01*
X043621Y009898D02*
X041821Y009898D01*
X041920Y009800D02*
X043573Y009800D01*
X043621Y009848D02*
X043496Y009723D01*
X041996Y009723D01*
X041246Y010473D01*
X039621Y010473D01*
X039621Y011473D01*
X043371Y011473D01*
X043621Y011223D01*
X043621Y009848D01*
X043621Y010194D02*
X041526Y010194D01*
X041427Y010292D02*
X043621Y010292D01*
X043621Y010391D02*
X041329Y010391D01*
X039621Y010489D02*
X043621Y010489D01*
X043621Y010588D02*
X039621Y010588D01*
X039621Y010686D02*
X043621Y010686D01*
X043621Y010785D02*
X039621Y010785D01*
X039621Y010883D02*
X043621Y010883D01*
X043621Y010982D02*
X039621Y010982D01*
X039621Y011080D02*
X043621Y011080D01*
X043621Y011179D02*
X039621Y011179D01*
X039621Y011277D02*
X043567Y011277D01*
X043469Y011376D02*
X039621Y011376D01*
X038921Y012923D02*
X037821Y012923D01*
X038921Y012923D02*
X040521Y014523D01*
X040521Y014524D01*
X042496Y015148D02*
X042521Y015173D01*
X042521Y015698D01*
X042271Y015698D01*
X042170Y015799D01*
X042170Y015965D01*
X042521Y015698D02*
X043821Y015698D01*
X041795Y016822D02*
X041796Y016823D01*
X041795Y016822D02*
X040521Y016822D01*
X032396Y012548D02*
X032396Y011573D01*
X032771Y011198D01*
X032821Y010422D02*
X032772Y010348D01*
X032821Y010422D02*
X032821Y010173D01*
X032921Y010173D01*
X034371Y010782D02*
X034371Y010998D01*
X035095Y011722D01*
X035095Y011773D01*
X035746Y012098D02*
X035746Y011407D01*
X035120Y010781D01*
X035204Y010781D02*
X035204Y010831D01*
X034372Y010781D02*
X034371Y010782D01*
X033071Y009323D02*
X036821Y009323D01*
X036821Y008181D01*
X036818Y008178D01*
X036818Y006718D01*
X036821Y006715D01*
X036821Y004553D01*
X036481Y004213D01*
X036481Y003683D01*
X036821Y003343D01*
X036821Y002376D01*
X036816Y002376D01*
X036693Y002253D01*
X036693Y001643D01*
X036816Y001520D01*
X036821Y001520D01*
X036821Y000789D01*
X031321Y000789D01*
X031321Y000903D01*
X032098Y000903D01*
X032221Y001026D01*
X032221Y001650D01*
X032098Y001773D01*
X031321Y001773D01*
X031321Y002723D01*
X032098Y002723D01*
X032221Y002846D01*
X032221Y003328D01*
X033575Y003328D01*
X033674Y003369D01*
X033923Y003618D01*
X034263Y003618D01*
X034386Y003741D01*
X034386Y004505D01*
X034381Y004511D01*
X034386Y004516D01*
X034386Y005280D01*
X034263Y005403D01*
X033577Y005403D01*
X033546Y005372D01*
X033515Y005403D01*
X033071Y005403D01*
X033071Y009323D01*
X033071Y009307D02*
X036821Y009307D01*
X036821Y009209D02*
X033071Y009209D01*
X033071Y009110D02*
X036821Y009110D01*
X036821Y009012D02*
X033071Y009012D01*
X033071Y008913D02*
X036821Y008913D01*
X036821Y008815D02*
X033071Y008815D01*
X033071Y008716D02*
X036821Y008716D01*
X036821Y008618D02*
X033071Y008618D01*
X033071Y008519D02*
X036821Y008519D01*
X036821Y008421D02*
X033071Y008421D01*
X033071Y008322D02*
X036821Y008322D01*
X036821Y008224D02*
X033071Y008224D01*
X033071Y008125D02*
X036818Y008125D01*
X036818Y008027D02*
X033071Y008027D01*
X033071Y007928D02*
X036818Y007928D01*
X036818Y007830D02*
X033071Y007830D01*
X033071Y007731D02*
X036818Y007731D01*
X036818Y007633D02*
X036305Y007633D01*
X036397Y007594D02*
X036157Y007694D01*
X035897Y007694D01*
X035657Y007594D01*
X035474Y007411D01*
X035375Y007171D01*
X035375Y006027D01*
X035474Y005787D01*
X035657Y005603D01*
X035897Y005504D01*
X036157Y005504D01*
X036397Y005603D01*
X036580Y005787D01*
X036680Y006027D01*
X036680Y007171D01*
X036580Y007411D01*
X036397Y007594D01*
X036457Y007534D02*
X036818Y007534D01*
X036818Y007436D02*
X036556Y007436D01*
X036611Y007337D02*
X036818Y007337D01*
X036818Y007239D02*
X036652Y007239D01*
X036680Y007140D02*
X036818Y007140D01*
X036818Y007042D02*
X036680Y007042D01*
X036680Y006943D02*
X036818Y006943D01*
X036818Y006845D02*
X036680Y006845D01*
X036680Y006746D02*
X036818Y006746D01*
X036821Y006648D02*
X036680Y006648D01*
X036680Y006549D02*
X036821Y006549D01*
X036821Y006451D02*
X036680Y006451D01*
X036680Y006352D02*
X036821Y006352D01*
X036821Y006254D02*
X036680Y006254D01*
X036680Y006155D02*
X036821Y006155D01*
X036821Y006057D02*
X036680Y006057D01*
X036651Y005958D02*
X036821Y005958D01*
X036821Y005860D02*
X036610Y005860D01*
X036555Y005761D02*
X036821Y005761D01*
X036821Y005663D02*
X036456Y005663D01*
X036302Y005564D02*
X036821Y005564D01*
X036821Y005466D02*
X033071Y005466D01*
X033071Y005564D02*
X033552Y005564D01*
X033457Y005603D02*
X033697Y005504D01*
X033957Y005504D01*
X034197Y005603D01*
X034380Y005787D01*
X034480Y006027D01*
X034480Y007171D01*
X034380Y007411D01*
X034197Y007594D01*
X033957Y007694D01*
X033697Y007694D01*
X033457Y007594D01*
X033274Y007411D01*
X033175Y007171D01*
X033175Y006027D01*
X033274Y005787D01*
X033457Y005603D01*
X033398Y005663D02*
X033071Y005663D01*
X033071Y005761D02*
X033299Y005761D01*
X033244Y005860D02*
X033071Y005860D01*
X033071Y005958D02*
X033203Y005958D01*
X033175Y006057D02*
X033071Y006057D01*
X033071Y006155D02*
X033175Y006155D01*
X033175Y006254D02*
X033071Y006254D01*
X033071Y006352D02*
X033175Y006352D01*
X033175Y006451D02*
X033071Y006451D01*
X033071Y006549D02*
X033175Y006549D01*
X033175Y006648D02*
X033071Y006648D01*
X033071Y006746D02*
X033175Y006746D01*
X033175Y006845D02*
X033071Y006845D01*
X033071Y006943D02*
X033175Y006943D01*
X033175Y007042D02*
X033071Y007042D01*
X033071Y007140D02*
X033175Y007140D01*
X033203Y007239D02*
X033071Y007239D01*
X033071Y007337D02*
X033243Y007337D01*
X033299Y007436D02*
X033071Y007436D01*
X033071Y007534D02*
X033397Y007534D01*
X033550Y007633D02*
X033071Y007633D01*
X034105Y007633D02*
X035750Y007633D01*
X035597Y007534D02*
X034257Y007534D01*
X034356Y007436D02*
X035499Y007436D01*
X035443Y007337D02*
X034411Y007337D01*
X034452Y007239D02*
X035403Y007239D01*
X035375Y007140D02*
X034480Y007140D01*
X034480Y007042D02*
X035375Y007042D01*
X035375Y006943D02*
X034480Y006943D01*
X034480Y006845D02*
X035375Y006845D01*
X035375Y006746D02*
X034480Y006746D01*
X034480Y006648D02*
X035375Y006648D01*
X035375Y006549D02*
X034480Y006549D01*
X034480Y006451D02*
X035375Y006451D01*
X035375Y006352D02*
X034480Y006352D01*
X034480Y006254D02*
X035375Y006254D01*
X035375Y006155D02*
X034480Y006155D01*
X034480Y006057D02*
X035375Y006057D01*
X035403Y005958D02*
X034451Y005958D01*
X034410Y005860D02*
X035444Y005860D01*
X035499Y005761D02*
X034355Y005761D01*
X034256Y005663D02*
X035598Y005663D01*
X035752Y005564D02*
X034102Y005564D01*
X034299Y005367D02*
X036821Y005367D01*
X036821Y005269D02*
X034386Y005269D01*
X034386Y005170D02*
X036821Y005170D01*
X036821Y005072D02*
X034386Y005072D01*
X034386Y004973D02*
X036821Y004973D01*
X036821Y004875D02*
X034386Y004875D01*
X034386Y004776D02*
X036821Y004776D01*
X036821Y004678D02*
X034386Y004678D01*
X034386Y004579D02*
X036821Y004579D01*
X036749Y004481D02*
X034386Y004481D01*
X034386Y004382D02*
X036650Y004382D01*
X036552Y004284D02*
X034386Y004284D01*
X034386Y004185D02*
X036481Y004185D01*
X036481Y004087D02*
X034386Y004087D01*
X034386Y003988D02*
X036481Y003988D01*
X036481Y003890D02*
X034386Y003890D01*
X034386Y003791D02*
X036481Y003791D01*
X036481Y003693D02*
X034338Y003693D01*
X033899Y003594D02*
X036570Y003594D01*
X036668Y003496D02*
X033801Y003496D01*
X033702Y003397D02*
X036767Y003397D01*
X036821Y003299D02*
X032221Y003299D01*
X032221Y003200D02*
X036821Y003200D01*
X036821Y003102D02*
X032221Y003102D01*
X032221Y003003D02*
X036821Y003003D01*
X036821Y002905D02*
X032221Y002905D01*
X032181Y002806D02*
X036821Y002806D01*
X036821Y002708D02*
X031321Y002708D01*
X031321Y002609D02*
X036821Y002609D01*
X036821Y002511D02*
X031321Y002511D01*
X031321Y002412D02*
X036821Y002412D01*
X036754Y002314D02*
X031321Y002314D01*
X031321Y002215D02*
X036693Y002215D01*
X036693Y002117D02*
X031321Y002117D01*
X031321Y002018D02*
X036693Y002018D01*
X036693Y001920D02*
X031321Y001920D01*
X031321Y001821D02*
X036693Y001821D01*
X036693Y001723D02*
X032149Y001723D01*
X032221Y001624D02*
X036712Y001624D01*
X036810Y001526D02*
X032221Y001526D01*
X032221Y001427D02*
X036821Y001427D01*
X036821Y001329D02*
X032221Y001329D01*
X032221Y001230D02*
X036821Y001230D01*
X036821Y001132D02*
X032221Y001132D01*
X032221Y001033D02*
X036821Y001033D01*
X036821Y000935D02*
X032130Y000935D01*
X031321Y000836D02*
X036821Y000836D01*
X037121Y003948D02*
X037928Y004755D01*
X037928Y006298D01*
X038271Y006254D02*
X037081Y006254D01*
X037081Y006352D02*
X038271Y006352D01*
X038271Y006451D02*
X037081Y006451D01*
X037081Y006549D02*
X038271Y006549D01*
X038271Y006648D02*
X037081Y006648D01*
X037081Y006746D02*
X038271Y006746D01*
X038271Y006845D02*
X037081Y006845D01*
X037081Y006943D02*
X038271Y006943D01*
X038271Y007042D02*
X037081Y007042D01*
X037081Y007140D02*
X038271Y007140D01*
X038271Y007239D02*
X037081Y007239D01*
X037081Y007337D02*
X038271Y007337D01*
X038271Y007436D02*
X037081Y007436D01*
X037081Y007534D02*
X038271Y007534D01*
X038271Y007633D02*
X037081Y007633D01*
X037081Y007731D02*
X038271Y007731D01*
X038271Y007830D02*
X037081Y007830D01*
X037081Y007928D02*
X038271Y007928D01*
X038271Y008027D02*
X037081Y008027D01*
X037081Y008048D02*
X038271Y008048D01*
X038271Y005673D01*
X037321Y005673D01*
X037081Y005913D01*
X037081Y008048D01*
X037081Y006155D02*
X038271Y006155D01*
X038271Y006057D02*
X037081Y006057D01*
X037081Y005958D02*
X038271Y005958D01*
X038271Y005860D02*
X037135Y005860D01*
X037233Y005761D02*
X038271Y005761D01*
X042071Y006673D02*
X043046Y005698D01*
X042071Y006673D02*
X042071Y007498D01*
X048546Y004973D02*
X054771Y004973D01*
X057571Y004973D02*
X059171Y004973D01*
X059171Y004898D02*
X059471Y004598D01*
X063871Y004598D01*
X064071Y004398D01*
X064071Y003098D01*
X063871Y002898D01*
X058771Y002898D01*
X057571Y004098D01*
X057571Y008198D01*
X057671Y008298D01*
X058971Y008298D01*
X059171Y008098D01*
X059171Y004898D01*
X059195Y004875D02*
X057571Y004875D01*
X057571Y004776D02*
X059293Y004776D01*
X059392Y004678D02*
X057571Y004678D01*
X057571Y004579D02*
X063890Y004579D01*
X063989Y004481D02*
X057571Y004481D01*
X057571Y004382D02*
X064071Y004382D01*
X064071Y004284D02*
X057571Y004284D01*
X057571Y004185D02*
X064071Y004185D01*
X064071Y004087D02*
X057583Y004087D01*
X057681Y003988D02*
X064071Y003988D01*
X064071Y003890D02*
X057780Y003890D01*
X057878Y003791D02*
X064071Y003791D01*
X064071Y003693D02*
X057977Y003693D01*
X058075Y003594D02*
X064071Y003594D01*
X064071Y003496D02*
X058174Y003496D01*
X058272Y003397D02*
X064071Y003397D01*
X064071Y003299D02*
X058371Y003299D01*
X058469Y003200D02*
X064071Y003200D01*
X064071Y003102D02*
X058568Y003102D01*
X058666Y003003D02*
X063976Y003003D01*
X063878Y002905D02*
X058765Y002905D01*
X059171Y005072D02*
X057571Y005072D01*
X057571Y005170D02*
X059171Y005170D01*
X059171Y005269D02*
X057571Y005269D01*
X057571Y005367D02*
X059171Y005367D01*
X059171Y005466D02*
X057571Y005466D01*
X057571Y005564D02*
X059171Y005564D01*
X059171Y005663D02*
X057571Y005663D01*
X057571Y005761D02*
X059171Y005761D01*
X059171Y005860D02*
X057571Y005860D01*
X057571Y005958D02*
X059171Y005958D01*
X059171Y006057D02*
X057571Y006057D01*
X057571Y006155D02*
X059171Y006155D01*
X059171Y006254D02*
X057571Y006254D01*
X057571Y006352D02*
X059171Y006352D01*
X059171Y006451D02*
X057571Y006451D01*
X057571Y006549D02*
X059171Y006549D01*
X059171Y006648D02*
X057571Y006648D01*
X057571Y006746D02*
X059171Y006746D01*
X059171Y006845D02*
X057571Y006845D01*
X057571Y006943D02*
X059171Y006943D01*
X059171Y007042D02*
X057571Y007042D01*
X057571Y007140D02*
X059171Y007140D01*
X059171Y007239D02*
X057571Y007239D01*
X057571Y007337D02*
X059171Y007337D01*
X059171Y007436D02*
X057571Y007436D01*
X057571Y007534D02*
X059171Y007534D01*
X059171Y007633D02*
X057571Y007633D01*
X057571Y007731D02*
X059171Y007731D01*
X059171Y007830D02*
X057571Y007830D01*
X057571Y007928D02*
X059171Y007928D01*
X059171Y008027D02*
X057571Y008027D01*
X057571Y008125D02*
X059144Y008125D01*
X059046Y008224D02*
X057597Y008224D01*
X060071Y006898D02*
X060371Y007198D01*
X061271Y007198D01*
X062571Y008498D01*
X063571Y008498D01*
X064071Y007998D01*
X064071Y005198D01*
X063871Y004998D01*
X060371Y004998D01*
X060071Y005298D01*
X060071Y006898D01*
X060071Y006845D02*
X064071Y006845D01*
X064071Y006943D02*
X060116Y006943D01*
X060215Y007042D02*
X064071Y007042D01*
X064071Y007140D02*
X060313Y007140D01*
X060071Y006746D02*
X064071Y006746D01*
X064071Y006648D02*
X060071Y006648D01*
X060071Y006549D02*
X064071Y006549D01*
X064071Y006451D02*
X060071Y006451D01*
X060071Y006352D02*
X064071Y006352D01*
X064071Y006254D02*
X060071Y006254D01*
X060071Y006155D02*
X064071Y006155D01*
X064071Y006057D02*
X060071Y006057D01*
X060071Y005958D02*
X064071Y005958D01*
X064071Y005860D02*
X060071Y005860D01*
X060071Y005761D02*
X064071Y005761D01*
X064071Y005663D02*
X060071Y005663D01*
X060071Y005564D02*
X064071Y005564D01*
X064071Y005466D02*
X060071Y005466D01*
X060071Y005367D02*
X064071Y005367D01*
X064071Y005269D02*
X060101Y005269D01*
X060199Y005170D02*
X064043Y005170D01*
X063945Y005072D02*
X060298Y005072D01*
X061312Y007239D02*
X064071Y007239D01*
X064071Y007337D02*
X061410Y007337D01*
X061509Y007436D02*
X064071Y007436D01*
X064071Y007534D02*
X061607Y007534D01*
X061706Y007633D02*
X064071Y007633D01*
X064071Y007731D02*
X061804Y007731D01*
X061903Y007830D02*
X064071Y007830D01*
X064071Y007928D02*
X062001Y007928D01*
X062100Y008027D02*
X064043Y008027D01*
X063944Y008125D02*
X062198Y008125D01*
X062297Y008224D02*
X063846Y008224D01*
X063747Y008322D02*
X062395Y008322D01*
X062494Y008421D02*
X063649Y008421D01*
X043696Y021923D02*
X043696Y022123D01*
X044706Y023133D01*
X044706Y023478D01*
X044946Y023393D02*
X044976Y023393D01*
X044976Y023294D02*
X044946Y023294D01*
X044946Y023196D02*
X044976Y023196D01*
X044996Y023097D02*
X044926Y023097D01*
X044921Y022999D02*
X044996Y022999D01*
X044996Y022900D02*
X044873Y022900D01*
X044846Y022802D02*
X045081Y022802D01*
X045180Y022703D02*
X044846Y022703D01*
X044846Y022605D02*
X045278Y022605D01*
X045377Y022506D02*
X044846Y022506D01*
X044846Y022408D02*
X045475Y022408D01*
X045574Y022309D02*
X044846Y022309D01*
X044846Y022211D02*
X045672Y022211D01*
X045771Y022112D02*
X044846Y022112D01*
X043696Y021923D02*
X043670Y021897D01*
X043521Y021897D01*
X042746Y021897D01*
X042367Y022309D02*
X040796Y022309D01*
X040796Y022408D02*
X042996Y022408D01*
X042996Y022506D02*
X040796Y022506D01*
X040796Y022605D02*
X042996Y022605D01*
X042996Y022703D02*
X040796Y022703D01*
X040796Y022802D02*
X042996Y022802D01*
X042996Y022900D02*
X040796Y022900D01*
X040796Y022999D02*
X042996Y022999D01*
X042996Y023097D02*
X040796Y023097D01*
X040796Y023196D02*
X042996Y023196D01*
X042996Y023294D02*
X040796Y023294D01*
X040796Y023393D02*
X042996Y023393D01*
X042996Y023491D02*
X040796Y023491D01*
X040796Y023590D02*
X042996Y023590D01*
X042981Y023688D02*
X040796Y023688D01*
X040796Y023787D02*
X041832Y023787D01*
X041734Y023885D02*
X040796Y023885D01*
X040796Y023984D02*
X041635Y023984D01*
X041596Y024082D02*
X040796Y024082D01*
X040796Y024181D02*
X041596Y024181D01*
X041596Y024279D02*
X040796Y024279D01*
X040796Y024378D02*
X041596Y024378D01*
X041596Y024476D02*
X040796Y024476D01*
X040796Y024575D02*
X041596Y024575D01*
X041596Y024673D02*
X040796Y024673D01*
X040796Y024772D02*
X041596Y024772D01*
X041596Y024870D02*
X040796Y024870D01*
X040796Y024969D02*
X041596Y024969D01*
X041596Y025067D02*
X040796Y025067D01*
X040796Y025166D02*
X041596Y025166D01*
X041596Y025264D02*
X040796Y025264D01*
X040796Y025363D02*
X041596Y025363D01*
X041596Y025461D02*
X040796Y025461D01*
X040796Y025560D02*
X041596Y025560D01*
X041596Y025658D02*
X040796Y025658D01*
X040796Y025757D02*
X041596Y025757D01*
X041596Y025855D02*
X040796Y025855D01*
X040796Y025954D02*
X041596Y025954D01*
X041517Y026052D02*
X040850Y026052D01*
X040321Y026423D02*
X039471Y027273D01*
X039471Y028298D01*
X041496Y028298D01*
X041546Y028248D01*
X041546Y026548D01*
X041421Y026423D01*
X040321Y026423D01*
X040298Y026446D02*
X041444Y026446D01*
X041543Y026545D02*
X040199Y026545D01*
X040101Y026643D02*
X041546Y026643D01*
X041546Y026742D02*
X040002Y026742D01*
X039904Y026840D02*
X041546Y026840D01*
X041546Y026939D02*
X039805Y026939D01*
X039707Y027037D02*
X041546Y027037D01*
X041546Y027136D02*
X039608Y027136D01*
X039510Y027234D02*
X041546Y027234D01*
X041546Y027333D02*
X039471Y027333D01*
X039471Y027431D02*
X041546Y027431D01*
X041546Y027530D02*
X039471Y027530D01*
X039471Y027628D02*
X041546Y027628D01*
X041546Y027727D02*
X039471Y027727D01*
X039471Y027825D02*
X041546Y027825D01*
X041546Y027924D02*
X039471Y027924D01*
X039471Y028022D02*
X041546Y028022D01*
X041546Y028121D02*
X039471Y028121D01*
X039471Y028219D02*
X041546Y028219D01*
X041821Y028219D02*
X044775Y028219D01*
X044721Y028273D02*
X044971Y028023D01*
X044971Y025698D01*
X044686Y025698D01*
X044686Y026068D01*
X044587Y026168D01*
X044576Y026168D01*
X044296Y026448D01*
X041971Y026448D01*
X041821Y026598D01*
X041821Y028898D01*
X041996Y029073D01*
X043046Y029073D01*
X043046Y028548D01*
X043321Y028273D01*
X044721Y028273D01*
X044873Y028121D02*
X041821Y028121D01*
X041821Y028022D02*
X044971Y028022D01*
X044971Y027924D02*
X041821Y027924D01*
X041821Y027825D02*
X044971Y027825D01*
X044971Y027727D02*
X041821Y027727D01*
X041821Y027628D02*
X044971Y027628D01*
X044971Y027530D02*
X041821Y027530D01*
X041821Y027431D02*
X044971Y027431D01*
X044971Y027333D02*
X041821Y027333D01*
X041821Y027234D02*
X044971Y027234D01*
X044971Y027136D02*
X041821Y027136D01*
X041821Y027037D02*
X044971Y027037D01*
X044971Y026939D02*
X041821Y026939D01*
X041821Y026840D02*
X044971Y026840D01*
X044966Y026778D02*
X044966Y025718D01*
X044971Y025757D02*
X044686Y025757D01*
X044686Y025855D02*
X044971Y025855D01*
X044971Y025954D02*
X044686Y025954D01*
X044686Y026052D02*
X044971Y026052D01*
X044971Y026151D02*
X044604Y026151D01*
X044495Y026249D02*
X044971Y026249D01*
X044971Y026348D02*
X044396Y026348D01*
X044298Y026446D02*
X044971Y026446D01*
X044971Y026545D02*
X041874Y026545D01*
X041821Y026643D02*
X044971Y026643D01*
X044971Y026742D02*
X041821Y026742D01*
X041971Y026123D02*
X043146Y026123D01*
X043221Y026048D01*
X043221Y024098D01*
X043121Y023998D01*
X041971Y023998D01*
X041846Y024123D01*
X041846Y025998D01*
X041971Y026123D01*
X041900Y026052D02*
X043217Y026052D01*
X043221Y025954D02*
X041846Y025954D01*
X041846Y025855D02*
X043221Y025855D01*
X043221Y025757D02*
X041846Y025757D01*
X041846Y025658D02*
X043221Y025658D01*
X043221Y025560D02*
X041846Y025560D01*
X041846Y025461D02*
X043221Y025461D01*
X043221Y025363D02*
X041846Y025363D01*
X041846Y025264D02*
X043221Y025264D01*
X043221Y025166D02*
X041846Y025166D01*
X041846Y025067D02*
X043221Y025067D01*
X043221Y024969D02*
X041846Y024969D01*
X041846Y024870D02*
X043221Y024870D01*
X043221Y024772D02*
X041846Y024772D01*
X041846Y024673D02*
X043221Y024673D01*
X043221Y024575D02*
X041846Y024575D01*
X041846Y024476D02*
X043221Y024476D01*
X043221Y024378D02*
X041846Y024378D01*
X041846Y024279D02*
X043221Y024279D01*
X043221Y024181D02*
X041846Y024181D01*
X041887Y024082D02*
X043205Y024082D01*
X044421Y024082D02*
X046151Y024082D01*
X046151Y023984D02*
X044421Y023984D01*
X044421Y024181D02*
X046151Y024181D01*
X046151Y024279D02*
X044421Y024279D01*
X044421Y024378D02*
X046151Y024378D01*
X046151Y024476D02*
X044421Y024476D01*
X044421Y024575D02*
X046151Y024575D01*
X046235Y024673D02*
X044421Y024673D01*
X044421Y024772D02*
X046334Y024772D01*
X046432Y024870D02*
X044421Y024870D01*
X044421Y024969D02*
X046531Y024969D01*
X046601Y025067D02*
X044421Y025067D01*
X044421Y025166D02*
X046601Y025166D01*
X046601Y025264D02*
X044421Y025264D01*
X045476Y025363D02*
X045476Y025363D01*
X045726Y025718D02*
X045726Y026293D01*
X045721Y026298D01*
X045447Y026545D02*
X045196Y026545D01*
X045196Y026643D02*
X045546Y026643D01*
X045569Y026666D02*
X045353Y026451D01*
X045353Y026168D01*
X045336Y026168D01*
X045316Y026148D01*
X045196Y026148D01*
X045196Y029183D01*
X045895Y029183D01*
X045881Y027418D01*
X045876Y027413D01*
X045876Y026773D01*
X045875Y026664D01*
X045874Y026666D01*
X045569Y026666D01*
X045353Y026446D02*
X045196Y026446D01*
X045196Y026348D02*
X045353Y026348D01*
X045353Y026249D02*
X045196Y026249D01*
X045196Y026151D02*
X045318Y026151D01*
X045986Y026038D02*
X045986Y025718D01*
X046246Y025658D02*
X046246Y025658D01*
X046246Y025560D02*
X046246Y025560D01*
X046246Y025461D02*
X046246Y025461D01*
X046246Y025363D02*
X046246Y025363D01*
X046446Y025363D02*
X046601Y025363D01*
X046601Y025461D02*
X046466Y025461D01*
X046466Y025560D02*
X046601Y025560D01*
X046601Y025658D02*
X046466Y025658D01*
X046466Y025757D02*
X046601Y025757D01*
X046601Y025855D02*
X046466Y025855D01*
X046466Y025954D02*
X046601Y025954D01*
X046601Y026052D02*
X046457Y026052D01*
X046316Y026151D02*
X046656Y026151D01*
X046656Y026249D02*
X046316Y026249D01*
X046316Y026348D02*
X046656Y026348D01*
X046656Y026446D02*
X046316Y026446D01*
X046316Y026545D02*
X046656Y026545D01*
X046674Y026643D02*
X046316Y026643D01*
X046316Y026742D02*
X046684Y026742D01*
X046676Y026840D02*
X046316Y026840D01*
X046316Y026939D02*
X046676Y026939D01*
X046676Y027097D02*
X047071Y027097D01*
X047071Y027453D01*
X046806Y027453D01*
X046768Y027443D01*
X046734Y027423D01*
X046706Y027395D01*
X046686Y027361D01*
X046676Y027323D01*
X046676Y027097D01*
X046676Y027136D02*
X046316Y027136D01*
X046319Y027234D02*
X046676Y027234D01*
X046679Y027333D02*
X046418Y027333D01*
X046516Y027431D02*
X046748Y027431D01*
X047071Y027431D02*
X047171Y027431D01*
X047171Y027453D02*
X047171Y027097D01*
X047896Y027097D01*
X047896Y027453D01*
X047631Y027453D01*
X047593Y027443D01*
X047559Y027423D01*
X047534Y027398D01*
X047509Y027423D01*
X047474Y027443D01*
X047436Y027453D01*
X047171Y027453D01*
X047171Y027333D02*
X047071Y027333D01*
X047071Y027234D02*
X047171Y027234D01*
X047171Y027136D02*
X047071Y027136D01*
X047071Y027037D02*
X046316Y027037D01*
X046096Y027322D02*
X046697Y027923D01*
X046271Y027924D02*
X046121Y027924D01*
X046121Y028022D02*
X046271Y028022D01*
X046271Y028121D02*
X046121Y028121D01*
X046121Y028219D02*
X046271Y028219D01*
X046300Y028318D02*
X046121Y028318D01*
X046121Y028416D02*
X048396Y028416D01*
X048369Y028318D02*
X047814Y028318D01*
X047821Y028310D02*
X047793Y028338D01*
X047759Y028358D01*
X047721Y028368D01*
X047495Y028368D01*
X047495Y027973D01*
X047851Y027973D01*
X047851Y028238D01*
X047841Y028276D01*
X047821Y028310D01*
X047851Y028219D02*
X048343Y028219D01*
X048322Y028121D02*
X047851Y028121D01*
X047851Y028022D02*
X048322Y028022D01*
X048322Y027924D02*
X047495Y027924D01*
X047495Y028022D02*
X047395Y028022D01*
X047395Y028121D02*
X047495Y028121D01*
X047495Y028219D02*
X047395Y028219D01*
X047395Y028318D02*
X047495Y028318D01*
X047495Y027825D02*
X047395Y027825D01*
X047395Y027727D02*
X047495Y027727D01*
X047495Y027628D02*
X047395Y027628D01*
X047395Y027530D02*
X047495Y027530D01*
X047494Y027431D02*
X047573Y027431D01*
X047815Y027530D02*
X048398Y027530D01*
X048372Y027628D02*
X047851Y027628D01*
X047851Y027727D02*
X048346Y027727D01*
X048322Y027825D02*
X047851Y027825D01*
X047896Y027431D02*
X047996Y027431D01*
X047996Y027453D02*
X047996Y027097D01*
X048391Y027097D01*
X048391Y027323D01*
X048381Y027361D01*
X048361Y027395D01*
X048334Y027423D01*
X048299Y027443D01*
X048261Y027453D01*
X047996Y027453D01*
X047996Y027333D02*
X047896Y027333D01*
X047896Y027234D02*
X047996Y027234D01*
X047996Y027136D02*
X047896Y027136D01*
X047896Y027037D02*
X047171Y027037D01*
X047996Y027037D02*
X048546Y027037D01*
X048546Y026939D02*
X048391Y026939D01*
X048391Y026840D02*
X048546Y026840D01*
X048546Y026742D02*
X048383Y026742D01*
X048394Y026643D02*
X048546Y026643D01*
X048546Y026545D02*
X048411Y026545D01*
X048411Y026446D02*
X048546Y026446D01*
X048546Y026348D02*
X048411Y026348D01*
X047946Y026299D02*
X047946Y026073D01*
X047696Y025823D01*
X047497Y025248D02*
X047497Y025247D01*
X048245Y024499D01*
X048245Y024473D01*
X048145Y024525D01*
X048146Y024422D02*
X048245Y024473D01*
X048146Y024422D02*
X048146Y023948D01*
X047497Y024473D02*
X047071Y024373D01*
X046821Y024948D02*
X046371Y024498D01*
X046371Y023748D01*
X046296Y023673D01*
X046246Y023673D01*
X046246Y023478D01*
X046821Y024948D02*
X046821Y025999D01*
X047121Y026299D01*
X046096Y026148D02*
X046096Y027322D01*
X045876Y027333D02*
X045196Y027333D01*
X045196Y027431D02*
X045881Y027431D01*
X045882Y027530D02*
X045196Y027530D01*
X045196Y027628D02*
X045883Y027628D01*
X045884Y027727D02*
X045196Y027727D01*
X045196Y027825D02*
X045885Y027825D01*
X045885Y027924D02*
X045196Y027924D01*
X045196Y028022D02*
X045886Y028022D01*
X045887Y028121D02*
X045196Y028121D01*
X045196Y028219D02*
X045888Y028219D01*
X045888Y028318D02*
X045196Y028318D01*
X045196Y028416D02*
X045889Y028416D01*
X045890Y028515D02*
X045196Y028515D01*
X045196Y028613D02*
X045891Y028613D01*
X045892Y028712D02*
X045196Y028712D01*
X045196Y028810D02*
X045892Y028810D01*
X045893Y028909D02*
X045196Y028909D01*
X045196Y029007D02*
X045894Y029007D01*
X045895Y029106D02*
X045196Y029106D01*
X046121Y029106D02*
X048038Y029106D01*
X048137Y029007D02*
X046121Y029007D01*
X046121Y028909D02*
X048235Y028909D01*
X048334Y028810D02*
X046121Y028810D01*
X046121Y028712D02*
X048432Y028712D01*
X048495Y028613D02*
X046121Y028613D01*
X046121Y028515D02*
X048438Y028515D01*
X048445Y027431D02*
X048319Y027431D01*
X048389Y027333D02*
X048501Y027333D01*
X048546Y027234D02*
X048391Y027234D01*
X048391Y027136D02*
X048546Y027136D01*
X046271Y027825D02*
X046121Y027825D01*
X046121Y027727D02*
X046190Y027727D01*
X045876Y027234D02*
X045196Y027234D01*
X045196Y027136D02*
X045876Y027136D01*
X045876Y027037D02*
X045196Y027037D01*
X045196Y026939D02*
X045876Y026939D01*
X045876Y026840D02*
X045196Y026840D01*
X045196Y026742D02*
X045876Y026742D01*
X046096Y026148D02*
X045986Y026038D01*
X042496Y024998D02*
X042309Y025185D01*
X042065Y025185D01*
X041821Y028318D02*
X043276Y028318D01*
X043178Y028416D02*
X041821Y028416D01*
X041821Y028515D02*
X043079Y028515D01*
X043046Y028613D02*
X041821Y028613D01*
X041821Y028712D02*
X043046Y028712D01*
X043046Y028810D02*
X041821Y028810D01*
X041832Y028909D02*
X043046Y028909D01*
X043046Y029007D02*
X041930Y029007D01*
X036158Y027173D02*
X036132Y027147D01*
X035996Y027147D01*
X028796Y022424D02*
X028495Y022424D01*
X026391Y022158D02*
X026371Y022178D01*
X026371Y022423D01*
X025371Y023298D02*
X025221Y023448D01*
X025221Y025073D01*
X024166Y025253D02*
X023716Y025253D01*
X023621Y025348D01*
X023621Y026998D01*
X023721Y027073D01*
X025071Y027298D02*
X025071Y027749D01*
X025071Y028497D02*
X025172Y028598D01*
X026076Y028598D01*
X023996Y025773D02*
X023996Y025548D01*
X023946Y025498D01*
X024161Y025498D01*
X024166Y025503D01*
X022671Y025013D02*
X022531Y024873D01*
X022671Y024733D01*
X022671Y024623D01*
X022531Y024873D02*
X022071Y024873D01*
X022057Y024859D01*
X022057Y024321D01*
X021801Y024321D02*
X021801Y023953D01*
X021146Y023298D01*
X020971Y023298D01*
X020971Y023147D01*
X020971Y023248D01*
X020971Y023147D02*
X020196Y023147D01*
X019821Y023573D02*
X019421Y023173D01*
X019421Y023147D01*
X018671Y023147D01*
X018021Y023798D02*
X020396Y023798D01*
X020522Y023923D01*
X020522Y024321D01*
X020271Y024326D02*
X020266Y024321D01*
X020263Y024323D01*
X019421Y024323D01*
X019771Y024673D02*
X018596Y024673D01*
X013196Y019273D01*
X011596Y019273D01*
X010953Y019916D01*
X010953Y020014D01*
X009953Y020014D02*
X009755Y020014D01*
X009421Y020348D01*
X009421Y022173D01*
X012246Y024998D01*
X012691Y024998D01*
X012691Y025498D02*
X012196Y025498D01*
X009221Y022523D01*
X009221Y019573D01*
X009780Y019014D01*
X009953Y019014D01*
X010953Y019014D02*
X010998Y019059D01*
X013282Y019059D01*
X018021Y023798D01*
X016896Y023273D02*
X012840Y023273D01*
X012171Y023273D02*
X012171Y023148D01*
X011821Y022798D01*
X010621Y022798D01*
X010471Y022648D01*
X010471Y018496D01*
X010953Y018014D01*
X009953Y018014D02*
X009922Y018014D01*
X009021Y018914D01*
X009021Y024523D01*
X011971Y027473D01*
X011971Y027798D01*
X012171Y027998D01*
X012691Y027998D01*
X013421Y027998D01*
X014396Y027023D01*
X014596Y027023D01*
X013821Y026998D02*
X014696Y026123D01*
X015296Y026123D01*
X014946Y026498D02*
X014621Y026498D01*
X013621Y027498D01*
X012691Y027498D01*
X012296Y027498D01*
X009971Y025173D01*
X009971Y023823D01*
X008821Y024623D02*
X009771Y025573D01*
X009771Y025798D01*
X008846Y025674D02*
X008521Y025349D01*
X008521Y015273D01*
X009922Y017014D02*
X008821Y018114D01*
X008821Y024623D01*
X010971Y025648D02*
X010971Y025873D01*
X012096Y026998D01*
X012691Y026998D01*
X013821Y026998D01*
X013096Y026498D02*
X012691Y026498D01*
X013096Y026498D02*
X013371Y026223D01*
X013146Y025998D01*
X012691Y025998D01*
X011771Y027573D02*
X010620Y026422D01*
X008846Y026422D01*
X011771Y027573D02*
X011771Y028148D01*
X012271Y028648D01*
X012646Y028648D01*
X015646Y027148D02*
X015996Y027498D01*
X016451Y027498D01*
X016451Y026998D02*
X017021Y026998D01*
X017421Y027398D01*
X017421Y027523D01*
X017571Y027023D02*
X017571Y026973D01*
X017096Y026498D01*
X016451Y026498D01*
X016451Y025998D02*
X017121Y025998D01*
X017571Y025548D01*
X017421Y025198D02*
X017121Y025498D01*
X016451Y025498D01*
X016451Y024998D02*
X017846Y024998D01*
X018146Y025298D01*
X018146Y027448D01*
X018321Y027623D01*
X017921Y028248D02*
X017921Y025398D01*
X017721Y025198D01*
X017421Y025198D01*
X016451Y024498D02*
X016426Y024473D01*
X015271Y024473D01*
X014696Y023998D02*
X014346Y023648D01*
X014696Y023998D02*
X016451Y023998D01*
X015646Y025023D02*
X015646Y027148D01*
X020022Y028073D02*
X020071Y028024D01*
X020896Y025798D02*
X021121Y025798D01*
X020896Y025798D02*
X019771Y024673D01*
X020777Y024754D02*
X020777Y024321D01*
X021033Y024321D02*
X021033Y024860D01*
X021046Y024873D01*
X021271Y024873D01*
X021289Y024855D01*
X021289Y024321D01*
X021545Y024321D02*
X021545Y023982D01*
X021136Y023573D01*
X019821Y023573D01*
X020777Y024754D02*
X020896Y024873D01*
X021046Y024873D01*
X021271Y024873D02*
X022071Y024873D01*
X023196Y023498D02*
X023196Y023247D01*
X023296Y023147D01*
X024071Y023147D01*
X022521Y023147D02*
X021746Y023147D01*
X021846Y023247D01*
X021846Y023248D02*
X021921Y023073D01*
X021921Y023448D01*
X020221Y022398D02*
X020196Y022373D01*
X020196Y022399D02*
X020196Y021973D01*
X023396Y019048D02*
X023519Y018925D01*
X024233Y018925D01*
X025846Y021373D02*
X025796Y021423D01*
X025796Y021623D01*
X025781Y021638D01*
X025651Y021638D01*
X026391Y021638D02*
X026391Y021418D01*
X031621Y021548D02*
X031621Y021648D01*
X025346Y013773D02*
X018121Y013773D01*
X017971Y013623D01*
X017906Y012348D02*
X017899Y012342D01*
X017906Y012348D02*
X018896Y012348D01*
X019995Y013298D02*
X020220Y013048D01*
X026271Y013048D01*
X026346Y013123D01*
X028571Y013123D01*
X028746Y012948D01*
X029046Y012948D01*
X029421Y013323D01*
X030321Y013323D01*
X028896Y013323D02*
X026246Y013323D01*
X026171Y013248D01*
X025871Y013248D01*
X025346Y013773D01*
X025860Y012558D02*
X023772Y012558D01*
X023851Y012459D02*
X025762Y012459D01*
X025663Y012361D02*
X023962Y012361D01*
X023998Y012325D02*
X023998Y012325D01*
X024061Y012262D02*
X025653Y012262D01*
X024896Y012164D02*
X024159Y012164D01*
X024214Y012065D02*
X024831Y012065D01*
X024831Y011967D02*
X024221Y011967D01*
X024221Y011868D02*
X024831Y011868D01*
X024831Y011770D02*
X024221Y011770D01*
X024221Y011671D02*
X024831Y011671D01*
X024831Y011573D02*
X024221Y011573D01*
X024221Y011474D02*
X024831Y011474D01*
X024856Y011376D02*
X024222Y011376D01*
X024321Y011277D02*
X024831Y011277D01*
X024570Y010773D02*
X024570Y010773D01*
X024471Y010773D02*
X024471Y010773D01*
X023356Y011376D02*
X023256Y011376D01*
X023256Y011474D02*
X023356Y011474D01*
X023356Y011573D02*
X023256Y011573D01*
X026895Y010023D02*
X027176Y010023D01*
X027821Y010618D01*
X028196Y012248D02*
X028221Y012273D01*
X028546Y012273D01*
X028621Y012348D01*
X032254Y009110D02*
X032696Y009110D01*
X031254Y007534D02*
X030510Y007534D01*
X030609Y007436D02*
X031155Y007436D01*
X031087Y007337D02*
X030609Y007337D01*
X030775Y007239D02*
X031046Y007239D01*
X031015Y007140D02*
X030825Y007140D01*
X030825Y007042D02*
X031015Y007042D01*
X031015Y006943D02*
X030825Y006943D01*
X030825Y006845D02*
X031015Y006845D01*
X031015Y006746D02*
X030825Y006746D01*
X030818Y006648D02*
X031015Y006648D01*
X029941Y006648D02*
X029121Y006648D01*
X029121Y006746D02*
X029934Y006746D01*
X029934Y006845D02*
X029121Y006845D01*
X029121Y006943D02*
X029934Y006943D01*
X029934Y007042D02*
X029121Y007042D01*
X029121Y007140D02*
X029934Y007140D01*
X029983Y007239D02*
X029121Y007239D01*
X029121Y007337D02*
X030057Y007337D01*
X029958Y007436D02*
X029121Y007436D01*
X029121Y007534D02*
X029860Y007534D01*
X027288Y008716D02*
X021342Y008716D01*
X021342Y008618D02*
X021942Y008618D01*
X021969Y006845D02*
X021476Y006845D01*
X023236Y005860D02*
X023479Y005860D01*
X023384Y005761D02*
X023236Y005761D01*
X023236Y005663D02*
X023384Y005663D01*
X027880Y004087D02*
X027946Y004087D01*
X029246Y005598D02*
X029271Y005648D01*
X018146Y011523D02*
X018142Y011523D01*
X017796Y011048D02*
X016971Y011048D01*
X016975Y011044D01*
X016975Y010423D01*
X016971Y011048D02*
X016321Y011048D01*
X016121Y011248D01*
X016121Y011247D02*
X016121Y011973D01*
X016046Y012048D01*
X016646Y011877D02*
X016646Y012223D01*
X016646Y011877D02*
X017000Y011523D01*
X016121Y010499D02*
X016070Y010448D01*
X014820Y010448D01*
X012522Y011248D02*
X012187Y011248D01*
X012522Y011248D02*
X012522Y011349D01*
X012522Y011424D02*
X012522Y011248D01*
X012522Y011249D01*
X013933Y012561D02*
X013946Y012548D01*
X013933Y012561D02*
X013933Y013050D01*
X009962Y011014D02*
X009953Y011014D01*
X010975Y007573D02*
X010975Y007069D01*
X010971Y006973D01*
X008821Y007348D02*
X008796Y007373D01*
X008796Y007527D01*
X012520Y015531D02*
X012529Y015531D01*
X012921Y015923D01*
X012921Y016472D01*
X012920Y016473D01*
X012920Y017248D01*
X012920Y016473D02*
X012896Y016447D01*
X013721Y016447D01*
X012172Y016473D02*
X012072Y016423D01*
X009953Y017014D02*
X009922Y017014D01*
X012146Y018298D02*
X012171Y018323D01*
X011947Y019823D02*
X011947Y020598D01*
X011822Y020798D01*
X011796Y020798D01*
X011946Y020723D02*
X011947Y020722D01*
X011947Y020965D01*
X012522Y021540D01*
X013270Y021540D02*
X013613Y021540D01*
X013621Y021548D01*
X013846Y022398D02*
X012896Y022398D01*
X012896Y022406D02*
X012813Y022323D01*
X011745Y022323D01*
X010997Y022323D02*
X010953Y022279D01*
X010953Y021014D01*
X009953Y021014D02*
X009953Y022080D01*
X009971Y022098D01*
X011502Y023273D02*
X011502Y023779D01*
X012221Y024498D01*
X012671Y024498D01*
X012696Y024523D01*
X012691Y023998D02*
X013371Y023998D01*
X014346Y022898D02*
X013846Y022398D01*
X011947Y020722D02*
X011947Y020598D01*
X012695Y020598D02*
X012795Y020498D01*
X013071Y020498D01*
X013071Y019823D02*
X012695Y019823D01*
X013071Y019823D02*
X013096Y019798D01*
D77*
X013496Y017323D02*
X014296Y017323D01*
X015096Y017323D01*
X016046Y017323D01*
X015421Y015123D02*
X016796Y015123D01*
X025896Y015123D01*
X031471Y015123D01*
X031896Y015548D01*
X032971Y016623D01*
X034946Y016623D01*
X035546Y017223D01*
X035546Y018813D01*
X036536Y016098D02*
X033296Y016098D01*
X033171Y016098D01*
X031696Y014623D01*
X029046Y014623D01*
X024346Y014623D01*
X013896Y014623D01*
X014346Y014123D02*
X013396Y014123D01*
X014346Y014123D02*
X015221Y014123D01*
X016246Y014123D01*
X017471Y014123D01*
X017496Y014123D02*
X021496Y014123D01*
X025096Y014123D01*
X027271Y014123D01*
X032021Y014123D01*
X029846Y015623D02*
X029846Y017973D01*
X029846Y015623D02*
X026871Y015623D01*
X030371Y020523D02*
X030371Y021848D01*
X030321Y021898D01*
X030321Y022423D01*
X030321Y023923D01*
X030321Y027473D01*
X031121Y028273D01*
X031361Y028273D01*
X039806Y022198D02*
X040320Y022198D01*
X040346Y022198D01*
X040521Y009849D02*
X040372Y009700D01*
X040372Y008948D01*
X040397Y008973D01*
X040497Y008973D01*
X040372Y008948D02*
X040372Y008198D01*
X040345Y008171D01*
X040395Y008048D01*
X040372Y008198D02*
X040372Y007098D01*
X040271Y006973D02*
X040271Y002373D01*
X039996Y002098D01*
X039596Y004128D02*
X039596Y005923D01*
X039296Y006223D01*
X017671Y009773D02*
X016546Y009773D01*
X016021Y022823D02*
X015071Y022823D01*
D78*
X020071Y027413D02*
X020186Y027298D01*
X020071Y027413D02*
X020071Y028024D01*
X020770Y028073D02*
X020770Y029072D01*
X020771Y029073D01*
X021572Y028499D02*
X021572Y028073D01*
X021572Y028499D02*
X021721Y028648D01*
X022771Y028648D01*
X023122Y028297D01*
X023122Y028073D01*
X023870Y028073D02*
X023870Y027674D01*
X024746Y026798D01*
X024746Y022173D01*
X029046Y024473D02*
X029046Y027147D01*
X032031Y027298D02*
X032031Y026374D01*
X032021Y026599D01*
X032031Y027298D02*
X033151Y027298D01*
X032031Y027298D02*
X032031Y028273D01*
X035145Y028323D02*
X035146Y027848D01*
X035091Y027298D02*
X035845Y027298D01*
X035996Y027147D01*
X035997Y027148D01*
X036321Y027148D01*
X036771Y026698D01*
X036771Y025323D01*
X035996Y025973D02*
X035996Y026399D01*
X037421Y026173D02*
X037421Y024148D01*
X037396Y024123D01*
X037096Y024123D01*
X034996Y024123D01*
X034996Y023474D01*
X034995Y023473D01*
X034995Y023201D01*
X038046Y022923D02*
X038070Y022947D01*
X040321Y022947D01*
X040295Y022973D01*
X040295Y024023D01*
X040220Y024023D01*
X040370Y022996D02*
X040321Y022947D01*
X040846Y021823D02*
X040021Y020998D01*
X038996Y020998D01*
X038046Y020548D02*
X037196Y019698D01*
X037196Y018872D01*
X037862Y018872D01*
X037923Y018811D01*
X035546Y019483D02*
X035546Y020272D01*
X035445Y020373D01*
X035659Y020587D01*
X035659Y021150D01*
X038046Y020548D02*
X038046Y022923D01*
X038046Y025323D01*
X037621Y026147D02*
X037447Y026147D01*
X037421Y026173D01*
X038520Y027048D02*
X038746Y026922D01*
X038795Y026773D01*
X039471Y026773D01*
X039696Y026548D01*
X039696Y026050D01*
X038520Y027048D02*
X037646Y027048D01*
X037621Y027073D01*
X037621Y027249D01*
X039696Y027423D02*
X039721Y027398D01*
X041190Y027398D01*
X041277Y027311D01*
X039696Y027423D02*
X039696Y027546D01*
X035546Y019483D02*
X035520Y019482D01*
X037923Y016685D02*
X037923Y016073D01*
X037898Y016098D01*
X037206Y016098D01*
X037146Y016038D01*
X037146Y015371D01*
X037972Y015823D02*
X037997Y015848D01*
X037923Y015922D01*
X037923Y016073D01*
X041496Y012023D02*
X043096Y013823D01*
X043546Y013823D01*
X041496Y012023D02*
X037871Y012023D01*
X036403Y010555D01*
X036403Y010198D01*
X036403Y009105D01*
X036371Y009073D01*
X037396Y010023D02*
X037764Y010023D01*
X037939Y010198D01*
X043021Y009008D02*
X043021Y008723D01*
X043496Y008723D01*
X043446Y008673D01*
X043296Y008473D01*
X043496Y008723D02*
X043496Y008223D01*
X058185Y007761D02*
X059423Y008998D01*
X060095Y008998D01*
X061197Y008998D02*
X061870Y008998D01*
X063107Y007761D01*
X064471Y008773D02*
X063022Y010222D01*
X061271Y010222D01*
X060021Y010222D01*
X060021Y011324D02*
X060021Y013298D01*
X061271Y011633D02*
X061836Y012198D01*
X061271Y011633D02*
X061271Y011324D01*
X064471Y008773D02*
X064471Y002323D01*
X063959Y001811D01*
X062871Y001811D01*
X062871Y001823D01*
X018697Y005805D02*
X018696Y005804D01*
X014626Y007867D02*
X014496Y007947D01*
X014521Y007973D02*
X014571Y008023D01*
X022156Y027298D02*
X022221Y027363D01*
X022221Y027974D01*
X016446Y029073D02*
X014196Y029073D01*
X013571Y028448D01*
D79*
X020856Y027298D02*
X021033Y027120D01*
X021033Y026836D01*
X021289Y026841D02*
X021289Y027091D01*
X021496Y027298D01*
X043821Y025924D02*
X044420Y025924D01*
X044446Y025898D01*
X044446Y025718D01*
X044706Y025718D02*
X044706Y026433D01*
X045216Y026518D02*
X045396Y026673D01*
X045216Y026518D02*
X045216Y025718D01*
X044446Y023478D02*
X044376Y023478D01*
X044371Y023473D01*
D80*
X047472Y021448D02*
X051071Y021448D01*
X031361Y028273D02*
X030561Y029073D01*
X020771Y029073D01*
X016446Y029073D01*
X041471Y009349D02*
X041471Y008072D01*
X041497Y008048D01*
X041497Y008473D02*
X041522Y007500D01*
X041120Y007098D01*
X040372Y007098D02*
X040372Y007049D01*
X040271Y006973D01*
D81*
X038096Y007023D03*
X037671Y007023D03*
X037246Y007023D03*
X037246Y007448D03*
X037246Y007873D03*
X037671Y007873D03*
X037671Y007448D03*
X038096Y007448D03*
X038096Y007873D03*
X043146Y003123D03*
X043146Y002723D03*
X043546Y002723D03*
X043546Y003123D03*
X027546Y003223D03*
X027121Y003223D03*
X026696Y003223D03*
X026696Y003648D03*
X027121Y003648D03*
X027546Y003648D03*
X027546Y002798D03*
X027121Y002798D03*
X026696Y002798D03*
X022346Y002798D03*
X021921Y002798D03*
X021496Y002798D03*
X021496Y003223D03*
X021496Y003648D03*
X021921Y003648D03*
X021921Y003223D03*
X022346Y003223D03*
X022346Y003648D03*
X018646Y002123D03*
X018221Y002123D03*
X018221Y001748D03*
X018221Y001373D03*
X018646Y001373D03*
X018646Y001748D03*
X014921Y001748D03*
X014921Y001373D03*
X014496Y001373D03*
X014496Y001748D03*
X014496Y002123D03*
X014921Y002123D03*
X043546Y013398D03*
X043946Y013398D03*
X044346Y013398D03*
X044346Y013823D03*
X043946Y013823D03*
X043546Y013823D03*
X043546Y014248D03*
X043946Y014248D03*
X044346Y014248D03*
D82*
X035520Y019482D02*
X034507Y019482D01*
X034671Y019546D01*
X029225Y001723D02*
X028946Y001723D01*
D83*
X023948Y005048D02*
X023046Y005048D01*
X022696Y005398D01*
X022696Y006248D01*
X054299Y001994D02*
X054483Y001811D01*
X062871Y001811D01*
D84*
X054299Y001994D03*
X010205Y001994D03*
X010205Y027978D03*
X049575Y027978D03*
D85*
X049622Y008023D02*
X048846Y008023D01*
D86*
X042571Y010673D02*
X042346Y010673D01*
X042571Y010673D02*
X041321Y010923D01*
X039696Y010923D01*
X039246Y010473D01*
X039246Y008898D01*
X039246Y006298D01*
X055846Y024874D02*
X055846Y025273D01*
D87*
X046651Y017453D02*
X046651Y017028D01*
D88*
X046521Y014773D02*
X046521Y013974D01*
D89*
X043296Y008473D02*
X041497Y008473D01*
X041497Y008048D01*
M02*
