G75*
G70*
%OFA0B0*%
%FSLAX24Y24*%
%IPPOS*%
%LPD*%
%AMOC8*
5,1,8,0,0,1.08239X$1,22.5*
%
%ADD10R,0.1700X0.1275*%
%ADD11C,0.0120*%
%ADD12C,0.0140*%
%ADD13C,0.0760*%
%ADD14R,0.0789X0.0631*%
%ADD15R,0.0474X0.0513*%
%ADD16R,0.0592X0.0671*%
%ADD17R,0.0671X0.0592*%
%ADD18R,0.0710X0.0789*%
%ADD19R,0.0270X0.0760*%
%ADD20R,0.0710X0.0218*%
%ADD21R,0.0300X0.1080*%
%ADD22R,0.0513X0.0474*%
%ADD23C,0.0973*%
%ADD24C,0.2759*%
%ADD25R,0.0552X0.0671*%
%ADD26R,0.0671X0.0552*%
%ADD27R,0.0631X0.0789*%
%ADD28R,0.0530X0.0830*%
%ADD29R,0.2125X0.1375*%
%ADD30R,0.0316X0.0690*%
%ADD31R,0.0631X0.0474*%
%ADD32R,0.0474X0.0631*%
%ADD33R,0.1340X0.0789*%
%ADD34R,0.0680X0.0300*%
%ADD35R,0.0600X0.0300*%
%ADD36R,0.0450X0.1060*%
%ADD37R,0.2850X0.2770*%
%ADD38R,0.1419X0.0828*%
%ADD39R,0.0300X0.0860*%
%ADD40R,0.0674X0.0674*%
%ADD41OC8,0.0674*%
%ADD42R,0.0710X0.1143*%
%ADD43R,0.0790X0.0710*%
%ADD44R,0.2365X0.2444*%
%ADD45R,0.0592X0.0749*%
%ADD46R,0.0680X0.1280*%
%ADD47R,0.0580X0.0260*%
%ADD48R,0.0770X0.1240*%
%ADD49R,0.0789X0.0710*%
%ADD50R,0.0380X0.1360*%
%ADD51R,0.1143X0.0710*%
%ADD52R,0.0710X0.0790*%
%ADD53R,0.0552X0.0552*%
%ADD54R,0.0631X0.0631*%
%ADD55R,0.0640X0.0220*%
%ADD56C,0.1360*%
%ADD57OC8,0.1360*%
%ADD58R,0.2444X0.2365*%
%ADD59R,0.0749X0.0592*%
%ADD60R,0.0690X0.0316*%
%ADD61R,0.0220X0.0540*%
%ADD62R,0.0580X0.0300*%
%ADD63R,0.0316X0.0946*%
%ADD64C,0.1100*%
%ADD65OC8,0.0640*%
%ADD66R,0.1680X0.0510*%
%ADD67R,0.0789X0.0946*%
%ADD68R,0.0946X0.0789*%
%ADD69OC8,0.0946*%
%ADD70R,0.0516X0.0516*%
%ADD71R,0.0909X0.1539*%
%ADD72R,0.1539X0.0909*%
%ADD73R,0.0907X0.0631*%
%ADD74OC8,0.0600*%
%ADD75R,0.1841X0.1939*%
%ADD76C,0.1100*%
%ADD77R,0.0550X0.1720*%
%ADD78R,0.0516X0.0516*%
%ADD79C,0.2365*%
D10*
X025860Y048347D03*
D11*
X013085Y044309D02*
X012285Y044309D01*
D12*
X010010Y044284D02*
X009085Y044284D01*
X009085Y044059D02*
X010010Y044059D01*
D13*
X024785Y041634D02*
X024785Y038984D01*
X025160Y038609D01*
X029460Y038609D01*
D14*
X033885Y026954D03*
X033885Y025615D03*
D15*
X028385Y018719D03*
X028385Y018050D03*
X029435Y013894D03*
X029435Y013225D03*
X022135Y016075D03*
X022135Y016744D03*
X018985Y023475D03*
X018985Y024144D03*
X016135Y024975D03*
X016135Y025644D03*
X011560Y025894D03*
X011560Y025225D03*
X010710Y026150D03*
X010710Y026819D03*
X008435Y021494D03*
X008435Y020825D03*
X008435Y020194D03*
X008435Y019525D03*
X007160Y016444D03*
X007160Y015775D03*
X016250Y034884D03*
X016919Y034884D03*
D16*
X016861Y036534D03*
X017609Y036534D03*
X018911Y039859D03*
X019659Y039859D03*
X020461Y039859D03*
X021209Y039859D03*
X019584Y042584D03*
X018836Y042584D03*
X018836Y043359D03*
X019584Y043359D03*
X018034Y043359D03*
X017286Y043359D03*
X017059Y044134D03*
X017059Y044909D03*
X017059Y045684D03*
X017059Y046459D03*
X016311Y046459D03*
X016311Y045684D03*
X016311Y044909D03*
X016311Y044134D03*
X017286Y042584D03*
X018034Y042584D03*
X014584Y042859D03*
X014584Y042084D03*
X013836Y042084D03*
X013836Y042859D03*
X013836Y041309D03*
X013836Y040534D03*
X013534Y039659D03*
X012786Y039659D03*
X014584Y040534D03*
X014584Y041309D03*
X012234Y043059D03*
X011486Y043059D03*
X009809Y043159D03*
X009061Y043159D03*
X009434Y046459D03*
X008686Y046459D03*
X008686Y047284D03*
X009434Y047284D03*
X015040Y047759D03*
X015710Y047759D03*
X016379Y047759D03*
X017586Y047434D03*
X018334Y047434D03*
X025136Y039859D03*
X025884Y039859D03*
X025636Y040809D03*
X026384Y040809D03*
X028936Y043934D03*
X029684Y043934D03*
X030136Y055159D03*
X030884Y055159D03*
X031186Y029734D03*
X031934Y029734D03*
X031934Y028959D03*
X031909Y028059D03*
X031161Y028059D03*
X031186Y028959D03*
X027734Y028809D03*
X026986Y028809D03*
X024709Y025409D03*
X023961Y025409D03*
X023961Y024634D03*
X024709Y024634D03*
X028111Y020309D03*
X028859Y020309D03*
X030561Y016234D03*
X031309Y016234D03*
X032111Y016234D03*
X032859Y016234D03*
X032859Y015409D03*
X032111Y015409D03*
X031309Y015409D03*
X030561Y015409D03*
X030561Y014609D03*
X031309Y014609D03*
X031309Y013809D03*
X030561Y013809D03*
X031661Y018659D03*
X032409Y018659D03*
X031659Y007834D03*
X030911Y007834D03*
X030109Y007834D03*
X029361Y007834D03*
X029361Y007059D03*
X030109Y007059D03*
X030911Y007059D03*
X031659Y007059D03*
X025234Y015459D03*
X024486Y015459D03*
X020034Y013059D03*
X019286Y013059D03*
X013334Y018009D03*
X012586Y018009D03*
X012586Y018759D03*
X012586Y019534D03*
X012586Y020309D03*
X012586Y021084D03*
X012586Y021859D03*
X013334Y021859D03*
X013334Y021084D03*
X013334Y020309D03*
X013334Y019534D03*
X013334Y018759D03*
X015211Y022359D03*
X015959Y022359D03*
X017111Y022359D03*
X017859Y022359D03*
X018656Y022359D03*
X019404Y022359D03*
X013334Y022634D03*
X013334Y023409D03*
X012586Y023409D03*
X012586Y022634D03*
X012561Y028134D03*
X012561Y028909D03*
X013309Y028909D03*
X013309Y028134D03*
X013309Y030309D03*
X012561Y030309D03*
X012561Y031084D03*
X013309Y031084D03*
X009334Y035334D03*
X008586Y035334D03*
X008811Y038084D03*
X009559Y038084D03*
X007984Y024409D03*
X007236Y024409D03*
X009311Y008184D03*
X010059Y008184D03*
D17*
X012460Y010840D03*
X012460Y011509D03*
X012460Y012179D03*
X013410Y011083D03*
X013410Y010335D03*
X015135Y011285D03*
X015135Y012033D03*
X015910Y012033D03*
X015910Y011285D03*
X017435Y011510D03*
X017435Y012258D03*
X018485Y012258D03*
X018485Y011510D03*
X019260Y011510D03*
X019260Y012258D03*
X018710Y016635D03*
X018710Y017383D03*
X017860Y017383D03*
X017860Y016635D03*
X017015Y016635D03*
X017015Y017383D03*
X017015Y018410D03*
X017015Y019158D03*
X017860Y019158D03*
X017860Y018410D03*
X018710Y018410D03*
X018710Y019158D03*
X018710Y020385D03*
X018710Y021133D03*
X017860Y021133D03*
X017860Y020385D03*
X019635Y020385D03*
X019635Y021133D03*
X019860Y019158D03*
X019860Y018410D03*
X019860Y017383D03*
X019860Y016635D03*
X022435Y018585D03*
X022435Y019333D03*
X023391Y017238D03*
X023391Y016490D03*
X024485Y014158D03*
X024485Y013410D03*
X024485Y012608D03*
X024485Y011860D03*
X025285Y013410D03*
X025285Y014158D03*
X026211Y014115D03*
X026211Y014863D03*
X027360Y014810D03*
X027866Y013965D03*
X027866Y013217D03*
X028647Y013210D03*
X028647Y013958D03*
X027360Y015558D03*
X027360Y016360D03*
X027360Y017108D03*
X029159Y018035D03*
X029159Y018783D03*
X029928Y018783D03*
X029928Y018035D03*
X031885Y012708D03*
X031885Y011960D03*
X030910Y011008D03*
X030135Y011008D03*
X030135Y010260D03*
X030910Y010260D03*
X033910Y023960D03*
X033910Y024708D03*
X031610Y030960D03*
X031610Y031708D03*
X031610Y032510D03*
X031610Y033258D03*
X030835Y033258D03*
X030835Y032510D03*
X030835Y031708D03*
X030835Y030960D03*
X025710Y026233D03*
X025710Y025485D03*
X024010Y028935D03*
X024010Y029683D03*
X024010Y030485D03*
X024010Y031233D03*
X025385Y032110D03*
X025385Y032858D03*
X023960Y033685D03*
X023960Y034433D03*
X022260Y039985D03*
X022260Y040733D03*
X019885Y038083D03*
X019885Y037335D03*
X017910Y032633D03*
X017910Y031885D03*
X017135Y031885D03*
X017135Y032633D03*
X018460Y030508D03*
X018460Y029760D03*
X019235Y029760D03*
X019235Y030508D03*
X018310Y027433D03*
X018310Y026685D03*
X017535Y026685D03*
X017535Y027433D03*
X015960Y027633D03*
X015960Y026885D03*
X016035Y021133D03*
X016035Y020385D03*
X015185Y020385D03*
X015185Y021133D03*
X015185Y019158D03*
X015185Y018410D03*
X016035Y018410D03*
X016035Y019158D03*
X016035Y017383D03*
X016035Y016635D03*
X015185Y016635D03*
X015185Y017383D03*
X007660Y019360D03*
X007660Y020108D03*
X007660Y020910D03*
X007660Y021658D03*
X007660Y022460D03*
X007660Y023208D03*
X007410Y032185D03*
X007410Y032933D03*
X007410Y033735D03*
X007410Y034483D03*
X007435Y037135D03*
X007435Y037883D03*
X006885Y042185D03*
X006885Y042933D03*
X007810Y046035D03*
X007810Y046783D03*
X010485Y046835D03*
X010485Y047583D03*
X011260Y047583D03*
X011260Y046835D03*
X012285Y046835D03*
X012285Y047583D03*
X013060Y047583D03*
X013060Y046835D03*
X017860Y044883D03*
X017860Y044135D03*
X021385Y045485D03*
X021385Y046233D03*
X018435Y050710D03*
X018435Y051458D03*
X027710Y049708D03*
X027710Y048960D03*
X028635Y040458D03*
X028635Y039710D03*
X023485Y027533D03*
X023485Y026785D03*
X015360Y034035D03*
X015360Y034783D03*
X012260Y034333D03*
X012260Y033585D03*
X010760Y033285D03*
X010760Y034033D03*
D18*
X010236Y031359D03*
X009134Y031359D03*
X008586Y028384D03*
X007484Y028384D03*
X019334Y047334D03*
X020436Y047334D03*
X025609Y059934D03*
X025609Y060809D03*
X026711Y060809D03*
X026711Y059934D03*
D19*
X010990Y025264D03*
X010740Y025264D03*
X010480Y025264D03*
X010230Y025264D03*
X010230Y023504D03*
X010480Y023504D03*
X010740Y023504D03*
X010990Y023504D03*
D20*
X011412Y021395D03*
X011412Y021139D03*
X011412Y020883D03*
X011412Y020628D03*
X011412Y020372D03*
X011412Y020116D03*
X011412Y019860D03*
X011412Y019604D03*
X009207Y019604D03*
X009207Y019860D03*
X009207Y020116D03*
X009207Y020372D03*
X009207Y020628D03*
X009207Y020883D03*
X009207Y021139D03*
X009207Y021395D03*
D21*
X009235Y015789D03*
X009735Y015789D03*
X010235Y015789D03*
X010735Y015789D03*
X011235Y015789D03*
X011735Y015789D03*
X011735Y012029D03*
X011235Y012029D03*
X010735Y012029D03*
X010235Y012029D03*
X009735Y012029D03*
X009235Y012029D03*
X008735Y012029D03*
X008235Y012029D03*
X007735Y012029D03*
X007735Y015789D03*
X008235Y015789D03*
X008735Y015789D03*
D22*
X010050Y022009D03*
X010719Y022009D03*
X014400Y027784D03*
X015069Y027784D03*
X015144Y031909D03*
X014475Y031909D03*
X019635Y035875D03*
X019635Y036544D03*
X007460Y031369D03*
X007460Y030700D03*
X022725Y012434D03*
X023394Y012434D03*
D23*
X028647Y030997D02*
X029532Y030997D01*
X029532Y033197D02*
X028647Y033197D01*
X028647Y035397D02*
X029532Y035397D01*
D24*
X021489Y033197D03*
D25*
X019135Y027705D03*
X019135Y026564D03*
X016760Y026539D03*
X016760Y027680D03*
X024210Y017480D03*
X024210Y016339D03*
X025310Y016314D03*
X025310Y017455D03*
X033160Y028564D03*
X033160Y029705D03*
X034010Y029705D03*
X034010Y028564D03*
X020585Y040714D03*
X020585Y041855D03*
D26*
X028714Y027684D03*
X029856Y027684D03*
X027306Y020234D03*
X026164Y020234D03*
D27*
X025940Y027734D03*
X027279Y027734D03*
D28*
X025370Y022644D03*
X024460Y022644D03*
X023550Y022644D03*
X032575Y030974D03*
X033485Y030974D03*
X034395Y030974D03*
D29*
X033485Y033244D03*
X024460Y020374D03*
D30*
X023683Y015397D03*
X023183Y015397D03*
X022683Y015397D03*
X022183Y015397D03*
X022183Y013271D03*
X022683Y013271D03*
X023183Y013271D03*
X023683Y013271D03*
X028083Y015071D03*
X028583Y015071D03*
X029083Y015071D03*
X029583Y015071D03*
X029583Y017197D03*
X029083Y017197D03*
X028583Y017197D03*
X028083Y017197D03*
X018308Y023571D03*
X017808Y023571D03*
X017308Y023571D03*
X016808Y023571D03*
X016808Y025697D03*
X017308Y025697D03*
X017808Y025697D03*
X018308Y025697D03*
X014583Y032871D03*
X014083Y032871D03*
X013583Y032871D03*
X013083Y032871D03*
X013083Y034997D03*
X013583Y034997D03*
X014083Y034997D03*
X014583Y034997D03*
D31*
X018902Y041134D03*
X019768Y040760D03*
X019768Y041508D03*
X024952Y034458D03*
X024952Y033710D03*
X025818Y034084D03*
X024877Y031233D03*
X024877Y030485D03*
X024877Y029683D03*
X024877Y028935D03*
X025743Y029309D03*
X025743Y030859D03*
X032443Y020108D03*
X032443Y019360D03*
X031577Y019734D03*
X021068Y011484D03*
X020202Y011110D03*
X020202Y011858D03*
X014193Y011860D03*
X014193Y012608D03*
X013327Y012234D03*
D32*
X028811Y029718D03*
X029185Y028851D03*
X029559Y029718D03*
X034035Y023118D03*
X034409Y022251D03*
X033661Y022251D03*
X031059Y012718D03*
X030685Y011851D03*
X030311Y012718D03*
X031285Y009518D03*
X031659Y008651D03*
X030911Y008651D03*
D33*
X034160Y014807D03*
X034160Y017012D03*
X032510Y022757D03*
X032510Y024962D03*
X030735Y024962D03*
X030735Y022757D03*
X023585Y044457D03*
X023585Y046662D03*
D34*
X018160Y041534D03*
X018160Y040734D03*
X017310Y041134D03*
X023685Y032509D03*
X024535Y032109D03*
X024535Y032909D03*
D35*
X024255Y027529D03*
X024255Y026789D03*
X025115Y027159D03*
D36*
X027427Y021941D03*
X029227Y021941D03*
X023835Y047764D03*
X022035Y047764D03*
D37*
X022935Y050344D03*
X028327Y024521D03*
D38*
X025535Y035742D03*
X025535Y037277D03*
X029435Y037267D03*
X029435Y038802D03*
D39*
X009935Y034429D03*
X009435Y034429D03*
X008935Y034429D03*
X008435Y034429D03*
X008435Y032489D03*
X008935Y032489D03*
X009435Y032489D03*
X009935Y032489D03*
X008635Y027354D03*
X008135Y027354D03*
X007635Y027354D03*
X007135Y027354D03*
X007135Y025414D03*
X007635Y025414D03*
X008135Y025414D03*
X008635Y025414D03*
D40*
X014674Y009323D03*
D41*
X014674Y010323D03*
X015674Y010323D03*
X015674Y009323D03*
X016674Y009323D03*
X016674Y010323D03*
X017674Y010323D03*
X017674Y009323D03*
X018674Y009323D03*
X018674Y010323D03*
X019674Y010323D03*
X019674Y009323D03*
X020674Y009323D03*
X020674Y010323D03*
X021674Y010323D03*
X021674Y009323D03*
X022674Y009323D03*
X022674Y010323D03*
X023674Y010323D03*
X023674Y009323D03*
X024674Y009323D03*
X024674Y010323D03*
X025674Y010323D03*
X025674Y009323D03*
X026674Y009323D03*
X026674Y010323D03*
D42*
X009586Y036959D03*
X008484Y036959D03*
X025009Y044259D03*
X025009Y045534D03*
X025009Y046809D03*
X026111Y046809D03*
X026111Y045534D03*
X026111Y044259D03*
X028959Y045009D03*
X030061Y045009D03*
X030061Y046284D03*
X028959Y046284D03*
D43*
X027710Y047025D03*
X027710Y048144D03*
X006885Y044944D03*
X006885Y043825D03*
D44*
X025885Y051158D03*
D45*
X026784Y048623D03*
X024985Y048623D03*
D46*
X024745Y042359D03*
X026725Y042359D03*
X027795Y042359D03*
X029775Y042359D03*
D47*
X020465Y045218D03*
X020465Y045474D03*
X020465Y045730D03*
X020465Y045989D03*
X020465Y046245D03*
X020465Y046501D03*
X018705Y046501D03*
X018705Y046245D03*
X018705Y045989D03*
X018705Y045730D03*
X018705Y045474D03*
X018705Y045218D03*
D48*
X019585Y045859D03*
D49*
X026760Y039836D03*
X026760Y038733D03*
X027685Y039733D03*
X027685Y040836D03*
X029110Y058733D03*
X029110Y059836D03*
X009885Y027386D03*
X009885Y026283D03*
D50*
X011610Y036434D03*
X011610Y038334D03*
X014735Y038334D03*
X014735Y036434D03*
D51*
X011710Y039558D03*
X011710Y040661D03*
X014160Y043683D03*
X014160Y044786D03*
X014285Y045708D03*
X014285Y046811D03*
D52*
X011045Y057184D03*
X009925Y057184D03*
D53*
X007435Y036323D03*
X007435Y035496D03*
D54*
X008187Y039034D03*
X009683Y039034D03*
X008185Y043336D03*
X008185Y044832D03*
X016187Y034009D03*
X017683Y034009D03*
X020362Y036484D03*
X021858Y036484D03*
D55*
X012255Y043784D03*
X012255Y044044D03*
X012255Y044304D03*
X012255Y044554D03*
X012255Y044814D03*
X012255Y045064D03*
X012255Y045324D03*
X012255Y045584D03*
X010015Y045584D03*
X010015Y045324D03*
X010015Y045064D03*
X010015Y044814D03*
X010015Y044554D03*
X010015Y044304D03*
X010015Y044044D03*
X010015Y043784D03*
D56*
X014385Y059208D03*
X021535Y059183D03*
D57*
X021535Y062136D03*
X014385Y062161D03*
D58*
X015284Y055184D03*
X015284Y051934D03*
X010859Y051934D03*
X010859Y055184D03*
D59*
X012748Y054285D03*
X012748Y056084D03*
X012748Y052834D03*
X012748Y051035D03*
X008323Y051035D03*
X008323Y052834D03*
X008323Y054285D03*
X008323Y056084D03*
D60*
X016922Y038761D03*
X016922Y038261D03*
X016922Y037761D03*
X016922Y037261D03*
X019048Y037261D03*
X019048Y037761D03*
X019048Y038261D03*
X019048Y038761D03*
D61*
X014095Y025729D03*
X013835Y025729D03*
X013575Y025729D03*
X013575Y024989D03*
X013835Y024989D03*
X014095Y024989D03*
D62*
X016425Y014529D03*
X016425Y014159D03*
X016425Y013789D03*
X017445Y013789D03*
X017445Y014159D03*
X017445Y014529D03*
D63*
X017185Y028914D03*
X016685Y028914D03*
X016185Y028914D03*
X015685Y028914D03*
X015185Y028914D03*
X014685Y028914D03*
X014185Y028914D03*
X014185Y030954D03*
X014685Y030954D03*
X015185Y030954D03*
X015685Y030954D03*
X016185Y030954D03*
X016685Y030954D03*
X017185Y030954D03*
D64*
X009428Y061809D02*
X009428Y062809D01*
X007460Y062809D02*
X007460Y061809D01*
X029985Y061809D02*
X029985Y062809D01*
X031953Y062809D02*
X031953Y061809D01*
X033922Y061809D02*
X033922Y062809D01*
D65*
X018435Y052084D03*
X030735Y026859D03*
X032510Y026859D03*
X032510Y020859D03*
X030735Y020859D03*
D66*
X031605Y038934D03*
X034065Y038934D03*
D67*
X032114Y059384D03*
X030106Y059384D03*
X009514Y059534D03*
X007506Y059534D03*
D68*
X028160Y010313D03*
X028160Y008306D03*
D69*
X026610Y011884D03*
X031785Y036459D03*
D70*
X033785Y036459D03*
X028610Y011884D03*
D71*
X031860Y055634D03*
D72*
X030360Y056259D03*
D73*
X010548Y041403D03*
X010548Y040616D03*
X008422Y040616D03*
X008422Y041403D03*
D74*
X018435Y050084D03*
D75*
X029568Y049684D03*
X033710Y049684D03*
D76*
X027972Y057524D03*
X027972Y062445D03*
X020098Y062445D03*
X020098Y057524D03*
D77*
X032810Y045309D03*
X032810Y042109D03*
D78*
X028710Y037434D03*
X028710Y037009D03*
X028710Y036584D03*
X028285Y036584D03*
X027860Y036584D03*
X027860Y037009D03*
X028285Y037009D03*
X028285Y037434D03*
X027860Y037434D03*
X022335Y042884D03*
X022335Y043284D03*
X022335Y043684D03*
X021910Y043684D03*
X021910Y043284D03*
X021910Y042884D03*
X021485Y042884D03*
X021485Y043284D03*
X021485Y043684D03*
X032085Y026884D03*
X032085Y026459D03*
X032510Y026459D03*
X032935Y026459D03*
X032935Y026884D03*
X032935Y021259D03*
X032935Y020834D03*
X032510Y021259D03*
X032085Y021259D03*
X032085Y020834D03*
X033610Y017984D03*
X033985Y017984D03*
X034360Y017984D03*
X034360Y017559D03*
X033985Y017559D03*
X033610Y017559D03*
X033610Y014259D03*
X033985Y014259D03*
X034360Y014259D03*
X034360Y013834D03*
X033985Y013834D03*
X033610Y013834D03*
D79*
X007710Y009575D03*
X007710Y048945D03*
X033694Y053669D03*
X033694Y009575D03*
M02*
