G75*
G70*
%OFA0B0*%
%FSLAX24Y24*%
%IPPOS*%
%LPD*%
%AMOC8*
5,1,8,0,0,1.08239X$1,22.5*
%
%ADD10C,0.1000*%
%ADD11C,0.0973*%
%ADD12C,0.2759*%
%ADD13R,0.0674X0.0674*%
%ADD14OC8,0.0674*%
%ADD15C,0.1360*%
%ADD16OC8,0.1360*%
%ADD17C,0.1100*%
%ADD18OC8,0.0946*%
%ADD19R,0.0516X0.0516*%
%ADD20OC8,0.0640*%
%ADD21OC8,0.0600*%
%ADD22C,0.1100*%
%ADD23R,0.0516X0.0516*%
%ADD24C,0.2365*%
D10*
X008399Y009629D02*
X013549Y004479D01*
X014324Y004479D01*
X014174Y006179D02*
X021149Y006179D01*
X018499Y004429D02*
X041674Y004429D01*
X046274Y009029D01*
X046274Y010979D01*
X046249Y011004D01*
X046399Y011179D02*
X046424Y011179D01*
X046399Y011179D02*
X047649Y012429D01*
X047649Y015279D01*
X048049Y015679D01*
X053599Y015679D01*
X054049Y015229D01*
X061849Y015229D01*
X062424Y015804D01*
X062424Y016754D01*
X052549Y017529D02*
X044749Y017529D01*
X044049Y016829D01*
X044049Y016704D01*
X037399Y010879D02*
X036774Y011504D01*
X034674Y011504D01*
X033774Y010604D01*
X033774Y009629D01*
X035474Y009529D02*
X035474Y008029D01*
X033574Y006129D01*
X027549Y006129D01*
X037399Y010504D02*
X037399Y010879D01*
X014174Y006179D02*
X010299Y010054D01*
X010299Y012479D01*
X008399Y014779D02*
X008399Y009629D01*
X008399Y014779D02*
X008999Y015379D01*
X010399Y015379D01*
D11*
X031430Y009897D02*
X031430Y009012D01*
X033630Y009012D02*
X033630Y009897D01*
X035830Y009897D02*
X035830Y009012D01*
D12*
X033630Y017055D03*
D13*
X009756Y023870D03*
D14*
X010756Y023870D03*
X010756Y022870D03*
X009756Y022870D03*
X009756Y021870D03*
X010756Y021870D03*
X010756Y020870D03*
X009756Y020870D03*
X009756Y019870D03*
X010756Y019870D03*
X010756Y018870D03*
X009756Y018870D03*
X009756Y017870D03*
X010756Y017870D03*
X010756Y016870D03*
X009756Y016870D03*
X009756Y015870D03*
X010756Y015870D03*
X010756Y014870D03*
X009756Y014870D03*
X009756Y013870D03*
X010756Y013870D03*
X010756Y012870D03*
X009756Y012870D03*
X009756Y011870D03*
X010756Y011870D03*
D15*
X059648Y017054D03*
X059673Y024204D03*
D16*
X062626Y024204D03*
X062601Y017054D03*
D17*
X062174Y008616D02*
X063174Y008616D01*
X063174Y006647D02*
X062174Y006647D01*
X062174Y004679D02*
X063174Y004679D01*
X063174Y029104D02*
X062174Y029104D01*
X062174Y031072D02*
X063174Y031072D01*
D18*
X036924Y006804D03*
X012349Y011979D03*
D19*
X012349Y009979D03*
X036924Y004804D03*
D20*
X052549Y020154D03*
D21*
X050549Y020154D03*
D22*
X057989Y018491D03*
X062910Y018491D03*
X062910Y010617D03*
X057989Y010617D03*
D23*
X044149Y016254D03*
X043749Y016254D03*
X043349Y016254D03*
X043349Y016679D03*
X043749Y016679D03*
X044149Y016679D03*
X044149Y017104D03*
X043749Y017104D03*
X043349Y017104D03*
X037899Y010729D03*
X037474Y010729D03*
X037049Y010729D03*
X037049Y010304D03*
X037049Y009879D03*
X037474Y009879D03*
X037474Y010304D03*
X037899Y010304D03*
X037899Y009879D03*
X042949Y005979D03*
X042949Y005579D03*
X043349Y005579D03*
X043349Y005979D03*
X027349Y006079D03*
X026924Y006079D03*
X026499Y006079D03*
X026499Y006504D03*
X026924Y006504D03*
X027349Y006504D03*
X027349Y005654D03*
X026924Y005654D03*
X026499Y005654D03*
X022149Y005654D03*
X021724Y005654D03*
X021299Y005654D03*
X021299Y006079D03*
X021299Y006504D03*
X021724Y006504D03*
X021724Y006079D03*
X022149Y006079D03*
X022149Y006504D03*
X018449Y004979D03*
X018449Y004604D03*
X018449Y004229D03*
X018024Y004229D03*
X018024Y004604D03*
X018024Y004979D03*
X014724Y004979D03*
X014724Y004604D03*
X014724Y004229D03*
X014299Y004229D03*
X014299Y004604D03*
X014299Y004979D03*
D24*
X010008Y004850D03*
X010008Y030834D03*
X049378Y030834D03*
M02*
