G75*
G70*
%OFA0B0*%
%FSLAX24Y24*%
%IPPOS*%
%LPD*%
%AMOC8*
5,1,8,0,0,1.08239X$1,22.5*
%
%ADD10C,0.1000*%
%ADD11C,0.0973*%
%ADD12C,0.2759*%
%ADD13R,0.0674X0.0674*%
%ADD14OC8,0.0674*%
%ADD15C,0.1360*%
%ADD16OC8,0.1360*%
%ADD17C,0.1100*%
%ADD18OC8,0.0946*%
%ADD19R,0.0516X0.0516*%
%ADD20OC8,0.0640*%
%ADD21OC8,0.0600*%
%ADD22C,0.1100*%
%ADD23C,0.0050*%
%ADD24R,0.0516X0.0516*%
%ADD25C,0.2365*%
D10*
X008596Y006773D02*
X008596Y011923D01*
X009196Y012523D01*
X010596Y012523D01*
X010496Y009623D02*
X010496Y007198D01*
X014371Y003323D01*
X021346Y003323D01*
X018696Y001573D02*
X041871Y001573D01*
X046471Y006173D01*
X046471Y008123D01*
X046446Y008148D01*
X046596Y008323D02*
X046621Y008323D01*
X046596Y008323D02*
X047846Y009573D01*
X047846Y012423D01*
X048246Y012823D01*
X053796Y012823D01*
X054246Y012373D01*
X062046Y012373D01*
X062621Y012948D01*
X062621Y013898D01*
X052746Y014673D02*
X044946Y014673D01*
X044246Y013973D01*
X044246Y013848D01*
X037596Y008023D02*
X036971Y008648D01*
X034871Y008648D01*
X033971Y007748D01*
X033971Y006773D01*
X035671Y006673D02*
X035671Y005173D01*
X033771Y003273D01*
X027746Y003273D01*
X037596Y007648D02*
X037596Y008023D01*
X014521Y001623D02*
X013746Y001623D01*
X008596Y006773D01*
D11*
X031627Y007041D02*
X031627Y006156D01*
X033827Y006156D02*
X033827Y007041D01*
X036027Y007041D02*
X036027Y006156D01*
D12*
X033827Y014199D03*
D13*
X009953Y021014D03*
D14*
X010953Y021014D03*
X010953Y020014D03*
X009953Y020014D03*
X009953Y019014D03*
X010953Y019014D03*
X010953Y018014D03*
X009953Y018014D03*
X009953Y017014D03*
X010953Y017014D03*
X010953Y016014D03*
X009953Y016014D03*
X009953Y015014D03*
X010953Y015014D03*
X010953Y014014D03*
X009953Y014014D03*
X009953Y013014D03*
X010953Y013014D03*
X010953Y012014D03*
X009953Y012014D03*
X009953Y011014D03*
X010953Y011014D03*
X010953Y010014D03*
X009953Y010014D03*
X009953Y009014D03*
X010953Y009014D03*
D15*
X059845Y014198D03*
X059870Y021348D03*
D16*
X062823Y021348D03*
X062798Y014198D03*
D17*
X062371Y005760D02*
X063371Y005760D01*
X063371Y003792D02*
X062371Y003792D01*
X062371Y001823D02*
X063371Y001823D01*
X063371Y026248D02*
X062371Y026248D01*
X062371Y028217D02*
X063371Y028217D01*
D18*
X037121Y003948D03*
X012546Y009123D03*
D19*
X012546Y007123D03*
X037121Y001948D03*
D20*
X052746Y017298D03*
D21*
X050746Y017298D03*
D22*
X058185Y015635D03*
X063107Y015635D03*
X063107Y007761D03*
X058185Y007761D03*
D23*
X006901Y001327D02*
X006879Y001411D01*
X006871Y001498D01*
X006879Y001585D01*
X006901Y001669D01*
X006938Y001748D01*
X006988Y001819D01*
X007050Y001881D01*
X007121Y001931D01*
X007200Y001968D01*
X007284Y001990D01*
X007371Y001998D01*
X007458Y001990D01*
X007542Y001968D01*
X007621Y001931D01*
X007693Y001881D01*
X007754Y001819D01*
X007804Y001748D01*
X007841Y001669D01*
X007864Y001585D01*
X007871Y001498D01*
X007864Y001411D01*
X007841Y001327D01*
X007804Y001248D01*
X007754Y001177D01*
X007693Y001115D01*
X007621Y001065D01*
X007542Y001028D01*
X007458Y001006D01*
X007371Y000998D01*
X007284Y001006D01*
X007200Y001028D01*
X007121Y001065D01*
X007050Y001115D01*
X006988Y001177D01*
X006938Y001248D01*
X006901Y001327D01*
X006897Y001344D02*
X007846Y001344D01*
X007859Y001393D02*
X006884Y001393D01*
X006876Y001441D02*
X007866Y001441D01*
X007870Y001490D02*
X006872Y001490D01*
X006875Y001538D02*
X007868Y001538D01*
X007863Y001587D02*
X006879Y001587D01*
X006892Y001635D02*
X007850Y001635D01*
X007834Y001684D02*
X006908Y001684D01*
X006931Y001732D02*
X007812Y001732D01*
X007781Y001781D02*
X006961Y001781D01*
X006998Y001829D02*
X007744Y001829D01*
X007696Y001878D02*
X007046Y001878D01*
X007114Y001926D02*
X007628Y001926D01*
X007517Y001975D02*
X007226Y001975D01*
X006916Y001296D02*
X007826Y001296D01*
X007804Y001247D02*
X006939Y001247D01*
X006973Y001199D02*
X007770Y001199D01*
X007728Y001150D02*
X007015Y001150D01*
X007069Y001102D02*
X007673Y001102D01*
X007596Y001053D02*
X007147Y001053D01*
X007295Y001005D02*
X007447Y001005D01*
X063701Y017627D02*
X063679Y017711D01*
X063671Y017798D01*
X063679Y017885D01*
X063701Y017969D01*
X063738Y018048D01*
X063788Y018119D01*
X063850Y018181D01*
X063921Y018231D01*
X064000Y018268D01*
X064084Y018290D01*
X064171Y018298D01*
X064258Y018290D01*
X064342Y018268D01*
X064421Y018231D01*
X064493Y018181D01*
X064554Y018119D01*
X064604Y018048D01*
X064641Y017969D01*
X064664Y017885D01*
X064671Y017798D01*
X064664Y017711D01*
X064641Y017627D01*
X064604Y017548D01*
X064554Y017477D01*
X064493Y017415D01*
X064421Y017365D01*
X064342Y017328D01*
X064258Y017306D01*
X064171Y017298D01*
X064084Y017306D01*
X064000Y017328D01*
X063921Y017365D01*
X063850Y017415D01*
X063788Y017477D01*
X063738Y017548D01*
X063701Y017627D01*
X063698Y017640D02*
X064645Y017640D01*
X064658Y017689D02*
X063685Y017689D01*
X063676Y017737D02*
X064666Y017737D01*
X064670Y017786D02*
X063672Y017786D01*
X063674Y017834D02*
X064668Y017834D01*
X064664Y017883D02*
X063679Y017883D01*
X063691Y017931D02*
X064651Y017931D01*
X064636Y017980D02*
X063706Y017980D01*
X063729Y018028D02*
X064613Y018028D01*
X064584Y018077D02*
X063758Y018077D01*
X063794Y018125D02*
X064548Y018125D01*
X064500Y018174D02*
X063842Y018174D01*
X063909Y018222D02*
X064434Y018222D01*
X064331Y018271D02*
X064011Y018271D01*
X063718Y017592D02*
X064625Y017592D01*
X064601Y017543D02*
X063741Y017543D01*
X063775Y017495D02*
X064567Y017495D01*
X064524Y017446D02*
X063818Y017446D01*
X063874Y017398D02*
X064468Y017398D01*
X064387Y017349D02*
X063955Y017349D01*
X064140Y017301D02*
X064202Y017301D01*
D24*
X044346Y014248D03*
X043946Y014248D03*
X043546Y014248D03*
X043546Y013823D03*
X043946Y013823D03*
X044346Y013823D03*
X044346Y013398D03*
X043946Y013398D03*
X043546Y013398D03*
X038096Y007873D03*
X037671Y007873D03*
X037246Y007873D03*
X037246Y007448D03*
X037246Y007023D03*
X037671Y007023D03*
X037671Y007448D03*
X038096Y007448D03*
X038096Y007023D03*
X043146Y003123D03*
X043146Y002723D03*
X043546Y002723D03*
X043546Y003123D03*
X027546Y003223D03*
X027121Y003223D03*
X026696Y003223D03*
X026696Y003648D03*
X027121Y003648D03*
X027546Y003648D03*
X027546Y002798D03*
X027121Y002798D03*
X026696Y002798D03*
X022346Y002798D03*
X021921Y002798D03*
X021496Y002798D03*
X021496Y003223D03*
X021496Y003648D03*
X021921Y003648D03*
X021921Y003223D03*
X022346Y003223D03*
X022346Y003648D03*
X018646Y002123D03*
X018221Y002123D03*
X018221Y001748D03*
X018221Y001373D03*
X018646Y001373D03*
X018646Y001748D03*
X014921Y001748D03*
X014921Y001373D03*
X014496Y001373D03*
X014496Y001748D03*
X014496Y002123D03*
X014921Y002123D03*
D25*
X010205Y001994D03*
X054299Y001994D03*
X049575Y027978D03*
X010205Y027978D03*
M02*
