G75*
G70*
%OFA0B0*%
%FSLAX24Y24*%
%IPPOS*%
%LPD*%
%AMOC8*
5,1,8,0,0,1.08239X$1,22.5*
%
%ADD10C,0.0050*%
%ADD11C,0.0040*%
%ADD12C,0.0100*%
%ADD13C,0.0060*%
%ADD14C,0.0070*%
%ADD15C,0.0500*%
%ADD16R,0.0250X0.1500*%
%ADD17R,0.0787X0.2165*%
%ADD18C,0.0138*%
D10*
X060084Y035652D02*
X060084Y036085D01*
X060084Y035652D02*
X065084Y035652D01*
X065084Y037778D01*
X065084Y038959D01*
X064415Y038959D01*
X064218Y038959D01*
X064218Y037778D01*
X064415Y037778D01*
X064415Y038959D01*
X065084Y038959D02*
X065084Y041085D01*
X060084Y041085D01*
X060084Y040652D01*
X058722Y041891D02*
X062659Y041891D01*
X064064Y041269D02*
X064364Y041269D01*
X064214Y041269D02*
X064214Y041719D01*
X064364Y041569D01*
X064524Y041719D02*
X064824Y041269D01*
X064524Y041269D02*
X064824Y041719D01*
X065084Y037778D02*
X064415Y037778D01*
X056636Y047796D02*
X056929Y048559D01*
X057258Y049308D01*
X057620Y050040D01*
X058722Y050553D02*
X062659Y050553D01*
X056636Y047797D02*
X056571Y047607D01*
X056514Y047414D01*
X056466Y047219D01*
X056427Y047022D01*
X056397Y046823D01*
X056376Y046623D01*
X056363Y046423D01*
X056360Y046222D01*
X064745Y047797D02*
X064810Y047607D01*
X064867Y047414D01*
X064915Y047219D01*
X064954Y047022D01*
X064984Y046823D01*
X065005Y046623D01*
X065018Y046423D01*
X065021Y046222D01*
X056636Y044647D02*
X056571Y044837D01*
X056514Y045030D01*
X056466Y045225D01*
X056427Y045422D01*
X056397Y045621D01*
X056376Y045821D01*
X056363Y046021D01*
X056360Y046222D01*
X064745Y044647D02*
X064810Y044837D01*
X064867Y045030D01*
X064915Y045225D01*
X064954Y045422D01*
X064984Y045621D01*
X065005Y045821D01*
X065018Y046021D01*
X065021Y046222D01*
X057620Y042403D02*
X057258Y043135D01*
X056929Y043884D01*
X056636Y044647D01*
X064745Y047796D02*
X064452Y048559D01*
X064123Y049308D01*
X063761Y050040D01*
X064745Y044647D02*
X064452Y043884D01*
X064123Y043135D01*
X063761Y042403D01*
X063726Y059016D02*
X064027Y059016D01*
X063726Y059316D01*
X063726Y059391D01*
X063801Y059466D01*
X063952Y059466D01*
X064027Y059391D01*
X064187Y059466D02*
X064487Y059016D01*
X064187Y059016D02*
X064487Y059466D01*
X064490Y059591D02*
X064490Y061756D01*
X061144Y061756D01*
X061144Y059591D01*
X061706Y059591D01*
X061706Y063921D01*
X061144Y063921D01*
X061144Y061756D01*
X060984Y062103D02*
X060909Y062103D01*
X060759Y062103D02*
X060459Y062103D01*
X060459Y062028D02*
X060459Y062178D01*
X060459Y062335D02*
X060759Y062335D01*
X060759Y062560D01*
X060684Y062635D01*
X060459Y062635D01*
X060309Y062779D02*
X060084Y062554D01*
X060084Y062854D01*
X060009Y063014D02*
X059859Y063165D01*
X060009Y063315D01*
X060309Y063315D01*
X060309Y063014D02*
X060009Y063014D01*
X059859Y062779D02*
X060309Y062779D01*
X060084Y062394D02*
X060084Y062094D01*
X060309Y062319D01*
X059859Y062319D01*
X059859Y061478D02*
X059859Y061403D01*
X059934Y061403D01*
X059934Y061478D01*
X059859Y061478D01*
X059859Y061243D02*
X060159Y060943D01*
X060084Y060782D02*
X060159Y060707D01*
X060159Y060557D01*
X060009Y060557D02*
X059934Y060482D01*
X059859Y060557D01*
X059859Y060782D01*
X060084Y060782D01*
X060009Y060782D02*
X060009Y060557D01*
X060084Y060322D02*
X059859Y060322D01*
X059859Y060172D02*
X060084Y060172D01*
X060159Y060247D01*
X060084Y060322D01*
X060084Y060172D02*
X060159Y060097D01*
X060159Y060022D01*
X059859Y060022D01*
X060459Y060647D02*
X060759Y060647D01*
X060909Y060797D01*
X060759Y060947D01*
X060459Y060947D01*
X060534Y061107D02*
X060459Y061182D01*
X060459Y061332D01*
X060534Y061407D01*
X060534Y061107D02*
X060834Y061107D01*
X060909Y061182D01*
X060909Y061332D01*
X060834Y061407D01*
X060684Y060947D02*
X060684Y060647D01*
X060159Y061243D02*
X059859Y060943D01*
X060759Y062028D02*
X060759Y062103D01*
X061706Y063921D02*
X064490Y063921D01*
X064490Y061756D01*
X064490Y059591D02*
X061706Y059591D01*
D11*
X058821Y060012D02*
X058700Y060132D01*
X058460Y060132D01*
X058520Y060260D02*
X058460Y060320D01*
X058460Y060440D01*
X058520Y060500D01*
X058520Y060260D02*
X058760Y060260D01*
X058821Y060320D01*
X058821Y060440D01*
X058760Y060500D01*
X058640Y060132D02*
X058640Y059892D01*
X058700Y059892D02*
X058821Y060012D01*
X058700Y059892D02*
X058460Y059892D01*
X058046Y060357D02*
X057925Y060477D01*
X057685Y060477D01*
X057745Y060605D02*
X057685Y060665D01*
X057685Y060785D01*
X057745Y060845D01*
X057745Y060605D02*
X057985Y060605D01*
X058046Y060665D01*
X058046Y060785D01*
X057985Y060845D01*
X057865Y060477D02*
X057865Y060236D01*
X057925Y060236D02*
X058046Y060357D01*
X057925Y060236D02*
X057685Y060236D01*
X057446Y060357D02*
X057325Y060477D01*
X057085Y060477D01*
X057145Y060605D02*
X057085Y060665D01*
X057085Y060785D01*
X057145Y060845D01*
X057145Y060605D02*
X057385Y060605D01*
X057446Y060665D01*
X057446Y060785D01*
X057385Y060845D01*
X057265Y060477D02*
X057265Y060236D01*
X057325Y060236D02*
X057446Y060357D01*
X057325Y060236D02*
X057085Y060236D01*
X058460Y060997D02*
X058460Y061117D01*
X058460Y061057D02*
X058700Y061057D01*
X058700Y060997D01*
X058821Y061057D02*
X058881Y061057D01*
X058700Y061242D02*
X058700Y061422D01*
X058640Y061483D01*
X058460Y061483D01*
X058460Y061611D02*
X058460Y061791D01*
X058520Y061851D01*
X058640Y061851D01*
X058700Y061791D01*
X058700Y061611D01*
X058340Y061611D01*
X058106Y061401D02*
X058046Y061401D01*
X057925Y061401D02*
X057685Y061401D01*
X057685Y061341D02*
X057685Y061461D01*
X057685Y061587D02*
X057925Y061587D01*
X057925Y061767D01*
X057865Y061827D01*
X057685Y061827D01*
X057325Y061767D02*
X057265Y061827D01*
X057085Y061827D01*
X057085Y061587D02*
X057325Y061587D01*
X057325Y061767D01*
X057325Y061401D02*
X057085Y061401D01*
X057085Y061341D02*
X057085Y061461D01*
X057325Y061401D02*
X057325Y061341D01*
X057446Y061401D02*
X057506Y061401D01*
X057925Y061401D02*
X057925Y061341D01*
X058460Y061242D02*
X058700Y061242D01*
X058700Y061979D02*
X058520Y061979D01*
X058460Y062039D01*
X058460Y062219D01*
X058700Y062219D01*
X058700Y062347D02*
X058700Y062467D01*
X058760Y062407D02*
X058520Y062407D01*
X058460Y062467D01*
X058046Y062444D02*
X057685Y062444D01*
X057685Y062324D02*
X057685Y062564D01*
X057446Y062504D02*
X057446Y062384D01*
X057385Y062324D01*
X057446Y062504D02*
X057385Y062564D01*
X057325Y062564D01*
X057085Y062324D01*
X057085Y062564D01*
X057925Y062324D02*
X058046Y062444D01*
X058460Y062961D02*
X058821Y063201D01*
X058760Y063329D02*
X058821Y063390D01*
X058821Y063510D01*
X058760Y063570D01*
X058700Y063570D01*
X058460Y063329D01*
X058460Y063570D01*
X058460Y063201D02*
X058821Y062961D01*
X020828Y053649D02*
X020828Y053529D01*
X020768Y053469D01*
X020828Y053341D02*
X020467Y053100D01*
X020467Y053341D02*
X020828Y053100D01*
X020527Y053469D02*
X020467Y053529D01*
X020467Y053649D01*
X020527Y053709D01*
X020587Y053709D01*
X020647Y053649D01*
X020647Y053589D01*
X020647Y053649D02*
X020708Y053709D01*
X020768Y053709D01*
X020828Y053649D01*
X019453Y053611D02*
X019453Y053491D01*
X019393Y053431D01*
X019152Y053431D01*
X019092Y053491D01*
X019092Y053611D01*
X019152Y053671D01*
X019393Y053671D02*
X019453Y053611D01*
X019333Y053303D02*
X019092Y053303D01*
X019272Y053303D02*
X019272Y053063D01*
X019333Y053063D02*
X019453Y053183D01*
X019333Y053303D01*
X019333Y053063D02*
X019092Y053063D01*
X019152Y052935D02*
X019393Y052935D01*
X019453Y052875D01*
X019453Y052694D01*
X019092Y052694D01*
X019092Y052875D01*
X019152Y052935D01*
X018853Y052815D02*
X018733Y052935D01*
X018492Y052935D01*
X018492Y053063D02*
X018492Y053243D01*
X018552Y053303D01*
X018793Y053303D01*
X018853Y053243D01*
X018853Y053063D01*
X018492Y053063D01*
X018672Y052935D02*
X018672Y052694D01*
X018733Y052694D02*
X018853Y052815D01*
X018733Y052694D02*
X018492Y052694D01*
X018432Y052566D02*
X018432Y052326D01*
X018552Y052198D02*
X018492Y052138D01*
X018492Y052018D01*
X018552Y051958D01*
X018552Y051830D02*
X018492Y051770D01*
X018492Y051650D01*
X018552Y051590D01*
X018793Y051590D01*
X018853Y051650D01*
X018853Y051770D01*
X018793Y051830D01*
X018793Y051958D02*
X018733Y051958D01*
X018672Y052018D01*
X018672Y052138D01*
X018612Y052198D01*
X018552Y052198D01*
X018793Y052198D02*
X018853Y052138D01*
X018853Y052018D01*
X018793Y051958D01*
X019092Y052018D02*
X019152Y051958D01*
X019092Y052018D02*
X019092Y052138D01*
X019152Y052198D01*
X019212Y052198D01*
X019272Y052138D01*
X019272Y052018D01*
X019333Y051958D01*
X019393Y051958D01*
X019453Y052018D01*
X019453Y052138D01*
X019393Y052198D01*
X019692Y052198D02*
X019692Y052018D01*
X019752Y051958D01*
X019872Y051958D01*
X019933Y052018D01*
X019933Y052198D01*
X020053Y052198D02*
X019692Y052198D01*
X019752Y052326D02*
X019872Y052326D01*
X019933Y052386D01*
X019933Y052566D01*
X020053Y052566D02*
X019692Y052566D01*
X019692Y052386D01*
X019752Y052326D01*
X019812Y051830D02*
X020053Y051830D01*
X020053Y051590D02*
X019812Y051590D01*
X019692Y051710D01*
X019812Y051830D01*
X019453Y051770D02*
X019453Y051650D01*
X019393Y051590D01*
X019152Y051590D01*
X019092Y051650D01*
X019092Y051770D01*
X019152Y051830D01*
X019393Y051830D02*
X019453Y051770D01*
X019032Y052326D02*
X019032Y052566D01*
X018332Y052552D02*
X018332Y051570D01*
X018253Y051590D02*
X018253Y051710D01*
X018253Y051650D02*
X017892Y051650D01*
X017892Y051590D02*
X017892Y051710D01*
X017892Y051835D02*
X018253Y051835D01*
X017892Y052075D01*
X018253Y052075D01*
X018253Y052203D02*
X018253Y052444D01*
X018253Y052323D02*
X017892Y052323D01*
X017653Y052138D02*
X017593Y052198D01*
X017653Y052138D02*
X017653Y052018D01*
X017593Y051958D01*
X017352Y051958D01*
X017292Y052018D01*
X017292Y052138D01*
X017352Y052198D01*
X017472Y052198D01*
X017472Y052078D01*
X017533Y052326D02*
X017533Y052506D01*
X017472Y052566D01*
X017292Y052566D01*
X017352Y052694D02*
X017472Y052694D01*
X017533Y052754D01*
X017533Y052935D01*
X017653Y052935D02*
X017292Y052935D01*
X017292Y052754D01*
X017352Y052694D01*
X017292Y052326D02*
X017533Y052326D01*
X017053Y052138D02*
X016993Y052198D01*
X017053Y052138D02*
X017053Y052018D01*
X016993Y051958D01*
X016752Y051958D01*
X016692Y052018D01*
X016692Y052138D01*
X016752Y052198D01*
X016872Y052198D01*
X016872Y052078D01*
X016933Y052326D02*
X016933Y052506D01*
X016872Y052566D01*
X016692Y052566D01*
X016752Y052694D02*
X016872Y052694D01*
X016933Y052754D01*
X016933Y052935D01*
X017053Y052935D02*
X016692Y052935D01*
X016692Y052754D01*
X016752Y052694D01*
X016692Y052326D02*
X016933Y052326D01*
X016453Y052138D02*
X016453Y052018D01*
X016393Y051958D01*
X016152Y051958D01*
X016092Y052018D01*
X016092Y052138D01*
X016152Y052198D01*
X016272Y052198D01*
X016272Y052078D01*
X016393Y052198D02*
X016453Y052138D01*
X016333Y052326D02*
X016333Y052506D01*
X016272Y052566D01*
X016092Y052566D01*
X016152Y052694D02*
X016272Y052694D01*
X016333Y052754D01*
X016333Y052935D01*
X016453Y052935D02*
X016092Y052935D01*
X016092Y052754D01*
X016152Y052694D01*
X016092Y052326D02*
X016333Y052326D01*
X015853Y052138D02*
X015793Y052198D01*
X015853Y052138D02*
X015853Y052018D01*
X015793Y051958D01*
X015552Y051958D01*
X015492Y052018D01*
X015492Y052138D01*
X015552Y052198D01*
X015672Y052198D01*
X015672Y052078D01*
X015733Y052326D02*
X015733Y052506D01*
X015672Y052566D01*
X015492Y052566D01*
X015552Y052694D02*
X015672Y052694D01*
X015733Y052754D01*
X015733Y052935D01*
X015853Y052935D02*
X015492Y052935D01*
X015492Y052754D01*
X015552Y052694D01*
X015253Y052566D02*
X015012Y052566D01*
X014892Y052446D01*
X015012Y052326D01*
X015253Y052326D01*
X015072Y052198D02*
X015072Y051958D01*
X015012Y051461D02*
X014952Y051461D01*
X014892Y051401D01*
X014892Y051281D01*
X014952Y051221D01*
X015012Y051221D01*
X015072Y051281D01*
X015072Y051401D01*
X015012Y051461D01*
X015072Y051401D02*
X015133Y051461D01*
X015193Y051461D01*
X015253Y051401D01*
X015253Y051281D01*
X015193Y051221D01*
X015133Y051221D01*
X015072Y051281D01*
X014892Y051093D02*
X014892Y050853D01*
X014892Y050973D02*
X015253Y050973D01*
X015133Y050853D01*
X015492Y050853D02*
X015492Y051093D01*
X015492Y050973D02*
X015853Y050973D01*
X015733Y050853D01*
X016092Y050853D02*
X016092Y051093D01*
X016092Y050973D02*
X016453Y050973D01*
X016333Y050853D01*
X016692Y050853D02*
X016692Y051093D01*
X016692Y050973D02*
X017053Y050973D01*
X016933Y050853D01*
X017292Y050853D02*
X017292Y051093D01*
X017292Y050973D02*
X017653Y050973D01*
X017533Y050853D01*
X017892Y050913D02*
X017952Y050853D01*
X018012Y050853D01*
X018072Y050913D01*
X018072Y051033D01*
X018012Y051093D01*
X017952Y051093D01*
X017892Y051033D01*
X017892Y050913D01*
X018072Y050913D02*
X018133Y050853D01*
X018193Y050853D01*
X018253Y050913D01*
X018253Y051033D01*
X018193Y051093D01*
X018133Y051093D01*
X018072Y051033D01*
X018492Y051033D02*
X018552Y051093D01*
X018612Y051093D01*
X018672Y051033D01*
X018672Y050853D01*
X018552Y050853D01*
X018492Y050913D01*
X018492Y051033D01*
X018672Y050853D02*
X018793Y050973D01*
X018853Y051093D01*
X019092Y051033D02*
X019453Y051033D01*
X019272Y050853D01*
X019272Y051093D01*
X019692Y051093D02*
X019692Y050853D01*
X019933Y051093D01*
X019993Y051093D01*
X020053Y051033D01*
X020053Y050913D01*
X019993Y050853D01*
X020467Y050947D02*
X020647Y050947D01*
X020708Y050886D01*
X020708Y050706D01*
X020467Y050706D01*
X020467Y050578D02*
X020647Y050578D01*
X020708Y050518D01*
X020708Y050338D01*
X020467Y050338D01*
X020527Y050210D02*
X020647Y050210D01*
X020708Y050150D01*
X020708Y050030D01*
X020647Y049970D01*
X020527Y049970D01*
X020467Y050030D01*
X020467Y050150D01*
X020527Y050210D01*
X020467Y049842D02*
X020467Y049661D01*
X020527Y049601D01*
X020647Y049601D01*
X020708Y049661D01*
X020708Y049842D01*
X020708Y049106D02*
X020708Y049046D01*
X020587Y048926D01*
X020467Y048926D02*
X020708Y048926D01*
X020647Y048798D02*
X020587Y048798D01*
X020587Y048558D01*
X020527Y048558D02*
X020647Y048558D01*
X020708Y048618D01*
X020708Y048738D01*
X020647Y048798D01*
X020467Y048738D02*
X020467Y048618D01*
X020527Y048558D01*
X020527Y048430D02*
X020708Y048430D01*
X020527Y048430D02*
X020467Y048370D01*
X020527Y048310D01*
X020467Y048250D01*
X020527Y048190D01*
X020708Y048190D01*
X020647Y048061D02*
X020708Y048001D01*
X020708Y047881D01*
X020647Y047821D01*
X020527Y047821D01*
X020467Y047881D01*
X020467Y048001D01*
X020527Y048061D01*
X020647Y048061D01*
X020647Y047693D02*
X020587Y047633D01*
X020587Y047453D01*
X020467Y047453D02*
X020828Y047453D01*
X020828Y047633D01*
X020768Y047693D01*
X020647Y047693D01*
X019953Y047694D02*
X019893Y047634D01*
X019652Y047634D01*
X019592Y047694D01*
X019592Y047814D01*
X019652Y047874D01*
X019893Y047874D01*
X019953Y047814D01*
X019953Y047694D01*
X019953Y047506D02*
X019592Y047506D01*
X019353Y047511D02*
X018992Y047511D01*
X018992Y047752D01*
X018992Y047880D02*
X019353Y048120D01*
X019353Y048248D02*
X019353Y048428D01*
X019293Y048488D01*
X019172Y048488D01*
X019112Y048428D01*
X019112Y048248D01*
X018992Y048248D02*
X019353Y048248D01*
X019592Y048183D02*
X019592Y048062D01*
X019652Y048002D01*
X019772Y048062D02*
X019833Y048002D01*
X019893Y048002D01*
X019953Y048062D01*
X019953Y048183D01*
X019893Y048243D01*
X019772Y048183D02*
X019712Y048243D01*
X019652Y048243D01*
X019592Y048183D01*
X019772Y048183D02*
X019772Y048062D01*
X019592Y048371D02*
X019592Y048491D01*
X019592Y048431D02*
X019953Y048431D01*
X019953Y048371D02*
X019953Y048491D01*
X019833Y048985D02*
X019953Y049105D01*
X019592Y049105D01*
X019592Y048985D02*
X019592Y049225D01*
X019353Y049165D02*
X019293Y049225D01*
X019233Y049225D01*
X019172Y049165D01*
X019112Y049225D01*
X019052Y049225D01*
X018992Y049165D01*
X018992Y049045D01*
X019052Y048985D01*
X019172Y049105D02*
X019172Y049165D01*
X019353Y049165D02*
X019353Y049045D01*
X019293Y048985D01*
X018753Y048985D02*
X018572Y048985D01*
X018633Y049105D01*
X018633Y049165D01*
X018572Y049225D01*
X018452Y049225D01*
X018392Y049165D01*
X018392Y049045D01*
X018452Y048985D01*
X018153Y048985D02*
X018153Y049225D01*
X018093Y049225D01*
X017852Y048985D01*
X017792Y048985D01*
X017553Y049045D02*
X017493Y048985D01*
X017433Y048985D01*
X017372Y049045D01*
X017372Y049225D01*
X017252Y049225D02*
X017493Y049225D01*
X017553Y049165D01*
X017553Y049045D01*
X017252Y048985D02*
X017192Y049045D01*
X017192Y049165D01*
X017252Y049225D01*
X016953Y049105D02*
X016592Y049105D01*
X016592Y048985D02*
X016592Y049225D01*
X016353Y049165D02*
X016293Y049225D01*
X016233Y049225D01*
X016172Y049165D01*
X016112Y049225D01*
X016052Y049225D01*
X015992Y049165D01*
X015992Y049045D01*
X016052Y048985D01*
X015992Y048856D02*
X015992Y048616D01*
X015992Y048736D02*
X016353Y048736D01*
X016233Y048616D01*
X016592Y048616D02*
X016592Y048856D01*
X016592Y048736D02*
X016953Y048736D01*
X016833Y048616D01*
X016833Y048985D02*
X016953Y049105D01*
X016353Y049045D02*
X016353Y049165D01*
X016353Y049045D02*
X016293Y048985D01*
X016172Y049105D02*
X016172Y049165D01*
X015753Y049225D02*
X015753Y048985D01*
X015572Y048985D01*
X015633Y049105D01*
X015633Y049165D01*
X015572Y049225D01*
X015452Y049225D01*
X015392Y049165D01*
X015392Y049045D01*
X015452Y048985D01*
X015392Y048856D02*
X015392Y048616D01*
X015392Y048736D02*
X015753Y048736D01*
X015633Y048616D01*
X015153Y048736D02*
X014792Y048736D01*
X014792Y048616D02*
X014792Y048856D01*
X014792Y048985D02*
X014852Y048985D01*
X015093Y049225D01*
X015153Y049225D01*
X015153Y048985D01*
X015153Y048736D02*
X015033Y048616D01*
X015033Y048122D02*
X015033Y048002D01*
X015093Y048062D02*
X014852Y048062D01*
X014792Y048122D01*
X014792Y047874D02*
X015033Y047874D01*
X015033Y047634D02*
X014852Y047634D01*
X014792Y047694D01*
X014792Y047874D01*
X014493Y048062D02*
X014252Y048062D01*
X014192Y048122D01*
X014433Y048122D02*
X014433Y048002D01*
X014433Y047874D02*
X014192Y047874D01*
X014192Y047694D01*
X014252Y047634D01*
X014433Y047634D01*
X014372Y047506D02*
X014433Y047446D01*
X014433Y047326D01*
X014372Y047266D01*
X014252Y047266D01*
X014192Y047326D01*
X014192Y047446D01*
X014252Y047506D01*
X014372Y047506D01*
X014312Y047138D02*
X014553Y047138D01*
X014553Y046897D02*
X014312Y046897D01*
X014192Y047018D01*
X014312Y047138D01*
X014372Y046769D02*
X014372Y046529D01*
X013953Y046218D02*
X013953Y046098D01*
X013893Y046038D01*
X013833Y046038D01*
X013772Y046098D01*
X013772Y046218D01*
X013712Y046278D01*
X013652Y046278D01*
X013592Y046218D01*
X013592Y046098D01*
X013652Y046038D01*
X013893Y046278D02*
X013953Y046218D01*
X013772Y046406D02*
X013833Y046466D01*
X013833Y046587D01*
X013772Y046647D01*
X013712Y046647D01*
X013712Y046406D01*
X013652Y046406D02*
X013772Y046406D01*
X013652Y046406D02*
X013592Y046466D01*
X013592Y046587D01*
X013592Y046775D02*
X013833Y046775D01*
X013833Y046955D01*
X013772Y047015D01*
X013592Y047015D01*
X013592Y047143D02*
X013592Y047323D01*
X013652Y047383D01*
X013712Y047323D01*
X013712Y047203D01*
X013772Y047143D01*
X013833Y047203D01*
X013833Y047383D01*
X013772Y047511D02*
X013833Y047571D01*
X013833Y047691D01*
X013772Y047752D01*
X013712Y047752D01*
X013712Y047511D01*
X013652Y047511D02*
X013772Y047511D01*
X013652Y047511D02*
X013592Y047571D01*
X013592Y047691D01*
X013772Y047880D02*
X013772Y048120D01*
X013293Y048062D02*
X013052Y048062D01*
X012992Y048122D01*
X013233Y048122D02*
X013233Y048002D01*
X013233Y047874D02*
X012992Y047874D01*
X012992Y047694D01*
X013052Y047634D01*
X013233Y047634D01*
X013172Y047506D02*
X013233Y047446D01*
X013233Y047326D01*
X013172Y047266D01*
X013052Y047266D01*
X012992Y047326D01*
X012992Y047446D01*
X013052Y047506D01*
X013172Y047506D01*
X013112Y047138D02*
X013353Y047138D01*
X013353Y046897D02*
X013112Y046897D01*
X012992Y047018D01*
X013112Y047138D01*
X012753Y047138D02*
X012512Y047138D01*
X012392Y047018D01*
X012512Y046897D01*
X012753Y046897D01*
X012572Y046769D02*
X012572Y046529D01*
X012452Y046649D02*
X012693Y046649D01*
X013052Y046649D02*
X013293Y046649D01*
X013172Y046529D02*
X013172Y046769D01*
X012633Y047326D02*
X012572Y047266D01*
X012452Y047266D01*
X012392Y047326D01*
X012392Y047446D01*
X012452Y047506D01*
X012572Y047506D01*
X012633Y047446D01*
X012633Y047326D01*
X012633Y047634D02*
X012452Y047634D01*
X012392Y047694D01*
X012392Y047874D01*
X012633Y047874D01*
X012633Y048002D02*
X012633Y048122D01*
X012693Y048062D02*
X012452Y048062D01*
X012392Y048122D01*
X012392Y048616D02*
X012633Y048856D01*
X012693Y048856D01*
X012753Y048796D01*
X012753Y048676D01*
X012693Y048616D01*
X012992Y048616D02*
X013233Y048856D01*
X013293Y048856D01*
X013353Y048796D01*
X013353Y048676D01*
X013293Y048616D01*
X013592Y048616D02*
X013833Y048856D01*
X013893Y048856D01*
X013953Y048796D01*
X013953Y048676D01*
X013893Y048616D01*
X014192Y048616D02*
X014192Y048856D01*
X014192Y048736D02*
X014553Y048736D01*
X014433Y048616D01*
X014433Y048985D02*
X014372Y049045D01*
X014372Y049225D01*
X014252Y049225D02*
X014493Y049225D01*
X014553Y049165D01*
X014553Y049045D01*
X014493Y048985D01*
X014433Y048985D01*
X014252Y048985D02*
X014192Y049045D01*
X014192Y049165D01*
X014252Y049225D01*
X013953Y049105D02*
X013592Y049105D01*
X013592Y048985D02*
X013592Y049225D01*
X013353Y049165D02*
X013293Y049225D01*
X013233Y049225D01*
X013172Y049165D01*
X013112Y049225D01*
X013052Y049225D01*
X012992Y049165D01*
X012992Y049045D01*
X013052Y048985D01*
X012992Y048856D02*
X012992Y048616D01*
X012753Y048985D02*
X012572Y048985D01*
X012633Y049105D01*
X012633Y049165D01*
X012572Y049225D01*
X012452Y049225D01*
X012392Y049165D01*
X012392Y049045D01*
X012452Y048985D01*
X012392Y048856D02*
X012392Y048616D01*
X012753Y048985D02*
X012753Y049225D01*
X013172Y049165D02*
X013172Y049105D01*
X013293Y048985D02*
X013353Y049045D01*
X013353Y049165D01*
X013592Y048856D02*
X013592Y048616D01*
X013833Y048985D02*
X013953Y049105D01*
X015392Y048060D02*
X015392Y047940D01*
X015452Y047880D01*
X015693Y047880D01*
X015753Y047940D01*
X015753Y048060D01*
X015693Y048120D01*
X015452Y048120D02*
X015392Y048060D01*
X015452Y047752D02*
X015392Y047691D01*
X015392Y047571D01*
X015452Y047511D01*
X015693Y047511D01*
X015753Y047571D01*
X015753Y047691D01*
X015693Y047752D01*
X015992Y047631D02*
X016353Y047631D01*
X016353Y047511D02*
X016353Y047752D01*
X016293Y047880D02*
X016052Y047880D01*
X015992Y047940D01*
X015992Y048060D01*
X016052Y048120D01*
X016293Y048120D02*
X016353Y048060D01*
X016353Y047940D01*
X016293Y047880D01*
X016592Y048000D02*
X016953Y048000D01*
X016953Y047880D02*
X016953Y048120D01*
X017192Y048060D02*
X017192Y047940D01*
X017252Y047880D01*
X017372Y047940D02*
X017372Y048060D01*
X017312Y048120D01*
X017252Y048120D01*
X017192Y048060D01*
X017252Y048248D02*
X017192Y048308D01*
X017192Y048428D01*
X017252Y048488D01*
X017493Y048488D01*
X017553Y048428D01*
X017553Y048308D01*
X017493Y048248D01*
X017252Y048248D01*
X017493Y048120D02*
X017553Y048060D01*
X017553Y047940D01*
X017493Y047880D01*
X017433Y047880D01*
X017372Y047940D01*
X017192Y047754D02*
X017192Y047634D01*
X017192Y047694D02*
X017553Y047694D01*
X017553Y047634D02*
X017553Y047754D01*
X017792Y047691D02*
X017852Y047752D01*
X017792Y047691D02*
X017792Y047571D01*
X017852Y047511D01*
X018093Y047511D01*
X018153Y047571D01*
X018153Y047691D01*
X018093Y047752D01*
X018153Y047880D02*
X017792Y047880D01*
X017792Y048120D01*
X017792Y048248D02*
X018153Y048248D01*
X017972Y048308D02*
X017792Y048488D01*
X017912Y048248D02*
X018153Y048488D01*
X018392Y048368D02*
X018753Y048368D01*
X018753Y048248D02*
X018753Y048488D01*
X018832Y048596D02*
X018832Y046755D01*
X018753Y046775D02*
X018753Y046955D01*
X018693Y047015D01*
X018572Y047015D01*
X018512Y046955D01*
X018512Y046775D01*
X018392Y046775D02*
X018753Y046775D01*
X018992Y046835D02*
X019052Y046775D01*
X018992Y046835D02*
X018992Y046955D01*
X019052Y047015D01*
X019112Y047015D01*
X019172Y046955D01*
X019172Y046835D01*
X019233Y046775D01*
X019293Y046775D01*
X019353Y046835D01*
X019353Y046955D01*
X019293Y047015D01*
X019293Y046647D02*
X019353Y046587D01*
X019353Y046466D01*
X019293Y046406D01*
X019052Y046406D01*
X018992Y046466D01*
X018992Y046587D01*
X019052Y046647D01*
X018932Y047143D02*
X018932Y047383D01*
X018753Y047383D02*
X018753Y047143D01*
X018392Y047143D01*
X018392Y047383D01*
X018452Y047511D02*
X018392Y047571D01*
X018392Y047691D01*
X018452Y047752D01*
X018512Y047752D01*
X018572Y047691D01*
X018572Y047571D01*
X018633Y047511D01*
X018693Y047511D01*
X018753Y047571D01*
X018753Y047691D01*
X018693Y047752D01*
X018753Y047880D02*
X018392Y047880D01*
X018392Y048120D01*
X018572Y048000D02*
X018572Y047880D01*
X018753Y047880D02*
X018753Y048120D01*
X018992Y048120D02*
X019353Y047880D01*
X019353Y047752D02*
X019353Y047511D01*
X019172Y047511D02*
X019172Y047631D01*
X019592Y047266D02*
X019953Y047266D01*
X019833Y047386D01*
X019953Y047506D01*
X018572Y047263D02*
X018572Y047143D01*
X018392Y047015D02*
X018512Y046895D01*
X018153Y047203D02*
X018093Y047143D01*
X018033Y047143D01*
X017972Y047203D01*
X017972Y047323D01*
X017912Y047383D01*
X017852Y047383D01*
X017792Y047323D01*
X017792Y047203D01*
X017852Y047143D01*
X018153Y047203D02*
X018153Y047323D01*
X018093Y047383D01*
X017553Y047266D02*
X017433Y047386D01*
X017553Y047506D01*
X017192Y047506D01*
X016953Y047511D02*
X016592Y047511D01*
X016592Y047752D01*
X016772Y047631D02*
X016772Y047511D01*
X016712Y047383D02*
X016652Y047383D01*
X016592Y047323D01*
X016592Y047203D01*
X016652Y047143D01*
X016652Y047015D02*
X016953Y047015D01*
X016893Y047143D02*
X016833Y047143D01*
X016772Y047203D01*
X016772Y047323D01*
X016712Y047383D01*
X016893Y047383D02*
X016953Y047323D01*
X016953Y047203D01*
X016893Y047143D01*
X016652Y047015D02*
X016592Y046955D01*
X016592Y046835D01*
X016652Y046775D01*
X016953Y046775D01*
X016532Y046647D02*
X016532Y046406D01*
X016592Y046278D02*
X016953Y046038D01*
X016953Y045910D02*
X016652Y045910D01*
X016592Y045850D01*
X016592Y045730D01*
X016652Y045670D01*
X016953Y045670D01*
X016833Y045542D02*
X016592Y045542D01*
X016772Y045542D02*
X016772Y045301D01*
X016833Y045301D02*
X016953Y045422D01*
X016833Y045542D01*
X016833Y045301D02*
X016592Y045301D01*
X016353Y045301D02*
X016353Y045542D01*
X016353Y045422D02*
X015992Y045422D01*
X015992Y045670D02*
X015992Y045910D01*
X015992Y046038D02*
X016353Y046038D01*
X016233Y046158D01*
X016353Y046278D01*
X015992Y046278D01*
X015992Y046406D02*
X016353Y046406D01*
X016353Y046587D01*
X016293Y046647D01*
X016172Y046647D01*
X016112Y046587D01*
X016112Y046406D01*
X015753Y046406D02*
X015452Y046406D01*
X015392Y046466D01*
X015392Y046587D01*
X015452Y046647D01*
X015753Y046647D01*
X015932Y046775D02*
X015932Y047015D01*
X015992Y047143D02*
X016353Y047143D01*
X015992Y047383D01*
X016353Y047383D01*
X015753Y047383D02*
X015512Y047383D01*
X015392Y047263D01*
X015512Y047143D01*
X015753Y047143D01*
X015332Y047015D02*
X015332Y046775D01*
X015153Y046897D02*
X014912Y046897D01*
X014792Y047018D01*
X014912Y047138D01*
X015153Y047138D01*
X014972Y047266D02*
X014852Y047266D01*
X014792Y047326D01*
X014792Y047446D01*
X014852Y047506D01*
X014972Y047506D01*
X015033Y047446D01*
X015033Y047326D01*
X014972Y047266D01*
X014972Y046769D02*
X014972Y046529D01*
X015392Y046218D02*
X015452Y046278D01*
X015392Y046218D02*
X015392Y046098D01*
X015452Y046038D01*
X015693Y046038D01*
X015753Y046098D01*
X015753Y046218D01*
X015693Y046278D01*
X015753Y045910D02*
X015392Y045910D01*
X015392Y045670D02*
X015753Y045670D01*
X015633Y045790D01*
X015753Y045910D01*
X015992Y045670D02*
X016353Y045670D01*
X016353Y045910D01*
X016172Y045790D02*
X016172Y045670D01*
X016592Y046038D02*
X016953Y046278D01*
X017192Y047266D02*
X017553Y047266D01*
X016953Y047511D02*
X016953Y047752D01*
X018753Y048985D02*
X018753Y049225D01*
X017593Y051221D02*
X017653Y051281D01*
X017653Y051401D01*
X017593Y051461D01*
X017352Y051221D01*
X017292Y051281D01*
X017292Y051401D01*
X017352Y051461D01*
X017593Y051461D01*
X017593Y051221D02*
X017352Y051221D01*
X017053Y051281D02*
X016993Y051221D01*
X017053Y051281D02*
X017053Y051401D01*
X016993Y051461D01*
X016933Y051461D01*
X016692Y051221D01*
X016692Y051461D01*
X016453Y051401D02*
X016272Y051221D01*
X016272Y051461D01*
X016092Y051401D02*
X016453Y051401D01*
X015853Y051461D02*
X015793Y051341D01*
X015672Y051221D01*
X015672Y051401D01*
X015612Y051461D01*
X015552Y051461D01*
X015492Y051401D01*
X015492Y051281D01*
X015552Y051221D01*
X015672Y051221D01*
X014653Y051281D02*
X014653Y051401D01*
X014593Y051461D01*
X014352Y051221D01*
X014292Y051281D01*
X014292Y051401D01*
X014352Y051461D01*
X014593Y051461D01*
X014653Y051281D02*
X014593Y051221D01*
X014352Y051221D01*
X014292Y051093D02*
X014292Y050853D01*
X014533Y051093D01*
X014593Y051093D01*
X014653Y051033D01*
X014653Y050913D01*
X014593Y050853D01*
X014053Y050913D02*
X013993Y050853D01*
X014053Y050913D02*
X014053Y051033D01*
X013993Y051093D01*
X013933Y051093D01*
X013692Y050853D01*
X013692Y051093D01*
X013692Y051221D02*
X013933Y051461D01*
X013993Y051461D01*
X014053Y051401D01*
X014053Y051281D01*
X013993Y051221D01*
X013692Y051221D02*
X013692Y051461D01*
X013453Y051401D02*
X013272Y051221D01*
X013272Y051461D01*
X013092Y051401D02*
X013453Y051401D01*
X013393Y051093D02*
X013453Y051033D01*
X013453Y050913D01*
X013393Y050853D01*
X013393Y051093D02*
X013333Y051093D01*
X013092Y050853D01*
X013092Y051093D01*
X012853Y051033D02*
X012853Y050913D01*
X012793Y050853D01*
X012853Y051033D02*
X012793Y051093D01*
X012733Y051093D01*
X012492Y050853D01*
X012492Y051093D01*
X012552Y051221D02*
X012492Y051281D01*
X012492Y051401D01*
X012552Y051461D01*
X012612Y051461D01*
X012672Y051401D01*
X012672Y051221D01*
X012552Y051221D01*
X012672Y051221D02*
X012793Y051341D01*
X012853Y051461D01*
X012672Y051958D02*
X012672Y052198D01*
X012612Y052326D02*
X012492Y052446D01*
X012612Y052566D01*
X012853Y052566D01*
X012672Y052694D02*
X012552Y052694D01*
X012492Y052754D01*
X012492Y052875D01*
X012552Y052935D01*
X012672Y052935D01*
X012733Y052875D01*
X012733Y052754D01*
X012672Y052694D01*
X012612Y052326D02*
X012853Y052326D01*
X012793Y052078D02*
X012552Y052078D01*
X013152Y052078D02*
X013393Y052078D01*
X013272Y051958D02*
X013272Y052198D01*
X013212Y052326D02*
X013092Y052446D01*
X013212Y052566D01*
X013453Y052566D01*
X013272Y052694D02*
X013152Y052694D01*
X013092Y052754D01*
X013092Y052875D01*
X013152Y052935D01*
X013272Y052935D01*
X013333Y052875D01*
X013333Y052754D01*
X013272Y052694D01*
X013212Y052326D02*
X013453Y052326D01*
X013692Y052386D02*
X013752Y052326D01*
X013872Y052326D01*
X013933Y052386D01*
X013933Y052506D01*
X013872Y052566D01*
X013812Y052566D01*
X013812Y052326D01*
X013812Y052198D02*
X013752Y052198D01*
X013692Y052138D01*
X013692Y052018D01*
X013752Y051958D01*
X013872Y052018D02*
X013872Y052138D01*
X013812Y052198D01*
X013993Y052198D02*
X014053Y052138D01*
X014053Y052018D01*
X013993Y051958D01*
X013933Y051958D01*
X013872Y052018D01*
X013692Y052386D02*
X013692Y052506D01*
X013692Y052694D02*
X013933Y052694D01*
X013933Y052875D01*
X013872Y052935D01*
X013692Y052935D01*
X013692Y053063D02*
X013692Y053243D01*
X013752Y053303D01*
X013812Y053243D01*
X013812Y053123D01*
X013872Y053063D01*
X013933Y053123D01*
X013933Y053303D01*
X013872Y053431D02*
X013933Y053491D01*
X013933Y053611D01*
X013872Y053671D01*
X013812Y053671D01*
X013812Y053431D01*
X013752Y053431D02*
X013872Y053431D01*
X013752Y053431D02*
X013692Y053491D01*
X013692Y053611D01*
X013872Y053799D02*
X013872Y054040D01*
X013752Y053919D02*
X013993Y053919D01*
X014292Y053551D02*
X014352Y053491D01*
X014593Y053491D01*
X014533Y053431D02*
X014533Y053551D01*
X014533Y053303D02*
X014292Y053303D01*
X014292Y053123D01*
X014352Y053063D01*
X014533Y053063D01*
X014472Y052935D02*
X014533Y052875D01*
X014533Y052754D01*
X014472Y052694D01*
X014352Y052694D01*
X014292Y052754D01*
X014292Y052875D01*
X014352Y052935D01*
X014472Y052935D01*
X014412Y052566D02*
X014653Y052566D01*
X014653Y052326D02*
X014412Y052326D01*
X014292Y052446D01*
X014412Y052566D01*
X014472Y052198D02*
X014472Y051958D01*
X014952Y052694D02*
X014892Y052754D01*
X014892Y052875D01*
X014952Y052935D01*
X015072Y052935D01*
X015133Y052875D01*
X015133Y052754D01*
X015072Y052694D01*
X014952Y052694D01*
X014952Y053063D02*
X014892Y053123D01*
X014892Y053303D01*
X015133Y053303D01*
X015133Y053431D02*
X015133Y053551D01*
X015193Y053491D02*
X014952Y053491D01*
X014892Y053551D01*
X014952Y053063D02*
X015133Y053063D01*
X015492Y052326D02*
X015733Y052326D01*
X013333Y053063D02*
X013152Y053063D01*
X013092Y053123D01*
X013092Y053303D01*
X013333Y053303D01*
X013333Y053431D02*
X013333Y053551D01*
X013393Y053491D02*
X013152Y053491D01*
X013092Y053551D01*
X012793Y053491D02*
X012552Y053491D01*
X012492Y053551D01*
X012733Y053551D02*
X012733Y053431D01*
X012733Y053303D02*
X012492Y053303D01*
X012492Y053123D01*
X012552Y053063D01*
X012733Y053063D01*
X018492Y053491D02*
X018492Y053611D01*
X018552Y053671D01*
X018492Y053491D02*
X018552Y053431D01*
X018793Y053431D01*
X018853Y053491D01*
X018853Y053611D01*
X018793Y053671D01*
X020467Y052425D02*
X020708Y052425D01*
X020708Y052545D02*
X020708Y052605D01*
X020708Y052545D02*
X020587Y052425D01*
X020527Y052297D02*
X020647Y052297D01*
X020708Y052237D01*
X020708Y052117D01*
X020647Y052057D01*
X020527Y052057D01*
X020467Y052117D01*
X020467Y052237D01*
X020527Y052297D01*
X020467Y051931D02*
X020527Y051871D01*
X020768Y051871D01*
X020708Y051811D02*
X020708Y051931D01*
X020708Y051683D02*
X020708Y051503D01*
X020647Y051443D01*
X020527Y051443D01*
X020467Y051503D01*
X020467Y051683D01*
X020587Y051315D02*
X020587Y051075D01*
X020527Y051075D02*
X020647Y051075D01*
X020708Y051135D01*
X020708Y051255D01*
X020647Y051315D01*
X020587Y051315D01*
X020467Y051255D02*
X020467Y051135D01*
X020527Y051075D01*
X055710Y039179D02*
X055710Y039059D01*
X055770Y038999D01*
X055890Y039119D02*
X055890Y039179D01*
X055830Y039239D01*
X055770Y039239D01*
X055710Y039179D01*
X055890Y039179D02*
X055950Y039239D01*
X056010Y039239D01*
X056071Y039179D01*
X056071Y039059D01*
X056010Y038999D01*
X056310Y038999D02*
X056550Y039239D01*
X056610Y039239D01*
X056671Y039179D01*
X056671Y039059D01*
X056610Y038999D01*
X056310Y038999D02*
X056310Y039239D01*
X056910Y039239D02*
X056910Y038999D01*
X056910Y039119D02*
X057271Y039119D01*
X057150Y038999D01*
X057090Y038502D02*
X057090Y038262D01*
X057090Y038134D02*
X056910Y038134D01*
X057090Y038134D02*
X057150Y038074D01*
X057150Y037894D01*
X056910Y037894D01*
X056910Y037768D02*
X056910Y037648D01*
X056910Y037708D02*
X057150Y037708D01*
X057150Y037648D01*
X057271Y037708D02*
X057331Y037708D01*
X057685Y037732D02*
X057925Y037732D01*
X057925Y037672D01*
X058046Y037732D02*
X058106Y037732D01*
X057925Y037917D02*
X057925Y038097D01*
X057865Y038158D01*
X057685Y038158D01*
X057685Y038286D02*
X057685Y038466D01*
X057745Y038526D01*
X057865Y038526D01*
X057925Y038466D01*
X057925Y038286D01*
X057565Y038286D01*
X057210Y038382D02*
X056970Y038382D01*
X056490Y038262D02*
X056490Y038502D01*
X056490Y038134D02*
X056310Y038134D01*
X056490Y038134D02*
X056550Y038074D01*
X056550Y037894D01*
X056310Y037894D01*
X056310Y037768D02*
X056310Y037648D01*
X056310Y037708D02*
X056550Y037708D01*
X056550Y037648D01*
X056671Y037708D02*
X056731Y037708D01*
X056610Y037152D02*
X056671Y037092D01*
X056671Y036971D01*
X056610Y036911D01*
X056370Y036911D01*
X056310Y036971D01*
X056310Y037092D01*
X056370Y037152D01*
X056071Y037213D02*
X056071Y036973D01*
X055710Y036973D01*
X055710Y037213D01*
X055770Y037341D02*
X055830Y037401D01*
X055830Y037581D01*
X055890Y037581D02*
X055710Y037581D01*
X055710Y037401D01*
X055770Y037341D01*
X055950Y037401D02*
X055950Y037521D01*
X055890Y037581D01*
X055830Y037709D02*
X055950Y037830D01*
X055950Y037890D01*
X055950Y038016D02*
X055950Y038136D01*
X056010Y038076D02*
X055770Y038076D01*
X055710Y038136D01*
X055710Y038262D02*
X056071Y038262D01*
X055950Y038322D02*
X055890Y038262D01*
X055950Y038322D02*
X055950Y038442D01*
X055890Y038502D01*
X055710Y038502D01*
X055710Y037709D02*
X055950Y037709D01*
X055890Y037093D02*
X055890Y036973D01*
X056310Y036723D02*
X056370Y036783D01*
X056610Y036783D01*
X056671Y036723D01*
X056671Y036543D01*
X056310Y036543D01*
X056310Y036723D01*
X056910Y036723D02*
X056970Y036783D01*
X057210Y036783D01*
X057271Y036723D01*
X057271Y036543D01*
X056910Y036543D01*
X056910Y036723D01*
X056970Y036911D02*
X056910Y036971D01*
X056910Y037092D01*
X056970Y037152D01*
X057210Y037152D02*
X057271Y037092D01*
X057271Y036971D01*
X057210Y036911D01*
X056970Y036911D01*
X057685Y036995D02*
X057685Y037115D01*
X057745Y037175D01*
X057685Y036995D02*
X057745Y036935D01*
X057985Y036935D01*
X058046Y036995D01*
X058046Y037115D01*
X057985Y037175D01*
X057985Y036807D02*
X058046Y036747D01*
X058046Y036567D01*
X057685Y036567D01*
X057685Y036747D01*
X057745Y036807D01*
X057985Y036807D01*
X057685Y037672D02*
X057685Y037792D01*
X057685Y037917D02*
X057925Y037917D01*
X057925Y038654D02*
X057745Y038654D01*
X057685Y038714D01*
X057685Y038894D01*
X057925Y038894D01*
X057925Y039022D02*
X057925Y039142D01*
X057985Y039082D02*
X057745Y039082D01*
X057685Y039142D01*
X057685Y039636D02*
X058046Y039876D01*
X057925Y040004D02*
X058046Y040125D01*
X057685Y040125D01*
X057685Y040245D02*
X057685Y040004D01*
X057685Y039876D02*
X058046Y039636D01*
D12*
X057040Y039847D02*
X057042Y039860D01*
X057047Y039873D01*
X057056Y039884D01*
X057067Y039891D01*
X057080Y039896D01*
X057093Y039897D01*
X057107Y039894D01*
X057119Y039888D01*
X057129Y039879D01*
X057136Y039867D01*
X057140Y039854D01*
X057140Y039840D01*
X057136Y039827D01*
X057129Y039815D01*
X057119Y039806D01*
X057107Y039800D01*
X057093Y039797D01*
X057080Y039798D01*
X057067Y039803D01*
X057056Y039810D01*
X057047Y039821D01*
X057042Y039834D01*
X057040Y039847D01*
X056440Y039847D02*
X056442Y039860D01*
X056447Y039873D01*
X056456Y039884D01*
X056467Y039891D01*
X056480Y039896D01*
X056493Y039897D01*
X056507Y039894D01*
X056519Y039888D01*
X056529Y039879D01*
X056536Y039867D01*
X056540Y039854D01*
X056540Y039840D01*
X056536Y039827D01*
X056529Y039815D01*
X056519Y039806D01*
X056507Y039800D01*
X056493Y039797D01*
X056480Y039798D01*
X056467Y039803D01*
X056456Y039810D01*
X056447Y039821D01*
X056442Y039834D01*
X056440Y039847D01*
X055840Y039847D02*
X055842Y039860D01*
X055847Y039873D01*
X055856Y039884D01*
X055867Y039891D01*
X055880Y039896D01*
X055893Y039897D01*
X055907Y039894D01*
X055919Y039888D01*
X055929Y039879D01*
X055936Y039867D01*
X055940Y039854D01*
X055940Y039840D01*
X055936Y039827D01*
X055929Y039815D01*
X055919Y039806D01*
X055907Y039800D01*
X055893Y039797D01*
X055880Y039798D01*
X055867Y039803D01*
X055856Y039810D01*
X055847Y039821D01*
X055842Y039834D01*
X055840Y039847D01*
X058734Y044549D02*
X058734Y047895D01*
X062671Y047895D02*
X062671Y044549D01*
X057815Y063172D02*
X057817Y063185D01*
X057822Y063198D01*
X057831Y063209D01*
X057842Y063216D01*
X057855Y063221D01*
X057868Y063222D01*
X057882Y063219D01*
X057894Y063213D01*
X057904Y063204D01*
X057911Y063192D01*
X057915Y063179D01*
X057915Y063165D01*
X057911Y063152D01*
X057904Y063140D01*
X057894Y063131D01*
X057882Y063125D01*
X057868Y063122D01*
X057855Y063123D01*
X057842Y063128D01*
X057831Y063135D01*
X057822Y063146D01*
X057817Y063159D01*
X057815Y063172D01*
X057215Y063172D02*
X057217Y063185D01*
X057222Y063198D01*
X057231Y063209D01*
X057242Y063216D01*
X057255Y063221D01*
X057268Y063222D01*
X057282Y063219D01*
X057294Y063213D01*
X057304Y063204D01*
X057311Y063192D01*
X057315Y063179D01*
X057315Y063165D01*
X057311Y063152D01*
X057304Y063140D01*
X057294Y063131D01*
X057282Y063125D01*
X057268Y063122D01*
X057255Y063123D01*
X057242Y063128D01*
X057231Y063135D01*
X057222Y063146D01*
X057217Y063159D01*
X057215Y063172D01*
X019722Y050333D02*
X019724Y050346D01*
X019729Y050359D01*
X019738Y050370D01*
X019749Y050377D01*
X019762Y050382D01*
X019775Y050383D01*
X019789Y050380D01*
X019801Y050374D01*
X019811Y050365D01*
X019818Y050353D01*
X019822Y050340D01*
X019822Y050326D01*
X019818Y050313D01*
X019811Y050301D01*
X019801Y050292D01*
X019789Y050286D01*
X019775Y050283D01*
X019762Y050284D01*
X019749Y050289D01*
X019738Y050296D01*
X019729Y050307D01*
X019724Y050320D01*
X019722Y050333D01*
X019722Y049833D02*
X019724Y049846D01*
X019729Y049859D01*
X019738Y049870D01*
X019749Y049877D01*
X019762Y049882D01*
X019775Y049883D01*
X019789Y049880D01*
X019801Y049874D01*
X019811Y049865D01*
X019818Y049853D01*
X019822Y049840D01*
X019822Y049826D01*
X019818Y049813D01*
X019811Y049801D01*
X019801Y049792D01*
X019789Y049786D01*
X019775Y049783D01*
X019762Y049784D01*
X019749Y049789D01*
X019738Y049796D01*
X019729Y049807D01*
X019724Y049820D01*
X019722Y049833D01*
X019122Y049833D02*
X019124Y049846D01*
X019129Y049859D01*
X019138Y049870D01*
X019149Y049877D01*
X019162Y049882D01*
X019175Y049883D01*
X019189Y049880D01*
X019201Y049874D01*
X019211Y049865D01*
X019218Y049853D01*
X019222Y049840D01*
X019222Y049826D01*
X019218Y049813D01*
X019211Y049801D01*
X019201Y049792D01*
X019189Y049786D01*
X019175Y049783D01*
X019162Y049784D01*
X019149Y049789D01*
X019138Y049796D01*
X019129Y049807D01*
X019124Y049820D01*
X019122Y049833D01*
X019122Y050333D02*
X019124Y050346D01*
X019129Y050359D01*
X019138Y050370D01*
X019149Y050377D01*
X019162Y050382D01*
X019175Y050383D01*
X019189Y050380D01*
X019201Y050374D01*
X019211Y050365D01*
X019218Y050353D01*
X019222Y050340D01*
X019222Y050326D01*
X019218Y050313D01*
X019211Y050301D01*
X019201Y050292D01*
X019189Y050286D01*
X019175Y050283D01*
X019162Y050284D01*
X019149Y050289D01*
X019138Y050296D01*
X019129Y050307D01*
X019124Y050320D01*
X019122Y050333D01*
X018522Y050333D02*
X018524Y050346D01*
X018529Y050359D01*
X018538Y050370D01*
X018549Y050377D01*
X018562Y050382D01*
X018575Y050383D01*
X018589Y050380D01*
X018601Y050374D01*
X018611Y050365D01*
X018618Y050353D01*
X018622Y050340D01*
X018622Y050326D01*
X018618Y050313D01*
X018611Y050301D01*
X018601Y050292D01*
X018589Y050286D01*
X018575Y050283D01*
X018562Y050284D01*
X018549Y050289D01*
X018538Y050296D01*
X018529Y050307D01*
X018524Y050320D01*
X018522Y050333D01*
X018522Y049833D02*
X018524Y049846D01*
X018529Y049859D01*
X018538Y049870D01*
X018549Y049877D01*
X018562Y049882D01*
X018575Y049883D01*
X018589Y049880D01*
X018601Y049874D01*
X018611Y049865D01*
X018618Y049853D01*
X018622Y049840D01*
X018622Y049826D01*
X018618Y049813D01*
X018611Y049801D01*
X018601Y049792D01*
X018589Y049786D01*
X018575Y049783D01*
X018562Y049784D01*
X018549Y049789D01*
X018538Y049796D01*
X018529Y049807D01*
X018524Y049820D01*
X018522Y049833D01*
X017922Y049833D02*
X017924Y049846D01*
X017929Y049859D01*
X017938Y049870D01*
X017949Y049877D01*
X017962Y049882D01*
X017975Y049883D01*
X017989Y049880D01*
X018001Y049874D01*
X018011Y049865D01*
X018018Y049853D01*
X018022Y049840D01*
X018022Y049826D01*
X018018Y049813D01*
X018011Y049801D01*
X018001Y049792D01*
X017989Y049786D01*
X017975Y049783D01*
X017962Y049784D01*
X017949Y049789D01*
X017938Y049796D01*
X017929Y049807D01*
X017924Y049820D01*
X017922Y049833D01*
X017922Y050333D02*
X017924Y050346D01*
X017929Y050359D01*
X017938Y050370D01*
X017949Y050377D01*
X017962Y050382D01*
X017975Y050383D01*
X017989Y050380D01*
X018001Y050374D01*
X018011Y050365D01*
X018018Y050353D01*
X018022Y050340D01*
X018022Y050326D01*
X018018Y050313D01*
X018011Y050301D01*
X018001Y050292D01*
X017989Y050286D01*
X017975Y050283D01*
X017962Y050284D01*
X017949Y050289D01*
X017938Y050296D01*
X017929Y050307D01*
X017924Y050320D01*
X017922Y050333D01*
X017322Y050333D02*
X017324Y050346D01*
X017329Y050359D01*
X017338Y050370D01*
X017349Y050377D01*
X017362Y050382D01*
X017375Y050383D01*
X017389Y050380D01*
X017401Y050374D01*
X017411Y050365D01*
X017418Y050353D01*
X017422Y050340D01*
X017422Y050326D01*
X017418Y050313D01*
X017411Y050301D01*
X017401Y050292D01*
X017389Y050286D01*
X017375Y050283D01*
X017362Y050284D01*
X017349Y050289D01*
X017338Y050296D01*
X017329Y050307D01*
X017324Y050320D01*
X017322Y050333D01*
X017322Y049833D02*
X017324Y049846D01*
X017329Y049859D01*
X017338Y049870D01*
X017349Y049877D01*
X017362Y049882D01*
X017375Y049883D01*
X017389Y049880D01*
X017401Y049874D01*
X017411Y049865D01*
X017418Y049853D01*
X017422Y049840D01*
X017422Y049826D01*
X017418Y049813D01*
X017411Y049801D01*
X017401Y049792D01*
X017389Y049786D01*
X017375Y049783D01*
X017362Y049784D01*
X017349Y049789D01*
X017338Y049796D01*
X017329Y049807D01*
X017324Y049820D01*
X017322Y049833D01*
X016722Y049833D02*
X016724Y049846D01*
X016729Y049859D01*
X016738Y049870D01*
X016749Y049877D01*
X016762Y049882D01*
X016775Y049883D01*
X016789Y049880D01*
X016801Y049874D01*
X016811Y049865D01*
X016818Y049853D01*
X016822Y049840D01*
X016822Y049826D01*
X016818Y049813D01*
X016811Y049801D01*
X016801Y049792D01*
X016789Y049786D01*
X016775Y049783D01*
X016762Y049784D01*
X016749Y049789D01*
X016738Y049796D01*
X016729Y049807D01*
X016724Y049820D01*
X016722Y049833D01*
X016722Y050333D02*
X016724Y050346D01*
X016729Y050359D01*
X016738Y050370D01*
X016749Y050377D01*
X016762Y050382D01*
X016775Y050383D01*
X016789Y050380D01*
X016801Y050374D01*
X016811Y050365D01*
X016818Y050353D01*
X016822Y050340D01*
X016822Y050326D01*
X016818Y050313D01*
X016811Y050301D01*
X016801Y050292D01*
X016789Y050286D01*
X016775Y050283D01*
X016762Y050284D01*
X016749Y050289D01*
X016738Y050296D01*
X016729Y050307D01*
X016724Y050320D01*
X016722Y050333D01*
X016122Y050333D02*
X016124Y050346D01*
X016129Y050359D01*
X016138Y050370D01*
X016149Y050377D01*
X016162Y050382D01*
X016175Y050383D01*
X016189Y050380D01*
X016201Y050374D01*
X016211Y050365D01*
X016218Y050353D01*
X016222Y050340D01*
X016222Y050326D01*
X016218Y050313D01*
X016211Y050301D01*
X016201Y050292D01*
X016189Y050286D01*
X016175Y050283D01*
X016162Y050284D01*
X016149Y050289D01*
X016138Y050296D01*
X016129Y050307D01*
X016124Y050320D01*
X016122Y050333D01*
X016122Y049833D02*
X016124Y049846D01*
X016129Y049859D01*
X016138Y049870D01*
X016149Y049877D01*
X016162Y049882D01*
X016175Y049883D01*
X016189Y049880D01*
X016201Y049874D01*
X016211Y049865D01*
X016218Y049853D01*
X016222Y049840D01*
X016222Y049826D01*
X016218Y049813D01*
X016211Y049801D01*
X016201Y049792D01*
X016189Y049786D01*
X016175Y049783D01*
X016162Y049784D01*
X016149Y049789D01*
X016138Y049796D01*
X016129Y049807D01*
X016124Y049820D01*
X016122Y049833D01*
X015522Y049833D02*
X015524Y049846D01*
X015529Y049859D01*
X015538Y049870D01*
X015549Y049877D01*
X015562Y049882D01*
X015575Y049883D01*
X015589Y049880D01*
X015601Y049874D01*
X015611Y049865D01*
X015618Y049853D01*
X015622Y049840D01*
X015622Y049826D01*
X015618Y049813D01*
X015611Y049801D01*
X015601Y049792D01*
X015589Y049786D01*
X015575Y049783D01*
X015562Y049784D01*
X015549Y049789D01*
X015538Y049796D01*
X015529Y049807D01*
X015524Y049820D01*
X015522Y049833D01*
X015522Y050333D02*
X015524Y050346D01*
X015529Y050359D01*
X015538Y050370D01*
X015549Y050377D01*
X015562Y050382D01*
X015575Y050383D01*
X015589Y050380D01*
X015601Y050374D01*
X015611Y050365D01*
X015618Y050353D01*
X015622Y050340D01*
X015622Y050326D01*
X015618Y050313D01*
X015611Y050301D01*
X015601Y050292D01*
X015589Y050286D01*
X015575Y050283D01*
X015562Y050284D01*
X015549Y050289D01*
X015538Y050296D01*
X015529Y050307D01*
X015524Y050320D01*
X015522Y050333D01*
X014922Y050333D02*
X014924Y050346D01*
X014929Y050359D01*
X014938Y050370D01*
X014949Y050377D01*
X014962Y050382D01*
X014975Y050383D01*
X014989Y050380D01*
X015001Y050374D01*
X015011Y050365D01*
X015018Y050353D01*
X015022Y050340D01*
X015022Y050326D01*
X015018Y050313D01*
X015011Y050301D01*
X015001Y050292D01*
X014989Y050286D01*
X014975Y050283D01*
X014962Y050284D01*
X014949Y050289D01*
X014938Y050296D01*
X014929Y050307D01*
X014924Y050320D01*
X014922Y050333D01*
X014922Y049833D02*
X014924Y049846D01*
X014929Y049859D01*
X014938Y049870D01*
X014949Y049877D01*
X014962Y049882D01*
X014975Y049883D01*
X014989Y049880D01*
X015001Y049874D01*
X015011Y049865D01*
X015018Y049853D01*
X015022Y049840D01*
X015022Y049826D01*
X015018Y049813D01*
X015011Y049801D01*
X015001Y049792D01*
X014989Y049786D01*
X014975Y049783D01*
X014962Y049784D01*
X014949Y049789D01*
X014938Y049796D01*
X014929Y049807D01*
X014924Y049820D01*
X014922Y049833D01*
X014322Y049833D02*
X014324Y049846D01*
X014329Y049859D01*
X014338Y049870D01*
X014349Y049877D01*
X014362Y049882D01*
X014375Y049883D01*
X014389Y049880D01*
X014401Y049874D01*
X014411Y049865D01*
X014418Y049853D01*
X014422Y049840D01*
X014422Y049826D01*
X014418Y049813D01*
X014411Y049801D01*
X014401Y049792D01*
X014389Y049786D01*
X014375Y049783D01*
X014362Y049784D01*
X014349Y049789D01*
X014338Y049796D01*
X014329Y049807D01*
X014324Y049820D01*
X014322Y049833D01*
X014322Y050333D02*
X014324Y050346D01*
X014329Y050359D01*
X014338Y050370D01*
X014349Y050377D01*
X014362Y050382D01*
X014375Y050383D01*
X014389Y050380D01*
X014401Y050374D01*
X014411Y050365D01*
X014418Y050353D01*
X014422Y050340D01*
X014422Y050326D01*
X014418Y050313D01*
X014411Y050301D01*
X014401Y050292D01*
X014389Y050286D01*
X014375Y050283D01*
X014362Y050284D01*
X014349Y050289D01*
X014338Y050296D01*
X014329Y050307D01*
X014324Y050320D01*
X014322Y050333D01*
X013722Y050333D02*
X013724Y050346D01*
X013729Y050359D01*
X013738Y050370D01*
X013749Y050377D01*
X013762Y050382D01*
X013775Y050383D01*
X013789Y050380D01*
X013801Y050374D01*
X013811Y050365D01*
X013818Y050353D01*
X013822Y050340D01*
X013822Y050326D01*
X013818Y050313D01*
X013811Y050301D01*
X013801Y050292D01*
X013789Y050286D01*
X013775Y050283D01*
X013762Y050284D01*
X013749Y050289D01*
X013738Y050296D01*
X013729Y050307D01*
X013724Y050320D01*
X013722Y050333D01*
X013722Y049833D02*
X013724Y049846D01*
X013729Y049859D01*
X013738Y049870D01*
X013749Y049877D01*
X013762Y049882D01*
X013775Y049883D01*
X013789Y049880D01*
X013801Y049874D01*
X013811Y049865D01*
X013818Y049853D01*
X013822Y049840D01*
X013822Y049826D01*
X013818Y049813D01*
X013811Y049801D01*
X013801Y049792D01*
X013789Y049786D01*
X013775Y049783D01*
X013762Y049784D01*
X013749Y049789D01*
X013738Y049796D01*
X013729Y049807D01*
X013724Y049820D01*
X013722Y049833D01*
X013122Y049833D02*
X013124Y049846D01*
X013129Y049859D01*
X013138Y049870D01*
X013149Y049877D01*
X013162Y049882D01*
X013175Y049883D01*
X013189Y049880D01*
X013201Y049874D01*
X013211Y049865D01*
X013218Y049853D01*
X013222Y049840D01*
X013222Y049826D01*
X013218Y049813D01*
X013211Y049801D01*
X013201Y049792D01*
X013189Y049786D01*
X013175Y049783D01*
X013162Y049784D01*
X013149Y049789D01*
X013138Y049796D01*
X013129Y049807D01*
X013124Y049820D01*
X013122Y049833D01*
X013122Y050333D02*
X013124Y050346D01*
X013129Y050359D01*
X013138Y050370D01*
X013149Y050377D01*
X013162Y050382D01*
X013175Y050383D01*
X013189Y050380D01*
X013201Y050374D01*
X013211Y050365D01*
X013218Y050353D01*
X013222Y050340D01*
X013222Y050326D01*
X013218Y050313D01*
X013211Y050301D01*
X013201Y050292D01*
X013189Y050286D01*
X013175Y050283D01*
X013162Y050284D01*
X013149Y050289D01*
X013138Y050296D01*
X013129Y050307D01*
X013124Y050320D01*
X013122Y050333D01*
X012522Y050333D02*
X012524Y050346D01*
X012529Y050359D01*
X012538Y050370D01*
X012549Y050377D01*
X012562Y050382D01*
X012575Y050383D01*
X012589Y050380D01*
X012601Y050374D01*
X012611Y050365D01*
X012618Y050353D01*
X012622Y050340D01*
X012622Y050326D01*
X012618Y050313D01*
X012611Y050301D01*
X012601Y050292D01*
X012589Y050286D01*
X012575Y050283D01*
X012562Y050284D01*
X012549Y050289D01*
X012538Y050296D01*
X012529Y050307D01*
X012524Y050320D01*
X012522Y050333D01*
X012522Y049833D02*
X012524Y049846D01*
X012529Y049859D01*
X012538Y049870D01*
X012549Y049877D01*
X012562Y049882D01*
X012575Y049883D01*
X012589Y049880D01*
X012601Y049874D01*
X012611Y049865D01*
X012618Y049853D01*
X012622Y049840D01*
X012622Y049826D01*
X012618Y049813D01*
X012611Y049801D01*
X012601Y049792D01*
X012589Y049786D01*
X012575Y049783D01*
X012562Y049784D01*
X012549Y049789D01*
X012538Y049796D01*
X012529Y049807D01*
X012524Y049820D01*
X012522Y049833D01*
D13*
X012272Y049533D02*
X020072Y049533D01*
X020072Y050633D01*
X012272Y050633D01*
X012272Y049533D01*
X007412Y050148D02*
X007079Y050148D01*
X006995Y050231D01*
X007329Y050231D02*
X007329Y050065D01*
X007245Y049883D02*
X006995Y049883D01*
X006995Y049632D01*
X007079Y049549D01*
X007162Y049632D01*
X007162Y049883D01*
X007245Y049883D02*
X007329Y049799D01*
X007329Y049632D01*
X007245Y048851D02*
X007162Y048851D01*
X007162Y048518D01*
X007079Y048518D02*
X007245Y048518D01*
X007329Y048601D01*
X007329Y048768D01*
X007245Y048851D01*
X006995Y048768D02*
X006995Y048601D01*
X007079Y048518D01*
X006995Y048336D02*
X006995Y048085D01*
X007079Y048002D01*
X007245Y048002D01*
X007329Y048085D01*
X007329Y048336D01*
X007496Y048336D02*
X006995Y048336D01*
X007079Y047820D02*
X007245Y047820D01*
X007329Y047737D01*
X007329Y047570D01*
X007245Y047486D01*
X007079Y047486D01*
X006995Y047570D01*
X006995Y047737D01*
X007079Y047820D01*
X006995Y047304D02*
X006995Y047054D01*
X007079Y046971D01*
X007245Y046971D01*
X007329Y047054D01*
X007329Y047304D01*
X007245Y046273D02*
X007162Y046273D01*
X007162Y045940D01*
X007079Y045940D02*
X007245Y045940D01*
X007329Y046023D01*
X007329Y046190D01*
X007245Y046273D01*
X006995Y046190D02*
X006995Y046023D01*
X007079Y045940D01*
X006995Y045758D02*
X006995Y045507D01*
X007079Y045424D01*
X007245Y045424D01*
X007329Y045507D01*
X007329Y045758D01*
X007329Y045244D02*
X007329Y045161D01*
X007162Y044994D01*
X006995Y044994D02*
X007329Y044994D01*
X007329Y044812D02*
X006995Y044812D01*
X006995Y044562D01*
X007079Y044479D01*
X007329Y044479D01*
X007245Y044297D02*
X007329Y044213D01*
X007329Y044046D01*
X007245Y043963D01*
X007079Y043963D01*
X006995Y044046D01*
X006995Y044213D01*
X007079Y044297D01*
X007245Y044297D01*
X007329Y043781D02*
X007329Y043531D01*
X007245Y043447D01*
X007162Y043531D01*
X007162Y043697D01*
X007079Y043781D01*
X006995Y043697D01*
X006995Y043447D01*
X006995Y042755D02*
X007079Y042671D01*
X007412Y042671D01*
X007329Y042588D02*
X007329Y042755D01*
X007329Y042406D02*
X007329Y042156D01*
X007245Y042072D01*
X007079Y042072D01*
X006995Y042156D01*
X006995Y042406D01*
X007162Y041890D02*
X007162Y041557D01*
X007079Y041557D02*
X007245Y041557D01*
X007329Y041640D01*
X007329Y041807D01*
X007245Y041890D01*
X007162Y041890D01*
X006995Y041807D02*
X006995Y041640D01*
X007079Y041557D01*
X006912Y041380D02*
X007329Y041380D01*
X007496Y041380D02*
X007579Y041380D01*
X007245Y041031D02*
X007329Y040947D01*
X007329Y040781D01*
X007245Y040697D01*
X007079Y040697D01*
X006995Y040781D01*
X006995Y040947D01*
X007079Y041031D01*
X007245Y041031D01*
X006828Y041213D02*
X006828Y041296D01*
X006912Y041380D01*
X007329Y040518D02*
X007329Y040434D01*
X007162Y040267D01*
X006995Y040267D02*
X007329Y040267D01*
X007412Y040085D02*
X007245Y040085D01*
X007162Y040002D01*
X007162Y039752D01*
X006995Y039752D02*
X007496Y039752D01*
X007496Y040002D01*
X007412Y040085D01*
X007245Y050924D02*
X007079Y050924D01*
X006995Y051007D01*
X006995Y051258D01*
X006912Y051258D02*
X007329Y051258D01*
X007329Y051007D01*
X007245Y050924D01*
X006828Y051091D02*
X006828Y051174D01*
X006912Y051258D01*
X006995Y051440D02*
X006995Y051606D01*
X006995Y051523D02*
X007329Y051523D01*
X007329Y051440D01*
X007496Y051523D02*
X007579Y051523D01*
X007329Y051783D02*
X007329Y051950D01*
X007412Y051867D02*
X007079Y051867D01*
X006995Y051950D01*
X006995Y052127D02*
X007496Y052127D01*
X007329Y052211D02*
X007245Y052127D01*
X007329Y052211D02*
X007329Y052377D01*
X007245Y052461D01*
X006995Y052461D01*
X007079Y052643D02*
X006995Y052726D01*
X006995Y052976D01*
X007329Y052976D01*
X007329Y053158D02*
X007329Y053409D01*
X007245Y053492D01*
X007079Y053492D01*
X006995Y053409D01*
X006995Y053158D01*
X007496Y053158D01*
X007329Y052643D02*
X007079Y052643D01*
X007079Y053674D02*
X007079Y053758D01*
X006995Y053758D01*
X006995Y053674D01*
X007079Y053674D01*
X007079Y053932D02*
X006995Y054015D01*
X006995Y054266D01*
X007079Y054448D02*
X006995Y054531D01*
X006995Y054698D01*
X007079Y054781D01*
X007245Y054781D01*
X007329Y054698D01*
X007329Y054531D01*
X007245Y054448D01*
X007079Y054448D01*
X007329Y054266D02*
X007329Y054015D01*
X007245Y053932D01*
X007079Y053932D01*
X006995Y054963D02*
X007329Y054963D01*
X007329Y055047D01*
X007245Y055130D01*
X007329Y055213D01*
X007245Y055297D01*
X006995Y055297D01*
X006995Y055130D02*
X007245Y055130D01*
X006995Y055479D02*
X007496Y055812D01*
X007245Y055995D02*
X007329Y056078D01*
X007329Y056245D01*
X007245Y056328D01*
X007162Y056328D01*
X007162Y055995D01*
X007079Y055995D02*
X007245Y055995D01*
X007079Y055995D02*
X006995Y056078D01*
X006995Y056245D01*
X007079Y056510D02*
X007245Y056510D01*
X007329Y056594D01*
X007329Y056760D01*
X007245Y056844D01*
X007162Y056844D01*
X007162Y056510D01*
X007079Y056510D02*
X006995Y056594D01*
X006995Y056760D01*
X006995Y057026D02*
X006995Y057359D01*
X007245Y057541D02*
X007245Y057875D01*
X007245Y058057D02*
X007079Y058057D01*
X006995Y058140D01*
X006995Y058307D01*
X007079Y058391D01*
X007245Y058391D01*
X007329Y058307D01*
X007329Y058140D01*
X007245Y058057D01*
X007329Y058573D02*
X007329Y058823D01*
X007245Y058906D01*
X007079Y058906D01*
X006995Y058823D01*
X006995Y058573D01*
X006828Y058573D02*
X007329Y058573D01*
X007245Y059088D02*
X007329Y059172D01*
X007329Y059339D01*
X007245Y059422D01*
X007162Y059422D01*
X007162Y059088D01*
X007079Y059088D02*
X007245Y059088D01*
X007079Y059088D02*
X006995Y059172D01*
X006995Y059339D01*
X006995Y059604D02*
X007329Y059604D01*
X007329Y059854D01*
X007245Y059938D01*
X006995Y059938D01*
X007329Y057359D02*
X006995Y057026D01*
X007329Y057026D02*
X007329Y057359D01*
X055565Y040147D02*
X055565Y039547D01*
X057390Y039547D01*
X057390Y040147D01*
X055565Y040147D01*
X061015Y047972D02*
X061265Y047972D01*
X061265Y049472D01*
X061015Y049472D01*
X061015Y048722D01*
X061015Y047972D01*
X061015Y048722D02*
X060565Y048722D01*
X057865Y048722D02*
X057869Y048894D01*
X057882Y049065D01*
X057903Y049236D01*
X057932Y049405D01*
X057970Y049572D01*
X058016Y049738D01*
X058070Y049901D01*
X058131Y050061D01*
X058201Y050218D01*
X058278Y050372D01*
X058363Y050521D01*
X058455Y050666D01*
X058554Y050807D01*
X058659Y050942D01*
X058772Y051072D01*
X058890Y051197D01*
X059015Y051315D01*
X059145Y051428D01*
X059280Y051533D01*
X059421Y051632D01*
X059566Y051724D01*
X059715Y051809D01*
X059869Y051886D01*
X060026Y051956D01*
X060186Y052017D01*
X060349Y052071D01*
X060515Y052117D01*
X060682Y052155D01*
X060851Y052184D01*
X061022Y052205D01*
X061193Y052218D01*
X061365Y052222D01*
X061537Y052218D01*
X061708Y052205D01*
X061879Y052184D01*
X062048Y052155D01*
X062215Y052117D01*
X062381Y052071D01*
X062544Y052017D01*
X062704Y051956D01*
X062861Y051886D01*
X063015Y051809D01*
X063164Y051724D01*
X063309Y051632D01*
X063450Y051533D01*
X063585Y051428D01*
X063715Y051315D01*
X063840Y051197D01*
X063958Y051072D01*
X064071Y050942D01*
X064176Y050807D01*
X064275Y050666D01*
X064367Y050521D01*
X064452Y050372D01*
X064529Y050218D01*
X064599Y050061D01*
X064660Y049901D01*
X064714Y049738D01*
X064760Y049572D01*
X064798Y049405D01*
X064827Y049236D01*
X064848Y049065D01*
X064861Y048894D01*
X064865Y048722D01*
X064861Y048550D01*
X064848Y048379D01*
X064827Y048208D01*
X064798Y048039D01*
X064760Y047872D01*
X064714Y047706D01*
X064660Y047543D01*
X064599Y047383D01*
X064529Y047226D01*
X064452Y047072D01*
X064367Y046923D01*
X064275Y046778D01*
X064176Y046637D01*
X064071Y046502D01*
X063958Y046372D01*
X063840Y046247D01*
X063715Y046129D01*
X063585Y046016D01*
X063450Y045911D01*
X063309Y045812D01*
X063164Y045720D01*
X063015Y045635D01*
X062861Y045558D01*
X062704Y045488D01*
X062544Y045427D01*
X062381Y045373D01*
X062215Y045327D01*
X062048Y045289D01*
X061879Y045260D01*
X061708Y045239D01*
X061537Y045226D01*
X061365Y045222D01*
X061193Y045226D01*
X061022Y045239D01*
X060851Y045260D01*
X060682Y045289D01*
X060515Y045327D01*
X060349Y045373D01*
X060186Y045427D01*
X060026Y045488D01*
X059869Y045558D01*
X059715Y045635D01*
X059566Y045720D01*
X059421Y045812D01*
X059280Y045911D01*
X059145Y046016D01*
X059015Y046129D01*
X058890Y046247D01*
X058772Y046372D01*
X058659Y046502D01*
X058554Y046637D01*
X058455Y046778D01*
X058363Y046923D01*
X058278Y047072D01*
X058201Y047226D01*
X058131Y047383D01*
X058070Y047543D01*
X058016Y047706D01*
X057970Y047872D01*
X057932Y048039D01*
X057903Y048208D01*
X057882Y048379D01*
X057869Y048550D01*
X057865Y048722D01*
X058415Y048722D02*
X059015Y048722D01*
X058715Y049022D02*
X058715Y048422D01*
X061615Y048722D02*
X062165Y048722D01*
X061290Y055122D02*
X061040Y055122D01*
X061040Y055872D01*
X061040Y056622D01*
X061290Y056622D01*
X061290Y055122D01*
X057890Y055872D02*
X057894Y056044D01*
X057907Y056215D01*
X057928Y056386D01*
X057957Y056555D01*
X057995Y056722D01*
X058041Y056888D01*
X058095Y057051D01*
X058156Y057211D01*
X058226Y057368D01*
X058303Y057522D01*
X058388Y057671D01*
X058480Y057816D01*
X058579Y057957D01*
X058684Y058092D01*
X058797Y058222D01*
X058915Y058347D01*
X059040Y058465D01*
X059170Y058578D01*
X059305Y058683D01*
X059446Y058782D01*
X059591Y058874D01*
X059740Y058959D01*
X059894Y059036D01*
X060051Y059106D01*
X060211Y059167D01*
X060374Y059221D01*
X060540Y059267D01*
X060707Y059305D01*
X060876Y059334D01*
X061047Y059355D01*
X061218Y059368D01*
X061390Y059372D01*
X061562Y059368D01*
X061733Y059355D01*
X061904Y059334D01*
X062073Y059305D01*
X062240Y059267D01*
X062406Y059221D01*
X062569Y059167D01*
X062729Y059106D01*
X062886Y059036D01*
X063040Y058959D01*
X063189Y058874D01*
X063334Y058782D01*
X063475Y058683D01*
X063610Y058578D01*
X063740Y058465D01*
X063865Y058347D01*
X063983Y058222D01*
X064096Y058092D01*
X064201Y057957D01*
X064300Y057816D01*
X064392Y057671D01*
X064477Y057522D01*
X064554Y057368D01*
X064624Y057211D01*
X064685Y057051D01*
X064739Y056888D01*
X064785Y056722D01*
X064823Y056555D01*
X064852Y056386D01*
X064873Y056215D01*
X064886Y056044D01*
X064890Y055872D01*
X064886Y055700D01*
X064873Y055529D01*
X064852Y055358D01*
X064823Y055189D01*
X064785Y055022D01*
X064739Y054856D01*
X064685Y054693D01*
X064624Y054533D01*
X064554Y054376D01*
X064477Y054222D01*
X064392Y054073D01*
X064300Y053928D01*
X064201Y053787D01*
X064096Y053652D01*
X063983Y053522D01*
X063865Y053397D01*
X063740Y053279D01*
X063610Y053166D01*
X063475Y053061D01*
X063334Y052962D01*
X063189Y052870D01*
X063040Y052785D01*
X062886Y052708D01*
X062729Y052638D01*
X062569Y052577D01*
X062406Y052523D01*
X062240Y052477D01*
X062073Y052439D01*
X061904Y052410D01*
X061733Y052389D01*
X061562Y052376D01*
X061390Y052372D01*
X061218Y052376D01*
X061047Y052389D01*
X060876Y052410D01*
X060707Y052439D01*
X060540Y052477D01*
X060374Y052523D01*
X060211Y052577D01*
X060051Y052638D01*
X059894Y052708D01*
X059740Y052785D01*
X059591Y052870D01*
X059446Y052962D01*
X059305Y053061D01*
X059170Y053166D01*
X059040Y053279D01*
X058915Y053397D01*
X058797Y053522D01*
X058684Y053652D01*
X058579Y053787D01*
X058480Y053928D01*
X058388Y054073D01*
X058303Y054222D01*
X058226Y054376D01*
X058156Y054533D01*
X058095Y054693D01*
X058041Y054856D01*
X057995Y055022D01*
X057957Y055189D01*
X057928Y055358D01*
X057907Y055529D01*
X057894Y055700D01*
X057890Y055872D01*
X058440Y055872D02*
X059040Y055872D01*
X058740Y056172D02*
X058740Y055572D01*
X060590Y055872D02*
X061040Y055872D01*
X061640Y055872D02*
X062190Y055872D01*
X058165Y062872D02*
X056940Y062872D01*
X056940Y063472D01*
X058165Y063472D01*
X058165Y062872D01*
D14*
X058390Y059037D02*
X058600Y059037D01*
X058705Y058932D01*
X058705Y058512D01*
X058600Y058407D01*
X058390Y058407D01*
X058285Y058512D01*
X058061Y058722D02*
X057640Y058722D01*
X057745Y058407D02*
X057745Y059037D01*
X058061Y058722D01*
X058285Y058932D02*
X058390Y059037D01*
X058390Y051912D02*
X058600Y051912D01*
X058705Y051807D01*
X058705Y051387D01*
X058600Y051282D01*
X058390Y051282D01*
X058285Y051387D01*
X058061Y051387D02*
X057956Y051282D01*
X057745Y051282D01*
X057640Y051387D01*
X057640Y051597D01*
X057745Y051702D01*
X057850Y051702D01*
X058061Y051597D01*
X058061Y051912D01*
X057640Y051912D01*
X058285Y051807D02*
X058390Y051912D01*
X056146Y046037D02*
X056146Y045447D01*
X055752Y045447D01*
X055538Y045447D02*
X055144Y045447D01*
X055341Y045447D02*
X055341Y046037D01*
X055538Y045841D01*
X034567Y046488D02*
X034462Y046383D01*
X034252Y046383D01*
X034147Y046488D01*
X034147Y046908D01*
X034252Y047013D01*
X034462Y047013D01*
X034567Y046908D01*
X034567Y046488D01*
X034357Y046593D02*
X034147Y046383D01*
X033923Y046698D02*
X033502Y046698D01*
X033607Y047013D02*
X033923Y046698D01*
X033607Y046383D02*
X033607Y047013D01*
D15*
X063334Y046360D02*
X063446Y046458D01*
X063554Y046562D01*
X063656Y046671D01*
X063753Y046785D01*
X063845Y046904D01*
X063930Y047026D01*
X064010Y047153D01*
X064083Y047284D01*
X064150Y047418D01*
X064210Y047555D01*
X064263Y047695D01*
X064310Y047837D01*
X064349Y047981D01*
X064382Y048127D01*
X064407Y048275D01*
X064425Y048423D01*
X064436Y048572D01*
X064440Y048722D01*
X064436Y048872D01*
X064425Y049021D01*
X064407Y049169D01*
X064382Y049317D01*
X064349Y049463D01*
X064310Y049607D01*
X064263Y049749D01*
X064210Y049889D01*
X064150Y050026D01*
X064083Y050160D01*
X064010Y050291D01*
X063930Y050418D01*
X063845Y050540D01*
X063753Y050659D01*
X063656Y050773D01*
X063554Y050882D01*
X063446Y050986D01*
X063334Y051084D01*
X063359Y053510D02*
X063471Y053608D01*
X063579Y053712D01*
X063681Y053821D01*
X063778Y053935D01*
X063870Y054054D01*
X063955Y054176D01*
X064035Y054303D01*
X064108Y054434D01*
X064175Y054568D01*
X064235Y054705D01*
X064288Y054845D01*
X064335Y054987D01*
X064374Y055131D01*
X064407Y055277D01*
X064432Y055425D01*
X064450Y055573D01*
X064461Y055722D01*
X064465Y055872D01*
X064461Y056022D01*
X064450Y056171D01*
X064432Y056319D01*
X064407Y056467D01*
X064374Y056613D01*
X064335Y056757D01*
X064288Y056899D01*
X064235Y057039D01*
X064175Y057176D01*
X064108Y057310D01*
X064035Y057441D01*
X063955Y057568D01*
X063870Y057690D01*
X063778Y057809D01*
X063681Y057923D01*
X063579Y058032D01*
X063471Y058136D01*
X063359Y058234D01*
D16*
X061615Y055872D03*
X061590Y048722D03*
D17*
X062671Y046222D03*
X058734Y046222D03*
D18*
X059056Y044745D02*
X059058Y044761D01*
X059064Y044777D01*
X059073Y044791D01*
X059085Y044802D01*
X059099Y044810D01*
X059115Y044815D01*
X059131Y044816D01*
X059147Y044813D01*
X059162Y044806D01*
X059176Y044797D01*
X059186Y044784D01*
X059194Y044769D01*
X059198Y044753D01*
X059198Y044737D01*
X059194Y044721D01*
X059186Y044706D01*
X059176Y044693D01*
X059163Y044684D01*
X059147Y044677D01*
X059131Y044674D01*
X059115Y044675D01*
X059099Y044680D01*
X059085Y044688D01*
X059073Y044699D01*
X059064Y044713D01*
X059058Y044729D01*
X059056Y044745D01*
X062993Y044745D02*
X062995Y044761D01*
X063001Y044777D01*
X063010Y044791D01*
X063022Y044802D01*
X063036Y044810D01*
X063052Y044815D01*
X063068Y044816D01*
X063084Y044813D01*
X063099Y044806D01*
X063113Y044797D01*
X063123Y044784D01*
X063131Y044769D01*
X063135Y044753D01*
X063135Y044737D01*
X063131Y044721D01*
X063123Y044706D01*
X063113Y044693D01*
X063100Y044684D01*
X063084Y044677D01*
X063068Y044674D01*
X063052Y044675D01*
X063036Y044680D01*
X063022Y044688D01*
X063010Y044699D01*
X063001Y044713D01*
X062995Y044729D01*
X062993Y044745D01*
M02*
