G75*
G70*
%OFA0B0*%
%FSLAX24Y24*%
%IPPOS*%
%LPD*%
%AMOC8*
5,1,8,0,0,1.08239X$1,22.5*
%
%ADD10C,0.0039*%
%ADD11C,0.0000*%
D10*
X006465Y003275D02*
X064339Y003275D01*
X064385Y003277D01*
X064431Y003282D01*
X064477Y003291D01*
X064522Y003304D01*
X064565Y003320D01*
X064607Y003339D01*
X064648Y003362D01*
X064686Y003388D01*
X064723Y003417D01*
X064757Y003448D01*
X064788Y003482D01*
X064817Y003519D01*
X064843Y003557D01*
X064866Y003598D01*
X064885Y003640D01*
X064901Y003683D01*
X064914Y003728D01*
X064923Y003774D01*
X064928Y003820D01*
X064930Y003866D01*
X064929Y003866D02*
X064929Y031819D01*
X064930Y031819D02*
X064928Y031865D01*
X064923Y031911D01*
X064914Y031957D01*
X064901Y032002D01*
X064885Y032045D01*
X064866Y032087D01*
X064843Y032128D01*
X064817Y032166D01*
X064788Y032203D01*
X064757Y032237D01*
X064723Y032268D01*
X064686Y032297D01*
X064648Y032323D01*
X064607Y032346D01*
X064565Y032365D01*
X064522Y032381D01*
X064477Y032394D01*
X064431Y032403D01*
X064385Y032408D01*
X064339Y032410D01*
X064339Y032409D02*
X006465Y032409D01*
X006465Y032410D02*
X006419Y032408D01*
X006373Y032403D01*
X006327Y032394D01*
X006282Y032381D01*
X006239Y032365D01*
X006197Y032346D01*
X006156Y032323D01*
X006118Y032297D01*
X006081Y032268D01*
X006047Y032237D01*
X006016Y032203D01*
X005987Y032166D01*
X005961Y032128D01*
X005938Y032087D01*
X005919Y032045D01*
X005903Y032002D01*
X005890Y031957D01*
X005881Y031911D01*
X005876Y031865D01*
X005874Y031819D01*
X005874Y003866D01*
X005876Y003820D01*
X005881Y003774D01*
X005890Y003728D01*
X005903Y003683D01*
X005919Y003640D01*
X005938Y003598D01*
X005961Y003557D01*
X005987Y003519D01*
X006016Y003482D01*
X006047Y003448D01*
X006081Y003417D01*
X006118Y003388D01*
X006156Y003362D01*
X006197Y003339D01*
X006239Y003320D01*
X006282Y003304D01*
X006327Y003291D01*
X006373Y003282D01*
X006419Y003277D01*
X006465Y003275D01*
D11*
X032350Y017055D02*
X032352Y017126D01*
X032358Y017197D01*
X032368Y017268D01*
X032382Y017337D01*
X032399Y017406D01*
X032421Y017474D01*
X032446Y017541D01*
X032475Y017606D01*
X032507Y017669D01*
X032543Y017731D01*
X032582Y017790D01*
X032625Y017847D01*
X032670Y017902D01*
X032719Y017954D01*
X032770Y018003D01*
X032824Y018049D01*
X032881Y018093D01*
X032939Y018133D01*
X033000Y018169D01*
X033063Y018203D01*
X033128Y018232D01*
X033194Y018258D01*
X033262Y018281D01*
X033330Y018299D01*
X033400Y018314D01*
X033470Y018325D01*
X033541Y018332D01*
X033612Y018335D01*
X033683Y018334D01*
X033754Y018329D01*
X033825Y018320D01*
X033895Y018307D01*
X033964Y018291D01*
X034032Y018270D01*
X034099Y018246D01*
X034165Y018218D01*
X034228Y018186D01*
X034290Y018151D01*
X034350Y018113D01*
X034408Y018071D01*
X034463Y018027D01*
X034516Y017979D01*
X034566Y017928D01*
X034613Y017875D01*
X034657Y017819D01*
X034698Y017761D01*
X034736Y017700D01*
X034770Y017638D01*
X034800Y017573D01*
X034827Y017508D01*
X034851Y017440D01*
X034870Y017372D01*
X034886Y017303D01*
X034898Y017232D01*
X034906Y017162D01*
X034910Y017091D01*
X034910Y017019D01*
X034906Y016948D01*
X034898Y016878D01*
X034886Y016807D01*
X034870Y016738D01*
X034851Y016670D01*
X034827Y016602D01*
X034800Y016537D01*
X034770Y016472D01*
X034736Y016410D01*
X034698Y016349D01*
X034657Y016291D01*
X034613Y016235D01*
X034566Y016182D01*
X034516Y016131D01*
X034463Y016083D01*
X034408Y016039D01*
X034350Y015997D01*
X034290Y015959D01*
X034228Y015924D01*
X034165Y015892D01*
X034099Y015864D01*
X034032Y015840D01*
X033964Y015819D01*
X033895Y015803D01*
X033825Y015790D01*
X033754Y015781D01*
X033683Y015776D01*
X033612Y015775D01*
X033541Y015778D01*
X033470Y015785D01*
X033400Y015796D01*
X033330Y015811D01*
X033262Y015829D01*
X033194Y015852D01*
X033128Y015878D01*
X033063Y015907D01*
X033000Y015941D01*
X032939Y015977D01*
X032881Y016017D01*
X032824Y016061D01*
X032770Y016107D01*
X032719Y016156D01*
X032670Y016208D01*
X032625Y016263D01*
X032582Y016320D01*
X032543Y016379D01*
X032507Y016441D01*
X032475Y016504D01*
X032446Y016569D01*
X032421Y016636D01*
X032399Y016704D01*
X032382Y016773D01*
X032368Y016842D01*
X032358Y016913D01*
X032352Y016984D01*
X032350Y017055D01*
M02*
