%
M48
M72
T01C0.0236
T02C0.0276
T03C0.0315
T04C0.0320
T05C0.0394
T06C0.0433
T07C0.0472
T08C0.0531
T09C0.0590
T10C0.1260
T11C0.2559
%
T01
X13624Y5954
X14299Y3879
X14724Y3879
X18024Y3879
X18449Y3879
X19649Y7854
X20649Y7854
X19699Y8679
X19699Y9429
X19574Y10204
X17174Y10004
X16324Y9379
X18574Y8179
X14299Y8429
X13699Y8779
X12999Y8854
X13249Y9979
X13249Y10779
X14324Y11179
X14824Y11804
X16349Y12629
X17474Y12629
X19899Y13179
X20374Y13179
X20374Y13654
X19899Y13654
X19899Y14129
X19899Y14604
X19899Y15079
X20374Y15079
X20374Y14604
X20374Y14129
X18574Y14454
X18699Y15204
X17774Y16479
X17274Y16979
X16599Y16104
X16049Y16979
X15024Y16979
X15149Y16129
X14149Y16979
X13199Y16979
X13699Y17479
X15224Y17979
X16599Y17979
X18524Y16979
X21299Y16979
X20024Y18829
X17574Y19354
X15849Y20179
X14899Y20179
X14099Y20179
X13299Y20179
X15324Y21129
X13974Y22029
X12899Y22654
X12874Y23354
X13424Y24404
X14149Y25754
X14874Y25679
X15824Y25679
X17374Y25679
X18474Y24654
X19224Y24804
X19999Y24829
X20774Y24804
X22324Y24804
X23049Y24829
X23724Y24804
X24549Y25029
X24824Y24254
X25649Y24229
X25674Y23429
X25449Y22829
X26149Y22829
X24849Y23204
X25424Y25254
X26174Y25279
X25174Y26154
X23974Y27329
X22474Y27479
X21974Y28104
X21449Y28104
X20924Y28654
X22674Y29304
X22324Y30079
X23174Y30304
X23524Y29929
X24874Y30154
X26724Y29304
X27849Y29254
X27124Y30504
X23799Y28629
X26749Y27054
X27674Y27879
X28849Y27329
X29549Y26404
X30724Y26529
X31299Y28354
X32849Y28354
X34799Y26979
X34049Y26819
X33349Y25804
X32374Y24529
X32024Y23404
X30849Y22904
X30599Y22404
X30174Y23379
X28574Y23404
X28249Y24579
X33099Y21929
X33674Y21554
X34024Y20879
X34724Y20204
X33099Y20229
X31699Y20129
X31049Y21104
X30299Y20704
X29649Y20829
X27449Y19279
X26674Y18479
X25699Y17979
X24149Y17479
X24899Y16979
X25824Y16454
X27074Y16979
X28549Y16979
X28849Y17479
X30549Y16979
X30124Y16179
X31374Y16454
X31824Y16979
X31699Y18404
X31024Y18904
X33099Y18954
X36999Y20554
X38474Y20604
X40324Y20429
X38974Y18729
X36949Y16304
X37624Y15779
X35549Y14954
X33074Y14054
X31674Y15129
X28699Y16179
X28424Y15204
X26699Y15204
X25824Y15054
X28549Y13529
X27499Y11554
X26174Y11479
X25674Y11479
X25674Y10979
X25674Y10479
X25674Y9979
X25674Y9479
X26174Y9479
X26174Y9979
X26174Y10479
X26174Y10979
X26174Y8979
X25674Y8979
X27474Y7254
X28524Y7829
X29074Y8504
X30974Y7754
X28524Y6254
X36924Y4804
X39799Y4954
X39799Y4604
X39799Y4254
X48999Y8579
X48999Y8979
X48999Y9379
X48999Y9754
X48999Y10154
X49399Y10154
X49774Y10154
X50174Y10154
X50549Y10154
X50949Y10154
X51324Y10154
X51324Y9754
X51324Y9354
X51324Y8954
X51324Y8554
X51724Y8554
X51724Y8954
X51724Y9354
X51724Y9754
X51724Y10154
X52099Y11304
X51724Y11704
X52099Y12104
X52499Y11704
X51324Y12104
X50924Y11704
X50524Y12104
X50124Y11704
X50524Y11304
X51324Y11304
X50924Y12504
X50524Y12904
X50124Y13304
X50524Y13704
X50549Y14129
X50549Y14504
X50149Y14504
X50149Y14129
X49749Y14129
X49749Y14504
X50949Y14504
X50949Y14129
X51349Y14129
X51349Y14504
X51749Y14504
X51749Y14129
X52149Y14129
X52149Y14504
X52549Y14504
X52549Y14129
X52099Y13704
X51724Y13304
X52099Y12904
X51724Y12504
X51324Y12904
X50924Y13304
X51324Y13704
X52499Y13304
X52499Y12504
X50124Y12504
X46874Y11519
X46474Y11519
X46074Y11519
X45674Y11519
X45674Y11119
X45674Y10719
X46074Y10719
X46074Y11119
X46474Y11119
X46474Y10719
X46874Y10719
X46874Y11119
X41874Y10354
X37199Y12879
X37199Y13254
X31849Y12279
X24149Y19204
X25024Y19604
X23274Y20754
X22024Y20729
X20024Y20729
X15149Y23079
X17499Y24504
X14149Y26504
X13174Y26854
X15074Y27329
X15449Y27879
X15099Y28979
X14749Y29354
X14399Y29879
X13174Y29079
X10774Y28504
X9574Y28654
X9774Y26679
X9774Y24954
X17374Y28404
X18849Y28979
X19224Y28629
X18474Y29354
X17374Y29879
X17224Y30379
X18124Y30479
X17724Y31104
X17174Y31129
X19674Y29779
X19224Y27179
X21724Y26304
X22999Y26354
X30749Y30179
X34949Y30704
X35799Y28829
X36574Y28179
X37849Y28179
X38549Y28604
X38349Y27304
X38349Y26654
X39609Y25054
X37249Y24204
X37249Y23554
X40349Y23129
X40934Y23579
X41334Y23579
X41734Y23579
X42574Y23579
X43964Y23754
X44314Y23754
X43824Y21729
X45949Y21079
X46649Y20654
X46489Y19304
X46089Y19304
X45689Y19304
X45289Y19304
X45289Y18904
X45689Y18904
X46089Y18904
X46489Y18904
X46889Y18904
X46889Y19304
X48314Y19254
X46099Y15979
X46474Y15004
X42674Y19754
X34074Y23204
X42309Y27854
X42309Y28254
X41249Y28754
X43524Y27554
X44799Y27454
X45274Y27454
X45749Y27454
X45749Y27954
X45274Y27954
X44799Y27954
X44799Y26954
X45274Y26954
X45749Y26954
X46874Y27229
X45524Y29154
X51549Y28129
X51549Y27704
X51974Y27704
X51974Y28129
X52399Y28129
X52399Y27704
X52824Y27704
X52824Y28129
X53249Y28129
X53249Y27704
X53249Y27279
X52824Y27279
X52399Y27279
X51974Y27279
X51549Y27279
X51549Y26854
X51974Y26854
X52399Y26854
X52824Y26854
X53249Y26854
X54799Y26854
X54799Y27279
X55224Y27279
X55224Y26854
X55649Y26854
X55649Y27279
X56074Y27279
X56074Y26854
X56499Y26854
X56499Y27279
X56499Y27704
X56074Y27704
X55649Y27704
X55224Y27704
X54799Y27704
X54799Y28129
X55224Y28129
X55649Y28129
X56074Y28129
X56499Y28129
X56499Y23704
X56074Y23704
X55649Y23704
X55224Y23704
X54799Y23704
X54799Y23279
X54799Y22854
X54799Y22429
X55224Y22429
X55224Y22854
X55224Y23279
X55649Y23279
X55649Y22854
X55649Y22429
X56074Y22429
X56074Y22854
X56074Y23279
X56499Y23279
X56499Y22854
X56499Y22429
X53274Y22379
X52849Y22379
X52424Y22379
X51999Y22379
X51574Y22379
X51574Y22804
X51574Y23229
X51574Y23654
X51999Y23654
X51999Y23229
X51999Y22804
X52424Y22804
X52424Y23229
X52424Y23654
X52849Y23654
X52849Y23229
X52849Y22804
X53274Y22804
X53274Y23229
X53274Y23654
X61639Y16179
X61639Y15804
X61639Y15429
X61639Y15054
X57114Y14129
X38774Y31079
X13374Y31304
X12449Y31504
X12974Y16279
X12524Y15204
X11849Y13079
X10774Y11029
X12349Y9979
X10774Y9829
X8249Y10154
X8249Y10529
T02
X14299Y4979
X14299Y4604
X14299Y4229
X14724Y4229
X14724Y4604
X14724Y4979
X18024Y4979
X18024Y4604
X18024Y4229
X18449Y4229
X18449Y4604
X18449Y4979
X21299Y5654
X21724Y5654
X22149Y5654
X22149Y6079
X21724Y6079
X21299Y6079
X21299Y6504
X21724Y6504
X22149Y6504
X26499Y6504
X26499Y6079
X26924Y6079
X26924Y6504
X27349Y6504
X27349Y6079
X27349Y5654
X26924Y5654
X26499Y5654
X37049Y9879
X37049Y10304
X37049Y10729
X37474Y10729
X37474Y10304
X37474Y9879
X37899Y9879
X37899Y10304
X37899Y10729
X42949Y5979
X42949Y5579
X43349Y5579
X43349Y5979
X43349Y16254
X43749Y16254
X44149Y16254
X44149Y16679
X43749Y16679
X43349Y16679
X43349Y17104
X43749Y17104
X44149Y17104
T03
X52549Y20154
T04
X50549Y20154
T05
X10756Y19870
X9756Y19870
X9756Y20870
X9756Y21870
X10756Y21870
X10756Y20870
X10756Y22870
X10756Y23870
X9756Y23870
X9756Y22870
X9756Y18870
X10756Y18870
X10756Y17870
X9756Y17870
X9756Y16870
X10756Y16870
X10756Y15870
X9756Y15870
X9756Y14870
X10756Y14870
X10756Y13870
X9756Y13870
X9756Y12870
X10756Y12870
X10756Y11870
X9756Y11870
T06
X12349Y11979
X36924Y6804
X59648Y17054
X62601Y17054
X62626Y24204
X59673Y24204
T07
X57989Y18491
X62910Y18491
X62910Y10617
X57989Y10617
T08
X62674Y8616
X62674Y6647
X62674Y4679
X62674Y29104
X62674Y31072
T09
X35830Y9455
X33630Y9455
X31430Y9455
T10
X10008Y4850
X10008Y30834
X49378Y30834
T11
X33630Y17055
M30
