%
M48
M72
T01C0.0197
T02C0.0236
T03C0.0315
T04C0.0320
T05C0.0354
T06C0.0360
T07C0.0394
T08C0.0400
T09C0.0512
T10C0.0551
T11C0.0710
T12C0.1260
T13C0.2165
%
T01
X50014Y27064
X50565Y27064
T02
X19414Y7114
X19414Y8214
X20139Y8214
X11589Y11639
X11589Y12014
X16739Y15789
X16264Y16139
X15714Y16289
X15014Y17189
X14139Y16833
X13364Y17958
X15389Y17889
X17164Y19414
X16739Y20389
X16464Y20864
X16314Y21389
X15514Y21739
X15364Y20989
X15014Y20289
X17839Y21339
X18389Y21689
X19714Y21914
X18939Y23039
X17239Y23264
X18339Y24264
X20239Y24239
X20764Y24064
X21789Y23414
X21189Y23014
X22764Y23814
X23789Y23314
X25089Y24039
X25464Y24414
X26114Y24864
X24314Y25364
X23739Y26364
X25564Y26239
X26989Y25539
X28414Y25614
X29939Y25614
X31789Y25764
X31714Y24639
X32714Y25014
X33914Y24939
X34189Y24139
X32739Y22939
X32114Y21564
X32664Y20764
X32114Y20014
X32664Y18989
X33139Y18214
X32189Y17289
X29714Y17689
X29664Y16439
X29664Y15289
X28539Y14514
X27139Y15189
X26614Y15714
X27139Y16439
X25639Y17239
X26089Y17964
X26614Y18514
X24314Y19414
X24839Y19989
X24489Y20364
X26614Y20839
X27139Y20189
X28364Y23214
X28989Y23139
X26489Y23564
X27189Y24564
X25464Y27014
X24739Y27764
X25939Y28289
X25864Y28814
X25339Y29014
X24339Y29014
X26939Y29914
X27664Y29314
X28489Y29289
X29714Y28814
X28114Y30264
X28839Y30614
X27239Y30839
X26464Y31064
X25489Y30814
X25739Y29989
X24314Y30439
X24364Y31589
X23139Y31589
X21389Y31439
X20689Y31764
X19664Y31789
X20064Y30964
X18489Y30939
X18339Y30014
X17389Y30514
X15264Y30514
X13964Y28914
X14639Y28514
X15014Y26889
X15039Y26364
X15239Y25814
X13789Y25289
X13939Y24764
X14539Y24314
X14339Y23764
X15114Y23139
X13489Y25864
X17414Y26989
X18464Y26264
X20689Y25889
X20689Y25364
X20689Y24839
X20889Y26414
X20864Y28014
X19639Y28864
X19639Y29389
X18614Y29014
X21089Y29614
X22164Y29414
X22364Y30039
X21464Y30814
X26939Y32589
X27614Y32039
X29439Y31514
X29464Y32964
X28464Y33939
X28439Y34614
X33364Y34264
X37589Y34264
X39239Y32739
X39914Y32064
X40714Y32539
X41239Y32314
X42239Y31564
X43239Y31539
X44239Y31814
X45239Y32314
X46339Y33464
X47239Y34264
X51239Y32514
X49939Y31814
X47439Y31839
X48239Y30739
X49289Y30439
X47164Y29489
X45239Y27839
X42689Y27739
X42789Y26564
X41989Y25489
X40939Y25314
X42789Y24689
X45239Y25264
X45764Y26014
X48939Y27089
X49514Y27839
X52764Y28364
X53364Y28889
X56039Y27314
X54864Y26514
X55664Y26189
X56789Y25814
X58989Y26839
X59639Y26614
X60039Y25289
X59314Y24289
X59314Y22439
X60414Y22664
X61289Y21064
X59764Y20839
X59114Y21214
X58114Y20489
X58964Y19489
X56764Y19014
X54564Y19264
X54564Y20489
X56039Y20889
X57264Y22064
X52489Y20264
X51239Y19839
X48864Y18614
X49639Y17989
X47789Y18989
X46989Y18189
X44289Y19414
X42839Y19039
X41364Y19789
X40914Y19289
X39864Y19264
X38489Y19114
X38864Y18289
X38364Y17339
X40389Y15864
X42214Y16339
X42739Y16989
X43839Y16339
X46739Y15964
X45239Y14314
X47839Y14014
X50864Y16114
X42739Y13339
X41764Y13139
X40739Y13814
X39839Y12689
X39064Y12089
X37739Y11464
X37289Y12314
X35239Y12514
X34739Y12864
X35239Y13364
X35764Y13614
X36439Y13814
X36114Y14839
X33089Y13614
X32639Y13164
X25164Y14789
X23889Y15889
X22114Y15914
X39114Y20789
X44289Y20864
X46114Y22464
X47989Y22239
X48714Y22539
X49514Y21739
X51939Y21589
X51364Y23514
X52489Y24289
X50814Y25289
X50114Y24764
X49089Y23789
X50814Y26064
X56464Y29289
X58114Y29289
X58114Y28364
X60914Y29489
X60564Y29914
X59489Y30164
X58664Y30089
X60264Y30714
X62314Y29539
X64289Y29539
X65564Y31139
X66989Y29639
X67523Y28364
X66989Y27839
X69289Y27839
X71889Y26414
X72489Y26389
X71814Y25389
X69289Y24439
X68014Y24289
X69514Y23189
X72914Y22739
X74839Y22964
X75289Y23239
X76314Y23739
X77614Y24264
X77614Y25639
X80564Y27439
X79464Y27839
X80289Y28339
X78189Y28589
X77664Y28589
X76939Y28664
X76864Y30189
X75739Y30114
X74389Y28364
X71364Y29539
X70114Y32064
X70114Y32514
X70114Y32964
X70114Y33414
X70114Y33864
X69064Y33864
X69064Y33414
X69064Y32964
X69064Y32514
X69064Y32064
X68064Y32064
X68064Y32514
X68064Y32964
X68064Y33414
X68064Y33864
X75114Y33039
X80614Y31339
X86889Y27964
X84814Y24789
X84189Y24289
X82089Y23339
X80914Y23114
X80064Y22464
X78739Y22214
X78039Y21514
X76539Y22739
X80764Y23914
X84189Y22764
X85389Y21889
X80864Y21614
X80489Y19564
X80914Y19239
X79739Y18814
X81489Y18214
X84714Y18539
X81889Y16239
X77214Y14939
X76814Y14189
X74539Y13964
X71989Y15964
X68514Y15914
X66539Y16839
X67889Y17439
X65214Y19064
X64364Y18764
X63364Y18389
X62539Y18164
X63739Y17689
X62189Y16689
X61639Y16864
X61264Y17389
X59764Y16589
X64339Y15114
X64914Y15564
X65114Y14339
X66689Y12164
X66689Y10989
X63364Y10414
X62464Y11814
X60714Y11839
X56589Y6214
X73489Y10064
X61289Y19489
X63164Y22289
X63814Y22714
X64689Y22964
X64789Y24289
X64314Y25139
X64289Y26389
X65314Y26414
X62314Y27839
X58364Y32264
X59839Y33014
X60214Y32664
X59264Y33489
X56239Y34289
X52764Y31139
X44339Y29489
X40389Y28364
X39639Y29489
X37589Y28239
X39339Y27139
X37739Y26389
X37989Y25614
X34364Y27739
X34264Y28564
X32239Y29214
X32714Y29639
X33364Y30314
X32189Y30764
X37614Y30789
X28764Y27264
X18114Y33389
X42814Y23689
X44064Y23389
X67989Y20564
X69514Y20589
X75839Y20539
T03
X55814Y31489
X55564Y31489
X54064Y31489
X53814Y31489
X31284Y31130
X30284Y31130
X30284Y30130
X31284Y30130
X31284Y29130
X30284Y29130
X30284Y28130
X31284Y28130
X31284Y27130
X30284Y27130
X30284Y26130
X31284Y26130
X31284Y25130
X30284Y25130
X30284Y24130
X31284Y24130
X31284Y23130
X30284Y23130
X30284Y22130
X31284Y22130
X31284Y21130
X30284Y21130
X30284Y20130
X31284Y20130
X31284Y19130
X30284Y19130
X30284Y18130
X31284Y18130
X31284Y17130
X30284Y17130
X30284Y16130
X31284Y16130
X31284Y15130
X30284Y15130
X30284Y14130
X31284Y14130
X31284Y13130
X30284Y13130
X30284Y12130
X31284Y12130
T04
X48514Y11289
X49514Y11289
X50289Y7189
X51289Y7189
T05
X51239Y15264
X50239Y15264
X49239Y15264
X48239Y15264
X47239Y15264
X46239Y15264
X44239Y15264
X43239Y15264
X42239Y15264
X41239Y15264
X40239Y15264
X39239Y15264
X38239Y15264
X37239Y15264
X36239Y17264
X35239Y17264
X35239Y18264
X36239Y18264
X36239Y19264
X35239Y19264
X35239Y20264
X36239Y20264
X36239Y21264
X35239Y21264
X35239Y22264
X36239Y22264
X36239Y23264
X35239Y23264
X35239Y24264
X36239Y24264
X36239Y25264
X35239Y25264
X35239Y26264
X36239Y26264
X36239Y27264
X35239Y27264
X35239Y28264
X36239Y28264
X36239Y29264
X35239Y29264
X35239Y30264
X36239Y30264
X36239Y31264
X35239Y31264
X35239Y32264
X36239Y32264
X36239Y33264
X35239Y33264
X35239Y34264
X36239Y34264
X39239Y34264
X40239Y34264
X41239Y34264
X42239Y34264
X43239Y34264
X44239Y34264
X45239Y34264
X46239Y34264
X48239Y34264
X49239Y34264
X50239Y34264
X51239Y34264
X52239Y34264
X53239Y34264
X54239Y34264
X55239Y34264
X56839Y34264
X57839Y34264
X58839Y34264
X59839Y34264
X60839Y34264
X61839Y34264
X62839Y34264
X63839Y34264
X48239Y26264
X47239Y26264
X47239Y25264
X48239Y25264
X48239Y24264
X52239Y15264
X53239Y15264
X55239Y15264
X56239Y15264
X57239Y15264
X58239Y15264
X59239Y15264
X60239Y15264
X70464Y17364
X71464Y17364
X72464Y17364
X73464Y17364
X74464Y17364
X75464Y17364
X76464Y17364
X77464Y17364
X77464Y19364
X76464Y19364
X75464Y19364
X74464Y19364
X73464Y19364
X72464Y19364
X71464Y19364
X70464Y19364
X23164Y19364
X22164Y19364
X21164Y19364
X20164Y19364
X19164Y19364
X18164Y19364
X18164Y17364
X19164Y17364
X20164Y17364
X21164Y17364
X22164Y17364
X23164Y17364
T06
X28839Y13639
X28839Y12639
T07
X33389Y11289
X34389Y11289
X12583Y14374
X12583Y15374
X12583Y16374
X12583Y17374
X11583Y17374
X11583Y16374
X11583Y15374
X11583Y14374
X11583Y18374
X11583Y19374
X11583Y20374
X11583Y21374
X12583Y21374
X12583Y20374
X12583Y19374
X12583Y18374
X12583Y22374
X12583Y23374
X12583Y24374
X12583Y25374
X11583Y25374
X11583Y24374
X11583Y23374
X11583Y22374
X11583Y26374
X12583Y26374
X19864Y34114
X20864Y34114
X21864Y34114
X22864Y34114
X23864Y34114
X24864Y34114
X25864Y34114
X26864Y34114
X77239Y33739
X78239Y33739
X79239Y33739
X79239Y32739
X78239Y32739
X77239Y32739
X86961Y27019
X87961Y27019
X87961Y26019
X86961Y26019
X86961Y25019
X87961Y25019
X87961Y24019
X86961Y24019
X86961Y23019
X87961Y23019
X87961Y22019
X86961Y22019
X86961Y21019
X87961Y21019
X87961Y20019
X86961Y20019
X86961Y19019
X87961Y19019
X87961Y18019
X86961Y18019
X86961Y17019
X87961Y17019
X87961Y16019
X86961Y16019
X86961Y15019
X87961Y15019
T08
X47239Y24264
T09
X54324Y24489
X62194Y24489
X63425Y11702
X57472Y11702
X55488Y11702
X53504Y11702
X53504Y8726
X55488Y8726
X57472Y8726
X63425Y8726
X46075Y8726
X44091Y8726
X42107Y8726
X36154Y8726
X36154Y11702
X42107Y11702
X44091Y11702
X46075Y11702
T10
X15539Y32889
X13571Y32889
T11
X84418Y33176
X84418Y31326
X84418Y29476
T12
X65323Y33295
X31859Y33295
X31859Y10067
X65323Y10067
T13
X70244Y10657
X77744Y10657
X85244Y10657
X23414Y10657
X15914Y10657
M30
